<?xml version="1.0" encoding="utf-8"?>
<!-- Generator: Adobe Illustrator 17.0.0, SVG Export Plug-In . SVG Version: 6.00 Build 0)  -->
<!DOCTYPE svg PUBLIC "-//W3C//DTD SVG 1.1 Basic//EN" "http://www.w3.org/Graphics/SVG/1.1/DTD/svg11-basic.dtd">
<svg version="1.1" baseProfile="basic" id="Слой_1"
	 xmlns="http://www.w3.org/2000/svg" xmlns:xlink="http://www.w3.org/1999/xlink" x="0px" y="0px" width="343.375px"
	 height="236.75px" viewBox="0 0 343.375 236.75" xml:space="preserve">
<path fill="#292826" stroke="#FFFFFF" stroke-width="6" stroke-miterlimit="10" d="M338.685,123.394c0,0-37.937-8.766-70.666-8.032
	c-0.768-2.12-1.84-3.69-3.134-4.793c-6.87-8.574-22.76,0.802-28.432,8.768c-1.316,1.851-1.92,3.866-3.708,5.082
	c-7.17,4.88-20.971,8.466-29.44,9.715c0,0-17.748-0.717-24.53-1.128l-11.134-0.26c3.726-2.212,14.837-9.381,14.36-15.978
	c0,0,0.388-1.009,0.939-2.672c0.563-1.311,0.879-2.774,1.274-4.166c0.041-0.144,0.081-0.286,0.122-0.433
	c1.756-6.211,3.445-13.554,1.942-19.989c-0.075-0.339-0.158-0.672-0.252-0.995c0,0,0.354-13.92-7.399,1.349l-2.868,22.133
	c-0.078-1.315-0.345-4.085-1.05-9.786c-0.052-0.424-0.107-0.865-0.165-1.322c-0.156-1.242-0.06-13.869-0.06-13.869
	s-0.936-10.815-7.607,3.056c0,0-2.321,11.646,0.376,23.08l-2.485,0.311c0,0-0.131-0.567-0.345-1.513
	c-0.761-3.38-2.562-11.602-3.13-16.131c0,0-1.82-1.25-3.801-1.23c-2.245,0.023-4.696,1.678-4.938,8.635c0,0,0.018,0.264,0.083,0.732
	c0.282,2.03,1.446,7.903,5.818,12.822c0,0-0.878,1.371-2.578,1.638c-1.701,0.266-4.224-0.574-7.514-4.996
	c0,0-2.974-6.011-7.308-5.156c-1,0.197-2.073,0.76-3.199,1.846l-0.21,0.848c-0.164-0.267-0.333-0.53-0.495-0.797
	c-0.296-0.486-0.646-1.019-1.027-1.584c-2.38-3.91-4.597-7.913-6.292-12.175c0,0-0.836-13.35-6.635-19.353
	c0,0-2.949-6.774-8.908-14.018c-0.368-1.364-2.815-10.866-2.73-10.111l-0.009-0.033c-0.977-11.954-9.468-33.727-10.977-38.95
	l-0.017-0.059c0,0-1.698-4.087-3.163-3.875c-1.003,0.143-1.897,2.298-2.063,9.154c0,0,2.723,24.836,7.772,31.937
	c-2.063-2.688-9.713-13.458-11.907-28.054l-2.127-10.245c0,0-2.186-5.765-4.525-4.64c-0.982,0.472-1.99,2.149-2.876,5.989
	c0,0,0.002,0.02,0.005,0.059c0.109,1.206,1.974,20.65,10.151,30.624l5.079,10.295L85.096,44.83c0,0-0.149-0.233-0.415-0.652
	c-1.859-2.938-9.414-15.039-11.299-20.627c-0.208-0.615-0.346-1.153-0.4-1.589c-0.37-2.95-2.802-5.789-4.511-4.554
	c-1.169,0.844-1.999,3.596-1.599,9.524c0,0,4.873,18.733,19.936,28.194l-1.086,1.398c-0.02-0.01-14.396-7.456-25.412-21.619
	l-2.901-3c0,0-1.696-2.162-2.912-2.215c-1.073-0.049-1.773,1.542-0.604,7.703c0,0,3.935,11.278,16.049,17.327l3.311,2.949
	c0,0-0.307,0.024-0.886,0.017c-2.514-0.029-10.149-0.631-20.074-6.219l-8.125-4.447c0,0-1.547-0.153-2.202,0.533
	c-0.96,1.001-0.02,3.792,10.433,11.471c-4.44,0.826-6.786,3.772-6.299,8.178c0.145,1.309,3.336,9.433,4.765,9.543
	c-4.38-0.334-5.599,5.043-4.132,8.517c1.339,3.17,5.48,3.839,6.147,7.587c-0.444,0.208-0.834,0.439-1.176,0.69
	c-5.122,3.765,0.794,12.097,3.584,15.345c-8.051,5.488,0.064,11.167,3.223,15.989c-10.095,3.481,3.606,10.776,4.444,13.804
	c0.62,2.235-1.76,4.566-0.496,7.811c1.498,3.837,3.166,4.892,7.395,5.697c-5.124,5.733,4.506,9.115,8.057,10.367
	c-0.001,0-0.002,0.001-0.003,0.001c-0.562,0.093-1.252,0.223-1.818,0.412c0.002,0.359,0.027,0.714,0.061,1.067
	c-0.61,1.956,0.87,5.253,2.289,6.618c0.942,0.906,2.01,1.415,3.153,1.631c-3.33,1.607-6.413,1.78-10.434,2.491
	c-2.664,0.469-9.424,0.746-11.451,2.359c-2.374,1.89-2.337,4.291-0.299,5.528c0.144,0.279,0.341,0.538,0.591,0.775
	c-4.449,0.607-8.581,2.382-6.766,7.756c0.242-0.115,0.537-0.194,0.856-0.257c0.068,0.473,0.172,0.968,0.355,1.512
	c0,0,0.001,0,0.001,0c0,0,0,0,0,0c0.469-0.222,1.13-0.317,1.804-0.403c-1.72,1.261-5.046-0.097-5.839,2.73
	c-0.485,1.724,0.089,2.502,1.083,2.768c0.189,1.047,1.121,1.384,2.265,1.367c1.38-0.02,3.053-0.543,4.045-0.909
	c0.142-0.052,0.269-0.101,0.38-0.145c0.809-0.321,1.6-0.69,2.382-1.081c-12.684,7.631-26.059,14.605-26.059,14.605l-6.573,1.243
	c-17.384,2.18-13.81,7.198-13.81,7.198l-4.502,4.351c-5.017,3.573,3.211,2.12,3.211,2.12l6.931-1.711
	c7.916-0.571,14.695-3.524,14.695-3.524c6.624-4.195,49.458-31.43,49.458-31.43l9.371-3.188c9.612,1.254,28.497,0.856,41.746-0.689
	c1.17-0.136,2.336-0.305,3.5-0.489c0.126-0.02,0.253-0.041,0.38-0.062c0.623-0.101,1.245-0.208,1.865-0.323
	c0.403-0.074,0.807-0.154,1.213-0.235c0.344-0.069,0.688-0.139,1.031-0.213c0.659-0.14,1.32-0.291,1.984-0.45
	c0.077-0.019,0.155-0.037,0.232-0.056c9.188-2.227,18.843-6.316,27.256-13.588c8.294-6.419,17.03-14.676,26.792-18.604
	c9.466-3.809,18.927-7.765,27.994-12.457c1.37-0.71,2.686-1.292,3.969-1.765c5.586-2.047,10.539-2.025,16.513-1.406
	c4.025,0.418,8.994,0.21,13.217-1.138c1.405-0.444,2.729-1.013,3.909-1.728c2.745-1.661,4.486-3.666,6.856-4.912l5.703-0.147
	l52.376-3.57c0,0-32.599-1.122-57.216-1.513C283.786,122.952,329.301,122.467,338.685,123.394z M103.55,51.663
	c-0.057-0.069-0.147-0.182-0.268-0.337C103.371,51.442,103.46,51.558,103.55,51.663z M137.634,111.01l-0.001,0.005
	c-0.416-0.664-0.828-1.331-1.238-1.999C136.804,109.683,137.218,110.347,137.634,111.01z"/>
<polygon fill="#A8A8A8" stroke="#272525" stroke-width="3" stroke-miterlimit="10" points="557.307,189.762 557.307,189.762 
	557.306,189.761 "/>
<g id="Слой_x0020_1">
	<path fill="#BCC2C6" d="M267.568,116.825c-3.659-18.179-24.449-6.851-31.115,2.512c-1.316,1.851-1.92,3.866-3.708,5.082
		c-7.17,4.88-20.971,8.466-29.44,9.715c0,0-17.748-0.717-24.53-1.128l-28.254-0.659c0,0-35.387,12.846-48.836,26.307
		c-5.014,5.016-13.075,9.812-19.275,13.222c-3.654,2.009-6.902,2.127-11.251,2.896c-2.664,0.469-9.424,0.746-11.451,2.359
		c-2.914,2.319-2.197,5.409,1.394,6.173c-4.831,0.465-9.832,2.069-7.868,7.886c1.029-0.487,2.968-0.365,3.982-0.867
		c-0.692,4.037-5.798,0.858-6.804,4.449c-1.278,4.544,4.784,2.531,6.561,1.826c8.081-3.208,14.665-10.348,23.436-11.845
		c8.422-1.441,19.21-1.725,27.804-0.845c0,0,37.352,7.402,63.071-14.832c8.294-6.419,17.031-14.676,26.792-18.604
		c9.467-3.809,18.928-7.763,27.995-12.456c7.362-3.815,13.176-3.958,20.545-3.194c5.34,0.553,12.348,0.01,17.06-2.843
		c4.398-2.662,6.217-6.201,12.174-6.1c-0.057-0.001-5.898-0.102-5.898-0.102s2.018-4.034-1.865-4.81c0,0-2.173-3.932-0.519-4.14
		H267.568z"/>
	<path fill="#FFFFFF" d="M166.438,133.438c0,0,16.136-8.751,15.563-16.67c0,0,6.976-18.111,4.024-28.255
		c0,0,0.354-13.92-7.399,1.349l-2.991,23.081c0,0,0.745,2.579-1.091-12.057c-0.156-1.242-0.06-13.869-0.06-13.869
		s-0.936-10.815-7.607,3.056c0,0-2.321,11.646,0.376,23.08l-2.485,0.311c0,0-2.748-11.848-3.476-17.644c0,0-8.283-5.689-8.738,7.406
		c0,0,0.52,7.5,5.901,13.554c0,0-3.513,5.487-10.092-3.357c0,0-4.505-9.106-10.507-3.311l-1.395,5.642l8.547,17.851l20.734,0.324
		L166.438,133.438z"/>
	<path fill="#354B5E" d="M165.518,123.539c0.419-0.065,0.9-0.259,1.465-0.644c0.284-3.82,3.418-6.194,6.082-2.745
		c1.78-3.513,5.03-1.409,7.582-3.123c2.398-1.607,2.827-4.497,3.571-7.114c1.887-6.616,3.787-14.597,1.807-21.402
		c0,0,0.354-13.92-7.399,1.349l-2.99,23.081c0,0,0.743,2.579-1.093-12.057c-0.156-1.242-0.06-13.869-0.06-13.869
		s-0.936-10.815-7.607,3.056c0,0-2.321,11.646,0.376,23.08l-2.485,0.311c0,0-2.748-11.848-3.475-17.644c0,0-8.283-5.689-8.739,7.406
		c0,0,0.52,7.5,5.902,13.554c0,0-3.514,5.487-10.093-3.359c0,0-4.505-9.105-10.505-3.31l-1.396,5.642
		c-0.39,1.58,3.716,9.245,4.414,10.986c1.539,3.816,2.103,6.428,7.76,4.871c3.624-0.997,3.829-2.967,6.013-5.62
		c2.369-2.882,3.018-3.659,6.535-3.883c1.858-0.117,2.646,1.692,4.336,1.433H165.518z"/>
	<path fill="#FFFFFF" d="M268.779,118.08c-3.658-18.18-24.449-6.851-31.114,2.511c-1.316,1.851-1.92,3.867-3.707,5.082
		c-7.171,4.881-20.972,8.468-29.441,9.716c0,0-17.746-0.718-24.53-1.13l-28.253-0.658c0,0-35.389,12.846-48.837,26.306
		c-5.014,5.017-13.076,9.813-19.275,13.224c-3.654,2.01-6.902,2.126-11.251,2.894c-2.664,0.469-9.421,0.747-11.451,2.36
		c-2.914,2.319-2.197,5.408,1.392,6.173c-4.83,0.464-9.829,2.069-7.867,7.886c1.028-0.487,2.971-0.366,3.985-0.867
		c-0.695,4.036-5.8,0.858-6.805,4.447c-1.279,4.544,4.783,2.531,6.559,1.827c8.081-3.209,14.666-10.35,23.436-11.847
		c8.424-1.441,19.213-1.725,27.807-0.844c0,0,37.349,7.4,63.07-14.832c8.294-6.419,17.03-14.676,26.792-18.604
		c9.466-3.809,18.927-7.765,27.994-12.457c7.363-3.815,13.178-3.957,20.545-3.194c5.341,0.555,12.348,0.011,17.063-2.843
		c4.396-2.661,6.217-6.203,12.174-6.099c-0.059-0.003-5.898-0.102-5.898-0.102s2.017-4.036-1.867-4.811
		C269.298,122.218,267.126,118.287,268.779,118.08L268.779,118.08z"/>
	<path fill="#BCC2C6" d="M135.034,185.745c13.593-1.581,26.945-6.359,37.396-15.394c8.294-6.42,17.031-14.675,26.793-18.603
		c9.466-3.809,18.927-7.765,27.994-12.457c7.363-3.814,13.178-3.957,20.545-3.194c5.341,0.555,12.346,0.011,17.063-2.842
		c4.395-2.662,6.217-6.203,12.174-6.101c-1.961-0.033-3.94-0.068-5.888-0.105c1.021-2.152-1.994-6.364-3.334-8.311
		c-0.399-0.578-0.653-0.955-0.607-1.018c-0.612,0.881-0.323,1.568-0.71,2.298c-2.199,4.131,0.921,7.068-3.614,10.35
		c-3.537,2.562-9.238,2.373-13.354,1.925c-13.228-1.434-22.078,2.914-35.517,6.977c-14.644,4.427-27.889,9.627-41.34,16.918
		c-6.249,3.384-13.702,7.276-18.984,11.872c-3.879,3.375-11.454,12.673-17.486,12.29c1.248,0.078,7.81-6.703,6.313-13.707
		c-4.255-14.934-41.746,4.829-50.486,10.938c-1.36,1.681-5.743,5.184-4.739,6.938C89.133,187.828,117.197,187.826,135.034,185.745z"
		/>
	<path fill="#354B5E" d="M89.229,185.337c-2.062-2.338-5.277-1.663-7.843-0.465c-0.501-0.82-0.55-0.907-0.669-1.883
		c2.067-0.547,3.659-1.816,4.15-3.819c-1.34,0.171-2.833-0.853-3.852-1.039c0.797-0.955,1.128-3.016,1.628-3.834
		c-3.42,0.099-6.892,1.132-10.273,1.729c-2.664,0.469-9.421,0.747-11.45,2.36c-2.915,2.319-2.198,5.408,1.392,6.173
		c-4.83,0.465-9.829,2.069-7.868,7.886c1.029-0.487,2.971-0.366,3.985-0.867c-0.695,4.036-5.8,0.858-6.804,4.447
		c-1.28,4.544,4.783,2.531,6.559,1.827c8.081-3.209,14.665-10.348,23.434-11.847c2.541-0.435,5.165-0.532,7.611-0.667V185.337z"/>
	<path fill="#BE3B2C" d="M270.125,123.119c0,0,57.843-0.783,68.56,0.275c0,0-39.34-9.091-72.459-7.983
		C266.225,115.411,268.681,124.302,270.125,123.119L270.125,123.119z"/>
	<path fill="#B1252B" d="M277.449,128.17l52.376-3.57c0,0-35.632-1.227-60.52-1.562l1.473,5.304L277.449,128.17z"/>
	<path fill="#FFFFFF" d="M76.793,186.029c11.762-7.151,25.492-13.629,38.234-18.876c5.617-2.317,18.76-7.459,23.14-1.431
		c4.19,5.771-3.903,13.062-8.758,15.22c-9.85,4.376-21.186,4.898-31.778,4.014l-13.713,4.665L76.793,186.029L76.793,186.029z"/>
	<path fill="#BE3B2C" d="M83.917,189.622c0,0-42.834,27.235-49.458,31.43c0,0-6.78,2.953-14.695,3.524l-6.931,1.711
		c0,0-8.228,1.452-3.211-2.12l4.502-4.351c0,0-3.574-5.017,13.81-7.198l6.573-1.243c0,0,29.295-15.271,42.286-25.347L83.917,189.622
		z"/>
	<polygon fill="#A1252A" points="80.529,187.91 41.779,210.851 32.107,217.528 32.897,214.622 41.179,209.096 78.239,186.761 	"/>
	<path fill="#FFFFFF" d="M129.461,93.123c-0.073-0.493-0.157-1.03-0.258-1.598C129.304,92.093,129.388,92.629,129.461,93.123z
		 M129.203,91.525c-0.621-3.523-1.816-8.28-4.056-11.921C127.388,83.245,128.582,88.002,129.203,91.525z M111.559,52.92
		L108.8,42.698l-8.243-28.819c0,0-4.816-11.592-5.224,5.279c0,0,2.908,26.546,8.292,32.596c0,0-9.884-11.791-12.428-28.713
		l-2.127-10.245c0,0-4.404-11.639-7.4,1.349c0,0,1.716,20.387,10.156,30.683l5.079,10.295L85.096,44.83
		c0,0-9.559-14.893-11.714-21.28c-0.208-0.615-0.346-1.153-0.4-1.589c-0.624-4.968-7.094-9.623-6.109,4.97
		c0,0,4.873,18.733,19.936,28.194l-1.086,1.399c0,0-14.389-7.446-25.413-21.62l-2.901-3c0,0-6.008-7.655-3.515,5.488
		c0,0,3.936,11.278,16.049,17.327l3.311,2.949c0,0-8.746,0.676-20.962-6.202l-8.125-4.447c0,0-9.368-0.927,8.232,12.003
		c-4.44,0.826-6.786,3.772-6.299,8.178c0.145,1.309,3.337,9.433,4.765,9.543c-4.38-0.334-5.599,5.043-4.132,8.517
		c1.339,3.17,5.48,3.839,6.147,7.587c-7.101,3.322-0.567,12.571,2.407,16.035c-8.049,5.488,0.065,11.167,3.223,15.989
		c-10.093,3.481,3.607,10.776,4.445,13.804c0.618,2.235-1.761,4.565-0.496,7.811c1.498,3.837,3.166,4.892,7.395,5.697
		c-5.124,5.733,4.507,9.115,8.057,10.368c-0.562,0.093-1.255,0.223-1.822,0.413c0.009,2.097,0.634,4.076,1.283,6.003
		c5.255,0.352,8.701,1.265,13.472-1.241c10.802-7.536,23.132-12.304,35.444-16.726c3.903-1.399,8.151-1.325,12.068-2.568
		c4.719-1.501,11.317-4.558,14.408-8.548c0.85-1.098,1.111-2.23,0.988-3.371c-5.379,0.546-11.616-5.364-15.584-8.358
		c-8.818-6.644-13.67-14.676-17.375-24.873c-3.24-8.927-7.066-17.535-10.338-26.554C107.954,69.836,112.348,59.825,111.559,52.92
		L111.559,52.92z M153.752,136.504c-0.099-0.908-0.441-1.822-0.924-2.73C153.284,134.768,153.607,135.687,153.752,136.504z
		 M140.147,114.984c-1.012-1.599-2.012-3.206-2.996-4.822c-0.305-0.5-0.664-1.048-1.058-1.632
		C137.413,110.701,138.785,112.843,140.147,114.984z M129.832,96.404v-0.001l0,0V96.404z"/>
	<path fill="#BCC2C6" d="M114.289,63.031c-0.368-1.364-2.815-10.866-2.73-10.111c0.789,6.904-3.605,16.916-1.103,23.808
		c3.272,9.02,7.098,17.628,10.338,26.554c3.705,10.197,8.557,18.228,17.375,24.873c3.968,2.994,10.206,8.905,15.584,8.358
		c-0.944-5.351-9.488-15.038-13.461-21.3c-3.849-6.058-7.798-12.116-10.461-18.811c0,0-0.836-13.35-6.635-19.353
		C123.197,77.049,120.247,70.275,114.289,63.031z"/>
	<path fill="#354B5E" d="M100.555,13.879c0,0-4.816-11.592-5.224,5.279c0,0,2.91,26.546,8.292,32.597
		c0,0-9.884-11.792-12.428-28.714l-2.126-10.244c0,0-4.405-11.64-7.4,1.348c0,0,1.715,20.387,10.156,30.683l5.079,10.295
		L85.096,44.83c0,0-9.56-14.893-11.715-21.28c-0.209-0.615-0.346-1.153-0.4-1.589c-0.624-4.968-7.093-9.622-6.109,4.97
		c0,0,4.873,18.733,19.936,28.194l-1.086,1.399c0,0-14.389-7.446-25.413-21.62l-2.901-3c0,0-6.008-7.655-3.515,5.488
		c0,0,3.935,11.278,16.049,17.327l3.311,2.949c0,0-8.746,0.676-20.961-6.202l-8.126-4.446c0,0-9.368-0.927,8.232,12.002
		c-4.44,0.826-6.786,3.772-6.299,8.178c0.145,1.309,3.336,9.433,4.765,9.543c-4.38-0.334-5.599,5.043-4.132,8.517
		c1.339,3.17,5.48,3.839,6.147,7.588c-7.101,3.32-0.567,12.57,2.409,16.034c-8.051,5.488,0.064,11.167,3.223,15.989
		c-10.095,3.481,3.606,10.776,4.444,13.804c0.62,2.235-1.76,4.566-0.496,7.811c1.498,3.837,3.166,4.892,7.395,5.697
		c-5.124,5.733,4.506,9.115,8.057,10.368c-3.543,0.587-1.437,6.206,0.529,8.098c5.591,5.376,15.544-2.968,19.939-6.35
		c2.979-2.291,14.211-7.838,7.567-12.168c-3.387-2.207-6.641-0.168-9.892,0.768c1.219-0.995,2.789-7.384,1.934-8.611
		c-1.882-2.706-7.738-1.043-10.635-0.861c1.186-2.859,8.047-3.979,2.434-8.684c-4.396-3.686-8.123,0.45-8.565-5.763
		c-0.14-2.004,1.794-1.193,0.051-4.76c-1.812-3.699-1.826-1.336-4.055-3.059c-5.154-3.987,0.419-3.16-1.06-8.442
		c-1.317-4.714-10.351-1.964-6.892-8.561c0.926-1.763,4.015-0.629,4.589-3.82c0.491-2.725-1.498-3.911-3.214-5.3
		c-1.85-1.503-4.076,0.091-4.623-3.221c-0.662-3.99,2.859-2.761,4.155-5.145c0.492-0.908,0.942-4.277,0.333-5.447
		c-1.477-2.856-3.11-0.782-4.567-2.573c-1.985-2.432-1.961-4.19,0.342-5.884c0.914-0.671,3.073-0.106,4.159-0.511
		c0.509-0.193,3.58-2.072,3.309-2.04c1.914-0.226,3.957,1.383,6.062,0.873c2.777-0.671,3.546-5.527,6.605-6.171
		c2.613-0.55,4.066,2.463,7.028,1.312c3.712-1.446,3.287-8.021,9.133-7.543c3.114,0.256,3.487,4.621,7.444,1.596
		c6.298-4.812-7.564-39.751-9.466-46.406V13.879z"/>
	<g id="_287109456">
		<path fill="#969CA6" d="M256.127,124.571c-1.817-0.87-2.333-4.032-2.568-5.977c-0.366-3.072,0.571-6.062,3.95-6.689
			c0,0,5.604-0.726,7.61,10.425c-1.292,0.427-2.578,0.852-3.866,1.278c-1.014,0.333-2.02,0.668-3.03,1.001
			C257.379,124.886,256.692,124.836,256.127,124.571L256.127,124.571z"/>
		<path fill="#FFFFFF" d="M256.798,123.534c-0.844-0.375-1.524-1.159-1.925-2.557c-0.913-3.134-1.197-8.076,3.123-8.645
			c0,0,5.168-0.683,6.981,9.488c-2.518,0.833-5.929,2.716-8.18,1.714H256.798z"/>
		<path fill="#317947" d="M260.106,123.149c0,0-5.381-7.627,0.515-9.577c0,0,4.724,1.062,4.288,8.837
			C264.91,122.41,260.007,124.125,260.106,123.149L260.106,123.149z"/>
		<path fill="#292826" d="M261.227,122.15c0,0-3.564-5.058,0.34-6.351c0,0,3.134,0.705,2.845,5.861
			C264.412,121.66,261.167,122.794,261.227,122.15z"/>
		<path fill="#FFFFFF" d="M262.807,121.002c0,0-2.052-3.174,0.026-3.853c0,0,1.7,0.506,1.674,3.63
			C264.507,120.779,262.793,121.385,262.807,121.002z"/>
	</g>
	<path fill="#292826" d="M259.396,110.306c-0.996,0.265-2.531,0.347-3.111,0.4c-2.293,0.226-5.346,1.962-7.185,3.585
		c0.02-1.85,3.569-3.903,5.332-4.64c1.273-0.521,4.055-1.251,5.077-0.695C260.775,109.653,260.321,110.063,259.396,110.306
		L259.396,110.306z"/>
	<path fill="#8C9199" d="M262.287,114.358c0,0-4.733-5.471-8.247-0.145c0,0-0.778,1.232-0.57,3.911c0,0,2.791-6.006,8.818-3.764
		L262.287,114.358z"/>
	<path fill="#292826" d="M262.385,114.58c0,0-5.201-2.957-8.836,3.571c0,0-0.645,2.729-4.316,1.641c0,0,3.005-0.367,3.934-2.479
		c0,0-1.372,1.575-2.88,0.643c0,0,2.514-0.408,3.782-2.067c0,0-1.521,0.96-2.082-0.265c0,0,1.895,0.148,3.302-0.768
		C255.288,114.856,259.164,111.53,262.385,114.58L262.385,114.58z"/>
</g>
</svg>
