<?xml version="1.0" encoding="utf-8"?>
<!-- Generator: Adobe Illustrator 17.0.0, SVG Export Plug-In . SVG Version: 6.00 Build 0)  -->
<!DOCTYPE svg PUBLIC "-//W3C//DTD SVG 1.1 Basic//EN" "http://www.w3.org/Graphics/SVG/1.1/DTD/svg11-basic.dtd">
<svg version="1.1" baseProfile="basic" id="Слой_1"
	 xmlns="http://www.w3.org/2000/svg" xmlns:xlink="http://www.w3.org/1999/xlink" x="0px" y="0px" width="82.627px"
	 height="100.829px" viewBox="0 0 82.627 100.829" xml:space="preserve">
<path fill="#3FA556" d="M6.007,28.348c0.61,1.171,0.159,4.539-0.333,5.447c-1.297,2.384-4.817,1.155-4.155,5.145
	c0.547,3.311,2.773,1.718,4.623,3.221c1.716,1.39,3.705,2.576,3.214,5.3c-0.574,3.191-3.663,2.057-4.589,3.82
	c-3.459,6.597,5.575,3.847,6.892,8.561c1.479,5.283-4.094,4.455,1.06,8.442c2.229,1.723,2.243-0.64,4.055,3.059
	c1.743,3.566-0.191,2.755-0.051,4.76c0.441,6.213,4.168,2.077,8.565,5.763c5.613,4.705-1.248,5.826-2.434,8.685
	c2.897-0.182,8.753-1.845,10.635,0.861c0.854,1.227-2.055,8.255-1.934,8.61s6.505-2.975,9.892-0.768
	c0.783,0.51,1.305,1.038,1.634,1.575C55.458,91.808,82.627,81,82.627,80.759s-2.118-0.033-2.118-0.033l-0.879-1.835
	c-1.703-0.711-2.287-2.632-3.254-5.03c-0.699-1.74-4.804-9.406-4.414-10.986l1.185-4.794c-0.164-0.267-0.333-0.53-0.495-0.797
	c-0.296-0.486-0.646-1.019-1.027-1.585c-2.38-3.91-4.597-7.913-6.292-12.174c0,0-0.836-13.35-6.635-19.353
	c0,0-2.949-6.774-8.908-14.018C49.422,8.79,46.975-0.712,47.06,0.043L47.051,0.01c0.293,3.581-0.081,6.29-1.529,7.396
	c-3.957,3.024-4.33-1.34-7.444-1.596c-5.846-0.478-5.422,6.097-9.133,7.543c-2.962,1.151-4.415-1.862-7.028-1.312
	c-3.059,0.644-3.828,5.501-6.605,6.171c-2.105,0.51-5.483-1.054-6.062-0.873c-0.578,0.181-2.8,1.848-3.309,2.04
	c-1.086,0.405-3.245-0.159-4.159,0.511c-2.303,1.695-2.327,3.453-0.342,5.884C2.897,27.566,4.531,25.492,6.007,28.348z"/>
</svg>
