<?xml version="1.0" encoding="utf-8"?>
<!-- Generator: Adobe Illustrator 17.0.0, SVG Export Plug-In . SVG Version: 6.00 Build 0)  -->
<!DOCTYPE svg PUBLIC "-//W3C//DTD SVG 1.1 Basic//EN" "http://www.w3.org/Graphics/SVG/1.1/DTD/svg11-basic.dtd">
<svg version="1.1" baseProfile="basic" id="Слой_1"
	 xmlns="http://www.w3.org/2000/svg" xmlns:xlink="http://www.w3.org/1999/xlink" x="0px" y="0px" width="132.997px"
	 height="66.552px" viewBox="0 0 132.997 66.552" xml:space="preserve">
<path fill="#CE9536" d="M127.747,7.063c0-1.873,0.888-4.18,2.332-6.315c-0.557-0.031-1.077-0.06-1.54-0.089L100.284,0
	c0,0-35.387,12.846-48.836,26.307c-5.014,5.016-13.075,9.812-19.275,13.222c-3.654,2.009-6.902,2.127-11.251,2.896
	c-2.664,0.469-9.424,0.746-11.451,2.359c-2.374,1.89-2.336,4.29-0.299,5.528c0.144,0.279,0.341,0.538,0.591,0.775
	c-4.449,0.607-8.58,2.382-6.766,7.756c0.242-0.115,0.537-0.194,0.856-0.257c0.032,0.223,0.071,0.451,0.128,0.69
	c0.044,0.197,0.105,0.404,0.169,0.613c0.022,0.072,0.033,0.136,0.058,0.209h0.001l0,0c0.019-0.009,0.043-0.015,0.062-0.023
	c0.107-0.047,0.22-0.09,0.343-0.126c0.064-0.019,0.135-0.033,0.203-0.05c0.086-0.021,0.171-0.043,0.262-0.061
	c0.094-0.018,0.191-0.034,0.289-0.05c0.069-0.011,0.136-0.023,0.206-0.033c0.145-0.021,0.292-0.041,0.44-0.06
	c-1.72,1.261-5.046-0.097-5.839,2.73c-0.485,1.724,0.089,2.502,1.083,2.767c0.111,0.617,0.483,0.983,1.005,1.177
	c0.008,0.003,0.016,0.007,0.025,0.01c0.123,0.044,0.253,0.079,0.391,0.105c0.016,0.003,0.032,0.006,0.048,0.009
	c0.138,0.024,0.281,0.042,0.43,0.051c0.013,0.001,0.026,0.001,0.038,0.002c0.779,0.039,1.678-0.108,2.516-0.32
	c0.048-0.012,0.096-0.024,0.144-0.036c0.123-0.032,0.241-0.065,0.36-0.099c0.069-0.02,0.136-0.039,0.202-0.059
	c0.102-0.031,0.201-0.06,0.298-0.091c0.08-0.025,0.156-0.05,0.232-0.075c0.08-0.027,0.16-0.053,0.235-0.079
	c0.091-0.031,0.174-0.061,0.257-0.091c0.053-0.019,0.109-0.039,0.158-0.057c0.128-0.048,0.247-0.093,0.349-0.133
	c0.787-0.313,1.559-0.666,2.321-1.044l16.289-10.778c11.762-7.151,25.492-13.629,38.234-18.876c5.617-2.317,18.76-7.459,23.14-1.431
	c4.17,5.743,9.528,15.816,10.881,17.172c8.008-2.386,16.19-6.292,23.447-12.565c3.487-2.698,7.053-5.719,10.739-8.609
	C128.863,22.675,126.802,14.619,127.747,7.063z"/>
</svg>
