<?xml version="1.0" encoding="utf-8"?>
<!-- Generator: Adobe Illustrator 17.0.0, SVG Export Plug-In . SVG Version: 6.00 Build 0)  -->
<!DOCTYPE svg PUBLIC "-//W3C//DTD SVG 1.1 Basic//EN" "http://www.w3.org/Graphics/SVG/1.1/DTD/svg11-basic.dtd">
<svg version="1.1" baseProfile="basic" id="Слой_1"
	 xmlns="http://www.w3.org/2000/svg" xmlns:xlink="http://www.w3.org/1999/xlink" x="0px" y="0px" width="160.926px"
	 height="54.556px" viewBox="0 0 160.926 54.556" xml:space="preserve">
<path fill="#EEBF31" d="M90.264,8.198c-0.77-2.118-1.843-3.689-3.137-4.793c-6.87-8.574-22.76,0.802-28.432,8.768
	c-1.316,1.851-1.92,3.866-3.708,5.082c-7.17,4.88-20.971,8.466-29.44,9.715c0,0-15.399-0.622-22.989-1.04
	c-1.444,2.135-2.332,4.442-2.332,6.315c-0.944,7.556,1.116,15.612,5.25,22.311c5.083-3.985,10.395-7.718,16.053-9.995
	c9.466-3.809,18.927-7.765,27.994-12.457c1.37-0.71,2.686-1.291,3.968-1.765c5.586-2.047,10.539-2.025,16.513-1.406
	c4.348,0.452,9.799,0.175,14.22-1.483c1.033-0.384,2.011-0.841,2.907-1.383c2.745-1.661,4.486-3.666,6.856-4.912l5.703-0.147
	l52.376-3.57c0,0-0.52-2.133,8.86-1.206C160.927,16.23,122.993,7.464,90.264,8.198z"/>
</svg>
