<?xml version="1.0" encoding="utf-8"?>
<!-- Generator: Adobe Illustrator 17.0.0, SVG Export Plug-In . SVG Version: 6.00 Build 0)  -->
<!DOCTYPE svg PUBLIC "-//W3C//DTD SVG 1.1 Basic//EN" "http://www.w3.org/Graphics/SVG/1.1/DTD/svg11-basic.dtd">
<svg version="1.1" baseProfile="basic" id="Слой_1"
	 xmlns="http://www.w3.org/2000/svg" xmlns:xlink="http://www.w3.org/1999/xlink" x="0px" y="0px" width="343.375px"
	 height="236.75px" viewBox="0 0 343.375 236.75" xml:space="preserve">
<polygon fill="#A8A8A8" stroke="#272525" stroke-width="3" stroke-miterlimit="10" points="557.307,189.762 557.307,189.762 
	557.306,189.761 "/>
<path fill="#A8A8A8" stroke="#272525" stroke-width="3" stroke-miterlimit="10" d="M182.505,114.389
	c0.562-1.31,0.878-2.772,1.273-4.162c0.041-0.147,0.083-0.291,0.124-0.442c1.755-6.21,3.443-13.55,1.94-19.984
	c-0.075-0.339-0.158-0.671-0.252-0.995c0,0,0.355-13.92-7.399,1.349l-2.868,22.133c-0.078-1.315-0.345-4.085-1.05-9.787
	c-0.052-0.424-0.107-0.865-0.165-1.322c-0.156-1.242-0.06-13.869-0.06-13.869s-0.936-10.815-7.607,3.056
	c0,0-2.321,11.646,0.376,23.08l-2.485,0.311c0,0-0.172-0.741-0.441-1.942c-0.807-3.604-2.489-11.355-3.034-15.703
	c0,0-1.82-1.25-3.801-1.23c-2.245,0.023-4.696,1.678-4.938,8.635c0,0,0.018,0.264,0.084,0.732c0.283,2.03,1.446,7.903,5.818,12.822
	c0,0-0.828,1.286-2.428,1.607c-1.701,0.341-4.275-0.409-7.664-4.966c0,0-2.974-6.011-7.308-5.157c-1,0.197-2.073,0.76-3.199,1.846
	l-1.395,5.642c-0.39,1.58,3.715,9.245,4.414,10.986c0.967,2.398,1.551,4.319,3.254,5.03l0.879,1.835l20.734,0.324l0.696-0.49
	c0,0,16.136-8.751,15.563-16.67C181.566,117.061,181.954,116.052,182.505,114.389z"/>
<path fill="#A8A8A8" stroke="#272525" stroke-width="3" stroke-miterlimit="10" d="M138.167,165.826
	c-4.38-6.029-17.523-0.886-23.14,1.431c-12.742,5.247-26.472,11.725-38.234,18.876c-12.992,10.076-42.286,25.347-42.286,25.347
	l-6.573,1.243c-17.384,2.18-13.81,7.198-13.81,7.198l-4.502,4.35c-5.017,3.573,3.211,2.12,3.211,2.12l6.931-1.711
	c7.916-0.571,14.695-3.524,14.695-3.524c6.624-4.195,49.458-31.43,49.458-31.43l9.381-3.192c10.592,0.884,42.297,0.341,55.684-3.511
	C154.088,181.553,142.357,171.597,138.167,165.826z"/>
<path fill="#A8A8A8" stroke="#272525" stroke-width="3" stroke-miterlimit="10" d="M50.724,76.743
	c-4.38-0.334-5.599,5.043-4.133,8.517c1.339,3.17,5.48,3.839,6.147,7.588c-7.101,3.32-0.567,12.57,2.409,16.034
	c-8.051,5.488,0.064,11.167,3.223,15.989c-10.095,3.481,3.606,10.776,4.444,13.804c0.62,2.235-1.76,4.566-0.496,7.811
	c1.498,3.837,3.166,4.892,7.395,5.697c-5.124,5.733,4.506,9.115,8.057,10.368c-3.543,0.587-1.437,6.206,0.529,8.098
	c5.591,5.376,15.544-2.968,19.94-6.35c2.979-2.291,14.211-7.838,7.568-12.168c-3.387-2.207-9.823,0.881-9.892,0.768
	c-0.069-0.113,2.789-7.384,1.934-8.611c-1.882-2.706-7.738-1.043-10.635-0.861c1.186-2.859,8.047-3.98,2.434-8.684
	c-4.396-3.686-8.123,0.45-8.565-5.763c-0.14-2.004,1.794-1.193,0.051-4.76c-1.812-3.699-1.826-1.336-4.055-3.059
	c-5.154-3.987,0.42-3.16-1.06-8.442c-1.317-4.714-10.351-1.964-6.892-8.561c0.926-1.763,4.015-0.629,4.589-3.82
	c0.491-2.725-1.498-3.911-3.214-5.3c-1.85-1.503-4.076,0.091-4.623-3.221c-0.662-3.99,2.859-2.761,4.155-5.145
	c0.492-0.908,0.942-4.277,0.333-5.447c-1.477-2.856-3.11-0.782-4.567-2.573c-1.414-1.731-1.802-3.121-1.081-4.389
	c-5.417-0.946-10.975-1.289-16.593-1.267C49.054,74.973,50.072,76.693,50.724,76.743z"/>
<path fill="#A8A8A8" stroke="#272525" stroke-width="3" stroke-miterlimit="10" d="M100.879,13.876
	c-0.028-0.066-4.816-11.54-5.223,5.282c0,0,2.727,24.88,7.785,31.957c0.017,0.023,0.037,0.049,0.054,0.07
	c0.149,0.204,0.3,0.398,0.453,0.57c0,0-0.164-0.197-0.453-0.57c-0.018-0.024-0.036-0.045-0.054-0.07
	c-2.043-2.657-9.722-13.445-11.921-28.074l-2.126-10.244c0,0-4.405-11.64-7.4,1.348c0,0,1.715,20.387,10.156,30.683l5.079,10.295
	L85.421,44.83c0,0-9.56-14.893-11.715-21.28c-0.209-0.615-0.346-1.153-0.4-1.589c-0.623-4.968-7.093-9.622-6.109,4.97
	c0,0,4.873,18.733,19.936,28.194l-1.086,1.399c0,0-14.389-7.446-25.413-21.62l-2.901-3c0,0-6.008-7.656-3.515,5.488
	c0,0,3.935,11.278,16.049,17.327l3.311,2.949c0,0-8.746,0.676-20.961-6.202l-8.126-4.446c0,0-9.368-0.927,8.232,12.002
	c-4.44,0.826-6.786,3.772-6.299,8.178c0.079,0.712,1.06,3.437,2.167,5.795c5.618-0.022,11.176,0.321,16.593,1.267
	c0.292-0.513,0.76-1.007,1.423-1.495c0.914-0.671,3.073-0.106,4.159-0.511c0.509-0.193,3.58-2.072,3.309-2.04
	c1.914-0.226,3.957,1.383,6.062,0.873c2.777-0.671,3.546-5.527,6.605-6.171c2.613-0.55,4.066,2.463,7.028,1.312
	c3.712-1.446,3.287-8.021,9.133-7.543c3.114,0.256,3.487,4.621,7.444,1.596C116.639,55.475,100.148,12.581,100.879,13.876z"/>
<path fill="#A8A8A8" stroke="#272525" stroke-width="3" stroke-miterlimit="10" d="M267.264,116.198
	c-0.77-2.118-1.843-3.689-3.137-4.793c-6.87-8.574-22.76,0.802-28.432,8.768c-1.316,1.851-1.92,3.866-3.708,5.082
	c-7.17,4.88-20.971,8.466-29.44,9.715c0,0-15.399-0.622-22.989-1.04c-1.444,2.135-2.332,4.442-2.332,6.315
	c-0.944,7.556,1.116,15.612,5.25,22.311c5.083-3.985,10.395-7.718,16.053-9.995c9.466-3.809,18.927-7.765,27.994-12.457
	c1.37-0.71,2.686-1.291,3.968-1.765c5.586-2.047,10.539-2.025,16.513-1.406c4.348,0.452,9.799,0.175,14.22-1.483
	c1.033-0.384,2.011-0.841,2.907-1.383c2.745-1.661,4.486-3.666,6.856-4.912l5.703-0.147l52.376-3.57c0,0-0.52-2.133,8.86-1.206
	C337.927,124.23,299.993,115.464,267.264,116.198z"/>
<path fill="#A8A8A8" stroke="#272525" stroke-width="3" stroke-miterlimit="10" d="M177.746,140.063c0-1.873,0.888-4.18,2.332-6.315
	c-0.557-0.031-1.077-0.06-1.54-0.089L150.284,133c0,0-35.387,12.846-48.836,26.307c-5.014,5.016-13.075,9.812-19.275,13.222
	c-3.654,2.009-6.902,2.127-11.251,2.896c-2.664,0.469-9.424,0.746-11.451,2.359c-2.374,1.89-2.336,4.29-0.299,5.528
	c0.144,0.279,0.341,0.538,0.591,0.775c-4.449,0.607-8.58,2.382-6.766,7.756c0.242-0.115,0.537-0.194,0.856-0.257
	c0.032,0.223,0.071,0.451,0.128,0.69c0.044,0.197,0.105,0.404,0.169,0.613c0.022,0.072,0.033,0.136,0.058,0.209h0.001l0,0
	c0.019-0.009,0.043-0.015,0.062-0.023c0.107-0.047,0.22-0.09,0.343-0.126c0.064-0.019,0.135-0.033,0.203-0.05
	c0.086-0.021,0.171-0.043,0.262-0.061c0.094-0.018,0.191-0.034,0.289-0.05c0.069-0.011,0.136-0.023,0.206-0.033
	c0.145-0.021,0.292-0.041,0.44-0.06c-1.72,1.261-5.046-0.097-5.839,2.73c-0.485,1.724,0.089,2.502,1.083,2.767
	c0.111,0.617,0.483,0.983,1.005,1.177c0.008,0.003,0.016,0.007,0.025,0.01c0.123,0.044,0.253,0.079,0.391,0.105
	c0.016,0.003,0.032,0.006,0.048,0.009c0.138,0.024,0.281,0.042,0.43,0.051c0.013,0.001,0.025,0.001,0.038,0.002
	c0.779,0.039,1.678-0.108,2.516-0.32c0.048-0.012,0.096-0.024,0.144-0.036c0.123-0.032,0.241-0.065,0.36-0.099
	c0.069-0.02,0.136-0.039,0.202-0.059c0.102-0.031,0.201-0.06,0.298-0.091c0.08-0.025,0.156-0.05,0.232-0.075
	c0.08-0.027,0.16-0.053,0.235-0.079c0.091-0.031,0.174-0.061,0.257-0.091c0.053-0.019,0.109-0.039,0.158-0.057
	c0.128-0.048,0.247-0.093,0.349-0.133c0.787-0.313,1.559-0.666,2.321-1.044l16.289-10.778c11.762-7.151,25.492-13.629,38.234-18.876
	c5.617-2.317,18.76-7.459,23.14-1.431c4.17,5.743,9.528,15.816,10.881,17.172c8.008-2.386,16.19-6.292,23.447-12.565
	c3.487-2.698,7.053-5.719,10.739-8.609C178.861,155.675,176.801,147.619,177.746,140.063z"/>
<path fill="#A8A8A8" stroke="#272525" stroke-width="3" stroke-miterlimit="10" d="M70.007,81.348
	c0.61,1.171,0.159,4.539-0.333,5.447c-1.297,2.384-4.817,1.155-4.155,5.145c0.547,3.311,2.773,1.718,4.623,3.221
	c1.716,1.39,3.705,2.576,3.214,5.3c-0.574,3.191-3.663,2.057-4.589,3.82c-3.459,6.597,5.575,3.847,6.892,8.561
	c1.479,5.283-4.094,4.455,1.06,8.442c2.229,1.723,2.243-0.64,4.055,3.059c1.743,3.566-0.191,2.755-0.051,4.76
	c0.441,6.213,4.168,2.077,8.565,5.763c5.613,4.705-1.248,5.826-2.434,8.684c2.897-0.182,8.753-1.845,10.635,0.861
	c0.854,1.227-2.055,8.255-1.934,8.611c0.121,0.355,6.505-2.975,9.892-0.768c0.783,0.51,1.305,1.038,1.634,1.575
	c12.377-9.021,39.546-19.829,39.546-20.07s-2.118-0.033-2.118-0.033l-0.879-1.835c-1.703-0.711-2.287-2.632-3.254-5.03
	c-0.699-1.74-4.804-9.406-4.414-10.986l1.185-4.794c-0.164-0.267-0.333-0.53-0.495-0.797c-0.296-0.486-0.646-1.019-1.027-1.585
	c-2.38-3.91-4.597-7.913-6.292-12.174c0,0-0.836-13.35-6.635-19.353c0,0-2.949-6.774-8.908-14.018
	c-0.368-1.364-2.815-10.866-2.73-10.111l-0.009-0.033c0.293,3.581-0.081,6.29-1.529,7.396c-3.957,3.024-4.33-1.34-7.444-1.596
	c-5.846-0.478-5.422,6.097-9.133,7.543c-2.962,1.151-4.415-1.862-7.028-1.312c-3.059,0.644-3.828,5.501-6.605,6.171
	c-2.105,0.51-5.483-1.054-6.062-0.873s-2.8,1.848-3.309,2.04c-1.086,0.405-3.245-0.159-4.159,0.511
	c-2.303,1.695-2.327,3.453-0.342,5.884C66.897,80.566,68.531,78.492,70.007,81.348z"/>
</svg>
