<?xml version="1.0" encoding="utf-8"?>
<!-- Generator: Adobe Illustrator 17.0.0, SVG Export Plug-In . SVG Version: 6.00 Build 0)  -->
<!DOCTYPE svg PUBLIC "-//W3C//DTD SVG 1.1 Basic//EN" "http://www.w3.org/Graphics/SVG/1.1/DTD/svg11-basic.dtd">
<svg version="1.1" baseProfile="basic" id="Слой_1"
	 xmlns="http://www.w3.org/2000/svg" xmlns:xlink="http://www.w3.org/1999/xlink" x="0px" y="0px" width="152.026px"
	 height="125.704px" viewBox="0 0 152.026 125.704" xml:space="preserve">
<g>
	<path fill="#BAAE52" d="M100.918,78.221C85.331,82.163,70.627,88.384,56.35,95.664c-1.622,0.827-2.852,0.88-4.509,0.075
		c-11.777-5.723-23.898-10.595-36.549-14.041C10.218,80.316,5.123,79.151,0,78.321c1.07,11.565,0.624,23.176,2.549,35.004
		c0.351,4.21-0.702,11.576,1.754,11.576c17.189,1.052,34.729,1.403,52.269-1.052c23.854-3.157,47.358-0.351,70.861-1.754
		c0-15.74-0.542-31.752,0.044-47.557C118.466,74.554,109.638,76.016,100.918,78.221z"/>
	<path fill="#BAAE52" d="M151.965,9.506c-0.096-3.005-0.467-6.002-0.753-9.506c-1.265,2.326-3.09,2.74-4.861,2.949
		c-8.46,0.999-16.946,1.781-25.396,2.851c-9.38,1.187-18.718,2.717-27.742,5.636c-11.879,3.843-21.467,10.72-27.677,21.777
		c-5.206,9.269-7.063,19.32-6.62,29.86c0.013,0.308,0.167,0.609,0.312,1.105c12.27-12.801,25.926-23.017,43.349-27.08
		c0.076,0.162,0.151,0.325,0.227,0.487c-0.822,0.409-1.645,0.817-2.466,1.228c-11.47,5.754-21.986,12.835-30.739,22.316
		c-6.777,7.341-12.122,15.555-14.807,25.296c-0.445,1.615-0.646,3.298-0.96,4.95c5.669-6.403,7.7-8.428,13.401-10.637
		c5.31-2.057,10.8-3.745,16.33-5.12c13.186-3.28,26.435-6.277,39.272-10.843c10.912-3.881,18.617-11.122,23.372-21.58
		C151.079,32.481,152.338,21.12,151.965,9.506z"/>
</g>
</svg>
