<?xml version="1.0" encoding="utf-8"?>
<!-- Generator: Adobe Illustrator 17.0.0, SVG Export Plug-In . SVG Version: 6.00 Build 0)  -->
<!DOCTYPE svg PUBLIC "-//W3C//DTD SVG 1.1 Basic//EN" "http://www.w3.org/Graphics/SVG/1.1/DTD/svg11-basic.dtd">
<svg version="1.1" baseProfile="basic" id="Слой_1"
	 xmlns="http://www.w3.org/2000/svg" xmlns:xlink="http://www.w3.org/1999/xlink" x="0px" y="0px" width="299.167px" height="350px"
	 viewBox="0 0 299.167 350" xml:space="preserve">
<g>
	<path fill="#EB7272" stroke="#FFFFFF" stroke-width="6" stroke-miterlimit="10" d="M280.255,122.72
		c-10.854-24.251-29.502-36.773-56.171-37.09c-0.381-0.005-0.761-0.002-1.142-0.002c-0.586,15.806-0.044,31.817-0.044,47.557
		c-23.503,1.403-47.007-1.403-70.861,1.754c-17.54,2.456-35.08,2.105-52.269,1.052c-2.456,0-1.403-7.367-1.754-11.576
		c-1.925-11.827-1.479-23.439-2.549-35.004c-9.735-1.577-19.572-1.942-29.564-0.278c-11.88,1.978-22.494,6.736-31.153,15.199
		c-16.378,16.009-22.799,36.335-24.12,58.491c-0.512,8.587,0.31,17.281,0.892,25.902c1.029,15.247,3.76,30.221,8.102,44.88
		c11.268,38.045,32.336,69.141,65.276,91.772c7.144,4.908,14.59,9.26,22.945,11.84c9.496,2.932,18.279,2.213,26.098-4.638
		c2.034-1.782,4.439-3.385,6.953-4.33c7.262-2.731,14.356-3.055,21.007,2.124c2.965,2.309,6.337,4.181,9.727,5.838
		c5.624,2.748,11.596,3.367,17.756,1.991c6.429-1.436,12.212-4.341,17.611-7.967c29.974-20.13,52.036-46.796,65.806-80.217
		c10.753-26.1,15.187-53.447,15.813-81.523C289.337,150.091,285.427,134.276,280.255,122.72z M68.721,113.678l-0.008-0.009
		c-4.603,1.833-8.575,4.717-12.23,7.937c-7.561,6.662-13.555,14.518-17.569,23.865c-4.052,9.434-5.937,19.297-6.296,29.477
		c-0.284,8.041,0.529,16.014,2.077,23.914c1.587,8.103,4.071,15.945,8,23.18c2.734,5.036,6.142,9.727,9.501,14.391
		c1.284,1.784,3.269,3.063,4.935,4.572l0.017-0.013c0.085,0.126,0.171,0.252,0.25,0.381c0.002,0.003-0.082,0.057-0.127,0.087
		c-0.047-0.152-0.094-0.303-0.141-0.455c-1.666-1.509-3.651-2.788-4.936-4.572c-3.359-4.664-6.767-9.355-9.501-14.391
		c-3.929-7.235-6.413-15.077-8-23.18c-1.548-7.9-2.361-15.873-2.077-23.914c0.359-10.18,2.244-20.043,6.296-29.477
		c4.014-9.347,10.008-17.203,17.569-23.865c3.655-3.22,7.627-6.104,12.23-7.937c0.125-0.087,0.251-0.174,0.376-0.26
		c0.03,0.045,0.059,0.089,0.089,0.134C69.025,113.587,68.873,113.632,68.721,113.678z"/>
	<g>
		<path fill="#E95252" d="M280.255,122.72c-10.854-24.251-29.502-36.773-56.171-37.09c-0.381-0.005-0.761-0.002-1.142-0.002
			c-0.586,15.806-0.044,31.817-0.044,47.557c-23.503,1.403-47.007-1.403-70.861,1.754c-17.54,2.456-35.08,2.105-52.269,1.052
			c-2.456,0-1.403-7.367-1.754-11.576c-1.925-11.827-1.479-23.439-2.549-35.004c-9.735-1.577-19.572-1.942-29.564-0.278
			c-11.88,1.978-22.494,6.736-31.153,15.199c-16.378,16.009-22.799,36.335-24.12,58.491c-0.512,8.587,0.31,17.281,0.892,25.902
			c1.029,15.247,3.76,30.221,8.102,44.88c11.268,38.045,32.336,69.141,65.276,91.772c7.144,4.908,14.59,9.26,22.945,11.84
			c9.496,2.932,18.279,2.213,26.098-4.638c2.034-1.782,4.439-3.385,6.953-4.33c7.262-2.731,14.356-3.055,21.007,2.124
			c2.965,2.309,6.337,4.181,9.727,5.838c5.624,2.748,11.596,3.367,17.756,1.991c6.429-1.436,12.212-4.341,17.611-7.967
			c29.974-20.13,52.036-46.796,65.806-80.217c10.753-26.1,15.187-53.447,15.813-81.523
			C289.337,150.091,285.427,134.276,280.255,122.72z M68.72,113.678c-1.03,1.31-2.022,2.652-3.097,3.923
			c-7.347,8.69-11.925,18.761-14.385,29.764c-1.3,5.815-2.215,11.75-2.8,17.681c-0.582,5.899-0.793,11.865-0.686,17.793
			c0.098,5.445,0.824,10.879,1.296,16.316c1.069,12.303,3.68,24.324,6.694,36.269c0.468,1.856,0.937,3.711,1.406,5.567
			c0.085,0.126,0.171,0.252,0.25,0.382c0.002,0.003-0.082,0.057-0.127,0.087c-0.047-0.152-0.094-0.303-0.141-0.455
			c-1.666-1.509-3.651-2.788-4.936-4.572c-3.359-4.664-6.767-9.355-9.501-14.391c-3.929-7.235-6.413-15.077-8-23.18
			c-1.548-7.9-2.361-15.873-2.077-23.914c0.359-10.18,2.244-20.043,6.296-29.477c4.014-9.347,10.008-17.203,17.569-23.865
			c3.655-3.22,7.627-6.104,12.23-7.937c0.125-0.087,0.251-0.174,0.376-0.26c0.03,0.045,0.059,0.089,0.089,0.134
			C69.025,113.587,68.872,113.632,68.72,113.678z"/>
		<path fill="#EB7272" d="M57.131,241.005c-1.666-1.509-3.651-2.788-4.935-4.572c-3.359-4.664-6.767-9.355-9.501-14.391
			c-3.929-7.235-6.413-15.077-8-23.18c-1.548-7.9-2.361-15.873-2.077-23.914c0.359-10.18,2.244-20.043,6.296-29.477
			c4.014-9.347,10.008-17.203,17.569-23.865c3.655-3.22,7.627-6.104,12.23-7.937l0.008,0.009c-1.03,1.309-2.022,2.651-3.097,3.923
			c-7.347,8.69-11.925,18.761-14.385,29.764c-1.3,5.815-2.215,11.75-2.8,17.681c-0.582,5.899-0.793,11.865-0.686,17.793
			c0.098,5.445,0.824,10.879,1.296,16.316c1.069,12.303,3.68,24.324,6.694,36.269c0.468,1.856,0.937,3.711,1.406,5.567
			L57.131,241.005z"/>
	</g>
</g>
<path fill="#EB7272" d="M1602.97,686.224c0.358-0.247,0.715-0.495,1.073-0.742c0.084,0.127,0.169,0.254,0.253,0.381
	c-0.434,0.129-0.868,0.259-1.302,0.388C1602.994,686.25,1602.97,686.224,1602.97,686.224z"/>
<path fill="#EB7272" d="M1570.006,1049.175c0.243,0.36,0.489,0.718,0.714,1.089c0.004,0.007-0.235,0.163-0.361,0.249
	c-0.133-0.432-0.267-0.865-0.401-1.297C1569.957,1049.216,1570.006,1049.175,1570.006,1049.175z"/>
</svg>
