<?xml version="1.0" encoding="utf-8"?>
<!-- Generator: Adobe Illustrator 17.0.0, SVG Export Plug-In . SVG Version: 6.00 Build 0)  -->
<!DOCTYPE svg PUBLIC "-//W3C//DTD SVG 1.1 Basic//EN" "http://www.w3.org/Graphics/SVG/1.1/DTD/svg11-basic.dtd">
<svg version="1.1" baseProfile="basic" id="Слой_1"
	 xmlns="http://www.w3.org/2000/svg" xmlns:xlink="http://www.w3.org/1999/xlink" x="0px" y="0px" width="299.167px" height="350px"
	 viewBox="0 0 299.167 350" xml:space="preserve">
<g>
	<path fill="#EB7272" stroke="#FFFFFF" stroke-width="6" stroke-miterlimit="10" d="M162.699,91.831
		c5.31-2.057,10.8-3.745,16.33-5.12c13.186-3.28,26.435-6.277,39.272-10.843c10.912-3.881,18.617-11.122,23.372-21.58
		c4.872-10.715,6.131-22.077,5.759-33.69c-0.096-3.005-0.467-6.002-0.753-9.506c-1.265,2.326-3.09,2.74-4.861,2.949
		c-8.46,0.999-16.946,1.781-25.396,2.851c-9.38,1.187-18.718,2.717-27.742,5.636c-11.879,3.843-21.467,10.72-27.677,21.777
		c-5.206,9.269-7.063,19.32-6.62,29.86c0.013,0.308,0.167,0.609,0.312,1.105c12.27-12.801,25.926-23.017,43.349-27.08
		c0.076,0.162,0.151,0.325,0.227,0.487c-0.822,0.409-1.645,0.817-2.466,1.228c-11.47,5.754-21.986,12.835-30.739,22.316
		c-6.777,7.341-12.122,15.555-14.807,25.296c-0.445,1.615-0.646,3.298-0.96,4.95C154.967,96.064,156.998,94.04,162.699,91.831z"/>
	<path fill="#EB7272" stroke="#FFFFFF" stroke-width="6" stroke-miterlimit="10" d="M280.255,122.72
		c-10.854-24.251-29.502-36.773-56.171-37.09c-0.381-0.005-0.761-0.002-1.142-0.002c-9.01,0.017-17.838,1.479-26.558,3.684
		c-15.587,3.942-30.291,10.163-44.568,17.443c-1.622,0.827-2.852,0.88-4.509,0.075c-11.777-5.723-23.898-10.595-36.549-14.041
		c-5.074-1.382-10.169-2.547-15.292-3.377c-9.735-1.577-19.572-1.942-29.564-0.278c-11.88,1.978-22.494,6.736-31.153,15.199
		c-16.378,16.009-22.799,36.335-24.12,58.491c-0.512,8.587,0.31,17.281,0.892,25.902c1.029,15.247,3.76,30.221,8.102,44.88
		c11.268,38.045,32.336,69.141,65.276,91.772c7.144,4.908,14.59,9.26,22.945,11.84c9.496,2.932,18.279,2.213,26.098-4.638
		c2.034-1.782,4.439-3.385,6.953-4.33c7.262-2.731,14.356-3.055,21.007,2.124c2.965,2.309,6.337,4.182,9.727,5.838
		c5.624,2.748,11.596,3.367,17.756,1.991c6.429-1.436,12.212-4.341,17.611-7.967c29.974-20.13,52.036-46.796,65.806-80.217
		c10.753-26.1,15.187-53.447,15.813-81.523C289.337,150.091,285.427,134.276,280.255,122.72z M35.235,156.258
		c0.944-3.653,2.158-7.251,3.678-10.789c0.502-1.168,1.035-2.314,1.597-3.436c-0.563,1.122-1.096,2.267-1.597,3.436
		C37.393,149.008,36.178,152.606,35.235,156.258c-0.629,2.435-1.138,4.894-1.536,7.376
		C34.097,161.153,34.605,158.693,35.235,156.258z M32.561,177.96c-0.008,4.012,0.248,8.007,0.721,11.984
		C32.809,185.967,32.553,181.972,32.561,177.96z M52.196,236.433c-2.099-2.915-4.218-5.841-6.179-8.854
		C47.978,230.592,50.096,233.518,52.196,236.433c0.161,0.223,0.332,0.438,0.513,0.647C52.528,236.871,52.356,236.656,52.196,236.433
		z M57.272,241.46c-0.047-0.152-0.094-0.303-0.141-0.455l0,0l0.017-0.014c0.085,0.126,0.172,0.252,0.25,0.382
		C57.4,241.375,57.316,241.429,57.272,241.46z M57.516,129.762c-0.631,1.227-1.223,2.472-1.778,3.734
		C56.293,132.234,56.885,130.989,57.516,129.762c1.893-3.68,4.136-7.193,6.762-10.516C61.652,122.569,59.409,126.082,57.516,129.762
		z M68.72,113.677L68.72,113.677l-0.008-0.009c0.125-0.087,0.251-0.174,0.376-0.26c0.03,0.044,0.059,0.089,0.089,0.134
		C69.025,113.587,68.872,113.632,68.72,113.677z"/>
</g>
<circle fill="#87BB50" cx="158.432" cy="191.091" r="84.965"/>
<g>
	<g>
		<path fill="#E95252" d="M288.613,168.496c-0.626,28.075-5.06,55.423-15.813,81.523c-13.77,33.421-35.832,60.087-65.806,80.217
			c-5.399,3.626-11.181,6.53-17.611,7.967c-6.16,1.376-12.131,0.757-17.756-1.991c-3.39-1.656-6.762-3.529-9.727-5.838
			c-6.651-5.18-13.745-4.855-21.007-2.124c-2.513,0.945-4.919,2.548-6.953,4.33c-7.818,6.852-16.602,7.571-26.098,4.638
			c-8.354-2.58-15.801-6.931-22.945-11.84c-32.94-22.632-54.008-53.728-65.276-91.772c-4.341-14.658-7.073-29.633-8.102-44.88
			c-0.582-8.62-1.404-17.314-0.892-25.902c1.322-22.156,7.742-42.482,24.12-58.491C43.406,95.87,54.019,91.112,65.9,89.134
			c15.251-2.54,30.14-0.353,44.857,3.656c12.651,3.446,24.772,8.318,36.549,14.041c1.658,0.805,2.887,0.752,4.509-0.075
			c14.277-7.28,28.981-13.501,44.568-17.443c9.089-2.298,18.294-3.794,27.7-3.682c26.669,0.317,45.317,12.839,56.171,37.09
			C285.427,134.276,289.337,150.091,288.613,168.496z M68.712,113.668c-4.603,1.833-8.576,4.716-12.23,7.937
			c-7.561,6.662-13.555,14.517-17.569,23.865c-4.052,9.434-5.936,19.297-6.296,29.477c-0.284,8.042,0.53,16.015,2.077,23.914
			c1.588,8.103,4.072,15.945,8,23.18c2.734,5.036,6.142,9.727,9.501,14.391c1.285,1.784,3.27,3.063,4.936,4.572
			c0.047,0.152,0.094,0.303,0.141,0.455c0.044-0.03,0.128-0.085,0.127-0.087c-0.079-0.13-0.165-0.256-0.25-0.382
			c-0.469-1.856-0.938-3.711-1.406-5.567c-3.013-11.945-5.625-23.965-6.694-36.269c-0.472-5.437-1.198-10.871-1.296-16.316
			c-0.107-5.928,0.104-11.894,0.686-17.793c0.585-5.931,1.5-11.866,2.8-17.681c2.46-11.003,7.038-21.074,14.385-29.764
			c1.075-1.272,2.067-2.614,3.097-3.923c0.152-0.045,0.305-0.091,0.457-0.136c-0.03-0.045-0.059-0.089-0.089-0.134
			C68.963,113.495,68.837,113.581,68.712,113.668z"/>
		<path fill="#6B9965" d="M198.044,48.19c-17.423,4.063-31.079,14.279-43.349,27.08c-0.144-0.496-0.299-0.798-0.312-1.105
			c-0.442-10.539,1.414-20.591,6.62-29.86c6.21-11.056,15.798-17.933,27.677-21.777c9.024-2.92,18.362-4.449,27.742-5.636
			c8.45-1.069,16.936-1.852,25.396-2.851c1.77-0.209,3.595-0.623,4.861-2.949c0.286,3.504,0.657,6.501,0.753,9.506
			c0.372,11.614-0.886,22.975-5.759,33.69c-4.755,10.458-12.46,17.7-23.372,21.58c-12.837,4.565-26.086,7.563-39.272,10.843
			c-5.529,1.375-11.02,3.063-16.33,5.12c-5.701,2.209-7.732,4.233-13.401,10.637c0.314-1.652,0.515-3.334,0.96-4.95
			c2.685-9.741,8.03-17.955,14.807-25.296c8.753-9.482,19.27-16.562,30.739-22.316c0.821-0.412,1.644-0.819,2.466-1.228
			C198.195,48.515,198.12,48.352,198.044,48.19z"/>
		<path fill="#EB7272" d="M57.131,241.005c-1.666-1.509-3.651-2.788-4.935-4.572c-3.359-4.664-6.767-9.355-9.501-14.391
			c-3.929-7.235-6.413-15.077-8-23.18c-1.548-7.9-2.361-15.873-2.077-23.914c0.359-10.18,2.244-20.043,6.296-29.477
			c4.014-9.347,10.008-17.203,17.569-23.865c3.655-3.22,7.627-6.104,12.23-7.937l0.008,0.009c-1.03,1.309-2.022,2.652-3.097,3.923
			c-7.347,8.69-11.925,18.761-14.385,29.764c-1.3,5.815-2.215,11.75-2.8,17.681c-0.582,5.899-0.793,11.865-0.686,17.793
			c0.098,5.445,0.824,10.879,1.296,16.316c1.069,12.303,3.68,24.324,6.694,36.269c0.468,1.856,0.937,3.711,1.406,5.567
			L57.131,241.005z"/>
		<path fill="#EB7272" d="M68.712,113.668c0.125-0.087,0.251-0.174,0.376-0.26c0.03,0.045,0.059,0.089,0.089,0.134
			c-0.152,0.045-0.305,0.091-0.457,0.136C68.72,113.678,68.712,113.668,68.712,113.668z"/>
		<path fill="#EB7272" d="M57.148,240.99c0.085,0.126,0.172,0.252,0.25,0.382c0.002,0.003-0.083,0.057-0.127,0.087
			c-0.047-0.152-0.094-0.303-0.141-0.455C57.131,241.005,57.148,240.99,57.148,240.99z"/>
	</g>
</g>
<path fill="#EB7272" d="M1602.97,686.224c0.358-0.247,0.715-0.495,1.073-0.742c0.084,0.127,0.169,0.254,0.253,0.381
	c-0.434,0.129-0.868,0.259-1.302,0.388C1602.994,686.25,1602.97,686.224,1602.97,686.224z"/>
<path fill="#EB7272" d="M1570.006,1049.175c0.243,0.36,0.489,0.718,0.714,1.089c0.004,0.007-0.235,0.163-0.361,0.249
	c-0.133-0.432-0.267-0.865-0.401-1.297C1569.957,1049.216,1570.006,1049.175,1570.006,1049.175z"/>
</svg>
