<?xml version="1.0" encoding="utf-8"?>
<!-- Generator: Adobe Illustrator 17.0.0, SVG Export Plug-In . SVG Version: 6.00 Build 0)  -->
<!DOCTYPE svg PUBLIC "-//W3C//DTD SVG 1.1 Basic//EN" "http://www.w3.org/Graphics/SVG/1.1/DTD/svg11-basic.dtd">
<svg version="1.1" baseProfile="basic" id="Слой_1"
	 xmlns="http://www.w3.org/2000/svg" xmlns:xlink="http://www.w3.org/1999/xlink" x="0px" y="0px" width="256.719px"
	 height="285.938px" viewBox="0 0 256.719 285.938" xml:space="preserve">
<g>
	<path fill="#6379B8" stroke="#FFFFFF" stroke-width="6" stroke-miterlimit="10" d="M237.453,252.432
		c2.6-3.212,4.646-8.537,2.715-17.11l-5.707-66.327l-0.765,0.091l1.21-18.103c2.874-17.533,1.854-25.397,0.56-28.892
		c-0.066-0.243-0.163-0.47-0.282-0.683c-0.797-1.754-1.599-2.048-1.599-2.048l-10.074-3.099l1.725-41.705
		c-1.918-6.592-5.443-11.047-9.549-14.056c2.617,1.523,3.79,2.868,4.148,3.336c-4.494-6.355-9.488-10.022-13.426-12.11
		c1.017,0.213,0.219-0.109-1.18-0.596c-3.498-1.677-5.909-2.052-5.909-2.052c-4.791-1.171-9.424-2.08-13.872-2.78
		c-4.817-5.349-15.291-8.65-21.781-10.772c-3.711-1.216-7.509-2.33-11.346-3.175c-0.064-0.375-1.133-7.236,5.275-15.78
		c0,0,3.073-4.386-5.269-6.145c0,0-37.338-7.904-52.716,4.831c0,0-5.555,7.729-3.15,23.584c-0.074,0.04-0.145,0.083-0.219,0.124
		l-10.68-0.426l-1.759,9.225l1.28-0.883c-20.241,18.25-21.927,45.242-21.927,45.242c-1.896,10.818-3.379,21.351-4.527,31.5
		l-23.945,68.181c-0.041-0.25-0.079-0.409-0.079-0.409c-5.277-0.438-17.129,3.518-17.129,3.518
		c-11.86,9.225-9.225,20.64-9.225,20.64l9.663,21.523c2.675,9.378,7.137,8.802,9.109,7.998c0.336,0.452,0.712,0.866,1.119,1.236
		c-0.075-0.001-0.128-0.001-0.128-0.001c0.438,12.736,50.074,17.122,50.074,17.122l-0.187-0.249c1.18,0.31,1.945,0.256,1.945,0.256
		c-0.552-0.462-1.043-1.061-1.479-1.716c4.903,3.463,8.805,6.079,15.439,7.052c0.001,0,0.001,0,0.002,0
		c0.328,0.306,0.533,0.371,0.533,0.371c0.171,0.019,0.382,0.037,0.609,0.054c0.103,0.017,0.205,0.036,0.311,0.042
		c0,0-0.006-0.011-0.011-0.02c0.685,0.046,1.564,0.085,2.572,0.12c9.168,1.254,17.908,2.123,26.22,2.672
		c10.336,2.598,21.413,0.746,21.413,0.746l-0.001,0c61.196,0.142,93.328-17.425,91.999-20.313
		C237.452,252.44,237.452,252.436,237.453,252.432z M110.156,19.204c0,0,14.818-5.975,30.911-4.861
		c3.646,0.332,7.401,1.04,11.14,2.286c0,0-2.223,2.472-4.652,5.726c-2.081,2.599-4.214,5.712-5.254,8.579
		c-13.874-1.143-25.333,0.224-34.779,3.228C107.263,32.807,106.215,25.902,110.156,19.204z M40.756,237.519l3.073-12.743
		l7.466-0.876l4.495-12.241c0.335,6.758,0.764,12.629,1.191,17.48l0.459,11.014c-0.438,17.129,12.305,15.808,12.305,15.808
		c0.097,0.175,0.198,0.324,0.296,0.492c-20.246,0.168-30.191-5.024-33.593-7.324C43.687,247.439,40.756,237.519,40.756,237.519z
		 M14.832,219.507l7.474-14.932c4.831-12.298,9.218-7.904,9.218-7.904c0.636,0,1.14-0.12,1.558-0.309l-5.506,15.679l5.707,10.539
		l-3.51,9.225c-0.857,1.055-1.544,2.043-2.113,2.983C14.842,230.999,14.832,219.507,14.832,219.507z"/>
	<path fill="#6379B8" stroke="#FFFFFF" stroke-width="6" stroke-miterlimit="10" d="M219.835,63.835
		c0.044,0.062,0.088,0.119,0.131,0.181C219.967,64.016,219.922,63.948,219.835,63.835z"/>
</g>
<polygon fill="#A8A8A8" stroke="#272525" stroke-width="3" stroke-miterlimit="10" points="557.307,189.762 557.307,189.762 
	557.306,189.761 "/>
<g id="__x0023_Layer_x0020_1_1_">
	<g id="_457875480_1_">
		<path fill="#262523" d="M31.524,196.67c0,0-4.386-4.394-9.218,7.904l-7.474,14.932c0,0,0,12.736,14.94,15.816l-1.759,9.225
			c0,0-6.59,4.831-10.101-7.474l-9.663-21.523c0,0-2.635-11.414,9.225-20.64c0,0,11.852-3.956,17.129-3.518
			C34.604,191.394,35.917,196.67,31.524,196.67z"/>
		<path fill="#262523" d="M35.041,248.058c0,0,9.663,9.225,37.776,8.342l5.269,7.028c0,0-49.636-4.386-50.074-17.122
			C28.013,246.306,33.72,246.306,35.041,248.058z"/>
		<path fill="#262523" d="M59.199,202.378L51.295,223.9l-7.466,0.876l-3.073,12.743c0,0,3.51,11.86-6.598,11.86
			c0,0-15.808-3.518-4.386-17.574l3.51-9.225l-5.707-10.539l31.624-90.047V202.378z"/>
		<polygon fill="#262523" points="96.537,38.975 85.561,38.538 83.802,47.763 		"/>
		<path fill="#6379B8" d="M58.761,244.985c0,0-10.539-67.648,4.394-152.864c0,0,4.394-70.721,84.777-60.613
			c5.329,0.846,10.613,2.338,15.734,4.015c6.672,2.182,17.574,5.603,22.191,11.222c11.17,13.604,15.118,36.618,18.265,53.146
			c9.477,49.873,38.244,102.292,33.331,152.552c1.662,3.614-49.087,30.228-143.646,16.328c-9.967-1.462-13.752-6.62-24.061-12.81
			C69.745,255.962,58.761,254.21,58.761,244.985z"/>
		<path fill="#B7C0E0" d="M54.805,176.899c0,0,7.474,7.028,21.085,7.028v72.034c0,0,1.321,5.269,3.956,7.474
			c0,0-5.715,0.438-10.101-7.474c0,0-12.743,1.321-12.305-15.808L54.805,176.899z"/>
		<path fill="#B7C0E0" d="M77.649,172.506c0,0,3.956-62.809,8.349-81.697c0,0,4.386-32.507,44.797-43.491
			c0,0,28.989-7.904,68.524,1.759c0,0,11.422,1.759,20.647,14.94c0,0-7.466-11.86-46.126-8.787l-37.331,2.197
			c0,0-30.31-1.321-41.294,35.134l-4.394,113.328l-4.386-27.23L77.649,172.506z"/>
		<path fill="#6279B8" d="M205.858,51.6c4.394,1.054-6.865-2.523-6.865-2.523c-39.535-9.663-68.524-1.759-68.524-1.759
			C90.058,58.301,85.664,90.808,85.664,90.808c-4.394,18.888-8.342,81.697-8.342,81.697l2.063,1.455c0,0,2.983-60.642,7.6-81.067
			C86.986,92.894,95.439,25.134,205.858,51.6z"/>
		<path fill="#6379B8" d="M94.34,269.143c0,0-8.342-2.635-3.956-54.03L95.216,92.56c0,0,5.277-35.572,50.074-36.017l44.367-1.752
			c0,0,28.551-4.394,35.579,19.764l-7.466,180.531l-99.71,14.494C118.06,269.581,98.296,269.581,94.34,269.143z"/>
		<path fill="#6279B8" d="M222.475,68.61c-9.581-17.448-33.145-13.819-33.145-13.819l-44.367,1.752
			C100.159,56.988,94.89,92.56,94.89,92.56l-4.831,122.554c-0.401,4.72-4.876,53.532,5.203,54.126c0,0-5.64-9.982-4.653-23.156
			l6.59-150.889c0,0,2.308-33.271,43.157-36.893l51.061-1.974c0,0,16.469-3.295,28.328,10.212L222.475,68.61z"/>
		<path fill="#6279B8" d="M110.156,263.428c0,0-7.028-2.635-6.153-32.499v-84.777c0,0-2.197-22.844,19.326-25.916
			c0,0,50.512-12.736,93.127-6.145l17.129,5.269c0,0,6.145,2.197,1.321,31.624l-1.321,19.764L123.775,183.49l-1.321,38.214
			c0,0-6.59,47.439,16.691,47.877l6.308,3.176C145.453,272.757,119.819,277.047,110.156,263.428z"/>
		<path fill="#6379B8" d="M123.775,182.169c0,0-4.839,47.884-1.321,65.889c0,0-3.956,24.157,25.478,23.282l83.456-14.494
			c0,0,12.736-3.956,8.78-21.523l-5.707-66.327L123.775,182.169z"/>
		<path fill="#B7C0E0" d="M107.573,34.418c0,0-1.811-7.748,2.583-15.214c0,0,22.836-9.218,42.6-2.635c0,0-8.394,8.127-10.591,14.717
			c0,0,7.08,0.661,10.16,1.098c0,0-1.321-7.028,5.269-15.816c0,0,3.073-4.386-5.269-6.145c0,0-37.338-7.904-52.716,4.831
			c0,0-5.707,7.904-3.073,24.157L107.573,34.418z"/>
		<path fill="#B7C0E0" d="M120.695,196.67l-1.759-50.081c0,0,0.334-13.173,13.181-18.116l98.5-9.886c0,0,4.616,0.987,4.943,3.956
			c0,0-2.635-3.295-6.59-1.974l-95.865,9.878c0,0-13.181,3.295-12.52,22.732L120.695,196.67z"/>
		<path fill="#2E356F" d="M123.775,179.534c0,0,27.119,4.616,108.816-13.507l-0.327-1.648c0,0-73.133,14.828-108.386,13.507
			L123.775,179.534z"/>
		<path fill="#384886" d="M123.775,185.686c0,0,83.783-4.342,109.811-12.743l-0.163,1.811c0,0-45.302,11.37-109.543,12.691
			L123.775,185.686z"/>
		<path fill="#2E356F" d="M123.775,179.534v6.153c0,0,79.063-3.956,109.811-12.743v-6.583
			C233.585,166.36,143.093,183.044,123.775,179.534z"/>
		<polygon fill="#FFFFFF" points="134.291,188.863 133.378,179.534 127.055,179.534 127.968,189.256 129.23,189.175 
			128.057,180.313 132.636,180.313 133.163,188.996 		"/>
		<polygon fill="#6279B8" points="127.285,189.642 134.751,188.759 137.386,211.157 129.037,211.603 		"/>
		<path fill="#6379B8" d="M109.993,19.456c0.052-0.082,0.104-0.163,0.163-0.252c0,0,21.3-9.492,42.051-2.575
			c0,0-7.57,8.401-10.041,14.658l3.295,0.334c0,0,1.15-7.748,8.728-14.168c0,0,1.974-2.471-5.93-3.792c0,0-13.671-5.433-37.39,3.132
			L109.993,19.456z"/>
	</g>
</g>
</svg>
