<?xml version="1.0" encoding="utf-8"?>
<!-- Generator: Adobe Illustrator 17.0.0, SVG Export Plug-In . SVG Version: 6.00 Build 0)  -->
<!DOCTYPE svg PUBLIC "-//W3C//DTD SVG 1.1 Basic//EN" "http://www.w3.org/Graphics/SVG/1.1/DTD/svg11-basic.dtd">
<svg version="1.1" baseProfile="basic" id="Слой_1"
	 xmlns="http://www.w3.org/2000/svg" xmlns:xlink="http://www.w3.org/1999/xlink" x="0px" y="0px" width="58.84px"
	 height="208.909px" viewBox="0 0 58.84 208.909" xml:space="preserve">
<g>
	<path fill="#CE9538" d="M58.84,208.909c-2.847-1.465-5.395-3.452-7.311-6.152c0,0-7.028-2.635-6.153-32.499V85.48
		c0,0-0.723-7.613,2.8-14.64c-3.035-17.049-8.442-33.73-19.562-46.714c-1.065-1.243-2.171-2.459-3.343-3.631
		C21.63,15.64,16.886,7.45,15.099,0C5.534,15.614,4.527,31.45,4.527,31.45C2.632,42.268,1.148,52.801,0,62.951l0.572-1.628v57.875
		c3.549,1.919,9.18,4.058,16.691,4.058v72.034c0,0,0.829,3.289,2.476,5.758c4.903,3.463,8.805,6.079,15.44,7.052
		c0.005,0.001,0.009,0.001,0.014,0.002c0.316,0.29,0.52,0.369,0.52,0.369c0.214,0.024,0.482,0.046,0.783,0.067
		c0.047,0.005,0.089,0.027,0.137,0.029c0,0-0.01-0.018-0.011-0.02C41.451,208.87,55.77,208.905,58.84,208.909z"/>
</g>
</svg>
