<?xml version="1.0" encoding="utf-8"?>
<!-- Generator: Adobe Illustrator 17.0.0, SVG Export Plug-In . SVG Version: 6.00 Build 0)  -->
<!DOCTYPE svg PUBLIC "-//W3C//DTD SVG 1.1 Basic//EN" "http://www.w3.org/Graphics/SVG/1.1/DTD/svg11-basic.dtd">
<svg version="1.1" baseProfile="basic" id="Слой_1"
	 xmlns="http://www.w3.org/2000/svg" xmlns:xlink="http://www.w3.org/1999/xlink" x="0px" y="0px" width="137.995px"
	 height="87.237px" viewBox="0 0 137.995 87.237" xml:space="preserve">
<path fill="#369371" d="M132.499,19.439c-4.475-6.281-9.43-9.918-13.342-11.991c1.047,0.221,0.214-0.113-1.223-0.613
	c-3.464-1.651-5.855-2.033-5.855-2.033c-14.923-3.648-28.34-4.79-39.267-4.802C54.601-0.056,43.228,3.044,43.228,3.044
	C13.682,11.074,3.398,30.599,0,40.523c11.121,12.984,16.527,29.665,19.562,46.714c2.579-5.145,7.429-9.977,16.526-11.276
	c0,0,50.512-12.736,93.127-6.145l7.055,2.17l1.725-41.705C136.091,23.735,132.054,18.891,132.499,19.439z"/>
</svg>
