<?xml version="1.0" encoding="utf-8"?>
<!-- Generator: Adobe Illustrator 17.0.0, SVG Export Plug-In . SVG Version: 6.00 Build 0)  -->
<!DOCTYPE svg PUBLIC "-//W3C//DTD SVG 1.1 Basic//EN" "http://www.w3.org/Graphics/SVG/1.1/DTD/svg11-basic.dtd">
<svg version="1.1" baseProfile="basic" id="Слой_1"
	 xmlns="http://www.w3.org/2000/svg" xmlns:xlink="http://www.w3.org/1999/xlink" x="0px" y="0px" width="111.739px"
	 height="76.797px" viewBox="0 0 111.739 76.797" xml:space="preserve">
<path fill="#7566A9" d="M89.94,27.524c-3.711-1.215-7.509-2.325-11.345-3.17c-0.057-0.326-1.158-7.208,5.274-15.784
	c0,0,3.073-4.386-5.269-6.145c0,0-37.338-7.904-52.716,4.831c0,0-5.555,7.729-3.15,23.584c-0.074,0.04-0.141,0.084-0.214,0.124
	l-10.685-0.426l-1.759,9.225l1.353-0.934C6.664,43.113,2.934,47.882,0,52.671c1.787,7.45,6.531,15.64,10.172,20.495
	c1.172,1.172,2.278,2.388,3.343,3.631c3.398-9.924,13.682-29.448,43.228-37.479c0,0,11.373-3.099,29.584-3.043
	c7.418,0.008,16.005,0.561,25.412,2.041C106.93,32.956,96.438,29.649,89.94,27.524z M73.751,14.458
	c-2.05,2.576-4.15,5.649-5.176,8.476c-13.874-1.143-25.333,0.224-34.779,3.228c-0.258-1.355-1.307-8.261,2.634-14.958
	c0,0,14.819-5.976,30.912-4.861c3.646,0.332,7.401,1.04,11.139,2.286C78.481,8.629,76.211,11.153,73.751,14.458z"/>
</svg>
