<?xml version="1.0" encoding="utf-8"?>
<!-- Generator: Adobe Illustrator 17.0.0, SVG Export Plug-In . SVG Version: 6.00 Build 0)  -->
<!DOCTYPE svg PUBLIC "-//W3C//DTD SVG 1.1 Basic//EN" "http://www.w3.org/Graphics/SVG/1.1/DTD/svg11-basic.dtd">
<svg version="1.1" baseProfile="basic" id="Слой_1"
	 xmlns="http://www.w3.org/2000/svg" xmlns:xlink="http://www.w3.org/1999/xlink" x="0px" y="0px" width="256.719px"
	 height="285.938px" viewBox="0 0 256.719 285.938" xml:space="preserve">
<polygon fill="#A8A8A8" stroke="#272525" stroke-width="3" stroke-miterlimit="10" points="557.307,189.762 557.307,189.762 
	557.306,189.761 "/>
<g>
	<path fill="#A8A8A8" stroke="#272525" stroke-width="2" stroke-miterlimit="10" d="M237.453,252.432
		c2.6-3.212,4.646-8.537,2.715-17.11l-5.707-66.327l-0.765,0.091l1.21-18.103c2.874-17.532,1.854-25.397,0.561-28.892
		c-0.066-0.243-0.163-0.47-0.283-0.684c-0.797-1.753-1.599-2.048-1.599-2.048l-10.074-3.099l1.725-41.705
		c-1.918-6.592-5.948-11.397-5.496-10.842c-4.475-6.281-9.43-9.918-13.342-11.991c1.047,0.221,0.214-0.113-1.223-0.613
		c-3.464-1.651-5.855-2.033-5.855-2.033c-4.791-1.171-9.424-2.08-13.873-2.78c-4.817-5.348-15.291-8.65-21.781-10.772
		c-3.711-1.215-7.508-2.325-11.345-3.17c-0.057-0.325-1.158-7.207,5.274-15.784c0,0,3.073-4.386-5.269-6.145
		c0,0-37.338-7.904-52.716,4.831c0,0-5.555,7.729-3.15,23.584c-0.074,0.04-0.145,0.083-0.219,0.124l-10.68-0.426l-1.759,9.225
		l1.28-0.883C64.841,65.13,63.155,92.122,63.155,92.122c-1.896,10.818-3.379,21.351-4.527,31.5l-23.945,68.181
		c-0.041-0.25-0.079-0.409-0.079-0.409c-5.277-0.438-17.129,3.518-17.129,3.518c-11.86,9.225-9.225,20.64-9.225,20.64l9.663,21.523
		c2.675,9.378,7.137,8.802,9.109,7.998c0.336,0.452,0.712,0.866,1.119,1.236c-0.075-0.001-0.128-0.001-0.128-0.001
		c0.438,12.736,50.074,17.122,50.074,17.122l-0.187-0.249c1.179,0.31,1.945,0.256,1.945,0.256c-0.552-0.462-1.043-1.062-1.479-1.716
		c4.904,3.463,8.805,6.079,15.439,7.052c0.001,0,0.001,0,0.002,0c0.328,0.306,0.532,0.371,0.532,0.371
		c0.214,0.024,0.482,0.046,0.783,0.067c0.047,0.005,0.089,0.027,0.137,0.029c0,0-0.01-0.018-0.011-0.02
		c0.684,0.046,1.564,0.085,2.572,0.12c9.167,1.253,17.908,2.123,26.219,2.672c10.336,2.598,21.413,0.746,21.413,0.746h-0.001
		c61.196,0.141,93.328-17.425,91.999-20.313C237.452,252.44,237.453,252.436,237.453,252.432z M110.156,19.204
		c0,0,14.818-5.975,30.912-4.861c3.646,0.332,7.401,1.04,11.139,2.286c0,0-2.223,2.472-4.652,5.726
		c-2.081,2.599-4.214,5.712-5.254,8.579c-13.874-1.143-25.333,0.224-34.779,3.228C107.263,32.807,106.215,25.902,110.156,19.204z
		 M40.756,237.519l3.073-12.743l7.466-0.876l4.495-12.241c0.335,6.758,0.764,12.628,1.191,17.48l0.459,11.015
		c-0.438,17.129,12.305,15.808,12.305,15.808c0.097,0.175,0.198,0.324,0.296,0.491c-20.246,0.169-30.191-5.024-33.593-7.324
		C43.687,247.44,40.756,237.519,40.756,237.519z M14.832,219.507l7.474-14.932c4.831-12.298,9.218-7.904,9.218-7.904
		c0.636,0,1.14-0.12,1.558-0.309l-5.506,15.679l5.707,10.539l-3.51,9.225c-0.857,1.055-1.544,2.043-2.113,2.983
		C14.843,231,14.832,219.507,14.832,219.507z"/>
	<path fill="#A8A8A8" stroke="#272525" stroke-width="2" stroke-miterlimit="10" d="M219.74,63.713
		c0.075,0.105,0.152,0.196,0.227,0.303C219.967,64.016,219.897,63.907,219.74,63.713z"/>
</g>
</svg>
