<?xml version="1.0" encoding="utf-8"?>
<!-- Generator: Adobe Illustrator 17.0.0, SVG Export Plug-In . SVG Version: 6.00 Build 0)  -->
<!DOCTYPE svg PUBLIC "-//W3C//DTD SVG 1.1 Basic//EN" "http://www.w3.org/Graphics/SVG/1.1/DTD/svg11-basic.dtd">
<svg version="1.1" baseProfile="basic" id="Слой_1"
	 xmlns="http://www.w3.org/2000/svg" xmlns:xlink="http://www.w3.org/1999/xlink" x="0px" y="0px" width="71.846px"
	 height="141.445px" viewBox="0 0 71.846 141.445" xml:space="preserve">
<path fill="#EEBF31" d="M71.846,141.442c-2.635-2.204-3.956-7.474-3.956-7.474V61.934c-7.512,0-13.143-2.14-16.691-4.058V0
	L26.683,69.809c-0.041-0.25-0.079-0.409-0.079-0.409c-5.277-0.438-17.129,3.518-17.129,3.518c-11.86,9.225-9.225,20.64-9.225,20.64
	l9.663,21.523c2.676,9.378,7.137,8.802,9.11,7.998c0.339,0.456,0.726,0.864,1.136,1.236c-0.084-0.001-0.144-0.002-0.144-0.002
	c0.438,12.736,50.074,17.122,50.074,17.122l-0.186-0.249C71.08,141.496,71.846,141.442,71.846,141.442z M21.772,109.811
	c-0.857,1.055-1.544,2.043-2.113,2.983c-12.817-3.788-12.827-15.28-12.827-15.28l7.474-14.932c4.831-12.298,9.218-7.904,9.218-7.904
	c0.636,0,1.14-0.12,1.558-0.309l-5.506,15.679l5.707,10.539L21.772,109.811z M28.448,127.136c7.239-1.69,4.308-11.611,4.308-11.611
	l3.073-12.743l7.466-0.876l4.911-13.373l1.234,29.627c-0.438,17.129,12.305,15.808,12.305,15.808
	c0.095,0.171,0.193,0.316,0.289,0.479C41.81,134.61,31.848,129.435,28.448,127.136z"/>
</svg>
