<?xml version="1.0" encoding="utf-8"?>
<!-- Generator: Adobe Illustrator 17.0.0, SVG Export Plug-In . SVG Version: 6.00 Build 0)  -->
<!DOCTYPE svg PUBLIC "-//W3C//DTD SVG 1.1 Basic//EN" "http://www.w3.org/Graphics/SVG/1.1/DTD/svg11-basic.dtd">
<svg version="1.1" baseProfile="basic" id="Слой_1"
	 xmlns="http://www.w3.org/2000/svg" xmlns:xlink="http://www.w3.org/1999/xlink" x="0px" y="0px" width="256.719px"
	 height="285.938px" viewBox="0 0 256.719 285.938" xml:space="preserve">
<polygon fill="#A8A8A8" stroke="#272525" stroke-width="3" stroke-miterlimit="10" points="557.307,189.762 557.307,189.762 
	557.306,189.761 "/>
<path fill="#A8A8A8" stroke="#272525" stroke-width="2" stroke-miterlimit="10" d="M79.846,263.435
	c-2.635-2.204-3.956-7.474-3.956-7.474v-72.034c-7.512,0-13.143-2.14-16.691-4.058v-57.875l-24.516,69.809
	c-0.041-0.25-0.079-0.409-0.079-0.409c-5.277-0.438-17.129,3.518-17.129,3.518c-11.86,9.225-9.225,20.64-9.225,20.64l9.663,21.523
	c2.676,9.378,7.137,8.802,9.11,7.998c0.339,0.456,0.726,0.864,1.136,1.236c-0.084-0.001-0.144-0.002-0.144-0.002
	c0.438,12.735,50.074,17.122,50.074,17.122l-0.186-0.249C79.08,263.49,79.846,263.435,79.846,263.435z M29.772,231.804
	c-0.857,1.055-1.544,2.043-2.113,2.983c-12.817-3.788-12.827-15.28-12.827-15.28l7.474-14.932c4.831-12.298,9.218-7.904,9.218-7.904
	c0.636,0,1.14-0.12,1.558-0.309l-5.506,15.679l5.707,10.539L29.772,231.804z M36.448,249.13c7.239-1.69,4.308-11.611,4.308-11.611
	l3.073-12.743l7.466-0.876l4.911-13.373l1.234,29.627c-0.438,17.129,12.305,15.808,12.305,15.808
	c0.095,0.171,0.193,0.316,0.289,0.479C49.81,256.604,39.848,251.429,36.448,249.13z"/>
<path fill="#A8A8A8" stroke="#272525" stroke-width="2" stroke-miterlimit="10" d="M240.241,235.125l-5.707-66.327l-0.765,0.091
	l1.21-18.103c2.874-17.533,1.854-25.398,0.56-28.892c-0.066-0.243-0.163-0.469-0.282-0.683c-0.797-1.754-1.599-2.049-1.599-2.049
	l-17.129-5.269c-42.615-6.59-93.127,6.145-93.127,6.145c-21.523,3.073-19.326,25.916-19.326,25.916v84.777
	c-0.876,29.865,6.153,32.499,6.153,32.499c9.663,13.619,35.297,9.329,35.297,9.329s35.41-1.253,48.03-3.941
	c25.296-5.388,37.905-11.971,37.905-11.971S244.197,252.692,240.241,235.125z"/>
<path fill="#A8A8A8" stroke="#272525" stroke-width="2" stroke-miterlimit="10" d="M163.94,35.524
	c-3.711-1.215-7.509-2.325-11.345-3.17c-0.057-0.326-1.158-7.208,5.274-15.784c0,0,3.073-4.386-5.269-6.145
	c0,0-37.338-7.904-52.716,4.831c0,0-5.555,7.729-3.15,23.584c-0.074,0.04-0.141,0.084-0.214,0.124l-10.685-0.426l-1.759,9.225
	l1.353-0.934C80.664,51.113,76.934,55.882,74,60.671c1.787,7.45,6.531,15.64,10.172,20.495c1.172,1.172,2.278,2.388,3.343,3.631
	c3.398-9.924,13.682-29.448,43.228-37.479c0,0,11.373-3.099,29.584-3.043c7.418,0.008,16.005,0.561,25.412,2.041
	C180.93,40.956,170.438,37.649,163.94,35.524z M147.751,22.458c-2.05,2.576-4.15,5.649-5.176,8.476
	c-13.874-1.143-25.333,0.224-34.779,3.228c-0.258-1.355-1.307-8.261,2.634-14.958c0,0,14.819-5.976,30.912-4.861
	c3.646,0.332,7.401,1.04,11.139,2.286C152.481,16.629,150.21,19.153,147.751,22.458z"/>
<path fill="#A8A8A8" stroke="#272525" stroke-width="2" stroke-miterlimit="10" d="M219.499,63.44
	c-4.475-6.281-9.43-9.918-13.342-11.991c1.047,0.221,0.214-0.113-1.223-0.613c-3.464-1.651-5.855-2.033-5.855-2.033
	c-14.923-3.648-28.34-4.79-39.267-4.802c-18.211-0.057-29.584,3.043-29.584,3.043C100.682,55.075,90.398,74.599,87,84.523
	c11.121,12.984,16.527,29.665,19.562,46.714c2.579-5.145,7.429-9.977,16.526-11.276c0,0,50.512-12.736,93.127-6.145l7.055,2.17
	l1.725-41.705C223.09,67.736,219.053,62.892,219.499,63.44z"/>
<g>
	<path fill="#A8A8A8" stroke="#272525" stroke-width="2" stroke-miterlimit="10" d="M117.839,269.908
		c-2.847-1.465-5.395-3.452-7.311-6.152c0,0-7.028-2.635-6.153-32.499V146.48c0,0-0.723-7.613,2.8-14.64
		c-3.035-17.049-8.442-33.73-19.562-46.714c-1.065-1.243-2.171-2.459-3.343-3.631C80.629,76.64,75.885,68.451,74.098,61
		c-9.565,15.614-10.571,31.45-10.571,31.45c-1.896,10.818-3.379,21.351-4.527,31.5l0.572-1.628v57.875
		c3.549,1.919,9.18,4.058,16.691,4.058v72.034c0,0,0.829,3.289,2.476,5.758c4.903,3.463,8.805,6.079,15.44,7.052
		c0.005,0.001,0.009,0.001,0.014,0.002c0.316,0.29,0.521,0.369,0.521,0.369c0.214,0.024,0.482,0.046,0.783,0.067
		c0.047,0.005,0.089,0.027,0.137,0.029c0,0-0.01-0.018-0.011-0.02C100.45,269.869,114.769,269.904,117.839,269.908z"/>
</g>
</svg>
