<?xml version="1.0" encoding="utf-8"?>
<!-- Generator: Adobe Illustrator 17.0.0, SVG Export Plug-In . SVG Version: 6.00 Build 0)  -->
<!DOCTYPE svg PUBLIC "-//W3C//DTD SVG 1.1 Basic//EN" "http://www.w3.org/Graphics/SVG/1.1/DTD/svg11-basic.dtd">
<svg version="1.1" baseProfile="basic" id="Слой_1"
	 xmlns="http://www.w3.org/2000/svg" xmlns:xlink="http://www.w3.org/1999/xlink" x="0px" y="0px" width="300px" height="251.5px"
	 viewBox="0 0 300 251.5" xml:space="preserve">
<path fill="#EAB531" stroke="#FCFCFC" stroke-width="6" stroke-miterlimit="10" d="M290.317,73.384
	c-1.32-6.108-3.108-11.214-5.368-14.505c0.087,0.34,0.169,0.692,0.253,1.041c-1.296-1.922-2.745-3.26-4.348-3.858h0
	c-1.362-14.347-7.373-34.362-12.171-43.568c-5.197-9.968-14.257-0.229-14.257-0.229l-6.8,9.511c0,0.002,11.342,8.06,11.819,35.819
	c-11.374,6.561-19.642,21.806-25.752,36.521c-11.191,26.953-41.431,56.484-80.767,67.63c-22.189,6.28-43.361,10.011-66.58,10.193
	c-1.221,2.263-1.115,4.989,1.25,8.538c6.82,11.936,23.872,3.41,34.102,6.82c2.4,1.2,4.163,3.669,5.073,6.66
	c-0.006,0.001-0.012,0.001-0.017,0.002c0.413,1.356,0.656,2.808,0.697,4.311c0.003,0,0.005-0.001,0.008-0.001
	c0.125,4.602-1.593,9.566-5.761,12.9c-13.641,10.231-39.218-6.82-44.333,10.231c-2.368,7.107,0.205,12.567,5.281,17.097
	c30.581,5.39,62.725,1.458,95.654-5.959c51.81-11.683,98.824-50.27,111.797-98.087C294.397,118.6,294.443,91.309,290.317,73.384z"/>
<path fill="#EB7272" d="M1602.97,686.224c0.358-0.247,0.715-0.495,1.073-0.742c0.084,0.127,0.169,0.254,0.253,0.381
	c-0.434,0.129-0.868,0.259-1.302,0.388C1602.994,686.25,1602.97,686.224,1602.97,686.224z"/>
<path fill="#EB7272" d="M1570.006,1049.175c0.243,0.36,0.489,0.718,0.714,1.089c0.004,0.007-0.235,0.163-0.361,0.249
	c-0.133-0.432-0.267-0.865-0.401-1.297C1569.957,1049.216,1570.006,1049.175,1570.006,1049.175z"/>
<g>
	<path fill="#E7AB30" d="M280.853,56.063c-23.183-8.633-37.736,15.356-47.16,38.055c-11.191,26.953-41.431,56.484-80.767,67.63
		c-22.189,6.28-43.361,10.011-66.58,10.193c-1.221,2.263-1.115,4.989,1.25,8.538c6.82,11.936,23.872,3.41,34.102,6.821
		c6.821,3.41,8.526,17.051,0,23.872c-13.641,10.231-39.218-6.821-44.333,10.231c-2.368,7.107,0.205,12.567,5.281,17.097
		c30.581,5.39,62.725,1.458,95.654-5.959c51.81-11.684,98.824-50.271,111.797-98.087C296.574,110.576,293.404,60.742,280.853,56.063
		z"/>
	<path fill="#FBEB30" d="M284.948,58.88c4.481,17.602,5.042,47.002,0.665,63.136c-12.785,47.133-57.238,87.331-108.315,98.846
		c-33.201,7.491-68.19,10.95-100.773,4.776c-0.188,2.943,0.542,5.576,1.968,7.965c32.61,6.502,67.61,3.112,101.17-4.455
		c51.067-11.52,97.407-49.548,110.192-96.682C295.443,111.879,293.747,71.69,284.948,58.88z"/>
	<path fill="#FBEB30" d="M270.559,61.303c-0.772,0.926-1.158,1.603-1.158,1.603l-0.179-0.063
		c-3.267,74.906-61.033,122.735-142.468,131.119c0.413,1.356,0.656,2.808,0.697,4.311
		C210.847,189.508,270.168,139.425,270.559,61.303z"/>
	<path fill="#EAB531" d="M259.467,59.347l9.934,3.559c0,0,3.802-6.674,11.452-6.843c-1.362-14.347-7.373-34.362-12.171-43.568
		c-5.197-9.968-14.257-0.228-14.257-0.228l-6.8,9.511C247.625,21.78,259.453,30.164,259.467,59.347z"/>
</g>
</svg>
