<?xml version="1.0" encoding="utf-8"?>
<!-- Generator: Adobe Illustrator 17.0.0, SVG Export Plug-In . SVG Version: 6.00 Build 0)  -->
<!DOCTYPE svg PUBLIC "-//W3C//DTD SVG 1.1 Basic//EN" "http://www.w3.org/Graphics/SVG/1.1/DTD/svg11-basic.dtd">
<svg version="1.1" baseProfile="basic" id="Слой_1"
	 xmlns="http://www.w3.org/2000/svg" xmlns:xlink="http://www.w3.org/1999/xlink" x="0px" y="0px" width="300px" height="251.5px"
	 viewBox="0 0 300 251.5" xml:space="preserve">
<path fill="#A16931" stroke="#FFFFFF" stroke-width="6" stroke-miterlimit="10" d="M290.33,73.445
	c-1.321-6.137-3.113-11.267-5.381-14.57c0.087,0.341,0.169,0.694,0.253,1.044c-1.297-1.924-2.747-3.264-4.351-3.862
	c0.001,0,0.002,0,0.003,0c-1.362-14.347-7.373-34.362-12.171-43.568c-5.199-9.966-14.257-0.227-14.257-0.227l-6.8,9.511
	c-0.001,0.001,11.342,8.06,11.819,35.817c-11.375,6.56-19.644,21.807-25.754,36.522c-11.191,26.954-41.43,56.484-80.767,67.63
	c-37.206,10.531-71.508,13.972-117.505,5.356c-20.617-3.859-26.767,6.044-27.316,13.071c-0.022,0.286-0.033,0.569-0.048,0.854
	c-0.004,0.034-0.006,0.058-0.006,0.058s0.003,0.002,0.003,0.002c-0.796,15.635,9.402,28.808,23.662,37.832
	c44.896,28.368,94.771,25.291,146.586,13.619c51.81-11.682,98.824-50.269,111.794-98.089
	C294.391,118.613,294.442,91.37,290.33,73.445z"/>
<path fill="#EB7272" d="M1602.97,686.224c0.358-0.247,0.715-0.495,1.073-0.742c0.084,0.127,0.169,0.254,0.253,0.381
	c-0.434,0.129-0.868,0.259-1.302,0.388C1602.994,686.25,1602.97,686.224,1602.97,686.224z"/>
<path fill="#EB7272" d="M1570.006,1049.175c0.243,0.36,0.489,0.718,0.714,1.089c0.004,0.007-0.235,0.163-0.361,0.249
	c-0.133-0.432-0.267-0.865-0.401-1.297C1569.957,1049.216,1570.006,1049.175,1570.006,1049.175z"/>
<g id="Слой_x0020_1">
	<path fill="#E7AB30" d="M178.3,232.534c-51.815,11.672-101.69,14.749-146.586-13.619c-14.538-9.199-24.862-22.709-23.611-38.746
		c0.549-7.027,6.699-16.93,27.316-13.071c45.997,8.616,80.299,5.175,117.505-5.356c39.337-11.146,69.576-40.676,80.767-67.63
		c9.424-22.697,23.976-46.688,47.16-38.055c12.551,4.677,15.723,54.513,9.243,78.388C277.124,182.265,230.11,220.852,178.3,232.534z
		"/>
	<path fill="#FBEB30" d="M284.949,58.875c4.481,17.602,5.042,47.002,0.665,63.136c-12.785,47.133-57.238,87.331-108.315,98.846
		c-51.065,11.52-106.366,13.534-150.622-14.436c-6.21-3.929-14.688-13.979-18.552-26.187c0.592,17.235,11.765,27.947,21.812,34.295
		c44.251,27.973,98.653,26.129,149.725,14.613c51.067-11.52,97.407-49.548,110.192-96.682
		C295.444,111.874,293.747,71.686,284.949,58.875z"/>
	<path fill="#FBEB30" d="M269.223,62.838c-3.371,77.285-64.756,125.746-150.295,131.801c-14.393-0.123-57.4-1.756-85.686-16.275
		c-3.409-1.753-7.966-3.26-10.261-2.399l-0.854-0.409c0.442,1.543,0.648,3.102,0.373,4.469c1.032,0.494,2.053,0.977,3.068,1.453
		c1.795,0.962,4.157,2.07,7.076,3.395c1.772,0.803,3.763,1.577,5.941,2.319c22.953,9.341,43.204,13.261,71.177,12.306
		c92.575-3.172,160.381-54.654,160.798-138.197c-0.772,0.926-1.158,1.603-1.158,1.603L269.223,62.838z M8.448,181.392
		c-0.121,0.581-0.201,1.153-0.242,1.709c-0.007,0.095,0.771-0.169,1.93-0.607C9.389,182.065,8.806,181.658,8.448,181.392z"/>
	<path fill="#EAB531" d="M259.468,59.341l9.934,3.559c0,0,3.802-6.674,11.452-6.843c-1.362-14.347-7.373-34.362-12.171-43.568
		c-5.199-9.966-14.257-0.227-14.257-0.227l-6.8,9.511C247.625,21.774,259.454,30.159,259.468,59.341z"/>
	<path fill="#A16931" d="M18.174,167.582c0,0,8.072,11.346,2.472,15.356c-5.605,4.021-12.597-1.857-12.597-1.857
		S8.974,171.033,18.174,167.582z"/>
</g>
</svg>
