<?xml version="1.0" encoding="utf-8"?>
<!-- Generator: Adobe Illustrator 17.0.0, SVG Export Plug-In . SVG Version: 6.00 Build 0)  -->
<!DOCTYPE svg PUBLIC "-//W3C//DTD SVG 1.1 Basic//EN" "http://www.w3.org/Graphics/SVG/1.1/DTD/svg11-basic.dtd">
<svg version="1.1" baseProfile="basic" id="Слой_1"
	 xmlns="http://www.w3.org/2000/svg" xmlns:xlink="http://www.w3.org/1999/xlink" x="0px" y="0px" width="110.118px"
	 height="87.185px" viewBox="0 0 110.118 87.185" xml:space="preserve">
<path fill="#CE9538" d="M77.153,7.753c-2.387-0.284-4.873-0.52-7.47-0.697c-0.402-0.252-2.757-0.166-3.711-0.209
	c0.07-0.275,0.119-0.553,0.119-0.838C66.092,2.695,61.165,0,55.105,0c-6.069,0-10.983,2.695-10.983,6.009
	c0,0.437,0.089,0.862,0.251,1.272c-1.277,0.221-5.546,1.102-9.362,1.935C12.213,27.533,3.262,52.72,0,79.92
	c34.398,9.802,73.134,7.841,110.118,4.727c-3.966-8.269-8.337-16.484-13.128-24.698C88.397,43.545,79.822,25.708,77.153,7.753z"/>
</svg>
