<?xml version="1.0" encoding="utf-8"?>
<!-- Generator: Adobe Illustrator 17.0.0, SVG Export Plug-In . SVG Version: 6.00 Build 0)  -->
<!DOCTYPE svg PUBLIC "-//W3C//DTD SVG 1.1 Basic//EN" "http://www.w3.org/Graphics/SVG/1.1/DTD/svg11-basic.dtd">
<svg version="1.1" baseProfile="basic" id="Слой_1"
	 xmlns="http://www.w3.org/2000/svg" xmlns:xlink="http://www.w3.org/1999/xlink" x="0px" y="0px" width="303.375px"
	 height="238.25px" viewBox="0 0 303.375 238.25" xml:space="preserve">
<polygon fill="#A8A8A8" stroke="#272525" stroke-width="3" stroke-miterlimit="10" points="557.307,189.762 557.307,189.762 
	557.306,189.761 "/>
<polygon fill="#A8A8A8" stroke="#272525" stroke-width="3" stroke-miterlimit="10" points="574.656,169.188 574.656,169.188 
	574.655,169.187 "/>
<polygon fill="#A8A8A8" stroke="#272525" stroke-width="3" stroke-miterlimit="10" points="226.054,54.183 226.054,54.183 
	226.054,54.182 "/>
<path fill="#A8A8A8" stroke="#272525" stroke-width="3" stroke-miterlimit="10" d="M108.448,150.112
	c-29.019-4.972-31.089-13.68-31.089-13.68c0-0.107,0.012-0.26,0.03-0.432c-10.783,6.187-49.048,28.538-64.284,42.719
	c-1.168,1.109-18.245,15.334,17.408,19.903c0,0,30.267,1.242,44.363,12.438c0,0,48.917,30.253,90.373,13.262
	c0,0,42.946-20.511,83.986-60.405C157.555,170.561,108.448,150.112,108.448,150.112z"/>
<path fill="#A8A8A8" stroke="#272525" stroke-width="3" stroke-miterlimit="10" d="M81.976,112.919c0,0-4.553,18.999-4.946,22.82
	c-0.008,0.005-0.018,0.01-0.026,0.015c-0.001,0.027-0.004,0.06-0.004,0.083c0,0,2.07,8.708,31.089,13.68
	c0,0,7.753,3.225,22.834,6.698c-0.475-22.435-1.65-46.219,1.038-68.635C117.398,83.43,103.612,77.174,91.068,68
	C90.739,70.587,87.474,95.601,81.976,112.919z"/>
<path fill="#A8A8A8" stroke="#272525" stroke-width="3" stroke-miterlimit="10" d="M167.904,17c-2.858,0.624-5.462,1.22-6.36,1.492
	c-16.451,4.225-40.986,12.498-56.235,26.774c-1.053,0.339-1.896,1.171-2.282,2.254C97.462,53.34,93.448,60.09,92.03,67.891
	c0,0-0.011,0.09-0.03,0.234c12.544,9.174,26.33,15.43,40.893,19.58C136.155,60.505,145.106,35.318,167.904,17z"/>
<path fill="#A8A8A8" stroke="#272525" stroke-width="3" stroke-miterlimit="10" d="M131.706,88
	c-2.688,22.417-1.513,46.201-1.038,68.635c22.893,5.271,62.683,11.112,117.953,7.107v0.334c0.607-0.044,1.208-0.084,1.819-0.131
	c0,0,3.806-0.485,9.126-1.772c0.704-11.387,0.343-22.628-2.789-32.024c-4.07-12.718-9.059-25.132-14.954-37.423
	C204.84,95.841,166.104,97.802,131.706,88z"/>
<path fill="#A8A8A8" stroke="#272525" stroke-width="3" stroke-miterlimit="10" d="M209.153,15.753
	c-2.387-0.284-4.873-0.52-7.47-0.697c-0.402-0.252-2.757-0.166-3.711-0.209c0.07-0.275,0.119-0.553,0.119-0.838
	c0-3.314-4.927-6.009-10.987-6.009c-6.069,0-10.983,2.695-10.983,6.009c0,0.437,0.089,0.862,0.251,1.272
	c-1.277,0.221-5.546,1.102-9.362,1.935C144.213,35.533,135.262,60.72,132,87.92c34.398,9.802,73.134,7.841,110.118,4.727
	c-3.966-8.269-8.337-16.484-13.128-24.698C220.397,51.545,211.822,33.708,209.153,15.753z"/>
<path fill="#A8A8A8" stroke="#272525" stroke-width="3" stroke-miterlimit="10" d="M242,92.718
	c5.895,12.292,10.884,24.705,14.954,37.423c3.132,9.396,3.493,20.636,2.789,32.024c11.708-2.831,30.754-9.543,32.742-23.51
	c0,0,4.574-24.39-0.86-50.656c-3.038,0.652-6.096,1.092-9.142,1.295C269.449,90.226,255.847,91.552,242,92.718z"/>
<path fill="#A8A8A8" stroke="#272525" stroke-width="3" stroke-miterlimit="10" d="M258.049,36.437c0,0-12.338-16.072-49.049-20.437
	c2.669,17.955,11.244,35.793,19.836,52.196c4.791,8.214,9.163,16.429,13.128,24.698c13.847-1.166,27.449-2.493,40.483-3.424
	c3.046-0.203,6.103-0.643,9.142-1.295C287.625,69.013,278.332,48.852,258.049,36.437z"/>
</svg>
