<?xml version="1.0" encoding="utf-8"?>
<!-- Generator: Adobe Illustrator 17.0.0, SVG Export Plug-In . SVG Version: 6.00 Build 0)  -->
<!DOCTYPE svg PUBLIC "-//W3C//DTD SVG 1.1//EN" "http://www.w3.org/Graphics/SVG/1.1/DTD/svg11.dtd">
<svg version="1.1" id="Слой_1" xmlns="http://www.w3.org/2000/svg" xmlns:xlink="http://www.w3.org/1999/xlink" x="0px" y="0px"
	 width="303.375px" height="238.25px" viewBox="0 0 303.375 238.25" enable-background="new 0 0 303.375 238.25"
	 xml:space="preserve">
<path fill="#FFFFFF" stroke="#FFFFFF" stroke-width="6" stroke-miterlimit="10" d="M258.521,36.191
	c0-0.002-13.99-18.234-56.517-21.135c-0.403-0.253-0.65-0.402-0.676-0.417l-0.212,0.359c-0.927-0.058-1.87-0.107-2.823-0.15
	c0.07-0.275,0.119-0.553,0.119-0.838c0-3.314-4.927-6.009-10.987-6.009c-6.069,0-10.983,2.695-10.983,6.009
	c0,0.437,0.09,0.862,0.251,1.272c-2.234,0.387-6.987,1.276-13.161,2.786c0,0-1.328-0.048-2.562,0.641
	c-16.45,4.225-40.985,12.498-56.234,26.773c-1.053,0.339-1.898,1.172-2.283,2.255c-5.565,5.821-9.579,12.57-10.997,20.371
	c0,0-3.318,26.873-9.122,45.154c0,0-4.552,18.996-4.946,22.819c-10.783,6.187-49.048,28.538-64.284,42.719
	c-1.168,1.109-18.245,15.334,17.408,19.903c0,0,30.267,1.242,44.363,12.438c0,0,48.917,30.253,90.373,13.262
	c0,0,42.945-20.51,83.986-60.404c0.607-0.044,1.208-0.084,1.819-0.131c0,0,38.977-4.968,41.869-25.281
	C292.922,138.586,306.606,65.624,258.521,36.191z"/>
<polygon fill="#A8A8A8" stroke="#FFFFFF" stroke-width="3" stroke-miterlimit="10" points="153.939,201.584 153.939,201.584 
	153.938,201.583 "/>
<polygon fill="#A8A8A8" stroke="#272525" stroke-width="3" stroke-miterlimit="10" points="574.656,169.188 574.656,169.188 
	574.655,169.187 "/>
<g id="__x0023_Layer_x0020_1">
	<path fill="#4A8F11" d="M80.262,134.442c0,0-49.336,27.769-67.158,44.357c-1.168,1.109-18.245,15.334,17.408,19.903
		c0,0,30.267,1.242,44.363,12.438c0,0,48.917,30.253,90.373,13.262c0,0,46.013-21.973,88.298-64.674L80.262,134.442z"/>
	<path fill="#43AD28" d="M172.458,208.31c-42.269,21.661-85.132-4.691-85.558-4.96c-27.855-16.568-48.35-17.476-48.555-17.484
		c-13.262,0.348-26.344-5.583-26.475-5.64l-0.377,0.824c0.131,0.062,13.395,6.079,26.848,5.726
		c0.174,0.006,20.46,0.914,48.089,17.353c0.422,0.264,43.705,26.883,86.44,4.989c0.445-0.234,44.714-23.032,63.746-44.175
		l-0.676-0.603C217.023,185.357,172.901,208.082,172.458,208.31z"/>
	<path fill="#4A8F11" d="M198.411,14.009c0-3.314-4.927-6.009-10.987-6.009c-6.069,0-10.983,2.695-10.983,6.009
		c0,3.326,4.913,6.013,10.983,6.013C193.484,20.022,198.411,17.335,198.411,14.009z"/>
	<path fill="#E57E22" d="M178.098,15.048c0,0-79.182,12.022-86.642,53.059c0,0-3.318,26.873-9.122,45.154
		c0,0-4.976,20.763-4.976,23.252c0,0,2.07,8.708,31.089,13.68c0,0,49.752,20.725,142.606,13.674c0,0,38.977-4.968,41.869-25.281
		c0,0,13.684-72.962-34.401-102.395C258.521,36.189,239.444,11.316,178.098,15.048z"/>
	<g id="_538918600">
		<g>
			<path fill="none" d="M194.699,14.675c0,0,43.351,19.899,40.16,60.768c0,0-0.728,73.409,3.804,89.075L194.699,14.675z"/>
		</g>
		<g>
			<path fill="none" d="M178.098,15.048c0,0-50.744,19.612-56.253,43.339c0,0-4.617,17.767-2.492,42.642
				c0,0,1.787,17.765-7.101,31.269c0,0-4.677,9.131-4.677,17.384L178.098,15.048z"/>
		</g>
	</g>
	<g id="_538919392">
		<path fill="#FFAF59" d="M194.699,14.675c0.303,0.182,36.618,19.03,41.488,41.316c0.039,0.273,4.579,30.751,1.771,54.226
			c-0.008,0.312-0.316,27.047,3.564,53.783l0.9-0.135c-3.872-26.658-3.564-53.322-3.56-53.592
			c2.82-23.549-1.736-54.144-1.783-54.449c-4.962-22.7-40.683-40.985-40.992-41.166L194.699,14.675z"/>
		<path fill="#FFAF59" d="M141.128,38.109c-0.156,0.088-18.673,11.153-19.739,44.425c0.047,0.363,4.177,28.215-2.451,43.548
			c-0.295,0.576-7.491,14.754-7.858,25.039l0.908,0.037c0.359-10.09,7.696-24.543,7.77-24.686
			c6.743-15.603,2.578-43.706,2.537-43.992c1.049-32.651,19.138-43.499,19.319-43.607c27-18.579,39.402-23.949,39.558-23.99
			l-1.485,0.06C179.531,14.987,168.245,19.448,141.128,38.109z"/>
	</g>
</g>
</svg>
