<?xml version="1.0" encoding="utf-8"?>
<!-- Generator: Adobe Illustrator 17.0.0, SVG Export Plug-In . SVG Version: 6.00 Build 0)  -->
<!DOCTYPE svg PUBLIC "-//W3C//DTD SVG 1.1 Basic//EN" "http://www.w3.org/Graphics/SVG/1.1/DTD/svg11-basic.dtd">
<svg version="1.1" baseProfile="basic" id="Слой_1"
	 xmlns="http://www.w3.org/2000/svg" xmlns:xlink="http://www.w3.org/1999/xlink" x="0px" y="0px" width="303.375px"
	 height="238.25px" viewBox="0 0 303.375 238.25" xml:space="preserve">
<polygon fill="#A8A8A8" stroke="#272525" stroke-width="3" stroke-miterlimit="10" points="153.939,201.584 153.939,201.584 
	153.938,201.583 "/>
<polygon fill="#A8A8A8" stroke="#272525" stroke-width="3" stroke-miterlimit="10" points="557.307,189.762 557.307,189.762 
	557.306,189.761 "/>
<polygon fill="#A8A8A8" stroke="#272525" stroke-width="3" stroke-miterlimit="10" points="574.656,169.188 574.656,169.188 
	574.655,169.187 "/>
<path fill="#A8A8A8" stroke="#272525" stroke-width="3" stroke-miterlimit="10" d="M258.521,36.189c0,0-13.99-18.232-56.519-21.134
	c-0.832-0.15-2.757-0.166-3.711-0.209c0.07-0.275,0.119-0.553,0.119-0.838c0-3.314-4.927-6.009-10.987-6.009
	c-6.069,0-10.983,2.695-10.983,6.009c0,0.437,0.089,0.862,0.251,1.272c-2.233,0.387-13.836,2.845-15.722,3.426
	c-16.451,4.225-40.987,12.498-56.236,26.774c-1.053,0.339-1.896,1.171-2.281,2.254c-5.565,5.821-9.579,12.571-10.997,20.372
	c0,0-3.318,26.873-9.122,45.154c0,0-4.553,18.999-4.946,22.82c-10.783,6.187-49.048,28.538-64.284,42.719
	c-1.168,1.109-18.245,15.334,17.408,19.903c0,0,30.267,1.242,44.363,12.438c0,0,48.917,30.253,90.373,13.262
	c0,0,42.946-20.511,83.986-60.405c0.607-0.044,1.208-0.084,1.819-0.131c0,0,38.977-4.968,41.869-25.281
	C292.922,138.584,306.606,65.622,258.521,36.189z"/>
</svg>
