<?xml version="1.0" encoding="utf-8"?>
<!-- Generator: Adobe Illustrator 17.0.0, SVG Export Plug-In . SVG Version: 6.00 Build 0)  -->
<!DOCTYPE svg PUBLIC "-//W3C//DTD SVG 1.1 Basic//EN" "http://www.w3.org/Graphics/SVG/1.1/DTD/svg11-basic.dtd">
<svg version="1.1" baseProfile="basic" id="Слой_1"
	 xmlns="http://www.w3.org/2000/svg" xmlns:xlink="http://www.w3.org/1999/xlink" x="0px" y="0px" width="200.475px"
	 height="123.265px" viewBox="0 0 200.475 123.265" xml:space="preserve">
<path fill="#D36234" d="M141.535,1.821c-20.433,6.385-39.59,7.663-60.023,3.831C54.448,0.239,27.387-1.338,2.574,5.398
	c0.954,5.85,2.921,11.945,6.194,18.27c3.267,6.311,6.512,11.302,9.683,15.169c-2.831,1.867-5.272,3.797-7.358,5.769l-0.88,0.853
	c-22.848,22.822-0.222,50.743-0.222,50.743c31.77,39.707,66.788,30.007,69.858-7.462c6.889,1.758,14.107,2.697,21.544,2.697
	c7.404,0,14.59-0.932,21.452-2.675c1.581,38.336,36.346,49.079,67.895,9.771c0,0,21.996-27.053-0.137-49.228l-0.851-0.827
	c-2.613-2.478-5.788-4.891-9.631-7.19c1.644-3.518,3.075-7.156,4.242-10.912c1.479-2.352,2.967-4.949,4.46-7.833
	c3.25-6.278,5.221-12.333,6.184-18.143C177.216,2.423,159.698-2.72,141.535,1.821z"/>
</svg>
