<?xml version="1.0" encoding="utf-8"?>
<!-- Generator: Adobe Illustrator 17.0.0, SVG Export Plug-In . SVG Version: 6.00 Build 0)  -->
<!DOCTYPE svg PUBLIC "-//W3C//DTD SVG 1.1 Basic//EN" "http://www.w3.org/Graphics/SVG/1.1/DTD/svg11-basic.dtd">
<svg version="1.1" baseProfile="basic" id="Слой_1"
	 xmlns="http://www.w3.org/2000/svg" xmlns:xlink="http://www.w3.org/1999/xlink" x="0px" y="0px" width="193.823px"
	 height="126.033px" viewBox="0 0 193.823 126.033" xml:space="preserve">
<path fill="#3FA556" d="M169.808,65.618c11.908-12.863,20.105-29.203,22.917-47.325c-17.281-7.371-35.585-13.796-55.634-10.631
	c-21.711,5.108-39.59,17.879-61.3,10.217C57.912,12.771,42.587,0,23.43,0c-3.248,0-6.611,0.233-9.918,0.765
	c-0.047,1.198-0.08,2.401-0.08,3.611c0,20.747,7.023,39.844,18.797,55.082C15.771,72.841-3.938,95.286,0.684,123.623
	c24.813-6.736,51.874-5.158,78.938,0.254c20.433,3.831,39.59,2.554,60.023-3.831c18.163-4.541,35.681,0.602,53.471,2.577
	C197.052,98.868,183.876,79.245,169.808,65.618z"/>
</svg>
