<?xml version="1.0" encoding="utf-8"?>
<!-- Generator: Adobe Illustrator 17.0.0, SVG Export Plug-In . SVG Version: 6.00 Build 0)  -->
<!DOCTYPE svg PUBLIC "-//W3C//DTD SVG 1.1 Basic//EN" "http://www.w3.org/Graphics/SVG/1.1/DTD/svg11-basic.dtd">
<svg version="1.1" baseProfile="basic" id="Слой_1"
	 xmlns="http://www.w3.org/2000/svg" xmlns:xlink="http://www.w3.org/1999/xlink" x="0px" y="0px" width="240px" height="365px"
	 viewBox="0 0 240 365" xml:space="preserve">
<polygon fill="#A8A8A8" stroke="#272525" stroke-width="3" stroke-miterlimit="10" points="120.001,182.5 120.001,182.5 
	119.999,182.5 "/>
<path fill="#272525" stroke="#FFFFFF" stroke-width="6" stroke-miterlimit="10" d="M205.78,282.121l-0.851-0.828
	c-2.61-2.476-5.782-4.886-9.619-7.184c1.644-3.519,3.064-7.163,4.231-10.919c1.479-2.352,2.967-4.949,4.459-7.833
	c16.533-31.942,0.388-58.181-17.118-75.141c14.89-16.084,23.995-37.602,23.995-61.25c0-14.28-3.331-27.774-9.24-39.774
	c14.081-4.448,24.301-17.61,24.301-33.164c0-19.21-15.576-34.78-34.783-34.78c-15.976,0-29.4,10.787-33.478,25.467
	c-11.289-5.086-23.801-7.938-36.988-7.938c-13.474,0-26.24,2.974-37.721,8.269C79.862,21.021,65.77,8.916,48.836,8.916
	c-19.204,0-34.774,15.571-34.774,34.779c0,16.374,11.326,30.067,26.561,33.762C34.168,89.885,30.5,103.993,30.5,118.966
	c0,20.747,7.01,39.854,18.784,55.092c-19.854,16.149-44.466,45.471-25.339,82.426c3.267,6.312,6.513,11.302,9.683,15.17
	c-2.83,1.867-5.272,3.797-7.357,5.769l-0.88,0.854c-22.848,22.822-0.221,50.743-0.221,50.743
	c31.769,39.707,66.787,30.008,69.858-7.461c6.889,1.758,14.107,2.695,21.544,2.695c7.404,0,14.59-0.929,21.452-2.672
	c1.583,38.333,36.347,49.075,67.894,9.768C205.917,331.349,227.913,304.296,205.78,282.121z"/>
<g>
	
		<linearGradient id="SVGID_1_" gradientUnits="userSpaceOnUse" x1="596.408" y1="359.2402" x2="718.0374" y2="519.9576" gradientTransform="matrix(1 0 0 1 -561.92 -230.32)">
		<stop  offset="0" style="stop-color:#91171B"/>
		<stop  offset="1" style="stop-color:#C0542D"/>
	</linearGradient>
	<path fill="url(#SVGID_1_)" d="M203.439,237.385c0,47.973-38.888,86.868-86.868,86.868c-47.976,0-86.868-38.895-86.868-86.868
		c0-47.98,38.891-86.871,86.868-86.871C164.551,150.514,203.439,189.405,203.439,237.385z"/>
	
		<linearGradient id="SVGID_2_" gradientUnits="userSpaceOnUse" x1="529.2386" y1="333.4669" x2="773.9596" y2="561.3752" gradientTransform="matrix(1 0 0 1 -561.92 -230.32)">
		<stop  offset="0" style="stop-color:#91171B"/>
		<stop  offset="1" style="stop-color:#E8B597"/>
	</linearGradient>
	<path fill="url(#SVGID_2_)" d="M165.143,243.453c0,28.114-21.118,50.905-47.17,50.905c-26.049,0-47.17-22.79-47.17-50.905
		c0-28.118,21.121-50.908,47.17-50.908C144.025,192.545,165.143,215.335,165.143,243.453z"/>
	<g>
		<g>
			
				<linearGradient id="SVGID_3_" gradientUnits="userSpaceOnUse" x1="364.2476" y1="756.784" x2="303.8007" y2="699.0249" gradientTransform="matrix(0.926 -0.3776 0.3776 0.926 -534.8869 -244.848)">
				<stop  offset="0" style="stop-color:#91171B"/>
				<stop  offset="1" style="stop-color:#C0542D"/>
			</linearGradient>
			<path fill="url(#SVGID_3_)" d="M93.814,301.027c9.69,53.502-31.677,74.197-68.645,27.992c0,0-30.5-37.629,15.06-61.226l0,0
				C84.553,244.368,93.814,301.027,93.814,301.027z"/>
			
				<linearGradient id="SVGID_4_" gradientUnits="userSpaceOnUse" x1="566.1096" y1="557.7341" x2="606.9756" y2="590.9971" gradientTransform="matrix(0.9985 -0.0553 0.0553 0.9985 -559.6979 -227.2758)">
				<stop  offset="0" style="stop-color:#91171B"/>
				<stop  offset="1" style="stop-color:#660000"/>
			</linearGradient>
			<path fill="url(#SVGID_4_)" d="M80.479,313.469c5.318,29.327-17.357,40.669-37.622,15.344c0,0-16.713-20.625,8.256-33.564l0,0
				C75.406,282.414,80.479,313.469,80.479,313.469z"/>
			
				<linearGradient id="SVGID_5_" gradientUnits="userSpaceOnUse" x1="591.1423" y1="534.1768" x2="603.8399" y2="544.5121" gradientTransform="matrix(0.9985 -0.0553 0.0553 0.9985 -559.6979 -227.2758)">
				<stop  offset="0" style="stop-color:#91171B"/>
				<stop  offset="1" style="stop-color:#660000"/>
			</linearGradient>
			<path fill="url(#SVGID_5_)" d="M75.505,278.663c0.231,4.194-2.978,7.776-7.172,8.014c-4.19,0.231-7.78-2.981-8.008-7.172
				c-0.235-4.197,2.974-7.783,7.172-8.014C71.685,271.26,75.277,274.469,75.505,278.663z"/>
			
				<linearGradient id="SVGID_6_" gradientUnits="userSpaceOnUse" x1="547.9004" y1="560.3105" x2="560.6" y2="570.6476" gradientTransform="matrix(0.9985 -0.0553 0.0553 0.9985 -559.6979 -227.2758)">
				<stop  offset="0" style="stop-color:#91171B"/>
				<stop  offset="1" style="stop-color:#660000"/>
			</linearGradient>
			<path fill="url(#SVGID_6_)" d="M33.774,307.147c0.235,4.194-2.978,7.783-7.171,8.014c-4.191,0.231-7.78-2.978-8.014-7.172
				c-0.228-4.194,2.978-7.78,7.178-8.008C29.957,299.748,33.546,302.96,33.774,307.147z"/>
			
				<linearGradient id="SVGID_7_" gradientUnits="userSpaceOnUse" x1="572.6281" y1="535.0446" x2="587.3095" y2="546.9944" gradientTransform="matrix(0.9985 -0.0553 0.0553 0.9985 -559.6979 -227.2758)">
				<stop  offset="0" style="stop-color:#91171B"/>
				<stop  offset="1" style="stop-color:#660000"/>
			</linearGradient>
			<path fill="url(#SVGID_7_)" d="M59.473,281.373c0.268,4.848-3.44,8.992-8.289,9.263c-4.848,0.271-8.999-3.444-9.267-8.288
				c-0.268-4.848,3.447-8.999,8.292-9.263C55.061,272.813,59.205,276.525,59.473,281.373z"/>
			
				<linearGradient id="SVGID_8_" gradientUnits="userSpaceOnUse" x1="556.5431" y1="543.5511" x2="570.167" y2="554.6406" gradientTransform="matrix(0.9985 -0.0553 0.0553 0.9985 -559.6979 -227.2758)">
				<stop  offset="0" style="stop-color:#91171B"/>
				<stop  offset="1" style="stop-color:#660000"/>
			</linearGradient>
			<path fill="url(#SVGID_8_)" d="M42.602,290.319c0.248,4.498-3.199,8.348-7.694,8.593c-4.505,0.251-8.348-3.189-8.599-7.691
				c-0.248-4.498,3.196-8.345,7.697-8.596C38.507,282.377,42.347,285.821,42.602,290.319z"/>
			<polygon fill="#EEEEEF" points="69.252,268.193 67.044,261.24 65.243,268.305 			"/>
			<polygon fill="#EEEEEF" points="49.231,269.673 45.735,263.272 45.322,270.553 			"/>
			<polygon fill="#EEEEEF" points="30.159,280.95 24.756,276.048 26.755,283.068 			"/>
			<polygon fill="#EEEEEF" points="22.944,298.584 17.29,293.991 19.666,300.884 			"/>
		</g>
	</g>
	<g>
		<g>
			
				<linearGradient id="SVGID_9_" gradientUnits="userSpaceOnUse" x1="792.3527" y1="524.7017" x2="712.4522" y2="435.58" gradientTransform="matrix(0.9984 0.0569 -0.0569 0.9984 -562.9552 -226.881)">
				<stop  offset="0" style="stop-color:#91171B"/>
				<stop  offset="1" style="stop-color:#C0542D"/>
			</linearGradient>
			<path fill="url(#SVGID_9_)" d="M139.374,304.087c-9.488,51.886,30.616,72.026,66.543,27.262c0,0,29.648-36.456-14.512-59.418l0,0
				C148.439,249.141,139.374,304.087,139.374,304.087z"/>
			
				<linearGradient id="SVGID_10_" gradientUnits="userSpaceOnUse" x1="-769.5293" y1="484.9486" x2="-729.8861" y2="517.2162" gradientTransform="matrix(-0.9984 -0.0569 -0.0569 0.9984 -545.6363 -226.4115)">
				<stop  offset="0" style="stop-color:#91171B"/>
				<stop  offset="1" style="stop-color:#660000"/>
			</linearGradient>
			<path fill="url(#SVGID_10_)" d="M152.286,316.179c-5.198,28.441,16.779,39.48,36.476,14.941c0,0,16.25-19.981-7.958-32.566l0,0
				C157.258,286.062,152.286,316.179,152.286,316.179z"/>
			
				<linearGradient id="SVGID_11_" gradientUnits="userSpaceOnUse" x1="-745.2438" y1="462.0933" x2="-732.9232" y2="472.1217" gradientTransform="matrix(-0.9984 -0.0569 -0.0569 0.9984 -545.6363 -226.4115)">
				<stop  offset="0" style="stop-color:#91171B"/>
				<stop  offset="1" style="stop-color:#660000"/>
			</linearGradient>
			<path fill="url(#SVGID_11_)" d="M157.165,282.42c-0.231,4.068,2.878,7.555,6.943,7.783c4.068,0.235,7.555-2.879,7.783-6.944
				c0.235-4.068-2.875-7.555-6.943-7.786C160.883,275.245,157.396,278.352,157.165,282.42z"/>
			
				<linearGradient id="SVGID_12_" gradientUnits="userSpaceOnUse" x1="-787.192" y1="487.4467" x2="-774.8727" y2="497.4739" gradientTransform="matrix(-0.9984 -0.0569 -0.0569 0.9984 -545.6363 -226.4115)">
				<stop  offset="0" style="stop-color:#91171B"/>
				<stop  offset="1" style="stop-color:#660000"/>
			</linearGradient>
			<path fill="url(#SVGID_12_)" d="M197.607,310.121c-0.235,4.065,2.878,7.551,6.943,7.78c4.065,0.231,7.552-2.875,7.783-6.94
				c0.231-4.068-2.875-7.555-6.943-7.786C201.32,302.943,197.84,306.05,197.607,310.121z"/>
			
				<linearGradient id="SVGID_13_" gradientUnits="userSpaceOnUse" x1="-763.2063" y1="462.9341" x2="-748.959" y2="474.5308" gradientTransform="matrix(-0.9984 -0.0569 -0.0569 0.9984 -545.6363 -226.4115)">
				<stop  offset="0" style="stop-color:#91171B"/>
				<stop  offset="1" style="stop-color:#660000"/>
			</linearGradient>
			<path fill="url(#SVGID_13_)" d="M172.715,285.074c-0.271,4.709,3.325,8.731,8.028,9.003c4.703,0.261,8.735-3.328,8.999-8.034
				c0.271-4.703-3.325-8.731-8.027-8.996C177.01,276.779,172.979,280.371,172.715,285.074z"/>
			
				<linearGradient id="SVGID_14_" gradientUnits="userSpaceOnUse" x1="-778.8088" y1="471.1888" x2="-765.5919" y2="481.9467" gradientTransform="matrix(-0.9984 -0.0569 -0.0569 0.9984 -545.6363 -226.4115)">
				<stop  offset="0" style="stop-color:#91171B"/>
				<stop  offset="1" style="stop-color:#660000"/>
			</linearGradient>
			<path fill="url(#SVGID_14_)" d="M189.07,293.776c-0.251,4.366,3.087,8.107,7.452,8.355c4.366,0.244,8.104-3.084,8.348-7.453
				c0.251-4.362-3.087-8.097-7.452-8.348C193.059,286.079,189.32,289.413,189.07,293.776z"/>
			<polygon fill="#EEEEEF" points="163.253,272.271 165.398,265.532 167.135,272.387 			"/>
			<polygon fill="#EEEEEF" points="182.671,273.738 186.068,267.532 186.462,274.598 			"/>
			<polygon fill="#EEEEEF" points="201.156,284.711 206.396,279.965 204.454,286.766 			"/>
			<polygon fill="#EEEEEF" points="208.122,301.826 213.622,297.381 211.305,304.064 			"/>
		</g>
	</g>
	<g>
		
			<linearGradient id="SVGID_15_" gradientUnits="userSpaceOnUse" x1="720.3228" y1="93.1457" x2="800.9424" y2="199.674" gradientTransform="matrix(0.919 0.3942 -0.3942 0.919 -597.067 -232.5578)">
			<stop  offset="0" style="stop-color:#91171B"/>
			<stop  offset="1" style="stop-color:#C0542D"/>
		</linearGradient>
		<path fill="url(#SVGID_15_)" d="M69.658,160.29c0,0-75.344,38.944-45.713,96.194c29.635,57.25,57.508,6.107,43.36-11.094
			c-14.148-17.205-26.049-53.486,4.412-76.051"/>
		<g>
			<polygon fill="#EEEEEF" points="68.475,265.523 70.339,268.011 67.233,268.629 			"/>
			<polygon fill="#EEEEEF" points="65.918,271.709 67.388,274.446 64.222,274.594 			"/>
			<polygon fill="#EEEEEF" points="61.595,276.819 62.153,279.876 59.096,279.046 			"/>
			<polygon fill="#EEEEEF" points="57.51,280.533 56.796,283.557 54.327,281.568 			"/>
		</g>
	</g>
	<g>
		
			<linearGradient id="SVGID_16_" gradientUnits="userSpaceOnUse" x1="785.6359" y1="525.6063" x2="700.3584" y2="404.17" gradientTransform="matrix(1 0 0 1 -561.92 -230.32)">
			<stop  offset="0" style="stop-color:#91171B"/>
			<stop  offset="1" style="stop-color:#C0542D"/>
		</linearGradient>
		<path fill="url(#SVGID_16_)" d="M158.285,159.16c0,0,75.35,38.944,45.716,96.197c-29.634,57.256-57.508,6.107-43.36-11.094
			c14.145-17.208,26.049-53.492-4.415-76.055"/>
		<g>
			<polygon fill="#EEEEEF" points="164.514,274.37 161.415,274.571 162.598,271.63 			"/>
			<polygon fill="#EEEEEF" points="160.738,268.844 157.641,268.58 159.247,265.85 			"/>
			<polygon fill="#EEEEEF" points="158.824,262.429 155.958,261.226 158.324,259.121 			"/>
			<polygon fill="#EEEEEF" points="157.945,256.983 155.807,254.729 158.816,253.751 			"/>
		</g>
	</g>
	<g>
		<g>
			
				<linearGradient id="SVGID_17_" gradientUnits="userSpaceOnUse" x1="575.982" y1="339.3555" x2="787.859" y2="339.3555" gradientTransform="matrix(1 0 0 1 -561.92 -230.32)">
				<stop  offset="0" style="stop-color:#91171B"/>
				<stop  offset="1" style="stop-color:#C0542D"/>
			</linearGradient>
			<path fill="url(#SVGID_17_)" d="M225.939,46.028c0-19.21-15.576-34.78-34.783-34.78c-15.976,0-29.4,10.787-33.478,25.467
				c-11.289-5.086-23.801-7.938-36.988-7.938c-13.474,0-26.24,2.974-37.721,8.269C79.862,21.021,65.77,8.916,48.836,8.916
				c-19.204,0-34.774,15.571-34.774,34.779c0,16.374,11.326,30.067,26.561,33.762C34.168,89.885,30.5,103.993,30.5,118.966
				c0,49.811,40.379,90.189,90.189,90.189c49.811,0,90.189-40.378,90.189-90.189c0-14.28-3.331-27.774-9.24-39.774
				C215.719,74.744,225.939,61.582,225.939,46.028z"/>
			
				<linearGradient id="SVGID_18_" gradientUnits="userSpaceOnUse" x1="-543.0995" y1="-721.5278" x2="-510.4352" y2="-678.366" gradientTransform="matrix(-0.9696 0.2448 -0.2448 -0.9696 -625.5416 -497.7473)">
				<stop  offset="0" style="stop-color:#91171B"/>
				<stop  offset="1" style="stop-color:#C0542D"/>
			</linearGradient>
			<path fill="url(#SVGID_18_)" d="M26.55,51.759c-3.153-12.489,4.419-25.177,16.911-28.331s25.18,4.417,28.333,16.908
				c3.153,12.492-4.415,25.179-16.911,28.334C42.394,71.824,29.706,64.253,26.55,51.759z"/>
			
				<linearGradient id="SVGID_19_" gradientUnits="userSpaceOnUse" x1="-520.7911" y1="-825.6094" x2="-488.1243" y2="-782.4444" gradientTransform="matrix(-0.9287 0.3708 -0.3708 -0.9287 -570.28 -505.2217)">
				<stop  offset="0" style="stop-color:#91171B"/>
				<stop  offset="1" style="stop-color:#C0542D"/>
			</linearGradient>
			<path fill="url(#SVGID_19_)" d="M166.574,58.185c-4.779-11.967,1.048-25.543,13.014-30.32
				c11.964-4.777,25.543,1.053,30.319,13.018c4.779,11.964-1.051,25.542-13.014,30.317C184.923,75.978,171.35,70.15,166.574,58.185z
				"/>
		</g>
		<path fill="#E7AF74" d="M62.708,143.667c0,6.705-5.436,12.142-12.142,12.142c-6.709,0-12.142-5.437-12.142-12.142
			c0-6.707,5.433-12.144,12.142-12.144C57.272,131.523,62.708,136.959,62.708,143.667z"/>
		<path fill="#E7AF74" d="M202.508,144.599c0,7.224-5.856,13.077-13.08,13.077c-7.221,0-13.074-5.853-13.074-13.077
			c0-7.221,5.853-13.076,13.074-13.076C196.65,131.523,202.508,137.377,202.508,144.599z"/>
		<g>
			<path fill="#D4AF94" d="M169.816,151.446c0,23.735-22.585,42.97-50.442,42.97s-50.439-19.234-50.439-42.97
				c0-23.729,22.582-21.948,50.439-21.948S169.816,127.717,169.816,151.446z"/>
			<g>
				<path fill="#272525" d="M178.766,132.146c0,6.533-5.298,11.831-11.831,11.831c-6.537,0-11.831-5.298-11.831-11.831
					c0-6.535,5.294-11.833,11.831-11.833C173.467,120.313,178.766,125.61,178.766,132.146z"/>
				<path fill="#FFFFFF" d="M167.555,129.031c0,3.095-2.512,5.605-5.602,5.605c-3.1,0-5.608-2.51-5.608-5.605
					s2.508-5.603,5.608-5.603C165.044,123.428,167.555,125.936,167.555,129.031z"/>
			</g>
			<g>
				<circle fill="#272525" cx="71.268" cy="132.146" r="11.831"/>
				<circle fill="#FFFFFF" cx="66.286" cy="129.031" r="5.603"/>
			</g>
			
				<linearGradient id="SVGID_20_" gradientUnits="userSpaceOnUse" x1="681.9175" y1="379.9008" x2="681.9175" y2="409.2705" gradientTransform="matrix(1 0 0 1 -561.92 -230.32)">
				<stop  offset="0" style="stop-color:#91171B"/>
				<stop  offset="1" style="stop-color:#CC3129"/>
			</linearGradient>
			<path fill="url(#SVGID_20_)" d="M131.579,158.766c-4.7,0-8.712-2.746-10.648-6.696h-1.864c-1.936,3.949-5.949,6.696-10.648,6.696
				c-4.125,0-7.757-2.092-9.898-5.275c0,0.043-0.007,0.089-0.007,0.135c0,11.865,9.617,21.482,21.482,21.482
				c11.868,0,21.485-9.617,21.485-21.482c0-0.046-0.007-0.086-0.007-0.132C139.331,156.674,135.699,158.766,131.579,158.766z"/>
			<path fill="#272525" d="M132.021,142.599c0,5.218-7.353,10.295-12.261,10.169c-4.785-0.112-12.023-4.951-12.023-10.169l0,0
				c0-5.215,4.23-9.443,9.445-9.443h5.394C127.791,133.155,132.021,137.384,132.021,142.599L132.021,142.599z"/>
		</g>
	</g>
</g>
</svg>
