<?xml version="1.0" encoding="utf-8"?>
<!-- Generator: Adobe Illustrator 17.0.0, SVG Export Plug-In . SVG Version: 6.00 Build 0)  -->
<!DOCTYPE svg PUBLIC "-//W3C//DTD SVG 1.1 Basic//EN" "http://www.w3.org/Graphics/SVG/1.1/DTD/svg11-basic.dtd">
<svg version="1.1" baseProfile="basic" id="Слой_1"
	 xmlns="http://www.w3.org/2000/svg" xmlns:xlink="http://www.w3.org/1999/xlink" x="0px" y="0px" width="195.114px"
	 height="176.598px" viewBox="0 0 195.114 176.598" xml:space="preserve">
<path fill="#87BB50" d="M187.021,123.918c12.642-2.345,9.009-20.057-0.872-40.617c-0.003-0.006-0.006-0.013-0.009-0.019
	c-0.236-0.491-0.476-0.983-0.719-1.477c-0.035-0.071-0.069-0.141-0.104-0.212c-0.227-0.461-0.458-0.923-0.691-1.386
	c-0.051-0.101-0.102-0.203-0.153-0.304c-0.225-0.444-0.452-0.89-0.682-1.336c-0.063-0.122-0.125-0.243-0.188-0.365
	c-0.223-0.431-0.448-0.863-0.676-1.296c-0.073-0.139-0.146-0.277-0.219-0.416c-0.223-0.421-0.447-0.842-0.674-1.264
	c-0.081-0.151-0.163-0.302-0.244-0.453c-0.224-0.415-0.449-0.83-0.677-1.246c-0.085-0.155-0.171-0.31-0.256-0.465
	c-0.227-0.412-0.455-0.825-0.685-1.238c-0.088-0.157-0.177-0.315-0.265-0.472c-0.234-0.417-0.468-0.833-0.705-1.25
	c-0.077-0.136-0.156-0.273-0.234-0.409c-0.249-0.436-0.499-0.872-0.751-1.309c-0.052-0.09-0.105-0.179-0.157-0.269
	c-0.899-1.549-1.818-3.096-2.754-4.638c-0.029-0.047-0.057-0.094-0.085-0.141c-0.228-0.376-0.459-0.75-0.689-1.125
	c-0.125-0.204-0.25-0.409-0.376-0.613c-0.205-0.332-0.412-0.663-0.618-0.995c-0.152-0.245-0.304-0.49-0.458-0.734
	c-0.195-0.311-0.392-0.622-0.588-0.932c-0.166-0.263-0.332-0.526-0.5-0.789c-0.19-0.299-0.381-0.597-0.573-0.895
	c-0.175-0.272-0.349-0.544-0.525-0.816c-0.189-0.292-0.378-0.584-0.568-0.875c-0.178-0.273-0.356-0.546-0.535-0.819
	c-0.187-0.286-0.375-0.571-0.563-0.856c-0.186-0.282-0.373-0.563-0.559-0.844c-0.181-0.272-0.362-0.544-0.544-0.815
	c-0.193-0.288-0.386-0.575-0.579-0.861c-0.18-0.266-0.359-0.532-0.539-0.797c-0.197-0.29-0.395-0.579-0.592-0.868
	c-0.175-0.256-0.35-0.512-0.525-0.766c-0.209-0.303-0.418-0.605-0.627-0.906c-0.166-0.239-0.331-0.478-0.497-0.715
	c-0.217-0.311-0.435-0.619-0.652-0.928c-0.159-0.226-0.318-0.453-0.478-0.678c-0.241-0.339-0.481-0.676-0.722-1.012
	c-0.135-0.189-0.27-0.38-0.406-0.568c-0.376-0.523-0.751-1.042-1.127-1.557C136.452,8.371,89.684,0,89.684,0
	s-0.321,2.389-0.536,6.472c-0.001,0.017-0.002,0.033-0.003,0.05c0,0,0,0,0,0c-0.628,12.03-0.315,38.691,11.78,62.709
	c-0.054-0.024-0.107-0.047-0.161-0.072c-0.679-0.304-1.356-0.604-2.03-0.9c-0.935-0.411-1.874-0.8-2.815-1.178
	c-0.244-0.098-0.489-0.195-0.734-0.291c-0.85-0.334-1.701-0.658-2.555-0.967c-0.097-0.035-0.194-0.073-0.291-0.108
	c-0.94-0.337-1.882-0.656-2.825-0.963c-0.24-0.078-0.48-0.154-0.72-0.23c-0.81-0.258-1.621-0.506-2.432-0.742
	c-0.156-0.046-0.313-0.094-0.469-0.139c-0.942-0.27-1.885-0.525-2.828-0.767c-0.227-0.058-0.454-0.114-0.68-0.171
	c-0.791-0.198-1.581-0.388-2.371-0.567c-0.195-0.044-0.39-0.091-0.585-0.134c-0.941-0.209-1.881-0.405-2.82-0.589
	c-0.203-0.04-0.406-0.077-0.609-0.115c-0.789-0.15-1.577-0.292-2.364-0.425c-0.216-0.036-0.431-0.075-0.647-0.11
	c-0.937-0.153-1.872-0.296-2.806-0.427c-0.168-0.024-0.335-0.044-0.503-0.067c-0.8-0.109-1.598-0.209-2.395-0.301
	c-0.228-0.026-0.455-0.054-0.682-0.079c-0.931-0.103-1.859-0.198-2.784-0.28c-0.11-0.01-0.22-0.017-0.33-0.027
	c-0.831-0.072-1.66-0.135-2.485-0.191c-0.232-0.016-0.464-0.031-0.696-0.046c-0.921-0.058-1.838-0.109-2.75-0.148
	c-0.019-0.001-0.038-0.001-0.057-0.002c-0.898-0.038-1.79-0.064-2.678-0.085c-0.225-0.005-0.449-0.01-0.673-0.014
	c-0.844-0.016-1.684-0.026-2.518-0.027c-0.061,0-0.122-0.001-0.183-0.001c-0.892,0-1.776,0.01-2.656,0.026
	c-0.214,0.004-0.427,0.009-0.641,0.013c-0.772,0.017-1.539,0.039-2.301,0.067c-0.115,0.004-0.231,0.007-0.345,0.012
	c-0.863,0.034-1.717,0.075-2.565,0.122c-0.194,0.011-0.386,0.023-0.578,0.034c-0.723,0.043-1.442,0.09-2.154,0.142
	c-0.145,0.011-0.292,0.02-0.436,0.031c-0.83,0.063-1.651,0.131-2.465,0.204c-0.163,0.015-0.325,0.031-0.488,0.046
	c-0.694,0.065-1.382,0.133-2.063,0.205C34.6,59.984,34.443,60,34.288,60.017c-0.795,0.086-1.582,0.177-2.358,0.273
	c-0.123,0.015-0.244,0.031-0.366,0.046c-0.677,0.085-1.345,0.172-2.007,0.263c-0.158,0.022-0.317,0.043-0.474,0.065
	c-0.756,0.106-1.504,0.214-2.238,0.327c-0.068,0.01-0.134,0.021-0.202,0.032c-0.675,0.104-1.34,0.211-1.996,0.32
	c-0.149,0.025-0.298,0.049-0.446,0.074c-1.428,0.241-2.808,0.491-4.136,0.748c-0.129,0.025-0.258,0.05-0.386,0.075
	c-1.328,0.26-2.602,0.524-3.819,0.79c-0.106,0.023-0.21,0.046-0.315,0.069c-0.589,0.13-1.167,0.26-1.728,0.39
	c-0.01,0.002-0.02,0.005-0.03,0.007c-0.591,0.137-1.163,0.273-1.722,0.409c-0.077,0.019-0.152,0.037-0.228,0.056
	c-0.515,0.126-1.017,0.251-1.503,0.374c-0.021,0.005-0.044,0.011-0.065,0.016c0.001,0,0.001,0,0.002,0
	C3.812,65.994,0,67.383,0,67.383s13.965,33.685,43.349,57.339c-20.682,8.113-34.816,20.962-34.816,20.962
	s29.687,29.924,67.223,30.88c32.599,0.83,53.258-13.608,64.325-23.372c14.947,0.825,26.907-2.335,33.963-4.419
	c12.385-3.658,11.324-11.967,3.447-21.663c-0.076-0.965-0.282-1.956-0.595-2.967c-0.022-0.071-0.041-0.141-0.064-0.211
	c-0.065-0.2-0.136-0.401-0.21-0.602c1.188,0.202,2.306,0.379,3.33,0.535c2.296,0.348,4.29,0.402,6.022,0.208c0,0,0,0.001,0,0.001
	c0.007-0.001,0.014-0.002,0.021-0.003c0.344-0.039,0.678-0.088,1.001-0.147C187.005,123.921,187.013,123.92,187.021,123.918z"/>
</svg>
