<?xml version="1.0" encoding="utf-8"?>
<!-- Generator: Adobe Illustrator 17.0.0, SVG Export Plug-In . SVG Version: 6.00 Build 0)  -->
<!DOCTYPE svg PUBLIC "-//W3C//DTD SVG 1.1 Basic//EN" "http://www.w3.org/Graphics/SVG/1.1/DTD/svg11-basic.dtd">
<svg version="1.1" baseProfile="basic" id="Слой_1"
	 xmlns="http://www.w3.org/2000/svg" xmlns:xlink="http://www.w3.org/1999/xlink" x="0px" y="0px" width="135.821px"
	 height="186.233px" viewBox="0 0 135.821 186.233" xml:space="preserve">
<path fill="#42BCAA" d="M111,0c0,0,0.631,0.925,1.664,2.7c0.518,0.887,1.152,1.984,1.833,3.286c0.713,1.299,1.474,2.802,2.292,4.495
	c0.855,1.689,1.684,3.578,2.603,5.639c0.922,2.061,1.856,4.304,2.783,6.716c1.872,4.822,3.783,10.315,5.534,16.387
	c3.499,12.148,6.5,26.582,7.633,42.577c0.567,7.999,0.687,16.387,0.054,25.108c-0.658,8.731-1.921,17.771-4.682,27.242l-1.153,3.576
	l-0.588,1.783l-0.708,1.831c-0.477,1.218-0.947,2.439-1.455,3.641c-0.548,1.226-1.182,2.48-1.781,3.71l-0.918,1.845
	c-0.302,0.611-0.716,1.262-1.073,1.887c-0.741,1.263-1.52,2.5-2.294,3.732l-0.678,1.015l-0.057,0.074l-0.114,0.148l-0.228,0.295
	l-0.456,0.59l-0.912,1.179l-0.455,0.589c-0.177,0.224-0.231,0.314-0.57,0.713c-0.558,0.669-1.138,1.321-1.716,1.971l-1.757,1.922
	c-0.589,0.63-1.209,1.297-1.715,1.726c-1.067,0.97-2.139,1.927-3.217,2.866c-1.079,0.952-2.225,1.701-3.337,2.541
	c-1.121,0.814-2.236,1.64-3.38,2.311c-1.133,0.712-2.285,1.382-3.425,2.052c-1.146,0.621-2.295,1.179-3.436,1.755l-1.71,0.846
	c-0.57,0.257-1.144,0.479-1.714,0.717c-1.14,0.46-2.276,0.918-3.407,1.374c-9.049,3.269-17.658,4.681-25.574,5.201
	c-7.921,0.475-15.186,0.025-21.744-0.85c-6.557-0.884-12.408-2.217-17.496-3.687c-1.273-0.355-2.496-0.74-3.672-1.127
	c-1.176-0.364-2.303-0.769-3.38-1.168c-2.155-0.788-4.114-1.517-5.865-2.298c-1.753-0.74-3.3-1.444-4.634-2.118
	c-1.336-0.639-2.457-1.247-3.359-1.749C0.927,172.047,0,171.415,0,171.415s1.044-0.338,3.003-0.972
	c0.97-0.31,2.16-0.691,3.546-1.109c0.691-0.216,1.433-0.449,2.225-0.697c0.785-0.236,1.619-0.487,2.5-0.753
	c3.443-1.052,7.625-2.329,12.421-3.794c4.701-1.447,9.902-3.072,15.357-4.918c5.449-1.849,11.166-3.912,16.757-6.298
	c5.567-2.404,11.003-5.154,15.637-8.21c0.549-0.394,1.1-0.79,1.653-1.188l0.825-0.582l0.755-0.609
	c0.498-0.406,1.024-0.791,1.506-1.195c0.444-0.425,0.881-0.852,1.343-1.243c0.489-0.38,0.852-0.819,1.244-1.234
	c0.368-0.426,0.841-0.795,1.14-1.239c0.332-0.421,0.674-0.828,1.023-1.225c0.23-0.229,0.232-0.329,0.289-0.444
	c0.054-0.114,0.113-0.221,0.179-0.32c0.068-0.098,0.135-0.195,0.224-0.276c0.002,0.037,0.206-0.299,0.323-0.474l0.404-0.625
	l0.81-1.252l0.405-0.627l0.203-0.313l0.101-0.157l0.051-0.078c-1.2,1.783-0.321,0.468-0.584,0.854
	c0.216-0.495,0.428-0.988,0.679-1.457c0.121-0.25,0.262-0.436,0.376-0.733l0.352-0.871c0.235-0.589,0.495-1.129,0.732-1.745
	c0.212-0.668,0.463-1.318,0.706-1.973l0.373-0.979l0.325-1.086c0.221-0.723,0.434-1.448,0.673-2.165
	c1.779-5.951,3.212-12.811,4.482-19.766c1.258-6.982,2.382-14.141,3.463-21.194c2.147-14.12,4.134-27.819,6.272-39.725
	c1.061-5.958,2.111-11.479,3.145-16.412c0.517-2.466,1.007-4.784,1.526-6.94c0.5-2.154,0.933-4.137,1.406-5.941
	c0.223-0.902,0.434-1.756,0.632-2.559c0.216-0.808,0.419-1.565,0.607-2.269c0.364-1.41,0.713-2.617,0.997-3.598
	C110.646,1.064,111,0,111,0z"/>
</svg>
