<?xml version="1.0" encoding="utf-8"?>
<!-- Generator: Adobe Illustrator 17.0.0, SVG Export Plug-In . SVG Version: 6.00 Build 0)  -->
<!DOCTYPE svg PUBLIC "-//W3C//DTD SVG 1.1 Basic//EN" "http://www.w3.org/Graphics/SVG/1.1/DTD/svg11-basic.dtd">
<svg version="1.1" baseProfile="basic" id="Слой_1"
	 xmlns="http://www.w3.org/2000/svg" xmlns:xlink="http://www.w3.org/1999/xlink" x="0px" y="0px" width="285px" height="250px"
	 viewBox="0 0 285 250" xml:space="preserve">
<path fill="#EB7272" d="M1602.97,686.224c0.358-0.247,0.715-0.495,1.073-0.742c0.084,0.127,0.169,0.254,0.253,0.381
	c-0.434,0.129-0.868,0.259-1.302,0.388C1602.994,686.25,1602.97,686.224,1602.97,686.224z"/>
<path fill="#EB7272" d="M1570.006,1049.175c0.243,0.36,0.489,0.718,0.714,1.089c0.004,0.007-0.235,0.163-0.361,0.249
	c-0.133-0.432-0.267-0.865-0.401-1.297C1569.957,1049.216,1570.006,1049.175,1570.006,1049.175z"/>
<path fill="none" stroke="#FCFCFC" stroke-width="6" stroke-miterlimit="10" d="M265.745,97.77
	c-6.787-18.163-19.197-24.765-34.424-24.142c0.033-0.474,0.078-0.949,0.135-1.424c0.83-6.87,4.089-13.064,9.226-17.626
	c0.45-0.096,0.895-0.267,1.312-0.527c1.829-1.136,2.447-3.448,1.381-5.164c-1.067-1.718-3.413-2.189-5.242-1.053
	c-0.777,0.483-1.333,1.179-1.636,1.95c-6.326,5.598-10.338,13.21-11.359,21.657c-0.115,0.948-0.18,1.894-0.217,2.838
	c-2.867,0.453-5.809,1.113-8.818,1.97c-1.389,0.396-2.807,0.88-4.237,1.443c-0.084-1.613-0.037-3.244,0.161-4.88
	c0.82-6.796,4.02-12.928,9.061-17.476c0.409-0.1,0.811-0.263,1.191-0.499c1.829-1.136,2.447-3.448,1.381-5.164
	c-1.068-1.718-3.414-2.189-5.243-1.053c-0.819,0.509-1.393,1.254-1.683,2.076c-6.132,5.569-10.024,13.057-11.025,21.353
	c-0.346,2.864-0.335,5.717,0.017,8.508c-3.998,2.153-7.898,4.824-11.33,7.821c-0.053-0.104-0.107-0.207-0.16-0.311
	c-0.058-0.113-0.116-0.225-0.174-0.338c-0.227-0.44-0.457-0.88-0.689-1.321c-0.068-0.129-0.136-0.259-0.205-0.388
	c-0.228-0.432-0.459-0.864-0.691-1.297c-0.072-0.135-0.145-0.27-0.218-0.405c-0.233-0.432-0.468-0.864-0.705-1.297
	c-0.072-0.132-0.146-0.265-0.219-0.397c-0.24-0.436-0.481-0.872-0.725-1.309c-0.071-0.126-0.142-0.253-0.213-0.379
	c-0.25-0.446-0.501-0.892-0.755-1.338c-0.056-0.098-0.112-0.195-0.168-0.293c-0.27-0.474-0.542-0.947-0.816-1.421
	c-0.02-0.035-0.041-0.071-0.062-0.106c-0.95-1.638-1.921-3.275-2.912-4.906c-0.003-0.005-0.006-0.009-0.008-0.014
	c-0.248-0.407-0.497-0.814-0.747-1.22c-0.104-0.17-0.208-0.34-0.313-0.509c-0.22-0.356-0.441-0.71-0.662-1.065
	c-0.138-0.222-0.276-0.444-0.415-0.665c-0.207-0.331-0.416-0.66-0.624-0.99c-0.154-0.243-0.307-0.487-0.462-0.729
	c-0.2-0.314-0.401-0.628-0.602-0.941c-0.165-0.257-0.33-0.514-0.496-0.771c-0.194-0.3-0.388-0.598-0.582-0.897
	c-0.177-0.272-0.354-0.543-0.531-0.814c-0.187-0.285-0.374-0.569-0.562-0.853c-0.185-0.281-0.371-0.561-0.557-0.841
	c-0.182-0.273-0.363-0.546-0.546-0.818c-0.196-0.293-0.392-0.584-0.589-0.875c-0.173-0.257-0.346-0.513-0.52-0.768
	c-0.21-0.308-0.419-0.615-0.629-0.922c-0.162-0.236-0.324-0.473-0.486-0.708c-0.225-0.327-0.451-0.652-0.677-0.977
	c-0.149-0.214-0.298-0.43-0.447-0.643c-0.242-0.347-0.484-0.691-0.727-1.034c-0.135-0.191-0.269-0.383-0.404-0.573
	c-0.281-0.397-0.562-0.79-0.843-1.182c-0.095-0.132-0.189-0.266-0.284-0.398c-0.38-0.529-0.76-1.054-1.139-1.575
	c-9.637-13.223-22.537-22.582-34.738-29.092c-0.453-0.242-0.904-0.479-1.355-0.712c-0.213-0.11-0.426-0.222-0.638-0.33
	c-18.559-9.502-34.968-12.44-34.968-12.44s-4.99,37.001,11.242,69.231c-0.054-0.024-0.107-0.048-0.161-0.072
	c-0.679-0.304-1.355-0.604-2.029-0.9c-0.936-0.411-1.875-0.8-2.816-1.179c-0.243-0.098-0.487-0.194-0.731-0.29
	c-0.851-0.335-1.704-0.659-2.558-0.969c-0.096-0.035-0.192-0.072-0.289-0.107c-0.941-0.338-1.884-0.656-2.828-0.964
	c-0.239-0.078-0.477-0.153-0.716-0.229c-0.812-0.258-1.624-0.507-2.437-0.744c-0.155-0.045-0.311-0.094-0.466-0.138
	c-0.943-0.27-1.887-0.525-2.83-0.768c-0.225-0.058-0.45-0.113-0.675-0.169c-0.793-0.199-1.586-0.389-2.379-0.569
	c-0.193-0.044-0.385-0.09-0.578-0.133c-0.943-0.209-1.885-0.406-2.826-0.59c-0.199-0.039-0.398-0.075-0.598-0.113
	c-0.794-0.151-1.587-0.294-2.379-0.428c-0.212-0.036-0.424-0.073-0.636-0.108c-0.94-0.154-1.879-0.297-2.815-0.428
	c-0.162-0.023-0.323-0.042-0.484-0.064c-0.806-0.109-1.61-0.21-2.412-0.304c-0.226-0.026-0.451-0.053-0.676-0.078
	c-0.934-0.103-1.865-0.199-2.792-0.281c-0.1-0.009-0.2-0.016-0.301-0.025c-0.842-0.073-1.681-0.136-2.518-0.193
	c-0.226-0.015-0.452-0.031-0.678-0.045c-0.925-0.058-1.847-0.109-2.764-0.148c-0.009,0-0.019-0.001-0.028-0.001
	c-0.91-0.039-1.814-0.065-2.714-0.086c-0.216-0.005-0.432-0.009-0.648-0.013c-0.864-0.016-1.725-0.026-2.579-0.027
	c-0.041,0-0.083-0.001-0.124-0.001c-0.9,0-1.793,0.01-2.681,0.026c-0.205,0.004-0.408,0.008-0.612,0.013
	c-0.787,0.017-1.569,0.039-2.346,0.068c-0.102,0.004-0.205,0.006-0.307,0.01c-0.871,0.034-1.734,0.076-2.59,0.124
	c-0.179,0.01-0.357,0.021-0.536,0.032c-0.744,0.044-1.482,0.092-2.213,0.145c-0.13,0.009-0.261,0.018-0.391,0.028
	c-0.84,0.063-1.671,0.132-2.495,0.207c-0.147,0.013-0.291,0.028-0.437,0.041c-0.716,0.067-5.143,0.559-5.244,0.571
	c-0.705,0.088-19.685,3.609-19.75,3.625c-0.53,0.129-1.588,0.395-1.588,0.395c-6.458,1.643-10.27,3.033-10.27,3.033
	s13.965,33.685,43.349,57.338c-20.681,8.113-34.815,20.962-34.815,20.962s29.687,29.924,67.223,30.88
	c5.735,0.146,11.096-0.185,16.105-0.876c-1.47,1.193-2.887,2.378-4.264,3.562c0-0.001-0.001-0.001-0.001-0.002
	c-0.048,0.042-0.093,0.083-0.141,0.125c-1.245,1.073-2.46,2.147-3.647,3.225c-0.068,0.062-0.135,0.124-0.202,0.185
	c-1.187,1.082-2.352,2.171-3.499,3.273c-0.063,0.061-0.126,0.123-0.189,0.183c-1.149,1.106-2.284,2.226-3.41,3.365
	c-0.055,0.055-0.109,0.112-0.164,0.167c-1.139,1.154-2.272,2.328-3.407,3.529c-0.01,0.011-0.02,0.021-0.03,0.031c0,0,0,0,0,0.001
	c-4.028,4.264-8.087,8.862-12.584,14.095c1.037,0.492,2.11,1.001,3.211,1.521c-0.048-0.023-0.1-0.047-0.148-0.069
	c1.886,1.121,3.947,2.08,6.163,2.881c-0.092-0.043-0.179-0.083-0.271-0.126c6.283,2.896,13.364,5.992,21.039,8.823
	c0,0,0.001,0.001,0.001,0.001c0.026,0.01,0.053,0.019,0.079,0.028c2.85,1.05,5.781,2.062,8.784,3.013
	c0.079,0.025,0.158,0.049,0.237,0.074c1.445,0.456,2.906,0.897,4.382,1.322c0.075,0.022,0.15,0.044,0.225,0.065
	c1.507,0.431,3.029,0.844,4.566,1.237c0.09,0.023,0.18,0.045,0.269,0.068c1.476,0.374,2.965,0.729,4.466,1.062
	c0.129,0.029,0.257,0.058,0.385,0.086c1.555,0.341,3.123,0.661,4.702,0.953c0.068,0.013,0.136,0.024,0.204,0.036
	c1.536,0.281,3.083,0.536,4.639,0.766c0.152,0.022,0.304,0.045,0.456,0.067c1.598,0.23,3.205,0.434,4.822,0.603
	c0.015,0.002,0.03,0.004,0.045,0.006c0,0-0.001,0-0.001-0.001c14.006,1.46,28.69,0.542,43.275-4.523c0,0,0,0,0.001,0
	c0.048-0.017,0.096-0.036,0.143-0.052c0.773-0.27,1.545-0.553,2.317-0.846c0.245-0.093,0.489-0.191,0.734-0.286
	c0.588-0.229,1.175-0.465,1.762-0.708c0.284-0.117,0.567-0.236,0.851-0.357c0.568-0.242,1.135-0.492,1.702-0.748
	c0.273-0.123,0.546-0.243,0.819-0.369c0.736-0.34,1.471-0.691,2.205-1.055c0.081-0.04,0.162-0.076,0.243-0.116
	c1.391-0.694,2.746-1.411,4.085-2.139c0.269-0.146,0.538-0.292,0.805-0.44c1.296-0.717,2.571-1.447,3.817-2.195
	c0.19-0.114,0.375-0.231,0.563-0.345c0.585-0.355,1.174-0.709,1.748-1.071c-0.009-0.004-0.019-0.008-0.028-0.012
	c9.41-5.93,17.32-12.71,23.724-19.953c0.005,0.003,0.009,0.005,0.013,0.008c0.584-0.661,1.155-1.326,1.714-1.994
	c0.197-0.236,0.387-0.474,0.581-0.711c0.622-0.758,1.229-1.52,1.82-2.287c0.172-0.223,0.349-0.444,0.518-0.668
	c0.678-0.896,1.329-1.799,1.963-2.705c0.18-0.258,0.36-0.516,0.537-0.774c0.629-0.919,1.24-1.841,1.824-2.768
	c0.127-0.201,0.248-0.404,0.373-0.605c0.543-0.877,1.068-1.757,1.571-2.639c0.085-0.148,0.174-0.296,0.257-0.444
	c0.017-0.03,0.035-0.06,0.052-0.09c-0.001-0.001-0.002-0.001-0.003-0.002c4.785-8.538,7.697-17.288,8.77-25.709
	c1.45-0.565,2.948-1.455,4.515-2.736C272.074,143.857,274.458,121.087,265.745,97.77z M76.576,219.681
	c0.153,0.072,0.306,0.143,0.459,0.215C76.881,219.824,76.73,219.752,76.576,219.681z"/>
<g>
	<path opacity="0.7" fill="#28AAE1" d="M184.498,158.287c-12.577,3.714-40.731,10.853-73.619-7.263
		c-32.888-18.117-45.48-58.344-45.48-58.344s40.729-10.853,73.616,7.264C171.905,118.06,212.462,150.027,184.498,158.287z"/>
	<path opacity="0.7" fill="#28AAE1" d="M190.406,133.378c-14.615-2.213-46.769-8.37-71.697-42.575
		c-24.927-34.205-18.573-81.29-18.573-81.29s46.769,8.371,71.697,42.574C196.761,86.293,222.903,138.301,190.406,133.378z"/>
	<path opacity="0.7" fill="#D3D3D3" d="M171.834,52.088c-24.928-34.204-71.697-42.574-71.697-42.574s-0.323,2.408-0.539,6.521
		c14.092,3.836,45.574,14.914,64.488,40.865c19.257,26.426,39.232,63.469,32.342,76.687
		C219.205,131.031,194.999,83.877,171.834,52.088z"/>
	<path d="M238.133,47.834c-0.777,0.483-1.333,1.179-1.636,1.95c-6.326,5.598-10.338,13.21-11.359,21.657
		c-1.104,9.142,1.422,18.172,7.114,25.425l5.006-3.927c-4.641-5.917-6.702-13.281-5.802-20.735c0.83-6.87,4.089-13.064,9.226-17.626
		c0.45-0.096,0.895-0.267,1.312-0.527c1.829-1.136,2.447-3.448,1.381-5.164C242.308,47.169,239.962,46.698,238.133,47.834z"/>
	<path fill="#484848" d="M241.757,131.407c16.996,27.366,0.779,74.239-48.67,98.89c-46.224,23.043-95.411-0.6-122.31-13.356
		c21.159-24.626,32.655-35.261,76.53-62.511C191.183,127.181,224.761,104.042,241.757,131.407z"/>
	<g>
		<path fill="#E6AA45" d="M98.051,188.761c-5.285,4.545-9.966,9.082-14.69,14.084c4.478,9.257,10.05,18.065,16.684,26.251
			c0.24,0.296,0.487,0.583,0.728,0.876c11.633,4.29,24.625,7.965,38.263,9.386C120.848,226.78,106.578,209.164,98.051,188.761z"/>
		<path fill="#E6AA45" d="M140.31,158.81c-6.1,3.849-11.518,7.36-16.394,10.635c4.879,11.617,11.43,22.608,19.58,32.665
			c10.928,13.483,24.093,24.507,38.815,32.725c3.601-1.251,7.198-2.754,10.776-4.537c3.877-1.933,7.55-4.003,11.019-6.189
			C174.599,211.987,151.601,188.089,140.31,158.81z"/>
		<path fill="#E6AA45" d="M188.115,129.954c-5.338,2.824-10.946,6.078-16.805,9.617c4.894,11.746,11.495,22.856,19.727,33.013
			c10.422,12.859,22.878,23.483,36.778,31.568c4.467-5.052,8.205-10.325,11.209-15.685
			C215.817,175.407,197.804,154.617,188.115,129.954z"/>
	</g>
	<g>
		<path fill="none" d="M80.004,221.274c-2.15-0.99-4.206-1.955-6.163-2.881C75.727,219.514,77.788,220.473,80.004,221.274z"/>
	</g>
	<path fill="#DEBA36" d="M265.745,97.77c8.713,23.317,6.329,46.087-13.439,62.25c-18.046,14.756-27.213-21.254-54.462-33.168
		c-34.157-14.935-4.159-44.214,18.259-50.603C238.133,69.971,256.809,73.857,265.745,97.77z"/>
	<path d="M218.417,48.62c-0.819,0.509-1.393,1.254-1.683,2.076c-6.132,5.569-10.024,13.057-11.025,21.353
		c-1.104,9.142,1.422,18.172,7.114,25.425c0,0,2.657-0.116,3.79-1.005s1.216-2.922,1.216-2.922
		c-4.642-5.917-6.703-13.281-5.802-20.735c0.82-6.796,4.02-12.928,9.061-17.476c0.409-0.1,0.811-0.263,1.191-0.499
		c1.829-1.136,2.447-3.448,1.381-5.164C222.592,47.955,220.246,47.484,218.417,48.62z"/>
	
		<linearGradient id="SVGID_1_" gradientUnits="userSpaceOnUse" x1="339.0982" y1="-325.224" x2="339.0982" y2="-320.369" gradientTransform="matrix(0.8495 -0.5276 -0.5276 -0.8495 -241.9142 1.8684)">
		<stop  offset="0.3374" style="stop-color:#FFFFFF;stop-opacity:0"/>
		<stop  offset="1" style="stop-color:#000000"/>
	</linearGradient>
	<path opacity="0.67" fill="url(#SVGID_1_)" d="M224.8,92.606c0.556,0.895-2.606,3.864-7.062,6.632
		c-4.456,2.768-8.519,4.286-9.075,3.391c-0.556-0.895,2.057-4.747,6.513-7.515C219.633,92.346,224.244,91.712,224.8,92.606z"/>
	<path opacity="0.7" fill="#28AAE1" d="M154.917,158.658c-9.458,9.085-31.171,28.374-68.707,27.419
		c-37.536-0.956-67.223-30.88-67.223-30.88s31.171-28.374,68.707-27.419C125.23,128.735,175.946,138.461,154.917,158.658z"/>
	<path opacity="0.7" fill="#28AAE1" d="M176.61,149.909c-16.277,6.438-52.852,19.286-98.735-0.875S10.453,76.897,10.453,76.897
		s52.852-19.287,98.735,0.875C155.072,97.933,212.801,135.594,176.61,149.909z"/>
	<path opacity="0.7" fill="#D3D3D3" d="M109.188,77.772c-33.568-14.75-70.863-8.386-88.466-3.908
		c21.9-2.627,50.341-2.325,76.784,9.295c35.751,15.709,77.711,40.593,88.562,60.241C198.309,126.3,149.239,95.37,109.188,77.772z"/>
	
		<ellipse transform="matrix(0.0068 -1 1 0.0068 138.8892 359.6348)" fill="#323030" cx="250.489" cy="109.899" rx="23.68" ry="11.454"/>
	
		<ellipse transform="matrix(0.0068 -1 1 0.0068 149.5886 364.5261)" fill="#FFFFFF" cx="258.301" cy="106.958" rx="5.568" ry="3.659"/>
	
		<ellipse transform="matrix(0.0069 -1 1 0.0069 139.4479 370.7835)" fill="#FFFFFF" cx="256.399" cy="115.185" rx="4.168" ry="2.739"/>
</g>
</svg>
