<?xml version="1.0" encoding="utf-8"?>
<!-- Generator: Adobe Illustrator 17.0.0, SVG Export Plug-In . SVG Version: 6.00 Build 0)  -->
<!DOCTYPE svg PUBLIC "-//W3C//DTD SVG 1.1 Basic//EN" "http://www.w3.org/Graphics/SVG/1.1/DTD/svg11-basic.dtd">
<svg version="1.1" baseProfile="basic" id="Слой_1"
	 xmlns="http://www.w3.org/2000/svg" xmlns:xlink="http://www.w3.org/1999/xlink" x="0px" y="0px" width="285px" height="250px"
	 viewBox="0 0 285 250" xml:space="preserve">
<path fill="#EB7272" d="M1602.97,686.224c0.358-0.247,0.715-0.495,1.073-0.742c0.084,0.127,0.169,0.254,0.253,0.381
	c-0.434,0.129-0.868,0.259-1.302,0.388C1602.994,686.25,1602.97,686.224,1602.97,686.224z"/>
<path fill="#EB7272" d="M1570.006,1049.175c0.243,0.36,0.489,0.718,0.714,1.089c0.004,0.007-0.235,0.163-0.361,0.249
	c-0.133-0.432-0.267-0.865-0.401-1.297C1569.957,1049.216,1570.006,1049.175,1570.006,1049.175z"/>
<path stroke="#FFFFFF" stroke-width="6" stroke-miterlimit="10" d="M265.74,97.654c-6.787-18.163-19.197-24.764-34.424-24.141
	c0.033-0.474,0.078-0.949,0.136-1.425c0.83-6.87,4.089-13.064,9.226-17.626c0.45-0.096,0.894-0.267,1.312-0.527
	c1.829-1.136,2.447-3.448,1.381-5.164c-1.067-1.717-3.413-2.188-5.242-1.052c-0.777,0.483-1.333,1.179-1.636,1.95
	c-6.326,5.598-10.338,13.21-11.359,21.657c-0.114,0.948-0.18,1.894-0.217,2.838c-2.867,0.453-5.81,1.113-8.819,1.97
	c-1.389,0.396-2.807,0.88-4.236,1.442c-0.084-1.613-0.037-3.244,0.16-4.88c0.82-6.796,4.02-12.928,9.061-17.476
	c0.409-0.1,0.811-0.263,1.191-0.499c1.829-1.136,2.447-3.448,1.381-5.164c-1.066-1.717-3.412-2.188-5.241-1.052
	c-0.819,0.509-1.393,1.254-1.683,2.076c-6.132,5.569-10.023,13.057-11.025,21.353c-0.346,2.864-0.335,5.717,0.017,8.508
	c-19.609,10.56-36.908,33.605-7.883,46.295c1.989,0.87,3.879,1.871,5.686,2.968c-1.313,1.849-3.293,3.099-6.055,3.612
	c-0.008,0.001-0.016,0.003-0.024,0.005c-0.323,0.059-0.656,0.108-1.001,0.147c-0.007,0.001-0.014,0.002-0.022,0.003v-0.001
	c-1.732,0.194-3.726,0.14-6.022-0.208c-1.023-0.155-2.135-0.33-3.322-0.532c0.473,1.295,0.767,2.558,0.864,3.781
	c7.874,9.694,8.933,18.002-3.45,21.66c-7.056,2.083-19.015,5.244-33.962,4.42c-9.122,8.047-24.762,19.266-48.228,22.499
	c-11.923,9.678-20.388,18.767-31.531,31.736c26.899,12.757,76.086,36.399,122.31,13.356c33.418-16.659,51.635-43.464,54.704-67.542
	c1.45-0.565,2.948-1.455,4.514-2.736C272.069,143.741,274.453,120.971,265.74,97.654z"/>
<g>
	<path fill="#484848" d="M241.752,131.292c-8.328-13.409-20.639-14.687-36.189-9.303c-0.018,6.122-2.415,10.274-8.093,11.327
		c-0.008,0.001-0.016,0.003-0.024,0.005c-0.323,0.059-0.656,0.108-1.001,0.147c-0.007,0.001-0.014,0.002-0.022,0.003v-0.001
		c-1.732,0.194-3.726,0.14-6.022-0.208c-1.023-0.155-2.135-0.33-3.322-0.532c0.473,1.295,0.767,2.558,0.864,3.781
		c7.874,9.694,8.933,18.002-3.45,21.66c-7.056,2.083-19.015,5.244-33.962,4.42c-9.122,8.047-24.762,19.266-48.228,22.499
		c-11.923,9.678-20.388,18.767-31.531,31.736c26.899,12.757,76.086,36.399,122.31,13.356
		C242.531,205.531,258.748,158.658,241.752,131.292z"/>
	<g>
		<path d="M238.129,47.718c-0.777,0.483-1.333,1.179-1.636,1.95c-6.326,5.598-10.338,13.21-11.359,21.657
			c-1.104,9.142,1.422,18.172,7.114,25.425l5.006-3.927c-4.641-5.917-6.702-13.281-5.802-20.735
			c0.83-6.87,4.089-13.064,9.226-17.626c0.45-0.096,0.894-0.267,1.312-0.527c1.829-1.136,2.447-3.448,1.381-5.164
			C242.303,47.053,239.957,46.583,238.129,47.718z"/>
		<path fill="#E6AA45" d="M98.046,188.645c-5.285,4.545-9.966,9.082-14.69,14.084c4.478,9.257,10.05,18.065,16.684,26.251
			c0.24,0.296,0.487,0.583,0.728,0.876c11.633,4.29,24.625,7.965,38.263,9.386C120.844,226.665,106.573,209.049,98.046,188.645z"/>
		<path fill="none" d="M80,221.158c-2.15-0.989-4.206-1.955-6.163-2.881C75.722,219.398,77.783,220.357,80,221.158z"/>
		<path fill="#DEBA36" d="M265.74,97.654c8.713,23.317,6.329,46.088-13.439,62.25c-18.046,14.756-27.213-21.254-54.462-33.168
			c-34.157-14.935-4.159-44.214,18.259-50.603C238.129,69.855,256.805,73.741,265.74,97.654z"/>
		<path d="M218.413,48.504c-0.819,0.509-1.393,1.254-1.683,2.076c-6.132,5.569-10.024,13.057-11.025,21.353
			c-1.104,9.142,1.422,18.172,7.114,25.425c0,0,2.657-0.116,3.79-1.005s1.216-2.922,1.216-2.922
			c-4.642-5.917-6.703-13.281-5.802-20.735c0.82-6.796,4.02-12.928,9.061-17.476c0.409-0.1,0.811-0.263,1.191-0.499
			c1.829-1.136,2.447-3.448,1.381-5.164C222.588,47.839,220.242,47.369,218.413,48.504z"/>
		
			<linearGradient id="SVGID_1_" gradientUnits="userSpaceOnUse" x1="487.1854" y1="825.9471" x2="487.1854" y2="821.0921" gradientTransform="matrix(0.8495 -0.5276 0.5276 0.8495 -631.8997 -345.48)">
			<stop  offset="0.3374" style="stop-color:#FFFFFF;stop-opacity:0"/>
			<stop  offset="1" style="stop-color:#000000"/>
		</linearGradient>
		<path opacity="0.67" fill="url(#SVGID_1_)" d="M224.796,92.491c0.556,0.895-2.606,3.864-7.062,6.632
			c-4.456,2.768-8.519,4.286-9.075,3.391c-0.556-0.895,2.057-4.747,6.513-7.515C219.628,92.23,224.24,91.596,224.796,92.491z"/>
		
			<ellipse transform="matrix(-1 -0.0068 0.0068 -1 500.2211 221.257)" fill="#323030" cx="250.487" cy="109.778" rx="11.454" ry="23.681"/>
		
			<ellipse transform="matrix(-1 -0.0068 0.0068 -1 515.8656 215.4286)" fill="#FFFFFF" cx="258.299" cy="106.837" rx="3.659" ry="5.568"/>
		
			<ellipse transform="matrix(-1 -0.0069 0.0069 -1 511.994 231.8931)" fill="#FFFFFF" cx="256.397" cy="115.063" rx="2.739" ry="4.168"/>
	</g>
	<path fill="#E6AA45" d="M189.465,133.119c-0.755-0.118-1.551-0.246-2.385-0.388c0.473,1.295,0.767,2.558,0.864,3.781
		c7.874,9.694,8.933,18.002-3.45,21.66c-0.933,0.275-1.953,0.57-3.052,0.871c2.9,4.63,6.097,9.114,9.591,13.425
		c10.422,12.859,22.878,23.483,36.778,31.568c4.467-5.052,8.205-10.325,11.209-15.685
		C216.85,175.875,199.426,156.341,189.465,133.119z"/>
	<path fill="#E6AA45" d="M144.248,167.723c-4.491,3.38-9.965,6.895-16.498,9.93c4.308,8.561,9.564,16.72,15.741,24.341
		c10.928,13.483,24.093,24.507,38.815,32.725c3.601-1.251,7.198-2.754,10.776-4.537c3.878-1.933,7.55-4.003,11.019-6.189
		C177.691,213.144,156.503,192.855,144.248,167.723z"/>
</g>
</svg>
