<?xml version="1.0" encoding="utf-8"?>
<!-- Generator: Adobe Illustrator 17.0.0, SVG Export Plug-In . SVG Version: 6.00 Build 0)  -->
<!DOCTYPE svg PUBLIC "-//W3C//DTD SVG 1.1 Basic//EN" "http://www.w3.org/Graphics/SVG/1.1/DTD/svg11-basic.dtd">
<svg version="1.1" baseProfile="basic" id="Слой_1"
	 xmlns="http://www.w3.org/2000/svg" xmlns:xlink="http://www.w3.org/1999/xlink" x="0px" y="0px" width="346.375px"
	 height="363.75px" viewBox="0 0 346.375 363.75" xml:space="preserve">
<polygon fill="#A8A8A8" stroke="#272525" stroke-width="3" stroke-miterlimit="10" points="557.307,189.762 557.307,189.762 
	557.306,189.761 "/>
<path fill="#A8A8A8" stroke="#272525" stroke-width="3" stroke-miterlimit="10" d="M105.113,221.008
	c0.352,4.375-0.295,8.237-2.508,11.822c-5.174,8.382-13.44,14.182-19.027,22.129c-4.693,6.675-5.828,14.677-10.336,20.74
	c-9.942,13.365-27.406,13.448-39.715,23.457c-10.639,8.65-11.593,21.969-14.527,33.85c3.389-9.4,5.839-18.9,13.416-26.61
	c7.365-7.497,15.449-6.934,23.624-11.621c9.469-5.427,13.959-14.488,20.478-22.495c11.449-14.061,21.818-28.148,41.997-27.147
	c5.488,0.271,10.839,1.116,16.1,2.265C132.664,234.269,120.496,220.624,105.113,221.008z"/>
<path fill="#A8A8A8" stroke="#272525" stroke-width="3" stroke-miterlimit="10" d="M260.54,132.601
	c34.384-14.672,67.951-16.842,67.951-16.842l-4.63-3.336c-0.002,0-0.005,0-0.006,0.001l-12.117-8.716h0.001L302.412,97
	l-19.966,5.349L252,121.104C255.054,124.695,257.962,128.474,260.54,132.601z"/>
<path fill="#A8A8A8" stroke="#272525" stroke-width="3" stroke-miterlimit="10" d="M240.076,108.137l0.113-0.119
	c0.798,0.857,4.082,4.211,4.922,5.023l-0.123,0.114c2.3,2.471,4.591,4.983,6.807,7.59l76.051-46.847l-15.103-12.576
	c0,0,0.001,0,0.001-0.001l-3.451-2.872l-12.322,7.689L290.266,53c0,0-21.801,20.125-57.26,48.5
	C235.431,103.668,237.772,105.899,240.076,108.137z"/>
<path fill="#A8A8A8" stroke="#272525" stroke-width="3" stroke-miterlimit="10" d="M176.725,123l9.75,86.25l-85.381-80.635
	c-8.32,14.71-11.887,30.498-9.226,43.461c4.714,22.948,12.55,37.977,13.473,49.459c15.383-0.384,27.551,13.261,29.501,26.39
	c26.247,5.731,50.237,19.208,77.538,8.863c20.788-7.878,38.788-24.178,48.956-44.15L176.725,123z"/>
<path fill="#A8A8A8" stroke="#272525" stroke-width="3" stroke-miterlimit="10" d="M176.631,122.575l84.611,89.638
	c3.355-6.59,5.86-13.578,7.328-20.797c8.56-42.059-7.195-61.167-23.297-78.467l0.123-0.114c-0.839-0.812-4.124-4.166-4.922-5.023
	l-0.113,0.119c-16.953-16.469-35.72-32.631-77.952-24.972C134.965,87.936,113.02,106.938,101,128.19l85.381,80.635L176.631,122.575z
	"/>
<g>
	<path fill="#A8A8A8" stroke="#272525" stroke-width="3" stroke-miterlimit="10" d="M232.79,101.675
		c14.149-11.323,26.115-21.325,35.398-29.266l20.258-29.902l-11.607-22.013c0,0-7.989,12.805-21.301,32.249l5.317-18.277
		L245.888,12.7c0-0.001,0-0.002,0-0.003L242.656,8c0,0-3.766,43.727-25.656,82.057C223.067,93.479,232.939,101.809,232.79,101.675z"
		/>
</g>
</svg>
