<?xml version="1.0" encoding="utf-8"?>
<!-- Generator: Adobe Illustrator 17.0.0, SVG Export Plug-In . SVG Version: 6.00 Build 0)  -->
<!DOCTYPE svg PUBLIC "-//W3C//DTD SVG 1.1 Basic//EN" "http://www.w3.org/Graphics/SVG/1.1/DTD/svg11-basic.dtd">
<svg version="1.1" baseProfile="basic" id="Слой_1"
	 xmlns="http://www.w3.org/2000/svg" xmlns:xlink="http://www.w3.org/1999/xlink" x="0px" y="0px" width="115.614px"
	 height="112.006px" viewBox="0 0 115.614 112.006" xml:space="preserve">
<path fill="#7566A9" d="M86.113,0.008c0.352,4.375-0.295,8.237-2.508,11.822c-5.174,8.382-13.44,14.182-19.027,22.129
	c-4.693,6.675-5.828,14.677-10.336,20.74C44.3,68.064,26.836,68.147,14.527,78.156C3.888,86.806,2.934,100.125,0,112.006
	c3.389-9.4,5.839-18.9,13.416-26.61c7.365-7.497,15.449-6.934,23.624-11.621c9.469-5.427,13.959-14.488,20.478-22.495
	c11.449-14.061,21.818-28.148,41.997-27.147c5.488,0.271,10.839,1.116,16.1,2.265C113.664,13.268,101.496-0.376,86.113,0.008z"/>
</svg>
