<?xml version="1.0" encoding="utf-8"?>
<!-- Generator: Adobe Illustrator 17.0.0, SVG Export Plug-In . SVG Version: 6.00 Build 0)  -->
<!DOCTYPE svg PUBLIC "-//W3C//DTD SVG 1.1 Basic//EN" "http://www.w3.org/Graphics/SVG/1.1/DTD/svg11-basic.dtd">
<svg version="1.1" baseProfile="basic" id="Слой_1"
	 xmlns="http://www.w3.org/2000/svg" xmlns:xlink="http://www.w3.org/1999/xlink" x="0px" y="0px" width="346.375px"
	 height="363.75px" viewBox="0 0 346.375 363.75" xml:space="preserve">
<polygon fill="#A8A8A8" stroke="#272525" stroke-width="3" stroke-miterlimit="10" points="557.307,189.762 557.307,189.762 
	557.306,189.761 "/>
<g>
	<path fill="#A8A8A8" stroke="#272525" stroke-width="3" stroke-miterlimit="10" d="M328.287,115.576l-4.63-3.336
		c-0.002,0-0.004,0-0.006,0.001l-12.117-8.716h0.001l-9.327-6.708l-19.966,5.349l45.604-28.092l-15.103-12.576
		c0,0,0.001,0,0.001-0.001l-3.451-2.872l-12.322,7.689l-6.705-13.138c0,0-7.88,7.274-21.865,19.238l20.261-29.906l-11.607-22.013
		c0,0-7.989,12.805-21.3,32.249l5.317-18.277l-14.967-21.766c0-0.001,0-0.002,0-0.003L242.872,8c0,0-3.766,43.727-25.657,82.057
		c-13.084-7.382-29.918-11.282-55.091-6.716c-46.44,8.422-77.142,57-70.635,88.692c6.51,31.692,18.984,48.285,10.965,61.281
		c-5.174,8.382-13.44,14.182-19.027,22.129c-4.693,6.675-5.828,14.677-10.336,20.74c-9.942,13.365-27.406,13.448-39.715,23.457
		c-10.639,8.65-11.593,21.969-14.527,33.85c3.389-9.4,5.839-18.9,13.416-26.61c7.365-7.497,15.449-6.934,23.624-11.621
		c9.469-5.427,13.959-14.488,20.477-22.495c11.449-14.061,21.818-28.148,41.997-27.147c32.866,1.625,60.865,23.546,93.639,11.128
		c27.646-10.477,50.366-35.849,56.285-64.947c5.652-27.772,0.7-45.534-7.95-59.379C294.72,117.746,328.287,115.576,328.287,115.576z
		"/>
	<path fill="#A8A8A8" stroke="#272525" stroke-width="3" stroke-miterlimit="10" d="M18.849,333.489
		c-2.412,6.689-5.298,13.328-10.849,19.235C14.361,347.91,16.998,340.985,18.849,333.489z"/>
</g>
</svg>
