<?xml version="1.0" encoding="utf-8"?>
<!-- Generator: Adobe Illustrator 17.0.0, SVG Export Plug-In . SVG Version: 6.00 Build 0)  -->
<!DOCTYPE svg PUBLIC "-//W3C//DTD SVG 1.1 Basic//EN" "http://www.w3.org/Graphics/SVG/1.1/DTD/svg11-basic.dtd">
<svg version="1.1" baseProfile="basic" id="Слой_1"
	 xmlns="http://www.w3.org/2000/svg" xmlns:xlink="http://www.w3.org/1999/xlink" x="0px" y="0px" width="346.375px"
	 height="363.75px" viewBox="0 0 346.375 363.75" xml:space="preserve">
<g>
	<path fill="#741D1F" stroke="#FFF5F5" stroke-width="6" stroke-miterlimit="10" d="M328.287,115.576l-4.63-3.336
		c-0.002,0-0.004,0-0.006,0.001l-12.117-8.716h0.001l-9.327-6.708l-19.966,5.349l45.604-28.092l-15.103-12.576
		c0,0,0.001,0,0.001-0.001l-3.451-2.872l-12.322,7.689l-6.705-13.138c0,0-7.88,7.274-21.865,19.238l20.261-29.906l-11.607-22.013
		c0,0-7.989,12.805-21.3,32.249l5.317-18.277l-14.967-21.766c0-0.001,0-0.002,0-0.002L242.872,8c0,0-3.767,43.727-25.657,82.057
		c-13.084-7.382-29.918-11.282-55.091-6.716c-46.44,8.422-77.142,57-70.635,88.692c6.51,31.692,18.984,48.285,10.965,61.281
		c-5.174,8.382-13.44,14.182-19.027,22.129c-4.693,6.675-5.828,14.677-10.336,20.74c-9.942,13.365-27.406,13.448-39.715,23.457
		c-10.639,8.65-11.593,21.969-14.527,33.85c3.389-9.4,5.839-18.9,13.416-26.61c7.365-7.497,15.449-6.934,23.624-11.621
		c9.469-5.427,13.959-14.488,20.478-22.495c11.449-14.061,21.818-28.148,41.997-27.147c32.866,1.625,60.865,23.546,93.639,11.128
		c27.646-10.477,50.366-35.849,56.285-64.947c5.652-27.772,0.7-45.534-7.95-59.379C294.72,117.746,328.287,115.576,328.287,115.576z
		"/>
	<path fill="#741D1F" stroke="#FFF5F5" stroke-width="6" stroke-miterlimit="10" d="M18.849,333.489
		c-2.412,6.689-5.298,13.328-10.849,19.235C14.361,347.91,16.998,340.985,18.849,333.489z"/>
</g>
<polygon fill="#A8A8A8" stroke="#272525" stroke-width="3" stroke-miterlimit="10" points="557.307,189.762 557.307,189.762 
	557.306,189.761 "/>
<g id="__x0023_Layer_x0020_2">
	<g id="_540608768">
		<g>
			<polygon fill="#8FA849" points="309.293,58.625 208.805,121.325 223.875,138.12 327.846,74.073 			"/>
			<path fill="#A6C64B" d="M309.293,58.625l-100.488,62.701l5.886,6.558c26.339-22.319,83.422-57.483,98.053-66.386L309.293,58.625z
				"/>
			<path fill="#7B9948" d="M216.798,130.229l7.077,7.89l103.971-64.046l-5.231-4.355C311.194,77.359,248.93,118.566,216.798,130.229
				z"/>
		</g>
		<path fill="#8FA849" d="M242.872,8c0,0-4.116,47.809-28.766,87.266l22.923,21.842l24.042-82.641L242.872,8z"/>
		<path fill="#A6C64B" d="M246.105,12.699L242.872,8c0,0-4.116,47.809-28.766,87.266l1.283,1.219
			c0.913-0.582,1.818-1.277,2.716-2.096C238.238,75.876,244.76,25.375,246.105,12.699z"/>
		<path fill="#7B9948" d="M254.565,25.006c-1.249,10.388-7.075,49.236-27.35,82.748l9.815,9.354l24.042-82.641L254.565,25.006z"/>
		<path fill="#8FA849" d="M328.287,115.576c0,0-47.89,3.091-87.861,26.893l-21.348-23.382l83.129-22.27L328.287,115.576z"/>
		<path fill="#7B9948" d="M323.657,112.241l4.63,3.336c0,0-47.89,3.091-87.861,26.893l-1.194-1.309
			c0.607-0.9,1.311-1.789,2.155-2.665C260.324,118.76,310.956,113.317,323.657,112.241z"/>
		<path fill="#A6C64B" d="M311.534,103.525c-10.411,1.025-49.38,6.02-83.319,25.572l-9.137-10.01l83.129-22.27L311.534,103.525z"/>
		<g>
			<path fill="#8FA849" d="M277.055,20.495c0,0-25.535,40.932-61.387,87.572l17.701,16.055l55.294-81.615L277.055,20.495z"/>
			<path fill="#A6C64B" d="M279.113,24.399l-2.058-3.904c0,0-25.535,40.932-61.387,87.572l0.992,0.9
				c1.096-0.838,2.205-1.777,3.347-2.853C245.627,81.939,274.346,37.633,279.113,24.399z"/>
			<path fill="#7B9948" d="M284.51,34.635c-4.057,10.882-28.944,43.174-58.719,82.617l7.577,6.87l55.294-81.615L284.51,34.635z"/>
		</g>
		<g>
			<path fill="#8FA849" d="M290.266,53.175c0,0-36.089,33.318-90.947,74.671l12.207,17.106l88.285-73.075L290.266,53.175z"/>
			<path fill="#A6C64B" d="M290.91,57.123l-0.644-3.948c0,0-36.089,33.318-90.947,74.671l0.688,0.963
				c1.448-0.707,2.959-1.503,4.549-2.428C240.27,105.621,280.94,69.368,290.91,57.123z"/>
			<path fill="#7B9948" d="M296.295,65.25c-8.344,10.061-44.171,37.355-89.995,72.381l5.225,7.321l88.285-73.075L296.295,65.25z"/>
		</g>
		<path fill="#C9E1C9" d="M285.718,61.597c0,0-37.377,34.696-54.606,45.302C231.113,106.898,281.883,63.768,285.718,61.597z"/>
		<path fill="#9A243F" d="M102.454,233.313c-5.174,8.382-13.44,14.182-19.027,22.129c-4.693,6.675-5.828,14.677-10.336,20.739
			c-9.942,13.365-27.406,13.448-39.715,23.457C16.024,313.747,24.443,340.281,8,352.724c13.352-14.208,11.296-32.649,24.264-45.845
			c7.365-7.497,15.449-6.934,23.624-11.621c9.469-5.427,13.959-14.488,20.478-22.495c11.449-14.061,21.818-28.148,41.997-27.147
			c32.866,1.625,60.865,23.546,93.639,11.128c27.646-10.477,50.366-35.849,56.285-64.947c8.56-42.059-7.195-61.167-23.297-78.467
			l0.123-0.114c-0.84-0.812-4.124-4.166-4.922-5.023l-0.113,0.119c-16.953-16.469-35.72-32.631-77.952-24.972
			c-46.44,8.422-77.142,57-70.635,88.692C97.999,203.724,110.473,220.317,102.454,233.313z"/>
		<path fill="#C9E1C9" d="M274.853,30.093c0,0-27.238,43.124-41.172,57.789C233.681,87.882,271.7,33.178,274.853,30.093z"/>
		<path fill="#741D1F" d="M221.831,113.686c18.066,24.088,19.046,67.803,5.142,94.982c-17.989,35.157-54.535,27.346-87.206,23.939
			c26.523,30.883,90.626,22.171,111.331-10.816c9.372-14.935,14.005-44.822,11.037-63.613
			c-3.634-22.995-20.817-33.637-38.706-44.397L221.831,113.686z"/>
	</g>
</g>
</svg>
