<?xml version="1.0" encoding="utf-8"?>
<!-- Generator: Adobe Illustrator 17.0.0, SVG Export Plug-In . SVG Version: 6.00 Build 0)  -->
<!DOCTYPE svg PUBLIC "-//W3C//DTD SVG 1.1 Basic//EN" "http://www.w3.org/Graphics/SVG/1.1/DTD/svg11-basic.dtd">
<svg version="1.1" baseProfile="basic" id="Слой_1"
	 xmlns="http://www.w3.org/2000/svg" xmlns:xlink="http://www.w3.org/1999/xlink" x="0px" y="0px" width="162.104px"
	 height="92.774px" viewBox="0 0 162.104 92.774" xml:space="preserve">
<path fill="#6D9EC4" d="M154.952,82.152c-0.05-0.071-0.099-0.142-0.149-0.213c-0.008-0.011-0.015-0.022-0.023-0.033
	C115.595,26.348,76.427,8.342,52.476,2.63C44.768,0.602,37.56-0.274,31.118,0.074c-0.011,0-0.024,0-0.035,0.001
	c0,0,0,0.002-0.001,0.002c-6.947,0.38-13.004,2.179-17.841,5.481C-2.433,16.256-3.513,47.112,6.433,83.897
	c51.89,4.298,103.78,8.174,155.671,8.877C159.854,89.243,157.478,85.7,154.952,82.152z"/>
</svg>
