<?xml version="1.0" encoding="utf-8"?>
<!-- Generator: Adobe Illustrator 17.0.0, SVG Export Plug-In . SVG Version: 6.00 Build 0)  -->
<!DOCTYPE svg PUBLIC "-//W3C//DTD SVG 1.1 Basic//EN" "http://www.w3.org/Graphics/SVG/1.1/DTD/svg11-basic.dtd">
<svg version="1.1" baseProfile="basic" id="Слой_1"
	 xmlns="http://www.w3.org/2000/svg" xmlns:xlink="http://www.w3.org/1999/xlink" x="0px" y="0px" width="291.438px"
	 height="324.375px" viewBox="0 0 291.438 324.375" xml:space="preserve">
<polygon fill="#A8A8A8" stroke="#272525" stroke-width="3" stroke-miterlimit="10" points="557.307,189.762 557.307,189.762 
	557.306,189.761 "/>
<path fill="#A8A8A8" stroke="#272525" stroke-width="3" stroke-miterlimit="10" d="M238.83,90.152
	c-0.05-0.071-0.099-0.142-0.149-0.213c-0.008-0.011-0.015-0.022-0.023-0.033c-39.185-55.559-78.354-73.565-102.305-79.276
	c-7.707-2.027-14.914-2.903-21.356-2.555c-0.011,0-0.024,0-0.035,0.001c0,0,0,0.002-0.001,0.002
	c-6.947,0.38-13.004,2.179-17.841,5.481c-17.624,12.029-16.81,49.536-2.602,92.308c-17.986-5.135-32.915-6.049-44.099-5.421
	c-7.969,0.262-15.129,1.487-21.204,3.665c-0.008,0.003-0.018,0.006-0.026,0.008v0.001c-6.548,2.352-11.837,5.809-15.527,10.356
	c-21.546,26.55,20.988,102.243,83.937,153.32c62.946,51.08,122.468,58.196,144.012,31.647h0.001
	c4.804-5.92,7.237-14.117,7.429-23.841c0.002,0,0.004,0,0.006-0.001c0.784-2.412,0.722-7.271-0.496-13.915
	c5.186-0.971,9.922-2.845,14.068-5.675v0.001c6.297-4.298,10.974-11.456,13.94-20.718c0.002,0,0.005,0.001,0.007,0.001
	C283.334,225.495,287.707,158.804,238.83,90.152z"/>
</svg>
