<?xml version="1.0" encoding="utf-8"?>
<!-- Generator: Adobe Illustrator 17.0.0, SVG Export Plug-In . SVG Version: 6.00 Build 0)  -->
<!DOCTYPE svg PUBLIC "-//W3C//DTD SVG 1.1 Basic//EN" "http://www.w3.org/Graphics/SVG/1.1/DTD/svg11-basic.dtd">
<svg version="1.1" baseProfile="basic" id="Слой_1"
	 xmlns="http://www.w3.org/2000/svg" xmlns:xlink="http://www.w3.org/1999/xlink" x="0px" y="0px" width="179.37px"
	 height="213.518px" viewBox="0 0 179.37 213.518" xml:space="preserve">
<path fill="#D36234" d="M101.07,46.215c-0.017-0.013-0.034-0.027-0.051-0.041c-0.03-0.023-0.058-0.046-0.088-0.069
	C59.792,13.756,25.04,2.735,0,0c26.986,59.172,70.951,109.853,104.064,168.052c8.014,14.142,12.327,29.024,14.621,44.281
	c23.675,3.689,42.493-1.308,52.729-13.921h0.001c4.804-5.92,7.237-14.117,7.429-23.841c0.002,0,0.004,0,0.006-0.001
	C182.536,163.238,167.63,98.026,101.07,46.215z"/>
</svg>
