<?xml version="1.0" encoding="utf-8"?>
<!-- Generator: Adobe Illustrator 17.0.0, SVG Export Plug-In . SVG Version: 6.00 Build 0)  -->
<!DOCTYPE svg PUBLIC "-//W3C//DTD SVG 1.1 Basic//EN" "http://www.w3.org/Graphics/SVG/1.1/DTD/svg11-basic.dtd">
<svg version="1.1" baseProfile="basic" id="Слой_1"
	 xmlns="http://www.w3.org/2000/svg" xmlns:xlink="http://www.w3.org/1999/xlink" x="0px" y="0px" width="291.438px"
	 height="324.375px" viewBox="0 0 291.438 324.375" xml:space="preserve">
<path fill="#D97F2E" stroke="#F9F9F9" stroke-width="6" stroke-miterlimit="10" d="M238.814,90.13
	c-0.041-0.059-0.082-0.118-0.124-0.176c-0.011-0.016-0.022-0.031-0.033-0.047c-39.194-55.573-78.372-73.574-102.321-79.281
	c-7.697-2.023-14.896-2.897-21.33-2.551c-0.014,0-0.03,0.001-0.044,0.001c0,0,0,0.002-0.001,0.002
	c-6.947,0.38-13.005,2.179-17.841,5.481c-17.624,12.028-16.81,49.535-2.602,92.308c-17.981-5.134-32.906-6.048-44.089-5.422
	c-7.979,0.262-15.146,1.488-21.227,3.67c-0.004,0.001-0.009,0.003-0.014,0.004c0,0,0,0.001,0,0.001
	c-6.548,2.352-11.838,5.809-15.528,10.356c-21.545,26.55,20.989,102.243,83.937,153.32c62.946,51.08,122.468,58.196,144.012,31.647
	c4.805-5.92,7.238-14.117,7.43-23.84c0.002-0.001,0.005-0.001,0.007-0.001c0.784-2.409,0.722-7.262-0.493-13.896
	c5.188-0.971,9.916-2.864,14.064-5.695c6.297-4.298,10.974-11.456,13.94-20.717c0.002,0,0.005,0.001,0.007,0.001
	C283.334,225.495,287.708,158.789,238.814,90.13z"/>
<polygon fill="#A8A8A8" stroke="#272525" stroke-width="3" stroke-miterlimit="10" points="557.307,189.762 557.307,189.762 
	557.306,189.761 "/>
<g id="Слой_x0020_1_1_">
	<g id="_289187168">
		<g>
			<path fill="#E5A860" d="M262.617,256.011c-28.241,19.276-83.237-4.572-128.937-71.527
				C87.977,117.532,68.878,32.834,97.119,13.559c28.239-19.275,98.073,12.616,143.776,79.571
				C286.598,160.077,290.857,236.738,262.617,256.011L262.617,256.011z"/>
			<path fill="#E19745" d="M157.812,96.369c-24.194,13.978-47.05,19.695-51.05,12.775c-4-6.923,12.368-23.867,36.56-37.849
				c24.19-13.982,47.05-19.698,51.047-12.779C198.372,65.443,182.002,82.391,157.812,96.369z"/>
			<path fill="#E19745" d="M157.812,96.369c-24.194,13.978-47.05,19.695-51.05,12.775c-4-6.923,12.368-23.867,36.56-37.849
				c24.19-13.982,47.05-19.698,51.047-12.779C198.372,65.443,182.002,82.391,157.812,96.369z"/>
			<path fill="#E19745" d="M195.931,149.597c-23.263,15.474-45.719,22.617-50.144,15.963c-4.432-6.661,10.84-24.603,34.109-40.076
				c23.26-15.477,45.716-22.628,50.142-15.975C234.462,116.173,219.196,134.12,195.931,149.597L195.931,149.597z"/>
			<path fill="#E19745" d="M231.824,208.822c-24.189,13.987-47.038,19.721-51.043,12.805c-4.008-6.93,12.354-23.878,36.539-37.87
				c24.184-13.995,47.04-19.729,51.042-12.81C272.368,177.874,256.01,194.83,231.824,208.822z"/>
			<path fill="#ECBF8A" d="M190.797,140.186c29.864,43.751,72.895,94.432,85.767,95.109c6.777-9.811,11.156-76.65-37.907-145.388
				C182.385,10.119,126.133,7.77,114.961,8.076C112.83,9.527,185.373,132.239,190.797,140.186L190.797,140.186z"/>
			<path fill="#E5A860" d="M221.335,181.502c6.321,7.937,12.628,15.494,18.64,22.303c19.584-12.81,31.924-26.743,28.386-32.859
				C264.583,164.411,243.985,169.164,221.335,181.502z"/>
			<path fill="#E5A860" d="M190.797,140.186c1.978,2.897,4.014,5.825,6.094,8.766c22.722-15.327,37.509-32.872,33.146-39.444
				c-4.339-6.523-26.013,0.227-48.782,15.081C186.239,132.899,189.757,138.661,190.797,140.186L190.797,140.186z"/>
			<path fill="#E5A860" d="M148.225,68.565c4.846,8.336,9.795,16.791,14.53,24.839c21.43-13.33,35.337-28.444,31.613-34.888
				C190.644,52.066,170.529,56.597,148.225,68.565z"/>
			<path fill="#D97F2E" d="M157.812,96.369c-21.635,12.5-42.198,18.392-49.166,14.549c6.615-9.771,22.521-15.875,41.921-27.087
				c16.766-9.691,32.32-22.774,44.017-24.882C197.705,66.127,181.514,82.672,157.812,96.369z"/>
			<path fill="#D97F2E" d="M195.748,150.363c-21.012,13.521-41.269,20.391-48.413,16.886c6.14-10.076,21.735-16.935,40.576-29.064
				c16.283-10.482,31.193-24.295,42.775-26.961C234.148,118.245,218.767,135.547,195.748,150.363z"/>
			<path fill="#D97F2E" d="M231.366,209.483c-21.868,12.058-42.534,17.444-49.422,13.347c6.802-9.721,22.818-15.456,42.426-26.272
				c16.946-9.349,32.747-22.172,44.479-23.975C271.828,179.953,255.322,196.27,231.366,209.483z"/>
		</g>
		<g>
			<path fill="#E5A860" d="M241.609,299.443c-21.544,26.549-81.066,19.433-144.012-31.647
				C34.649,216.719-7.885,141.026,13.66,114.476c21.544-26.548,97.583-15.972,160.532,35.109
				C237.14,200.657,263.155,272.894,241.609,299.443L241.609,299.443z"/>
			<path fill="#E19745" d="M95.51,176.46c-19.183,20.316-39.448,32.333-45.26,26.846c-5.814-5.489,5.022-26.407,24.202-46.726
				c19.178-20.318,39.447-32.336,45.256-26.85C125.526,135.222,114.689,156.144,95.51,176.46z"/>
			<path fill="#E19745" d="M95.51,176.46c-19.183,20.316-39.448,32.333-45.26,26.846c-5.814-5.489,5.022-26.407,24.202-46.726
				c19.178-20.318,39.447-32.336,45.256-26.85C125.526,135.222,114.689,156.144,95.51,176.46z"/>
			<path fill="#E19745" d="M147.264,216.556c-17.863,21.483-37.337,34.752-43.48,29.643c-6.153-5.114,3.348-26.676,21.216-48.159
				c17.859-21.486,37.331-34.763,43.475-29.654C174.621,173.505,165.129,195.07,147.264,216.556L147.264,216.556z"/>
			<path fill="#E19745" d="M198.602,263.035c-19.176,20.323-39.429,32.355-45.246,26.874c-5.823-5.493,5.006-26.414,24.176-46.741
				c19.168-20.33,39.429-32.363,45.243-26.878C228.597,221.781,217.773,242.709,198.602,263.035z"/>
			<path fill="#ECBF8A" d="M139.653,209.008c41.134,33.378,96.867,69.628,109.393,66.594c3.688-11.34-11.241-76.637-77.919-128.465
				C94.378,86.786,39.806,100.628,29.188,104.119C27.562,106.118,132.182,202.945,139.653,209.008L139.653,209.008z"/>
			<path fill="#E5A860" d="M180.735,239.859c8.327,5.797,16.533,11.233,24.243,16.038c15.1-17.877,22.937-34.758,17.798-39.606
				C217.285,211.109,198.908,221.556,180.735,239.859z"/>
			<path fill="#E5A860" d="M139.653,209.008c2.724,2.21,5.513,4.433,8.348,6.656c17.387-21.187,26.536-42.23,20.475-47.278
				c-6.024-5.009-24.86,7.66-42.428,28.408C133.2,203.33,138.219,207.843,139.653,209.008L139.653,209.008z"/>
			<path fill="#E5A860" d="M78.368,152.561c7.028,6.601,14.189,13.286,21.029,19.643c16.721-18.904,25.723-37.365,20.311-42.475
				C114.294,124.616,96.316,134.712,78.368,152.561z"/>
			<path fill="#D97F2E" d="M95.51,176.46c-17.154,18.167-35.172,29.696-42.948,28.008c3.543-11.255,17.037-21.655,32.418-37.949
				c13.293-14.083,24.454-31.069,35.058-36.436C125.083,136.068,114.302,156.554,95.51,176.46z"/>
			<path fill="#D97F2E" d="M147.308,217.343c-16.265,18.967-33.71,31.346-41.558,30.032c3-11.412,15.981-22.446,30.564-39.458
				c12.603-14.703,22.938-32.204,33.273-38.073C174.913,175.581,165.125,196.56,147.308,217.343z"/>
			<path fill="#D97F2E" d="M198.352,263.8c-17.503,17.811-35.764,28.885-43.537,26.929c3.737-11.26,17.442-21.339,33.136-37.312
				c13.563-13.806,25.034-30.614,35.759-35.699C228.673,223.928,217.526,244.286,198.352,263.8z"/>
		</g>
	</g>
</g>
</svg>
