<?xml version="1.0" encoding="utf-8"?>
<!-- Generator: Adobe Illustrator 17.0.0, SVG Export Plug-In . SVG Version: 6.00 Build 0)  -->
<!DOCTYPE svg PUBLIC "-//W3C//DTD SVG 1.1 Basic//EN" "http://www.w3.org/Graphics/SVG/1.1/DTD/svg11-basic.dtd">
<svg version="1.1" baseProfile="basic" id="Слой_1"
	 xmlns="http://www.w3.org/2000/svg" xmlns:xlink="http://www.w3.org/1999/xlink" x="0px" y="0px" width="291.438px"
	 height="324.375px" viewBox="0 0 291.438 324.375" xml:space="preserve">
<polygon fill="#A8A8A8" stroke="#272525" stroke-width="3" stroke-miterlimit="10" points="557.307,189.762 557.307,189.762 
	557.306,189.761 "/>
<path fill="#A8A8A8" stroke="#272525" stroke-width="3" stroke-miterlimit="10" d="M93.951,184.103
	C64.092,178.674,36.953,165.767,11,151c9.4,34.511,43.261,81.849,86.976,117.319c3.75,3.043,7.486,5.922,11.204,8.654
	C97.843,247.668,91.705,216.672,93.951,184.103z"/>
<path fill="#A8A8A8" stroke="#272525" stroke-width="3" stroke-miterlimit="10" d="M174.258,268.809
	c-33.113-58.198-77.079-108.88-104.064-168.052c-7.488-0.818-14.118-0.903-19.778-0.586c-7.969,0.262-15.129,1.487-21.205,3.666
	c-0.008,0.003-0.017,0.005-0.024,0.008c0,0,0,0.001,0,0.001c-6.548,2.352-11.837,5.809-15.527,10.356
	c-6.583,8.112-7.175,20.817-3.039,36.001c25.953,14.767,53.092,27.674,82.951,33.103c-2.246,32.569,3.892,63.566,15.229,92.871
	c29.042,21.345,56.891,33.301,80.079,36.914C186.585,297.833,182.272,282.951,174.258,268.809z"/>
<path fill="#A8A8A8" stroke="#272525" stroke-width="3" stroke-miterlimit="10" d="M171.07,147.215
	c-0.017-0.013-0.034-0.027-0.051-0.041c-0.03-0.023-0.058-0.046-0.088-0.069C129.792,114.756,95.04,103.735,70,101
	c26.986,59.172,70.951,109.853,104.064,168.052c8.014,14.142,12.327,29.024,14.621,44.281c23.675,3.689,42.493-1.308,52.729-13.921
	h0.001c4.804-5.92,7.237-14.117,7.429-23.841c0.002,0,0.004,0,0.006-0.001C252.536,264.238,237.63,199.026,171.07,147.215z"/>
<path fill="#A8A8A8" stroke="#272525" stroke-width="3" stroke-miterlimit="10" d="M238.952,90.16
	c-0.05-0.071-0.099-0.142-0.149-0.213c-0.008-0.011-0.015-0.022-0.023-0.033c-39.184-55.557-78.352-73.564-102.303-79.276
	c-7.708-2.028-14.916-2.903-21.359-2.555c-0.011,0-0.024,0-0.035,0.001c0,0,0,0.002-0.001,0.002
	c-6.947,0.38-13.004,2.179-17.841,5.481c-15.674,10.698-16.755,41.555-6.808,78.339c51.89,4.298,103.78,8.174,155.671,8.877
	C243.854,97.252,241.478,93.709,238.952,90.16z"/>
<path fill="#A8A8A8" stroke="#272525" stroke-width="3" stroke-miterlimit="10" d="M90,92c1.238,4.578,2.636,9.242,4.209,13.976
	c21.549,6.151,47.474,18.354,76.606,41.262c0.03,0.023,0.058,0.046,0.088,0.069c0.017,0.014,0.034,0.027,0.051,0.041
	c52.394,40.784,72.777,89.866,77.284,114.44c5.186-0.971,9.922-2.845,14.068-5.675v0c6.297-4.298,10.974-11.456,13.94-20.718
	c0.002,0,0.005,0.001,0.007,0.001c6.419-9.293,10.676-69.748-30.582-134.52C193.78,100.174,141.89,96.298,90,92z"/>
</svg>
