<?xml version="1.0" encoding="utf-8"?>
<!-- Generator: Adobe Illustrator 17.0.0, SVG Export Plug-In . SVG Version: 6.00 Build 0)  -->
<!DOCTYPE svg PUBLIC "-//W3C//DTD SVG 1.1 Basic//EN" "http://www.w3.org/Graphics/SVG/1.1/DTD/svg11-basic.dtd">
<svg version="1.1" baseProfile="basic" id="Слой_1"
	 xmlns="http://www.w3.org/2000/svg" xmlns:xlink="http://www.w3.org/1999/xlink" x="0px" y="0px" width="190.347px"
	 height="169.788px" viewBox="0 0 190.347 169.788" xml:space="preserve">
<path fill="#3FA556" d="M0,0c1.238,4.578,2.636,9.242,4.209,13.976c21.549,6.151,47.474,18.354,76.606,41.262
	c0.03,0.023,0.058,0.046,0.088,0.069c0.017,0.014,0.034,0.027,0.051,0.041c52.394,40.784,72.777,89.866,77.284,114.44
	c5.186-0.971,9.922-2.845,14.068-5.675v0c6.297-4.298,10.974-11.456,13.94-20.718c0.002,0,0.005,0.001,0.007,0.001
	c6.419-9.293,10.676-69.748-30.582-134.52C103.78,8.174,51.89,4.298,0,0z"/>
</svg>
