<?xml version="1.0" encoding="utf-8"?>
<!-- Generator: Adobe Illustrator 17.0.0, SVG Export Plug-In . SVG Version: 6.00 Build 0)  -->
<!DOCTYPE svg PUBLIC "-//W3C//DTD SVG 1.1 Basic//EN" "http://www.w3.org/Graphics/SVG/1.1/DTD/svg11-basic.dtd">
<svg version="1.1" baseProfile="basic" id="Слой_1"
	 xmlns="http://www.w3.org/2000/svg" xmlns:xlink="http://www.w3.org/1999/xlink" x="0px" y="0px" width="180.875px"
	 height="213.09px" viewBox="0 0 180.875 213.09" xml:space="preserve">
<path fill="#CE9538" d="M166.253,168.809C133.14,110.611,89.175,59.929,62.189,0.757c-7.488-0.818-14.118-0.903-19.778-0.586
	c-7.969,0.262-15.129,1.487-21.205,3.666c-0.008,0.002-0.017,0.005-0.024,0.008c0,0,0,0.001,0,0.001
	C14.635,6.198,9.345,9.655,5.655,14.202c-6.583,8.112-7.175,20.817-3.039,36.001C28.569,64.97,55.708,77.877,85.567,83.306
	c-2.246,32.569,3.892,63.566,15.229,92.871c29.042,21.345,56.891,33.301,80.079,36.914
	C178.581,197.833,174.267,182.951,166.253,168.809z"/>
</svg>
