<?xml version="1.0" encoding="utf-8"?>
<!-- Generator: Adobe Illustrator 17.0.0, SVG Export Plug-In . SVG Version: 6.00 Build 0)  -->
<!DOCTYPE svg PUBLIC "-//W3C//DTD SVG 1.1 Basic//EN" "http://www.w3.org/Graphics/SVG/1.1/DTD/svg11-basic.dtd">
<svg version="1.1" baseProfile="basic" id="Слой_1"
	 xmlns="http://www.w3.org/2000/svg" xmlns:xlink="http://www.w3.org/1999/xlink" x="0px" y="0px" width="61.969px"
	 height="81.202px" viewBox="0 0 61.969 81.202" xml:space="preserve">
<path fill="#337F85" d="M56.144,32.143c-9.276,12.463-15.778,24.452-18.686,32.028c-0.507-2.633-1.037-5.088-1.593-7.31
	c-0.415-4.32,4.576-21.146,9.245-34.218c2.296-6.427,4.514-11.951,5.973-14.624c9.648-4.678,3.978-15.47-2.397,0.08
	c-1.662,4.044-3.363,9.103-4.911,13.899c-1.948,6.037-3.653,11.658-4.722,14.31c-10.24,24.9-8.468,13.089-26.909-10.682
	c-1.563-2.015-3.254-4.106-5.128-6.278C5.57,4.33-3.966,14.577,5.308,19.925c1.581,1.969,3.448,4.308,5.428,6.851
	c7.51,9.641,16.749,22.396,19.113,30.736c-0.064,1.28-0.058,2.579-0.027,3.88C24.48,54.113,15.494,44.215,4.179,34.684
	C1.526,39.252,0,44.555,0,50.218C0,67.33,13.872,81.202,30.985,81.202S61.969,67.33,61.969,50.218
	C61.969,43.47,59.806,37.231,56.144,32.143z"/>
</svg>
