<?xml version="1.0" encoding="utf-8"?>
<!-- Generator: Adobe Illustrator 17.0.0, SVG Export Plug-In . SVG Version: 6.00 Build 0)  -->
<!DOCTYPE svg PUBLIC "-//W3C//DTD SVG 1.1 Basic//EN" "http://www.w3.org/Graphics/SVG/1.1/DTD/svg11-basic.dtd">
<svg version="1.1" baseProfile="basic" id="Слой_1"
	 xmlns="http://www.w3.org/2000/svg" xmlns:xlink="http://www.w3.org/1999/xlink" x="0px" y="0px" width="292.386px"
	 height="275.771px" viewBox="0 0 292.386 275.771" xml:space="preserve">
<polygon fill="#A8A8A8" stroke="#272525" stroke-width="3" stroke-miterlimit="10" points="557.307,189.762 557.307,189.762 
	557.306,189.761 "/>
<path fill="#A8A8A8" stroke="#272525" stroke-miterlimit="10" d="M90.442,132c-4.732,6.331-11.696,10.896-19.729,12.521
	c-0.569,0.947-2.109,4.401-3.107,6.059c-0.025,0.041-0.052,0.087-0.076,0.126c-0.027,0.043-0.051,0.079-0.077,0.12
	c-0.043,0.067-0.087,0.136-0.127,0.193c-0.062,0.089-0.121,0.168-0.175,0.233c-22.853,28.248,15.832,45.466,22.015,60.621
	c7.969,19.45-0.48,44.291,10.205,53.021c-4.887-46.912,18.655-51.826,32.878-62.821c-1.846-11.239-2.774-23.081-5.509-34.02
	C123.115,149.928,108.753,133.964,90.442,132z"/>
<path fill="#A8A8A8" stroke="#272525" stroke-miterlimit="10" d="M108,139.414c8.996,6.749,15.455,17.232,17.72,28.559
	c2.735,10.939,3.663,22.781,5.509,34.02c0.235-0.182,0.475-0.361,0.705-0.546c11.05-8.907,21.826-22.75,22.975-35.276
	c2.217,11.345,4.355,21.597,5.854,28.235c-0.068-1.239-0.473-11.769-1.321-26.257c4.645,11.12,17.13,21.382,28.951,27.371
	c1.523,0.772,3.122,1.463,4.773,2.122c2.373-23.386-0.539-49.545,12.525-66.075C172.366,124.399,137.257,124.72,108,139.414z"/>
<path fill="#A8A8A8" stroke="#272525" stroke-miterlimit="10" d="M96.692,112.494c0-12.974-7.541-24.185-18.478-29.494
	c-7.977,8.217-19.133,13.33-31.49,13.33c-2.546,0-3.411-0.132-3.22-0.034c-1.851,1.917-4.107,6.558-5.418,12.23
	c0,0.001,0,0.002,0,0.002c-0.072,0.313-0.142,0.629-0.208,0.949c0,0.002-0.001,0.005-0.002,0.007
	c-0.065,0.312-0.126,0.628-0.185,0.945c-0.002,0.011-0.004,0.022-0.006,0.033c-0.057,0.311-0.111,0.624-0.162,0.939
	c-0.003,0.018-0.006,0.036-0.009,0.054c-0.05,0.311-0.096,0.623-0.139,0.937c-0.003,0.023-0.007,0.046-0.01,0.069
	c-0.042,0.307-0.08,0.616-0.115,0.926c-0.004,0.032-0.008,0.063-0.011,0.095c-0.034,0.308-0.064,0.617-0.091,0.928
	c-0.003,0.033-0.006,0.065-0.009,0.098c-0.026,0.308-0.048,0.616-0.067,0.926c-0.002,0.037-0.005,0.075-0.007,0.112
	c-0.018,0.305-0.032,0.611-0.042,0.918c-0.001,0.043-0.003,0.085-0.005,0.128c-0.01,0.303-0.015,0.607-0.017,0.912
	c0,0.046-0.001,0.092-0.001,0.138c-0.001,0.304,0.003,0.609,0.01,0.914c0.001,0.045,0.002,0.09,0.003,0.135
	c0.008,0.304,0.021,0.608,0.037,0.912c0.002,0.047,0.004,0.094,0.007,0.142c0.017,0.304,0.04,0.607,0.065,0.911
	c0.004,0.047,0.008,0.094,0.012,0.141c0.027,0.304,0.059,0.608,0.095,0.911c0.006,0.046,0.011,0.092,0.016,0.138
	c0.037,0.303,0.08,0.605,0.126,0.907c0.007,0.047,0.014,0.094,0.021,0.14c0.048,0.303,0.101,0.605,0.159,0.906
	c0.008,0.044,0.016,0.088,0.025,0.132c0.059,0.303,0.124,0.604,0.193,0.904c0.01,0.043,0.019,0.086,0.029,0.129
	c0.071,0.301,0.148,0.601,0.229,0.9c0.011,0.041,0.022,0.082,0.033,0.123c0.083,0.3,0.172,0.598,0.266,0.895
	c0.012,0.039,0.025,0.078,0.037,0.117c0.096,0.299,0.199,0.596,0.307,0.892c0.013,0.035,0.025,0.071,0.039,0.106
	c0.11,0.297,0.226,0.592,0.348,0.886c0.014,0.034,0.028,0.067,0.042,0.101c0.124,0.295,0.255,0.587,0.392,0.878
	c0.014,0.03,0.028,0.061,0.043,0.091c0.14,0.293,0.286,0.583,0.439,0.871c0.014,0.026,0.028,0.053,0.042,0.079
	c0.156,0.291,0.319,0.578,0.488,0.864c0.013,0.022,0.027,0.045,0.04,0.068c0.172,0.288,0.352,0.572,0.54,0.853
	c0.013,0.019,0.025,0.038,0.038,0.057c0.19,0.284,0.388,0.564,0.593,0.841c0.011,0.016,0.023,0.031,0.035,0.047
	c0.208,0.279,0.425,0.555,0.65,0.827c0.01,0.012,0.02,0.024,0.03,0.036c0.228,0.275,0.464,0.545,0.709,0.812
	c0.008,0.008,0.015,0.016,0.022,0.024c0.249,0.27,0.506,0.535,0.772,0.795c0.005,0.005,0.009,0.009,0.014,0.014
	c0.27,0.264,0.55,0.522,0.838,0.776c0.001,0.001,0.002,0.002,0.003,0.002c5.13,4.506,13.24,7.4,25.594,7.111
	c0.128,0.014,0.323,0.528,0.447,0.502C85.61,141.361,96.692,128.222,96.692,112.494z"/>
<path fill="#A8A8A8" stroke="#272525" stroke-miterlimit="10" d="M46.487,95.847c12.357,0,23.513-5.113,31.49-13.33
	c7.673-7.904,12.405-18.679,12.405-30.565c0-4.307-0.631-8.465-1.787-12.398c-14.662-7.402-30.726-11.91-46.732-10.187
	c-43.465,4.675-39.835,50.262-12.22,63.126c2.031,0.845,4.14,1.537,6.311,2.073C39.329,95.398,42.855,95.847,46.487,95.847z"/>
<path fill="#A8A8A8" stroke="#272525" stroke-miterlimit="10" d="M236.497,125.763c32.153-6.058,30.554-27.78,24.188-41.424
	c-0.004-0.009-0.009-0.018-0.013-0.027c-0.133-0.284-0.267-0.564-0.403-0.84c-0.005-0.011-0.011-0.021-0.016-0.032
	c-0.135-0.274-0.272-0.545-0.411-0.811c-0.007-0.013-0.014-0.026-0.02-0.039c-0.137-0.263-0.276-0.523-0.416-0.778
	c-0.01-0.018-0.02-0.035-0.03-0.053c-0.138-0.251-0.277-0.498-0.417-0.741c-0.009-0.015-0.017-0.03-0.026-0.045
	c-0.141-0.243-0.282-0.483-0.425-0.718c-0.011-0.019-0.023-0.037-0.034-0.056c-0.14-0.231-0.281-0.458-0.423-0.68
	c-0.011-0.018-0.023-0.034-0.034-0.052c-0.142-0.222-0.284-0.441-0.427-0.654c-0.009-0.013-0.018-0.026-0.027-0.04
	c-0.145-0.216-0.29-0.427-0.434-0.633c-0.007-0.01-0.014-0.02-0.022-0.03c-0.147-0.209-0.294-0.413-0.44-0.611
	c-0.002-0.002-0.003-0.004-0.005-0.007c-0.151-0.205-0.302-0.404-0.453-0.596c-0.001-0.002-0.003-0.003-0.004-0.005
	c-0.976-1.251-1.918-2.237-2.761-2.924c-3.219,0.744-6.568,1.15-10.013,1.15c-7.468,0-14.5-1.855-20.673-5.117
	C213.921,75.274,208,84.926,208,95.965c0,15.768,12.078,28.707,27.486,30.089C235.72,126.076,236.367,125.807,236.497,125.763z"/>
<path fill="#A8A8A8" stroke="#272525" stroke-miterlimit="10" d="M241.288,8.307c-14.949,1.532-28.816,8.382-41.008,17.652
	c-0.18,1.622-0.28,3.267-0.28,4.936c0,17.012,9.589,31.778,23.652,39.209c6.173,3.262,13.205,5.117,20.673,5.117
	c3.296,0,6.504-0.372,9.595-1.055c0.14-0.031,2.544-1.372,3.835-1.872C291.518,59.212,289.334,3.382,241.288,8.307z"/>
<path fill="#A8A8A8" stroke="#272525" stroke-miterlimit="10" d="M145.49,106.708c-17.112,0-30.985-13.872-30.985-30.985
	c0-5.663,1.526-10.965,4.179-15.533C109.869,52.765,99.64,45.564,88.618,40c1.156,3.933,1.787,8.091,1.787,12.398
	c0,11.886-4.732,22.661-12.405,30.565c10.937,5.309,18.478,16.52,18.478,29.494c0,7.349-2.422,14.129-6.508,19.595
	c6.867,0.737,13.179,3.443,18.577,7.493c13.817-6.939,28.939-10.67,44.562-11.923c-0.86-7.105-1.561-14.21-2.655-21.315
	C148.838,106.568,147.181,106.708,145.49,106.708z"/>
<path fill="#A8A8A8" stroke="#272525" stroke-miterlimit="10" d="M209.014,96.11c0-11.039,5.921-20.691,14.758-25.965
	c-14.063-7.431-23.652-22.196-23.652-39.209c0-1.669,0.1-3.315,0.28-4.936c-11.832,8.997-22.082,20.274-30.205,31.187
	c3.662,5.088,5.825,11.327,5.825,18.074c0,15.422-11.268,28.207-26.02,30.584c1.094,7.105,1.795,14.21,2.655,21.315
	c17.458-1.401,35.542,0.293,53.129,4.076c3.613-4.571,8.443-8.409,14.95-11.245C213.607,114.467,209.014,105.829,209.014,96.11z"/>
<path fill="#A8A8A8" stroke="#272525" stroke-miterlimit="10" d="M170.143,57.146c-9.276,12.463-15.778,24.452-18.686,32.028
	c-0.507-2.633-1.037-5.088-1.593-7.31c-0.415-4.32,4.576-21.146,9.245-34.218c2.296-6.427,4.514-11.951,5.973-14.624
	c9.648-4.678,3.978-15.47-2.397,0.08c-1.662,4.044-3.363,9.103-4.911,13.899c-1.948,6.037-3.653,11.658-4.722,14.31
	c-10.24,24.9-8.468,13.089-26.909-10.682c-1.563-2.015-3.254-4.106-5.128-6.278c-1.446-15.017-10.982-4.771-1.708,0.578
	c1.581,1.969,3.448,4.308,5.428,6.851c7.51,9.641,16.749,22.396,19.113,30.736c-0.064,1.28-0.058,2.579-0.027,3.88
	c-5.342-7.279-14.328-17.178-25.642-26.708C115.526,64.256,114,69.559,114,75.221c0,17.112,13.872,30.985,30.985,30.985
	s30.985-13.872,30.985-30.985C175.968,68.473,173.805,62.234,170.143,57.146z"/>
<path fill="#A8A8A8" stroke="#272525" stroke-miterlimit="10" d="M233.195,196.214c2.935-16.109,37.187-40.991,8.957-63.864
	c-0.065-0.052-0.137-0.117-0.214-0.189c-0.134-0.128-0.292-0.294-0.462-0.479c-0.046-0.05-0.089-0.096-0.136-0.149
	c-0.002-0.003-0.005-0.005-0.007-0.008c-1.39-1.568-3.521-4.497-4.132-5.113l-0.004-0.002c-0.085-0.05-0.17-0.099-0.255-0.148
	c-6.184-0.411-11.855-2.687-16.467-6.262c-30.037,13.089-24.445,47.466-27.475,77.319c15.907,6.346,36.674,9.679,41.24,52.877
	C242.879,239.431,229.462,216.893,233.195,196.214z"/>
</svg>
