<?xml version="1.0" encoding="utf-8"?>
<!-- Generator: Adobe Illustrator 17.0.0, SVG Export Plug-In . SVG Version: 6.00 Build 0)  -->
<!DOCTYPE svg PUBLIC "-//W3C//DTD SVG 1.1 Basic//EN" "http://www.w3.org/Graphics/SVG/1.1/DTD/svg11-basic.dtd">
<svg version="1.1" baseProfile="basic" id="Слой_1"
	 xmlns="http://www.w3.org/2000/svg" xmlns:xlink="http://www.w3.org/1999/xlink" x="0px" y="0px" width="292.386px"
	 height="275.771px" viewBox="0 0 292.386 275.771" xml:space="preserve">
<polygon fill="#A8A8A8" stroke="#272525" stroke-width="3" stroke-miterlimit="10" points="557.307,189.762 557.307,189.762 
	557.306,189.761 "/>
<g>
	<path fill="#A8A8A8" stroke="#272525" stroke-miterlimit="10" d="M240.84,8.307c-46.023,4.715-81.82,59.82-89.899,80.867
		c-0.507-2.633-1.037-5.088-1.593-7.31c-0.619-6.444,10.792-40.73,15.218-48.842c9.648-4.678,3.978-15.47-2.397,0.08
		c-3.753,9.135-7.715,23.45-9.633,28.208c-11.108,27.01-8.06,10.835-32.038-16.96c-1.446-15.018-10.982-4.771-1.708,0.578
		c7.575,9.437,21.554,27.047,24.541,37.587c-0.064,1.28-0.058,2.579-0.027,3.88C128.265,65.9,84.345,24.629,40.865,29.31
		C-8.976,34.671,3.104,93.833,42.27,95.756c-1.851,1.917-4.107,6.558-5.418,12.23c0,0.001,0,0.002,0,0.002
		c-0.073,0.314-0.142,0.632-0.209,0.952c0,0.001,0,0.002-0.001,0.003c-0.065,0.313-0.127,0.628-0.185,0.946
		c-0.002,0.011-0.004,0.022-0.006,0.033c-0.057,0.311-0.111,0.624-0.162,0.939c-0.003,0.018-0.006,0.036-0.009,0.054
		c-0.05,0.311-0.096,0.623-0.139,0.937c-0.003,0.023-0.007,0.046-0.01,0.069c-0.042,0.308-0.08,0.617-0.115,0.928
		c-0.004,0.031-0.007,0.062-0.011,0.094c-0.034,0.308-0.064,0.618-0.091,0.929c-0.003,0.032-0.006,0.065-0.009,0.097
		c-0.026,0.308-0.048,0.617-0.067,0.927c-0.002,0.037-0.005,0.074-0.007,0.111c-0.018,0.305-0.032,0.611-0.042,0.918
		c-0.001,0.043-0.004,0.085-0.005,0.128c-0.009,0.303-0.015,0.607-0.017,0.912c0,0.046-0.001,0.092-0.001,0.138
		c-0.001,0.304,0.003,0.609,0.01,0.914c0.001,0.045,0.002,0.09,0.003,0.135c0.008,0.304,0.021,0.608,0.037,0.912
		c0.003,0.047,0.004,0.095,0.007,0.142c0.017,0.304,0.04,0.607,0.065,0.91c0.004,0.047,0.008,0.094,0.012,0.141
		c0.027,0.304,0.059,0.607,0.095,0.911c0.005,0.046,0.011,0.093,0.016,0.139c0.037,0.303,0.08,0.604,0.126,0.906
		c0.007,0.047,0.014,0.094,0.022,0.142c0.048,0.302,0.101,0.604,0.159,0.905c0.008,0.044,0.017,0.089,0.025,0.133
		c0.059,0.302,0.124,0.603,0.193,0.903c0.01,0.043,0.02,0.087,0.03,0.131c0.071,0.301,0.147,0.6,0.228,0.898
		c0.011,0.042,0.022,0.083,0.034,0.125c0.083,0.3,0.172,0.598,0.266,0.894c0.012,0.039,0.025,0.078,0.037,0.117
		c0.096,0.299,0.199,0.596,0.307,0.892c0.013,0.035,0.026,0.071,0.039,0.106c0.11,0.297,0.226,0.592,0.348,0.884
		c0.014,0.034,0.028,0.069,0.043,0.103c0.124,0.294,0.254,0.586,0.391,0.876c0.015,0.031,0.029,0.062,0.044,0.093
		c0.139,0.292,0.285,0.582,0.437,0.869c0.014,0.027,0.029,0.054,0.043,0.082c0.155,0.29,0.318,0.577,0.487,0.861
		c0.014,0.023,0.028,0.047,0.042,0.07c0.172,0.287,0.352,0.57,0.538,0.851c0.013,0.02,0.026,0.04,0.04,0.06
		c0.19,0.284,0.388,0.564,0.593,0.84c0.011,0.015,0.023,0.03,0.034,0.046c0.209,0.28,0.426,0.556,0.651,0.828
		c0.01,0.012,0.019,0.023,0.029,0.035c0.228,0.275,0.464,0.545,0.709,0.812c0.008,0.009,0.016,0.017,0.024,0.026
		c0.248,0.269,0.505,0.534,0.771,0.794c0.005,0.005,0.01,0.01,0.015,0.015c0.27,0.263,0.549,0.522,0.838,0.775
		c0.001,0.001,0.002,0.002,0.003,0.002c5.13,4.506,13.24,7.4,25.594,7.111c0.128,0.014,0.255,0.026,0.372,0.029
		c0.005,0.074-0.004,0.155-0.005,0.231c-0.078,0.071-0.156,0.141-0.233,0.212l0.004,0.002c-0.51,0.775-2.135,4.445-3.172,6.166
		c-0.025,0.041-0.051,0.086-0.075,0.124c-0.027,0.044-0.052,0.081-0.079,0.121c-0.043,0.066-0.086,0.134-0.125,0.191
		c-0.062,0.089-0.121,0.169-0.175,0.234c-22.853,28.248,15.832,45.466,22.015,60.621c7.969,19.45-0.481,44.291,10.205,53.021
		c-4.968-47.688,19.449-51.972,33.583-63.367c11.05-8.907,21.826-22.75,22.975-35.276c2.217,11.345,4.355,21.597,5.854,28.235
		c-0.069-1.239-0.473-11.77-1.321-26.257c4.645,11.12,17.13,21.382,28.951,27.371c16.193,8.205,40.974,7.316,46.013,54.999
		c8.639-10.764-4.778-33.302-1.045-53.981c2.935-16.109,37.187-40.991,8.957-63.864c-0.065-0.052-0.137-0.117-0.213-0.189
		c-0.134-0.128-0.292-0.294-0.462-0.479c-0.046-0.05-0.089-0.096-0.136-0.149c-0.002-0.003-0.005-0.005-0.007-0.008
		c-1.39-1.568-3.521-4.497-4.132-5.113l-0.004-0.002c-0.092-0.054-0.186-0.108-0.278-0.162c-0.014-0.072-0.04-0.148-0.048-0.219
		c0.122-0.031,0.25-0.071,0.38-0.115c32.153-6.058,30.554-27.781,24.187-41.425c-0.003-0.007-0.007-0.014-0.01-0.021
		c-0.133-0.285-0.268-0.567-0.406-0.845c-0.005-0.011-0.011-0.021-0.016-0.032c-0.135-0.274-0.272-0.545-0.411-0.811
		c-0.007-0.013-0.014-0.026-0.021-0.039c-0.137-0.263-0.276-0.523-0.416-0.778c-0.01-0.017-0.019-0.034-0.029-0.052
		c-0.138-0.251-0.277-0.499-0.418-0.742c-0.009-0.015-0.017-0.029-0.026-0.044c-0.141-0.244-0.283-0.485-0.426-0.72
		c-0.009-0.016-0.019-0.03-0.028-0.046c-0.142-0.234-0.285-0.464-0.428-0.688c-0.011-0.017-0.021-0.033-0.032-0.049
		c-0.143-0.224-0.286-0.443-0.429-0.658c-0.006-0.009-0.013-0.018-0.019-0.028c-0.147-0.219-0.294-0.434-0.441-0.644
		c-0.007-0.01-0.014-0.02-0.021-0.03c-0.147-0.209-0.294-0.413-0.44-0.611c-0.001-0.002-0.003-0.003-0.004-0.005
		c-1.376-1.86-2.721-3.248-3.825-3.99C291.177,63.577,290.722,3.194,240.84,8.307z"/>
	<path fill="#A8A8A8" stroke="#272525" stroke-miterlimit="10" d="M160.3,194.082c-0.004-0.015-0.007-0.033-0.011-0.049
		C160.298,194.183,160.302,194.211,160.3,194.082z"/>
</g>
</svg>
