<?xml version="1.0" encoding="utf-8"?>
<!-- Generator: Adobe Illustrator 17.0.0, SVG Export Plug-In . SVG Version: 6.00 Build 0)  -->
<!DOCTYPE svg PUBLIC "-//W3C//DTD SVG 1.1 Basic//EN" "http://www.w3.org/Graphics/SVG/1.1/DTD/svg11-basic.dtd">
<svg version="1.1" baseProfile="basic" id="Слой_1"
	 xmlns="http://www.w3.org/2000/svg" xmlns:xlink="http://www.w3.org/1999/xlink" x="0px" y="0px" width="59.693px"
	 height="61.532px" viewBox="0 0 59.693 61.532" xml:space="preserve">
<path fill="#D35F54" d="M59.693,29.494C59.693,16.52,52.152,5.309,41.215,0c-7.977,8.217-19.133,13.33-31.49,13.33
	c-2.546,0-3.411-0.132-3.22-0.034c-1.851,1.917-4.107,6.558-5.418,12.23c0,0.001,0,0.002,0,0.002
	c-0.072,0.313-0.142,0.629-0.208,0.949c0,0.002-0.001,0.005-0.002,0.007c-0.065,0.312-0.126,0.628-0.185,0.945
	c-0.002,0.011-0.004,0.022-0.006,0.033c-0.057,0.311-0.111,0.624-0.162,0.939c-0.003,0.018-0.006,0.036-0.009,0.054
	c-0.05,0.31-0.096,0.623-0.139,0.937c-0.003,0.023-0.007,0.046-0.01,0.069c-0.042,0.307-0.08,0.616-0.115,0.926
	c-0.004,0.032-0.008,0.063-0.011,0.095c-0.034,0.308-0.064,0.617-0.091,0.928c-0.003,0.033-0.006,0.065-0.009,0.098
	c-0.026,0.308-0.048,0.616-0.067,0.926c-0.002,0.037-0.005,0.075-0.007,0.112c-0.018,0.305-0.032,0.611-0.042,0.918
	c-0.001,0.043-0.003,0.085-0.005,0.128c-0.01,0.303-0.015,0.607-0.017,0.912C0.001,34.55,0,34.595,0,34.641
	c-0.001,0.304,0.003,0.609,0.01,0.914c0.001,0.045,0.002,0.09,0.003,0.135c0.008,0.304,0.021,0.608,0.037,0.912
	c0.002,0.047,0.004,0.094,0.007,0.142c0.017,0.304,0.04,0.607,0.065,0.911c0.004,0.047,0.008,0.094,0.012,0.141
	c0.027,0.304,0.059,0.608,0.095,0.911c0.006,0.046,0.011,0.092,0.016,0.138c0.037,0.303,0.08,0.605,0.126,0.907
	c0.007,0.047,0.014,0.094,0.021,0.14c0.048,0.303,0.101,0.605,0.159,0.906c0.008,0.044,0.016,0.088,0.025,0.132
	c0.059,0.303,0.124,0.604,0.193,0.904c0.01,0.043,0.019,0.086,0.029,0.129c0.071,0.301,0.148,0.601,0.229,0.9
	c0.011,0.041,0.022,0.082,0.033,0.123c0.083,0.3,0.172,0.598,0.266,0.895C1.34,43.922,1.353,43.961,1.365,44
	c0.096,0.299,0.199,0.596,0.307,0.892c0.013,0.035,0.025,0.071,0.039,0.106c0.11,0.297,0.226,0.592,0.348,0.886
	c0.014,0.034,0.028,0.067,0.042,0.101c0.124,0.295,0.255,0.587,0.392,0.878c0.014,0.03,0.028,0.061,0.043,0.091
	c0.14,0.293,0.286,0.583,0.439,0.871c0.014,0.026,0.028,0.053,0.042,0.079c0.156,0.291,0.319,0.578,0.488,0.864
	c0.013,0.022,0.027,0.045,0.04,0.068c0.172,0.288,0.352,0.572,0.54,0.853c0.013,0.019,0.025,0.038,0.038,0.057
	c0.19,0.284,0.388,0.564,0.593,0.841c0.011,0.016,0.023,0.031,0.035,0.047c0.208,0.279,0.425,0.555,0.65,0.827
	c0.01,0.012,0.02,0.024,0.03,0.036c0.228,0.275,0.464,0.545,0.709,0.812c0.008,0.008,0.015,0.016,0.022,0.024
	c0.249,0.27,0.506,0.535,0.772,0.795c0.005,0.005,0.009,0.009,0.014,0.014c0.27,0.264,0.55,0.522,0.838,0.776
	c0.001,0.001,0.002,0.002,0.003,0.002c5.13,4.506,13.24,7.4,25.594,7.111c0.128,0.014,0.323,0.528,0.447,0.502
	C48.611,58.361,59.693,45.222,59.693,29.494z"/>
</svg>
