<?xml version="1.0" encoding="utf-8"?>
<!-- Generator: Adobe Illustrator 17.0.0, SVG Export Plug-In . SVG Version: 6.00 Build 0)  -->
<!DOCTYPE svg PUBLIC "-//W3C//DTD SVG 1.1 Basic//EN" "http://www.w3.org/Graphics/SVG/1.1/DTD/svg11-basic.dtd">
<svg version="1.1" baseProfile="basic" id="Слой_1"
	 xmlns="http://www.w3.org/2000/svg" xmlns:xlink="http://www.w3.org/1999/xlink" x="0px" y="0px" width="292.386px"
	 height="275.771px" viewBox="0 0 292.386 275.771" xml:space="preserve">
<g>
	<path fill="#933331" stroke="#FFFFFF" stroke-width="6" stroke-miterlimit="10" d="M240.84,8.307
		c-46.023,4.715-81.82,59.82-89.899,80.868c-0.507-2.633-1.037-5.088-1.593-7.31c-0.619-6.444,10.792-40.73,15.218-48.842
		c9.648-4.678,3.978-15.47-2.397,0.08c-3.753,9.135-7.715,23.45-9.633,28.208c-11.108,27.01-8.06,10.835-32.038-16.96
		c-1.446-15.018-10.982-4.771-1.708,0.578c7.575,9.437,21.554,27.047,24.541,37.587c-0.064,1.28-0.058,2.579-0.027,3.88
		C128.265,65.9,84.345,24.629,40.865,29.31C-8.976,34.671,3.104,93.833,42.27,95.756c-1.952,2.022-4.356,7.075-5.625,13.173
		c-0.001,0.005-0.002,0.011-0.003,0.016c-0.065,0.311-0.126,0.624-0.184,0.94c-0.002,0.012-0.005,0.024-0.007,0.037
		c-0.057,0.31-0.111,0.623-0.162,0.938c-0.003,0.018-0.006,0.036-0.009,0.054c-0.05,0.309-0.095,0.621-0.138,0.934
		c-0.003,0.025-0.007,0.049-0.01,0.073c-0.042,0.307-0.079,0.615-0.114,0.925c-0.004,0.032-0.008,0.064-0.011,0.096
		c-0.034,0.306-0.064,0.613-0.091,0.921c-0.003,0.036-0.007,0.072-0.01,0.108c-0.026,0.306-0.048,0.614-0.067,0.923
		c-0.002,0.038-0.005,0.075-0.007,0.113c-0.018,0.306-0.032,0.613-0.042,0.921c-0.001,0.041-0.003,0.082-0.005,0.124
		c-0.01,0.305-0.015,0.611-0.017,0.918c0,0.043-0.001,0.087-0.001,0.13c-0.001,0.304,0.003,0.609,0.01,0.914
		c0.001,0.046,0.002,0.092,0.003,0.139c0.008,0.303,0.021,0.606,0.037,0.909c0.003,0.049,0.005,0.097,0.007,0.146
		c0.017,0.303,0.039,0.606,0.065,0.909c0.004,0.047,0.008,0.095,0.012,0.142c0.027,0.302,0.059,0.603,0.094,0.904
		c0.006,0.049,0.011,0.099,0.017,0.149c0.037,0.301,0.079,0.601,0.125,0.9c0.007,0.048,0.014,0.096,0.022,0.144
		c0.048,0.301,0.101,0.602,0.158,0.901c0.009,0.046,0.017,0.092,0.026,0.138c0.059,0.3,0.123,0.599,0.192,0.898
		c0.01,0.045,0.02,0.09,0.031,0.135c0.071,0.3,0.147,0.598,0.228,0.895c0.012,0.042,0.023,0.085,0.035,0.128
		c0.083,0.299,0.172,0.597,0.266,0.893c0.013,0.039,0.025,0.079,0.037,0.118c0.096,0.299,0.199,0.595,0.306,0.89
		c0.013,0.036,0.026,0.072,0.039,0.108c0.11,0.297,0.226,0.592,0.348,0.885c0.014,0.034,0.028,0.067,0.042,0.101
		c0.124,0.295,0.255,0.588,0.392,0.878c0.014,0.03,0.028,0.06,0.042,0.09c0.139,0.293,0.286,0.583,0.438,0.871
		c0.014,0.027,0.028,0.054,0.043,0.08c0.155,0.29,0.318,0.577,0.487,0.861c0.014,0.023,0.028,0.047,0.042,0.07
		c0.172,0.287,0.352,0.571,0.539,0.852c0.013,0.019,0.025,0.038,0.038,0.057c0.19,0.284,0.388,0.564,0.594,0.841
		c0.012,0.016,0.023,0.031,0.035,0.047c0.209,0.28,0.425,0.555,0.65,0.827c0.01,0.012,0.02,0.024,0.03,0.036
		c0.228,0.275,0.464,0.545,0.709,0.812c0.008,0.008,0.015,0.016,0.023,0.024c0.249,0.27,0.506,0.535,0.773,0.795
		c0.004,0.004,0.009,0.008,0.013,0.013c0.27,0.264,0.55,0.522,0.839,0.776c0.001,0.001,0.002,0.002,0.004,0.003
		c5.125,4.502,13.227,7.395,25.563,7.111c0.14,0.015,0.275,0.027,0.402,0.03c0.005,0.073-0.004,0.154-0.005,0.229
		c-0.078,0.071-0.156,0.141-0.233,0.212l0.004,0.002c-0.51,0.775-2.137,4.449-3.174,6.169c-0.024,0.039-0.049,0.083-0.073,0.12
		c-0.029,0.046-0.055,0.085-0.083,0.128c-0.041,0.064-0.084,0.131-0.122,0.186c-0.062,0.089-0.121,0.169-0.175,0.234
		c-22.853,28.248,15.832,45.466,22.015,60.621c7.969,19.45-0.481,44.291,10.205,53.021c-4.968-47.688,19.449-51.972,33.583-63.367
		c11.049-8.906,21.825-22.748,22.974-35.273c2.217,11.346,4.355,21.594,5.855,28.233c-0.069-1.237-0.473-11.768-1.321-26.258
		c4.645,11.121,17.13,21.382,28.951,27.372c16.193,8.205,40.974,7.316,46.013,54.999c8.639-10.764-4.778-33.302-1.045-53.982
		c2.935-16.109,37.187-40.991,8.957-63.864c-0.065-0.052-0.137-0.117-0.213-0.189c-0.134-0.128-0.292-0.293-0.461-0.478
		c-0.045-0.049-0.088-0.095-0.135-0.147c-0.004-0.005-0.008-0.01-0.012-0.014c-1.39-1.568-3.519-4.494-4.129-5.11l-0.004-0.002
		c-0.092-0.055-0.186-0.108-0.278-0.162c-0.015-0.073-0.04-0.148-0.048-0.219c0.122-0.031,0.249-0.071,0.38-0.115
		c31.465-5.928,30.607-26.858,24.589-40.538c-0.001-0.002-0.002-0.004-0.003-0.006c-0.131-0.297-0.264-0.592-0.399-0.882
		c-0.002-0.005-0.005-0.01-0.007-0.015c-0.134-0.287-0.27-0.57-0.408-0.849c-0.005-0.011-0.011-0.021-0.016-0.032
		c-0.135-0.273-0.272-0.543-0.41-0.809c-0.008-0.016-0.016-0.031-0.024-0.046c-0.136-0.261-0.274-0.519-0.413-0.773
		c-0.009-0.016-0.018-0.032-0.027-0.049c-0.138-0.251-0.278-0.499-0.418-0.743c-0.011-0.019-0.021-0.036-0.032-0.055
		c-0.14-0.241-0.28-0.479-0.421-0.712c-0.008-0.014-0.017-0.027-0.026-0.041c-0.143-0.235-0.287-0.467-0.431-0.693
		c-0.01-0.015-0.019-0.029-0.029-0.044c-0.143-0.224-0.287-0.445-0.431-0.66c-0.01-0.015-0.02-0.028-0.029-0.043
		c-0.144-0.214-0.288-0.425-0.432-0.63c-0.008-0.012-0.017-0.023-0.025-0.035c-0.146-0.207-0.291-0.409-0.437-0.606
		c-0.002-0.003-0.004-0.005-0.006-0.008c-1.376-1.859-2.72-3.246-3.823-3.987C291.177,63.577,290.722,3.194,240.84,8.307z"/>
	<path fill="#933331" stroke="#FFFFFF" stroke-width="6" stroke-miterlimit="10" d="M160.3,194.082
		c-0.004-0.016-0.007-0.033-0.011-0.048C160.298,194.183,160.302,194.211,160.3,194.082z"/>
</g>
<polygon fill="#A8A8A8" stroke="#272525" stroke-width="3" stroke-miterlimit="10" points="557.307,189.762 557.307,189.762 
	557.306,189.761 "/>
<g id="РЎР_x00bb_РѕР_x2116__x0020_1">
	<path fill="#E6AA43" d="M149.462,93.882c3.339-15.671,41.309-80.446,91.378-85.576c49.882-5.113,50.337,55.271,12.445,65.301
		c7.943,5.336,28.376,44.087-16.73,52.334c0.176,1.639,1.915,3.635,5.289,6.36c28.23,22.873-6.022,47.755-8.957,63.864
		c-3.733,20.68,9.684,43.217,1.045,53.981c-5.039-47.683-29.82-46.794-46.013-54.999c-14.095-7.141-29.138-20.355-30.704-33.857
		L149.462,93.882z"/>
	<path fill="#DA7E2E" d="M247.962,89.407c8.078,12.682-0.463,23.213-11.452,24.461c-20.996,2.376-43.08-21.755-75.415,10.64
		c16.502-35.335,69.702-62.053,86.863-35.103L247.962,89.407z"/>
	<path fill="#E19835" d="M236.894,126.363c0.752,0.76,3.812,5.029,4.951,5.939c28.23,22.873-6.022,47.755-8.957,63.864
		c-3.733,20.68,9.684,43.217,1.045,53.981c-5.039-47.683-29.82-46.794-46.013-54.999c-14.095-7.141-28.467-20.445-30.704-33.857
		l-1.865-11.355c18.979-48.66,52.971-40.41,81.539-23.575L236.894,126.363z"/>
	<path fill="#D3602E" d="M195.958,190.187c-6.92-1.419-7.179-3.353-10.414-6.574c-14.853-14.788-12.753-47.235,11.572-50.978
		c18.915-2.89,34.712,25.477,18.821,33.717c-13.631,7.079-18.761-5.138-15.379-9.188c1.563-1.816,4.853-2.015,9.922,1.982
		c-1.195-18.651-21.019-12.498-22.955-0.446c-2.002,12.429,16.637,24.722,33.602,13.251c21.358-14.455,7.031-46.113-14.384-51.173
		c-21.438-5.074-49.672,17.029-44.499,47.583c1.395,8.172,8.093,12.029,14.274,17.045c1.682,1.349,18.281,4.526,19.439,4.775
		L195.958,190.187z"/>
	<path fill="#CB2A2D" d="M237.02,126.698c0.696,0.675,3.812,4.793,4.824,5.603c28.23,22.873-6.022,47.755-8.957,63.864
		c-3.733,20.68,9.684,43.217,1.045,53.981c-5.039-47.683-29.82-46.794-46.013-54.999c-14.095-7.141-28.467-20.445-30.704-33.857
		l-1.865-11.355c0.775-1.033,1.531-2.034,2.331-2.983C172.298,215.57,269.205,185.672,237.02,126.698L237.02,126.698z"/>
	<path fill="#D66F2F" d="M149.462,93.882c0.152-0.773,0.409-1.653,0.729-2.644c5.366-12.611,13.559-21.104,23.525-33.421
		c3.518-4.339,16.949-14.261,18.5-18.392c0.668-1.777,5.641-5.7,7.537-6.484c1.403-0.412,6.976-4.121,7.517-4.186
		c-18.165,11.614-16.861,49.242-35.306,61.024c-5.914,3.8-13.141,6.984-22.036,8.239L149.462,93.882z"/>
	<path fill="#F0C759" d="M151.988,103.405c38.044-7.649,39.668-30.319,47.26-45.286c2.526-4.995,5.418-9.512,10.744-13.411
		c25.037-18.318,39.046,15.964,15.941,21.792c21.277,3.926,33.498-14.75,19.59-30.231c-9.866-10.969-32.803-9.247-43.371,6.741
		c-8.16,12.389-12.732,29.441-18.082,38.017c-6.978,11.277-18.411,19.929-32.9,19.723c-5.989-0.078,0.742,2.658,0.82,2.651
		L151.988,103.405z"/>
	<path fill="#DA8033" d="M149.462,93.882c3.339-15.671,41.309-80.446,91.378-85.576c49.882-5.113,50.337,55.271,12.445,65.301
		c7.86,5.288,27.884,43.184-15.213,52.024c-0.507-0.13-1.532,0.527-2.033,0.385c-1.618-1.26-5.613-3.173-7.492-4.247
		c29.751-0.737,37.305-35.177,8.65-47.608c32.998-2.226,28.848-55.848-10.604-51.703c-25.29,2.672-56.959,42.682-70.807,64.532
		c-5.408,8.558-4.762,13.701-4.959,13.66L149.462,93.882z"/>
	<path fill="#D15732" d="M244.779,94.664c6.604,10.23-0.557,15.488-9.927,15.75c-9.589,0.278-18.219-3.005-25.98-4.595
		c-11.347-2.322-21.538-2.455-35.621,5.906C196.444,85.584,232.942,76.344,244.779,94.664L244.779,94.664z"/>
	<path fill="#CB2A2D" d="M188.789,101.78c2.309-2.744,15.407-10.844,24.385-12.618c10.951-2.183,19.044-0.296,23.484,2.975
		c13.472,9.919-2.294,14.553-12.533,11.748C213.192,100.91,205.155,94.664,188.789,101.78L188.789,101.78z"/>
	<path fill="#E6AA43" d="M148.043,94.023c-6.519-14.63-57.145-70.099-107.179-64.713C-8.976,34.671,3.104,93.833,42.27,95.756
		c-6.658,6.897-18.587,49.033,27.249,47.729c0.142,1.636-1.119,3.945-3.861,7.315c-22.853,28.248,15.832,45.466,22.015,60.621
		c7.969,19.45-0.481,44.291,10.205,53.021c-4.968-47.688,19.449-51.972,33.583-63.367c12.308-9.921,24.285-25.967,22.985-39.494
		L148.043,94.023z"/>
	<path fill="#DA7E2E" d="M50.756,110.111c-5.264,14.071,5.269,22.619,16.294,21.554c21.034-2.044,37.631-30.235,75.991-5.25
		C119.556,95.279,61.944,80.209,50.756,110.111L50.756,110.111z"/>
	<path fill="#E19835" d="M69.284,143.963c-0.593,0.901-2.697,5.726-3.627,6.837c-22.853,28.248,15.832,45.466,22.015,60.621
		c7.969,19.45-0.481,44.291,10.205,53.021c-4.968-47.688,19.449-51.972,33.583-63.367c12.308-9.921,23.608-25.922,22.985-39.494
		l-0.51-11.512c-28.678-43.637-60.232-28.499-84.656-6.107L69.284,143.963z"/>
	<path fill="#D3602E" d="M122.571,197.879c6.474-2.816,6.317-4.743,8.819-8.577c11.469-17.547,2.65-48.858-21.916-47.451
		c-19.102,1.087-28.662,32.113-11.387,36.882c14.814,4.087,17.269-8.935,13.107-12.178c-1.896-1.477-5.154-0.971-9.284,3.985
		c-2.693-18.502,17.969-16.591,22.384-5.2c4.54,11.741-11.157,27.649-30.134,19.941c-23.896-9.704-16.457-43.628,3.438-53.041
		c19.932-9.412,52.129,6.327,53.402,37.312c0.334,8.263-5.403,13.43-10.431,19.631C139.249,190.848,123.647,197.387,122.571,197.879
		L122.571,197.879z"/>
	<path fill="#CB2A2D" d="M69.222,144.316c-0.546,0.829-2.742,5.505-3.564,6.484c-22.853,28.248,15.832,45.466,22.015,60.621
		c7.969,19.45-0.481,44.291,10.205,53.021c-4.968-47.688,19.449-51.972,33.583-63.367c12.308-9.921,23.608-25.922,22.985-39.494
		l-0.51-11.512c-0.966-0.836-1.945-1.648-2.911-2.41C150.985,217.799,49.981,208.696,69.222,144.316L69.222,144.316z"/>
	<path fill="#D66F2F" d="M148.043,94.023c-0.311-0.715-0.746-1.527-1.274-2.43c-7.843-11.208-17.653-17.827-29.944-27.793
		c-4.359-3.519-19.537-10.429-21.935-14.164c-1-1.585-6.685-4.389-8.717-4.75c-1.439-0.133-7.649-2.601-8.223-2.543
		c20.209,7.585,26.734,44.677,47.216,52.352c6.596,2.48,14.33,4.107,23.26,3.48L148.043,94.023z"/>
	<path fill="#F0C759" d="M147.562,103.872c-38.822,0.426-45.119-21.422-55.652-34.487c-3.519-4.356-7.281-8.181-13.28-10.878
		c-28.298-12.723-34.916,23.722-11.078,24.64c-20.017,8.241-35.848-7.479-25.44-25.507c7.352-12.788,30.163-15.863,43.803-2.419
		c10.58,10.421,18.6,26.149,25.597,33.442c9.19,9.566,22.161,15.654,36.27,12.445C153.643,99.791,147.636,103.862,147.562,103.872
		L147.562,103.872z"/>
	<path fill="#DA8033" d="M148.043,94.023c-6.519-14.63-57.145-70.099-107.179-64.713C-8.976,34.671,3.104,93.833,42.27,95.756
		c-6.578,6.822-18.308,48.05,25.684,47.749c0.503-0.235,1.627,0.19,2.064-0.067c1.336-1.559,4.839-4.248,6.431-5.695
		c-29.223,5.475-43.791-26.657-18.33-44.773c-32.735,4.67-39.819-48.621-0.369-52.772c25.294-2.659,64.581,29.908,82.679,48.411
		c7.07,7.23,7.517,12.409,7.673,12.321L148.043,94.023z"/>
	<path fill="#D15732" d="M54.959,114.6c-4.329,11.389,3.792,15.034,12.978,13.338c9.454-1.715,17.185-6.717,24.472-9.887
		c10.634-4.632,20.568-6.878,36.068-1.607C100.351,95.662,62.744,94.229,54.959,114.6L54.959,114.6z"/>
	<path fill="#CB2A2D" d="M111.205,109.924c-2.816-2.193-17.309-7.407-26.454-7.282c-11.182,0.145-18.725,3.686-22.361,7.794
		c-11.116,12.492,5.256,13.754,14.703,8.914c10.09-5.199,16.64-12.981,34.108-9.428L111.205,109.924z"/>
	<path fill="#933331" d="M143.332,82.515c-0.364,7.34,1.087,15.277,1.261,20.918c0.429,15.606,11.1,70.265,15.707,90.649
		c0.031,3.146-2.722-79.322-10.951-112.219c-0.619-6.444,10.792-40.73,15.218-48.842c9.648-4.678,3.978-15.47-2.397,0.08
		c-3.753,9.135-7.715,23.45-9.633,28.208c-11.108,27.01-8.06,10.835-32.038-16.96c-1.446-15.018-10.982-4.771-1.708,0.578
		C126.366,54.365,140.346,71.975,143.332,82.515L143.332,82.515z"/>
</g>
</svg>
