<?xml version="1.0" encoding="utf-8"?>
<!-- Generator: Adobe Illustrator 17.0.0, SVG Export Plug-In . SVG Version: 6.00 Build 0)  -->
<!DOCTYPE svg PUBLIC "-//W3C//DTD SVG 1.1 Basic//EN" "http://www.w3.org/Graphics/SVG/1.1/DTD/svg11-basic.dtd">
<svg version="1.1" baseProfile="basic" id="Слой_1"
	 xmlns="http://www.w3.org/2000/svg" xmlns:xlink="http://www.w3.org/1999/xlink" x="0px" y="0px" width="97.691px"
	 height="74.993px" viewBox="0 0 97.691 74.993" xml:space="preserve">
<path fill="#7566A9" d="M0,12.414c8.996,6.749,15.455,17.233,17.72,28.559c2.735,10.939,3.663,22.781,5.509,34.02
	c0.235-0.182,0.475-0.361,0.705-0.546c11.05-8.907,21.826-22.75,22.975-35.276c2.217,11.345,4.355,21.597,5.854,28.235
	c-0.069-1.239-0.473-11.769-1.321-26.257c4.645,11.12,17.13,21.382,28.951,27.371c1.523,0.772,3.122,1.463,4.773,2.122
	c2.373-23.386-0.539-49.545,12.525-66.075C64.366-2.602,29.257-2.28,0,12.414z"/>
</svg>
