<?xml version="1.0" encoding="utf-8"?>
<!-- Generator: Adobe Illustrator 17.0.0, SVG Export Plug-In . SVG Version: 6.00 Build 0)  -->
<!DOCTYPE svg PUBLIC "-//W3C//DTD SVG 1.1 Basic//EN" "http://www.w3.org/Graphics/SVG/1.1/DTD/svg11-basic.dtd">
<svg version="1.1" baseProfile="basic" id="Слой_1"
	 xmlns="http://www.w3.org/2000/svg" xmlns:xlink="http://www.w3.org/1999/xlink" x="0px" y="0px" width="60.236px"
	 height="130.197px" viewBox="0 0 60.236 130.197" xml:space="preserve">
<path fill="#369371" d="M40.195,76.215c2.935-16.109,37.187-40.991,8.957-63.864c-0.065-0.052-0.137-0.117-0.213-0.189
	c-0.134-0.128-0.292-0.294-0.462-0.479c-0.046-0.05-0.089-0.096-0.136-0.149c-0.002-0.003-0.005-0.005-0.007-0.008
	c-1.39-1.568-3.521-4.497-4.132-5.113L44.197,6.41c-0.085-0.05-0.17-0.099-0.255-0.148C37.758,5.851,32.087,3.575,27.475,0
	C-2.562,13.089,3.03,47.466,0,77.319c15.907,6.346,36.674,9.679,41.24,52.877C49.879,119.433,36.461,96.895,40.195,76.215z"/>
</svg>
