<?xml version="1.0" encoding="utf-8"?>
<!-- Generator: Adobe Illustrator 17.0.0, SVG Export Plug-In . SVG Version: 6.00 Build 0)  -->
<!DOCTYPE svg PUBLIC "-//W3C//DTD SVG 1.1 Basic//EN" "http://www.w3.org/Graphics/SVG/1.1/DTD/svg11-basic.dtd">
<svg version="1.1" baseProfile="basic" id="Слой_1"
	 xmlns="http://www.w3.org/2000/svg" xmlns:xlink="http://www.w3.org/1999/xlink" x="0px" y="0px" width="56.389px"
	 height="56.055px" viewBox="0 0 56.389 56.055" xml:space="preserve">
<path fill="#D35F54" d="M28.497,55.762c32.153-6.058,30.554-27.78,24.188-41.424c-0.004-0.009-0.009-0.018-0.013-0.027
	c-0.133-0.284-0.267-0.564-0.403-0.84c-0.005-0.011-0.011-0.021-0.016-0.032c-0.135-0.274-0.272-0.545-0.411-0.811
	c-0.007-0.013-0.014-0.026-0.02-0.039c-0.137-0.263-0.276-0.523-0.416-0.778c-0.01-0.018-0.02-0.035-0.03-0.053
	c-0.138-0.251-0.277-0.498-0.417-0.741c-0.009-0.015-0.017-0.03-0.026-0.045c-0.141-0.243-0.282-0.483-0.425-0.718
	c-0.011-0.019-0.023-0.037-0.034-0.056c-0.14-0.231-0.281-0.458-0.422-0.68C50.04,9.5,50.029,9.484,50.017,9.466
	c-0.142-0.222-0.284-0.441-0.427-0.654c-0.009-0.013-0.018-0.026-0.027-0.04c-0.145-0.216-0.29-0.427-0.434-0.633
	c-0.007-0.01-0.014-0.02-0.022-0.03c-0.147-0.209-0.294-0.413-0.44-0.611c-0.002-0.002-0.003-0.004-0.005-0.007
	c-0.151-0.205-0.302-0.404-0.453-0.596c-0.001-0.002-0.003-0.003-0.004-0.005c-0.976-1.251-1.918-2.237-2.761-2.924
	c-3.219,0.744-6.568,1.15-10.013,1.15c-7.468,0-14.5-1.855-20.673-5.117C5.921,5.274,0,14.926,0,25.965
	c0,15.768,12.078,28.707,27.486,30.089C27.72,56.075,28.367,55.805,28.497,55.762z"/>
</svg>
