<?xml version="1.0" encoding="utf-8"?>
<!-- Generator: Adobe Illustrator 17.0.0, SVG Export Plug-In . SVG Version: 6.00 Build 0)  -->
<!DOCTYPE svg PUBLIC "-//W3C//DTD SVG 1.1 Basic//EN" "http://www.w3.org/Graphics/SVG/1.1/DTD/svg11-basic.dtd">
<svg version="1.1" baseProfile="basic" id="Слой_1"
	 xmlns="http://www.w3.org/2000/svg" xmlns:xlink="http://www.w3.org/1999/xlink" x="0px" y="0px" width="73.771px"
	 height="105.236px" viewBox="0 0 73.771 105.236" xml:space="preserve">
<path fill="#DB9252" d="M59.013,70.11c0-11.039,5.921-20.691,14.758-25.965C59.708,36.714,50.119,21.949,50.119,4.936
	c0-1.669,0.1-3.315,0.28-4.936C38.567,8.997,28.317,20.274,20.194,31.187c3.662,5.088,5.825,11.327,5.825,18.074
	c0,15.422-11.268,28.207-26.02,30.584c1.094,7.105,1.795,14.21,2.655,21.315c17.458-1.401,35.542,0.293,53.129,4.076
	c3.613-4.571,8.443-8.409,14.95-11.245C63.606,88.466,59.013,79.828,59.013,70.11z"/>
</svg>
