<?xml version="1.0" encoding="utf-8"?>
<!-- Generator: Adobe Illustrator 17.0.0, SVG Export Plug-In . SVG Version: 6.00 Build 0)  -->
<!DOCTYPE svg PUBLIC "-//W3C//DTD SVG 1.1 Basic//EN" "http://www.w3.org/Graphics/SVG/1.1/DTD/svg11-basic.dtd">
<svg version="1.1" baseProfile="basic" id="Слой_1"
	 xmlns="http://www.w3.org/2000/svg" xmlns:xlink="http://www.w3.org/1999/xlink" x="0px" y="0px" width="72.249px"
	 height="132.893px" viewBox="0 0 72.249 132.893" xml:space="preserve">
<path fill="#3FA556" d="M30.443,0C25.71,6.331,18.746,10.896,10.713,12.521c-0.569,0.947-2.109,4.401-3.107,6.059
	c-0.025,0.041-0.052,0.087-0.076,0.126c-0.027,0.043-0.051,0.079-0.077,0.12c-0.043,0.067-0.087,0.136-0.127,0.193
	c-0.062,0.089-0.121,0.168-0.175,0.233c-22.853,28.248,15.832,45.466,22.015,60.621c7.969,19.45-0.48,44.291,10.205,53.021
	c-4.887-46.912,18.655-51.826,32.878-62.821c-1.846-11.239-2.774-23.081-5.509-34.02C63.115,17.929,48.753,1.965,30.443,0z"/>
</svg>
