<?xml version="1.0" encoding="utf-8"?>
<!-- Generator: Adobe Illustrator 17.0.0, SVG Export Plug-In . SVG Version: 6.00 Build 0)  -->
<!DOCTYPE svg PUBLIC "-//W3C//DTD SVG 1.1 Basic//EN" "http://www.w3.org/Graphics/SVG/1.1/DTD/svg11-basic.dtd">
<svg version="1.1" baseProfile="basic" id="Слой_1"
	 xmlns="http://www.w3.org/2000/svg" xmlns:xlink="http://www.w3.org/1999/xlink" x="0px" y="0px" width="86.2px"
	 height="111.305px" viewBox="0 0 86.2 111.305" xml:space="preserve">
<path fill="#42BCAA" d="M54.205,78.334c0,0,8.306-26.716,12.662-38.594c3.667-10,19.333-23.145,19.333-23.145L84.2,0
	c0,0-16,6.194-31.333,31.073c-2.15,3.489-10.198,28.68-16.989,33.729c-6.791,5.047-17.565-3.359-24.782,1.045
	c-3.264,1.991-4.173,5.711-3.656,9.078c-0.47,0.412-1.011,0.784-1.621,1.038C3.259,77.024,0,75.339,0,75.339s2.449,6.396,5.869,6.94
	c1.79,0.285,3.603-0.474,4.844-1.19c0.971,0.724,2.085,1.065,3.267,0.821c5.827-1.201,20.681-9.739,22.21-4.9
	c1.529,4.838-11.613,9.7-14.885,18.581c-1.593,4.324,0.254,7.215,3.223,8.714c-0.123,0.503-0.282,1.021-0.494,1.528
	c-1.07,2.553-3.709,3.943-3.709,3.943s6.241,2.82,9.056,0.799c1.698-1.219,2.465-3.678,2.796-5.252
	c2.112-0.374,3.983-1.288,5.033-2.745c2.396-3.317,2.858-21.707,6.516-18.151c3.654,3.559,3.068,10.227,5.42,15.665
	c1.184,2.737,4.098,3.768,7.192,3.274c0.734,0.671,1.534,1.586,2.111,2.756c1.48,3.007,0.961,4.941,0.961,4.941
	s4.667-1.454,4.339-5.693c-0.138-1.784-0.85-3.51-1.585-4.867c0.904-0.814,1.721-1.777,2.375-2.908
	C68.388,90.945,54.205,78.334,54.205,78.334z"/>
</svg>
