<?xml version="1.0" encoding="utf-8"?>
<!-- Generator: Adobe Illustrator 17.0.0, SVG Export Plug-In . SVG Version: 6.00 Build 0)  -->
<!DOCTYPE svg PUBLIC "-//W3C//DTD SVG 1.1 Basic//EN" "http://www.w3.org/Graphics/SVG/1.1/DTD/svg11-basic.dtd">
<svg version="1.1" baseProfile="basic" id="Слой_1"
	 xmlns="http://www.w3.org/2000/svg" xmlns:xlink="http://www.w3.org/1999/xlink" x="0px" y="0px" width="94.453px"
	 height="164.535px" viewBox="0 0 94.453 164.535" xml:space="preserve">
<path fill="#BAAE52" d="M94.453,15.335C93.266,11.12,93.141,5.832,93.957,0l-6.76,2.036l-0.165-1.203
	C70.027,5.944,56.399,14.84,53.69,25.588c-1.201,0.356-2.566,0.793-3.605,1.404C13.398,40.919,8.316,58.777,2.788,92.69
	c-4.269,26.178-3.408,45.087,1.038,71.846c0.062-0.382,0.124-0.764,0.186-1.146c-0.041,0.382-0.08,0.764-0.122,1.146
	c0.771-4.87,1.535-9.741,2.302-14.611c2.137-13.197,4.275-26.39,6.412-39.599c0.102-0.387,0.213-0.756,0.33-1.11
	c1.934-4.115,2.529-4.758,7.151-6.763c-1.91,21.722-7.065,40.009-13.577,60.831c-0.123,0.362-0.256,0.718-0.376,1.081
	c0.055-0.092,0.112-0.187,0.167-0.279l0.693-0.788c0.241-0.524,0.466-1.027,0.702-1.544c5.703-9.541,11.789-19.916,15.793-28.937
	c4.263-9.562,6.207-17.591,9.359-27.931c0.317,0.127,0.631,0.255,0.939,0.381c15.112-18.381,22.458-34.571,29.056-56.887
	c0.003-0.012,0.007-0.023,0.011-0.035c14.526-6.239,20.547-16.488,26.56-30.185l-0.089-0.644l4.977-1.938L94.453,15.335z
	 M19.961,102.339c0.046-0.009,0.091-0.018,0.137-0.026c-0.001,0.008-0.002,0.016-0.002,0.024
	C20.049,102.338,20.007,102.339,19.961,102.339z"/>
</svg>
