<?xml version="1.0" encoding="utf-8"?>
<!-- Generator: Adobe Illustrator 17.0.0, SVG Export Plug-In . SVG Version: 6.00 Build 0)  -->
<!DOCTYPE svg PUBLIC "-//W3C//DTD SVG 1.1 Basic//EN" "http://www.w3.org/Graphics/SVG/1.1/DTD/svg11-basic.dtd">
<svg version="1.1" baseProfile="basic" id="Слой_1"
	 xmlns="http://www.w3.org/2000/svg" xmlns:xlink="http://www.w3.org/1999/xlink" x="0px" y="0px" width="49.786px"
	 height="138.243px" viewBox="0 0 49.786 138.243" xml:space="preserve">
<path fill="#87BB50" d="M39.313,0c0,0,5.218,12.439,4.76,27.876c-0.316,10.62-2.476,26.815-2.476,26.815s6.871,7.126,8.092,21.531
	c1.229,14.483-9.646,40.168-9.646,40.168s3.664,2.808,5.373,7.081c1.708,4.273,0.976,8.057,0.976,8.057s-6.592,4.332-17.825,5.523
	c-9.278,0.984-21.486,1.192-21.486,1.192l4.03-6.104L0,131.895c0,0,2.075-8.669,11.476-13.429
	c10.374-5.255,18.924-1.221,18.924-1.221s5.616-15.872,4.15-28.081c-1.464-12.208-6.622-24.797-6.622-24.797s-8.955,0.326-8.79-8.79
	c0.129-7.342,8.137-7.163,8.137-7.163s-1.201-13.435-3.345-24.933C21.754,11.822,16.239,0,16.239,0H39.313z"/>
</svg>
