<?xml version="1.0" encoding="utf-8"?>
<!-- Generator: Adobe Illustrator 17.0.0, SVG Export Plug-In . SVG Version: 6.00 Build 0)  -->
<!DOCTYPE svg PUBLIC "-//W3C//DTD SVG 1.1 Basic//EN" "http://www.w3.org/Graphics/SVG/1.1/DTD/svg11-basic.dtd">
<svg version="1.1" baseProfile="basic" id="Слой_1"
	 xmlns="http://www.w3.org/2000/svg" xmlns:xlink="http://www.w3.org/1999/xlink" x="0px" y="0px" width="241.958px"
	 height="361.312px" viewBox="0 0 241.958 361.312" xml:space="preserve">
<path fill="#385532" stroke="#FCFCFC" stroke-width="6" stroke-miterlimit="10" d="M224.707,29.575
	c-0.205,0.168-0.409,0.335-0.614,0.503c-1.318-9.829-6.055-10.68-11.302-10.181c-0.144,0.215-0.287,0.43-0.431,0.644
	c-3.631-9.422-8.251-8.908-13.004-6.949c-0.089,0.273-0.177,0.546-0.266,0.819c-5.614-8.398-9.827-6.586-13.819-3.263
	c-0.016,0.272-0.032,0.543-0.047,0.815c-7.276-6.753-10.74-3.745-13.659,0.7c1.923,10.525,3.834,21.031,5.748,31.533
	c-4.29,1.25-7.881,3.942-9.845,7.904c-0.69,1.374-1.135,2.814-1.359,4.285c-3.012,1.372-5.441,3.514-6.873,6.392
	c-0.199,0.398-0.367,0.807-0.52,1.219c-3.415,1.204-6.082,3.292-7.54,6.222c-0.44,0.892-0.747,1.822-0.937,2.778
	c-2.639,1.178-4.674,2.953-5.85,5.312c-0.548,1.099-0.883,2.279-1.022,3.505c-3.161,1.07-5.558,2.885-6.832,5.45
	c-0.131,0.263-0.246,0.532-0.351,0.804c-0.184,0.285-0.357,0.577-0.51,0.882c-0.836,1.676-1.127,3.556-0.923,5.542
	c-4.892,3.389-9.355,7.637-13.313,12.402l-24.817-0.171l0.129,0.99l-28.304,4.661l0.085,1.001l-19.614,8.919l2.41,0.069
	l17.581-4.575l0.158,1.855l28.256-7.548l0.297,2.276l19.524-1.833c-1.144,1.64-2.234,3.318-3.265,5.026l-29.694,1.214l0.576,2.279
	l-30.708,3.819l0.201,1.648l-21.973,8.616l2.725,0.103l19.802-4.179l0.14,1.15l30.923-6.765l0.247,0.977l24.66-3.313
	c-0.805,1.561-1.565,3.134-2.273,4.712l-26.351,1.98l0.103,2.406l-27.171,15.466l0.921,1.805l-18.832,16.451l2.582-0.792
	L58.19,153.76l0.99,1.94l23.364-16.753l0.055,1.286l22.914-4.901c-4.264,12.251-5.362,24.014-2.455,31.493l2.237,1.089
	c-2.249,5.385-3.505,11.279-2.581,18.234c0.499,0.36,0.951,0.74,1.383,1.129l-0.459,5.432c-0.576,0.451-1.06,1.022-1.406,1.706
	c-0.931,1.91-0.549,4.13,0.773,5.776l-0.257,3.042l-3.554,15.832l-28.781,29.209c-19.765,15.094-33.451,22.4-56.935,31.934
	c20.984-6.985,47.749-20.66,67.305-38.956l20.832-16.318c-0.098,0.243-0.195,0.485-0.291,0.725
	c-13.088,19.08-23.619,31.597-41.835,45.111c15.132-9.605,32.614-25.281,43.26-43.292l0.457,0.224
	c-7.938,19.346-9.894,42.773-8.451,60.635c-0.203-23.704,3.802-40.07,11.79-63.56c0.181-0.305,0.364-0.613,0.549-0.924
	l-0.498,29.099c-2.046,19.101,0.054,39.704,4.021,57.6c-1.819,2.701-3.581,5.521-5.323,8.68
	c-4.712,8.467-9.254,19.359-13.358,29.516c-0.368,0.665-0.733,1.318-1.106,1.998l-0.207,1.136c0.037-0.051-0.402-0.014-0.034,0.207
	s0.858-1.287,1.285-1.931c7.234-9.971,14.118-19.099,21.732-27.764c0.554,1.936,1.128,3.807,1.715,5.633
	c-8.146,8.511-25.022,24.687-24.422,25.508s39.643-23.281,57.933-42.432c23.696-24.816,34.707-40.074,23.8-77.609
	c0.01-0.007,0.022-0.013,0.032-0.02c-0.33-1.097-0.68-2.233-1.042-3.379c7.023-8.48,5.814-23.452-0.369-40.159v0.005
	c-0.169,0.107-0.348,0.194-0.52,0.295l-2.794-7.586c3.249-3.331,6.362-7.533,9.198-12.267l10.266,22.036l1.051-0.73l0.744,28.728
	l2.116-0.379l2.049,21.56l0.895,2.552l1.763-24.955l2.024-0.362l-4.055-30.992l1.989-1.382l-14.954-23.251
	c0.795-1.621,1.555-3.279,2.277-4.963l12.987,23.045l0.902-0.386l13.257,28.733l1.012-0.587l8.593,18.326l1.726,2.1l-6.374-22.717
	l1.446-0.84l-15.463-26.813l2.136-0.915l-17.885-25.85c0.709-1.956,1.36-3.931,1.951-5.908l11.35,18.396l2.017-1.131l11.04,27.098
	l1.559-0.984l6.949,16.761l1.515,1.928l-4.735-21.042l0.875-0.552l-13.346-25.37l0.879-0.493l-16.341-21.313
	c1.482-6.585,2.184-13.013,1.87-18.726c1.069-0.881,1.947-1.903,2.554-3.12c0.152-0.305,0.28-0.618,0.396-0.935
	c0.158-0.249,0.33-0.489,0.464-0.752c1.278-2.578,1.271-5.606,0.2-8.795c0.883-0.839,1.629-1.786,2.176-2.88
	c1.176-2.361,1.367-5.056,0.715-7.872c0.654-0.732,1.215-1.537,1.66-2.426c1.462-2.935,1.517-6.327,0.412-9.782
	c0.235-0.369,0.46-0.744,0.66-1.135c1.43-2.885,1.696-6.114,0.978-9.341c1.036-1.064,1.914-2.267,2.602-3.642
	c1.947-3.929,1.942-8.379,0.393-12.529c9.652-4.803,19.309-9.594,28.987-14.407C234.902,32.88,230.25,30.642,224.707,29.575z
	 M128.857,313.889c-4.48,4.675-8.954,9.35-13.428,14.024c-0.53-2.02-1.029-3.975-1.502-5.885
	c5.311-6.019,10.992-11.822,17.404-17.534C132.186,307.186,131.689,310.287,128.857,313.889z M156.686,196.803
	c-7.166,12.835-12.355,24.382-8.659,39.636c-13.861,18.721-22.357,34.343-27.884,57.509c0.57,0.338,1.155,0.689,1.743,1.052
	c-3.929,5.421-7.434,9.931-10.736,14.763c-2.866-14.219-4.002-26.831-3.924-43.981l6.159-42.051l9.063-10.688l3.283-2.949
	c1.247-0.444,2.313-1.297,2.919-2.524c0.027-0.053,0.046-0.108,0.071-0.161l5.749-5.165c0.375,0.088,0.752,0.181,1.134,0.3
	c6.167-3.482,10.126-8.06,13.057-13.126c0.042-0.11,0.076-0.221,0.117-0.331l3.084,1.502c1.26,0.12,2.533,0.027,3.812-0.241
	l-0.472,1.244L156.686,196.803z"/>
<g>
	<polygon fill="#385532" points="57.046,148.569 37.172,165.929 39.754,165.137 60.178,152.533 	"/>
	<polygon fill="#385532" points="71.337,112.098 48.916,122.292 51.326,122.361 72.645,116.814 	"/>
	<polygon fill="#385532" points="68.445,112.373 69.065,119.642 100.785,111.168 101.508,106.929 	"/>
	<polygon fill="#385532" points="96.62,106.722 97.618,114.37 130.991,111.237 131.577,106.963 	"/>
	<polygon fill="#385532" points="59.18,155.7 55.083,147.674 83.942,131.248 87.423,135.448 	"/>
	<polygon fill="#385532" points="56.873,125.494 32.279,135.138 35.003,135.241 58.491,130.284 	"/>
	<polygon fill="#385532" points="54.051,124.874 54.946,132.212 89.902,124.564 90.591,120.33 	"/>
	<polygon fill="#385532" points="84.183,118.776 86.115,126.423 122.759,121.501 122.931,117.193 	"/>
	<polygon fill="#385532" points="82.599,140.233 82.151,129.802 115.662,127.284 117.039,132.866 	"/>
	<path fill="#416A3C" d="M122.449,294.223l7.338,5.547c-6.752,8.439-14.744,15.634-21.009,23.97
		c-6.718,8.887-11.71,18.944-18.186,28.347c4.446-11.055,9.472-23.454,14.705-32.857
		C110.498,309.793,115.874,303.35,122.449,294.223L122.449,294.223z"/>
	<path fill="#385532" d="M90.832,350.744l-0.207,1.136c13.121-18.152,24.865-33.476,41.674-48.255l-4.274-4.475
		C111.428,316.334,102.3,329.804,90.832,350.744L90.832,350.744z"/>
	<path fill="#416A3C" d="M150.245,233.472c6.752-0.246,13.878-5.444,20.631-5.685c13.741,41.778,2.823,57.274-22.042,83.314
		c-18.29,19.15-33.929,29.896-57.933,42.432c12.639-13.19,25.283-26.419,37.956-39.643c7.608-9.678-1.618-15.737-8.715-19.942
		c5.818-24.383,14.911-40.401,30.103-60.481V233.472z"/>
	<path fill="#385532" d="M151.278,233.398c6.438-0.689,13.19-5.405,19.598-5.611c0.654,1.928,1.239,3.856,1.79,5.685
		c-4.48,2.961-11.021,4.097-20.527,4.785C151.76,236.57,151.45,234.952,151.278,233.398L151.278,233.398z"/>
	<polygon fill="#385532" points="196.119,217.833 194.26,244.148 193.365,241.596 191.093,217.695 	"/>
	<polygon fill="#385532" points="216.612,184.46 222.022,208.499 220.507,206.571 212.068,186.215 	"/>
	<polygon fill="#385532" points="218.161,186.904 211.999,190.794 199.596,160.352 202.562,157.249 	"/>
	<polygon fill="#385532" points="205.694,161.041 198.942,164.827 181.346,136.308 184.41,133.279 	"/>
	<polygon fill="#385532" points="189.2,220.415 198.047,218.831 193.744,185.94 188.3,185.665 	"/>
	<polygon fill="#385532" points="214.65,204.058 221.781,229.473 220.055,227.373 209.865,205.641 	"/>
	<polygon fill="#385532" points="216.853,205.917 210.45,209.635 195.465,177.157 198.46,174.024 	"/>
	<polygon fill="#385532" points="203.526,178.189 196.291,181.288 178.144,149.085 181.484,146.331 	"/>
	<polygon fill="#385532" points="187.405,192.417 195.982,186.456 177.795,158.178 172.528,160.485 	"/>
	<path fill="#314A2B" d="M186.269,57.16c-0.069-14.808-0.138-29.581-0.207-44.394c-7.854-7.785-11.469-4.716-14.498-0.103
		c2.788,15.26,5.542,30.481,8.336,45.707C182.034,57.956,184.134,57.573,186.269,57.16z"/>
	<path fill="#314A2B" d="M189.298,56.85c3.482-13.844,6.959-27.653,10.401-41.497c-5.921-9.472-10.293-7.647-14.429-4.205
		c-0.861,15.019-1.721,30.034-2.616,45.053c2.203,0.207,4.446,0.448,6.649,0.654L189.298,56.85z"/>
	<path fill="#314A2B" d="M192.401,57.44c6.782-11.921,13.569-23.872,20.355-35.822c-3.688-10.539-8.474-10.057-13.401-8.026
		c-4.475,13.78-8.951,27.589-13.431,41.365C188.093,55.783,190.232,56.614,192.401,57.44z"/>
	<path fill="#314A2B" d="M195.327,58.851c9.644-9.196,19.288-18.427,28.898-27.658c-1.102-10.883-5.995-11.813-11.434-11.296
		c-7.785,11.606-15.536,23.213-23.316,34.819C191.437,56.092,193.4,57.474,195.327,58.851L195.327,58.851z"/>
	<path fill="#314A2B" d="M197.944,61.02c11.813-5.892,23.631-11.744,35.478-17.636c1.48-10.505-3.172-12.742-8.715-13.81
		c-10.539,8.646-21.078,17.286-31.617,25.898C194.708,57.337,196.326,59.196,197.944,61.02L197.944,61.02z"/>
	<path fill="#385532" d="M193.365,45.898c10.092,5.031,14.877,15.949,10.677,24.422c-0.929,1.859-2.203,3.408-3.752,4.716
		c-0.28-6.713-5.306-12.432-12.678-16.082c-7.883-3.929-16.185-4.205-21.663,0.344c-0.103-2.479,0.379-4.928,1.52-7.2
		c4.2-8.474,15.806-11.228,25.898-6.197V45.898z"/>
	<path fill="#385532" d="M187.474,57.75c11.365,5.646,17.188,17.08,12.988,25.553c-0.929,1.825-2.243,3.408-3.895,4.647
		c-0.654-6.885-5.99-14.085-14.291-18.25c-8.887-4.411-18.531-3.998-24.314,0.413c-0.241-2.547,0.138-5.065,1.274-7.338
		C163.435,54.337,176.074,52.065,187.474,57.75L187.474,57.75z"/>
	<path fill="#385532" d="M182.895,66.941c13.293,6.615,20.7,18.841,16.495,27.28c-0.929,1.859-2.341,3.374-4.131,4.544
		c-1.17-7.16-7.751-14.98-17.464-19.804c-10.362-5.164-21.285-5.405-27.585-1.239c-0.448-2.651-0.172-5.198,0.964-7.505
		C155.374,61.777,169.597,60.297,182.895,66.941L182.895,66.941z"/>
	<path fill="#385532" d="M178.311,76.138c14.537,7.234,22.908,19.942,18.703,28.381c-0.929,1.859-2.375,3.339-4.234,4.475
		c-1.549-7.333-8.887-15.531-19.495-20.803c-11.331-5.646-23.075-6.3-29.689-2.307c-0.585-2.685-0.344-5.302,0.792-7.578
		C148.592,69.872,163.779,68.874,178.311,76.138L178.311,76.138z"/>
	<polygon fill="#385532" points="165.982,177.329 170.979,190.897 168.048,199.13 157.72,200.438 155.202,191.591 158.891,181.878 	
		"/>
	<path fill="#385532" d="M105.674,222.17c-10.018,20.252-12.501,46.568-10.918,66.166c-0.207-24.108,3.929-40.607,12.192-64.749
		L105.674,222.17L105.674,222.17z"/>
	<path fill="#385532" d="M105.674,222.17c-10.121,20.222-29.581,38.06-46.184,48.599c19.357-14.36,30.034-27.59,44.325-48.771
		L105.674,222.17z"/>
	<polygon fill="#314A2B" points="105.231,222.101 65.657,253.099 102.679,215.526 	"/>
	<path fill="#3A4757" d="M83.425,238.739c-19.731,19.563-48.009,34.165-69.947,41.468c26.552-10.78,40.573-18.703,65.025-38.266
		C80.155,240.873,81.807,239.806,83.425,238.739L83.425,238.739z"/>
	<polygon fill="#314A2B" points="107.125,222.101 106.264,272.353 113.906,220.174 	"/>
	<path fill="#3A4757" d="M106.987,249.519c-3.723,27.555,1.687,58.897,9.088,80.836c-7.401-27.693-9.536-43.642-8.675-74.979
		C107.262,253.414,107.125,251.447,106.987,249.519z"/>
	<path fill="#416A3C" d="M134.64,202.09l-12.192,10.952l-10.78,12.713l-4.441-2.759c4.544-7.298,9.226-14.291,14.223-21.354
		l7.406-1.997L134.64,202.09z"/>
	<path fill="#416A3C" d="M104.125,186.938l-1.377,16.293l-3.649,16.254l4.888,1.893c3.069-8.021,5.823-15.978,8.474-24.211
		l-2.892-7.097l-5.439-3.133H104.125z"/>
	<path fill="#416A3C" d="M148.833,87.71c-33.029,9.3-53.487,59.276-45.776,79.114l48.805,23.763
		c22.765,2.174,49.941-61.961,35.301-83.762L148.829,87.71H148.833z"/>
	<path fill="#314A2B" d="M172.356,88.123c16.013,7.992,25.622,21.319,21.422,29.758c-0.929,1.864-2.444,3.31-4.411,4.411
		c-1.997-7.544-10.259-16.224-21.973-22.042c-12.501-6.236-25.244-7.406-32.237-3.585c-0.757-2.788-0.62-5.439,0.516-7.716
		C139.878,80.515,156.304,80.136,172.356,88.123z"/>
	<path fill="#385532" d="M103.677,225.446l1.756,0.861c6.993-11.469,16.396-30.378,31.175-25.799
		c6.162-3.443,10.121-8.021,13.052-13.121c3.856-10.023,3.029-20.527-0.207-30.55c-1.549-4.923-3.654-8.193-6.615-10.057
		c-3.236-1.239-7.131-0.929-11.985,0.757c-9.988,3.482-18.841,9.162-24.526,18.29c-2.272,5.41-3.546,11.296-2.616,18.324
		c12.575,9.059,3.172,27.894-1.756,40.401L103.677,225.446L103.677,225.446z"/>
	<path fill="#FFFFFF" d="M121.037,209.807c2.892,1.411,6.305,0.413,7.613-2.238c1.343-2.651,0.069-5.995-2.828-7.406
		c-2.857-1.446-6.265-0.448-7.608,2.203C116.906,205.022,118.146,208.361,121.037,209.807L121.037,209.807z"/>
	<path fill="#121215" d="M122.001,209.049c0.757,0.379,1.687,0.138,2.031-0.585c0.344-0.689,0-1.549-0.757-1.928
		c-0.757-0.379-1.652-0.138-1.997,0.585C120.934,207.81,121.244,208.671,122.001,209.049z"/>
	<path fill="#314A2B" d="M102.679,227.442l1.756,0.861c6.993-11.469,16.396-30.344,31.17-25.76
		c6.167-3.482,10.126-8.06,13.057-13.126c3.856-10.057,3.029-20.527-0.207-30.585c-1.554-4.923-3.654-8.193-6.615-10.023
		L102.679,227.442z"/>
	<path fill="#416A3C" d="M171.254,189.933c6.438,17.395,7.51,32.93-0.516,41.192c-4.239,4.377-11.159,6.167-22.111,7.579
		c-4.859-16.568,0.654-28.691,8.297-42.328c4.48-2.857,9.885-3.615,14.331-6.438V189.933z"/>
	<path fill="#FFFFFF" d="M105.054,201.849c2.897,1.416,6.305,0.452,7.647-2.238c1.308-2.651,0.034-5.956-2.823-7.406
		c-2.892-1.446-6.305-0.448-7.647,2.208C100.923,197.099,102.197,200.404,105.054,201.849L105.054,201.849z"/>
	<path fill="#121215" d="M104.572,199.818c0.757,0.379,1.652,0.138,2.002-0.585c0.344-0.689,0.034-1.549-0.723-1.928
		c-0.762-0.379-1.657-0.138-2.002,0.585C103.471,198.579,103.815,199.44,104.572,199.818z"/>
	<path fill="#385532" d="M102.679,227.442l-1.721-0.861c4.928-12.536,14.326-31.376,1.756-40.435
		c-0.929-6.993,0.344-12.914,2.616-18.324c5.685-9.128,14.537-14.773,24.491-18.255c4.888-1.721,8.783-2.031,12.019-0.757
		L102.679,227.442L102.679,227.442z"/>
	<path fill="#385532" d="M173.182,86.401c16.047,7.992,25.657,21.319,21.457,29.793c-0.929,1.825-2.444,3.305-4.406,4.377
		c-2.002-7.544-10.264-16.224-21.978-22.047c-12.536-6.231-25.278-7.367-32.271-3.546c-0.723-2.823-0.585-5.439,0.551-7.716
		C140.739,78.793,157.13,78.444,173.182,86.401L173.182,86.401z"/>
</g>
</svg>
