<?xml version="1.0" encoding="utf-8"?>
<!-- Generator: Adobe Illustrator 17.0.0, SVG Export Plug-In . SVG Version: 6.00 Build 0)  -->
<!DOCTYPE svg PUBLIC "-//W3C//DTD SVG 1.1 Basic//EN" "http://www.w3.org/Graphics/SVG/1.1/DTD/svg11-basic.dtd">
<svg version="1.1" baseProfile="basic" id="Слой_1"
	 xmlns="http://www.w3.org/2000/svg" xmlns:xlink="http://www.w3.org/1999/xlink" x="0px" y="0px" width="88.412px"
	 height="80.846px" viewBox="0 0 88.412 80.846" xml:space="preserve">
<path fill="#B76153" d="M88.412,16.734L67.906,0c0,0-14.87,4.781-22.748,10.873C29.212,23.194,34.195,33.138,34.195,33.138
	l-1.371,2.302c-1.302,1.946-3.535,4.766-6.744,7.029c-3.075,2.166-7.946,4.785-11.069,7.564c-1.337-0.37-3.537-0.677-6.276,0.075
	c-4.599,1.265-8.617,3.616-8.732,5.859c-0.115,2.24,3.329,8.272,5.915,7.813c1.746-0.313,6.208-2.637,9.051-4.558
	c0.897,0.85,1.975,1.765,3.208,2.708c-2.508,1.918-5.099,4.214-5.304,5.641c-0.405,2.809,5.165,8.094,9.589,6.947
	c2.467-0.637,4.217-3.76,5.215-6.638c1.274,0.652,2.589,1.274,3.938,1.849c-2.046,2.913-4.406,6.564-4.04,7.434
	c0.631,1.488,8.902,4.936,11.259,3.21c1.418-1.036,1.71-4.771,1.657-7.772c5.842,1.256,11.729,1.163,16.728-1.412
	c17.062-8.788,6.375-31.881,9.136-37.398C69.108,28.278,88.412,16.734,88.412,16.734z"/>
</svg>
