<?xml version="1.0" encoding="utf-8"?>
<!-- Generator: Adobe Illustrator 17.0.0, SVG Export Plug-In . SVG Version: 6.00 Build 0)  -->
<!DOCTYPE svg PUBLIC "-//W3C//DTD SVG 1.1 Basic//EN" "http://www.w3.org/Graphics/SVG/1.1/DTD/svg11-basic.dtd">
<svg version="1.1" baseProfile="basic" id="Слой_1"
	 xmlns="http://www.w3.org/2000/svg" xmlns:xlink="http://www.w3.org/1999/xlink" x="0px" y="0px" width="127.719px"
	 height="47.936px" viewBox="0 0 127.719 47.936" xml:space="preserve">
<path fill="#369371" d="M125.661,14.591l-49.536,2.372C68.309,6.698,56.703,0.137,43.684,0.002C19.83-0.239,0.277,21.177,0,47.839
	l9.515,0.097c-0.232-1.596-0.357-3.227-0.357-4.888c0-18.611,15.072-33.682,33.674-33.682c18.601,0,33.683,15.071,33.683,33.682
	c0,0.592-0.016,1.181-0.046,1.765c4.443-0.489,8.012-0.908,9.738-1.159c-0.033-0.41-0.073-0.818-0.116-1.225
	c14.395-2.23,33.995-5.329,33.995-5.329c3.932,0,7.633-12.695,7.633-16.808C127.719,16.171,125.661,14.591,125.661,14.591z"/>
</svg>
