<?xml version="1.0" encoding="utf-8"?>
<!-- Generator: Adobe Illustrator 17.0.0, SVG Export Plug-In . SVG Version: 6.00 Build 0)  -->
<!DOCTYPE svg PUBLIC "-//W3C//DTD SVG 1.1 Basic//EN" "http://www.w3.org/Graphics/SVG/1.1/DTD/svg11-basic.dtd">
<svg version="1.1" baseProfile="basic" id="Слой_1"
	 xmlns="http://www.w3.org/2000/svg" xmlns:xlink="http://www.w3.org/1999/xlink" x="0px" y="0px" width="191.807px"
	 height="101.405px" viewBox="0 0 191.807 101.405" xml:space="preserve">
<path fill="#3FA556" d="M191.706,96.283c-5.631-0.126-70-1.571-75.237-1.984c-5.477-0.433-6.189-10.027-6.189-10.027l1.231-83.249
	c0,0-2.477,0.158-13.843-0.042c-3.358-0.059-6.028-0.187-7.311-0.417C90.029,0.506,89.88,0.309,89.882,0H67.187
	c-6.648,2.7-14.299,6.102-23.25,8.947C18.046,19.106,9.284,32.442,4.288,42.01c-4.481,8.577-5.366,24.208-3.049,37.685l26.439-1.43
	c7.114-15.146,21.381-25.514,37.887-25.576c23.448-0.088,42.584,20.702,43.046,46.583L127.555,100
	c22.928,0.366,21.646,1.025,64.252,1.405C191.716,99.712,191.668,98.009,191.706,96.283z"/>
</svg>
