<?xml version="1.0" encoding="utf-8"?>
<!-- Generator: Adobe Illustrator 17.0.0, SVG Export Plug-In . SVG Version: 6.00 Build 0)  -->
<!DOCTYPE svg PUBLIC "-//W3C//DTD SVG 1.1 Basic//EN" "http://www.w3.org/Graphics/SVG/1.1/DTD/svg11-basic.dtd">
<svg version="1.1" baseProfile="basic" id="Слой_1"
	 xmlns="http://www.w3.org/2000/svg" xmlns:xlink="http://www.w3.org/1999/xlink" x="0px" y="0px" width="187.404px"
	 height="101.8px" viewBox="0 0 187.404 101.8" xml:space="preserve">
<path fill="#6E9FC5" d="M182.073,46.522c0.115-0.005,0.233-0.01,0.347-0.016c-3.532-9.405-8.427-19.368-13.695-28.654
	c-0.06,0.052-0.126,0.114-0.188,0.169c0,0,0.001-0.001,0.001-0.001c-3.605-6.446-7.359-12.549-10.932-17.918H91.71
	C91.697,0.065,91.685,0.036,91.672,0c0.902,2.446,2.201,6.9,2.558,12.986c0.563,9.59,1.684,25.328-1.795,26.246
	c-3.479,0.918-17.355,5.032-24.17,8.028c-6.814,2.996-17.751,27.851-19.789,31.834c-2.038,3.984-6.435,14.197-19.553,15.1
	c-13.118,0.903-28.321,2.202-28.321,2.202s-0.142-0.003-0.4-0.009c-0.037,1.726,0.01,3.429,0.1,5.12
	c29.15,0.26,49.916,0.391,56.512,0.208c6.034-0.17,4.883-1.236,4.883-1.236c0.277-26.663,19.83-48.078,43.684-47.837
	c13.019,0.135,24.625,6.696,32.441,16.961l49.536-2.372c0,0,0.092,0.07,0.235,0.218C186.917,61.202,184.904,54.022,182.073,46.522z"
	/>
</svg>
