<?xml version="1.0" encoding="utf-8"?>
<!-- Generator: Adobe Illustrator 17.0.0, SVG Export Plug-In . SVG Version: 6.00 Build 0)  -->
<!DOCTYPE svg PUBLIC "-//W3C//DTD SVG 1.1 Basic//EN" "http://www.w3.org/Graphics/SVG/1.1/DTD/svg11-basic.dtd">
<svg version="1.1" baseProfile="basic" id="Слой_1"
	 xmlns="http://www.w3.org/2000/svg" xmlns:xlink="http://www.w3.org/1999/xlink" x="0px" y="0px" width="187.404px"
	 height="101.8px" viewBox="0 0 187.404 101.8" xml:space="preserve">
<path fill="#6E9FC5" d="M181.884,46.521c-13.629,0.622-34.619,1.093-34.619-1.869c0-4.104,15.256-21.422,21.084-26.632
	c-3.605-6.446-7.359-12.549-10.932-17.918H91.521C91.508,0.065,91.496,0.036,91.483,0c0.902,2.446,2.201,6.9,2.558,12.986
	c0.563,9.59,1.684,25.328-1.795,26.246s-17.355,5.032-24.17,8.028c-6.814,2.996-17.751,27.851-19.789,31.834
	c-2.038,3.984-6.434,14.197-19.553,15.1c-13.118,0.903-28.321,2.202-28.321,2.202s-0.142-0.003-0.4-0.009
	c-0.037,1.726,0.01,3.429,0.1,5.12c29.15,0.26,49.916,0.391,56.512,0.208c6.034-0.17,4.883-1.236,4.883-1.236
	c0.277-26.662,19.83-48.078,43.684-47.837c13.019,0.135,24.625,6.696,32.441,16.961l49.536-2.371c0,0,0.092,0.07,0.235,0.218
	C186.728,61.201,184.715,54.021,181.884,46.521z"/>
</svg>
