<?xml version="1.0" encoding="utf-8"?>
<!-- Generator: Adobe Illustrator 17.0.0, SVG Export Plug-In . SVG Version: 6.00 Build 0)  -->
<!DOCTYPE svg PUBLIC "-//W3C//DTD SVG 1.1 Basic//EN" "http://www.w3.org/Graphics/SVG/1.1/DTD/svg11-basic.dtd">
<svg version="1.1" baseProfile="basic" id="Слой_1"
	 xmlns="http://www.w3.org/2000/svg" xmlns:xlink="http://www.w3.org/1999/xlink" x="0px" y="0px" width="111.224px"
	 height="48.079px" viewBox="0 0 111.224 48.079" xml:space="preserve">
<path fill="#DB9252" d="M35.507,48.079c-0.261-1.689-0.398-3.42-0.398-5.182c0-18.611,15.071-33.682,33.688-33.682
	c18.599,0,33.67,15.071,33.67,33.682c0,1.31-0.083,2.601-0.228,3.872l8.985-0.186C110.762,20.702,91.626-0.088,68.178,0
	C51.672,0.063,37.406,10.43,30.291,25.576L0.851,27.17c0,0-1.14,1.283-0.781,3.68c0.349,2.413,0.227,5.457,3.666,9.254
	c2.233,2.464,9.582,6.089,21.778,7.286l-0.003,0.153L35.507,48.079z"/>
</svg>
