<?xml version="1.0" encoding="utf-8"?>
<!-- Generator: Adobe Illustrator 17.0.0, SVG Export Plug-In . SVG Version: 6.00 Build 0)  -->
<!DOCTYPE svg PUBLIC "-//W3C//DTD SVG 1.1 Basic//EN" "http://www.w3.org/Graphics/SVG/1.1/DTD/svg11-basic.dtd">
<svg version="1.1" baseProfile="basic" id="Слой_1"
	 xmlns="http://www.w3.org/2000/svg" xmlns:xlink="http://www.w3.org/1999/xlink" x="0px" y="0px" width="127.719px"
	 height="76.733px" viewBox="0 0 127.719 76.733" xml:space="preserve">
<path fill="#369371" d="M125.661,14.591l-49.536,2.372C68.309,6.698,56.703,0.137,43.684,0.002C19.83-0.239,0.277,21.177,0,47.839
	l9.515,0.097c0,0,0,0,0,0c2.367,16.28,16.376,28.797,33.317,28.797c18.009,0,32.719-14.145,33.637-31.92c0,0,0,0,0,0
	c4.443-0.489,8.012-0.908,9.738-1.159c-0.033-0.41-0.073-0.818-0.116-1.225c14.396-2.23,33.995-5.329,33.995-5.329
	c3.932,0,7.634-12.695,7.634-16.808C127.719,16.171,125.661,14.591,125.661,14.591z"/>
</svg>
