<?xml version="1.0" encoding="utf-8"?>
<!-- Generator: Adobe Illustrator 17.0.0, SVG Export Plug-In . SVG Version: 6.00 Build 0)  -->
<!DOCTYPE svg PUBLIC "-//W3C//DTD SVG 1.1 Basic//EN" "http://www.w3.org/Graphics/SVG/1.1/DTD/svg11-basic.dtd">
<svg version="1.1" baseProfile="basic" id="Слой_1"
	 xmlns="http://www.w3.org/2000/svg" xmlns:xlink="http://www.w3.org/1999/xlink" x="0px" y="0px" width="399.208px"
	 height="209.083px" viewBox="0 0 399.208 209.083" xml:space="preserve">
<polygon fill="#A8A8A8" stroke="#272525" stroke-width="3" stroke-miterlimit="10" points="557.307,189.762 557.307,189.762 
	557.306,189.761 "/>
<path fill="#A8A8A8" stroke="#272525" stroke-width="3" stroke-miterlimit="10" d="M198.827,20
	c-10.933,0.974-21.503,2.568-30.698,4.792c-28.454,6.89-73.259,46.894-67.648,47.894c1.28,0.23,3.944,0.357,7.295,0.416
	c11.342,0.2,30.548-0.38,30.548-0.38l55.853-1.014C194.6,67.464,198.089,28.347,198.827,20z"/>
<path fill="#A8A8A8" stroke="#272525" stroke-width="3" stroke-miterlimit="10" d="M272.032,24.008l27.947,45.508l16.16-0.287
	c0,0,7.982-3.244,8.453-14.149C325.218,40.588,270.483,23.571,272.032,24.008z"/>
<path fill="#A8A8A8" stroke="#272525" stroke-width="3" stroke-miterlimit="10" d="M261.467,20.994
	c0.42,0.072,0.839,0.152,1.25,0.23c-15.259-3.105-36.787-3.966-57.717-2.587l2.769,51.959l76.339-1.387
	C277.377,54.841,266.497,31.673,261.467,20.994z"/>
<path fill="#A8A8A8" stroke="#272525" stroke-width="3" stroke-miterlimit="10" d="M388.394,139.56l-49.43,2.366
	c-7.799-10.243-19.381-16.791-32.372-16.925c-23.803-0.24-43.315,21.13-43.591,47.736l9.495,0.097c0-0.001,0-0.001,0-0.002
	c2.362,16.246,16.341,28.737,33.246,28.737c17.87,0,32.485-13.957,33.549-31.554c0.006-0.099,0.012-0.199,0.017-0.298
	c0,0,0.216-0.023,0.323-0.035c4.283-0.473,7.714-0.877,9.394-1.12c-0.033-0.409-0.073-0.816-0.116-1.223
	c14.365-2.225,33.923-5.318,33.923-5.318c3.924,0,7.617-12.668,7.617-16.772C390.447,141.137,388.394,139.56,388.394,139.56z"/>
<path fill="#A8A8A8" stroke="#272525" stroke-width="3" stroke-miterlimit="10" d="M118.988,171.485
	c-0.461-25.826-19.557-46.572-42.955-46.485c-16.471,0.063-30.707,10.408-37.806,25.522l-29.378,1.59c0,0-1.137,1.281-0.78,3.672
	c0.348,2.407,0.227,5.445,3.658,9.235c2.229,2.459,9.561,6.076,21.732,7.27l-0.003,0.153l9.975,0.535
	c2.487,16.103,16.403,28.442,33.22,28.442c17.252,0,31.453-13.013,33.37-29.749L118.988,171.485z"/>
<path fill="#A8A8A8" stroke="#272525" stroke-width="3" stroke-miterlimit="10" d="M122.229,73.578L121,156.65
	c0,0,0.71,9.574,6.176,10.006c5.466,0.432,75.477,1.989,75.477,1.989V72L122.229,73.578z"/>
<path fill="#A8A8A8" stroke="#272525" stroke-width="3" stroke-miterlimit="10" d="M291.969,70c0,0,2.897,5.542,3.46,15.111
	s1.681,25.274-1.791,26.19c-3.472,0.916-17.319,5.021-24.118,8.011c-6.8,2.99-17.713,27.792-19.747,31.767
	c-2.034,3.975-6.421,14.166-19.511,15.068c-13.09,0.901-28.261,2.197-28.261,2.197V71.698L291.969,70z"/>
<path fill="#A8A8A8" stroke="#272525" stroke-width="3" stroke-miterlimit="10" d="M347.137,56.913
	c-15.347-17.603-51.57-42.16-87.663-46.129C223.363,6.797,154.252-2.823,87.581,68.274c-3.223,0.839-6.734,2.167-10.581,3.729
	h22.658c0.039-4.993,41.327-40.842,68.122-47.331c9.195-2.224,19.765-3.818,30.698-4.792c-0.738,8.347-4.227,47.464-4.65,51.709
	l7.836-0.142l6.089-0.115l-2.769-51.955c20.93-1.379,42.458-0.518,57.717,2.587c-0.411-0.077-0.83-0.158-1.25-0.23
	c5.023,10.665,15.88,33.785,22.614,48.158l7.567-0.143c0,0,0.407,0.778,0.945,2.255h65.756
	C354.174,65.75,350.262,60.497,347.137,56.913z M324.2,55.227c-1.087,10.86-8.453,13.267-8.453,13.267l-16.16,0.287L271.64,24.155
	c-0.008-0.262,0.418-0.067,0.84,0.025C293.263,30.477,325.209,44.993,324.2,55.227z"/>
<path fill="#A8A8A8" stroke="#272525" stroke-width="3" stroke-miterlimit="10" d="M202.3,168.083
	c-5.619-0.126-69.851-1.567-75.078-1.98c-5.466-0.432-6.176-10.006-6.176-10.006l1.229-83.072c0,0-2.471,0.158-13.813-0.042
	c-3.351-0.059-6.015-0.186-7.295-0.416c-0.327-0.058-0.476-0.254-0.474-0.563H78.045c-6.634,2.694-14.268,6.09-23.201,8.928
	c-25.836,10.137-34.579,23.445-39.565,32.993c-4.471,8.559-5.354,24.156-3.043,37.605l26.383-1.427
	c7.099-15.114,21.336-25.46,37.806-25.522c23.398-0.088,42.494,20.658,42.955,46.485l18.904,0.726
	c22.879,0.365,21.6,1.022,64.115,1.402C202.31,171.505,202.263,169.805,202.3,168.083z"/>
<path fill="#A8A8A8" stroke="#272525" stroke-width="3" stroke-miterlimit="10" d="M383.843,118.407
	c-3.524-9.385-13.853-28.425-13.853-28.425c-3.597-6.433-7.343-12.523-10.908-17.881h-65.756c-0.013-0.037-0.025-0.066-0.038-0.102
	c0.9,2.441,2.196,6.885,2.553,12.958c0.562,9.57,1.681,25.274-1.791,26.19c-3.472,0.916-17.319,5.021-24.118,8.011
	c-6.8,2.99-17.713,27.792-19.747,31.767c-2.034,3.975-6.421,14.166-19.511,15.068c-13.09,0.901-28.261,2.197-28.261,2.197
	s-0.142-0.003-0.399-0.009c-0.037,1.722,0.01,3.422,0.1,5.109c29.088,0.26,49.81,0.39,56.392,0.207
	c6.021-0.17,4.873-1.234,4.873-1.234c0.277-26.606,19.788-47.976,43.591-47.736c12.991,0.134,24.573,6.682,32.372,16.925
	l49.43-2.366c0,0,0.092,0.069,0.234,0.217C388.331,133.072,383.73,118.413,383.843,118.407z"/>
</svg>
