<?xml version="1.0" encoding="utf-8"?>
<!-- Generator: Adobe Illustrator 17.0.0, SVG Export Plug-In . SVG Version: 6.00 Build 0)  -->
<!DOCTYPE svg PUBLIC "-//W3C//DTD SVG 1.1 Basic//EN" "http://www.w3.org/Graphics/SVG/1.1/DTD/svg11-basic.dtd">
<svg version="1.1" baseProfile="basic" id="Слой_1"
	 xmlns="http://www.w3.org/2000/svg" xmlns:xlink="http://www.w3.org/1999/xlink" x="0px" y="0px" width="399.208px"
	 height="209.083px" viewBox="0 0 399.208 209.083" xml:space="preserve">
<path fill="none" stroke="#F9F9F9" stroke-width="6" stroke-miterlimit="10" d="M389.689,139.859
	c0.009,0.009,0.012,0.011,0.021,0.021c-0.698-6.44-2.809-13.87-5.781-21.623c0.202-0.009,0.408-0.018,0.607-0.027
	c-3.531-9.405-8.427-19.368-13.695-28.654c-0.143,0.126-0.296,0.265-0.451,0.406c-7.74-13.778-16.14-25.976-21.888-32.57
	c-15.38-17.641-51.68-42.25-87.849-46.228C224.465,7.189,155.207-2.452,88.395,68.796c-8.798,2.29-19.712,8.194-33.844,12.684
	c-25.891,10.159-34.653,23.495-39.649,33.063c-4.481,8.577-5.366,24.208-3.049,37.685l7.536-0.408L8.85,152.391
	c0,0-1.139,1.283-0.781,3.68c0.349,2.412,0.227,5.457,3.666,9.254c2.233,2.464,9.582,6.089,21.778,7.286l-0.003,0.153l9.996,0.535
	c2.492,16.137,16.438,28.503,33.291,28.503c16.972,0,31-12.568,33.325-28.896c51.438,0.68,138.894,1.613,152.369,1.24
	c2.415-0.068,6.22-0.111,10.998-0.182c2.768,15.809,16.552,27.838,33.158,27.838c18.008,0,32.718-14.144,33.637-31.918
	c4.443-0.489,8.012-0.908,9.737-1.159c-0.033-0.409-0.073-0.818-0.116-1.225c14.396-2.23,33.995-5.329,33.995-5.329
	c3.931,0,7.633-12.695,7.633-16.808C391.533,142.06,390.214,140.392,389.689,139.859z M110.239,171.991c0,0,0-0.001,0-0.001
	l8.984-0.185c-0.346-19.41-11.196-35.956-26.491-42.98c15.296,7.023,26.147,23.57,26.493,42.981L110.239,171.991z M339.94,142.034
	c-7.816-10.265-19.422-16.826-32.441-16.961c-23.854-0.241-43.406,21.174-43.684,47.836h0c0.277-26.662,19.83-48.078,43.684-47.837
	C320.518,125.207,332.124,131.768,339.94,142.034l49.535-2.372c0,0,0.016,0.014,0.021,0.018c-0.013-0.01-0.021-0.017-0.021-0.017
	L339.94,142.034z M389.552,139.728c-0.02-0.018-0.038-0.034-0.05-0.044C389.513,139.693,389.523,139.702,389.552,139.728z"/>
<polygon fill="#A8A8A8" stroke="#272525" stroke-width="3" stroke-miterlimit="10" points="557.307,189.762 557.307,189.762 
	557.306,189.761 "/>
<polygon fill="#A8A8A8" stroke="#272525" stroke-width="3" stroke-miterlimit="10" points="199.767,105.098 199.767,105.098 
	199.766,105.098 "/>
<g id="__x0023_Layer_x0020_1">
	<path fill="#E8AF33" d="M83.973,172.533c38.615,0.616,162.281,2.063,178.518,1.613c6.034-0.17,20.633-0.183,37.858-0.865
		l-36.534-0.372c0.277-26.662,19.83-48.078,43.684-47.837c13.019,0.135,24.625,6.696,32.441,16.961l49.535-2.371
		c0,0,0.092,0.07,0.235,0.218c-2.81-25.928-28.497-67.887-41.208-82.468c-15.38-17.641-51.68-42.25-87.849-46.228
		C224.465,7.189,155.207-2.452,88.395,68.796c-8.798,2.29-19.712,8.194-33.844,12.684c-25.891,10.159-34.653,23.495-39.649,33.063
		c-4.481,8.577-5.366,24.208-3.049,37.685l26.439-1.43c7.114-15.146,21.381-25.514,37.887-25.576
		c23.448-0.088,42.584,20.702,43.046,46.583L83.973,172.533z"/>
	<path fill="#5A4823" d="M391.533,145.363c0,4.113-3.702,16.808-7.633,16.808c0,0-19.599,3.099-33.995,5.329
		c0.043,0.407,0.083,0.816,0.116,1.225c-6.016,0.873-34.402,3.794-44.382,4.61l-41.824-0.425
		c0.277-26.662,19.83-48.078,43.684-47.837c13.019,0.135,24.625,6.696,32.441,16.961l49.535-2.371
		C389.476,139.661,391.533,141.241,391.533,145.363z"/>
	<path fill="#2E70B5" d="M100.972,72.39c-5.622-1.002,39.277-41.091,67.792-47.996c28.506-6.894,70.176-7.791,95.123-2.715
		c24.937,5.077,62.701,22.458,61.629,33.334c-1.089,10.883-8.471,14.179-8.471,14.179l-178.15,3.234
		C138.895,72.427,106.595,73.402,100.972,72.39z"/>
	<path fill="#5A4823" d="M33.51,172.764l0.003-0.153c-12.196-1.197-19.545-4.822-21.778-7.286c-3.439-3.797-3.317-6.842-3.666-9.254
		c-0.358-2.397,0.781-3.68,0.781-3.68l29.44-1.594c7.114-15.146,21.381-25.514,37.887-25.576
		c23.448-0.088,42.584,20.702,43.046,46.583l-74.795,1.544L33.51,172.764z"/>
	<path d="M110.467,168.118c0,18.594-15.071,33.684-33.67,33.684c-18.617,0-33.688-15.09-33.688-33.684
		c0-18.611,15.071-33.682,33.688-33.682C95.396,134.436,110.467,149.507,110.467,168.118z"/>
	<path fill="#7F7F7F" d="M97.89,168.118c0,11.571-9.392,20.956-20.962,20.956c-11.581,0-20.965-9.384-20.965-20.956
		c0-11.58,9.383-20.969,20.965-20.969C88.497,147.149,97.89,156.538,97.89,168.118z"/>
	<path d="M340.33,168.118c0,18.594-15.082,33.684-33.683,33.684c-18.602,0-33.674-15.09-33.674-33.684
		c0-18.611,15.072-33.682,33.674-33.682C325.248,134.436,340.33,149.507,340.33,168.118z"/>
	<path fill="#7F7F7F" d="M327.613,168.126c0,11.571-9.389,20.956-20.965,20.956c-11.58,0-20.958-9.384-20.958-20.956
		c0-11.58,9.378-20.969,20.958-20.969C318.224,147.157,327.613,156.546,327.613,168.126z"/>
	<path fill="#3CA1DD" d="M17.484,110.202c7.381,0.524,16.561,0.282,24.959-2.603c10.409-3.567,11.868-15.984,11.281-25.614
		C32.114,90.598,22.772,101.424,17.484,110.202z"/>
	<path fill="#CB2945" d="M370.841,89.576c-5.686,5.005-21.27,22.653-21.27,26.8c0,2.987,21.349,2.483,34.965,1.854
		C381.005,108.825,376.109,98.862,370.841,89.576z"/>
	<polygon fill="#D97B2E" points="203.285,19.591 203.208,165.918 202.238,165.918 202.155,19.858 	"/>
	<path fill="#3CA1DD" d="M306.154,40.247c-11.755-6.525-28.14-13.1-43.561-16.247c-25.337-5.158-66.812-3.973-94.425,2.71
		c-10.153,2.454-22.088,8.978-33.053,16.36C194.107,58.957,266.54,48.418,306.154,40.247z"/>
	<path d="M208.823,71.159l-13.956,0.258c0.422-4.23,3.922-43.459,4.661-51.825c2.166-0.192,4.339-0.36,6.52-0.504L208.823,71.159z"
		/>
	<path d="M272.845,23.876l28.006,45.605l-15.527,0.287c-6.746-14.399-17.649-37.616-22.689-48.318
		c0.421,0.072,0.841,0.153,1.253,0.23C266.73,22.26,269.739,22.999,272.845,23.876z"/>
	<path fill="#D7732D" d="M122.602,73.464c-0.364,13.726-1.786,68.229-1.786,80.569c0,4.328,0.924,7.613,2.731,9.744
		c2.654,3.122,6.37,2.721,6.406,2.71c0.519,0.015,46.28,1.375,86.069,0.395c29.154-0.714,32.368-9.594,36.809-21.877
		c1.622-4.466,3.449-9.532,6.786-14.695c9.517-14.749,22.195-16.873,29.794-18.147c2.259-0.384,4.055-0.681,5.142-1.206
		c0.637-0.313,1.191-1.438,1.591-3.24c2.018-9.065-0.184-32.082-1.807-34.812c-0.225-0.387-0.749-1.336-1.457-2.681l1.087-0.021
		c0.544,0.986,0.919,1.675,1.104,1.986c1.73,2.916,4.081,26.272,1.956,35.851c-0.493,2.254-1.213,3.562-2.157,4.024
		c-1.181,0.579-3.017,0.887-5.348,1.274c-7.453,1.247-19.918,3.34-29.203,17.734c-3.25,5.042-5.057,10.036-6.652,14.434
		c-4.411,12.197-7.9,21.836-37.631,22.561c-39.804,0.975-85.586-0.374-86.043-0.395c-0.117,0.021-4.106,0.461-7.063-3.019
		c-2.006-2.361-3.034-5.933-3.034-10.621c0-12.34,1.422-66.777,1.782-80.574C121.987,73.464,122.294,73.464,122.602,73.464z"/>
	<path fill="#4E4A48" d="M134.911,72.955c0,0,1.17,4.625,1.704,6.149c0.535,1.524,4.835,5.154,0.71,5.498
		c-4.138,0.338-7.531,0.092-5.648-3.952c1.889-4.051-0.525-9.949-0.525-9.949L134.911,72.955z"/>
	<path fill="#E1972F" d="M136.091,61.416c0.421,1.771,1.15,5.821,1.643,7.859c0.483,2.053,1.324,5.641,0.497,6.452
		c-0.826,0.795-2.9,0.663-5.322,0.631c-2.411-0.04-6.066-0.148-7.408-3.74c-1.442-3.939,2.778-9.21,4.513-11.263
		c1.725-2.064,3.316-4.312,4.4-3.644C135.502,58.387,135.67,59.66,136.091,61.416z"/>
	<path fill="#CC2D41" d="M87.645,112.952c0,1.464,0.974,2.654,2.166,2.654h6.165c1.206,0,2.182-1.191,2.182-2.654v-1.765
		c0-1.459-0.976-2.65-2.182-2.65h-6.165c-1.192,0-2.166,1.191-2.166,2.65V112.952z"/>
</g>
</svg>
