<?xml version="1.0" encoding="utf-8"?>
<!-- Generator: Adobe Illustrator 17.0.0, SVG Export Plug-In . SVG Version: 6.00 Build 0)  -->
<!DOCTYPE svg PUBLIC "-//W3C//DTD SVG 1.1 Basic//EN" "http://www.w3.org/Graphics/SVG/1.1/DTD/svg11-basic.dtd">
<svg version="1.1" baseProfile="basic" id="Слой_1"
	 xmlns="http://www.w3.org/2000/svg" xmlns:xlink="http://www.w3.org/1999/xlink" x="0px" y="0px" width="399.208px"
	 height="209.083px" viewBox="0 0 399.208 209.083" xml:space="preserve">
<polygon fill="#A8A8A8" stroke="#272525" stroke-width="3" stroke-miterlimit="10" points="557.307,189.762 557.307,189.762 
	557.306,189.761 "/>
<polygon fill="#A8A8A8" stroke="#272525" stroke-width="3" stroke-miterlimit="10" points="199.767,105.098 199.767,105.098 
	199.766,105.098 "/>
<path fill="#A8A8A8" stroke="#272525" stroke-width="3" stroke-miterlimit="10" d="M76.688,135C58.071,135,43,150.071,43,168.682
	c0,18.594,15.071,33.685,33.688,33.685c18.599,0,33.67-15.09,33.67-33.685C110.358,150.07,95.287,135,76.688,135z"/>
<path fill="#A8A8A8" stroke="#272525" stroke-width="3" stroke-miterlimit="10" d="M306.674,135
	C288.072,135,273,150.071,273,168.682c0,18.594,15.072,33.685,33.674,33.685c18.601,0,33.683-15.09,33.683-33.685
	C340.357,150.07,325.275,135,306.674,135z"/>
<path fill="#A8A8A8" stroke="#272525" stroke-width="3" stroke-miterlimit="10" d="M199.037,20
	c-10.956,0.976-21.549,2.574-30.763,4.803c-28.515,6.905-73.415,46.994-67.792,47.996c1.283,0.231,3.953,0.358,7.311,0.417
	c11.366,0.2,30.613-0.381,30.613-0.381l55.972-1.016C194.801,67.564,198.298,28.364,199.037,20z"/>
<path fill="#A8A8A8" stroke="#272525" stroke-width="3" stroke-miterlimit="10" d="M272.032,24.008l28.006,45.605l16.194-0.287
	c0,0,7.999-3.251,8.471-14.179C325.331,40.623,270.48,23.569,272.032,24.008z"/>
<path fill="#A8A8A8" stroke="#272525" stroke-width="3" stroke-miterlimit="10" d="M262.587,21c0.421,0.072,0.841,0.153,1.253,0.23
	c-15.291-3.111-36.865-3.975-57.84-2.592l2.775,52.07l76.501-1.39C278.53,54.92,267.627,31.702,262.587,21z"/>
<path fill="#A8A8A8" stroke="#272525" stroke-width="3" stroke-miterlimit="10" d="M388.661,139.591l-49.536,2.372
	c-7.816-10.265-19.422-16.826-32.441-16.961c-23.854-0.241-43.407,21.175-43.684,47.837l9.515,0.097
	c-0.232-1.596-0.357-3.227-0.357-4.888c0-18.611,15.072-33.682,33.674-33.682c18.601,0,33.683,15.071,33.683,33.682
	c0,0.592-0.016,1.181-0.046,1.765c4.443-0.489,8.012-0.908,9.738-1.159c-0.033-0.41-0.073-0.818-0.116-1.225
	c14.395-2.23,33.995-5.329,33.995-5.329c3.932,0,7.634-12.695,7.634-16.808C390.718,141.171,388.661,139.591,388.661,139.591z"/>
<path fill="#A8A8A8" stroke="#272525" stroke-width="3" stroke-miterlimit="10" d="M43.507,173.079
	c-0.261-1.689-0.398-3.42-0.398-5.182c0-18.611,15.071-33.682,33.688-33.682c18.599,0,33.67,15.071,33.67,33.682
	c0,1.31-0.083,2.601-0.228,3.872l8.985-0.186c-0.462-25.881-19.598-46.671-43.046-46.583c-16.506,0.063-30.772,10.43-37.887,25.576
	l-29.44,1.594c0,0-1.14,1.283-0.781,3.68c0.349,2.413,0.227,5.457,3.666,9.254c2.233,2.464,9.582,6.089,21.778,7.286l-0.003,0.153
	L43.507,173.079z"/>
<path fill="#A8A8A8" stroke="#272525" stroke-width="3" stroke-miterlimit="10" d="M122.231,73.582L121,156.831
	c0,0,0.712,9.595,6.189,10.027c5.477,0.432,75.637,1.993,75.637,1.993V72L122.231,73.582z"/>
<path fill="#A8A8A8" stroke="#272525" stroke-width="3" stroke-miterlimit="10" d="M291.161,70c0,0,2.904,5.553,3.467,15.143
	s1.684,25.328-1.795,26.246c-3.479,0.918-17.355,5.031-24.17,8.028c-6.814,2.996-17.751,27.851-19.789,31.834
	c-2.038,3.984-6.434,14.197-19.553,15.1c-13.118,0.903-28.321,2.202-28.321,2.202V71.702L291.161,70z"/>
<path fill="#A8A8A8" stroke="#272525" stroke-width="3" stroke-miterlimit="10" d="M370.27,90c-5.686,5.005-21.27,22.653-21.27,26.8
	c0,2.987,21.349,2.483,34.965,1.854C380.434,109.249,375.538,99.286,370.27,90z"/>
<path fill="#A8A8A8" stroke="#272525" stroke-width="3" stroke-miterlimit="10" d="M347.711,57.017
	c-15.38-17.641-51.68-42.25-87.849-46.227C223.674,6.795,154.416-2.846,87.604,68.402c-3.23,0.841-6.749,2.171-10.604,3.737h22.706
	c0.039-5.004,41.414-40.929,68.267-47.431c9.215-2.229,19.807-3.827,30.763-4.803c-0.739,8.364-4.236,47.564-4.66,51.819
	l7.853-0.143l6.102-0.115l-2.775-52.065c20.975-1.382,42.548-0.519,57.84,2.592c-0.412-0.078-0.832-0.159-1.252-0.23
	c5.034,10.688,15.914,33.857,22.662,48.26l7.583-0.143c0,0,0.408,0.78,0.947,2.259h65.896
	C354.763,65.873,350.842,60.609,347.711,57.017z M324.725,55.328c-1.089,10.883-8.471,13.296-8.471,13.296l-16.194,0.287
	L272.054,24.19c-0.008-0.263,0.419-0.067,0.842,0.025C293.722,30.525,325.736,45.072,324.725,55.328z"/>
<path fill="#A8A8A8" stroke="#272525" stroke-width="3" stroke-miterlimit="10" d="M202.706,168.283
	c-5.631-0.126-70-1.571-75.237-1.984c-5.477-0.433-6.189-10.027-6.189-10.027l1.231-83.249c0,0-2.477,0.158-13.843-0.042
	c-3.358-0.059-6.028-0.187-7.311-0.417c-0.328-0.058-0.477-0.255-0.475-0.564H78.187c-6.648,2.7-14.299,6.102-23.25,8.947
	c-25.891,10.159-34.653,23.495-39.649,33.063c-4.481,8.577-5.366,24.208-3.049,37.685l26.439-1.43
	c7.114-15.146,21.381-25.514,37.887-25.576c23.448-0.088,42.584,20.702,43.046,46.583L138.555,172
	c22.928,0.366,21.646,1.025,64.252,1.405C202.716,171.712,202.669,170.009,202.706,168.283z"/>
<path fill="#A8A8A8" stroke="#272525" stroke-width="3" stroke-miterlimit="10" d="M382.884,118.521
	c-13.629,0.622-34.619,1.093-34.619-1.869c0-4.104,15.256-21.422,21.084-26.632c-3.605-6.446-7.359-12.549-10.932-17.918h-65.896
	c-0.013-0.037-0.025-0.066-0.038-0.102c0.902,2.446,2.201,6.9,2.558,12.986c0.563,9.59,1.684,25.328-1.795,26.246
	s-17.355,5.032-24.17,8.028c-6.814,2.996-17.751,27.851-19.789,31.834c-2.038,3.984-6.434,14.197-19.553,15.1
	c-13.118,0.903-28.321,2.202-28.321,2.202s-0.142-0.003-0.4-0.009c-0.037,1.726,0.01,3.429,0.1,5.12
	c29.15,0.26,49.916,0.391,56.512,0.208c6.034-0.17,4.883-1.236,4.883-1.236c0.277-26.662,19.83-48.078,43.684-47.837
	c13.019,0.135,24.625,6.696,32.441,16.961l49.536-2.372c0,0,0.092,0.07,0.235,0.218
	C387.728,133.201,385.715,126.021,382.884,118.521z"/>
</svg>
