<?xml version="1.0" encoding="utf-8"?>
<!-- Generator: Adobe Illustrator 17.0.0, SVG Export Plug-In . SVG Version: 6.00 Build 0)  -->
<!DOCTYPE svg PUBLIC "-//W3C//DTD SVG 1.1 Basic//EN" "http://www.w3.org/Graphics/SVG/1.1/DTD/svg11-basic.dtd">
<svg version="1.1" baseProfile="basic" id="Слой_1"
	 xmlns="http://www.w3.org/2000/svg" xmlns:xlink="http://www.w3.org/1999/xlink" x="0px" y="0px" width="399.208px"
	 height="209.083px" viewBox="0 0 399.208 209.083" xml:space="preserve">
<polygon fill="#A8A8A8" stroke="#272525" stroke-width="3" stroke-miterlimit="10" points="557.307,189.762 557.307,189.762 
	557.306,189.761 "/>
<path fill="#A8A8A8" stroke="#272525" stroke-width="3" stroke-miterlimit="10" d="M389.682,139.852
	c0.011,0.011,0.017,0.015,0.028,0.027c-0.698-6.44-2.809-13.869-5.78-21.622c0.202-0.009,0.407-0.018,0.606-0.027
	c-3.532-9.405-8.427-19.368-13.695-28.654c-0.143,0.126-0.296,0.265-0.451,0.406c-7.74-13.778-16.14-25.977-21.889-32.571
	c-15.38-17.641-51.68-42.25-87.849-46.227C224.465,7.189,155.207-2.452,88.395,68.796c-8.798,2.29-19.712,8.194-33.844,12.684
	c-25.891,10.159-34.653,23.495-39.649,33.063c-4.481,8.577-5.366,24.208-3.049,37.685l-3.001,0.163c0,0-1.14,1.283-0.781,3.68
	c0.349,2.413,0.227,5.457,3.666,9.254c2.233,2.464,9.582,6.089,21.778,7.286l-0.003,0.153l9.996,0.536
	c2.492,16.137,16.438,28.503,33.29,28.503c16.973,0,31-12.569,33.325-28.897c51.438,0.68,138.894,1.614,152.369,1.24
	c2.418-0.068,6.213-0.111,10.998-0.182c2.768,15.809,16.551,27.839,33.158,27.839c18.009,0,32.718-14.144,33.637-31.919
	c4.443-0.489,8.012-0.908,9.738-1.159c-0.033-0.41-0.073-0.818-0.116-1.225c14.396-2.23,33.995-5.329,33.995-5.329
	c3.932,0,7.634-12.695,7.634-16.808C391.533,142.047,390.203,140.378,389.682,139.852z M389.555,139.729
	c-0.018-0.016-0.033-0.029-0.045-0.039C389.523,139.7,389.53,139.708,389.555,139.729z M263.815,172.909l9.515,0.097c0,0,0,0,0,0
	L263.815,172.909z"/>
</svg>
