<?xml version="1.0" encoding="utf-8"?>
<!-- Generator: Adobe Illustrator 17.0.0, SVG Export Plug-In . SVG Version: 6.00 Build 0)  -->
<!DOCTYPE svg PUBLIC "-//W3C//DTD SVG 1.1 Basic//EN" "http://www.w3.org/Graphics/SVG/1.1/DTD/svg11-basic.dtd">
<svg version="1.1" baseProfile="basic" id="Слой_1"
	 xmlns="http://www.w3.org/2000/svg" xmlns:xlink="http://www.w3.org/1999/xlink" x="0px" y="0px" width="260px" height="335px"
	 viewBox="0 0 260 335" xml:space="preserve">
<g>
	<path fill="#DD8F8E" stroke="#FFFFFF" stroke-width="6" stroke-miterlimit="10" d="M248.603,69.874
		c2.2-2.485,4.062-5.29,5.889-8.073c0.488-0.743,0.716-2.353,0.271-2.844c-0.598-0.658-2.007-0.934-2.994-0.806
		c-1.836,0.238-3.735,0.634-5.403,1.407c-6.579,3.048-13.098,6.226-19.601,9.434c-7.973,3.933-15.874,8.015-23.884,11.872
		c-1.968,0.948-4.207,1.422-6.374,1.843c-2.446,0.475-3.576-0.519-3.641-2.971c-0.035-1.341-0.101-2.758,0.262-4.02
		c2.038-7.08,4.049-14.174,6.361-21.167c3.104-9.391,6.563-18.665,9.668-28.056c0.813-2.458,0.947-5.158,1.232-7.764
		c0.061-0.556-0.454-1.496-0.933-1.69c-0.41-0.167-1.34,0.331-1.708,0.798c-1.266,1.606-2.495,3.263-3.545,5.016
		c-4.034,6.737-7.899,13.576-12.008,20.265c-3.504,5.704-7.266,11.28-12.556,15.517c-1.787,1.431-3.947,2.515-6.097,3.337
		c-2.188,0.836-3.396,0.169-4.376-1.988c-0.673-1.482-1.332-3.051-1.556-4.643c-1.038-7.367-2.058-14.742-2.82-22.142
		c-0.776-7.526-1.154-15.093-1.899-22.623c-0.22-2.225-1.094-4.386-1.668-6.576c-0.235,0-0.469,0-0.704,0
		c-0.829,1.92-1.852,3.781-2.456,5.769c-3.505,11.531-4.922,23.457-6.295,35.365c-1.221,10.582-2.065,21.208-3.076,31.814
		c5.695,1.599,11.203,3.65,16.341,6.638c2.202,1.28,4.327,2.654,6.373,4.127c-2.046-1.473-4.172-2.847-6.374-4.126
		c-5.138-2.988-10.646-5.039-16.341-6.638c-0.519-0.068-1.044-0.106-1.556-0.209c-6.09-1.224-12.208-1.456-18.327-0.332
		c-16.002,2.94-26.758,13.4-36.328,25.537l0,0c-1.844,2.469-3.687,4.937-5.53,7.405c0.426,0.673,0.705,1.546,1.301,1.989
		c8.139,6.042,16.303,12.05,24.503,18.009c2.163,1.571,5.018,1.334,6.799-0.301c-1.781,1.636-4.637,1.874-6.8,0.302
		c-8.2-5.959-16.365-11.966-24.503-18.009c-0.596-0.443-0.874-1.316-1.301-1.989c-3.498,5.402-6.995,10.804-10.493,16.206l0,0
		c-1.672,3.025-3.343,6.048-5.014,9.072c0.132,0.188,0.225,0.427,0.4,0.556c4.755,3.507,9.494,7.037,14.29,10.488
		c2.257,1.625,5.093,1.416,6.916-0.274c-1.823,1.691-4.659,1.899-6.917,0.275c-4.796-3.451-9.535-6.981-14.29-10.488
		c-0.175-0.129-0.268-0.368-0.4-0.556c-0.17,0.158-0.402,0.285-0.501,0.479c-2.635,5.154-5.256,10.315-7.88,15.475l0.001,0.001
		c-1.547,3.268-3.094,6.538-4.64,9.805c1.759,1.257,3.504,2.536,5.282,3.765c1.667,1.153,3.49,1.392,5.07,0.791
		c-1.58,0.601-3.404,0.362-5.072-0.79c-1.778-1.23-3.522-2.508-5.282-3.765c-1.159,2.489-2.366,4.955-3.469,7.468
		c-19.762,45.009-34.9,91.616-47.81,138.988c-0.9,3.302-1.436,6.704-2.141,10.059c0,1.879,0,3.759,0,5.638
		c0.429,1.298,0.714,2.67,1.33,3.872c0.535,1.043,1.445,1.894,2.189,2.829c2.559-4.193,5.065-8.42,7.687-12.573
		c11.302-17.9,22.504-35.865,34.01-53.633c7.658-11.825,15.706-23.4,23.698-35.005c1.351-1.961,2.731-3.903,4.097-5.854
		c-1.366,1.951-2.746,3.892-4.096,5.853c-7.992,11.605-16.04,23.179-23.698,35.005c-11.506,17.768-22.708,35.733-34.01,53.633
		c-2.622,4.153-5.128,8.38-7.687,12.573c1.055,0.586,2.111,1.171,3.166,1.756c1.407,0,2.815,0,4.222,0
		c0.077-0.081,0.143-0.218,0.232-0.235c8.474-1.653,15.943-5.413,22.278-11.218c21.32-19.535,42.688-39.022,63.783-58.799
		c23.282-21.828,46.147-44.096,67.724-67.642c7.687-8.388,15.278-16.878,21.526-26.439c5.839-8.935,8.817-18.78,8.118-29.474
		c-0.315-4.816-1.512-9.574-2.309-14.358c-2.853-8.734-7.319-16.557-13.284-23.527c-0.005-0.005-0.01-0.01-0.014-0.015
		c0.005,0.006,0.01,0.011,0.015,0.016c5.965,6.97,10.431,14.792,13.285,23.526c14.733-2.991,29.446-6.073,43.803-10.604
		c2.44-0.771,4.82-1.798,7.122-2.924c1.621-0.793,1.612-1.779,0.041-2.663c-1.363-0.767-2.832-1.515-4.345-1.816
		c-6.478-1.288-12.983-2.446-19.492-3.569c-2.368-0.408-4.777-0.587-7.458-0.905c0.607-0.557,0.943-0.873,1.287-1.179
		C228.745,89.821,239.253,80.441,248.603,69.874z M181.303,97.494c-7.356,7.389-14.852,14.645-22.038,22.196
		c-5.634,5.921-10.94,12.16-16.291,18.344c-5.309,6.136-10.583,12.307-15.708,18.597c-5.53,6.786-10.959,13.657-16.268,20.617
		c-6.938,9.096-13.785,18.265-20.539,27.499c-1.29,1.763-2.555,3.545-3.834,5.316c1.279-1.771,2.544-3.552,3.833-5.315
		c6.754-9.234,13.601-18.403,20.539-27.499c5.309-6.96,10.739-13.832,16.268-20.617c5.125-6.29,10.399-12.461,15.708-18.597
		c5.351-6.184,10.657-12.423,16.291-18.344c7.186-7.552,14.681-14.807,22.038-22.196c0.16-0.161,0.252-0.391,0.375-0.588l0,0
		C181.554,97.105,181.462,97.333,181.303,97.494z"/>
	<g>
		<g>
			<path fill="#D1542D" d="M197.259,122.835c0.797,4.784,1.994,9.542,2.309,14.358c0.699,10.694-2.279,20.539-8.118,29.474
				c-6.248,9.561-13.839,18.051-21.526,26.439c-21.577,23.546-44.442,45.814-67.724,67.642
				c-21.095,19.777-42.463,39.264-63.783,58.799c-6.335,5.805-13.804,9.565-22.278,11.218c-0.089,0.017-0.155,0.154-0.232,0.235
				c-1.407,0-2.815,0-4.222,0c-1.055-0.585-2.111-1.17-3.166-1.756c2.559-4.193,5.065-8.42,7.687-12.573
				c11.302-17.9,22.504-35.865,34.01-53.633c7.658-11.826,15.706-23.4,23.698-35.005c5.4-7.841,10.924-15.602,16.545-23.286
				c6.754-9.234,13.601-18.403,20.539-27.499c5.309-6.96,10.738-13.831,16.268-20.617c5.125-6.29,10.399-12.461,15.708-18.597
				c5.351-6.184,10.657-12.423,16.291-18.344c7.186-7.551,14.682-14.807,22.038-22.196c0.16-0.161,0.252-0.39,0.375-0.588
				c0.768,0.799,1.578,1.561,2.297,2.402C189.94,106.278,194.406,114.101,197.259,122.835z"/>
			<path fill="#D36342" d="M181.677,96.907c-0.123,0.197-0.215,0.427-0.375,0.588c-7.357,7.389-14.852,14.644-22.038,22.196
				c-5.634,5.921-10.94,12.16-16.291,18.344c-5.309,6.136-10.583,12.307-15.708,18.597c-5.529,6.785-10.959,13.657-16.268,20.617
				c-6.938,9.096-13.785,18.265-20.539,27.499c-5.621,7.685-11.144,15.445-16.545,23.286c-7.992,11.605-16.04,23.18-23.698,35.005
				c-11.506,17.768-22.708,35.733-34.01,53.633c-2.622,4.153-5.128,8.38-7.687,12.573c-0.744-0.935-1.654-1.786-2.189-2.829
				c-0.616-1.202-0.901-2.574-1.33-3.872c0-1.879,0-3.759,0-5.638c0.705-3.355,1.241-6.757,2.141-10.059
				c12.91-47.372,28.048-93.979,47.81-138.988c1.103-2.513,2.31-4.979,3.469-7.468c1.76,1.257,3.504,2.535,5.282,3.765
				c2.668,1.844,5.736,1.35,7.566-1.183c1.752-2.425,1.168-5.48-1.426-7.399c-2.256-1.669-4.52-3.327-6.781-4.99
				c2.624-5.16,5.245-10.321,7.88-15.475c0.099-0.194,0.331-0.321,0.501-0.479c0.132,0.188,0.225,0.427,0.4,0.556
				c4.755,3.507,9.494,7.037,14.29,10.488c2.58,1.856,5.916,1.319,7.631-1.089c1.696-2.383,1.141-5.522-1.439-7.432
				c-5.265-3.898-10.576-7.734-15.867-11.596c3.498-5.402,6.995-10.804,10.493-16.206c0.427,0.673,0.705,1.546,1.301,1.989
				c8.138,6.043,16.303,12.05,24.503,18.009c2.472,1.796,5.849,1.229,7.492-1.087c1.757-2.476,1.133-5.646-1.491-7.58
				c-7.075-5.214-14.132-10.453-21.238-15.625c-1.591-1.158-3.353-2.081-5.036-3.112c9.57-12.137,20.326-22.597,36.328-25.537
				c6.119-1.124,12.237-0.892,18.327,0.332c0.512,0.103,1.037,0.141,1.556,0.209c5.695,1.599,11.203,3.65,16.341,6.638
				C171.247,87.199,176.889,91.515,181.677,96.907z"/>
			<path fill="#69A063" d="M181.677,96.907c-4.789-5.392-10.431-9.708-16.644-13.321c-5.138-2.988-10.646-5.039-16.341-6.638
				c1.011-10.606,1.855-21.232,3.076-31.814c1.373-11.908,2.79-23.834,6.295-35.365c0.604-1.988,1.627-3.849,2.456-5.769
				c0.235,0,0.469,0,0.704,0c0.574,2.19,1.448,4.351,1.668,6.576c0.745,7.53,1.123,15.097,1.899,22.623
				c0.762,7.4,1.782,14.775,2.82,22.142c0.224,1.592,0.883,3.161,1.556,4.643c0.98,2.157,2.188,2.824,4.376,1.988
				c2.15-0.822,4.31-1.906,6.097-3.337c5.29-4.237,9.052-9.813,12.556-15.517c4.109-6.689,7.974-13.528,12.008-20.265
				c1.05-1.753,2.279-3.41,3.545-5.016c0.368-0.467,1.298-0.965,1.708-0.798c0.479,0.194,0.994,1.134,0.933,1.69
				c-0.285,2.606-0.419,5.306-1.232,7.764c-3.105,9.391-6.564,18.665-9.668,28.056c-2.312,6.993-4.323,14.087-6.361,21.167
				c-0.363,1.262-0.297,2.679-0.262,4.02c0.065,2.452,1.195,3.446,3.641,2.971c2.167-0.421,4.406-0.895,6.374-1.843
				c8.01-3.857,15.911-7.939,23.884-11.872c6.503-3.208,13.022-6.386,19.601-9.434c1.668-0.773,3.567-1.169,5.403-1.407
				c0.987-0.128,2.396,0.148,2.994,0.806c0.445,0.491,0.217,2.101-0.271,2.844c-1.827,2.783-3.689,5.588-5.889,8.073
				c-9.35,10.567-19.858,19.947-30.384,29.301c-0.344,0.306-0.68,0.622-1.287,1.179c2.681,0.318,5.09,0.497,7.458,0.905
				c6.509,1.123,13.014,2.281,19.492,3.569c1.513,0.301,2.982,1.049,4.345,1.816c1.571,0.884,1.58,1.87-0.041,2.663
				c-2.302,1.126-4.682,2.153-7.122,2.924c-14.357,4.531-29.07,7.613-43.803,10.604c-2.854-8.734-7.32-16.556-13.285-23.526
				C183.256,98.468,182.446,97.705,181.677,96.907z"/>
			<path fill="#DD8F8E" d="M92.481,101.944c1.683,1.031,3.445,1.954,5.036,3.112c7.106,5.172,14.163,10.411,21.238,15.625
				c2.624,1.934,3.248,5.104,1.491,7.58c-1.643,2.316-5.02,2.883-7.492,1.087c-8.2-5.959-16.364-11.967-24.503-18.009
				c-0.596-0.443-0.875-1.316-1.301-1.989C88.793,106.882,90.637,104.413,92.481,101.944z"/>
			<path fill="#DD8F8E" d="M76.457,125.556c5.292,3.862,10.602,7.698,15.867,11.596c2.58,1.91,3.135,5.049,1.439,7.432
				c-1.715,2.408-5.051,2.946-7.631,1.089c-4.796-3.451-9.535-6.981-14.29-10.488c-0.175-0.129-0.268-0.368-0.4-0.556
				C73.114,131.605,74.785,128.581,76.457,125.556z"/>
			<path fill="#DD8F8E" d="M63.062,150.583c2.26,1.663,4.525,3.321,6.781,4.99c2.594,1.92,3.179,4.974,1.426,7.399
				c-1.83,2.533-4.898,3.028-7.566,1.183c-1.778-1.229-3.523-2.508-5.282-3.765C59.967,157.122,61.515,153.852,63.062,150.583z"/>
		</g>
	</g>
</g>
</svg>
