<?xml version="1.0" encoding="utf-8"?>
<!-- Generator: Adobe Illustrator 17.0.0, SVG Export Plug-In . SVG Version: 6.00 Build 0)  -->
<!DOCTYPE svg PUBLIC "-//W3C//DTD SVG 1.1 Basic//EN" "http://www.w3.org/Graphics/SVG/1.1/DTD/svg11-basic.dtd">
<svg version="1.1" baseProfile="basic" id="Слой_1"
	 xmlns="http://www.w3.org/2000/svg" xmlns:xlink="http://www.w3.org/1999/xlink" x="0px" y="0px" width="260px" height="335px"
	 viewBox="0 0 260 335" xml:space="preserve">
<g>
	<path fill="#D1542D" d="M153.52,125.951c-3.563,3.984-7.049,8.041-10.546,12.083c-5.309,6.136-10.583,12.307-15.708,18.597
		c-5.529,6.785-10.959,13.657-16.268,20.617c-6.938,9.096-13.785,18.265-20.539,27.499c-5.621,7.685-11.144,15.445-16.545,23.286
		c-7.992,11.605-16.04,23.18-23.698,35.005c-11.506,17.768-22.708,35.733-34.01,53.633c-2.622,4.153-5.128,8.38-7.687,12.573
		c1.055,0.585,2.111,1.17,3.166,1.756c1.407,0,2.815,0,4.222,0c0.077-0.081,0.143-0.218,0.232-0.235
		c8.475-1.653,15.943-5.413,22.278-11.218c21.32-19.536,42.688-39.022,63.783-58.799c23.282-21.828,46.147-44.095,67.724-67.642
		c7.687-8.389,15.279-16.879,21.526-26.439c5.839-8.936,8.817-18.781,8.118-29.474c-0.121-1.848-0.373-3.688-0.681-5.525
		l-12.671,17.725L153.52,125.951z"/>
	<path fill="#D36342" d="M50.216,263.039c7.658-11.826,15.706-23.4,23.698-35.005c5.4-7.841,10.924-15.602,16.545-23.286
		c6.754-9.234,13.601-18.403,20.539-27.499c5.309-6.96,10.738-13.831,16.268-20.617c5.125-6.29,10.399-12.461,15.708-18.597
		c3.497-4.042,6.984-8.099,10.546-12.083l-34.028-24.396l18.488-25.863c-3.054-0.07-6.112,0.153-9.17,0.715
		c-16.002,2.94-26.759,13.4-36.328,25.537c1.683,1.031,3.445,1.954,5.036,3.112c7.106,5.172,14.163,10.411,21.238,15.625
		c2.624,1.934,3.248,5.104,1.491,7.58c-1.643,2.316-5.02,2.883-7.492,1.087c-8.199-5.959-16.364-11.967-24.503-18.009
		c-0.597-0.443-0.875-1.316-1.301-1.989c-3.498,5.402-6.996,10.804-10.493,16.206c5.292,3.862,10.602,7.698,15.867,11.596
		c2.58,1.91,3.135,5.049,1.439,7.432c-1.715,2.408-5.051,2.946-7.631,1.089c-4.796-3.451-9.535-6.981-14.29-10.488
		c-0.175-0.129-0.268-0.368-0.4-0.556c-0.17,0.158-0.402,0.285-0.501,0.479c-2.635,5.154-5.256,10.315-7.88,15.475
		c2.261,1.663,4.525,3.321,6.781,4.99c2.594,1.92,3.179,4.974,1.426,7.399c-1.83,2.533-4.898,3.028-7.566,1.183
		c-1.778-1.229-3.523-2.508-5.282-3.765c-1.159,2.488-2.366,4.955-3.469,7.467c-19.762,45.009-34.9,91.616-47.81,138.988
		c-0.9,3.302-1.436,6.703-2.141,10.059c0,1.879,0,3.759,0,5.638c0.429,1.298,0.714,2.671,1.33,3.872
		c0.535,1.043,1.445,1.893,2.189,2.829c2.559-4.193,5.065-8.42,7.687-12.573C27.508,298.773,38.71,280.807,50.216,263.039z"/>
	<path fill="#DD8F8E" d="M112.754,129.348c2.472,1.796,5.849,1.229,7.492-1.087c1.757-2.476,1.133-5.646-1.491-7.58
		c-7.075-5.214-14.132-10.453-21.238-15.625c-1.591-1.158-3.353-2.081-5.036-3.112c-1.844,2.469-3.687,4.938-5.531,7.407
		c0.427,0.673,0.705,1.546,1.301,1.989C96.39,117.382,104.555,123.389,112.754,129.348z"/>
	<path fill="#DD8F8E" d="M86.132,145.674c2.58,1.856,5.916,1.319,7.631-1.089c1.696-2.383,1.141-5.522-1.439-7.432
		c-5.265-3.898-10.576-7.734-15.867-11.596c-1.672,3.025-3.343,6.049-5.014,9.074c0.132,0.188,0.225,0.427,0.4,0.556
		C76.597,138.693,81.336,142.223,86.132,145.674z"/>
	<path fill="#DD8F8E" d="M71.269,162.973c1.752-2.425,1.168-5.48-1.426-7.399c-2.256-1.669-4.52-3.327-6.781-4.99
		c-1.547,3.269-3.094,6.538-4.642,9.807c1.76,1.257,3.504,2.535,5.282,3.765C66.371,166.001,69.439,165.505,71.269,162.973z"/>
</g>
</svg>
