<?xml version="1.0" encoding="utf-8"?>
<!-- Generator: Adobe Illustrator 17.0.0, SVG Export Plug-In . SVG Version: 6.00 Build 0)  -->
<!DOCTYPE svg PUBLIC "-//W3C//DTD SVG 1.1 Basic//EN" "http://www.w3.org/Graphics/SVG/1.1/DTD/svg11-basic.dtd">
<svg version="1.1" baseProfile="basic" id="Слой_1"
	 xmlns="http://www.w3.org/2000/svg" xmlns:xlink="http://www.w3.org/1999/xlink" x="0px" y="0px" width="135.507px"
	 height="145.394px" viewBox="0 0 135.507 145.394" xml:space="preserve">
<path fill="#87BB50" d="M129.108,65.874c2.199-2.486,4.062-5.29,5.889-8.073c0.488-0.743,0.716-2.353,0.271-2.844
	c-0.598-0.659-2.006-0.934-2.994-0.806c-1.836,0.238-3.735,0.634-5.403,1.407c-6.578,3.048-13.098,6.226-19.601,9.434
	c-7.973,3.933-15.875,8.015-23.884,11.872c-1.968,0.948-4.207,1.422-6.374,1.843c-2.446,0.475-3.576-0.52-3.641-2.971
	c-0.036-1.341-0.102-2.758,0.262-4.02c2.038-7.08,4.05-14.174,6.361-21.167c3.104-9.391,6.563-18.665,9.668-28.056
	c0.813-2.459,0.947-5.158,1.232-7.764c0.061-0.555-0.454-1.496-0.933-1.69c-0.41-0.166-1.34,0.332-1.708,0.798
	c-1.267,1.606-2.495,3.262-3.545,5.016c-4.034,6.736-7.899,13.575-12.008,20.265c-3.504,5.705-7.266,11.28-12.556,15.517
	c-1.787,1.431-3.947,2.515-6.097,3.337c-2.188,0.836-3.395,0.169-4.376-1.988c-0.673-1.482-1.332-3.051-1.556-4.643
	c-1.037-7.367-2.057-14.743-2.82-22.142c-0.775-7.526-1.154-15.093-1.899-22.623C43.176,4.351,42.302,2.19,41.728,0
	c-0.235,0-0.469,0-0.704,0c-0.829,1.92-1.852,3.78-2.456,5.769c-3.505,11.531-4.922,23.457-6.295,35.365
	c-1.221,10.582-2.065,21.208-3.075,31.814c4.271,1.199,8.438,2.653,12.422,4.565c-3.983-1.912-8.149-3.365-12.419-4.564
	c-0.519-0.068-1.044-0.106-1.556-0.209c-3.046-0.613-6.1-0.977-9.157-1.047L0,97.556l34.028,24.396l32.697,23.442l12.671-17.725
	c-0.495-2.948-1.137-5.886-1.628-8.833l0,0c14.733-2.991,29.444-6.073,43.802-10.605c2.441-0.77,4.82-1.797,7.122-2.924
	c1.621-0.793,1.612-1.779,0.041-2.663c-1.363-0.767-2.832-1.516-4.345-1.816c-6.478-1.288-12.983-2.446-19.492-3.569
	c-2.369-0.409-4.777-0.587-7.458-0.905c0.608-0.557,0.943-0.873,1.287-1.179C109.25,85.821,119.758,76.441,129.108,65.874z
	 M39.772,115.691c7.186-7.551,14.682-14.807,22.038-22.195C54.454,100.885,46.958,108.14,39.772,115.691z"/>
</svg>
