<?xml version="1.0" encoding="utf-8"?>
<!-- Generator: Adobe Illustrator 17.0.0, SVG Export Plug-In . SVG Version: 6.00 Build 0)  -->
<!DOCTYPE svg PUBLIC "-//W3C//DTD SVG 1.1 Basic//EN" "http://www.w3.org/Graphics/SVG/1.1/DTD/svg11-basic.dtd">
<svg version="1.1" baseProfile="basic" id="Слой_1"
	 xmlns="http://www.w3.org/2000/svg" xmlns:xlink="http://www.w3.org/1999/xlink" x="0px" y="0px" width="254.5px"
	 height="327.25px" viewBox="0 0 254.5 327.25" xml:space="preserve">
<path fill="none" stroke="#FFFFFF" stroke-width="6" stroke-miterlimit="10" d="M243.524,244.307c0.03-1.84-0.039-3.742-0.167-5.664
	c-0.021-0.335-0.034-0.673-0.059-1.006c-0.026-0.33-0.065-0.662-0.096-0.994c-0.078-0.874-0.166-1.743-0.273-2.601
	c-0.023-0.18-0.052-0.36-0.076-0.541c-0.119-0.896-0.249-1.785-0.399-2.664c-0.109-0.655-0.236-1.305-0.36-1.957
	c-0.042-0.208-0.078-0.419-0.122-0.626c-0.792-3.974-1.852-7.861-3.175-11.41c-8.213-22.053-26.28-37.427-47.387-37.618
	c-6.715-0.057-13.154,1.449-19.085,4.22c-4.507-2.197-9.319-3.653-14.342-4.244c-14.42-18.809-24.553-46.783-28.407-80.174
	c-1.016-8.806-1.275-18.393-1.096-27.932c0.345-0.031,0.642-0.077,0.898-0.137c2.431,2.74,4.188,7.551,6.114,12.856
	c2.94,8.086,6.27,17.254,13.161,22.605c10.815,8.193,23.856,6.327,45.012-6.467c0.24-0.148,0.36-0.417,0.318-0.693
	c-0.014-0.014-0.014-0.028-0.021-0.042c-0.071-0.283-0.325-0.481-0.615-0.495c-6.206-0.233-9.309-6.786-12.907-14.37
	c-3.577-7.577-7.641-16.158-15.798-20.696c-7.606-4.229-17.608-4.248-30.421-0.018c-2.23-0.304-4.049-0.23-5.517,0.051
	c0.869-21.255,3.545-41.186,4.469-50.395c0.106-1.124-4.616-4.927-7.259-5.266c-2.679-0.339-3.054,2.191-3.294,3.711l-0.035,0.205
	c-1.746,11.034-0.601,23.969-9.337,34.381c-5.287,6.312-13.289,15.854-26.273,33.066c-23.804,31.564-27.947,71.869-27.872,96.481
	c1.425,0.171,3.038,2.223,4.838,2.206c-1.801,0.017-3.414-2.035-4.839-2.206c0.01,3.382,0.101,6.457,0.231,9.183
	c-4.824-1.021-9.802-1.169-14.798-0.267c-14.398,2.58-27.333,15.374-31.772,27.404c0.053,0.111,0.107,0.211,0.161,0.321
	c-4.602,10.34-6.21,22.883-3.83,36.159c0.219,1.23,0.481,2.439,0.763,3.647c0.127,1.074,0.276,2.149,0.467,3.223
	c5.52,30.783,37.597,50.801,71.659,44.693c11.513-2.064,21.771-6.855,30.1-13.475c-0.121,0.096-0.238,0.195-0.359,0.29
	c12.673,17.44,34.42,29.044,59.221,29.261c39.314,0.339,71.462-28.076,72.041-63.559c0.318-2.764,0.516-5.563,0.537-8.426
	C243.524,244.321,243.524,244.314,243.524,244.307z M134.386,245.202c0.042-0.814,0.057-1.632,0.06-2.451
	C134.443,243.57,134.427,244.388,134.386,245.202z M122.93,201.473c0.006,0.009,0.011,0.018,0.017,0.027
	c-0.02-0.03-0.04-0.06-0.06-0.089C122.901,201.432,122.916,201.452,122.93,201.473z M125.684,206.076
	c-0.281-0.522-0.575-1.02-0.865-1.525C125.109,205.055,125.403,205.554,125.684,206.076z M127.007,208.681
	c-0.172-0.358-0.355-0.702-0.532-1.054C126.652,207.98,126.835,208.323,127.007,208.681z M128.233,211.381
	c-0.133-0.311-0.276-0.613-0.414-0.921C127.957,210.768,128.1,211.07,128.233,211.381z M132.172,223.359
	c-0.034-0.149-0.077-0.3-0.112-0.449C132.096,223.06,132.138,223.21,132.172,223.359z M129.073,213.44
	c0.069,0.176,0.146,0.347,0.214,0.524c0.069,0.176,0.137,0.352,0.204,0.529c0.005,0.014,0.01,0.027,0.015,0.041
	c-0.119-0.317-0.251-0.627-0.374-0.941C129.112,213.542,129.094,213.491,129.073,213.44z M129.606,214.8
	c0.004,0.012,0.009,0.024,0.013,0.035c0.03,0.081,0.057,0.165,0.087,0.246c-0.008-0.023-0.017-0.044-0.026-0.067
	C129.654,214.943,129.632,214.871,129.606,214.8z M130.125,216.263c0.127,0.366,0.252,0.732,0.374,1.102
	c-0.02-0.06-0.042-0.119-0.062-0.178C130.335,216.877,130.232,216.569,130.125,216.263z M130.916,218.681
	c0.036,0.117,0.076,0.232,0.111,0.35c0.016,0.053,0.032,0.106,0.048,0.159c0.083,0.281,0.164,0.565,0.244,0.849
	c0.013,0.044,0.022,0.088,0.034,0.133c-0.042-0.149-0.091-0.298-0.134-0.447C131.119,219.376,131.021,219.026,130.916,218.681z
	 M133.766,250.949c-0.125,0.765-0.272,1.526-0.431,2.284C133.494,252.475,133.641,251.714,133.766,250.949z M133.194,253.889
	c-0.176,0.791-0.364,1.578-0.576,2.36C132.83,255.468,133.017,254.68,133.194,253.889z M134.376,245.351
	c-0.043,0.787-0.108,1.571-0.186,2.352C134.268,246.922,134.333,246.138,134.376,245.351z M134.119,248.371
	c-0.092,0.811-0.195,1.62-0.325,2.424C133.923,249.991,134.027,249.182,134.119,248.371z M133.73,233.97
	c0.134,0.794,0.243,1.588,0.339,2.38C133.973,235.558,133.864,234.765,133.73,233.97z M134.151,237.062
	c0.087,0.809,0.161,1.616,0.209,2.422C134.312,238.679,134.238,237.871,134.151,237.062z M134.37,239.68
	c0.045,0.797,0.065,1.591,0.073,2.384C134.436,241.272,134.415,240.477,134.37,239.68z M129.644,264.49
	c-0.329,0.727-0.668,1.45-1.029,2.164C128.976,265.94,129.315,265.217,129.644,264.49z M132.562,256.44
	c-0.201,0.731-0.422,1.457-0.654,2.179C132.141,257.897,132.361,257.171,132.562,256.44z M131.694,259.275
	c-0.255,0.762-0.522,1.52-0.811,2.27C131.172,260.795,131.438,260.036,131.694,259.275z M130.785,261.788
	c-0.268,0.686-0.552,1.366-0.848,2.041C130.232,263.154,130.517,262.474,130.785,261.788z M121.006,278.112
	c0.437-0.518,0.866-1.042,1.285-1.572c-0.241,0.305-0.483,0.609-0.73,0.91C121.379,277.672,121.192,277.892,121.006,278.112z
	 M120.294,278.946c-0.206,0.235-0.417,0.466-0.626,0.699c-0.227,0.251-0.452,0.504-0.684,0.752c-0.007,0.007-0.013,0.014-0.02,0.021
	c0.51-0.546,1.007-1.102,1.495-1.664C120.403,278.817,120.35,278.883,120.294,278.946z M118.24,281.173
	c-0.206,0.213-0.409,0.428-0.617,0.638c-0.152,0.153-0.309,0.301-0.462,0.452c0.423-0.417,0.84-0.84,1.25-1.268
	C118.354,281.055,118.297,281.114,118.24,281.173z M122.593,276.162c0.484-0.623,0.949-1.258,1.406-1.897
	C123.542,274.904,123.076,275.538,122.593,276.162z M124.458,273.612c0.398-0.573,0.786-1.151,1.162-1.736
	C125.244,272.461,124.856,273.039,124.458,273.612z M125.841,271.539c0.426-0.673,0.833-1.356,1.23-2.043
	C126.674,270.184,126.268,270.867,125.841,271.539z M127.444,268.839c0.352-0.627,0.693-1.259,1.02-1.898
	C128.137,267.58,127.796,268.212,127.444,268.839z M91.344,82.688c12.9-17.106,20.845-26.577,26.104-32.847
	c2.085-2.495,3.732-4.46,5.04-6.142c-1.711,35.944-0.417,98.146,28.354,135.266c-12.275,0.724-24.563,7.509-32.817,16.06
	c-10.736-12.273-25.636-18.816-40.636-16.123c-4.675,0.833-9.022,2.528-12.971,4.899c-0.06-1.768-0.102-3.691-0.114-5.753
	C64.168,154.754,67.798,113.902,91.344,82.688z M114.298,284.918c-0.507,0.441-1.022,0.875-1.544,1.302
	C113.277,285.794,113.792,285.36,114.298,284.918z M116.477,282.931c-0.576,0.551-1.159,1.095-1.759,1.627
	C115.318,284.026,115.901,283.481,116.477,282.931z"/>
<path fill="#EB7272" d="M1602.97,686.224c0.358-0.247,0.715-0.495,1.073-0.742c0.084,0.127,0.169,0.254,0.253,0.381
	c-0.434,0.129-0.868,0.259-1.302,0.388C1602.994,686.25,1602.97,686.224,1602.97,686.224z"/>
<path fill="#EB7272" d="M1570.006,1049.175c0.243,0.36,0.489,0.718,0.714,1.089c0.004,0.007-0.235,0.163-0.361,0.249
	c-0.133-0.432-0.267-0.865-0.401-1.297C1569.957,1049.216,1570.006,1049.175,1570.006,1049.175z"/>
<g>
	<g>
		<path fill="#94BA4D" d="M193.665,99.955c0.24-0.148,0.36-0.417,0.318-0.693c-0.014-0.014-0.014-0.028-0.021-0.042
			c-0.071-0.283-0.325-0.481-0.615-0.495c-6.206-0.233-9.309-6.786-12.907-14.37c-3.577-7.577-7.641-16.158-15.798-20.696
			c-9.394-5.224-22.442-4.029-39.929,3.668c-0.269,0.127-0.431,0.424-0.375,0.728v0.007c0.057,0.297,0.311,0.516,0.622,0.53
			c5.089,0.24,7.613,7.181,10.532,15.225c2.94,8.086,6.27,17.254,13.161,22.605C159.468,114.615,172.509,112.749,193.665,99.955z"/>
		<path fill="#79A24C" d="M124.381,65.61c1.993-1.696,7.21-4.071,18.074,0.368c14.031,5.732,20.894,16.865,23.601,23.283
			l0.064,0.163l0.007,0.014l0.064,0.148l0.064,0.156l-0.113-0.233l-0.007-0.014l-0.106-0.226l-0.021-0.035l-0.042-0.085
			l-0.071-0.127l-0.028-0.057l-0.035-0.071l-0.071-0.127l-0.049-0.078l-0.028-0.057l-0.071-0.127l-0.078-0.141l-0.085-0.134l0,0
			l-0.163-0.283l-0.085-0.127l0.078,0.134c-0.014-0.021-0.021-0.035-0.035-0.049c-0.085-0.148-0.177-0.297-0.276-0.452
			c-0.028-0.042-0.057-0.092-0.085-0.134c-0.099-0.148-0.191-0.29-0.297-0.438c-0.035-0.057-0.078-0.127-0.12-0.184
			c-0.092-0.134-0.184-0.276-0.283-0.41c-0.057-0.078-0.113-0.163-0.17-0.24c-0.092-0.127-0.184-0.254-0.276-0.375l-0.064-0.099
			l-0.007-0.007l-0.007-0.007l0,0l-0.141-0.184c-0.085-0.113-0.17-0.226-0.262-0.346c-0.085-0.113-0.184-0.233-0.276-0.353
			c-0.049-0.064-0.099-0.12-0.148-0.184l-0.007-0.014l-0.007-0.007l-0.007-0.007l-0.007-0.014l-0.007-0.007l-0.007-0.007
			l-0.007-0.014l-0.007-0.007l-0.007-0.007l-0.007-0.014l-0.014-0.014l-0.007-0.014l-0.014-0.014l-0.064-0.078l-0.007-0.014
			l-0.021-0.028l-0.014-0.014l-0.007-0.014l-0.014-0.007l-0.014-0.014l-0.007-0.014l0,0l-0.014-0.014l-0.007-0.014l-0.014-0.014
			l-0.007-0.014l-0.014-0.014l-0.007-0.014l-0.014-0.007l-0.014-0.014l-0.085-0.106c-0.071-0.085-0.134-0.163-0.205-0.247
			c-0.134-0.163-0.276-0.325-0.417-0.488c-0.021-0.035-0.049-0.064-0.071-0.092l-0.014-0.007v-0.007l-0.007-0.007l-0.014-0.014
			l-0.007-0.014l-0.014-0.007l-0.007-0.014l-0.014-0.014l-0.021-0.028l-0.368-0.417l-0.014-0.007l-0.113-0.134l-0.028-0.021
			l-0.007-0.014l-0.007-0.007l-0.007-0.007l-0.007-0.007l-0.007-0.007l-0.007-0.014l-0.007-0.007l-0.049-0.049l-0.071-0.078
			l-0.007-0.014l-0.014-0.007l-0.007-0.014l-0.007-0.007l-0.007-0.007l-0.014-0.014l-0.007-0.007l0,0l-0.007-0.014l-0.014-0.007
			l-0.007-0.014l-0.007-0.007l-0.007-0.007l-0.014-0.014l-0.007-0.007l-0.007-0.014l-0.014-0.007l-0.007-0.007l-0.007-0.014
			l-0.014-0.007l-0.007-0.014l-0.007-0.007l0,0l-0.007-0.014l-0.014-0.007l-0.007-0.007l-0.007-0.014l-0.014-0.007l-0.007-0.014
			l-0.007-0.007l-0.014-0.007l-0.007-0.014l-0.007-0.007l-0.014-0.014l-0.007-0.007l-0.007-0.007v-0.007l-0.014-0.007l-0.007-0.007
			l-0.007-0.014l-0.014-0.007l-0.17-0.184l-0.035-0.042c-0.693-0.728-1.428-1.463-2.219-2.198l0,0
			c-4.835-4.488-11.507-8.807-19.509-10.299c-11.267-2.092-3.81,2.778-13.225,1.88C123.193,70.374,123.342,66.324,124.381,65.61z"/>
		<g>
			<path fill="#C42329" d="M191.382,182.861c-6.722-0.064-13.154,1.442-19.092,4.206c-5.881-2.863-12.285-4.481-19.007-4.545
				c-13.043-0.111-25.021,4.877-34.298,13.627c1.916,2.306,3.692,4.797,5.296,7.458c1.892,3.141,3.594,6.685,5.006,10.357
				c0.069,0.176,0.137,0.352,0.204,0.529c0.043,0.114,0.086,0.228,0.128,0.342c0.511,1.368,0.982,2.766,1.408,4.196
				c0.016,0.053,0.032,0.106,0.048,0.159c0.083,0.281,0.164,0.565,0.244,0.849c0.62,2.179,1.126,4.351,1.486,6.463
				c0.438,2.467,0.735,4.913,0.905,7.337c3.49,20.387-5.555,40.345-21.985,53.213c12.673,17.44,34.42,29.044,59.221,29.261
				c39.314,0.339,71.462-28.076,72.041-63.559c0.318-2.764,0.516-5.563,0.537-8.426
				C243.837,208.632,220.476,183.108,191.382,182.861z"/>
			<path fill="#CC3035" d="M238.797,216.845c-8.213-22.053-26.28-37.427-47.387-37.618c-6.715-0.057-13.154,1.449-19.085,4.22
				c-5.888-2.87-12.292-4.488-19.014-4.545c-13.077-0.116-26.479,6.999-35.286,16.124c2.286,2.613,4.387,5.481,6.256,8.58
				c1.892,3.141,3.594,6.685,5.006,10.357c0.069,0.176,0.137,0.352,0.204,0.529c0.043,0.114,0.086,0.228,0.128,0.342
				c0.511,1.368,0.982,2.766,1.408,4.196c0.016,0.053,0.032,0.106,0.048,0.159c0.083,0.281,0.164,0.565,0.244,0.849
				c0.62,2.179,1.126,4.351,1.486,6.463c0.288,1.619,0.509,3.228,0.678,4.829c9.072,2.503,20.5,0.292,34.579-3.882
				c32.946-9.761,48.956-25.694,75.462,16.879C243.674,235.414,241.914,225.207,238.797,216.845z"/>
			<path fill="#CC3035" d="M121.799,277.166c-1.7,2.099-3.554,4.099-5.546,5.985c11.56,18.758,34.119,33.275,61.735,28.736
				C143.339,307.857,128.211,291.856,121.799,277.166z"/>
			<path fill="#C42329" d="M186.675,194.304c-0.028,2.743-7.761,4.905-17.289,4.821c-9.514-0.085-17.219-2.375-17.197-5.125
				c0.028-2.743,7.768-4.905,17.282-4.821C178.998,189.265,186.696,191.555,186.675,194.304z"/>
			<path fill="#DE959D" d="M231.453,218.118c0.424-9.281-9.578-25.906-24.478-33.723c15.02,6.764,25.778,21.919,29.044,30.896
				c0.997,2.743,4.248,10.596,0.551,10.56C232.866,225.815,231.326,221.03,231.453,218.118z"/>
		</g>
		<path fill="#79A24C" d="M129.576,99.029c-3.562-30.882,2.156-71.362,3.598-85.733c0.106-1.124-4.616-4.927-7.259-5.266
			c-2.679-0.339-3.054,2.191-3.294,3.711l-0.035,0.205c-1.746,11.034-0.601,23.969-9.337,34.381
			c-5.287,6.312-13.289,15.854-26.273,33.066c-23.804,31.564-27.947,71.869-27.872,96.481c1.52,0.182,3.254,2.505,5.201,2.174
			c-0.137-23.294,3.493-64.146,27.039-95.36c12.9-17.106,20.845-26.577,26.104-32.847c2.085-2.495,3.732-4.46,5.04-6.142
			c-2.014,42.318,0.127,121.039,46.383,152.366l2.693,0.389l3.612-0.636C151.686,179.906,134.821,144.472,129.576,99.029z"/>
	</g>
	<g>
		<g>
			<path fill="#C42329" d="M132.806,226.501c-5.52-30.79-30.309-50.376-55.395-45.874c-5.796,1.039-11.09,3.379-15.755,6.715
				c-5.527-1.513-11.309-1.866-17.106-0.827c-25.086,4.495-40.975,31.37-35.455,62.159c0.219,1.23,0.481,2.439,0.763,3.647
				c0.127,1.074,0.276,2.149,0.467,3.223c5.52,30.783,37.597,50.801,71.659,44.693c33.907-6.079,56.971-35.759,51.727-66.4
				C133.541,231.413,133.245,228.968,132.806,226.501z"/>
			<path fill="#CC3035" d="M124.282,203.606c-10.645-17.657-28.698-27.97-46.892-24.704c-5.796,1.032-11.097,3.372-15.748,6.708
				c-5.535-1.506-11.309-1.866-17.106-0.82c-14.398,2.58-27.333,15.374-31.772,27.404c13.126,27.305,28.457,24.259,52.341,12.002
				c26.775-13.741,37.986-30.055,67.701,2.304C131.492,218.803,128.311,210.293,124.282,203.606z"/>
			<path fill="#C42329" d="M75.743,192.636c0.431,2.375-5.881,5.485-14.094,6.955s-15.211,0.742-15.635-1.619
				c-0.424-2.368,5.888-5.485,14.101-6.955C68.314,189.547,75.326,190.268,75.743,192.636z"/>
			<path fill="#CC3035" d="M87.328,295.29c-36.021,13.105-68.966-15.897-70.069-41.944c-1.449-14.321,7.083-10.603,8.376,0.975
				C26.696,263.886,35.672,298.924,87.328,295.29z"/>
		</g>
		<path fill="#79A24C" d="M59.103,175.874c0.039,12.762,1.211,21.307,1.366,22.219l4.849-1.647
			c-0.032-0.203-0.948-7.316-1.013-18.398C62.357,178.379,60.623,176.056,59.103,175.874z"/>
	</g>
</g>
</svg>
