<?xml version="1.0" encoding="utf-8"?>
<!-- Generator: Adobe Illustrator 17.0.0, SVG Export Plug-In . SVG Version: 6.00 Build 0)  -->
<!DOCTYPE svg PUBLIC "-//W3C//DTD SVG 1.1//EN" "http://www.w3.org/Graphics/SVG/1.1/DTD/svg11.dtd">
<svg version="1.1" id="Слой_1" xmlns="http://www.w3.org/2000/svg" xmlns:xlink="http://www.w3.org/1999/xlink" x="0px" y="0px"
	 width="112.776px" height="136.531px" viewBox="0 0 112.776 136.531" enable-background="new 0 0 112.776 136.531"
	 xml:space="preserve">
<path fill="#BAAE52" d="M112.649,80.445c0.339-3.403-0.681-6.808-0.681-6.808l-2.216-4.255C108.052,62.235,101.926,59,101.926,59
	l-9.705-6.296c-0.849-0.683-2.378-0.851-2.378-0.851c-2.044-0.17-8.001-3.577-8.001-3.577c-2.555-3.061-4.085-2.378-4.085-2.378
	c0.339-2.215-1.193-4.256-1.193-4.256c-2.553-2.383-0.509-3.916-0.509-3.916l2.208-4.256c5.108-6.466,1.363-9.871,1.363-9.871
	c-2.383-1.702-8.677-13.448-8.677-13.448c-3.918-5.616-5.959-5.787-5.959-5.787c-1.021,0-4.936-2.891-4.936-2.891
	c-2.041-2.044-5.957-1.363-5.957-1.363c-0.661,0.031-1.415,0.338-2.205,0.814c-0.167,0.02-0.271,0.037-0.271,0.037
	c-3.576,0.17-9.875,8.34-9.875,8.34c-5.273,5.958-11.741,16.509-11.741,16.509c-3.064,2.725,0.167,6.979,0.167,6.979
	c1.193,1.532,4.257,4.766,4.257,4.766c1.874,2.723,2.553,7.148,2.553,7.148l-1.532,2.211l-13.446,7.319
	c-1.19,2.554-6.81,5.787-6.81,5.787c-0.681,0-10.723,12.087-10.723,12.087C1.578,75.68,0.215,82.15,0.215,82.15
	c-1.532,14.977,5.615,25.021,5.615,25.021c0.344,3.404,3.239,5.445,3.239,5.445c0.108-0.021,0.277,0.045,0.485,0.174l-0.203,0.145
	c1.275,0.584,4.994,4.871,4.994,4.871l1.909-1.491c0.346,0.387,0.566,0.64,0.566,0.64l2.974-2.321
	c0.147,7.564,2.888,6.662,2.888,6.662c0.188-1.213,1.914-0.065,3.433,1.215l0.005,0.257c-0.887-0.748-1.845-1.452-2.528-1.665
	l0.115,5.556l9.019,4.426c0,0,5.275-0.51,6.808,1.192c0,0,3.404,0.339,5.106,1.872c0,0,2.723,0.85,7.656,1.531h11.579
	c0,0,4.427-0.172,5.103,0.851h7.317c0,0,0.209-0.334,0.547-0.851h1.931c0,0,4.769-7.66,6.81-8c0,0-0.807-0.258-1.894-0.468
	c0.009-0.04,0.018-0.087,0.028-0.129c1.201,0.216,2.121,0.511,2.121,0.511c0.509-1.46,1.445-7.029,1.794-11.814
	c0.066-0.513,0.125-0.989,0.179-1.434c1.629,1.059,2.613,1.251,2.613,1.251c1.874-0.172,4.257,0.847,4.257,0.847
	c0.108-0.54,0.273-1.027,0.458-1.489c1.123,0.257,2.02,0.639,2.02,0.639c0.599-2.996,2.648-4.806,3.127-5.194
	c-0.057-0.031-0.125-0.064-0.185-0.095c0.17-0.145,0.289-0.241,0.289-0.241c7.659-2.383,10.384-16.512,10.384-16.512
	C113.503,90.491,112.649,80.445,112.649,80.445z M23.354,93.65l-0.306,0.684c-1.12-3.298-3.505-5.123-3.505-5.123
	c1.193-0.848,1.193-2.552,1.193-2.552s-1.193,0.852,0.17-0.51c1.36-1.36,2.553-3.572,2.553-3.572c0.02-0.277,0.056-0.512,0.1-0.725
	c0.783,0.07,1.289-0.644,1.57-1.242c0.05,0.037,0.1,0.074,0.149,0.106c-0.044,0.312-0.089,0.654-0.136,1.019
	c-0.198,1.563-0.414,3.54-0.601,5.349C24.015,89.311,23.619,91.748,23.354,93.65z"/>
</svg>
