<?xml version="1.0" encoding="utf-8"?>
<!-- Generator: Adobe Illustrator 17.0.0, SVG Export Plug-In . SVG Version: 6.00 Build 0)  -->
<!DOCTYPE svg PUBLIC "-//W3C//DTD SVG 1.1//EN" "http://www.w3.org/Graphics/SVG/1.1/DTD/svg11.dtd">
<svg version="1.1" id="Слой_1" xmlns="http://www.w3.org/2000/svg" xmlns:xlink="http://www.w3.org/1999/xlink" x="0px" y="0px"
	 width="102.16px" height="138.544px" viewBox="0 0 102.16 138.544" enable-background="new 0 0 102.16 138.544"
	 xml:space="preserve">
<path fill="#42BCAA" d="M90.697,6.778c-5.346,0-9.826,3.664-11.095,8.615l-2.88-0.103C63.622-1.486,49.629,0.102,49.629,0.102
	c-9.788-0.83-17.769,3.556-22.815,7.466c-2.349,1.522-4.181,3.337-5.605,5.224c-0.206,0.237-0.313,0.371-0.313,0.371l0.021,0.009
	c-0.183,0.253-0.35,0.507-0.518,0.761c-2.166-2.09-5.108-3.381-8.357-3.381C5.39,10.551,0,15.943,0,22.596
	c0,6.312,4.859,11.482,11.04,11.993c-0.004,2.663,0.74,6.43,3.47,11.37c0,0,4.464,6.419,20.095,9.474
	c0.246,2.892,0.913,6.115,2.16,9.594c-1.46,3.293-4.404,12.415,0.237,24.731c-1.135,2.361-3.954,9.676-1.609,19.974
	c-11.709,2.592-16.528,10.237-16.528,10.237c-0.486,0.969-0.517,2.196-0.453,3.105c-0.115,1.941,0.162,4.148,0.162,4.148
	c8.125,11.03,30.763,11.322,30.763,11.322c24.09-0.292,30.766-10.74,30.766-10.74c0.724-1.63,0.789-3.182,0.448-4.623
	c0.652-7.029-13.51-12.503-13.51-12.503c-0.686-0.359-1.551-0.656-2.535-0.906c0.361-2.043,0.568-4.68,0.504-8.088
	c0,0-0.158-7.579-2.388-11.897c1.28-1.835,2.533-5.604,2.388-13.355c0,0-0.142-6.847-2.071-11.232
	c0.986-1.691,1.886-4.664,2.053-9.88c7.997-1.55,16.967-4.525,20.626-10.232c0,0,5.065-8.455,0.777-14.54
	c-0.52-1.121-1.571-2.19-3.071-3.183c-0.042-0.159-0.086-0.312-0.13-0.466c2.012,1.745,4.631,2.809,7.502,2.809
	c6.331,0,11.463-5.135,11.463-11.466C102.16,11.909,97.028,6.778,90.697,6.778z M79.253,17.805
	c-0.006,0.146-0.022,0.289-0.022,0.436c0,0.188,0.019,0.371,0.028,0.556c-0.225-0.335-0.45-0.669-0.676-0.992H79.253z"/>
</svg>
