<?xml version="1.0" encoding="utf-8"?>
<!-- Generator: Adobe Illustrator 17.0.0, SVG Export Plug-In . SVG Version: 6.00 Build 0)  -->
<!DOCTYPE svg PUBLIC "-//W3C//DTD SVG 1.1//EN" "http://www.w3.org/Graphics/SVG/1.1/DTD/svg11.dtd">
<svg version="1.1" id="Слой_1" xmlns="http://www.w3.org/2000/svg" xmlns:xlink="http://www.w3.org/1999/xlink" x="0px" y="0px"
	 width="126.453px" height="125.461px" viewBox="0 0 126.453 125.461" enable-background="new 0 0 126.453 125.461"
	 xml:space="preserve">
<path fill="#87BB50" d="M125.709,57.964c-0.17-2.424-0.467-4.87-0.905-7.337c-0.289-1.692-0.682-3.425-1.141-5.167
	c-0.046-0.176-0.085-0.355-0.132-0.529c-0.093-0.342-0.199-0.684-0.298-1.027c-0.194-0.679-0.392-1.356-0.606-2.022
	c-0.057-0.176-0.119-0.35-0.177-0.526c-0.248-0.751-0.504-1.496-0.776-2.23c-0.168-0.458-0.349-0.909-0.526-1.363
	c-0.121-0.305-0.238-0.612-0.363-0.913c-1.31-3.226-2.827-6.334-4.505-9.118C105.635,10.075,87.582-0.237,69.388,3.028
	c-4.676,0.833-9.022,2.528-12.972,4.9c-0.06-1.768-0.102-3.692-0.114-5.754C54.355,2.505,52.621,0.182,51.101,0
	c0.01,3.382,0.101,6.457,0.231,9.184c-4.824-1.021-9.802-1.169-14.797-0.267C22.136,11.496,9.201,24.29,4.762,36.32
	c0.053,0.111,0.107,0.211,0.161,0.321C0.321,46.982-1.287,59.524,1.094,72.8c0.219,1.23,0.481,2.439,0.763,3.647
	c0.127,1.074,0.276,2.149,0.466,3.223c5.52,30.783,37.597,50.801,71.659,44.693C107.89,118.285,130.954,88.605,125.709,57.964z"/>
</svg>
