<?xml version="1.0" encoding="utf-8"?>
<!-- Generator: Adobe Illustrator 17.0.0, SVG Export Plug-In . SVG Version: 6.00 Build 0)  -->
<!DOCTYPE svg PUBLIC "-//W3C//DTD SVG 1.1//EN" "http://www.w3.org/Graphics/SVG/1.1/DTD/svg11.dtd">
<svg version="1.1" id="Слой_1" xmlns="http://www.w3.org/2000/svg" xmlns:xlink="http://www.w3.org/1999/xlink" x="0px" y="0px"
	 width="119.462px" height="72.259px" viewBox="0 0 119.462 72.259" enable-background="new 0 0 119.462 72.259"
	 xml:space="preserve">
<path fill="#B76153" d="M113.69,21.059c-10.231-3.41-27.282,5.115-34.103-6.82c-2.365-3.548-2.472-6.275-1.25-8.538
	C62.623,5.825,45.979,4.34,27.412,0.864C6.795-2.995,0.645,6.909,0.096,13.936c-0.022,0.282-0.032,0.561-0.047,0.841
	c-0.005,0.041-0.008,0.069-0.008,0.069l0.003,0.003c-0.797,15.634,9.401,28.808,23.662,37.832
	c16.364,10.34,33.391,16.487,50.932,19.578c-1.701-1.518-3.112-3.143-4.159-4.897c0.002,0,0.005,0.001,0.007,0.001
	c-1.425-2.389-2.155-5.023-1.966-7.966c-0.004-0.001-0.008-0.002-0.012-0.002c0.086-1.345,0.354-2.751,0.847-4.233
	c5.115-17.051,30.692,0,44.333-10.231C122.216,38.11,120.511,24.469,113.69,21.059z"/>
</svg>
