<?xml version="1.0" encoding="utf-8"?>
<!-- Generator: Adobe Illustrator 17.0.0, SVG Export Plug-In . SVG Version: 6.00 Build 0)  -->
<!DOCTYPE svg PUBLIC "-//W3C//DTD SVG 1.1 Basic//EN" "http://www.w3.org/Graphics/SVG/1.1/DTD/svg11-basic.dtd">
<svg version="1.1" baseProfile="basic" id="Слой_1"
	 xmlns="http://www.w3.org/2000/svg" xmlns:xlink="http://www.w3.org/1999/xlink" x="0px" y="0px" width="254.5px"
	 height="327.25px" viewBox="0 0 254.5 327.25" xml:space="preserve">
<path fill="none" stroke="#FFFFFF" stroke-width="6" stroke-miterlimit="10" d="M243.363,238.732
	c-0.023-0.369-0.037-0.742-0.065-1.109c-0.024-0.303-0.06-0.608-0.088-0.912c-0.08-0.904-0.171-1.802-0.283-2.69
	c-0.019-0.148-0.043-0.296-0.062-0.445c-0.122-0.929-0.258-1.851-0.414-2.762c-0.104-0.623-0.224-1.24-0.342-1.86
	c-0.048-0.24-0.09-0.483-0.14-0.722c-0.792-3.966-1.851-7.845-3.171-11.387c-8.213-22.053-26.28-37.427-47.386-37.618
	c-6.715-0.057-13.154,1.449-19.085,4.22c-4.508-2.197-9.319-3.653-14.343-4.244c-14.419-18.809-24.553-46.783-28.407-80.174
	c-1.016-8.81-1.276-18.401-1.096-27.944c0.34-0.03,0.634-0.076,0.888-0.136c2.436,2.738,4.196,7.556,6.124,12.869
	c2.94,8.086,6.27,17.254,13.161,22.605c10.815,8.192,23.856,6.326,45.012-6.468c0.24-0.148,0.36-0.417,0.318-0.693
	c-0.014-0.014-0.014-0.028-0.021-0.042c-0.071-0.283-0.325-0.481-0.615-0.495c-6.206-0.233-9.309-6.786-12.907-14.37
	c-3.577-7.577-7.641-16.158-15.798-20.696c-7.605-4.229-17.607-4.248-30.419-0.019c-2.231-0.305-4.051-0.23-5.519,0.05
	c0.869-21.255,3.545-41.186,4.469-50.394c0.106-1.124-4.616-4.927-7.259-5.266c-2.679-0.339-3.054,2.191-3.294,3.711l-0.035,0.205
	c-1.746,11.034-0.601,23.969-9.337,34.381c-5.287,6.312-13.289,15.854-26.273,33.066c-23.804,31.564-27.947,71.869-27.872,96.481
	c1.52,0.182,3.254,2.505,5.201,2.174c-0.137-23.294,3.493-64.146,27.039-95.36c12.9-17.106,20.845-26.577,26.104-32.847
	c2.085-2.495,3.732-4.46,5.04-6.142c-1.711,35.945-0.417,98.147,28.355,135.267c-12.275,0.724-24.563,7.51-32.815,16.061
	c0.484,0.553,0.955,1.124,1.422,1.7c0.169,0.209,0.337,0.419,0.504,0.631c0.347,0.44,0.688,0.888,1.024,1.34
	c0.171,0.23,0.343,0.458,0.511,0.691c0.341,0.473,0.674,0.955,1.004,1.441c0.145,0.213,0.293,0.422,0.436,0.638
	c0.463,0.701,0.917,1.413,1.355,2.14c1.892,3.141,3.594,6.685,5.006,10.357c0.069,0.176,0.137,0.352,0.204,0.529
	c0.043,0.114,0.086,0.228,0.128,0.342c0.511,1.368,0.982,2.767,1.408,4.196c0.016,0.053,0.032,0.106,0.048,0.159
	c0.083,0.281,0.164,0.565,0.244,0.849c0.62,2.179,1.126,4.351,1.486,6.463c0.187,1.052,0.335,2.098,0.472,3.142
	c0.048,0.371,0.094,0.742,0.136,1.112c0.118,1.031,0.225,2.06,0.297,3.083c2.71,15.831-2.142,31.402-12.138,43.597
	c-0.202,0.246-0.408,0.489-0.614,0.732c-0.216,0.256-0.432,0.512-0.653,0.765c-0.223,0.254-0.451,0.505-0.678,0.756
	c-0.211,0.233-0.419,0.467-0.634,0.697c-0.259,0.278-0.525,0.552-0.79,0.825c-0.192,0.199-0.381,0.399-0.576,0.596
	c-0.313,0.315-0.634,0.625-0.955,0.934c-1.564,1.509-3.211,2.951-4.946,4.31c12.673,17.44,34.42,29.044,59.221,29.261
	c39.314,0.339,71.461-28.076,72.041-63.559c0.318-2.764,0.516-5.563,0.537-8.426C243.556,242.51,243.487,240.631,243.363,238.732z"
	/>
<path fill="#EB7272" d="M1602.97,686.224c0.358-0.247,0.715-0.495,1.073-0.742c0.084,0.127,0.169,0.254,0.253,0.381
	c-0.434,0.129-0.868,0.259-1.302,0.388C1602.994,686.25,1602.97,686.224,1602.97,686.224z"/>
<path fill="#EB7272" d="M1570.006,1049.175c0.243,0.36,0.489,0.718,0.714,1.089c0.004,0.007-0.235,0.163-0.361,0.249
	c-0.133-0.432-0.267-0.865-0.401-1.297C1569.957,1049.216,1570.006,1049.175,1570.006,1049.175z"/>
<g>
	<path fill="#94BA4D" d="M193.665,99.955c0.24-0.148,0.36-0.417,0.318-0.693c-0.014-0.014-0.014-0.028-0.021-0.042
		c-0.071-0.283-0.325-0.481-0.615-0.495c-6.206-0.233-9.309-6.786-12.907-14.37c-3.577-7.577-7.641-16.158-15.798-20.696
		c-9.394-5.224-22.442-4.029-39.929,3.668c-0.269,0.127-0.431,0.424-0.375,0.728v0.007c0.057,0.297,0.311,0.516,0.622,0.53
		c5.089,0.24,7.613,7.181,10.532,15.225c2.94,8.086,6.27,17.254,13.161,22.605C159.468,114.615,172.509,112.749,193.665,99.955z"/>
	<path fill="#79A24C" d="M124.381,65.61c1.993-1.696,7.21-4.071,18.074,0.368c14.031,5.732,20.894,16.865,23.601,23.283l0.064,0.163
		l0.007,0.014l0.064,0.148l0.064,0.156l-0.113-0.233l-0.007-0.014l-0.106-0.226l-0.021-0.035l-0.042-0.085l-0.071-0.127
		l-0.028-0.057l-0.035-0.071l-0.071-0.127l-0.049-0.078l-0.028-0.057l-0.071-0.127l-0.078-0.141l-0.085-0.134l0,0l-0.163-0.283
		l-0.085-0.127l0.078,0.134c-0.014-0.021-0.021-0.035-0.035-0.049c-0.085-0.148-0.177-0.297-0.276-0.452
		c-0.028-0.042-0.057-0.092-0.085-0.134c-0.099-0.148-0.191-0.29-0.297-0.438c-0.035-0.057-0.078-0.127-0.12-0.184
		c-0.092-0.134-0.184-0.276-0.283-0.41c-0.057-0.078-0.113-0.163-0.17-0.24c-0.092-0.127-0.184-0.254-0.276-0.375l-0.064-0.099
		l-0.007-0.007l-0.007-0.007l0,0l-0.141-0.184c-0.085-0.113-0.17-0.226-0.262-0.346c-0.085-0.113-0.184-0.233-0.276-0.353
		c-0.049-0.064-0.099-0.12-0.148-0.184l-0.007-0.014l-0.007-0.007l-0.007-0.007l-0.007-0.014l-0.007-0.007l-0.007-0.007
		l-0.007-0.014l-0.007-0.007l-0.007-0.007l-0.007-0.014l-0.014-0.014l-0.007-0.014l-0.014-0.014l-0.064-0.078l-0.007-0.014
		l-0.021-0.028l-0.014-0.014l-0.007-0.014l-0.014-0.007l-0.014-0.014l-0.007-0.014l0,0l-0.014-0.014l-0.007-0.014l-0.014-0.014
		l-0.007-0.014l-0.014-0.014l-0.007-0.014l-0.014-0.007l-0.014-0.014l-0.085-0.106c-0.071-0.085-0.134-0.163-0.205-0.247
		c-0.134-0.163-0.276-0.325-0.417-0.488c-0.021-0.035-0.049-0.064-0.071-0.092l-0.014-0.007v-0.007l-0.007-0.007l-0.014-0.014
		l-0.007-0.014l-0.014-0.007l-0.007-0.014l-0.014-0.014l-0.021-0.028l-0.368-0.417l-0.014-0.007l-0.113-0.134l-0.028-0.021
		l-0.007-0.014l-0.007-0.007l-0.007-0.007l-0.007-0.007l-0.007-0.007l-0.007-0.014l-0.007-0.007l-0.049-0.049l-0.071-0.078
		l-0.007-0.014l-0.014-0.007l-0.007-0.014l-0.007-0.007l-0.007-0.007l-0.014-0.014l-0.007-0.007l0,0l-0.007-0.014l-0.014-0.007
		l-0.007-0.014l-0.007-0.007l-0.007-0.007l-0.014-0.014l-0.007-0.007l-0.007-0.014l-0.014-0.007l-0.007-0.007l-0.007-0.014
		l-0.014-0.007l-0.007-0.014l-0.007-0.007l0,0l-0.007-0.014l-0.014-0.007l-0.007-0.007l-0.007-0.014l-0.014-0.007l-0.007-0.014
		l-0.007-0.007l-0.014-0.007l-0.007-0.014l-0.007-0.007l-0.014-0.014l-0.007-0.007l-0.007-0.007v-0.007l-0.014-0.007l-0.007-0.007
		l-0.007-0.014l-0.014-0.007l-0.17-0.184l-0.035-0.042c-0.693-0.728-1.428-1.463-2.219-2.198l0,0
		c-4.835-4.488-11.507-8.807-19.509-10.299c-11.267-2.092-3.81,2.778-13.225,1.88C123.193,70.374,123.342,66.324,124.381,65.61z"/>
	<g>
		<path fill="#C42329" d="M191.382,182.861c-6.722-0.064-13.154,1.442-19.092,4.206c-5.881-2.863-12.285-4.481-19.007-4.545
			c-13.043-0.111-25.021,4.877-34.298,13.627c1.916,2.306,3.692,4.797,5.296,7.458c1.892,3.141,3.594,6.685,5.006,10.357
			c0.069,0.176,0.137,0.352,0.204,0.529c0.043,0.114,0.086,0.228,0.128,0.342c0.511,1.368,0.982,2.766,1.408,4.196
			c0.016,0.053,0.032,0.106,0.048,0.159c0.083,0.281,0.164,0.565,0.244,0.849c0.62,2.179,1.126,4.351,1.486,6.463
			c0.438,2.467,0.735,4.913,0.905,7.337c3.49,20.387-5.555,40.345-21.985,53.213c12.673,17.44,34.42,29.044,59.221,29.261
			c39.314,0.339,71.462-28.076,72.041-63.559c0.318-2.764,0.516-5.563,0.537-8.426C243.837,208.632,220.476,183.108,191.382,182.861
			z"/>
		<path fill="#CC3035" d="M238.797,216.845c-8.213-22.053-26.28-37.427-47.387-37.618c-6.715-0.057-13.154,1.449-19.085,4.22
			c-5.888-2.87-12.292-4.488-19.014-4.545c-13.077-0.116-26.479,6.999-35.286,16.124c2.286,2.613,4.387,5.481,6.256,8.58
			c1.892,3.141,3.594,6.685,5.006,10.357c0.069,0.176,0.137,0.352,0.204,0.529c0.043,0.114,0.086,0.228,0.128,0.342
			c0.511,1.368,0.982,2.766,1.408,4.196c0.016,0.053,0.032,0.106,0.048,0.159c0.083,0.281,0.164,0.565,0.244,0.849
			c0.62,2.179,1.126,4.351,1.486,6.463c0.288,1.619,0.509,3.228,0.678,4.829c9.072,2.503,20.5,0.292,34.579-3.882
			c32.946-9.761,48.956-25.694,75.462,16.879C243.674,235.414,241.914,225.207,238.797,216.845z"/>
		<path fill="#CC3035" d="M121.799,277.166c-1.7,2.099-3.554,4.099-5.546,5.985c11.56,18.758,34.119,33.275,61.735,28.736
			C143.339,307.857,128.211,291.856,121.799,277.166z"/>
		<path fill="#C42329" d="M186.675,194.304c-0.028,2.743-7.761,4.905-17.289,4.821c-9.514-0.085-17.219-2.375-17.197-5.125
			c0.028-2.743,7.768-4.905,17.282-4.821C178.998,189.265,186.696,191.555,186.675,194.304z"/>
		<path fill="#DE959D" d="M231.453,218.118c0.424-9.281-9.578-25.906-24.478-33.723c15.02,6.764,25.778,21.919,29.044,30.896
			c0.997,2.743,4.248,10.596,0.551,10.56C232.866,225.815,231.326,221.03,231.453,218.118z"/>
	</g>
	<path fill="#79A24C" d="M129.576,99.029c-3.562-30.882,2.156-71.362,3.598-85.733c0.106-1.124-4.616-4.927-7.259-5.266
		c-2.679-0.339-3.054,2.191-3.294,3.711l-0.035,0.205c-1.746,11.034-0.601,23.969-9.337,34.381
		c-5.287,6.312-13.289,15.854-26.273,33.066c-23.804,31.564-27.947,71.869-27.872,96.481c1.52,0.182,3.254,2.505,5.201,2.174
		c-0.137-23.294,3.493-64.146,27.039-95.36c12.9-17.106,20.845-26.577,26.104-32.847c2.085-2.495,3.732-4.46,5.04-6.142
		c-2.014,42.318,0.127,121.039,46.383,152.366l2.693,0.389l3.612-0.636C151.686,179.906,134.821,144.472,129.576,99.029z"/>
</g>
</svg>
