<?xml version="1.0" encoding="utf-8"?>
<!-- Generator: Adobe Illustrator 17.0.0, SVG Export Plug-In . SVG Version: 6.00 Build 0)  -->
<!DOCTYPE svg PUBLIC "-//W3C//DTD SVG 1.1//EN" "http://www.w3.org/Graphics/SVG/1.1/DTD/svg11.dtd">
<svg version="1.1" id="Слой_1" xmlns="http://www.w3.org/2000/svg" xmlns:xlink="http://www.w3.org/1999/xlink" x="0px" y="0px"
	 width="350px" height="350px" viewBox="0 0 350 350" enable-background="new 0 0 350 350" xml:space="preserve">
<g>
	<path fill="none" stroke="#FFFFFF" stroke-width="7" stroke-miterlimit="10" d="M344.014,73.669L344.014,73.669
		c0-0.001,0-0.001-0.001-0.002c-1.05-5.049-5.264-8.859-9.473-12.547c-1.533-1.457-2.598-2.303-2.598-2.303v0.001
		c-2.813-2.547-5.277-5.104-6.517-8.169l-0.478-1.224l0.907-0.967c0.413-0.447,0.873-1.724,1.328-3.467
		c0.626-0.191,0.987-0.323,0.987-0.323c5.436-7.401,1.501-17.045,1.501-17.045l0,0c-0.717,0.08-1.944,0.675-3.22,1.381
		l-11.162,4.789l0.003-0.007c4.735-8.586-0.424-19.087-0.492-19.224c-0.001-0.002-0.001-0.005-0.002-0.007
		c-0.692,0.284-1.207,0.832-1.599,1.64c-3.585,4.774-7.06,16.127-7.066,16.144h-0.001L293.09,19.805
		c-0.001-0.001-0.001-0.002-0.002-0.003c-0.023-0.033-0.04-0.086-0.059-0.122c-0.025,0.85-0.021,1.861,0.008,2.992l-0.333,19.054
		c0,0,0.003,0,0.004,0h-0.002c-18.853,2.873-30.116,15.742-40.931,29.8c-3.324,4.334-6.24,11.772-9.321,19.654
		c-7.517,19.195-16.877,43.095-39.658,43.095c-1.758,0.231-3.829,0.36-5.914,0.36c-28.471,0-57.192-23.8-78.155-41.195
		c-5.099-4.222-9.911-8.213-14.044-11.293l-0.449-0.452c-1.501-2.134-3.15-4.72-4.911-7.517
		C91.377,61.681,80.49,44.345,66.858,46.126c-3.371,0.432-5.759,2.77-8.529,5.469c-2.979,2.909-6.359,6.217-11.607,7.596
		C30.623,63.109,5.378,72.829,5.996,82.219c0.64,9.638,36.59,23.734,59.108,30.344l-1.144,3.975
		c-0.208-0.076-21.439-5.957-32.339-5.957c-3.866,0-4.651,0.759-4.674,0.801c0,0-0.01,1.583,5.046,5.917
		c2.527,2.15,10.399,5.132,18.741,8.269c13.348,5.033,28.451,10.719,33.484,17.151l0.798,1.019l-0.468,1.454
		c-0.231,0.492-0.858,1.326-2.388,1.326c-1.923,0-6.481-1.263-14.37-3.473c-9.202-2.586-20.65-5.811-25.509-5.811
		c5.152,7.312,25.723,24.278,33.609,30.505l0.471,0.518l4.417,7.081l-0.94,1.145c-2.869,3.516,12.138,21.933,17.234,26.267
		l8.12,6.933l-10.116-3.407c-0.122-0.036-0.201-0.056-0.287-0.082c-0.007,0.462,0.03,1.101,0.069,1.547
		c0.04,0.518,0.063,1.026,0.063,1.521c5.495,4.891,7.803,10.264,10.04,15.462c1.56,3.625,3.015,7.061,5.535,10.439
		c6.267,8.424,17.751,11.755,29.895,15.278c6.748,1.969,13.82,4.03,20.374,7.127l0.148-1.25
		c17.616,1.903,43.557-18.919,53.712-34.124c13.236-20.687,7.039-38.022-0.125-58.099c-0.93-2.582-1.87-5.211-2.78-7.876
		c-0.419-1.22-0.844-2.457-1.247-3.707c-0.072-0.227-0.145-0.462-0.221-0.692l3.938-1.253c1.329,4.175,2.771,8.199,4.179,12.151
		c7.233,20.218,14.064,39.315-0.297,61.733c-9.97,14.964-33.289,34.127-52.033,35.961c8.486,5.096,15.587,12.593,19.067,24.955
		c0.732,3.757,2.015,6.735,3.361,9.908c2.345,5.472,4.776,11.108,3.994,19.968l-0.056,0.709l-0.514,0.544
		c-2.457,2.523-7.464,3.509-12.804,4.525c-2.919,0.581-6.254,1.21-8.8,2.134c3.575-0.31,7.411-1.105,11.155-1.847
		c0.056,0,0.112-0.017,0.149-0.017c5.059-1.049,10.31-2.094,15.04-2.094c4.502,0,8.081,0.937,10.957,2.902l1.524,1.023l-0.851,1.633
		c-0.798,1.53-1.831,2.681-2.827,3.816c-0.666,0.725-1.283,1.402-1.778,2.154c1.923-0.172,3.691-1.019,5.709-1.983
		c2.428-1.161,5.191-2.49,8.628-2.638c0.422,0,0.857-0.02,1.27-0.02c7.414,0,14.641,2.827,21.02,5.314
		c5.304,2.081,10.314,4.024,14.535,4.047c-0.607-1.105-0.983-2.296-0.89-3.301c0.125-1.339,1.042-2.873,3.268-3.12
		c1.633-0.33,5.247-0.31,9.519-0.169c2.065,0.073,4.265,0.152,6.451,0.152c3.305,0,7.586-0.152,10.769-1.115
		c-0.501-0.168-1.026-0.37-1.573-0.534c-2.246-0.759-4.819-1.6-6.28-3.922l-5.192,2.362c-8.681,1.336-19.954-1.794-27.557-4.024
		c-3.16-0.933-6.148-1.794-7.342-1.794l-0.818,0.116l-0.798-0.502c-10.861-7.86-17.019-20.627-18.335-37.92l-0.155-2.094
		l2.081-0.112c13.777-0.759,22.171-13.315,30.271-25.453c6.144-9.205,11.943-17.87,19.961-21.702l0.68-0.188
		c1.463-0.15,2.89-0.359,4.302-0.595c10.001-0.692,31.289-6.086,46.211-37.485c0,0,24.625-56.084,4.891-88.268l-0.007-0.012
		c-0.641-1.327-1.299-2.649-1.961-3.98c-2.487-5.023-5.079-10.205-7.118-16.27l-0.673-2.022l2.032-0.62
		c2.17-0.64,4.584-2.213,7.121-3.862c1.541-0.99,3.152-2.027,4.846-2.961l-0.001,0.004c0.08-0.049,0.166-0.094,0.249-0.141
		c0.142-0.077,0.284-0.152,0.427-0.227c5.041-2.513,14.625-2.027,14.809-2.017c0.003,0.001,0.006,0.002,0.009,0.002
		C344.015,73.67,344.015,73.67,344.014,73.669z"/>
	<g>
		<path fill="#442F2B" d="M311.224,55.862c0,4.004-3.242,7.25-7.246,7.25c-4.001,0-7.246-3.245-7.246-7.25
			c0-4.001,3.245-7.246,7.246-7.246C307.982,48.616,311.224,51.861,311.224,55.862z"/>
		<g>
			<g>
				<path fill="#C87D32" d="M270.89,325.798c-8.681,1.336-19.954-1.794-27.557-4.024c-3.16-0.933-6.148-1.794-7.342-1.794
					l-0.818,0.116l-0.798-0.502c-10.861-7.86-17.019-20.627-18.335-37.92l-0.155-2.094l2.081-0.112
					c13.777-0.759,22.171-13.315,30.271-25.453c6.144-9.205,11.943-17.87,19.961-21.702l0.68-0.188
					c36.291-3.721,56.657-33.86,62.248-92.117c1.656-17.2-3.43-27.405-8.813-38.223c-2.487-5.023-5.079-10.205-7.118-16.27
					l-0.673-2.022l2.032-0.62c2.17-0.64,4.584-2.213,7.121-3.862c4.436-2.85,9.433-6.105,15.406-6.105
					c1.662,0,3.292,0.254,4.934,0.765c-1.079-5.198-5.512-9.084-9.842-12.873c-3.697-3.239-7.187-6.293-8.747-10.149l-0.478-1.224
					l0.907-0.967c1.53-1.656,3.721-14.684,3.816-20.835c-1.267,0.142-4.126,1.88-6.042,3.031c-2.094,1.28-3.45,2.065-4.568,2.309
					l-3.773,0.831l1.399-3.592c0.801-2.025-0.036-9.792-1.89-15.647c-2.075,0.851-2.583,4.02-2.82,9.716
					c-0.138,3.651-0.251,6.54-1.975,8.012l-1.633,1.392l-1.059-1.359l-1.177,0.023c-3.318,0-7.794-1.422-13.045-12.537
					c-0.023-0.033-0.04-0.086-0.059-0.122c-0.119,4.054,0.386,11.603,1.402,19.75l0.254,1.992l-1.979,0.304
					c-18.853,2.873-30.116,15.742-40.931,29.8c-3.324,4.334-6.24,11.772-9.321,19.654c-7.517,19.195-16.877,43.095-39.658,43.095
					c-1.758,0.231-3.829,0.36-5.914,0.36c-28.471,0-57.192-23.8-78.155-41.195c-5.099-4.222-9.911-8.213-14.044-11.293l-0.449-0.452
					c-1.501-2.134-3.15-4.72-4.911-7.517C91.377,61.681,80.49,44.345,66.858,46.126c-3.371,0.432-5.759,2.77-8.529,5.469
					c-2.979,2.909-6.359,6.217-11.607,7.596C30.623,63.109,5.378,72.829,5.996,82.219c0.64,9.638,36.59,23.734,59.108,30.344
					l-1.144,3.975c-0.208-0.076-21.439-5.957-32.339-5.957c-3.866,0-4.651,0.759-4.674,0.801c0,0-0.01,1.583,5.046,5.917
					c2.527,2.15,10.399,5.132,18.741,8.269c13.348,5.033,28.451,10.719,33.484,17.151l0.798,1.019l-0.468,1.454
					c-0.231,0.492-0.858,1.326-2.388,1.326c-1.923,0-6.481-1.263-14.37-3.473c-9.202-2.586-20.65-5.811-25.509-5.811l0,0
					c5.152,7.312,25.723,24.278,33.609,30.505l0.471,0.518l4.417,7.081l-0.94,1.145c-2.869,3.516,12.138,21.933,17.234,26.267
					l8.12,6.933l-10.116-3.407c-0.122-0.036-0.201-0.056-0.287-0.082c-0.007,0.462,0.03,1.101,0.069,1.547
					c0.04,0.518,0.063,1.026,0.063,1.521c5.495,4.891,7.803,10.264,10.04,15.462c1.56,3.625,3.015,7.061,5.535,10.439
					c6.267,8.424,17.751,11.755,29.895,15.278c6.748,1.969,13.82,4.03,20.374,7.127l0.148-1.25
					c17.616,1.903,43.557-18.919,53.712-34.124c13.236-20.687,7.039-38.022-0.125-58.099c-0.93-2.582-1.87-5.211-2.78-7.876
					c-0.419-1.22-0.844-2.457-1.247-3.707c-0.072-0.227-0.145-0.462-0.221-0.692l3.938-1.253c1.329,4.175,2.771,8.199,4.179,12.151
					c7.233,20.218,14.064,39.315-0.297,61.733c-9.97,14.964-33.289,34.127-52.033,35.961c8.486,5.096,15.587,12.593,19.067,24.955
					c0.732,3.757,2.015,6.735,3.361,9.908c2.345,5.472,4.776,11.108,3.994,19.968l-0.056,0.709l-0.514,0.544
					c-2.457,2.523-7.464,3.509-12.804,4.525c-2.919,0.581-6.254,1.21-8.8,2.134c3.575-0.31,7.411-1.105,11.155-1.847
					c0.056,0,0.112-0.017,0.149-0.017c5.059-1.049,10.31-2.094,15.04-2.094c4.502,0,8.081,0.937,10.957,2.902l1.524,1.023
					l-0.851,1.633c-0.798,1.53-1.831,2.681-2.827,3.816c-0.666,0.725-1.283,1.402-1.778,2.154c1.923-0.172,3.691-1.019,5.709-1.983
					c2.428-1.161,5.191-2.49,8.628-2.638c0.422,0,0.857-0.02,1.27-0.02c7.414,0,14.641,2.827,21.02,5.314
					c5.304,2.081,10.314,4.024,14.535,4.047c-0.607-1.105-0.983-2.296-0.89-3.301c0.125-1.339,1.042-2.873,3.268-3.12
					c1.633-0.33,5.247-0.31,9.519-0.169c2.065,0.073,4.265,0.152,6.451,0.152c3.305,0,7.586-0.152,10.769-1.115
					c-0.501-0.168-1.026-0.37-1.573-0.534c-2.246-0.759-4.819-1.6-6.28-3.922 M302.589,62.251c-2.807,0-5.076-2.276-5.076-5.073
					c0-2.804,2.279-5.073,5.076-5.073s5.066,2.269,5.066,5.073C307.655,59.975,305.399,62.251,302.589,62.251z"/>
			</g>
		</g>
		<path fill="#F1E0CE" d="M317.078,92.756c0,0-77.374,67.878-49.497,138.688c0,0,31.693,4.931,51.809-37.399
			c0,0,24.625-56.084,4.891-88.268L317.078,92.756z"/>
		<path fill="#A9352C" d="M292.704,41.726l0.383-21.923l13.045,12.537c0,0,4.591-15.007,8.664-17.784c0,0,5.264,10.594,0.491,19.238
			l14.384-6.171c0,0,3.935,9.644-1.501,17.045c0,0-10.627,3.895-16.93,0C304.937,40.766,292.704,41.726,292.704,41.726z"/>
		<path fill="#A9352C" d="M328.52,76.054l3.423-17.237c0,0,8.219,6.501,12.072,14.852C344.015,73.669,333.365,73.096,328.52,76.054z
			"/>
	</g>
</g>
</svg>
