<?xml version="1.0" encoding="utf-8"?>
<!-- Generator: Adobe Illustrator 17.0.0, SVG Export Plug-In . SVG Version: 6.00 Build 0)  -->
<!DOCTYPE svg PUBLIC "-//W3C//DTD SVG 1.1 Basic//EN" "http://www.w3.org/Graphics/SVG/1.1/DTD/svg11-basic.dtd">
<svg version="1.1" baseProfile="basic" id="Слой_1"
	 xmlns="http://www.w3.org/2000/svg" xmlns:xlink="http://www.w3.org/1999/xlink" x="0px" y="0px" width="162.226px"
	 height="204.911px" viewBox="0 0 162.226 204.911" xml:space="preserve">
<path fill="#EEBF31" d="M162.226,81.628c-18.344-8.368-35.613-22.677-49.484-34.187c-5.099-4.222-9.911-8.213-14.044-11.293
	l-0.449-0.452c-1.501-2.134-3.15-4.72-4.911-7.517C85.392,15.682,74.505-1.654,60.873,0.127c-3.371,0.432-5.759,2.77-8.529,5.469
	c-2.979,2.909-6.359,6.217-11.607,7.596C24.638,17.11-0.607,26.83,0.011,36.22c0.64,9.638,36.591,23.734,59.108,30.344l-1.144,3.975
	c-0.208-0.076-21.439-5.957-32.339-5.957c-3.866,0-4.651,0.759-4.674,0.802c0,0-0.01,1.583,5.046,5.917
	c2.527,2.15,10.399,5.132,18.741,8.269C58.097,84.603,73.2,90.289,78.233,96.721l0.798,1.019l-0.468,1.454
	c-0.231,0.492-0.858,1.326-2.388,1.326c-1.923,0-6.481-1.263-14.37-3.473c-9.202-2.586-20.651-5.812-25.509-5.812
	c5.152,7.312,25.723,24.278,33.609,30.505l0.471,0.518l4.417,7.081l-0.94,1.145c-2.869,3.516,12.138,21.933,17.234,26.267
	l8.12,6.933l-10.116-3.407c-0.122-0.036-0.201-0.056-0.287-0.082c-0.007,0.462,0.03,1.101,0.069,1.547
	c0.039,0.518,0.063,1.026,0.063,1.521c5.495,4.891,7.803,10.264,10.04,15.462c1.56,3.625,3.015,7.062,5.535,10.439
	c6.267,8.424,17.751,11.755,29.895,15.278c0.531,0.155,1.068,0.312,1.602,0.469c2.038-5.66,3.948-11.287,5.825-16.729
	C153.863,153.692,161.96,117.521,162.226,81.628z"/>
</svg>
