<?xml version="1.0" encoding="utf-8"?>
<!-- Generator: Adobe Illustrator 17.0.0, SVG Export Plug-In . SVG Version: 6.00 Build 0)  -->
<!DOCTYPE svg PUBLIC "-//W3C//DTD SVG 1.1 Basic//EN" "http://www.w3.org/Graphics/SVG/1.1/DTD/svg11-basic.dtd">
<svg version="1.1" baseProfile="basic" id="Слой_1"
	 xmlns="http://www.w3.org/2000/svg" xmlns:xlink="http://www.w3.org/1999/xlink" x="0px" y="0px" width="117.028px"
	 height="199.587px" viewBox="0 0 117.028 199.587" xml:space="preserve">
<path fill="#D36234" d="M79.318,199.587c4.593-5.098,9.07-11.65,13.085-20.099c0,0,24.625-56.084,4.892-88.268l-0.008-0.015
	c-0.641-1.326-1.299-2.648-1.961-3.979c-2.487-5.023-5.079-10.205-7.118-16.27l-0.673-2.022l2.032-0.62
	c2.17-0.64,4.584-2.213,7.121-3.862c1.541-0.99,3.152-2.027,4.846-2.961l-0.001,0.006c4.845-2.958,15.495-2.384,15.495-2.384
	c-1.05-5.06-5.279-8.876-9.497-12.571c-1.503-1.427-2.546-2.258-2.568-2.276c-2.815-2.549-5.282-5.108-6.523-8.174l-0.478-1.224
	l0.907-0.967c0.413-0.446,0.873-1.724,1.328-3.466c0.624-0.19,0.988-0.323,0.988-0.323c5.435-7.401,1.501-17.045,1.501-17.045
	c-0.716,0.08-1.944,0.675-3.221,1.382l-11.163,4.789c0.684-1.238,1.143-2.517,1.459-3.798c0.045-0.15,0.084-0.321,0.116-0.513
	C91.482,7.433,87.81,0,87.81,0c-0.66,0.271-1.148,0.803-1.532,1.549c-3.611,4.725-7.132,16.235-7.132,16.235L66.102,5.247
	c-0.023-0.033-0.04-0.086-0.059-0.122c-0.025,0.857-0.021,1.879,0.009,3.022L65.72,27.171c-18.853,2.873-30.116,15.742-40.931,29.8
	c-3.324,4.334-6.24,11.772-9.321,19.654C11.438,86.917,6.874,98.557,0,107.145C16.999,144.464,44.37,179.349,79.318,199.587z"/>
</svg>
