<?xml version="1.0" encoding="utf-8"?>
<!-- Generator: Adobe Illustrator 17.0.0, SVG Export Plug-In . SVG Version: 6.00 Build 0)  -->
<!DOCTYPE svg PUBLIC "-//W3C//DTD SVG 1.1 Basic//EN" "http://www.w3.org/Graphics/SVG/1.1/DTD/svg11-basic.dtd">
<svg version="1.1" baseProfile="basic" id="Слой_1"
	 xmlns="http://www.w3.org/2000/svg" xmlns:xlink="http://www.w3.org/1999/xlink" x="0px" y="0px" width="123.111px"
	 height="127.486px" viewBox="0 0 123.111 127.486" xml:space="preserve">
<path fill="#B76153" d="M100.618,21.352C77.225-1.844,41.544-6.853,27.239,9.839c-10.917,12.736-10.108,38.376,13.31,53.706
	c23.415,15.324,41.304,8.558,45.758-8.728c3.834-14.896-3.545-24.762-13.578-28.988c-10.033-4.232-25.339-0.611-27.11,11.972
	c-1.434,10.166,10.004,14.722,16.186,10.398c6.189-4.324,6.23-10.365,6.23-10.365s9.605,2.841,8.24,12.811
	c-1.364,9.97-6.98,16.163-22.845,10.385c-15.864-5.774-26.577-21.686-20.316-36.685C39.683,8.595,56.766,8.68,77.15,19.536
	c20.384,10.854,33.046,27.017,34.477,45.985c1.431,18.964-9.611,35.605-30.88,36.806c-14.489,0.818-27.824-2.74-33.853-4.675
	C39.47,84.838,20.705,74.199,1.263,66.129c-0.207,0.461-0.388,0.93-0.577,1.396c0.269,0.269,0.537,0.536,0.807,0.817
	c-0.43,0.141-0.864,0.282-1.296,0.423C0.128,68.955,0.067,69.148,0,69.339l5.601,3.645c0.561,0.685,1.126,1.394,1.694,2.129
	l-5.238,8.049l8.629,5.615l-5.616,8.629l8.941,5.818l0.064-0.098l0.033,0.161l-0.096-0.063l-5.818,8.941l8.629,5.616l-1.661,2.552
	c4.063,3.108,8.688,5.388,13.74,6.511c8.872,1.85,19.017-0.436,28.529-5.056c-1.32-1.027-2.694-2.121-4.07-3.233
	c-0.381-3.731-1.12-7.396-2.222-10.963c11.102,4.856,42.786,16.387,59.848-1.394C131.905,84.399,124.012,44.548,100.618,21.352z"/>
</svg>
