<?xml version="1.0" encoding="utf-8"?>
<!-- Generator: Adobe Illustrator 17.0.0, SVG Export Plug-In . SVG Version: 6.00 Build 0)  -->
<!DOCTYPE svg PUBLIC "-//W3C//DTD SVG 1.1 Basic//EN" "http://www.w3.org/Graphics/SVG/1.1/DTD/svg11-basic.dtd">
<svg version="1.1" baseProfile="basic" id="Слой_1"
	 xmlns="http://www.w3.org/2000/svg" xmlns:xlink="http://www.w3.org/1999/xlink" x="0px" y="0px" width="256.729px"
	 height="269.99px" viewBox="0 0 256.729 269.99" xml:space="preserve">
<path stroke="#FFFFFF" stroke-width="6" stroke-miterlimit="10" d="M206.88,47.895c-2.492-0.166-5.048-0.329-7.607-0.46
	c12.622-6.262,28.162,0.362,38.556,7.41c1.41,1.277,3.017,3.278,4.689,3.572c-2.788-7.015-4.525-12.688-8.822-18.917
	c-12.228-13.637-26.686-17.54-44.62-14.031c-26.129,8.391-34.653,22.032-40.49,49.08c-0.46,3.18-0.952,13.902-2.36,15.735
	c-8.557,1.411-16.624,5.509-25.378,8.065c-9.965,1.739-17.703,1.017-27.703-1.933c0-1.016,4.393-4.46,5.048-4.721
	c0.066-0.557,0.066-1.05,0.066-1.573c-0.229,0.161-0.522,0.327-0.788,0.557C84.851,87.17,82.62,86.581,79.209,73.99
	c-0.195-10.949-0.163-19.869-3.343-30.065c-1.082-2.194-1.082-2.194-1.212-2.917c0.051,0.002,0.101,0.001,0.152,0.003
	c0.001,0.001,0.002,0.002,0.003,0.003c0.234,0.008,0.465,0.007,0.698,0.01c0.155,0.002,0.311,0.007,0.466,0.007
	c0.252,0,0.5-0.007,0.75-0.013c0.166-0.004,0.333-0.005,0.498-0.011c0.238-0.009,0.473-0.025,0.708-0.039
	c0.173-0.01,0.347-0.018,0.518-0.031c0.226-0.017,0.449-0.041,0.674-0.063c0.178-0.017,0.358-0.032,0.534-0.052
	c0.217-0.025,0.431-0.056,0.646-0.086c0.179-0.024,0.36-0.046,0.537-0.073c0.208-0.032,0.413-0.071,0.62-0.107
	c0.181-0.032,0.364-0.061,0.543-0.096c0.203-0.04,0.402-0.086,0.603-0.13c0.177-0.039,0.355-0.075,0.53-0.117
	c0.201-0.048,0.399-0.103,0.597-0.156c0.171-0.045,0.343-0.087,0.512-0.136c0.195-0.056,0.385-0.118,0.578-0.178
	c0.168-0.052,0.338-0.102,0.503-0.157c0.193-0.065,0.382-0.136,0.572-0.205c0.159-0.058,0.32-0.112,0.477-0.173
	c0.19-0.073,0.376-0.154,0.563-0.232c0.152-0.063,0.307-0.124,0.457-0.19c0.188-0.083,0.37-0.172,0.555-0.26
	c0.143-0.068,0.289-0.133,0.43-0.203c0.188-0.094,0.37-0.195,0.553-0.293c0.132-0.071,0.267-0.139,0.397-0.213
	c0.192-0.108,0.377-0.224,0.564-0.337c0.115-0.07,0.234-0.137,0.348-0.21c0.194-0.123,0.381-0.254,0.57-0.383
	c0.102-0.07,0.206-0.136,0.306-0.208c0.195-0.139,0.383-0.286,0.572-0.432c0.087-0.067,0.177-0.131,0.262-0.199
	c0.195-0.156,0.382-0.319,0.569-0.482c0.074-0.065,0.152-0.126,0.225-0.192c0.196-0.176,0.384-0.36,0.572-0.544
	c0.059-0.057,0.12-0.112,0.178-0.17c0.195-0.197,0.382-0.401,0.568-0.607c0.045-0.05,0.094-0.098,0.139-0.149
	c0.192-0.219,0.376-0.444,0.557-0.673c0.033-0.042,0.069-0.082,0.102-0.124c0.192-0.247,0.376-0.501,0.555-0.76
	c0.018-0.026,0.038-0.051,0.056-0.077c0.19-0.277,0.371-0.562,0.545-0.852c0.005-0.009,0.011-0.017,0.017-0.026
	c1.79-3.001,2.714-6.672,2.489-10.975c-1.266-3.111-2.435-4.11-3.676-4.09c-2.067,0.033-4.331,2.897-7.568,3.532
	c1.128-4.16,2.958-11.765-2.372-11.861c-0.551-0.01-1.179,0.06-1.893,0.223c-1.475,0.77-8.858,5.916-11.18,6.234
	c-0.154,0.021-0.286,0.021-0.393-0.004c-1.175-4.189,0.285-6.068-3.901-6.143C66.94,8.3,66.227,8.326,65.374,8.388
	c-0.721,0.229-5.338,3.012-5.802,2.886c-0.688-2.107-1.844-2.859-3.17-2.811c-2.53,0.09-5.677,3.094-7.355,5.138
	c-0.165,0-0.327,0-0.557,0c-1.5-1.955-2.806-2.84-3.981-2.913c-1.958-0.122-3.551,2.012-5.068,5.209
	c-0.295,0.037-0.48,0.06-0.683,0.055c-0.339-0.008-0.731-0.092-1.776-0.318c0,0,0,0,0,0c0,0,0,0-0.001,0
	c-6.458,1.935-7.179,13.837-5.999,20.128c-0.001,0.001-0.002,0.001-0.002,0.002c-1.955,0.531-5.069,3.607-7.054,6.794
	c-0.77,1.123-1.361,2.321-1.653,3.581c-0.161,0.606-0.241,1.178-0.207,1.69c0,0,0,0.001,0,0.001l0,0c0,0,0,0.001,0,0.001
	c0.002,0,0.003,0.001,0.005,0.002c0.138,0.078,0.276,0.151,0.415,0.228c0.089,0.075,0.175,0.145,0.267,0.164
	c0.001-0.001,0.002-0.002,0.003-0.002c3.445-2.062,10.457-0.163,13.505,1.344c0,8.689-17.409,9.279-11.967,22.59
	c1.674,1.77,2.723,2.851,4.689,3.672c-1.245,9.015-10.459,20.883-16.917,27.67c-1.345,1.049-3.674,1.77-4.066,3.87
	c3.115,1.573,6.066,1.506,8.951,1.114c-0.156,0.571-0.294,1.125-0.438,1.683c-0.161,0.379-0.317,0.76-0.448,1.147l-0.622,0.233
	l-0.552,2.438c-2.583,11.419-1.664,22.612,3.685,33.103c7.051,13.831,20.413,23.853,33.511,31.564
	c7.081,4.171,14.427,7.854,21.799,11.475c4.351,2.783,8.01,5.521,11.341,8.762c-3.304,2.885-6.89,5.637-11.133,8.444
	c-9.047,4.295-34.063,11.247-35.504,25.933c0.391,0.394,0.391,0.394,1.177,0.46c3.738-4.132,10.392-9.474,14.852-10.786
	c-1.443,3.211-3.276,8.392-2.949,12.558c4.95-7.411,8.197-11.247,15.574-14.919c1.506-1.116,3.113-2.984,4.227-3.443
	c0.787,2.392,1.903,4.293,3.575,6.524c0.458-3.409,1.769-5.344,2.951-7.475c1.737,0,3.737,2.296,5.015,3.278
	c0.427-0.196,0.886-0.394,1.28-0.557c0.099-0.821-0.066-2.098-0.066-6.393c0.615-4.321,3.429-5.949,5.563-8.605
	c0.641,0.797,1.275,1.627,1.905,2.495c0.571,1.077,3.422,6.946,4.105,7.943c0,0.001,0.001,0.001,0.002,0.002c0,0,0,0,0,0
	c0,0,0,0,0,0c0.66,0.944,6.068-2.243,10.94-5.226c0.905,7.116,0.8,15.855-0.089,23.26c-0.263,0.228-0.263,0.228-15.147,0.066
	c-3.867,0.884-8.557,2.819-11.669,6.393c0.261,0.294,0.557,0.557,0.786,0.82c3.047-0.362,6.392-1.147,9.048-0.982
	c-5.442,3.21-10.492,6.785-15.015,12.392c0.392,0.392,0.688,0.459,0.949,0.459c6.95-3.574,17.64-10.198,25.212-9.508
	c-6.687,4.787-12.62,10.328-18.195,17.244c0.394,0.394,1.115,0.456,1.115,0.456c17.017-9.081,32.981-21.211,52.818-19.505
	c0.229-0.101,0.392-0.199,0.557-0.264c-7.673-3.835-11.835-6.164-21.671-7.115c-1.705-5.246,3.08-16.982,6.918-17.931
	c-0.068-0.231-0.133-0.396-0.166-0.558c-2.59,1.047-5.146,2.131-7.736,3.18c0.53-5.802,0.56-6.134,1.504-13.35
	c2.04-0.685,3.741-1.681,5.826-2.652l3.006-1.4l-0.294-2.716c0.209-0.003,0.436-0.005,0.688-0.008l1.41-0.024l1.158-0.805
	c1.932-1.343,3.863-2.685,5.806-4.012l2.239-1.531l-0.24-2.702c-0.025-0.28-0.068-0.576-0.114-0.88
	c0.865-0.583,1.748-1.164,2.563-1.77c2.635-1.956,6.004-4.718,5.991-8.26c5.809,1.46,5.753,11.163,12.258,2.438
	c0.786-1.345,1.509-2.688,2.229-3.999c1.9,0,4.064,3.605,5.181,4.983c10.228-0.426,19.901-15.343,23.637-23.245
	c0.229-0.1,0.459-0.229,0.657-0.327c-1.378,6.686-1.378,6.686-2.099,9.046c-1.114,2.134-4.393,5.542-3.999,8.428
	c7.344,2.887,17.244-10.622,20.197-14.753c1.115-2.493,2.228-4.95,3.343-7.41c1.149,3.411,0.558,11.182-1.508,14.655
	c0.263,0,0.558,0.033,0.786,0.1c13.05-9.671,15.507-21.079,11.672-35.865c0.229-0.035,0.394-0.098,0.557-0.098
	c5.903,5.243,9.016,12.587,11.245,20.095c0.327,3.015,0.327,3.015,0.592,3.738c12.263-19.475-9.377-47.833-27.245-54.064
	c0-0.228,0-0.427-0.066-0.589c15.802-11.081,33.179,4.392,39.113,18.358c1.508,6.46,1.508,6.46,1.804,6.82
	c5.048-26.982-10.524-45.016-36.392-50.161c-2.36-0.198-4.689-0.297-7.081-0.394c-0.066-0.131-0.098-0.231-0.166-0.296
	c13.868-12.459,30.722-5.344,42.689,6.13c1.508,3.017,3.117,6.13,4.229,9.277c0.198-0.097,0.427-0.195,0.655-0.327
	C247.141,69.664,225.208,51.5,206.88,47.895z"/>
<g id="__x0023_Layer_x0020_2_1_">
	<path fill="#E1972F" d="M85.682,198.493c1.653,1.361,3.522,3.338,4.637,4.838h-0.092l-0.011,0.016
		c-2.166,3.006-5.333,4.548-5.99,9.165c0,4.295,0.165,5.572,0.066,6.393c-0.394,0.163-0.853,0.361-1.28,0.557
		c-1.278-0.982-3.278-3.278-5.015-3.278c-1.182,2.131-2.493,4.066-2.951,7.475c-1.672-2.231-2.788-4.132-3.575-6.524
		c-1.114,0.459-2.721,2.327-4.227,3.443c-7.377,3.672-10.624,7.508-15.574,14.919c-0.327-4.166,1.506-9.347,2.949-12.558
		c-4.46,1.312-11.114,6.654-14.852,10.786c-0.786-0.066-0.786-0.066-1.177-0.46c1.441-14.686,26.457-21.638,35.504-25.933
		C78.531,204.397,82.254,201.524,85.682,198.493z"/>
	<path fill="#C67C32" d="M116.051,203.483l0.076-0.579c4.001-2.131,8.296-3.015,7.902-7.477c5.803-0.72,10.82-4.098,10.82-9.606
		c0.426-0.557,3.047-2.063,4.588-3.506c1.084-1.739,2.068-3.411,3.083-5.083c7.342,0,6.721,12.033,13.737,2.623
		c0.786-1.345,1.509-2.688,2.229-3.999c1.9,0,4.064,3.605,5.181,4.983c10.228-0.426,19.901-15.343,23.637-23.245
		c0.229-0.1,0.459-0.229,0.657-0.327c-1.378,6.686-1.378,6.686-2.099,9.046c-1.114,2.134-4.393,5.542-3.999,8.428
		c7.344,2.887,17.244-10.622,20.197-14.753c1.115-2.493,2.228-4.95,3.343-7.41c1.149,3.411,0.558,11.182-1.508,14.655
		c0.263,0,0.558,0.033,0.786,0.1c13.05-9.671,15.507-21.079,11.672-35.865c0.229-0.035,0.394-0.098,0.557-0.098
		c5.903,5.243,9.016,12.587,11.245,20.095c0.327,3.015,0.327,3.015,0.592,3.738c12.263-19.475-9.377-47.833-27.245-54.064
		c0-0.228,0-0.427-0.066-0.589c15.802-11.081,33.179,4.392,39.113,18.358c1.508,6.46,1.508,6.46,1.804,6.82
		c5.048-26.982-10.524-45.016-36.392-50.161c-2.36-0.198-4.689-0.297-7.081-0.394c-0.066-0.131-0.098-0.231-0.166-0.296
		c13.868-12.459,30.722-5.344,42.689,6.13c1.508,3.017,3.117,6.13,4.229,9.277c0.198-0.097,0.427-0.195,0.655-0.327
		c0.854-20.293-21.079-38.457-39.407-42.062c-2.492-0.166-5.048-0.329-7.607-0.46c12.622-6.262,28.162,0.362,38.556,7.41
		c1.41,1.277,3.017,3.278,4.689,3.572c-2.788-7.015-4.525-12.688-8.822-18.917c-12.228-13.637-26.686-17.54-44.62-14.031
		c-26.129,8.391-34.653,22.032-40.49,49.08c-0.46,3.18-0.952,13.902-2.36,15.735c-8.557,1.411-16.624,5.509-25.378,8.065
		c-9.965,1.739-17.703,1.017-27.703-1.933c0-1.016,4.393-4.46,5.048-4.721c0.066-0.557,0.066-1.05,0.066-1.573
		c-0.229,0.161-0.522,0.327-0.788,0.557C84.851,87.17,82.62,86.581,79.209,73.99c-0.195-10.949-0.163-19.869-3.343-30.065
		c-1.082-2.194-1.082-2.194-1.212-2.917c13.54,0.495,24.588-6.818,23.866-20.588c-3.376-8.296-6.064-1.573-11.244-0.558
		c1.245-4.59,3.344-13.375-4.264-11.638c-1.573,0.821-9.869,6.622-11.574,6.23c-1.343-4.787,0.756-6.558-6.064-6.066
		c-0.721,0.229-5.343,3.015-5.803,2.886c-2.001-6.13-7.966-0.788-10.524,2.327c-0.165,0-0.327,0-0.558,0
		c-3.999-5.213-6.621-2.819-9.048,2.296c-0.788,0.098-0.788,0.098-2.46-0.263c-6.458,1.935-7.179,13.837-5.999,20.128
		c-3.278,2.56-8.916,6.887-8.916,12.068c0.228,0.13,0.457,0.229,0.687,0.394c3.444-2.065,10.459-0.165,13.508,1.343
		c0,8.689-17.409,9.279-11.967,22.59c1.674,1.77,2.723,2.851,4.689,3.672c-1.245,9.015-10.459,20.883-16.917,27.67
		c-1.345,1.049-3.674,1.77-4.066,3.87c3.115,1.573,6.066,1.506,8.951,1.114c-4.066,14.919-4.098,25.376,3.441,39.637
		c11.541,18.393,27.54,28.458,47.047,37.408c3.215,1.718,16.828,8.684,18.203,12.571c0.043,0.119,0.074,0.234,0.092,0.348
		l-0.052,0.046c1.653,1.361,3.522,3.338,4.637,4.838h0.465c2.788,3.441,4.031,6.622,5.017,11.016
		c4.211-1.498,7.336-5.979,10.492-6.611c2.99-1.849,9.355-5.004,11.035-5.525c-1.68,0.52-8.045,3.675-11.035,5.525
		c0.089-0.017,0.176-0.033,0.263-0.044l0.032,0.207C109.146,206.445,113.684,204.405,116.051,203.483z"/>
	<path fill="#A9352D" d="M74.809,41.014c13.47,0.432,24.432-6.876,23.712-20.594c-3.376-8.296-6.064-1.573-11.244-0.558
		c1.245-4.59,3.344-13.375-4.264-11.638c-1.573,0.821-9.869,6.622-11.574,6.23c-1.343-4.787,0.756-6.558-6.064-6.066
		c-0.721,0.229-5.343,3.015-5.803,2.886c-2.001-6.13-7.966-0.788-10.524,2.327c-0.165,0-0.327,0-0.558,0
		c-3.999-5.213-6.621-2.819-9.048,2.296c-0.788,0.098-0.788,0.098-2.46-0.263c-6.458,1.935-7.179,13.837-5.999,20.128
		C41.598,21.567,64.429,29.207,74.809,41.014z"/>
	<path fill="#E1972F" d="M83.736,259.72c17.017-9.081,32.981-21.211,52.818-19.505c0.229-0.101,0.392-0.199,0.557-0.264
		c-7.673-3.835-11.835-6.164-21.671-7.115c-1.705-5.246,3.08-16.982,6.918-17.931c-0.068-0.231-0.133-0.396-0.166-0.558
		c-2.59,1.047-5.146,2.131-7.736,3.18c0.543-5.947,0.558-6.126,1.574-13.883l0.021-0.161c-2.367,0.922-6.906,2.962-9.464,4.416
		l0.014,0.097l0.046,0.324c1.017,7.249,0.927,16.381,0.005,24.06c-0.263,0.228-0.263,0.228-15.147,0.066
		c-3.867,0.884-8.557,2.819-11.669,6.393c0.261,0.294,0.557,0.557,0.786,0.82c3.047-0.362,6.392-1.147,9.048-0.982
		c-5.442,3.21-10.492,6.785-15.015,12.392c0.392,0.392,0.688,0.459,0.949,0.459c6.95-3.574,17.64-10.198,25.212-9.508
		c-6.687,4.787-12.62,10.328-18.195,17.244c0.394,0.394,0.657,0.459,1.115,0.459C83.736,259.723,83.736,259.72,83.736,259.72z"/>
	<path fill="#A9352D" d="M31.21,105.481c1.041-0.682,2.117-1.321,3.333-1.755l6.398-2.281l-0.215,6.789
		c-0.027,0.876-0.111,1.77-0.212,2.672l5.433-2.707l-1.618,9.065c-0.546,3.058-1.085,6.116-1.677,9.166
		c-0.149,7.184,1.65,13.993,5.792,19.924c13.721,19.652,48.928,25.593,71.268,27.65c6.488-0.212,12.929-1.156,19.41-1.462
		l3.792-0.179l0.919,3.681c1.05,4.21-2.859,7.431-5.825,9.633c-0.815,0.606-1.698,1.187-2.563,1.77
		c0.046,0.304,0.089,0.6,0.114,0.88l0.24,2.702l-2.239,1.531c-1.943,1.327-3.874,2.669-5.806,4.012l-1.158,0.805l-1.41,0.024
		c-0.252,0.003-0.479,0.005-0.688,0.008l0.294,2.716l-3.006,1.4c-2.546,1.187-4.512,2.417-7.233,3.063
		c-1.987,0.47-17.616,11.418-18.754,9.757c-0.683-0.997-3.534-6.866-4.105-7.943c-5.121-7.056-10.491-11.595-17.808-16.276
		c-7.372-3.621-14.718-7.304-21.799-11.475c-13.098-7.711-26.46-17.733-33.511-31.564c-5.349-10.491-6.268-21.684-3.685-33.103
		l0.552-2.438l0.622-0.233c0.628-1.849,1.65-3.648,2.539-5.083c1.721-2.775,4.718-7.364,8.377-7.364h6.053l-1.584,5.843
		C31.394,104.924,31.312,105.185,31.21,105.481z"/>
	<path fill="#A9352D" d="M31.805,72.778c5.309-1.081,14.357-6.23,11.965-12.294c2.621-5.246,10.424,3.213,10.983-5.966
		c-1.903-4.722-9.473-6.687-3.737-11.312c3.115-8.622-5.181-12.065-12.362-9.016c-4.621,0,1.183,5.148,2.001,8.099
		c-2.884,9.836-2.656,13.016-11.998,19.738C25.868,65.37,25.74,72.778,31.805,72.778L31.805,72.778z"/>
	<path fill="#A9352D" d="M22.753,48.225c4.694-4.05,6.852-3.954,12.115-5.006c-3.061-2.84-1.832-8.01-3.886-7.456
		c-3.112,0.842-9.173,8.146-8.916,12.068C22.36,47.861,22.536,48.181,22.753,48.225z"/>
	<path fill="#F2F3F9" d="M46.852,42.715c1.31-2.656-1.573-7.181-4.46-6.787C42.623,38.549,43.902,42.484,46.852,42.715z"/>
	<ellipse transform="matrix(-0.4362 -0.8998 0.8998 -0.4362 28.945 96.7504)" cx="44.781" cy="39.308" rx="1.681" ry="0.573"/>
</g>
</svg>
