<?xml version="1.0" encoding="utf-8"?>
<!-- Generator: Adobe Illustrator 17.0.0, SVG Export Plug-In . SVG Version: 6.00 Build 0)  -->
<!DOCTYPE svg PUBLIC "-//W3C//DTD SVG 1.1 Basic//EN" "http://www.w3.org/Graphics/SVG/1.1/DTD/svg11-basic.dtd">
<svg version="1.1" baseProfile="basic" id="Слой_1"
	 xmlns="http://www.w3.org/2000/svg" xmlns:xlink="http://www.w3.org/1999/xlink" x="0px" y="0px" width="256.729px"
	 height="269.99px" viewBox="0 0 256.729 269.99" xml:space="preserve">
<g>
	<path stroke="#FFFFFF" stroke-width="6" stroke-miterlimit="10" d="M144.644,161.764l8.433-14.135l-14.135-8.433l8.139-13.642
		l-13.642-8.139l8.273-13.865l-13.101-7.816c-0.001,0-0.002,0.001-0.002,0.001c-2.546,0.935-5.122,1.846-7.761,2.617
		c-9.965,1.739-17.703,1.017-27.703-1.933c0-1.016,4.393-4.46,5.048-4.721c0.066-0.557,0.066-1.05,0.066-1.573
		c-0.229,0.161-0.522,0.328-0.788,0.557c-12.62-3.509-14.851-4.098-18.262-16.689c-0.195-10.949-0.163-19.869-3.343-30.065
		c-1.082-2.194-1.082-2.194-1.212-2.917c0.051,0.002,0.101,0.001,0.152,0.003c0.001,0.001,0.001,0.001,0.002,0.002
		c0.148,0.005,0.294,0.003,0.441,0.006c0.253,0.005,0.506,0.011,0.757,0.011c0.159,0,0.315-0.006,0.473-0.008
		c0.258-0.004,0.516-0.007,0.772-0.017c0.146-0.006,0.291-0.016,0.436-0.024c0.264-0.014,0.528-0.027,0.789-0.047
		c0.139-0.011,0.275-0.026,0.413-0.038c0.265-0.024,0.53-0.047,0.792-0.077c0.132-0.015,0.262-0.035,0.394-0.052
		c0.264-0.034,0.528-0.067,0.788-0.108c0.129-0.02,0.255-0.045,0.382-0.066c0.26-0.044,0.521-0.087,0.778-0.138
		c0.123-0.024,0.244-0.053,0.367-0.079c0.257-0.054,0.514-0.108,0.766-0.169c0.123-0.03,0.242-0.064,0.364-0.095
		c0.249-0.064,0.499-0.127,0.744-0.197c0.119-0.034,0.236-0.073,0.354-0.109c0.243-0.073,0.487-0.146,0.725-0.226
		c0.119-0.04,0.234-0.084,0.352-0.126c0.233-0.082,0.467-0.163,0.696-0.252c0.122-0.047,0.24-0.099,0.361-0.149
		c0.22-0.089,0.441-0.177,0.656-0.273c0.123-0.054,0.242-0.114,0.364-0.17c0.208-0.096,0.417-0.191,0.62-0.293
		c0.124-0.062,0.244-0.13,0.366-0.194c0.196-0.103,0.392-0.204,0.583-0.312c0.125-0.071,0.245-0.147,0.367-0.22
		c0.183-0.109,0.367-0.215,0.545-0.329c0.126-0.081,0.248-0.167,0.372-0.25c0.168-0.113,0.338-0.223,0.502-0.34
		c0.128-0.092,0.251-0.19,0.377-0.284c0.153-0.115,0.309-0.228,0.458-0.348c0.131-0.105,0.255-0.216,0.382-0.324
		c0.137-0.116,0.277-0.23,0.411-0.35c0.132-0.119,0.258-0.245,0.386-0.367c0.121-0.116,0.246-0.229,0.363-0.348
		c0.131-0.132,0.254-0.271,0.38-0.407c0.108-0.117,0.22-0.23,0.325-0.35c0.132-0.15,0.255-0.306,0.382-0.461
		c0.092-0.112,0.187-0.221,0.276-0.335c0.132-0.169,0.255-0.346,0.38-0.52c0.076-0.106,0.157-0.209,0.231-0.317
		c0.127-0.186,0.245-0.38,0.365-0.572c0.064-0.103,0.133-0.202,0.195-0.307c0.122-0.204,0.234-0.415,0.347-0.625
		c0.053-0.098,0.111-0.193,0.162-0.293c0.114-0.222,0.218-0.451,0.323-0.679c0.043-0.094,0.091-0.185,0.132-0.28
		c0.107-0.244,0.203-0.494,0.299-0.745c0.033-0.085,0.07-0.167,0.101-0.253c0.098-0.268,0.185-0.543,0.271-0.819
		c0.023-0.074,0.05-0.145,0.072-0.219c0.087-0.292,0.163-0.591,0.236-0.892c0.015-0.063,0.034-0.123,0.049-0.186
		c0.073-0.315,0.136-0.638,0.194-0.962c0.009-0.052,0.022-0.102,0.031-0.154c0.057-0.335,0.103-0.677,0.144-1.022
		c0.005-0.045,0.014-0.089,0.019-0.134c0.039-0.345,0.066-0.697,0.087-1.051c0.003-0.049,0.009-0.095,0.012-0.144
		c0.022-0.4,0.033-0.806,0.033-1.218c0-0.005,0-0.01,0-0.015c0-0.418-0.011-0.842-0.033-1.272c-0.528-1.296-1.038-2.226-1.544-2.868
		c-0.101-0.128-0.202-0.245-0.303-0.351c-0.421-0.442-0.841-0.692-1.265-0.802c-0.39-0.101-0.785-0.084-1.189,0.021
		c-0.211,0.055-0.426,0.133-0.643,0.229c-1.306,0.578-2.739,1.811-4.466,2.605c-0.576,0.265-1.184,0.481-1.832,0.607
		c1.245-4.59,3.344-13.375-4.264-11.638c-0.295,0.154-0.826,0.483-1.506,0.913c-0.453,0.287-0.973,0.619-1.532,0.974
		s-1.159,0.734-1.772,1.114c-1.672,1.036-3.437,2.071-4.791,2.686c-0.882,0.401-1.595,0.629-1.973,0.542
		c-0.431-1.537-0.509-2.759-0.639-3.699c-0.042-0.306-0.093-0.58-0.161-0.826c-0.019-0.07-0.043-0.136-0.066-0.202
		c-0.083-0.236-0.185-0.447-0.333-0.622c-0.086-0.102-0.186-0.194-0.303-0.276c-0.35-0.246-0.852-0.402-1.585-0.474
		c-0.489-0.048-1.081-0.058-1.8-0.032c-0.36,0.013-0.751,0.035-1.177,0.066c-0.045,0.014-0.105,0.039-0.179,0.072
		c-0.147,0.066-0.347,0.167-0.585,0.291C64.136,9,63.511,9.345,62.864,9.7c-0.324,0.177-0.654,0.357-0.973,0.529
		c-0.32,0.172-0.63,0.335-0.914,0.48c-0.711,0.362-1.261,0.606-1.405,0.566c-0.313-0.958-0.722-1.636-1.2-2.086
		c-0.096-0.09-0.194-0.171-0.295-0.243c-0.504-0.361-1.072-0.504-1.674-0.483c-0.602,0.022-1.24,0.208-1.884,0.508
		c-0.307,0.143-0.614,0.313-0.921,0.501c-1.755,1.077-3.461,2.803-4.55,4.129c-0.165,0-0.328,0-0.558,0
		c-0.25-0.326-0.495-0.622-0.734-0.889s-0.474-0.507-0.703-0.718c-0.459-0.423-0.899-0.738-1.322-0.952
		c-0.212-0.107-0.419-0.189-0.622-0.248c-0.203-0.058-0.403-0.093-0.599-0.105c-0.392-0.024-0.768,0.042-1.133,0.188
		c-1.459,0.586-2.721,2.463-3.934,5.021c-0.788,0.098-0.788,0.098-2.46-0.263c-0.807,0.242-1.525,0.639-2.16,1.162
		c-0.635,0.523-1.189,1.171-1.667,1.914c-0.359,0.557-0.676,1.168-0.954,1.819c-0.371,0.868-0.673,1.809-0.913,2.791
		c-0.12,0.491-0.225,0.992-0.315,1.5c-0.05,0.284-0.095,0.57-0.137,0.858c-0.066,0.459-0.122,0.921-0.167,1.384
		c-0.028,0.285-0.052,0.57-0.072,0.855c-0.073,1.039-0.095,2.073-0.074,3.073c0.01,0.5,0.031,0.992,0.062,1.471
		c0.077,1.198,0.215,2.318,0.399,3.301l0,0v0h0c-1.955,0.529-5.073,3.609-7.058,6.799c-0.769,1.122-1.359,2.319-1.651,3.577
		c-0.162,0.606-0.241,1.179-0.208,1.692c0.141,0.081,0.284,0.155,0.426,0.235c0.087,0.073,0.171,0.141,0.261,0.159l0,0h0
		c3.444-2.065,10.459-0.165,13.508,1.343c0,8.689-17.409,9.279-11.967,22.59c1.674,1.77,2.723,2.851,4.689,3.672
		c-1.245,9.015-10.459,20.883-16.917,27.67c-1.345,1.049-3.674,1.77-4.066,3.87c3.115,1.573,6.066,1.506,8.951,1.114
		c-0.157,0.577-0.297,1.137-0.442,1.701c-0.158,0.374-0.313,0.75-0.442,1.131l-0.622,0.233l-0.552,2.438
		c-2.583,11.419-1.664,22.612,3.685,33.103c7.051,13.83,20.413,23.853,33.511,31.564c7.081,4.17,14.427,7.853,21.799,11.475
		c4.35,2.783,8.009,5.52,11.339,8.761c-3.304,2.886-6.89,5.637-11.132,8.442c-9.048,4.295-34.063,11.247-35.505,25.933
		c0.391,0.394,0.391,0.394,1.177,0.46c3.738-4.132,10.393-9.475,14.852-10.786c-1.443,3.212-3.276,8.393-2.949,12.558
		c4.95-7.41,8.197-11.247,15.574-14.919c1.506-1.115,3.114-2.984,4.227-3.443c0.788,2.392,1.903,4.294,3.575,6.524
		c0.457-3.409,1.769-5.344,2.951-7.475c1.737,0,3.737,2.296,5.015,3.278c0.427-0.196,0.886-0.394,1.28-0.557
		c0.098-0.821-0.066-2.098-0.066-6.393c0.615-4.321,3.429-5.949,5.562-8.605c0.641,0.798,1.276,1.628,1.907,2.497
		c0.571,1.077,3.422,6.947,4.105,7.944c0.652,0.952,6.065-2.238,10.941-5.224c0.904,7.115,0.799,15.852-0.09,23.256
		c-0.263,0.228-0.263,0.228-15.147,0.066c-3.867,0.884-8.557,2.819-11.669,6.393c0.261,0.294,0.557,0.557,0.786,0.82
		c3.047-0.362,6.391-1.147,9.048-0.982c-5.442,3.21-10.492,6.785-15.015,12.392c0.392,0.392,0.688,0.459,0.949,0.459
		c6.95-3.574,17.64-10.198,25.212-9.508c-6.687,4.787-12.62,10.328-18.195,17.244c0.394,0.394,1.115,0.457,1.115,0.457
		c17.017-9.081,32.981-21.211,52.818-19.505c0.229-0.101,0.392-0.199,0.557-0.264c-7.673-3.835-11.835-6.164-21.671-7.115
		c-1.705-5.246,3.08-16.982,6.918-17.931c-0.068-0.231-0.133-0.396-0.166-0.558c-2.59,1.047-5.146,2.131-7.736,3.18
		c0.529-5.801,0.56-6.134,1.504-13.346c2.04-0.685,3.743-1.681,5.827-2.653l3.006-1.4l-0.294-2.716
		c0.209-0.003,0.437-0.005,0.688-0.008l1.41-0.024l1.158-0.805c1.932-1.343,3.863-2.685,5.806-4.012l2.239-1.531l-0.24-2.702
		c-0.025-0.28-0.068-0.576-0.114-0.88c0.865-0.584,1.748-1.164,2.563-1.77c2.636-1.957,6.009-4.721,5.991-8.267
		c3.292,0.825,4.702,4.296,6.486,5.568l7.801-13.076L144.644,161.764z"/>
	<path stroke="#FFFFFF" stroke-width="6" stroke-miterlimit="10" d="M153.077,147.629"/>
</g>
<g>
	<g>
		<path fill="#C67C32" d="M158.286,169.904l-13.642-8.139l8.433-14.135l-14.135-8.433l8.139-13.642l-13.642-8.139l8.273-13.865
			l-13.101-7.816c-0.001,0-0.002,0.001-0.002,0.001c-2.546,0.935-5.122,1.846-7.761,2.617c-9.965,1.739-17.703,1.017-27.703-1.933
			c0-1.016,4.393-4.46,5.048-4.721c0.066-0.557,0.066-1.05,0.066-1.573c-0.229,0.161-0.522,0.327-0.788,0.557
			c-12.62-3.509-14.851-4.098-18.262-16.689c-0.195-10.949-0.163-19.869-3.343-30.065c-1.082-2.194-1.082-2.194-1.212-2.917
			C88.194,41.503,99.242,34.19,98.52,20.42c-3.376-8.296-6.064-1.573-11.244-0.558c1.245-4.59,3.344-13.375-4.264-11.638
			c-1.573,0.821-9.869,6.622-11.574,6.23c-1.343-4.787,0.756-6.558-6.064-6.066c-0.721,0.229-5.343,3.015-5.803,2.886
			c-2.001-6.13-7.966-0.788-10.524,2.327c-0.165,0-0.328,0-0.558,0c-3.999-5.213-6.621-2.819-9.048,2.296
			c-0.788,0.098-0.788,0.098-2.46-0.263c-6.458,1.935-7.179,13.837-5.999,20.128c-3.278,2.56-8.916,6.887-8.916,12.068
			c0.228,0.13,0.457,0.229,0.687,0.394c3.444-2.065,10.459-0.165,13.508,1.343c0,8.689-17.409,9.279-11.967,22.59
			c1.674,1.77,2.723,2.851,4.689,3.672c-1.245,9.015-10.459,20.883-16.917,27.67c-1.345,1.049-3.674,1.77-4.066,3.87
			c3.115,1.573,6.066,1.506,8.951,1.114c-4.066,14.919-4.097,25.376,3.441,39.637c11.541,18.393,27.54,28.458,47.047,37.408
			c3.215,1.718,16.828,8.684,18.203,12.571c0.043,0.119,0.074,0.234,0.092,0.348l-0.052,0.046c1.653,1.361,3.522,3.338,4.637,4.838
			h0.465c2.788,3.441,4.031,6.622,5.017,11.016c4.211-1.498,7.336-5.979,10.492-6.611c0.089-0.017,0.176-0.033,0.263-0.044
			l0.032,0.207c2.558-1.454,7.097-3.493,9.464-4.415l0.076-0.579c4.001-2.131,8.296-3.015,7.902-7.477
			c5.803-0.72,10.82-4.097,10.82-9.606c0.426-0.557,3.047-2.063,4.588-3.506c1.084-1.739,2.068-3.411,3.084-5.083
			c4.39,0,5.934,4.3,7.965,5.747L158.286,169.904z"/>
		<polygon fill="#C67C32" points="153.17,147.474 153.077,147.629 153.23,147.72 		"/>
		<path fill="#E1972F" d="M85.682,198.493c1.653,1.361,3.522,3.338,4.637,4.838h-0.092l-0.011,0.016
			c-2.166,3.006-5.333,4.548-5.99,9.165c0,4.295,0.165,5.572,0.066,6.393c-0.394,0.163-0.853,0.361-1.28,0.557
			c-1.278-0.982-3.278-3.278-5.015-3.278c-1.182,2.131-2.493,4.066-2.951,7.475c-1.672-2.231-2.788-4.132-3.575-6.524
			c-1.114,0.459-2.721,2.327-4.227,3.443c-7.377,3.672-10.623,7.508-15.574,14.919c-0.327-4.166,1.506-9.347,2.949-12.558
			c-4.46,1.312-11.114,6.654-14.852,10.786c-0.786-0.066-0.786-0.066-1.177-0.46c1.441-14.686,26.457-21.638,35.504-25.933
			C78.531,204.397,82.254,201.524,85.682,198.493z"/>
		<path fill="#A9352D" d="M74.809,41.014c13.47,0.432,24.432-6.876,23.712-20.594c-3.376-8.296-6.064-1.573-11.244-0.558
			c1.245-4.59,3.344-13.375-4.264-11.638c-1.573,0.821-9.869,6.622-11.574,6.23c-1.343-4.787,0.756-6.558-6.064-6.066
			c-0.721,0.229-5.343,3.015-5.803,2.886c-2.001-6.13-7.966-0.788-10.524,2.327c-0.165,0-0.327,0-0.558,0
			c-3.999-5.213-6.621-2.819-9.048,2.296c-0.788,0.098-0.788,0.098-2.46-0.263c-6.458,1.935-7.179,13.837-5.999,20.128
			C41.598,21.567,64.429,29.207,74.809,41.014z"/>
		<path fill="#E1972F" d="M83.736,259.72c17.017-9.081,32.981-21.211,52.818-19.505c0.229-0.101,0.392-0.199,0.557-0.264
			c-7.673-3.835-11.835-6.164-21.671-7.115c-1.705-5.246,3.08-16.982,6.918-17.931c-0.068-0.231-0.133-0.396-0.166-0.558
			c-2.59,1.047-5.146,2.131-7.736,3.18c0.543-5.947,0.558-6.126,1.574-13.883l0.021-0.161c-2.367,0.922-6.906,2.962-9.464,4.416
			l0.014,0.096l0.046,0.324c1.017,7.249,0.927,16.381,0.005,24.06c-0.263,0.228-0.263,0.228-15.147,0.066
			c-3.867,0.884-8.557,2.819-11.669,6.393c0.261,0.294,0.557,0.557,0.786,0.82c3.047-0.362,6.391-1.147,9.048-0.982
			c-5.442,3.21-10.492,6.785-15.015,12.392c0.392,0.392,0.688,0.459,0.949,0.459c6.95-3.574,17.64-10.198,25.212-9.508
			c-6.687,4.787-12.62,10.328-18.195,17.244c0.394,0.394,0.657,0.459,1.115,0.459V259.72z"/>
		<path fill="#A9352D" d="M31.21,105.481c1.041-0.682,2.117-1.321,3.333-1.755l6.398-2.281l-0.215,6.789
			c-0.027,0.876-0.111,1.77-0.212,2.672l5.433-2.707l-1.618,9.065c-0.546,3.058-1.085,6.116-1.677,9.166
			c-0.149,7.184,1.65,13.993,5.792,19.924c13.721,19.652,48.928,25.593,71.268,27.65c6.488-0.212,12.929-1.156,19.41-1.462
			l3.792-0.179l0.919,3.681c1.05,4.21-2.859,7.431-5.825,9.633c-0.815,0.606-1.698,1.187-2.563,1.77
			c0.046,0.304,0.089,0.6,0.114,0.88l0.24,2.702l-2.239,1.531c-1.943,1.327-3.874,2.669-5.806,4.012l-1.158,0.805l-1.41,0.024
			c-0.252,0.003-0.479,0.005-0.688,0.008l0.294,2.716l-3.006,1.4c-2.546,1.187-4.512,2.417-7.233,3.063
			c-1.987,0.47-17.616,11.418-18.754,9.757c-0.683-0.997-3.534-6.866-4.105-7.943c-5.121-7.056-10.491-11.595-17.808-16.276
			c-7.372-3.621-14.718-7.304-21.799-11.475c-13.098-7.711-26.46-17.733-33.511-31.564c-5.349-10.491-6.268-21.684-3.685-33.103
			l0.552-2.438l0.622-0.233c0.628-1.849,1.65-3.648,2.539-5.083c1.721-2.775,4.718-7.364,8.377-7.364h6.053l-1.584,5.843
			C31.394,104.924,31.312,105.185,31.21,105.481z"/>
		<path fill="#A9352D" d="M31.805,72.778c5.309-1.081,14.357-6.23,11.965-12.294c2.621-5.246,10.424,3.213,10.983-5.966
			c-1.903-4.722-9.473-6.687-3.737-11.312c3.115-8.622-5.181-12.065-12.362-9.016c-4.621,0,1.183,5.148,2.001,8.099
			c-2.884,9.836-2.656,13.016-11.998,19.738C25.868,65.37,25.74,72.778,31.805,72.778L31.805,72.778z"/>
		<path fill="#A9352D" d="M22.753,48.225c4.694-4.05,6.852-3.954,12.115-5.006c-3.061-2.84-1.832-8.01-3.886-7.456
			c-3.112,0.842-9.173,8.146-8.916,12.068C22.36,47.861,22.536,48.181,22.753,48.225z"/>
		<path fill="#F2F3F9" d="M46.852,42.715c1.31-2.656-1.573-7.181-4.46-6.787C42.623,38.549,43.902,42.484,46.852,42.715z"/>
		<ellipse transform="matrix(0.8998 -0.4362 0.4362 0.8998 -12.6616 23.4731)" cx="44.784" cy="39.308" rx="0.573" ry="1.681"/>
	</g>
</g>
</svg>
