<?xml version="1.0" encoding="utf-8"?>
<!-- Generator: Adobe Illustrator 17.0.0, SVG Export Plug-In . SVG Version: 6.00 Build 0)  -->
<!DOCTYPE svg PUBLIC "-//W3C//DTD SVG 1.1 Basic//EN" "http://www.w3.org/Graphics/SVG/1.1/DTD/svg11-basic.dtd">
<svg version="1.1" baseProfile="basic" id="Слой_1"
	 xmlns="http://www.w3.org/2000/svg" xmlns:xlink="http://www.w3.org/1999/xlink" x="0px" y="0px" width="64.447px"
	 height="119.628px" viewBox="0 0 64.447 119.628" xml:space="preserve">
<g>
	<path fill-rule="evenodd" clip-rule="evenodd" fill="#87BB50" d="M48.477,56.538c20.202-3.87,18.7-19.051,9.419-31.851
		c2.113-2.81,5.274-23.617-3.734-24.579c-18.367-1.96-38.335,22.923-49.05,40.963c0.376,0,0.705,0.145,1.012,0.387L0,50.712
		l9.654,6.39L3.033,67.105l10.003,6.621l-6.39,9.654l9.654,6.39l-5.961,9.006c0.633,0.832,1.262,1.634,1.887,2.409l6.851,4.535
		c0.001,0,0.002-0.001,0.003-0.001c-0.761,0.24-1.519,0.483-2.275,0.723c6.984,7.368,13.472,11.211,19.599,12.497
		c10.092,2.12,11.098-0.627,15.58-8.462c8.831-15.444,13.641-24.413,8.892-35.704C58.717,69.64,54.364,62.17,48.477,56.538z"/>
	<polygon fill-rule="evenodd" clip-rule="evenodd" fill="#87BB50" points="2.96,67.215 3.033,67.105 2.925,67.033 	"/>
</g>
</svg>
