<?xml version="1.0" encoding="utf-8"?>
<!-- Generator: Adobe Illustrator 17.0.0, SVG Export Plug-In . SVG Version: 6.00 Build 0)  -->
<!DOCTYPE svg PUBLIC "-//W3C//DTD SVG 1.1 Basic//EN" "http://www.w3.org/Graphics/SVG/1.1/DTD/svg11-basic.dtd">
<svg version="1.1" baseProfile="basic" id="Слой_1"
	 xmlns="http://www.w3.org/2000/svg" xmlns:xlink="http://www.w3.org/1999/xlink" x="0px" y="0px" width="44.951px"
	 height="139.786px" viewBox="0 0 44.951 139.786" xml:space="preserve">
<path fill="#42BCAA" d="M18.053,24.148c-0.306-5.827,2.806-11.769,6.813-15.475c11.532-6.227,8.837-7.409,7.792-8.053
	C23.852-2.199,14.54,5.149,9.413,11.469c-10.457,13.88-2.929,30.238,2.731,43.497c-0.702,0.686-1.202,1.52-1.345,2.54
	c-0.127,3.156,3.294,3.862,5.267,5.522c0.89,1.986-0.555,4.581-0.993,6.579c0.154,3.322,3.746,3.998,5.412,6.138
	c0.161,1.932-1.737,2.751-2.901,3.875c-3.099,3.161,0.851,6.481,0.008,9.832c-1.294,1.821-3.565,0.316-5.356,0.513
	c-3.775-0.074-4.604,3.772-7.51,5.188c-0.369-0.012-0.771-0.069-1.177-0.157c0.425,0.528,0.851,1.067,1.281,1.625L0,104.647
	l8.378,5.538l-5.176,8.605l8.681,5.738l0.059-0.098l0.035,0.16l-0.094-0.062l-5.363,8.915l8.378,5.538l-0.485,0.806
	c15.055-8.353,26.315-22.606,29.976-40.124C49.095,70.367,22.845,52.048,18.053,24.148z"/>
</svg>
