<?xml version="1.0" encoding="utf-8"?>
<!-- Generator: Adobe Illustrator 17.0.0, SVG Export Plug-In . SVG Version: 6.00 Build 0)  -->
<!DOCTYPE svg PUBLIC "-//W3C//DTD SVG 1.1 Basic//EN" "http://www.w3.org/Graphics/SVG/1.1/DTD/svg11-basic.dtd">
<svg version="1.1" baseProfile="basic" id="Слой_1"
	 xmlns="http://www.w3.org/2000/svg" xmlns:xlink="http://www.w3.org/1999/xlink" x="0px" y="0px" width="117.703px"
	 height="159.195px" viewBox="0 0 117.703 159.195" xml:space="preserve">
<path fill="#BAAE52" d="M78.271,23.642c-2.492-0.166-5.048-0.329-7.606-0.46c12.622-6.262,28.162,0.362,38.556,7.41
	c1.41,1.277,3.017,3.278,4.689,3.572c-2.788-7.015-4.525-12.688-8.822-18.917C92.861,1.611,78.403-2.292,60.469,1.217
	c-26.129,8.391-34.653,22.032-40.49,49.08c-0.46,3.18-0.952,13.902-2.36,15.735C11.64,67.018,5.901,69.314,0,71.481
	c0.001-0.001,0.003-0.001,0.004-0.002l13.101,7.816L4.833,93.161l13.642,8.139l-8.139,13.642l14.135,8.433l0.093-0.155l0.06,0.246
	l-0.153-0.091l-8.433,14.135l13.642,8.139l-7.801,13.076c1.366,0.973,2.951,0.659,5.772-3.124c0.786-1.345,1.509-2.688,2.229-3.999
	c1.9,0,4.064,3.606,5.181,4.983c10.228-0.426,19.901-15.343,23.637-23.245c0.229-0.1,0.459-0.229,0.657-0.327
	c-1.378,6.686-1.378,6.686-2.099,9.046c-1.114,2.134-4.393,5.542-3.999,8.428c7.344,2.887,17.244-10.622,20.196-14.753
	c1.115-2.493,2.228-4.95,3.343-7.41c1.149,3.411,0.559,11.182-1.508,14.655c0.263,0,0.558,0.033,0.786,0.1
	c13.05-9.671,15.507-21.079,11.672-35.865c0.229-0.035,0.394-0.098,0.557-0.098c5.903,5.243,9.016,12.587,11.245,20.095
	c0.327,3.015,0.327,3.015,0.592,3.738c12.262-19.475-9.377-47.833-27.245-54.064c0-0.228,0-0.427-0.066-0.589
	c15.802-11.081,33.179,4.392,39.113,18.358c1.508,6.46,1.508,6.46,1.803,6.82c5.048-26.982-10.524-45.016-36.392-50.161
	c-2.36-0.198-4.689-0.297-7.081-0.394c-0.066-0.131-0.098-0.231-0.166-0.296c13.868-12.459,30.722-5.344,42.689,6.13
	c1.508,3.017,3.117,6.13,4.229,9.277c0.198-0.097,0.427-0.195,0.655-0.327C118.533,45.411,96.6,27.248,78.271,23.642z"/>
</svg>
