<?xml version="1.0" encoding="utf-8"?>
<!-- Generator: Adobe Illustrator 17.0.0, SVG Export Plug-In . SVG Version: 6.00 Build 0)  -->
<!DOCTYPE svg PUBLIC "-//W3C//DTD SVG 1.1 Basic//EN" "http://www.w3.org/Graphics/SVG/1.1/DTD/svg11-basic.dtd">
<svg version="1.1" baseProfile="basic" id="Слой_1"
	 xmlns="http://www.w3.org/2000/svg" xmlns:xlink="http://www.w3.org/1999/xlink" x="0px" y="0px" width="214.938px"
	 height="301.125px" viewBox="0 0 214.938 301.125" xml:space="preserve">
<path fill="#A8A8A8" stroke="#FFFFFF" stroke-width="6" stroke-miterlimit="10" d="M185.125,153.693
	c1.473-7.077,3.366-17.411,5.449-31.838c2.374-1.686,5.054-3.22,7.804-4.064c0,0,7.64-7.651-6.008-9.107
	c0.358-2.772,0.72-5.652,1.083-8.662c0.248-1.823,0.494-3.656,0.737-5.498c0.938-4.504,5.141-26.443,5.595-59.573
	c0.261-7.403,0.232-14.125-0.183-19.795c0,0-60.565-15.201-119.797-1.289c0,0-8.865,44.589-13.951,85.878
	c-7.052,0.21-30.428,4.293-30.428,4.293c-36.005,6.548-24.884,14.405-24.884,14.405c2.945,1.225,6.722,1.609,10.915,1.424
	l-4.014,48.611c-2.71,2.102-5.453,4.393-8.21,6.898c0,0-4.578,13.743,3.931,18.983c0,0,39.486,7.283,77.428,12.504v23.192
	c0,0.453,0.06,0.906,0.134,1.348c-19.55-2.204-35.507-0.771-58.808,4.289c-3.36,0.73-4.831,3.772-5.135,6.976
	c-0.448,4.677,2.976,8.827,7.658,9.28c4.677,0.453,8.822-2.981,9.28-7.658c0.209-2.179-0.438-4.214-1.637-5.837
	c5.623,1.498,13.251,3.473,22.306,5.707c-12.046,6.812-24.307,16.375-36.104,29.68c-2.717,1.577-4.752,4.672-5.11,8.419
	c-0.547,5.752,2.961,10.787,7.857,11.255c4.906,0.473,9.305-3.802,9.857-9.544c0.527-5.404-4.171-10.407-7.031-11.066
	c-0.373-0.086,65.053-20.734,65.053-20.734c27.188,5.921,58.266,11.638,84.504,13.778c-2.811,1.547-4.846,4.413-5.175,7.857
	c-0.522,5.528,3.533,10.434,9.056,10.972c5.528,0.532,10.434-3.523,10.972-9.051c0.348-3.697-1.373-7.08-4.185-9.091
	c0.299,0-13.509-8.518-35.507-17.35c1.801-1.532,3.09-3.886,3.364-6.663c0.478-5.09-2.642-9.573-6.996-9.991
	c-0.418-0.035-0.846-0.005-1.239,0.025c-6.727-1.916-23.431-5.657-44.598-3.165v-20.042l0.02-0.206
	c13.183,1.555,25.269,2.634,34.288,2.789c0,0,4.522-2.528,10.568-6.689c2.486,0.637,5.702,0.563,8.405-2.482l0.666-4.256
	c7.046-5.669,14.248-12.645,18.312-19.961c0,0,1.613-6.449,0.534-11.197l0.77,0.046C182.67,167.493,183.642,162.286,185.125,153.693
	z M147.72,236.612c-0.796,1.304-1.363,2.811-1.518,4.498c-0.124,1.259-0.03,2.483,0.254,3.602
	c-3.796-1.348-7.747-2.662-11.817-3.931L147.72,236.612z M30.78,118.722c14.643-2.722,30.538-9.298,34.118-10.827
	c-1.603,14.385-2.626,27.952-2.511,38.591c-5.477,1.158-17.61,4.481-32.126,13.201L30.78,118.722z"/>
<polygon fill="#A8A8A8" stroke="#272525" stroke-width="3" stroke-miterlimit="10" points="557.307,189.762 557.307,189.762 
	557.306,189.761 "/>
<g id="__x0023_Layer_x0020_1_1_">
	<path fill="#A7522E" d="M194.08,266.635c0.299,0,0.617,0.025,0.925,0.035c0,0-14.435-8.553-36.433-17.385
		c1.801-1.533,3.09-3.886,3.364-6.663c0.478-5.09-2.642-9.573-6.996-9.991c-0.418-0.035-0.846-0.005-1.239,0.025
		c-6.727-1.916-23.431-5.657-44.598-3.165v-20.042l0.702-7.389c0.06-0.493,0.02-0.97-0.08-1.433l0.582-6.051
		c0.403-4.269-2.727-8.071-6.996-8.479c-4.274-0.403-8.061,2.732-8.459,6.996l-0.209,2.015c-2.458,1.667-4.055,4.473-4.055,7.678
		v27.267c0,0.453,0.06,0.906,0.134,1.348c-19.55-2.204-39.846-1.602-59.048,4.229c0,0,0.1,0.025,0.239,0.06
		c-2.757,1.184-4.831,3.772-5.135,6.976c-0.448,4.677,2.976,8.827,7.658,9.28c4.677,0.453,8.822-2.98,9.28-7.658
		c0.209-2.179-0.438-4.214-1.637-5.837c5.623,1.498,13.25,3.473,22.306,5.707c-12.046,6.812-24.307,16.375-36.104,29.681
		c-2.717,1.577-4.752,4.672-5.11,8.419c-0.547,5.752,2.961,10.787,7.857,11.255c4.906,0.473,9.305-3.802,9.857-9.544
		c0.527-5.404-2.587-10.131-7.031-11.066l65.053-20.734c27.188,5.921,58.266,11.638,84.504,13.778
		c-2.811,1.547-4.846,4.414-5.175,7.857c-0.522,5.528,3.533,10.434,9.056,10.972c5.528,0.532,10.434-3.523,10.972-9.051
		C198.613,272.029,196.891,268.646,194.08,266.635z M146.452,244.712L146.452,244.712c-3.797-1.348-7.747-2.662-11.817-3.931
		l13.081-4.17c-0.796,1.304-1.363,2.811-1.518,4.498C146.074,242.369,146.168,243.593,146.452,244.712z"/>
	<path fill="#693B28" d="M90.912,204.821v8.678c0,0,7.907,3.329,18.012,1.742v-8.996L90.912,204.821z"/>
	<polygon fill="#A7522E" points="21.679,117.133 17.087,172.757 30.183,165.562 30.83,114.511 	"/>
	<path fill="#C06A30" d="M65.66,107.565c0,0-39.403,17.415-55.122,10.877c0,0-11.121-7.857,24.884-14.405
		c0,0,28.029-4.896,31.969-4.244L65.66,107.565z"/>
	<path fill="#D77535" d="M36.124,105.341c-14.295,2.597-21.137,5.409-24.222,7.847c8.504,1.428,20.147,1.816,29.581-3.622
		c0,0,12.181-5.672,26.411-6.006l0.244-2.582C64.217,100.32,36.124,105.341,36.124,105.341z"/>
	<path fill="#D77535" d="M79.801,13.866c0,0-22.779,114.567-16.256,146.462l119.12,7.165c0,0,20.177-108.069,16.933-152.338
		C199.598,15.155,139.033-0.046,79.801,13.866z"/>
	<path fill="#CB692E" d="M199.598,15.155c0,0-7.344-0.109-10.588,29.083c0,0-11.22,92.569-11.22,99.312
		c0,0-1.254,15.47,4.239,22.948c0,0,5.737-17.709,11.972-71.109C194,95.389,201.18,63.932,199.598,15.155z"/>
	<path fill="#CB692E" d="M178.745,162.945c0,0-23.57-17.674-113.224-17.022c0,0-27.486,3.284-56.291,29.452
		c0,0-4.578,13.743,3.931,18.983c0,0,92.281,17.022,130.251,17.674c0,0,28.133-15.714,37.95-33.387
		C181.362,178.644,184.641,165.562,178.745,162.945z"/>
	<path fill="#D77535" d="M159.961,156.502c-29.576,34.253-92.977,3.264-136.147,9.354c-7.28,5.035-11.698,9.056-11.698,9.056
		c51.221,12.161,130.256,15.211,130.256,15.211c6.966-1.224,33.537-26.765,33.537-26.765
		C171.525,160.636,166.051,158.382,159.961,156.502z"/>
	<path fill="#A7522E" d="M165.001,129.563l-15.047,73.96c0,0,7.19,5.24,12.429-0.662l11.773-75.254L165.001,129.563z"/>
	<path fill="#C06A30" d="M191.836,108.625c0,0-42.538,4.578-36.005,25.526c0,0,14.405,11.121,26.178-4.588
		c0,0,7.872-9.165,16.365-11.773C198.374,117.79,206.231,109.933,191.836,108.625z"/>
	<path fill="#D77535" d="M184.924,119.218c0,0,5.249-5.488,11.723-8.917c-1.11-0.318-2.438-0.577-4.08-0.731
		c0,0-23.655,2.717-33.293,13.3C162.986,125.677,174.067,132.195,184.924,119.218z"/>
	<path fill="#D77535" d="M108.113,231.173c0,0,14.096,3.816,18.729,5.643c0,0,15.435-3.483,25.058-2.821
		C151.9,233.994,129.848,229.019,108.113,231.173z"/>
	<path fill="#D77535" d="M84.737,232.661c0,0-8.469,3.155-12.922,5.807c0,0-20.241-3.319-30.193-2.159
		C41.622,236.308,59.699,230.014,84.737,232.661z"/>
	<path fill="#D77535" d="M92.415,233.432v11.857l-55.893,24.386C36.522,269.676,56.858,249.016,92.415,233.432z"/>
	<path fill="#D77535" d="M105.282,232.76v11.176l73.512,18.291C178.794,262.227,128.653,239.199,105.282,232.76z"/>
</g>
</svg>
