<?xml version="1.0" encoding="utf-8"?>
<!-- Generator: Adobe Illustrator 17.0.0, SVG Export Plug-In . SVG Version: 6.00 Build 0)  -->
<!DOCTYPE svg PUBLIC "-//W3C//DTD SVG 1.1 Basic//EN" "http://www.w3.org/Graphics/SVG/1.1/DTD/svg11-basic.dtd">
<svg version="1.1" baseProfile="basic" id="Слой_1"
	 xmlns="http://www.w3.org/2000/svg" xmlns:xlink="http://www.w3.org/1999/xlink" x="0px" y="0px" width="99.115px"
	 height="76.783px" viewBox="0 0 99.115 76.783" xml:space="preserve">
<path fill="#ECBE33" d="M94.886,58.593c-0.51-0.443-0.548-0.622-0.821-0.749c0,0-12.689-7.769-34.686-16.601
	c1.801-1.532,3.09-3.886,3.363-6.663c0.478-5.09-2.642-9.573-6.996-9.991c-0.418-0.035-0.846-0.005-1.239,0.025
	c-6.727-1.916-23.431-5.657-44.598-3.165V1.407l0.02-0.206C6.755,0.827,3.515,0.424,0.242,0C0.067,14.8-0.465,29.6,0.973,44.4
	c26.887,5.824,57.409,11.4,83.245,13.507c-2.811,1.547-4.846,4.413-5.175,7.857c-0.523,5.528,3.533,10.434,9.056,10.972
	c5.528,0.532,10.434-3.523,10.971-9.051C99.419,63.987,97.698,60.604,94.886,58.593z M47.258,36.67
	c-3.796-1.348-7.747-2.662-11.818-3.931l13.081-4.17c-0.796,1.304-1.363,2.811-1.518,4.498C46.88,34.327,46.975,35.551,47.258,36.67
	z"/>
</svg>
