<?xml version="1.0" encoding="utf-8"?>
<!-- Generator: Adobe Illustrator 17.0.0, SVG Export Plug-In . SVG Version: 6.00 Build 0)  -->
<!DOCTYPE svg PUBLIC "-//W3C//DTD SVG 1.1 Basic//EN" "http://www.w3.org/Graphics/SVG/1.1/DTD/svg11-basic.dtd">
<svg version="1.1" baseProfile="basic" id="Слой_1"
	 xmlns="http://www.w3.org/2000/svg" xmlns:xlink="http://www.w3.org/1999/xlink" x="0px" y="0px" width="77.05px"
	 height="86.686px" viewBox="0 0 77.05 86.686" xml:space="preserve">
<path fill="#CE9536" d="M76.319,1.18C73.392,0.802,70.438,0.408,67.472,0v23.192c0,0.453,0.06,0.906,0.134,1.348
	c-19.55-2.204-39.846-1.602-59.047,4.229c0,0-0.835,0.275-0.696,0.31c-2.757,1.184-3.897,3.521-4.2,6.725
	c-0.448,4.677,2.976,8.827,7.658,9.28c4.677,0.453,8.822-2.98,9.28-7.658c0.209-2.179-0.438-4.215-1.637-5.837
	c5.623,1.498,13.25,3.473,22.306,5.707c-12.046,6.812-24.307,16.375-36.104,29.68c-2.717,1.577-4.752,4.672-5.11,8.419
	c-0.547,5.752,2.961,10.787,7.857,11.255c4.906,0.473,9.305-3.801,9.857-9.544c0.527-5.404-2.587-10.131-7.031-11.066l65.053-20.734
	c0.416,0.091,0.841,0.18,1.258,0.271C75.612,30.78,76.144,15.98,76.319,1.18z"/>
</svg>
