<?xml version="1.0" encoding="utf-8"?>
<!-- Generator: Adobe Illustrator 17.0.0, SVG Export Plug-In . SVG Version: 6.00 Build 0)  -->
<!DOCTYPE svg PUBLIC "-//W3C//DTD SVG 1.1 Basic//EN" "http://www.w3.org/Graphics/SVG/1.1/DTD/svg11-basic.dtd">
<svg version="1.1" baseProfile="basic" id="Слой_1"
	 xmlns="http://www.w3.org/2000/svg" xmlns:xlink="http://www.w3.org/1999/xlink" x="0px" y="0px" width="214.938px"
	 height="301.125px" viewBox="0 0 214.938 301.125" xml:space="preserve">
<polygon fill="#A8A8A8" stroke="#272525" stroke-width="3" stroke-miterlimit="10" points="557.307,189.762 557.307,189.762 
	557.306,189.761 "/>
<path fill="#A8A8A8" stroke="#272525" stroke-width="3" stroke-miterlimit="10" d="M68.221,101.244
	c-0.243-0.041-0.58-0.059-0.997-0.059l0.251-1.125c-3.941-0.652-31.969,4.244-31.969,4.244
	c-36.005,6.548-24.884,14.405-24.884,14.405c2.945,1.225,6.722,1.609,10.915,1.424l-4.367,52.891l13.096-7.195l0.593-46.84
	c16.62-3.089,34.884-11.157,34.884-11.157l0.882-3.958c0.449-0.021,0.899-0.037,1.352-0.048L68.221,101.244z"/>
<path fill="#A8A8A8" stroke="#272525" stroke-width="3" stroke-miterlimit="10" d="M65.521,146.018c0,0-27.486,3.284-56.291,29.452
	c0,0-4.578,13.743,3.931,18.982c0,0,26.823,4.947,57.495,9.61c12.631-19.554,25.316-39.139,40.935-56.532
	C98.633,146.488,83.394,145.888,65.521,146.018z"/>
<path fill="#A8A8A8" stroke="#272525" stroke-width="3" stroke-miterlimit="10" d="M178.089,163.511
	c0,0-15.117-11.328-67.154-15.511C95.316,165.393,82.631,184.979,70,204.532c26.222,3.986,55.256,7.764,72.756,8.064
	c0,0,28.133-15.713,37.95-33.387C180.706,179.209,183.985,166.128,178.089,163.511z"/>
<path fill="#A8A8A8" stroke="#272525" stroke-width="3" stroke-miterlimit="10" d="M193.885,266.593
	c-0.51-0.443-0.548-0.622-0.821-0.749c0,0-12.689-7.769-34.686-16.601c1.801-1.532,3.09-3.886,3.363-6.663
	c0.478-5.09-2.642-9.573-6.996-9.991c-0.418-0.035-0.846-0.005-1.239,0.025c-6.727-1.916-23.431-5.657-44.598-3.165v-20.042
	l0.02-0.206c-3.174-0.374-6.414-0.777-9.687-1.201c-0.175,14.8-0.707,29.6,0.731,44.4c26.887,5.824,57.409,11.4,83.245,13.507
	c-2.811,1.547-4.846,4.413-5.175,7.857c-0.523,5.528,3.533,10.434,9.056,10.972c5.528,0.532,10.434-3.523,10.971-9.051
	C198.418,271.987,196.697,268.604,193.885,266.593z M146.257,244.67c-3.796-1.348-7.747-2.662-11.818-3.931l13.081-4.17
	c-0.796,1.304-1.363,2.811-1.518,4.498C145.879,242.327,145.974,243.551,146.257,244.67z"/>
<path fill="#A8A8A8" stroke="#272525" stroke-width="3" stroke-miterlimit="10" d="M99.32,208.18
	c-2.927-0.378-5.881-0.772-8.847-1.18v23.192c0,0.453,0.06,0.906,0.134,1.348c-19.55-2.204-39.846-1.602-59.047,4.229
	c0,0-0.835,0.275-0.696,0.31c-2.757,1.184-3.897,3.521-4.2,6.725c-0.448,4.677,2.976,8.827,7.658,9.28
	c4.677,0.453,8.822-2.98,9.28-7.658c0.209-2.179-0.438-4.215-1.637-5.837c5.623,1.498,13.25,3.473,22.306,5.707
	c-12.046,6.812-24.307,16.375-36.104,29.68c-2.717,1.577-4.752,4.672-5.11,8.419c-0.547,5.752,2.961,10.787,7.857,11.255
	c4.906,0.473,9.305-3.801,9.857-9.544c0.527-5.404-2.587-10.131-7.031-11.066l65.053-20.734c0.416,0.091,0.841,0.18,1.258,0.271
	C98.613,237.78,99.145,222.98,99.32,208.18z"/>
<path fill="#A8A8A8" stroke="#272525" stroke-width="3" stroke-miterlimit="10" d="M80.347,13.866c0,0-5.52,27.768-10.347,59.766
	l6.016-5.339l10.838,12.212l12.212-10.838l10.838,12.212l12.212-10.838l10.838,12.212l12.212-10.838l10.838,12.212l12.212-10.838
	l10.838,12.212l12.212-10.838l5.653,6.37c1.471-10.466,3.13-26.454,3.406-46.585c0.261-7.403,0.232-14.125-0.183-19.795
	C200.144,15.155,139.579-0.046,80.347,13.866z"/>
<g>
	<path fill="#A8A8A8" stroke="#272525" stroke-width="3" stroke-miterlimit="10" d="M197.001,81.242
		c0.034-0.243-5.653-6.37-5.653-6.37L179.135,85.71l-10.838-12.212l-12.212,10.838l-10.838-12.212l-12.212,10.838l-10.838-12.212
		l-12.212,10.838L99.146,69.374L86.934,80.212L76.096,68l-6.015,5.338c-3.86,25.591-7.277,53.887-7.072,72.855
		c2.01-0.425,3.137-0.563,3.137-0.563c89.653-0.652,113.224,17.022,113.224,17.022c1.756,0.779,2.694,2.489,3.151,4.502l0.77,0.046
		c0,0,0.972-5.207,2.455-13.799c2.131-10.236,5.143-27.305,8.33-53.673c0.248-1.823,0.494-3.656,0.737-5.498
		C195.287,91.951,196.966,81.485,197.001,81.242z"/>
</g>
<path fill="#A8A8A8" stroke="#272525" stroke-width="3" stroke-miterlimit="10" d="M191.881,108c0,0-42.538,4.578-36.005,25.526
	c0,0,3.079,2.372,7.55,3.376L150,202.898c0,0,7.19,5.24,12.429-0.662l10.304-65.863c3.088-1.136,6.291-3.392,9.321-7.435
	c0,0,7.872-9.165,16.365-11.773C198.419,117.165,206.276,109.309,191.881,108z"/>
</svg>
