<?xml version="1.0" encoding="utf-8"?>
<!-- Generator: Adobe Illustrator 17.0.0, SVG Export Plug-In . SVG Version: 6.00 Build 0)  -->
<!DOCTYPE svg PUBLIC "-//W3C//DTD SVG 1.1 Basic//EN" "http://www.w3.org/Graphics/SVG/1.1/DTD/svg11-basic.dtd">
<svg version="1.1" baseProfile="basic" id="Слой_1"
	 xmlns="http://www.w3.org/2000/svg" xmlns:xlink="http://www.w3.org/1999/xlink" x="0px" y="0px" width="214.938px"
	 height="301.125px" viewBox="0 0 214.938 301.125" xml:space="preserve">
<path fill="#D77535" stroke="#FFFFFF" stroke-width="6" stroke-miterlimit="10" d="M185.117,153.71
	c1.474-7.078,3.369-17.417,5.453-31.858c2.373-1.685,5.052-3.219,7.802-4.063c0.001,0.001,7.641-7.65-6.005-9.106
	c0.36-2.786,0.723-5.681,1.089-8.708c0.246-1.805,0.489-3.621,0.73-5.445c0.935-4.487,5.142-26.432,5.596-59.578
	c0.261-7.403,0.232-14.126-0.183-19.797c0,0-60.565-15.201-119.797-1.289c0,0-8.865,44.59-13.951,85.878
	c-7.051,0.21-30.428,4.293-30.428,4.293c-36.005,6.548-24.884,14.405-24.884,14.405c2.945,1.225,6.722,1.609,10.915,1.424
	l-4.013,48.61c-2.71,2.103-5.454,4.394-8.211,6.899c0,0-4.578,13.743,3.931,18.983c0,0,39.485,7.283,77.427,12.504v23.191
	c0,0.453,0.06,0.906,0.134,1.348c-19.55-2.204-38.528-1.993-57.729,3.838c0,0-1.218,0.416-1.079,0.451
	c-2.757,1.184-4.831,3.772-5.135,6.976c-0.448,4.677,2.976,8.827,7.658,9.28c4.677,0.453,8.822-2.98,9.28-7.658
	c0.209-2.179-0.438-4.214-1.637-5.837c5.623,1.498,13.25,3.473,22.306,5.707c-12.046,6.812-24.307,16.375-36.104,29.68
	c-2.717,1.577-4.752,4.672-5.11,8.419c-0.547,5.752,2.961,10.787,7.857,11.255c4.906,0.473,9.305-3.801,9.857-9.544
	c0.527-5.404-7.031-11.066-7.031-11.066l65.053-20.734c27.188,5.921,58.266,11.638,84.503,13.778
	c-2.811,1.547-4.846,4.414-5.175,7.857c-0.522,5.528,3.533,10.434,9.056,10.972c5.528,0.532,10.434-3.523,10.972-9.051
	c0.349-3.696-1.372-7.079-4.184-9.089c0.299,0-0.15-0.138-0.797-0.51c0,0-12.712-8.008-34.711-16.84
	c1.801-1.533,3.09-3.886,3.364-6.663c0.478-5.09-2.642-9.573-6.996-9.991c-0.418-0.035-0.846-0.005-1.239,0.025
	c-6.727-1.916-23.431-5.657-44.598-3.165v-20.042l0.02-0.206c13.184,1.555,25.27,2.634,34.289,2.789c0,0,4.52-2.527,10.564-6.687
	c2.486,0.636,5.705,0.558,8.408-2.485l0.665-4.253c7.046-5.669,14.249-12.645,18.313-19.962c0-0.001,1.613-6.45,0.534-11.198
	l0.77,0.046C182.665,167.493,183.636,162.293,185.117,153.71z M147.715,236.611c-0.796,1.304-1.363,2.811-1.518,4.498
	c-0.124,1.259-0.029,2.483,0.254,3.603c-3.797-1.348-7.747-2.662-11.817-3.931L147.715,236.611z M30.777,118.725
	c14.616-2.717,30.499-9.284,34.117-10.829c-1.603,14.385-2.626,27.952-2.511,38.59c-5.477,1.158-17.609,4.481-32.126,13.2
	L30.777,118.725z"/>
<polygon fill="#A8A8A8" stroke="#272525" stroke-width="3" stroke-miterlimit="10" points="557.307,189.762 557.307,189.762 
	557.306,189.761 "/>
<g id="__x0023_Layer_x0020_1">
	<path fill="#A7522E" d="M194.079,266.635c0.299,0,0.617,0.025,0.925,0.035c0,0-14.435-8.553-36.433-17.385
		c1.801-1.533,3.09-3.886,3.364-6.663c0.478-5.09-2.642-9.573-6.996-9.991c-0.418-0.035-0.846-0.005-1.239,0.025
		c-6.727-1.916-23.431-5.657-44.598-3.165v-20.042l0.702-7.389c0.06-0.493,0.02-0.97-0.08-1.433l0.582-6.051
		c0.403-4.269-2.727-8.071-6.996-8.479c-4.274-0.403-8.061,2.732-8.459,6.996l-0.209,2.015c-2.458,1.667-4.055,4.473-4.055,7.678
		v27.267c0,0.453,0.06,0.906,0.134,1.348c-19.55-2.204-39.846-1.602-59.047,4.229c0,0,0.1,0.025,0.239,0.06
		c-2.757,1.184-4.831,3.772-5.135,6.976c-0.448,4.677,2.976,8.827,7.658,9.28c4.677,0.453,8.822-2.98,9.28-7.658
		c0.209-2.179-0.438-4.214-1.637-5.837c5.623,1.498,13.25,3.473,22.306,5.707c-12.046,6.812-24.307,16.375-36.104,29.68
		c-2.717,1.577-4.752,4.672-5.11,8.419c-0.547,5.752,2.961,10.787,7.857,11.255c4.906,0.473,9.305-3.801,9.857-9.544
		c0.527-5.404-2.587-10.131-7.031-11.066l65.053-20.734c27.188,5.921,58.266,11.638,84.503,13.778
		c-2.811,1.547-4.846,4.414-5.175,7.857c-0.522,5.528,3.533,10.434,9.056,10.972c5.528,0.532,10.434-3.523,10.972-9.051
		C198.612,272.028,196.891,268.645,194.079,266.635z M146.451,244.712L146.451,244.712c-3.797-1.348-7.747-2.662-11.817-3.931
		l13.081-4.17c-0.796,1.304-1.363,2.811-1.518,4.498C146.073,242.368,146.168,243.592,146.451,244.712z"/>
	<path fill="#693B28" d="M90.912,204.821v8.678c0,0,7.906,3.329,18.012,1.742v-8.996L90.912,204.821z"/>
	<polygon fill="#A7522E" points="21.679,117.133 17.087,172.757 30.183,165.562 30.83,114.511 	"/>
	<path fill="#C06A30" d="M65.66,107.565c0,0-39.403,17.415-55.122,10.877c0,0-11.121-7.857,24.884-14.405
		c0,0,28.028-4.896,31.969-4.244L65.66,107.565z"/>
	<path fill="#D77535" d="M36.124,105.34c-14.295,2.597-21.137,5.409-24.222,7.847c8.504,1.428,20.147,1.816,29.581-3.622
		c0,0,12.181-5.672,26.411-6.006l0.244-2.582C64.217,100.32,36.124,105.34,36.124,105.34z"/>
	<path fill="#D77535" d="M79.801,13.866c0,0-22.779,114.567-16.256,146.462l119.12,7.165c0,0,20.177-108.069,16.933-152.338
		C199.598,15.155,139.033-0.046,79.801,13.866z"/>
	<path fill="#CB692E" d="M199.598,15.155c0,0-7.344-0.109-10.588,29.083c0,0-11.22,92.569-11.22,99.311
		c0,0-1.254,15.47,4.239,22.948c0,0,5.737-17.709,11.972-71.109C194,95.389,201.18,63.932,199.598,15.155z"/>
	<path fill="#CB692E" d="M178.744,162.945c0,0-23.57-17.674-113.224-17.022c0,0-27.486,3.284-56.291,29.452
		c0,0-4.578,13.743,3.931,18.983c0,0,92.281,17.022,130.251,17.674c0,0,28.133-15.713,37.95-33.387
		C181.361,178.643,184.64,165.562,178.744,162.945z"/>
	<path fill="#D77535" d="M159.961,156.501c-29.576,34.253-92.977,3.264-136.147,9.354c-7.28,5.035-11.698,9.056-11.698,9.056
		c51.221,12.161,130.256,15.211,130.256,15.211c6.966-1.224,33.537-26.765,33.537-26.765
		C171.524,160.636,166.051,158.382,159.961,156.501z"/>
	<path fill="#A7522E" d="M165.001,129.562l-15.047,73.96c0,0,7.19,5.239,12.429-0.662l11.773-75.253L165.001,129.562z"/>
	<path fill="#C06A30" d="M191.835,108.624c0,0-42.538,4.578-36.005,25.526c0,0,14.405,11.121,26.177-4.588
		c0,0,7.872-9.165,16.365-11.773C198.373,117.79,206.23,109.933,191.835,108.624z"/>
	<path fill="#D77535" d="M184.924,119.218c0,0,5.249-5.488,11.723-8.917c-1.11-0.318-2.438-0.577-4.08-0.731
		c0,0-23.655,2.717-33.293,13.3C162.986,125.676,174.067,132.195,184.924,119.218z"/>
	<path fill="#D77535" d="M108.113,231.172c0,0,14.096,3.816,18.729,5.643c0,0,15.435-3.483,25.058-2.821
		C151.9,233.994,129.847,229.018,108.113,231.172z"/>
	<path fill="#D77535" d="M84.737,232.66c0,0-8.469,3.155-12.922,5.807c0,0-20.241-3.319-30.193-2.159
		C41.622,236.307,59.699,230.013,84.737,232.66z"/>
	<path fill="#D77535" d="M92.415,233.431v11.857l-55.893,24.386C36.522,269.675,56.858,249.016,92.415,233.431z"/>
	<path fill="#D77535" d="M105.282,232.76v11.176l73.512,18.291C178.794,262.226,128.653,239.198,105.282,232.76z"/>
</g>
</svg>
