<?xml version="1.0" encoding="utf-8"?>
<!-- Generator: Adobe Illustrator 17.0.0, SVG Export Plug-In . SVG Version: 6.00 Build 0)  -->
<!DOCTYPE svg PUBLIC "-//W3C//DTD SVG 1.1 Basic//EN" "http://www.w3.org/Graphics/SVG/1.1/DTD/svg11-basic.dtd">
<svg version="1.1" baseProfile="basic" id="Слой_1"
	 xmlns="http://www.w3.org/2000/svg" xmlns:xlink="http://www.w3.org/1999/xlink" x="0px" y="0px" width="134px" height="99.2px"
	 viewBox="0 0 134 99.2" xml:space="preserve">
<g>
	<path fill="#D16234" d="M134,13.242c0.034-0.243-5.653-6.37-5.653-6.37L116.135,17.71L105.297,5.498L93.085,16.336L82.247,4.124
		L70.035,14.962L59.197,2.75L46.985,13.588L36.147,1.376L23.935,12.214L13.096,0L7.081,5.338
		c-3.86,25.591-7.277,53.887-7.072,72.855c2.01-0.425,3.137-0.563,3.137-0.563C92.799,76.978,116.37,94.652,116.37,94.652
		c1.756,0.779,2.694,2.489,3.151,4.502l0.77,0.046c0,0,0.972-5.207,2.455-13.799c2.131-10.236,5.143-27.305,8.329-53.673
		c0.248-1.823,0.494-3.656,0.737-5.498C132.286,23.951,133.966,13.485,134,13.242z"/>
</g>
</svg>
