<?xml version="1.0" encoding="utf-8"?>
<!-- Generator: Adobe Illustrator 17.0.0, SVG Export Plug-In . SVG Version: 6.00 Build 0)  -->
<!DOCTYPE svg PUBLIC "-//W3C//DTD SVG 1.1 Basic//EN" "http://www.w3.org/Graphics/SVG/1.1/DTD/svg11-basic.dtd">
<svg version="1.1" baseProfile="basic" id="Слой_1"
	 xmlns="http://www.w3.org/2000/svg" xmlns:xlink="http://www.w3.org/1999/xlink" x="0px" y="0px" width="50.559px"
	 height="97.042px" viewBox="0 0 50.559 97.042" xml:space="preserve">
<path fill="#3FA457" d="M41.881,0c0,0-42.538,4.578-36.005,25.526c0,0,3.079,2.372,7.55,3.376L0,94.898c0,0,7.19,5.24,12.43-0.662
	l0.666-4.256c7.046-5.669,14.248-12.645,18.312-19.961l1.304-11.151c0,0,0.972-5.207,2.455-13.799
	c1.473-7.074,3.366-17.417,5.447-31.83c2.374-1.689,5.052-3.228,7.807-4.074C48.419,9.165,56.276,1.309,41.881,0z"/>
</svg>
