<?xml version="1.0" encoding="utf-8"?>
<!-- Generator: Adobe Illustrator 17.0.0, SVG Export Plug-In . SVG Version: 6.00 Build 0)  -->
<!DOCTYPE svg PUBLIC "-//W3C//DTD SVG 1.1 Basic//EN" "http://www.w3.org/Graphics/SVG/1.1/DTD/svg11-basic.dtd">
<svg version="1.1" baseProfile="basic" id="Слой_1"
	 xmlns="http://www.w3.org/2000/svg" xmlns:xlink="http://www.w3.org/1999/xlink" x="0px" y="0px" width="134px" height="86.975px"
	 viewBox="0 0 134 86.975" xml:space="preserve">
<path fill="#D16234" d="M101.006,69.234c-4.471-1.005-7.55-3.376-7.55-3.376c-6.533-20.948,36.005-25.526,36.005-25.526
	c0.185,0.017,0.352,0.039,0.53,0.058c0.358-2.773,0.72-5.65,1.084-8.662c0.248-1.823,0.494-3.656,0.737-5.498
	c0.475-2.279,2.155-12.745,2.189-12.988c0.034-0.243-5.653-6.37-5.653-6.37L116.135,17.71L105.297,5.498L93.085,16.336L82.247,4.123
	L70.034,14.961L59.196,2.749L46.984,13.587L36.146,1.374L23.933,12.212L13.096,0L7.08,5.338C3.22,30.929-0.197,59.225,0.008,78.193
	c2.01-0.425,3.137-0.563,3.137-0.563c48.545-0.353,77.707,4.667,94.251,9.345L101.006,69.234z"/>
</svg>
