<?xml version="1.0" encoding="utf-8"?>
<!-- Generator: Adobe Illustrator 17.0.0, SVG Export Plug-In . SVG Version: 6.00 Build 0)  -->
<!DOCTYPE svg PUBLIC "-//W3C//DTD SVG 1.1 Basic//EN" "http://www.w3.org/Graphics/SVG/1.1/DTD/svg11-basic.dtd">
<svg version="1.1" baseProfile="basic" id="Слой_1"
	 xmlns="http://www.w3.org/2000/svg" xmlns:xlink="http://www.w3.org/1999/xlink" x="0px" y="0px" width="213.719px"
	 height="353.438px" viewBox="0 0 213.719 353.438" xml:space="preserve">
<path fill="#A8A8A8" stroke="#FFFFFF" stroke-width="6" stroke-miterlimit="10" d="M201.218,138.297
	c-18.794,13.63-33.981,23.853-45.774,39.433c-1.97-28.018-2.937-56.371,7.154-82.605c-9.876,8.14-15.142,18.839-18.329,30.68
	C133.208,71.205,114.247,8.301,95.047,8.3C74.413,8.302,56.82,71.37,47.413,122.002c-5.786-31.299-12.198-61.893-28.79-79.347
	c11.851,33.578,16.065,71.323,18.977,109.14c-5.18-14.601-13.423-27.793-29.279-37.441c23.34,42.626,13.17,90.959,14.019,135.543
	c18.535,68.372,70.062,54.913,61.68,94.645l18.175-1.57c0.004-0.004,0.007-0.009,0.011-0.013
	c19.086,1.006,13.366-14.11,23.553-31.257c11.484-19.31,35.36-24.489,45.938-45.574c9.767-19.476,3.317-45.127,6.76-66.348
	C182.016,177.815,188.799,157.341,201.218,138.297z"/>
<polygon fill="#A8A8A8" stroke="#272525" stroke-width="3" stroke-miterlimit="10" points="557.307,189.762 557.307,189.762 
	557.306,189.761 "/>
<g>
	<g id="__x0023_Layer_x0020_1">
		<path fill="#FCE97B" d="M95.061,308.873l0.005-0.007c30.688,0,53.969-25.158,55.786-55.787l3.146-53.136
			C155.815,169.311,125.736,8.602,95.047,8.6l0,0C64.37,8.604,40.412,148.01,40.088,178.692l-0.823,74.392
			C38.932,283.76,64.375,308.873,95.061,308.873z"/>
		<path fill="#FAF5AD" d="M95.061,308.873l0.005-0.007c30.688,0,53.969-25.158,55.786-55.787l3.146-53.136
			c1.794-30.259-27.535-187.423-57.83-191.251C81.559,63.731,72.327,144.707,72.327,235.004c0,24.04,0.659,47.414,1.894,69.822
			C80.681,307.432,87.721,308.873,95.061,308.873z"/>
		<path fill="#EBB631" d="M110.781,21.592c-1.042-1.656-2.089-3.188-3.145-4.558c-0.131,1.473-0.255,2.95-0.374,4.433
			C108.434,21.512,109.607,21.552,110.781,21.592z"/>
		<path fill="#FAF5AD" d="M95.061,308.873l0.005-0.007c30.688,0,53.969-25.158,55.786-55.787l3.146-53.136
			c1.687-28.453-24.147-169.117-52.425-188.982c6.238,37.19,13.071,76.778,13.071,137.604s-2.367,126.6-20.511,160.298
			C94.442,308.866,94.752,308.873,95.061,308.873z"/>
		<path fill="#E7AC30" d="M95.767,8c0,0-1.078,3.745-2.584,10.397c-1.532,6.638-3.771,16.132-5.881,27.618
			c-1.151,5.732-2.296,11.951-3.348,18.561c-1.099,6.597-2.327,13.559-3.372,20.788c-1.019,7.223-1.841,14.72-2.805,22.324
			c-0.845,7.616-2.061,15.32-2.641,23.096c-0.547,7.759-1.107,15.525-1.642,23.171c-0.58,7.644-1.12,15.165-1.182,22.474
			c-0.233,7.311-0.266,14.359-0.333,21.051c0.021,6.695-0.336,13.014,0.121,18.844c0.538,11.682,1.313,21.389,1.697,28.177
			c0.497,6.786,0.785,10.657,0.785,10.657s0.088-3.892,0.245-10.695c0.041-6.816,0.317-16.515,0.262-28.135
			c-0.185-5.81,0.464-12.108,0.762-18.768c0.373-6.652,0.804-13.664,1.059-20.918c0.157-7.276,0.818-14.754,1.518-22.353
			c0.647-7.606,1.32-15.329,1.979-23.048c0.457-7.745,1.542-15.436,2.275-23.036c0.849-7.582,1.54-15.073,2.45-22.28
			c1.032-7.205,1.822-14.194,2.627-20.811c0.749-6.636,1.594-12.881,2.465-18.639c0.876-5.765,1.551-11.061,2.148-15.767
			c0.702-4.678,1.311-8.758,1.823-12.127C95.185,11.845,95.767,8,95.767,8z"/>
		<path fill="#E7AC30" d="M96.983,9.43c0,0,1.478,16.986,3.698,42.487c1.157,12.722,2.084,27.604,3.245,43.524
			c0.483,7.971,1.164,16.2,1.515,24.57c0.412,8.377,0.873,16.866,1.061,25.377c0.435,8.497,0.702,16.988,0.816,25.358
			c0.269,8.372,0.169,16.609,0.093,24.573c0.028,7.98-0.347,15.665-0.509,22.972c-0.062,7.309-0.849,14.162-1.23,20.538
			c-0.338,6.377-1.245,12.136-1.801,17.295c-0.311,2.577-0.59,4.985-0.857,7.223c-0.362,2.206-0.831,4.207-1.175,6.038
			c-1.402,7.345-2.208,11.532-2.208,11.532s1.17-4.114,3.207-11.311c0.476-1.808,1.088-3.805,1.604-6.003
			c0.424-2.215,0.885-4.609,1.364-7.167c0.926-5.139,2.26-10.909,2.82-17.304c0.654-6.377,1.741-13.283,2.115-20.623
			c0.474-7.34,1.237-15.072,1.245-23.096c0.181-8.027,0.404-16.296,0.245-24.725c0.012-8.41-0.129-16.962-0.474-25.496
			c-0.298-8.553-0.888-17.071-1.425-25.47c-0.461-8.391-1.261-16.631-1.861-24.613c-1.363-15.958-3.262-30.794-4.847-43.504
			c-1.615-12.693-3.393-23.234-4.573-30.618c-1.225-7.362-2.07-11.558-2.07-11.558H96.983z"/>
		<path fill="#E7AC30" d="M124.93,55.452c0,0-0.902,0.355-2.477,0.761c-1.534,0.557-3.871,0.821-6.569,1.383
			c-1.38,0.148-2.872,0.316-4.449,0.473c-1.554,0.25-3.236,0.159-4.953,0.193c-1.723,0.028-3.495,0.036-5.304,0.055
			c-1.803-0.167-3.636-0.335-5.463-0.497c-1.829-0.217-3.685-0.105-5.463-0.574c-1.779-0.335-3.536-0.666-5.246-0.976
			c-1.715-0.281-3.362-0.554-4.94-0.826c-1.534-0.435-2.989-0.842-4.337-1.226c-5.392-1.475-9.086-2.265-9.086-2.265
			s3.431,1.59,8.725,3.702c1.333,0.509,2.776,1.064,4.295,1.661c1.575,0.393,3.231,0.806,4.946,1.221
			c1.732,0.405,3.514,0.809,5.332,1.223c1.804,0.497,3.712,0.442,5.579,0.685c1.879,0.138,3.757,0.278,5.608,0.409
			c1.854,0.012,3.69-0.195,5.451-0.278c3.54-0.043,6.772-1.037,9.553-1.525c2.722-0.828,4.972-1.599,6.472-2.37
			c1.53-0.671,2.325-1.23,2.325-1.23V55.452z"/>
		<path fill="#E7AC30" d="M132.798,80.037c0,0-1.126,0.357-3.121,0.775c-1.948,0.561-4.868,0.811-8.266,1.385
			c-1.725,0.15-3.593,0.3-5.567,0.462c-1.961,0.259-4.062,0.135-6.224,0.209c-2.153,0.022-4.375,0.057-6.643,0.085
			c-2.265-0.174-4.558-0.354-6.857-0.538c-2.296-0.193-4.614-0.085-6.855-0.524c-2.243-0.352-4.461-0.674-6.603-1.006
			c-2.136-0.348-4.216-0.583-6.191-0.83c-1.949-0.431-3.793-0.852-5.491-1.225c-6.807-1.496-11.427-2.294-11.427-2.294
			s4.407,1.62,11.144,3.736c1.682,0.519,3.516,1.078,5.449,1.658c1.97,0.412,4.043,0.857,6.212,1.216
			c2.156,0.385,4.394,0.788,6.662,1.189c2.267,0.502,4.627,0.455,6.95,0.711c2.336,0.117,4.664,0.243,6.96,0.355
			c2.315-0.076,4.575-0.166,6.771-0.25c4.397-0.021,8.439-1.013,11.901-1.49c1.732-0.338,3.281-0.852,4.661-1.214
			c1.383-0.35,2.584-0.771,3.545-1.144C131.763,80.61,132.798,80.037,132.798,80.037L132.798,80.037z"/>
		<path fill="#E7AC30" d="M139.653,106.38c0,0-1.373,0.367-3.785,0.778c-1.197,0.257-2.657,0.519-4.354,0.687
			c-1.687,0.21-3.59,0.442-5.67,0.706c-2.084,0.136-4.345,0.286-6.735,0.462c-2.381,0.259-4.915,0.136-7.525,0.207
			c-2.603,0.019-5.303,0.05-8.046,0.078c-2.741-0.173-5.52-0.357-8.297-0.542c-2.782-0.198-5.58-0.078-8.29-0.516
			c-2.726-0.333-5.413-0.678-7.999-1.001c-2.61-0.3-5.116-0.564-7.514-0.844c-2.358-0.426-4.583-0.844-6.643-1.221
			c-8.261-1.501-13.847-2.293-13.847-2.293s5.37,1.613,13.541,3.738c2.055,0.523,4.268,1.078,6.621,1.67
			c2.394,0.38,4.915,0.799,7.518,1.208c2.619,0.385,5.318,0.783,8.071,1.189c2.739,0.488,5.574,0.457,8.384,0.706
			c2.819,0.116,5.639,0.247,8.415,0.361c2.786-0.083,5.518-0.171,8.17-0.254c5.291-0.01,10.183-1.006,14.375-1.494
			c2.092-0.324,3.987-0.831,5.656-1.208c1.682-0.336,3.126-0.766,4.302-1.147c2.372-0.692,3.654-1.271,3.654-1.271L139.653,106.38z"
			/>
		<path fill="#E7AC30" d="M145.712,127.469c0,0-1.399,0.726-3.937,1.741c-1.283,0.488-2.841,1.076-4.661,1.615
			c-1.789,0.6-3.904,1.059-6.145,1.682c-2.284,0.483-4.739,1.085-7.392,1.423c-2.634,0.485-5.444,0.666-8.334,1.025
			c-2.895,0.269-5.905,0.367-8.955,0.478c-3.055-0.097-6.167,0.045-9.269-0.247c-3.095-0.242-6.214-0.228-9.241-0.704
			c-3.031-0.43-6.053-0.619-8.917-1.226c-2.872-0.509-5.66-0.99-8.294-1.463c-2.613-0.607-5.089-1.18-7.375-1.71
			c-4.587-0.959-8.306-2.205-10.973-2.876c-2.657-0.711-4.18-1.118-4.18-1.118s1.465,0.587,4.014,1.597
			c2.601,0.882,6.179,2.631,10.75,3.828c2.265,0.666,4.732,1.39,7.323,2.155c2.646,0.626,5.434,1.266,8.337,1.837
			c2.889,0.676,5.958,0.926,9.027,1.427c3.069,0.521,6.245,0.585,9.396,0.883c3.171,0.229,6.339,0.029,9.45,0.069
			c3.115-0.164,6.186-0.328,9.141-0.662c5.912-0.657,11.325-1.972,15.874-3.29c4.539-1.402,8.173-3.012,10.631-4.264
			C144.432,128.398,145.712,127.469,145.712,127.469L145.712,127.469z"/>
		<path fill="#E7AC30" d="M149.227,158.216c0,0-1.518,0.735-4.245,1.751c-1.382,0.5-3.053,1.09-5.001,1.634
			c-1.935,0.619-4.188,1.087-6.6,1.711c-4.858,1.094-10.619,1.917-16.817,2.484c-3.091,0.278-6.312,0.392-9.567,0.505
			c-3.265-0.081-6.598,0.069-9.902-0.204c-3.314-0.235-6.643-0.207-9.881-0.668c-3.25-0.423-6.484-0.6-9.536-1.189
			c-3.083-0.495-6.072-0.982-8.899-1.43c-2.798-0.602-5.444-1.171-7.892-1.694c-4.925-0.938-8.922-2.175-11.766-2.85
			c-2.857-0.692-4.482-1.099-4.482-1.099s1.575,0.571,4.326,1.584c2.793,0.882,6.659,2.617,11.556,3.799
			c2.431,0.671,5.072,1.385,7.861,2.139c2.832,0.576,5.827,1.189,8.929,1.808c3.091,0.657,6.357,0.897,9.638,1.382
			c3.276,0.516,6.667,0.557,10.029,0.844c3.379,0.216,6.755,0.012,10.076,0.036c3.317-0.181,6.593-0.352,9.736-0.7
			c6.308-0.676,12.087-1.982,16.961-3.316c4.87-1.427,8.773-3.038,11.421-4.306C147.828,159.154,149.227,158.216,149.227,158.216
			L149.227,158.216z"/>
		<path fill="#E7AC30" d="M151.86,188.947c0,0-1.518,0.737-4.245,1.751c-1.382,0.5-3.045,1.095-5.001,1.634
			c-1.935,0.619-4.18,1.092-6.586,1.708c-4.868,1.113-10.63,1.934-16.833,2.489c-3.086,0.292-6.31,0.39-9.564,0.519
			c-3.274-0.088-6.588,0.05-9.903-0.219c-3.314-0.233-6.643-0.205-9.886-0.659c-3.25-0.423-6.476-0.595-9.536-1.189
			c-3.083-0.495-6.058-0.985-8.886-1.434c-2.798-0.602-5.453-1.176-7.899-1.685c-4.913-0.956-8.924-2.189-11.77-2.862
			c-2.851-0.7-4.485-1.092-4.485-1.092s1.575,0.571,4.333,1.589c2.798,0.873,6.66,2.617,11.556,3.799
			c2.436,0.662,5.078,1.377,7.866,2.129c2.834,0.578,5.819,1.185,8.922,1.804c3.091,0.657,6.357,0.897,9.638,1.382
			c3.283,0.521,6.669,0.571,10.036,0.847c3.372,0.212,6.75,0.021,10.067,0.033c3.317-0.181,6.59-0.343,9.748-0.683
			c6.3-0.68,12.08-2.008,16.954-3.341c4.859-1.409,8.768-3.029,11.425-4.29c2.648-1.29,4.045-2.229,4.045-2.229H151.86z"/>
		<path fill="#E7AC30" d="M150.982,215.297c0,0-1.516,0.735-4.245,1.751c-1.377,0.49-3.045,1.094-5.004,1.642
			c-1.93,0.609-4.178,1.068-6.591,1.694c-4.866,1.111-10.628,1.932-16.822,2.493c-3.088,0.292-6.31,0.392-9.572,0.514
			c-3.26-0.09-6.588,0.05-9.895-0.214c-3.314-0.233-6.643-0.205-9.883-0.666c-3.255-0.414-6.476-0.595-9.534-1.189
			c-3.09-0.488-6.063-0.976-8.893-1.427c-2.807-0.605-5.453-1.175-7.897-1.685c-4.923-0.959-8.918-2.196-11.77-2.862
			c-2.853-0.7-4.482-1.099-4.482-1.099s1.575,0.571,4.328,1.597c2.8,0.873,6.657,2.603,11.553,3.785
			c2.436,0.662,5.073,1.385,7.87,2.144c2.834,0.576,5.824,1.175,8.922,1.803c3.091,0.657,6.357,0.897,9.634,1.37
			c3.286,0.535,6.669,0.571,10.031,0.856c3.372,0.212,6.757,0.012,10.078,0.036c3.317-0.181,6.593-0.352,9.74-0.687
			c6.307-0.676,12.084-1.994,16.962-3.338c4.859-1.409,8.768-3.027,11.425-4.288c2.653-1.297,4.045-2.229,4.045-2.229
			L150.982,215.297z"/>
		<path fill="#E7AC30" d="M151.867,244.276c0,0-1.518,0.735-4.252,1.76c-1.375,0.49-3.038,1.085-4.999,1.634
			c-1.935,0.618-4.183,1.078-6.591,1.694c-4.866,1.111-10.626,1.934-16.821,2.493c-3.091,0.278-6.317,0.4-9.565,0.519
			c-3.274-0.086-6.597,0.047-9.903-0.217c-3.314-0.235-6.643-0.207-9.886-0.659c-3.25-0.423-6.471-0.604-9.536-1.189
			c-3.083-0.495-6.063-0.976-8.886-1.435c-2.807-0.605-5.458-1.168-7.897-1.684c-4.928-0.952-8.925-2.189-11.775-2.855
			c-2.848-0.709-4.476-1.109-4.476-1.109s1.57,0.581,4.328,1.599c2.786,0.876,6.652,2.612,11.549,3.793
			c2.439,0.654,5.077,1.375,7.864,2.129c2.839,0.59,5.829,1.19,8.925,1.816c3.091,0.657,6.353,0.885,9.634,1.371
			c3.291,0.524,6.674,0.561,10.045,0.852c3.367,0.219,6.741,0.016,10.069,0.031c3.317-0.181,6.588-0.343,9.74-0.688
			c6.298-0.68,12.084-1.994,16.955-3.328c4.866-1.418,8.772-3.029,11.423-4.304c2.657-1.283,4.056-2.222,4.056-2.222V244.276z"/>
		<path fill="#4B8E4D" d="M85.687,336.313c-0.147,0.366-0.292,0.731-0.443,1.099l0.097,0.292L85.687,336.313z"/>
	</g>
	<g id="__x0023_Layer_x0020_1_0">
		<g id="_472863808">
			<path fill="#6D9E4D" d="M90.352,335.645c-2.515-26.605-18.737-30.067-27.84-43.398c-12.501-18.304-16.864-43.833-19.831-74.133
				c-5.675-57.961-5.23-121.818-24.057-175.16c32.291,33.969,26.026,117.709,51.622,159.548
				c12.469,20.373,23.081,21.965,29.753,55.681c3.49,17.642,6.253,56.446,0.983,73.745L90.352,335.645z"/>
			<path fill="#6D9E4D" d="M118.097,302.119c-0.597-18.259,17.744-22.734,26.536-32.919c12.072-13.981,13.759-31.761,13.198-52.57
				c-1.073-39.807-10.014-82.779,4.766-121.206c-32.939,27.15-14.627,82.753-38.768,114.323
				c-11.763,15.373-23.852,17.847-27.135,41.447c-1.718,12.348,0.202,38.86,8.591,49.822L118.097,302.119z"/>
			<path fill="#4B8E4D" d="M84.021,344.841c8.382-39.733-43.145-26.274-61.68-94.646c-0.849-44.583,9.32-92.917-14.019-135.543
				c48.523,29.526,25.767,92.243,62.025,126.947c17.668,16.898,35.027,19.351,41.113,45.679c3.181,13.776,2.029,43.504-9.263,55.993
				L84.021,344.841z"/>
			<path fill="#4B8E4D" d="M90.668,341.417c32.96,7.77,23.236-9.458,35.092-29.415c11.484-19.31,35.36-24.489,45.938-45.574
				c9.767-19.476,3.317-45.127,6.76-66.348c3.559-21.965,10.342-42.439,22.76-61.484c-28.434,20.621-48.617,33.431-61.27,68.817
				c-9.755,27.306-14.344,49.671-37.908,69.094l-11.373,64.908V341.417z"/>
		</g>
		<path fill="#E7AC30" d="M132.798,80.037c0,0-1.126,0.357-3.121,0.775c-1.948,0.561-4.868,0.811-8.266,1.385
			c-1.725,0.15-3.593,0.3-5.567,0.462c-1.961,0.259-4.062,0.135-6.224,0.209c-2.153,0.022-4.375,0.057-6.643,0.085
			c-2.265-0.174-4.558-0.354-6.857-0.538c-2.296-0.193-4.614-0.085-6.855-0.524c-2.243-0.352-4.461-0.674-6.603-1.006
			c-2.136-0.348-4.216-0.583-6.191-0.83c-1.949-0.431-3.793-0.852-5.491-1.225c-6.807-1.496-11.427-2.294-11.427-2.294
			s4.407,1.62,11.144,3.736c1.682,0.519,3.516,1.078,5.449,1.658c1.97,0.412,4.043,0.857,6.212,1.216
			c2.156,0.385,4.394,0.788,6.662,1.189c2.267,0.502,4.627,0.455,6.95,0.711c2.336,0.117,4.664,0.243,6.96,0.355
			c2.315-0.076,4.575-0.166,6.771-0.25c4.397-0.021,8.439-1.013,11.901-1.49c1.732-0.338,3.281-0.852,4.661-1.214
			c1.383-0.35,2.584-0.771,3.545-1.144C131.763,80.61,132.798,80.037,132.798,80.037L132.798,80.037z"/>
	</g>
</g>
</svg>
