<?xml version="1.0" encoding="utf-8"?>
<!-- Generator: Adobe Illustrator 17.0.0, SVG Export Plug-In . SVG Version: 6.00 Build 0)  -->
<!DOCTYPE svg PUBLIC "-//W3C//DTD SVG 1.1 Basic//EN" "http://www.w3.org/Graphics/SVG/1.1/DTD/svg11-basic.dtd">
<svg version="1.1" baseProfile="basic" id="Слой_1"
	 xmlns="http://www.w3.org/2000/svg" xmlns:xlink="http://www.w3.org/1999/xlink" x="0px" y="0px" width="213.719px"
	 height="353.438px" viewBox="0 0 213.719 353.438" xml:space="preserve">
<polygon fill="#A8A8A8" stroke="#272525" stroke-width="3" stroke-miterlimit="10" points="557.307,189.762 557.307,189.762 
	557.306,189.761 "/>
<path fill="#A8A8A8" stroke="#272525" stroke-width="3" stroke-miterlimit="10" d="M201.218,138.297
	c-18.794,13.63-33.981,23.853-45.774,39.433c-1.97-28.018-2.937-56.371,7.154-82.605c-9.876,8.14-15.142,18.839-18.329,30.68
	C133.208,71.205,114.247,8.301,95.047,8.3C74.413,8.302,56.82,71.37,47.413,122.002c-5.786-31.299-12.198-61.893-28.79-79.347
	c11.851,33.578,16.065,71.323,18.977,109.14c-5.18-14.601-13.423-27.793-29.279-37.441c23.34,42.626,13.17,90.959,14.019,135.543
	c18.535,68.372,70.062,54.913,61.68,94.645l18.175-1.57c0.004-0.004,0.007-0.009,0.011-0.013
	c19.086,1.006,13.366-14.11,23.553-31.257c11.484-19.31,35.36-24.489,45.938-45.574c9.767-19.476,3.317-45.127,6.76-66.348
	C182.016,177.815,188.799,157.341,201.218,138.297z"/>
</svg>
