<?xml version="1.0" encoding="utf-8"?>
<!-- Generator: Adobe Illustrator 17.0.0, SVG Export Plug-In . SVG Version: 6.00 Build 0)  -->
<!DOCTYPE svg PUBLIC "-//W3C//DTD SVG 1.1 Basic//EN" "http://www.w3.org/Graphics/SVG/1.1/DTD/svg11-basic.dtd">
<svg version="1.1" baseProfile="basic" id="Слой_1"
	 xmlns="http://www.w3.org/2000/svg" xmlns:xlink="http://www.w3.org/1999/xlink" x="0px" y="0px" width="213.719px"
	 height="353.438px" viewBox="0 0 213.719 353.438" xml:space="preserve">
<polygon fill="#A8A8A8" stroke="#272525" stroke-width="3" stroke-miterlimit="10" points="557.307,189.762 557.307,189.762 
	557.306,189.761 "/>
<path fill="#A8A8A8" stroke="#272525" stroke-width="3" stroke-miterlimit="10" d="M95.634,8C75,8.002,57.407,71.07,48,121.702
	c0.075,0.405,0.149,0.811,0.224,1.216c31.764-1.606,63.773-1.31,95.727-1.813C132.779,67.584,114.32,8.001,95.634,8z"/>
<path fill="#A8A8A8" stroke="#272525" stroke-width="3" stroke-miterlimit="10" d="M48,122.813
	c5.386,29.225,10.334,58.921,22.608,78.984c10.945,17.884,20.459,21.302,27.134,44.676c4.047-19.922,15.392-22.978,26.45-37.431
	c16.904-22.105,12.996-55.99,20.439-83.643c-0.296-1.46-0.599-2.928-0.906-4.399C111.773,121.503,79.765,121.207,48,122.813z"/>
<path fill="#A8A8A8" stroke="#272525" stroke-width="3" stroke-miterlimit="10" d="M162.476,95
	c-32.939,27.15-14.627,82.753-38.768,114.323c-11.763,15.373-23.852,17.847-27.135,41.447c-0.397,2.85-0.597,6.457-0.571,10.45
	c3.762,3.203,7.116,6.779,9.859,11.42c20.171-18.617,24.781-39.945,33.965-65.652c4.289-11.996,9.447-21.393,15.496-29.384
	C153.352,149.588,152.385,121.235,162.476,95z"/>
<path fill="#A8A8A8" stroke="#272525" stroke-width="3" stroke-miterlimit="10" d="M70.723,241.646
	c11.491,10.99,22.848,15.875,31.061,25.187c-0.442-3.205-0.918-6.12-1.409-8.604c-6.672-33.716-17.285-35.308-29.753-55.681
	C45.026,160.709,51.291,76.969,19,43c11.851,33.578,16.065,71.323,18.977,109.14C48.649,182.222,46.313,218.282,70.723,241.646z"/>
<path fill="#A8A8A8" stroke="#272525" stroke-width="3" stroke-miterlimit="10" d="M83.7,344.188
	c8.382-39.733-43.145-26.274-61.68-94.645C21.171,204.959,31.34,156.626,8,114c48.523,29.526,25.767,92.243,62.025,126.947
	c17.668,16.898,35.027,19.351,41.113,45.679c3.181,13.776,2.029,43.504-9.263,55.993L83.7,344.188z"/>
<path fill="#A8A8A8" stroke="#272525" stroke-width="3" stroke-miterlimit="10" d="M201.627,138
	c-28.434,20.621-48.617,33.431-61.27,68.817c-9.248,25.885-13.864,47.328-34.392,66.037c2.185,3.789,3.976,8.273,5.26,13.829
	c3.177,13.76,2.03,43.432-9.225,55.947c19.835,1.369,13.872-13.893,24.168-31.224c11.484-19.31,35.36-24.488,45.937-45.574
	c9.767-19.476,3.317-45.127,6.76-66.348C182.425,177.518,189.208,157.044,201.627,138z"/>
</svg>
