<?xml version="1.0" encoding="utf-8"?>
<!-- Generator: Adobe Illustrator 17.0.0, SVG Export Plug-In . SVG Version: 6.00 Build 0)  -->
<!DOCTYPE svg PUBLIC "-//W3C//DTD SVG 1.1 Basic//EN" "http://www.w3.org/Graphics/SVG/1.1/DTD/svg11-basic.dtd">
<svg version="1.1" baseProfile="basic" id="Слой_1"
	 xmlns="http://www.w3.org/2000/svg" xmlns:xlink="http://www.w3.org/1999/xlink" x="0px" y="0px" width="357.208px"
	 height="297.75px" viewBox="0 0 357.208 297.75" xml:space="preserve">
<path fill="#A8A8A8" stroke="#272525" stroke-width="3" stroke-miterlimit="10" d="M279.359,160.088
	c20.515-6.663,35.369-11.708,52.592-26.56c-1.208-1.357-2.456-2.747-3.738-4.161c25.213-11.999,22.889-25.579,13.908-50.286
	l-4.646-8.048l-1.483,0.377c-14.042-26.712-32.238-39.248-59.121-54.796c-0.203,0.499-0.406,0.997-0.609,1.496l-4.457-2.791
	l-2.055-0.753l-6.338,2.217c-22.533-8.652-55.803-11.947-69.215,9.777c-2.341,3.793-2.265,5.551-1.934,9.845l0.325-0.819h0.002
	c1.426-3.597,2.146-5.19,4.491-6.701c14.165-8.181,30.599-3.551,44.685,3.953c0.084,0.046,0.168,0.09,0.252,0.136
	c0.11,0.059,0.218,0.12,0.328,0.179c3.656,2.015,7.155,4.22,10.423,6.436l0.12-0.029c0.246,0.165,0.496,0.33,0.739,0.495
	c0.038-0.009,0.073-0.021,0.111-0.03c-1.231,1.882-2.461,3.765-3.693,5.648c-16.952-4.501-32.597-3.565-48.676-5.558
	c-1.021-0.127-1.951-0.24-2.809-0.355c-0.051-0.007-0.096-0.014-0.146-0.02c-0.367-0.05-0.724-0.099-1.066-0.15
	c-0.102-0.015-0.195-0.031-0.295-0.047c-0.282-0.044-0.561-0.088-0.827-0.134c-0.12-0.021-0.232-0.044-0.349-0.066
	c-0.234-0.043-0.466-0.087-0.689-0.134c-0.129-0.027-0.251-0.058-0.376-0.087c-0.199-0.046-0.399-0.092-0.591-0.142
	c-0.13-0.034-0.255-0.072-0.382-0.109c-0.178-0.051-0.356-0.102-0.529-0.159c-0.128-0.042-0.252-0.088-0.377-0.133
	c-0.163-0.058-0.326-0.117-0.485-0.181c-0.127-0.051-0.251-0.107-0.375-0.162c-0.152-0.067-0.304-0.135-0.453-0.209
	c-0.125-0.062-0.249-0.129-0.373-0.196c-0.145-0.078-0.289-0.157-0.432-0.242c-0.125-0.074-0.25-0.154-0.374-0.234
	c-0.14-0.09-0.28-0.181-0.419-0.279c-0.127-0.088-0.253-0.182-0.38-0.277c-0.137-0.103-0.275-0.208-0.413-0.319
	c-0.13-0.105-0.261-0.214-0.393-0.327c-0.137-0.117-0.275-0.238-0.414-0.363c-0.135-0.122-0.271-0.249-0.408-0.38
	c-0.14-0.133-0.281-0.271-0.424-0.414c-0.142-0.142-0.285-0.288-0.43-0.439c-0.144-0.15-0.29-0.306-0.437-0.465
	c-0.151-0.164-0.304-0.331-0.46-0.506c-0.241-0.27-0.482-0.541-0.735-0.837c-0.025,0.189-0.027,0.369-0.046,0.557l-0.013-0.002
	c-0.042,0.409-0.074,0.815-0.091,1.213c0.001,0.003,0.002,0.005,0.003,0.008c-0.794,19.487,28.56,26.301,38.304,26.5
	c25.394,18.876,49.941,33.506,77.557,44.986l-31.925,21.787c-7.483-3.571-6.189-5.844-7.171-17.592
	c-9.641-0.342-12.86-1.14-15.316-5.418 M246.827,104.786c-1.358-2.367-2.484-5.794-4.333-10.808
	c-14.396,2.138-12.837,0.481-19.65-12.381c-6.03,1.865-9.489,3.133-12.065,3.471l0.617-3.935c4.226-0.271,7.564-3.512,7.565-7.479
	c-0.002-4.147-3.643-7.506-8.134-7.505c-4.489,0.001-8.13,3.363-8.129,7.506c0,2.939,1.835,5.476,4.498,6.708
	c-0.245,1.538-0.443,2.912-0.603,4.166c-2.528-1.143-5.275-3.911-11.084-8.903c-19.87,9.29-18.594,5.985-30.323-1.701
	c-8.939,10.186-11.887,11.047-20.755,10.046c-0.171-1.282-0.38-2.687-0.639-4.262c2.499-1.281,4.192-3.741,4.191-6.566
	c-0.001-4.144-3.643-7.504-8.132-7.503c-4.49,0.002-8.131,3.363-8.129,7.507c-0.001,4.072,3.518,7.379,7.9,7.492l0.439,2.789
	c-1.327-0.169-2.766-0.35-4.343-0.528c-7.797,14.042-9.533,12.349-25.622,14.1c-0.966,6.528-2.022,9.606-4.187,11.563
	c-2.527,2.285-6.566,3.039-13.747,5.953c4.383,14.661-0.143,13.117-11.463,16.638l-25.402-8.152
	c23.214-18.856,42.59-39.863,61.568-65.18c9.284-2.959,35.49-17.839,29.191-36.294c0-0.003,0.001-0.006,0.001-0.01
	c-0.13-0.379-0.277-0.758-0.433-1.138l-0.012,0.006c-0.071-0.174-0.124-0.345-0.202-0.52c-0.157,0.352-0.309,0.677-0.461,1.001
	c-0.104,0.221-0.208,0.434-0.31,0.643c-0.091,0.184-0.181,0.364-0.271,0.538c-0.102,0.199-0.204,0.391-0.306,0.578
	c-0.09,0.165-0.179,0.325-0.269,0.482c-0.101,0.176-0.202,0.347-0.303,0.513c-0.091,0.149-0.182,0.293-0.273,0.434
	c-0.101,0.156-0.203,0.31-0.305,0.457c-0.093,0.134-0.187,0.263-0.281,0.39c-0.103,0.139-0.206,0.275-0.311,0.406
	c-0.097,0.121-0.196,0.238-0.295,0.353c-0.106,0.123-0.212,0.245-0.32,0.362c-0.103,0.111-0.208,0.216-0.314,0.322
	c-0.11,0.11-0.221,0.22-0.334,0.325c-0.11,0.101-0.224,0.199-0.337,0.296c-0.116,0.099-0.232,0.199-0.352,0.295
	c-0.119,0.094-0.243,0.185-0.366,0.276s-0.245,0.182-0.372,0.27c-0.131,0.09-0.268,0.177-0.404,0.265
	c-0.13,0.084-0.258,0.168-0.394,0.25c-0.144,0.087-0.295,0.172-0.445,0.257c-0.14,0.08-0.276,0.16-0.422,0.239
	c-0.159,0.086-0.328,0.172-0.494,0.258c-0.149,0.077-0.293,0.154-0.449,0.231c-0.18,0.089-0.371,0.18-0.56,0.27
	c-0.156,0.075-0.306,0.148-0.469,0.224c-0.206,0.096-0.427,0.195-0.643,0.294c-0.161,0.073-0.315,0.144-0.482,0.219
	c-0.272,0.121-0.561,0.248-0.85,0.376c-0.125,0.055-0.241,0.107-0.369,0.163c-0.426,0.186-0.869,0.379-1.333,0.582
	c-4.64,2.026-9.321,3.766-14.022,5.479c-0.94,0.343-1.881,0.684-2.822,1.027c-1.883,0.685-3.768,1.375-5.654,2.085
	c-0.943,0.355-1.886,0.715-2.83,1.083c-2.83,1.102-5.661,2.27-8.487,3.559c-3.769,1.719-7.53,3.654-11.273,5.937
	c-1.716-1.455-3.431-2.91-5.146-4.365c0.039-0.002,0.076-0.001,0.115-0.003c0.186-0.227,0.379-0.457,0.568-0.685l0.124-0.006v-0.001
	c2.494-3.043,5.212-6.141,8.133-9.104c0.118-0.118,0.235-0.238,0.354-0.356c0.038-0.038,0.077-0.076,0.115-0.115
	c11.375-11.21,25.825-20.337,41.743-16.519c2.678,0.782,3.821,2.104,6.212,5.147h0.001l0.544,0.692
	c-0.903-4.209-1.33-5.917-4.654-8.888C116.305-0.617,85.344,12.001,66.2,26.706l-6.706-0.326l-1.757,1.306l-3.48,3.941
	c-0.336-0.42-0.672-0.84-1.009-1.26C31.895,52.918,18.012,70.109,12.146,99.711l-1.53,0.061l-2.167,9.036
	c-1.583,26.24,0.047,39.921,27.634,44.256c-0.826,1.72-1.628,3.408-2.401,5.052c18.524,8.348,33.013,9.727,51.268,10.322
	c7.394,9.484,16.621,19.095,26.806,27.616c4.477,3.746,9.128,7.293,13.899,10.511c-10.888,0.21-18.769,0.442-29.231,5.077
	c0.384,0.828,0.781,1.676,1.189,2.541c-14.075,2.345-17.584,17.271-15.698,29.484c-0.342,1.095-0.581,2.317-0.699,3.674
	c-1.981,22.609,16.475,51.384,42.693,37.889c-7.73-4.255-11.692-10.447-14.737-17.05c9.954,2.923,15.811,8.192,17.57,15.799
	c7.206-5.302,6.678-24.165,0.445-31.545c-4.749-5.624-13.183-11.244-21.548-14.307l0.315-0.458c0.814-3.147,0.408-5.593,0.306-8.216
	l27.393-12.395c8.433,10.578,27.735,16.112,46.663,16.051c18.199-0.059,36.051-5.29,43.559-16.198l28.039,12.514
	c-0.101,2.621-0.506,5.067,0.309,8.212c0.032,0.048,0.065,0.094,0.098,0.142c-8.443,3.046-16.992,8.721-21.785,14.403
	c-6.23,7.382-6.749,26.245,0.458,31.544c0.01-0.041,0.021-0.082,0.031-0.123c0.142,0.121,0.283,0.245,0.432,0.354
	c1.756-7.609,7.61-12.88,17.562-15.808c-3.042,6.603-7.001,12.798-14.728,17.057c26.224,13.484,44.667-15.302,42.676-37.909
	c-0.12-1.358-0.357-2.58-0.701-3.675c1.882-12.215-1.634-27.138-15.71-29.475c0.407-0.865,0.806-1.714,1.186-2.54
	c-9.374-4.148-16.675-4.763-25.92-4.995c4.71-3.25,9.274-6.823,13.61-10.608c13.002-11.35,23.921-24.611,30.425-36.854"/>
</svg>
