<?xml version="1.0" encoding="utf-8"?>
<!-- Generator: Adobe Illustrator 17.0.0, SVG Export Plug-In . SVG Version: 6.00 Build 0)  -->
<!DOCTYPE svg PUBLIC "-//W3C//DTD SVG 1.1 Basic//EN" "http://www.w3.org/Graphics/SVG/1.1/DTD/svg11-basic.dtd">
<svg version="1.1" baseProfile="basic" id="Слой_1"
	 xmlns="http://www.w3.org/2000/svg" xmlns:xlink="http://www.w3.org/1999/xlink" x="0px" y="0px" width="140.916px"
	 height="50.738px" viewBox="0 0 140.916 50.738" xml:space="preserve">
<path fill="#7566A9" d="M140.916,39.146c-1.358-2.367-2.484-5.794-4.333-10.808c-14.396,2.138-12.837,0.481-19.65-12.381
	c-6.03,1.865-9.489,3.133-12.065,3.471l0.617-3.935c4.226-0.271,7.564-3.512,7.565-7.479c-0.002-4.147-3.643-7.506-8.134-7.505
	c-4.489,0.001-8.13,3.363-8.129,7.506c0,2.939,1.835,5.476,4.498,6.708c-0.245,1.538-0.443,2.912-0.603,4.166
	c-2.528-1.143-5.275-3.911-11.084-8.903c-19.87,9.29-18.594,5.985-30.323-1.701C50.336,18.471,47.389,19.332,38.52,18.331
	c-0.171-1.282-0.38-2.687-0.639-4.262c2.499-1.281,4.192-3.741,4.191-6.566C42.072,3.358,38.43-0.001,33.941,0
	c-4.49,0.002-8.131,3.363-8.129,7.507c-0.001,4.072,3.518,7.378,7.9,7.492l0.439,2.789c-1.327-0.169-2.766-0.35-4.343-0.528
	c-7.797,14.042-9.533,12.349-25.622,14.1C3.221,37.889,2.164,40.967,0,42.923C47.309,54.328,95.616,53.4,140.916,39.146z"/>
</svg>
