<?xml version="1.0" encoding="utf-8"?>
<!-- Generator: Adobe Illustrator 17.0.0, SVG Export Plug-In . SVG Version: 6.00 Build 0)  -->
<!DOCTYPE svg PUBLIC "-//W3C//DTD SVG 1.1 Basic//EN" "http://www.w3.org/Graphics/SVG/1.1/DTD/svg11-basic.dtd">
<svg version="1.1" baseProfile="basic" id="Слой_1"
	 xmlns="http://www.w3.org/2000/svg" xmlns:xlink="http://www.w3.org/1999/xlink" x="0px" y="0px" width="163.009px"
	 height="149.94px" viewBox="0 0 163.009 149.94" xml:space="preserve">
<path fill="#D36234" d="M156.758,68.933l-4.646-8.048l-1.483,0.377C136.587,34.55,118.391,22.014,91.508,6.466
	c-0.203,0.499-0.406,0.997-0.609,1.496l-4.457-2.791l-2.055-0.753l-6.338,2.217C55.515-2.017,22.245-5.311,8.834,16.413
	c-2.341,3.793-2.265,5.551-1.934,9.845l0.325-0.819l0.002,0c1.427-3.597,2.146-5.19,4.491-6.701
	c14.165-8.181,30.599-3.551,44.685,3.953c0.084,0.046,0.168,0.09,0.252,0.136c0.11,0.059,0.218,0.12,0.328,0.179
	c3.656,2.015,7.155,4.22,10.423,6.436l0.12-0.029c0.246,0.165,0.496,0.33,0.739,0.495c0.038-0.009,0.073-0.021,0.111-0.03
	c-1.231,1.882-2.461,3.765-3.693,5.648c-16.952-4.501-32.597-3.565-48.676-5.558c-1.021-0.127-1.951-0.24-2.809-0.355
	c-0.051-0.007-0.096-0.014-0.146-0.02c-0.367-0.05-0.724-0.099-1.066-0.15c-0.102-0.015-0.195-0.031-0.295-0.047
	c-0.282-0.044-0.561-0.088-0.827-0.134c-0.12-0.021-0.232-0.044-0.349-0.066c-0.234-0.043-0.466-0.087-0.689-0.134
	c-0.129-0.027-0.251-0.058-0.376-0.087c-0.199-0.046-0.399-0.092-0.591-0.142c-0.13-0.034-0.255-0.072-0.382-0.109
	c-0.178-0.051-0.356-0.102-0.529-0.159c-0.128-0.042-0.252-0.088-0.377-0.133c-0.163-0.058-0.326-0.117-0.485-0.181
	c-0.127-0.051-0.251-0.107-0.375-0.162c-0.152-0.067-0.304-0.135-0.453-0.209c-0.125-0.062-0.249-0.129-0.373-0.196
	c-0.145-0.078-0.289-0.157-0.432-0.242c-0.125-0.074-0.25-0.154-0.374-0.234c-0.14-0.09-0.28-0.181-0.419-0.279
	c-0.127-0.088-0.253-0.182-0.38-0.277c-0.137-0.103-0.275-0.208-0.413-0.319c-0.13-0.105-0.261-0.214-0.393-0.327
	c-0.137-0.117-0.275-0.238-0.414-0.363c-0.135-0.122-0.271-0.249-0.408-0.38c-0.14-0.133-0.281-0.271-0.424-0.414
	c-0.142-0.142-0.285-0.288-0.43-0.439c-0.144-0.15-0.29-0.306-0.437-0.465c-0.151-0.164-0.304-0.331-0.46-0.506
	c-0.241-0.27-0.482-0.541-0.735-0.837c-0.025,0.189-0.027,0.369-0.046,0.557l-0.013-0.002c-0.042,0.409-0.074,0.815-0.091,1.213
	c0.001,0.003,0.002,0.005,0.003,0.008c-0.794,19.487,28.56,26.301,38.304,26.5c25.394,18.876,49.941,33.506,77.557,44.986
	l-31.925,21.787c1.31,0.625,2.883,1.289,4.792,2.052c-3.256,12.39-1.021,14.691,8.547,23.488c-0.935,2.205-2.042,4.462-3.295,6.752
	c20.515-6.663,35.369-11.708,52.592-26.56c-1.208-1.357-2.456-2.747-3.738-4.161C168.063,107.219,165.74,93.64,156.758,68.933z"/>
</svg>
