<?xml version="1.0" encoding="utf-8"?>
<!-- Generator: Adobe Illustrator 17.0.0, SVG Export Plug-In . SVG Version: 6.00 Build 0)  -->
<!DOCTYPE svg PUBLIC "-//W3C//DTD SVG 1.1 Basic//EN" "http://www.w3.org/Graphics/SVG/1.1/DTD/svg11-basic.dtd">
<svg version="1.1" baseProfile="basic" id="Слой_1"
	 xmlns="http://www.w3.org/2000/svg" xmlns:xlink="http://www.w3.org/1999/xlink" x="0px" y="0px" width="96.798px"
	 height="93.726px" viewBox="0 0 96.798 93.726" xml:space="preserve">
<path fill="#68B8BF" d="M96.651,52.361c-0.12-1.358-0.357-2.58-0.701-3.675c1.882-12.215-1.634-27.138-15.71-29.475
	c0.407-0.865,0.806-1.714,1.186-2.54c-9.374-4.148-16.675-4.763-25.92-4.995c4.71-3.25,9.274-6.823,13.61-10.608
	C46.103,0.154,23.05-0.088,0,0.027c0,12.714,0,25.431,0,38.148c18.199-0.059,36.051-5.29,43.559-16.198L71.598,34.49
	c-0.101,2.621-0.506,5.067,0.309,8.212c0.032,0.048,0.065,0.094,0.098,0.142c-8.443,3.046-16.992,8.721-21.785,14.403
	c-6.23,7.382-6.749,26.245,0.458,31.544c0.01-0.041,0.021-0.082,0.031-0.123c0.142,0.121,0.283,0.245,0.432,0.354
	c1.756-7.61,7.61-12.88,17.562-15.808c-3.042,6.603-7.001,12.798-14.728,17.057C80.199,103.755,98.642,74.968,96.651,52.361z"/>
</svg>
