<?xml version="1.0" encoding="utf-8"?>
<!-- Generator: Adobe Illustrator 17.0.0, SVG Export Plug-In . SVG Version: 6.00 Build 0)  -->
<!DOCTYPE svg PUBLIC "-//W3C//DTD SVG 1.1 Basic//EN" "http://www.w3.org/Graphics/SVG/1.1/DTD/svg11-basic.dtd">
<svg version="1.1" baseProfile="basic" id="Слой_1"
	 xmlns="http://www.w3.org/2000/svg" xmlns:xlink="http://www.w3.org/1999/xlink" x="0px" y="0px" width="99.246px"
	 height="93.73px" viewBox="0 0 99.246 93.73" xml:space="preserve">
<path fill="#337F84" d="M30.685,1.092c4.477,3.746,9.128,7.293,13.899,10.511c-10.888,0.21-18.769,0.442-29.231,5.077
	c0.384,0.828,0.781,1.676,1.189,2.541C2.468,21.565-1.041,36.491,0.844,48.705c-0.342,1.095-0.581,2.317-0.699,3.674
	c-1.981,22.609,16.475,51.384,42.693,37.889c-7.73-4.255-11.692-10.447-14.737-17.05c9.954,2.923,15.811,8.192,17.57,15.799
	c7.206-5.302,6.678-24.165,0.445-31.545c-4.749-5.624-13.183-11.244-21.548-14.307l0.315-0.458c0.814-3.147,0.408-5.593,0.306-8.216
	l27.393-12.395c8.433,10.578,27.735,16.112,46.663,16.051c0-12.716,0-25.433,0-38.148C76.375,0.114,53.507,0.58,30.685,1.092z"/>
</svg>
