<?xml version="1.0" encoding="utf-8"?>
<!-- Generator: Adobe Illustrator 17.0.0, SVG Export Plug-In . SVG Version: 6.00 Build 0)  -->
<!DOCTYPE svg PUBLIC "-//W3C//DTD SVG 1.1 Basic//EN" "http://www.w3.org/Graphics/SVG/1.1/DTD/svg11-basic.dtd">
<svg version="1.1" baseProfile="basic" id="Слой_1"
	 xmlns="http://www.w3.org/2000/svg" xmlns:xlink="http://www.w3.org/1999/xlink" x="0px" y="0px" width="138.995px"
	 height="160.2px" viewBox="0 0 138.995 160.2" xml:space="preserve">
<path fill="#3FA556" d="M76.928,160.2c-4.222-5.42-7.865-10.8-10.721-15.907l-0.001,0c11.473-6.321,13.839-5.939,6.402-21.356
	c0.022-0.007,0.043-0.013,0.065-0.02l-25.403-8.152c23.214-18.856,42.59-39.863,61.568-65.18
	c9.284-2.959,35.49-17.839,29.191-36.294c0-0.003,0.001-0.006,0.001-0.01c-0.13-0.379-0.277-0.758-0.433-1.138l-0.012,0.006
	c-0.071-0.174-0.124-0.345-0.202-0.52c-0.157,0.352-0.309,0.677-0.461,1.001c-0.104,0.221-0.208,0.434-0.31,0.643
	c-0.091,0.184-0.181,0.364-0.271,0.538c-0.102,0.199-0.204,0.391-0.306,0.578c-0.09,0.165-0.179,0.325-0.269,0.482
	c-0.101,0.176-0.202,0.347-0.303,0.513c-0.091,0.149-0.182,0.293-0.273,0.434c-0.101,0.156-0.203,0.31-0.305,0.457
	c-0.093,0.134-0.187,0.263-0.281,0.39c-0.103,0.139-0.206,0.275-0.311,0.406c-0.097,0.121-0.196,0.238-0.295,0.353
	c-0.106,0.123-0.212,0.245-0.32,0.362c-0.103,0.111-0.208,0.216-0.314,0.322c-0.11,0.11-0.221,0.22-0.334,0.325
	c-0.11,0.101-0.224,0.199-0.337,0.296c-0.116,0.099-0.232,0.199-0.352,0.295c-0.119,0.094-0.243,0.185-0.366,0.276
	c-0.123,0.091-0.245,0.182-0.372,0.27c-0.131,0.09-0.268,0.177-0.404,0.265c-0.13,0.084-0.258,0.168-0.394,0.25
	c-0.144,0.087-0.295,0.172-0.445,0.257c-0.14,0.08-0.276,0.16-0.422,0.239c-0.159,0.086-0.328,0.172-0.494,0.258
	c-0.149,0.077-0.293,0.154-0.449,0.231c-0.18,0.089-0.371,0.18-0.56,0.27c-0.156,0.075-0.306,0.148-0.469,0.224
	c-0.206,0.096-0.427,0.195-0.643,0.294c-0.161,0.073-0.315,0.144-0.482,0.219c-0.272,0.121-0.561,0.248-0.85,0.376
	c-0.125,0.055-0.241,0.107-0.369,0.163c-0.426,0.186-0.869,0.379-1.333,0.582c-4.64,2.026-9.321,3.766-14.022,5.479
	c-0.94,0.343-1.881,0.684-2.822,1.027c-1.883,0.685-3.768,1.374-5.654,2.085c-0.943,0.355-1.886,0.715-2.83,1.083
	c-2.83,1.102-5.661,2.27-8.487,3.559c-3.769,1.719-7.53,3.654-11.273,5.937c-1.716-1.455-3.431-2.91-5.146-4.365
	c0.039-0.002,0.076-0.001,0.115-0.003c0.186-0.227,0.379-0.457,0.568-0.685l0.124-0.006l0-0.001
	c2.494-3.043,5.212-6.141,8.133-9.104c0.118-0.118,0.235-0.238,0.354-0.356c0.038-0.038,0.077-0.076,0.115-0.115
	c11.375-11.21,25.825-20.337,41.743-16.519c2.678,0.782,3.821,2.104,6.212,5.147l0.001,0l0.544,0.692
	c-0.903-4.209-1.33-5.917-4.654-8.888C108.276-8.854,77.315,3.764,58.171,18.469l-6.706-0.326l-1.757,1.306l-3.48,3.941
	c-0.336-0.42-0.672-0.84-1.009-1.26C23.866,44.681,9.983,61.872,4.117,91.474l-1.53,0.061l-2.167,9.036
	c-1.583,26.24,0.047,39.921,27.634,44.256c-0.826,1.72-1.628,3.408-2.401,5.052C44.179,158.228,58.67,159.606,76.928,160.2z"/>
</svg>
