<?xml version="1.0" encoding="utf-8"?>
<!-- Generator: Adobe Illustrator 17.0.0, SVG Export Plug-In . SVG Version: 6.00 Build 0)  -->
<!DOCTYPE svg PUBLIC "-//W3C//DTD SVG 1.1 Basic//EN" "http://www.w3.org/Graphics/SVG/1.1/DTD/svg11-basic.dtd">
<svg version="1.1" baseProfile="basic" id="Слой_1"
	 xmlns="http://www.w3.org/2000/svg" xmlns:xlink="http://www.w3.org/1999/xlink" x="0px" y="0px" width="357.208px"
	 height="297.75px" viewBox="0 0 357.208 297.75" xml:space="preserve">
<path fill="#D05044" stroke="#FFFFFF" stroke-width="6" stroke-miterlimit="10" d="M342.245,79.705l-4.616-8.065l-1.484,0.372
	c-13.942-26.764-32.091-39.369-58.915-55.018c-0.205,0.498-0.41,0.996-0.615,1.494l-4.447-2.808l-2.052-0.761l-6.347,2.194
	c-22.5-8.737-55.758-12.156-69.251,9.517c-2.355,3.784-2.286,5.542-1.971,9.838l0.328-0.817l0.002,0
	c1.44-3.592,2.166-5.182,4.516-6.684c14.197-8.128,30.615-3.435,44.673,4.123c0.079,0.043,0.159,0.086,0.238,0.129
	c0.114,0.062,0.227,0.125,0.341,0.188c3.647,2.028,7.136,4.246,10.394,6.473l0.12-0.029c0.246,0.166,0.495,0.332,0.737,0.498
	c0.038-0.009,0.073-0.02,0.111-0.03c-1.238,1.878-2.475,3.755-3.714,5.634c-16.935-4.564-32.583-3.687-48.655-5.741
	c-1.023-0.131-1.955-0.248-2.813-0.366c-0.035-0.005-0.066-0.01-0.101-0.014c-0.383-0.053-0.754-0.106-1.109-0.161
	c-0.095-0.014-0.182-0.03-0.274-0.045c-0.288-0.046-0.572-0.092-0.843-0.14c-0.12-0.021-0.232-0.045-0.349-0.067
	c-0.233-0.044-0.466-0.089-0.688-0.137c-0.128-0.028-0.249-0.058-0.373-0.088c-0.201-0.047-0.401-0.094-0.594-0.145
	c-0.129-0.034-0.253-0.073-0.379-0.11c-0.178-0.052-0.356-0.104-0.528-0.161c-0.129-0.042-0.253-0.09-0.379-0.135
	c-0.162-0.059-0.325-0.118-0.483-0.183c-0.126-0.052-0.25-0.108-0.374-0.164c-0.152-0.068-0.303-0.136-0.452-0.21
	c-0.125-0.062-0.249-0.13-0.373-0.197c-0.144-0.078-0.288-0.157-0.43-0.243c-0.125-0.075-0.25-0.155-0.374-0.236
	c-0.139-0.09-0.278-0.182-0.417-0.279c-0.127-0.089-0.253-0.184-0.38-0.279c-0.137-0.103-0.274-0.209-0.411-0.32
	c-0.13-0.105-0.26-0.215-0.391-0.328c-0.137-0.118-0.275-0.239-0.414-0.366c-0.135-0.123-0.27-0.25-0.407-0.382
	c-0.139-0.133-0.279-0.271-0.421-0.414c-0.142-0.143-0.285-0.29-0.43-0.442c-0.143-0.15-0.288-0.306-0.435-0.466
	c-0.151-0.164-0.303-0.332-0.458-0.507c-0.24-0.271-0.48-0.543-0.732-0.841c-0.025,0.189-0.028,0.369-0.048,0.556l-0.013-0.002
	c-0.043,0.408-0.077,0.815-0.095,1.212c0.001,0.003,0.002,0.005,0.003,0.008c-0.867,19.483,28.461,26.408,38.204,26.644
	c25.323,18.971,49.815,33.693,77.388,45.277l-32.006,21.667c-7.469-3.599-6.167-5.867-7.105-17.619
	c-14.972-0.587-14.451-2.202-19.588-16.3c-14.404,2.084-12.839,0.432-19.603-12.454c-6.037,1.842-9.501,3.098-12.078,3.426
	l0.632-3.932c4.227-0.255,7.577-3.483,7.593-7.451c0.014-4.147-3.615-7.519-8.105-7.536c-4.489-0.016-8.142,3.332-8.157,7.476
	c-0.011,2.939,1.814,5.482,4.473,6.724c-0.251,1.535-0.455,2.912-0.62,4.164c-2.523-1.152-5.26-3.931-11.049-8.944
	c-19.905,9.215-18.616,5.915-30.316-1.815c-8.978,10.152-11.928,11.002-20.793,9.968c-0.167-1.283-0.37-2.688-0.622-4.265
	c2.504-1.272,4.206-3.725,4.216-6.55c0.015-4.144-3.615-7.517-8.104-7.533c-4.49-0.015-8.143,3.332-8.157,7.477
	c-0.016,4.072,3.49,7.392,7.872,7.522l0.428,2.791c-1.326-0.174-2.764-0.36-4.341-0.544c-7.85,14.012-9.579,12.313-25.675,14.004
	c-2.146,14.142-4.647,12.088-17.999,17.448c4.328,14.677-0.192,13.117-11.525,16.595l-25.372-8.248
	C78.545,103.78,98,82.846,117.073,57.6c9.295-2.924,35.557-17.706,29.327-36.184c0-0.003,0.001-0.006,0.001-0.01
	c-0.128-0.379-0.275-0.759-0.428-1.14l-0.012,0.005c-0.071-0.174-0.123-0.346-0.2-0.52c-0.158,0.352-0.311,0.675-0.465,0.998
	c-0.105,0.221-0.21,0.435-0.313,0.643c-0.091,0.183-0.182,0.362-0.272,0.536c-0.103,0.199-0.206,0.391-0.309,0.578
	c-0.09,0.164-0.18,0.323-0.269,0.479c-0.102,0.177-0.204,0.349-0.307,0.515c-0.09,0.147-0.181,0.289-0.272,0.429
	c-0.102,0.157-0.205,0.311-0.309,0.459c-0.093,0.132-0.186,0.26-0.28,0.385c-0.104,0.139-0.209,0.277-0.315,0.409
	c-0.097,0.12-0.195,0.235-0.293,0.349c-0.107,0.124-0.215,0.247-0.324,0.364c-0.102,0.109-0.207,0.214-0.312,0.318
	c-0.111,0.11-0.223,0.221-0.338,0.326c-0.109,0.1-0.223,0.196-0.336,0.292c-0.117,0.1-0.234,0.2-0.356,0.296
	c-0.118,0.093-0.24,0.181-0.362,0.271c-0.125,0.092-0.25,0.184-0.38,0.273c-0.129,0.088-0.264,0.173-0.398,0.258
	c-0.133,0.085-0.263,0.17-0.401,0.253c-0.141,0.085-0.291,0.168-0.438,0.251c-0.143,0.081-0.283,0.162-0.432,0.242
	c-0.155,0.083-0.319,0.166-0.481,0.248c-0.154,0.079-0.303,0.158-0.464,0.236c-0.174,0.086-0.36,0.173-0.543,0.259
	c-0.162,0.077-0.319,0.153-0.488,0.231c-0.203,0.093-0.419,0.19-0.632,0.286c-0.165,0.074-0.322,0.146-0.493,0.222
	c-0.246,0.109-0.509,0.223-0.769,0.336c-0.156,0.068-0.303,0.133-0.464,0.203c-0.423,0.183-0.862,0.373-1.323,0.572
	c-14.873,6.428-30.154,9.921-45.16,19c-1.71-1.461-3.42-2.923-5.13-4.384c0.039-0.002,0.076-0.001,0.115-0.002
	c0.187-0.227,0.381-0.455,0.571-0.683l0.124-0.006l0-0.001c2.505-3.033,5.235-6.121,8.166-9.072c0.121-0.119,0.239-0.24,0.36-0.359
	c0.037-0.037,0.074-0.073,0.111-0.109c11.418-11.168,25.902-20.242,41.807-16.363c2.675,0.792,3.813,2.118,6.192,5.17l0.001,0
	l0.542,0.694c-0.887-4.213-1.308-5.922-4.62-8.905C116.73-0.84,85.722,11.662,66.523,26.295l-6.705-0.351l-1.762,1.3l-3.495,3.928
	c-0.335-0.421-0.669-0.842-1.004-1.264C32.12,52.378,18.172,69.516,12.195,99.096l-1.53,0.056l-2.201,9.027
	c-1.681,26.234-0.103,39.921,27.467,44.359c-0.832,1.717-1.641,3.402-2.419,5.043c18.49,8.416,32.968,9.851,51.216,10.514
	c10.588,13.7,24.987,27.681,40.574,38.28c-10.888,0.169-18.77,0.372-29.25,4.967c0.381,0.829,0.775,1.679,1.18,2.545
	c-14.084,2.292-17.649,17.205-15.809,29.425c-0.346,1.094-0.589,2.315-0.713,3.672c-2.066,22.601,16.282,51.446,42.551,38.049
	c-7.714-4.284-11.653-10.491-14.673-17.105c9.943,2.96,15.78,8.251,17.511,15.865c7.226-5.275,6.769-24.14,0.564-31.543
	c-4.728-5.642-13.141-11.293-21.494-14.388l0.317-0.456c0.826-3.144,0.429-5.591,0.337-8.214l27.439-12.292
	c16.463,20.81,74.821,22.386,90.222,0.191l27.992,12.619c-0.111,2.621-0.525,5.065,0.279,8.213c0.031,0.048,0.065,0.095,0.097,0.142
	c-8.454,3.014-17.024,8.657-21.838,14.321c-6.258,7.358-6.848,26.219,0.34,31.545c0.01-0.041,0.021-0.082,0.031-0.123
	c0.142,0.121,0.282,0.246,0.43,0.356c1.785-7.603,7.659-12.851,17.621-15.742c-3.067,6.592-7.049,12.771-14.792,17.001
	c26.173,13.583,44.724-15.134,42.818-37.749c-0.115-1.359-0.347-2.581-0.687-3.677c1.928-12.208-1.532-27.144-15.599-29.534
	c0.41-0.863,0.812-1.711,1.196-2.536c-9.359-4.184-16.657-4.826-25.901-5.092c18.52-12.677,34.849-30.313,43.71-46.359
	c20.54-6.586,35.413-11.575,52.692-26.363c-1.203-1.362-2.446-2.756-3.723-4.175C353.406,118.033,351.134,104.445,342.245,79.705z"
	/>
<polygon fill="#A8A8A8" stroke="#272525" stroke-width="3" stroke-miterlimit="10" points="153.939,201.584 153.939,201.584 
	153.938,201.583 "/>
<polygon fill="#A8A8A8" stroke="#272525" stroke-width="3" stroke-miterlimit="10" points="557.307,189.762 557.307,189.762 
	557.306,189.761 "/>
<polygon fill="#A8A8A8" stroke="#272525" stroke-width="3" stroke-miterlimit="10" points="178.201,148.465 178.201,148.465 
	178.2,148.464 "/>
<g id="__x0023_Layer_x0020_3">
	<path fill="#C92329" d="M207.402,106.864l4.762-29.648c-1.191-2.899-3.79-2.31-4.294,0.048c-2.746,15.227-1.35,16.153-3.009,31.125
		L207.402,106.864z"/>
	<path fill="#C92329" d="M143.753,106.638L139.2,76.957c1.212-2.89,3.807-2.281,4.292,0.08c2.639,15.246,1.238,16.161,2.791,31.147
		L143.753,106.638L143.753,106.638z"/>
	<path fill="#D05044" d="M336.145,72.011c-13.942-26.764-32.091-39.369-58.915-55.018c-1.174,2.853-2.349,5.708-3.524,8.561
		c-4.934,2.445-9.867,4.891-14.802,7.337c-2.869,4.353-5.738,8.705-8.609,13.059c-16.935-4.564-32.583-3.687-48.655-5.741
		c-8.221-1.05-10.597-1.263-15.816-7.427c-2.795,20.842,28.017,28.176,38.051,28.419c25.323,18.971,49.815,33.693,77.388,45.277
		l-36.901,24.98l9.024,30.875c23.633-7.614,39.623-12.078,58.485-28.222c-1.203-1.362-2.446-2.756-3.723-4.175
		c25.258-11.904,22.985-25.492,14.097-50.233l-4.616-8.066L336.145,72.011z"/>
	<path fill="#C92329" d="M256.241,36.934l-5.947,9.017c-16.935-4.564-32.583-3.687-48.655-5.741
		c-7.929-1.011-10.421-1.248-15.268-6.79l-0.609-0.082c-0.043,0.408-0.077,0.815-0.095,1.212
		c4.308,12.19,22.217,11.968,40.314,13.487c26.834,6.682,25.234,4.841,39.474-12.353L256.241,36.934z"/>
	<path fill="#C92329" d="M253.897,40.347c-16.602-11.35-40.067-22.942-58.952-9.853l-2.397,5.973
		c-0.315-4.296-0.384-6.054,1.971-9.838c13.493-21.673,46.75-18.254,69.251-9.517l6.347-2.194l2.052,0.761l5.157,3.256
		C273.255,30.644,265.627,37.552,253.897,40.347z"/>
	<path fill="#D05044" d="M253.04,39.878c-15.048-10.286-35.023-20.385-52.693-12.446c-4.902,2.202-5.552,3.436-7.469,8.217
		l-0.191,0.027c7.288-29.22,54.915-14.419,76.403-3.573l0.136,0.162l-1.87,1.759l-9.923,4.805L253.04,39.878z"/>
	<path fill="#C92329" d="M79.25,43.252l8.211,7.016c15.006-9.079,30.286-12.573,45.16-19c7.338-3.168,9.667-4.084,12.789-10.754
		l0.562-0.247c0.154,0.381,0.3,0.761,0.428,1.14c-0.762,12.906-18.031,17.655-35,24.13C87.47,59.391,88.499,57.18,70.051,44.606
		L79.25,43.252z"/>
	<path fill="#C92329" d="M82.447,45.882c12.807-15.506,32.142-33.145,53.915-25.802l3.958,5.073
		c-0.887-4.213-1.308-5.922-4.62-8.905C116.73-0.84,85.722,11.662,66.523,26.295l-6.705-0.351l-1.762,1.3l-4.053,4.555
		C61.158,41.923,70.405,46.447,82.447,45.882z"/>
	<path fill="#D05044" d="M83.142,45.192c11.607-14.053,28.003-29.291,47.18-26.558c5.321,0.758,6.288,1.763,9.455,5.825l0.192-0.026
		C124.868-1.622,83.208,25.796,65.565,42.17l-0.085,0.195l2.284,1.173l10.867,1.868l4.511-0.212L83.142,45.192z"/>
	<path fill="#D05044" d="M97.641,136.326l-42.38-13.777C78.545,103.78,98,82.846,117.073,57.6
		c9.572-3.011,37.148-18.598,28.687-37.849c-3.305,7.368-5.53,8.232-13.138,11.517c-14.873,6.428-30.154,9.921-45.16,19
		c-3.964-3.388-7.928-6.775-11.891-10.163c-5.42-0.983-10.836-1.967-16.255-2.949c-1.92-2.416-3.838-4.832-5.759-7.249
		C32.12,52.378,18.172,69.516,12.195,99.096l-1.53,0.056l-2.201,9.027c-1.681,26.234-0.103,39.921,27.467,44.359
		c-0.832,1.717-1.641,3.402-2.419,5.043c22.596,10.285,39.197,10.144,64.015,10.91L97.641,136.326z"/>
	<path fill="#BE3B2C" d="M74.085,152.148c11.497-6.278,13.862-5.887,6.482-21.332c11.381-3.505,15.927-1.908,11.59-16.615
		c13.352-5.36,15.853-3.306,17.999-17.448c16.096-1.691,17.825,0.008,25.675-14.004c16.426,1.92,18.099,4.029,29.501-8.864
		c11.7,7.73,10.411,11.03,30.316,1.815c13.67,11.837,10.329,11.255,27.312,6.073c6.765,12.887,5.199,14.538,19.603,12.454
		c5.137,14.097,4.616,15.713,19.588,16.3c1.103,13.81-0.898,14.522,11.889,19.69c-3.303,12.378-1.076,14.687,8.459,23.52
		c-13.94,32.529-64.3,76.251-101.834,70.071c-37.911,5.997-88.232-38.557-106.58-71.66L74.085,152.148z"/>
	<path fill="#BE3B2C" d="M126.663,252.251c6.205,7.403,6.662,26.268-0.564,31.543c-1.731-7.614-7.568-12.905-17.511-15.865
		c3.02,6.614,6.959,12.821,14.673,17.105c-26.269,13.397-44.617-15.448-42.551-38.049c0.123-1.357,0.367-2.578,0.713-3.672
		c-1.84-12.221,1.725-27.133,15.809-29.425c-0.405-0.866-0.799-1.716-1.18-2.545c11.372-4.987,19.677-4.801,32.095-5.013
		l0.897,0.631c-0.083-0.724-0.139-1.457-0.135-2.21l98.337,0.345c-0.006,1.528-0.174,2.986-0.468,4.382l2.535-2.792
		c12.416,0.301,20.72,0.173,32.057,5.241c-0.384,0.825-0.786,1.673-1.196,2.536c14.067,2.391,17.527,17.326,15.599,29.534
		c0.341,1.096,0.573,2.319,0.687,3.678c1.906,22.614-16.645,51.331-42.818,37.749c7.744-4.23,11.725-10.41,14.792-17.001
		c-9.963,2.891-15.837,8.139-17.621,15.742c-7.188-5.326-6.598-24.187-0.34-31.545c4.766-5.61,13.218-11.202,21.593-14.239
		c-0.106-0.152-0.212-0.303-0.313-0.457c-0.803-3.148-0.389-5.592-0.279-8.213l-27.992-12.619
		c-15.401,22.195-73.759,20.619-90.222-0.191l-27.439,12.292c0.092,2.623,0.489,5.071-0.337,8.214l-0.317,0.456
		C113.522,240.958,121.935,246.609,126.663,252.251z"/>
	<path fill="#A6262B" d="M117.855,286.618L117.855,286.618c-21.666,4.132-35.977-20.907-34.139-41.007
		c0.54-5.909,3.309-9.228,7.285-10.664c-5.433,0.785-9.398,4.145-10.057,11.344C79.03,267.239,94.65,293.542,117.855,286.618z"/>
	<path fill="#D05044" d="M85.18,245.024c6.38-3.406,19.257-2.204,26.247-0.237c8.675,2.443-3.46,25.926-7.971,27.86
		c-2.715,1.163-5.491,0.798-8.088-0.546C86.095,267.294,79.091,249.971,85.18,245.024z"/>
	<path d="M140.029,65.504c4.489,0.016,8.118,3.389,8.104,7.533c-0.014,4.145-3.667,7.494-8.157,7.477
		c-4.49-0.016-8.12-3.389-8.104-7.533C131.885,68.837,135.538,65.489,140.029,65.504z"/>
	<path fill="#FFFFFF" d="M138.151,67.708c1.182,0.004,2.136,0.891,2.132,1.983c-0.005,1.091-0.963,1.97-2.146,1.966
		c-1.181-0.004-2.135-0.892-2.133-1.981C136.009,68.584,136.97,67.703,138.151,67.708z"/>
	<path d="M211.001,66.28c4.49,0.016,8.119,3.389,8.105,7.536c-0.017,4.144-3.667,7.49-8.159,7.475
		c-4.488-0.015-8.118-3.389-8.103-7.535C202.859,69.613,206.512,66.264,211.001,66.28z"/>
	<path fill="#FFFFFF" d="M209.125,68.484c1.182,0.004,2.135,0.892,2.13,1.982c-0.004,1.088-0.964,1.972-2.144,1.967
		c-1.182-0.005-2.136-0.892-2.134-1.983C206.983,69.361,207.944,68.48,209.125,68.484z"/>
	<path fill="#A6262B" d="M230.013,252.386c-6.258,7.358-6.848,26.219,0.34,31.545c0.044-0.178,0.087-0.356,0.134-0.532
		c-5.331-6.848-4.343-23.137,1.367-29.856c8.659-10.184,29.471-20.321,39.899-15.173
		C262.155,230.784,239.218,241.556,230.013,252.386z"/>
	<path fill="#D05044" d="M272.006,245.683c-6.355-3.452-19.238-2.341-26.245-0.419c-8.692,2.381,3.276,25.945,7.775,27.912
		c2.707,1.183,5.486,0.837,8.093-0.489C270.934,267.946,278.058,250.672,272.006,245.683z"/>
	<path fill="#D05044" d="M130.37,102.745c15.912,9.721,59.002,112.288,36.653,114.03c-19.855,1.546-63.282-26.234-73.189-46.781
		C82.634,146.769,104.157,105.06,130.37,102.745z"/>
	<path fill="#D05044" d="M229.48,103.094c-14.978,9.612-56.053,111.884-35.124,113.776c18.594,1.684,59.476-25.8,68.9-46.278
		C273.908,147.442,254.025,105.587,229.48,103.094z"/>
</g>
</svg>
