<?xml version="1.0" encoding="utf-8"?>
<!-- Generator: Adobe Illustrator 17.0.0, SVG Export Plug-In . SVG Version: 6.00 Build 0)  -->
<!DOCTYPE svg PUBLIC "-//W3C//DTD SVG 1.1 Basic//EN" "http://www.w3.org/Graphics/SVG/1.1/DTD/svg11-basic.dtd">
<svg version="1.1" baseProfile="basic" id="Слой_1"
	 xmlns="http://www.w3.org/2000/svg" xmlns:xlink="http://www.w3.org/1999/xlink" x="0px" y="0px" width="80.332px"
	 height="73.08px" viewBox="0 0 80.332 73.08" xml:space="preserve">
<path fill="#87BB50" d="M37.107,71.312c-0.106,0.005,4.982-4.995,6.213-7.5c1.226-2.516,1.308-2.82,1.308-2.82l0.743,0.547
	c0,0,1.179-3.303,2.788-4.731c1.609-1.43,2.751-1.004,3.954,0.314c1.202,1.327,6.3,10.539,6.3,10.539l0.669-0.558
	c0,0-6.245-9.728-6.34-11.034c-0.092-1.303,0-1.411,1.998-1.652c2.001-0.246,5.996,0.674,5.996,0.674l0.616-1.253
	c0,0,4.596,0.777,5.09,0.642c0.492-0.14,0.521-1.15,0.521-1.15l2.986,0.893c0,0-2.093-2.468-3.702-3.864
	c-1.615-1.401-1.649-1.897-0.299-2.701c1.353-0.803,1.792-1.742,2.371-2.085c0.579-0.341,2.764-0.806,2.764-0.806
	c0-0.003-0.462-2.286,0.825-2.579c1.29-0.293,1.969-0.645,1.969-0.645l-1.477-0.901c0,0-0.608-2.881,0.724-3.985
	c1.329-1.105,7.209-6.266,7.209-6.266s-2.704,0.296-3.954,1.094c-1.255,0.793-2.46,0.877-3.359,0.946
	c-0.904,0.063-5.637,0.103-6.792-0.521c-1.155-0.624-1.866-2.08-1.414-2.82c0.449-0.74,0.928-2.489,0.928-2.489l-0.423-3.095
	c0,0,1.3-2.915,2.146-3.784c0.843-0.867,2.931-2.727,2.931-2.727c0-0.003-3.798,1.887-5.494,0.698
	c-1.702-1.195-1.787-2.389-1.237-3.137c0.55-0.748,2.408-2.997,2.408-2.997s-2.767,2.215-3.732-0.037
	c-0.97-2.246-1.491-10.878-1.491-10.878s-1.615,4.149-3.214,5.774C56.037,8.05,55.273,8.61,55.273,8.61l-0.727-0.251
	c0,0-0.513,4.07-2.371,3.399c-1.863-0.677-1.948-3.19-1.948-3.19l-0.108,6.866l-0.576,0.444l0.203,1.395c0,0-1.628,3.948-3.005,4.45
	s-2.014,0.048-2.704-2.529c-0.69-2.571-0.869-5.077-0.869-5.077s-0.883-1.044-0.93-1.747c-0.053-0.703-0.529-5.909-0.529-5.909
	c0-0.003-1.155,3.61-2.693,4.63c-1.538,1.012-1.982,0.444-2.368-0.737c-0.386-1.184-0.698-1.258-0.698-1.258
	c0-0.003-0.875-0.951-0.912-1.448c-0.034-0.505-0.386-2.593-0.386-2.593l-0.056-2.117c0,0-1.599,2.939-2.193,3.081
	c-0.597,0.143-2.423-0.029-2.423-0.029s0.013-1.21-1.525-1.599c-1.541-0.394-1.985-0.967-1.985-0.967L23.602,0
	c0,0,0.46,3.599,0.425,4.506c-0.034,0.909-1.979,4.678-3.071,4.958c-1.086,0.283-2.815-1.308-2.815-1.308s1.253,2.027,1.911,2.688
	c0.647,0.658,1.358,4.945,1.324,5.851c-0.034,0.912-0.595,1.557-1.723,1.234c-1.134-0.322-2.468-2.04-2.468-2.04L16.8,14.704
	c0,0-0.436,2.355,0.439,3.298c0.875,0.946,1.734,1.689,1.734,1.689l0.788,1.152c0,0,0.153,0.698,0.288,1.189
	c0.137,0.494,0.267,0.888,0.6,1.366c0.338,0.484,0.877,0.951,0.877,0.951c-0.003-0.003,0.523,0.262,0.904,1.343
	c0.378,1.078,0.436,1.884,0.581,2.482c0.143,0.592,0.404,2.791-0.172,3.232c-0.571,0.447-3.277-0.769-5.286-2.038
	c-2.008-1.269-4.133-2.825-4.133-2.825l-0.864-0.743c0,0,0.724,1.66-0.243,2.233c-0.965,0.568-4.297-0.901-4.297-0.901L7.202,26.99
	c0,0,0.27,0.991-0.425,1.142c-0.695,0.148-3,0.314-4.149-0.209C1.483,27.4,0,26.398,0,26.398l1.644,3.208l1.583,3.821l0.246,1.998
	c0,0,0.988,1.136,0.034,1.913c-0.954,0.772-2.994,0.42-2.994,0.42l2.54,1.625l0.872,0.946l2.164,0.653c0,0,1.705,1.287,2.08,2.267
	c0.373,0.98,0.127,1.81-0.83,2.482c-0.959,0.674-4.99,2.072-4.99,2.072l4.733-0.037l0.721,0.251l0.164,0.893l-0.156,0.616
	c0.034,0.499,1.995,2.479,4.395,2.201c2.397-0.272,4.028-0.085,4.028-0.085l1.961,0.666l1.284,1.015l0.994,1.237
	c0,0-0.994,1.586-2.418,2.799c-1.424,1.213-2.241,2.479-3.216,2.955c-0.975,0.47-2.053,0.854-3.816,1.583
	c-1.76,0.732-3.655,1.07-3.655,1.07s4.189,0.703,5.97,0.277c1.781-0.433,3.552,0.346,3.552,0.346l0.008,1.512
	c0,0-1.517,2.73-0.04,3.631c1.477,0.904,6.565,0.132,7.968,0.032c1.403-0.098,1.847,0.476,1.847,0.476l0.571,0.967
	c0,0,0.354,0.679,0.497,1.274c0.145,0.592,0.217,1.596,0.217,1.596c-0.003,0,1.615-2.741,2.246-3.79
	c0.632-1.057,1.213-1.403,2.563-2.201c1.35-0.806,2.479-1.995,2.759-0.906c0.277,1.089-0.336,2.344-0.336,2.344l-0.904,1.477
	l-0.751,0.758l2.336-1.179l0.547-0.743C36.42,68.841,37.205,71.304,37.107,71.312z"/>
</svg>
