<?xml version="1.0" encoding="utf-8"?>
<!-- Generator: Adobe Illustrator 17.0.0, SVG Export Plug-In . SVG Version: 6.00 Build 0)  -->
<!DOCTYPE svg PUBLIC "-//W3C//DTD SVG 1.1 Basic//EN" "http://www.w3.org/Graphics/SVG/1.1/DTD/svg11-basic.dtd">
<svg version="1.1" baseProfile="basic" id="Слой_1"
	 xmlns="http://www.w3.org/2000/svg" xmlns:xlink="http://www.w3.org/1999/xlink" x="0px" y="0px" width="71.152px"
	 height="111.572px" viewBox="0 0 71.152 111.572" xml:space="preserve">
<path fill="#B76153" d="M68.941,63.203c-0.456-0.108-1.038-0.123-1.547-0.123l-1.083,0.008c-0.453,0-0.965-0.011-1.321-0.096
	c-0.621-0.146-1.579-0.204-2.349-0.25c-0.153-0.009-0.319-0.019-0.475-0.03l1.227-0.949l-2.094,0.422
	c-0.026,0.005-2.575,0.517-3.567,0.583c-0.202,0.013-0.521,0.042-0.911,0.075c-1.074,0.094-2.698,0.236-3.779,0.236
	c-0.692,0-0.86-0.06-0.864-0.06c-0.193-0.108-0.707-0.396,0.152-2.187c0.469-0.978,1.831-2.454,3.033-3.755
	c0.908-0.983,1.691-1.833,2.086-2.445c0.569-0.884,2.582-2.516,4.051-3.708c0.729-0.591,1.358-1.102,1.704-1.431
	c0.917-0.875,1.557-0.946,2.462-0.953c0.705,0,1,0.164,1.002,0.164l3.353,2.403l-2.682-3.135c-0.041-0.048-1.015-1.181-2.06-1.975
	c-0.96-0.729-1.319-1.001-1.029-2.648c0.47-2.686,1.323-4.631,2.401-5.477c2.213-1.735,2.196-1.782,2.07-2.146l-0.124-0.321
	l-0.339-0.015c-0.057-0.002-0.249-0.027-0.326-0.221c-0.046-0.232,0.211-1.183,0.365-1.751c0.233-0.86,0.434-1.603,0.399-2.069
	c-0.05-0.675,0.335-1.845,0.688-2.363c0.406-0.596,0.568-0.917,0.575-0.931l0.84-1.681l-1.564,1.041
	c-0.309,0.206-3.033,2.027-3.681,2.773c-0.57,0.66-3.718,3.516-4.954,4.494c-0.746,0.591-1.481,0.801-1.883,0.801
	c-0.162,0-0.241-0.032-0.25-0.036c-0.208-0.233-0.31-0.612-0.331-0.736l-0.188-1.163l-0.706,0.943
	c-0.024,0.033-2.463,3.291-3.136,4.044c-0.582,0.652-5.559,3.407-7.145,3.738c-0.368,0.078-0.713-0.055-1.035-0.394
	c-0.675-0.711-1.079-2.159-1.003-3.601c0.02-0.383,0.034-0.75,0.047-1.107c0.074-1.933,0.133-3.459,0.999-5.703
	c0.639-1.65,1.423-2.923,2.054-3.945c0.412-0.667,0.737-1.195,0.922-1.663c0.449-1.136,0.749-2.473,0.762-2.53l0.266-1.214
	l-1.037,0.693c-0.056,0.037-0.155,0.079-0.177,0.095c0,0-0.025-0.027-0.05-0.115c-0.133-0.461-0.367-2.505-0.554-4.148
	c-0.131-1.149-0.256-2.238-0.349-2.852c-0.242-1.598-0.969-3.599-1-3.683l-1.341-3.67l0.374,3.89
	c0.002,0.027,0.25,2.742-0.772,4.551c-1.475,2.613-5.27,7.662-7.773,8.068c-0.273,0.044-0.533,0.067-0.772,0.067
	c-1.729,0-2.329-1.106-2.779-3.016c-0.403-1.716-0.761-5.222-0.759-6.149c0.002-0.671,0.484-1.949,0.669-2.385l0.896-2.105
	l-1.692,1.54c-0.512,0.466-2.035,1.707-2.919,1.851c-0.95,0.16-1.884-0.353-2.262-1.165c-0.423-0.905-1.323-3.811-1.43-4.438
	c-0.093-0.546,0.016-0.972,0.016-0.974l0.86-3.131l-1.765,2.731c-0.074,0.115-0.373,0.458-0.733,0.174
	c-0.79-0.619-1.779-2.26-1.893-2.742l-0.508-2.132l-0.453,0.543C21.741,3.56,21.713,3.5,21.682,3.437
	c-0.296-0.611-0.703-1.447-1.301-1.846c-0.763-0.51-1.283-0.72-1.304-0.729L16.92,0l1.61,1.673c0.249,0.259,0.957,1.152,0.948,1.846
	c-0.016,1.077,0.16,5.563,0.334,6.88c0.218,1.647,0.403,4.822,0.262,5.226c-0.241,0.271-1.444,1.351-2.568,1.165
	c-1.422-0.229-2.974,0.306-3.027,0.325l-3.068,1.092l3.255-0.121l0.126-0.001c0.805,0,1.516,0.147,1.811,0.375
	c0.271,0.21,0.894,1.7,1.307,2.686c0.487,1.166,0.991,2.37,1.458,3.091c0.896,1.38,2.326,5.405,2.718,6.637
	c0.152,0.48,0.094,0.64,0.062,0.686c-0.038,0.055-0.194,0.186-0.825,0.221l-0.157,0.004c-0.438,0-1.029-0.078-1.714-0.168
	c-1.203-0.158-2.63-0.344-3.984-0.215c-0.963,0.092-1.558,0.129-2.052,0.129c-0.766,0-1.293-0.09-1.946-0.334
	c-0.962-0.359-1.617-1.504-1.623-1.516l-1.086-1.928l0.194,2.832c0.001,0.021,0.007,0.105,0.019,0.24l-0.225-0.14l0.237,0.285
	c0.094,1.048,0.426,3.95,1.303,5.504c0.505,0.895,1.265,1.757,1.876,2.451c0.194,0.22,0.413,0.468,0.587,0.682l-3.173-2.39
	l2.531,3.139c0.004,0.005,0.386,0.48,0.723,1.038c0.396,0.656,1.918,2.129,3.127,2.744c0.756,0.384,1.874,1.42,3.321,3.079
	c0.52,0.596,1.308,1.066,2.003,1.481c0.459,0.274,0.934,0.558,1.109,0.762c1.12,1.314,1.061,1.683,1.042,1.66
	c-0.849,0.166-5.119,0.358-7.264,0.358c-0.462,0-0.812-0.008-0.984-0.029c-0.912-0.115-2.193-0.65-2.56-0.892
	c-0.448-0.295-0.838-0.537-0.838-0.537l-0.58,0.813c0.029,0.024,0.06,0.054,0.088,0.085c-0.988,0.208-4.673,0.458-6.105,0.458
	c-0.135,0-0.236-0.002-0.294-0.008C4.147,51.284,1.69,50.8,1.362,50.652c-0.441-0.198-0.993-0.371-0.993-0.371L0,51.208
	c0.464,0.229,1.211,0.691,1.417,1.003c0.494,0.75,1.855,1.805,2.623,2.368c0.723,0.53,1.281,0.992,1.594,1.281l-0.543,0.454
	l0.715,0.332c0,0,0.696,0.323,1.263,0.567C7.467,57.384,8.7,58.559,9.429,59.4c0.18,0.207,0.498,0.543,0.864,0.931
	c0.629,0.665,1.938,2.049,2.058,2.297c0.023,0.289-0.116,0.506-0.426,0.666c-0.595,0.307-1.413,1.09-1.504,1.179l-3.113,3.013
	l3.721-2.227c0.084-0.051,0.42-0.193,0.622-0.136c0.534,0.137,3.177,0.73,4.654,1.003c1.433,0.265,9.521,1.913,10.796,2.301
	c1.062,0.324,2.28,1.238,2.452,1.623c-0.67,0.597-4.49,2.792-5.128,2.856c-0.647,0.065-1.052-0.092-1.053-0.092l-1.307-0.61
	l0.724,1.296c-0.345,0.247-1.351,1.158-1.601,1.466c-0.188,0.182-1.525,0.855-2.635,1.205c-1.272,0.4-2.37,2.628-2.491,2.881
	l0.851,0.516c0.187-0.249,0.709-0.778,1.13-0.829c0.036-0.004,0.077-0.006,0.124-0.006c0.867,0,3.041,0.546,3.59,0.816
	c0.446,0.219,0.752,0.577,0.841,0.75c-0.03,0.028-0.061,0.042-0.06,0.042l-2.98,0.933l3.124,0.044c0.016,0,1.641,0.025,2.754,0.242
	c0.954,0.186,2.866,0.437,4.296,0.485c-0.521,0.179-0.813,0.389-0.854,0.418l-1.51,1.125l1.87-0.229
	c0.012-0.001,0.189-0.022,0.418-0.022c0.491,0,0.695,0.096,0.729,0.131c0.463,0.502,5.363,3.303,8.692,3.542
	c0.735,0.053,1.463,0.079,2.153,0.102c1.994,0.069,3.877,0.134,4.1,0.883c0.42,1.414,2.479,7.252,3.193,9.171
	c0.699,1.886,3.522,8.263,4.378,9.889c0.812,1.541,2.234,3.634,2.976,4.174c0.316,0.231,0.489,0.341,0.71,0.341
	c0.202,0,0.467-0.091,0.581-0.524c0.017-0.065,0.032-0.123,0.067-0.184c0.041-0.071,0.083-0.127,0.119-0.177
	c0.294-0.401,0.377-0.781-0.171-1.33c-0.431-0.435-3.625-4.203-5.094-8.073c-0.532-1.398-1.141-2.872-1.73-4.296
	c-1.074-2.596-2.088-5.048-2.458-6.623c-0.418-1.778-0.767-2.887-0.94-3.396c0.536-0.485,1.795-1.642,2.54-2.481
	c0.484-0.545,1.752-1.374,2.871-2.105c0.933-0.61,1.814-1.186,2.3-1.625c0.55-0.498,1.272-0.875,1.909-1.208
	c0.519-0.271,1.009-0.527,1.366-0.824c0.602-0.501,0.826-0.541,0.887-0.542c0.048,0.034,0.127,0.196,0.158,0.318l0.244,1.042
	l0.643-0.855c0.277-0.368,0.402-1.151-0.388-1.799c-0.746-0.613-1.776-0.808-3.183-0.592c-0.918,0.146-2.576-0.011-3.136-0.856
	c-0.331-0.498-0.392-0.902-0.307-1.081c0.045-0.095,0.159-0.152,0.338-0.17c1.021-0.097,4.892-0.928,6.646-1.977
	c1.729-1.035,2.398-1.234,2.879-1.298c0.262,0,0.562,0.132,0.653,0.182l2.962,1.646l-2.36-2.432c-0.185-0.19-0.516-0.662-0.485-0.94
	c0.054-0.347,1.239-1.45,1.772-1.712c0.466-0.23,1.123-0.427,1.129-0.429l0.59-0.176l-0.293-0.541c0-0.001,0.048-0.138,0.235-0.294
	c0.51-0.424,2-1.154,2.706-1.154c0.002,0,0.005,0,0.008,0c0.581,0.106,0.845,0.278,0.845,0.278l0.661-0.744
	C71.109,64.552,70.097,63.477,68.941,63.203z"/>
</svg>
