<?xml version="1.0" encoding="utf-8"?>
<!-- Generator: Adobe Illustrator 17.0.0, SVG Export Plug-In . SVG Version: 6.00 Build 0)  -->
<!DOCTYPE svg PUBLIC "-//W3C//DTD SVG 1.1 Basic//EN" "http://www.w3.org/Graphics/SVG/1.1/DTD/svg11-basic.dtd">
<svg version="1.1" baseProfile="basic" id="Слой_1"
	 xmlns="http://www.w3.org/2000/svg" xmlns:xlink="http://www.w3.org/1999/xlink" x="0px" y="0px" width="330.458px"
	 height="231.979px" viewBox="0 0 330.458 231.979" xml:space="preserve">
<g>
	<path fill="#815741" stroke="#FFFFFF" stroke-width="6" stroke-miterlimit="10" d="M186.851,8.187
		c0.446,0.033,0.872,0.086,1.306,0.13C187.104,7.944,186.583,7.901,186.851,8.187z"/>
	<path fill="#815741" stroke="#FFFFFF" stroke-width="6" stroke-miterlimit="10" d="M311.332,178.942
		c0.171-0.213,0.342-0.425,0.509-0.641c0.27-0.348,0.534-0.703,0.796-1.061c0.162-0.222,0.322-0.446,0.481-0.672
		c0.26-0.37,0.518-0.743,0.771-1.123c0.144-0.217,0.284-0.439,0.425-0.659c0.258-0.403,0.516-0.806,0.765-1.221
		c0.101-0.168,0.197-0.342,0.296-0.512c0.815-1.393,1.579-2.853,2.291-4.379c0.002-0.003,0.004-0.005,0.006-0.007h-0.002
		c0.063-0.135,0.125-0.27,0.187-0.406c0.087-0.191,0.177-0.378,0.263-0.571c0.213-0.481,0.418-0.975,0.621-1.469
		c0.1-0.244,0.201-0.487,0.299-0.735c0.194-0.491,0.382-0.99,0.566-1.494c0.094-0.257,0.186-0.516,0.278-0.777
		c0.181-0.517,0.359-1.039,0.53-1.569c0.079-0.245,0.154-0.495,0.231-0.742c0.175-0.563,0.348-1.128,0.511-1.707
		c0.045-0.159,0.086-0.323,0.129-0.483c2.661-9.692,3.734-21.488,2.957-35.859c-1.205-22.215-5.732-32.096-6.393-29.464
		c1.697,13.457,0.98,23.452-1.911,28.507c-2.188-5.788,0.169-11.163-0.116-16.781c-0.418-8.219-3.259-16.56-7.556-24.152
		c0,0,2.41,11.337,2.838,15.621c0.817,8.158-4.379,7.849-4.583-1.025c-0.082-3.713,0.344-7.733-0.032-11.755
		c-2.024-21.668-14.554-30.883-14.554-30.883s5.317,7.347,7.809,17.746c4.625,19.337,0.222,14.073-3.142,5.13
		c-2.019-5.362-2.619-12.471-3.607-15.206c-4.009-11.081-17.392-28.621-32.305-32.879c4.617,2.838,16.689,14.2,21.306,25.561
		c10.78,26.547-0.156,12.825-5.743,0.962c-7.727-16.385-20.999-21.988-20.888-21.908c2.043,1.456,16.573,18.351,10.294,26.877
		c-0.941-2.238-1.998-4.791-3.192-7.701c-8.872-21.657-26.272-26.988-26.272-26.988s3.906,4.974,11.007,13.845
		c4.268,5.338,6.739,12.207,8.031,16.845c-4.371-4.207-10.032-25.873-39.277-39.562c3.547,2.479,24.699,24.287,19.083,35.582
		c-0.296-1.094-0.621-2.305-0.973-3.634c-4.26-15.973-17.397-23.785-17.397-23.782c1.736,3.229,16.192,26.879,6.607,26.827
		c-3.724-18.156-9.542-39.733-35.121-42.318c6.221,2.202,31.137,15.993,23.575,42.691c-2.627-4.855,0.069-10.069-9.26-25.78
		c-9.329-15.716-25.917-14.913-25.917-14.913c24.615,9.308,27.902,27.841,30.098,41.111c-0.087,0.008-8.549-29.232-25.838-31.525
		c9.136,2.511,19.86,24.818,12.136,35.453c5.658-19.868-9.117-32.078-21.898-35.981c5.526,4.604,14.067,11.575,14.3,35.357
		c-0.661,0.14-1.321,0.285-1.969,0.431c-1.274-3.097,0.608-4.022-6.654-20.703c-7.257-16.678-27.334-22.545-27.334-22.545
		c19.068,10.981,25.344,29.631,27.976,44.821C172.073,41.066,160.99,28.04,143.653,26.7c4.27,1.521,26.66,19.409,18.15,35.513
		c-0.56-23.465-21.462-27.934-21.459-27.931c7.656,4.731,20.909,27.498,3.676,34.691c4.075-11.25,0.222-26.56-20.185-36.29
		c7.915,7.727,15.735,14.76,14.361,39.768c-0.394,0.219-0.777,0.444-1.165,0.666c-1.395-4.879,0.465-9.929-6.876-25.059
		c-7.344-15.132-30.109-20.169-30.106-20.169c19.319,12.373,28.317,29.018,33.011,47.593c-0.787,0.486-1.57,0.973-2.331,1.459
		c-3.472-5.243-9.437-11.345-19.673-17.099c-25.561-14.379-52.187-2.133-47.929-2.661c4.26-0.536,20.772-4.263,38.875,3.724
		c11.322,4.992,18.272,14.366,21.887,20.685c-1.052,0.758-2.077,1.512-3.06,2.265c-6.866-13.253-22.463-28.304-52.905-24.012
		c-37.81,5.323-41.542,35.143-33.547,22.897C42.359,70.493,57.8,69.425,70.049,71.021v0.003
		c23.578,3.075,34.197,12.598,39.069,24.842C95.526,76.1,49.795,69.533,41.888,96.257c6.578-8.721,11.742-10.708,18.526-11.131
		c12.302-0.764,30.474,8.026,32.725,22.302c0,0,0.526,2.471-2.519-3.779c-9.932-20.373-41.507-18.425-38.156-0.251
		c7.701-12.802,22.585-7.387,29.205-1.039c6.311,6.052,5.954,13.798-1.57,18.872c-3.576,2.415-9.057,5.444-17.331,9.487
		c-18.863,9.225-32.765,4.983-40.559,0.484c0.605-1.089,0.953-2.342,0.954-3.676c0-0.235-0.033-0.681-0.034-0.677
		c-0.334-3.772-3.427-6.757-7.25-6.904c-0.098-0.004-0.197-0.006-0.296-0.006c0,0-0.158,0.004-0.237,0.006
		c-3.933,0.121-7.1,3.236-7.325,7.14C8.02,127.081,8,127.37,8,127.526c0,4.02,3.132,7.3,7.092,7.557
		c2.322,29.578,24.933,44.38,43.311,51.062c0.001,0,0.001,0,0.002,0.001c0.423,0.154,0.844,0.304,1.263,0.449
		c0.001,0.001,0.003,0.001,0.004,0.001c0.417,0.145,0.831,0.286,1.242,0.422c0.008,0.003,0.015,0.005,0.023,0.008
		c0.405,0.134,0.807,0.265,1.206,0.391c0.016,0.005,0.031,0.01,0.047,0.014c0.392,0.124,0.782,0.245,1.168,0.361
		c0.013,0.004,0.026,0.008,0.04,0.012c0.387,0.116,0.771,0.23,1.151,0.339c0.021,0.006,0.041,0.011,0.062,0.017
		c0.371,0.106,0.74,0.21,1.104,0.309c0.036,0.01,0.071,0.019,0.107,0.029c0.349,0.095,0.695,0.187,1.037,0.276
		c0.045,0.012,0.089,0.022,0.134,0.034c0.333,0.086,0.664,0.17,0.99,0.25c0.037,0.009,0.072,0.017,0.109,0.026
		c0.329,0.08,0.656,0.159,0.978,0.233c0.06,0.014,0.117,0.026,0.176,0.04c0.3,0.069,0.598,0.136,0.891,0.2
		c0.047,0.01,0.092,0.019,0.139,0.029c0.299,0.065,0.595,0.128,0.886,0.187c0.08,0.016,0.157,0.031,0.236,0.047
		c0.257,0.052,0.514,0.103,0.764,0.151c0.071,0.014,0.138,0.025,0.209,0.039c0.255,0.048,0.509,0.095,0.757,0.139
		c0.06,0.011,0.117,0.02,0.177,0.03c0.253,0.044,0.504,0.088,0.749,0.128c0.087,0.014,0.169,0.026,0.255,0.04
		c0.212,0.034,0.424,0.068,0.629,0.098c0.128,0.019,0.25,0.035,0.375,0.053c0.159,0.023,0.322,0.047,0.477,0.068
		c0.275,0.037,0.542,0.071,0.803,0.102c11.052,1.311,22.622,1.982,34.139,2.17c3.525,3.052,8.499,7.804,8.502,12.209
		c0,6.816-5.967,1.705-17.894,1.707c-11.932,0-12.783,3.407-10.227,11.076c2.556,7.669,26.42,1.702,38.346-4.26
		c11.929-5.97,17.04-16.192,25.566-16.192c0.122,0,0.265-0.002,0.419-0.006c0.049-0.001,0.104-0.003,0.157-0.005
		c0.112-0.003,0.23-0.007,0.357-0.012c0.073-0.003,0.149-0.006,0.227-0.01c0.117-0.005,0.24-0.011,0.368-0.017
		c0.094-0.005,0.187-0.009,0.287-0.014c0.11-0.006,0.229-0.013,0.346-0.019c1.995-0.113,4.965-0.332,8.665-0.615
		c7.622,2.401,16.287,4.01,26.149,4.283c1.129,0.031,2.256,0.064,3.379,0.097c0.267,0.008,0.532,0.016,0.798,0.024
		c0.853,0.025,1.705,0.051,2.555,0.076c0.418,0.013,0.835,0.025,1.253,0.038c0.818,0.025,1.636,0.05,2.45,0.075
		c0.748,0.023,1.496,0.046,2.241,0.068c0.54,0.016,1.08,0.033,1.618,0.049c0.614,0.019,1.226,0.037,1.838,0.055
		c0.483,0.014,0.967,0.029,1.449,0.043c0.753,0.022,1.504,0.043,2.253,0.065c0.465,0.013,0.929,0.026,1.393,0.039
		c0.866,0.024,1.73,0.047,2.59,0.069c0.393,0.01,0.784,0.019,1.176,0.029c0.648,0.016,1.295,0.032,1.939,0.047
		c0.442,0.01,0.882,0.02,1.322,0.029c0.595,0.013,1.189,0.025,1.782,0.037c0.458,0.009,0.915,0.018,1.371,0.026
		c0.57,0.01,1.139,0.02,1.706,0.029c0.463,0.007,0.926,0.015,1.387,0.021c0.589,0.008,1.174,0.015,1.76,0.021
		c0.424,0.005,0.849,0.01,1.271,0.014c0.741,0.007,1.479,0.011,2.215,0.014c0.366,0.002,0.733,0.004,1.098,0.005
		c0.858,0.002,1.714,0.002,2.565,0c0.398-0.001,0.792-0.005,1.189-0.007c0.586-0.003,1.172-0.007,1.755-0.013
		c0.43-0.004,0.858-0.01,1.286-0.016c0.544-0.007,1.087-0.015,1.628-0.025c0.437-0.008,0.872-0.017,1.306-0.026
		c0.534-0.012,1.065-0.025,1.596-0.039c0.432-0.012,0.863-0.023,1.293-0.036c0.536-0.017,1.068-0.036,1.6-0.055
		c0.413-0.015,0.828-0.029,1.239-0.046c0.63-0.026,1.255-0.055,1.879-0.085c0.411-0.02,0.823-0.039,1.232-0.061
		c0.781-0.041,1.558-0.085,2.33-0.134c0.382-0.024,0.759-0.052,1.138-0.078c0.525-0.036,1.05-0.072,1.57-0.111
		c0.415-0.031,0.826-0.066,1.239-0.099c0.482-0.04,0.963-0.08,1.442-0.123c0.421-0.038,0.84-0.077,1.259-0.117
		c0.465-0.045,0.928-0.092,1.389-0.14c0.196-0.021,0.395-0.039,0.591-0.06c1.343,1.868,2.358,3.55,2.97,5.011
		c0.104,0.248,0.194,0.488,0.275,0.723c0.02,0.059,0.037,0.117,0.056,0.175c0.057,0.178,0.108,0.352,0.15,0.521
		c0.016,0.065,0.032,0.13,0.047,0.193c0.041,0.183,0.073,0.361,0.096,0.534c0.005,0.034,0.012,0.069,0.016,0.103
		c0.024,0.206,0.033,0.405,0.031,0.597c-0.001,0.038-0.005,0.075-0.007,0.112c-0.007,0.152-0.022,0.299-0.046,0.441
		c-0.008,0.048-0.017,0.096-0.028,0.144c-0.031,0.141-0.071,0.277-0.121,0.408c-0.011,0.029-0.019,0.06-0.031,0.089
		c-0.066,0.158-0.147,0.309-0.242,0.451c-0.015,0.023-0.035,0.044-0.051,0.067c-0.083,0.116-0.177,0.226-0.28,0.33
		c-0.035,0.035-0.071,0.069-0.108,0.102c-0.104,0.095-0.217,0.184-0.34,0.268c-0.036,0.025-0.068,0.051-0.106,0.075
		c-0.163,0.104-0.34,0.201-0.534,0.288c-0.028,0.013-0.06,0.023-0.089,0.035c-0.168,0.072-0.349,0.137-0.54,0.197
		c-0.067,0.021-0.138,0.04-0.208,0.06c-0.173,0.048-0.357,0.091-0.548,0.13c-0.072,0.014-0.141,0.03-0.215,0.043
		c-0.265,0.047-0.542,0.086-0.839,0.116c-0.035,0.003-0.075,0.005-0.111,0.008c-0.265,0.024-0.545,0.04-0.836,0.05
		c-0.105,0.004-0.215,0.005-0.323,0.007c-0.246,0.004-0.5,0.003-0.764-0.002c-0.113-0.002-0.223-0.004-0.339-0.008
		c-0.376-0.013-0.763-0.032-1.174-0.064c-11.078-0.851-23.01,0.854-23.859,8.52c-0.851,7.672,27.265,4.263,46.016-2.553
		c18.748-6.818,20.45-11.935,20.45-24.712c0-0.728-0.01-1.431-0.028-2.114c-0.009-0.369-0.026-0.719-0.04-1.075
		c-0.01-0.253-0.016-0.518-0.028-0.764c-0.001,0.001-0.003,0.002-0.004,0.003c-0.007-0.138-0.01-0.285-0.018-0.421
		c0.214-0.144,0.421-0.297,0.633-0.444c0.249-0.172,0.497-0.344,0.742-0.52c0.326-0.235,0.649-0.474,0.969-0.716
		c0.238-0.18,0.474-0.362,0.708-0.547c0.319-0.251,0.637-0.504,0.95-0.762c0.22-0.182,0.437-0.369,0.654-0.555
		c0.318-0.272,0.636-0.544,0.946-0.825c0.183-0.165,0.36-0.337,0.54-0.506c1.129-1.054,2.21-2.167,3.241-3.341
		c0.165-0.188,0.333-0.373,0.495-0.564C310.778,179.63,311.055,179.286,311.332,178.942z M191.991,76.32
		c1.15,0.523,3.454,0.357,4.149,0.209c0.695-0.151,0.425-1.142,0.425-1.142l0.814,0.143c0,0,3.333,1.469,4.297,0.901
		c0.967-0.573,0.243-2.233,0.243-2.233l0.864,0.743c0,0,2.125,1.557,4.133,2.825c2.009,1.269,4.715,2.484,5.286,2.038
		c0.576-0.441,0.315-2.64,0.172-3.232c-0.145-0.597-0.203-1.403-0.581-2.482c-0.38-1.081-0.906-1.345-0.904-1.343
		c0,0-0.539-0.468-0.877-0.951c-0.333-0.478-0.463-0.872-0.6-1.366c-0.135-0.492-0.288-1.189-0.288-1.189l-0.787-1.152
		c0,0-0.859-0.743-1.734-1.689c-0.875-0.943-0.439-3.298-0.439-3.298l0.386,1.184c0,0,1.335,1.718,2.468,2.04
		c1.128,0.322,1.689-0.322,1.723-1.234c0.034-0.906-0.677-5.193-1.324-5.851c-0.658-0.661-1.911-2.688-1.911-2.688
		s1.728,1.591,2.815,1.308c1.091-0.28,3.036-4.049,3.071-4.958c0.034-0.906-0.425-4.506-0.425-4.506l2.87,3.425
		c0,0,0.444,0.573,1.985,0.967c1.538,0.388,1.525,1.599,1.525,1.599s1.826,0.172,2.423,0.029c0.595-0.143,2.193-3.081,2.193-3.081
		l0.055,2.117c0,0,0.351,2.088,0.386,2.593c0.037,0.497,0.912,1.446,0.912,1.448c0,0,0.312,0.074,0.698,1.258
		c0.386,1.181,0.83,1.75,2.368,0.737c1.538-1.02,2.693-4.633,2.693-4.63c0,0,0.476,5.206,0.529,5.909
		c0.048,0.703,0.93,1.747,0.93,1.747s0.18,2.505,0.869,5.077c0.69,2.577,1.327,3.031,2.704,2.529s3.005-4.45,3.005-4.45
		l-0.203-1.395l0.576-0.444l0.108-6.866c0,0,0.085,2.513,1.948,3.19c1.858,0.671,2.371-3.399,2.371-3.399l0.727,0.251
		c0,0,0.764-0.56,2.363-2.188c1.599-1.625,3.214-5.774,3.214-5.774s0.521,8.631,1.491,10.878c0.965,2.252,3.732,0.037,3.732,0.037
		s-1.858,2.249-2.408,2.997c-0.55,0.748-0.465,1.942,1.237,3.137c1.697,1.189,5.494-0.7,5.494-0.698c0,0-2.088,1.86-2.931,2.727
		c-0.846,0.869-2.146,3.784-2.146,3.784l0.423,3.095c0,0-0.478,1.75-0.928,2.489c-0.452,0.74,0.259,2.196,1.414,2.82
		c1.155,0.624,5.888,0.584,6.792,0.521c0.898-0.069,2.104-0.153,3.359-0.946c1.25-0.798,3.954-1.094,3.954-1.094
		s-1.306,1.146-2.824,2.472c-0.21,0.183-0.423,0.369-0.638,0.557c-0.002,0.002-0.004,0.003-0.006,0.005
		c-0.197,0.172-0.395,0.344-0.592,0.516c-0.035,0.03-0.07,0.061-0.105,0.091c-0.154,0.134-0.305,0.265-0.455,0.396
		c-0.07,0.061-0.141,0.122-0.21,0.183c-0.144,0.126-0.285,0.247-0.423,0.367c-0.057,0.05-0.116,0.101-0.172,0.15
		c-0.122,0.106-0.236,0.204-0.351,0.304c-0.076,0.066-0.156,0.135-0.228,0.197c-0.089,0.077-0.17,0.146-0.253,0.218
		c-0.078,0.067-0.16,0.137-0.232,0.199c-0.096,0.083-0.18,0.154-0.265,0.226c-0.046,0.039-0.099,0.085-0.141,0.121
		c-0.121,0.103-0.227,0.192-0.313,0.263c-1.332,1.105-0.724,3.985-0.724,3.985l1.477,0.901c0,0-0.679,0.352-1.969,0.645
		c-1.287,0.293-0.825,2.577-0.825,2.579c0,0-2.186,0.465-2.764,0.806c-0.579,0.344-1.017,1.282-2.371,2.085
		c-1.35,0.803-1.316,1.3,0.299,2.701c1.609,1.395,3.703,3.864,3.703,3.864l-2.986-0.893c0,0-0.029,1.01-0.521,1.15
		c-0.494,0.135-5.09-0.642-5.09-0.642l-0.616,1.253c0,0-3.996-0.92-5.996-0.674c-1.998,0.24-2.09,0.349-1.998,1.652
		c0.004,0.053,0.022,0.126,0.045,0.206c0.006,0.021,0.013,0.043,0.021,0.066c0.026,0.078,0.057,0.165,0.097,0.262
		c0.005,0.011,0.008,0.02,0.012,0.031c0.046,0.109,0.101,0.233,0.162,0.363c0.016,0.035,0.034,0.071,0.051,0.107
		c0.055,0.114,0.114,0.235,0.179,0.362c0.014,0.028,0.027,0.053,0.041,0.081c0.078,0.152,0.162,0.312,0.251,0.479
		c0.024,0.045,0.05,0.092,0.075,0.139c0.075,0.139,0.153,0.282,0.235,0.429c0.023,0.042,0.045,0.082,0.069,0.125
		c0.101,0.181,0.206,0.367,0.315,0.558c0.03,0.052,0.06,0.105,0.091,0.158c0.088,0.154,0.178,0.31,0.271,0.469
		c0.031,0.054,0.062,0.107,0.094,0.161c0.116,0.198,0.234,0.399,0.353,0.601c0.029,0.05,0.059,0.099,0.089,0.149
		c0.103,0.174,0.207,0.348,0.312,0.523c0.028,0.047,0.056,0.094,0.084,0.141c0.127,0.212,0.255,0.423,0.383,0.634
		c0.021,0.035,0.042,0.07,0.064,0.105c0.113,0.186,0.226,0.371,0.338,0.555c0.026,0.043,0.052,0.085,0.078,0.128
		c0.267,0.436,0.528,0.859,0.777,1.259c0.012,0.019,0.023,0.037,0.035,0.056c1.025,1.649,1.819,2.887,1.819,2.887l-0.284,0.237
		l-0.043,0.036l0,0l-0.341,0.285c0,0-0.356-0.643-0.896-1.604l0,0c-0.032-0.057-0.069-0.122-0.102-0.182
		c-0.118-0.209-0.241-0.428-0.373-0.661c-0.068-0.119-0.135-0.238-0.205-0.363c-0.066-0.117-0.133-0.233-0.201-0.354
		c-0.091-0.16-0.184-0.322-0.278-0.487c-0.053-0.093-0.105-0.184-0.159-0.279c-0.148-0.259-0.299-0.521-0.452-0.786
		c-0.04-0.069-0.08-0.138-0.12-0.208c-0.124-0.214-0.248-0.428-0.373-0.643c-0.048-0.083-0.096-0.164-0.144-0.247
		c-0.133-0.228-0.266-0.454-0.398-0.679c-0.032-0.054-0.064-0.108-0.095-0.162c-0.16-0.271-0.318-0.536-0.474-0.795
		c-0.036-0.059-0.07-0.116-0.105-0.174c-0.121-0.2-0.239-0.394-0.354-0.582c-0.044-0.071-0.087-0.141-0.129-0.21
		c-0.126-0.204-0.247-0.398-0.364-0.582c-0.018-0.029-0.038-0.061-0.056-0.089c-0.13-0.204-0.252-0.39-0.367-0.562
		c-0.031-0.047-0.06-0.089-0.09-0.133c-0.084-0.124-0.163-0.237-0.237-0.339c-0.028-0.039-0.057-0.079-0.083-0.114
		c-0.091-0.122-0.175-0.229-0.242-0.304c-1.202-1.319-2.344-1.744-3.953-0.314c-1.609,1.427-2.788,4.731-2.788,4.731l-0.743-0.547
		c0,0-0.082,0.304-1.308,2.82c-1.232,2.505-6.319,7.505-6.213,7.5c0.098-0.008-0.687-2.471-0.687-2.471l-0.547,0.743l-2.336,1.179
		l0.75-0.758l0.904-1.477c0,0,0.613-1.255,0.336-2.344c-0.28-1.089-1.409,0.1-2.759,0.906c-1.35,0.798-1.932,1.144-2.564,2.201
		c-0.632,1.049-2.249,3.79-2.246,3.79c0,0-0.071-1.004-0.217-1.596c-0.143-0.595-0.497-1.274-0.497-1.274l-0.571-0.967
		c0,0-0.444-0.573-1.847-0.476c-1.403,0.1-6.491,0.872-7.968-0.032c-1.477-0.901,0.04-3.631,0.04-3.631l-0.008-1.512
		c0,0-1.771-0.78-3.552-0.346c-1.781,0.425-5.97-0.277-5.97-0.277s1.895-0.338,3.655-1.07c1.763-0.729,2.841-1.113,3.816-1.583
		c0.975-0.476,1.792-1.742,3.216-2.955c1.424-1.213,2.418-2.799,2.418-2.799l-0.994-1.237l-1.284-1.015l-1.961-0.666
		c0,0-1.631-0.188-4.028,0.085c-2.4,0.278-4.361-1.702-4.395-2.201l0.156-0.616l-0.164-0.893l-0.506-0.176l0,0l-0.216-0.075
		l-4.733,0.037c0,0,4.03-1.398,4.99-2.072c0.957-0.671,1.202-1.501,0.83-2.482c-0.375-0.981-2.08-2.268-2.08-2.268l-2.164-0.653
		l-0.872-0.946l-2.54-1.625c0,0,2.04,0.352,2.994-0.42c0.954-0.777-0.034-1.913-0.034-1.913l-0.246-1.998l-1.583-3.821l-1.644-3.208
		C189.364,74.795,190.847,75.797,191.991,76.32z"/>
	<path fill="#815741" stroke="#FFFFFF" stroke-width="6" stroke-miterlimit="10" d="M143.005,26.647
		c0.218,0.013,0.431,0.036,0.648,0.053C143.321,26.582,143.095,26.559,143.005,26.647z"/>
</g>
<g>
	<g>
		<path fill="#ECD2AD" d="M15.027,125.679c0,0,17.495,19.831,47.741,5.04c8.274-4.043,13.756-7.072,17.331-9.487
			c7.524-5.074,7.881-12.82,1.57-18.872c-6.62-6.348-21.504-11.763-29.205,1.039c-3.351-18.174,28.225-20.122,38.156,0.251
			c3.044,6.25,2.519,3.779,2.519,3.779c-2.252-14.276-20.423-23.066-32.725-22.302c-6.784,0.423-11.948,2.41-18.526,11.131
			c9.065-30.637,67.85-17.521,70.918,9.078c2.265,19.628,11.145-26.449,17.667-5.225c6.142-5.116-1.017,70.852-1.017,70.852
			c0-0.003,156.792,1.699,162.754,2.556c5.965,0.854,8.523,6.813,8.523,19.599c0,12.778-1.702,17.894-20.45,24.712
			c-18.75,6.816-46.867,10.225-46.016,2.553c0.848-7.667,12.78-9.371,23.859-8.52c11.076,0.854,9.374-5.108,1.707-14.485
			c-7.672-9.374-96.291,0-104.812,0c-8.526,0-13.637,10.222-25.566,16.192c-11.927,5.962-35.791,11.929-38.346,4.26
			c-2.556-7.669-1.705-11.076,10.227-11.076c11.927-0.003,17.894,5.108,17.894-1.707c-0.003-4.405-4.976-9.157-8.502-12.21
			c-11.517-0.188-23.087-0.859-34.139-2.17c-16.837-2.003-64.581-16.271-61.563-64.985V125.679z"/>
		<g>
			<path fill="#936A55" d="M186.851,8.187c0.446,0.033,0.872,0.086,1.306,0.13C187.104,7.944,186.583,7.901,186.851,8.187z"/>
			<path fill="#936A55" d="M324.243,122.854c-1.205-22.215-5.732-32.096-6.393-29.464c1.697,13.457,0.98,23.452-1.911,28.507
				c-2.188-5.788,0.169-11.163-0.116-16.781c-0.418-8.219-3.259-16.56-7.556-24.152c0,0,2.41,11.337,2.838,15.621
				c0.817,8.158-4.379,7.849-4.583-1.025c-0.082-3.713,0.344-7.733-0.032-11.755c-2.024-21.668-14.554-30.883-14.554-30.883
				s5.317,7.347,7.809,17.746c4.625,19.337,0.222,14.073-3.142,5.13c-2.019-5.362-2.619-12.471-3.607-15.206
				c-4.009-11.081-17.392-28.621-32.305-32.879c4.617,2.838,16.689,14.2,21.306,25.561c10.78,26.546-0.156,12.825-5.743,0.962
				c-7.727-16.385-20.999-21.988-20.888-21.908c2.043,1.456,16.573,18.351,10.294,26.877c-0.941-2.238-1.998-4.791-3.192-7.701
				c-8.872-21.657-26.272-26.988-26.272-26.988s3.906,4.974,11.007,13.845c4.268,5.338,6.739,12.207,8.031,16.845
				c-4.371-4.207-10.032-25.873-39.277-39.562c3.547,2.479,24.699,24.287,19.083,35.582c-0.296-1.094-0.621-2.304-0.973-3.634
				c-4.26-15.973-17.397-23.785-17.397-23.782c1.736,3.229,16.192,26.879,6.607,26.827c-3.724-18.156-9.542-39.733-35.121-42.318
				c6.221,2.202,31.137,15.993,23.575,42.691c-2.627-4.855,0.069-10.069-9.26-25.78c-9.329-15.716-25.917-14.913-25.917-14.913
				c24.615,9.308,27.902,27.841,30.098,41.111c-0.087,0.008-8.549-29.232-25.838-31.525c9.136,2.511,19.86,24.818,12.136,35.453
				c5.658-19.868-9.117-32.078-21.898-35.981c5.526,4.604,14.067,11.575,14.3,35.357c-0.661,0.14-1.321,0.285-1.969,0.431
				c-1.274-3.097,0.608-4.022-6.654-20.703c-7.257-16.678-27.334-22.545-27.334-22.545c19.068,10.981,25.344,29.631,27.976,44.821
				C172.073,41.066,160.99,28.04,143.653,26.7c4.27,1.521,26.66,19.409,18.15,35.513c-0.56-23.465-21.462-27.934-21.459-27.931
				c7.656,4.731,20.909,27.498,3.676,34.691c4.075-11.25,0.222-26.56-20.185-36.29c7.915,7.727,15.735,14.76,14.361,39.768
				c-0.394,0.219-0.777,0.444-1.165,0.666c-1.395-4.879,0.465-9.929-6.876-25.059c-7.344-15.132-30.109-20.169-30.106-20.169
				c19.319,12.373,28.317,29.017,33.011,47.593c-0.787,0.486-1.57,0.973-2.331,1.459c-3.472-5.243-9.437-11.345-19.673-17.099
				c-25.561-14.379-52.187-2.133-47.929-2.661c4.26-0.536,20.772-4.263,38.875,3.724c11.322,4.992,18.272,14.366,21.887,20.685
				c-1.052,0.758-2.077,1.512-3.06,2.265c-6.866-13.253-22.463-28.304-52.905-24.012c-37.81,5.323-41.541,35.143-33.547,22.897
				C42.359,70.493,57.8,69.425,70.049,71.021v0.003c68.468,8.93,27.67,72.221,54.137,98.696c10.653,10.65,30.939,30.217,67.81,31.24
				C267.054,203.045,328.918,209.227,324.243,122.854z M261.763,89.042l1.477,0.901c0,0-0.679,0.351-1.969,0.645
				c-1.287,0.293-0.824,2.577-0.824,2.579c0,0-2.186,0.465-2.764,0.806c-0.579,0.344-1.017,1.282-2.371,2.085
				c-1.35,0.803-1.316,1.3,0.299,2.701c1.609,1.395,3.703,3.864,3.703,3.864l-2.986-0.893c0,0-0.029,1.01-0.521,1.15
				c-0.494,0.135-5.09-0.642-5.09-0.642l-0.616,1.253c0,0-3.996-0.92-5.996-0.674c-1.998,0.24-2.09,0.349-1.998,1.652
				c0.095,1.306,6.34,11.033,6.34,11.033l-0.669,0.558c0,0-5.098-9.213-6.3-10.539c-1.202-1.319-2.344-1.744-3.953-0.314
				c-1.609,1.427-2.788,4.731-2.788,4.731l-0.743-0.547c0,0-0.082,0.304-1.308,2.82c-1.232,2.505-6.319,7.505-6.213,7.5
				c0.098-0.008-0.687-2.471-0.687-2.471l-0.547,0.743l-2.336,1.179l0.751-0.758l0.904-1.477c0,0,0.613-1.255,0.336-2.344
				c-0.28-1.089-1.409,0.1-2.759,0.906c-1.35,0.798-1.932,1.144-2.564,2.201c-0.632,1.049-2.249,3.79-2.246,3.79
				c0,0-0.071-1.004-0.217-1.596c-0.143-0.595-0.497-1.274-0.497-1.274l-0.571-0.967c0,0-0.444-0.573-1.847-0.476
				c-1.403,0.1-6.491,0.872-7.968-0.032c-1.477-0.901,0.04-3.631,0.04-3.631l-0.008-1.512c0,0-1.771-0.78-3.552-0.346
				c-1.781,0.425-5.97-0.277-5.97-0.277s1.895-0.338,3.655-1.07c1.763-0.729,2.841-1.113,3.816-1.583
				c0.975-0.476,1.792-1.742,3.216-2.955c1.424-1.213,2.418-2.799,2.418-2.799l-0.994-1.237l-1.284-1.015l-1.961-0.666
				c0,0-1.631-0.188-4.028,0.085c-2.4,0.277-4.361-1.702-4.395-2.201l0.156-0.616l-0.164-0.893l-0.721-0.251l-4.733,0.037
				c0,0,4.03-1.398,4.99-2.072c0.957-0.671,1.202-1.501,0.83-2.482c-0.375-0.98-2.08-2.267-2.08-2.267l-2.164-0.653l-0.872-0.946
				l-2.54-1.625c0,0,2.04,0.351,2.994-0.42c0.954-0.777-0.034-1.913-0.034-1.913l-0.246-1.998l-1.583-3.821l-1.644-3.208
				c0,0,1.483,1.002,2.627,1.525c1.15,0.523,3.454,0.357,4.149,0.209c0.695-0.151,0.425-1.142,0.425-1.142l0.814,0.143
				c0,0,3.333,1.469,4.297,0.901c0.967-0.573,0.243-2.233,0.243-2.233l0.864,0.743c0,0,2.125,1.557,4.133,2.825
				c2.009,1.269,4.715,2.484,5.286,2.038c0.576-0.441,0.314-2.64,0.172-3.232c-0.145-0.597-0.203-1.403-0.581-2.482
				c-0.38-1.081-0.906-1.345-0.904-1.343c0,0-0.539-0.468-0.877-0.951c-0.333-0.478-0.463-0.872-0.6-1.366
				c-0.135-0.492-0.288-1.189-0.288-1.189l-0.787-1.152c0,0-0.859-0.743-1.734-1.689c-0.875-0.943-0.439-3.298-0.439-3.298
				l0.386,1.184c0,0,1.335,1.718,2.468,2.04c1.129,0.322,1.689-0.322,1.723-1.234c0.034-0.906-0.677-5.193-1.324-5.851
				c-0.658-0.661-1.911-2.688-1.911-2.688s1.728,1.591,2.815,1.308c1.091-0.28,3.036-4.049,3.071-4.958
				c0.034-0.906-0.425-4.506-0.425-4.506l2.87,3.425c0,0,0.444,0.574,1.985,0.967c1.538,0.388,1.525,1.599,1.525,1.599
				s1.826,0.172,2.423,0.029c0.595-0.143,2.193-3.081,2.193-3.081l0.055,2.117c0,0,0.351,2.088,0.386,2.593
				c0.037,0.497,0.912,1.446,0.912,1.448c0,0,0.312,0.074,0.698,1.258c0.386,1.181,0.83,1.75,2.368,0.737
				c1.538-1.02,2.693-4.633,2.693-4.63c0,0,0.476,5.206,0.529,5.909c0.048,0.703,0.93,1.747,0.93,1.747s0.18,2.505,0.869,5.077
				c0.69,2.577,1.327,3.031,2.704,2.529s3.005-4.45,3.005-4.45l-0.203-1.395l0.576-0.444l0.108-6.866c0,0,0.085,2.513,1.948,3.19
				c1.858,0.671,2.371-3.399,2.371-3.399l0.727,0.251c0,0,0.764-0.56,2.363-2.188c1.599-1.625,3.214-5.774,3.214-5.774
				s0.521,8.631,1.491,10.878c0.965,2.252,3.732,0.037,3.732,0.037s-1.858,2.249-2.408,2.997c-0.55,0.748-0.465,1.942,1.237,3.137
				c1.697,1.189,5.494-0.7,5.494-0.698c0,0-2.088,1.86-2.931,2.727c-0.846,0.869-2.146,3.784-2.146,3.784l0.423,3.095
				c0,0-0.478,1.75-0.928,2.489c-0.452,0.74,0.259,2.196,1.414,2.82c1.155,0.624,5.888,0.584,6.792,0.521
				c0.898-0.069,2.104-0.153,3.359-0.946c1.25-0.798,3.954-1.094,3.954-1.094s-5.88,5.161-7.21,6.266
				C261.155,86.161,261.763,89.042,261.763,89.042z"/>
			<path fill="#936A55" d="M143.005,26.647c0.218,0.013,0.431,0.036,0.648,0.053C143.321,26.582,143.095,26.559,143.005,26.647z"/>
		</g>
		<path fill="#E8C698" d="M300.638,189.163c0.061,1.237,0.095,2.553,0.095,3.954c0,12.778-1.702,17.894-20.45,24.712
			c-18.75,6.816-46.867,10.225-46.016,2.553c0.848-7.667,12.78-9.371,23.859-8.52c7.294,0.563,9.046-1.834,7.202-6.213
			c3.457-0.314,6.668-0.84,9.596-1.609C289.091,200.331,294.121,194.456,300.638,189.163L300.638,189.163z M193.68,194.655
			c-18.856,1.202-35.233,2.722-38.658,2.722c-8.526,0-13.637,10.222-25.566,16.192c-11.927,5.962-35.791,11.929-38.346,4.26
			c-2.556-7.669-1.705-11.076,10.227-11.076c11.927-0.003,17.894,5.108,17.894-1.707c-0.003-4.405-4.976-9.157-8.502-12.21
			c-11.517-0.188-23.087-0.859-34.139-2.17c-16.655-1.982-63.521-15.965-61.634-63.389c1.409,7.627,8.293,37.546,30.931,47.424
			c26.028,11.356,51.108,10.886,70.984,8.991c19.874-1.89,31.705-2.841,68.617,8.52c2.754,0.848,5.486,1.662,8.195,2.442H193.68z"/>
		<path fill="#88604A" d="M322.361,154.297c-11.266,53.257-65.955,48.452-130.364,46.663c-36.872-1.023-57.158-20.59-67.81-31.24
			c-16.295-16.301-7.098-46.557-13.602-69.489c5.338,5.175,14.271,15.04,24.081,32.781c15.825,28.608,57.221,44.438,81.571,35.305
			c24.345-9.131,18.584-37.522,11.784-43.251c2.968-0.222,14.559,9.498,12.429,23.978c-2.127,14.48-8.24,17.482-8.24,17.482
			s8.943-5.106,10.648-14.049c1.699-8.943,2.127-12.775-2.13-21.718s-6.39-9.797-6.39-9.797s10.22,1.705,15.756,16.184
			c5.539,14.477,2.981,23.846,2.981,23.846s5.962-11.073,3.409-23c-2.558-11.921-7.664-14.474-7.664-14.474
			c-0.003,0,16.182,3.835,20.439,17.884c4.257,14.054,3.832,14.91,3.832,14.91c4.532-29.874-3.496-36.177-8.689-40.106
			c27.178,4.884,28.922,60.437,29.131,45.64c0.211-14.799-0.93-30.986-10.019-41.362c-0.003,0,13.425,5.587,21.517,26.457
			c8.089,20.867,5.959,18.314,5.959,18.314c0-0.003,2.632-15.257-2.053-26.33c-4.686-11.071-10.999-15.658-10.999-15.658
			C311.177,127.669,319.74,140.893,322.361,154.297L322.361,154.297z"/>
		<path fill="#765442" d="M317.67,168.666c-17.685,37.939-67.744,33.901-125.674,32.294c-36.872-1.023-57.158-20.59-67.81-31.24
			c-16.147-16.15-7.257-46.008-13.42-68.865c2.4,4.9,7.791,16.98,16.517,42.139c12.302,35.492,69.084,47.324,103.16,42.593
			c34.07-4.738,37.382-31.705,35.49-41.171c0.063-1.882,7.918,15.473,2.529,26.081c-5.389,10.605-12.463,12.725-12.463,12.725
			c-0.003-0.003,14.192,0.47,17.506-12.307c3.311-12.778,0.476-22.712,0.476-22.712c-0.003-0.003,6.15,6.625,5.206,20.347
			c-0.951,13.726-3.317,15.619-3.317,15.619s7.098-1.422,9.466-11.359c2.365-9.939-0.949-21.298-0.949-21.298
			c-0.003,0,6.625,7.577,6.625,19.403c0,11.832-2.365,12.778-2.365,12.778c13.467-5.056,15.669-18.195,12.365-30.344
			c0,0,6.092,8.576,4.67,18.042c-1.419,9.458-2.838,8.515-2.838,8.515s7.114-1.017,14.828-11.24H317.67z"/>
		<path fill="#BC8241" d="M74.65,190.392c-4.812-0.735-11.419-2.315-18.497-5.103c5.058-0.243,12.714-1.845,17.181-8.692
			c7.098-10.888,2.368-14.197,2.368-14.197c8.811,3.784,5.983,18.293-1.052,27.995V190.392z"/>
		<path fill="#1D1C19" d="M83.697,128.393c5.777,0,10.46,4.683,10.46,10.457c-0.003,5.774-4.683,10.457-10.46,10.457
			c-5.774,0-10.46-4.683-10.46-10.457c0-5.774,4.686-10.455,10.46-10.455V128.393z"/>
		<path fill="#FFFFFF" d="M83.694,129.963c4.908,0,8.888,3.983,8.888,8.893c-0.003,4.905-3.977,8.885-8.888,8.885
			c-4.905,0-8.885-3.98-8.885-8.885c0-4.91,3.98-8.89,8.885-8.89V129.963z"/>
		<path fill="#AD4B84" d="M83.567,131.797c3.821,0,6.924,3.1,6.924,6.924c0,3.827-3.103,6.929-6.924,6.929
			c-3.829,0-6.932-3.1-6.932-6.929C76.635,134.897,79.738,131.797,83.567,131.797L83.567,131.797z"/>
		<path fill="#9C3B6D" d="M90.124,140.946c-0.93,2.735-3.515,4.704-6.557,4.704c-3.829,0-6.932-3.1-6.932-6.929
			c0-1.533,0.499-2.947,1.34-4.091c0.005,1.469,0.367,5.563,4.197,7.627C85.007,143.784,88.102,143.282,90.124,140.946
			L90.124,140.946z"/>
		<path fill="#1D1C19" d="M83.9,133.718c2.556,0,4.63,2.077,4.63,4.635c0,2.556-2.075,4.633-4.63,4.633
			c-2.558,0-4.635-2.077-4.635-4.633C79.265,135.795,81.342,133.718,83.9,133.718L83.9,133.718z"/>
		<path fill="#FFFFFF" d="M81.085,139.352c0.999,0,1.813,0.811,1.813,1.816c0,1.002-0.814,1.818-1.813,1.818
			c-1.004,0-1.821-0.817-1.821-1.818C79.265,140.164,80.081,139.352,81.085,139.352L81.085,139.352z"/>
		<path fill="#FFFFFF" d="M84.989,135.901c0.753,0,1.361,0.613,1.361,1.361c0,0.751-0.608,1.361-1.361,1.361
			c-0.756,0-1.361-0.608-1.361-1.361c0-0.748,0.605-1.358,1.361-1.358V135.901z"/>
		<path fill="#6C3531" d="M15.585,119.939c4.186,0,7.579,3.401,7.579,7.587c-0.003,4.186-3.393,7.582-7.579,7.582
			C11.393,135.105,8,131.712,8,127.526c0-4.189,3.393-7.585,7.585-7.585V119.939z"/>
		<path fill="#533330" d="M23.135,126.839c0.016,0.225,0.029,0.452,0.029,0.687c-0.003,4.186-3.393,7.582-7.579,7.582
			C11.393,135.105,8,131.712,8,127.526c0-0.156,0.003-0.307,0.013-0.455c1.039,1.654,3.576,4.165,9.332,3.79
			C20.416,130.663,22.155,128.948,23.135,126.839L23.135,126.839z"/>
		<path fill="#FFFFFF" d="M11.967,123.292c1.017,0,1.842,0.827,1.842,1.845c-0.003,1.015-0.825,1.842-1.842,1.842
			s-1.839-0.825-1.839-1.842S10.952,123.292,11.967,123.292L11.967,123.292z"/>
		<path fill="#FFFFFF" d="M14.66,121.881c0.391,0,0.708,0.314,0.708,0.706c-0.003,0.388-0.317,0.706-0.708,0.706
			s-0.708-0.314-0.708-0.706C13.952,122.193,14.269,121.881,14.66,121.881L14.66,121.881z"/>
		<g>
			<path fill="#815741" d="M241.477,105.52c-1.202-1.319-2.344-1.744-3.953-0.314c-1.609,1.427-2.788,4.731-2.788,4.731
				l-0.743-0.547c0,0-0.082,0.304-1.308,2.82c-1.232,2.505-6.319,7.505-6.213,7.5c0.098-0.008-0.687-2.471-0.687-2.471l-0.547,0.743
				l-2.336,1.179l0.751-0.758l0.904-1.477c0,0,0.613-1.255,0.336-2.344c-0.28-1.089-1.409,0.1-2.759,0.906
				c-1.35,0.798-1.932,1.144-2.564,2.201c-0.632,1.049-2.249,3.79-2.246,3.79c0,0-0.071-1.004-0.217-1.596
				c-0.143-0.595-0.497-1.274-0.497-1.274l-0.571-0.967c0,0-0.444-0.573-1.847-0.476c-1.403,0.1-6.491,0.872-7.968-0.032
				c-1.477-0.901,0.04-3.631,0.04-3.631l-0.008-1.512c0,0-1.771-0.78-3.552-0.346c-1.781,0.425-5.97-0.277-5.97-0.277
				s1.895-0.338,3.655-1.07c1.763-0.729,2.841-1.113,3.816-1.583c0.975-0.476,1.792-1.742,3.216-2.955
				c1.424-1.213,2.418-2.799,2.418-2.799l-0.994-1.237l-1.284-1.015l-1.961-0.666c0,0-1.631-0.188-4.028,0.085
				c-2.4,0.277-4.361-1.702-4.395-2.201l0.156-0.616l-0.164-0.893l-0.506-0.176c-0.208,0.961-0.546,3.954,2.636,6.072
				c3.832,2.553,5.537,2.127,5.537,2.127s-5.962,5.114-8.092,5.539c-2.127,0.425-3.835,1.699-3.835,1.699s9.799,0.859,10.222,4.688
				c0.425,3.832,1.276,3.835,4.683,5.111c3.409,1.276,9.794,4.686,9.794,4.686l2.984-2.984c0,0,4.257,0.851,6.816,0
				c2.553-0.851,6.388-4.686,8.94-9.366c2.556-4.688,5.537-4.686,5.537-4.686l4.997,5.328
				C245.363,111.755,242.363,106.497,241.477,105.52z"/>
			<path fill="#815741" d="M248.119,115.774l0.153,0.163c0,0-0.035-0.075-0.097-0.21L248.119,115.774z"/>
			<path fill="#815741" d="M262.487,85.057c-1.332,1.105-0.724,3.985-0.724,3.985l1.477,0.901c0,0-0.679,0.351-1.969,0.645
				c-1.287,0.293-0.824,2.577-0.824,2.579c0,0-2.186,0.465-2.764,0.806c-0.579,0.344-1.017,1.282-2.371,2.085
				c-1.35,0.803-1.316,1.3,0.299,2.701c1.609,1.395,3.703,3.864,3.703,3.864l-2.986-0.893c0,0-0.029,1.01-0.521,1.15
				c-0.494,0.135-5.09-0.642-5.09-0.642l-0.616,1.253c0,0-3.996-0.92-5.996-0.674c-1.998,0.24-2.09,0.349-1.998,1.652
				c0.07,0.958,3.446,6.442,5.242,9.3c-0.976-2.492-2.195-6.348-0.781-7.197c2.13-1.276,5.539-0.851,8.943-1.276
				c3.409-0.431,6.813-2.13,6.813-2.13s-5.534-3.406-2.978-5.962c2.553-2.553,3.406-2.127,4.26-4.257
				c0.848-2.13,1.276-4.263,2.127-6.393c0.579-1.451,0.963-3.891,1.148-5.297C265.172,82.748,263.192,84.471,262.487,85.057z"/>
		</g>
	</g>
</g>
</svg>
