<?xml version="1.0" encoding="utf-8"?>
<!-- Generator: Adobe Illustrator 17.0.0, SVG Export Plug-In . SVG Version: 6.00 Build 0)  -->
<!DOCTYPE svg PUBLIC "-//W3C//DTD SVG 1.1 Basic//EN" "http://www.w3.org/Graphics/SVG/1.1/DTD/svg11-basic.dtd">
<svg version="1.1" baseProfile="basic" id="Слой_1"
	 xmlns="http://www.w3.org/2000/svg" xmlns:xlink="http://www.w3.org/1999/xlink" x="0px" y="0px" width="87.651px"
	 height="84.714px" viewBox="0 0 87.651 84.714" xml:space="preserve">
<path fill="#42BCAA" d="M86.969,42.358c-0.008,0.001-0.83,0.121-2.016,0.121c-2.9,0-7.947-0.707-9.148-5.386
	c-1.194-8.371-2-10.682-2.518-11.328c-0.121-3.738-0.512-14.76-0.974-15.62l-0.312-0.581l-0.476,0.457
	c-2.587,2.489-6.647,6.065-7.611,6.232c-1.092,0.277-10.205,2.675-11.856,5.712c-1.238-0.591-4.744-2.645-6.037-7.432l-0.035-0.127
	l-3.455-3.482l0.158,1.425c0.058,0.52,0.054,1.728-0.326,2.151c-0.082,0.093-0.171,0.132-0.297,0.132
	c-0.237,0-0.793-0.146-1.858-1.115l-0.082-0.061c-0.421-0.25-1.915-1.134-3.817-2.213l-0.303-0.37l-0.027,0.184
	c-3.921-2.213-9.345-5.112-10.85-5.112c-0.024,0-0.047,0-0.07,0.001c-0.979-1.145-4.688-5.337-6.821-5.762L17.312,0l0.371,0.87
	c0.049,0.115,4.856,11.558,2.419,18.081c-0.638,1.715-3.694,10.137-3.016,12.31c-0.094,0.321-0.499,1.214-2.111,1.214
	c-0.708,0-1.559-0.173-2.531-0.515l-0.773-0.271l0.113,0.812c0.038,0.274,1.005,6.736,7.384,8.915
	c0.017,0.008,1.719,0.81,1.824,1.999c0.087,0.985-0.984,1.938-1.916,2.578l-5.767,4.34c-0.714,0.312-6.993,3.14-8.592,6.873
	c-0.011,0.021-1.121,2.2-2.898,2.201c-0.417,0-0.852-0.12-1.294-0.357L0,59.899c0.299,0.209,7.396,5.114,12.993,5.114
	c0,0,0,0,0.001,0c0.191,0,0.379-0.005,0.566-0.018c0.56,0.244,3.173,1.419,4.868,2.796l0.184,0.156
	c1.083,0.926,1.442,1.677,1.067,2.232l-0.075,0.18c-0.109,0.531-0.626,2.091-1.539,2.296L18,72.669l0.097,0.49l0,0c0,0,0,0,0,0l0,0
	l0.163,0.477c0.569-0.108,3.532-0.649,5.979-0.649c1.713,0,2.407,0.271,2.684,0.466c0.388,0.766,3.024,6.214,1.497,9.877
	l-0.577,1.384l1.292-0.761c1.519-0.894,6.28-3.818,6.835-5.646c0.236-0.12,0.561-0.247,0.79-0.247c0.033,0,0.111,0.003,0.139,0.032
	c0.009,0.01,0.09,0.105,0.073,0.458l-0.087,1.782l1.001-1.478c1.042-1.538,4.083-5.62,5.588-6.026
	c0.003-0.001,0.294-0.055,0.758-0.055c1.349,0,3.88,0.437,5.68,3.355l0.862-0.506c-0.021-0.039-2.159-3.928-1.152-6.535
	c0.371-0.96,1.112-1.615,2.267-2.005l0.56-0.188l-2.891-5.415l0.742-2.442l-0.178-0.209c-0.849-0.993-2.924-3.901-2.34-5.412
	c0.191-0.495,0.705-0.821,1.527-0.973c3.143,4.21,7.382,11.262,6.835,13.575l-0.036,0.154l0.059,0.146
	c0.122,0.304,0.536,0.818,1.319,0.818c0.623,0,1.33-0.317,2.16-0.972l0.294-0.23l-0.139-0.348c-0.587-1.471-1.672-3.856-2.681-4.316
	c-2.106-3.246-5.148-8.279-5.604-9.935c0.152-0.088,0.329-0.132,0.535-0.132c0.883,0,3.009,0.824,7.326,6.341l0.593,0.758
	l0.279-0.92c0.003-0.011,0.321-1.02,1.312-1.02c0.563,0,1.252,0.297,2.048,0.883l0.252,0.178l0.273-0.136
	c0.005-0.002,0.531-0.256,1.732-0.256c1.166,0,3.197,0.244,6.256,1.408l2.903,1.104l-2.41-1.959
	c-0.012-0.01-1.183-0.978-0.991-2.183c0.181-1.131,1.531-2.21,3.993-3.166c2.715-1.709,11.601-7.433,11.92-9.302l0.116-0.68
	L86.969,42.358z"/>
</svg>
