<?xml version="1.0" encoding="utf-8"?>
<!-- Generator: Adobe Illustrator 17.0.0, SVG Export Plug-In . SVG Version: 6.00 Build 0)  -->
<!DOCTYPE svg PUBLIC "-//W3C//DTD SVG 1.1 Basic//EN" "http://www.w3.org/Graphics/SVG/1.1/DTD/svg11-basic.dtd">
<svg version="1.1" baseProfile="basic" id="Слой_1"
	 xmlns="http://www.w3.org/2000/svg" xmlns:xlink="http://www.w3.org/1999/xlink" x="0px" y="0px" width="138.211px"
	 height="54.814px" viewBox="0 0 138.211 54.814" xml:space="preserve">
<path fill="#369371" d="M105.363,16.688c-8.507-1.186-16.569-3.628-25.011-4.668c-1.349-1.067-2.676-2.159-4.243-2.94
	c-4.059-2.028-6.122,0.791-10.113-0.862c-2.33-0.965-1.609-2.718-4.579-2.624c-2.104,0.066-2.509,2.697-5.372,2.165
	c-2.774-0.517-6.853-7.335-9.055-1.119c-4.421,1.392-3.47-3.156-6.86-3.923C36.714,1.94,36.2,6.232,32.622,5.741
	c-3.023-0.417-2.963-3.558-6.601-3.135c-3.072,0.355-2.732,3.77-6.838,1.627c-3.199-1.668-2.628-4.84-6.999-4.131
	C8.87,0.639,9.746,2.954,5.608,1.866C3.799,1.391,3.113,0.717,2.058,0.384C2.168,17.8,2.337,35.215,0,52.631
	c0.449,0.321,1.022,0.635,1.747,0.944c2.995,1.274,13.659,2.198,14.953-0.526c1.007-2.12-1.53-5.311-0.892-7.855
	c0.162-0.655,0.583-1.412,1.116-2.162c3.288-0.707,6.535-1.52,9.73-2.447c16.635-4.833,31.375-12.385,48.83-14.818
	c20.48-2.858,42.891,1.652,62.727-2.479C127.422,20.161,116.608,18.257,105.363,16.688z"/>
</svg>
