<?xml version="1.0" encoding="utf-8"?>
<!-- Generator: Adobe Illustrator 17.0.0, SVG Export Plug-In . SVG Version: 6.00 Build 0)  -->
<!DOCTYPE svg PUBLIC "-//W3C//DTD SVG 1.1 Basic//EN" "http://www.w3.org/Graphics/SVG/1.1/DTD/svg11-basic.dtd">
<svg version="1.1" baseProfile="basic" id="Слой_1"
	 xmlns="http://www.w3.org/2000/svg" xmlns:xlink="http://www.w3.org/1999/xlink" x="0px" y="0px" width="368.104px"
	 height="105.292px" viewBox="0 0 368.104 105.292" xml:space="preserve">
<polygon fill="#A8A8A8" stroke="#272525" stroke-width="3" stroke-miterlimit="10" points="557.307,189.762 557.307,189.762 
	557.306,189.761 "/>
<path fill="#A8A8A8" stroke="#272525" stroke-width="3" stroke-miterlimit="10" d="M110.837,67.642
	c-16.278,0-29.474-13.196-29.474-29.474c0-0.392,0.014-0.78,0.03-1.168c-5.868,1.355-12.725,5.741-18.216,7.188
	c-5.444,1.433-13.101,4.938-18.807,3.861c-4.756-0.899-5.84-5.51-11.457-6.452c-5.915-0.99-10.393,1.422-10.464,8.019
	c-1.204-3.295-6.127-5.152-9.575-2.699C8.934,49.718,9,54.675,9,59.007c0.003,9.533,5.689,13.836,14.869,14.026
	c-4.13,26.279,56.911,12.189,79.371,5.742c3.231-3.522,6.539-6.978,8.293-11.15C111.301,67.63,111.07,67.642,110.837,67.642z"/>
<path fill="#A8A8A8" stroke="#272525" stroke-width="3" stroke-miterlimit="10" d="M156.694,36.917
	c-1.856,0.424-2.4,1.952-3.877,1.929l-0.579-0.082c-0.269-0.066-0.564-0.178-0.896-0.343c-1.646-0.819-1.428-4.579-3.602-5.291
	c-1.985-0.651-4.634,1.254-6.765,3.064c-0.345-0.136-0.679-0.281-1.007-0.431c0.062,0.778,0.102,1.561,0.102,2.355
	c0,16.044-12.822,29.085-28.777,29.457c-1.754,4.171-5.063,7.628-8.293,11.15c0.455-0.131,0.9-0.259,1.322-0.383
	c3.758,1.346,15.769,5.446,31.994,9.011c-1.045,1.071-1.843,2.003-1.921,2.59c-0.494,3.716,4.764,2.391,7.373,2.391
	c0.723,0,2.04,0.136,3.481,0.24c-0.122,0.438-0.138,0.863-0.014,1.277c0.042,0.141,0.303,0.108,0.367-0.048
	c7.225-17.704,14.267-34.995,18.301-53.488C161.706,38.437,161.483,35.818,156.694,36.917z"/>
<path fill="#A8A8A8" stroke="#272525" stroke-width="3" stroke-miterlimit="10" d="M223.363,44.874
	c-0.726-0.229-1.624-0.298-3.189-0.024c-2.594,0.454-4.463,2.416-7.47,0.773c-1.301-0.71-1.735-3.324-3.575-3.895
	c-2.33-0.725-3.562,0.901-5.53,1.396c-5.807,1.458-5.156-0.572-9.829-2.478c-4.328-1.762-4.958,2.637-9.586,1.614
	c-4.088-0.902-3.948-5.074-8.967-4.119c-2.267,0.431-3.884,2.4-5.859,3.358c-1.846-0.181-3.681-0.394-5.5-0.665
	c-0.13-0.095-0.249-0.195-0.366-0.295c-4.069,18.655-11.2,36.088-18.492,53.955c0.397,0.723,1.273,1.412,2.832,2.075
	c2.995,1.274,13.661,2.198,14.955-0.526c0.53-1.116,0.077-2.531-0.377-3.991c13.722,1.586,28.56,2.093,43.087,0.357
	c-0.42,0.406-0.718,0.813-0.776,1.243c-0.494,3.716,4.764,2.393,7.371,2.393c1.572,0,5.929,0.639,8.292,0.197
	c0.214,0.298,0.518,0.59,0.92,0.877C223.643,79.705,223.473,62.289,223.363,44.874z"/>
<path fill="#A8A8A8" stroke="#272525" stroke-width="3" stroke-miterlimit="10" d="M326.364,61.689
	c-8.507-1.186-16.569-3.628-25.011-4.668c-1.349-1.067-2.676-2.159-4.243-2.94c-4.059-2.028-6.122,0.791-10.113-0.862
	c-2.33-0.965-1.609-2.718-4.579-2.624c-2.104,0.066-2.509,2.697-5.372,2.165c-2.774-0.517-6.853-7.335-9.055-1.119
	c-4.421,1.392-3.47-3.156-6.86-3.923c-3.417-0.777-3.931,3.515-7.509,3.023c-3.023-0.417-2.963-3.558-6.601-3.135
	c-3.072,0.355-2.732,3.77-6.838,1.627c-3.199-1.668-2.628-4.84-6.999-4.131c-3.314,0.537-2.438,2.853-6.575,1.764
	c-1.809-0.475-2.495-1.149-3.551-1.482c0.11,17.416,0.279,34.831-2.058,52.247c0.449,0.321,1.021,0.635,1.747,0.944
	c2.995,1.274,13.659,2.198,14.953-0.526c1.007-2.12-1.53-5.311-0.892-7.855c0.162-0.655,0.583-1.412,1.116-2.162
	c3.288-0.707,6.535-1.52,9.73-2.447c16.635-4.833,31.375-12.385,48.83-14.818c20.48-2.858,42.891,1.652,62.727-2.479
	C348.423,65.162,337.608,63.258,326.364,61.689z"/>
<path fill="#A8A8A8" stroke="#272525" stroke-width="3" stroke-miterlimit="10" d="M130.184,22.792
	c0.83-1.372,1.316-2.974,1.316-4.694c0-5.024-4.073-9.098-9.098-9.098c-3.92,0-7.255,2.483-8.534,5.96
	c-0.029,0.079-0.057,0.159-0.084,0.24c0,0-0.164-0.02-0.246-0.029c-1.115-0.127-2.249-0.193-3.398-0.193
	c-3.455,0-6.769,0.595-9.852,1.682c-0.089,0.031-0.266,0.096-0.266,0.096c-0.041-0.078-0.083-0.156-0.126-0.232
	c-1.556-2.782-4.526-4.665-7.94-4.665c-5.026,0-9.098,4.073-9.098,9.098c0,2.661,1.149,5.048,2.971,6.712
	c-1.624,2.325-2.92,4.895-3.829,7.642c18.548-1.141,37.076-0.434,55.169-2.829C135.509,28.79,133.125,25.495,130.184,22.792z"/>
<path fill="#A8A8A8" stroke="#272525" stroke-width="3" stroke-miterlimit="10" d="M138.741,35.088
	c-0.339-1.059-0.748-2.085-1.2-3.088c-18.094,2.394-36.621,1.687-55.169,2.829c-0.199,0.601-0.386,1.207-0.546,1.824
	c-0.262,0.048-0.529,0.112-0.796,0.174C81.015,37.215,81,37.603,81,37.995c0,16.278,13.196,29.474,29.474,29.474
	s29.474-13.196,29.474-29.474c0-0.793-0.04-1.577-0.102-2.355C139.465,35.464,139.095,35.282,138.741,35.088z"/>
</svg>
