<?xml version="1.0" encoding="utf-8"?>
<!-- Generator: Adobe Illustrator 17.0.0, SVG Export Plug-In . SVG Version: 6.00 Build 0)  -->
<!DOCTYPE svg PUBLIC "-//W3C//DTD SVG 1.1 Basic//EN" "http://www.w3.org/Graphics/SVG/1.1/DTD/svg11-basic.dtd">
<svg version="1.1" baseProfile="basic" id="Слой_1"
	 xmlns="http://www.w3.org/2000/svg" xmlns:xlink="http://www.w3.org/1999/xlink" x="0px" y="0px" width="58.948px"
	 height="35.468px" viewBox="0 0 58.948 35.468" xml:space="preserve">
<path fill="#ECBE33" d="M57.74,3.088C57.401,2.03,56.992,1.003,56.541,0C38.447,2.394,19.92,1.687,1.371,2.829
	C1.173,3.429,0.986,4.035,0.825,4.653C0.563,4.701,0.296,4.765,0.03,4.826C0.014,5.214,0,5.602,0,5.994
	c0,16.278,13.196,29.474,29.474,29.474c16.278,0,29.474-13.196,29.474-29.474c0-0.793-0.04-1.577-0.102-2.355
	C58.465,3.465,58.094,3.282,57.74,3.088z"/>
</svg>
