<?xml version="1.0" encoding="utf-8"?>
<!-- Generator: Adobe Illustrator 17.0.0, SVG Export Plug-In . SVG Version: 6.00 Build 0)  -->
<!DOCTYPE svg PUBLIC "-//W3C//DTD SVG 1.1 Basic//EN" "http://www.w3.org/Graphics/SVG/1.1/DTD/svg11-basic.dtd">
<svg version="1.1" baseProfile="basic" id="Слой_1"
	 xmlns="http://www.w3.org/2000/svg" xmlns:xlink="http://www.w3.org/1999/xlink" x="0px" y="0px" width="368.104px"
	 height="105.292px" viewBox="0 0 368.104 105.292" xml:space="preserve">
<polygon fill="#A8A8A8" stroke="#272525" stroke-width="3" stroke-miterlimit="10" points="557.307,189.762 557.307,189.762 
	557.306,189.761 "/>
<path fill="#A8A8A8" stroke="#272525" stroke-width="3" stroke-miterlimit="10" d="M327.319,61.309
	c-8.507-1.186-16.569-3.628-25.011-4.668c-1.349-1.067-2.676-2.159-4.243-2.94c-4.059-2.028-6.122,0.791-10.113-0.862
	c-2.33-0.965-1.609-2.717-4.579-2.624c-2.104,0.066-2.509,2.697-5.372,2.165c-2.774-0.517-6.853-7.335-9.055-1.119
	c-4.421,1.392-3.47-3.156-6.86-3.923c-3.417-0.777-3.931,3.515-7.509,3.023c-3.023-0.417-2.963-3.558-6.601-3.135
	c-3.072,0.355-2.732,3.77-6.838,1.627c-3.199-1.668-2.628-4.84-6.999-4.131c-3.314,0.537-2.437,2.853-6.575,1.764
	c-3.052-0.801-2.898-2.177-6.739-1.505c-2.594,0.454-4.463,2.416-7.47,0.773c-1.301-0.71-1.735-3.324-3.575-3.895
	c-2.33-0.725-3.562,0.901-5.53,1.396c-5.807,1.458-5.156-0.572-9.829-2.478c-4.328-1.762-4.958,2.637-9.586,1.614
	c-4.088-0.902-3.948-5.074-8.967-4.119c-2.266,0.431-3.884,2.4-5.859,3.358c-1.846-0.181-3.681-0.394-5.5-0.665
	c-2.557-1.879-2.529-4.849-7.575-3.691c-1.856,0.424-2.4,1.952-3.877,1.929l-0.579-0.082c-0.269-0.066-0.564-0.178-0.896-0.343
	c-1.646-0.819-1.428-4.579-3.602-5.291c-1.985-0.651-4.633,1.254-6.765,3.064c-0.745-0.294-1.455-0.62-2.113-0.981
	c-1.587-4.955-4.445-9.339-8.186-12.777c0.83-1.372,1.316-2.974,1.316-4.694c0-5.024-4.073-9.098-9.098-9.098
	c-4.01,0-7.407,2.598-8.618,6.2c-1.194-0.146-2.41-0.222-3.644-0.222c-3.554,0-6.961,0.63-10.119,1.777
	c-1.518-2.909-4.557-4.897-8.065-4.897c-5.026,0-9.098,4.073-9.098,9.098c0,2.661,1.149,5.048,2.971,6.712
	c-1.98,2.834-3.481,6.027-4.376,9.466c-6.035,1.115-13.272,5.849-19.011,7.361c-5.444,1.433-13.101,4.938-18.807,3.861
	c-4.756-0.899-5.84-5.51-11.457-6.452c-5.915-0.99-10.393,1.422-10.464,8.019c-1.204-3.295-6.127-5.152-9.574-2.699
	C8.934,50.024,9,54.981,9,59.313c0.003,9.533,5.689,13.836,14.869,14.026c-4.213,26.811,59.416,11.6,80.693,5.359
	c3.758,1.346,15.769,5.446,31.994,9.011c-1.045,1.071-1.843,2.003-1.921,2.59c-0.494,3.716,4.764,2.391,7.373,2.391
	c0.723,0,2.04,0.136,3.481,0.24c-0.38,1.364,0.26,2.608,2.994,3.77c2.995,1.274,13.661,2.198,14.955-0.526
	c0.53-1.116,0.077-2.531-0.377-3.991c13.722,1.586,28.56,2.093,43.087,0.358c-0.42,0.406-0.718,0.813-0.776,1.243
	c-0.494,3.716,4.764,2.393,7.371,2.393c1.572,0,5.929,0.639,8.292,0.197c0.453,0.631,1.291,1.236,2.667,1.821
	c2.995,1.274,13.659,2.198,14.953-0.526c1.007-2.12-1.53-5.311-0.892-7.855c0.162-0.655,0.583-1.412,1.116-2.162
	c3.288-0.707,6.535-1.52,9.73-2.448c16.635-4.833,31.375-12.385,48.83-14.818c20.48-2.858,42.891,1.652,62.727-2.479
	C349.377,64.782,338.563,62.878,327.319,61.309z"/>
</svg>
