<?xml version="1.0" encoding="utf-8"?>
<!-- Generator: Adobe Illustrator 17.0.0, SVG Export Plug-In . SVG Version: 6.00 Build 0)  -->
<!DOCTYPE svg PUBLIC "-//W3C//DTD SVG 1.1 Basic//EN" "http://www.w3.org/Graphics/SVG/1.1/DTD/svg11-basic.dtd">
<svg version="1.1" baseProfile="basic" id="Слой_1"
	 xmlns="http://www.w3.org/2000/svg" xmlns:xlink="http://www.w3.org/1999/xlink" x="0px" y="0px" width="78.416px"
	 height="59.809px" viewBox="0 0 78.416 59.809" xml:space="preserve">
<path fill="#3FA457" d="M78.362,6.874c-0.726-0.229-1.624-0.298-3.189-0.024c-2.594,0.454-4.463,2.416-7.47,0.773
	c-1.301-0.71-1.735-3.324-3.575-3.895c-2.33-0.725-3.562,0.901-5.53,1.396c-5.807,1.458-5.156-0.572-9.829-2.478
	c-4.328-1.762-4.958,2.637-9.586,1.614c-4.088-0.902-3.948-5.074-8.967-4.119c-2.267,0.431-3.884,2.4-5.859,3.358
	c-1.846-0.181-3.681-0.394-5.5-0.665c-0.13-0.095-0.249-0.195-0.366-0.295C14.423,21.194,7.292,38.627,0,56.494
	c0.397,0.723,1.273,1.412,2.832,2.075c2.995,1.274,13.661,2.198,14.955-0.526c0.53-1.116,0.077-2.531-0.377-3.991
	c13.722,1.586,28.56,2.093,43.087,0.357c-0.42,0.406-0.718,0.813-0.776,1.243c-0.494,3.716,4.764,2.393,7.371,2.393
	c1.572,0,5.929,0.639,8.292,0.197c0.214,0.298,0.517,0.59,0.92,0.877C78.641,41.705,78.472,24.289,78.362,6.874z"/>
</svg>
