<?xml version="1.0" encoding="utf-8"?>
<!-- Generator: Adobe Illustrator 17.0.0, SVG Export Plug-In . SVG Version: 6.00 Build 0)  -->
<!DOCTYPE svg PUBLIC "-//W3C//DTD SVG 1.1 Basic//EN" "http://www.w3.org/Graphics/SVG/1.1/DTD/svg11-basic.dtd">
<svg version="1.1" baseProfile="basic" id="Слой_1"
	 xmlns="http://www.w3.org/2000/svg" xmlns:xlink="http://www.w3.org/1999/xlink" x="0px" y="0px" width="55.169px"
	 height="26.309px" viewBox="0 0 55.169 26.309" xml:space="preserve">
<path fill="#6D9EC4" d="M48.183,13.792c0.83-1.372,1.316-2.974,1.316-4.694C49.499,4.073,45.426,0,40.401,0
	c-3.92,0-7.255,2.483-8.534,5.96C31.838,6.04,31.81,6.12,31.783,6.2c0,0-0.164-0.02-0.246-0.029
	c-1.115-0.127-2.249-0.193-3.398-0.193c-3.455,0-6.769,0.595-9.852,1.682c-0.089,0.031-0.266,0.096-0.266,0.096
	c-0.041-0.078-0.083-0.156-0.126-0.232c-1.556-2.782-4.526-4.665-7.94-4.665c-5.026,0-9.098,4.073-9.098,9.098
	c0,2.661,1.149,5.048,2.971,6.712C2.205,20.993,0.91,23.563,0,26.309c18.548-1.141,37.076-0.434,55.169-2.829
	C53.508,19.79,51.124,16.495,48.183,13.792z"/>
</svg>
