<?xml version="1.0" encoding="utf-8"?>
<!-- Generator: Adobe Illustrator 17.0.0, SVG Export Plug-In . SVG Version: 6.00 Build 0)  -->
<!DOCTYPE svg PUBLIC "-//W3C//DTD SVG 1.1 Basic//EN" "http://www.w3.org/Graphics/SVG/1.1/DTD/svg11-basic.dtd">
<svg version="1.1" baseProfile="basic" id="Слой_1"
	 xmlns="http://www.w3.org/2000/svg" xmlns:xlink="http://www.w3.org/1999/xlink" x="0px" y="0px" width="102.534px"
	 height="51.364px" viewBox="0 0 102.534 51.364" xml:space="preserve">
<path fill="#D16234" d="M101.836,30.642c-16.278,0-29.474-13.196-29.474-29.474c0-0.392,0.014-0.78,0.03-1.168
	c-5.868,1.355-12.725,5.741-18.216,7.188c-5.444,1.433-13.101,4.938-18.807,3.861c-4.756-0.899-5.84-5.51-11.457-6.452
	c-5.915-0.99-10.393,1.422-10.464,8.019C12.245,9.32,7.321,7.463,3.874,9.917C-0.066,12.717,0,17.674,0,22.006
	c0.003,9.533,5.689,13.836,14.869,14.026C10.739,62.311,71.78,48.22,94.24,41.774c3.231-3.522,6.539-6.978,8.293-11.15
	C102.301,30.629,102.07,30.642,101.836,30.642z"/>
</svg>
