<?xml version="1.0" encoding="utf-8"?>
<!-- Generator: Adobe Illustrator 17.0.0, SVG Export Plug-In . SVG Version: 6.00 Build 0)  -->
<!DOCTYPE svg PUBLIC "-//W3C//DTD SVG 1.1 Basic//EN" "http://www.w3.org/Graphics/SVG/1.1/DTD/svg11-basic.dtd">
<svg version="1.1" baseProfile="basic" id="Слой_1"
	 xmlns="http://www.w3.org/2000/svg" xmlns:xlink="http://www.w3.org/1999/xlink" x="0px" y="0px" width="368.104px"
	 height="105.292px" viewBox="0 0 368.104 105.292" xml:space="preserve">
<path fill="#54924D" stroke="#FFFFFF" stroke-width="6" stroke-miterlimit="10" d="M327.319,61.309
	c-8.507-1.186-16.569-3.628-25.01-4.668c-1.349-1.067-2.676-2.159-4.243-2.94c-4.059-2.028-6.122,0.791-10.113-0.862
	c-2.33-0.965-1.609-2.717-4.579-2.624c-2.104,0.066-2.509,2.697-5.372,2.164c-2.774-0.517-6.853-7.335-9.055-1.119
	c-4.421,1.392-3.47-3.156-6.86-3.923c-3.417-0.777-3.931,3.515-7.509,3.023c-3.023-0.417-2.963-3.558-6.601-3.135
	c-3.072,0.355-2.732,3.77-6.838,1.627c-3.199-1.668-2.628-4.84-6.999-4.131c-3.314,0.537-2.437,2.853-6.575,1.764
	c-3.052-0.801-2.898-2.177-6.739-1.505c-2.594,0.454-4.463,2.416-7.47,0.773c-1.301-0.71-1.735-3.324-3.575-3.895
	c-2.33-0.725-3.562,0.901-5.53,1.396c-5.807,1.458-5.156-0.572-9.829-2.478c-4.328-1.762-4.958,2.637-9.586,1.614
	c-4.088-0.902-3.948-5.075-8.967-4.119c-2.266,0.431-3.884,2.4-5.859,3.358c-1.846-0.181-3.681-0.393-5.5-0.665
	c-2.557-1.879-2.529-4.849-7.575-3.691c-1.856,0.424-2.4,1.952-3.877,1.929l-0.579-0.082c-0.269-0.066-0.564-0.178-0.896-0.343
	c-1.646-0.819-1.428-4.579-3.602-5.291c-1.985-0.651-4.634,1.254-6.765,3.064c-0.745-0.294-1.455-0.62-2.113-0.981
	c-1.587-4.953-4.455-9.325-8.194-12.763c0.835-1.375,1.324-2.982,1.324-4.708c0-5.024-4.073-9.098-9.098-9.098
	c-4.019,0-7.423,2.609-8.627,6.223c-1.194-0.146-2.402-0.245-3.635-0.245c-3.555,0-6.958,0.636-10.116,1.783
	c-1.517-2.912-4.558-4.903-8.068-4.903c-5.026,0-9.098,4.073-9.098,9.098c0,2.667,1.154,5.058,2.982,6.722
	c-1.979,2.834-3.492,6.017-4.387,9.455c-6.035,1.115-13.271,5.849-19.011,7.361c-5.444,1.433-13.101,4.938-18.807,3.861
	c-4.756-0.899-5.84-5.51-11.458-6.452c-5.915-0.99-10.393,1.422-10.464,8.019c-1.204-3.295-6.127-5.152-9.574-2.699
	C8.934,50.024,9,54.981,9,59.313c0.003,9.533,5.689,13.836,14.869,14.026c-4.214,26.811,59.416,11.6,80.693,5.359
	c3.758,1.346,15.769,5.446,31.994,9.011c-1.045,1.071-1.843,2.003-1.921,2.59c-0.494,3.716,4.764,2.391,7.373,2.391
	c0.725,0,2.047,0.137,3.492,0.241c-0.379,1.363,0.25,2.608,2.982,3.77c2.995,1.274,13.661,2.198,14.955-0.526
	c0.53-1.116,0.077-2.531-0.377-3.991c13.722,1.586,28.56,2.093,43.087,0.357c-0.42,0.406-0.718,0.813-0.775,1.243
	c-0.494,3.716,4.764,2.393,7.371,2.393c1.572,0,5.929,0.639,8.292,0.197c0.453,0.631,1.291,1.236,2.667,1.821
	c2.995,1.274,13.659,2.198,14.953-0.526c1.007-2.12-1.53-5.311-0.892-7.855c0.162-0.655,0.583-1.412,1.116-2.162
	c3.288-0.707,6.535-1.52,9.73-2.447c16.635-4.833,31.291-13.091,48.83-14.818c19.58-1.928,62.737-0.345,62.727-2.479
	C360.155,65.375,338.563,62.878,327.319,61.309z M122.556,77.424c-0.233-0.094-0.466-0.188-0.696-0.284
	C122.09,77.236,122.323,77.33,122.556,77.424z M120.802,76.691c-0.231-0.101-0.459-0.202-0.687-0.304
	C120.343,76.489,120.571,76.59,120.802,76.691z M119.098,75.922c-0.217-0.102-0.428-0.206-0.641-0.31
	C118.669,75.716,118.881,75.82,119.098,75.922z M117.455,75.12c-0.158-0.081-0.309-0.164-0.464-0.245
	C117.146,74.956,117.297,75.039,117.455,75.12z M147.476,84.206c-0.012-0.002-0.025-0.005-0.037-0.007
	C147.451,84.202,147.463,84.204,147.476,84.206z M137.166,82.007c-0.073-0.018-0.147-0.036-0.221-0.054
	C137.019,81.972,137.093,81.989,137.166,82.007z M149.609,84.59c0.01,0.002,0.019,0.003,0.029,0.005
	C149.628,84.593,149.619,84.591,149.609,84.59z M165.528,86.868c-0.432-0.05-0.865-0.102-1.298-0.153
	C164.663,86.766,165.095,86.818,165.528,86.868z M168.072,87.152c-0.441-0.048-0.882-0.096-1.324-0.145
	C167.19,87.056,167.631,87.105,168.072,87.152z M176.51,87.968c-0.461-0.039-0.923-0.08-1.387-0.122
	C175.587,87.888,176.049,87.929,176.51,87.968z M174.039,87.749c-0.624-0.057-1.251-0.117-1.878-0.178
	C172.788,87.632,173.414,87.692,174.039,87.749z M170.776,87.434c-0.51-0.051-1.02-0.103-1.531-0.156
	C169.756,87.332,170.266,87.383,170.776,87.434z M181.54,88.368c-0.486-0.036-0.972-0.072-1.462-0.109
	C180.567,88.296,181.054,88.332,181.54,88.368z M178.974,88.171c-0.445-0.035-0.89-0.071-1.337-0.109
	C178.084,88.1,178.529,88.136,178.974,88.171z M196.682,89.237c-0.3-0.013-0.605-0.026-0.909-0.039
	C196.077,89.211,196.382,89.225,196.682,89.237z M194.593,89.146c-0.63-0.029-1.268-0.06-1.912-0.092
	C193.326,89.086,193.963,89.117,194.593,89.146z M206.798,89.562c-0.05-0.001-0.099-0.002-0.149-0.003
	C206.698,89.56,206.748,89.561,206.798,89.562z M205.169,89.523c-0.029-0.001-0.058-0.002-0.086-0.002
	C205.111,89.522,205.14,89.523,205.169,89.523z M200.517,89.383c-0.194-0.007-0.387-0.013-0.583-0.02
	C200.13,89.37,200.322,89.377,200.517,89.383z M198.666,89.316c-0.252-0.01-0.504-0.019-0.758-0.029
	C198.162,89.297,198.415,89.307,198.666,89.316z M135.258,81.525c-0.15-0.039-0.3-0.078-0.449-0.117
	C134.959,81.447,135.109,81.486,135.258,81.525z M133.241,80.984c-0.169-0.047-0.337-0.094-0.506-0.142
	C132.903,80.89,133.072,80.937,133.241,80.984z M131.211,80.405c-0.145-0.043-0.288-0.087-0.433-0.13
	C130.923,80.318,131.066,80.362,131.211,80.405z M125.802,78.655c-0.079-0.028-0.161-0.055-0.24-0.084
	C125.641,78.599,125.723,78.626,125.802,78.655z M124.319,78.11c-0.214-0.08-0.429-0.16-0.641-0.241
	C123.89,77.951,124.105,78.03,124.319,78.11z M108.683,77.435c-0.025,0.008-0.05,0.016-0.076,0.024
	C108.633,77.451,108.658,77.443,108.683,77.435z M111.715,76.351c-0.666,0.266-1.353,0.526-2.087,0.774
	C110.361,76.876,111.049,76.617,111.715,76.351z M185.745,88.658c0.419,0.027,0.838,0.054,1.253,0.079
	C186.583,88.712,186.164,88.685,185.745,88.658z M182.534,88.441c0.721,0.052,1.438,0.101,2.15,0.148
	C183.972,88.542,183.255,88.493,182.534,88.441z M191.562,88.996c-0.378-0.02-0.756-0.039-1.138-0.06
	C190.806,88.957,191.184,88.977,191.562,88.996z M189.278,88.872c-0.379-0.022-0.76-0.044-1.143-0.066
	C188.518,88.829,188.899,88.851,189.278,88.872z M223.06,90.865c-0.008-0.213-0.012-0.425-0.01-0.637
	c0.199-0.023,0.398-0.042,0.597-0.065C223.45,90.401,223.254,90.634,223.06,90.865z"/>
<polygon fill="#A8A8A8" stroke="#272525" stroke-width="3" stroke-miterlimit="10" points="557.307,189.762 557.307,189.762 
	557.306,189.761 "/>
<g>
	<path fill="#D2CE3E" d="M104.561,78.697c9.24,3.309,68.407,23.285,117.44,10.959c0,0-75.721,1.441-106.042-15.33
		c-1.838,1.044-3.882,1.971-6.331,2.798C108.455,77.519,106.727,78.062,104.561,78.697z"/>
	<path fill="#8AB04C" d="M210.253,88.205c-0.417,2.439-4.646,3.818-4.881,5.579c-0.494,3.716,4.764,2.393,7.371,2.393
		c1.961,0,8.263,0.998,9.612-0.353c1.972-1.972-0.631-6.542,1.847-9.112L210.253,88.205z"/>
	<path fill="#8AB04C" d="M141.114,82.926l-0.003,0.003c0.289,0.063,0.579,0.124,0.868,0.185L141.114,82.926z M136.558,87.707
		c-1.046,1.071-1.844,2.004-1.922,2.591c-0.494,3.716,4.764,2.391,7.373,2.391c1.958,0,8.262,0.998,9.61-0.352
		c0.434-0.435,0.646-0.994,0.741-1.632C146.78,89.816,141.474,88.787,136.558,87.707z M152.485,85.076L152.485,85.076l-0.182-0.03
		L152.485,85.076z M151.94,84.987c-0.727-0.119-1.449-0.243-2.169-0.368C150.491,84.744,151.214,84.867,151.94,84.987z
		 M149.411,84.556c-0.78-0.136-1.556-0.276-2.327-0.421C147.857,84.279,148.631,84.419,149.411,84.556z M146.728,84.069
		c-1.482-0.28-2.952-0.572-4.401-0.88C143.778,83.494,145.243,83.789,146.728,84.069z"/>
	<path fill="#9EC44D" d="M101.787,20.956c0,5.024-4.073,9.098-9.098,9.098c-5.026,0-9.098-4.073-9.098-9.098
		s4.072-9.098,9.098-9.098C97.714,11.858,101.787,15.93,101.787,20.956z"/>
	<path fill="#9EC44D" d="M132.233,18.098c0,5.024-4.073,9.096-9.098,9.096c-5.023,0-9.098-4.072-9.098-9.096S118.111,9,123.135,9
		C128.159,9,132.233,13.073,132.233,18.098z"/>
	<path fill="#9EC44D" d="M216.721,90.853c2.317-0.188,4.626-0.418,6.926-0.689c-2.641,3.184-5.284,5.762,0.056,8.032
		c2.995,1.274,13.659,2.198,14.953-0.526c1.007-2.12-1.53-5.311-0.892-7.855c0.162-0.655,0.583-1.412,1.116-2.162
		c3.288-0.707,6.535-1.52,9.73-2.447c16.635-4.833,31.375-12.385,48.83-14.818c20.48-2.858,42.891,1.652,62.727-2.479
		c-10.79-3.125-21.604-5.03-32.848-6.598c-8.507-1.186-16.569-3.628-25.01-4.668c-1.349-1.067-2.676-2.159-4.243-2.94
		c-4.059-2.028-6.122,0.791-10.113-0.862c-2.33-0.965-1.609-2.718-4.579-2.624c-2.104,0.066-2.509,2.697-5.372,2.165
		c-2.773-0.517-6.853-7.335-9.055-1.119c-4.421,1.392-3.47-3.156-6.86-3.923c-3.417-0.777-3.931,3.515-7.509,3.023
		c-3.023-0.417-2.963-3.558-6.601-3.135c-3.072,0.355-2.732,3.77-6.838,1.627c-3.199-1.668-2.628-4.84-6.999-4.131
		c-3.314,0.537-2.437,2.853-6.575,1.764c-3.052-0.801-2.898-2.177-6.739-1.505c-2.594,0.454-4.463,2.416-7.47,0.773
		c-1.301-0.71-1.735-3.324-3.575-3.895c-2.33-0.725-3.562,0.901-5.53,1.396c-5.807,1.458-5.156-0.572-9.829-2.478
		c-4.328-1.762-4.958,2.637-9.586,1.614c-4.088-0.902-3.948-5.074-8.967-4.119c-2.267,0.431-3.884,2.4-5.859,3.358
		c-1.846-0.181-3.681-0.394-5.5-0.665c-2.557-1.879-2.529-4.849-7.575-3.691c-1.856,0.424-2.4,1.952-3.877,1.929l-0.579-0.082
		c-0.269-0.066-0.564-0.178-0.896-0.343c-1.646-0.819-1.428-4.579-3.602-5.291c-1.985-0.651-4.634,1.254-6.765,3.064
		c-0.745-0.294-1.455-0.62-2.113-0.981c-3.826-11.943-15.017-20.591-28.229-20.591c-13.784,0-25.37,9.409-28.686,22.155
		c-6.035,1.115-13.272,5.849-19.011,7.361c-5.444,1.433-13.101,4.938-18.807,3.861c-4.756-0.899-5.84-5.51-11.457-6.452
		c-5.915-0.99-10.393,1.422-10.464,8.019c-1.204-3.295-6.127-5.152-9.574-2.699C8.934,50.024,9,54.981,9,59.313
		c0.003,9.533,5.689,13.836,14.869,14.026c-4.642,29.539,73.07,8.069,85.759,3.786c2.447-0.827,4.491-1.752,6.33-2.795
		c8.829,4.882,21.509,8.224,35.049,10.504c-0.421,0.929-1.047,1.91-1.9,2.996c-2.805,3.575-6.423,6.405-0.623,8.871
		c2.995,1.274,13.661,2.198,14.955-0.526c1.005-2.119-1.528-5.311-0.893-7.855c0.131-0.521,0.424-1.109,0.809-1.708
		c29.413,3.601,58.649,3.046,58.649,3.046C220.253,90.097,218.492,90.492,216.721,90.853z"/>
	<path fill="#F8F8F9" d="M98.87,20.956c0,3.413-2.768,6.179-6.179,6.179c-3.414,0-6.179-2.766-6.179-6.179s2.766-6.179,6.179-6.179
		C96.102,14.775,98.87,17.542,98.87,20.956z"/>
	<path fill="#F8F8F9" d="M129.314,18.098c0,3.413-2.766,6.179-6.179,6.179c-3.413,0-6.179-2.766-6.179-6.179
		s2.768-6.179,6.179-6.179C126.548,11.917,129.314,14.684,129.314,18.098z"/>
	<path d="M96.01,20.789c0,1.926-1.56,3.487-3.487,3.487c-1.926,0-3.487-1.561-3.487-3.487s1.561-3.487,3.487-3.487
		S96.01,18.863,96.01,20.789z"/>
	<path fill="#69191B" d="M16.027,50.927c0,1.083-0.879,1.962-1.962,1.962c-1.084,0-1.962-0.879-1.962-1.962
		c0-1.083,0.878-1.962,1.962-1.962C15.147,48.965,16.027,49.844,16.027,50.927z"/>
	<path fill="#69191B" d="M32.215,47.192c0,1.083-0.878,1.961-1.961,1.961c-1.084,0-1.962-0.878-1.962-1.961
		c0-1.083,0.878-1.962,1.962-1.962C31.338,45.23,32.215,46.109,32.215,47.192z"/>
	<path d="M126.623,18.096c0,1.926-1.56,3.487-3.487,3.487s-3.487-1.561-3.487-3.487s1.56-3.487,3.487-3.487
		S126.623,16.172,126.623,18.096z"/>
	<path fill="none" stroke="#28492A" d="M24.277,72.597c1.38-3.334,6.011,0.06,8.955,0.51c4.645,0.707,6.571-3.17,10.485-3.509
		c1.629-0.141,2.712,1.731,4.47,1.501c2.116-0.276,2.613-1.982,4.346-2.626c4.424-1.637,6.828,0.496,11.096,0.633
		c4.84,0.157,5.994-3.338,10.073-4.868c3.976-1.491,6.675,1.972,10.349,0.909c4.983-1.442,3.005-4.32,9.079-3.137
		c5.933,1.156,4.596-1.017,9.368-2.377c4.227-1.205,6.423,1.601,7.956-4.474"/>
	<path fill="#54924D" d="M141.342,40.715c1.78-3.263,9.754-6.585,7.895,1.443c-2.167-0.447-5.405-0.697-7.397-0.945L141.342,40.715z
		"/>
	<path fill="#54924D" d="M153.296,43.206c1.78-3.263,9.754-6.585,7.895,1.443c-2.167-0.447-5.405-0.697-7.397-0.945L153.296,43.206z
		"/>
	<path fill="#54924D" d="M172.227,44.203c1.781-3.263,9.754-6.585,7.895,1.443c-2.167-0.448-5.405-0.697-7.397-0.945L172.227,44.203
		z"/>
	<path fill="#54924D" d="M188.167,45.696c1.781-3.262,9.754-6.585,7.897,1.443c-2.167-0.447-5.406-0.697-7.398-0.945L188.167,45.696
		z"/>
	<path fill="#54924D" d="M202.614,46.195c1.78-3.262,9.754-6.585,7.895,1.443c-2.167-0.447-5.405-0.695-7.398-0.945L202.614,46.195z
		"/>
	<path fill="#54924D" d="M216.563,49.682c1.78-3.263,9.754-6.585,7.894,1.443c-2.167-0.447-5.403-0.697-7.397-0.945L216.563,49.682z
		"/>
	<path fill="#54924D" d="M229.014,49.682c1.781-3.263,9.754-6.585,7.897,1.443c-2.167-0.447-5.405-0.697-7.398-0.945L229.014,49.682
		z"/>
	<path fill="#54924D" d="M243.462,51.674c1.78-3.262,9.754-6.584,7.895,1.443c-2.167-0.447-5.405-0.695-7.397-0.945L243.462,51.674z
		"/>
	<path fill="#54924D" d="M207.096,65.203c2.338-4.282,12.803-8.642,10.364,1.894c-2.845-0.586-7.095-0.913-9.711-1.24
		L207.096,65.203z"/>
	<path fill="#54924D" d="M187.17,58.727c2.338-4.282,12.803-8.642,10.364,1.894c-2.844-0.586-7.094-0.913-9.709-1.24L187.17,58.727z
		"/>
	<path fill="#54924D" d="M161.266,65.203c2.338-4.282,12.803-8.642,10.364,1.894c-2.844-0.586-7.094-0.913-9.709-1.24
		L161.266,65.203z"/>
	<path fill="#54924D" d="M154.293,52.75c2.337-4.282,12.803-8.642,10.363,1.894c-2.844-0.587-7.094-0.913-9.709-1.241L154.293,52.75
		z"/>
	<path fill="#54924D" d="M134.864,61.716c2.338-4.28,12.805-8.642,10.364,1.894c-2.844-0.586-7.095-0.913-9.709-1.24L134.864,61.716
		z"/>
	<path fill="#54924D" d="M181.691,69.189c2.338-4.282,12.803-8.642,10.364,1.893c-2.845-0.586-7.095-0.912-9.711-1.24
		L181.691,69.189z"/>
	<path fill="#54924D" d="M197.134,78.156c2.338-4.28,12.803-8.642,10.364,1.895c-2.844-0.586-7.094-0.913-9.709-1.241
		L197.134,78.156z"/>
	<path fill="#54924D" d="M243.462,62.712c2.337-4.282,12.803-8.642,10.363,1.894c-2.844-0.586-7.094-0.913-9.709-1.241
		L243.462,62.712z"/>
	<path fill="#54924D" d="M225.03,74.17c2.337-4.28,12.803-8.642,10.363,1.894c-2.844-0.586-7.094-0.913-9.709-1.24L225.03,74.17z"/>
	<path fill="#54924D" d="M166.747,79.151c2.337-4.282,12.803-8.642,10.363,1.894c-2.844-0.587-7.094-0.913-9.709-1.241
		L166.747,79.151z"/>
	<path fill="#54924D" d="M138.85,74.668c2.338-4.28,12.803-8.642,10.364,1.895c-2.845-0.586-7.094-0.913-9.711-1.24L138.85,74.668z"
		/>
	<path fill="#54924D" d="M256.912,71.181c2.337-4.28,12.803-8.642,10.363,1.894c-2.844-0.586-7.094-0.913-9.709-1.24L256.912,71.181
		z"/>
	<path fill="#54924D" d="M223.536,59.723c2.337-4.282,12.803-8.642,10.363,1.893c-2.844-0.586-7.094-0.912-9.709-1.24
		L223.536,59.723z"/>
</g>
</svg>
