<?xml version="1.0" encoding="utf-8"?>
<!-- Generator: Adobe Illustrator 17.0.0, SVG Export Plug-In . SVG Version: 6.00 Build 0)  -->
<!DOCTYPE svg PUBLIC "-//W3C//DTD SVG 1.1 Basic//EN" "http://www.w3.org/Graphics/SVG/1.1/DTD/svg11-basic.dtd">
<svg version="1.1" baseProfile="basic" id="Слой_1"
	 xmlns="http://www.w3.org/2000/svg" xmlns:xlink="http://www.w3.org/1999/xlink" x="0px" y="0px" width="60.903px"
	 height="60.939px" viewBox="0 0 60.903 60.939" xml:space="preserve">
<path fill="#CE9536" d="M53.694,3.918c-1.856,0.424-2.4,1.952-3.877,1.929l-0.579-0.082c-0.269-0.066-0.564-0.178-0.896-0.343
	c-1.646-0.819-1.428-4.579-3.602-5.291c-1.985-0.651-4.634,1.254-6.765,3.064c-0.345-0.136-0.679-0.281-1.007-0.431
	c0.062,0.778,0.102,1.561,0.102,2.355c0,16.044-12.822,29.085-28.777,29.457C6.539,38.746,3.231,42.203,0,45.725
	c0.455-0.131,0.9-0.259,1.322-0.383c3.758,1.346,15.769,5.446,31.994,9.011c-1.045,1.071-1.843,2.003-1.921,2.59
	c-0.494,3.716,4.764,2.391,7.373,2.391c0.723,0,2.04,0.136,3.481,0.24c-0.122,0.438-0.138,0.863-0.014,1.277
	c0.042,0.141,0.304,0.108,0.367-0.048c7.225-17.704,14.267-34.995,18.301-53.488C58.707,5.438,58.484,2.819,53.694,3.918z"/>
</svg>
