<?xml version="1.0" encoding="utf-8"?>
<!-- Generator: Adobe Illustrator 17.0.0, SVG Export Plug-In . SVG Version: 6.00 Build 0)  -->
<!DOCTYPE svg PUBLIC "-//W3C//DTD SVG 1.1 Basic//EN" "http://www.w3.org/Graphics/SVG/1.1/DTD/svg11-basic.dtd">
<svg version="1.1" baseProfile="basic" id="Слой_1"
	 xmlns="http://www.w3.org/2000/svg" xmlns:xlink="http://www.w3.org/1999/xlink" x="0px" y="0px" width="75.982px"
	 height="82.753px" viewBox="0 0 75.982 82.753" xml:space="preserve">
<path fill="#42BCAA" d="M63.261,26.762c-4.419-3.668-9.197-5.493-14.182-6.422c-11.963-2.228-25.123,0.745-37.412-3.929
	c-3.404-1.777-5.729-5.528-6.487-9.039c0.331-8.617-1.24-7.485-1.955-7.109c-4.544,4.046-3.498,11.78-1.633,16.8
	c4.364,10.569,16.151,11.779,25.557,13.009c0.153,0.627,0.459,1.189,0.989,1.612c1.746,1.128,3.29-0.574,4.891-1.136
	c1.423,0.16,2.41,1.847,3.395,2.764c0.319,0.169,0.625,0.24,0.927,0.275c1.531,0.176,2.883-1.096,4.361-1.286
	c1.148,0.556,0.977,1.905,1.225,2.94c0.754,2.814,3.956,1.687,5.573,3.286c0.599,1.343-1.014,2.125-1.502,3.206
	c-1.305,2.114,0.596,3.871,0.426,5.991c-0.432,0.68-1.234,1.419-1.98,1.686c-1.887,0.332-3.385-0.603-4.566-2.04
	c-2.351-1.939-4.875-0.025-7.091,1.292c-0.021,8.27,2.948,16.568,8.992,23.131c6.577,7.141,15.502,10.819,24.499,10.96
	c-0.025-0.117-0.049-0.236-0.075-0.353c2.285-3.506,4.279-7.097,5.844-10.924C79.146,55.906,75.659,38.073,63.261,26.762z"/>
</svg>
