<?xml version="1.0" encoding="utf-8"?>
<!-- Generator: Adobe Illustrator 17.0.0, SVG Export Plug-In . SVG Version: 6.00 Build 0)  -->
<!DOCTYPE svg PUBLIC "-//W3C//DTD SVG 1.1 Basic//EN" "http://www.w3.org/Graphics/SVG/1.1/DTD/svg11-basic.dtd">
<svg version="1.1" baseProfile="basic" id="Слой_1"
	 xmlns="http://www.w3.org/2000/svg" xmlns:xlink="http://www.w3.org/1999/xlink" x="0px" y="0px" width="84.795px"
	 height="137.084px" viewBox="0 0 84.795 137.084" xml:space="preserve">
<path fill="#B76153" d="M81.931,25.589C88.681,18.55,81.382,0,81.382,0s-7.021,14.704-18.513,16.447
	C51.373,18.19,47.862-3.932,25.065,4.932C2.262,13.799-5.751,32.808,4.211,50.699c9.967,17.889,25.618,8.548,38.411,8.756
	c1.588,0.026,3.103,0.132,4.544,0.325c10.427,1.402,16.87,7.493,17.493,22.515c0.39,9.377-10.421,15.897-16.174,18.693
	c-5.79-3.31-14.168-5.527-24.066-6.935c-0.264,4.625,0.261,9.373,1.673,14.066c5.1,16.945,20.24,28.111,36.954,28.965
	c-0.283-10.368-1.651-24.452-9.838-32.55c5.974-2.873,19.554-10.919,21.124-25.292c1.078-9.909-2.424-18.133-8.287-23.624
	c-3.39-3.175-7.566-5.439-12.109-6.579c-11.92-2.994-22.02,1.477-28.864-4.618c-7.848-6.992-2.243-16.494-2.243-16.494
	s2.827,5.587,6.44,9.508c3.613,3.921,8.547,4.152,8.547,4.152s-4.689-4.169-3.302-8.592c1.39-4.424,3.47-6.053,3.47-6.053
	s1.379,15.038,14.005,17.532c12.63,2.495,28.235-10.787,28.235-10.787s-6.314,0.899-11.827-0.304
	c-5.511-1.202-9.218-6.381-9.218-6.381S75.178,32.63,81.931,25.589z"/>
</svg>
