<?xml version="1.0" encoding="utf-8"?>
<!-- Generator: Adobe Illustrator 17.0.0, SVG Export Plug-In . SVG Version: 6.00 Build 0)  -->
<!DOCTYPE svg PUBLIC "-//W3C//DTD SVG 1.1 Basic//EN" "http://www.w3.org/Graphics/SVG/1.1/DTD/svg11-basic.dtd">
<svg version="1.1" baseProfile="basic" id="Слой_1"
	 xmlns="http://www.w3.org/2000/svg" xmlns:xlink="http://www.w3.org/1999/xlink" x="0px" y="0px" width="33.616px"
	 height="145.136px" viewBox="0 0 33.616 145.136" xml:space="preserve">
<path fill="#BAAE52" d="M33.567,29.558C33.905,15.873,32.54,3.004,27.54,1.076c-7.838-3.02-13.555,1.025-16.12,3.495
	C8.34,1.985,4.099,0.806,0.133,0.316C0.019,1.199-0.04,2.096-0.04,3.003c0,9.666,6.6,18.124,16.466,22.771
	c0.766-7.164-0.116-13.398-1.83-17.099c2.164-2.272,7.59-7.286,11.167-4.672c2.717,1.987,3.351,12.373,2.727,25.221
	c-0.421,8.674-1.414,18.468-2.727,27.561c-1.303,9.005-5.549,33.503-6.668,39.935c-3.749,0.295-6.917,3.824-7.733,5.331
	c-2.423,4.486-4.58,10.724-4.58,15.351c0,4.961,2.067,8.932,2.067,8.932s0.413-5.29,1.069-7.155c0.91-2.575,2.604-3.71,2.604-3.71
	s0.465,2.227,0.62,6.008c0.113,2.724-0.558,3.518-2.493,8.636c-1.936,5.118,1.54,9.955,1.54,9.955s0.077-5.009,1.041-7.099
	c1.47-3.187,2.897-5.017,2.897-5.017s2.236,3.523,2.623,6.41c0.61,4.572,0.045,10.774,0.045,10.774s3.211-5.669,4.048-9.381
	c0.542-2.391-1.076-6.966-1.076-6.966s3.004,3.769,4.813,4.875c2.85,1.741,6.496,0.21,6.496,0.21s-7.743-1.532-9.965-13.37
	c-1.091-5.818,6.211-17.758,0.691-22.216c-0.383-0.309-0.767-0.563-1.15-0.775c0.732-3.581,6.124-29.991,8.092-40.033
	C32.101,50.569,33.314,39.833,33.567,29.558z"/>
</svg>
