<?xml version="1.0" encoding="utf-8"?>
<!-- Generator: Adobe Illustrator 17.0.0, SVG Export Plug-In . SVG Version: 6.00 Build 0)  -->
<!DOCTYPE svg PUBLIC "-//W3C//DTD SVG 1.1 Basic//EN" "http://www.w3.org/Graphics/SVG/1.1/DTD/svg11-basic.dtd">
<svg version="1.1" baseProfile="basic" id="Слой_1"
	 xmlns="http://www.w3.org/2000/svg" xmlns:xlink="http://www.w3.org/1999/xlink" x="0px" y="0px" width="273.958px"
	 height="218.479px" viewBox="0 0 273.958 218.479" xml:space="preserve">
<g>
	<path fill="#FFFFFF" stroke="#FFFFFF" stroke-width="6" stroke-miterlimit="10" d="M252.186,93.941
		c-2.439-14.164-2.029-17.168-2.029-17.168c1.86-1.523,3.727-3.039,5.594-4.562c13.526-11.028,3.872-16.58-7.567-15.663
		c-22.594,1.808-36.546,12.009-63.14,10.35c-24.876-1.546-39.726-1.199-53.036-4.169c-2.805-0.626-5.551-1.377-8.342-2.221
		l0.098-0.687c0,0-2.65-0.829-5.736-1.768v-2.09l1.043-4.396v-5.503l-2.608,6.598l-1.51,4.464c-3.07-0.915-5.868-1.71-6.314-1.711
		l-0.04,0.153c-7.764-2.573-16.809-5.396-28.581-8.067c-0.08-7.252-0.393-14.654-0.393-21.115c0-3.305-2.473-7.435-2.473-10.321
		c0-0.415-0.686-2.707-1.242-2.891s-0.412,4.542-0.412,4.955c0,5.822-0.644,16.145-3.345,21.047
		c-0.155-1.653-0.247-3.67-0.247-6.131C71.908,17.632,65.891,7.948,65.435,8s0.702,30.63-4.985,31.695v-0.003
		c-8.123,1.518-19.566,3.608-24.821,8.594c-6.757,6.41-8.984,15.787-10.207,15.572c-3.968-0.697-7.017-1.893-9.606-2.772
		c0-0.001,0-0.002,0.001-0.002h0.002c-0.089-0.03-0.173-0.056-0.261-0.086c-0.013-0.004-0.027-0.009-0.04-0.013
		c-0.311-0.104-0.616-0.203-0.915-0.295c-0.039-0.012-0.078-0.023-0.117-0.035c-0.272-0.083-0.541-0.161-0.803-0.231
		c-0.07-0.019-0.138-0.033-0.207-0.051c-0.231-0.059-0.461-0.115-0.686-0.161c-0.098-0.02-0.195-0.034-0.292-0.052
		c-0.194-0.035-0.39-0.072-0.58-0.096c-0.123-0.016-0.244-0.022-0.366-0.033c-0.163-0.015-0.328-0.033-0.489-0.039
		c-0.146-0.005-0.29,0.004-0.435,0.007c-0.136,0.003-0.273,0-0.408,0.01c-0.17,0.014-0.339,0.045-0.508,0.071
		c-0.109,0.017-0.219,0.025-0.328,0.048c-0.234,0.049-0.468,0.118-0.702,0.195c-0.043,0.014-0.086,0.021-0.128,0.036
		c-0.012,0.004-0.023,0.023-0.034,0.03c-0.032,0.02-0.065,0.04-0.094,0.081c-0.018,0.026-0.034,0.07-0.051,0.105
		c-0.02,0.04-0.04,0.074-0.058,0.125c-0.016,0.046-0.03,0.108-0.045,0.163c-0.016,0.058-0.032,0.111-0.047,0.178
		c-0.013,0.063-0.024,0.14-0.036,0.211c-0.013,0.076-0.026,0.149-0.038,0.234c-0.01,0.078-0.019,0.167-0.028,0.252
		c-0.01,0.095-0.021,0.188-0.03,0.292c-0.008,0.091-0.014,0.191-0.021,0.288c-0.008,0.113-0.016,0.224-0.022,0.344
		c-0.005,0.102-0.009,0.211-0.014,0.318c-0.005,0.131-0.011,0.262-0.015,0.401c-0.003,0.107-0.005,0.22-0.008,0.332
		c-0.003,0.152-0.006,0.305-0.008,0.466c-0.001,0.11-0.002,0.224-0.002,0.337c-0.001,0.174-0.002,0.349-0.001,0.53
		c0,0.109,0.001,0.222,0.002,0.334c0.001,0.198,0.003,0.399,0.006,0.605c0.001,0.101,0.003,0.203,0.005,0.306
		c0.004,0.228,0.008,0.459,0.013,0.696c0.002,0.088,0.004,0.176,0.006,0.265c0.006,0.261,0.013,0.526,0.021,0.795
		c0.002,0.065,0.004,0.13,0.006,0.196c0.009,0.312,0.019,0.628,0.03,0.949c0.001,0.017,0.001,0.034,0.002,0.051
		c0.221,6.444,0.755,14.396,0.496,16.614c-0.986,8.341,6.43,17.366,19.652,20.977c19.962,5.45,48.988,0.838,60.396-0.178
		l-1.908,2.684c-0.932,1.312,2.99,3.407,7.54,5.063l-0.757,3.191l-3.126,7.7l4.168-1.099l3.132-7.152l0.516-1.364
		c3.963,1.133,7.495,1.672,7.829,0.811l0.7-1.805c2.716,5.065,6.504,12.939,10.516,21.919c3.981,20.471,6.764,40.965,4.378,46.879
		c-0.897,2.219-10.206-2.629-12.086,8.171c-1.356,5.461,20.048,3.883,22.434,3.341c0.237,0.684,0.966-4.85,2.852-13.461
		c2.456,7.93,3.796,14.254,3.208,17.345c-0.446,2.349-10.519-0.586-10.252,10.37c-0.263,5.626,22.198,1.57,22.818,2.624
		c0.722,1.232-1.861-25.321,2.875-49.686c11.644,6.085,49.762,2.456,65.558-4.555c7.843,8.769,13.657,18.695,5.067,23.491
		c-6.04,3.377-21.696,12.707,6.701,12.238l8.746-0.141c3.247-0.055,4.735-5.427,5.062-13.914c3.985,6.319,5.142,12.302-0.95,15.705
		c-6.043,3.377-21.701,12.708,6.698,12.236l8.748-0.143C271.801,206.898,257.608,125.394,252.186,93.941z"/>
	<polygon fill="#FFFFFF" stroke="#FFFFFF" stroke-width="6" stroke-miterlimit="10" points="108.638,55.415 108.639,55.415 
		108.639,55.415 	"/>
</g>
<g id="РЎР_x00bb_РѕР_x2116__x0020_1">
	<path fill="#99707C" d="M203.15,142.486c6.827,6.078,36,30.235,20.947,38.64c-6.04,3.377-21.696,12.707,6.701,12.238l8.746-0.141
		c9.734-0.164,3.67-48.07-2.132-84.602C225.412,115.922,212.922,128.479,203.15,142.486L203.15,142.486z"/>
	<path fill="#93737D" d="M116.144,131.088c4.54,22.181,8.08,45.951,5.479,52.398c-0.897,2.219-10.206-2.629-12.086,8.171
		c-1.356,5.461,20.048,3.883,22.434,3.341c0.468,1.349,2.839-21.455,12.245-44.426c1.192-2.919,2.026-3.619,3.535-2.976
		c-9.5-12.126-20.782-16.843-31.606-16.507v-0.001H116.144z"/>
	<path fill="#AE9BA5" d="M60.45,39.692c-8.123,1.518-19.566,3.608-24.821,8.594c-6.757,6.41-8.984,15.787-10.207,15.572
		c-8.211-1.443-12.508-5.031-16.868-3.497c-1.46,0.512,0.482,21.649,0.033,25.498c-0.986,8.341,6.43,17.366,19.652,20.977
		c21.566,5.888,53.727,0.029,62.805-0.349l13.336,4.098c7.46,11.71,36.004,75.919,33.651,88.297
		c-0.446,2.349-10.519-0.586-10.252,10.37c-0.263,5.626,22.198,1.57,22.818,2.624c0.722,1.232-1.861-25.321,2.875-49.686
		c12.534,6.55,55.761,1.847,68.782-6.217c5.857,5.319,36.811,30.434,21.402,39.041c-6.043,3.377-21.701,12.708,6.698,12.236
		l8.748-0.143c12.699-0.209-1.494-81.713-6.916-113.166c-2.439-14.164-2.029-17.168-2.029-17.168
		c1.86-1.523,3.727-3.039,5.594-4.562c13.526-11.028,3.872-16.58-7.567-15.663c-22.594,1.808-36.546,12.009-63.14,10.35
		c-24.876-1.546-39.726-1.199-53.036-4.169c-14.255-3.183-26.964-9.549-51.99-15.228c-0.08-7.252-0.393-14.654-0.393-21.115
		c0-3.305-2.473-7.435-2.473-10.321c0-0.415-1.242-2.476-1.242-2.891c0,0-0.412,4.542-0.412,4.955
		c0,5.822-0.644,16.145-3.345,21.047c-0.155-1.653-0.247-3.67-0.247-6.131C71.908,17.632,65.435,8,65.435,8
		s0.702,30.63-4.985,31.695C60.45,39.695,60.45,39.692,60.45,39.692z"/>
	<path fill="#2B2A29" d="M15.819,61.084c-2.773-0.945-5.014-1.515-7.266-0.723c-0.759,0.268-0.597,6.13-0.329,12.232
		c1.413-0.535,2.71-1.674,3.687-2.652c2.179-2.18,3.229-5.492,3.906-8.857H15.819z"/>
	<path fill="#D3BCC8" d="M108.639,55.415l-5.218,19.812l-7.305,20.909l-9.389,13.206c-2.007,2.823,18.475,9.283,19.302,7.15
		l4.693-12.103l7.827-20.909l3.653-12.654l1.562-11.005C123.764,59.821,109.682,55.415,108.639,55.415
		C108.638,55.415,108.639,55.415,108.639,55.415z"/>
	<polygon fill="#F1D6C9" points="113.856,60.368 116.463,52.662 119.071,46.064 119.071,51.567 118.028,55.963 118.028,60.921 	"/>
	<polygon fill="#F1D6C9" points="95.076,110.992 93.51,117.596 90.384,125.296 94.552,124.197 97.684,117.045 98.725,114.293 
		99.769,111.543 	"/>
	<path fill="#F1D6C9" d="M105.508,90.631l3.131,4.951c1.043-3.299,0.521-7.701,0.521-7.701l-3.131-2.203L105.508,90.631z"/>
	<path fill="#F1D6C9" d="M111.248,73.574l1.043-3.852h3.131l5.215,1.104l-5.74,1.649C114.897,72.475,110.204,72.476,111.248,73.574
		L111.248,73.574z"/>
	<polygon fill="#F1D6C9" points="103.811,103.835 106.551,100.538 105.768,97.233 101.856,100.538 	"/>
	<path fill="#2B2A29" d="M42.943,52.124c1.261,0.65,1.271,3.146,0.024,5.587c-1.247,2.433-3.283,3.893-4.544,3.249
		c-1.261-0.646-1.271-3.148-0.023-5.584c1.247-2.441,3.283-3.893,4.543-3.249V52.124z"/>
	<path fill="#FFFFFF" d="M12.534,64.767c-1.267,0.245-2.162-1.311-0.911-2.535C14.018,59.902,15.634,64.178,12.534,64.767
		L12.534,64.767z"/>
</g>
</svg>
