<?xml version="1.0" encoding="utf-8"?>
<!-- Generator: Adobe Illustrator 17.0.0, SVG Export Plug-In . SVG Version: 6.00 Build 0)  -->
<!DOCTYPE svg PUBLIC "-//W3C//DTD SVG 1.1 Basic//EN" "http://www.w3.org/Graphics/SVG/1.1/DTD/svg11-basic.dtd">
<svg version="1.1" baseProfile="basic" id="Слой_1"
	 xmlns="http://www.w3.org/2000/svg" xmlns:xlink="http://www.w3.org/1999/xlink" x="0px" y="0px" width="273.958px"
	 height="218.479px" viewBox="0 0 273.958 218.479" xml:space="preserve">
<g>
	<path fill="#FFFFFF" stroke="#FFFFFF" stroke-width="6" stroke-miterlimit="10" d="M252.185,93.941
		c-0.175-1.014-0.333-1.965-0.48-2.867c-3.403,1.294-7.091,2.009-10.948,2.009c-16.106,0-29.316-12.361-30.682-28.113
		c-7.355,1.561-15.355,2.531-25.032,1.928c-24.876-1.546-39.726-1.199-53.036-4.169c-2.805-0.626-5.551-1.377-8.341-2.221
		l0.098-0.687c0,0-2.65-0.829-5.736-1.768v-2.09l1.043-4.396v-5.503l-2.609,6.598l-1.51,4.464c-3.069-0.914-5.867-1.71-6.313-1.711
		l-0.04,0.153c-7.764-2.572-16.81-5.395-28.582-8.067c-0.08-7.252-0.393-14.654-0.393-21.115c0-3.305-2.473-7.435-2.473-10.321
		c0-0.415,0.147-3.134-1.242-2.891s-0.412,4.542-0.412,4.955c0,5.822-0.644,16.145-3.345,21.047
		c-0.155-1.653-0.247-3.67-0.247-6.131C71.908,17.632,66.036,7.583,65.435,8s0.702,30.63-4.985,31.695v-0.002
		c-8.123,1.518-19.565,3.608-24.821,8.594c-6.757,6.41-8.984,15.787-10.207,15.572c-3.968-0.697-7.017-1.893-9.605-2.772
		c0-0.001,0-0.002,0.001-0.003h0.002c-0.424-0.144-0.832-0.276-1.233-0.399c-0.018-0.005-0.035-0.01-0.053-0.016
		c-0.29-0.089-0.576-0.171-0.855-0.245c-0.062-0.016-0.122-0.029-0.183-0.045c-0.238-0.06-0.475-0.119-0.706-0.166
		c-0.096-0.02-0.19-0.033-0.286-0.05c-0.196-0.036-0.393-0.072-0.586-0.097c-0.124-0.016-0.246-0.022-0.369-0.033
		c-0.162-0.015-0.325-0.033-0.485-0.038c-0.151-0.005-0.299,0.004-0.449,0.008c-0.131,0.003-0.264,0-0.394,0.01
		c-0.183,0.015-0.364,0.047-0.546,0.076c-0.096,0.016-0.193,0.022-0.289,0.042c-0.278,0.058-0.555,0.134-0.833,0.232
		c-0.047,0.016-0.09,0.055-0.13,0.113c-0.01,0.014-0.018,0.04-0.028,0.057c-0.029,0.051-0.057,0.104-0.082,0.176
		c-0.01,0.029-0.018,0.07-0.028,0.102c-0.022,0.075-0.044,0.15-0.063,0.243c-0.009,0.042-0.016,0.094-0.024,0.14
		c-0.018,0.098-0.035,0.196-0.05,0.31c-0.007,0.053-0.013,0.115-0.019,0.172c-0.014,0.121-0.027,0.244-0.039,0.38
		c-0.005,0.06-0.009,0.126-0.013,0.188c-0.011,0.145-0.021,0.292-0.029,0.451c-0.003,0.068-0.006,0.141-0.009,0.211
		c-0.007,0.166-0.014,0.336-0.019,0.515c-0.002,0.071-0.003,0.146-0.005,0.219c-0.004,0.19-0.008,0.384-0.01,0.587
		c-0.001,0.07-0.001,0.142-0.001,0.214c-0.001,0.215-0.002,0.434-0.002,0.66c0,0.068,0.001,0.137,0.001,0.206
		c0.001,0.244,0.004,0.492,0.007,0.747c0.001,0.051,0.002,0.103,0.002,0.155c0.004,0.278,0.009,0.561,0.016,0.851
		c0.001,0.038,0.002,0.076,0.003,0.114c0.007,0.316,0.016,0.638,0.025,0.966c0,0.005,0,0.011,0,0.016
		c0.192,6.605,0.805,15.361,0.531,17.705c-0.986,8.341,6.43,17.366,19.652,20.977c19.963,5.45,48.989,0.838,60.397-0.178
		l-1.908,2.684c-0.932,1.312,2.99,3.407,7.539,5.062l-0.757,3.191l-3.126,7.701l4.168-1.099l3.132-7.152l0.516-1.364
		c3.964,1.133,7.496,1.672,7.83,0.811l0.699-1.803c2.716,5.065,6.504,12.939,10.516,21.919c3.981,20.471,6.764,40.964,4.378,46.878
		c-0.897,2.219-10.206-2.629-12.086,8.171c-1.356,5.461,20.048,3.883,22.434,3.341c0.237,0.684,0.966-4.85,2.852-13.46
		c2.456,7.93,3.795,14.254,3.208,17.344c-0.446,2.349-10.519-0.586-10.252,10.37c-0.263,5.626,22.198,1.57,22.818,2.624
		c0.721,1.232-1.862-25.321,2.875-49.686c11.644,6.085,49.762,2.456,65.559-4.556c7.843,8.769,13.658,18.695,5.067,23.492
		c-6.04,3.377-21.696,12.707,6.701,12.238l8.746-0.141c3.247-0.055,4.735-5.427,5.062-13.914c3.984,6.319,5.141,12.302-0.951,15.704
		c-6.043,3.377-21.701,12.708,6.698,12.236l8.748-0.143C271.801,206.898,257.607,125.393,252.185,93.941z"/>
	<polygon fill="#FFFFFF" stroke="#FFFFFF" stroke-width="6" stroke-miterlimit="10" points="108.638,55.415 108.639,55.415 
		108.639,55.415 	"/>
</g>
<g>
	<g>
		<path fill="#99707C" d="M203.15,142.486c6.827,6.078,36,30.235,20.947,38.64c-6.04,3.377-21.696,12.707,6.701,12.238l8.746-0.141
			c9.734-0.164,3.67-48.07-2.132-84.602C225.412,115.922,212.922,128.479,203.15,142.486L203.15,142.486z"/>
		<path fill="#93737D" d="M116.144,131.088c4.54,22.181,8.08,45.951,5.479,52.398c-0.897,2.219-10.206-2.629-12.086,8.171
			c-1.356,5.461,20.048,3.883,22.434,3.341c0.468,1.349,2.839-21.455,12.245-44.426c1.192-2.919,2.026-3.619,3.535-2.976
			c-9.5-12.126-20.782-16.843-31.606-16.507V131.088z"/>
		<path fill="#AE9BA5" d="M251.706,91.074c-3.403,1.294-7.091,2.009-10.948,2.009c-16.106,0-29.316-12.361-30.682-28.113
			c-7.355,1.561-15.355,2.531-25.032,1.928c-24.876-1.546-39.726-1.199-53.036-4.169c-14.255-3.183-26.964-9.549-51.99-15.228
			c-0.08-7.252-0.393-14.654-0.393-21.115c0-3.305-2.473-7.435-2.473-10.321c0-0.415-1.242-2.476-1.242-2.891
			c0,0-0.412,4.541-0.412,4.955c0,5.822-0.644,16.145-3.345,21.047c-0.155-1.653-0.247-3.67-0.247-6.131
			C71.908,17.632,65.435,8,65.435,8s0.702,30.63-4.985,31.695v-0.002c-8.123,1.518-19.565,3.608-24.821,8.594
			c-6.757,6.41-8.984,15.787-10.207,15.572c-8.211-1.443-12.508-5.031-16.869-3.497C7.094,60.873,9.037,82.01,8.587,85.859
			c-0.986,8.341,6.43,17.366,19.652,20.977c21.566,5.888,53.727,0.029,62.805-0.349l13.336,4.098
			c7.46,11.71,36.003,75.919,33.651,88.297c-0.446,2.349-10.519-0.586-10.252,10.37c-0.263,5.626,22.198,1.57,22.818,2.624
			c0.722,1.232-1.862-25.321,2.875-49.686c12.534,6.55,55.761,1.847,68.782-6.217c5.857,5.319,36.811,30.434,21.402,39.041
			c-6.043,3.377-21.701,12.708,6.698,12.236l8.748-0.143c12.699-0.209-1.494-81.713-6.916-113.166
			C252.011,92.927,251.852,91.976,251.706,91.074z"/>
		<path fill="#2B2A29" d="M15.819,61.084c-2.773-0.945-5.014-1.515-7.266-0.723c-0.759,0.268-0.597,6.13-0.329,12.232
			c1.413-0.535,2.71-1.674,3.687-2.652c2.179-2.18,3.229-5.492,3.906-8.857H15.819z"/>
		<path fill="#D3BCC8" d="M108.639,55.415l-5.218,19.812l-7.305,20.909l-9.389,13.206c-2.007,2.823,18.475,9.283,19.302,7.15
			l4.693-12.103l7.827-20.909l3.653-12.654l1.562-11.005c0,0-14.082-4.406-15.126-4.406H108.639z"/>
		<polygon fill="#F1D6C9" points="113.856,60.368 116.463,52.662 119.071,46.064 119.071,51.567 118.028,55.963 118.028,60.921 		
			"/>
		<polygon fill="#F1D6C9" points="95.076,110.992 93.51,117.596 90.384,125.296 94.552,124.197 97.684,117.045 98.725,114.293 
			99.769,111.543 		"/>
		<path fill="#F1D6C9" d="M105.508,90.631l3.131,4.951c1.043-3.299,0.521-7.701,0.521-7.701l-3.131-2.203L105.508,90.631z"/>
		<path fill="#F1D6C9" d="M111.248,73.574l1.043-3.851h3.131l5.215,1.104l-5.74,1.649C114.897,72.475,110.204,72.476,111.248,73.574
			L111.248,73.574z"/>
		<polygon fill="#F1D6C9" points="103.811,103.835 106.551,100.538 105.768,97.233 101.856,100.538 		"/>
		<path fill="#2B2A29" d="M42.943,52.124c1.261,0.65,1.271,3.146,0.024,5.587c-1.247,2.433-3.283,3.893-4.544,3.249
			c-1.261-0.646-1.271-3.148-0.023-5.584c1.247-2.441,3.283-3.893,4.543-3.249V52.124z"/>
		<path fill="#FFFFFF" d="M12.534,64.767c-1.267,0.245-2.162-1.311-0.911-2.535C14.018,59.902,15.634,64.178,12.534,64.767
			L12.534,64.767z"/>
	</g>
</g>
</svg>
