<?xml version="1.0" encoding="utf-8"?>
<!-- Generator: Adobe Illustrator 17.0.0, SVG Export Plug-In . SVG Version: 6.00 Build 0)  -->
<!DOCTYPE svg PUBLIC "-//W3C//DTD SVG 1.1 Basic//EN" "http://www.w3.org/Graphics/SVG/1.1/DTD/svg11-basic.dtd">
<svg version="1.1" baseProfile="basic" id="Слой_1"
	 xmlns="http://www.w3.org/2000/svg" xmlns:xlink="http://www.w3.org/1999/xlink" x="0px" y="0px" width="360px" height="275px"
	 viewBox="0 0 360 275" xml:space="preserve">
<path fill="#EB7272" d="M1602.97,686.224c0.358-0.247,0.715-0.495,1.073-0.742c0.084,0.127,0.169,0.254,0.253,0.381
	c-0.434,0.129-0.868,0.259-1.302,0.388C1602.994,686.25,1602.97,686.224,1602.97,686.224z"/>
<path fill="#EB7272" d="M1570.006,1049.175c0.243,0.36,0.489,0.718,0.714,1.089c0.004,0.007-0.235,0.163-0.361,0.249
	c-0.133-0.432-0.267-0.865-0.401-1.297C1569.957,1049.216,1570.006,1049.175,1570.006,1049.175z"/>
<g>
	<path fill="#FFFFFF" stroke="#FFFFFF" stroke-width="3" stroke-miterlimit="10" d="M332.075,203.057
		c-7.248-27.321-42.678-35.508-42.678-35.508c-10.413-30.653-27.003-63.042-55.26-83.691c-11.874,7.833-30.435,2.785-44.299,7.407
		c-10.061,2.744-21.036,8.689-31.096,5.488c-8.689-3.201-17.377-6.402-26.523-4.573c-10.518,2.744-19.664,7.317-30.639,9.146
		c-13.719,2.286-24.237-6.86-35.669-13.719c-0.889-0.525-1.793-1.024-2.709-1.496c-15.234,14.522-20.982,31.817-25.207,42.492
		c-2.956,0.313-5.357,2.685-5.6,5.756c-0.095,1.199,0.16,2.343,0.67,3.343c-0.016,0.014-0.032,0.033-0.049,0.047
		c-6.224,5.279-8.769,11.338-8.216,17.096c-0.002-0.002-0.013-0.011-0.013-0.011s-0.004,0.054,0.011,0.159l-0.001-0.001
		c0.001,0.006,0.003,0.012,0.004,0.018c0.005,0.03,0.01,0.062,0.018,0.099c0.412,3.655,2.089,7.176,4.865,10.295
		c22.467,26.43,109.434,8.818,109.433,8.818l6.255-1.545c19.955,7.318,51.889,15.991,56.536-1.319c0,0-1.486-9.919-5.613-18.715
		c30.59-7.979,61.761,22.157,67.389,27.936c-0.463,2.307-2.028,4.402-4.972,6.157c-23.809,14.192-10.163,44.598-7.836,62.03
		c2.323,17.435,10.821,1.62,11.101-3.928c0.279-5.543,2.679-15.042,12.207-21.617c7.985-5.509,5.8-23.852,4.885-29.64
		c-0.236-1.111-0.306-1.768-0.306-1.768s0.002,0.01,0.003,0.015c0.009,0.082,0.083,0.705,0.298,1.722
		c0.002,0.011,0.003,0.02,0.005,0.031c1.13,5.309,6.074,20.991,25.496,24.975c23.49,4.823,16.837,22.23,25.814,22.256
		C338.083,240.835,337.823,224.724,332.075,203.057z"/>
	<g>
		<path fill="#5D95B9" d="M332.075,203.057c-7.248-27.321-42.678-35.508-42.678-35.508c-10.413-30.653-27.003-63.042-55.26-83.691
			c-11.874,7.833-30.435,2.785-44.299,7.407c-10.061,2.744-21.036,8.689-31.096,5.488c-8.689-3.201-17.377-6.402-26.523-4.573
			c-10.518,2.744-19.664,7.317-30.639,9.146c-13.719,2.286-24.237-6.86-35.669-13.719c-0.889-0.525-1.793-1.024-2.709-1.496
			c-21.48,20.476-24.105,46.484-30.186,51.638c-16.941,14.369-6.718,34.516,19.449,38.635c55.308,8.702,108.582-2.98,150.126-30.965
			c13.814-9.303,79.93,27.129,56.121,41.318c-23.809,14.192-10.163,44.598-7.836,62.03c2.323,17.435,10.821,1.62,11.101-3.928
			c0.279-5.543,2.679-15.042,12.207-21.617c7.985-5.509,5.8-23.852,4.885-29.64c-0.236-1.111-0.306-1.768-0.306-1.768
			s0.13,0.652,0.306,1.768c1.13,5.309,6.074,20.991,25.496,24.975c23.49,4.823,16.837,22.23,25.814,22.256
			C338.083,240.835,337.823,224.724,332.075,203.057z"/>
		<path fill="#5D95B9" d="M279.07,193.58c-0.177-1.116-0.306-1.768-0.306-1.768S278.834,192.469,279.07,193.58z"/>
		<path fill="#D0E8F1" d="M24.797,154.992c0,0,12.559,15.47,32.451,15.269c19.896-0.197,79.843-13.561,93.302-2.621
			c2.683,2.178,5.124,2.494,5.124,2.494l-16.557,4.089C139.118,174.223,31.917,195.94,24.797,154.992z"/>
		<path fill="#D0E8F1" d="M164.825,144.066c25.125-9.186,95.244-1.564,99.762,37.461c0,0-38.759-42.356-74.346-26.791
			c-21.21,9.279-36.398,6.829-36.398,6.829L164.825,144.066z"/>
		<path fill="#5D95B9" d="M129.251,166.095c0,0,65.825,30.714,72.657,5.264c0,0-5.072-33.988-22.606-31.923
			C161.769,141.496,119.245,150.487,129.251,166.095z"/>
		<path fill="#B1C7D2" d="M24.787,154.834c0,0,20.99,17.958,60.168,12.369c39.18-5.588,39.384-3.774,39.384-3.774
			s-46.85,13.723-73.44,5.567C24.313,160.842,24.787,154.834,24.787,154.834z"/>
		<g>
			<g>
				<path fill="#F4E1EC" d="M82.006,164.429c3.313,1.486,7.184,0.052,8.64-3.201c1.458-3.248-0.049-7.093-3.364-8.574
					c-3.317-1.488-7.188-0.053-8.643,3.195C77.183,159.105,78.691,162.946,82.006,164.429z"/>
				<g>
					<path fill="#272525" d="M68.219,146.36c0.914,3.353,4.367,5.326,7.716,4.412c3.354-0.913,5.32-4.37,4.41-7.72
						c-0.91-3.349-4.365-5.322-7.72-4.409C69.279,139.554,67.305,143.01,68.219,146.36z"/>
					<path fill="#FFFFFF" d="M73.53,143.198c0.431,1.586,2.069,2.524,3.653,2.088c1.59-0.429,2.525-2.069,2.093-3.655
						c-0.435-1.587-2.073-2.523-3.657-2.09C74.031,139.976,73.095,141.61,73.53,143.198z"/>
				</g>
			</g>
			<g>
				<g>
					<path fill="#272525" d="M32.395,134.359c-0.275,3.456,2.31,6.487,5.769,6.759c3.465,0.273,6.489-2.31,6.763-5.771
						s-2.306-6.487-5.769-6.764C35.691,128.311,32.669,130.893,32.395,134.359z"/>
					<path fill="#FFFFFF" d="M38.467,133.171c-0.132,1.646,1.091,3.077,2.727,3.208c1.642,0.13,3.077-1.096,3.209-2.736
						c0.128-1.638-1.099-3.073-2.739-3.2C40.024,130.313,38.593,131.538,38.467,133.171z"/>
				</g>
			</g>
		</g>
	</g>
</g>
</svg>
