<?xml version="1.0" encoding="utf-8"?>
<!-- Generator: Adobe Illustrator 17.0.0, SVG Export Plug-In . SVG Version: 6.00 Build 0)  -->
<!DOCTYPE svg PUBLIC "-//W3C//DTD SVG 1.1 Basic//EN" "http://www.w3.org/Graphics/SVG/1.1/DTD/svg11-basic.dtd">
<svg version="1.1" baseProfile="basic" id="Слой_1"
	 xmlns="http://www.w3.org/2000/svg" xmlns:xlink="http://www.w3.org/1999/xlink" x="0px" y="0px" width="92.181px"
	 height="133.928px" viewBox="0 0 92.181 133.928" xml:space="preserve">
<path fill="#BAAE52" d="M87.018,46.659c-20.478,9.125-37.065,22.57-47.495,38.637c-0.68-0.299-1.376-0.622-2.079-0.996
	c-3.396-1.805-6.729-3.712-9.833-5.989C13.748,68.154,11.53,54.293,13.872,40.005c0.019-0.116,0.045-0.234,0.064-0.35
	c0.664-0.089,1.32-0.237,1.955-0.488c3.761-1.484,5.473-5.379,6.498-9.02c1.518-5.39,1.244-11.792,6.51-15.211
	c2.184-1.416,4.826-2.282,7.316-2.999c1.417-0.407,2.859-0.717,4.309-1.007c-5.631-1.774-11.744,0.444-15.785,4.557
	c-0.994,1.015-2.253,3.034-3.506,3.598c-0.422-1.17,0.303-2.587,0.572-3.71c0.324-1.349,0.687-2.688,1.14-4
	c0.891-2.581,2.163-5.095,4.142-7.014c2.522-2.448,6.442-2.665,9.757-2.488c1.804,0.098,3.63,0.288,5.435,0.288
	c-0.827-0.379-1.507-0.975-2.313-1.381c-0.909-0.461-1.941-0.596-2.943-0.694c-4.402-0.422-9.638,0.693-13.046,3.645
	c-2.266,1.961-3.468,4.729-4.83,7.33c-0.636,1.219-1.241,2.458-1.989,3.619c-0.477,0.739-1.45,2.175-2.303,2.402
	c-0.491,0.13,0-2.103,0.098-2.297c0.439-0.872,1.207-1.529,1.749-2.333c0.537-0.796,1.033-1.625,1.417-2.507
	c0.67-1.542,1.002-3.266,0.631-4.931c-0.61-2.745-3.191-4.677-5.768-2.878c-1.594,1.116-2.663,2.938-3.698,4.543
	c1.51-0.883,3.617-2.329,5.477-1.821c1.703,0.465,1.754,2.303,1.147,3.673c-0.951,2.152-3.051,3.668-4.786,5.154
	c-1.945,1.664-3.685,3.442-4.868,5.739c-1.455,2.814-2.193,5.966-2.999,9.011c-2.342-1.615-2.333-5.093-2.521-7.63
	c-0.333,3.583-1.191,7.561-0.422,11.13c0.341,1.601,1.169,3.051,2.32,4.204c0.918,0.914,1.949,1.395,3.066,1.837
	c-0.077,0.554-0.146,1.108-0.208,1.659C4.41,49.247,5.183,58.97,7.41,68.364c2.077,8.752,7.44,15.915,12.452,23.189
	c3.33,4.835,6.291,9.447,10.469,13.44c-1.498,5.017-2.454,10.187-2.788,15.477c6.346,2.157,12.27,8.262,19.014,11.634
	c5.085,3.391,18.648,2.544,18.648-6.78c0-11.019,6.781-18.648,11.868-27.973c3.39-5.934-3.39-14.41-1.695-22.039
	c1.695-7.629,12.715-6.781,16.105-13.563C94.001,56.715,89.046,52.147,87.018,46.659z"/>
</svg>
