<?xml version="1.0" encoding="utf-8"?>
<!-- Generator: Adobe Illustrator 17.0.0, SVG Export Plug-In . SVG Version: 6.00 Build 0)  -->
<!DOCTYPE svg PUBLIC "-//W3C//DTD SVG 1.1 Basic//EN" "http://www.w3.org/Graphics/SVG/1.1/DTD/svg11-basic.dtd">
<svg version="1.1" baseProfile="basic" id="Слой_1"
	 xmlns="http://www.w3.org/2000/svg" xmlns:xlink="http://www.w3.org/1999/xlink" x="0px" y="0px" width="360px" height="275px"
	 viewBox="0 0 360 275" xml:space="preserve">
<path fill="#EB7272" d="M1602.97,686.224c0.358-0.247,0.715-0.495,1.073-0.742c0.084,0.127,0.169,0.254,0.253,0.381
	c-0.434,0.129-0.868,0.259-1.302,0.388C1602.994,686.25,1602.97,686.224,1602.97,686.224z"/>
<path fill="#EB7272" d="M1570.006,1049.175c0.243,0.36,0.489,0.718,0.714,1.089c0.004,0.007-0.235,0.163-0.361,0.249
	c-0.133-0.432-0.267-0.865-0.401-1.297C1569.957,1049.216,1570.006,1049.175,1570.006,1049.175z"/>
<path fill="#FFFFFF" stroke="#FFFFFF" stroke-width="6" stroke-miterlimit="10" d="M332.075,203.058
	c-7.248-27.322-42.678-35.508-42.678-35.508c-15.443-45.461-44.47-94.747-105.001-103.881c-4.974-0.75-9.751-1.354-14.377-1.846
	c1.296-12.807,3.177-40.696-4.582-43.965c-19.862-8.372-50.145,34-58.239,46.033c-51.095,11.412-62.231,47.09-69.204,64.712
	c-2.955,0.313-5.356,2.685-5.599,5.756c-0.095,1.199,0.16,2.343,0.67,3.342c-0.016,0.014-0.032,0.033-0.049,0.047
	c-6.225,5.28-8.77,11.339-8.216,17.097c-0.002-0.002-0.013-0.011-0.013-0.011s-0.004,0.054,0.011,0.159l-0.001-0.001
	c0.001,0.006,0.003,0.012,0.004,0.018c0.005,0.031,0.01,0.063,0.018,0.101c0.409,3.622,2.06,7.113,4.793,10.211
	c22.356,26.549,109.505,8.9,109.504,8.9l6.255-1.545c19.955,7.318,51.889,15.991,56.536-1.319c0,0-1.486-9.919-5.613-18.715
	c30.592-7.979,61.766,22.161,67.39,27.938c-0.464,2.305-2.028,4.4-4.971,6.154c-23.809,14.192-10.163,44.598-7.836,62.03
	c2.324,17.434,10.822,1.619,11.101-3.928c0.279-5.542,2.679-15.042,12.207-21.617c8.001-5.519,5.792-23.921,4.88-29.671
	c1.113,5.268,6.028,21.011,25.501,25.007c23.49,4.822,16.837,22.23,25.814,22.256C338.083,240.835,337.822,224.725,332.075,203.058z
	"/>
<g>
	<path fill="#5D95B9" d="M33.016,137.748c11.584-9.818,10.618-95.319,151.38-74.079c60.531,9.134,89.558,58.42,105.001,103.881
		c0,0,35.43,8.186,42.678,35.508c5.747,21.667,6.008,37.777-1.694,37.754c-8.977-0.026-2.324-17.434-25.814-22.256
		c-23.487-4.819-25.802-26.744-25.802-26.744s4.946,24.837-4.579,31.408c-9.528,6.575-11.928,16.075-12.207,21.617
		c-0.279,5.547-8.777,21.362-11.101,3.928c-2.327-17.432-15.973-47.838,7.836-62.03c23.809-14.189-42.307-50.621-56.121-41.318
		c-41.544,27.985-94.818,39.667-150.126,30.965C26.299,172.263,16.075,152.116,33.016,137.748z"/>
	<path fill="#5C95B9" d="M105.15,67.007c0,0,37.19-58.885,60.287-49.149c10.113,4.262,3.849,50.35,3.849,50.35
		C162.725,70.73,131.094,82.588,105.15,67.007z"/>
	<path fill="#D0E8F1" d="M24.797,154.992c0,0,12.559,15.47,32.451,15.269c19.896-0.197,79.843-13.561,93.302-2.621
		c2.682,2.178,5.124,2.494,5.124,2.494l-16.557,4.089C139.118,174.223,31.917,195.94,24.797,154.992z"/>
	<path fill="#D0E8F1" d="M164.825,144.066c25.125-9.186,95.244-1.564,99.762,37.461c0,0-38.759-42.356-74.346-26.791
		c-21.21,9.279-36.398,6.829-36.398,6.829L164.825,144.066z"/>
	<path fill="#5D95B9" d="M129.251,166.095c0,0,65.825,30.714,72.657,5.264c0,0-5.072-33.988-22.606-31.923
		C161.769,141.496,119.245,150.487,129.251,166.095z"/>
	<path fill="#385E75" d="M86.253,80.175c-0.293,1.2,0.895,2.517,2.646,2.942c1.755,0.427,3.408-0.196,3.702-1.395
		c0.289-1.201-0.893-2.522-2.646-2.948C88.204,78.351,86.543,78.976,86.253,80.175z"/>
	<path fill="#B1C7D2" d="M24.787,154.834c0,0,20.99,17.958,60.168,12.369c39.18-5.588,39.384-3.774,39.384-3.774
		s-46.85,13.723-73.44,5.567C24.313,160.842,24.787,154.834,24.787,154.834z"/>
	<g>
		<g>
			<path fill="#F4E1EC" d="M82.006,164.429c3.313,1.486,7.184,0.052,8.64-3.201c1.458-3.248-0.048-7.093-3.364-8.574
				c-3.317-1.488-7.188-0.053-8.643,3.195C77.183,159.105,78.691,162.946,82.006,164.429z"/>
			<g>
				<path fill="#272525" d="M68.219,146.36c0.914,3.353,4.367,5.326,7.716,4.412c3.354-0.913,5.32-4.37,4.41-7.72
					c-0.91-3.349-4.365-5.322-7.72-4.409C69.279,139.554,67.305,143.01,68.219,146.36z"/>
				<path fill="#FFFFFF" d="M73.53,143.198c0.431,1.586,2.069,2.524,3.653,2.088c1.59-0.429,2.525-2.069,2.093-3.655
					c-0.435-1.587-2.073-2.523-3.657-2.09C74.031,139.976,73.095,141.61,73.53,143.198z"/>
			</g>
		</g>
		<g>
			<g>
				<path fill="#272525" d="M32.395,134.359c-0.275,3.456,2.31,6.487,5.769,6.759c3.465,0.273,6.489-2.31,6.763-5.771
					s-2.306-6.487-5.769-6.764C35.691,128.311,32.669,130.893,32.395,134.359z"/>
				<path fill="#FFFFFF" d="M38.467,133.171c-0.132,1.646,1.091,3.077,2.727,3.208c1.642,0.13,3.077-1.096,3.209-2.736
					c0.128-1.638-1.099-3.073-2.739-3.2C40.024,130.313,38.593,131.538,38.467,133.171z"/>
			</g>
		</g>
	</g>
</g>
</svg>
