<?xml version="1.0" encoding="utf-8"?>
<!-- Generator: Adobe Illustrator 17.0.0, SVG Export Plug-In . SVG Version: 6.00 Build 0)  -->
<!DOCTYPE svg PUBLIC "-//W3C//DTD SVG 1.1//EN" "http://www.w3.org/Graphics/SVG/1.1/DTD/svg11.dtd">
<svg version="1.1" id="Слой_1" xmlns="http://www.w3.org/2000/svg" xmlns:xlink="http://www.w3.org/1999/xlink" x="0px" y="0px"
	 width="300px" height="300px" viewBox="0 0 300 300" enable-background="new 0 0 300 300" xml:space="preserve">
<g>
	<path fill="#FFFFFF" stroke="#FFFFFF" stroke-width="7" stroke-miterlimit="10" d="M262.183,219.96
		c10.06-14.486,15.887-31.642,15.887-50.037c0-24.431-10.271-61.497-27.102-93.876c3.432-0.67,7.21-1.075,11.404-1.075
		c5.07,0-5.639-7.669-18.071-13.087c0.922-1.217,1.475-2.729,1.475-4.373c0-4.01-3.25-7.26-7.26-7.26
		c-0.996,0-1.945,0.201-2.81,0.565c-17.099-24.185-38.187-41.578-61.007-41.578c-18.079,0-29.23,8.231-37.882,21.967
		c-18.372,26.048-25.074,75.577-56.83,126.092c-2.151,2.945-5.439,7.585-8.883,12.947c-0.671,0.924-1.281,1.854-1.848,2.788
		c-0.001,0.001-0.001,0.002-0.002,0.002c-1.424,1.924-2.615,3.871-3.592,5.834c-10.787,16.996-21.053,38.702-2.498,37.927
		c0.335-0.014,0.668-0.041,1.001-0.066c-23.568,25.934-50.52,58.627-39.821,61.858c14.071,3.215,29.884-10.647,38.494-19.753
		c2.076-2.063,3.887-4.038,5.364-5.732c-3.078,4.988-11.382,19.579-5.665,23.314c14.415,4.524,30.703-17.733,30.703-17.733
		s-1.499,11.581,7.487,13.39c7.172,1.445,18.254-10.846,22.44-15.872c1.9,0.787,3.815,1.535,5.744,2.246
		c-0.018,0.585-0.03,1.173-0.03,1.769c0,5.639,0.625,12.12,1.771,17.601l0.009,0.077c0,0,0.006-0.002,0.007-0.002
		c0.402,1.91,0.867,3.697,1.392,5.283c-0.826-0.166-1.703-0.256-2.612-0.256c-4.923,0-8.914,2.614-8.914,5.838
		s2.362,1.962,8.914,0.332c3.117,0,5.267,0.64,6.679,0.981c0.322,0.23,0.776,0.28,1.376,0.198c0.068-0.005,0.133-0.015,0.192-0.03
		c0.114-0.02,0.233-0.042,0.358-0.07c1.287,0.483,3.91-0.414,8.371-1.557c3.66,0.602,5.257,2.106,5.557,0.219
		c4.042,0.761,5.568,1.987,5.568-0.823c0-3.709-4.591-6.715-10.254-6.715c-0.669,0-1.321,0.045-1.954,0.125
		c-0.433-0.068-0.88-0.105-1.334-0.115c0-0.001,0-0.006,0-0.006l-0.093,0.002c-0.05-0.001-0.099-0.006-0.15-0.006
		c-0.174,0-0.345,0.013-0.516,0.021l-0.129,0.003l0.001,0.002c-0.365,0.023-0.724,0.061-1.075,0.121
		c0.362-5.112,1.139-11.77,5.715-17.408c8.447,1.883,16.853,2.912,24.865,2.912c10.694,0,21.009-1.476,30.711-4.214
		c4.62,6.404,5.039,13.928,5.373,19.28c-1.005-0.273-2.055-0.446-3.056-0.487c-4.437-0.184-8.142,2.277-8.276,5.499
		c-0.134,3.221,3.713,1.006,8.02,0.665c2.829-0.224,4.51,1.27,5.924,1.389c0.305,0.161,0.715,0.202,1.236,0.149
		c1.451,0.212,4.085-0.542,8.238-1.414c4.021,0.649,5.747,2.464,6.216,0.765c3.259,0.873,4.495,1.723,4.601-0.838
		c0.154-3.705-4.309-6.9-9.966-7.135c-0.503-0.021-0.994-0.01-1.479,0.016c-0.188-0.027-0.38-0.045-0.572-0.062
		c1.573-5.518,2.511-12.872,2.669-19.427h0.001l-0.001-0.022c0.016-0.651,0.026-1.297,0.026-1.93c0-1.262-0.043-2.499-0.122-3.706
		C238.823,247.195,252.695,234.873,262.183,219.96z"/>
	<g>
		<g>
			<path fill="#E4E4E4" d="M94.645,184.593c0,0-88.273,88.567-70.301,93.995c20.594,4.705,44.932-27.176,44.932-27.176
				s-13.667,20.48-6.739,25.005c14.415,4.524,30.703-17.733,30.703-17.733s-1.499,11.581,7.487,13.39
				c8.987,1.81,24.124-17.958,24.124-17.958"/>
			<path fill="#FFFFFF" d="M95.815,184.146c0,0-81.509,84.61-64.913,89.796c19.016,4.495,41.488-25.962,41.488-25.962
				s-12.619,19.565-6.223,23.887c13.311,4.322,28.35-16.941,28.35-16.941s-1.384,11.063,6.914,12.792s22.275-17.156,22.275-17.156"
				/>
			<path fill="#B0262B" d="M138.361,288.758c0,3.224-2.306,0.332-8.914,0.332c-6.552,1.63-8.914,2.892-8.914-0.332
				s3.991-5.838,8.914-5.838C134.37,282.92,138.361,285.534,138.361,288.758z"/>
			<path fill="#CA252B" d="M203.368,259.179c11.766,11.766,5.273,29.868,10.498,29.868s8.424-17.096,8.424-29.868
				c0-12.773-4.236-23.127-9.461-23.127S194.693,250.505,203.368,259.179z"/>
			<path fill="#B0262B" d="M200.775,259.741c11.766,11.524,5.273,29.254,10.498,29.254s8.424-16.744,8.424-29.254
				s-4.236-22.651-9.461-22.651S192.1,251.245,200.775,259.741z"/>
			<path fill="#E4E4E4" d="M275.996,173.035c0,51.865-46.281,93.91-103.371,93.91s-134.226-52.221-103.371-93.91
				c58.238-78.688,46.281-160.684,103.371-160.684C229.715,12.351,275.996,121.169,275.996,173.035z"/>
			<path fill="#FFFFFF" d="M278.07,169.923c0,51.865-46.281,93.91-103.371,93.91s-134.226-52.221-103.371-93.91
				C129.566,91.235,117.609,9.239,174.699,9.239C231.79,9.239,278.07,118.058,278.07,169.923z"/>
			<path fill="#B0262B" d="M149.876,261.762c-11.766,10.969-5.273,27.846-10.498,27.846s-8.424-15.939-8.424-27.846
				c0-11.908,4.236-21.561,9.461-21.561C145.641,240.201,158.551,253.675,149.876,261.762z"/>
			<path fill="#CA252B" d="M147.802,260.217c-11.766,11.766-5.273,29.868-10.498,29.868s-8.424-17.096-8.424-29.868
				c0-12.773,4.236-23.127,9.461-23.127S156.477,251.542,147.802,260.217z"/>
			<path fill="#B0262B" d="M157.549,288.009c0,3.709-2.652,0.382-10.254,0.382c-7.536,1.875-10.253,3.327-10.253-0.382
				c0-3.709,4.591-6.715,10.253-6.715C152.958,281.294,157.549,284.3,157.549,288.009z"/>
			<path fill="#CA252B" d="M152.041,288.009c0,3.709-2.141,0.382-8.277,0.382c-6.084,1.875-8.277,3.327-8.277-0.382
				c0-3.709,3.706-6.715,8.277-6.715S152.041,284.3,152.041,288.009z"/>
			<path fill="#B0262B" d="M213.446,287.69c-2.092,3.321-3.741-0.344-8.049-0.003c-4.307,0.341-8.154,2.556-8.02-0.665
				c0.134-3.222,3.839-5.683,8.276-5.499C210.092,281.707,215.537,284.369,213.446,287.69z"/>
			<path fill="#B0262B" d="M231.612,287.738c-0.154,3.706-2.666,0.271-10.261-0.044c-7.607,1.56-10.382,2.898-10.228-0.807
				c0.154-3.706,4.866-6.519,10.523-6.284S231.766,284.033,231.612,287.738z"/>
			<path fill="#CA252B" d="M227.144,287.574c-0.154,3.706-2.154,0.293-8.286,0.038c-6.156,1.621-8.408,2.98-8.254-0.725
				c0.154-3.706,3.981-6.556,8.548-6.366C223.72,280.711,227.298,283.868,227.144,287.574z"/>
			<path fill="#B3252B" d="M130.954,245.77c0,0,12.073,4.598,15.963,8.488c-8.362-3.695-17.016-4.493-17.016-4.493"/>
			<path fill="#B3252B" d="M129.229,253.92c0,0,12.771,3.173,17.084,6.588c-8.733-2.705-17.42-2.499-17.42-2.499"/>
			<path fill="#B3252B" d="M128.974,262.675c0,0,9.807,0.729,13.6,2.854c-6.927-0.906-13.299,0.533-13.299,0.533"/>
			<path fill="#B3252B" d="M129.653,270.259c0,0,7.631-0.561,10.747,0.541c-5.607,0.116-10.442,1.847-10.442,1.847"/>
			<path fill="#B3252B" d="M130.418,275.855c0,0,6.672-0.556,9.383,0.356c-4.9,0.155-9.141,1.684-9.141,1.684"/>
			<path fill="#A3252B" d="M222.18,258.15c0,0-9.099,2.609-12.179,5.208c6.334-2.18,12.264-2.227,12.264-2.227"/>
			<path fill="#A3252B" d="M222.135,264.206c0,0-9.757,1.526-13.117,3.752c6.543-1.435,12.872-0.746,12.872-0.746"/>
			<path fill="#A3252B" d="M221.542,270.614c0,0-7.205-0.075-10.106,1.242c5.113-0.233,9.676,1.212,9.676,1.212"/>
			<path fill="#A3252B" d="M220.577,276.108c0,0-5.536-0.882-7.879-0.27c4.086,0.432,7.509,1.995,7.509,1.995"/>
			<path fill="#A3252B" d="M216.321,280.791c0,0,0.754,2.605,0.563,3.855c-0.441-2.122-1.255-3.678-1.255-3.678"/>
			<path fill="#A3252B" d="M220.32,280.7c0,0-0.57,2.986-1.249,4.053c0.486-2.28,0.464-2.001,0.244-4.101"/>
			<path fill="#A3252B" d="M224.709,282.543c0,0-2.024,2.241-3.176,2.763c1.538-1.526,2.449-3.299,2.449-3.299"/>
			<path fill="#A3252B" d="M140.317,282.114c0,0,0.996,2.722,0.913,3.982c-0.624-2.074-1.757-3.71-1.757-3.71L140.317,282.114z"/>
			<path fill="#A3252B" d="M143.647,285.53c0.047-2.162-0.528-4.212-0.528-4.212l0.888-0.02
				C144.007,281.297,144.113,284.356,143.647,285.53z"/>
			<path fill="#A3252B" d="M148.024,282.254c0,0-1.332,2.57-2.317,3.363c1.107-1.862,1.57-3.903,1.547-3.805
				C147.231,281.91,148.024,282.254,148.024,282.254z"/>
			<circle fill="#363636" cx="238.516" cy="57.512" r="7.26"/>
			<circle fill="#514943" cx="238.017" cy="57.013" r="6.243"/>
			<circle fill="#363636" cx="239.063" cy="58.684" r="2.708"/>
			<circle fill="#FFFFFF" cx="237.393" cy="56.379" r="2.333"/>
			<path fill="#6E6459" d="M262.372,74.972c-30.598,0-39.753,21.057-44.733,16.077c-7.194-7.194-6.528-12.928-6.528-16.809
				c0-4.376,1.549-10.365,6.528-15.345C227.559,48.976,271.707,74.972,262.372,74.972z"/>
			<path fill="#514943" d="M261.335,74.972c-30.598,0-37.167,20.397-43.696,16.077c1.814,0.761-4.135-3.251-5.305-8.027
				s-0.712,4.882,4.268-0.097C226.522,73.005,270.67,74.972,261.335,74.972z"/>
			<path fill="#3C281A" d="M219.347,63.576c-0.759,1.594-1.938,4.683-1.205,5.032c1.994,0.175,2.064-2.254,2.823-3.848
				c0.759-1.595,2.57-3.033,1.837-3.382C222.071,61.029,220.106,61.981,219.347,63.576z"/>
			<path opacity="0.3" fill="#FFFFFF" enable-background="new    " d="M250.792,68.468c-0.31,1.028-4.629-1.956-12.102-4.213
				c-7.472-2.256-7.099-2.655-14.956-3.957c0-2.009,6.619-0.033,14.09,2.223C245.298,64.777,251.102,67.44,250.792,68.468z"/>
			<path fill="#E4E4E4" d="M79.597,159.152c0,0-46.791,58.912-16.433,57.644c30.359-1.269,52.903-50.233,52.903-50.233
				s-10.797,30.728-1.973,33.14c17.686,3.786,34.442-33.636,34.442-33.636s-2.003,10.476,5.106,11.092
				c7.108,0.617,11.773-23.598,11.773-23.598"/>
			<path fill="#FFFFFF" d="M82.49,153.938c0,0-45.468,58.962-16.01,57.66c29.459-1.303,51.388-50.291,51.388-50.291
				s-10.51,30.739-1.952,33.141c17.156,3.766,33.457-33.673,33.457-33.673s-1.955,10.478,4.941,11.086
				c6.896,0.609,11.45-23.61,11.45-23.61"/>
			<ellipse fill="#D575A7" cx="174.857" cy="80.503" rx="10.674" ry="6.396"/>
			<circle fill="#363636" cx="175.246" cy="59.586" r="7.26"/>
			<circle fill="#514943" cx="174.748" cy="59.087" r="6.243"/>
			<circle fill="#363636" cx="175.793" cy="60.758" r="2.708"/>
			<circle fill="#FFFFFF" cx="174.123" cy="58.454" r="2.333"/>
		</g>
		<path fill="#E4E4E4" d="M94.645,184.593c0,0-88.273,88.567-70.301,93.995c20.594,4.705,44.932-27.176,44.932-27.176
			s-13.667,20.48-6.739,25.005c14.415,4.524,30.703-17.733,30.703-17.733s-1.499,11.581,7.487,13.39
			c8.987,1.81,24.124-17.958,24.124-17.958"/>
		<path fill="#FFFFFF" d="M95.815,184.146c0,0-81.509,84.61-64.913,89.796c19.016,4.495,41.488-25.962,41.488-25.962
			s-12.619,19.565-6.223,23.887c13.311,4.322,28.35-16.941,28.35-16.941s-1.384,11.063,6.914,12.792s22.275-17.156,22.275-17.156"/>
		<path fill="#B0262B" d="M138.361,288.758c0,3.224-2.306,0.332-8.914,0.332c-6.552,1.63-8.914,2.892-8.914-0.332
			s3.991-5.838,8.914-5.838C134.37,282.92,138.361,285.534,138.361,288.758z"/>
		<path fill="#CA252B" d="M203.368,259.179c11.766,11.766,5.273,29.868,10.498,29.868s8.424-17.096,8.424-29.868
			c0-12.773-4.236-23.127-9.461-23.127S194.693,250.505,203.368,259.179z"/>
		<path fill="#B0262B" d="M200.775,259.741c11.766,11.524,5.273,29.254,10.498,29.254s8.424-16.744,8.424-29.254
			s-4.236-22.651-9.461-22.651S192.1,251.245,200.775,259.741z"/>
		<path fill="#E4E4E4" d="M275.996,173.035c0,51.865-46.281,93.91-103.371,93.91s-134.226-52.221-103.371-93.91
			c58.238-78.688,46.281-160.684,103.371-160.684C229.715,12.351,275.996,121.169,275.996,173.035z"/>
		<path fill="#FFFFFF" d="M278.07,169.923c0,51.865-46.281,93.91-103.371,93.91s-134.226-52.221-103.371-93.91
			C129.566,91.235,117.609,9.239,174.699,9.239C231.79,9.239,278.07,118.058,278.07,169.923z"/>
		<path fill="#B0262B" d="M149.876,261.762c-11.766,10.969-5.273,27.846-10.498,27.846s-8.424-15.939-8.424-27.846
			c0-11.908,4.236-21.561,9.461-21.561C145.641,240.201,158.551,253.675,149.876,261.762z"/>
		<path fill="#CA252B" d="M147.802,260.217c-11.766,11.766-5.273,29.868-10.498,29.868s-8.424-17.096-8.424-29.868
			c0-12.773,4.236-23.127,9.461-23.127S156.477,251.542,147.802,260.217z"/>
		<path fill="#B0262B" d="M157.549,288.009c0,3.709-2.652,0.382-10.254,0.382c-7.536,1.875-10.253,3.327-10.253-0.382
			c0-3.709,4.591-6.715,10.253-6.715C152.958,281.294,157.549,284.3,157.549,288.009z"/>
		<path fill="#CA252B" d="M152.041,288.009c0,3.709-2.141,0.382-8.277,0.382c-6.084,1.875-8.277,3.327-8.277-0.382
			c0-3.709,3.706-6.715,8.277-6.715S152.041,284.3,152.041,288.009z"/>
		<path fill="#B0262B" d="M213.446,287.69c-2.092,3.321-3.741-0.344-8.049-0.003c-4.307,0.341-8.154,2.556-8.02-0.665
			c0.134-3.222,3.839-5.683,8.276-5.499C210.092,281.707,215.537,284.369,213.446,287.69z"/>
		<path fill="#B0262B" d="M231.612,287.738c-0.154,3.706-2.666,0.271-10.261-0.044c-7.607,1.56-10.382,2.898-10.228-0.807
			c0.154-3.706,4.866-6.519,10.523-6.284S231.766,284.033,231.612,287.738z"/>
		<path fill="#CA252B" d="M227.144,287.574c-0.154,3.706-2.154,0.293-8.286,0.038c-6.156,1.621-8.408,2.98-8.254-0.725
			c0.154-3.706,3.981-6.556,8.548-6.366C223.72,280.711,227.298,283.868,227.144,287.574z"/>
		<path fill="#B3252B" d="M130.954,245.77c0,0,12.073,4.598,15.963,8.488c-8.362-3.695-17.016-4.493-17.016-4.493"/>
		<path fill="#B3252B" d="M129.229,253.92c0,0,12.771,3.173,17.084,6.588c-8.733-2.705-17.42-2.499-17.42-2.499"/>
		<path fill="#B3252B" d="M128.974,262.675c0,0,9.807,0.729,13.6,2.854c-6.927-0.906-13.299,0.533-13.299,0.533"/>
		<path fill="#B3252B" d="M129.653,270.259c0,0,7.631-0.561,10.747,0.541c-5.607,0.116-10.442,1.847-10.442,1.847"/>
		<path fill="#B3252B" d="M130.418,275.855c0,0,6.672-0.556,9.383,0.356c-4.9,0.155-9.141,1.684-9.141,1.684"/>
		<path fill="#A3252B" d="M222.18,258.15c0,0-9.099,2.609-12.179,5.208c6.334-2.18,12.264-2.227,12.264-2.227"/>
		<path fill="#A3252B" d="M222.135,264.206c0,0-9.757,1.526-13.117,3.752c6.543-1.435,12.872-0.746,12.872-0.746"/>
		<path fill="#A3252B" d="M221.542,270.614c0,0-7.205-0.075-10.106,1.242c5.113-0.233,9.676,1.212,9.676,1.212"/>
		<path fill="#A3252B" d="M220.577,276.108c0,0-5.536-0.882-7.879-0.27c4.086,0.432,7.509,1.995,7.509,1.995"/>
		<path fill="#A3252B" d="M216.321,280.791c0,0,0.754,2.605,0.563,3.855c-0.441-2.122-1.255-3.678-1.255-3.678"/>
		<path fill="#A3252B" d="M220.32,280.7c0,0-0.57,2.986-1.249,4.053c0.486-2.28,0.464-2.001,0.244-4.101"/>
		<path fill="#A3252B" d="M224.709,282.543c0,0-2.024,2.241-3.176,2.763c1.538-1.526,2.449-3.299,2.449-3.299"/>
		<path fill="#A3252B" d="M140.317,282.114c0,0,0.996,2.722,0.913,3.982c-0.624-2.074-1.757-3.71-1.757-3.71L140.317,282.114z"/>
		<path fill="#A3252B" d="M143.647,285.53c0.047-2.162-0.528-4.212-0.528-4.212l0.888-0.02
			C144.007,281.297,144.113,284.356,143.647,285.53z"/>
		<path fill="#A3252B" d="M148.024,282.254c0,0-1.332,2.57-2.317,3.363c1.107-1.862,1.57-3.903,1.547-3.805
			C147.231,281.91,148.024,282.254,148.024,282.254z"/>
		<circle fill="#363636" cx="238.516" cy="57.512" r="7.26"/>
		<circle fill="#514943" cx="238.017" cy="57.013" r="6.243"/>
		<circle fill="#363636" cx="239.063" cy="58.684" r="2.708"/>
		<circle fill="#FFFFFF" cx="237.393" cy="56.379" r="2.333"/>
		<path fill="#6E6459" d="M262.372,74.972c-30.598,0-39.753,21.057-44.733,16.077c-7.194-7.194-6.528-12.928-6.528-16.809
			c0-4.376,1.549-10.365,6.528-15.345C227.559,48.976,271.707,74.972,262.372,74.972z"/>
		<path fill="#514943" d="M261.335,74.972c-30.598,0-37.167,20.397-43.696,16.077c1.814,0.761-4.135-3.251-5.305-8.027
			s-0.712,4.882,4.268-0.097C226.522,73.005,270.67,74.972,261.335,74.972z"/>
		<path fill="#3C281A" d="M219.347,63.576c-0.759,1.594-1.938,4.683-1.205,5.032c1.994,0.175,2.064-2.254,2.823-3.848
			c0.759-1.595,2.57-3.033,1.837-3.382C222.071,61.029,220.106,61.981,219.347,63.576z"/>
		<path opacity="0.3" fill="#FFFFFF" enable-background="new    " d="M250.792,68.468c-0.31,1.028-4.629-1.956-12.102-4.213
			c-7.472-2.256-7.099-2.655-14.956-3.957c0-2.009,6.619-0.033,14.09,2.223C245.298,64.777,251.102,67.44,250.792,68.468z"/>
		<path fill="#E4E4E4" d="M79.597,159.152c0,0-46.791,58.912-16.433,57.644c30.359-1.269,52.903-50.233,52.903-50.233
			s-10.797,30.728-1.973,33.14c17.686,3.786,34.442-33.636,34.442-33.636s-2.003,10.476,5.106,11.092
			c7.108,0.617,11.773-23.598,11.773-23.598"/>
		<path fill="#FFFFFF" d="M82.49,153.938c0,0-45.468,58.962-16.01,57.66c29.459-1.303,51.388-50.291,51.388-50.291
			s-10.51,30.739-1.952,33.141c17.156,3.766,33.457-33.673,33.457-33.673s-1.955,10.478,4.941,11.086
			c6.896,0.609,11.45-23.61,11.45-23.61"/>
		<ellipse fill="#D575A7" cx="174.857" cy="80.503" rx="10.674" ry="6.396"/>
		<circle fill="#363636" cx="175.246" cy="59.586" r="7.26"/>
		<circle fill="#514943" cx="174.748" cy="59.087" r="6.243"/>
		<circle fill="#363636" cx="175.793" cy="60.758" r="2.708"/>
		<circle fill="#FFFFFF" cx="174.123" cy="58.454" r="2.333"/>
	</g>
</g>
</svg>
