<?xml version="1.0" encoding="utf-8"?>
<!-- Generator: Adobe Illustrator 17.0.0, SVG Export Plug-In . SVG Version: 6.00 Build 0)  -->
<!DOCTYPE svg PUBLIC "-//W3C//DTD SVG 1.1 Basic//EN" "http://www.w3.org/Graphics/SVG/1.1/DTD/svg11-basic.dtd">
<svg version="1.1" baseProfile="basic" id="Слой_1"
	 xmlns="http://www.w3.org/2000/svg" xmlns:xlink="http://www.w3.org/1999/xlink" x="0px" y="0px" width="160.965px"
	 height="158.426px" viewBox="0 0 160.965 158.426" xml:space="preserve">
<path fill="#EEBF31" d="M71.954,0c-4.058,8.226-8.627,16.58-13.897,24.963c-2.152,2.947-5.444,7.592-8.891,12.959
	c-0.666,0.918-1.273,1.842-1.836,2.77c-0.002,0.003-0.004,0.006-0.006,0.009c-1.423,1.923-2.613,3.868-3.589,5.83
	c-10.789,16.997-21.058,38.707-2.501,37.932c0.345-0.014,0.683-0.066,1.025-0.093c-23.574,25.938-50.548,58.653-39.845,61.885
	c14.081,3.217,29.907-10.667,38.513-19.772c2.069-2.057,3.874-4.026,5.347-5.716c-3.076,4.985-11.386,19.582-5.667,23.317
	c14.415,4.524,30.703-17.733,30.703-17.733s-1.499,11.581,7.487,13.39c7.172,1.444,18.254-10.847,22.44-15.873
	c1.902,0.788,3.82,1.537,5.75,2.248c-0.018,0.585-0.036,1.171-0.036,1.767c0,5.639,0.625,12.12,1.771,17.602l0.009,0.076
	c0,0,0.006-0.002,0.007-0.002c0.402,1.91,0.867,3.697,1.392,5.283c-0.826-0.166-1.703-0.256-2.612-0.256
	c-4.923,0-8.914,2.614-8.914,5.838s2.362,1.962,8.914,0.332c3.117,0,5.266,0.639,6.678,0.981c0.321,0.23,0.775,0.28,1.374,0.199
	c0.07-0.005,0.136-0.015,0.197-0.03c0.114-0.019,0.232-0.042,0.356-0.069c1.287,0.483,3.91-0.413,8.372-1.557
	c3.66,0.602,5.256,2.106,5.557,0.219c4.042,0.761,5.569,1.987,5.569-0.822c0-3.709-4.591-6.715-10.254-6.715
	c-0.669,0-1.321,0.045-1.954,0.125c-0.433-0.068-0.879-0.105-1.333-0.115v-0.006l-0.101,0.002c-0.048-0.001-0.095-0.006-0.143-0.006
	c-0.169,0-0.334,0.012-0.5,0.021l-0.144,0.003l0.001,0.003c-0.365,0.023-0.724,0.06-1.075,0.12
	c0.362-5.112,1.139-11.77,5.716-17.408c8.447,1.883,16.853,2.912,24.864,2.912c3.467,0,6.888-0.171,10.267-0.474
	c-1.519-15.705-2.951-31.178-13.302-44.98C123.816,55.224,100.601,25.072,71.954,0z"/>
</svg>
