<?xml version="1.0" encoding="utf-8"?>
<!-- Generator: Adobe Illustrator 17.0.0, SVG Export Plug-In . SVG Version: 6.00 Build 0)  -->
<!DOCTYPE svg PUBLIC "-//W3C//DTD SVG 1.1 Basic//EN" "http://www.w3.org/Graphics/SVG/1.1/DTD/svg11-basic.dtd">
<svg version="1.1" baseProfile="basic" id="Слой_1"
	 xmlns="http://www.w3.org/2000/svg" xmlns:xlink="http://www.w3.org/1999/xlink" x="0px" y="0px" width="184.185px"
	 height="211.022px" viewBox="0 0 184.185 211.022" xml:space="preserve">
<path fill="#3FA556" d="M21.927,0C16.031,16.413,9.423,34.81,0,53.912c28.647,25.072,51.862,55.224,75.707,89.157
	c10.351,13.801,11.783,29.275,13.302,44.98c7.044-0.632,13.886-1.89,20.443-3.741c4.621,6.404,5.039,13.928,5.373,19.281
	c-1.005-0.273-2.055-0.446-3.056-0.488c-4.437-0.184-8.143,2.277-8.276,5.499c-0.134,3.221,3.713,1.007,8.02,0.665
	c2.829-0.224,4.509,1.27,5.923,1.388c0.305,0.161,0.714,0.201,1.235,0.149c1.451,0.213,4.085-0.542,8.239-1.414
	c4.021,0.649,5.747,2.464,6.216,0.765c3.259,0.873,4.495,1.723,4.601-0.839c0.154-3.706-4.308-6.9-9.966-7.135
	c-0.502-0.021-0.994-0.01-1.479,0.016c-0.188-0.027-0.38-0.045-0.572-0.062c1.573-5.518,2.511-12.872,2.669-19.427h0.001
	l-0.001-0.026c0.016-0.65,0.026-1.294,0.026-1.926c0-1.264-0.053-2.496-0.133-3.705c16.616-8.257,30.441-20.548,39.929-35.412
	c10.109-14.51,15.984-31.697,15.984-50.14c0-13.431-3.12-30.688-8.712-48.879C121.373,31.877,71.366,17.014,21.927,0z"/>
</svg>
