<?xml version="1.0" encoding="utf-8"?>
<!-- Generator: Adobe Illustrator 17.0.0, SVG Export Plug-In . SVG Version: 6.00 Build 0)  -->
<!DOCTYPE svg PUBLIC "-//W3C//DTD SVG 1.1 Basic//EN" "http://www.w3.org/Graphics/SVG/1.1/DTD/svg11-basic.dtd">
<svg version="1.1" baseProfile="basic" id="Слой_1"
	 xmlns="http://www.w3.org/2000/svg" xmlns:xlink="http://www.w3.org/1999/xlink" x="0px" y="0px" width="800px" height="480px"
	 viewBox="0 0 800 480" xml:space="preserve">
<rect x="0" fill="#D2E9F9" width="800" height="480"/>
<path fill="#A8A8A8" stroke="#272525" stroke-width="3" stroke-miterlimit="10" d="M521.954,218
	c-4.058,8.226-8.627,16.58-13.897,24.963c-2.152,2.947-5.444,7.592-8.891,12.959c-0.666,0.918-1.273,1.842-1.836,2.77
	c-0.002,0.003-0.004,0.006-0.006,0.009c-1.423,1.923-2.613,3.868-3.589,5.83c-10.789,16.997-21.058,38.707-2.501,37.932
	c0.345-0.014,0.683-0.066,1.025-0.093c-23.574,25.938-50.548,58.653-39.845,61.885c14.081,3.217,29.907-10.667,38.513-19.772
	c2.069-2.057,3.874-4.026,5.347-5.716c-3.076,4.985-11.386,19.582-5.667,23.317c14.415,4.524,30.703-17.733,30.703-17.733
	s-1.499,11.581,7.487,13.39c7.172,1.444,18.254-10.847,22.44-15.873c1.902,0.788,3.82,1.537,5.75,2.248
	c-0.018,0.585-0.036,1.171-0.036,1.767c0,5.639,0.625,12.12,1.771,17.602l0.009,0.076c0,0,0.006-0.002,0.007-0.002
	c0.402,1.91,0.867,3.697,1.392,5.283c-0.826-0.166-1.703-0.256-2.612-0.256c-4.923,0-8.914,2.614-8.914,5.838
	s2.362,1.962,8.914,0.332c3.117,0,5.266,0.639,6.678,0.981c0.321,0.23,0.775,0.28,1.374,0.199c0.07-0.005,0.136-0.015,0.197-0.03
	c0.114-0.019,0.232-0.042,0.356-0.069c1.287,0.483,3.91-0.413,8.372-1.557c3.66,0.602,5.256,2.106,5.557,0.219
	c4.042,0.761,5.569,1.987,5.569-0.822c0-3.709-4.591-6.715-10.254-6.715c-0.669,0-1.321,0.045-1.954,0.125
	c-0.433-0.068-0.879-0.105-1.333-0.115v-0.006l-0.101,0.002c-0.048-0.001-0.095-0.006-0.143-0.006c-0.169,0-0.334,0.012-0.5,0.021
	l-0.143,0.003l0.001,0.003c-0.365,0.023-0.724,0.06-1.075,0.12c0.362-5.112,1.139-11.77,5.716-17.408
	c8.447,1.883,16.853,2.912,24.864,2.912c3.467,0,6.888-0.171,10.267-0.474c-1.519-15.705-2.951-31.178-13.302-44.98
	C573.816,273.224,550.601,243.072,521.954,218z"/>
<path fill="#A8A8A8" stroke="#272525" stroke-width="3" stroke-miterlimit="10" d="M543.927,164
	c-5.896,16.413-12.504,34.81-21.927,53.912c28.647,25.072,51.862,55.224,75.707,89.157c10.351,13.801,11.783,29.275,13.302,44.98
	c7.044-0.632,13.886-1.89,20.443-3.741c4.621,6.404,5.039,13.928,5.373,19.281c-1.005-0.273-2.055-0.446-3.055-0.488
	c-4.437-0.184-8.143,2.277-8.276,5.499c-0.134,3.221,3.713,1.007,8.02,0.665c2.829-0.224,4.509,1.27,5.923,1.388
	c0.305,0.161,0.714,0.201,1.235,0.149c1.451,0.213,4.085-0.542,8.239-1.414c4.021,0.649,5.747,2.464,6.216,0.765
	c3.259,0.873,4.495,1.723,4.601-0.839c0.154-3.706-4.308-6.9-9.966-7.135c-0.502-0.021-0.994-0.01-1.479,0.016
	c-0.188-0.027-0.38-0.045-0.572-0.062c1.573-5.518,2.511-12.872,2.669-19.427h0.001l-0.001-0.026
	c0.016-0.65,0.026-1.294,0.026-1.926c0-1.264-0.053-2.496-0.133-3.705c16.616-8.257,30.441-20.548,39.929-35.412
	c10.109-14.51,15.984-31.697,15.984-50.14c0-13.431-3.12-30.688-8.712-48.879C643.373,195.877,593.366,181.014,543.927,164z"/>
<path fill="#A8A8A8" stroke="#272525" stroke-width="3" stroke-miterlimit="10" d="M679.158,161.809
	c3.432-0.67,7.21-1.075,11.403-1.075c5.07,0-5.639-7.669-18.071-13.087c0.922-1.217,1.475-2.729,1.475-4.374
	c0-4.01-3.25-7.261-7.26-7.261c-0.996,0-1.946,0.201-2.81,0.565C646.795,112.393,625.707,95,602.889,95
	c-18.076,0-29.227,8.228-37.878,21.96c-8.245,11.687-14.145,28.109-21.011,47.223c49.439,17.014,99.446,31.877,153.547,42.622
	C692.968,191.908,686.735,176.387,679.158,161.809z"/>
</svg>
