<?xml version="1.0" encoding="utf-8"?>
<!-- Generator: Adobe Illustrator 17.0.0, SVG Export Plug-In . SVG Version: 6.00 Build 0)  -->
<!DOCTYPE svg PUBLIC "-//W3C//DTD SVG 1.1 Basic//EN" "http://www.w3.org/Graphics/SVG/1.1/DTD/svg11-basic.dtd">
<svg version="1.1" baseProfile="basic" id="Слой_1"
	 xmlns="http://www.w3.org/2000/svg" xmlns:xlink="http://www.w3.org/1999/xlink" x="0px" y="0px" width="212.625px"
	 height="253.312px" viewBox="0 0 212.625 253.312" xml:space="preserve">
<path fill="#AA6E4B" stroke="#FFFFFF" stroke-width="6" stroke-miterlimit="10" d="M203.705,120.774c0,0-1.909,4.584-9.162,10.32
	c-0.73,0.575-1.512,1.078-2.325,1.522c-0.787-0.558-1.981-0.859-3.338-0.983c-7.054,3.071-15.692,2.216-16.334,1.896h0.002
	c-0.764-0.388-32.449,0-37.792-1.911c-3.604-1.289-25.783-9.695-41.135-15.267c-1.724-2.304-5.558-7.252-12.283-15.092
	c-9.707-11.32-3.773-21.575,9.172-52.316C103.458,18.188,78.104,5.249,63,8.483c-11.861,2.54-18.731,12.728-21.135,16.986
	c-1.266,0.262-2.903,0.518-4.768,0.69c-0.008,0.001-0.017,0.001-0.025,0.002c-0.35,0.032-0.709,0.06-1.073,0.085
	c-0.069,0.005-0.137,0.01-0.207,0.014c-0.361,0.024-0.728,0.044-1.1,0.06c-0.114,0.005-0.23,0.008-0.345,0.012
	c-0.257,0.009-0.516,0.016-0.777,0.022c-0.159,0.003-0.317,0.006-0.477,0.008c-0.301,0.003-0.604,0.003-0.91,0
	c-0.213-0.002-0.427-0.007-0.641-0.013c-0.209-0.005-0.419-0.011-0.629-0.02c-0.199-0.008-0.399-0.017-0.599-0.027
	c-0.215-0.012-0.431-0.027-0.648-0.042c-0.305-0.021-0.61-0.047-0.915-0.076c-0.204-0.019-0.408-0.039-0.612-0.062
	c-0.204-0.023-0.408-0.048-0.611-0.074c-0.207-0.027-0.412-0.057-0.618-0.088c-0.29-0.043-0.578-0.091-0.866-0.142
	c-0.227-0.041-0.455-0.082-0.68-0.128c-0.189-0.038-0.376-0.08-0.563-0.122c-0.217-0.049-0.431-0.102-0.646-0.156
	c-0.2-0.051-0.4-0.102-0.598-0.157c-0.296-0.083-0.588-0.171-0.878-0.265c-0.161-0.052-0.32-0.108-0.478-0.164
	c-0.224-0.079-0.446-0.162-0.666-0.248c-0.139-0.054-0.279-0.106-0.416-0.164c-0.321-0.134-0.635-0.278-0.944-0.429
	c-0.127-0.062-0.25-0.128-0.375-0.193c-0.225-0.118-0.446-0.24-0.663-0.368c-0.112-0.066-0.225-0.13-0.335-0.198
	c-0.297-0.185-0.586-0.38-0.866-0.586c-0.091-0.067-0.178-0.138-0.267-0.208c-0.214-0.166-0.421-0.338-0.623-0.517
	c-0.088-0.078-0.177-0.155-0.263-0.236c-0.259-0.244-0.508-0.497-0.743-0.764c-0.056-0.063-0.107-0.131-0.161-0.196
	c-0.191-0.227-0.373-0.462-0.546-0.707c-0.064-0.09-0.128-0.18-0.189-0.272c-0.205-0.309-0.401-0.628-0.577-0.964
	c-0.025-0.048-0.046-0.099-0.07-0.147c-0.153-0.303-0.292-0.619-0.421-0.945c-0.041-0.104-0.081-0.209-0.119-0.315
	c-0.136-0.377-0.261-0.764-0.362-1.171c-0.001-0.006-0.003-0.011-0.005-0.016c-0.055-0.223-0.133-0.408-0.222-0.575
	c-0.021-0.04-0.045-0.074-0.068-0.111c-0.079-0.125-0.166-0.233-0.263-0.322c-0.025-0.023-0.048-0.049-0.074-0.07
	c-0.126-0.1-0.261-0.179-0.41-0.226c-0.008-0.003-0.018-0.002-0.027-0.005c-0.133-0.039-0.274-0.053-0.42-0.05
	c-0.06,0.001-0.12,0.008-0.182,0.016c-0.097,0.012-0.195,0.033-0.295,0.062c-0.077,0.021-0.152,0.041-0.231,0.072
	c-0.09,0.036-0.181,0.087-0.272,0.136c-2.024,1.07-4.234,5.179-2.497,11.38c2.673,9.543,15.653,9.543,19.087,10.304
	c3.434,0.761-13.363-1.911-15.27-0.761c-1.909,1.148,6.491,4.584,12.215,7.258c3.935,1.826,9.492,5.282,13.946,7.145
	c2.814,4.55,8.656,5.51,11.987,13.611c3.775,9.17-0.54,22.641-9.17,33.977c-5.995,7.866-8.866,20.416-10.061,27.348
	c-1.209,3.877-1.934,9.975-1.356,17.164c0.762,9.542-0.384,31.302,22.906,48.103c9.814,7.083,22.893,12.658,37.988,15.153
	l0.804,18.517c0,0-20.527-0.426-28.39-0.426c-7.863,0,0.873,3.061,0.873,3.061s-4.859,2.915-4.804,3.501s29.265-0.012,33.635-0.881
	c4.141-0.824,3.57-20.918,3.5-22.992c1.547,0.17,3.117,0.301,4.7,0.405l-0.778,32.654c0,0-4.801-0.883-12.668-3.503
	c-7.861-2.621-25.019-2.279-25.333-1.75s4.37,3.501,4.37,3.501s-14.853,3.927-4.804,5.681c10.045,1.749,45.864,0.438,45.864,0.438
	l2.858-36.806c15.842-0.344,33.066-4.117,50.603-12.729C204.851,173.077,203.705,120.774,203.705,120.774z"/>
<g id="__x0023_Layer_x0020_3">
	<path fill="#CC5030" d="M110.926,204.634l-3.057,39.363c0,0-35.819,1.311-45.864-0.438c-10.049-1.754,4.804-5.681,4.804-5.681
		l-4.37-3.501c0,0,17.472-0.871,25.333,1.75c7.867,2.62,12.668,3.503,12.668,3.503l0.875-36.746
		C101.315,202.882,111.36,204.634,110.926,204.634L110.926,204.634z"/>
	<path fill="#A13A30" d="M90.831,204.192l0.873,20.117c0,0-20.527-0.426-28.39-0.426s0.873,3.061,0.873,3.061l-4.804,3.501
		c0,0,29.265-0.012,33.635-0.881c4.366-0.869,3.493-23.178,3.493-23.178L90.831,204.192z"/>
	<path fill="#EAC233" d="M44.513,24.577c0.379,0.907-27.236,6.536-30.924-8.393c-0.954-3.877-7.635,0.761-4.961,10.306
		c2.673,9.543,15.653,9.543,19.087,10.304c3.434,0.761-13.363-1.911-15.27-0.761c-1.909,1.148,6.491,4.584,12.215,7.258
		c5.726,2.657,14.89,8.769,19.087,8.393C47.947,51.296,44.13,23.667,44.513,24.577L44.513,24.577z"/>
	<path fill="#F6D430" d="M38.096,26.059c-8.298,0.922-21.987,0.322-24.507-9.876c-0.353-1.446-1.493-1.699-2.653-0.975
		C7.785,23.467,15.12,31.822,25.334,32.53C34.011,33.129,37.184,28.4,38.096,26.059L38.096,26.059z"/>
	<path fill="#AA6E4B" d="M40.883,27.356c0,0,7.015-15.639,22.117-18.873c15.104-3.234,40.458,9.705,27.511,40.46
		c-12.945,30.741-18.879,40.996-9.172,52.316c9.71,11.321,13.401,16.621,13.401,16.621c0-0.002-13.938,8.734-36.593,14.121
		c-22.66,5.4-27.513-1.617-27.513-1.617s2.16-21.038,10.789-32.36c8.63-11.336,12.945-24.807,9.17-33.977
		c-3.777-9.185-10.787-9.183-12.945-15.651c-2.162-6.47,3.234-21.038,3.234-21.038v-0.002H40.883z"/>
	<path fill="#BA8361" d="M66.175,16.583c-8.167,0-14.794,6.095-14.794,13.62s6.627,13.634,14.794,13.634S80.97,37.728,80.97,30.203
		C80.968,22.678,74.342,16.583,66.175,16.583L66.175,16.583z"/>
	<path fill="#2B2A29" d="M65.902,26.084c6.022,3.505,5.016,10.035-2.508,12.035c-6.964,1.864-10.441-2.125-10.161-6.164
		c0.336-4.861,5.799-9.886,12.67-5.869L65.902,26.084L65.902,26.084z"/>
	<path fill="#FFFFFF" d="M65.358,26.928c5.11,2.985,4.258,8.52-2.129,10.223c-5.908,1.578-8.852-1.815-8.62-5.235
		c0.285-4.127,4.919-8.381,10.749-4.986V26.928z"/>
	<path fill="#2B2A29" d="M62.537,29.032c2.72,1.593,2.266,4.533-1.136,5.443c-3.146,0.84-4.713-0.965-4.588-2.781
		c0.153-2.206,2.62-4.464,5.724-2.659C62.537,29.035,62.537,29.032,62.537,29.032z"/>
	<path fill="#FFFFFF" d="M63.186,32.108c1.091,0.64,0.912,1.819-0.455,2.192c-1.264,0.334-1.894-0.387-1.843-1.122
		C60.951,32.293,61.94,31.386,63.186,32.108L63.186,32.108z"/>
	<path fill="#FFFFFF" d="M59.903,29.446c0.653,0.387,0.547,1.099-0.269,1.311c-0.757,0.2-1.13-0.241-1.099-0.667
		c0.037-0.536,0.628-1.071,1.368-0.642V29.446z"/>
	<path fill="#BA8361" d="M174.308,135.291c0.767,0.371,12.98,1.521,20.235-4.197c7.253-5.736,9.162-10.32,9.162-10.32
		s1.146,52.303-42.375,73.688c-43.521,21.373-85.132,12.982-108.418-3.823c-23.29-16.801-22.144-38.561-22.906-48.103
		c-0.767-9.548,0.763-17.176,2.673-20.225c1.907-3.063,43.902-9.931,48.099-9.168c4.199,0.761,50.395,18.324,55.737,20.235
		c5.343,1.913,37.028,1.523,37.795,1.913L174.308,135.291L174.308,135.291z"/>
	<path fill="#AA6E4B" d="M172.546,133.529c0.642,0.32,9.28,1.175,16.334-1.896c1.735,0.159,3.214,0.6,3.901,1.509
		c2.292,3.061-4.582,8.018-13.744,9.931c-9.16,1.909,4.582,0.761,4.963,6.87c0.383,6.107-16.034,11.067-35.121,23.284
		c-19.091,12.217-48.863,14.892-77.116-1.911c-21.106-12.551-19.621-41.076-14.017-57.408c10.004-1.686,19.397-2.861,21.273-2.527
		c4.199,0.763,50.393,18.326,55.737,20.237c5.343,1.911,37.028,1.523,37.792,1.911H172.546z"/>
</g>
</svg>
