<?xml version="1.0" encoding="utf-8"?>
<!-- Generator: Adobe Illustrator 17.0.0, SVG Export Plug-In . SVG Version: 6.00 Build 0)  -->
<!DOCTYPE svg PUBLIC "-//W3C//DTD SVG 1.1 Basic//EN" "http://www.w3.org/Graphics/SVG/1.1/DTD/svg11-basic.dtd">
<svg version="1.1" baseProfile="basic" id="Слой_1"
	 xmlns="http://www.w3.org/2000/svg" xmlns:xlink="http://www.w3.org/1999/xlink" x="0px" y="0px" width="212.625px"
	 height="253.312px" viewBox="0 0 212.625 253.312" xml:space="preserve">
<path fill="#BA8361" stroke="#F9F9F9" stroke-width="6" stroke-miterlimit="10" d="M203.705,120.774c0,0-1.909,4.584-9.162,10.32
	c-0.73,0.575-1.511,1.078-2.324,1.522c0.219,0.156,0.413,0.328,0.563,0.526c2.292,3.061-4.582,8.018-13.744,9.931
	c-9.16,1.909,4.582,0.761,4.963,6.87c0.383,6.107-16.034,11.067-35.121,23.284c-19.091,12.217-48.863,14.892-77.116-1.911
	c-14.249-8.473-18.193-24.221-17.532-38.586c0.077-1.674,0.215-3.33,0.407-4.954c0.01-0.083,0.021-0.164,0.031-0.247
	c0.084-0.685,0.178-1.362,0.28-2.034c0.026-0.173,0.052-0.347,0.08-0.519c0.108-0.676,0.224-1.344,0.348-2.003
	c0.015-0.081,0.028-0.164,0.044-0.244c0.13-0.674,0.271-1.335,0.417-1.991c0.067-0.301,0.137-0.597,0.208-0.893
	c0.085-0.359,0.173-0.713,0.262-1.065c0.085-0.335,0.17-0.672,0.26-1c0.077-0.285,0.159-0.563,0.239-0.843
	c0.081-0.284,0.16-0.573,0.244-0.851c-0.001,0-0.002,0-0.003,0.001c0.224-0.746,0.456-1.474,0.698-2.177
	c10.004-1.686,19.397-2.861,21.273-2.527c1.367,0.248,7.19,2.279,14.604,4.971c-1.724-2.304-5.558-7.252-12.284-15.093
	c-9.707-11.32-3.772-21.575,9.172-52.316C103.458,18.188,78.105,5.249,63,8.483c-11.861,2.54-18.731,12.728-21.135,16.985
	c-1.515,0.313-3.568,0.618-5.897,0.779c-0.053,0.004-0.106,0.008-0.16,0.011c-0.371,0.024-0.749,0.045-1.132,0.061
	c-0.096,0.004-0.193,0.007-0.289,0.01c-0.28,0.01-0.563,0.018-0.849,0.024c-0.141,0.003-0.282,0.006-0.425,0.007
	c-0.352,0.004-0.707,0.004-1.065,0c-0.151-0.002-0.304-0.007-0.456-0.011c-0.235-0.005-0.47-0.013-0.707-0.022
	c-0.184-0.007-0.368-0.015-0.553-0.025c-0.253-0.013-0.507-0.031-0.761-0.049c-0.253-0.018-0.506-0.04-0.76-0.063
	c-0.233-0.022-0.466-0.045-0.699-0.071c-0.188-0.021-0.376-0.044-0.564-0.068c-0.237-0.031-0.473-0.065-0.709-0.101
	c-0.24-0.036-0.48-0.075-0.718-0.117c-0.262-0.046-0.523-0.095-0.782-0.148c-0.173-0.035-0.345-0.073-0.517-0.112
	c-0.242-0.054-0.482-0.113-0.72-0.174c-0.145-0.037-0.291-0.071-0.435-0.111c-0.341-0.094-0.677-0.196-1.01-0.305
	c-0.146-0.047-0.289-0.098-0.433-0.148c-0.245-0.086-0.488-0.176-0.728-0.271c-0.122-0.048-0.246-0.094-0.367-0.144
	c-0.33-0.138-0.653-0.286-0.971-0.442c-0.114-0.056-0.225-0.116-0.337-0.174c-0.241-0.126-0.478-0.257-0.71-0.394
	c-0.101-0.059-0.203-0.117-0.301-0.178c-0.304-0.189-0.599-0.388-0.885-0.599c-0.082-0.06-0.159-0.124-0.239-0.186
	c-0.226-0.174-0.445-0.356-0.657-0.545c-0.08-0.071-0.161-0.141-0.239-0.214c-0.264-0.248-0.517-0.506-0.757-0.778
	c-0.05-0.056-0.095-0.117-0.143-0.174c-0.198-0.235-0.387-0.479-0.566-0.732c-0.06-0.084-0.12-0.169-0.178-0.255
	c-0.208-0.313-0.406-0.635-0.584-0.976c-0.021-0.04-0.039-0.084-0.059-0.124c-0.158-0.311-0.301-0.636-0.432-0.971
	c-0.039-0.099-0.077-0.199-0.114-0.301c-0.139-0.384-0.266-0.778-0.369-1.194c-0.054-0.223-0.133-0.408-0.222-0.574
	c-0.022-0.041-0.047-0.077-0.071-0.115c-0.077-0.123-0.164-0.229-0.259-0.317c-0.027-0.025-0.051-0.052-0.079-0.074
	c-0.125-0.098-0.258-0.177-0.405-0.223c-0.016-0.005-0.033-0.004-0.049-0.008c-0.126-0.034-0.258-0.049-0.396-0.047
	c-0.065,0-0.13,0.009-0.197,0.017c-0.09,0.012-0.181,0.032-0.273,0.058c-0.083,0.023-0.165,0.044-0.249,0.077
	c-0.069,0.028-0.138,0.068-0.207,0.103c-2.04,1.02-4.309,5.148-2.555,11.409c2.673,9.543,15.653,9.543,19.087,10.304
	s-13.363-1.911-15.27-0.761c-1.909,1.148,6.491,4.584,12.215,7.258c3.935,1.826,9.493,5.283,13.947,7.145
	c2.814,4.551,8.656,5.511,11.987,13.612c3.775,9.17-0.54,22.641-9.17,33.977c-5.996,7.866-8.866,20.415-10.061,27.348
	c-1.209,3.877-1.934,9.976-1.356,17.164c0.763,9.541-0.383,31.302,22.906,48.103c9.814,7.083,22.892,12.658,37.988,15.154
	l0.803,18.516c0,0-20.527-0.426-28.39-0.426s0.873,3.061,0.873,3.061s-4.849,3.248-4.804,3.501s29.265-0.012,33.635-0.881
	c4.14-0.824,3.57-20.915,3.5-22.991c1.547,0.17,3.117,0.301,4.7,0.405l-0.777,32.652c0,0-4.8-0.883-12.667-3.503
	c-7.861-2.62-25.331-1.978-25.333-1.75s4.37,3.501,4.37,3.501s-14.854,3.927-4.804,5.681c10.045,1.75,45.864,0.438,45.864,0.438
	l2.858-36.805c15.843-0.344,33.067-4.117,50.603-12.729C204.851,173.077,203.705,120.774,203.705,120.774z"/>
<g>
	<g>
		<path fill="#AA6E4B" d="M57.745,113.908c10.004-1.686,19.397-2.861,21.273-2.527c1.367,0.248,7.19,2.279,14.604,4.971
			c-1.724-2.304-5.558-7.252-12.284-15.093c-9.707-11.32-3.773-21.575,9.172-52.316C103.458,18.188,78.105,5.249,63,8.483
			c-15.102,3.234-22.117,18.873-22.117,18.873v0.002c0,0-5.396,14.568-3.234,21.038c2.157,6.468,9.168,6.466,12.945,15.651
			c3.775,9.17-0.54,22.641-9.17,33.977c-8.63,11.322-10.789,32.36-10.789,32.36s4.286,6.19,23.589,2.464
			C54.53,125.889,55.914,119.246,57.745,113.908z"/>
		<path fill="#CC5030" d="M110.926,204.634l-3.057,39.363c0,0-35.819,1.311-45.864-0.438c-10.049-1.754,4.804-5.681,4.804-5.681
			l-4.37-3.501c0,0,17.472-0.871,25.333,1.75c7.867,2.62,12.668,3.503,12.668,3.503l0.875-36.746
			C101.315,202.882,111.36,204.634,110.926,204.634L110.926,204.634z"/>
		<path fill="#A13A30" d="M90.831,204.192l0.873,20.117c0,0-20.527-0.426-28.39-0.426s0.873,3.061,0.873,3.061l-4.804,3.501
			c0,0,29.265-0.012,33.635-0.881c4.366-0.869,3.493-23.178,3.493-23.178L90.831,204.192z"/>
		<path fill="#EAC233" d="M44.513,24.577c0.379,0.907-27.236,6.536-30.924-8.393c-0.954-3.877-7.635,0.761-4.961,10.306
			c2.673,9.543,15.653,9.543,19.087,10.304c3.434,0.761-13.363-1.911-15.27-0.761c-1.909,1.148,6.491,4.584,12.215,7.258
			c5.726,2.657,14.89,8.769,19.087,8.393C47.947,51.296,44.13,23.667,44.513,24.577L44.513,24.577z"/>
		<path fill="#F6D430" d="M38.096,26.059c-8.298,0.922-21.987,0.322-24.507-9.876c-0.353-1.446-1.493-1.699-2.653-0.975
			C7.785,23.467,15.12,31.822,25.334,32.53C34.011,33.129,37.184,28.4,38.096,26.059L38.096,26.059z"/>
		<path fill="#BA8361" d="M66.175,16.583c-8.167,0-14.794,6.095-14.794,13.62s6.627,13.634,14.794,13.634S80.97,37.728,80.97,30.203
			C80.968,22.678,74.342,16.583,66.175,16.583L66.175,16.583z"/>
		<path fill="#2B2A29" d="M65.902,26.084c6.022,3.505,5.016,10.035-2.508,12.035c-6.964,1.864-10.441-2.125-10.161-6.164
			c0.336-4.861,5.799-9.886,12.67-5.869V26.084z"/>
		<path fill="#FFFFFF" d="M65.358,26.928c5.11,2.985,4.258,8.52-2.129,10.223c-5.908,1.578-8.852-1.815-8.62-5.235
			c0.285-4.127,4.919-8.381,10.749-4.986V26.928z"/>
		<path fill="#2B2A29" d="M62.537,29.032c2.72,1.593,2.266,4.533-1.136,5.443c-3.146,0.84-4.713-0.965-4.588-2.781
			c0.153-2.206,2.62-4.464,5.724-2.659V29.032z"/>
		<path fill="#FFFFFF" d="M63.186,32.108c1.091,0.64,0.912,1.819-0.455,2.192c-1.264,0.334-1.894-0.387-1.843-1.122
			C60.951,32.293,61.94,31.386,63.186,32.108L63.186,32.108z"/>
		<path fill="#FFFFFF" d="M59.903,29.446c0.653,0.387,0.547,1.099-0.269,1.311c-0.757,0.2-1.13-0.241-1.099-0.667
			c0.037-0.536,0.628-1.071,1.368-0.642V29.446z"/>
		<path fill="#BA8361" d="M203.705,120.774c0,0-1.909,4.584-9.162,10.32c-0.73,0.575-1.511,1.078-2.324,1.522
			c0.219,0.156,0.413,0.328,0.563,0.526c2.292,3.061-4.582,8.018-13.744,9.931c-9.16,1.909,4.582,0.761,4.963,6.87
			c0.383,6.107-16.034,11.067-35.121,23.284c-19.091,12.217-48.863,14.892-77.116-1.911c-20.199-12.012-19.704-38.648-14.712-55.231
			c-11.664,2.038-23.385,4.642-24.372,6.227c-1.911,3.049-3.44,10.677-2.673,20.225c0.763,9.541-0.383,31.302,22.906,48.103
			c23.286,16.805,64.898,25.196,108.418,3.824C204.851,173.077,203.705,120.774,203.705,120.774z"/>
	</g>
</g>
</svg>
