<?xml version="1.0" encoding="utf-8"?>
<!-- Generator: Adobe Illustrator 17.0.0, SVG Export Plug-In . SVG Version: 6.00 Build 0)  -->
<!DOCTYPE svg PUBLIC "-//W3C//DTD SVG 1.1 Basic//EN" "http://www.w3.org/Graphics/SVG/1.1/DTD/svg11-basic.dtd">
<svg version="1.1" baseProfile="basic" id="Слой_1"
	 xmlns="http://www.w3.org/2000/svg" xmlns:xlink="http://www.w3.org/1999/xlink" x="0px" y="0px" width="314px" height="263.25px"
	 viewBox="0 0 314 263.25" xml:space="preserve">
<path fill="#6DC42F" stroke="#FFFFFF" stroke-width="6" stroke-miterlimit="10" d="M309.432,33.199l-10.053-0.453
	c0,0,0.023,0.08,0.05,0.231c0.186,1.012,0.589,5.232-3.929,10.268c-12.842-16.777-31.987-18.962-47.207-17.285c0,0,0,0,0,0
	c-0.01,0.001-0.019,0.003-0.029,0.004c-13.604,1.503-24.065,6.087-24.065,6.087C217.073,26.357,220.03,8,219.578,8
	c-0.688-0.001-10.744,14.625-6.364,30.953c-0.2,0.063-0.403,0.126-0.601,0.189c-55.156,9.23-151.589,57.361-167.678,80.967
	c-5.629,5.111-10.909,11.393-15.497,18.246c-16.966,23.963-20.211,45.179-20.211,45.179C-1.667,253.87,63.6,258.499,63.6,258.499
	c56.379,0.519,95.503-55.8,95.503-55.8c7.967-15.602,74.226-60.952,92.026-72.948c8.893,2.261,16.315,0.366,22.414-3.67
	c18.675-5.547,27.575-24.859,27.575-24.859c8.537-24.14,4.531-40.061,0.695-48.237C304.803,49.923,310.493,42.735,309.432,33.199z"
	/>
<path fill="#EB7272" d="M1602.97,686.224c0.358-0.247,0.715-0.495,1.073-0.742c0.084,0.127,0.169,0.254,0.253,0.381
	c-0.434,0.129-0.868,0.259-1.302,0.388C1602.994,686.25,1602.97,686.224,1602.97,686.224z"/>
<path fill="#EB7272" d="M1570.006,1049.175c0.243,0.36,0.489,0.718,0.714,1.089c0.004,0.007-0.235,0.163-0.361,0.249
	c-0.133-0.432-0.267-0.865-0.401-1.297C1569.957,1049.216,1570.006,1049.175,1570.006,1049.175z"/>
<g id="Слой_x0020_1">
	<g id="_289181816">
		<path fill="#6DC42F" d="M274.133,37.83c-27.967,4.648-46.517-1.983-49.35-6.021c2.377-0.966,11.771-4.554,23.511-5.849
			C248.282,37.396,274.133,37.83,274.133,37.83z"/>
		<path fill="#6DC42F" d="M296.913,86.186c0.558,0.817-12.488,54.08-47.686,43.029c0,0,12.712-30.504,13.613-30.753
			c0.897-0.249,31.546-22.815,31.546-22.815L296.913,86.186L296.913,86.186z"/>
		<path fill="#432C50" d="M296.266,72.229c0.706,3.103,6.066,29.147-40.741,54.575c0,0-87.207,57.849-96.423,75.895
			c0,0-39.123,56.32-95.503,55.801c0,0-65.267-4.629-54.374-74.966c0,0,4.161-27.272,27.777-54.902
			c-22.728,28.111-41.276,83.16,8.213,78.245c47.362-4.702,89.301-83.782,129.537-117.013
			c40.259-33.231,72.849-28.936,75.024-44.166c-4.433-8.344-18.419-9.693-37.166-6.555
			C240.629,30.205,285.179,24.411,296.266,72.229z"/>
		<path fill="#6D4285" d="M44.934,120.109c-32.13,29.175-52.981,96.434,2.213,90.951c47.362-4.702,89.301-83.782,129.535-117.012
			c40.26-33.233,70.92-33.121,73.094-48.352C232.307,12.804,66.492,88.479,44.934,120.109z"/>
		
			<linearGradient id="SVGID_1_" gradientUnits="userSpaceOnUse" x1="-18105.7285" y1="-2261.9519" x2="-18109.75" y2="-2247.7954" gradientTransform="matrix(0 0 0 0 -263.4716 -165.8906)">
			<stop  offset="0" style="stop-color:#96BB2C"/>
			<stop  offset="1" style="stop-color:#579143"/>
		</linearGradient>
		<path fill="url(#SVGID_1_)" d="M300.073,54.607c0,0,10.786-8.584,9.36-21.408l-10.053-0.453c0,0,1.447,5.102-4.534,11.216
			l5.228,10.645H300.073z"/>
		<path fill="#6DC42F" d="M300.073,54.606c0,0,10.785-8.583,9.36-21.406l-10.053-0.453c0,0,1.447,5.102-4.532,11.216L300.073,54.606
			z"/>
		
			<linearGradient id="SVGID_2_" gradientUnits="userSpaceOnUse" x1="41557.9883" y1="-212326.6406" x2="6276.73" y2="-88108.9922" gradientTransform="matrix(0 0 0 0 -263.4716 -165.8906)">
			<stop  offset="0" style="stop-color:#96BB2C"/>
			<stop  offset="1" style="stop-color:#579143"/>
		</linearGradient>
		<path fill="url(#SVGID_2_)" d="M294.251,81.017c0,0-7.533-9.965-45.743-17.567c0,0-57.574-12.496-28.93-55.45
			c0,0-10.456,38.014,18.258,40.046C237.836,48.046,304.413,58.723,294.251,81.017z"/>
		<path fill="#6DC42F" d="M294.251,81.017c0,0-7.533-9.965-45.743-17.567c0,0-57.574-12.496-28.93-55.45
			c0,0-10.456,38.014,18.258,40.046C237.836,48.046,304.413,58.723,294.251,81.017z"/>
		<path fill="#4A8F11" d="M294.785,82.572c0,0-13.986-18.97-46.3-23.246c0,0-49.662-7.936-28.907-51.326
			c0,0-2.504,18.357,4.622,24.051c0,0,50.004-21.924,73.552,14.388c0,0,16.479,17.704,3.366,54.782c0,0-13.393,29.076-41.804,26.127
			c0,0,39.391-11.832,35.469-44.776H294.785z"/>
		<path fill="#6DC42F" d="M274.133,37.83c-27.967,4.648-46.517-1.983-49.35-6.021c2.377-0.966,11.771-4.554,23.511-5.849
			C248.282,37.396,274.133,37.83,274.133,37.83z"/>
	</g>
</g>
</svg>
