<?xml version="1.0" encoding="utf-8"?>
<!-- Generator: Adobe Illustrator 17.0.0, SVG Export Plug-In . SVG Version: 6.00 Build 0)  -->
<!DOCTYPE svg PUBLIC "-//W3C//DTD SVG 1.1 Basic//EN" "http://www.w3.org/Graphics/SVG/1.1/DTD/svg11-basic.dtd">
<svg version="1.1" baseProfile="basic" id="Слой_1"
	 xmlns="http://www.w3.org/2000/svg" xmlns:xlink="http://www.w3.org/1999/xlink" x="0px" y="0px" width="314px" height="263.25px"
	 viewBox="0 0 314 263.25" xml:space="preserve">
<path fill="#432C50" stroke="#FFFFFF" stroke-width="6" stroke-miterlimit="10" d="M294.784,82.572c0,0-1.515-2.047-4.679-4.942
	c-5.45-3.576-17.333-9.353-41.597-14.18c0,0-5.802-1.263-12.804-4.355c-0.392-0.173-0.789-0.354-1.187-0.539
	c-0.12-0.055-0.238-0.109-0.359-0.165c-8.068-3.792-17.234-9.97-20.912-19.359c-0.011-0.027-0.022-0.054-0.033-0.081
	c-0.198,0.062-0.397,0.124-0.594,0.187c-55.154,9.227-151.596,57.362-167.686,80.97c-5.629,5.111-10.909,11.393-15.497,18.246
	c-16.966,23.963-20.211,45.178-20.211,45.178C-1.667,253.87,63.6,258.499,63.6,258.499c56.379,0.519,95.503-55.801,95.503-55.801
	c7.967-15.602,74.226-60.951,92.026-72.948c0.005-0.003,0.009-0.006,0.013-0.009c2.779-1.873,4.384-2.938,4.384-2.938
	c0.777-0.422,1.538-0.844,2.286-1.267c0.252-0.142,0.495-0.284,0.743-0.426c0.493-0.282,0.985-0.564,1.466-0.846
	c0.283-0.166,0.558-0.332,0.837-0.497c0.433-0.258,0.865-0.516,1.288-0.774c0.288-0.175,0.571-0.351,0.854-0.526
	c0.402-0.249,0.801-0.498,1.194-0.747c0.281-0.178,0.56-0.357,0.837-0.535c0.384-0.247,0.763-0.494,1.138-0.741
	c0.269-0.177,0.537-0.354,0.801-0.531c0.377-0.252,0.747-0.504,1.114-0.756c0.247-0.169,0.496-0.339,0.738-0.508
	c0.384-0.267,0.758-0.534,1.132-0.801c0.215-0.153,0.433-0.307,0.645-0.46c0.447-0.324,0.884-0.648,1.316-0.972
	c0.125-0.094,0.255-0.187,0.379-0.281c0.553-0.418,1.094-0.835,1.624-1.251c0.138-0.109,0.27-0.217,0.407-0.325
	c0.388-0.308,0.773-0.616,1.147-0.923c0.183-0.15,0.36-0.299,0.539-0.449c0.319-0.266,0.638-0.532,0.948-0.797
	c0.188-0.161,0.372-0.322,0.557-0.482c0.292-0.254,0.582-0.507,0.865-0.76c0.183-0.163,0.363-0.326,0.543-0.489
	c0.277-0.251,0.549-0.502,0.818-0.752c0.172-0.161,0.344-0.321,0.512-0.481c0.269-0.255,0.532-0.509,0.792-0.763
	c0.157-0.153,0.314-0.306,0.468-0.458c0.271-0.269,0.535-0.537,0.797-0.805c0.131-0.134,0.266-0.269,0.395-0.403
	c0.308-0.319,0.607-0.637,0.902-0.954c0.074-0.08,0.151-0.16,0.225-0.239c0.747-0.812,1.453-1.616,2.119-2.413
	c0.064-0.076,0.124-0.151,0.187-0.227c0.263-0.317,0.521-0.634,0.772-0.949c0.083-0.105,0.164-0.209,0.246-0.314
	c0.225-0.287,0.447-0.573,0.663-0.858c0.084-0.111,0.165-0.221,0.247-0.331c0.209-0.281,0.414-0.561,0.614-0.84
	c0.076-0.105,0.151-0.211,0.225-0.316c0.202-0.286,0.4-0.572,0.592-0.855c0.064-0.094,0.128-0.188,0.19-0.281
	c0.205-0.306,0.403-0.61,0.597-0.913c0.043-0.067,0.087-0.134,0.129-0.201c0.23-0.364,0.454-0.726,0.669-1.085
	c0.002-0.003,0.004-0.007,0.006-0.01c0.907-1.518,1.677-2.991,2.329-4.412c0.007-0.015,0.013-0.029,0.02-0.043
	c0.155-0.339,0.304-0.676,0.446-1.009c0.007-0.016,0.014-0.032,0.021-0.049c0.143-0.338,0.281-0.672,0.411-1.003
	c0.002-0.005,0.004-0.01,0.006-0.016c0.269-0.683,0.51-1.351,0.727-2.004C295.072,86.032,294.993,84.334,294.784,82.572z"/>
<path fill="#EB7272" d="M1602.97,686.224c0.358-0.247,0.715-0.495,1.073-0.742c0.084,0.127,0.169,0.254,0.253,0.381
	c-0.434,0.129-0.868,0.259-1.302,0.388C1602.994,686.25,1602.97,686.224,1602.97,686.224z"/>
<path fill="#EB7272" d="M1570.006,1049.175c0.243,0.36,0.489,0.718,0.714,1.089c0.004,0.007-0.235,0.163-0.361,0.249
	c-0.133-0.432-0.267-0.865-0.401-1.297C1569.957,1049.216,1570.006,1049.175,1570.006,1049.175z"/>
<g>
	<path fill="#6D4285" d="M213.246,39.032c-55.048,8.967-152.161,57.381-168.312,81.077c-32.13,29.175-52.981,96.434,2.213,90.951
		c47.362-4.702,89.301-83.782,129.535-117.011c24.872-20.53,46.068-28.333,59.159-34.891
		C227.407,55.454,217.182,49.081,213.246,39.032z"/>
	<g>
		<path fill="#432C50" d="M213.214,38.953c-0.201,0.063-0.404,0.126-0.603,0.19c0.217-0.036,0.425-0.064,0.64-0.099
			C213.239,39.013,213.226,38.983,213.214,38.953z"/>
		<path fill="#432C50" d="M251.129,129.751c0.005-0.003,0.009-0.006,0.013-0.009c2.779-1.873,4.384-2.938,4.384-2.938
			c0.777-0.422,1.538-0.844,2.286-1.267c0.252-0.142,0.495-0.284,0.743-0.426c0.493-0.282,0.985-0.564,1.466-0.846
			c0.283-0.166,0.558-0.332,0.837-0.497c0.433-0.258,0.865-0.516,1.288-0.774c0.288-0.175,0.571-0.351,0.854-0.526
			c0.402-0.249,0.801-0.498,1.194-0.747c0.281-0.178,0.56-0.357,0.837-0.535c0.384-0.247,0.763-0.494,1.138-0.741
			c0.269-0.177,0.537-0.354,0.801-0.531c0.377-0.252,0.747-0.504,1.114-0.756c0.247-0.169,0.496-0.339,0.738-0.508
			c0.384-0.267,0.758-0.534,1.132-0.801c0.215-0.153,0.433-0.307,0.645-0.46c0.447-0.324,0.884-0.648,1.316-0.972
			c0.125-0.094,0.255-0.187,0.379-0.281c0.553-0.418,1.094-0.835,1.624-1.251c0.138-0.109,0.27-0.217,0.407-0.325
			c0.388-0.308,0.773-0.616,1.147-0.923c0.183-0.15,0.36-0.299,0.539-0.449c0.319-0.266,0.638-0.532,0.948-0.797
			c0.188-0.161,0.372-0.322,0.557-0.482c0.292-0.254,0.582-0.507,0.865-0.76c0.183-0.163,0.363-0.326,0.543-0.489
			c0.277-0.251,0.549-0.502,0.818-0.752c0.172-0.161,0.344-0.321,0.512-0.481c0.269-0.255,0.532-0.509,0.792-0.763
			c0.157-0.153,0.314-0.306,0.468-0.458c0.271-0.269,0.535-0.537,0.797-0.805c0.131-0.134,0.266-0.269,0.395-0.403
			c0.308-0.319,0.607-0.637,0.902-0.954c0.074-0.08,0.151-0.16,0.225-0.239c0.747-0.812,1.453-1.616,2.119-2.413
			c0.064-0.076,0.124-0.151,0.187-0.227c0.263-0.317,0.521-0.634,0.772-0.949c0.083-0.105,0.164-0.209,0.246-0.314
			c0.225-0.287,0.447-0.573,0.663-0.858c0.084-0.111,0.165-0.221,0.247-0.331c0.209-0.281,0.414-0.561,0.614-0.84
			c0.076-0.105,0.151-0.211,0.225-0.316c0.202-0.286,0.4-0.572,0.592-0.855c0.064-0.094,0.128-0.188,0.19-0.281
			c0.205-0.306,0.403-0.61,0.597-0.913c0.043-0.067,0.087-0.134,0.129-0.201c0.23-0.364,0.454-0.726,0.669-1.085
			c0.002-0.003,0.004-0.007,0.006-0.01c0.907-1.518,1.677-2.991,2.329-4.412c0.007-0.015,0.013-0.029,0.02-0.043
			c0.155-0.339,0.304-0.676,0.446-1.009c0.007-0.016,0.014-0.032,0.021-0.049c0.143-0.338,0.281-0.672,0.411-1.003
			c0.002-0.005,0.004-0.01,0.006-0.016c0.269-0.683,0.51-1.351,0.727-2.004c0.025-1.643-0.053-3.341-0.263-5.103h0.001
			c0,0-1.516-2.047-4.68-4.942c-5.45-3.576-17.333-9.353-41.597-14.18c0,0-6.809-1.478-14.578-5.164
			c-13.724,5.237-35.071,11.68-59.177,31.577c-40.236,33.231-82.175,112.311-129.537,117.013
			c-49.489,4.914-30.941-50.134-8.213-78.245c-23.617,27.63-27.777,54.902-27.777,54.902C-1.667,253.87,63.6,258.499,63.6,258.499
			c56.379,0.519,95.503-55.801,95.503-55.801C167.07,187.096,233.329,141.747,251.129,129.751L251.129,129.751z"/>
	</g>
</g>
</svg>
