<?xml version="1.0" encoding="utf-8"?>
<!-- Generator: Adobe Illustrator 17.0.0, SVG Export Plug-In . SVG Version: 6.00 Build 0)  -->
<!DOCTYPE svg PUBLIC "-//W3C//DTD SVG 1.1//EN" "http://www.w3.org/Graphics/SVG/1.1/DTD/svg11.dtd">
<svg version="1.1" id="Слой_1" xmlns="http://www.w3.org/2000/svg" xmlns:xlink="http://www.w3.org/1999/xlink" x="0px" y="0px"
	 width="97.975px" height="122.717px" viewBox="0 0 97.975 122.717" enable-background="new 0 0 97.975 122.717"
	 xml:space="preserve">
<path fill="#BAAE52" d="M97.845,25.199l-10.053-0.453c0,0,0.023,0.08,0.05,0.231c0.186,1.012,0.589,5.232-3.929,10.268
	C71.071,18.469,51.927,16.284,36.707,17.961c0,0,0,0,0,0c-0.009,0.001-0.017,0.002-0.026,0.003
	c-13.605,1.503-24.068,6.087-24.068,6.087C5.486,18.357,7.991,0,7.991,0c-28.644,42.954,28.93,55.45,28.93,55.45
	c24.264,4.827,36.147,10.604,41.597,14.18c0.242,0.222,0.477,0.439,0.699,0.65c-0.002,0.001-0.003,0.002-0.005,0.004
	c2.679,2.539,3.986,4.289,3.986,4.289h-0.001c0.1,0.843,0.167,1.669,0.21,2.484c0.003,0.058,0.008,0.116,0.011,0.174
	c0.04,0.828,0.055,1.643,0.042,2.444c0,0,0,0,0,0c-0.217,0.653-0.458,1.322-0.727,2.004c-0.002,0.005-0.004,0.01-0.006,0.016
	c-0.13,0.331-0.268,0.665-0.411,1.003c-0.007,0.016-0.014,0.032-0.021,0.049c-0.142,0.333-0.291,0.669-0.446,1.009
	c-0.007,0.015-0.013,0.029-0.02,0.043c-0.652,1.42-1.422,2.894-2.329,4.412c-0.002,0.003-0.004,0.007-0.006,0.01
	c-0.215,0.359-0.438,0.721-0.669,1.085c-0.042,0.067-0.086,0.134-0.129,0.201c-0.194,0.303-0.392,0.607-0.597,0.913
	c-0.063,0.093-0.127,0.187-0.19,0.281c-0.193,0.284-0.39,0.569-0.592,0.855c-0.074,0.105-0.149,0.21-0.225,0.316
	c-0.2,0.279-0.405,0.559-0.614,0.84c-0.082,0.11-0.164,0.22-0.247,0.331c-0.215,0.285-0.437,0.571-0.663,0.858
	c-0.082,0.105-0.162,0.209-0.246,0.314c-0.25,0.315-0.509,0.631-0.772,0.949c-0.063,0.076-0.123,0.151-0.187,0.227
	c-0.666,0.797-1.372,1.602-2.119,2.413c-0.073,0.08-0.151,0.16-0.225,0.239c-0.295,0.317-0.594,0.635-0.902,0.954
	c-0.129,0.134-0.263,0.269-0.395,0.403c-0.262,0.268-0.526,0.536-0.797,0.805c-0.154,0.152-0.311,0.305-0.468,0.458
	c-0.26,0.254-0.523,0.508-0.792,0.763c-0.169,0.16-0.34,0.321-0.512,0.481c-0.268,0.25-0.541,0.501-0.818,0.752
	c-0.179,0.163-0.36,0.326-0.543,0.489c-0.283,0.253-0.573,0.506-0.865,0.76c-0.185,0.161-0.368,0.321-0.557,0.482
	c-0.31,0.265-0.628,0.531-0.948,0.797c-0.18,0.15-0.356,0.299-0.539,0.449c-0.375,0.307-0.76,0.615-1.147,0.923
	c-0.137,0.109-0.268,0.217-0.407,0.325c-0.529,0.416-1.07,0.833-1.624,1.251c-0.124,0.094-0.254,0.187-0.379,0.281
	c-0.433,0.324-0.869,0.647-1.316,0.972c-0.211,0.153-0.43,0.307-0.645,0.46c-0.374,0.267-0.748,0.534-1.132,0.801
	c-0.243,0.169-0.491,0.339-0.738,0.508c-0.367,0.252-0.737,0.504-1.114,0.756c-0.264,0.177-0.533,0.354-0.801,0.531
	c-0.375,0.247-0.754,0.494-1.138,0.741c-0.277,0.178-0.555,0.356-0.837,0.535c-0.393,0.249-0.792,0.498-1.194,0.747
	c-0.283,0.175-0.566,0.351-0.854,0.526c-0.423,0.258-0.855,0.516-1.288,0.774c-0.279,0.166-0.554,0.332-0.837,0.497
	c-0.481,0.282-0.973,0.564-1.466,0.846c-0.248,0.142-0.491,0.284-0.743,0.426c-0.749,0.422-1.509,0.845-2.286,1.267
	c0,0-1.604,1.065-4.384,2.938c-0.005,0.003-0.009,0.006-0.013,0.009c8.889,2.26,16.307,0.363,22.405-3.668
	c18.681-5.544,27.585-24.862,27.585-24.862c8.537-24.14,4.531-40.061,0.695-48.237C93.216,41.923,98.906,34.735,97.845,25.199z"/>
</svg>
