<?xml version="1.0" encoding="utf-8"?>
<!-- Generator: Adobe Illustrator 17.0.0, SVG Export Plug-In . SVG Version: 6.00 Build 0)  -->
<!DOCTYPE svg PUBLIC "-//W3C//DTD SVG 1.1 Basic//EN" "http://www.w3.org/Graphics/SVG/1.1/DTD/svg11-basic.dtd">
<svg version="1.1" baseProfile="basic" id="Слой_1"
	 xmlns="http://www.w3.org/2000/svg" xmlns:xlink="http://www.w3.org/1999/xlink" x="0px" y="0px" width="108.47px"
	 height="96.887px" viewBox="0 0 108.47 96.887" xml:space="preserve">
<path fill="#B76153" d="M107.558,4.737c-4.494-5.2-30.73-4.726-30.73-4.726c-3.495-0.147-3.849,2.305-3.607,4.212
	c-2.427-0.231-4.043-0.333-4.043-0.333C68.75,3.905,68.403,3.98,68.091,4.08c-9.444-0.908-22.177-1.989-26.722-1.706
	c0,0-10.636-0.236-10.636,2.836c0,0-0.946,2.365,1.18,4.019c0,0-0.066-0.176,0.227-0.378c0.865,8.837,3.66,41.532-1.644,47.653
	c0,0-5.203,12.056-25.768,16.784c0,0-0.618,0.55-1.326,1.537c-0.331-0.42,0.146-0.592,0.146-0.592c-3.782,0-3.545,7.093-3.545,7.093
	c0,1.343,0.84,2.448,2.08,3.351c0.206,0.527,0.446,1.062,0.756,1.613c0,0,16.31,7.091,31.913,3.545c0,0,9.33-3.364,15.687-4.064
	c0.091,0.183,0.152,0.288,0.152,0.288c0.206,0.265,0.477,0.515,0.803,0.751c0.219,2.525,1.084,4.206,1.084,4.206
	c3.309,4.964,23.403,5.439,23.403,5.439c6.018,0.821,9.814,0.373,12.213-0.484c0.026,0.003,0.05,0.006,0.076,0.01
	c0,0,0.027-0.026,0.061-0.06c3.69-1.373,3.958-3.721,3.958-3.721c1.185-3.782,4.728-8.037,4.728-8.037
	c0.475-3.545,1.185-2.365,1.185-2.365c2.061-1.651,0.16-20.067-0.355-24.706c0.097-4.136,0.337-7.907,0.826-10.277
	c0,0,3.291-16.229,6.099-26.275c0.477-1.004,0.899-1.616,1.231-1.644c0.683-1.506,0.759-2.939,0.617-4.108
	c0.494-1.229,0.93-1.978,1.271-2.012C109.445,8.519,107.558,4.737,107.558,4.737z"/>
</svg>
