<?xml version="1.0" encoding="utf-8"?>
<!-- Generator: Adobe Illustrator 17.0.0, SVG Export Plug-In . SVG Version: 6.00 Build 0)  -->
<!DOCTYPE svg PUBLIC "-//W3C//DTD SVG 1.1 Basic//EN" "http://www.w3.org/Graphics/SVG/1.1/DTD/svg11-basic.dtd">
<svg version="1.1" baseProfile="basic" id="Слой_1"
	 xmlns="http://www.w3.org/2000/svg" xmlns:xlink="http://www.w3.org/1999/xlink" x="0px" y="0px" width="110.183px"
	 height="95.205px" viewBox="0 0 110.183 95.205" xml:space="preserve">
<g>
	<path fill="#87BB50" d="M102.976,43.747c3.92-4.23,5.764-12.26,6.466-16.223c1.958-3.022-0.328-6.925-2.629-7.457
		c-0.145-0.031-0.284-0.058-0.417-0.077c-1.576-0.212-2.181,0.636-2.416,1.236c-0.515-0.144-1.006-0.195-1.434-0.088
		c0,0-1.814,1.462-3.609,4.424c-0.698-0.053-1.374-0.124-2.03-0.208c2.471-9.847-9.508-12.538-9.508-12.538
		C74.812,7.48,62.869,4.493,62.869,4.493C41.686-1.652,34.868-0.038,32.887,0.978c-3.382-0.509-2.231,3.732-2.231,3.732l0.234,0.074
		L29.627,7.81c-0.721,0.471-3.551,2.39-5.585,4.792l-2.348,6.185c0,0-0.075,0.567,0.155,1.507L1.492,69.073
		c0.028-0.728,0.179-1.448,0.482-2.134c-1.151,2.088-3.063,6.486-1.183,10.088c0,0,4.264,12.799,40.531,18.136
		c0,0,24.533,1.704,39.041-16.641c0,0,11.536-13.558,15.943-25.222c2.001-3.142,3.338-6.636,4.219-9.676
		C102.097,43.711,102.976,43.747,102.976,43.747z M29.032,9.234L28.949,9.08c0,0-0.154,0.058-0.39,0.171l0.974-1.218L29.032,9.234z"
		/>
	<path fill="#87BB50" d="M1.974,66.939c0.416-0.756,0.736-1.217,0.736-1.217C2.39,66.106,2.16,66.518,1.974,66.939z"/>
</g>
</svg>
