<?xml version="1.0" encoding="utf-8"?>
<!-- Generator: Adobe Illustrator 17.0.0, SVG Export Plug-In . SVG Version: 6.00 Build 0)  -->
<!DOCTYPE svg PUBLIC "-//W3C//DTD SVG 1.1//EN" "http://www.w3.org/Graphics/SVG/1.1/DTD/svg11.dtd">
<svg version="1.1" id="Слой_1" xmlns="http://www.w3.org/2000/svg" xmlns:xlink="http://www.w3.org/1999/xlink" x="0px" y="0px"
	 width="267.547px" height="152.213px" viewBox="0 0 267.547 152.213" enable-background="new 0 0 267.547 152.213"
	 xml:space="preserve">
<path fill="#42BCAA" d="M266.796,81.433c-4.781-64.405-32.617-84.294-54.075-81.105c-13.838,2.044-23.415,9.043-28.458,13.765
	c-2.493,2.33-4.209,4.721-4.209,4.987c-0.005,0.248-1.977-1.49-4.616-3.653C163.868,5.965,149.329,0.33,133.545,0.33
	c-15.583,0-29.938,5.484-41.437,14.71c-2.659,2.132-4.636,3.954-4.646,3.821c0-0.133-1.706-2.431-4.189-4.759
	C78.221,9.378,68.648,2.382,54.816,0.33C33.362-2.891,5.532,16.997,0.751,81.413c-4.766,64.411,13.923,70.775,34.202,70.775
	c16.888,0,30.474-8.306,45.345-25.324c1.57-1.809,3.264-2.992,4.477-3.212c1.379-2.223,2.73-4.401,3.223-6.864
	c5.933-27.969-3.39-54.243,2.543-82.211c5.933-26.274,38.139-26.274,60.175-20.341c9.323,3.39,20.341,5.085,26.274,12.713
	c13.561,17.798,9.323,41.529,9.323,63.566l0.848-0.848c-3.39,9.323-0.848,19.493-3.39,29.664c-0.359,1.616-0.87,3.347-1.373,5.11
	c1.627-0.06,3.328,0.675,4.636,2.187c14.966,17.186,28.593,25.585,45.561,25.585C252.874,152.213,271.563,145.854,266.796,81.433z"
	/>
</svg>
