<?xml version="1.0" encoding="utf-8"?>
<!-- Generator: Adobe Illustrator 17.0.0, SVG Export Plug-In . SVG Version: 6.00 Build 0)  -->
<!DOCTYPE svg PUBLIC "-//W3C//DTD SVG 1.1 Basic//EN" "http://www.w3.org/Graphics/SVG/1.1/DTD/svg11-basic.dtd">
<svg version="1.1" baseProfile="basic" id="Слой_1"
	 xmlns="http://www.w3.org/2000/svg" xmlns:xlink="http://www.w3.org/1999/xlink" x="0px" y="0px" width="280px" height="305px"
	 viewBox="0 0 280 305" xml:space="preserve">
<path fill="#FFFFFF" stroke="#FFFFFF" stroke-width="6" stroke-miterlimit="10" d="M264.99,233.533
	c-0.518-0.624-0.883-1.213-1.015-1.743c-0.917-3.714,5.463-4.793,8.222-14.053c0.394-1.323,0.714-2.813,0.929-4.501
	c1.726-13.531-9.141-0.524-9.141-0.524s-7.952,9.151-39.756,7.149c-0.822-0.051-1.65-0.116-2.48-0.188
	c-0.268-0.023-0.537-0.05-0.805-0.076c-0.573-0.054-1.147-0.114-1.722-0.179c-0.311-0.035-0.622-0.07-0.933-0.109
	c-0.577-0.071-1.155-0.15-1.733-0.232c-0.281-0.04-0.561-0.075-0.842-0.117c-0.771-0.116-1.544-0.245-2.316-0.382
	c-0.411-0.073-0.822-0.154-1.232-0.233c-0.404-0.077-0.807-0.156-1.21-0.24c-0.467-0.096-0.933-0.196-1.399-0.301
	c-0.326-0.073-0.652-0.151-0.977-0.228c-1.819-0.431-3.631-0.924-5.429-1.487c-0.167-0.052-0.334-0.102-0.5-0.156
	c-0.597-0.191-1.192-0.392-1.785-0.599c-0.157-0.055-0.313-0.111-0.469-0.167c-2.667-0.952-5.289-2.063-7.834-3.353
	c-0.103-0.052-0.206-0.105-0.308-0.157c-0.618-0.318-1.233-0.644-1.842-0.983c-0.296-1.651-0.635-3.298-0.795-4.963
	c-0.294-3.058-0.227-6.162-0.676-9.192c-0.603-4.063-1.588-8.067-2.346-12.108c-0.542-2.889-1.125-5.774-1.654-8.665
	c0.003-0.007,0.005-0.014,0.008-0.021c0.209-0.523,0.424-1.096,0.643-1.725c0.005-0.014,0.01-0.029,0.015-0.043
	c0.099-0.283,0.198-0.578,0.299-0.883c0.035-0.105,0.07-0.216,0.105-0.324c0.071-0.219,0.143-0.441,0.215-0.671
	c0.046-0.146,0.092-0.298,0.139-0.449c0.063-0.205,0.126-0.414,0.19-0.627c0.052-0.173,0.104-0.348,0.156-0.527
	c0.059-0.2,0.118-0.406,0.177-0.613c0.058-0.203,0.116-0.406,0.175-0.616c0.052-0.187,0.105-0.381,0.158-0.574
	c0.065-0.238,0.13-0.473,0.196-0.719c0.036-0.135,0.073-0.278,0.11-0.415c0.078-0.294,0.155-0.582,0.234-0.887
	c0,0,0.76-13.575-4.877-33.039c0.448-1.19,1.101-2.244,1.923-3.007c0.253-0.235,0.524-0.431,0.805-0.604
	c0.099-0.061,0.203-0.106,0.305-0.159c0.182-0.095,0.367-0.183,0.557-0.253c0.133-0.049,0.268-0.089,0.404-0.125
	c0.166-0.045,0.334-0.079,0.504-0.106c0.149-0.023,0.298-0.046,0.449-0.056c1.666-0.107,3.424,0.618,4.768,2.171
	c14.966,17.186,28.593,25.585,45.561,25.585c20.279,0,38.968-6.359,34.202-70.78c-4.781-64.405-32.617-84.294-54.075-81.105
	c-13.838,2.045-23.415,9.043-28.458,13.765c-2.494,2.33-4.209,4.721-4.209,4.987c-0.005,0.248-1.977-1.49-4.616-3.653
	c-11.57-9.462-26.11-15.097-41.894-15.097c-15.583,0-29.938,5.484-41.437,14.71c-2.659,2.132-4.636,3.954-4.646,3.821
	c0-0.133-1.706-2.431-4.189-4.759c-5.052-4.724-14.625-11.72-28.457-13.772C38.927,1.955,11.097,21.843,6.316,86.259
	c-4.766,64.411,13.923,70.775,34.202,70.775c5.567,0,10.77-0.922,15.784-2.742c-0.214,1.835-0.422,3.671-0.641,5.506
	c-0.286,2.403-0.642,4.798-0.965,7.196c-0.671,0.424-1.345,0.845-2.014,1.273c-5.427,3.477-11.199,6.042-17.682,6.772
	c-1.241,0.14-2.452,0.395-3.063-1.141c-0.089-0.224-0.398-0.392-0.64-0.521c-2.105-1.123-4.191-0.926-6.102,0.369
	c-1.216,0.824-2.253,1.913-3.37,2.883c0,0.08,0,0.16,0,0.24c0.63,0.249,1.26,0.499,1.973,0.78c-0.449,0.476-0.823,0.872-1.411,1.495
	c0.804-0.201,1.272-0.318,1.75-0.438c-0.377,0.579-0.702,1.078-1.049,1.611c0.543,0.305,0.972,0.546,1.401,0.787l-0.008,0.005
	c0.085,0.056,0.171,0.112,0.256,0.168c-0.078-0.055-0.157-0.111-0.236-0.166c0.527,0.058,1.054,0.117,1.581,0.175
	c-0.069,0.037-0.138,0.073-0.207,0.11c-0.094,0.054-0.188,0.107-0.281,0.161c0.137-0.007,0.274-0.015,0.411-0.022
	c0.469-0.093,0.935-0.242,1.407-0.268c2.201-0.121,3.83-1.146,5.03-2.976c0.193-0.294,0.688-0.529,1.057-0.549
	c7.234-0.409,13.673-3.118,19.794-6.771c0.364-0.217,0.771-0.363,1.158-0.542c-0.069,0.434-0.155,0.866-0.206,1.302
	c-0.937,8.012-1.923,16.02-2.781,24.04c-0.387,3.619-1.244,7.239-0.167,10.917c0.328,1.12,0.272,2.379,0.249,3.571
	c-0.096,4.872-1.641,9.378-3.406,13.863c-1.193,3.032-2.089,6.19-2.062,9.53c0.005,0.646-0.232,1.385-0.592,1.925
	c-0.815,1.223-1.518,2.45-1.419,3.973c0.135,2.089,1.637,3.517,4.401,4.227c0.153,0.012,0.305,0.023,0.458,0.035
	c1.668,0.336,3.337,0.673,5.005,1.009c0.177,0.003,0.354,0.006,0.531,0.008c1.752-0.023,3.503-0.046,5.255-0.068
	c0.818-0.08,1.637-0.161,2.455-0.241c0.42,4.88-0.471,9.593-2.34,14.039c-1.617,3.847-3.694,7.502-5.596,11.228
	c-2.285,4.477-4.629,8.926-5.063,14.074c-0.034,0.409-0.375,0.826-0.654,1.175c-0.819,1.024-1.826,1.927-2.491,3.039
	c-1.57,2.621-1.166,5.331,1.1,7.369c0.93,0.836,2.122,1.38,3.195,2.057c0.184,0.052,0.368,0.104,0.552,0.157
	c2.321,0.855,4.641,1.71,6.962,2.565c0.228,0.032,0.457,0.065,0.685,0.097c2.242,0.306,4.484,0.611,6.726,0.917
	c0.133,0.033,0.267,0.067,0.4,0.1c2.518-0.052,5.035-0.104,7.553-0.156c0.233-0.01,0.466-0.019,0.7-0.029
	c2.163-0.142,4.326-0.284,6.489-0.426c1.071-0.198,2.135-0.475,3.215-0.577c1.886-0.178,3.782-0.249,5.673-0.365
	c2.318-0.43,4.637-0.859,6.955-1.289c0.223-0.074,0.446-0.148,0.668-0.222c2.511-0.882,5.021-1.764,7.532-2.646
	c0.145-0.065,0.289-0.13,0.434-0.195c2.006-1.275,4.183-2.35,5.978-3.874c2.569-2.182,3.136-5.247,2.847-8.513
	c-1.011-11.414-2.108-22.822-2.969-34.248c-0.681-9.034-1.125-18.088-1.557-27.139c-0.297-6.22-0.429-12.448-0.56-18.674
	c-0.06-2.868,0.058-5.74,0.096-8.611c3.7,2.567,7.639,4.271,11.824,5.247c0.016,0.031,0.034,0.062,0.049,0.093
	c0.539,1.062,1.105,2.121,1.69,3.177c0.188,0.339,0.387,0.675,0.579,1.013c0.415,0.728,0.838,1.454,1.276,2.177
	c0.249,0.412,0.503,0.821,0.76,1.231c0.417,0.666,0.846,1.329,1.284,1.989c0.267,0.404,0.531,0.809,0.807,1.211
	c0.551,0.806,1.122,1.605,1.705,2.401c0.151,0.206,0.288,0.416,0.441,0.622c-0.938,2.064-2.05,4.06-3.199,6.047
	c-1.627,2.814-3.017,5.783-3.418,9.109c-0.08,0.663-0.527,1.388-1.013,1.88c-3.133,3.176-2.344,6.845,1.861,8.429
	c0.16,0.029,0.32,0.058,0.48,0.087c1.525,0.542,3.05,1.084,4.576,1.625c0.234,0.085,0.469,0.169,0.703,0.254
	c1.52,0.223,3.039,0.446,4.559,0.669c0.227-0.001,0.454-0.001,0.682-0.002c0.757,0.104,1.514,0.208,2.271,0.313
	c-1.027,1.754-2.07,3.499-3.079,5.263c-2.649,4.636-5.317,9.262-7.898,13.936c-0.568,1.029-0.819,2.235-1.191,3.368
	c-0.796,2.424-0.135,4.591,1.626,6.239c1.55,1.451,3.423,2.556,5.154,3.813c0.252,0.158,0.504,0.317,0.756,0.475
	c2.464,1.205,4.928,2.41,7.392,3.614c0.173,0.08,0.346,0.16,0.519,0.24c2.244,0.622,4.488,1.245,6.732,1.867
	c0.208,0.061,0.415,0.121,0.623,0.182c2.328,0.122,4.657,0.245,6.985,0.368c0.182-0.017,0.364-0.035,0.546-0.052
	c1.359-0.149,2.719-0.299,4.078-0.448c0.163-0.005,0.326-0.01,0.488-0.016c2.088-0.426,4.178-0.843,6.261-1.289
	c0.249-0.053,0.464-0.263,0.695-0.4c0.243,0.011,0.486,0.023,0.73,0.034c1.524-0.461,3.049-0.922,4.573-1.383
	c0.177-0.097,0.354-0.195,0.531-0.292c2.858-1.026,5.237-2.722,7.128-5.1c0.166-0.215,0.333-0.429,0.499-0.644
	c1.654-2.088,2.589-4.288,2.317-7.128c-0.534-5.581-0.271-11.038,1.069-16.313c0.044,0.011,0.088,0.019,0.132,0.029
	c1.483,0.362,2.97,0.693,4.458,0.995c0.239,0.049,0.479,0.09,0.718,0.137c1.235,0.243,2.47,0.466,3.705,0.669
	c0.365,0.06,0.729,0.118,1.093,0.175c1.24,0.192,2.479,0.366,3.716,0.519c0.229,0.029,0.459,0.062,0.688,0.089
	c1.483,0.176,2.962,0.325,4.436,0.447c0.207,0.017,0.412,0.028,0.619,0.044c1.24,0.096,2.475,0.173,3.706,0.233
	c0.38,0.018,0.759,0.034,1.138,0.049c1.146,0.045,2.286,0.074,3.422,0.088c0.299,0.004,0.6,0.012,0.899,0.014
	c1.415,0.008,2.821-0.006,4.215-0.045c0.212-0.006,0.42-0.018,0.632-0.025c1.165-0.038,2.321-0.093,3.468-0.162
	c0.409-0.025,0.815-0.053,1.222-0.082c1.003-0.071,1.997-0.154,2.984-0.248c0.365-0.035,0.732-0.066,1.095-0.104
	c1.298-0.136,2.583-0.288,3.848-0.463c0.22-0.03,0.434-0.067,0.653-0.099c1.05-0.151,2.087-0.315,3.112-0.492
	c0.417-0.072,0.828-0.148,1.241-0.225c0.856-0.158,1.701-0.326,2.537-0.502c0.388-0.082,0.779-0.161,1.162-0.246
	c1.152-0.256,2.29-0.525,3.399-0.814c0.184-0.048,0.36-0.102,0.543-0.151c0.944-0.252,1.871-0.516,2.78-0.79
	c0.379-0.115,0.75-0.234,1.123-0.352c0.729-0.232,1.445-0.47,2.149-0.716c0.352-0.123,0.705-0.244,1.05-0.37
	c0.929-0.34,1.838-0.689,2.718-1.053c0.067-0.028,0.14-0.052,0.207-0.08c3.151-1.32,8.048-1.242,11.409-0.637
	c2.067,0.369,4.701,0.587,7.977,0.411c1.49-0.085,2.359-0.351,2.76-0.755C276.015,241.914,267.969,237.124,264.99,233.533z
	 M91.585,128.773c0,0.001,0,0.001,0,0.002c-0.24,1.119-1.155,3.385-1.239,3.451c-0.083,0.065-0.138,0.115-0.21,0.174
	c-1.353-0.323-2.712-0.625-4.075-0.901C88.25,129.065,90.629,127.844,91.585,128.773z"/>
<path fill="#FFFFFF" stroke="#FFFFFF" stroke-width="6" stroke-miterlimit="10" d="M263.974,231.79
	c-1.048-4.245,7.435-5.047,9.151-18.554c1.726-13.531-9.141-0.524-9.141-0.524s-7.952,9.151-39.756,7.149
	c-11.231-0.7-23.284-3.313-33.819-9.185c-0.296-1.651-0.635-3.298-0.795-4.963c-0.294-3.058-0.227-6.162-0.676-9.192
	c-0.603-4.063-1.588-8.067-2.346-12.108c-0.542-2.889-1.125-5.774-1.654-8.665c0.85-2.119,1.783-5.083,2.82-9.094
	c0,0,0.76-13.575-4.877-33.04c0.448-1.19,1.1-2.243,1.922-3.006c0.907-0.845,2.013-1.276,3.156-1.319
	c0.502-1.764,1.014-3.494,1.373-5.11c2.543-10.17,0.795-12.938,1.574-23.688l0.969-5.128c0-22.036,4.238-45.767-9.323-63.565
	c-5.933-7.628-16.951-9.323-26.274-12.713c-22.036-5.933-54.243-5.933-60.175,20.341c-5.933,27.969,3.39,54.243-2.543,82.211
	c-0.493,2.463-1.38,5.599-1.618,6.302c-0.114,0.132-0.272,0.432-0.358,0.836c-0.24,1.119-1.155,3.385-1.239,3.451
	c-0.083,0.065-0.138,0.115-0.21,0.174c-1.405-0.335-2.815-0.651-4.231-0.935c-0.701-0.14-1.588-0.066-2.214,0.253
	c-4.055,2.065-8.175,1.688-12.383,0.619c-3.13-0.796-6.271-1.671-9.462-2.068c-3.692-0.46-3.099-0.669-3.899,2.726
	c-0.682,2.897-0.808,5.851-0.193,8.799c-0.696,6.002-1.38,12.006-2.095,18.006c-0.286,2.403-0.642,4.798-0.965,7.196
	c-0.671,0.424-1.345,0.845-2.014,1.273c-5.427,3.477-11.199,6.042-17.682,6.772c-1.241,0.14-2.452,0.395-3.063-1.141
	c-0.089-0.224-0.398-0.392-0.64-0.521c-2.105-1.123-4.191-0.926-6.102,0.369c-1.216,0.824-2.253,1.913-3.37,2.883
	c0,0.08,0,0.16,0,0.24c0.63,0.249,1.26,0.499,1.973,0.78c-0.449,0.476-0.823,0.872-1.411,1.495c0.804-0.201,1.272-0.318,1.75-0.438
	c-0.377,0.579-0.702,1.078-1.049,1.611c0.543,0.305,0.972,0.546,1.401,0.787l-0.008,0.005c0.085,0.056,0.171,0.112,0.256,0.168
	c-0.078-0.055-0.157-0.111-0.236-0.166c0.527,0.058,1.054,0.117,1.581,0.175c-0.069,0.037-0.138,0.073-0.207,0.11
	c-0.094,0.054-0.188,0.107-0.281,0.161c0.137-0.007,0.274-0.015,0.411-0.022c0.469-0.093,0.935-0.242,1.407-0.268
	c2.201-0.121,3.83-1.146,5.03-2.976c0.193-0.294,0.688-0.529,1.057-0.549c7.234-0.409,13.673-3.118,19.794-6.771
	c0.364-0.217,0.771-0.363,1.158-0.542c-0.069,0.434-0.155,0.866-0.206,1.302c-0.937,8.012-1.923,16.02-2.781,24.04
	c-0.387,3.619-1.244,7.239-0.167,10.917c0.328,1.12,0.272,2.379,0.249,3.571c-0.096,4.872-1.641,9.378-3.406,13.863
	c-1.193,3.032-2.089,6.19-2.062,9.53c0.005,0.646-0.232,1.385-0.592,1.925c-0.815,1.223-1.518,2.45-1.419,3.973
	c0.135,2.089,1.637,3.517,4.401,4.227c0.153,0.012,0.305,0.023,0.458,0.035c1.668,0.336,3.337,0.673,5.005,1.009
	c0.177,0.003,0.354,0.006,0.531,0.008c1.752-0.023,3.503-0.046,5.255-0.068c0.818-0.08,1.637-0.161,2.455-0.241
	c0.42,4.88-0.471,9.593-2.34,14.039c-1.617,3.847-3.694,7.502-5.596,11.228c-2.285,4.477-4.629,8.926-5.063,14.074
	c-0.034,0.409-0.375,0.826-0.654,1.175c-0.819,1.024-1.826,1.927-2.491,3.039c-1.57,2.621-1.166,5.331,1.1,7.369
	c0.93,0.836,2.122,1.38,3.195,2.057c0.184,0.052,0.368,0.104,0.552,0.157c2.321,0.855,4.641,1.71,6.962,2.565
	c0.228,0.032,0.457,0.065,0.685,0.097c2.242,0.306,4.484,0.611,6.726,0.917c0.133,0.033,0.267,0.067,0.4,0.1
	c2.518-0.052,5.035-0.104,7.553-0.156c0.233-0.01,0.466-0.019,0.7-0.029c2.163-0.142,4.326-0.284,6.489-0.426
	c1.071-0.198,2.135-0.475,3.215-0.577c1.886-0.178,3.782-0.249,5.673-0.365c2.318-0.43,4.637-0.859,6.955-1.289
	c0.223-0.074,0.446-0.148,0.668-0.222c2.511-0.882,5.021-1.764,7.532-2.646c0.145-0.065,0.289-0.13,0.434-0.195
	c2.006-1.275,4.183-2.35,5.978-3.874c2.569-2.182,3.136-5.247,2.847-8.513c-1.011-11.414-2.108-22.822-2.969-34.248
	c-0.681-9.034-1.125-18.088-1.557-27.139c-0.297-6.22-0.429-12.448-0.56-18.674c-0.06-2.868,0.058-5.74,0.096-8.611
	c3.7,2.567,7.639,4.271,11.824,5.247c2.396,4.731,5.236,9.409,8.591,13.913c-0.938,2.064-2.05,4.06-3.199,6.047
	c-1.627,2.814-3.017,5.783-3.418,9.109c-0.08,0.663-0.527,1.388-1.013,1.88c-3.133,3.176-2.344,6.845,1.861,8.429
	c0.16,0.029,0.32,0.058,0.48,0.087c1.525,0.542,3.05,1.084,4.576,1.625c0.234,0.085,0.469,0.169,0.703,0.254
	c1.52,0.223,3.039,0.446,4.559,0.669l0,0c0.227-0.001,0.454-0.001,0.682-0.002c0.757,0.104,1.514,0.208,2.271,0.313
	c-1.027,1.754-2.07,3.499-3.079,5.263c-2.649,4.636-5.317,9.262-7.898,13.936c-0.568,1.029-0.819,2.235-1.191,3.368
	c-0.796,2.424-0.135,4.591,1.626,6.239c1.55,1.451,3.423,2.556,5.154,3.813c0.252,0.158,0.504,0.317,0.756,0.475
	c2.464,1.205,4.928,2.41,7.392,3.614c0.173,0.08,0.346,0.16,0.519,0.24c2.244,0.622,4.488,1.245,6.732,1.867
	c0.208,0.061,0.415,0.121,0.623,0.182c2.328,0.122,4.657,0.245,6.985,0.368c0.182-0.017,0.364-0.035,0.546-0.052
	c1.359-0.149,2.719-0.299,4.078-0.448c0.163-0.005,0.326-0.01,0.488-0.016c2.088-0.426,4.178-0.843,6.261-1.289
	c0.249-0.053,0.464-0.263,0.695-0.4c0.243,0.011,0.486,0.023,0.73,0.034c1.524-0.461,3.049-0.922,4.573-1.383
	c0.177-0.097,0.354-0.195,0.531-0.292c2.858-1.026,5.237-2.722,7.128-5.1c0.166-0.215,0.333-0.429,0.499-0.644
	c1.654-2.088,2.589-4.288,2.317-7.128c-0.534-5.581-0.271-11.038,1.069-16.313c25.401,6.234,51.876,3.56,68.867-3.529
	c3.151-1.32,8.048-1.242,11.409-0.637c2.067,0.369,4.701,0.587,7.977,0.411C280.937,243.982,265.037,236.032,263.974,231.79z
	 M62.422,219.135v0.001c0.062-1.271,0.132-2.543,0.184-3.815C62.554,216.593,62.483,217.864,62.422,219.135z M69.836,208.555
	c0.311-0.099,0.652-0.152,0.952-0.268C70.488,208.403,70.147,208.456,69.836,208.555c-0.211,0.484-0.423,0.969-0.635,1.453
	C69.413,209.524,69.624,209.039,69.836,208.555z M69.105,210.229c0.094,0.033,0.187,0.071,0.28,0.106
	C69.291,210.3,69.199,210.262,69.105,210.229L69.105,210.229z M65.477,215.763L65.477,215.763c0.201-1.649,0.339-3.309,0.619-4.944
	C65.816,212.454,65.678,214.114,65.477,215.763z M68.121,223.89c3.022,0.007,6.045,0.01,9.067,0.022
	C74.166,223.9,71.143,223.897,68.121,223.89L68.121,223.89z M69.813,225.6L69.813,225.6c2.466-0.004,4.931-0.006,7.397-0.012
	C74.744,225.594,72.279,225.597,69.813,225.6z"/>
<g>
	<g>
		<g>
			<g>
				<path fill="#4C4C47" d="M29.43,177.387c7.97,0.713,15.941-2.216,22.723-6.171c8.123-4.737,15.77-13.212,26.142-11.681
					c3.911,0.577,5.454,3.268,9.103,0.307c3.45-2.799,6.078-6.638,9.537-9.528c4.242-3.544,8.894-6.589,13.237-10.011
					c1.266-0.997-0.516-2.754-1.768-1.768c-7.381,5.815-15.112,10.769-21.256,17.989c-1.975,2.32-3.085,2.598-5.678,1.414
					c-2.345-1.071-4.791-1.154-7.319-0.909c-7.565,0.734-13.574,5.341-19.537,9.582c-7.202,5.122-16.158,9.083-25.184,8.275
					C27.823,174.743,27.837,177.244,29.43,177.387L29.43,177.387z"/>
			</g>
		</g>
		<path fill="#4C4C47" d="M26.012,172.948c0.449-0.182,0.902-0.31,1.351-0.388c2.243-0.39,4.359,0.48,5.072,2.241
			c0.856,2.114-0.633,4.71-3.325,5.8c-0.449,0.182-0.902,0.31-1.351,0.388c-0.145,0.007-0.31,0.01-0.521,0.02
			c-0.086-0.04-0.541,0.058-0.8,0.066c-1.79,0.628-0.993,0.198-0.878,0.036c0.538-0.334,1.501-0.85-0.35-0.235
			c-2.008,0.679-0.413-0.11-0.236-0.332c0.008-0.154-1.352,0.238-0.839-0.134c-1.336,0.376-0.452-0.154-0.853-0.169
			c-0.28,0.024-0.393-0.02-0.381-0.117c0.012-0.097,0.15-0.245,0.373-0.43c-0.649-0.887,1.515-0.675,0.541-1.369
			c0,0-0.595,0.241-1.191,0.482c-1.38,0.015,2.787-1.672-0.222-1.678c-0.258,0.016-0.009-0.172,0.201-0.343s0.381-0.324-0.033-0.239
			c-0.495,0.091-0.758,0.09-0.939,0.06c-0.264,0.003,0.626-0.458,0.41-0.467c-0.32,0.033,0.991-0.591,0.978-0.676
			c-0.631,0.121-2.453,0.733,0.201-0.458c0.246-0.216,0.992-0.625,0.543-0.54c0.147-0.156-0.679,0.092,0.264-0.365
			c1.077-0.511,0.858-0.486,0.744-0.492c0.144-0.11,0.559-0.318,0.678-0.393C25.45,173.19,25.688,173.079,26.012,172.948z"/>
	</g>
	<ellipse fill="#5A5651" cx="128.98" cy="176.937" rx="30.006" ry="23.424"/>
	<g>
		<path fill="#5A5651" d="M131.269,194.836c0,1.578,0.013,3.155,0.061,4.733c0.169,1.185,0.226,2.37,0.183,3.552
			c-0.213,5.908-2.903,11.726-6.345,17.001c-0.808,1.844-1.549,3.726-2.321,5.579c-0.493,1.183-0.461,2.584-0.668,3.887
			c-4.045,3.176-3.715,7.126,0.785,9.132c0.537,0.24,1.133,0.35,1.665,0.6c4.841,2.28,10.07,2.343,15.171,2.033
			c7.549-0.458,15.234-0.804,22.221-4.208c3.211-1.565,6.179-3.666,5.95-7.938c-0.116-2.164-0.327-4.323-0.519-6.482
			c-3.762-3.278-7.617-6.542-11.816-9.691C147.248,206.644,139.127,201.045,131.269,194.836z"/>
		<g>
			<path fill="none" d="M167.971,229.207c-0.116-2.164-0.327-4.323-0.519-6.482c-3.762-3.278-7.617-6.542-11.816-9.691
				c-8.388-6.39-16.509-11.989-24.367-18.198c0,1.578,0.013,3.155,0.061,4.733c0.169,1.185,0.226,2.37,0.183,3.552
				c-0.213,5.908-2.903,11.726-6.345,17.001c-0.808,1.844-1.549,3.726-2.321,5.579c-0.493,1.183-0.461,2.584-0.668,3.887
				c-4.045,3.176-3.715,7.126,0.785,9.132c0.09,0.04,0.187,0.065,0.279,0.099c0.187-0.905,0.49-1.875,0.92-2.857
				c1.519-3.469,3.983-5.741,5.503-5.076c1.52,0.666,1.52,4.017,0.001,7.486c-0.369,0.843-0.795,1.614-1.249,2.291
				c1.763,0.445,3.558,0.672,5.362,0.766c-0.044-0.95,0.017-2,0.206-3.095c0.645-3.732,2.492-6.528,4.127-6.246
				c1.635,0.282,2.438,3.536,1.793,7.268c-0.123,0.711-0.29,1.388-0.49,2.016c0.128-0.007,0.256-0.011,0.384-0.019
				c1.597-0.097,3.199-0.19,4.8-0.307c-0.103-0.693-0.162-1.433-0.162-2.206c0-3.787,1.345-6.857,3.004-6.857
				s3.004,3.07,3.004,6.857c0,0.559-0.033,1.1-0.088,1.621c1.87-0.26,3.723-0.607,5.549-1.086c-0.141-0.598-0.252-1.232-0.323-1.895
				c-0.398-3.766,0.616-6.961,2.266-7.135c1.65-0.175,3.31,2.737,3.709,6.503c0.017,0.165,0.029,0.327,0.041,0.49
				c0.14-0.065,0.281-0.125,0.421-0.193C165.232,235.58,168.2,233.479,167.971,229.207z"/>
			<path fill="#B4B3B4" d="M157.85,230.344c-1.65,0.174-2.664,3.369-2.266,7.135c0.07,0.663,0.181,1.297,0.323,1.895
				c1.935-0.508,3.838-1.168,5.693-2.037c-0.012-0.163-0.023-0.325-0.041-0.49C161.16,233.081,159.5,230.17,157.85,230.344z"/>
			<path fill="#B4B3B4" d="M147.442,231.983c-1.659,0-3.004,3.07-3.004,6.857c0,0.773,0.059,1.513,0.162,2.206
				c1.927-0.141,3.85-0.32,5.758-0.585c0.055-0.521,0.088-1.061,0.088-1.621C150.446,235.053,149.101,231.983,147.442,231.983z"/>
			<path fill="#B4B3B4" d="M138.113,232.088c-1.635-0.282-3.483,2.514-4.127,6.246c-0.189,1.095-0.25,2.146-0.206,3.095
				c1.878,0.097,3.764,0.05,5.636-0.057c0.2-0.628,0.367-1.305,0.49-2.016C140.55,235.625,139.747,232.371,138.113,232.088z"/>
			<path fill="#B4B3B4" d="M129.666,230.887c-1.52-0.666-3.983,1.607-5.503,5.076c-0.43,0.982-0.734,1.952-0.92,2.857
				c0.461,0.17,0.943,0.293,1.386,0.501c1.24,0.584,2.507,1.019,3.789,1.343c0.454-0.677,0.879-1.447,1.249-2.291
				C131.186,234.904,131.186,231.552,129.666,230.887z"/>
		</g>
	</g>
	<g>
		<path fill="#5A5651" d="M57.565,140.1c0.238,1.56-7.367,61.892-7.081,63.445c0.346,1.146,0.581,2.309,0.717,3.484
			c0.68,5.873-1.102,12.029-3.709,17.763c-0.521,1.945-0.97,3.917-1.453,5.865c-0.309,1.244-0.066,2.624-0.074,3.943
			c-3.52,3.749-2.598,7.604,2.153,8.91c0.567,0.156,1.173,0.175,1.736,0.342c5.129,1.524,10.308,0.798,15.304-0.278
			c7.393-1.591,14.939-3.092,21.332-7.511c2.938-2.031,5.556-4.556,4.685-8.744c-0.441-2.121-0.975-4.224-1.491-6.33
			c-4.213-2.674-4.89-81.378-9.516-83.859C70.911,132.078,66.268,145.053,57.565,140.1z"/>
		<g>
			<path fill="#B4B3B4" d="M81.342,230.014c-1.605,0.421-2.126,3.732-1.164,7.395c0.166,0.63,0.366,1.227,0.59,1.786
				c1.838-0.794,3.621-1.734,5.326-2.873c-0.034-0.146-0.066-0.292-0.105-0.439C85.027,232.221,82.947,229.593,81.342,230.014z"/>
			<path fill="#B4B3B4" d="M71.309,233.141c-1.64,0.25-2.507,3.488-1.936,7.232c0.117,0.769,0.289,1.497,0.497,2.17
				c1.882-0.43,3.756-0.897,5.6-1.447c-0.023-0.527-0.073-1.072-0.158-1.629C74.742,235.723,72.949,232.891,71.309,233.141z"/>
			<path fill="#B4B3B4" d="M62.104,234.682c-1.659-0.033-3.064,3.01-3.138,6.796c-0.022,1.106,0.075,2.149,0.261,3.078
				c1.872-0.188,3.732-0.52,5.568-0.908c0.102-0.647,0.164-1.336,0.178-2.052C65.047,237.81,63.763,234.714,62.104,234.682z"/>
			<path fill="#B4B3B4" d="M53.557,234.768c-1.603-0.429-3.695,2.189-4.674,5.847c-0.276,1.031-0.43,2.031-0.479,2.95
				c0.482,0.099,0.978,0.147,1.448,0.287c1.315,0.391,2.633,0.63,3.951,0.757c0.344-0.734,0.647-1.556,0.883-2.44
				C55.666,238.51,55.16,235.197,53.557,234.768z"/>
		</g>
	</g>
	<path fill="#6B6862" d="M127.628,134.591c-13.605,1.432-17.623-6.142-30.511-1.13c-2.864,0.716-10.838-3.41-13.702-1.978
		c-8.471,4.437-15.827-2.128-24.861-1.554c-1.387,3.303-1.728,9.286-1.022,10.984c0.881,2.118,0.598,3.142,2.011,5.261
		c2.772,4.159,1.31,8.119,1.83,13.041c0.207,1.963,0.413,3.924,0.606,5.884c0.193,1.96,0.372,3.918,0.525,5.876
		c2.16,23.8-1.421,47.429-0.704,71.059c0.239,1.671,0.318,3.342,0.258,5.007c-0.301,8.328-4.093,16.529-8.944,23.966
		c-1.139,2.599-2.184,5.252-3.272,7.865c-0.695,1.668-0.65,3.643-0.942,5.479c-5.702,4.477-5.237,10.045,1.106,12.874
		c0.757,0.338,1.598,0.494,2.347,0.846c6.824,3.214,14.195,3.303,21.386,2.866c10.641-0.646,21.476-1.133,31.324-5.932
		c4.526-2.206,8.711-5.168,8.387-11.19c-0.177-3.291-0.51-6.574-0.796-9.858c-0.744-8.534-1.554-17.062-2.234-25.601
		c-0.509-6.39-0.856-12.793-1.275-19.19c-0.297-9.159-0.836-18.32-0.8-27.478c0.005-1.151,0.037-2.303,0.094-3.456
		c0.029-0.576,0.063-1.153,0.102-1.729c-0.228-2.222-0.4-4.604-0.349-6.936c0.017-0.777,0.058-1.548,0.116-2.326
		c-0.544-7.721,3.929-12.473,10.197-12.484c0.784-0.001,1.595,0.071,2.43,0.221c10.322-2.4,19.63,3.328,18.546,15.139
		c0.002,0.725-0.042,1.461-0.135,2.203c0.003,0.489-0.007,0.974-0.031,1.451c-0.024,0.477-0.06,0.946-0.108,1.406
		c-0.055,0.759-0.113,1.526-0.161,2.295c-0.142,2.307-0.178,4.635,0.321,6.857c0.182,0.761,0.308,1.557,0.368,2.394
		c0.119,0.643,0.193,1.294,0.27,1.967c0.542,1.513,0.832,3.01,0.945,4.497c0.057,0.744,0.07,1.485,0.094,2.251
		c0.191,1.596,0.257,3.159,0.219,4.695c-0.019,0.768-0.061,1.532-0.087,2.324c0.307,1.624,0.353,3.181,0.206,4.684
		c-0.073,0.751-0.195,1.49-0.356,2.223c-0.568,2.083-1.223,4.121-1.971,6.099c-0.249,0.661-0.509,1.315-0.78,1.967
		c-2.006,6.037-6.302,11.049-9.365,16.857c-0.291,0.592-0.596,1.174-0.909,1.748c-1.873,3.446-3.979,6.629-4.091,10.723
		c0.098,0.521,0.254,1.03,0.467,1.525c0.639,1.485,1.792,2.842,3.493,4.038c10.316,7.254,21.491,10.875,34.188,7.569
		c2.181-0.568,4.482-0.715,6.624-1.387c6.075-1.903,11.041-5.184,13.259-11.56c-0.055-0.794-0.11-1.587-0.166-2.381
		c-0.026-0.35-0.053-0.701-0.079-1.052c-0.537-8.064,0.304-15.774,4.059-23.205c3.323-6.575,5.604-13.601,3.232-21.187
		c-0.1-0.318-0.176-0.745-0.045-1.017c2.734-5.713-0.149-11.501,0.02-17.263c0.174-5.943-1.887-11.941-2.877-17.931
		c-1.067-6.452-3.108-12.976-2.784-19.37c0.521-10.304,0.597-20.422-1.561-30.54c-0.344-1.616-1.662-0.173-1.493-1.796
		c-14.328,1.695-20.695,5.931-32.412,3.229C142.601,131.483,129.776,133.875,127.628,134.591z"/>
	<g>
		<path fill="#7F7D79" d="M63.499,215.051c0.299,0.223,0.599,0.446,0.898,0.669c1.181,0.815,2.362,1.629,3.542,2.443
			c0.009,1.828,0.018,3.656,0.027,5.484c-1.378,0.038-2.756,0.075-4.133,0.113c-0.718-0.492-1.436-0.985-2.155-1.477
			C62.285,219.873,62.892,217.462,63.499,215.051z"/>
		<path fill="#6B6862" d="M67.966,223.648c-0.009-1.828-0.018-3.656-0.026-5.486c6.023-0.586,11.95-1.601,17.582-3.886
			c-5.368,0.504-10.737,1.008-16.105,1.512c0.262-1.079,0.306-2.28,0.829-3.212c1.085-1.934,0.345-2.477-1.513-2.473
			c0.23-0.486,0.46-0.971,0.69-1.457c1.596-0.935,3.424-1.621,4.742-2.854c3.151-2.946,5.137-3.435,8.979-1.263
			c3.633,2.053,5.053,5.83,5.453,9.495c0.429,3.932-0.048,8.078-0.813,11.997c-1.001,5.128-7.573,9.458-11.625,8.344
			c-2.202-0.606-4.494-0.885-6.745-1.312c-0.95-0.01-1.9-0.019-2.85-0.029c0.476-0.481,0.951-0.963,1.427-1.444
			c0.936-0.141,1.872-0.283,2.461-0.372c-0.414-2.312-0.732-4.085-1.049-5.858c2.957,0,5.915,0,8.872,0
			c-0.007-0.567-0.014-1.134-0.021-1.701C74.825,223.648,71.396,223.648,67.966,223.648z"/>
		<path fill="#77746F" d="M69.415,233.052c2.251,0.427,4.543,0.706,6.745,1.312c4.052,1.114,10.623-3.216,11.625-8.344
			c0.765-3.919,1.243-8.065,0.813-11.997c-0.4-3.665-1.82-7.441-5.453-9.495c-3.842-2.172-5.828-1.683-8.979,1.263
			c-1.318,1.232-3.146,1.919-4.742,2.854c0.007-0.23,0.008-0.46,0.003-0.69c1.546-7.11,11.177-10.432,16.517-5.64
			c7.374,6.618,9.241,21.98,1.978,29.65c-3.453,3.646-6.337,7.846-12.377,6.82C72.412,238.254,69.792,236.065,69.415,233.052z"/>
		<path fill="#5F5B56" d="M69.417,215.788c5.368-0.504,10.737-1.008,16.105-1.512c-5.632,2.285-11.559,3.3-17.582,3.886
			c-1.181-0.813-2.362-1.627-3.542-2.442c0.242-0.042,0.485-0.084,0.728-0.123c0.954,0.042,1.908,0.083,2.861,0.124
			C68.463,215.743,68.94,215.765,69.417,215.788z"/>
		<path fill="#5F5B56" d="M67.966,223.648c3.429,0,6.858,0,10.287,0c0.007,0.567,0.014,1.134,0.021,1.701
			c-2.957,0-5.915,0-8.872-0.002c-0.962-0.009-1.923-0.016-2.885-0.023c-0.7-0.037-1.4-0.074-2.1-0.111
			c-0.196-0.484-0.392-0.968-0.587-1.452C65.211,223.723,66.589,223.685,67.966,223.648z"/>
		<path fill="#7F7D79" d="M67.987,215.721c-0.954-0.041-1.908-0.082-2.861-0.124c0.247-1.49,0.603-2.97,0.716-4.469
			c0.172-2.297,1.195-3.465,3.586-3.172c0.005,0.23,0.004,0.46-0.003,0.69c-0.23,0.485-0.46,0.971-0.69,1.457
			C68.485,211.975,68.236,213.848,67.987,215.721z"/>
		<path fill="#7F7D79" d="M64.419,225.212c0.7,0.037,1.4,0.074,2.1,0.11c0.491,2.085,0.982,4.17,1.473,6.256
			c-0.476,0.481-0.951,0.963-1.427,1.444c-0.482-0.005-0.964-0.01-1.445-0.014c0.009-0.49,0.017-0.981,0.026-1.472
			C64.903,229.429,64.661,227.32,64.419,225.212z"/>
		<path fill="#767675" d="M65.145,231.537c-0.008,0.491-0.017,0.981-0.026,1.472c-0.788-0.288-1.575-0.577-2.362-0.865
			c0.039-0.15,0.078-0.301,0.117-0.451C63.632,231.64,64.389,231.588,65.145,231.537z"/>
		<path fill="#77746F" d="M67.992,231.578c-0.491-2.086-0.982-4.172-1.473-6.256c0.961,0.008,1.923,0.016,2.885,0.025
			c0.317,1.775,0.635,3.548,1.049,5.86C69.863,231.295,68.928,231.437,67.992,231.578z"/>
		<path fill="#77746F" d="M67.987,215.721c0.249-1.873,0.498-3.746,0.747-5.618c1.857-0.004,2.598,0.54,1.513,2.473
			c-0.523,0.932-0.568,2.133-0.829,3.212C68.94,215.765,68.463,215.743,67.987,215.721z"/>
	</g>
	<g>
		<path fill="#77746F" d="M180.248,209.267c0.741,2.664-1.794,6.269,2.291,7.97c-1.236,0.291-2.471,0.582-3.706,0.874
			c0.441-3.165-1.497-5.222-3.99-5.909c-1.424-0.392-3.767,0.833-5.038,2.029c-1.64,1.543-2.622,3.786-3.887,5.728
			c-0.193,0.061-0.391,0.097-0.593,0.106c-3.105,1.175-0.653,3.519-0.947,5.244c-0.811,4.759,2.336,8.631,7.403,7.353
			c2.416-0.609,5.295-2.036,6.503-3.994c1.095-1.775,3.503-4.641,0.533-7.22c1.665-0.74,3.33-1.481,4.995-2.221
			c0.087,2.603,0.174,5.206,0.261,7.81l-0.215,0.017c0,0-0.122-0.178-0.125-0.189c-0.203-0.033-0.404-0.056-0.604-0.079
			c0.193,0.115,0.385,0.23,0.578,0.345c0.001,0.232,0.001,0.465,0.002,0.697c-0.432,0.498-1.239,1.007-1.225,1.491
			c0.042,1.422,0.41,2.835,0.651,4.252l-0.28,0.128l-0.307-0.012c-2.059,0.406-4.117,0.812-6.176,1.218
			c0.137,0.551,0.274,1.103,0.411,1.654c-0.188,0.281-0.377,0.563-0.565,0.844c-0.095,0.15-0.151,0.313-0.166,0.489
			c-4.576,2.256-9.204,1.707-13.85,0.26c0,0,0.01-0.028,0.01-0.029c-0.325-0.39-0.651-0.778-0.977-1.167
			c0,0-0.093-0.111-0.091-0.112c-0.391-0.518-0.784-1.034-1.177-1.551c0,0,0.036,0.037,0.036,0.036
			c-0.318-2.277-0.636-4.553-1.018-7.282c1.032-0.752,3.029-1.882,1.237-4.426c-0.239-0.478-0.477-0.955-0.716-1.433
			c0.636-0.911,1.271-1.823,2.007-2.877c-0.082-0.203-0.324-0.807-0.567-1.411c1.093-0.805,2.327-1.476,3.249-2.444
			c1.653-1.736,3.119-3.652,4.662-5.491C172.654,209.731,176.451,209.499,180.248,209.267z"/>
		<path fill="#5F5B56" d="M165.326,220.064c0.202-0.009,0.4-0.044,0.593-0.105c4.305-0.616,8.61-1.232,12.914-1.849
			c1.235-0.291,2.47-0.583,3.706-0.874c1.334-0.248,2.667-0.496,4.001-0.743c0.082,0.156,0.182,0.305,0.237,0.47
			c0.023,0.069-0.052,0.17-0.083,0.255c-0.96,0.669-1.921,1.338-2.881,2.007c-1.665,0.74-3.33,1.481-4.995,2.222
			C174.32,220.986,169.823,220.525,165.326,220.064z"/>
		<path fill="#868583" d="M164.266,251.861c2.859-0.301,5.718-0.603,8.565-0.903C172.242,253.235,169.41,253.748,164.266,251.861z"
			/>
		<path fill="#6B6862" d="M180.248,209.267c-3.797,0.232-7.594,0.464-11.39,0.696c1.84-0.687,3.631-1.619,5.532-1.994
			c2.017-0.398,4.137-0.266,6.498-0.379C180.643,208.231,180.445,208.749,180.248,209.267z"/>
		<path fill="#6B6862" d="M165.326,220.064c4.497,0.461,8.995,0.922,13.492,1.383c2.97,2.579,0.562,5.445-0.533,7.22
			c-1.208,1.958-4.087,3.385-6.503,3.994c-5.067,1.278-8.214-2.593-7.403-7.353C164.673,223.583,162.221,221.239,165.326,220.064z"
			/>
		<path fill="#726F6A" d="M178.833,218.11c-4.305,0.617-8.61,1.233-12.914,1.849c1.265-1.942,2.247-4.185,3.887-5.729
			c1.271-1.196,3.614-2.421,5.038-2.029C177.336,212.888,179.274,214.946,178.833,218.11z"/>
	</g>
	<g>
		<path fill="#C5C5C5" d="M99.198,285.458c-2.326,0.246-3.755,4.75-3.194,10.059c0.097,0.919,0.251,1.799,0.445,2.629
			c2.73-0.717,5.413-1.649,8.03-2.874c-0.016-0.215-0.031-0.428-0.054-0.646C103.865,289.317,101.524,285.212,99.198,285.458z"/>
		<path fill="#C5C5C5" d="M84.51,287.726c-2.338,0-4.234,4.328-4.234,9.667c0,1.09,0.083,2.134,0.228,3.111
			c2.716-0.198,5.427-0.451,8.116-0.824c0.078-0.734,0.124-1.497,0.124-2.287C88.744,292.054,86.848,287.726,84.51,287.726z"/>
		<path fill="#C5C5C5" d="M71.357,287.863c-2.304-0.398-4.909,3.544-5.818,8.805c-0.268,1.55-0.354,3.037-0.29,4.38
			c2.644,0.137,5.301,0.069,7.938-0.081c0.285-0.89,0.522-1.849,0.697-2.858C74.793,292.849,73.661,288.261,71.357,287.863z"/>
		<path fill="#C5C5C5" d="M59.479,286.206c-2.142-0.938-5.615,2.266-7.757,7.156c-0.606,1.384-1.034,2.751-1.298,4.026
			c0.64,0.233,1.314,0.395,1.927,0.683c1.759,0.829,3.555,1.446,5.375,1.904c0.636-0.951,1.234-2.033,1.752-3.216
			C61.621,291.869,61.621,287.144,59.479,286.206z"/>
		<path fill="#C5C5C5" d="M174.077,263.415c-2.326,0.246-3.755,4.75-3.194,10.059c0.15,1.415,0.429,2.739,0.797,3.924
			c2.98-1.278,5.572-3.021,7.539-5.48C178.54,266.937,176.304,263.179,174.077,263.415z"/>
		<path fill="#C5C5C5" d="M162.494,265.451c-2.338,0-4.234,4.328-4.234,9.667c0,2.012,0.27,3.88,0.73,5.427
			c1.014-0.179,2.034-0.386,3.068-0.655c1.41-0.367,2.867-0.566,4.301-0.837c0.235-1.203,0.369-2.532,0.369-3.935
			C166.728,269.779,164.832,265.451,162.494,265.451z"/>
		<path fill="#C5C5C5" d="M150.496,266.421c-2.338,0.013-4.211,4.351-4.182,9.69c0.009,1.632,0.196,3.166,0.516,4.512
			c2.398,0.401,4.851,0.558,7.363,0.45c0.381-1.463,0.599-3.173,0.59-5.008C154.753,270.726,152.834,266.408,150.496,266.421z"/>
		<path fill="#C5C5C5" d="M136.974,265.815c-2.298-0.306-4.724,3.664-5.453,8.889c2.559,1.547,5.175,2.851,7.855,3.875
			c0.218-0.827,0.396-1.704,0.518-2.623C140.599,270.664,139.292,266.123,136.974,265.815z"/>
	</g>
</g>
<g>
	<path fill="#7D7A73" d="M263.974,231.79c-1.048-4.245,7.435-5.047,9.151-18.554c1.726-13.531-9.141-0.524-9.141-0.524
		s-7.952,9.151-39.756,7.149c-29.3-1.826-64.235-16.589-63.056-68.615c0.085-3.419,1.164-6.48,2.203-6.896
		c1.044-0.409,3.923,1.131,5.705,4.029c4.43,7.149,8.369,18.764,10.521,25.803c1.008,3.249,3.442,3.703,4.641,0.507
		c3.903-10.626,1.049-25.153-1.701-34.636c-0.933-3.276,0.06-7.4,2.263-9.445c0.907-0.845,2.013-1.276,3.156-1.319
		c0.502-1.764,1.014-3.494,1.373-5.11c2.543-10.17,0-20.341,3.39-29.664l-0.848,0.848c0-22.036,4.238-45.767-9.323-63.566
		c-5.933-7.628-16.951-9.323-26.274-12.713c-22.036-5.933-54.243-5.933-60.175,20.341c-5.933,27.969,3.39,54.243-2.543,82.211
		c-0.493,2.463-1.38,5.599-1.618,6.302c-0.114,0.132-0.272,0.433-0.358,0.836c-0.24,1.118-1.155,3.385-1.239,3.451
		c-3.121,2.443,1.716,0.633,0.652,3.879c-2.91,8.956-7.375,26.358-2.895,38.572c1.179,3.198,3.633,2.762,4.626-0.494
		c2.388-7.772,6.969-21.17,11.941-27.9c2.017-2.75,4.39-1.194,4.285,2.215c-0.637,20.728,6.186,58.49,37.318,82.5
		c32.561,25.113,80.024,24.484,105.747,13.752c3.151-1.32,8.048-1.242,11.409-0.637c2.067,0.369,4.701,0.587,7.977,0.411
		C280.937,243.982,265.037,236.032,263.974,231.79z"/>
	<path fill="#FFFFFF" d="M164.969,57.072c-5.464,0-9.884,4.425-9.884,9.874c0,5.451,4.42,9.874,9.884,9.874
		c5.444,0,9.869-4.422,9.869-9.874C174.838,61.497,170.413,57.072,164.969,57.072z"/>
	<path fill="#FFFFFF" d="M114.341,57.072c-5.459,0-9.879,4.425-9.879,9.874c0,5.451,4.42,9.874,9.879,9.874
		c5.444,0,9.869-4.422,9.869-9.874C124.21,61.497,119.785,57.072,114.341,57.072z"/>
	<path d="M114.331,66.946c-3.321,0-6.016,2.692-6.016,6.016s2.694,6.021,6.016,6.021c3.326,0,6.021-2.697,6.021-6.021
		C120.352,69.637,117.657,66.946,114.331,66.946z"/>
	<path d="M164.969,66.946c-3.331,0-6.026,2.692-6.026,6.016s2.694,6.021,6.026,6.021c3.317,0,6.011-2.697,6.011-6.021
		C170.98,69.637,168.286,66.946,164.969,66.946z"/>
	<path fill="#FFFFFF" d="M91.583,129.116c-6.096,21.843-5.343,37.539-5.343,37.539c6.136,27.833,8.058,5.519,11.028-3.226
		c2.965-8.748,11.048-16.208,11.048-16.208l-8.108-23.794L91.583,129.116z"/>
	<path fill="#FFFFFF" d="M171.381,123.427l-9.497,23.794c0,0,9.473,7.461,12.954,16.208c3.477,8.745,5.725,31.059,12.919,3.226
		c0,0,0.883-15.696-6.261-37.539L171.381,123.427z"/>
</g>
<g>
	<path fill="#7D7A73" d="M96.101,39.426c5.933-26.274,38.139-26.274,60.175-20.341c9.323,3.39,20.341,5.085,26.274,12.713
		c13.561,17.798,9.323,41.529,9.323,63.566l0.848-0.848c-3.39,9.323-0.848,19.493-3.39,29.664c-0.359,1.616-0.87,3.347-1.373,5.11
		c1.627-0.06,3.328,0.675,4.636,2.187c14.966,17.186,28.593,25.585,45.561,25.585c20.279,0,38.968-6.359,34.202-70.78
		c-4.781-64.405-32.617-84.294-54.075-81.105c-13.838,2.044-23.415,9.043-28.458,13.765c-2.493,2.33-4.209,4.721-4.209,4.987
		c-0.005,0.248-1.977-1.49-4.616-3.653c-11.57-9.462-26.109-15.097-41.893-15.097c-15.583,0-29.938,5.484-41.437,14.71
		c-2.659,2.132-4.636,3.954-4.646,3.821c0-0.133-1.706-2.431-4.189-4.759c-5.052-4.724-14.625-11.72-28.457-13.772
		C38.922,1.958,11.092,21.846,6.311,86.262c-4.766,64.411,13.923,70.775,34.202,70.775c16.888,0,30.474-8.306,45.345-25.324
		c1.57-1.809,3.264-2.992,4.477-3.212c1.379-2.223,2.73-4.401,3.223-6.864C99.491,93.668,90.169,67.395,96.101,39.426z"/>
	<path fill="#BBB7AA" d="M207.395,49.077c0,0,3.376-27.773,25.317-15.112c21.945,12.659,38.823,74.269,22.793,87.773
		c-16.04,13.501-40.514,8.268-43.89-7.26C208.238,98.95,207.395,49.077,207.395,49.077z"/>
	<path fill="#BBB7AA" d="M80.4,49.077c0,0-3.251-27.773-24.379-15.112c-21.127,12.659-37.378,74.269-21.94,87.773
		c15.438,13.501,39.009,8.268,42.255-7.26C79.587,98.95,80.4,49.077,80.4,49.077z"/>
</g>
<g>
	<path fill="#7D7A73" d="M263.412,231.942c-1.049-4.245,7.435-5.047,9.151-18.554c1.726-13.531-9.141-0.524-9.141-0.524
		s-7.952,9.151-39.756,7.149c-29.3-1.826-64.235-16.589-63.056-68.615c0.085-3.419,1.164-6.48,2.203-6.896
		c1.043-0.409,3.923,1.131,5.705,4.029c4.43,7.149,8.369,18.764,10.521,25.803c1.008,3.249,3.442,3.703,4.641,0.507
		c3.903-10.626,1.049-25.153-1.701-34.636c-0.933-3.276,0.06-7.4,2.263-9.445c2.197-2.047,5.564-1.706,7.792,0.868
		c14.966,17.186,28.593,25.585,45.561,25.585c20.279,0,38.968-6.359,34.202-70.78c-4.781-64.405-32.617-84.294-54.075-81.105
		c-13.838,2.045-23.415,9.043-28.458,13.765c-2.494,2.33-4.209,4.721-4.209,4.987c-0.005,0.248-1.977-1.49-4.616-3.653
		c-11.57-9.462-26.11-15.097-41.894-15.097c-15.583,0-29.938,5.484-41.437,14.71c-2.659,2.132-4.636,3.954-4.646,3.821
		c0-0.133-1.706-2.431-4.189-4.759C83.221,14.378,73.648,7.382,59.816,5.33C38.362,2.109,10.532,21.997,5.751,86.413
		c-4.766,64.411,13.923,70.775,34.202,70.775c16.888,0,30.474-8.306,45.346-25.324c2.243-2.584,4.741-3.898,5.725-2.938
		c0.993,0.956,1.736,1.693,1.651,1.628c-0.08-0.065-1.174,2.456-2.238,5.702c-2.91,8.956-7.375,26.358-2.895,38.572
		c1.179,3.198,3.633,2.762,4.626-0.494c2.388-7.772,6.969-21.17,11.941-27.901c2.017-2.75,4.39-1.194,4.285,2.215
		c-0.637,20.728,6.186,58.49,37.318,82.5c32.561,25.113,80.024,24.484,105.747,13.752c3.151-1.32,8.048-1.242,11.409-0.637
		c2.067,0.369,4.701,0.587,7.977,0.411C280.375,244.134,264.475,236.184,263.412,231.942z"/>
	<path fill="#FFFFFF" d="M154.524,67.098c0-5.449,4.42-9.874,9.884-9.874c5.444,0,9.869,4.425,9.869,9.874
		c0,5.451-4.425,9.874-9.869,9.874C158.944,76.971,154.524,72.549,154.524,67.098z"/>
	<path fill="#FFFFFF" d="M103.9,67.098c0-5.449,4.42-9.874,9.879-9.874c5.444,0,9.869,4.425,9.869,9.874
		c0,5.451-4.425,9.874-9.869,9.874C108.32,76.971,103.9,72.549,103.9,67.098z"/>
	<path d="M113.769,79.134c-3.321,0-6.016-2.697-6.016-6.02c0-3.324,2.694-6.016,6.016-6.016c3.326,0,6.021,2.692,6.021,6.016
		C119.79,76.437,117.095,79.134,113.769,79.134z"/>
	<path d="M158.382,73.113c0-3.324,2.694-6.016,6.026-6.016c3.317,0,6.011,2.692,6.011,6.016s-2.694,6.02-6.011,6.02
		C161.076,79.134,158.382,76.437,158.382,73.113z"/>
	<path fill="#BBB7AA" d="M206.833,49.229c0,0,3.376-27.773,25.317-15.112c21.945,12.659,38.823,74.269,22.793,87.773
		c-16.04,13.501-40.514,8.268-43.89-7.26C207.676,99.102,206.833,49.229,206.833,49.229z"/>
	<path fill="#BBB7AA" d="M79.838,49.229c0,0-3.251-27.773-24.379-15.112c-21.127,12.659-37.378,74.269-21.94,87.773
		c15.438,13.501,39.009,8.268,42.255-7.26C79.025,99.102,79.838,49.229,79.838,49.229z"/>
	<path fill="#FFFFFF" d="M91.021,129.268l8.625-5.689l8.108,23.794c0,0-8.083,7.461-11.048,16.208
		c-2.97,8.745-4.892,31.059-11.028,3.226C85.678,166.807,84.925,151.11,91.021,129.268z"/>
	<path fill="#FFFFFF" d="M180.934,129.268l-10.115-5.689l-9.497,23.794c0,0,9.473,7.461,12.954,16.208
		c3.477,8.745,5.725,31.059,12.919,3.226C187.195,166.807,188.079,151.11,180.934,129.268z"/>
</g>
</svg>
