<?xml version="1.0" encoding="utf-8"?>
<!-- Generator: Adobe Illustrator 17.0.0, SVG Export Plug-In . SVG Version: 6.00 Build 0)  -->
<!DOCTYPE svg PUBLIC "-//W3C//DTD SVG 1.1 Basic//EN" "http://www.w3.org/Graphics/SVG/1.1/DTD/svg11-basic.dtd">
<svg version="1.1" baseProfile="basic" id="Слой_1"
	 xmlns="http://www.w3.org/2000/svg" xmlns:xlink="http://www.w3.org/1999/xlink" x="0px" y="0px" width="360px" height="250px"
	 viewBox="0 0 360 250" xml:space="preserve">
<g>
	<path fill="#A3D0D3" d="M223.781,240.466c-101.336-107.739-5.622-197.725,10.971-211.864
		C160.916,9.045,96.025,63.437,71.667,87.553c-5.986,5.925-13.411,4.926-18.424-1.847c-9.378-12.665-24.346-29.191-34.402-39.945
		C13.09,39.605,6.566,41.4,6.619,49.82c0.171,25.609,12.847,57.739,20.944,75.688c3.463,7.67,2.525,19.297-0.767,27.051
		c-8.028,18.872-13.437,46.779-16.236,63.87c-1.355,8.313,3.627,11.568,10.024,6.086c9.057-7.767,21.049-18.985,29.642-27.177
		c6.107-5.801,14.049-4.394,20.736,0.717c4.275,3.26,9.354,6.568,13.956,9.391c7.187,4.402,24.006,10.599,20.192,17.657
		c-3.814,7.048-3.859,8.893,4.268,6.674c8.118-2.235,20.943-1.906,28.956,0.68c55.842,17.99,73.338,11.733,77.534,11.32
		C219.681,241.403,223.781,240.466,223.781,240.466z"/>
	<polyline fill="#6A9797" points="100.752,229.327 113.121,198.025 153.907,213.676 100.752,238.702 	"/>
	<path fill="#6A9797" d="M222.65,27.143c-26.105-2.629-61.445,7.537-87.178,14.456c-10.651,2.856-10.411-8.543-11.708-18.958
		c-0.878-7.02-3.21-13.778-8.743-15.801c-0.024-0.006,82.343,9.501,121.34,20.762C246.936,30.666,233.604,28.249,222.65,27.143z"/>
</g>
</svg>
