<?xml version="1.0" encoding="utf-8"?>
<!-- Generator: Adobe Illustrator 17.0.0, SVG Export Plug-In . SVG Version: 6.00 Build 0)  -->
<!DOCTYPE svg PUBLIC "-//W3C//DTD SVG 1.1 Basic//EN" "http://www.w3.org/Graphics/SVG/1.1/DTD/svg11-basic.dtd">
<svg version="1.1" baseProfile="basic" id="Слой_1"
	 xmlns="http://www.w3.org/2000/svg" xmlns:xlink="http://www.w3.org/1999/xlink" x="0px" y="0px" width="112.518px"
	 height="217.485px" viewBox="0 0 112.518 217.485" xml:space="preserve">
<path fill="#87BB50" d="M44.127,2.492c-1.591,0.501-3.132,1.058-4.628,1.664c0.009-0.007,0.031-0.023,0.031-0.023
	c-0.017,0.011-0.033,0.021-0.05,0.031C30.851,7.66,23.766,12.849,18.023,19.19C-9.557,42.041-1.018,56.957,14.07,82.942
	c14.07,24.24,21.624,52.932,24.309,64.607c0.766,11.911-0.786,24.784-5.902,38.968c-0.011,0-0.035-0.027-0.059-0.027
	c1.78-5.796,3.104-12.288,3.571-19.85c0.102-1.628,0.142-3.245,0.137-4.851c-11.34,2.084-20.772,6.191-26.523,16.735
	c-7.508,12.968-7.557,27.331-1.111,38.961c1.906-1.153,3.774-2.424,5.583-3.832c32.315-7.693,66.573-13.497,78.649-55.523
	c5.648-19.689,2.445-38.091-14.607-60.377c-13.586-17.81-17.234-32.065-10.934-41.335c9.007-13.264,32.489-7.538,44.168,8.923
	C119.87,19.536,80.171-8.833,44.127,2.492z"/>
</svg>
