<?xml version="1.0" encoding="utf-8"?>
<!-- Generator: Adobe Illustrator 17.0.0, SVG Export Plug-In . SVG Version: 6.00 Build 0)  -->
<!DOCTYPE svg PUBLIC "-//W3C//DTD SVG 1.1 Basic//EN" "http://www.w3.org/Graphics/SVG/1.1/DTD/svg11-basic.dtd">
<svg version="1.1" baseProfile="basic" id="Слой_1"
	 xmlns="http://www.w3.org/2000/svg" xmlns:xlink="http://www.w3.org/1999/xlink" x="0px" y="0px" width="360px" height="250px"
	 viewBox="0 0 360 250" xml:space="preserve">
<g>
	<path fill="none" stroke="#FFFFFF" stroke-width="5" stroke-miterlimit="10" d="M353.381,130.923
		c0.001,0.001-9.93-26.528-50.331-59.648c-17.674-16.829-35.316-28.175-52.563-35.27c-3.631-2.018-7.388-4.036-11.267-6.05
		c1.778,0.1,1.401-0.244-2.858-1.478C197.365,17.216,114.998,7.709,115.022,7.715c5.533,2.023,7.865,8.781,8.743,15.801
		c1.296,10.406,1.058,21.794,11.683,18.964c-28.867,13.966-51.433,33.723-63.781,45.947c-5.986,5.925-13.411,4.926-18.424-1.847
		c-9.378-12.665-24.346-29.191-34.402-39.945c-5.751-6.156-12.275-4.361-12.222,4.059c0.171,25.609,12.847,57.739,20.944,75.688
		c3.463,7.67,2.525,19.297-0.767,27.051c-8.029,18.872-13.437,46.779-16.236,63.87c-1.355,8.313,3.627,11.568,10.024,6.086
		c9.057-7.767,21.049-18.985,29.642-27.177c6.107-5.801,14.049-4.394,20.736,0.717c4.275,3.26,9.354,6.568,13.956,9.391
		c5.624,3.445,17.144,7.989,20.062,13.184l-4.227,10.698v9.375l22.098-10.404c5.567,0.049,11.208,0.779,15.482,2.158
		c55.852,17.993,101.495,11.288,135.183-1.96c29.845-9.53,64.841-25.497,79.865-50.49l-26.753-22.027L353.381,130.923z
		 M233.982,30.437c-3.614-0.957-7.204-1.741-10.768-2.361c4.15,0.432,8.566,1.032,11.862,1.441
		C234.764,29.777,234.398,30.084,233.982,30.437z"/>
	<g>
		<path d="M8.34,35.578"/>
		<path fill="#A3D0D3" d="M329.407,151.451c9.162-8.445,22.33-18.769,18.411-24.845C233.874-49.629,108.157,52.302,71.667,88.426
			c-5.986,5.925-13.411,4.926-18.424-1.847c-9.378-12.665-24.346-29.191-34.402-39.945c-5.751-6.156-12.275-4.361-12.222,4.059
			c0.171,25.609,12.847,57.739,20.944,75.688c3.463,7.67,2.525,19.297-0.767,27.051c-8.029,18.872-13.437,46.779-16.236,63.87
			c-1.355,8.313,3.627,11.568,10.024,6.086c9.057-7.767,21.049-18.985,29.642-27.177c6.107-5.801,14.049-4.394,20.736,0.717
			c4.275,3.26,9.354,6.568,13.956,9.391c7.187,4.402,24.006,10.599,20.192,17.657c-3.814,7.048-3.859,8.893,4.267,6.674
			c8.118-2.235,20.943-1.906,28.956,0.68c99.294,31.988,166.324-14.085,191.274-36.205c6.302-5.593,12.491-10.994,14.539-11.329
			c0.954-0.158,2.161-0.358,3.687-0.612c4.112-0.685-4.381-6.711-12.699-11.916C327.971,166.794,323.218,157.171,329.407,151.451z
			 M264.127,123.625c-9.236,0-16.729-7.494-16.729-16.727c0-9.236,7.494-16.724,16.729-16.724c9.236,0,16.721,7.488,16.721,16.724
			C280.849,116.132,273.363,123.625,264.127,123.625z"/>
		<polyline fill="#6A9797" points="100.753,230.202 113.122,198.9 153.908,214.551 100.753,239.577 		"/>
		<path fill="#E8D7DA" d="M236.362,28.477c0,0-123.166,95.291-12.581,212.864c0,0,101-14.879,129.6-62.46l-26.753-22.027
			l26.753-25.931C353.382,130.924,333.63,78.108,236.362,28.477z"/>
		<path fill="#FFFFFF" d="M277.138,114.951c0,8.131-6.589,14.715-14.707,14.715s-14.71-6.584-14.71-14.715
			c0-8.118,6.592-14.707,14.71-14.707C270.548,100.243,277.138,106.833,277.138,114.951z"/>
		<path fill="#42403C" d="M271.426,123.625c0,4.035-3.268,7.298-7.298,7.298s-7.298-3.263-7.298-7.298
			c0-4.033,3.268-7.298,7.298-7.298S271.426,119.592,271.426,123.625z"/>
		<path fill="#6A9797" d="M222.651,28.018c-26.105-2.629-61.445,7.537-87.178,14.456c-10.651,2.856-10.411-8.543-11.708-18.958
			c-0.878-7.02-3.21-13.778-8.743-15.801c-0.024-0.006,82.343,9.501,121.34,20.762C246.937,31.541,233.605,29.124,222.651,28.018z"
			/>
	</g>
</g>
</svg>
