<?xml version="1.0" encoding="utf-8"?>
<!-- Generator: Adobe Illustrator 17.0.0, SVG Export Plug-In . SVG Version: 6.00 Build 0)  -->
<!DOCTYPE svg PUBLIC "-//W3C//DTD SVG 1.1 Basic//EN" "http://www.w3.org/Graphics/SVG/1.1/DTD/svg11-basic.dtd">
<svg version="1.1" baseProfile="basic" id="Слой_1"
	 xmlns="http://www.w3.org/2000/svg" xmlns:xlink="http://www.w3.org/1999/xlink" x="0px" y="0px" width="79.449px"
	 height="202.057px" viewBox="0 0 79.449 202.057" xml:space="preserve">
<path fill="#D36234" d="M10.776,5.799c-1.372,2.542-2.828,5.055-4.362,7.531c2.897,0.878,5.844,1.701,8.853,2.442
	c0.076,1.799,0.787,3.471,1.971,4.894L4.215,73.121c-2.391,1.312-4.113,4.326-4.211,7.906c-0.092,3.491,1.383,6.56,3.604,8.097
	l6.646,100.83c0,0-0.112,12.743,5.619,12.078c7.833-0.902,11.695,0.007,11.695,0.007s4.791-2.313,10.027-1.96
	c5.232,0.359,1.058-5.731,1.058-5.731l-21.505-20.237l-6.185-85.767c1.587-1.566,2.642-4.011,2.716-6.794
	c0.075-2.682-0.786-5.117-2.194-6.799l13.887-49.78c0.824,0.129,1.678,0.197,2.552,0.197c5.16,0,9.59-2.367,11.568-5.757
	c1.496,0.072,3.005,0.122,4.535,0.135c0.288,3.02,2.367,5.656,5.436,7.281L32.899,72.384c-2.506,0.953-4.517,3.694-4.974,7.234
	c-0.448,3.45,0.705,6.714,2.753,8.559l-2,82.293c0,0-0.916,2.218,20.905,13.726c3.415,1.804,11.882,5.642,15.306,2.014
	c4.679-4.951,8.257-6.802,8.257-6.802s1.21-3.798,5.235-6.693c4.029-2.889-4.632-3.12-4.632-3.12s-28.158-0.712-36.635-3.011
	c-1.858-0.502-2.045-3.805-2.045-3.805l2.987-74.304c1.736-1.326,3.032-3.599,3.388-6.348c0.343-2.654-0.261-5.197-1.489-7.07
	l18.516-46.62c6.139-0.677,10.86-4.713,10.86-9.606c0-0.625-0.084-1.235-0.231-1.828c2.698-0.575,5.343-1.243,7.931-1.996
	C59.461-1.897,29.081-3.854,10.776,5.799z"/>
</svg>
