<?xml version="1.0" encoding="utf-8"?>
<!-- Generator: Adobe Illustrator 17.0.0, SVG Export Plug-In . SVG Version: 6.00 Build 0)  -->
<!DOCTYPE svg PUBLIC "-//W3C//DTD SVG 1.1 Basic//EN" "http://www.w3.org/Graphics/SVG/1.1/DTD/svg11-basic.dtd">
<svg version="1.1" baseProfile="basic" id="Слой_1"
	 xmlns="http://www.w3.org/2000/svg" xmlns:xlink="http://www.w3.org/1999/xlink" x="0px" y="0px" width="280px" height="435px"
	 viewBox="0 0 280 435" xml:space="preserve">
<path fill="#A8A8A8" stroke="#272525" stroke-width="3" stroke-miterlimit="10" d="M186.407,56.387c0,0,2.645-0.005,6.481-0.735
	c12.38,0.048,19.1,2.012,22.65,5.455c0.127,0.123,0.242,0.274,0.35,0.44c0.728,1.544,1.471,4.999,1.152,12.742
	c-0.203,4.889,0.034,8.108,0.426,10.232c0.179,1.319,0.459,2.398,0.886,3.13c-1.016,2.141-1.732,3.383-1.732,3.383
	c1.369-0.058,4.28-1.492,7.881-5.469c4.019-4.242,7.439-10.146,9.921-15.871c6.408-13.856,4.141-17.626,4.072-17.733
	c-1.838-8.188-14.484-19.161-17.657-21.807c2.437-12.279-6.143-17.039-17.526-18.557c-65.356-8.709-62.534,80.283-23.661,106.479
	c3.988,2.688,7.584,5.374,10.843,8.033c0.025,0.008,0.051,0.012,0.076,0.02c16.025,8.012,31.276,8.28,46.949,3.802
	c-2.951-2.573-6.168-5.12-9.698-7.629C157.676,72.443,186.407,56.387,186.407,56.387z"/>
<path fill="#A8A8A8" stroke="#272525" stroke-width="3" stroke-miterlimit="10" d="M146.802,155.991
	c-2.321-5.416-6.036-10.133-10.647-13.991c-26.009,7.036-57.938,25.087-95.649,62.921c0,0,0.972,0.778,3.068,1.494
	c-26.717,9.71-26.729,20.731-26.729,20.731c29.579-22.817,46.479-16.904,46.479-16.904C34.59,209.398,16,238.131,16,238.131
	c47.333-39.129,78.173-15.104,119.618-2.541C150.945,210.859,158.808,182.576,146.802,155.991z"/>
<path fill="#A8A8A8" stroke="#272525" stroke-width="3" stroke-miterlimit="10" d="M138.775,227.8
	c-1.372,2.542-2.828,5.055-4.362,7.531c2.897,0.878,5.844,1.701,8.853,2.442c0.076,1.799,0.787,3.471,1.971,4.894l-13.022,52.455
	c-2.391,1.312-4.113,4.326-4.211,7.906c-0.092,3.491,1.383,6.56,3.604,8.097l6.646,100.83c0,0-0.112,12.743,5.619,12.078
	c7.833-0.902,11.695,0.007,11.695,0.007s4.791-2.313,10.027-1.96c5.232,0.359,1.058-5.731,1.058-5.731l-21.505-20.237l-6.185-85.767
	c1.587-1.566,2.642-4.011,2.716-6.794c0.075-2.682-0.786-5.117-2.194-6.799l13.887-49.78c0.824,0.129,1.678,0.197,2.552,0.197
	c5.16,0,9.59-2.367,11.568-5.757c1.496,0.072,3.005,0.122,4.535,0.135c0.288,3.02,2.367,5.656,5.436,7.281l-16.565,45.556
	c-2.506,0.953-4.517,3.694-4.974,7.234c-0.448,3.45,0.705,6.714,2.753,8.559l-2,82.293c0,0-0.916,2.218,20.905,13.726
	c3.415,1.804,11.882,5.642,15.306,2.014c4.679-4.951,8.257-6.802,8.257-6.802s1.21-3.798,5.235-6.693
	c4.029-2.889-4.632-3.12-4.632-3.12s-28.158-0.712-36.635-3.011c-1.858-0.502-2.045-3.805-2.045-3.805l2.987-74.304
	c1.736-1.326,3.032-3.599,3.388-6.348c0.343-2.654-0.261-5.197-1.489-7.07l18.516-46.62c6.139-0.676,10.86-4.713,10.86-9.606
	c0-0.625-0.084-1.235-0.231-1.828c2.698-0.575,5.343-1.243,7.931-1.996C187.46,220.103,157.08,218.146,138.775,227.8z"/>
<path fill="#A8A8A8" stroke="#272525" stroke-width="3" stroke-miterlimit="10" d="M237.656,129.822
	c-15.673,4.477-30.924,4.21-46.949-3.802c-0.025-0.008-0.051-0.012-0.076-0.02c15.977,13.035,23.644,25.385,27.296,33.73
	c-7.774-7.767-35.359-30.491-81.927-17.894c4.611,3.858,8.325,8.574,10.647,13.991c10.804,23.923,5.514,49.22-6.821,72.069
	c18.305-9.654,48.685-7.697,66.254,9.208C257.933,222.012,286.319,172.244,237.656,129.822z"/>
</svg>
