<?xml version="1.0" encoding="utf-8"?>
<!-- Generator: Adobe Illustrator 17.0.0, SVG Export Plug-In . SVG Version: 6.00 Build 0)  -->
<!DOCTYPE svg PUBLIC "-//W3C//DTD SVG 1.1 Basic//EN" "http://www.w3.org/Graphics/SVG/1.1/DTD/svg11-basic.dtd">
<svg version="1.1" baseProfile="basic" id="Слой_1"
	 xmlns="http://www.w3.org/2000/svg" xmlns:xlink="http://www.w3.org/1999/xlink" x="0px" y="0px" width="280px" height="435px"
	 viewBox="0 0 280 435" xml:space="preserve">
<g>
	<path fill="#D39BB7" stroke="#FCFCFC" stroke-width="6" stroke-miterlimit="10" d="M227.651,122.671
		c-70.144-49.859-41.413-65.915-41.413-65.915s2.642-0.004,6.475-0.734c12.385,0.047,19.107,2.011,22.657,5.455
		c0.126,0.122,0.24,0.272,0.349,0.437c0.728,1.543,1.473,4.996,1.153,12.745c-0.203,4.896,0.034,8.116,0.427,10.24
		c0.179,1.315,0.459,2.39,0.884,3.121c-1.008,2.124-1.719,3.36-1.73,3.38c0,0-0.003,0.004-0.003,0.004
		c1.37-0.059,4.282-1.494,7.886-5.474c3.94-4.16,7.305-9.918,9.774-15.537c6.513-13.935,4.348-17.844,4.214-18.062
		c-1.839-8.189-14.485-19.162-17.658-21.807c2.438-12.279-6.143-17.039-17.526-18.557c-65.355-8.709-62.534,80.283-23.662,106.479
		c23.537,15.863,33.742,31.714,38.139,41.761c-12.125-12.112-72.357-60.536-177.575,45.029c0,0,0.972,0.777,3.065,1.494
		c-26.715,9.71-26.727,20.73-26.727,20.73c29.579-22.818,46.479-16.904,46.479-16.904c-28.734-0.844-47.323,27.889-47.323,27.889
		c50.641-41.863,82.402-11.435,128.471-0.099c0.076,1.799,0.787,3.472,1.972,4.895l-13.023,52.456
		c-2.391,1.312-4.113,4.326-4.211,7.906c-0.092,3.491,1.383,6.56,3.604,8.097l6.646,100.83c0,0-0.112,12.743,5.619,12.078
		c7.833-0.902,11.695,0.007,11.695,0.007s4.791-2.313,10.027-1.96c5.232,0.358,1.058-5.732,1.058-5.732l-21.505-20.237
		l-6.185-85.767c1.587-1.566,2.642-4.011,2.716-6.793c0.075-2.682-0.786-5.117-2.194-6.799l13.888-49.781
		c0.824,0.129,1.677,0.197,2.551,0.197c5.16,0,9.59-2.367,11.568-5.757c1.496,0.072,3.005,0.122,4.535,0.135
		c0.287,3.02,2.366,5.656,5.435,7.281l-16.564,45.556c-2.506,0.953-4.517,3.694-4.974,7.234c-0.448,3.45,0.705,6.714,2.753,8.559
		l-2,82.293c0,0-0.916,2.218,20.905,13.726c3.415,1.804,11.882,5.642,15.306,2.014c4.679-4.951,8.257-6.802,8.257-6.802
		s1.21-3.798,5.235-6.693c4.029-2.889-4.632-3.119-4.632-3.119s-28.158-0.712-36.635-3.011c-1.858-0.502-2.045-3.805-2.045-3.805
		l2.987-74.304c1.736-1.326,3.032-3.599,3.388-6.348c0.343-2.654-0.261-5.197-1.489-7.07l18.516-46.621
		c6.138-0.676,10.86-4.713,10.86-9.605c0-0.626-0.084-1.236-0.232-1.828C257.88,226.777,292.292,168.622,227.651,122.671z"/>
	<g>
		<g>
			<g>
				<g>
					<ellipse fill="#B17F9E" cx="185.398" cy="241.405" rx="12.675" ry="9.716"/>
					<path fill="#B17F9E" d="M169.342,238.026c0,5.366-5.673,9.716-12.675,9.716s-12.679-4.35-12.679-9.716
						c0-5.37,5.676-9.719,12.679-9.719C163.669,228.308,169.342,232.657,169.342,238.026z"/>
					<path fill="#D39BB7" d="M220.89,170.841c0,0-2.536-26.196-41.41-52.396C140.608,92.249,137.787,3.257,203.142,11.966
						c12.675,1.69,21.885,7.394,16.266,23.029c-7.816,21.761-33.17,21.761-33.17,21.761s-28.731,16.056,41.413,65.915
						c70.137,49.858,23.662,114.084-45.634,119.152c-69.296,5.073-103.1-55.773-166.479-3.379c0,0,18.589-28.733,47.323-27.889
						c0,0-16.9-5.914-46.479,16.904c0,0,0-12.677,32.956-22.817c0,0,16.059-32.959,60.846-44.79
						C154.975,148.023,182.017,131.122,220.89,170.841z"/>
					<path fill="#C085A5" d="M219.907,162.676c0,0-61.44-76.254-179.863,42.559c0,0,14.245,11.529,52.535-13.299
						c0,0-14.245,15.515-11.132,18.619c0,0,13.357,2.218,31.61-16.403c0,0-3.116,11.083,1.784,11.972
						c0,0,10.681-0.444,23.594-13.301c0,0-2.224,5.763,0,7.094c0,0,11.132-0.444,19.142-12.414c0,0,3.564,13.743,6.68,13.743
						c0,0,17.063-6.631,24.228-19.889c0.244-0.456,0.481-0.921,0.702-1.392C189.185,179.964,234.148,187.502,219.907,162.676z"/>
					<path fill="#BB7EA0" d="M193.004,200.42c0,0-18.592,6.758-21.128,11.829c0,0,11.936,2.642,24.929-4.332"/>
					<path fill="#BB7EA0" d="M203.749,210.56c0,0-12.526,4.381-14.235,7.67c0,0,8.047,1.712,16.798-2.809"/>
				</g>
				<path fill="#C085A5" d="M200.61,33.939c0,0,25.625,17.992,26.35,20.561c2.699,9.544-8.392,34.053-8.392,34.053
					c-3.381-3.486,0.312-23.667-3.198-27.076c-3.594-3.486-10.427-5.459-23.105-5.459C192.264,56.017,205.401,49.11,200.61,33.939z"
					/>
				
					<linearGradient id="SVGID_1_" gradientUnits="userSpaceOnUse" x1="1297.7361" y1="142.0967" x2="1332.7185" y2="152.4619" gradientTransform="matrix(1 0 0 -1 -1094.3506 219.84)">
					<stop  offset="0.0242" style="stop-color:#272525"/>
					<stop  offset="1" style="stop-color:#59595B"/>
				</linearGradient>
				<path fill="url(#SVGID_1_)" d="M219.3,88.994c0,0-3.008-0.346-2.428-14.335c0.577-13.992-2.316-13.992-2.316-13.992
					s7.979,6.476,10.41-1.965c2.428-8.441,0.461-0.232,0.461-0.232s2.543,5.665,0.461,11.794
					c-2.079,6.128-6.127,18.731-6.127,18.731"/>
				<path fill="#C085A5" d="M219.944,29.928c0,0,17.805,14.245,18.589,23.662c0.634,7.604-9.237,33.5-22.081,37.813
					c0,0,10.566-18.273,8.29-36.267c-0.559-4.415-24.238-20.985-24.238-20.985S208.113,40.912,219.944,29.928z"/>
				
					<linearGradient id="SVGID_2_" gradientUnits="userSpaceOnUse" x1="1285.6538" y1="139.2585" x2="1351.2749" y2="158.7018" gradientTransform="matrix(1 0 0 -1 -1094.3506 219.84)">
					<stop  offset="0.0242" style="stop-color:#272525"/>
					<stop  offset="1" style="stop-color:#59595B"/>
				</linearGradient>
				<path fill="url(#SVGID_2_)" d="M223.637,52.637c0,0,10.668,7.183,14.682-0.317c0,0,2.641,3.908-4.754,19.227
					c-7.392,15.315-14.683,19.753-17.114,19.857c0,0,9.189-13.36,8.979-32.057C225.431,59.345,225.166,55.119,223.637,52.637z"/>
			</g>
			<g>
				<path fill="#272525" d="M210.623,38.103c0,3.238-2.618,5.868-5.856,5.868s-5.863-2.63-5.863-5.868
					c0-3.235,2.625-5.861,5.863-5.861S210.623,34.868,210.623,38.103z"/>
				<path fill="#FFFFFF" d="M205.075,36.56c0,1.536-1.241,2.781-2.781,2.781c-1.533,0-2.77-1.244-2.77-2.781
					c0-1.53,1.238-2.772,2.77-2.772C203.834,33.788,205.075,35.031,205.075,36.56z"/>
				<path fill="#FFFFFF" d="M208.72,37.449c0,0.861-0.695,1.56-1.56,1.56c-0.861,0-1.56-0.698-1.56-1.56
					c0-0.866,0.698-1.563,1.56-1.563C208.025,35.885,208.72,36.582,208.72,37.449z"/>
			</g>
			<path fill="#CA278B" d="M196.279,40.171c0,3.325-2.699,6.022-6.022,6.022c-3.326,0-6.022-2.698-6.022-6.022
				s2.696-6.021,6.022-6.021C193.58,34.151,196.279,36.847,196.279,40.171z"/>
			<path fill="#BB7EA0" d="M93.285,189.433c0,0-31.691,19.435-43.946,15.21c0,0,6.341-10.14,37.608-19.859"/>
			<path fill="#BB7EA0" d="M97.34,188.968c0,0-9.532,21.327-17.385,23.484c0,0-0.312-7.507,12.451-23.643"/>
			<path fill="#B17F9E" d="M202.491,392.169c0,0-28.158-0.712-36.635-3.011c-1.858-0.502-2.045-3.805-2.045-3.805l2.987-74.304
				c1.736-1.326,3.032-3.599,3.388-6.348c0.343-2.654-0.261-5.197-1.489-7.07l21.39-53.858l-9.23-1.665l-19.216,52.849
				c-2.506,0.953-4.517,3.694-4.974,7.234c-0.448,3.45,0.705,6.714,2.753,8.559l-2,82.293c0,0-0.916,2.218,20.905,13.726
				c3.415,1.804,11.882,5.642,15.306,2.014c4.679-4.951,8.257-6.802,8.257-6.802s1.21-3.798,5.235-6.693
				C211.152,392.399,202.491,392.169,202.491,392.169z"/>
			<path fill="#B17F9E" d="M167.396,416.922l-21.505-20.237l-6.185-85.767c1.587-1.566,2.642-4.011,2.716-6.793
				c0.075-2.682-0.786-5.117-2.194-6.799l15.781-56.568l-9.335-0.31l-13.716,55.248c-2.391,1.312-4.113,4.326-4.211,7.906
				c-0.092,3.491,1.383,6.56,3.604,8.097l6.646,100.83c0,0-0.112,12.743,5.619,12.078c7.833-0.902,11.695,0.007,11.695,0.007
				s4.791-2.313,10.027-1.96C171.57,423.012,167.396,416.922,167.396,416.922z"/>
		</g>
		<path fill="#D39BB7" d="M223.883,52.795c0,0-0.639-0.245-1.522-0.72c-0.888-0.469-2.022-1.164-3.11-1.924
			c-1.085-0.766-2.124-1.597-2.865-2.273c-0.746-0.67-1.193-1.189-1.193-1.189s0.64,0.244,1.523,0.719
			c0.888,0.468,2.022,1.164,3.11,1.925c1.084,0.766,2.123,1.598,2.865,2.274C223.436,52.276,223.883,52.795,223.883,52.795z"/>
	</g>
</g>
</svg>
