<?xml version="1.0" encoding="utf-8"?>
<!-- Generator: Adobe Illustrator 17.0.0, SVG Export Plug-In . SVG Version: 6.00 Build 0)  -->
<!DOCTYPE svg PUBLIC "-//W3C//DTD SVG 1.1 Basic//EN" "http://www.w3.org/Graphics/SVG/1.1/DTD/svg11-basic.dtd">
<svg version="1.1" baseProfile="basic" id="Слой_1"
	 xmlns="http://www.w3.org/2000/svg" xmlns:xlink="http://www.w3.org/1999/xlink" x="0px" y="0px" width="86.939px"
	 height="121.84px" viewBox="0 0 86.939 121.84" xml:space="preserve">
<path fill="#CE953A" d="M34.408,45.387c0,0,2.645-0.005,6.481-0.735c12.38,0.048,19.1,2.012,22.65,5.455
	c0.127,0.123,0.242,0.274,0.35,0.44c0.728,1.544,1.471,4.999,1.152,12.742c-0.203,4.889,0.034,8.108,0.426,10.232
	c0.179,1.319,0.459,2.398,0.886,3.13c-1.016,2.141-1.732,3.383-1.732,3.383c1.369-0.058,4.28-1.492,7.881-5.469
	c4.019-4.242,7.439-10.146,9.921-15.871c6.408-13.856,4.141-17.626,4.072-17.733C84.656,32.773,72.011,21.8,68.838,19.154
	C71.275,6.876,62.695,2.115,51.311,0.597C-14.044-8.112-11.223,80.88,27.65,107.076c3.988,2.688,7.584,5.374,10.843,8.033
	c0.025,0.008,0.051,0.012,0.076,0.02c16.025,8.012,31.276,8.28,46.949,3.802c-2.951-2.573-6.168-5.12-9.698-7.629
	C5.677,61.443,34.408,45.387,34.408,45.387z"/>
</svg>
