<?xml version="1.0" encoding="utf-8"?>
<!-- Generator: Adobe Illustrator 17.0.0, SVG Export Plug-In . SVG Version: 6.00 Build 0)  -->
<!DOCTYPE svg PUBLIC "-//W3C//DTD SVG 1.1 Basic//EN" "http://www.w3.org/Graphics/SVG/1.1/DTD/svg11-basic.dtd">
<svg version="1.1" baseProfile="basic" id="Слой_1"
	 xmlns="http://www.w3.org/2000/svg" xmlns:xlink="http://www.w3.org/1999/xlink" x="0px" y="0px" width="98.669px"
	 height="145.55px" viewBox="0 0 98.669 145.55" xml:space="preserve">
<path fill="#42BCAA" d="M98.528,12.822c0,0-12.087,13.296-24.777,11.484c-12.694-1.814-9.37-26.29-36.261-24.176
	C10.59,2.245-3.913,19.771,0.92,41.832C5.759,63.89,25.256,59.001,38.699,63.286C52.446,67.669,59.396,76.13,54.71,94.411
	c-2.569,10.027-16.058,13.474-23.022,14.599c-4.72-4.975-12.119-9.661-21.207-14.028c8.394,17.256,16.92,34.114,26.651,50.568
	c2.242-10.114,3.415-22.112-1.583-31.295c7.222-1.135,24.12-5.315,30.346-19.995c6.767-15.974,0.166-31.149-11.938-38.378
	c-11.636-6.95-23.723-5.44-29.013-14.051C18.88,31.953,27.818,23.7,27.818,23.7s1.21,6.798,3.778,12.087
	c2.569,5.289,7.706,7.102,7.706,7.102s-3.626-5.893-0.756-10.123c2.874-4.23,5.588-5.289,5.588-5.289s-3.324,16.318,9.217,22.966
	c12.544,6.649,33.245-2.417,33.245-2.417s-6.954-1.058-12.393-4.08c-5.438-3.022-7.706-9.668-7.706-9.668s15.107,11.029,24.476,5.74
	C100.34,34.731,98.528,12.822,98.528,12.822z"/>
</svg>
