<?xml version="1.0" encoding="utf-8"?>
<!-- Generator: Adobe Illustrator 17.0.0, SVG Export Plug-In . SVG Version: 6.00 Build 0)  -->
<!DOCTYPE svg PUBLIC "-//W3C//DTD SVG 1.1 Basic//EN" "http://www.w3.org/Graphics/SVG/1.1/DTD/svg11-basic.dtd">
<svg version="1.1" baseProfile="basic" id="Слой_1"
	 xmlns="http://www.w3.org/2000/svg" xmlns:xlink="http://www.w3.org/1999/xlink" x="0px" y="0px" width="37.968px"
	 height="213.099px" viewBox="0 0 37.968 213.099" xml:space="preserve">
<path fill="#B76153" d="M16.118,12.736C18.604,9.4,24.837,2.038,28.947,5.877c5.228,4.887,3.744,44.371,0,77.499
	c-1.497,13.221-6.375,49.192-7.661,58.636c-4.307,0.433-7.947,5.614-8.883,7.827c-2.783,6.587-5.262,15.745-5.262,22.54
	c0,7.284,2.375,13.114,2.375,13.114s0.475-7.767,1.229-10.506c1.046-3.781,2.991-5.447,2.991-5.447s0.534,3.27,0.712,8.821
	c0.13,4-0.642,5.165-2.864,12.68c-2.224,7.515,1.77,14.617,1.77,14.617s0.089-7.354,1.195-10.424
	c1.688-4.68,3.328-7.366,3.328-7.366s2.568,5.173,3.014,9.411c0.701,6.713,0.052,15.819,0.052,15.819s3.689-8.323,4.65-13.774
	c0.623-3.511-1.236-10.227-1.236-10.227s3.451,5.533,5.529,7.158c3.274,2.557,7.463,0.309,7.463,0.309s-8.896-2.249-11.448-19.631
	c-1.254-8.543,7.136-26.073,0.794-32.619c-0.44-0.454-0.881-0.826-1.321-1.138c0.84-5.257,7.036-44.035,9.296-58.779
	c3.634-23.661,6.376-77.859-3.681-82.817C21.984-2.855,15.416,3.085,12.47,6.71C9.06,3.052,4.41,1.308,0,0.54
	c5.728,12.174,11.51,23.09,18.416,34.353C18.895,25.625,17.9,17.655,16.118,12.736z"/>
</svg>
