<?xml version="1.0" encoding="utf-8"?>
<!-- Generator: Adobe Illustrator 17.0.0, SVG Export Plug-In . SVG Version: 6.00 Build 0)  -->
<!DOCTYPE svg PUBLIC "-//W3C//DTD SVG 1.1 Basic//EN" "http://www.w3.org/Graphics/SVG/1.1/DTD/svg11-basic.dtd">
<svg version="1.1" baseProfile="basic" id="Слой_1"
	 xmlns="http://www.w3.org/2000/svg" xmlns:xlink="http://www.w3.org/1999/xlink" x="0px" y="0px" width="362.958px"
	 height="185.312px" viewBox="0 0 362.958 185.312" xml:space="preserve">
<path fill="#FFFFFF" stroke="#FFFFFF" stroke-width="6" stroke-miterlimit="10" d="M254.535,158.453
	c0.39-0.671,0.774-1.347,1.154-2.026c0.031-0.055,0.062-0.111,0.093-0.166c0.378-0.678,0.751-1.36,1.118-2.044
	c0.026-0.048,0.051-0.096,0.077-0.144c0.375-0.7,0.743-1.401,1.106-2.105c0.009-0.018,0.019-0.037,0.028-0.055
	c1.506-2.927,2.904-5.875,4.167-8.765c0.002-0.005,0.005-0.011,0.007-0.016c8.586-19.651,10.955-36.561-0.955-25.208
	c-3.599,3.434-7.889-0.041-9.617-3.917c-2.209-4.98-1.342-11.397-1.542-12.772c-0.335-2.332-0.853-4.589-1.539-6.66
	c-6.491-3.382-12.856-7.016-19.007-11.079c-2.784,0.657-6.092,1.579-10.012,2.814c-38.22,12.047-34.022,32.252-74.491,32.414
	c-11.503,0.045-30.342-4.868-44.709-7.918c0-0.001,0-0.002,0-0.002c-0.17-0.036-0.334-0.07-0.503-0.105
	c2.697-6.384,6.133-16.386,6.587-29.438c0.002-0.043-0.202,0.084-0.566,0.34c0,0,0,0,0,0c-0.007,0.005-0.017,0.012-0.023,0.017
	c-0.116,0.082-0.243,0.173-0.39,0.28c-0.093,0.067-0.201,0.146-0.305,0.223c-0.009,0.006-0.017,0.013-0.026,0.019
	c-2.783,2.038-9.583,7.236-15.934,11.275c-0.001,0.001-0.003,0.002-0.004,0.003c-0.407,0.259-0.813,0.515-1.216,0.763
	c-0.084,0.052-0.163,0.095-0.246,0.145c-0.245-1.061-0.664-2.338-1.368-3.868c-2.61-5.682-11.518-12.442-11.518-12.442
	s-0.01,0.14-0.03,0.384c0,0,0,0,0-0.001c-0.042,0.523-0.127,1.551-0.252,2.853c-0.003,0.029-0.006,0.058-0.008,0.087
	c-0.029,0.302-0.06,0.618-0.094,0.945c-0.005,0.046-0.01,0.093-0.014,0.14c-0.034,0.326-0.069,0.662-0.106,1.008
	c-0.004,0.036-0.008,0.073-0.012,0.109c-0.036,0.325-0.073,0.658-0.112,0.995c-0.006,0.053-0.012,0.104-0.018,0.157
	c-0.04,0.34-0.081,0.686-0.125,1.033c-0.01,0.081-0.02,0.162-0.03,0.244c-0.043,0.338-0.087,0.678-0.133,1.018
	c-0.012,0.085-0.023,0.171-0.035,0.256c-0.047,0.345-0.096,0.69-0.146,1.031c-0.01,0.07-0.021,0.14-0.032,0.209
	c-0.054,0.356-0.108,0.71-0.165,1.056c-0.005,0.033-0.011,0.065-0.017,0.098c-0.055,0.331-0.112,0.656-0.169,0.973
	c-0.01,0.055-0.02,0.111-0.03,0.165c-0.06,0.321-0.121,0.631-0.184,0.932c-0.013,0.061-0.026,0.123-0.038,0.184
	c-0.063,0.295-0.128,0.578-0.194,0.848c-0.013,0.053-0.026,0.105-0.039,0.158c-0.068,0.271-0.138,0.529-0.209,0.768
	c-0.01,0.033-0.02,0.063-0.03,0.095c-0.076,0.249-0.153,0.483-0.233,0.689c-0.133,0.345-0.29,0.695-0.458,1.045
	c-0.037,0.077-0.074,0.154-0.112,0.231c-0.171,0.346-0.352,0.692-0.546,1.035c-0.011,0.019-0.023,0.038-0.034,0.058
	c-0.187,0.329-0.384,0.653-0.585,0.973c-0.049,0.078-0.097,0.156-0.147,0.233c-0.206,0.323-0.416,0.641-0.626,0.948
	c-0.038,0.055-0.075,0.107-0.113,0.162c-0.18,0.259-0.358,0.509-0.535,0.752c-0.061,0.083-0.122,0.168-0.182,0.249
	c-0.193,0.26-0.382,0.511-0.562,0.745c-0.061,0.08-0.119,0.152-0.179,0.228c-0.135,0.173-0.266,0.338-0.39,0.492
	c-0.027,0.034-0.055,0.068-0.082,0.102c-6.216,4.04-6.882,10.576-10.815,14.566v-0.001c-4.183,4.581-18.491,12.724-45.831,6.921
	c-0.024-0.901-0.195-2.723-1.17-3.016c-1.305-0.389-2.477,0.459-1.957,1.958c0.45,1.295,1.921,1.422,2.269,1.433
	c6.321,12.028,20.767,15.126,22.135,15.425c1.039,0.228,2.1,0.437,3.177,0.63c0.081,0.014,0.163,0.028,0.244,0.043
	c1.053,0.185,2.122,0.354,3.206,0.506c0.027,0.004,0.054,0.008,0.082,0.012c18.646,2.598,41.275,0.245,52.357-6.415
	c0.049,0.045,0.101,0.09,0.151,0.136c0.057,0.053,0.117,0.105,0.175,0.157c0.316,0.286,0.64,0.571,0.97,0.854
	c0.068,0.059,0.136,0.117,0.205,0.176c0.77,0.653,1.574,1.299,2.407,1.935c0.083,0.063,0.165,0.126,0.249,0.189
	c0.392,0.297,0.789,0.593,1.193,0.886c0.023,0.017,0.046,0.034,0.069,0.051c0.438,0.317,0.882,0.631,1.332,0.944
	c0.073,0.051,0.148,0.102,0.221,0.152c0.387,0.267,0.778,0.533,1.172,0.796c0.074,0.05,0.148,0.1,0.223,0.149
	c0.461,0.306,0.926,0.61,1.395,0.911c0.013,0.008,0.026,0.016,0.039,0.024c0.449,0.288,0.901,0.572,1.354,0.854
	c0.085,0.053,0.171,0.106,0.256,0.159c0.463,0.286,0.927,0.571,1.394,0.852c0,0,0.001,0,0.001,0.001
	c0.485,0.292,0.971,0.58,1.458,0.866c0.074,0.043,0.147,0.086,0.221,0.129c0.423,0.247,0.846,0.492,1.269,0.734
	c0.066,0.038,0.131,0.075,0.197,0.113c0.487,0.278,0.973,0.552,1.457,0.823c0.009,0.005,0.017,0.01,0.026,0.014
	c0.47,0.262,0.937,0.521,1.403,0.776c0.067,0.037,0.133,0.073,0.2,0.11c0.657,0.359,1.308,0.711,1.952,1.056
	c-5.865,1.783-13.913,0.11-17.817,4.015v-0.001c-8.51,8.51,6.545,20.182,9.903,10.526c0.102-0.296,0.619-2.479,0.619-2.786
	c0.001-3.828-6.834-2.086-5.88-4.954c2.166-4.642,14.236,0,17.95-3.713c0.134-0.134,0.244-0.265,0.358-0.396
	c1.045,0.539,2.046,1.052,2.987,1.536c0.134,0.069,0.266,0.137,0.398,0.205c0.185,0.095,0.369,0.19,0.549,0.283
	c0.323,0.167,0.638,0.33,0.943,0.489c0.079,0.041,0.153,0.08,0.231,0.121c0.253,0.132,0.499,0.261,0.739,0.388
	c0.087,0.046,0.173,0.091,0.258,0.136c0.302,0.16,0.596,0.317,0.875,0.468c0.572,0.308,1.154,0.589,1.747,0.844
	c0.592,0.255,1.193,0.484,1.802,0.69c0.198,1.111,0.464,2.258,0.624,3.338c0.032,0.216,0.06,0.43,0.082,0.64
	c0.044,0.42,0.066,0.826,0.055,1.213c-0.012,0.386-0.057,0.752-0.147,1.091c-0.09,0.339-0.225,0.652-0.416,0.932
	c-0.381,0.559-0.986,0.986-1.903,1.229c-1.372,0.363-3.454,0.787-5.96,1.235c-0.716,0.128-1.467,0.258-2.245,0.388
	c-3.115,0.523-6.677,1.062-10.261,1.562c-0.843,0.117-1.686,0.232-2.526,0.345c-1.886,0.252-3.749,0.49-5.529,0.705
	c-1.176,0.142-2.315,0.274-3.399,0.393c-0.427,0.047-0.848,0.093-1.257,0.136c-0.372,0.039-0.735,0.077-1.09,0.112
	c-0.385,0.039-0.757,0.075-1.119,0.109c-0.976,0.092-1.872,0.168-2.662,0.224c-3.637,0.262-9.99-1.416-14.042-0.48
	c-1.012,0.234-1.886,0.624-2.532,1.256c-0.679,0.664-1.122,1.363-1.374,2.07c-0.126,0.353-0.204,0.709-0.239,1.063
	c-0.018,0.177-0.024,0.354-0.021,0.53c0.07,4.053,5.42,7.743,7.851,6.16c0.211-0.138,0.401-0.315,0.563-0.536
	c4.349-5.917,13.346-7.98,22.869-8.522c1.465-0.083,2.943-0.131,4.418-0.151c5.162-0.07,10.293,0.196,14.748,0.435
	c1.273,0.068,2.491,0.134,3.638,0.189c1.148,0.055,2.225,0.099,3.218,0.124c0.496,0.013,0.971,0.02,1.423,0.022
	s0.88-0.002,1.284-0.013c0.404-0.011,0.782-0.029,1.133-0.055c1.055-0.078,1.867-0.228,2.386-0.478
	c1.344-0.65,2.677-2.142,4.027-4.057c0.45-0.638,0.902-1.324,1.358-2.04c0.455-0.717,0.914-1.465,1.376-2.228
	c1.387-2.291,2.812-4.724,4.302-6.879c21.303-5.139,44.633-24.317,51.132-30.513c0.877-0.837,1.966-1.803,3.21-2.866
	c7.965,10.05,24.421,17.651,26.143,17.298c3.587-0.735-5.701,14.831-30.233,15.937c-10.981,0.495-8.932,4.76-5.192,6.989
	c4.89,2.912,10.456-0.349,15.19-2.253c23.317-9.39,43.219-26.31,24.668-26.051c-2.643,0.038-4.764-4.879-3.474-7.106
	c0.806,0.148,1.624,0.277,2.458,0.376c0.519,0.062,1.043,0.114,1.57,0.158c1.054,0.088,2.123,0.142,3.197,0.166
	c0.537,0.012,1.075,0.017,1.614,0.015c1.056-0.004,2.113-0.036,3.163-0.089c0.556-0.028,1.111-0.062,1.662-0.103
	c1.061-0.078,2.11-0.177,3.139-0.293c0.514-0.058,1.023-0.12,1.526-0.186c1.006-0.132,1.987-0.279,2.934-0.436
	s1.861-0.325,2.733-0.499c1.345-0.269,2.731-0.707,4.055-1.123c1.513-0.476,2.944-0.923,4.14-1.061
	c0.299-0.034,0.583-0.049,0.851-0.04c0.134,0.004,0.263,0.015,0.388,0.032c0.25,0.034,0.481,0.094,0.692,0.184
	c0.316,0.135,0.585,0.339,0.8,0.627c0.644,0.862,0.797,2.474,0.239,5.239c-0.128,0.63-0.307,1.297-0.52,1.987
	c-0.162,0.525-0.34,1.061-0.554,1.62c-0.164,0.43-0.344,0.87-0.54,1.32c-0.391,0.898-0.845,1.833-1.363,2.802
	c-1.815,3.39-4.425,7.193-7.93,11.281c-1.002,1.168-2.076,2.359-3.226,3.57c-0.575,0.606-1.169,1.216-1.782,1.832
	c-1.763,1.771-2.892,3.234-3.534,4.429c-0.257,0.478-0.436,0.913-0.546,1.307c-0.166,0.591-0.177,1.091-0.065,1.509
	c0.186,0.695,0.713,1.16,1.435,1.432c0.144,0.054,0.297,0.101,0.456,0.14c0.318,0.079,0.662,0.128,1.023,0.15
	c0.181,0.011,0.366,0.015,0.554,0.013c0.376-0.005,0.765-0.035,1.157-0.089c0.98-0.135,1.98-0.416,2.853-0.805
	c1.048-0.467,1.915-1.09,2.347-1.803c0.411-0.677,0.816-1.361,1.217-2.048C254.489,158.532,254.512,158.493,254.535,158.453z"/>
<g>
	<path fill="#CF4B2D" d="M66.764,103.048c0,0,4.148-4.607,5.684-8.6c1.534-3.994,2.454-16.434,2.454-16.434
		s8.908,6.76,11.518,12.442c2.612,5.68,1.385,7.985,1.385,7.985c0-0.001-9.062,3.993-10.597,4.299
		c-1.536,0.308-4.608,1.076-5.684,1.384C70.451,104.43,66.764,103.048,66.764,103.048L66.764,103.048z"/>
	<path fill="#C5392E" d="M67.365,102.351c1.206-1.434,3.906-4.847,5.083-7.902c1.375-3.578,2.256-13.936,2.424-16.051
		c0.966,2.305,5.819,11.53,3.563,16.973C76.659,99.655,71.114,103.014,67.365,102.351L67.365,102.351z"/>
	<path fill="#D1542C" d="M94.767,151.625c-8.51,8.51,6.545,20.182,9.903,10.526c0.102-0.296,0.619-2.479,0.619-2.786
		c0.001-3.828-6.834-2.086-5.88-4.954c2.166-4.642,14.236,0,17.95-3.713c3.096-3.096,0.654-5.499-3.096-3.716
		C108.363,149.795,99.057,147.334,94.767,151.625L94.767,151.625z"/>
	<path fill="#D1542C" d="M227.365,139.442c3.587-0.735-5.701,14.831-30.233,15.937c-10.981,0.495-8.932,4.76-5.192,6.989
		c4.89,2.912,10.456-0.349,15.191-2.253c23.317-9.39,43.219-26.31,24.668-26.051c-2.872,0.041-5.139-5.776-3.069-7.626
		c19.66-17.593,7.38-47.544-22.781-27.789C177.786,117.098,224.401,140.05,227.365,139.442L227.365,139.442z"/>
	<path fill="#DA8038" d="M219.615,86.31c-38.22,12.047-34.022,32.252-74.491,32.414c-13.493,0.053-37.089-6.72-51.709-9.3h-0.002
		c-27.932,17.198,17.235,36.898,31.285,44.504c1.144,0.617,2.331,1.123,3.549,1.534c0.634,3.556,1.963,7.471-1.705,8.443
		c-6.272,1.661-27.377,4.59-36.047,5.21c-4.545,0.327-13.342-2.387-16.574,0.776c-5.43,5.314,4.189,12.818,6.779,9.287
		c10.704-14.564,49.578-5.776,55.118-8.45c3.584-1.733,7.089-9.459,11.063-15.204c21.303-5.139,44.633-24.317,51.132-30.513
		c3.183-3.037,9.076-7.721,15.531-12.89c0.083,17.903,24.829,16.736,38.777,13.949c6.151-1.231,13.148-5.974,11.164,3.858
		c-1.199,5.919-6.107,14.565-15.915,24.412c-11.281,11.332,3.374,10.084,5.68,6.282c14.977-24.672,23.513-57.406,8.081-42.696
		c-3.599,3.434-7.889-0.04-9.617-3.917c-2.209-4.98-1.342-11.397-1.542-12.772c-0.335-2.332-0.853-4.589-1.539-6.66
		c-6.491-3.382-12.856-7.016-19.007-11.079C226.842,84.152,223.534,85.075,219.615,86.31z"/>
	<path fill="#D46832" d="M93.414,109.424c2.16,0.38,4.51,0.852,7,1.379c0.283,1.153,0.605,4.642-0.203,6.745
		c-1.041,2.706,3.747,6.865,2.498,13.108c-1.249,6.24,14.977,17.473,24.131,19.761c9.157,2.29,37.241-0.414,53.052-15.602
		c15.81-15.186,32.465-30.427,35.748-26.293c11.512,14.497,24.539,20.71,43.014,14.248c6.054-2.119,9.917-5.325,9.402,4.319
		c-2.483,9.343-7.978,22.275-14.807,33.529c-2.306,3.803-16.961,5.05-5.68-6.282c9.808-9.847,14.716-18.493,15.915-24.412
		c1.984-9.832-5.013-5.089-11.164-3.858c-13.948,2.787-38.694,3.954-38.777-13.949c-6.456,5.169-12.349,9.853-15.532,12.89
		c-6.499,6.196-29.829,25.374-51.132,30.513c-3.975,5.745-7.479,13.472-11.063,15.204c-5.539,2.674-44.413-6.115-55.118,8.45
		c-2.59,3.531-12.209-3.973-6.779-9.287c3.233-3.163,12.029-0.449,16.574-0.776c8.67-0.619,29.775-3.549,36.047-5.21
		c3.668-0.972,2.339-4.887,1.705-8.443c-1.218-0.411-2.405-0.917-3.549-1.534c-9.877-5.347-35.132-16.671-39.557-28.901
		c0.908-3.422,3.446-10.791,4.67-12.885c0.063-0.11,0.129-0.22,0.196-0.323c0.988-0.805,2.118-1.602,3.406-2.396H93.414z"/>
	<path fill="#D25938" d="M57.084,116.267c-4.243,4.647-18.898,12.971-47.016,6.671c6.138,12.552,21.07,15.746,22.462,16.051
		c29.312,6.448,75.356-1.346,64.115-20.307c-0.736-1.244,9.065-14.738,9.853-37.421c0.012-0.304-9.928,7.653-18.464,12.92
		c-5.979,3.685-10.045,3.505-16.059,5.568C61.817,103.235,61.745,111.54,57.084,116.267L57.084,116.267z"/>
	<path fill="#D7733A" d="M78.729,115.174c8.999-1.246,17.402,1.975,16.562,9.561c-0.839,7.582-14.576,10.906-21.673,10.701
		c-15.894-0.46-5.231-18.829,5.111-20.26V115.174z"/>
	<path fill="#CF4634" d="M31.011,138.618c0.772,0.208,1.305,0.323,1.518,0.371c4.291,0.945,8.936,1.578,13.709,1.922
		c9.543-3.356,12.572-10.254,12.572-10.254c0-0.002-4.161,5.2-12.066,7.281C42.147,139.148,35.578,139.019,31.011,138.618
		L31.011,138.618z"/>
	<path fill="#CF4631" d="M105.932,81.6c-2.096,1.472-9.669,7.355-16.679,11.813c-2.7,2.51-6.241,4.657-6.486,8.56
		c-0.305,4.915,7.954,7.679,13.176,3.379c5.221-4.301,8.601-14.744,9.368-18.123C105.607,85.921,105.836,83.802,105.932,81.6z"/>
	<path fill="#FFFFFF" d="M71.373,114.924c-1.02,1.716-3.167,2.325-4.795,1.357c-1.627-0.968-2.122-3.143-1.104-4.859
		c1.02-1.714,3.166-2.323,4.794-1.354c1.631,0.968,2.125,3.143,1.106,4.858V114.924z"/>
	<path fill="#2B2A29" d="M70.474,114.454c-0.772,1.305-2.403,1.764-3.638,1.03c-1.237-0.735-1.613-2.383-0.838-3.686
		c0.772-1.305,2.402-1.764,3.638-1.029c1.238,0.734,1.613,2.387,0.836,3.687L70.474,114.454z"/>
	<path fill="#FFFFFF" d="M68.143,114.478c-0.296,0.497-0.915,0.674-1.386,0.392c-0.471-0.279-0.614-0.906-0.318-1.403
		c0.294-0.495,0.913-0.671,1.384-0.393C68.294,113.354,68.439,113.984,68.143,114.478L68.143,114.478z"/>
	<path fill="#FFFFFF" d="M69.359,111.944c-0.146,0.248-0.456,0.335-0.694,0.195c-0.236-0.139-0.308-0.456-0.16-0.704
		c0.148-0.249,0.458-0.338,0.696-0.198C69.437,111.378,69.507,111.696,69.359,111.944L69.359,111.944z"/>
	<path fill="#2B2A29" d="M10.472,123.565c0.067,0-1.825,0.063-2.346-1.435c-0.52-1.499,0.652-2.347,1.957-1.958
		c1.305,0.393,1.17,3.521,1.17,3.521S10.408,123.565,10.472,123.565L10.472,123.565z"/>
	<path fill="#FFFFFF" d="M8.84,120.818c0.154,0.277,0.885-0.102,1.491,0.545c0.077,0.084,0.286-0.962-0.811-1.009
		c-0.375-0.016-0.833,0.189-0.681,0.464H8.84z"/>
</g>
</svg>
