<?xml version="1.0" encoding="utf-8"?>
<!-- Generator: Adobe Illustrator 17.0.0, SVG Export Plug-In . SVG Version: 6.00 Build 0)  -->
<!DOCTYPE svg PUBLIC "-//W3C//DTD SVG 1.1 Basic//EN" "http://www.w3.org/Graphics/SVG/1.1/DTD/svg11-basic.dtd">
<svg version="1.1" baseProfile="basic" id="Слой_1"
	 xmlns="http://www.w3.org/2000/svg" xmlns:xlink="http://www.w3.org/1999/xlink" x="0px" y="0px" width="362.958px"
	 height="185.312px" viewBox="0 0 362.958 185.312" xml:space="preserve">
<path fill="#FAF1D6" stroke="#FFFFFF" stroke-width="6" stroke-miterlimit="10" d="M347.593,8.006
	c-0.622-1.073-0.024,0.731-0.038,1.096c-0.08-0.134,0.064-0.501-0.235-0.401s-0.52,6.06-1.47,8.617
	c-2.392,5.816-7.088,10.031-13.1,13.208c-0.198,0.264-0.441,0.58-0.713,0.923c-19.666,10.124-52.814,9.561-65.556,17.671
	c-9.946,6.331-17.984,22.108-26.375,33.354c-2.794-0.755-9.128,0.256-20.492,3.836c-38.219,12.047-34.021,32.252-74.491,32.414
	c-11.502,0.044-30.342-4.868-44.708-7.918c0-0.001,0-0.002-0.001-0.003c-0.17-0.036-0.334-0.069-0.502-0.105
	c2.697-6.384,6.133-16.385,6.586-29.437c0.002-0.043-0.202,0.084-0.566,0.341c0-0.001,0-0.001,0-0.002
	c-2.096,1.472-9.669,7.355-16.679,11.813c-0.003,0.003-0.007,0.006-0.01,0.01c-0.405,0.257-0.809,0.512-1.208,0.758
	c-0.083,0.051-0.163,0.095-0.246,0.145c-0.245-1.061-0.664-2.339-1.368-3.87c-2.61-5.682-11.518-12.442-11.518-12.442
	s-0.01,0.14-0.03,0.384c0,0,0,0,0,0c-0.021,0.259-0.052,0.645-0.094,1.124c-0.001,0.012-0.002,0.023-0.003,0.035
	c-0.018,0.207-0.039,0.44-0.061,0.68c-0.006,0.064-0.011,0.126-0.017,0.191c-0.021,0.227-0.044,0.469-0.067,0.719
	c-0.009,0.096-0.019,0.194-0.028,0.294c-0.024,0.248-0.049,0.504-0.076,0.768c-0.011,0.105-0.022,0.214-0.033,0.321
	c-0.026,0.254-0.053,0.512-0.082,0.777c-0.013,0.116-0.026,0.234-0.039,0.352c-0.027,0.246-0.055,0.496-0.084,0.749
	c-0.014,0.122-0.028,0.243-0.042,0.366c-0.034,0.291-0.07,0.586-0.106,0.881c-0.015,0.118-0.029,0.237-0.044,0.356
	c-0.039,0.309-0.079,0.619-0.121,0.929c-0.016,0.118-0.032,0.236-0.048,0.354c-0.044,0.317-0.088,0.634-0.135,0.948
	c-0.014,0.098-0.029,0.194-0.044,0.292c-0.047,0.309-0.094,0.615-0.143,0.917c-0.014,0.083-0.027,0.165-0.041,0.248
	c-0.049,0.296-0.1,0.586-0.152,0.871c-0.013,0.073-0.026,0.148-0.04,0.221c-0.057,0.306-0.116,0.601-0.175,0.889
	c-0.016,0.077-0.032,0.154-0.048,0.229c-0.061,0.283-0.123,0.556-0.186,0.816c-0.015,0.063-0.031,0.124-0.046,0.186
	c-0.066,0.262-0.133,0.513-0.202,0.745c-0.012,0.041-0.024,0.078-0.037,0.118c-0.073,0.236-0.146,0.459-0.222,0.657
	c-0.002,0.005-0.004,0.012-0.006,0.017c-0.003,0.008-0.007,0.016-0.01,0.024c-0.13,0.334-0.282,0.673-0.443,1.013
	c-0.04,0.083-0.079,0.166-0.12,0.249c-0.169,0.34-0.347,0.681-0.538,1.02c-0.017,0.03-0.036,0.06-0.053,0.09
	c-0.181,0.317-0.37,0.63-0.564,0.939c-0.052,0.083-0.104,0.166-0.156,0.248c-0.203,0.318-0.41,0.632-0.618,0.935
	c-0.044,0.064-0.088,0.125-0.132,0.188c-0.172,0.248-0.344,0.489-0.513,0.722c-0.065,0.089-0.13,0.179-0.194,0.266
	c-0.189,0.255-0.374,0.501-0.551,0.731c-0.07,0.09-0.135,0.173-0.202,0.259c-0.123,0.157-0.242,0.308-0.356,0.449
	c-0.034,0.042-0.067,0.083-0.1,0.124c-6.214,4.039-6.88,10.575-10.813,14.563c-4.182,4.581-18.492,12.724-45.831,6.921
	c-0.024-0.901-0.195-2.723-1.17-3.016c-1.305-0.389-2.477,0.459-1.957,1.958c0.451,1.295,1.921,1.423,2.269,1.434
	c6.263,11.916,20.491,15.066,22.086,15.414c0.014,0.003,0.037,0.008,0.048,0.011c0.006,0.001,0.012,0.002,0.018,0.004
	c1.027,0.226,2.077,0.432,3.142,0.623c0.095,0.017,0.19,0.033,0.285,0.05c1.035,0.182,2.086,0.348,3.151,0.498
	c0.045,0.006,0.09,0.013,0.135,0.019c18.642,2.593,41.257,0.239,52.335-6.417c5.657,5.218,13.784,9.99,20.988,13.846
	c-5.865,1.783-13.912,0.11-17.815,4.014c-8.51,8.51,6.545,20.182,9.903,10.526c0.102-0.296,0.619-2.479,0.619-2.786
	c0.001-3.828-6.834-2.086-5.88-4.954c2.166-4.642,14.236,0,17.95-3.713c0.134-0.134,0.244-0.265,0.358-0.396
	c2.709,1.397,5.118,2.618,6.978,3.625c1.144,0.617,2.331,1.123,3.549,1.534c0.396,2.222,1.064,4.585,0.614,6.282
	c-0.271,1.017-0.943,1.794-2.318,2.158c-6.272,1.661-27.377,4.591-36.047,5.21c-4.545,0.327-13.341-2.387-16.574,0.776
	c-0.679,0.665-1.123,1.364-1.375,2.072c-1.762,4.948,5.886,10.308,8.153,7.218c10.705-14.565,49.579-5.776,55.118-8.45
	c3.584-1.732,7.088-9.459,11.063-15.204c21.303-5.139,44.633-24.317,51.132-30.513c0.878-0.837,1.967-1.803,3.211-2.867
	c7.965,10.05,24.421,17.652,26.143,17.299c3.587-0.735-5.701,14.831-30.233,15.937c-10.981,0.495-8.932,4.76-5.192,6.989
	c4.89,2.912,10.456-0.349,15.191-2.253c23.317-9.39,43.219-26.31,24.668-26.051c-2.643,0.038-4.764-4.877-3.474-7.105
	c7.826,1.436,17.193,0.469,23.995-0.89c6.151-1.231,13.148-5.974,11.164,3.858c-0.15,0.739-0.357,1.521-0.625,2.343
	c-1.877,5.755-6.707,13.451-15.289,22.066c-2.468,2.479-3.695,4.356-4.081,5.736c-1.383,4.931,7.958,3.52,9.76,0.549
	c0.85-1.401,1.679-2.829,2.484-4.271c0.006-0.012,0.013-0.023,0.02-0.035c0.398-0.714,0.79-1.431,1.177-2.151
	c0.007-0.013,0.013-0.025,0.02-0.038c12.563-23.446,18.488-49.649,4.38-36.201c-3.6,3.434-7.89-0.04-9.617-3.917
	c-2.208-4.98-1.342-11.397-1.542-12.772c-0.88-6.13-3.017-11.743-6.177-14.823c22.755-21.716,55.683-2.403,78.859-12.422
	c9.552-4.13,25.062-14.933,30.115-31.034c0.029-0.047,0.057-0.089,0.087-0.138C356.281,33.085,354.885,20.594,347.593,8.006z"/>
<g id="Слой_x0020_1_1_">
	<g id="_531384232">
		<path fill="#CF4B2D" d="M66.764,103.048c0,0,4.148-4.607,5.684-8.6c1.534-3.994,2.454-16.434,2.454-16.434
			s8.908,6.76,11.518,12.442c2.612,5.68,1.385,7.985,1.385,7.985c0-0.001-9.062,3.993-10.597,4.299
			c-1.536,0.308-4.608,1.076-5.684,1.384C70.451,104.43,66.764,103.048,66.764,103.048L66.764,103.048z"/>
		<path fill="#C5392E" d="M67.365,102.351c1.206-1.434,3.906-4.847,5.083-7.902c1.375-3.578,2.256-13.936,2.424-16.051
			c0.966,2.305,5.819,11.53,3.563,16.973C76.659,99.655,71.114,103.014,67.365,102.351L67.365,102.351z"/>
		<path fill="#D1542C" d="M94.767,151.625c-8.51,8.51,6.545,20.182,9.903,10.526c0.102-0.296,0.619-2.479,0.619-2.786
			c0.001-3.828-6.834-2.086-5.88-4.954c2.166-4.642,14.236,0,17.95-3.713c3.096-3.096,0.654-5.499-3.096-3.716
			C108.363,149.795,99.057,147.334,94.767,151.625L94.767,151.625z"/>
		<path fill="#D1542C" d="M227.364,139.442c3.587-0.735-5.701,14.831-30.233,15.937c-10.981,0.495-8.932,4.76-5.192,6.989
			c4.89,2.912,10.456-0.349,15.191-2.253c23.317-9.39,43.219-26.31,24.668-26.051c-2.872,0.041-5.139-5.776-3.069-7.626
			c19.66-17.593,7.38-47.544-22.781-27.789C177.786,117.098,224.401,140.05,227.364,139.442L227.364,139.442z"/>
		<path fill="#DA8038" d="M93.414,109.424c14.62,2.58,38.216,9.352,51.709,9.3c40.47-0.162,36.272-20.367,74.491-32.414
			c11.364-3.58,17.698-4.591,20.492-3.836c8.391-11.246,16.429-27.023,26.375-33.354c18.623-11.853,80.839-5.174,80.839-40.419
			c21.263,35.064-9.207,58.691-24.468,65.29c-23.176,10.019-56.104-9.294-78.859,12.422c3.16,3.08,5.297,8.693,6.177,14.823
			c0.2,1.375-0.666,7.792,1.542,12.772c1.727,3.877,6.017,7.351,9.617,3.917c15.432-14.71,6.896,18.024-8.081,42.696
			c-2.306,3.803-16.961,5.05-5.68-6.282c9.808-9.847,14.716-18.493,15.915-24.412c1.984-9.832-5.013-5.089-11.164-3.858
			c-13.948,2.787-38.694,3.954-38.777-13.949c-6.456,5.169-12.349,9.853-15.532,12.89c-6.499,6.196-29.829,25.374-51.132,30.513
			c-3.975,5.745-7.479,13.472-11.063,15.204c-5.539,2.674-44.413-6.115-55.118,8.45c-2.59,3.531-12.209-3.973-6.779-9.287
			c3.233-3.163,12.029-0.449,16.574-0.776c8.67-0.619,29.775-3.549,36.047-5.21c3.668-0.972,2.339-4.887,1.705-8.443
			c-1.218-0.411-2.405-0.917-3.549-1.534c-14.05-7.606-59.217-27.306-31.285-44.504L93.414,109.424L93.414,109.424z"/>
		<path fill="#D46832" d="M93.414,109.424c2.16,0.38,4.51,0.852,7,1.379c0.283,1.153,0.605,4.642-0.203,6.745
			c-1.041,2.706,3.747,6.865,2.498,13.108c-1.249,6.24,14.977,17.473,24.131,19.761c9.157,2.29,37.241-0.414,53.052-15.602
			c15.81-15.186,32.465-30.427,35.748-26.293c11.512,14.497,24.539,20.71,43.014,14.248c6.054-2.119,9.917-5.325,9.402,4.319
			c-2.483,9.343-7.978,22.275-14.807,33.529c-2.306,3.803-16.961,5.05-5.68-6.282c9.808-9.847,14.716-18.493,15.915-24.412
			c1.984-9.832-5.013-5.089-11.164-3.858c-13.948,2.787-38.694,3.954-38.777-13.949c-6.456,5.169-12.349,9.853-15.532,12.89
			c-6.499,6.196-29.829,25.374-51.132,30.513c-3.975,5.745-7.479,13.472-11.063,15.204c-5.539,2.674-44.413-6.115-55.118,8.45
			c-2.59,3.531-12.209-3.973-6.779-9.287c3.233-3.163,12.029-0.449,16.574-0.776c8.67-0.619,29.775-3.549,36.047-5.21
			c3.668-0.972,2.339-4.887,1.705-8.443c-1.218-0.411-2.405-0.917-3.549-1.534c-9.877-5.347-35.132-16.671-39.557-28.901
			c0.908-3.422,3.446-10.791,4.67-12.885c0.063-0.11,0.129-0.22,0.196-0.323c0.988-0.805,2.118-1.602,3.406-2.396h0.003V109.424z"/>
		<path fill="#D25938" d="M57.084,116.267c-4.243,4.647-18.898,12.971-47.016,6.671c6.138,12.552,21.07,15.746,22.462,16.051
			c29.312,6.448,75.356-1.346,64.115-20.307c-0.736-1.244,9.065-14.738,9.853-37.421c0.012-0.304-9.928,7.653-18.464,12.92
			c-5.979,3.685-10.045,3.505-16.059,5.568C61.817,103.235,61.745,111.54,57.084,116.267L57.084,116.267z"/>
		<path fill="#D7733A" d="M78.729,115.174c8.999-1.246,17.402,1.975,16.562,9.561c-0.839,7.582-14.576,10.906-21.673,10.701
			c-15.894-0.46-5.231-18.829,5.111-20.26V115.174z"/>
		<path fill="#CF4634" d="M31.011,138.618c0.772,0.208,1.305,0.323,1.518,0.371c4.291,0.945,8.936,1.578,13.709,1.922
			c9.543-3.356,12.572-10.254,12.572-10.254c0-0.002-4.161,5.2-12.066,7.281C42.147,139.148,35.578,139.019,31.011,138.618
			L31.011,138.618z"/>
		<path fill="#CF4631" d="M105.932,81.6c-2.096,1.472-9.669,7.355-16.679,11.813c-2.7,2.51-6.241,4.657-6.486,8.56
			c-0.305,4.915,7.954,7.679,13.176,3.379c5.221-4.301,8.601-14.744,9.368-18.123C105.607,85.921,105.836,83.802,105.932,81.6z"/>
		<path fill="#FFFFFF" d="M71.373,114.924c-1.02,1.716-3.167,2.325-4.795,1.357c-1.627-0.968-2.122-3.143-1.104-4.859
			c1.02-1.714,3.166-2.323,4.794-1.354c1.631,0.968,2.125,3.143,1.106,4.858v-0.002H71.373z"/>
		<path fill="#2B2A29" d="M70.474,114.454c-0.772,1.305-2.403,1.764-3.638,1.03c-1.237-0.735-1.613-2.383-0.838-3.686
			c0.772-1.305,2.402-1.764,3.638-1.029c1.238,0.734,1.613,2.387,0.836,3.687L70.474,114.454z"/>
		<path fill="#FFFFFF" d="M68.143,114.478c-0.296,0.497-0.915,0.674-1.386,0.392c-0.471-0.279-0.614-0.906-0.318-1.403
			c0.294-0.495,0.913-0.671,1.384-0.393C68.294,113.354,68.439,113.984,68.143,114.478L68.143,114.478z"/>
		<path fill="#FFFFFF" d="M69.359,111.944c-0.146,0.248-0.456,0.335-0.694,0.195c-0.236-0.139-0.308-0.456-0.16-0.704
			c0.148-0.249,0.458-0.338,0.696-0.198C69.437,111.378,69.507,111.696,69.359,111.944L69.359,111.944z"/>
		<path fill="#2B2A29" d="M10.472,123.565c0.067,0-1.825,0.063-2.346-1.435c-0.52-1.499,0.652-2.347,1.957-1.958
			c1.305,0.393,1.17,3.521,1.17,3.521S10.408,123.565,10.472,123.565L10.472,123.565z"/>
		<path fill="#FFFFFF" d="M8.84,120.818c0.154,0.277,0.885-0.102,1.491,0.545c0.077,0.084,0.286-0.962-0.811-1.009
			C9.145,120.338,8.687,120.543,8.84,120.818C8.839,120.818,8.84,120.818,8.84,120.818z"/>
		<path fill="#FAF1D6" d="M332.75,30.526c8.836-4.668,14.843-11.573,14.843-22.52c8.108,13.37,8.688,25.079,5.461,34.813
			c-2.047,3.333-3.116,3.876-6.019,5.622c3.104-4.314,0.058-9.833,0.058-9.833c0.383,11.014-8.942,12.907-12.895,12.895
			c3.43-2.807,6.054-9.743,4.69-11.81c0,0-0.619,0.815-4.826,3.122c-4.206,2.306-11.129,2.17-11.129,2.17
			c8.069-3.079,9.856-7.647,9.093-9.498c-2.981,1.764-9.909,3.256-6.377,1.765C328.348,36.109,331.443,32.27,332.75,30.526
			L332.75,30.526z"/>
	</g>
</g>
</svg>
