<?xml version="1.0" encoding="utf-8"?>
<!-- Generator: Adobe Illustrator 17.0.0, SVG Export Plug-In . SVG Version: 6.00 Build 0)  -->
<!DOCTYPE svg PUBLIC "-//W3C//DTD SVG 1.1 Basic//EN" "http://www.w3.org/Graphics/SVG/1.1/DTD/svg11-basic.dtd">
<svg version="1.1" baseProfile="basic" id="Слой_1"
	 xmlns="http://www.w3.org/2000/svg" xmlns:xlink="http://www.w3.org/1999/xlink" x="0px" y="0px" width="200.973px"
	 height="225.361px" viewBox="0 0 200.973 225.361" xml:space="preserve">
<g>
	<path fill="#EEBF31" d="M189.12,81.077c20.47-24.345-12.103-7.57-12.103-7.57c9.903-30.241-10.848-11.414-10.848-11.414
		c0.337,16.422-6.609,20.177-6.609,20.177c-30.276,37.019-61.732,38.104-61.732,38.104s-0.59-5.811-1.791-14.493
		c19.411-12.446,26.881-37.456,26.881-37.456c7.193-24.062,19.79-24.38,19.79-24.38c50.535-19.019,1.832-14.905,1.832-14.905
		c26.506-43.938-11.786-9.333-11.786-9.333c-12.983-41.432-14.847-5.002-14.847-5.002c8.834,41.381-14.62,68.211-23.974,77.059
		c-1.643-9.636-3.786-20.515-6.461-30.509c-7.235-26.618-30.185-13.095-50.241-4.517C17.19,65.428,9.22,81.397,17.049,86.387
		c7.87,4.958,10.604,13.325,12.007,35.891C29.951,136.276,15.534,149.304,0,159.324c15.518,21.978,30.869,44.05,46.149,66.037
		c57.79-49.294,58.396-84.621,58.396-84.621c47.044-17.149,49.649-27.714,57.578-36.71c7.895-8.993,23.022-5.956,23.022-5.956
		C218.268,95.412,189.12,81.077,189.12,81.077z"/>
</g>
</svg>
