<?xml version="1.0" encoding="utf-8"?>
<!-- Generator: Adobe Illustrator 17.0.0, SVG Export Plug-In . SVG Version: 6.00 Build 0)  -->
<!DOCTYPE svg PUBLIC "-//W3C//DTD SVG 1.1 Basic//EN" "http://www.w3.org/Graphics/SVG/1.1/DTD/svg11-basic.dtd">
<svg version="1.1" baseProfile="basic" id="Слой_1"
	 xmlns="http://www.w3.org/2000/svg" xmlns:xlink="http://www.w3.org/1999/xlink" x="0px" y="0px" width="355px" height="355px"
	 viewBox="0 0 355 355" xml:space="preserve">
<g>
	<g>
		<path fill="#8EBE78" stroke="#FFFFFF" stroke-width="3" stroke-miterlimit="10" d="M340.999,98.081
			c20.47-24.345-12.103-7.57-12.103-7.57c9.903-30.241-10.848-11.414-10.848-11.414c0.337,16.422-6.609,20.177-6.609,20.177
			c-30.276,37.019-61.732,38.105-61.732,38.105s-0.59-5.811-1.791-14.493c19.411-12.446,26.881-37.456,26.881-37.456
			c7.193-24.062,19.79-24.38,19.79-24.38c50.535-19.019,1.832-14.905,1.832-14.905c26.506-43.938-11.786-9.333-11.786-9.333
			C271.65-4.62,269.786,31.81,269.786,31.81c8.834,41.381-14.62,68.211-23.974,77.059c-1.643-9.636-3.786-20.515-6.461-30.509
			c-7.236-26.618-30.185-13.095-50.241-4.517c-20.041,8.59-28.011,24.559-20.182,29.549c7.87,4.958,10.604,13.325,12.007,35.891
			c1.442,22.561-36.886,42.609-55.569,51.59c-18.708,8.975-67.897,6.821-75.008,5.994c-7.117-0.869-9.133-5.204-9.133-5.204
			c-9.231-12.919-11.058,1.939-11.058,1.939l4.051,8.811c-74.083,14.899,3.387,12.081,3.387,12.081
			c-34.354,28.214,7.646,7.53,7.646,7.53c-0.249-8.83,33.441-11.911,33.441-11.911c52.649-7.032,47.397,42.719,47.397,42.719
			c-25.534,64.04-78.346,44.8-78.346,44.8c-35.175,1.728-1.81,14.892-1.81,14.892c-44.643,23.678,7.309,12.673,7.309,12.673
			c-19.682,25,11.105,5.666,11.105,5.666c7.116-10.142,22.138-18.478,22.138-18.478c168.733-82.187,169.939-154.64,169.939-154.64
			c47.045-17.149,49.649-27.714,57.579-36.71c7.895-8.993,23.022-5.956,23.022-5.956C370.147,112.416,340.999,98.081,340.999,98.081
			z"/>
		<path fill="#FFFFFF" d="M210.489,127.132c-11.191,1.961-21.984-6.069-24.067-17.943c-2.087-11.889,5.326-23.127,16.517-25.091
			c11.192-1.961,22.002,6.085,24.087,17.968C229.11,113.94,221.693,125.165,210.489,127.132z"/>
		<path fill="#6D7363" d="M222.318,99.403c-1.24-7.061-7.981-11.776-15.045-10.539c-7.065,1.244-11.779,7.964-10.539,15.031
			c1.237,7.064,7.962,11.798,15.028,10.558C218.828,113.213,223.559,106.464,222.318,99.403z"/>
	</g>
	<path fill="#E5C9BF" d="M236.1,128.87c0.81,4.615-2.271,9.009-6.891,9.818c-4.616,0.809-9.009-2.27-9.82-6.888
		c-0.811-4.618,2.27-9.012,6.889-9.824C230.895,121.171,235.289,124.252,236.1,128.87z"/>
</g>
</svg>
