<?xml version="1.0" encoding="utf-8"?>
<!-- Generator: Adobe Illustrator 17.0.0, SVG Export Plug-In . SVG Version: 6.00 Build 0)  -->
<!DOCTYPE svg PUBLIC "-//W3C//DTD SVG 1.1 Basic//EN" "http://www.w3.org/Graphics/SVG/1.1/DTD/svg11-basic.dtd">
<svg version="1.1" baseProfile="basic" id="Слой_1"
	 xmlns="http://www.w3.org/2000/svg" xmlns:xlink="http://www.w3.org/1999/xlink" x="0px" y="0px" width="135.582px"
	 height="181.907px" viewBox="0 0 135.582 181.907" xml:space="preserve">
<polygon fill="#A8A8A8" stroke="#272525" stroke-width="3" stroke-miterlimit="10" points="-108.557,98.519 -108.557,98.519 
	-108.558,98.519 "/>
<path fill="#3FA556" d="M124.627,174.5c1.856-2.737,1.619-6.276-0.657-8.433c-0.032-0.41-0.056-0.821-0.09-1.23
	c2.706-2.71,3.62-6.563-0.154-8.748c2.687-2.393,1.052-3.685,1.194-6.078c0.05-0.779-1.701-1.679-1.821-2.796
	c-0.092-0.856,1.428-1.259,1.297-2.05c-0.714-4.416,0.154-7.409-4.612-9.764c4.89-2.808,3.167-7.424-0.349-10.422
	c5.347-5.643,5.472-9.719-1.914-13.378c4.263-5.958,2.367-10.727-3.472-14.587c4.219-4.764,8.297-11.334,5.276-17.89
	c-1.912-4.15-6.642-6.307-10.484-5.951c-1.074-7.173-2.307-11.423-2.307-11.423c-0.223-0.96-0.463-1.881-0.714-2.785
	c12.614-3.332,39.145-16.746,26.368-29.845c-6.938-7.113-14.167-4.109-21.193,1.647c-2.414,1.977-8.389,7.762-11.835,13.076
	c-2.465-3.675-5.23-6.475-8.091-8.605c2.594-5.053,5.267-9.967,10.177-11.841c3.37-1.286,7.267-1.282,6.564-6.482
	c-0.463-3.445-4.474-5.528-7.32-6.716c-2.754-1.146-7.332-2.944-9.562,0.086c-2.317,3.14,1.439,5.975,1.558,8.863
	c0.15,3.743-4.176,8.483-7.362,12.602c-5.998-2.692-11.813-3.089-15.668-2.938c-0.118-6.398-0.597-12.928,3.265-17.42
	C75.072,8.657,78.5,6.81,75.41,2.569c-2.05-2.808-6.568-2.731-9.637-2.42c-2.969,0.299-7.848,0.904-8.372,4.633
	c-0.539,3.86,4.109,4.568,5.593,7.048c2.399,4.022-0.615,12.751-0.898,18.168c-3.207,0.845-6.252,1.903-9.138,3.157
	C49.202,19.538,38.306-2.201,25.675,8.695c-7.522,6.493-4.977,13.884,0.344,21.255c1.787,2.476,6.982,8.558,11.965,12.347
	C7.626,67.033,1.63,115.617,0.637,126.646C0.218,126.912,0,127.062,0,127.062c6.023,28.721,36.594,39.373,36.594,39.373
	c44.607,12.319,59.992-12.371,62.235-16.547c0.182,8.975,3.577,20.042,4.001,28.594c0.057,1.147,0.103,2.286,0.149,3.425
	c7.956-1.649,15.911-3.473,23.867-5.603C126.305,175.599,125.565,174.976,124.627,174.5z"/>
</svg>
