<?xml version="1.0" encoding="utf-8"?>
<!-- Generator: Adobe Illustrator 17.0.0, SVG Export Plug-In . SVG Version: 6.00 Build 0)  -->
<!DOCTYPE svg PUBLIC "-//W3C//DTD SVG 1.1 Basic//EN" "http://www.w3.org/Graphics/SVG/1.1/DTD/svg11-basic.dtd">
<svg version="1.1" baseProfile="basic" id="Слой_1"
	 xmlns="http://www.w3.org/2000/svg" xmlns:xlink="http://www.w3.org/1999/xlink" x="0px" y="0px" width="81.873px"
	 height="202.734px" viewBox="0 0 81.873 202.734" xml:space="preserve">
<polygon fill="#A8A8A8" stroke="#272525" stroke-width="3" stroke-miterlimit="10" points="499.89,290.674 499.89,290.674 
	499.888,290.674 "/>
<polygon fill="#A8A8A8" stroke="#272525" stroke-width="3" stroke-miterlimit="10" points="-108.557,98.519 -108.557,98.519 
	-108.558,98.519 "/>
<path fill="#EEBF31" d="M74.705,14.545c2.236-1.134,4.695-1.697,7.169-2.127c-4.023-1.125-8.22-2.606-12.729-2.029
	c1.718-1.653,3.685-3.027,5.794-4.067c-3.931-0.261-8.04-0.184-12.03-0.086C64.555,3.664,67.275,2.367,69.352,0
	c-7.319,2.206-18.186,6.137-17.826,15.825c-5.231,1.421-9.975,4.7-11.774,9.401c-4.2-1.219-8.701-1.874-13.333-2.207
	c0.003-0.032,0.008-0.066,0.011-0.098c-3.284-0.189-6.626-0.227-9.966-0.207c-4.305,0.001-8.616,0.122-12.812,0.188
	c-0.37,8.338,10.259,14.754,6.707,22.745c-5,10-11,22-3,34c7,10-10,19-7,31c0,0.339,0.039,0.678,0.094,1.017
	c3.979,0.226,8.204,0.46,12.49,0.571c3.418,18.065,4.867,59.194,2.426,76.719c-0.038,0.278-0.071,0.551-0.098,0.829
	c0.065-0.278,0.142-0.557,0.223-0.845c0,0,0.001,0.001,0.001,0.001c-1.962,6.705,0.74,10.188,4.558,11.979
	c-0.027-0.013-0.057-0.021-0.084-0.034c0.046,0.024,0.101,0.04,0.148,0.063c0.28,0.13,0.565,0.251,0.856,0.363
	c0.123,0.048,0.231,0.108,0.359,0.152c0.064,0.023,0.135,0.041,0.204,0.06c5.16,1.769,11.419,1.08,11.419,1.08
	c9.052-2.39,11.244-6.142,11.293-9.161c4.049,0.143,7.758-0.805,7.758-0.805c15.188-6.405,7.027-14.101,7.027-14.101
	c-0.098,0.039-0.191,0.073-0.288,0.112c-0.943-6.786-3.788-14.54-4.988-18.683c-4.921-16.98-10.02-34.602-9.185-51.87
	c4.138-1.848,7.566-4.446,9.893-8.074c0.519-0.809,1.019-1.707,1.502-2.666c0.504-0.037,1.17-0.447,1.914-1.071
	c1.843-3.963,3.374-8.956,4.482-14.418c-0.353-0.623-0.721-1.165-1.088-1.583c0.975-5.296,1.547-10.965,1.602-16.535
	c0.455,0.375,0.912,0.754,1.373,1.137c0.154-6.727-0.436-13.345-1.952-19.009l-1.2-0.288c-0.091,0-0.18,0.009-0.271,0.012
	c-0.181-0.658-0.374-1.304-0.581-1.934c0.362-0.205,0.748-0.426,1.162-0.673c-1.259-3.603-2.96-6.7-5.174-9.017
	c-1.915-2.006-4.042-3.654-6.332-5.019c1.494-3.203,3.4-6.45,5.969-8.73c3.67,0.762,6.887,3.472,10.698,3.917
	c-0.525-0.491-1.136-1.527-1.684-2.159c2.672,0.214,5.439,0.213,8.127,0.046c-1.096-0.562-2.474-2.056-3.914-2.677
	c3.984-1.01,8.629-0.18,12.756-1.336C79.539,16.66,77.256,15.433,74.705,14.545z"/>
</svg>
