<?xml version="1.0" encoding="utf-8"?>
<!-- Generator: Adobe Illustrator 17.0.0, SVG Export Plug-In . SVG Version: 6.00 Build 0)  -->
<!DOCTYPE svg PUBLIC "-//W3C//DTD SVG 1.1 Basic//EN" "http://www.w3.org/Graphics/SVG/1.1/DTD/svg11-basic.dtd">
<svg version="1.1" baseProfile="basic" id="Слой_1"
	 xmlns="http://www.w3.org/2000/svg" xmlns:xlink="http://www.w3.org/1999/xlink" x="0px" y="0px" width="76.031px"
	 height="225.896px" viewBox="0 0 76.031 225.896" xml:space="preserve">
<polygon fill="#A8A8A8" stroke="#272525" stroke-width="3" stroke-miterlimit="10" points="499.89,290.674 499.89,290.674 
	499.888,290.674 "/>
<polygon fill="#A8A8A8" stroke="#272525" stroke-width="3" stroke-miterlimit="10" points="-108.557,98.519 -108.557,98.519 
	-108.558,98.519 "/>
<path fill="#D36234" d="M72.304,102.036c-8-12-2-24,3-34c3.552-7.991-7.078-14.407-6.707-22.745
	c-4.434,0.069-8.74,0.075-12.767-0.194c-0.08-0.039-0.16-0.08-0.24-0.118c-1.276-0.115-2.518-0.255-3.729-0.441
	c-1.668-0.251-3.522-0.292-5.372-0.385c-0.082-0.009-0.159-0.014-0.236-0.012c-0.584-0.031-1.165-0.073-1.741-0.126
	c-0.184-0.439-0.361-0.876-0.421-1.417c-1.271,0.219-1.985-0.077-3.173,0.507c-0.599-0.856-0.557-1.745-0.992-2.606
	c-0.785,0.273-2.361,0.284-3.217,0.518c-0.48-2.873-1.075-5.679-3.495-6.754c-0.024-0.101-0.046-0.202-0.07-0.304
	c0.434-0.194,0.858-0.379,1.262-0.556c-0.146-0.656-0.283-1.312-0.411-1.952c0.873-2.082,0.942-4.353-1.051-5.53
	c-0.05-0.251-0.1-0.505-0.15-0.756c1.758-3.194,1.114-6.952-1.678-9.262c1.967-2.714,2.24-7.462-0.693-9.725
	c1.699-1.956,1.688-4.35,0.289-6.176C22.756,2.13,14.801,3.954,6.845,5.603c0.434,10.813,0.349,21.301-0.824,32.007
	C4.773,48.915,3.612,60.456,2.51,71.654c-1.031,10.52-3.499,22.41-2.082,33.365c1.662,12.871,9.224,19.995,19.074,23.903
	c2.088,14.827-2.606,62.317-7.959,80.999c-0.077,0.267-0.148,0.539-0.213,0.806c0.099-0.248,0.209-0.507,0.326-0.766
	c-2.859,6.343-0.671,10.161,2.855,12.463c-0.024-0.015-0.051-0.027-0.074-0.043c0.043,0.031,0.098,0.055,0.142,0.086
	c0.237,0.152,0.477,0.299,0.724,0.438c0.133,0.076,0.247,0.163,0.387,0.234c0.086,0.044,0.175,0.086,0.278,0.125
	c-0.002-0.001-0.003-0.002-0.004-0.003c4.852,2.439,11.083,2.634,11.083,2.634c11.094-1.309,12.79-5.909,12.519-9.148
	c0.625,0.508,1.324,0.935,2.073,1.288c-0.028-0.014-0.061-0.024-0.089-0.038c0.059,0.029,0.121,0.052,0.18,0.079
	c0.189,0.087,0.377,0.173,0.571,0.252c0.071,0.029,0.143,0.054,0.215,0.081c-0.001,0-0.002-0.001-0.003-0.001
	c0.007,0.003,0.014,0.005,0.021,0.008c-0.006-0.002-0.012-0.004-0.018-0.007c0.113,0.043,0.209,0.099,0.326,0.139
	c0.086,0.027,0.18,0.06,0.284,0.086c-0.009-0.003-0.019-0.007-0.028-0.01c4.772,1.612,10.521,0.981,10.521,0.98
	c15.94-4.213,8.94-12.978,8.94-12.978c-0.103,0.025-0.201,0.046-0.303,0.071c0.026-6.856-1.701-14.931-2.311-19.199
	c-2.537-17.91-5.15-36.507-1.539-53.823c2.208,0.104,4.554,0.24,6.991,0.378c-0.055-0.339-0.094-0.678-0.094-1.017
	C62.304,121.036,79.304,112.036,72.304,102.036z"/>
</svg>
