<?xml version="1.0" encoding="utf-8"?>
<!-- Generator: Adobe Illustrator 17.0.0, SVG Export Plug-In . SVG Version: 6.00 Build 0)  -->
<!DOCTYPE svg PUBLIC "-//W3C//DTD SVG 1.1 Basic//EN" "http://www.w3.org/Graphics/SVG/1.1/DTD/svg11-basic.dtd">
<svg version="1.1" baseProfile="basic" id="Слой_1"
	 xmlns="http://www.w3.org/2000/svg" xmlns:xlink="http://www.w3.org/1999/xlink" x="0px" y="0px" width="263.432px"
	 height="422.5px" viewBox="0 0 263.432 422.5" xml:space="preserve">
<polygon fill="#A8A8A8" stroke="#272525" stroke-width="3" stroke-miterlimit="10" points="499.89,290.674 499.89,290.674 
	499.888,290.674 "/>
<polygon fill="#A8A8A8" stroke="#272525" stroke-width="3" stroke-miterlimit="10" points="-108.557,98.519 -108.557,98.519 
	-108.558,98.519 "/>
<path fill="#A8A8A8" stroke="#272525" stroke-width="3" stroke-miterlimit="10" d="M243.783,221.239
	c2.236-1.134,4.695-1.697,7.169-2.127c-4.023-1.125-8.22-2.606-12.729-2.029c1.718-1.653,3.685-3.027,5.794-4.067
	c-3.931-0.261-8.04-0.184-12.03-0.086c1.647-2.572,4.366-3.869,6.443-6.236c-7.319,2.206-18.186,6.137-17.826,15.825
	c-5.231,1.421-9.975,4.7-11.774,9.401c-4.2-1.219-8.701-1.874-13.333-2.207c0.003-0.032,0.008-0.066,0.011-0.098
	c-3.284-0.189-6.626-0.227-9.966-0.207c-8.855,0.002-17.742,0.517-25.58-0.006c-0.08-0.039-0.16-0.08-0.24-0.118
	c-1.276-0.115-2.518-0.255-3.729-0.441c-1.668-0.251-3.522-0.292-5.372-0.385c-0.082-0.009-0.159-0.014-0.236-0.012
	c-0.584-0.031-1.165-0.073-1.741-0.126c-0.184-0.439-0.361-0.876-0.421-1.417c-1.271,0.219-1.985-0.077-3.173,0.507
	c-0.599-0.856-0.557-1.745-0.992-2.606c-0.785,0.273-2.361,0.284-3.217,0.518c-0.48-2.873-1.075-5.679-3.495-6.754
	c-0.024-0.101-0.046-0.202-0.07-0.304c0.434-0.194,0.858-0.379,1.262-0.556c-0.146-0.656-0.283-1.312-0.411-1.952
	c0.873-2.082,0.942-4.353-1.051-5.53c-0.05-0.251-0.1-0.505-0.15-0.756c1.758-3.194,1.114-6.952-1.678-9.262
	c1.967-2.714,2.24-7.462-0.693-9.725c2.355-2.71,1.439-6.268-1.929-7.981c1.856-2.737,1.619-6.276-0.657-8.433
	c-0.032-0.41-0.056-0.821-0.09-1.23c2.706-2.71,3.62-6.563-0.154-8.748c2.687-2.393,1.052-3.685,1.194-6.078
	c0.05-0.779-1.701-1.679-1.821-2.796c-0.092-0.856,1.428-1.259,1.297-2.05c-0.714-4.416,0.154-7.409-4.612-9.764
	c4.89-2.808,3.167-7.424-0.349-10.422c5.347-5.643,5.472-9.719-1.914-13.378c4.263-5.958,2.367-10.727-3.472-14.587
	c4.219-4.764,8.297-11.334,5.276-17.89c-1.912-4.15-6.642-6.307-10.484-5.951c-1.074-7.173-2.307-11.423-2.307-11.423
	c-0.223-0.96-0.463-1.881-0.714-2.785c12.614-3.332,39.145-16.746,26.368-29.845c-6.938-7.113-14.167-4.109-21.193,1.647
	c-2.414,1.977-8.389,7.762-11.835,13.076c-2.465-3.675-5.23-6.475-8.091-8.605c2.594-5.053,5.267-9.967,10.177-11.841
	c3.37-1.286,7.267-1.282,6.564-6.482c-0.463-3.445-4.474-5.528-7.32-6.716c-2.754-1.146-7.332-2.944-9.562,0.086
	c-2.317,3.14,1.439,5.975,1.558,8.863c0.15,3.743-4.176,8.483-7.362,12.602c-5.998-2.692-11.813-3.089-15.668-2.938
	c-0.118-6.399-0.597-12.928,3.265-17.42c2.349-2.737,5.777-4.583,2.687-8.825c-2.05-2.808-6.568-2.731-9.637-2.42
	c-2.969,0.299-7.848,0.904-8.372,4.633c-0.539,3.86,4.109,4.568,5.593,7.048c2.399,4.022-0.615,12.751-0.898,18.168
	c-3.207,0.845-6.252,1.903-9.138,3.157c-3.756-13.618-14.652-35.356-27.283-24.46c-7.522,6.493-4.977,13.884,0.344,21.255
	c1.787,2.476,6.982,8.558,11.965,12.347c-30.357,24.736-36.354,73.32-37.346,84.35C8.218,134.912,8,135.062,8,135.062
	c6.023,28.721,36.594,39.373,36.594,39.373c44.607,12.319,59.992-12.371,62.235-16.547c0.182,8.975,3.577,20.042,4.001,28.594
	c0.595,12.036,0.622,23.598-0.676,35.433c-1.248,11.305-2.409,22.846-3.51,34.043c-1.031,10.52-3.499,22.41-2.082,33.365
	c1.662,12.871,9.224,19.995,19.074,23.903c2.088,14.827-2.606,62.317-7.959,80.999c-0.077,0.267-0.148,0.539-0.213,0.806
	c0.099-0.248,0.209-0.507,0.326-0.766c-2.859,6.343-0.671,10.161,2.855,12.463c-0.024-0.015-0.051-0.027-0.074-0.043
	c0.043,0.031,0.098,0.055,0.142,0.086c0.237,0.152,0.477,0.299,0.724,0.438c0.133,0.076,0.247,0.163,0.387,0.234
	c0.086,0.044,0.175,0.086,0.278,0.125c-0.002-0.001-0.003-0.002-0.004-0.003c4.852,2.439,11.083,2.634,11.083,2.634
	c11.094-1.309,12.79-5.909,12.519-9.148c0.625,0.508,1.324,0.935,2.073,1.288c-0.028-0.014-0.061-0.024-0.089-0.038
	c0.059,0.029,0.121,0.052,0.18,0.079c0.189,0.087,0.377,0.173,0.571,0.252c0.071,0.029,0.143,0.054,0.215,0.081
	c-0.001,0-0.002-0.001-0.003-0.001c0.007,0.003,0.014,0.005,0.021,0.008c-0.006-0.002-0.012-0.004-0.018-0.007
	c0.113,0.043,0.209,0.099,0.326,0.139c0.086,0.027,0.18,0.06,0.284,0.086c-0.009-0.003-0.019-0.007-0.028-0.01
	c4.772,1.612,10.521,0.981,10.521,0.98c15.94-4.213,8.94-12.978,8.94-12.978c-0.103,0.025-0.201,0.046-0.303,0.071
	c0.026-6.856-1.701-14.931-2.311-19.199c-2.537-17.91-5.15-36.507-1.539-53.823c5.814,0.273,12.57,0.77,19.481,0.949
	c3.418,18.065,4.867,59.194,2.426,76.719c-0.038,0.278-0.071,0.551-0.098,0.829c0.065-0.278,0.142-0.557,0.223-0.845l0.001,0.001
	c-1.962,6.705,0.74,10.188,4.558,11.979c-0.027-0.013-0.057-0.021-0.084-0.034c0.046,0.024,0.101,0.04,0.148,0.063
	c0.28,0.13,0.565,0.251,0.856,0.363c0.123,0.048,0.231,0.108,0.359,0.152c0.064,0.023,0.135,0.041,0.204,0.06
	c5.16,1.769,11.419,1.08,11.419,1.08c9.052-2.39,11.244-6.142,11.293-9.161c4.049,0.143,7.758-0.805,7.758-0.805
	c15.188-6.405,7.027-14.101,7.027-14.101c-0.098,0.039-0.191,0.073-0.288,0.112c-0.943-6.786-3.788-14.54-4.988-18.683
	c-4.921-16.98-10.02-34.602-9.185-51.87c4.138-1.848,7.566-4.446,9.893-8.074c0.519-0.809,1.019-1.707,1.502-2.666
	c0.504-0.037,1.17-0.447,1.914-1.071c1.843-3.963,3.374-8.956,4.482-14.418c-0.353-0.623-0.721-1.165-1.088-1.583
	c0.975-5.296,1.547-10.965,1.602-16.535c0.455,0.375,0.912,0.754,1.373,1.137c0.154-6.727-0.436-13.345-1.952-19.009l-1.2-0.288
	c-0.091,0-0.18,0.009-0.271,0.012c-0.181-0.658-0.374-1.304-0.581-1.934c0.362-0.205,0.748-0.426,1.162-0.673
	c-1.259-3.603-2.96-6.7-5.174-9.017c-1.915-2.006-4.042-3.654-6.332-5.019c1.494-3.203,3.4-6.45,5.969-8.73
	c3.67,0.762,6.887,3.472,10.698,3.917c-0.525-0.491-1.136-1.527-1.684-2.159c2.672,0.214,5.439,0.213,8.127,0.046
	c-1.096-0.562-2.474-2.056-3.914-2.677c3.984-1.01,8.629-0.18,12.756-1.336C248.617,223.354,246.333,222.128,243.783,221.239z"/>
</svg>
