<?xml version="1.0" encoding="utf-8"?>
<!-- Generator: Adobe Illustrator 17.0.0, SVG Export Plug-In . SVG Version: 6.00 Build 0)  -->
<!DOCTYPE svg PUBLIC "-//W3C//DTD SVG 1.1 Basic//EN" "http://www.w3.org/Graphics/SVG/1.1/DTD/svg11-basic.dtd">
<svg version="1.1" baseProfile="basic" id="Слой_1"
	 xmlns="http://www.w3.org/2000/svg" xmlns:xlink="http://www.w3.org/1999/xlink" x="0px" y="0px" width="263.432px"
	 height="422.5px" viewBox="0 0 263.432 422.5" xml:space="preserve">
<path fill="#A8A8A8" stroke="#FFFFFF" stroke-width="6" stroke-miterlimit="10" d="M243.783,221.239
	c2.236-1.134,4.695-1.697,7.169-2.127c-4.023-1.125-8.22-2.606-12.729-2.029c1.718-1.653,3.685-3.027,5.794-4.067
	c-3.931-0.261-8.04-0.184-12.03-0.086c1.647-2.572,4.366-3.869,6.443-6.236c-7.319,2.206-18.186,6.137-17.826,15.825
	c-5.231,1.421-9.975,4.7-11.774,9.401c-4.2-1.219-8.701-1.874-13.333-2.207c0.003-0.032,0.008-0.066,0.011-0.098
	c-3.284-0.189-6.626-0.227-9.966-0.207c-8.855,0.002-17.742,0.517-25.58-0.006c-0.08-0.039-0.16-0.08-0.24-0.118
	c-1.276-0.115-2.518-0.255-3.729-0.441c-1.668-0.251-3.522-0.292-5.372-0.385c-0.082-0.009-0.159-0.014-0.236-0.012
	c-0.584-0.031-1.165-0.073-1.741-0.126c-0.184-0.439-0.361-0.876-0.421-1.417c-1.271,0.219-1.985-0.077-3.173,0.507
	c-0.599-0.856-0.557-1.745-0.992-2.606c-0.785,0.273-2.361,0.284-3.217,0.518c-0.48-2.873-1.075-5.679-3.495-6.754
	c-0.024-0.101-0.046-0.202-0.07-0.304c0.434-0.194,0.858-0.379,1.262-0.556c-0.146-0.656-0.283-1.312-0.411-1.952
	c0.873-2.082,0.942-4.353-1.051-5.53c-0.05-0.251-0.1-0.505-0.15-0.756c1.758-3.194,1.114-6.952-1.678-9.262
	c1.967-2.714,2.24-7.462-0.693-9.725c2.355-2.71,1.439-6.268-1.929-7.981c1.856-2.737,1.619-6.276-0.657-8.433
	c-0.032-0.41-0.056-0.821-0.09-1.23c2.706-2.71,3.62-6.563-0.154-8.748c2.687-2.393,1.052-3.685,1.194-6.078
	c0.05-0.779-1.701-1.679-1.821-2.796c-0.092-0.856,1.428-1.259,1.297-2.05c-0.714-4.416,0.154-7.409-4.612-9.764
	c4.89-2.808,3.167-7.424-0.349-10.422c5.347-5.643,5.472-9.719-1.914-13.378c4.263-5.958,2.367-10.727-3.472-14.587
	c4.219-4.764,8.297-11.334,5.276-17.89c-1.912-4.15-6.642-6.307-10.484-5.951c-1.074-7.173-2.307-11.423-2.307-11.423
	c-0.223-0.96-0.463-1.881-0.714-2.785c12.614-3.332,39.145-16.746,26.368-29.845c-6.938-7.113-14.167-4.109-21.193,1.647
	c-2.414,1.977-8.389,7.762-11.835,13.076c-2.465-3.675-5.23-6.475-8.091-8.605c2.594-5.053,5.267-9.967,10.177-11.841
	c3.37-1.286,7.267-1.282,6.564-6.482c-0.463-3.445-4.474-5.528-7.32-6.716c-2.754-1.146-7.332-2.944-9.562,0.086
	c-2.317,3.14,1.439,5.975,1.558,8.863c0.15,3.743-4.176,8.483-7.362,12.602c-5.998-2.692-11.813-3.089-15.668-2.938
	c-0.118-6.399-0.597-12.928,3.265-17.42c2.349-2.737,5.777-4.583,2.687-8.825c-2.05-2.808-6.568-2.731-9.637-2.42
	c-2.969,0.299-7.848,0.904-8.372,4.633c-0.539,3.86,4.109,4.568,5.593,7.048c2.399,4.022-0.615,12.751-0.898,18.168
	c-3.207,0.845-6.252,1.903-9.138,3.157c-3.756-13.618-14.652-35.356-27.283-24.46c-7.522,6.493-4.977,13.884,0.344,21.255
	c1.787,2.476,6.982,8.558,11.965,12.347c-30.357,24.736-36.354,73.32-37.346,84.35C8.218,134.912,8,135.062,8,135.062
	c6.023,28.721,36.594,39.373,36.594,39.373c44.607,12.319,59.992-12.371,62.235-16.547c0.182,8.975,3.577,20.042,4.001,28.594
	c0.595,12.036,0.622,23.598-0.676,35.433c-1.248,11.305-2.409,22.846-3.51,34.043c-1.031,10.52-3.499,22.41-2.082,33.365
	c1.662,12.871,9.224,19.995,19.074,23.903c2.088,14.827-2.606,62.317-7.959,80.999c-0.077,0.267-0.148,0.539-0.213,0.806
	c0.099-0.248,0.209-0.507,0.326-0.766c-2.859,6.343-0.671,10.161,2.855,12.463c-0.024-0.015-0.051-0.027-0.074-0.043
	c0.043,0.031,0.098,0.055,0.142,0.086c0.237,0.152,0.477,0.299,0.724,0.438c0.133,0.076,0.247,0.163,0.387,0.234
	c0.086,0.044,0.175,0.086,0.278,0.125c-0.002-0.001-0.003-0.002-0.004-0.003c4.852,2.439,11.083,2.634,11.083,2.634
	c11.094-1.309,12.79-5.909,12.519-9.148c0.625,0.508,1.324,0.935,2.073,1.288c-0.028-0.014-0.061-0.024-0.089-0.038
	c0.059,0.029,0.121,0.052,0.18,0.079c0.189,0.087,0.377,0.173,0.571,0.252c0.071,0.029,0.143,0.054,0.215,0.081
	c-0.001,0-0.002-0.001-0.003-0.001c0.007,0.003,0.014,0.005,0.021,0.008c-0.006-0.002-0.012-0.004-0.018-0.007
	c0.113,0.043,0.209,0.099,0.326,0.139c0.086,0.027,0.18,0.06,0.284,0.086c-0.009-0.003-0.019-0.007-0.028-0.01
	c4.772,1.612,10.521,0.981,10.521,0.98c15.94-4.213,8.94-12.978,8.94-12.978c-0.103,0.025-0.201,0.046-0.303,0.071
	c0.026-6.856-1.701-14.931-2.311-19.199c-2.537-17.91-5.15-36.507-1.539-53.823c5.814,0.273,12.57,0.77,19.481,0.949
	c3.418,18.065,4.867,59.194,2.426,76.719c-0.038,0.278-0.071,0.551-0.098,0.829c0.065-0.278,0.142-0.557,0.223-0.845
	c0,0,0.001,0.001,0.001,0.001c-1.962,6.705,0.74,10.188,4.558,11.979c-0.027-0.013-0.057-0.021-0.084-0.034
	c0.046,0.024,0.101,0.04,0.148,0.063c0.28,0.13,0.565,0.251,0.856,0.363c0.123,0.048,0.231,0.108,0.359,0.152
	c0.064,0.023,0.135,0.041,0.204,0.06c5.16,1.769,11.419,1.08,11.419,1.08c9.052-2.39,11.244-6.142,11.293-9.161
	c4.049,0.143,7.758-0.805,7.758-0.805c15.188-6.405,7.027-14.101,7.027-14.101c-0.098,0.039-0.191,0.073-0.288,0.112
	c-0.943-6.786-3.788-14.54-4.988-18.683c-4.921-16.98-10.02-34.602-9.185-51.87c4.138-1.848,7.566-4.446,9.893-8.074
	c0.519-0.809,1.019-1.707,1.502-2.666c0.504-0.037,1.17-0.447,1.914-1.071c1.843-3.963,3.374-8.956,4.482-14.418
	c-0.353-0.623-0.721-1.165-1.088-1.583c0.975-5.296,1.547-10.965,1.602-16.535c0.455,0.375,0.912,0.754,1.373,1.137
	c0.154-6.727-0.436-13.345-1.952-19.009l-1.2-0.288c-0.091,0-0.18,0.009-0.271,0.012c-0.181-0.658-0.374-1.304-0.581-1.934
	c0.362-0.205,0.748-0.426,1.162-0.673c-1.259-3.603-2.96-6.7-5.174-9.017c-1.915-2.006-4.042-3.654-6.332-5.019
	c1.494-3.203,3.4-6.45,5.969-8.73c3.67,0.762,6.887,3.472,10.698,3.917c-0.525-0.491-1.136-1.527-1.684-2.159
	c2.672,0.214,5.439,0.213,8.127,0.046c-1.096-0.562-2.474-2.056-3.914-2.677c3.984-1.01,8.629-0.18,12.756-1.336
	C248.617,223.354,246.333,222.128,243.783,221.239z"/>
<polygon fill="#A8A8A8" stroke="#272525" stroke-width="3" stroke-miterlimit="10" points="499.89,290.674 499.89,290.674 
	499.888,290.674 "/>
<polygon fill="#A8A8A8" stroke="#272525" stroke-width="3" stroke-miterlimit="10" points="-108.557,98.519 -108.557,98.519 
	-108.558,98.519 "/>
<g>
	<path fill="#E1972F" d="M137.727,314.364c4.176,11.121,6.307,58.311,3.723,76.894c-0.033,0.246-0.065,0.495-0.086,0.741
		c0.059-0.251,0.125-0.501,0.202-0.758c0,0,5.614,4.349,24.824-0.234c0.027-6.858-1.701-14.936-2.311-19.205
		c-2.835-20.011-5.789-40.883-0.021-59.864L137.727,314.364z M145.684,402.302c0.397,0.207,0.829,0.392,1.292,0.551
		c0.086,0.027,0.18,0.06,0.284,0.086C146.721,402.755,146.191,402.548,145.684,402.302z"/>
	<path fill="#894B31" d="M141.564,391.241c0,0,5.67,4.399,25.13-0.311c0,0,7,8.766-8.94,12.978
		C157.753,403.91,137.197,406.173,141.564,391.241z"/>
	<path fill="#E1972F" d="M188.667,313.499c5.697,10.422,14.445,56.839,14.495,75.602c0,0.255,0.006,0.512,0.017,0.768
		c0.027-0.261,0.059-0.528,0.098-0.8c0,0,6.171,3.522,24.546-3.723c-0.942-6.787-3.789-14.543-4.988-18.687
		c-5.626-19.412-11.485-39.663-8.443-59.265L188.667,313.499z M208.874,399.429c0.436,0.157,0.9,0.284,1.39,0.376
		c0.098,0.017,0.202,0.033,0.317,0.044C210.003,399.745,209.431,399.603,208.874,399.429z"/>
	<path fill="#894B31" d="M203.275,389.066c0,0,6.23,3.56,24.836-3.837c0,0,8.161,7.696-7.027,14.101
		C221.085,399.331,201.045,404.467,203.275,389.066z"/>
	<path fill="#865B3A" d="M220.605,222.606c-0.43-9.752,10.483-13.698,17.825-15.911c-2.077,2.367-4.796,3.664-6.443,6.236
		c3.99-0.098,8.1-0.175,12.03,0.086c-2.109,1.04-4.077,2.415-5.794,4.067c4.508-0.578,8.706,0.904,12.729,2.029
		c-2.474,0.43-4.933,0.992-7.169,2.127c2.551,0.889,4.835,2.115,7.151,3.472c-4.127,1.155-8.771,0.326-12.756,1.336
		c1.439,0.622,2.818,2.115,3.913,2.677c-2.71,0.169-5.501,0.169-8.194-0.05c-0.246-0.273-0.228-0.284,0.033-0.038
		c0.557,0.628,1.182,1.701,1.718,2.201c-4.109-0.48-7.528-3.597-11.568-4.061L220.605,222.606z"/>
	<path fill="#865B3A" d="M70.067,38.718c0.021-5.332,3.434-14.685,0.927-18.888c-1.484-2.48-6.132-3.188-5.593-7.048
		c0.524-3.729,5.403-4.334,8.372-4.633c3.069-0.311,7.587-0.388,9.637,2.42c3.09,4.242-0.338,6.088-2.687,8.825
		c-4.246,4.938-3.244,12.341-3.244,19.324H70.067z"/>
	<path fill="#865B3A" d="M90.677,43.318c2.557-4.683,10.007-11.278,9.812-16.168c-0.119-2.889-3.875-5.723-1.558-8.863
		c2.23-3.031,6.808-1.232,9.562-0.086c2.846,1.188,6.858,3.271,7.32,6.716c0.702,5.199-3.194,5.196-6.564,6.482
		c-6.084,2.322-8.733,9.311-12.053,15.449L90.677,43.318z"/>
	<path fill="#ECB931" d="M8.637,134.647c0.992-11.028,6.988-59.614,37.346-84.35c-4.983-3.789-10.178-9.871-11.965-12.347
		c-5.32-7.37-7.865-14.761-0.344-21.255c12.631-10.896,23.527,10.842,27.283,24.46c3.7-1.608,7.654-2.906,11.888-3.827
		c0,0,21.314-4.867,34.316,14.516c3.445-5.315,9.42-11.099,11.835-13.076c7.027-5.756,14.255-8.76,21.193-1.647
		c12.777,13.099-13.754,26.513-26.368,29.845c0.251,0.904,0.491,1.825,0.714,2.785c0,0,12.625,43.538-7.714,87.137
		C66.486,100.571,14.94,130.651,8.637,134.647z"/>
	<path fill="#F2D5BF" d="M8,135.062c0,0,56.048-38.442,99.129,22.235c0,0-13.9,30.569-62.535,17.138
		C44.594,174.435,14.023,163.782,8,135.062z"/>
	<path d="M50.845,114.222c0,2.426-1.967,4.399-4.399,4.399s-4.399-1.973-4.399-4.399c0-2.432,1.967-4.405,4.399-4.405
		C48.878,109.817,50.845,111.79,50.845,114.222z"/>
	<path d="M88.366,123.02c0,2.432-1.973,4.399-4.399,4.399c-2.432,0-4.405-1.967-4.405-4.399c0-2.432,1.973-4.399,4.405-4.399
		C86.393,118.621,88.366,120.588,88.366,123.02z"/>
	<path fill="#461818" d="M54.782,138.539c0,1.407-1.14,2.545-2.545,2.545c-1.407,0-2.545-1.14-2.545-2.545
		c0-1.407,1.14-2.551,2.545-2.551C53.641,135.987,54.782,137.133,54.782,138.539z"/>
	<path fill="#461818" d="M68.447,142.939c0,1.407-1.14,2.545-2.545,2.545c-1.413,0-2.545-1.14-2.545-2.545
		c0-1.407,1.134-2.545,2.545-2.545C67.309,140.392,68.447,141.532,68.447,142.939z"/>
	<path fill="#ECB931" d="M107.357,151.737c-2.198,9.551,2.944,24.099,3.472,34.745c0.595,12.036,0.622,23.598-0.676,35.433
		c-1.248,11.305-2.409,22.846-3.51,34.043c-1.031,10.52-3.499,22.41-2.082,33.365c1.662,12.871,9.224,19.995,19.074,23.903
		c2.088,14.827-2.606,62.316-7.959,80.999c-0.077,0.267-0.148,0.539-0.213,0.806c0.104-0.261,0.219-0.534,0.344-0.806
		c0,0,5.336,5.495,26.546,3.505c1.063-7.32,0.436-16.213,0.436-20.861c0-20.038,0.006-40.866,7.015-59.167
		c2.088,0.065,4.159,0.092,6.188,0.092c6.906,0,16.32,0.883,26.03,1.134c3.418,18.065,4.867,59.194,2.426,76.719
		c-0.038,0.278-0.071,0.551-0.098,0.829c0.065-0.278,0.142-0.557,0.223-0.845c0,0,6.055,4.693,26.782-0.255
		c0.027-7.391-1.843-16.109-2.497-20.709c-2.714-19.187-5.533-39.106-1.76-57.668c7.071-1.75,12.978-4.879,16.447-10.286
		c9.103-14.195,13.017-52.816,0.382-66.04c-1.614-1.685-3.374-3.123-5.255-4.355c2.983-6.618,7.658-13.775,16.282-12.282
		c-7.622-5.134-22.579-1.374-26.122,7.883c-16.877-4.9-38.599-0.693-54.228-3.075c-1.102-0.163-2.284-0.24-3.495-0.294
		c-0.43-0.142-0.829-0.163-1.15-0.054c-0.42-0.017-0.844-0.038-1.265-0.059c-0.202-0.48-0.403-0.948-0.468-1.537
		c-1.271,0.219-1.985-0.077-3.173,0.507c-0.599-0.856-0.557-1.745-0.992-2.606c-0.785,0.273-2.361,0.284-3.217,0.518
		c-0.48-2.873-1.075-5.679-3.495-6.754c-0.077-0.322-0.154-0.643-0.223-0.965c1.727-2.541,2.672-6.215-0.501-7.616
		c2.13-3.297,1.57-7.343-1.374-9.779c1.967-2.714,2.24-7.462-0.693-9.725c2.355-2.71,1.439-6.268-1.929-7.981
		c2.044-3.015,1.558-7.009-1.407-9.05c3.199-2.71,4.574-7.006,0.507-9.361c2.687-2.393,1.052-3.685,1.194-6.078
		c0.05-0.779-1.701-1.679-1.821-2.796c-0.092-0.856,1.428-1.259,1.297-2.05c-0.714-4.416,0.154-7.409-4.612-9.764
		c4.89-2.808,3.167-7.424-0.349-10.422c5.347-5.643,5.472-9.719-1.914-13.378c4.263-5.958,2.367-10.727-3.472-14.587
		c4.219-4.764,8.297-11.334,5.276-17.89c-2.311-5.015-8.739-7.13-12.739-5.403l-0.284-0.85l-0.104,1.036
		c-0.207,0.104-0.403,0.223-0.595,0.355l-3.478,36.822c0.071,0.681,0.142,1.368,0.223,2.05L107.357,151.737z M189.048,407.578
		c0.426,0.219,0.877,0.409,1.363,0.578c0.092,0.033,0.19,0.06,0.294,0.086C190.138,408.052,189.583,407.83,189.048,407.578z
		 M118.57,406.686c0.382,0.273,0.8,0.528,1.253,0.758c0.086,0.044,0.175,0.086,0.278,0.125
		C119.568,407.3,119.056,407.006,118.57,406.686z"/>
	<path fill="#894B31" d="M115.806,394.224c0,0,5.391,5.555,26.886,3.472c0,0,6.144,10.422-11.512,12.504
		C131.18,410.2,108.874,409.509,115.806,394.224z"/>
	<path fill="#894B31" d="M184.574,395.63c0,0,6.121,4.748,27.108-0.332c0,0,7.545,9.458-9.648,13.998
		C202.034,409.296,179.858,411.737,184.574,395.63z"/>
	<path fill="#A0412C" d="M124.453,196.092c0,0,2.121,28.172,8.161,24.54c2.142-1.28,4.186-2.165,5.925-2.927
		c-0.589-2.649-1.031-5.299-1.342-6.873c-1.004-5.031-2.006-10.182-2.856-15.399C129.172,193.409,123.585,191.77,124.453,196.092z"
		/>
	<path fill="#A0412C" d="M122.856,174.112c0,0,4.029,9.67,6.443,12.09c1.134,1.134,2.628,1.739,3.892,1.384
		c-0.43-3.374-0.768-6.76-0.975-10.144c-0.202-3.244-0.474-6.47-0.806-9.693C128.449,169.126,123.476,171.621,122.856,174.112z"/>
	<path fill="#A0412C" d="M108.611,250.108c2.677-0.877,4.574-2.263,4.574-4.284c0-6.443-0.806-16.113-2.415-15.301
		c-0.044,0.021-0.098,0.038-0.163,0.05C109.92,237.089,109.256,243.636,108.611,250.108z"/>
	<path fill="#A0412C" d="M230.488,249.687c-1.985,1.182-3.478,1.908-3.478,1.908s-13.18-11.121-11.764-14.969
		c0.299-0.806,0.622-1.63,0.975-2.453c3.359,1.597,6.428,3.706,9.092,6.497C227.528,242.987,229.228,246.085,230.488,249.687z"/>
	<path fill="#A0412C" d="M120.549,151.027c0,0,8.182,5.643,9.355,9.67c1.167,4.029-14.03,5.643-14.03,5.643
		s-7.572-7.418-5.844-10.478C113.098,150.416,120.549,151.027,120.549,151.027z"/>
	<path fill="#A0412C" d="M149.026,310.134c2.453-2.986,9.735-1.99,13.453-0.038c1.864,0.975,0.436,4.497-1.449,7.762
		c-1.28-0.038-2.497-0.065-3.647-0.065c-3.875,0-7.915-0.092-11.944-0.397C146.049,314.877,147.44,312.075,149.026,310.134z"/>
	<path fill="#A0412C" d="M184.065,301.81c-1.374-3.652-0.9-8.149,2.284-10.886c3.184-2.725,10.946,10.439,10.946,10.439
		s-5.664,12.854-7.119,9.66C188.727,307.835,185.451,305.463,184.065,301.81z"/>
	<path fill="#A0412C" d="M107.908,257.203c2.846-0.904,5.608-1.653,6.819-2.687c3.188-2.737,9.364,7.37,9.364,7.37
		s0.572,7.954-7.113,9.66c-3.685,0.812-7.554,0.355-10.717-0.839C106.774,266.101,107.44,261.549,107.908,257.203z"/>
	<path fill="#A0412C" d="M108.551,162.594c0.939,0.829,1.656,1.777,1.869,2.841c0.24,1.194-0.044,3.081-0.631,5.107
		C109.298,167.861,108.845,165.178,108.551,162.594z"/>
	<path fill="#A0412C" d="M213.241,253.203c6.052,3.516,0.933,11.284,6.47,16.053c5.533,4.775-3.249,10.94-8.084,14.566
		c-4.829,3.626-13.159,0.637-13.692-3.626C197.187,274.293,207.387,249.802,213.241,253.203z"/>
	<path fill="#A0412C" d="M117.213,202.316c0.791,3.946,4.029,19.341,3.223,21.755c-0.605,1.81-4.825,2.263-9.278,1.363
		c0.125-1.177,0.255-2.349,0.382-3.522c0.752-6.831,1.058-13.568,1.075-20.36C115.006,200.877,116.935,200.921,117.213,202.316z"/>
	<path fill="#A0412C" d="M134.94,228.907c0.791,3.946,4.029,19.335,3.223,21.75c-0.806,2.42-8.057,2.42-13.698,0
		c-5.637-2.415-4.835-12.086-4.835-15.307C119.628,232.129,134.134,224.878,134.94,228.907z"/>
	<path fill="#A0412C" d="M172.357,229.621c2.065,6.923,6.564,8.537,13.911,15.241c6.159,5.626,8.476-8.167,9.24-15.247
		C187.854,229.175,179.885,229.529,172.357,229.621z"/>
	<path fill="#A0412C" d="M138.969,257.919c-5.643,0-6.923,9.512-5.952,11.867c2.915,7.032,18.533,8.858,18.533,8.858l11.681-14.5
		L138.969,257.919z"/>
	<path fill="#A0412C" d="M230.177,252.282c-6.938,0-10.907,9.915-7.931,10.908c1.309,0.436,6.111,4.251,11.082,8.389
		c0.154-6.727-0.436-13.345-1.952-19.009L230.177,252.282z"/>
	<path fill="#A0412C" d="M197.874,265.387c0,0-27.396,2.24-27.529,0.157c-0.131-2.082-4.132-8.635,3.057-8.558
		c7.184,0.071,30.237-2.42,30.237-2.42L197.874,265.387z"/>
	<path fill="#A0412C" d="M228.482,286.335c0.835-0.708,1.962,0.463,2.96,2.224c-1.107,5.462-2.639,10.455-4.482,14.418
		c-1.238,1.036-2.267,1.505-2.677,0.599C223.073,300.945,226.328,288.166,228.482,286.335z"/>
	<path fill="#A0412C" d="M124.376,272.924c2.153-1.831,6.34,8.994,4.927,9.909c-1.416,0.921-7.927,9.971-9.136,7.332
		C118.964,287.534,122.223,274.763,124.376,272.924z"/>
	<path fill="#A0412C" d="M115.278,294.549c-0.664,2.382-8.084-2.894-7.522-4.263c0.557-1.374,1.075-11,3.004-9.812
		C112.689,281.663,115.939,292.162,115.278,294.549z"/>
	<path fill="#A0412C" d="M118.81,310.102c0.507-2.622,1.102-10.144,2.823-9.086c1.662,1.025,4.307,8.956,4.585,12.664
		C123.58,312.718,121.088,311.541,118.81,310.102z"/>
	<path fill="#A0412C" d="M124.539,139.701c-2.589,3.32-9.414-3.7-8.466-6.046c0.96-2.343,3.342-13.044,5.664-13.203
		c1.155-0.071,2.153,0.154,2.998,0.605c0.654,4.858,1.384,9.693,2.136,14.522C126.29,137.044,125.51,138.445,124.539,139.701z"/>
	<path fill="#A0412C" d="M143.602,227.828c0.033-0.234,0.098-0.447,0.18-0.643c3.489,1.641,8.351,1.075,12.211,1.656
		c1.211,0.186,2.453,0.326,3.729,0.441c7.622,3.647,14.93,8.961,14.216,11.382c-1.413,4.829-1.919,21.706-9.758,18.097
		C156.342,255.15,142.295,236.152,143.602,227.828z"/>
	<path fill="#A0412C" d="M164.279,272.379c1.058-2.622,15.291-1.553,11.485,6.04c-0.758,1.511-3.7,10.875-5.685,9.326
		C168.089,286.193,163.231,274.997,164.279,272.379z"/>
	<path fill="#A0412C" d="M145.581,284.477c4.725,3.816,16.761,12.122,0.512,15.52c-2.497,0.524-16.316-4.029-14.708-8.052
		C133,287.91,140.855,280.661,145.581,284.477z"/>
	<path fill="none" stroke="#701C1E" d="M37.644,152.205c-3.244,8.336,9.257,15.497,15.182,10.247
		c4.148,9.577,19.558,5.501,22.339-2.376"/>
	<line fill="none" stroke="#3E1818" x1="58.025" y1="144.791" x2="52.824" y2="162.452"/>
	<path fill="#865B3A" d="M53.839,50.928c-4.497-2.393-21.462-18.915-14.145-24.771c8.144-6.514,16.527,16.376,18.464,21.723
		L53.839,50.928z"/>
	<path fill="#865B3A" d="M107.26,59.35c2.109-4.639,17.558-22.585,23.853-15.639c7,7.723-15.333,17.498-20.55,19.759L107.26,59.35z"
		/>
</g>
</svg>
