<?xml version="1.0" encoding="utf-8"?>
<!-- Generator: Adobe Illustrator 17.0.0, SVG Export Plug-In . SVG Version: 6.00 Build 0)  -->
<!DOCTYPE svg PUBLIC "-//W3C//DTD SVG 1.1 Basic//EN" "http://www.w3.org/Graphics/SVG/1.1/DTD/svg11-basic.dtd">
<svg version="1.1" baseProfile="basic" id="Слой_1"
	 xmlns="http://www.w3.org/2000/svg" xmlns:xlink="http://www.w3.org/1999/xlink" x="0px" y="0px" width="352.531px" height="472px"
	 viewBox="0 0 352.531 472" xml:space="preserve">
<polygon fill="#A8A8A8" stroke="#272525" stroke-width="3" stroke-miterlimit="10" points="499.89,290.674 499.89,290.674 
	499.888,290.674 "/>
<polygon fill="#A8A8A8" stroke="#272525" stroke-width="3" stroke-miterlimit="10" points="-108.557,98.519 -108.557,98.519 
	-108.558,98.519 "/>
<path fill="#744725" stroke="#FFFFFF" stroke-width="6" stroke-miterlimit="10" d="M320.21,76.8
	c-5.71-13.908-36.977-20.973-57.545-10.992c-4.843,2.35-9.166,5.207-12.873,8.374c2.266-9.848,4.309-19.802,5.997-29.777
	c3.743-2.153,6.276-6.251,6.276-10.96c0-6.942-5.495-12.569-12.274-12.569s-12.274,5.627-12.274,12.569
	c0,3.203,1.18,6.118,3.107,8.338c-0.982,5.68-2.078,11.352-3.263,16.999c-0.728-0.258-1.456-0.5-2.182-0.713
	c-3.045-0.894-6.387-1.727-9.524-2.027c-2.514-0.245-4.424,0.481-6.804,0.879c-1.716,0.289-1.746,0.284-1.293-1.52
	c0.35-1.411,1.229-2.605,2.199-3.678c2.095-2.321,4.944-3.619,7.888-4.486c-9.478,0.549-22.272,5.913-27.131,14.913
	c0.613-2.265,0.658-4.968,0.498-6.855c-1.633,3.288-2.817,7.019-4.355,10.551c-1.777-7.975-3.404-16.01-4.796-24.063
	c1.927-2.22,3.108-5.134,3.108-8.338c0-6.942-5.496-12.569-12.275-12.569s-12.275,5.627-12.275,12.569
	c0,4.709,2.532,8.806,6.275,10.959c1.551,9.162,3.403,18.305,5.451,27.366c-1.1-1.601-2.29-3.18-3.579-4.722
	c-14.661-17.543-46.072-23.931-56.99-13.592c-34.109,32.31,13.292,17.144,27.955,34.687c4.262,5.101,7.999,10.427,11.442,15.184
	c-7.694,12.681-12.242,28.262-12.242,45.119c0,29.078,13.5,54.385,33.42,67.485c2.265,4.504,5.402,8.475,9.195,11.667
	c0.957,6.095,4.159,12.983,4.537,17.379c1.734,20.059-6.813,53.983-28.04,61.576c-1.178,0.421-2.39,0.713-3.618,0.946
	c-12.96-1.175-36.543,1.155-44.137,1.689c-9.546,0.671-27.969,7.536-43.713,23.783c-0.581,0.6-1.103,1.236-1.595,1.89
	c-3.36-2.556-7.771-2.841-12.251-2.918c-6.748-0.117-14.924,0.542-20.927-3.175c-2.736-1.692-4.781-4.514-5.867-7.514
	c-1.306-3.615-1.452-8.207-0.043-11.815c1.288-3.299,4.018-5.741,5.484-8.938c0.002-0.005,0.005-0.011,0.007-0.016
	c1.211-0.224,2.487-0.475,3.45-1.172c0.989-0.718,1.489-1.836,1.885-2.894c0.461-1.236,0.734-2.424,1.438-3.569
	c-0.89,0.215-1.29,1.415-1.721,2.052c-0.369,0.547-0.71,1.108-1.124,1.628c-0.205,0.266-0.425,0.519-0.674,0.743
	c-0.096,0.088-0.602,0.384-0.61,0.45c0.189-1.299,0.987-2.523,1.441-3.753c0.899-2.424,1.617-4.907,2.332-7.385
	c0.365-1.26,0.802-2.533,0.746-3.862c-0.024-0.62-0.16-1.211-0.392-1.801c-0.145-0.365-0.838-1.242-0.772-1.586
	c-0.446,2.336-0.965,4.647-1.366,6.992c-0.383,2.248-0.315,2.955-1.873,4.789c-0.28,0.332-0.786,0.586-0.883-0.514
	c-0.14-1.573-0.151-0.492,0.319-1.934c0.419-1.274,0.627-2.605,0.97-3.901c0.336-1.274,1.014-2.474,1.143-3.791
	c0.068-0.68-0.42-2.669-1.561-1.651c-0.605,0.539-0.984,1.225-1.475,1.841c-0.889,1.112-1.532,2.378-1.996,3.686
	c-0.342,0.958-0.548,2.299-1.542,2.907c-1.201,0.731-0.975-1.279-0.782-1.783c0.35-0.907,1.057-1.665,1.408-2.571
	c0.166-0.433,0.255-1.363,0.781-1.572c-1.195,0.477-2.379,1.595-3.147,2.535c-1.168,1.436-1.859,3.297-2.434,4.985
	c-0.59,1.729-0.887,3.451-0.842,5.267c0.004,0.151,0.004,0.305,0.004,0.46c-1.787,1.537-2.843,3.595-3.645,5.807
	c-1.22,3.372-2.239,6.881-2.571,10.464c-0.317,3.427,0.268,7.228,0.708,10.639c0.455,3.534,1.476,7.14,4.462,9.36
	c3.071,2.282,7.052,3.237,10.631,4.391c4.69,1.513,9.663,0.852,14.478,1.483c4.776,0.624,9.056,2.625,13.227,4.89
	c-5.343,18.025,7.19,44.283,7.19,44.283c2.549,3.629,5.935,6.562,9.686,8.935c3.649,4.86,8.372,12.363,6.185,16.261
	c-3.4,6.062-14.338,11.09-12.712,16.411c0.814,2.665,4.779,7.962,8.535,12.586h0l0.003,0.004c2.075,2.554,4.083,4.899,5.463,6.486
	l2.135,2.535h29.367l-9.633-12.786c-3.002-4.68-5.305-9.333-4.089-11.19c2.808-4.288,11.918-12.785,10.199-17.296
	c-0.363-0.951-1.378-2.331-2.749-3.914c5.725-2.523,7.599-16.292,14.888-23.727c8.207-8.372,16.581,15.074,29.309,21.268
	c2.971,1.446,6.355,1.823,9.913,1.412c1.503,3.128,2.261,6.166,1.114,8.211c-3.399,6.062-14.337,11.09-12.712,16.411
	c0.83,2.715,4.93,8.16,8.747,12.845l-0.033,0.005l2.284,2.713c0.125,0.148,0.249,0.296,0.371,0.44l4.945,5.874h29.366l-9.641-12.798
	l0.026,0.045c-3.095-4.78-5.524-9.594-4.283-11.489c2.806-4.288,11.92-12.785,10.197-17.296c-1.094-2.873,2.864-20.073,5.883-32.185
	c4.548-10.048,6.603-24.093,6.403-33.31c0,0,0,0,0-0.001c7.294-20.754,4.304-36.88,11.452-56.445
	c7.149-19.565,7.367-44.828,7.367-44.828s0.178-6.104-0.664-12.739c5.169-3.888,9.289-9.145,11.844-15.25
	c18.087-13.637,30.109-37.704,30.109-65.139c0-16.245-4.222-31.306-11.414-43.729c4.427-2.556,9.196-5.305,14.241-7.753
	C301.053,86.98,338.056,120.262,320.21,76.8z M237.346,58.849c-0.226,1.078-0.461,2.155-0.693,3.231
	c-0.341-0.304-0.69-0.594-1.05-0.86c-1.339-0.988-3.052-1.494-4.261-2.542C233.478,58.08,235.446,58.232,237.346,58.849z
	 M233.849,74.445c-0.033,0.14-0.065,0.28-0.098,0.419c-0.046,0.192-0.073,0.378-0.105,0.565c-1.142-0.456-2.297-0.878-3.467-1.259
	c-0.189-0.98-0.415-1.987-0.663-3.072C230.883,71.165,232.466,72.74,233.849,74.445z"/>
<g id="Giraffe">
	<g id="Body_3_">
		<g id="Legs">
			<g id="Back_leg">
				
					<linearGradient id="Back_Leg_BG_1_" gradientUnits="userSpaceOnUse" x1="371.7185" y1="-188.4908" x2="399.482" y2="-140.4032" gradientTransform="matrix(1 0 0 -1 -280.96 256.84)">
					<stop  offset="0" style="stop-color:#714725"/>
					<stop  offset="1" style="stop-color:#C0A45D"/>
				</linearGradient>
				<path id="Back_Leg_BG" fill="url(#Back_Leg_BG_1_)" d="M84.35,390.751c0,0,13.303,14.782,9.904,20.842
					c-3.4,6.062-14.338,11.09-12.712,16.411c1.625,5.322,15.816,21.137,15.816,21.137h29.121c0,0-15.965-19.214-13.156-23.502
					c2.808-4.288,11.918-12.785,10.199-17.296c-1.72-4.511-18.034-18.625-18.034-18.625L84.35,390.751z"/>
				<polygon id="Back_Leg_Hoof" fill="#424242" points="90.077,440.59 97.678,449.614 127.045,449.614 117.405,436.819 
					121.097,443.218 113.6,436.819 				"/>
			</g>
			<g id="Front_Leg">
				
					<linearGradient id="Front_Leg_BG_1_" gradientUnits="userSpaceOnUse" x1="453.4626" y1="-188.4908" x2="499.126" y2="-109.3993" gradientTransform="matrix(1 0 0 -1 -280.96 256.84)">
					<stop  offset="0" style="stop-color:#714725"/>
					<stop  offset="1" style="stop-color:#C0A45D"/>
				</linearGradient>
				<path id="Front_Leg_BG" fill="url(#Front_Leg_BG_1_)" d="M166.094,390.751c0,0,13.302,14.782,9.903,20.842
					c-3.399,6.062-14.337,11.09-12.712,16.411c1.626,5.322,15.817,21.137,15.817,21.137h29.121c0,0-15.963-19.214-13.156-23.502
					c2.806-4.288,11.92-12.785,10.197-17.296c-1.717-4.511,9.02-44.345,9.02-44.345L166.094,390.751z"/>
				<polygon id="Front_Leg_Hoof" fill="#424242" points="171.999,440.854 179.599,449.881 208.965,449.881 199.324,437.083 
					203.016,443.483 195.523,437.083 				"/>
			</g>
		</g>
		<path id="Neck" fill="#E6C389" d="M236.369,241.574c0,0-0.218,25.263-7.367,44.828c-7.148,19.565-4.158,35.691-11.452,56.445
			c-6.901,19.644-32.791,9.681-47.735,6.14s-18.357-7.432-23.82-15.628c-5.465-8.197-7.279-9.641-5.079-17.957
			c0.865-3.269,7.519-4.958,10.607-5.877c5.313-1.58,11.121-1.115,16.317-2.973c21.227-7.593,29.774-41.517,28.04-61.576
			c-0.637-7.407-9.295-21.894-1.709-27.735c9.076-6.992,23.532-6.82,33.267-4.865C237.172,214.331,236.369,241.574,236.369,241.574z
			"/>
		<path id="Main_Body_1_" fill="#E6C389" d="M78.383,386.397c0,0-17.754-37.18-2.011-53.427
			c15.744-16.247,34.167-23.112,43.713-23.783c9.547-0.671,44.382-4.188,51.584,0s41.704,18.758,44.719,25.792
			c3.016,7.034,0.333,35.506-9.046,47.732c-9.379,12.226-29.643,25.453-42.372,19.259c-12.728-6.194-21.102-29.64-29.309-21.268
			c-8.207,8.373-9.545,24.788-17.251,24.12C110.706,404.149,88.266,400.469,78.383,386.397z"/>
		<g id="Body_Spots">
			<path fill="#594120" d="M199.363,244.94c0,0-0.317,19.552-0.532,19.978s8.929,0.849,9.461,0.638
				c0.529-0.212,7.971-8.5,7.971-8.82s-2.659-12.437-2.98-12.649c-0.317-0.211-11.796-2.232-11.901-1.912
				C201.276,242.495,199.363,244.94,199.363,244.94z"/>
			<path fill="#594120" d="M233.371,242.707c-0.423,0.211-8.291,4.251-8.291,4.251s-4.568,6.505-4.674,6.919s0.532,7.43,0,8.173
				s3.083,7.545,3.083,7.545l6.801-3.188l4.146-8.717L233.371,242.707z"/>
			<polygon fill="#594120" points="195.324,283.836 188.192,291.17 190.86,302.434 195.324,306.047 204.679,304.987 209.99,298.715 
				208.821,289.788 208.503,274.802 197.342,280.222 			"/>
			<polygon fill="#594120" points="221.152,274.802 216.686,282.939 213.604,291.063 215.731,295.1 219.024,300.736 
				222.427,300.736 226.464,289.894 229.652,281.497 230.289,273.421 			"/>
			<path fill="#594120" d="M175.133,312.031l-9.565,2.765c0,0-2.018,5.741-2.018,6.163c0,0.423,2.656,9.99,2.656,9.99l9.565,2.657
				l7.652-6.376l3.401-10.098L175.133,312.031z"/>
			<path fill="#594120" d="M203.639,345.663l-9.566,2.766c0,0-2.018,5.74-2.018,6.164c0,0.423,2.658,9.989,2.658,9.989l9.563,2.656
				l7.654-6.375l3.399-10.098L203.639,345.663z"/>
			<path fill="#594120" d="M174.471,338.167l-6.769,1.955c0,0-1.429,4.064-1.429,4.364c0,0.298,1.879,7.07,1.879,7.07l6.771,1.879
				l5.414-4.511l2.408-7.149L174.471,338.167z"/>
			<path fill="#594120" d="M127.937,332.484l-6.983-1.475c0,0-3.21,2.949-3.354,3.218c-0.142,0.265-1.684,7.213-1.684,7.213
				l5.155,4.904l6.987-1.454l5.554-5.243L127.937,332.484z"/>
			<path fill="#594120" d="M114.352,346.67l-6.983-1.474c0,0-3.21,2.949-3.354,3.218c-0.141,0.266-1.684,7.212-1.684,7.212
				l5.155,4.905l6.987-1.454l5.554-5.243L114.352,346.67z"/>
			<path fill="#594120" d="M165.495,357.765l-9.565,2.765c0,0-2.018,5.741-2.018,6.165c0,0.423,2.657,9.99,2.657,9.99l9.565,2.655
				l7.652-6.375l3.401-10.098L165.495,357.765z"/>
			<path fill="#594120" d="M84.575,353.52l-9.565,2.765c0,0-2.019,5.741-2.019,6.164s2.656,9.99,2.656,9.99l9.565,2.656l7.652-6.376
				l3.401-10.098L84.575,353.52z"/>
			<path fill="#594120" d="M109.609,362.225l-9.566,2.765c0,0-2.018,5.741-2.018,6.165c0,0.423,2.656,9.989,2.656,9.989l9.565,2.656
				l7.652-6.376l3.401-10.098L109.609,362.225z"/>
			<path fill="#594120" d="M139.95,309.158l-9.565,2.765c0,0-2.019,5.741-2.019,6.164s2.657,9.99,2.657,9.99l9.565,2.656
				l7.652-6.376l3.401-10.098L139.95,309.158z"/>
			<path fill="#594120" d="M208.08,311.251l-9.252,5.315l-6.584,9.246l2.336,13.709l6.164,5.315l7.336-2.658l6.249-9.757
				l4.378-12.455c0,0-2.868-9.348-3.188-9.562C215.199,310.187,208.08,311.251,208.08,311.251z"/>
			<path fill="#594120" d="M96.3,320.41l-6.907,4.677c0,0-2.337,9.137-2.444,9.563c-0.108,0.426,3.506,7.865,3.506,7.865
				l5.314,4.463l7.334-4.037l7.014-7.654l4.038-8.819c0,0-5.1-6.802-5.419-6.696s-7.121-1.112-7.121-1.112"/>
			<path fill="#594120" d="M154.134,356.299l5.688-6.1c0,0,0.236-9.43,0.246-9.868c0.011-0.438-5.173-6.884-5.173-6.884
				l-6.176-3.163l-6.247,5.572l-5.13,9.028l-1.966,9.497c0,0,6.491,5.494,6.777,5.319c0.287-0.176,7.19-0.508,7.19-0.508"/>
			<path fill="#594120" d="M190.307,392.108l7.847-2.825c0,0,4.524-8.279,4.729-8.663c0.211-0.386-1.45-8.488-1.45-8.488
				l-4.05-5.638l-8.104,2.099l-8.689,5.687l-6.088,7.547c0,0,3.26,7.851,3.595,7.826c0.336-0.024,6.626,2.838,6.626,2.838"/>
		</g>
		<g id="Tail_1_">
			<path id="Tail_path" fill="#E6C389" d="M80.123,346.979c-7.223-3.563-13.961-8.685-22.157-9.755
				c-4.815-0.631-9.788,0.03-14.478-1.483c-3.579-1.154-7.56-2.109-10.631-4.391c-2.986-2.22-4.007-5.826-4.462-9.36
				c-0.44-3.411-1.025-7.212-0.708-10.639c0.332-3.583,1.351-7.092,2.571-10.464c0.866-2.389,2.017-4.607,4.079-6.173
				c1.566-1.188,4.572-4.345,6.728-3.562c3.132,1.139,1.017,7.366,0.108,9.348c-1.466,3.197-4.196,5.639-5.484,8.938
				c-1.409,3.608-1.263,8.2,0.043,11.815c1.086,3,3.131,5.822,5.867,7.514c6.003,3.717,14.179,3.058,20.927,3.175
				c5.859,0.1,11.605,0.542,15.029,5.978c0.807,1.286,1.422,2.661,1.813,4.126C79.515,342.6,79.848,346.842,80.123,346.979z"/>
			<path id="Tail_fur" fill="#422F1A" d="M34.503,299.171c-0.763-1.372-0.569-3.076-0.604-4.551
				c-0.045-1.816,0.252-3.538,0.842-5.267c0.575-1.688,1.266-3.549,2.434-4.985c0.768-0.94,1.952-2.058,3.147-2.535
				c-0.526,0.209-0.615,1.139-0.781,1.572c-0.351,0.906-1.058,1.664-1.408,2.571c-0.193,0.504-0.419,2.514,0.782,1.783
				c0.994-0.608,1.2-1.949,1.542-2.907c0.464-1.308,1.107-2.574,1.996-3.686c0.491-0.616,0.87-1.302,1.475-1.841
				c1.141-1.018,1.629,0.971,1.561,1.651c-0.129,1.317-0.807,2.517-1.143,3.791c-0.343,1.296-0.551,2.627-0.97,3.901
				c-0.47,1.442-0.459,0.361-0.319,1.934c0.097,1.1,0.603,0.846,0.883,0.514c1.558-1.834,1.49-2.541,1.873-4.789
				c0.401-2.345,0.92-4.656,1.366-6.992c-0.066,0.344,0.627,1.221,0.772,1.586c0.232,0.59,0.368,1.181,0.392,1.801
				c0.056,1.329-0.381,2.602-0.746,3.862c-0.715,2.478-1.433,4.961-2.332,7.385c-0.454,1.23-1.252,2.454-1.441,3.753
				c0.008-0.066,0.514-0.362,0.61-0.45c0.249-0.224,0.469-0.477,0.674-0.743c0.414-0.52,0.755-1.081,1.124-1.628
				c0.431-0.637,0.831-1.837,1.721-2.052c-0.704,1.145-0.977,2.333-1.438,3.569c-0.396,1.058-0.896,2.176-1.885,2.894
				c-1.115,0.807-2.657,1.018-4.022,1.279c-1.477,0.275-3.216,0.399-4.645-0.16C35.258,300.153,34.802,299.709,34.503,299.171z"/>
		</g>
	</g>
	<g id="Head_2_">
		<g id="Horns">
			<g id="Left_Horn">
				<path id="Left_Horn_cylinder" fill="#6C5C2E" d="M198.729,74.864c-3.429-14.419-6.44-29.103-8.578-43.774
					c-1.433-9.842-16.339-5.641-14.918,4.115c2.138,14.669,5.147,29.352,8.578,43.774C186.12,88.681,201.034,84.565,198.729,74.864z
					"/>
				<ellipse id="Left_Horn_Top" fill="#4F2616" cx="182.692" cy="33.444" rx="12.275" ry="12.569"/>
			</g>
			<g id="Right_Horn">
				<path id="Right_Horn_Cylinder" fill="#6C5C2E" d="M233.751,74.864c3.433-14.419,6.442-29.103,8.582-43.774
					c1.432-9.842,16.338-5.641,14.914,4.115c-2.136,14.669-5.146,29.352-8.575,43.774C246.364,88.681,231.446,84.565,233.751,74.864
					z"/>
				<ellipse id="Right_Horn_Top" fill="#4F2616" cx="249.791" cy="33.444" rx="12.274" ry="12.569"/>
			</g>
		</g>
		<g id="Ears">
			<path id="Left_Ear_1_" fill="#4A321B" d="M178.564,67.047c14.659,17.54,17.182,39.582,5.638,49.233
				c-11.547,9.651-20.018-10.597-34.673-28.138c-14.663-17.543-62.064-2.377-27.955-34.687
				C132.492,43.116,163.903,49.504,178.564,67.047z"/>
			<path id="Right_Ear_1_" fill="#4A321B" d="M262.665,65.808c-20.568,9.979-31.911,29.046-25.348,42.583
				c6.572,13.539,22.607-1.447,43.168-11.428c20.568-9.983,57.571,23.299,39.725-20.163C314.5,62.892,283.233,55.827,262.665,65.808
				z"/>
		</g>
		<g id="Face">
			<path id="Head_BG" fill="#E6C389" d="M277.658,148.445c0,42.523-28.858,76.996-64.465,76.996
				c-35.603,0-64.464-34.474-64.464-76.996S177.59,71.45,213.193,71.45C248.8,71.45,277.658,105.923,277.658,148.445z"/>
			<path id="Muzzle_1_" fill="#F6E2C4" d="M250.446,199.084c0,20.389-16.18,36.924-36.141,36.924
				c-19.96,0-36.141-16.534-36.141-36.924c0-20.393,16.181-36.927,36.141-36.927C234.266,162.157,250.446,178.691,250.446,199.084z"
				/>
			<g id="Eyes_1_">
				<g id="Right_Eye_1_">
					<path id="Eye_BG_1_" fill="#FFFFFF" d="M226.374,135.893c0,9.37,6.191,16.969,13.829,16.969
						c7.634,0,13.826-7.599,13.826-16.969c0-9.373-6.192-16.972-13.826-16.972C232.564,118.921,226.374,126.52,226.374,135.893z"/>
					<g id="Pupil_2_">
						<ellipse id="Pupil_BG_3_" fill="#4B81B3" cx="240.669" cy="137.525" rx="6.914" ry="8.484"/>
						<path id="Small_Reflection_3_" fill="#F4FAFD" d="M239.52,136.455c0,0.592,0.532,1.07,1.185,1.07
							c0.652,0,1.179-0.478,1.179-1.07c0-0.589-0.527-1.067-1.179-1.067C240.052,135.388,239.52,135.866,239.52,136.455z"/>
						<ellipse id="Big_Reflection_3_" fill="#F4FAFD" cx="243.178" cy="133.948" rx="1.981" ry="1.791"/>
					</g>
				</g>
				<g id="Left_Eye_1_">
					<ellipse id="Eye_BG_2_" fill="#FFFFFF" cx="184.738" cy="135.893" rx="13.827" ry="16.969"/>
					<g id="Pupil_3_">
						<ellipse id="Pupil_BG_2_" fill="#4B81B3" cx="185.206" cy="137.525" rx="6.914" ry="8.484"/>
						<path id="Small_Reflection_2_" fill="#F4FAFD" d="M184.057,136.455c0,0.592,0.532,1.07,1.185,1.07
							c0.652,0,1.179-0.478,1.179-1.07c0-0.589-0.527-1.067-1.179-1.067C184.589,135.388,184.057,135.866,184.057,136.455z"/>
						<ellipse id="Big_Reflection_2_" fill="#F4FAFD" cx="187.715" cy="133.948" rx="1.981" ry="1.791"/>
					</g>
				</g>
			</g>
			<g id="Eye_Brows">
				
					<path id="Left_Eye_Brow" fill="none" stroke="#1D1D1D" stroke-width="0.75" stroke-linecap="round" stroke-linejoin="round" stroke-miterlimit="10" d="
					M171.104,110.334c-0.078,0.13-0.035,0.247-0.193,0.296c2.516-4.388,7.955-7.216,13.051-6.309"/>
				
					<path id="Right_Eye_Brow" fill="none" stroke="#1D1D1D" stroke-width="0.75" stroke-linecap="round" stroke-linejoin="round" stroke-miterlimit="10" d="
					M253.835,110.334c0.079,0.13,0.035,0.247,0.194,0.296c-2.516-4.388-7.956-7.216-13.052-6.309"/>
			</g>
			<path id="Smile_1_" fill="none" stroke="#4E4E4E" stroke-width="0.75" stroke-miterlimit="10" d="M242.246,201.913
				c-0.459,4.172-2.408,8.309-4.747,11.738c-5.964,8.741-18.027,13.029-28.319,11.282"/>
			
				<linearGradient id="Hair_1_" gradientUnits="userSpaceOnUse" x1="487.2855" y1="164.7466" x2="511.4011" y2="201.0284" gradientTransform="matrix(1 0 0 -1 -280.96 256.84)">
				<stop  offset="0.3471" style="stop-color:#E6C389"/>
				<stop  offset="1" style="stop-color:#714725"/>
			</linearGradient>
			<path id="Hair" fill="url(#Hair_1_)" d="M187.301,78.456c0.209-0.277,2.155-1.616,2.947-2.474c1.68-1.825,3.118-3.97,4.399-6.127
				c2.701-4.554,4.094-9.989,6.364-14.561c0.229,2.707,0.066,7.112-1.644,9.457c3.59-10.566,17.918-16.915,28.277-17.515
				c-2.944,0.867-5.793,2.165-7.888,4.486c-0.97,1.073-1.849,2.267-2.199,3.678c-0.453,1.804-0.423,1.809,1.293,1.52
				c2.38-0.398,4.29-1.124,6.804-0.879c3.137,0.3,6.479,1.133,9.524,2.027c5.107,1.495,10.316,4.179,14.68,6.983
				c-2.729-0.072-6.321-2.921-8.733-4.399c-3.1-1.903-6.206-2.976-9.784-1.973c1.209,1.048,2.922,1.554,4.261,2.542
				c2.598,1.918,4.738,4.892,5.952,7.88c1.989,4.886,2.125,12.815-1.577,17.005c0.72-2.825-1.746-5.853-3.39-7.998
				c-1.417-1.84-4.599-6.889-7.071-7.01c0.9,3.953,1.583,6.898,0.818,11.075c-0.526,2.867-2.592,7.861-6.049,8.149
				c-0.42-1.039,0.088-2.173,0.22-3.251c0.248-2.034-0.029-4.191-0.634-6.128c-0.417-1.347-3.898-6.726-6.079-5.015
				c-0.641,0.501-0.339,2.275-0.465,3.012c-0.378,2.178-1.381,3.786-2.823,5.481c-1.746,2.043-5.206,5.324-8.07,4.937"/>
			<g id="Nostrils">
				<path id="Left_Nostril" fill="#744725" d="M204.617,187.904c-1.161-1.45-4.342-2.049-6.052-3.176
					c-2.04-1.344-2.716-3.305-2.487-5.185c0.2-1.599,1.65-3.986,3.986-4.442c3.009-0.593,3.846,1.015,4.385,2.728
					c0.55,1.765,0.762,3.388,0.489,5.15c-0.212,1.366-0.755,4.006,0.312,5.155"/>
				<path id="Right_Nostril" fill="#744725" d="M221.774,187.904c1.16-1.45,4.339-2.049,6.05-3.176
					c2.042-1.344,2.717-3.305,2.487-5.185c-0.197-1.599-1.65-3.986-3.986-4.442c-3.009-0.593-3.846,1.015-4.384,2.728
					c-0.551,1.765-0.762,3.388-0.489,5.15c0.214,1.366,0.755,4.006-0.312,5.155"/>
			</g>
		</g>
	</g>
</g>
</svg>
