<?xml version="1.0" encoding="utf-8"?>
<!-- Generator: Adobe Illustrator 17.0.0, SVG Export Plug-In . SVG Version: 6.00 Build 0)  -->
<!DOCTYPE svg PUBLIC "-//W3C//DTD SVG 1.1 Basic//EN" "http://www.w3.org/Graphics/SVG/1.1/DTD/svg11-basic.dtd">
<svg version="1.1" baseProfile="basic" id="Слой_1"
	 xmlns="http://www.w3.org/2000/svg" xmlns:xlink="http://www.w3.org/1999/xlink" x="0px" y="0px" width="215.448px"
	 height="213.602px" viewBox="0 0 215.448 213.602" xml:space="preserve">
<polygon fill="#A8A8A8" stroke="#272525" stroke-width="3" stroke-miterlimit="10" points="499.89,290.674 499.89,290.674 
	499.888,290.674 "/>
<polygon fill="#A8A8A8" stroke="#272525" stroke-width="3" stroke-miterlimit="10" points="-108.557,98.519 -108.557,98.519 
	-108.558,98.519 "/>
<path fill="#3FA556" d="M210.723,55.926c-5.711-13.908-36.978-20.973-57.546-10.992c-4.843,2.35-9.166,5.207-12.873,8.374
	c2.266-9.848,4.308-19.803,5.997-29.778c3.743-2.153,6.275-6.252,6.275-10.96c0-6.941-5.493-12.57-12.274-12.57
	c-6.78,0-12.273,5.629-12.273,12.57c0,3.203,1.18,6.118,3.107,8.338c-0.982,5.679-2.078,11.35-3.263,16.997
	c-0.728-0.258-1.456-0.5-2.183-0.713c-3.046-0.894-6.387-1.728-9.524-2.027c-2.514-0.244-4.424,0.481-6.804,0.879
	c-1.717,0.29-1.746,0.284-1.293-1.52c0.351-1.411,1.229-2.604,2.199-3.678c2.095-2.32,4.944-3.619,7.888-4.486
	c-9.477,0.549-22.271,5.913-27.13,14.912c0.613-2.264,0.657-4.967,0.498-6.854c-1.632,3.288-2.817,7.019-4.355,10.551
	c-1.777-7.974-3.403-16.009-4.796-24.062c1.927-2.22,3.107-5.135,3.107-8.337C85.48,5.629,79.984,0,73.205,0
	c-6.781,0-12.276,5.629-12.276,12.57c0,4.708,2.532,8.806,6.275,10.959c1.551,9.162,3.403,18.305,5.452,27.365
	c-1.1-1.601-2.29-3.179-3.579-4.722C54.416,28.629,23.004,22.241,12.087,32.58c-34.109,32.31,13.292,17.144,27.955,34.687
	c4.262,5.101,7.998,10.426,11.442,15.183c-7.694,12.681-12.242,28.262-12.242,45.119c0,29.079,13.501,54.385,33.42,67.486
	c2.118,4.211,5.005,7.947,8.471,11.025c5.989-0.423,12.129,0.678,17.821,3.357c9.566,4.555,18.716,4.748,27.736,3.518
	c-0.102-1.564-0.252-3.26-0.472-4.997c5.169-3.887,9.289-9.144,11.844-15.249c18.087-13.637,30.11-37.705,30.11-65.14
	c0-16.245-4.222-31.306-11.413-43.728c4.427-2.556,9.197-5.305,14.241-7.753C191.566,66.106,228.569,99.389,210.723,55.926z
	 M127.165,41.205c-0.342-0.304-0.691-0.595-1.052-0.861c-1.339-0.988-3.052-1.493-4.261-2.542c2.137-0.599,4.105-0.447,6.006,0.171
	C127.632,39.052,127.397,40.129,127.165,41.205z"/>
</svg>
