<?xml version="1.0" encoding="utf-8"?>
<!-- Generator: Adobe Illustrator 17.0.0, SVG Export Plug-In . SVG Version: 6.00 Build 0)  -->
<!DOCTYPE svg PUBLIC "-//W3C//DTD SVG 1.1 Basic//EN" "http://www.w3.org/Graphics/SVG/1.1/DTD/svg11-basic.dtd">
<svg version="1.1" baseProfile="basic" id="Слой_1"
	 xmlns="http://www.w3.org/2000/svg" xmlns:xlink="http://www.w3.org/1999/xlink" x="0px" y="0px" width="106.699px"
	 height="170.574px" viewBox="0 0 106.699 170.574" xml:space="preserve">
<polygon fill="#A8A8A8" stroke="#272525" stroke-width="3" stroke-miterlimit="10" points="-108.557,98.519 -108.557,98.519 
	-108.558,98.519 "/>
<path fill="#EEBF31" d="M88.845,48.274c-2.153-4.307-5.758-10.638-10.497-14.477C69.29,37.42,58.523,43.875,48.777,53.932
	c-0.581,0.6-1.103,1.236-1.596,1.89c-3.361-2.557-7.771-2.842-12.252-2.918c-6.749-0.117-14.925,0.542-20.927-3.175
	c-2.736-1.692-4.781-4.514-5.867-7.514C6.829,38.6,6.683,34.008,8.092,30.4c1.289-3.299,4.018-5.741,5.484-8.938
	c0.003-0.006,0.006-0.014,0.009-0.02c1.21-0.224,2.486-0.475,3.448-1.171c0.99-0.719,1.489-1.837,1.885-2.894
	c0.46-1.236,0.734-2.423,1.438-3.569c-0.889,0.215-1.289,1.415-1.721,2.052c-0.368,0.547-0.71,1.109-1.124,1.628
	c-0.205,0.267-0.425,0.52-0.674,0.743c-0.096,0.088-0.602,0.384-0.61,0.45c0.189-1.299,0.986-2.522,1.441-3.753
	c0.899-2.423,1.617-4.907,2.332-7.385c0.365-1.259,0.802-2.533,0.746-3.862c-0.024-0.62-0.16-1.211-0.392-1.801
	c-0.144-0.365-0.838-1.242-0.772-1.586c-0.446,2.336-0.965,4.647-1.366,6.992c-0.383,2.248-0.315,2.955-1.873,4.789
	c-0.281,0.333-0.786,0.587-0.883-0.514c-0.141-1.574-0.152-0.492,0.319-1.934c0.419-1.274,0.627-2.604,0.97-3.901
	c0.336-1.275,1.014-2.474,1.143-3.791c0.068-0.68-0.42-2.669-1.561-1.651c-0.605,0.538-0.983,1.225-1.475,1.841
	c-0.888,1.112-1.532,2.378-1.996,3.686c-0.343,0.958-0.548,2.299-1.542,2.907c-1.201,0.731-0.975-1.279-0.782-1.783
	c0.351-0.907,1.057-1.665,1.408-2.571c0.166-0.433,0.255-1.363,0.781-1.572c-1.195,0.478-2.378,1.595-3.147,2.535
	C8.41,6.763,7.72,8.624,7.144,10.313c-0.59,1.729-0.887,3.452-0.842,5.267c0.004,0.151,0.004,0.305,0.004,0.46
	c-1.787,1.536-2.843,3.594-3.645,5.807c-1.22,3.372-2.239,6.881-2.571,10.464c-0.317,3.427,0.269,7.228,0.708,10.639
	c0.455,3.535,1.476,7.14,4.462,9.36c3.071,2.281,7.051,3.237,10.631,4.391c4.691,1.514,9.663,0.852,14.478,1.483
	c4.777,0.624,9.057,2.625,13.228,4.89c-5.343,18.025,7.19,44.283,7.19,44.283c2.548,3.628,5.934,6.561,9.684,8.934
	c3.649,4.86,8.373,12.363,6.186,16.262c-3.4,6.062-14.338,11.09-12.712,16.411c1.265,4.143,10.144,14.643,14.016,19.093l2.12,2.517
	h29.367l-9.635-12.788c-3.001-4.68-5.303-9.331-4.088-11.186c2.808-4.288,11.918-12.785,10.199-17.296
	c-0.362-0.951-1.378-2.331-2.748-3.914c5.35-2.356,7.339-14.531,13.523-22.186c-3.629-5.917-7.738-11.755-11.855-17.931
	C86.845,74.274,95.845,60.274,88.845,48.274z"/>
</svg>
