<?xml version="1.0" encoding="utf-8"?>
<!-- Generator: Adobe Illustrator 17.0.0, SVG Export Plug-In . SVG Version: 6.00 Build 0)  -->
<!DOCTYPE svg PUBLIC "-//W3C//DTD SVG 1.1 Basic//EN" "http://www.w3.org/Graphics/SVG/1.1/DTD/svg11-basic.dtd">
<svg version="1.1" baseProfile="basic" id="Слой_1"
	 xmlns="http://www.w3.org/2000/svg" xmlns:xlink="http://www.w3.org/1999/xlink" x="0px" y="0px" width="130.441px"
	 height="223.011px" viewBox="0 0 130.441 223.011" xml:space="preserve">
<polygon fill="#A8A8A8" stroke="#272525" stroke-width="3" stroke-miterlimit="10" points="499.89,290.674 499.89,290.674 
	499.888,290.674 "/>
<polygon fill="#A8A8A8" stroke="#272525" stroke-width="3" stroke-miterlimit="10" points="-108.557,98.519 -108.557,98.519 
	-108.558,98.519 "/>
<path fill="#D36234" d="M102.499,3.445c-5.692-2.679-11.832-3.78-17.821-3.357c0.24,0.214,0.476,0.433,0.722,0.64
	c0.957,6.096,4.159,12.984,4.537,17.38c1.735,20.059-6.813,53.984-28.04,61.576c-1.178,0.421-2.389,0.713-3.617,0.946
	c-12.96-1.175-36.542,1.155-44.137,1.689C10.506,82.575,5.576,83.737,0,85.967c4.74,3.84,8.344,10.171,10.497,14.477c7,12-2,26,6,37
	c4.117,6.176,8.227,12.014,11.855,17.931c0.434-0.537,0.888-1.054,1.366-1.542c8.207-8.372,16.581,15.074,29.309,21.268
	c2.971,1.446,6.354,1.823,9.912,1.412c1.503,3.128,2.261,6.166,1.114,8.211c-3.399,6.062-14.337,11.09-12.712,16.411
	c0.83,2.715,4.929,8.16,8.747,12.844l-0.033,0.005l2.337,2.775c0.1,0.119,0.2,0.238,0.299,0.355l4.965,5.897h29.366l-9.641-12.798
	l0.026,0.045c-3.095-4.78-5.524-9.593-4.283-11.489c2.806-4.288,11.92-12.785,10.197-17.296c-1.093-2.872,2.863-20.068,5.882-32.181
	c4.551-10.05,6.607-24.101,6.405-33.319c7.293-20.753,4.303-36.878,11.451-56.441c7.149-19.565,7.367-44.828,7.367-44.828
	s0.096-3.331-0.192-7.742C121.215,8.193,112.065,8,102.499,3.445z"/>
</svg>
