<?xml version="1.0" encoding="utf-8"?>
<!-- Generator: Adobe Illustrator 17.0.0, SVG Export Plug-In . SVG Version: 6.00 Build 0)  -->
<!DOCTYPE svg PUBLIC "-//W3C//DTD SVG 1.1 Basic//EN" "http://www.w3.org/Graphics/SVG/1.1/DTD/svg11-basic.dtd">
<svg version="1.1" baseProfile="basic" id="Слой_1"
	 xmlns="http://www.w3.org/2000/svg" xmlns:xlink="http://www.w3.org/1999/xlink" x="0px" y="0px" width="352.531px" height="472px"
	 viewBox="0 0 352.531 472" xml:space="preserve">
<polygon fill="#A8A8A8" stroke="#272525" stroke-width="3" stroke-miterlimit="10" points="499.89,290.674 499.89,290.674 
	499.888,290.674 "/>
<polygon fill="#A8A8A8" stroke="#272525" stroke-width="3" stroke-miterlimit="10" points="-108.557,98.519 -108.557,98.519 
	-108.558,98.519 "/>
<path fill="#A8A8A8" stroke="#272525" stroke-width="3" stroke-miterlimit="10" d="M320.211,76.8
	c-5.711-13.908-36.978-20.973-57.546-10.992c-4.843,2.35-9.166,5.207-12.873,8.374c2.266-9.848,4.308-19.803,5.997-29.778
	c3.743-2.153,6.275-6.252,6.275-10.96c0-6.941-5.493-12.57-12.274-12.57c-6.78,0-12.273,5.629-12.273,12.57
	c0,3.203,1.18,6.118,3.107,8.338c-0.982,5.679-2.078,11.35-3.263,16.997c-0.728-0.258-1.456-0.5-2.183-0.713
	c-3.046-0.894-6.387-1.728-9.524-2.027c-2.514-0.244-4.424,0.481-6.804,0.879c-1.717,0.29-1.746,0.284-1.293-1.52
	c0.351-1.411,1.229-2.604,2.199-3.678c2.095-2.32,4.944-3.619,7.888-4.486c-9.477,0.549-22.271,5.913-27.13,14.912
	c0.613-2.264,0.657-4.967,0.498-6.854c-1.632,3.288-2.817,7.019-4.355,10.551c-1.777-7.974-3.403-16.009-4.796-24.062
	c1.927-2.22,3.107-5.135,3.107-8.337c0-6.941-5.496-12.57-12.275-12.57c-6.781,0-12.276,5.629-12.276,12.57
	c0,4.708,2.532,8.806,6.275,10.959c1.551,9.162,3.403,18.305,5.452,27.365c-1.1-1.601-2.29-3.179-3.579-4.722
	c-14.661-17.543-46.073-23.931-56.99-13.592c-34.109,32.31,13.292,17.144,27.955,34.687c4.262,5.101,7.998,10.426,11.442,15.183
	c-7.694,12.681-12.242,28.262-12.242,45.119c0,29.079,13.501,54.385,33.42,67.486c2.265,4.503,5.401,8.474,9.193,11.665
	c0.957,6.096,4.159,12.984,4.537,17.38c1.735,20.059-6.813,53.984-28.04,61.576c-1.178,0.421-2.389,0.713-3.617,0.946
	c-12.96-1.175-36.542,1.155-44.137,1.689c-9.547,0.671-27.969,7.536-43.713,23.783c-0.581,0.6-1.103,1.236-1.596,1.89
	c-3.361-2.557-7.771-2.842-12.252-2.918c-6.749-0.117-14.925,0.542-20.927-3.175c-2.736-1.692-4.781-4.514-5.867-7.514
	c-1.306-3.615-1.452-8.207-0.043-11.815c1.289-3.299,4.018-5.741,5.484-8.938c0.003-0.006,0.006-0.014,0.009-0.02
	c1.21-0.224,2.486-0.475,3.448-1.171c0.99-0.719,1.489-1.837,1.885-2.894c0.46-1.236,0.734-2.423,1.438-3.569
	c-0.889,0.215-1.289,1.415-1.721,2.052c-0.368,0.547-0.71,1.109-1.124,1.628c-0.205,0.267-0.425,0.52-0.674,0.743
	c-0.096,0.088-0.602,0.384-0.61,0.45c0.189-1.299,0.986-2.522,1.441-3.753c0.899-2.423,1.617-4.907,2.332-7.385
	c0.365-1.259,0.802-2.533,0.746-3.862c-0.024-0.62-0.16-1.211-0.392-1.801c-0.144-0.365-0.838-1.242-0.772-1.586
	c-0.446,2.336-0.965,4.647-1.366,6.992c-0.383,2.248-0.315,2.955-1.873,4.789c-0.281,0.333-0.786,0.587-0.883-0.514
	c-0.141-1.574-0.152-0.492,0.319-1.934c0.419-1.274,0.627-2.604,0.97-3.901c0.336-1.275,1.014-2.474,1.143-3.791
	c0.068-0.68-0.42-2.669-1.561-1.651c-0.605,0.538-0.983,1.225-1.475,1.841c-0.888,1.112-1.532,2.378-1.996,3.686
	c-0.343,0.958-0.548,2.299-1.542,2.907c-1.201,0.731-0.975-1.279-0.782-1.783c0.351-0.907,1.057-1.665,1.408-2.571
	c0.166-0.433,0.255-1.363,0.781-1.572c-1.195,0.478-2.378,1.595-3.147,2.535c-1.168,1.435-1.858,3.296-2.434,4.985
	c-0.59,1.729-0.887,3.452-0.842,5.267c0.004,0.151,0.004,0.305,0.004,0.46c-1.787,1.536-2.843,3.594-3.645,5.807
	c-1.22,3.372-2.239,6.881-2.571,10.464c-0.317,3.427,0.269,7.228,0.708,10.639c0.455,3.535,1.476,7.14,4.462,9.36
	c3.071,2.281,7.051,3.237,10.631,4.391c4.691,1.514,9.663,0.852,14.478,1.483c4.777,0.624,9.057,2.625,13.228,4.89
	c-5.343,18.025,7.19,44.283,7.19,44.283c2.548,3.628,5.934,6.561,9.684,8.934c3.649,4.86,8.373,12.363,6.186,16.262
	c-3.4,6.062-14.338,11.09-12.712,16.411c1.265,4.143,10.144,14.643,14.016,19.093l2.12,2.517h29.367l-9.635-12.788
	c-3.001-4.68-5.303-9.331-4.088-11.186c2.808-4.288,11.918-12.785,10.199-17.296c-0.362-0.951-1.378-2.331-2.748-3.914
	c5.726-2.521,7.6-16.291,14.889-23.728c8.207-8.372,16.581,15.074,29.309,21.268c2.971,1.446,6.354,1.823,9.912,1.412
	c1.503,3.128,2.261,6.166,1.114,8.211c-3.399,6.062-14.337,11.09-12.712,16.411c0.83,2.715,4.929,8.16,8.747,12.844l-0.033,0.005
	l2.337,2.775c0.1,0.119,0.2,0.238,0.299,0.355l4.965,5.897h29.366l-9.641-12.798l0.026,0.045c-3.095-4.78-5.524-9.593-4.283-11.489
	c2.806-4.288,11.92-12.785,10.197-17.296c-1.093-2.872,2.863-20.068,5.882-32.181c4.551-10.05,6.607-24.101,6.405-33.319
	c7.293-20.753,4.303-36.878,11.451-56.441c7.149-19.565,7.367-44.828,7.367-44.828s0.178-6.103-0.664-12.739
	c5.169-3.887,9.289-9.144,11.844-15.249c18.087-13.637,30.11-37.705,30.11-65.14c0-16.245-4.222-31.306-11.413-43.728
	c4.427-2.556,9.197-5.305,14.241-7.753C301.054,86.98,338.057,120.263,320.211,76.8z M237.346,58.848
	c-0.227,1.079-0.461,2.155-0.694,3.232c-0.342-0.304-0.691-0.595-1.052-0.861c-1.339-0.988-3.052-1.493-4.261-2.542
	C233.478,58.077,235.446,58.23,237.346,58.848z"/>
</svg>
