<?xml version="1.0" encoding="utf-8"?>
<!-- Generator: Adobe Illustrator 17.0.0, SVG Export Plug-In . SVG Version: 6.00 Build 0)  -->
<!DOCTYPE svg PUBLIC "-//W3C//DTD SVG 1.1 Basic//EN" "http://www.w3.org/Graphics/SVG/1.1/DTD/svg11-basic.dtd">
<svg version="1.1" baseProfile="basic" id="Слой_1"
	 xmlns="http://www.w3.org/2000/svg" xmlns:xlink="http://www.w3.org/1999/xlink" x="0px" y="0px" width="116.175px"
	 height="153.947px" viewBox="0 0 116.175 153.947" xml:space="preserve">
<path fill="#CE953A" d="M99.161,0c0,0,3.282,18.128-5.314,30.789c-8.602,12.658-19.419,18.519-19.419,18.519
	c-4.897-4.695-31.764,0.352-72.323-6.797c-0.253-0.045-0.516-0.097-0.772-0.145c-1.544,4.288-1.985,8.682-0.027,12.598
	c6,12,20,20,26,32c6,13,1,32,15,38c14.803,6.056,23.269,17.545,32.402,28.983c12.108-33.819,8.757-73.23,4.151-92.749
	c7.522-2.082,33.464-10.419,36.556-27.127C120.411,7.033,99.161,0,99.161,0z"/>
</svg>
