<?xml version="1.0" encoding="utf-8"?>
<!-- Generator: Adobe Illustrator 17.0.0, SVG Export Plug-In . SVG Version: 6.00 Build 0)  -->
<!DOCTYPE svg PUBLIC "-//W3C//DTD SVG 1.1 Basic//EN" "http://www.w3.org/Graphics/SVG/1.1/DTD/svg11-basic.dtd">
<svg version="1.1" baseProfile="basic" id="Слой_1"
	 xmlns="http://www.w3.org/2000/svg" xmlns:xlink="http://www.w3.org/1999/xlink" x="0px" y="0px" width="123.997px"
	 height="134.014px" viewBox="0 0 123.997 134.014" xml:space="preserve">
<path fill="#EEBF31" d="M121.066,67.764c11-18-12-28-19-40c-3-5,0-13-2-20c-1.469-2.939-3.751-4.794-6.294-6.268
	c-6.26,1.955-12.128,3.583-16.76,4.796C69.385,2.3,60.474,0,50.949,0C22.808,0,0,20.012,0,44.698
	c0,24.683,22.808,44.695,50.949,44.695c15.52,0,29.411-6.097,38.757-15.7c0.006-0.001,0.012-0.003,0.017-0.004l-0.003,0.002
	c0,0,16.515,17.225,6.083,29.534C85.369,115.532,74,98.537,74,98.537s-2.033,7.031,2.658,13.518
	c4.414,6.111,11.798,5.626,11.798,5.626s-2.774,5.353-12.151,5.937c-9.379,0.589-15.706-4.805-15.706-4.805
	s3.562,12.952,23.404,10.511c19.068-2.341,23.365-16.137,23.365-16.137s1.67,5.992,0,9.727c-2.345,5.24-9.535,11.1-9.535,11.1
	s12.499-4.373,16.214-14.031c3.323-8.633,0-15.705,0-15.705s5.2-5.233,6.138-16.371c0.937-11.123-1.093-14.894-1.097-14.901
	c0.25,0.042,0.484,0.082,0.715,0.122C119.667,71.264,120.001,69.468,121.066,67.764z"/>
</svg>
