<?xml version="1.0" encoding="utf-8"?>
<!-- Generator: Adobe Illustrator 17.0.0, SVG Export Plug-In . SVG Version: 6.00 Build 0)  -->
<!DOCTYPE svg PUBLIC "-//W3C//DTD SVG 1.1 Basic//EN" "http://www.w3.org/Graphics/SVG/1.1/DTD/svg11-basic.dtd">
<svg version="1.1" baseProfile="basic" id="Слой_1"
	 xmlns="http://www.w3.org/2000/svg" xmlns:xlink="http://www.w3.org/1999/xlink" x="0px" y="0px" width="221.697px"
	 height="201.318px" viewBox="0 0 221.697 201.318" xml:space="preserve">
<path fill="#3FA556" d="M189.297,149.212c-14-6-9-25-15-38c-6-12-20-20-26-32c-1.958-3.916-1.517-8.31,0.027-12.598
	c-10.294-1.907-23.128-6.072-35.851-10.642h-0.001c-4.01-1.44-8.008-2.919-11.911-4.38l5.979,2.202c0-0.001,0-0.002,0-0.003
	l5.931,2.181h0.001c0,0,16.617-3.749,26.622-16.719c10.001-12.969,9.066-19.535,9.066-19.535s-13.287-3.127-28.449,3.752
	c-15.154,6.872-19.241,28.077-19.243,28.088c-1.513-0.567-3.011-1.13-4.49-1.688c0.63-1.37,1.268-2.835,1.887-4.362
	c0.001,0.001,0.002,0.001,0.003,0.002c0.016-0.04,0.031-0.083,0.046-0.122c0.443-1.099,0.874-2.231,1.284-3.382
	c0.007-0.021,0.016-0.04,0.023-0.061H99.22c1.433-4.034,2.595-8.317,3.008-12.368c0.154-1.505,0.167-3.042,0.077-4.583l0,0
	c0-0.003-0.001-0.005-0.001-0.008c-0.04-0.681-0.097-1.362-0.177-2.042c-0.002-0.016-0.002-0.033-0.004-0.049
	c-0.001,0-0.001,0-0.002,0c-1.363-11.515-8.127-22.649-9.53-22.526c-1.34,0.117-0.717,12.323-2.594,21.217
	c-0.1,0.458-0.199,0.913-0.309,1.35l0,0c-0.422,1.672-0.949,3.186-1.615,4.423c-1.894,3.513-3.863,6.32-5.781,8.581
	c-0.342,0.402-0.683,0.791-1.019,1.158c-0.065,0.071-0.13,0.144-0.195,0.214c-0.422,0.454-0.841,0.886-1.251,1.29
	c-1.527,1.49-2.867,2.743-4.018,3.789c-7.569-2.662-13.286-4.335-15.796-4.075c-0.131,0.014-0.262,0.037-0.393,0.055
	c-0.665-0.627-1.354-1.339-2.058-2.145c-0.362-0.415-0.727-0.854-1.095-1.319c-0.011-0.013-0.021-0.028-0.032-0.041
	c-0.372-0.472-0.745-0.97-1.118-1.499c-0.001,0.001-0.002,0.001-0.003,0.002c-1.546-2.183-3.096-4.85-4.53-8.103
	c-0.525-1.193-0.901-2.631-1.168-4.207l0,0c-0.075-0.445-0.14-0.901-0.198-1.362l0,0c-1.059-8.343,0.398-19.487-0.829-19.694
	c-1.287-0.215-8.348,9.573-10.45,20.11c-0.001,0-0.003-0.001-0.004-0.001c-0.007,0.035-0.011,0.072-0.018,0.107
	c-0.113,0.574-0.207,1.151-0.289,1.728c-0.004,0.03-0.011,0.059-0.015,0.088c0.001,0,0.002,0,0.003-0.001
	c-0.196,1.417-0.296,2.838-0.265,4.24c0.11,4.88,1.346,10.214,2.838,14.956c0.008,0.025,0.015,0.052,0.023,0.077
	c0.001,0,0.001-0.001,0.002-0.001c0.019,0.061,0.039,0.122,0.059,0.183c-0.854,0.249-1.673,0.571-2.465,0.944
	c-2.466-2.169-5.849-3.511-9.586-3.511c-7.544,0-13.662,5.461-13.662,12.192c0,3.936,2.1,7.426,5.344,9.655
	C13.616,63.463,6.591,65.885,0,67.944c2.543,1.474,4.825,3.329,6.294,6.268c2,7-1,15,2,20c7,12,30,22,19,40
	c-1.065,1.704-1.399,3.499-1.264,5.365c2.066,0.357,3.349,0.638,3.349,0.638s0.015,0.011,0.022,0.016
	c-0.147,0.254,1.164,1.952,2.858,2.158c2.429,1.904,6.051,4.907,9.488,8.383c9.325-4.13,22.143,3.503,29.548,8.44c4,2,8,9,14,10
	c19,4,38-9,54,1c9,6,11,21,22,23c16,2,36-8,47,6c0.587,0.685,1.163,1.392,1.737,2.106c4.916-7.147,8.745-14.969,11.665-23.123
	C212.566,166.757,204.101,155.268,189.297,149.212z"/>
</svg>
