<?xml version="1.0" encoding="utf-8"?>
<!-- Generator: Adobe Illustrator 17.0.0, SVG Export Plug-In . SVG Version: 6.00 Build 0)  -->
<!DOCTYPE svg PUBLIC "-//W3C//DTD SVG 1.1 Basic//EN" "http://www.w3.org/Graphics/SVG/1.1/DTD/svg11-basic.dtd">
<svg version="1.1" baseProfile="basic" id="Слой_1"
	 xmlns="http://www.w3.org/2000/svg" xmlns:xlink="http://www.w3.org/1999/xlink" x="0px" y="0px" width="375px" height="305px"
	 viewBox="0 0 375 305" xml:space="preserve">
<path fill="#A8A8A8" stroke="#272525" stroke-width="3" stroke-miterlimit="10" d="M292.297,164.214c-14-6-9-25-15-38
	c-6-12-20-20-26-32c-1.958-3.916-1.517-8.31,0.027-12.598c-10.294-1.907-23.128-6.072-35.851-10.642h-0.001
	c-4.01-1.44-8.008-2.919-11.911-4.38l5.979,2.202c0-0.001,0-0.002,0-0.003l5.931,2.181h0.001c0,0,16.617-3.749,26.622-16.719
	c10.001-12.969,9.066-19.535,9.066-19.535s-13.287-3.127-28.449,3.752c-15.154,6.872-19.241,28.077-19.243,28.088
	c-1.513-0.567-3.011-1.13-4.49-1.688c0.63-1.37,1.268-2.835,1.887-4.362c0.001,0.001,0.002,0.001,0.003,0.002
	c0.016-0.04,0.031-0.083,0.046-0.122c0.443-1.099,0.874-2.231,1.284-3.382c0.007-0.021,0.016-0.04,0.023-0.061h-0.001
	c1.433-4.034,2.595-8.317,3.008-12.368c0.154-1.505,0.167-3.042,0.077-4.583l0,0c0-0.003-0.001-0.005-0.001-0.008
	c-0.04-0.681-0.097-1.362-0.177-2.042c-0.002-0.016-0.002-0.033-0.004-0.049c-0.001,0-0.001,0-0.002,0
	c-1.363-11.515-8.127-22.649-9.53-22.526c-1.34,0.117-0.717,12.323-2.594,21.217c-0.1,0.458-0.199,0.913-0.309,1.35l0,0
	c-0.422,1.672-0.949,3.186-1.615,4.423c-1.894,3.513-3.863,6.32-5.781,8.581c-0.342,0.402-0.683,0.791-1.019,1.158
	c-0.065,0.071-0.13,0.144-0.195,0.214c-0.422,0.454-0.841,0.886-1.251,1.29c-1.527,1.49-2.867,2.743-4.018,3.789
	c-7.569-2.662-13.286-4.335-15.796-4.075c-0.131,0.014-0.262,0.037-0.393,0.055c-0.665-0.627-1.354-1.339-2.058-2.145
	c-0.362-0.415-0.727-0.854-1.095-1.319c-0.011-0.013-0.021-0.028-0.032-0.041c-0.372-0.472-0.745-0.97-1.118-1.499
	c-0.001,0.001-0.002,0.001-0.003,0.002c-1.546-2.183-3.096-4.85-4.53-8.103c-0.525-1.193-0.901-2.631-1.168-4.207l0,0
	c-0.075-0.445-0.14-0.901-0.198-1.362l0,0c-1.059-8.343,0.398-19.487-0.829-19.694c-1.287-0.215-8.348,9.573-10.45,20.11
	c-0.001,0-0.003-0.001-0.004-0.001c-0.007,0.035-0.011,0.072-0.018,0.107c-0.113,0.574-0.207,1.151-0.289,1.728
	c-0.004,0.03-0.011,0.059-0.015,0.088c0.001,0,0.002,0,0.003-0.001c-0.196,1.417-0.296,2.838-0.265,4.24
	c0.11,4.88,1.346,10.214,2.838,14.956c0.008,0.025,0.015,0.052,0.023,0.077c0.001,0,0.001-0.001,0.002-0.001
	c0.019,0.061,0.039,0.122,0.059,0.183c-0.854,0.249-1.673,0.571-2.465,0.944c-2.466-2.169-5.849-3.511-9.586-3.511
	c-7.544,0-13.662,5.461-13.662,12.192c0,3.936,2.1,7.426,5.344,9.655c-6.488,2.694-13.513,5.116-20.104,7.175
	c2.543,1.474,4.825,3.329,6.294,6.268c2,7-1,15,2,20c7,12,30,22,19,40c-1.065,1.704-1.399,3.499-1.264,5.365
	c2.066,0.357,3.349,0.638,3.349,0.638s0.015,0.011,0.022,0.016c-0.147,0.254,1.164,1.952,2.858,2.158
	c2.429,1.904,6.051,4.907,9.488,8.383c9.325-4.13,22.143,3.503,29.548,8.44c4,2,8,9,14,10c19,4,38-9,54,1c9,6,11,21,22,23
	c16,2,36-8,47,6c0.587,0.685,1.163,1.392,1.737,2.106c4.916-7.147,8.745-14.969,11.665-23.123
	C315.566,181.759,307.101,170.27,292.297,164.214z"/>
<path fill="#A8A8A8" stroke="#272525" stroke-width="3" stroke-miterlimit="10" d="M264.548,208.622c-11-2-13-17-22-23
	c-16-10-35,3-54-1c-6-1-10-8-14-10c-7.405-4.937-20.223-12.57-29.548-8.44c3.467,3.506,6.746,7.493,8.421,11.32
	c7.033,16.101,2.992,29.029,15.625,46.108c3.097,4.185,7.88,7.864,13.85,10.975c-0.015,1.978-0.06,4.182-0.157,6.542
	c-0.273,6.637-1.817,11.591-2.594,13.704c-1.218-0.667-3.177,3.617-5.452,6.119c-2.734,3.011-5.854,5.128-5.65,6.067
	c0.368,1.721,3.436,1.968,6.324,1.11c2.887-0.862,6.39-2.522,6.39-2.522s0.933,1.849,1.073,3.716
	c0.232,3.042-1.012,5.083-0.459,5.458c1.612,1.085,7.038-2.079,9.258-6.746c2.222-4.667,2.991-9.912,2.991-9.912
	s-0.006,0.001-0.007,0.001c1.099-0.718,2.032-1.497,2.684-2.249c2.472-2.86,3.403-8.681,3.654-14.48
	c1.811,0.488,3.661,0.944,5.551,1.362c-0.029,1.012-0.062,2.042-0.105,3.106c-0.347,8.444-2.31,14.746-3.299,17.434
	c-1.549-0.851-4.045,4.6-6.936,7.784c-3.478,3.826-7.447,6.523-7.192,7.716c0.471,2.188,4.374,2.505,8.047,1.408
	c3.674-1.091,8.13-3.206,8.13-3.206s1.187,2.354,1.365,4.728c0.292,3.87-1.289,6.465-0.584,6.938
	c2.051,1.385,8.954-2.641,11.778-8.578c2.827-5.938,3.801-12.607,3.801-12.607l-0.011,0.001c1.4-0.914,2.59-1.906,3.419-2.865
	c3.18-3.677,4.356-11.207,4.659-18.663c3.245,0.206,6.517,0.313,9.792,0.325c0.152,0.001,0.305,0.002,0.457,0.002
	c0.597,0.001,1.194-0.003,1.792-0.009c0.232-0.002,0.464-0.005,0.696-0.008c0.56-0.008,1.12-0.019,1.68-0.033
	c0.269-0.007,0.537-0.015,0.805-0.023c0.068-0.002,0.137-0.004,0.205-0.006c-0.009,1.361-0.072,2.627-0.212,3.703
	c-0.859,6.635-2.825,11.546-2.825,11.546s-1.781,2.829-4.975,5.04c-3.198,2.211-7.068,3.011-7.311,4.239
	c-0.248,1.23,3.378,2.641,9.461,1.844c6.083-0.802,9.521-4.73,9.521-4.73s0.439,3.402-0.491,6.508
	c-0.922,3.072-2.885,4.67-2.151,5.96c0.434,0.758,3.329,0.423,6.215-1.283c1.609,1.076,5.587,1.842,11.247,1.098
	c7.738-1.019,12.113-6.019,12.113-6.019s0.562,4.331-0.623,8.282c-1.172,3.91-3.675,5.943-2.736,7.584
	c0.938,1.642,10.941-0.703,14.535-8.908c3.563-8.138,1.644-13.605,1.611-13.697c1.85-2.152,4.545-6.878,4.951-16.392
	c0.256-5.996-0.139-11.287-0.697-15.452c0.468-0.242,0.93-0.49,1.388-0.741c0.051-0.028,0.104-0.055,0.156-0.083
	c0.617-0.341,1.224-0.69,1.82-1.047c0.146-0.087,0.287-0.178,0.432-0.266c0.439-0.268,0.875-0.538,1.302-0.815
	c0.196-0.127,0.387-0.256,0.58-0.385c0.371-0.246,0.738-0.495,1.099-0.749c0.203-0.142,0.403-0.286,0.603-0.431
	c0.346-0.251,0.688-0.505,1.025-0.762c0.193-0.147,0.386-0.295,0.576-0.444c0.107-0.084,0.218-0.165,0.323-0.249
	c0.022-0.017,0.031-0.036,0.049-0.054c1.972-1.584,3.777-3.282,5.373-5.108c2.137-2.445,4.099-5.011,5.922-7.663
	c-0.574-0.714-1.15-1.421-1.737-2.106C300.548,200.622,280.548,210.622,264.548,208.622z M270.673,251.286
	c-1.093,8.44-3.597,14.692-3.597,14.692s-2.261,3.597-6.328,6.411c-1.302,0.902-2.691,1.618-3.99,2.227
	c0.249-0.415,0.483-0.846,0.684-1.308c2.828-6.449,1.27-10.771,1.27-10.771h-0.001c1.455-1.689,3.575-5.393,3.895-12.878
	c0.075-1.764,0.072-3.438,0.024-5.029c0.313-0.047,0.623-0.099,0.935-0.149c0.31-0.049,0.62-0.096,0.929-0.148
	c0.722-0.12,1.441-0.246,2.156-0.378c0.094-0.017,0.189-0.034,0.283-0.051c0.759-0.141,1.514-0.29,2.265-0.445
	c0.256-0.053,0.509-0.109,0.764-0.163c0.308-0.065,0.617-0.13,0.923-0.197C270.996,246.135,270.965,249.033,270.673,251.286z"/>
<path fill="#A8A8A8" stroke="#272525" stroke-width="3" stroke-miterlimit="10" d="M349.161,39c0,0,3.282,18.128-5.314,30.789
	c-8.602,12.658-19.419,18.519-19.419,18.519c-4.897-4.695-31.764,0.352-72.323-6.797c-0.253-0.045-0.516-0.097-0.772-0.145
	c-1.544,4.288-1.985,8.682-0.027,12.598c6,12,20,20,26,32c6,13,1,32,15,38c14.803,6.056,23.269,17.545,32.402,28.983
	c12.108-33.819,8.757-73.23,4.151-92.749c7.522-2.082,33.464-10.419,36.556-27.127C370.411,46.033,349.161,39,349.161,39z"/>
<path fill="#A8A8A8" stroke="#272525" stroke-width="3" stroke-miterlimit="10" d="M130.066,148.764c11-18-12-28-19-40
	c-3-5,0-13-2-20c-1.469-2.939-3.751-4.794-6.294-6.268c-6.26,1.955-12.128,3.583-16.76,4.796C78.385,83.3,69.474,81,59.949,81
	C31.808,81,9,101.012,9,125.698c0,24.683,22.808,44.695,50.949,44.695c15.52,0,29.411-6.097,38.757-15.7
	c0.006-0.001,0.012-0.003,0.017-0.004l-0.003,0.002c0,0,16.515,17.225,6.083,29.534C94.369,196.532,83,179.537,83,179.537
	s-2.033,7.031,2.658,13.518c4.414,6.111,11.798,5.626,11.798,5.626s-2.774,5.353-12.151,5.937
	c-9.379,0.589-15.706-4.805-15.706-4.805s3.562,12.952,23.404,10.511c19.068-2.341,23.365-16.137,23.365-16.137s1.67,5.992,0,9.727
	c-2.345,5.24-9.535,11.1-9.535,11.1s12.499-4.373,16.214-14.031c3.323-8.633,0-15.705,0-15.705s5.2-5.233,6.138-16.371
	c0.937-11.123-1.093-14.894-1.097-14.901c0.25,0.042,0.484,0.082,0.715,0.122C128.667,152.264,129.001,150.468,130.066,148.764z"/>
</svg>
