<?xml version="1.0" encoding="utf-8"?>
<!-- Generator: Adobe Illustrator 17.0.0, SVG Export Plug-In . SVG Version: 6.00 Build 0)  -->
<!DOCTYPE svg PUBLIC "-//W3C//DTD SVG 1.1 Basic//EN" "http://www.w3.org/Graphics/SVG/1.1/DTD/svg11-basic.dtd">
<svg version="1.1" baseProfile="basic" id="Слой_1"
	 xmlns="http://www.w3.org/2000/svg" xmlns:xlink="http://www.w3.org/1999/xlink" x="0px" y="0px" width="168.282px"
	 height="125.463px" viewBox="0 0 168.282 125.463" xml:space="preserve">
<path fill="#D36234" d="M119.548,43.622c-11-2-13-17-22-23c-16-10-35,3-54-1c-6-1-10-8-14-10C22.143,4.685,9.325-2.948,0,1.182
	c3.467,3.506,6.746,7.493,8.421,11.32c7.033,16.101,2.992,29.029,15.625,46.108c3.097,4.185,7.88,7.864,13.85,10.975
	c-0.015,1.978-0.06,4.182-0.157,6.542c-0.273,6.637-1.817,11.591-2.594,13.704c-1.218-0.667-3.177,3.617-5.452,6.119
	c-2.734,3.011-5.854,5.128-5.65,6.067c0.368,1.721,3.436,1.968,6.324,1.11c2.887-0.862,6.39-2.522,6.39-2.522
	s0.933,1.849,1.073,3.716c0.232,3.042-1.012,5.083-0.459,5.458c1.612,1.085,7.038-2.079,9.258-6.746
	c2.222-4.667,2.991-9.912,2.991-9.912s-0.006,0.001-0.007,0.001c1.099-0.718,2.032-1.497,2.684-2.249
	c2.472-2.86,3.403-8.681,3.654-14.48c1.811,0.488,3.661,0.944,5.551,1.362c-0.029,1.012-0.062,2.042-0.105,3.106
	c-0.347,8.444-2.31,14.746-3.299,17.434c-1.549-0.851-4.045,4.6-6.936,7.784c-3.478,3.826-7.447,6.523-7.192,7.716
	c0.471,2.188,4.374,2.505,8.047,1.408c3.674-1.091,8.13-3.206,8.13-3.206s1.187,2.354,1.365,4.728
	c0.292,3.87-1.289,6.465-0.584,6.938c2.051,1.385,8.954-2.641,11.778-8.578c2.827-5.938,3.801-12.607,3.801-12.607l-0.011,0.001
	c1.4-0.914,2.59-1.906,3.419-2.865c3.18-3.677,4.356-11.207,4.659-18.663c3.245,0.206,6.517,0.313,9.792,0.325
	c0.152,0.001,0.305,0.002,0.457,0.002c0.597,0.001,1.194-0.003,1.792-0.009c0.232-0.002,0.464-0.005,0.696-0.008
	c0.56-0.008,1.12-0.019,1.68-0.033c0.269-0.007,0.537-0.015,0.805-0.023c0.068-0.002,0.137-0.004,0.205-0.006
	c-0.009,1.361-0.072,2.627-0.212,3.703c-0.859,6.635-2.825,11.546-2.825,11.546s-1.781,2.829-4.975,5.04
	c-3.198,2.211-7.068,3.011-7.311,4.239c-0.248,1.23,3.378,2.641,9.461,1.844c6.083-0.802,9.521-4.73,9.521-4.73
	s0.439,3.402-0.491,6.508c-0.922,3.072-2.885,4.67-2.151,5.96c0.434,0.758,3.329,0.423,6.215-1.283
	c1.609,1.076,5.587,1.842,11.247,1.098c7.738-1.019,12.113-6.019,12.113-6.019s0.562,4.331-0.623,8.282
	c-1.172,3.91-3.675,5.943-2.736,7.584c0.938,1.642,10.941-0.703,14.535-8.908c3.563-8.138,1.644-13.605,1.611-13.697
	c1.85-2.152,4.545-6.878,4.951-16.392c0.256-5.996-0.139-11.287-0.697-15.452c0.468-0.242,0.93-0.49,1.388-0.741
	c0.051-0.028,0.104-0.055,0.156-0.083c0.617-0.341,1.224-0.69,1.82-1.047c0.146-0.087,0.287-0.178,0.432-0.266
	c0.439-0.268,0.875-0.538,1.302-0.815c0.196-0.127,0.387-0.256,0.58-0.385c0.371-0.246,0.738-0.495,1.099-0.749
	c0.203-0.142,0.403-0.286,0.603-0.431c0.346-0.251,0.688-0.505,1.025-0.762c0.193-0.147,0.386-0.295,0.576-0.444
	c0.107-0.084,0.218-0.165,0.323-0.249c0.022-0.017,0.031-0.036,0.049-0.054c1.972-1.584,3.777-3.282,5.373-5.108
	c2.137-2.445,4.099-5.011,5.922-7.663c-0.574-0.714-1.15-1.421-1.737-2.106C155.548,35.622,135.548,45.622,119.548,43.622z
	 M125.673,86.286c-1.093,8.44-3.597,14.692-3.597,14.692s-2.261,3.597-6.328,6.411c-1.302,0.902-2.691,1.618-3.99,2.227
	c0.249-0.415,0.483-0.846,0.684-1.308c2.828-6.449,1.27-10.771,1.27-10.771h-0.001c1.455-1.689,3.575-5.393,3.895-12.878
	c0.075-1.764,0.072-3.438,0.024-5.029c0.313-0.047,0.623-0.099,0.935-0.149c0.31-0.049,0.62-0.096,0.929-0.148
	c0.722-0.12,1.441-0.246,2.156-0.378c0.094-0.017,0.189-0.034,0.283-0.051c0.759-0.141,1.514-0.29,2.265-0.445
	c0.256-0.053,0.509-0.109,0.764-0.163c0.308-0.065,0.617-0.13,0.923-0.197C125.996,81.135,125.965,84.033,125.673,86.286z"/>
</svg>
