<?xml version="1.0" encoding="utf-8"?>
<!-- Generator: Adobe Illustrator 17.0.0, SVG Export Plug-In . SVG Version: 6.00 Build 0)  -->
<!DOCTYPE svg PUBLIC "-//W3C//DTD SVG 1.1 Basic//EN" "http://www.w3.org/Graphics/SVG/1.1/DTD/svg11-basic.dtd">
<svg version="1.1" baseProfile="basic" id="Слой_1"
	 xmlns="http://www.w3.org/2000/svg" xmlns:xlink="http://www.w3.org/1999/xlink" x="0px" y="0px" width="71.453px"
	 height="82.883px" viewBox="0 0 71.453 82.883" xml:space="preserve">
<path fill="#369371" d="M71.419,55.679c-0.005-0.083-0.008-0.164-0.014-0.248c-0.014-0.187-0.032-0.382-0.051-0.575
	c-0.008-0.081-0.014-0.161-0.023-0.244c-0.06-0.595-0.133-1.23-0.207-1.922c-0.01-0.093-0.02-0.188-0.029-0.284
	c-0.025-0.237-0.048-0.485-0.071-0.736c-0.012-0.132-0.024-0.265-0.036-0.402c-0.02-0.239-0.038-0.49-0.056-0.744
	c-0.01-0.15-0.021-0.298-0.031-0.454c-0.016-0.275-0.029-0.566-0.041-0.859c-0.006-0.147-0.014-0.287-0.019-0.439
	c-0.014-0.451-0.023-0.921-0.023-1.419c0.003-6.795-6.12-30.046-8.954-35.689C58.913,5.788,46.813-2.583,40.795,0.766
	c-0.48,0.267-0.929,0.52-1.358,0.764c-0.058,0.033-0.127,0.071-0.185,0.104c0.001,0,0.003,0,0.004,0
	c-11.882,6.79-4.409,5.195-16.072,19.74C16.665,29.502,8.71,32.337,10.658,35.216c0.065,0.096,0.407,0.086,0.476-0.035
	c0.071-0.124,0.144-0.22,0.215-0.335c-0.142,0.227-0.284,0.451-0.422,0.714c0.378,0.446,0.555,1.053,0.59,1.776
	c-0.458,0.846-0.563,1.786-0.35,2.636C8.753,49.297-4.866,68.095,1.837,73.286c0.002,0.002,0.006,0.004,0.009,0.005
	c1.171,0.907,0.422,0.353,0.159,0.718c-0.905,1.253,0.693,3.354,1.977,4.478c0.409,0.356,1.245,0.971,1.233,0.967
	c0.041,0.029,0.086,0.052,0.127,0.081c0.313,0.22,0.637,0.416,0.961,0.613c0.217,0.131,0.431,0.266,0.653,0.387
	c0.328,0.179,0.664,0.339,1.002,0.495c0.231,0.107,0.463,0.214,0.699,0.311c0.344,0.141,0.693,0.269,1.046,0.389
	c0.243,0.083,0.488,0.162,0.736,0.236c0.359,0.106,0.722,0.204,1.09,0.291c0.251,0.059,0.505,0.112,0.76,0.162
	c0.376,0.074,0.754,0.143,1.138,0.199c0.254,0.037,0.512,0.065,0.77,0.093c0.395,0.044,0.791,0.086,1.193,0.112
	c0.25,0.016,0.503,0.021,0.755,0.031c0.419,0.015,0.838,0.031,1.263,0.029c0.229-0.001,0.461-0.014,0.691-0.021
	c0.456-0.013,0.911-0.024,1.373-0.056c0.144-0.01,0.29-0.028,0.434-0.04c1.733-0.14,3.503-0.405,5.296-0.771
	c0.169-0.035,0.337-0.063,0.507-0.1c0.481-0.103,0.963-0.22,1.446-0.337c0.247-0.06,0.493-0.115,0.74-0.178
	c0.455-0.116,0.911-0.242,1.367-0.369c0.277-0.077,0.554-0.151,0.831-0.232c0.442-0.129,0.884-0.264,1.327-0.402
	c0.289-0.09,0.578-0.179,0.867-0.272c0.435-0.14,0.87-0.285,1.304-0.433c0.297-0.101,0.593-0.202,0.889-0.306
	c0.426-0.15,0.851-0.302,1.276-0.458c0.302-0.111,0.604-0.223,0.905-0.337c0.418-0.158,0.835-0.316,1.252-0.479
	c0.301-0.117,0.6-0.237,0.899-0.356c0.414-0.165,0.828-0.331,1.238-0.5c0.293-0.12,0.583-0.243,0.874-0.365
	c0.412-0.173,0.823-0.344,1.231-0.519c0.281-0.121,0.558-0.243,0.837-0.364c0.41-0.179,0.821-0.357,1.226-0.537
	c0.242-0.107,0.478-0.215,0.717-0.323c1.581-0.71,3.115-1.422,4.588-2.118c0.154-0.073,0.313-0.147,0.466-0.219
	c0.449-0.213,0.885-0.421,1.322-0.629c0.184-0.088,0.37-0.176,0.552-0.263c0.594-0.284,1.172-0.561,1.739-0.832
	c0.188-0.09,0.368-0.176,0.552-0.264c0.386-0.185,0.764-0.365,1.136-0.541c0.238-0.113,0.469-0.222,0.701-0.332
	c0.302-0.142,0.597-0.281,0.888-0.417c0.236-0.11,0.467-0.217,0.696-0.323c0.271-0.125,0.535-0.245,0.795-0.363
	c0.224-0.101,0.445-0.201,0.661-0.297c0.244-0.108,0.48-0.21,0.713-0.311c0.211-0.091,0.421-0.181,0.623-0.265
	c0.219-0.091,0.426-0.173,0.634-0.256c0.194-0.077,0.39-0.156,0.574-0.226c0.197-0.075,0.379-0.137,0.564-0.202
	c0.172-0.061,0.35-0.126,0.511-0.178c0.668-0.216,1.251-0.362,1.727-0.417c0.797-0.089,4.828-3.22,4.828-3.22
	c0.431-0.704,0.776-1.34,1.065-1.94c0.002-0.001,0.004-0.001,0.006-0.001c0.014-0.029,0.024-0.055,0.038-0.084
	c0.071-0.15,0.132-0.294,0.196-0.438c0.069-0.157,0.138-0.314,0.197-0.465c0.057-0.144,0.107-0.285,0.156-0.424
	c0.051-0.143,0.099-0.286,0.142-0.426c0.042-0.137,0.081-0.272,0.116-0.406c0.036-0.135,0.068-0.27,0.097-0.402
	c0.029-0.131,0.057-0.263,0.08-0.393s0.041-0.26,0.058-0.389c0.017-0.128,0.036-0.256,0.047-0.383
	c0.012-0.127,0.018-0.255,0.025-0.383c0.007-0.127,0.017-0.256,0.02-0.383c0.008-0.119,0.004-0.242,0.003-0.365
	C71.449,56.28,71.439,55.982,71.419,55.679z M34.462,32.394c-2.656-3.463-8.323-4.423-14.456,1.181
	c-0.654-0.161-1.487-0.587-2.415-0.924c0.927,0.337,1.76,0.761,2.414,0.922C26.139,27.968,31.807,28.93,34.462,32.394z M21.954,56.6
	c1.747,2.439,5.827,5.288,7.783,8.293C27.779,61.887,23.699,59.039,21.954,56.6z M15.855,32.221c0.138,0.015,0.274,0.038,0.41,0.063
	C16.129,32.259,15.993,32.235,15.855,32.221z M16.451,32.316c0.144,0.031,0.286,0.069,0.428,0.109
	C16.737,32.385,16.595,32.347,16.451,32.316z M17.032,32.466c0.159,0.048,0.314,0.1,0.468,0.155
	C17.346,32.566,17.19,32.513,17.032,32.466z M15.647,32.209c-0.133-0.008-0.266-0.016-0.4-0.013
	C15.381,32.193,15.514,32.2,15.647,32.209z M12.539,33.362c-0.118,0.11-0.237,0.223-0.354,0.352
	C12.303,33.585,12.421,33.472,12.539,33.362z M15.025,32.214c-0.131,0.01-0.261,0.021-0.393,0.045
	C14.764,32.235,14.894,32.224,15.025,32.214z M14.4,32.315c-0.128,0.031-0.257,0.064-0.385,0.11
	C14.143,32.379,14.272,32.346,14.4,32.315z M13.775,32.529c-0.125,0.055-0.251,0.112-0.376,0.183
	C13.524,32.641,13.649,32.584,13.775,32.529z M13.153,32.873c-0.122,0.081-0.244,0.165-0.365,0.264
	C12.909,33.037,13.031,32.954,13.153,32.873z M11.937,34.014c-0.114,0.142-0.228,0.287-0.341,0.449
	C11.708,34.301,11.822,34.156,11.937,34.014z"/>
</svg>
