<?xml version="1.0" encoding="utf-8"?>
<!-- Generator: Adobe Illustrator 17.0.0, SVG Export Plug-In . SVG Version: 6.00 Build 0)  -->
<!DOCTYPE svg PUBLIC "-//W3C//DTD SVG 1.1 Basic//EN" "http://www.w3.org/Graphics/SVG/1.1/DTD/svg11-basic.dtd">
<svg version="1.1" baseProfile="basic" id="Слой_1"
	 xmlns="http://www.w3.org/2000/svg" xmlns:xlink="http://www.w3.org/1999/xlink" x="0px" y="0px" width="60.791px"
	 height="150.527px" viewBox="0 0 60.791 150.527" xml:space="preserve">
<path fill="#3FA457" d="M60.782,118.501c-0.007-0.352-0.02-0.707-0.037-1.064c-0.003-0.066-0.006-0.132-0.01-0.199
	c-0.046-0.832-0.12-1.674-0.22-2.519c-0.007-0.055-0.014-0.109-0.02-0.163c-0.046-0.374-0.097-0.748-0.152-1.123
	c-0.009-0.061-0.017-0.121-0.027-0.182c-0.129-0.841-0.281-1.679-0.456-2.51c-0.016-0.077-0.033-0.153-0.05-0.23
	c-0.072-0.334-0.147-0.666-0.226-0.996c-0.022-0.093-0.044-0.186-0.067-0.28c-0.098-0.397-0.198-0.793-0.305-1.183
	c-6.287-22.983,3.59-50.157-2.829-78.283C52.77,13.947,42.999,6.563,31.193,2.689C23.928,0.307,15.59-0.088,7.152,0.015
	C7.199,7.8,8.1,15.443,9.526,22.574C12.466,39.23,7.717,56.838,0,71.652c0.164-0.021,0.333-0.034,0.497-0.056
	c8.574,22.792,25.931,46.374,41.743,56.254c2.087,1.356,3.952,2.316,5.637,2.968c-0.01-0.004-0.02-0.006-0.03-0.01
	c0.971,3.351,2.061,8.164-1.076,6.585c-1.223-0.617-12.179-0.901-14.14,3.6c-0.056,0.137,0.307,0.789,0.977,0.505
	c0.667-0.277,1.824-1.553,3.912-1.949c3.623-0.68,5.12-0.175,5.232-0.018c0.14,0.211-2.058,0.302-5.455,1.7
	c-2.301,0.944-4.593,3.671-3.829,3.296c0.332-0.157,1.248,0.155,1.713-0.046c3.245-1.385,7.822-3.682,8.515-2.324
	c0.294,0.571-3.029,1.192-4.674,1.984c-1.53,0.726-3.227,1.982-3.966,3.093c-0.969,1.444,1.745,0.469,3.506-0.411
	c0.665-0.34,1.449-0.662,1.571-0.845c0.875-1.286,9.728-3.933,1.436,1.175c-2.078,1.286-4.103,2.608-3.428,3.05
	c1.109,0.733,2.781,0.145,4.724-1.03c12.802-7.713,15.155-0.927,12.966-15.547c0.435-1.124,0.738-2.113,0.929-2.977
	c0.01-0.008,0.022-0.013,0.033-0.021c0.095-0.068,0.184-0.144,0.275-0.217c0.119-0.096,0.236-0.196,0.349-0.301
	c0.088-0.081,0.175-0.164,0.258-0.25c0.121-0.124,0.236-0.256,0.349-0.39c0.063-0.074,0.129-0.144,0.19-0.222
	c0.158-0.203,0.307-0.418,0.449-0.641c0.062-0.096,0.119-0.198,0.178-0.298c0.09-0.153,0.178-0.31,0.261-0.472
	c0.055-0.106,0.109-0.212,0.161-0.321c0.093-0.196,0.181-0.398,0.265-0.604c0.031-0.076,0.065-0.148,0.095-0.225
	c0.107-0.279,0.205-0.568,0.296-0.863c0.032-0.102,0.06-0.207,0.09-0.31c0.063-0.219,0.122-0.442,0.177-0.669
	c0.026-0.107,0.052-0.214,0.076-0.324c0.065-0.291,0.124-0.588,0.177-0.89c0.006-0.037,0.014-0.072,0.02-0.11
	c0.058-0.348,0.107-0.705,0.15-1.066c0.01-0.087,0.019-0.175,0.028-0.263c0.031-0.291,0.058-0.586,0.079-0.884
	c0.006-0.088,0.013-0.176,0.019-0.264c0.048-0.768,0.065-1.556,0.054-2.359C60.785,118.626,60.783,118.563,60.782,118.501z"/>
</svg>
