<?xml version="1.0" encoding="utf-8"?>
<!-- Generator: Adobe Illustrator 17.0.0, SVG Export Plug-In . SVG Version: 6.00 Build 0)  -->
<!DOCTYPE svg PUBLIC "-//W3C//DTD SVG 1.1 Basic//EN" "http://www.w3.org/Graphics/SVG/1.1/DTD/svg11-basic.dtd">
<svg version="1.1" baseProfile="basic" id="Слой_1"
	 xmlns="http://www.w3.org/2000/svg" xmlns:xlink="http://www.w3.org/1999/xlink" x="0px" y="0px" width="56.648px"
	 height="33.26px" viewBox="0 0 56.648 33.26" xml:space="preserve">
<path fill="#68B8BF" d="M39.901,12.377c1.522,0.147,9.34,1.762,9.525,0.313c0.01-0.078-0.156-0.24-0.461-0.295
	c-2.347-0.424-13.713-3.216-18.355-4.004c-1.476-0.251,0.746-4.468,0.422-6.83c-0.573,0.101-1.153,0.172-1.749,0.172h-0.137
	c0,0,0,0,0,0C22.325,1.73,18.657,1.538,16.171,0c0.529,3.777,1.654,9.351,0.21,10.126c-6.46,3.461-20.458,6.171-15.239,9.091
	c3.481,1.956,14.064-8.099,22.046-4.481c0.908,0.411,1.768,0.88,2.608,1.406c5.874,3.654,10.327,9.733,15.049,13.12
	c1.616,1.167,4.384,2.913,6.188,3.555c10.027,3.572-17.888-15.777-8.411-11.976c1.406,0.571,7.317,5.29,12.166,7.145
	c3.77,1.444,5.919-0.165,3.177-1.642c-23.378-12.636-13.673-11.829-6.467-6.972c0-0.302,9.126,5.354,9.149,3.821
	C56.708,18.583,34.88,10.75,39.901,12.377z"/>
</svg>
