<?xml version="1.0" encoding="utf-8"?>
<!-- Generator: Adobe Illustrator 17.0.0, SVG Export Plug-In . SVG Version: 6.00 Build 0)  -->
<!DOCTYPE svg PUBLIC "-//W3C//DTD SVG 1.1 Basic//EN" "http://www.w3.org/Graphics/SVG/1.1/DTD/svg11-basic.dtd">
<svg version="1.1" baseProfile="basic" id="Слой_1"
	 xmlns="http://www.w3.org/2000/svg" xmlns:xlink="http://www.w3.org/1999/xlink" x="0px" y="0px" width="62.403px"
	 height="74.306px" viewBox="0 0 62.403 74.306" xml:space="preserve">
<path fill="#A54744" d="M58.931,61.462c-1.193-0.638-2.003-2.875-2.161-3.831c-0.017-0.101,0.073-0.525,0.12-0.656
	c0.151-0.419,0.279-0.808,0.393-1.181c-0.018,0.025-0.035,0.051-0.053,0.076c-0.497,0.678-1.08,1.248-1.751,1.697
	c-0.071,0.048-0.143,0.094-0.216,0.139c-0.679,0.415-1.446,0.705-2.308,0.854c-0.052,0.009-0.145,0.026-0.142,0.02
	c-0.33,0.05-0.676,0.077-1.035,0.083c0.357-0.008,0.704-0.034,1.034-0.084c-0.002,0.006,0.09-0.011,0.142-0.02
	c0.861-0.149,1.629-0.439,2.308-0.854c0.073-0.045,0.145-0.091,0.216-0.139c0.671-0.449,1.254-1.019,1.751-1.697
	c0.044-0.059,0.085-0.121,0.127-0.182c0.233-0.336,0.451-0.691,0.646-1.072c0.007-0.014,0.016-0.027,0.023-0.042
	c0.207-0.409,0.39-0.845,0.555-1.301c0.022-0.061,0.042-0.123,0.063-0.184c0.15-0.431,0.284-0.878,0.399-1.344
	c0.007-0.03,0.016-0.059,0.024-0.089c0.122-0.506,0.224-1.03,0.308-1.57c0.008-0.049,0.014-0.1,0.021-0.15
	c0.075-0.507,0.134-1.027,0.178-1.559c0.004-0.047,0.009-0.092,0.012-0.139c0.044-0.575,0.071-1.162,0.08-1.76
	c0-0.028,0-0.057,0-0.085c0.007-0.566-0.002-1.14-0.024-1.72c-0.001-0.061-0.003-0.124-0.006-0.188
	c-0.027-0.614-0.067-1.233-0.124-1.856c-0.001-0.006-0.001-0.013-0.002-0.019c-0.055-0.596-0.126-1.194-0.207-1.793
	c-0.012-0.091-0.024-0.182-0.037-0.273c-0.17-1.204-0.391-2.405-0.656-3.588c-0.028-0.126-0.056-0.25-0.085-0.375
	c-0.135-0.579-0.276-1.155-0.431-1.721c-0.203-0.742-0.389-1.488-0.56-2.238c-0.032-0.14-0.057-0.282-0.088-0.422
	c-0.135-0.611-0.264-1.223-0.38-1.839c-0.035-0.185-0.062-0.371-0.095-0.556c-0.102-0.574-0.201-1.148-0.287-1.726
	c-0.032-0.214-0.057-0.431-0.087-0.646c-0.077-0.55-0.151-1.1-0.215-1.653c-0.028-0.244-0.051-0.49-0.076-0.735
	c-0.055-0.526-0.109-1.053-0.154-1.583c-0.023-0.272-0.041-0.545-0.061-0.818c-0.038-0.504-0.074-1.008-0.103-1.515
	c-0.017-0.3-0.03-0.602-0.044-0.903c-0.023-0.481-0.045-0.963-0.06-1.446c-0.011-0.326-0.018-0.654-0.026-0.981
	c-0.001-0.055-0.002-0.109-0.003-0.164c-2.66-4.985-5.001-10.089-6.907-15.154C34.093,4.44,17.141,3.472,0,0
	c8.769,22.286,25.675,45.007,41.119,54.659c2.769,1.801,5.156,2.915,7.224,3.502c-0.002-0.001-0.004-0.001-0.006-0.002
	c0.667,1.533,1.311,3.353,0.37,3.516c-1.236,0.2-5.077-0.533-7.429-0.36c-5.458,0.396-8.7,2.517-7.736,3.425
	c0.109,0.112,0.307,0.799,0.972,0.515c0.672-0.284,1.829-1.56,3.918-1.956c3.623-0.68,5.813,0.431,5.922,0.596
	c0.145,0.203-2.75-0.302-6.148,1.094c-2.299,0.946-4.59,3.664-3.829,3.298c0.335-0.167,1.248,0.145,1.713-0.048
	c3.245-1.385,8.551-3.857,8.518-2.332c-0.008,0.533-2.344,1.063-4.79,2.306c-1.436,0.733-3.034,1.817-3.852,2.771
	c-0.368,0.431,0.074,1.286,1.705,0.69c2.377-0.863,6.414-3.435,6.886-3.527c6.488-1.241-7.107,4.618-5.506,5.813
	c1.066,0.789,2.783,0.137,4.724-1.028c2.575-1.56,5.755-3.692,7.98-5.199c9.969-6.729,5.907,4.62,7.944,4.187
	C63.592,71.096,63.234,63.776,58.931,61.462z"/>
</svg>
