<?xml version="1.0" encoding="utf-8"?>
<!-- Generator: Adobe Illustrator 17.0.0, SVG Export Plug-In . SVG Version: 6.00 Build 0)  -->
<!DOCTYPE svg PUBLIC "-//W3C//DTD SVG 1.1 Basic//EN" "http://www.w3.org/Graphics/SVG/1.1/DTD/svg11-basic.dtd">
<svg version="1.1" baseProfile="basic" id="Слой_1"
	 xmlns="http://www.w3.org/2000/svg" xmlns:xlink="http://www.w3.org/1999/xlink" x="0px" y="0px" width="43.703px"
	 height="66.056px" viewBox="0 0 43.703 66.056" xml:space="preserve">
<path fill="#7567A9" d="M27.439,0.017c-0.153,0.073-0.311,0.146-0.466,0.219c-1.473,0.696-3.007,1.407-4.588,2.118
	c-0.24,0.108-0.476,0.215-0.717,0.323c-0.405,0.18-0.816,0.358-1.226,0.537c-0.279,0.122-0.556,0.244-0.837,0.364
	c-0.408,0.175-0.819,0.347-1.231,0.519c-0.291,0.122-0.581,0.244-0.874,0.365c-0.411,0.169-0.824,0.334-1.238,0.5
	c-0.299,0.12-0.598,0.239-0.899,0.356c-0.416,0.162-0.833,0.321-1.252,0.479c-0.301,0.114-0.603,0.226-0.905,0.337
	c-0.424,0.156-0.849,0.308-1.276,0.458c-0.296,0.104-0.592,0.206-0.889,0.306c-0.435,0.148-0.869,0.293-1.304,0.433
	C9.448,7.424,9.159,7.513,8.87,7.603C8.427,7.74,7.985,7.876,7.543,8.005C7.266,8.086,6.988,8.16,6.712,8.237
	C6.256,8.364,5.8,8.49,5.345,8.606c-0.247,0.063-0.493,0.118-0.74,0.178C4.122,8.901,3.639,9.018,3.159,9.121
	c-0.17,0.036-0.338,0.065-0.507,0.1c-0.096,0.02-0.19,0.031-0.286,0.05c-3.485,5.627-3.581,14.423,2.86,27.915
	c4.561,9.553,11.412,13.877,18.264,15.246c1.637,1.344,3.312,2.663,5.041,3.945c4.661,3.461,9.647,6.686,14.861,9.679
	C46.331,52.7,27.501,22.433,27.477,0C27.463,0.005,27.451,0.011,27.439,0.017z"/>
</svg>
