<?xml version="1.0" encoding="utf-8"?>
<!-- Generator: Adobe Illustrator 17.0.0, SVG Export Plug-In . SVG Version: 6.00 Build 0)  -->
<!DOCTYPE svg PUBLIC "-//W3C//DTD SVG 1.1 Basic//EN" "http://www.w3.org/Graphics/SVG/1.1/DTD/svg11-basic.dtd">
<svg version="1.1" baseProfile="basic" id="Слой_1"
	 xmlns="http://www.w3.org/2000/svg" xmlns:xlink="http://www.w3.org/1999/xlink" x="0px" y="0px" width="52.587px"
	 height="149.777px" viewBox="0 0 52.587 149.777" xml:space="preserve">
<path fill="#D16234" d="M44.144,141.581c-4.194,4.702-5.016,5.08-8.234,3.278c-5.283-2.938-6.135-9.954-2.187-13.618
	c1.18-1.094,5.25-1.606,4.95,0.084c-1.307,7.401,0.551,7.962,3.329,0.228c0.317-0.891,1.373-4.976-1.718-5.813
	c-2.261-0.617-5.343-0.963-7.313-2.464c0.333-0.233,0.669-0.48,1.009-0.74c0.133-0.102,0.265-0.202,0.398-0.309
	c0.461-0.367,0.925-0.751,1.397-1.172c6.196-5.519,6.417-23.985,6.901-32.35c0.07-1.239-6.104-29.742-3.338-29.575
	c-0.075-0.004-0.126-0.038-0.162-0.093c-0.012-0.018-0.012-0.05-0.02-0.073c-0.016-0.047-0.03-0.097-0.029-0.166
	c0-0.037,0.01-0.086,0.015-0.129c0.009-0.077,0.021-0.156,0.045-0.251c0.013-0.051,0.031-0.11,0.048-0.166
	c0.033-0.11,0.07-0.226,0.119-0.356c0.021-0.057,0.045-0.118,0.069-0.179c0.06-0.152,0.127-0.314,0.205-0.488
	c0.022-0.051,0.045-0.102,0.069-0.154c0.098-0.215,0.205-0.442,0.325-0.685c0.009-0.019,0.018-0.037,0.027-0.055
	c2.278-4.592,8.284-13.93,12.539-20.991c-6.713-1.459-13.38-5.792-17.848-15.152C30.708,11.746,29.239,5.141,29.556,0
	c-3.513,8.62-3.604,27.514-14.886,50.147C7.631,62.965-0.626,72.407,0.037,86.851c0.221,4.811,1.375,10.21,4.014,16.426
	c3.563,8.383,8.606,19.275,16.092,22.334c-0.01-0.004-0.021-0.007-0.031-0.012c1.173,11.146,7.476,26.362,16.753,23.916
	C52.555,145.364,44.443,141.251,44.144,141.581z"/>
</svg>
