<?xml version="1.0" encoding="utf-8"?>
<!-- Generator: Adobe Illustrator 17.0.0, SVG Export Plug-In . SVG Version: 6.00 Build 0)  -->
<!DOCTYPE svg PUBLIC "-//W3C//DTD SVG 1.1 Basic//EN" "http://www.w3.org/Graphics/SVG/1.1/DTD/svg11-basic.dtd">
<svg version="1.1" baseProfile="basic" id="Слой_1"
	 xmlns="http://www.w3.org/2000/svg" xmlns:xlink="http://www.w3.org/1999/xlink" x="0px" y="0px" width="58.508px"
	 height="202.626px" viewBox="0 0 58.508 202.626" xml:space="preserve">
<path fill="#D35F54" d="M58.338,64.802c1.853-29.567-11.591-67.07-32.005-64.695c-2.223,0.259-4.044,0.844-5.64,1.584
	c0.059,0.644,0.094,1.225,0.094,1.712c0,0.498,0.009,0.968,0.023,1.419c0.005,0.152,0.013,0.292,0.019,0.439
	c0.012,0.293,0.024,0.584,0.041,0.859c0.009,0.156,0.02,0.303,0.031,0.454c0.018,0.253,0.036,0.505,0.056,0.744
	c0.012,0.137,0.024,0.27,0.036,0.402c0.023,0.251,0.047,0.499,0.071,0.736c0.01,0.095,0.02,0.191,0.029,0.284
	c0.074,0.692,0.147,1.327,0.207,1.922c0.008,0.083,0.015,0.162,0.023,0.244c0.018,0.194,0.037,0.388,0.051,0.575
	c0.006,0.084,0.009,0.165,0.014,0.248c0.019,0.303,0.03,0.601,0.032,0.894c0.001,0.122,0.004,0.246,0.002,0.368
	c-0.003,0.128-0.013,0.256-0.02,0.383s-0.013,0.255-0.025,0.383c-0.012,0.127-0.031,0.255-0.047,0.383
	c-0.017,0.129-0.035,0.259-0.058,0.389c-0.023,0.129-0.051,0.261-0.08,0.393c-0.029,0.133-0.061,0.267-0.097,0.402
	c-0.035,0.133-0.074,0.269-0.116,0.406c-0.043,0.139-0.092,0.282-0.142,0.426c-0.049,0.14-0.099,0.28-0.156,0.424
	c-0.06,0.151-0.129,0.309-0.197,0.465c-0.063,0.145-0.124,0.288-0.196,0.438c-0.014,0.029-0.024,0.055-0.038,0.084
	c-0.002,0.001-0.004,0.001-0.006,0.001c-0.289,0.6-0.634,1.236-1.065,1.94c0,0-4.032,3.131-4.828,3.22
	c-0.477,0.055-1.06,0.201-1.727,0.417c-0.161,0.052-0.339,0.117-0.511,0.178c-0.185,0.065-0.367,0.128-0.564,0.202
	c-0.184,0.07-0.38,0.149-0.574,0.226c-0.208,0.083-0.415,0.165-0.634,0.256c-0.202,0.084-0.412,0.174-0.623,0.265
	c-0.234,0.101-0.469,0.202-0.713,0.311c-0.216,0.096-0.437,0.195-0.661,0.297c-0.26,0.118-0.524,0.238-0.795,0.363
	c-0.229,0.105-0.46,0.212-0.696,0.323c-0.291,0.136-0.587,0.275-0.888,0.417c-0.232,0.11-0.463,0.219-0.701,0.332
	c-0.372,0.177-0.75,0.357-1.136,0.541c-0.185,0.088-0.365,0.174-0.552,0.264c-0.567,0.271-1.145,0.548-1.739,0.832
	c-0.182,0.087-0.368,0.175-0.552,0.263C0.86,28.418,0.436,28.62,0,28.827C0.027,53.088,22.07,86.53,14.758,97.812
	c-11.611,17.936-11.063,40.992-4.453,58.35c2.911,7.636,4.192,11.379,7.155,13.209c-0.003-0.002-0.006-0.003-0.009-0.005
	c0.529,3.777,1.654,9.351,0.21,10.126c-6.46,3.461-20.458,6.171-15.239,9.091c3.481,1.956,14.064-8.099,22.046-4.481
	c0.909,0.411,1.768,0.88,2.608,1.406c5.874,3.654,10.327,9.733,15.049,13.12c1.616,1.167,4.384,2.913,6.188,3.555
	c10.027,3.572-17.888-15.777-8.411-11.976c1.406,0.571,7.317,5.29,12.166,7.145c3.77,1.444,5.919-0.165,3.177-1.642
	c-23.378-12.636-13.673-11.829-6.467-6.972c0-0.302,9.126,5.354,9.149,3.821c0.061-4.61-21.767-12.443-16.746-10.816
	c1.522,0.147,9.34,1.762,9.525,0.313c0.01-0.078-0.156-0.24-0.461-0.295c-2.347-0.424-13.713-3.216-18.355-4.004
	c-1.475-0.251,0.744-4.465,0.422-6.827c12.896-2.278,19.881-29.358,19.881-40.71c0-5.745-4.25-20.842-4.446-24.143
	c-0.025-0.415-0.15-0.727-0.237-0.883c-1.056-1.904,3.262-14.577,4.683-17.006C55.805,82.014,57.775,73.774,58.338,64.802
	 M30.794,171.087c0.248-0.006,0.492-0.024,0.736-0.048C31.287,171.067,31.041,171.079,30.794,171.087z"/>
</svg>
