<?xml version="1.0" encoding="utf-8"?>
<!-- Generator: Adobe Illustrator 17.0.0, SVG Export Plug-In . SVG Version: 6.00 Build 0)  -->
<!DOCTYPE svg PUBLIC "-//W3C//DTD SVG 1.1 Basic//EN" "http://www.w3.org/Graphics/SVG/1.1/DTD/svg11-basic.dtd">
<svg version="1.1" baseProfile="basic" id="Слой_1"
	 xmlns="http://www.w3.org/2000/svg" xmlns:xlink="http://www.w3.org/1999/xlink" x="0px" y="0px" width="26.391px" height="26.5px"
	 viewBox="0 0 26.391 26.5" xml:space="preserve">
<path fill="#6D9EC4" d="M24.03,18.304c-4.194,4.702-5.016,5.08-8.234,3.278c-5.283-2.938-6.135-9.954-2.187-13.618
	c1.18-1.094,5.25-1.606,4.95,0.084c-1.307,7.401,0.551,7.962,3.329,0.228c0.317-0.891,1.373-4.976-1.718-5.813
	C17.91,1.847,14.829,1.501,12.859,0c-0.002,0.002-0.005,0.004-0.007,0.005c-0.13,0.091-0.261,0.185-0.39,0.272
	c-0.433,0.29-0.863,0.563-1.285,0.807C11.087,1.136,11,1.178,10.911,1.227c-0.337,0.187-0.67,0.362-1,0.52
	C9.753,1.824,9.596,1.894,9.439,1.964C9.167,2.085,8.897,2.195,8.63,2.297c-0.147,0.056-0.295,0.116-0.44,0.167
	C7.824,2.59,7.461,2.702,7.104,2.794L7.102,2.797C7.104,2.794,7.106,2.792,7.108,2.79C4.519,3.453,2.158,3.211,0,2.322
	c1.173,11.146,7.476,26.362,16.753,23.916C32.441,22.088,24.33,17.975,24.03,18.304z"/>
</svg>
