<?xml version="1.0" encoding="utf-8"?>
<!-- Generator: Adobe Illustrator 17.0.0, SVG Export Plug-In . SVG Version: 6.00 Build 0)  -->
<!DOCTYPE svg PUBLIC "-//W3C//DTD SVG 1.1 Basic//EN" "http://www.w3.org/Graphics/SVG/1.1/DTD/svg11-basic.dtd">
<svg version="1.1" baseProfile="basic" id="Слой_1"
	 xmlns="http://www.w3.org/2000/svg" xmlns:xlink="http://www.w3.org/1999/xlink" x="0px" y="0px" width="254.938px"
	 height="259.375px" viewBox="0 0 254.938 259.375" xml:space="preserve">
<path fill="#AC5D40" stroke="#FFFFFF" stroke-width="6" stroke-miterlimit="10" d="M244.003,228.272
	c0.061-0.072,0.125-0.14,0.184-0.215c0.159-0.204,0.309-0.421,0.452-0.645c0.06-0.093,0.115-0.192,0.172-0.288
	c0.093-0.157,0.182-0.318,0.268-0.484c0.053-0.102,0.105-0.204,0.155-0.309c0.097-0.203,0.188-0.413,0.275-0.627
	c0.028-0.069,0.059-0.134,0.086-0.204c0.108-0.281,0.207-0.573,0.299-0.871c0.03-0.097,0.057-0.196,0.085-0.295
	c0.065-0.226,0.126-0.455,0.183-0.689c0.024-0.101,0.049-0.202,0.072-0.305c0.068-0.303,0.13-0.612,0.184-0.927
	c0.004-0.025,0.01-0.049,0.014-0.075c0.06-0.354,0.109-0.716,0.152-1.083c0.009-0.076,0.016-0.152,0.024-0.229
	c0.033-0.304,0.061-0.613,0.083-0.925c0.006-0.078,0.012-0.156,0.017-0.235c0.049-0.776,0.067-1.573,0.054-2.385
	c-0.001-0.049-0.002-0.098-0.003-0.146c-0.007-0.369-0.02-0.742-0.039-1.116c-0.003-0.053-0.005-0.105-0.008-0.158
	c-0.046-0.844-0.121-1.697-0.223-2.554c-0.004-0.037-0.009-0.073-0.014-0.11c-0.048-0.393-0.101-0.786-0.16-1.18
	c-0.007-0.049-0.014-0.097-0.021-0.145c-0.129-0.848-0.283-1.695-0.46-2.533c-0.015-0.069-0.03-0.138-0.045-0.207
	c-0.074-0.341-0.151-0.68-0.231-1.018c-0.021-0.089-0.042-0.178-0.064-0.267c-0.098-0.399-0.199-0.796-0.306-1.188
	c-6.287-22.983,3.59-50.157-2.829-78.283c-3.613-15.822-13.384-23.206-25.19-27.08c-19.902-6.526-47.855,1.847-63.868-5.427
	c-1.063-0.482-2.112-0.993-3.153-1.518c-0.352-0.177-0.699-0.362-1.048-0.544c-0.697-0.363-1.39-0.732-2.078-1.112
	c-0.383-0.212-0.765-0.425-1.145-0.641c-0.684-0.39-1.362-0.789-2.037-1.194c-0.333-0.2-0.668-0.395-0.998-0.598
	c-0.959-0.59-1.91-1.191-2.848-1.806c-0.26-0.171-0.515-0.348-0.774-0.52c-0.708-0.472-1.413-0.948-2.109-1.432
	c-0.367-0.255-0.731-0.514-1.095-0.772c-0.592-0.42-1.18-0.843-1.764-1.27c-0.359-0.263-0.718-0.525-1.073-0.79
	c-0.646-0.482-1.285-0.967-1.919-1.455c-0.26-0.2-0.524-0.398-0.782-0.598c-0.876-0.681-1.742-1.367-2.595-2.055
	c-0.241-0.194-0.476-0.389-0.715-0.583c-0.646-0.526-1.289-1.052-1.922-1.578c-0.278-0.231-0.554-0.463-0.83-0.694
	c-0.621-0.521-1.236-1.041-1.844-1.56c-0.22-0.188-0.442-0.376-0.661-0.564c-3.217-2.763-6.243-5.472-9.081-7.999
	c-5.507-9.618-12.882-15.731-21.502-14.728c-0.844,0.098-1.631,0.243-2.37,0.425c-1.108,0.273-2.108,0.632-3.031,1.044
	c-0.082,0.037-0.158,0.077-0.239,0.114c-0.768-8.337-6.23-28.738-8.86-33.976c-2.49-4.958-11.494-11.692-17.862-11.664
	c-1.18,0.005-2.269,0.242-3.209,0.766c-0.5,0.278-0.965,0.54-1.409,0.793c-0.042,0.024-0.131,0.075-0.13,0.075
	c-11.882,6.79-4.409,5.194-16.072,19.74c-6.735,8.398-15.004,11.146-12.297,14.13c0.05,0.055,0.08,0.127,0.124,0.187
	c0.093,0.128,0.185,0.256,0.252,0.405c0.02,0.045,0.03,0.1,0.048,0.147c0.063,0.165,0.121,0.333,0.156,0.52
	c0.008,0.044,0.008,0.096,0.015,0.142c0.02,0.136,0.03,0.281,0.037,0.428c-0.459,0.847-0.564,1.787-0.351,2.637
	c-0.041,0.158-0.073,0.309-0.12,0.472c-0.004,0.014-0.01,0.03-0.014,0.044c-1.146,3.932-4.048,9.36-6.59,14.735
	c-0.039,0.082-0.078,0.163-0.117,0.245c-0.167,0.354-0.329,0.706-0.491,1.059c-0.069,0.149-0.14,0.299-0.208,0.448
	c-0.143,0.314-0.28,0.625-0.419,0.938c-0.082,0.185-0.167,0.37-0.247,0.554c-0.122,0.279-0.236,0.553-0.352,0.83
	c-0.09,0.214-0.185,0.429-0.272,0.641c-0.101,0.246-0.194,0.488-0.291,0.732c-0.094,0.237-0.192,0.476-0.281,0.71
	c-0.084,0.222-0.159,0.437-0.238,0.656c-0.091,0.25-0.187,0.504-0.271,0.75c-0.067,0.195-0.123,0.384-0.185,0.576
	c-0.086,0.264-0.175,0.531-0.252,0.789c-0.051,0.173-0.091,0.339-0.138,0.509c-0.074,0.269-0.153,0.541-0.216,0.803
	c-0.039,0.163-0.065,0.317-0.099,0.477c-0.057,0.262-0.118,0.526-0.161,0.78c-0.025,0.143-0.036,0.278-0.056,0.418
	c-0.038,0.26-0.08,0.523-0.102,0.774c-0.011,0.124-0.008,0.239-0.015,0.36c-0.015,0.256-0.033,0.515-0.03,0.76
	c0.002,0.103,0.017,0.197,0.022,0.298c0.012,0.252,0.023,0.505,0.057,0.742c0.012,0.086,0.039,0.162,0.055,0.246
	c0.044,0.241,0.088,0.482,0.158,0.706c0.024,0.076,0.063,0.143,0.09,0.217c0.08,0.22,0.159,0.44,0.267,0.641
	c0.033,0.061,0.081,0.113,0.116,0.172c0.12,0.202,0.242,0.403,0.394,0.583c0.197,0.234,0.421,0.45,0.675,0.646
	c0.149,0.115,0.383,0.235,0.69,0.356c0.154,0.061,0.326,0.121,0.515,0.182c0.568,0.182,1.289,0.361,2.126,0.523
	c2.788,0.542,6.855,0.9,10.786,0.557c0.55-0.048,1.082-0.114,1.603-0.191c0.155-0.023,0.303-0.05,0.455-0.075
	c0.368-0.06,0.729-0.124,1.081-0.196c0.159-0.032,0.315-0.066,0.47-0.1c0.349-0.077,0.69-0.159,1.023-0.245
	c0.127-0.033,0.256-0.065,0.381-0.099c0.416-0.114,0.821-0.232,1.211-0.357c0.028-0.009,0.059-0.017,0.087-0.026
	c0.439-0.141,0.859-0.287,1.264-0.436c0.054-0.02,0.104-0.04,0.157-0.06c0.34-0.127,0.668-0.254,0.983-0.383
	c0.085-0.034,0.165-0.068,0.248-0.102c0.29-0.12,0.568-0.239,0.835-0.357c0.061-0.027,0.122-0.053,0.182-0.08
	c0.833-0.371,1.552-0.718,2.153-1c0.064-0.03,0.132-0.062,0.193-0.091c0.106-0.049,0.2-0.091,0.298-0.135
	c0.115-0.052,0.225-0.1,0.329-0.144c0.078-0.033,0.152-0.063,0.224-0.091c0.107-0.042,0.203-0.075,0.296-0.106
	c0.053-0.017,0.109-0.037,0.158-0.051c0.122-0.033,0.231-0.054,0.323-0.057c0.007,0,0.016-0.003,0.023-0.003c0,0,0,0,0-0.001
	c0.316-0.005,0.444,0.185,0.375,0.653c-0.568,3.793-22.698,7.5-28.301,2.839c-1.187-0.99,0.693,3.354,1.977,4.478
	c0.399,0.348,0.812,0.665,1.233,0.967c0,0-0.001,0-0.001,0c0.002,0.001,0.003,0.002,0.005,0.003
	c5.301,3.803,12.307,4.072,19.675,2.609c-1.296,2.103-2.119,4.647-2.306,7.713c-3.508,8.626-3.605,27.512-14.882,50.135
	c-7.038,12.818-15.295,22.259-14.632,36.704c0.221,4.811,1.375,10.21,4.014,16.426c3.559,8.372,8.594,19.244,16.063,22.321
	c1.173,11.146,7.476,26.363,16.753,23.917c15.688-4.151,7.576-8.264,7.277-7.934c-4.194,4.702-5.016,5.08-8.233,3.278
	c-5.283-2.938-6.135-9.954-2.187-13.618c1.18-1.094,5.25-1.606,4.95,0.084c-1.307,7.401,0.551,7.962,3.329,0.228
	c0.317-0.891,1.373-4.976-1.718-5.813c-2.262-0.617-5.356-0.952-7.325-2.454c0.008-0.005,0.016-0.012,0.023-0.017
	c0.323-0.226,0.65-0.466,0.979-0.719c0.142-0.109,0.284-0.217,0.428-0.332c0.438-0.349,0.88-0.717,1.329-1.115
	c0.019-0.017,0.037-0.03,0.057-0.047c6.196-5.519,6.417-23.985,6.901-32.35c0.071-1.241-6.102-29.744-3.336-29.577
	c-0.075-0.005-0.128-0.038-0.163-0.093c-0.01-0.016-0.01-0.044-0.017-0.063c-0.018-0.05-0.032-0.103-0.031-0.178
	c0-0.032,0.009-0.074,0.013-0.111c0.009-0.083,0.022-0.17,0.049-0.275c0.011-0.042,0.026-0.091,0.039-0.137
	c0.035-0.121,0.077-0.249,0.131-0.393c0.016-0.044,0.034-0.09,0.052-0.136c0.066-0.169,0.142-0.35,0.229-0.547
	c0.013-0.03,0.026-0.06,0.04-0.09c1.919-4.237,8.39-14.271,12.901-21.756c0.14,0.031,0.28,0.061,0.42,0.089
	c1.637,1.343,3.312,2.663,5.04,3.945c4.664,3.463,9.652,6.69,14.869,9.684c-0.239,1.09-0.615,2.074-1.166,2.925
	c-11.611,17.936-11.063,40.992-4.453,58.35c2.91,7.635,4.19,11.378,7.152,13.209c0.529,3.777,1.653,9.347,0.209,10.122
	c-6.46,3.461-20.458,6.171-15.239,9.091c3.481,1.956,14.064-8.099,22.046-4.481c0.908,0.411,1.768,0.88,2.608,1.406
	c5.874,3.654,10.327,9.733,15.049,13.12c1.616,1.167,4.384,2.913,6.188,3.555c10.027,3.572-17.888-15.777-8.411-11.976
	c1.406,0.571,7.318,5.29,12.166,7.145c3.77,1.444,5.919-0.165,3.177-1.642c-23.378-12.636-13.673-11.829-6.468-6.972
	c0-0.302,9.127,5.354,9.149,3.821c0.061-4.61-21.767-12.443-16.746-10.816c1.604,0.155,10.263,1.32,9.487,0.053
	s-13.531-3.149-18.778-4.039c-1.476-0.25,0.745-4.466,0.422-6.829c12.894-2.283,19.877-29.359,19.877-40.709
	c0-4.568-2.684-15.038-3.884-20.801c7.984,2.717,16.126,4.915,24.226,6.555c8.769,22.286,25.675,45.007,41.119,54.659
	c2.763,1.797,5.151,2.92,7.22,3.511c0.665,1.531,1.305,3.344,0.366,3.507c-1.236,0.201-5.077-0.533-7.429-0.36
	c-5.457,0.395-8.7,2.517-7.736,3.425c0.109,0.112,0.307,0.799,0.972,0.515c0.673-0.284,1.83-1.56,3.918-1.956
	c3.623-0.68,5.813,0.431,5.922,0.596c0.144,0.203-2.751-0.302-6.148,1.094c-2.299,0.946-4.59,3.663-3.829,3.298
	c0.335-0.167,1.249,0.145,1.713-0.048c3.246-1.386,8.551-3.857,8.518-2.332c-0.007,0.532-2.344,1.063-4.79,2.306
	c-1.436,0.734-3.035,1.817-3.852,2.771c-0.368,0.431,0.074,1.286,1.705,0.69c2.377-0.863,6.414-3.436,6.886-3.527
	c6.488-1.241-7.107,4.618-5.506,5.813c1.065,0.789,2.783,0.137,4.724-1.028c2.576-1.561,5.755-3.692,7.98-5.199
	c9.969-6.729,5.907,4.62,7.944,4.186c3.895-0.825,3.537-8.145-0.766-10.459c-1.32-0.706-1.86-2.709-2.19-4.087
	c0.211-0.56,0.38-1.068,0.528-1.552c0.06-0.083,0.116-0.173,0.173-0.26c0.073-0.11,0.148-0.217,0.217-0.331
	c0.128-0.212,0.25-0.431,0.365-0.658c0.068-0.134,0.129-0.274,0.192-0.413c0.058-0.128,0.116-0.257,0.171-0.39
	c0.062-0.15,0.121-0.302,0.178-0.457c0.048-0.131,0.092-0.265,0.137-0.399c0.094-0.284,0.181-0.575,0.261-0.874
	c0.035-0.13,0.072-0.258,0.104-0.391c0.045-0.186,0.084-0.376,0.124-0.567c0.027-0.128,0.053-0.257,0.077-0.387
	c0.036-0.196,0.072-0.393,0.103-0.594c0.019-0.12,0.034-0.242,0.051-0.363c0.053-0.383,0.098-0.773,0.133-1.17
	c0.01-0.115,0.022-0.229,0.031-0.346c0.017-0.221,0.03-0.445,0.041-0.67c0.007-0.129,0.012-0.258,0.017-0.388
	c0.009-0.228,0.017-0.457,0.021-0.688c0.001-0.088,0-0.176,0.001-0.264c0.003-0.453-0.003-0.911-0.019-1.373
	c-0.004-0.13-0.008-0.259-0.014-0.39c-0.01-0.234-0.023-0.468-0.038-0.703c-0.009-0.144-0.02-0.289-0.031-0.434
	c-0.057-0.77-0.137-1.545-0.239-2.322c-0.023-0.176-0.046-0.352-0.072-0.529c-0.03-0.207-0.06-0.414-0.093-0.621
	c-0.033-0.207-0.068-0.414-0.103-0.62c-0.037-0.213-0.073-0.426-0.113-0.638c-0.059-0.319-0.122-0.638-0.188-0.955
	c-0.033-0.159-0.068-0.317-0.103-0.475c-0.055-0.249-0.111-0.498-0.169-0.745c-0.033-0.14-0.066-0.281-0.1-0.42
	c-0.093-0.38-0.19-0.757-0.292-1.131c-0.203-0.743-0.389-1.49-0.56-2.241c-0.029-0.129-0.053-0.26-0.081-0.389
	c-0.137-0.621-0.269-1.243-0.386-1.87c-0.034-0.184-0.062-0.369-0.095-0.553c-0.102-0.575-0.201-1.15-0.288-1.729
	c-0.032-0.213-0.057-0.428-0.087-0.642c-0.077-0.551-0.152-1.103-0.216-1.659c-0.028-0.24-0.049-0.482-0.075-0.723
	c-0.056-0.531-0.11-1.063-0.156-1.598c-0.022-0.264-0.039-0.529-0.059-0.793c-0.038-0.513-0.075-1.026-0.105-1.542
	c-0.016-0.29-0.029-0.581-0.043-0.872c-0.023-0.493-0.046-0.986-0.062-1.482c-0.01-0.313-0.017-0.628-0.024-0.942
	c-0.001-0.064-0.002-0.128-0.004-0.192c9.308,17.443,22.539,33.417,34.837,41.101c2.074,1.348,3.931,2.306,5.609,2.959
	c0.971,3.351,2.061,8.162-1.076,6.584c-1.223-0.617-12.179-0.901-14.14,3.6c-0.056,0.137,0.307,0.789,0.977,0.505
	c0.667-0.277,1.824-1.553,3.912-1.949c3.623-0.68,5.12-0.175,5.232-0.018c0.14,0.211-2.058,0.302-5.455,1.7
	c-2.302,0.944-4.593,3.672-3.829,3.296c0.333-0.158,1.249,0.154,1.713-0.046c3.245-1.385,7.822-3.681,8.515-2.324
	c0.294,0.571-3.03,1.192-4.674,1.984c-1.53,0.726-3.228,1.982-3.966,3.093c-0.969,1.444,1.746,0.469,3.507-0.411
	c0.665-0.34,1.449-0.662,1.571-0.845c0.875-1.286,9.728-3.933,1.436,1.175c-2.078,1.287-4.103,2.609-3.428,3.05
	c1.108,0.733,2.78,0.145,4.724-1.03c12.804-7.713,15.156-0.927,12.966-15.546c0.432-1.124,0.734-2.11,0.926-2.974
	c0.011-0.008,0.022-0.018,0.033-0.026c0.093-0.067,0.181-0.141,0.271-0.214c0.121-0.098,0.24-0.199,0.354-0.305
	c0.087-0.08,0.172-0.162,0.255-0.247C243.771,228.542,243.888,228.408,244.003,228.272z M241.809,232.432L241.809,232.432
	L241.809,232.432C241.809,232.433,241.809,232.432,241.809,232.432z"/>
<polygon fill="#A8A8A8" stroke="#272525" stroke-width="3" stroke-miterlimit="10" points="557.307,189.762 557.307,189.762 
	557.306,189.761 "/>
<g id="РЎР_x00bb_РѕР_x2116__x0020_1">
	<g id="_539179608">
		<path fill="#663832" d="M82.268,218.172c-0.5,2.065,2.372,12.204,0.388,13.27c-6.46,3.461-20.458,6.171-15.239,9.091
			c3.481,1.956,14.064-8.099,22.046-4.481c0.908,0.411,1.768,0.88,2.608,1.406c5.874,3.654,10.327,9.733,15.049,13.12
			c1.616,1.167,4.384,2.913,6.188,3.555c10.027,3.572-17.888-15.777-8.411-11.976c1.406,0.571,7.318,5.29,12.166,7.145
			c3.77,1.444,5.919-0.165,3.177-1.642c-23.378-12.636-13.673-11.829-6.468-6.972c0-0.302,9.127,5.354,9.149,3.821
			c0.061-4.61-21.767-12.443-16.746-10.816c1.604,0.155,10.195,1.938,9.487,0.053c0.304,0.302-13.531-3.149-18.778-4.039
			c-1.794-0.304,1.883-6.473-0.198-8.043C93.758,219.715,85.823,212.628,82.268,218.172L82.268,218.172z"/>
		<path fill="#663832" d="M194.266,225.297c0.33,1.378,0.87,3.382,2.19,4.088c4.303,2.314,4.661,9.634,0.766,10.459
			c-2.037,0.434,2.025-10.915-7.944-4.186c-2.225,1.507-5.404,3.638-7.98,5.199c-1.941,1.165-3.659,1.817-4.724,1.028
			c-1.601-1.195,11.994-7.054,5.506-5.813c-0.472,0.091-4.509,2.664-6.886,3.527c-1.631,0.596-2.073-0.259-1.705-0.69
			c0.817-0.954,2.416-2.037,3.852-2.771c2.446-1.243,4.783-1.774,4.79-2.306c0.033-1.525-5.272,0.946-8.518,2.332
			c-0.464,0.193-1.378-0.119-1.713,0.048c-0.761,0.365,1.53-2.352,3.829-3.298c3.397-1.396,6.292-0.891,6.148-1.094
			c-0.109-0.165-2.299-1.276-5.922-0.596c-2.088,0.396-3.245,1.672-3.918,1.956c-0.665,0.284-0.863-0.403-0.972-0.515
			c-0.964-0.908,2.279-3.03,7.736-3.425c2.352-0.173,6.193,0.561,7.429,0.36c1.611-0.279-1.423-5.42-1.264-5.648
			c3.111-4.438,13.894-10.827,9.299,1.35L194.266,225.297L194.266,225.297z"/>
		<path fill="#663832" d="M241.809,232.432c2.19,14.622-0.162,7.835-12.966,15.548c-1.944,1.175-3.616,1.763-4.724,1.03
			c-0.675-0.441,1.35-1.763,3.428-3.05c8.292-5.108-0.561-2.461-1.436-1.175c-0.122,0.183-0.906,0.505-1.571,0.845
			c-1.761,0.88-4.476,1.855-3.507,0.411c0.738-1.111,2.436-2.367,3.966-3.093c1.644-0.792,4.968-1.413,4.674-1.984
			c-0.693-1.357-5.27,0.939-8.515,2.324c-0.464,0.2-1.38-0.112-1.713,0.046c-0.764,0.376,1.527-2.352,3.829-3.296
			c3.397-1.398,5.595-1.489,5.455-1.7c-0.112-0.157-1.609-0.662-5.232,0.018c-2.088,0.396-3.245,1.672-3.912,1.949
			c-0.67,0.284-1.033-0.368-0.977-0.505c1.961-4.501,12.917-4.217,14.14-3.6c4.648,2.339,0.015-9.357,0.241-9.533
			c3.342-2.616,13.432-6.237,8.82,5.767L241.809,232.432L241.809,232.432z"/>
		<path fill="#663832" d="M28.244,216.016c-1.974,9.624,4.991,34.334,16.624,31.267c15.688-4.151,7.576-8.264,7.277-7.934
			c-4.194,4.702-5.016,5.08-8.233,3.278c-5.283-2.938-6.135-9.954-2.187-13.618c1.18-1.094,5.25-1.606,4.95,0.084
			c-1.307,7.401,0.551,7.962,3.329,0.228c0.317-0.891,1.373-4.976-1.718-5.813c-4.278-1.167-11.537-1.322-8.525-10.286
			C41.012,209.502,27.211,218.347,28.244,216.016L28.244,216.016z"/>
		<path fill="#884C3A" d="M22.669,147.915c-7.038,12.818-15.295,22.259-14.632,36.704c0.221,4.811,1.375,10.21,4.014,16.426
			c5.625,13.232,14.929,32.738,31.724,17.779c6.196-5.519,6.417-23.985,6.901-32.35c0.071-1.241-6.102-29.744-3.336-29.577
			c-2.507-0.15,17.644-29.212,17.837-32.563s6.227-20.633-2.147-21.12c-8.464-0.487-8.183-7.074-14.787-9.505
			C30.976,87.353,39.945,113.258,22.669,147.915L22.669,147.915z M192.786,124.506c5.942,28.23-3.458,55.3,2.832,78.275
			c3.735,13.648,1.885,32.069-16.974,19.801c-22.074-13.795-47.158-54.29-47.158-82.05
			C131.486,109.08,184.737,86.249,192.786,124.506L192.786,124.506z"/>
		<path fill="#7B4035" d="M35.218,223.838c2.611-0.67,5.455-2.251,8.556-5.014c6.196-5.519,6.417-23.985,6.901-32.35
			c0.071-1.241-6.102-29.744-3.336-29.577c-2.253-0.14,13.772-23.602,17.198-30.8c-0.223-0.175-0.507-0.34-0.863-0.487
			c-3.324-1.423-2.375-2.847-6.176-3.324c-3.796-0.477-8.548,1.423-9.025,1.423c-0.474-0.003,2.114,10.393-2.692,18.677
			c-4.803,8.292-6.361,13.968-0.632,35.943c5.729,21.983-4.075,38.924-9.933,45.511L35.218,223.838z M166.268,168.594
			c0,0,12.275,7.52,19.002,26.915c5.28,15.206,8.36,22.876,5.059,31.011c7.759-1.175,8.02-13.737,5.288-23.739
			c-3.286-12.022-2.291-25.16-1.431-38.988c-4.44-3.215-5.612-8.505-10.101-7.467c-5.146,1.185-7.005,4.326-9.441,5.133
			C172.208,162.258,166.268,168.594,166.268,168.594L166.268,168.594z"/>
		<path fill="#A15844" d="M91.646,52.945c10.667-1.091,32.094,29.704,61.656,43.124c16.013,7.274,43.966-1.099,63.868,5.427
			c11.806,3.874,21.577,11.258,25.19,27.08c6.419,28.126-3.458,55.3,2.829,78.283c3.732,13.638,1.885,32.058-16.974,19.798
			c-15.812-9.88-33.17-33.462-41.743-56.254c-36.95,4.877-86.871-8.337-120.427-33.251c-7.992-5.932-15.056-12.524-20.793-19.697
			C21.992,88.368,76.333,54.515,91.646,52.945L91.646,52.945z"/>
		<path fill="#924938" d="M107.57,62.158c11.534,9.923,26.997,25.411,45.732,33.911c16.013,7.274,43.966-1.099,63.868,5.427
			c11.806,3.874,21.577,11.258,25.19,27.08c6.419,28.126-3.458,55.3,2.829,78.283c2.794,10.192,2.461,23.059-5.762,23.784
			c0.611-2.58,0.675-6.465,0.467-12.884c-0.472-14.729-6.648-43.699-1.9-66.499c4.752-22.805-11.4-47.972-29.45-45.125
			c-18.043,2.854-46.546,3.324-56.52-3.324c-9.977-6.65-20.9-7.599-21.848,4.747c-0.951,12.349-11.874,16.629-11.874,16.629
			s0.472-22.8-5.227-39.901c-2.725-8.183-4.476-16.15-5.503-22.125v-0.003H107.57z"/>
		<path fill="#DEA67C" d="M42.739,117.96C16.974,63.987,95.718,85.064,78.256,84.163c-3.989-0.208,27.141,29.042,3.248,45.229
			C73.502,134.81,52.677,138.778,42.739,117.96L42.739,117.96z"/>
		<path fill="#E6B68D" d="M41.552,101.422c-1.743,9.063,2.794,19.009,10.898,25.436s13.737,3.93,16.213-1.406
			c2.139-4.61-4.671-22.891-9.898-27.463C52.096,92.161,42.856,94.627,41.552,101.422L41.552,101.422z"/>
		<path fill="#D08C5D" d="M38.033,94.554c5.557-23.295,54.343-9.664,40.223-10.39c-1.454-0.079,1.761,3.77,5.272,9.464
			c0.142,7.949-0.119,16.391-0.335,23.442c-0.16,5.298-0.401,9.165-0.809,11.692c-0.284,0.208-0.573,0.421-0.88,0.632
			c-0.812,0.551-1.768,1.083-2.824,1.578c-1.028-1.284-2.301-3.415-3.872-6.353c-6.427-12.022-10.618-24.87-13.415-32.695
			c-2.796-7.827-12.577-2.514-19.841,1.677C39.757,94.632,38.661,94.833,38.033,94.554L38.033,94.554z"/>
		<path fill="#C88255" d="M25.849,43.504c4.638,5.113-17.188,31.482-9.05,37.78c1.19,0.921,7.828,2.167,14.117,1.619
			c9.489-0.827,14.721-6.226,14.353-3.732c-0.568,3.793-22.698,7.5-28.301,2.839c-1.187-0.99,0.693,3.354,1.977,4.478
			c16.462,14.356,52.443-10.9,60.397-11.811c0.797-0.089,4.828-3.22,4.828-3.22c3.826-6.247,1.611-7.741,1.611-16.104
			c0.003-6.795-6.12-30.046-8.954-35.689c-2.951-5.876-15.051-14.247-21.07-10.898c-14.074,7.82-5.473,5.47-17.611,20.608
			C31.411,37.772,23.142,40.52,25.849,43.504L25.849,43.504z"/>
		<path fill="#B56E42" d="M85.242,69.516c2.284-4.727,0.54-6.739,0.54-14.163c0.003-6.795-6.12-30.046-8.954-35.689
			c-2.951-5.876-15.051-14.247-21.07-10.898c-0.548,0.304-1.063,0.591-1.543,0.868c3.76,0.249,12.605,1.88,17.517,15.774
			c3.458,9.758,4.651,15,4.932,20.235c-0.743,8.167-3.933,27.555-26.73,37.897c-14.602,6.62-24.459,5.709-29.757,3.915
			c15.952,11.453,47.381-9.162,57.505-12.384c-1.302-0.951-3.841-1.261-2.314-2.152c1.586-0.926,3.045-2.101,4.379-3.402
			C81.301,70.127,83.229,70.056,85.242,69.516L85.242,69.516z"/>
		<path fill="#A15339" d="M25.89,43.557c4.45,5.239-17.2,31.447-9.091,37.727c1.19,0.921,7.828,2.167,14.117,1.619
			c7.711-0.67,12.61-4.362,13.978-4.384c4.09-5.513-7.132-11.022-8.634-15.102c-1.39-3.778,0-6.039,4.831-7.246
			c6.442-1.614,8.396-3.605,9.662-8.858c1.827-7.574-6.437-14.28-15.784-5.739c-2.103-0.518-6.056-3.773-9.078,1.987v-0.004H25.89z"
			/>
		<path fill="#FFFFFF" d="M46.864,48.426c-1.586,2.669-4.922,3.613-7.454,2.108s-3.306-4.889-1.72-7.556
			c1.586-2.669,4.925-3.613,7.457-2.108C47.679,42.377,48.448,45.762,46.864,48.426L46.864,48.426z"/>
		<path fill="#2B2A29" d="M45.698,47.155c-1.043,1.753-3.243,2.377-4.91,1.385c-1.667-0.99-2.174-3.217-1.132-4.971
			c1.045-1.758,3.24-2.377,4.91-1.388C46.234,43.169,46.737,45.397,45.698,47.155L45.698,47.155z"/>
		<path fill="#FFFFFF" d="M42.372,46.422c-0.383,0.639-1.185,0.868-1.794,0.505c-0.609-0.363-0.794-1.175-0.414-1.819
			c0.383-0.639,1.185-0.868,1.794-0.505C42.567,44.965,42.752,45.777,42.372,46.422L42.372,46.422z"/>
		<path fill="#FFFFFF" d="M32.421,48.69c-1.015,1.708-3.154,2.311-4.778,1.35c-1.619-0.967-2.114-3.131-1.099-4.841
			c1.015-1.708,3.154-2.311,4.775-1.347C32.942,44.813,33.432,46.98,32.421,48.69L32.421,48.69z"/>
		<path fill="#2B2A29" d="M31.672,47.87c-0.67,1.129-2.076,1.527-3.144,0.893c-1.068-0.637-1.393-2.06-0.723-3.187
			c0.667-1.124,2.076-1.522,3.144-0.888c1.066,0.632,1.388,2.06,0.721,3.184L31.672,47.87z"/>
		<path fill="#FFFFFF" d="M29.541,47.401c-0.244,0.414-0.759,0.558-1.149,0.327c-0.388-0.231-0.505-0.754-0.264-1.165
			c0.244-0.411,0.759-0.556,1.149-0.325C29.668,46.472,29.786,46.995,29.541,47.401L29.541,47.401z"/>
		<path fill="#7F4236" d="M22.482,72.913c1.606-0.312,3.354,3.161,1.352,2.89c-0.485-0.066-0.053-0.639-0.723-1.258
			c-0.906-0.835-2.327,0.535-1.396,2.36c0.14,0.274,0.294,0.759-0.048,0.804c-0.728,0.086-2.441-0.289-1.715-1.383
			c1.132-1.708-0.124-3.227-1.119-2.499c-0.738,0.538-0.37,1.157-0.86,1.165c-2.022,0.041,0.112-3.207,1.672-2.715
			c0.65,0.203,1.215,0.934,1.426,1.807C21.419,73.469,21.942,73.017,22.482,72.913L22.482,72.913z"/>
		<path fill="#BC6D4C" d="M91.328,52.057c26.608-3.095,41.375,61.559,25.855,88.079c-1.538,2.629-6.465,17.246-4.311,17.246
			c-1.076,0,4.311,18.319,4.311,24.787c0,11.854-7.612,40.881-21.625,40.881c-15.087,0-14.894-0.855-20.263-14.939
			c-6.61-17.358-7.158-40.414,4.453-58.35c10.098-15.581-35.842-73.449-2.372-90.994C81.486,56.606,84.573,52.843,91.328,52.057
			L91.328,52.057z"/>
		<path fill="#AC5D40" d="M91.328,52.057c26.608-3.095,41.375,61.559,25.855,88.079c-1.538,2.629-6.465,17.246-4.311,17.246
			c-1.076,0,4.311,18.319,4.311,24.787c0,11.854-7.612,40.881-21.625,40.881H95.42c1.814-2.37,3.905-5.298,6.331-8.934
			c10.296-15.437,6.731-29.689,6.731-54.227c0.003-24.546,13.854-37.209,7.127-64.122c-6.731-26.918-12.669-35.626-31.668-32.855
			C72.009,64.65,67.105,73.107,65.103,77.585c0.69-7.868,4.115-14.544,12.273-18.819C81.486,56.606,84.573,52.843,91.328,52.057
			L91.328,52.057z"/>
	</g>
</g>
</svg>
