<?xml version="1.0" encoding="utf-8"?>
<!-- Generator: Adobe Illustrator 17.0.0, SVG Export Plug-In . SVG Version: 6.00 Build 0)  -->
<!DOCTYPE svg PUBLIC "-//W3C//DTD SVG 1.1 Basic//EN" "http://www.w3.org/Graphics/SVG/1.1/DTD/svg11-basic.dtd">
<svg version="1.1" baseProfile="basic" id="Слой_1"
	 xmlns="http://www.w3.org/2000/svg" xmlns:xlink="http://www.w3.org/1999/xlink" x="0px" y="0px" width="29.031px"
	 height="18.513px" viewBox="0 0 29.031 18.513" xml:space="preserve">
<path fill="#337F84" d="M25.559,5.668c-1.193-0.638-2.003-2.875-2.161-3.831c-0.017-0.101,0.073-0.525,0.12-0.656
	C23.67,0.762,23.797,0.373,23.911,0c-0.018,0.025-0.035,0.051-0.053,0.076c-0.497,0.678-1.08,1.248-1.751,1.697
	c-0.071,0.048-0.143,0.094-0.216,0.139c-0.679,0.415-1.446,0.705-2.308,0.854c-0.052,0.009-0.145,0.026-0.142,0.02
	c-1.279,0.195-2.772,0.063-4.476-0.421c0.667,1.533,1.311,3.353,0.37,3.516c-1.236,0.2-5.077-0.533-7.429-0.36
	c-5.458,0.396-8.7,2.517-7.736,3.425c0.109,0.112,0.307,0.799,0.972,0.515c0.672-0.284,1.829-1.56,3.918-1.956
	c3.623-0.68,5.813,0.431,5.922,0.596c0.145,0.203-2.75-0.302-6.148,1.094c-2.299,0.946-4.59,3.664-3.829,3.298
	c0.335-0.167,1.248,0.145,1.713-0.048c3.245-1.385,8.551-3.857,8.518-2.332c-0.008,0.533-2.344,1.063-4.79,2.306
	c-1.436,0.733-3.035,1.817-3.852,2.771c-0.368,0.431,0.074,1.286,1.705,0.69c2.377-0.863,6.414-3.435,6.886-3.527
	c6.488-1.241-7.107,4.618-5.506,5.813c1.066,0.789,2.783,0.137,4.724-1.028c2.575-1.56,5.755-3.692,7.98-5.199
	c9.969-6.729,5.907,4.62,7.944,4.187C30.22,15.302,29.862,7.982,25.559,5.668z"/>
</svg>
