<?xml version="1.0" encoding="utf-8"?>
<!-- Generator: Adobe Illustrator 17.0.0, SVG Export Plug-In . SVG Version: 6.00 Build 0)  -->
<!DOCTYPE svg PUBLIC "-//W3C//DTD SVG 1.1 Basic//EN" "http://www.w3.org/Graphics/SVG/1.1/DTD/svg11-basic.dtd">
<svg version="1.1" baseProfile="basic" id="Слой_1"
	 xmlns="http://www.w3.org/2000/svg" xmlns:xlink="http://www.w3.org/1999/xlink" x="0px" y="0px" width="254.938px"
	 height="259.375px" viewBox="0 0 254.938 259.375" xml:space="preserve">
<polygon fill="#A8A8A8" stroke="#272525" stroke-width="3" stroke-miterlimit="10" points="557.307,189.762 557.307,189.762 
	557.306,189.761 "/>
<path fill="#A8A8A8" stroke="#272525" stroke-miterlimit="10" d="M86.42,63.679c-0.005-0.083-0.008-0.164-0.014-0.248
	c-0.014-0.187-0.032-0.382-0.051-0.575c-0.008-0.081-0.014-0.161-0.023-0.244c-0.06-0.595-0.133-1.23-0.207-1.922
	c-0.01-0.093-0.02-0.188-0.029-0.284c-0.025-0.237-0.048-0.485-0.071-0.736c-0.012-0.132-0.024-0.265-0.036-0.402
	c-0.02-0.239-0.038-0.49-0.056-0.744c-0.01-0.15-0.021-0.298-0.031-0.454c-0.016-0.275-0.029-0.566-0.041-0.859
	c-0.006-0.147-0.014-0.287-0.019-0.439c-0.014-0.451-0.023-0.921-0.023-1.419c0.003-6.795-6.12-30.046-8.954-35.689
	C73.914,13.788,61.814,5.417,55.796,8.766c-0.48,0.267-0.929,0.52-1.358,0.764c-0.058,0.033-0.127,0.071-0.185,0.104
	c0.001,0,0.003,0,0.004,0c-11.882,6.79-4.409,5.195-16.072,19.74c-6.519,8.128-14.474,10.963-12.526,13.842
	c0.065,0.096,0.407,0.086,0.476-0.035c0.071-0.124,0.144-0.22,0.215-0.335c-0.142,0.227-0.284,0.451-0.422,0.714
	c0.378,0.446,0.555,1.053,0.59,1.776c-0.458,0.846-0.563,1.786-0.35,2.636c-2.415,9.325-16.034,28.123-9.331,33.314
	c0.002,0.002,0.006,0.004,0.009,0.005c1.171,0.907,0.422,0.353,0.159,0.718c-0.905,1.253,0.693,3.354,1.977,4.478
	c0.409,0.356,1.245,0.971,1.233,0.967c0.041,0.029,0.086,0.052,0.127,0.081c0.313,0.22,0.637,0.416,0.961,0.613
	c0.217,0.131,0.431,0.266,0.653,0.387c0.328,0.179,0.664,0.339,1.002,0.495c0.231,0.107,0.463,0.214,0.699,0.311
	c0.344,0.141,0.693,0.269,1.046,0.389c0.243,0.083,0.488,0.162,0.736,0.236c0.359,0.106,0.722,0.204,1.09,0.291
	c0.251,0.059,0.505,0.112,0.76,0.162c0.376,0.074,0.754,0.143,1.138,0.199c0.254,0.037,0.512,0.065,0.77,0.093
	c0.395,0.044,0.791,0.086,1.193,0.112c0.25,0.016,0.503,0.021,0.755,0.031c0.419,0.015,0.838,0.031,1.263,0.029
	c0.229-0.001,0.461-0.014,0.691-0.021c0.456-0.013,0.911-0.024,1.373-0.056c0.144-0.01,0.29-0.028,0.434-0.04
	c1.733-0.14,3.503-0.405,5.296-0.771c0.169-0.035,0.337-0.063,0.507-0.1c0.481-0.103,0.963-0.22,1.446-0.337
	c0.247-0.06,0.493-0.115,0.74-0.178c0.455-0.116,0.911-0.242,1.367-0.369c0.277-0.077,0.554-0.151,0.831-0.232
	c0.442-0.129,0.884-0.264,1.327-0.402c0.289-0.09,0.578-0.179,0.867-0.272c0.435-0.14,0.87-0.285,1.304-0.433
	c0.297-0.101,0.593-0.202,0.889-0.306c0.426-0.15,0.851-0.302,1.276-0.458c0.302-0.111,0.604-0.223,0.905-0.337
	c0.418-0.158,0.835-0.316,1.252-0.479c0.301-0.117,0.6-0.237,0.899-0.356c0.414-0.165,0.828-0.331,1.238-0.5
	c0.293-0.12,0.583-0.243,0.874-0.365c0.412-0.173,0.823-0.344,1.231-0.519c0.281-0.121,0.558-0.243,0.837-0.364
	c0.41-0.179,0.821-0.357,1.226-0.537c0.242-0.107,0.478-0.215,0.717-0.323c1.581-0.71,3.115-1.422,4.588-2.118
	c0.154-0.073,0.313-0.147,0.466-0.219c0.449-0.213,0.885-0.421,1.322-0.629c0.184-0.088,0.37-0.176,0.552-0.263
	c0.594-0.284,1.172-0.561,1.739-0.832c0.188-0.09,0.368-0.176,0.552-0.264c0.386-0.185,0.764-0.365,1.136-0.541
	c0.238-0.113,0.469-0.222,0.701-0.332c0.302-0.142,0.597-0.281,0.888-0.417c0.236-0.11,0.467-0.217,0.696-0.323
	c0.271-0.125,0.535-0.245,0.795-0.363c0.224-0.101,0.445-0.201,0.661-0.297c0.244-0.108,0.48-0.21,0.713-0.311
	c0.211-0.091,0.421-0.181,0.623-0.265c0.219-0.091,0.426-0.173,0.634-0.256c0.194-0.077,0.39-0.156,0.574-0.226
	c0.197-0.075,0.379-0.137,0.564-0.202c0.172-0.061,0.35-0.126,0.511-0.178c0.668-0.216,1.251-0.362,1.727-0.417
	c0.797-0.089,4.828-3.22,4.828-3.22c0.431-0.704,0.776-1.34,1.065-1.94c0.002-0.001,0.004-0.001,0.006-0.001
	c0.014-0.029,0.024-0.055,0.038-0.084c0.071-0.15,0.132-0.294,0.196-0.438c0.069-0.157,0.138-0.314,0.197-0.465
	c0.057-0.144,0.107-0.285,0.156-0.424c0.051-0.143,0.099-0.286,0.142-0.426c0.042-0.137,0.081-0.272,0.116-0.406
	c0.036-0.135,0.068-0.27,0.097-0.402c0.029-0.131,0.057-0.263,0.08-0.393s0.041-0.26,0.058-0.389
	c0.017-0.128,0.036-0.256,0.047-0.383c0.012-0.127,0.018-0.255,0.025-0.383c0.007-0.127,0.017-0.256,0.02-0.383
	c0.008-0.119,0.004-0.242,0.003-0.365C86.45,64.28,86.44,63.982,86.42,63.679z"/>
<path fill="#A8A8A8" stroke="#272525" stroke-miterlimit="10" d="M65.439,81.017c-0.153,0.073-0.311,0.146-0.466,0.219
	c-1.473,0.696-3.007,1.407-4.588,2.118c-0.24,0.108-0.476,0.215-0.717,0.323c-0.405,0.18-0.816,0.358-1.226,0.537
	c-0.279,0.122-0.556,0.244-0.837,0.364c-0.408,0.175-0.819,0.347-1.231,0.519c-0.291,0.122-0.581,0.244-0.874,0.365
	c-0.411,0.169-0.824,0.334-1.238,0.5c-0.299,0.12-0.598,0.239-0.899,0.356c-0.416,0.162-0.833,0.321-1.252,0.479
	c-0.301,0.114-0.603,0.226-0.905,0.337c-0.424,0.156-0.849,0.308-1.276,0.458c-0.296,0.104-0.592,0.206-0.889,0.306
	c-0.435,0.148-0.869,0.293-1.304,0.433c-0.289,0.093-0.578,0.182-0.867,0.272c-0.443,0.137-0.885,0.273-1.327,0.402
	c-0.277,0.081-0.554,0.155-0.831,0.232c-0.456,0.127-0.912,0.253-1.367,0.369c-0.247,0.063-0.493,0.118-0.74,0.178
	c-0.483,0.117-0.965,0.234-1.446,0.337c-0.17,0.036-0.338,0.065-0.507,0.1c-0.096,0.02-0.19,0.031-0.286,0.05
	c-3.485,5.627-3.581,14.423,2.86,27.915c4.561,9.553,11.412,13.877,18.264,15.246c1.637,1.344,3.312,2.663,5.041,3.945
	c4.661,3.461,9.647,6.686,14.861,9.679C84.331,133.7,65.502,103.433,65.477,81C65.463,81.005,65.451,81.011,65.439,81.017z"/>
<path fill="#A8A8A8" stroke="#272525" stroke-miterlimit="10" d="M195.165,121.585c-1.426-7.131-2.327-14.774-2.374-22.559
	c-14.678,0.178-29.66,1.866-39.828-2.753c-1.063-0.482-2.112-0.993-3.153-1.518c-0.352-0.178-0.7-0.363-1.05-0.545
	c-0.696-0.362-1.388-0.731-2.074-1.11c-0.384-0.212-0.768-0.426-1.149-0.643c-0.681-0.388-1.357-0.786-2.028-1.189
	c-0.336-0.201-0.674-0.399-1.007-0.603c-0.958-0.589-1.906-1.189-2.843-1.803c-0.266-0.174-0.526-0.355-0.79-0.531
	c-0.702-0.468-1.4-0.939-2.09-1.419c-0.371-0.258-0.739-0.519-1.107-0.78c-0.589-0.418-1.174-0.838-1.753-1.263
	c-0.361-0.264-0.722-0.528-1.079-0.794c-0.642-0.479-1.277-0.961-1.908-1.446c-0.263-0.202-0.531-0.403-0.792-0.606
	c-0.875-0.681-1.74-1.365-2.593-2.053c-0.243-0.196-0.481-0.392-0.722-0.588c-0.643-0.523-1.281-1.046-1.911-1.569
	c-0.28-0.233-0.558-0.466-0.836-0.699c-0.625-0.524-1.244-1.048-1.856-1.571c-0.212-0.181-0.426-0.363-0.637-0.544
	c-3.225-2.77-6.243-5.47-9.085-7.999c11.488,20.072,14.837,55.416,4.347,73.341c-1.538,2.629-6.465,17.246-4.311,17.246
	c-0.316,0-0.072,1.588,0.427,3.986c24.693,8.404,50.898,11.862,72.675,9.091C193.356,155.85,198.104,138.241,195.165,121.585z"/>
<path fill="#A8A8A8" stroke="#272525" stroke-miterlimit="10" d="M246.781,217.501c-0.007-0.352-0.02-0.707-0.037-1.064
	c-0.003-0.066-0.006-0.132-0.01-0.199c-0.046-0.832-0.12-1.674-0.22-2.519c-0.007-0.055-0.014-0.109-0.02-0.163
	c-0.046-0.374-0.097-0.748-0.152-1.123c-0.009-0.061-0.017-0.121-0.027-0.182c-0.129-0.841-0.281-1.679-0.456-2.51
	c-0.016-0.077-0.033-0.153-0.05-0.23c-0.072-0.334-0.147-0.666-0.226-0.996c-0.022-0.093-0.044-0.186-0.067-0.28
	c-0.098-0.397-0.198-0.793-0.305-1.183c-6.287-22.983,3.59-50.157-2.829-78.283c-3.613-15.822-13.384-23.206-25.19-27.08
	c-7.265-2.382-15.602-2.777-24.04-2.674c0.047,7.785,0.948,15.428,2.374,22.559c2.939,16.656-1.809,34.265-9.526,49.079
	c0.164-0.021,0.333-0.034,0.497-0.056c8.574,22.792,25.931,46.374,41.743,56.254c2.087,1.356,3.952,2.316,5.637,2.968
	c-0.01-0.004-0.02-0.006-0.03-0.01c0.971,3.351,2.061,8.164-1.076,6.585c-1.223-0.617-12.179-0.901-14.14,3.6
	c-0.056,0.137,0.307,0.789,0.977,0.505c0.667-0.277,1.824-1.553,3.912-1.949c3.623-0.68,5.12-0.175,5.232-0.018
	c0.14,0.211-2.058,0.302-5.455,1.7c-2.301,0.944-4.593,3.671-3.829,3.296c0.332-0.157,1.248,0.155,1.713-0.046
	c3.245-1.385,7.822-3.682,8.515-2.324c0.294,0.571-3.029,1.192-4.674,1.984c-1.53,0.726-3.227,1.982-3.966,3.093
	c-0.969,1.444,1.745,0.469,3.506-0.411c0.665-0.34,1.449-0.662,1.571-0.845c0.875-1.286,9.728-3.933,1.436,1.175
	c-2.078,1.286-4.103,2.608-3.428,3.05c1.109,0.733,2.781,0.145,4.724-1.03c12.802-7.713,15.155-0.927,12.966-15.547
	c0.435-1.124,0.738-2.113,0.929-2.977c0.01-0.008,0.022-0.013,0.033-0.021c0.095-0.068,0.184-0.144,0.275-0.217
	c0.119-0.096,0.236-0.196,0.349-0.301c0.088-0.081,0.175-0.164,0.258-0.25c0.121-0.124,0.236-0.256,0.349-0.39
	c0.063-0.074,0.129-0.144,0.19-0.222c0.158-0.203,0.307-0.418,0.449-0.641c0.062-0.096,0.119-0.198,0.178-0.298
	c0.09-0.153,0.178-0.31,0.261-0.472c0.055-0.106,0.109-0.212,0.161-0.321c0.093-0.196,0.181-0.398,0.265-0.604
	c0.031-0.076,0.065-0.148,0.095-0.225c0.107-0.279,0.205-0.568,0.296-0.863c0.032-0.102,0.06-0.207,0.09-0.31
	c0.063-0.219,0.122-0.442,0.177-0.669c0.026-0.107,0.052-0.214,0.076-0.324c0.065-0.291,0.124-0.588,0.177-0.89
	c0.006-0.037,0.014-0.072,0.02-0.11c0.058-0.348,0.107-0.705,0.15-1.066c0.01-0.087,0.019-0.175,0.028-0.263
	c0.031-0.291,0.058-0.586,0.079-0.884c0.006-0.088,0.013-0.176,0.019-0.264c0.048-0.768,0.065-1.556,0.054-2.359
	C246.784,217.626,246.782,217.563,246.781,217.501z"/>
<path fill="#A8A8A8" stroke="#272525" stroke-miterlimit="10" d="M196.931,229.462c-1.193-0.638-2.003-2.875-2.161-3.831
	c-0.017-0.101,0.073-0.525,0.12-0.656c0.151-0.419,0.279-0.808,0.393-1.181c-0.018,0.025-0.035,0.051-0.053,0.076
	c-0.497,0.678-1.08,1.248-1.751,1.697c-0.071,0.048-0.143,0.094-0.216,0.139c-0.679,0.415-1.446,0.705-2.308,0.854
	c-0.052,0.009-0.145,0.026-0.142,0.02c-0.33,0.05-0.676,0.077-1.035,0.083c0.357-0.008,0.704-0.034,1.034-0.084
	c-0.002,0.006,0.09-0.011,0.142-0.02c0.861-0.149,1.629-0.439,2.308-0.854c0.073-0.045,0.145-0.091,0.216-0.139
	c0.671-0.449,1.254-1.019,1.751-1.697c0.044-0.059,0.085-0.121,0.127-0.182c0.233-0.336,0.451-0.691,0.646-1.072
	c0.007-0.014,0.016-0.027,0.023-0.042c0.207-0.409,0.39-0.845,0.555-1.301c0.022-0.061,0.042-0.123,0.063-0.184
	c0.15-0.431,0.284-0.878,0.399-1.344c0.007-0.03,0.016-0.059,0.024-0.089c0.122-0.506,0.224-1.03,0.308-1.57
	c0.008-0.049,0.014-0.1,0.021-0.15c0.075-0.507,0.134-1.027,0.178-1.559c0.004-0.047,0.009-0.092,0.012-0.139
	c0.044-0.575,0.071-1.162,0.08-1.76c0-0.028,0-0.057,0-0.085c0.007-0.566-0.002-1.14-0.024-1.72
	c-0.001-0.061-0.003-0.124-0.006-0.188c-0.027-0.614-0.067-1.233-0.124-1.856c-0.001-0.006-0.001-0.013-0.002-0.019
	c-0.055-0.596-0.126-1.194-0.207-1.793c-0.012-0.091-0.024-0.182-0.037-0.273c-0.17-1.204-0.391-2.405-0.656-3.588
	c-0.028-0.126-0.056-0.25-0.085-0.375c-0.135-0.579-0.276-1.155-0.431-1.721c-0.203-0.742-0.389-1.488-0.56-2.238
	c-0.032-0.14-0.057-0.282-0.088-0.422c-0.135-0.611-0.264-1.223-0.38-1.839c-0.035-0.185-0.062-0.371-0.095-0.556
	c-0.102-0.574-0.201-1.148-0.287-1.726c-0.032-0.214-0.057-0.431-0.087-0.646c-0.077-0.55-0.151-1.1-0.215-1.653
	c-0.028-0.244-0.051-0.49-0.076-0.735c-0.055-0.526-0.109-1.053-0.154-1.583c-0.023-0.272-0.041-0.545-0.061-0.818
	c-0.038-0.504-0.074-1.008-0.103-1.515c-0.017-0.3-0.03-0.602-0.044-0.903c-0.023-0.481-0.045-0.963-0.06-1.446
	c-0.011-0.326-0.018-0.654-0.026-0.981c-0.001-0.055-0.002-0.109-0.003-0.164c-2.66-4.985-5.001-10.089-6.907-15.154
	c-14.854,1.96-31.806,0.992-48.947-2.48c8.769,22.286,25.675,45.007,41.119,54.659c2.769,1.801,5.156,2.915,7.224,3.502
	c-0.002-0.001-0.004-0.001-0.006-0.002c0.667,1.533,1.311,3.353,0.37,3.516c-1.236,0.2-5.077-0.533-7.429-0.36
	c-5.458,0.396-8.7,2.517-7.736,3.425c0.109,0.112,0.307,0.799,0.972,0.515c0.672-0.284,1.829-1.56,3.918-1.956
	c3.623-0.68,5.813,0.431,5.922,0.596c0.145,0.203-2.75-0.302-6.148,1.094c-2.299,0.946-4.59,3.664-3.829,3.298
	c0.335-0.167,1.248,0.145,1.713-0.048c3.245-1.385,8.551-3.857,8.518-2.332c-0.008,0.533-2.344,1.063-4.79,2.306
	c-1.436,0.733-3.034,1.817-3.852,2.771c-0.368,0.431,0.074,1.286,1.705,0.69c2.377-0.863,6.414-3.435,6.886-3.527
	c6.488-1.241-7.107,4.618-5.506,5.813c1.066,0.789,2.783,0.137,4.724-1.028c2.575-1.56,5.755-3.692,7.98-5.199
	c9.969-6.729,5.907,4.62,7.944,4.187C201.592,239.096,201.234,231.776,196.931,229.462z"/>
<path fill="#A8A8A8" stroke="#272525" stroke-miterlimit="10" d="M106.178,233.743c1.522,0.147,9.34,1.762,9.525,0.313
	c0.01-0.078-0.156-0.24-0.461-0.295c-2.347-0.424-13.713-3.216-18.355-4.004c-1.475-0.251,0.744-4.465,0.422-6.827
	c12.896-2.278,19.881-29.358,19.881-40.71c0-5.745-4.25-20.842-4.446-24.143c-0.025-0.415-0.15-0.727-0.237-0.883
	c-1.056-1.904,3.262-14.577,4.683-17.006c15.515-26.522,0.748-91.177-25.86-88.081c-2.223,0.259-4.044,0.844-5.64,1.584
	c0.059,0.644,0.094,1.225,0.094,1.712c0,0.498,0.009,0.968,0.023,1.419c0.005,0.152,0.013,0.292,0.019,0.439
	c0.012,0.293,0.024,0.584,0.041,0.859c0.009,0.156,0.02,0.303,0.031,0.454c0.018,0.253,0.036,0.505,0.056,0.744
	c0.012,0.137,0.024,0.27,0.036,0.402c0.023,0.251,0.047,0.499,0.071,0.736c0.01,0.095,0.02,0.191,0.029,0.284
	c0.074,0.692,0.147,1.327,0.207,1.922c0.008,0.083,0.015,0.162,0.023,0.244c0.018,0.194,0.037,0.388,0.051,0.575
	c0.006,0.084,0.009,0.165,0.014,0.248c0.019,0.303,0.03,0.601,0.032,0.894c0.001,0.122,0.004,0.246,0.002,0.368
	c-0.003,0.128-0.013,0.256-0.02,0.383s-0.013,0.255-0.025,0.383c-0.012,0.127-0.031,0.255-0.047,0.383
	c-0.017,0.129-0.035,0.259-0.058,0.389c-0.023,0.129-0.051,0.261-0.08,0.393c-0.029,0.133-0.061,0.267-0.097,0.402
	c-0.035,0.133-0.074,0.269-0.116,0.406c-0.043,0.139-0.092,0.282-0.142,0.426c-0.049,0.14-0.099,0.28-0.156,0.424
	c-0.06,0.151-0.129,0.309-0.197,0.465c-0.063,0.145-0.124,0.288-0.196,0.438c-0.014,0.029-0.024,0.055-0.038,0.084
	c-0.002,0.001-0.004,0.001-0.006,0.001c-0.289,0.6-0.634,1.236-1.065,1.94c0,0-4.032,3.131-4.828,3.22
	c-0.477,0.055-1.06,0.201-1.727,0.417c-0.161,0.052-0.339,0.117-0.511,0.178c-0.185,0.065-0.367,0.128-0.564,0.202
	c-0.184,0.07-0.38,0.149-0.574,0.226c-0.208,0.083-0.415,0.165-0.634,0.256c-0.202,0.084-0.412,0.174-0.623,0.265
	c-0.234,0.101-0.469,0.202-0.713,0.311c-0.216,0.096-0.437,0.195-0.661,0.297c-0.26,0.118-0.524,0.238-0.795,0.363
	c-0.229,0.105-0.46,0.212-0.696,0.323c-0.291,0.136-0.587,0.275-0.888,0.417c-0.232,0.11-0.463,0.219-0.701,0.332
	c-0.372,0.177-0.75,0.357-1.136,0.541c-0.185,0.088-0.365,0.174-0.552,0.264c-0.567,0.271-1.145,0.548-1.739,0.832
	c-0.182,0.087-0.368,0.175-0.552,0.263c-0.425,0.203-0.849,0.405-1.285,0.612c0.027,24.261,22.07,57.703,14.758,68.985
	c-11.611,17.936-11.063,40.992-4.453,58.35c2.911,7.636,4.192,11.379,7.155,13.209c-0.003-0.002-0.006-0.003-0.009-0.005
	c0.529,3.777,1.654,9.351,0.21,10.126c-6.46,3.461-20.458,6.171-15.239,9.091c3.481,1.956,14.064-8.099,22.046-4.481
	c0.909,0.411,1.768,0.88,2.608,1.406c5.874,3.654,10.327,9.733,15.049,13.12c1.616,1.167,4.384,2.913,6.188,3.555
	c10.027,3.572-17.888-15.777-8.411-11.976c1.406,0.571,7.317,5.29,12.166,7.145c3.77,1.444,5.919-0.165,3.177-1.642
	c-23.378-12.636-13.673-11.829-6.467-6.972c0-0.302,9.126,5.354,9.149,3.821C122.985,239.949,101.157,232.116,106.178,233.743z
	 M95.791,223.086c0.248-0.006,0.492-0.024,0.736-0.048C96.284,223.066,96.038,223.079,95.791,223.086z"/>
<path fill="#A8A8A8" stroke="#272525" stroke-miterlimit="10" d="M52.147,238.581c-4.194,4.702-5.016,5.08-8.234,3.278
	c-5.283-2.938-6.135-9.954-2.187-13.618c1.18-1.094,5.25-1.606,4.95,0.084c-1.307,7.401,0.551,7.962,3.329,0.228
	c0.317-0.891,1.373-4.976-1.718-5.813c-2.261-0.617-5.343-0.963-7.313-2.464c0.333-0.233,0.669-0.48,1.009-0.74
	c0.133-0.102,0.265-0.202,0.398-0.309c0.461-0.367,0.925-0.751,1.397-1.172c6.196-5.519,6.417-23.985,6.901-32.35
	c0.07-1.239-6.104-29.742-3.338-29.575c-0.075-0.004-0.126-0.038-0.162-0.093c-0.012-0.018-0.012-0.05-0.02-0.073
	c-0.016-0.047-0.03-0.097-0.029-0.166c0-0.037,0.01-0.086,0.015-0.129c0.009-0.077,0.021-0.156,0.045-0.251
	c0.013-0.051,0.031-0.11,0.048-0.166c0.033-0.11,0.07-0.226,0.119-0.356c0.021-0.057,0.045-0.118,0.069-0.179
	c0.06-0.152,0.127-0.314,0.205-0.488c0.022-0.051,0.045-0.102,0.069-0.154c0.098-0.215,0.205-0.442,0.325-0.685
	c0.009-0.019,0.018-0.037,0.027-0.055c2.278-4.592,8.284-13.93,12.539-20.991c-6.713-1.459-13.38-5.792-17.848-15.152
	c-4.032-8.446-5.501-15.051-5.184-20.192c-3.513,8.62-3.604,27.514-14.886,50.147c-7.038,12.818-15.295,22.26-14.632,36.704
	c0.221,4.811,1.375,10.21,4.014,16.426c3.563,8.383,8.606,19.275,16.092,22.334c-0.01-0.004-0.021-0.007-0.031-0.012
	c1.173,11.146,7.476,26.362,16.753,23.916C60.558,242.364,52.446,238.251,52.147,238.581z"/>
</svg>
