<?xml version="1.0" encoding="utf-8"?>
<!-- Generator: Adobe Illustrator 17.0.0, SVG Export Plug-In . SVG Version: 6.00 Build 0)  -->
<!DOCTYPE svg PUBLIC "-//W3C//DTD SVG 1.1 Basic//EN" "http://www.w3.org/Graphics/SVG/1.1/DTD/svg11-basic.dtd">
<svg version="1.1" baseProfile="basic" id="Слой_1"
	 xmlns="http://www.w3.org/2000/svg" xmlns:xlink="http://www.w3.org/1999/xlink" x="0px" y="0px" width="84.044px"
	 height="104.603px" viewBox="0 0 84.044 104.603" xml:space="preserve">
<path fill="#CE9536" d="M83.165,54.585c-1.426-7.131-2.327-14.774-2.374-22.559c-14.678,0.178-29.66,1.866-39.828-2.753
	c-1.063-0.482-2.112-0.993-3.153-1.518c-0.352-0.178-0.7-0.363-1.05-0.545c-0.696-0.362-1.388-0.731-2.074-1.11
	c-0.384-0.212-0.768-0.426-1.149-0.643c-0.681-0.388-1.357-0.786-2.028-1.189c-0.336-0.201-0.674-0.399-1.007-0.603
	c-0.958-0.589-1.906-1.189-2.843-1.803c-0.266-0.174-0.526-0.355-0.79-0.531c-0.702-0.468-1.4-0.939-2.09-1.419
	c-0.371-0.258-0.739-0.519-1.107-0.78c-0.589-0.418-1.174-0.838-1.753-1.263c-0.361-0.264-0.722-0.528-1.079-0.794
	c-0.642-0.479-1.277-0.961-1.908-1.446c-0.263-0.202-0.531-0.403-0.792-0.606c-0.875-0.681-1.74-1.365-2.593-2.053
	c-0.243-0.196-0.481-0.392-0.722-0.588c-0.643-0.523-1.281-1.046-1.911-1.569c-0.28-0.233-0.558-0.466-0.836-0.699
	c-0.625-0.524-1.244-1.048-1.856-1.571C10.01,8.362,9.796,8.18,9.585,7.999C6.36,5.229,3.342,2.529,0.5,0
	c11.488,20.072,14.837,55.416,4.347,73.341C3.309,75.97-1.618,90.587,0.536,90.587c-0.316,0-0.072,1.588,0.427,3.986
	c24.693,8.404,50.898,11.862,72.675,9.091C81.356,88.85,86.105,71.241,83.165,54.585z"/>
</svg>
