<?xml version="1.0" encoding="utf-8"?>
<!-- Generator: Adobe Illustrator 17.0.0, SVG Export Plug-In . SVG Version: 6.00 Build 0)  -->
<!DOCTYPE svg PUBLIC "-//W3C//DTD SVG 1.1 Basic//EN" "http://www.w3.org/Graphics/SVG/1.1/DTD/svg11-basic.dtd">
<svg version="1.1" baseProfile="basic" id="Слой_1"
	 xmlns="http://www.w3.org/2000/svg" xmlns:xlink="http://www.w3.org/1999/xlink" x="0px" y="0px" width="254.938px"
	 height="259.375px" viewBox="0 0 254.938 259.375" xml:space="preserve">
<polygon fill="#A8A8A8" stroke="#272525" stroke-width="3" stroke-miterlimit="10" points="557.307,189.762 557.307,189.762 
	557.306,189.761 "/>
<path fill="#A8A8A8" stroke="#272525" stroke-miterlimit="10" d="M246.76,217.306c-0.007-0.352-0.019-0.707-0.037-1.064
	c-0.003-0.066-0.006-0.132-0.01-0.199c-0.046-0.832-0.12-1.674-0.22-2.519c-0.006-0.055-0.014-0.109-0.02-0.163
	c-0.046-0.374-0.097-0.748-0.152-1.123c-0.009-0.061-0.018-0.121-0.027-0.182c-0.129-0.841-0.281-1.679-0.456-2.51
	c-0.016-0.077-0.033-0.153-0.05-0.23c-0.072-0.334-0.147-0.666-0.226-0.996c-0.022-0.093-0.044-0.186-0.067-0.28
	c-0.098-0.397-0.198-0.793-0.305-1.183c-6.287-22.983,3.59-50.157-2.829-78.283c-3.613-15.822-13.384-23.206-25.19-27.08
	c-19.902-6.526-47.855,1.847-63.868-5.427c-1.063-0.482-2.112-0.993-3.153-1.518c-0.352-0.178-0.7-0.363-1.05-0.545
	c-0.696-0.362-1.388-0.731-2.074-1.11c-0.384-0.212-0.768-0.426-1.149-0.643c-0.682-0.388-1.357-0.786-2.029-1.189
	c-0.336-0.201-0.674-0.399-1.007-0.603c-0.958-0.589-1.906-1.189-2.843-1.803c-0.266-0.174-0.526-0.355-0.79-0.531
	c-0.702-0.468-1.4-0.939-2.09-1.419c-0.371-0.258-0.739-0.519-1.107-0.78c-0.589-0.418-1.174-0.838-1.753-1.263
	c-0.361-0.264-0.721-0.528-1.079-0.794c-0.642-0.479-1.277-0.961-1.908-1.446c-0.264-0.202-0.531-0.403-0.792-0.606
	c-0.875-0.681-1.74-1.365-2.593-2.053c-0.243-0.196-0.48-0.392-0.721-0.588c-0.643-0.523-1.281-1.046-1.911-1.569
	c-0.28-0.233-0.558-0.466-0.836-0.699c-0.625-0.524-1.244-1.048-1.856-1.571c-0.212-0.181-0.426-0.363-0.637-0.544
	c-3.22-2.766-6.248-5.476-9.089-8.006c-5.508-9.62-12.883-15.733-21.504-14.73c-2.223,0.259-4.044,0.844-5.64,1.584
	c-0.768-8.336-6.229-28.739-8.86-33.977c-2.951-5.876-15.051-14.247-21.07-10.898c-0.48,0.267-0.929,0.52-1.358,0.764
	c-0.058,0.033-0.127,0.071-0.185,0.104c0.001,0,0.002,0,0.004,0c-11.882,6.79-4.409,5.195-16.072,19.74
	c-6.736,8.398-15.005,11.146-12.298,14.13c0.047,0.052,0.075,0.119,0.116,0.174c0.097,0.131,0.192,0.265,0.261,0.42
	c0.018,0.039,0.026,0.087,0.042,0.128c0.066,0.17,0.126,0.346,0.162,0.54c0.007,0.037,0.006,0.079,0.012,0.117
	c0.022,0.143,0.032,0.297,0.039,0.452c-0.458,0.846-0.563,1.786-0.351,2.636c-0.041,0.159-0.074,0.311-0.121,0.476
	c0,0.002-0.001,0.004-0.002,0.005c-1.365,4.714-5.278,11.598-8.058,17.956c-0.005,0.012-0.011,0.024-0.016,0.036
	c-0.189,0.433-0.37,0.862-0.548,1.289c-0.026,0.061-0.053,0.124-0.079,0.186c-0.159,0.387-0.309,0.768-0.456,1.149
	c-0.038,0.098-0.08,0.199-0.118,0.297c-0.128,0.338-0.245,0.669-0.363,1c-0.048,0.136-0.102,0.276-0.149,0.411
	c-0.109,0.318-0.204,0.628-0.301,0.939c-0.044,0.141-0.094,0.286-0.136,0.425c-0.086,0.291-0.157,0.573-0.231,0.856
	c-0.04,0.153-0.088,0.31-0.124,0.461c-0.061,0.254-0.105,0.497-0.155,0.743c-0.035,0.171-0.078,0.348-0.107,0.516
	c-0.039,0.225-0.06,0.439-0.088,0.657c-0.023,0.178-0.055,0.362-0.071,0.536c-0.018,0.196-0.016,0.381-0.023,0.571
	c-0.007,0.184-0.024,0.373-0.022,0.551c0.002,0.164,0.024,0.316,0.035,0.474c0.013,0.19,0.017,0.386,0.043,0.567
	c0.02,0.135,0.059,0.258,0.086,0.388c0.039,0.19,0.071,0.386,0.127,0.565c0.037,0.117,0.094,0.221,0.138,0.333
	c0.069,0.177,0.13,0.36,0.219,0.525c0.057,0.106,0.136,0.197,0.201,0.297c0.1,0.155,0.191,0.317,0.31,0.459
	c0.197,0.234,1.75,2.125,0.845,1.372c-1.188-0.99,0.693,3.354,1.977,4.478c0.408,0.356,1.245,0.971,1.233,0.967
	c0.041,0.029,0.085,0.052,0.127,0.081c0.313,0.22,0.637,0.416,0.961,0.613c0.217,0.131,0.431,0.266,0.653,0.387
	c0.328,0.179,0.664,0.339,1.002,0.495c0.231,0.107,0.463,0.214,0.699,0.311c0.344,0.141,0.693,0.269,1.046,0.389
	c0.243,0.083,0.488,0.162,0.736,0.236c0.359,0.106,0.722,0.204,1.09,0.291c0.251,0.059,0.505,0.112,0.76,0.162
	c0.376,0.074,0.754,0.143,1.138,0.199c0.254,0.037,0.512,0.065,0.77,0.093c0.395,0.044,0.791,0.086,1.193,0.112
	c0.25,0.016,0.503,0.021,0.755,0.031c0.419,0.015,0.838,0.031,1.263,0.029c0.229-0.001,0.461-0.014,0.691-0.021
	c0.456-0.013,0.911-0.024,1.373-0.056c0.144-0.01,0.29-0.028,0.434-0.04c1.636-0.132,3.305-0.377,4.996-0.712
	c-1.3,2.106-2.127,4.655-2.314,7.727c-3.508,8.626-3.604,27.512-14.881,50.135c-7.038,12.818-15.295,22.26-14.633,36.704
	c0.221,4.811,1.375,10.21,4.014,16.426c3.559,8.372,8.594,19.245,16.064,22.321c1.173,11.146,7.476,26.362,16.753,23.915
	c15.688-4.151,7.576-8.264,7.277-7.934c-4.194,4.702-5.016,5.08-8.233,3.278c-5.283-2.938-6.135-9.954-2.187-13.618
	c1.18-1.094,5.25-1.606,4.95,0.084c-1.307,7.401,0.551,7.962,3.329,0.228c0.317-0.891,1.373-4.976-1.718-5.813
	c-2.261-0.617-5.342-0.963-7.312-2.464c0.332-0.232,0.668-0.478,1.006-0.739c0.133-0.102,0.265-0.202,0.398-0.309
	c0.461-0.367,0.925-0.751,1.397-1.172c6.196-5.519,6.417-23.985,6.901-32.35c0.071-1.241-6.102-29.744-3.336-29.577
	c-0.075-0.004-0.126-0.038-0.162-0.093c-0.012-0.018-0.012-0.05-0.02-0.073c-0.016-0.047-0.03-0.097-0.029-0.166
	c0-0.037,0.01-0.086,0.015-0.129c0.009-0.077,0.021-0.156,0.045-0.251c0.013-0.051,0.031-0.11,0.048-0.166
	c0.033-0.11,0.071-0.226,0.118-0.356c0.021-0.057,0.045-0.118,0.069-0.179c0.06-0.152,0.128-0.314,0.205-0.488
	c0.022-0.051,0.045-0.102,0.069-0.154c0.098-0.215,0.205-0.442,0.325-0.685c0.009-0.019,0.018-0.037,0.027-0.055
	c2.277-4.592,8.279-13.924,12.535-20.985c0.14,0.031,0.281,0.061,0.421,0.089c1.637,1.343,3.312,2.663,5.04,3.945
	c4.664,3.463,9.653,6.69,14.87,9.684c-0.239,1.089-0.615,2.073-1.166,2.924c-11.611,17.936-11.063,40.992-4.453,58.35
	c2.91,7.634,4.19,11.377,7.151,13.209c0.529,3.777,1.654,9.349,0.21,10.124c-6.46,3.461-20.458,6.171-15.239,9.091
	c3.481,1.956,14.064-8.099,22.046-4.481c0.908,0.411,1.768,0.88,2.608,1.406c5.874,3.654,10.327,9.733,15.049,13.12
	c1.616,1.167,4.384,2.913,6.188,3.555c10.027,3.572-17.888-15.777-8.411-11.976c1.406,0.571,7.318,5.29,12.166,7.145
	c3.77,1.444,5.919-0.165,3.177-1.642c-23.378-12.636-13.673-11.829-6.468-6.972c0-0.302,9.127,5.354,9.149,3.821
	c0.061-4.61-21.767-12.443-16.746-10.816c1.53,0.148,9.421,1.778,9.527,0.29c0.005-0.072-0.148-0.216-0.433-0.267
	c-2.277-0.405-13.723-3.218-18.386-4.009c-1.476-0.251,0.746-4.468,0.422-6.83c12.894-2.284,19.876-29.358,19.876-40.708
	c0-4.567-2.684-15.038-3.884-20.8c7.984,2.717,16.125,4.915,24.225,6.555c8.769,22.286,25.675,45.007,41.119,54.659
	c2.764,1.798,5.153,2.92,7.222,3.512c0.665,1.53,1.303,3.341,0.365,3.504c-1.236,0.2-5.077-0.533-7.429-0.36
	c-5.458,0.396-8.7,2.517-7.736,3.425c0.109,0.112,0.307,0.799,0.972,0.515c0.672-0.284,1.829-1.56,3.918-1.956
	c3.623-0.68,5.813,0.431,5.922,0.596c0.145,0.203-2.75-0.302-6.148,1.094c-2.299,0.946-4.59,3.664-3.829,3.298
	c0.335-0.167,1.248,0.145,1.713-0.048c3.245-1.385,8.551-3.857,8.518-2.332c-0.008,0.533-2.344,1.063-4.79,2.306
	c-1.436,0.733-3.035,1.817-3.852,2.771c-0.368,0.431,0.073,1.286,1.705,0.69c2.377-0.863,6.414-3.435,6.886-3.527
	c6.488-1.241-7.107,4.618-5.506,5.813c1.066,0.789,2.783,0.137,4.724-1.028c2.575-1.56,5.755-3.692,7.98-5.199
	c9.969-6.729,5.907,4.62,7.944,4.187c3.895-0.825,3.537-8.145-0.766-10.459c-1.319-0.705-1.86-2.708-2.189-4.086
	c0.212-0.561,0.38-1.07,0.529-1.555c0.03-0.042,0.056-0.09,0.086-0.133c0.233-0.336,0.451-0.691,0.646-1.072
	c0.007-0.014,0.016-0.027,0.023-0.042c0.207-0.409,0.39-0.845,0.555-1.301c0.022-0.061,0.042-0.123,0.063-0.184
	c0.15-0.431,0.284-0.878,0.399-1.344c0.007-0.03,0.016-0.059,0.024-0.089c0.122-0.506,0.224-1.03,0.308-1.57
	c0.008-0.049,0.014-0.1,0.021-0.15c0.075-0.507,0.135-1.027,0.178-1.559c0.004-0.047,0.009-0.092,0.012-0.139
	c0.044-0.575,0.071-1.162,0.08-1.76c0-0.028,0-0.057,0-0.085c0.007-0.566-0.002-1.14-0.024-1.72
	c-0.002-0.064-0.004-0.127-0.007-0.192c-0.027-0.614-0.067-1.233-0.124-1.856c-0.001-0.006-0.001-0.013-0.002-0.019
	c-0.055-0.596-0.126-1.194-0.207-1.793c-0.012-0.091-0.024-0.182-0.037-0.273c-0.171-1.204-0.391-2.405-0.656-3.588
	c-0.028-0.126-0.056-0.25-0.085-0.375c-0.135-0.579-0.276-1.155-0.431-1.721c-0.203-0.742-0.389-1.488-0.56-2.238
	c-0.032-0.14-0.057-0.282-0.088-0.422c-0.134-0.611-0.264-1.223-0.379-1.839c-0.035-0.185-0.062-0.371-0.095-0.556
	c-0.102-0.574-0.201-1.148-0.287-1.726c-0.032-0.214-0.058-0.431-0.087-0.646c-0.077-0.55-0.151-1.1-0.215-1.653
	c-0.028-0.244-0.05-0.49-0.076-0.735c-0.055-0.526-0.109-1.053-0.154-1.583c-0.023-0.272-0.041-0.545-0.061-0.818
	c-0.038-0.504-0.074-1.008-0.103-1.515c-0.017-0.3-0.03-0.602-0.044-0.903c-0.023-0.481-0.045-0.963-0.06-1.446
	c-0.011-0.326-0.018-0.654-0.025-0.981c-0.001-0.055-0.002-0.11-0.003-0.164c9.308,17.443,22.539,33.416,34.837,41.1
	c2.075,1.349,3.932,2.307,5.61,2.96c0.971,3.351,2.06,8.161-1.076,6.583c-1.223-0.617-12.179-0.901-14.14,3.6
	c-0.056,0.137,0.307,0.789,0.977,0.505c0.667-0.277,1.824-1.553,3.913-1.949c3.623-0.68,5.12-0.175,5.232-0.018
	c0.14,0.211-2.058,0.302-5.455,1.7c-2.301,0.944-4.592,3.671-3.829,3.296c0.332-0.157,1.248,0.155,1.713-0.046
	c3.245-1.385,7.823-3.682,8.515-2.324c0.294,0.571-3.029,1.192-4.674,1.984c-1.53,0.726-3.227,1.982-3.966,3.093
	c-0.969,1.444,1.746,0.469,3.507-0.411c0.665-0.34,1.449-0.662,1.571-0.845c0.875-1.286,9.728-3.933,1.436,1.175
	c-2.078,1.286-4.103,2.608-3.428,3.05c1.109,0.733,2.781,0.145,4.724-1.03c12.802-7.713,15.155-0.927,12.966-15.547
	c0.432-1.124,0.735-2.111,0.926-2.975c0.011-0.008,0.021-0.017,0.031-0.025c0.095-0.068,0.184-0.144,0.275-0.217
	c0.119-0.096,0.236-0.196,0.349-0.301c0.088-0.081,0.175-0.164,0.258-0.25c0.121-0.124,0.236-0.256,0.349-0.39
	c0.063-0.074,0.129-0.144,0.189-0.222c0.158-0.203,0.307-0.418,0.449-0.641c0.062-0.096,0.119-0.198,0.178-0.298
	c0.09-0.153,0.178-0.31,0.261-0.472c0.055-0.106,0.109-0.212,0.161-0.321c0.093-0.196,0.181-0.398,0.265-0.604
	c0.031-0.076,0.065-0.148,0.095-0.225c0.107-0.279,0.205-0.568,0.296-0.863c0.032-0.102,0.06-0.207,0.09-0.31
	c0.063-0.219,0.122-0.442,0.177-0.669c0.026-0.107,0.052-0.214,0.076-0.324c0.065-0.291,0.124-0.588,0.177-0.89
	c0.006-0.037,0.014-0.072,0.021-0.11c0.058-0.348,0.107-0.705,0.15-1.066c0.01-0.087,0.019-0.175,0.028-0.263
	c0.031-0.291,0.058-0.586,0.079-0.884c0.006-0.088,0.013-0.176,0.019-0.264c0.048-0.768,0.065-1.556,0.054-2.359
	C246.763,217.431,246.76,217.368,246.76,217.306z"/>
</svg>
