<?xml version="1.0" encoding="utf-8"?>
<!-- Generator: Adobe Illustrator 17.0.0, SVG Export Plug-In . SVG Version: 6.00 Build 0)  -->
<!DOCTYPE svg PUBLIC "-//W3C//DTD SVG 1.1 Basic//EN" "http://www.w3.org/Graphics/SVG/1.1/DTD/svg11-basic.dtd">
<svg version="1.1" baseProfile="basic" id="Слой_1"
	 xmlns="http://www.w3.org/2000/svg" xmlns:xlink="http://www.w3.org/1999/xlink" x="0px" y="0px" width="133.5px"
	 height="86.459px" viewBox="0 0 133.5 86.459" xml:space="preserve">
<path fill="#6E9FC5" d="M126.186,0.85c-1.494-0.264-3.052-0.545-4.693-0.85c18.478,26.997-16.766,12.847-30.18,1.224
	c14.445,26.538-7.347,18.092-21.637,3.739c-1.95,16.269-12.66,11.585-23.992,5.408c-7.124,14.858-17.131,12.293-25.64,4.846
	C13.742,17.34,7.109,19.974,0,23.357C6.987,37.95,14.367,52.786,8.555,68.768c-2.064,5.897-4.413,11.794-6.923,17.691
	c40.148-0.895,79.112-3.053,117.766-5.227c14.038-2.535,7.62-27.447,6.075-44.381C137.036,35.104,135.058,12.283,126.186,0.85z"/>
</svg>
