<?xml version="1.0" encoding="utf-8"?>
<!-- Generator: Adobe Illustrator 17.0.0, SVG Export Plug-In . SVG Version: 6.00 Build 0)  -->
<!DOCTYPE svg PUBLIC "-//W3C//DTD SVG 1.1 Basic//EN" "http://www.w3.org/Graphics/SVG/1.1/DTD/svg11-basic.dtd">
<svg version="1.1" baseProfile="basic" id="Слой_1"
	 xmlns="http://www.w3.org/2000/svg" xmlns:xlink="http://www.w3.org/1999/xlink" x="0px" y="0px" width="314.438px"
	 height="171.438px" viewBox="0 0 314.438 171.438" xml:space="preserve">
<polygon fill="#A8A8A8" stroke="#272525" stroke-width="3" stroke-miterlimit="10" points="557.307,189.762 557.307,189.762 
	557.306,189.761 "/>
<path fill="#A8A8A8" stroke="#272525" stroke-width="3" stroke-miterlimit="10" d="M151.126,8
	C85.935,9.049,21.421,28.691,28.54,70.074c43.338-0.757,85.582-1.71,126.006-2.986C166.804,48.007,159.916,26.394,151.126,8z"/>
<path fill="#A8A8A8" stroke="#272525" stroke-width="3" stroke-miterlimit="10" d="M151,8.047
	c8.79,18.394,15.678,40.007,3.42,59.088c43.141-1.362,84.209-3.094,122.298-5.355C287.582,26.047,218.924,6.954,151,8.047z"/>
<g>
	<path fill="#A8A8A8" stroke="#272525" stroke-width="3" stroke-miterlimit="10" d="M285.331,65.303
		c14.499-0.528,7.628-2.163-8.943-4.303c-0.028,0.097-0.049,0.193-0.079,0.29c-73.252,4.349-246.092,8.543-245.95,8.649
		C22.83,71.548,15.372,73.32,8,75.295c0.362,17.392,2.343,21.861,4.308,26.454c11.987-5.092,24.739-9.249,38.067-12.701
		c8.637,5.885,21.992,18.129,48.065,48.386c33.28-26.821,57.628-39.33,78.401-46.327c8.509,7.447,18.517,10.013,25.64-4.846
		c11.333,6.176,22.042,10.861,23.992-5.408c14.291,14.353,36.082,22.798,21.637-3.739c13.414,11.623,48.658,25.773,30.18-1.224
		C322.255,84.062,312.817,77.22,285.331,65.303z"/>
</g>
<path fill="#A8A8A8" stroke="#272525" stroke-width="3" stroke-miterlimit="10" d="M157.398,99.199
	c-16.326,7.768-35.173,19.502-58.358,38.187C72.966,107.128,59.611,94.885,50.975,89c-10.894,2.821-21.394,6.124-31.414,10.013
	c-1.599,8.596-0.049,18.66,8.195,22.15c-2.862,17.431-4.295,39.264,9.638,38.986c42.216,2.696,82.489,3.024,121.636,2.152
	c2.51-5.897,4.859-11.794,6.923-17.691C171.765,128.628,164.385,113.793,157.398,99.199z"/>
<path fill="#A8A8A8" stroke="#272525" stroke-width="3" stroke-miterlimit="10" d="M283.185,76.85
	c-1.494-0.264-3.052-0.545-4.693-0.85c18.478,26.997-16.766,12.847-30.18,1.224c14.445,26.538-7.347,18.092-21.637,3.739
	c-1.95,16.269-12.66,11.585-23.992,5.408c-7.124,14.858-17.131,12.293-25.64,4.846c-6.301,2.122-12.935,4.757-20.043,8.139
	c6.987,14.594,14.367,29.429,8.555,45.411c-2.064,5.897-4.413,11.794-6.923,17.691c40.148-0.895,79.112-3.053,117.766-5.227
	c14.038-2.535,7.62-27.447,6.075-44.381C294.035,111.103,292.057,88.282,283.185,76.85z"/>
</svg>
