<?xml version="1.0" encoding="utf-8"?>
<!-- Generator: Adobe Illustrator 17.0.0, SVG Export Plug-In . SVG Version: 6.00 Build 0)  -->
<!DOCTYPE svg PUBLIC "-//W3C//DTD SVG 1.1 Basic//EN" "http://www.w3.org/Graphics/SVG/1.1/DTD/svg11-basic.dtd">
<svg version="1.1" baseProfile="basic" id="Слой_1"
	 xmlns="http://www.w3.org/2000/svg" xmlns:xlink="http://www.w3.org/1999/xlink" x="0px" y="0px" width="300.612px"
	 height="76.433px" viewBox="0 0 300.612 76.433" xml:space="preserve">
<g>
	<path fill="#3FA556" d="M277.331,4.303c14.499-0.528,7.628-2.163-8.943-4.303c-0.028,0.097-0.049,0.193-0.079,0.29
		C195.057,4.639,22.217,8.833,22.359,8.939C14.83,10.547,7.372,12.32,0,14.294c0.362,17.392,2.343,21.861,4.308,26.454
		c11.987-5.092,24.739-9.249,38.067-12.701c8.637,5.885,21.992,18.129,48.065,48.386c33.28-26.821,57.628-39.33,78.401-46.327
		c8.509,7.447,18.517,10.013,25.64-4.846c11.333,6.176,22.042,10.861,23.992-5.408c14.291,14.353,36.082,22.798,21.637-3.739
		c13.414,11.623,48.658,25.773,30.18-1.224C314.254,23.062,304.817,16.219,277.331,4.303z"/>
</g>
</svg>
