<?xml version="1.0" encoding="utf-8"?>
<!-- Generator: Adobe Illustrator 17.0.0, SVG Export Plug-In . SVG Version: 6.00 Build 0)  -->
<!DOCTYPE svg PUBLIC "-//W3C//DTD SVG 1.1 Basic//EN" "http://www.w3.org/Graphics/SVG/1.1/DTD/svg11-basic.dtd">
<svg version="1.1" baseProfile="basic" id="Слой_1"
	 xmlns="http://www.w3.org/2000/svg" xmlns:xlink="http://www.w3.org/1999/xlink" x="0px" y="0px" width="314.438px"
	 height="171.438px" viewBox="0 0 314.438 171.438" xml:space="preserve">
<path fill="#A8A8A8" stroke="#FFFFFF" stroke-width="6" stroke-miterlimit="10" d="M285.333,65.792
	c14.499-0.528,7.63-2.164-8.943-4.303C296.615-7.61,18.783-14.141,27.686,67.775c0,0-0.159,0.392,0.064,0.579
	c0.073,0.585,0.155,1.173,0.257,1.766c0.635-0.011,1.267-0.023,1.902-0.034c0.152,0.117,0.302,0.23,0.452,0.342
	c-7.529,1.608-14.987,3.381-22.359,5.355c0.362,17.393,2.343,21.861,4.308,26.454c2.19-0.93,4.413-1.819,6.652-2.689
	c-1.606,8.602-0.052,18.66,8.196,22.151c-2.862,17.431-4.295,39.264,9.638,38.986c85.512,5.461,163.059,1.218,239.402-3.075
	c14.038-2.535,7.62-27.447,6.075-44.381c11.561-1.746,9.589-24.564,0.721-35.999C321.519,84.03,311.792,77.263,285.333,65.792z"/>
<polygon fill="#A8A8A8" stroke="#272525" stroke-width="3" stroke-miterlimit="10" points="557.307,189.762 557.307,189.762 
	557.306,189.761 "/>
<g id="Слой_x0020_1">
	<path fill="#CE8832" d="M29.278,110.237c-3.403,17.085-9.774,50.795,7.516,50.45c85.512,5.461,163.059,1.218,239.402-3.075
		c15.45-2.79,6.121-32.687,5.781-49.22L29.278,110.237L29.278,110.237z"/>
	<path fill="#783323" d="M26.598,85.996c-7.824,2.905-14.245,30.507,1.335,36.028c84.587,8.951,170.115-5.063,250.224-8.981
		c19.503,4.116,13.217-36.163-2.675-41.641C191.307,67.896,108.6,74.519,26.598,85.996L26.598,85.996z"/>
	<path fill="#8A3327" d="M32.981,78.585c-7.379,1.823-15.897,33.292-1.2,36.755c60.819,4.778-20.908-17.583,238.532-19.785
		c18.398,2.583,12.469-22.691-2.525-26.126C188.374,67.228,110.347,71.384,32.981,78.585z"/>
	<path fill="#F1C731" d="M25.227,75.17l230.098-3.693c-49.495,19.578-78.284,3.1-156.885,66.447
		C40.46,70.639,45.358,92.412,25.227,75.17z"/>
	<path fill="#F7D95A" d="M27.073,67.786l230.098-3.691c-49.495,19.575-78.284,3.098-156.885,66.445
		C42.305,63.255,47.203,85.029,27.073,67.786z"/>
	<path fill="#3BA556" d="M52.139,55.694l206.782-0.828c44.494,17.865,75.581,31.962,19.37,21.513
		c23.331,34.087-38.993,2.575-34.868-6.621c23.036,35.83-1.4,27.201-16.95,11.584c-2.695,22.486-22.123,4.946-36.803-1.24
		l17.433-7.446c-11.777,51.91-41.944,8.606-46.489-4.138c17.7,24.781-12.629,42.274-23.246-1.655
		c21.096,20.483-12.237,42.079-31.477,27.719L129.62,76.38c-47.802,61.081-59.419,3.35-58.596-4.138l11.624,9.514
		c-8.506,30.699-35.393-14.572-40.196-26.061H52.139z"/>
	<path fill="#2F7444" d="M50.954,73.512l194.691-15.54c42.509,4.533,72.26,8.404,18.975,7.969
		c23.131,13.172-36.633,3.988-33.06-0.33c22.911,13.952-0.393,11.979-15.567,6.303c-1.773,10.014-20.663,3.783-34.698,2.16
		l16.162-4.533c-9.321,23.531-39.203,6.838-43.919,1.608c17.51,9.519-10.452,19.385-21.946,0.983
		c20.563,7.396-10.089,19.27-28.697,14.415l21.726-9.689c-42.936,30.177-55.841,5.823-55.321,2.495l11.269,3.3
		c-6.966,14.027-33.822-3.766-38.736-8.429L50.954,73.512z"/>
	<path fill="#CB272A" d="M183.343,53.636C123.264,57.212,63.268,60.98,8,75.785c0.363,17.393,2.343,21.861,4.308,26.454
		C62.543,80.9,125.96,75.672,190.724,72.092C190.634,67.916,192.774,65.598,183.343,53.636z"/>
	<path fill="#CE4538" d="M180.75,56.712C108.35,57.69,59.092,68.274,9.845,78.86c43.441-3.375,115.382-14.637,104.83-3.075
		c21.233-2.835,43.009-5.321,69.25-4.923C186.963,60.857,182.238,60.875,180.75,56.712L180.75,56.712z"/>
	<path fill="#CE8832" d="M28.005,70.121c89.588-1.565,174.525-3.961,248.303-8.341C297.602-8.248,13.471-14.378,28.005,70.121z"/>
	<path fill="#E1982F" d="M28.303,134.846c0.008,8.364-2.74,18.38,4.921,22.148c70.905,7.226,147.104,0.925,213.488,0.618
		C-7.405,160.419,58.812,144.042,28.303,134.846L28.303,134.846z"/>
	<path fill="#E1982F" d="M43.613,40.835c-4.821-3.708-19.408,20.08-10.459,27.069c158.558-3.233,147.104-4.613,213.486-4.921
		C-7.475,65.793,50.129,59.872,43.613,40.835z"/>
</g>
</svg>
