<?xml version="1.0" encoding="utf-8"?>
<!-- Generator: Adobe Illustrator 17.0.0, SVG Export Plug-In . SVG Version: 6.00 Build 0)  -->
<!DOCTYPE svg PUBLIC "-//W3C//DTD SVG 1.1 Basic//EN" "http://www.w3.org/Graphics/SVG/1.1/DTD/svg11-basic.dtd">
<svg version="1.1" baseProfile="basic" id="Слой_1"
	 xmlns="http://www.w3.org/2000/svg" xmlns:xlink="http://www.w3.org/1999/xlink" x="0px" y="0px" width="314.438px"
	 height="171.438px" viewBox="0 0 314.438 171.438" xml:space="preserve">
<polygon fill="#A8A8A8" stroke="#272525" stroke-width="3" stroke-miterlimit="10" points="557.307,189.762 557.307,189.762 
	557.306,189.761 "/>
<path fill="#A8A8A8" stroke="#272525" stroke-width="3" stroke-miterlimit="10" d="M285.333,65.792
	c14.499-0.528,7.63-2.164-8.943-4.303C296.615-7.61,18.783-14.141,27.686,67.775c0,0-0.159,0.393,0.064,0.579
	c0.073,0.585,0.155,1.173,0.257,1.766c0.635-0.011,1.267-0.023,1.902-0.034c0.152,0.117,0.302,0.23,0.452,0.342
	c-7.529,1.608-14.987,3.381-22.359,5.355c0.362,17.393,2.343,21.861,4.308,26.454c2.19-0.93,4.413-1.819,6.652-2.689
	c-1.606,8.602-0.052,18.66,8.196,22.151c-2.862,17.431-4.295,39.264,9.638,38.986c85.512,5.461,163.059,1.218,239.402-3.075
	c14.038-2.535,7.62-27.447,6.075-44.381c11.561-1.746,9.589-24.564,0.721-35.999C321.519,84.03,311.792,77.263,285.333,65.792z"/>
</svg>
