<?xml version="1.0" encoding="utf-8"?>
<!-- Generator: Adobe Illustrator 17.0.0, SVG Export Plug-In . SVG Version: 6.00 Build 0)  -->
<!DOCTYPE svg PUBLIC "-//W3C//DTD SVG 1.1 Basic//EN" "http://www.w3.org/Graphics/SVG/1.1/DTD/svg11-basic.dtd">
<svg version="1.1" baseProfile="basic" id="Слой_1"
	 xmlns="http://www.w3.org/2000/svg" xmlns:xlink="http://www.w3.org/1999/xlink" x="0px" y="0px" width="330.458px"
	 height="231.979px" viewBox="0 0 330.458 231.979" xml:space="preserve">
<g>
	<path fill="#FFFFFF" stroke="#FFFFFF" stroke-width="6" stroke-miterlimit="10" d="M186.848,8.186
		c0.446,0.033,0.872,0.086,1.306,0.13C187.101,7.943,186.58,7.9,186.848,8.186z"/>
	<path fill="#FFFFFF" stroke="#FFFFFF" stroke-width="6" stroke-miterlimit="10" d="M143.003,26.648
		c0.213,0.013,0.421,0.036,0.632,0.052C143.316,26.589,143.091,26.562,143.003,26.648z"/>
	<path fill="#FFFFFF" stroke="#FFFFFF" stroke-width="6" stroke-miterlimit="10" d="M309.876,180.667
		c0.216-0.244,0.434-0.485,0.645-0.735c0.254-0.299,0.501-0.608,0.749-0.915c0.203-0.252,0.406-0.504,0.604-0.761
		c0.245-0.317,0.486-0.64,0.724-0.965c0.189-0.258,0.376-0.519,0.56-0.782c0.237-0.338,0.472-0.677,0.703-1.024
		c0.173-0.26,0.342-0.527,0.511-0.792c0.231-0.362,0.463-0.724,0.687-1.096c0.145-0.242,0.284-0.492,0.427-0.737
		c0.45-0.778,0.885-1.575,1.304-2.393c0.014-0.027,0.028-0.054,0.042-0.081c0.281-0.551,0.554-1.111,0.82-1.68
		c0.005-0.01,0.01-0.02,0.015-0.03c-0.001,0.001-0.001,0.002-0.002,0.003c0.039-0.085,0.078-0.17,0.117-0.255
		c0.118-0.257,0.24-0.51,0.355-0.771c0.196-0.443,0.383-0.896,0.571-1.35c0.118-0.286,0.236-0.57,0.35-0.861
		c0.181-0.459,0.357-0.925,0.529-1.395c0.108-0.295,0.214-0.592,0.319-0.891c0.169-0.484,0.336-0.972,0.496-1.468
		c0.093-0.289,0.183-0.583,0.273-0.876c0.161-0.522,0.322-1.045,0.473-1.581c0.065-0.232,0.125-0.47,0.189-0.704
		c2.623-9.657,3.68-21.393,2.907-35.673c-1.205-22.215-5.732-32.096-6.393-29.464c1.696,13.457,0.98,23.451-1.911,28.507
		c-2.188-5.788,0.169-11.164-0.116-16.782c-0.418-8.219-3.259-16.559-7.556-24.152c0,0,2.41,11.337,2.838,15.621
		c0.816,8.159-4.38,7.849-4.583-1.025c-0.082-3.713,0.343-7.733-0.032-11.755c-2.025-21.668-14.554-30.883-14.554-30.883
		s5.317,7.347,7.809,17.746c4.625,19.337,0.222,14.073-3.142,5.13c-2.019-5.362-2.619-12.471-3.607-15.206
		c-4.009-11.082-17.392-28.622-32.305-32.879c4.617,2.839,16.689,14.2,21.306,25.561c10.779,26.547-0.156,12.825-5.743,0.962
		c-7.727-16.385-20.999-21.987-20.888-21.908c2.043,1.456,16.573,18.351,10.294,26.877c-0.94-2.238-1.997-4.791-3.192-7.701
		c-8.872-21.658-26.272-26.988-26.272-26.988s3.906,4.973,11.007,13.845c4.268,5.338,6.739,12.207,8.031,16.845
		c-4.371-4.207-10.032-25.873-39.277-39.562c3.546,2.479,24.699,24.287,19.083,35.582c-0.296-1.094-0.622-2.305-0.973-3.634
		c-4.26-15.973-17.397-23.785-17.397-23.782c1.736,3.23,16.192,26.88,6.607,26.827c-3.724-18.156-9.543-39.733-35.122-42.318
		c6.221,2.202,31.138,15.992,23.576,42.691c-2.627-4.855,0.069-10.069-9.26-25.78c-9.329-15.716-25.918-14.913-25.918-14.913
		c24.614,9.308,27.902,27.842,30.098,41.111c-0.087,0.008-8.549-29.231-25.838-31.525c9.136,2.511,19.861,24.819,12.136,35.453
		c5.658-19.868-9.118-32.078-21.898-35.981c5.526,4.603,14.067,11.575,14.3,35.357c-0.661,0.14-1.322,0.286-1.969,0.431
		c-1.273-3.097,0.608-4.022-6.654-20.703c-7.257-16.678-27.334-22.545-27.334-22.545c19.067,10.981,25.344,29.63,27.976,44.821
		c-5.299-15.671-16.388-28.7-33.734-30.033c4.211,1.463,26.691,19.38,18.166,35.514c-0.56-23.465-21.462-27.934-21.459-27.931
		c7.656,4.73,20.909,27.497,3.676,34.691c4.076-11.25,0.222-26.559-20.185-36.29c7.915,7.727,15.735,14.76,14.361,39.768
		c-0.393,0.219-0.777,0.444-1.165,0.666c-1.395-4.879,0.466-9.929-6.876-25.059c-7.344-15.133-30.109-20.17-30.106-20.17
		c19.319,12.373,28.317,29.017,33.011,47.593c-0.788,0.486-1.57,0.973-2.331,1.459c-3.473-5.244-9.438-11.346-19.673-17.099
		c-25.561-14.379-52.186-2.132-47.929-2.661c4.26-0.536,20.772-4.262,38.875,3.724c11.321,4.992,18.272,14.366,21.887,20.685
		c-1.052,0.759-2.077,1.512-3.06,2.265c-6.866-13.253-22.463-28.304-52.905-24.012c-37.81,5.323-41.541,35.144-33.547,22.897
		C42.358,70.493,57.8,69.425,70.049,71.022h0v0.001c23.582,3.076,34.201,12.601,39.072,24.848
		c-13.589-19.769-59.325-26.339-67.233,0.387c6.578-8.721,11.742-10.708,18.526-11.131c12.302-0.764,30.473,8.026,32.725,22.302
		c0,0,0.525,2.471-2.519-3.779c-9.931-20.373-41.507-18.425-38.156-0.251c7.701-12.802,22.585-7.387,29.205-1.039
		c6.311,6.052,5.954,13.798-1.57,18.872c-3.575,2.415-9.057,5.444-17.331,9.487c-18.863,9.225-32.765,4.983-40.558,0.484
		c0.605-1.089,0.953-2.342,0.954-3.677c0-0.235-0.033-0.68-0.034-0.677c-0.332-3.744-3.381-6.713-7.164-6.9
		c-0.126-0.006-0.253-0.009-0.38-0.009c0,0-0.292,0.006-0.436,0.014c-3.783,0.214-6.812,3.2-7.115,6.957
		c-0.005,0.058-0.03,0.904-0.022,1.047c0.214,3.821,3.261,6.878,7.079,7.126c3.232,41.179,45.798,53.716,61.498,55.584
		c11.052,1.311,22.622,1.982,34.139,2.17c3.526,3.053,8.499,7.805,8.502,12.21c0,1.49-0.285,2.41-0.856,2.938
		c-2.039,1.884-7.72-1.234-17.037-1.232c-5.593,0-8.752,0.749-10.266,2.334c-1.717,1.797-1.32,4.668,0.038,8.743
		c2.555,7.669,26.419,1.702,38.346-4.26c11.929-5.97,17.04-16.192,25.566-16.192c0.206,0,0.474-0.007,0.772-0.018
		c0.011,0,0.022-0.001,0.034-0.001c1.847-0.067,5.357-0.324,10.025-0.681c7.621,2.401,16.284,4.008,26.144,4.282
		c0.106,0.003,0.212,0.006,0.318,0.009c0.871,0.024,1.74,0.049,2.607,0.074c0.176,0.005,0.35,0.01,0.526,0.016
		c8.171,0.24,16.173,0.509,23.938,0.684c0.031,0.001,0.062,0.001,0.093,0.002c1.022,0.023,2.039,0.044,3.052,0.063
		c0.129,0.002,0.258,0.005,0.387,0.007c0.948,0.018,1.891,0.033,2.831,0.047c0.134,0.002,0.268,0.004,0.401,0.006
		c0.984,0.014,1.965,0.026,2.941,0.035c0.071,0.001,0.142,0.002,0.213,0.002c2.119,0.019,4.218,0.027,6.293,0.02
		c0.09,0,0.18-0.001,0.27-0.002c0.901-0.004,1.799-0.01,2.691-0.02c0.229-0.002,0.458-0.006,0.687-0.009
		c0.757-0.009,1.511-0.021,2.261-0.035c0.271-0.005,0.542-0.011,0.813-0.016c0.72-0.015,1.436-0.033,2.15-0.053
		c0.27-0.008,0.54-0.015,0.808-0.023c0.754-0.023,1.504-0.049,2.251-0.078c0.209-0.008,0.419-0.015,0.628-0.023
		c1.921-0.078,3.818-0.174,5.689-0.293c0.194-0.012,0.385-0.027,0.579-0.039c0.72-0.048,1.437-0.098,2.149-0.152
		c0.29-0.022,0.578-0.046,0.867-0.07c0.616-0.05,1.229-0.102,1.839-0.157c0.313-0.028,0.625-0.058,0.937-0.087
		c0.593-0.057,1.182-0.116,1.769-0.179c0.125-0.013,0.253-0.025,0.378-0.038c1.348,1.874,2.366,3.562,2.978,5.026
		c0.1,0.239,0.187,0.471,0.266,0.698c0.024,0.071,0.044,0.139,0.066,0.208c0.053,0.166,0.1,0.329,0.141,0.489
		c0.018,0.071,0.035,0.142,0.051,0.211c0.039,0.177,0.07,0.348,0.093,0.516c0.005,0.038,0.014,0.078,0.018,0.116
		c0.023,0.205,0.033,0.403,0.03,0.595c-0.001,0.038-0.005,0.074-0.007,0.112c-0.007,0.153-0.022,0.301-0.046,0.444
		c-0.008,0.047-0.017,0.093-0.027,0.138c-0.032,0.145-0.073,0.285-0.124,0.419c-0.01,0.026-0.017,0.053-0.028,0.079
		c-0.067,0.161-0.149,0.314-0.246,0.458c-0.012,0.017-0.026,0.033-0.038,0.05c-0.087,0.123-0.187,0.24-0.297,0.35
		c-0.03,0.03-0.062,0.06-0.094,0.089c-0.11,0.101-0.231,0.197-0.363,0.287c-0.028,0.019-0.054,0.04-0.083,0.059
		c-0.167,0.107-0.349,0.207-0.55,0.297c-0.012,0.005-0.025,0.009-0.037,0.015c-0.185,0.081-0.386,0.153-0.598,0.218
		c-0.055,0.017-0.112,0.033-0.169,0.049c-0.191,0.054-0.392,0.101-0.604,0.143c-0.055,0.011-0.108,0.023-0.165,0.033
		c-0.541,0.096-1.151,0.156-1.831,0.178c-0.082,0.003-0.167,0.004-0.25,0.005c-0.275,0.005-0.562,0.004-0.86-0.002
		c-0.086-0.002-0.17-0.003-0.257-0.006c-0.385-0.013-0.783-0.033-1.205-0.066c-11.079-0.851-23.011,0.853-23.859,8.52
		c0,0,0,0.001,0,0.001v0c-0.851,7.672,27.266,4.263,46.016-2.553c18.748-6.818,20.45-11.934,20.45-24.712c0,0,0,0,0,0
		c0,0,0,0,0-0.001c0-0.731-0.01-1.437-0.028-2.122c-0.009-0.353-0.025-0.689-0.038-1.031c-0.01-0.266-0.017-0.543-0.029-0.801
		c-0.001,0.001-0.003,0.002-0.004,0.004c-0.007-0.138-0.01-0.287-0.018-0.423c0.182-0.122,0.356-0.252,0.536-0.376
		c0.299-0.206,0.598-0.413,0.892-0.625c0.287-0.207,0.571-0.418,0.854-0.631c0.282-0.212,0.56-0.428,0.837-0.646
		c0.282-0.222,0.562-0.445,0.839-0.673c0.268-0.221,0.531-0.448,0.794-0.675c0.273-0.236,0.548-0.47,0.817-0.712
		c0.26-0.235,0.513-0.478,0.768-0.719c0.463-0.437,0.917-0.884,1.363-1.341c0.002-0.002,0.004-0.004,0.006-0.006
		c0.025-0.026,0.051-0.052,0.076-0.078c0.236-0.243,0.477-0.482,0.708-0.731C309.367,181.249,309.62,180.956,309.876,180.667z"/>
	<polygon fill="#FFFFFF" stroke="#FFFFFF" stroke-width="6" stroke-miterlimit="10" points="317.67,168.666 317.67,168.666 
		317.665,168.676 317.673,168.666 	"/>
</g>
<g id="Слой_x0020_1_1_">
	<g id="_539177400">
		<path fill="#ECD2AD" d="M15.027,125.679c0,0,17.495,19.831,47.741,5.04c8.274-4.043,13.756-7.072,17.331-9.487
			c7.524-5.074,7.881-12.82,1.57-18.872c-6.62-6.348-21.504-11.763-29.205,1.039c-3.351-18.174,28.225-20.122,38.156,0.251
			c3.044,6.25,2.519,3.779,2.519,3.779c-2.252-14.276-20.423-23.066-32.725-22.302c-6.784,0.423-11.948,2.41-18.526,11.131
			c9.065-30.637,67.85-17.521,70.918,9.078c2.265,19.628,11.145-26.449,17.667-5.225c6.142-5.116-1.017,70.852-1.017,70.852
			c0-0.003,156.792,1.699,162.754,2.556c5.965,0.854,8.523,6.813,8.523,19.599c0,12.778-1.702,17.894-20.45,24.712
			c-18.75,6.816-46.867,10.225-46.016,2.553c0.848-7.667,12.78-9.371,23.859-8.52c11.076,0.854,9.374-5.108,1.707-14.485
			c-7.672-9.374-96.291,0-104.812,0c-8.526,0-13.637,10.222-25.566,16.192c-11.927,5.962-35.791,11.929-38.346,4.26
			c-2.556-7.669-1.705-11.076,10.227-11.076c11.927-0.003,17.894,5.108,17.894-1.707c-0.003-4.405-4.976-9.157-8.502-12.21
			c-11.517-0.188-23.087-0.859-34.139-2.17c-16.837-2.003-64.581-16.271-61.563-64.985L15.027,125.679L15.027,125.679z"/>
		<path fill="#E8C698" d="M300.638,189.163c0.061,1.237,0.095,2.553,0.095,3.954c0,12.778-1.702,17.894-20.45,24.712
			c-18.75,6.816-46.867,10.225-46.016,2.553c0.848-7.667,12.78-9.371,23.859-8.52c7.294,0.563,9.046-1.834,7.202-6.213
			c3.457-0.314,6.668-0.84,9.596-1.609C289.091,200.332,294.121,194.457,300.638,189.163L300.638,189.163z M193.68,194.655
			c-18.856,1.202-35.233,2.722-38.658,2.722c-8.526,0-13.637,10.222-25.566,16.192c-11.927,5.962-35.791,11.929-38.346,4.26
			c-2.556-7.669-1.705-11.076,10.227-11.076c11.927-0.003,17.894,5.108,17.894-1.707c-0.003-4.405-4.976-9.157-8.502-12.21
			c-11.517-0.188-23.087-0.859-34.139-2.17c-16.655-1.982-63.521-15.965-61.634-63.389c1.409,7.627,8.293,37.546,30.931,47.424
			c26.028,11.356,51.108,10.885,70.984,8.991c19.874-1.89,31.705-2.841,68.616,8.52c2.754,0.848,5.486,1.662,8.195,2.442h-0.002
			V194.655z"/>
		<path fill="#936A55" d="M70.049,71.022C57.8,69.425,42.358,70.493,34.375,82.74c-7.994,12.247-4.263-17.574,33.547-22.897
			c30.442-4.292,46.039,10.759,52.905,24.012c0.983-0.753,2.008-1.506,3.06-2.265c-3.615-6.319-10.566-15.693-21.887-20.685
			c-18.103-7.986-34.615-4.26-38.875-3.724c-4.257,0.529,22.368-11.718,47.929,2.661c10.235,5.753,16.2,11.855,19.673,17.099
			c0.761-0.486,1.543-0.973,2.331-1.459c-4.694-18.576-13.692-35.22-33.011-47.593c-0.003,0,22.762,5.037,30.106,20.17
			c7.342,15.13,5.481,20.18,6.876,25.059c0.388-0.222,0.772-0.447,1.165-0.666c1.374-25.008-6.446-32.041-14.361-39.768
			c20.407,9.731,24.261,25.04,20.185,36.29c17.233-7.194,3.98-29.961-3.676-34.691c-0.003-0.003,20.899,4.466,21.459,27.931
			c9.17-17.355-17.548-36.785-18.798-35.566c17.712,1.06,29.002,14.223,34.366,30.085c-2.632-15.191-8.909-33.84-27.976-44.821
			c0,0,20.077,5.867,27.334,22.545c7.262,16.681,5.381,17.606,6.654,20.703c0.647-0.145,1.308-0.291,1.969-0.431
			c-0.233-23.782-8.774-30.754-14.3-35.357c12.78,3.903,27.556,16.113,21.898,35.981c7.725-10.634-3-32.942-12.136-35.453
			c17.289,2.294,25.751,31.533,25.838,31.525c-2.196-13.269-5.484-31.803-30.098-41.111c0,0,16.589-0.803,25.918,14.913
			c9.329,15.711,6.633,20.925,9.26,25.78c8.843-31.222-26.734-44.795-24.882-42.821c26.702,1.966,32.641,23.983,36.428,42.448
			c9.585,0.053-4.871-23.597-6.607-26.827c0-0.003,13.137,7.809,17.397,23.782c0.351,1.329,0.677,2.54,0.973,3.634
			c5.616-11.295-15.537-33.103-19.083-35.582c29.245,13.689,34.906,35.355,39.277,39.562c-1.292-4.638-3.763-11.507-8.031-16.845
			c-7.101-8.872-11.007-13.845-11.007-13.845s17.4,5.33,26.272,26.988c1.195,2.91,2.252,5.463,3.192,7.701
			c6.279-8.526-8.251-25.421-10.294-26.877c-0.111-0.079,13.161,5.523,20.888,21.908c5.587,11.863,16.522,25.585,5.743-0.962
			c-4.617-11.361-16.689-22.722-21.306-25.561c14.913,4.257,28.296,21.797,32.305,32.879c0.988,2.735,1.588,9.844,3.607,15.206
			c3.364,8.943,7.767,14.207,3.142-5.13c-2.492-10.399-7.809-17.746-7.809-17.746s12.529,9.215,14.554,30.883
			c0.375,4.022-0.05,8.042,0.032,11.755c0.203,8.874,5.399,9.184,4.583,1.025c-0.428-4.284-2.838-15.621-2.838-15.621
			c4.297,7.593,7.138,15.933,7.556,24.152c0.285,5.618-2.072,10.994,0.116,16.782c2.891-5.056,3.607-15.05,1.911-28.507
			c0.661-2.632,5.188,7.249,6.393,29.464c4.675,86.373-57.189,80.192-132.246,78.107c-36.872-1.023-57.158-20.59-67.81-31.24
			C97.719,143.244,138.518,79.953,70.049,71.022L70.049,71.022L70.049,71.022z"/>
		<path fill="#815741" d="M196.743,95.924c0,0-1.279,3.835,2.556,6.388c3.832,2.553,5.537,2.127,5.537,2.127
			s-5.962,5.114-8.092,5.539c-2.127,0.425-3.835,1.699-3.835,1.699s9.799,0.859,10.222,4.688c0.425,3.832,1.276,3.835,4.683,5.111
			c3.409,1.276,9.794,4.686,9.794,4.686l2.984-2.984c0,0,4.257,0.851,6.816,0c2.553-0.851,6.388-4.686,8.94-9.366
			c2.556-4.688,5.537-4.686,5.537-4.686l6.388,6.81c0,0-3.832-8.089-1.705-9.366c2.13-1.276,5.539-0.851,8.943-1.276
			c3.409-0.431,6.813-2.13,6.813-2.13s-5.534-3.407-2.978-5.962c2.553-2.553,3.407-2.127,4.26-4.257
			c0.848-2.13,1.276-4.263,2.127-6.393c0.848-2.127,1.279-6.385,1.279-6.385c0-0.003-4.26,6.813-20.019,9.797
			c-15.756,2.978-22.995,2.981-27.252,1.702C215.48,90.388,196.743,95.924,196.743,95.924L196.743,95.924z"/>
		<path fill="#88604A" d="M322.361,154.297c-11.266,53.257-65.955,48.452-130.364,46.663c-36.872-1.023-57.158-20.59-67.81-31.24
			c-16.295-16.301-7.098-46.557-13.602-69.489c5.338,5.175,14.271,15.04,24.081,32.781c15.825,28.608,57.221,44.438,81.571,35.305
			c24.345-9.131,18.584-37.522,11.784-43.251c2.968-0.222,14.559,9.498,12.429,23.978c-2.127,14.48-8.24,17.482-8.24,17.482
			s8.943-5.106,10.648-14.049c1.699-8.943,2.127-12.775-2.13-21.718s-6.39-9.797-6.39-9.797s10.22,1.705,15.756,16.184
			c5.539,14.477,2.981,23.846,2.981,23.846s5.962-11.073,3.409-23c-2.558-11.921-7.664-14.474-7.664-14.474
			c-0.003,0,16.182,3.835,20.439,17.884c4.257,14.054,3.832,14.91,3.832,14.91c4.532-29.874-3.496-36.177-8.689-40.106
			c27.178,4.884,28.922,60.437,29.131,45.64c0.211-14.799-0.93-30.986-10.019-41.362c-0.003,0,13.425,5.587,21.517,26.457
			c8.089,20.867,5.959,18.314,5.959,18.314c0-0.003,2.632-15.257-2.053-26.33c-4.686-11.07-10.999-15.658-10.999-15.658
			C311.177,127.669,319.739,140.893,322.361,154.297L322.361,154.297z"/>
		<path fill="#765442" d="M317.67,168.666c-17.685,37.939-67.744,33.901-125.674,32.294c-36.872-1.023-57.158-20.59-67.81-31.24
			c-16.147-16.15-7.257-46.008-13.42-68.865c2.4,4.9,7.791,16.98,16.517,42.139c12.302,35.492,69.084,47.324,103.16,42.593
			c34.07-4.738,37.382-31.705,35.49-41.171c0.063-1.882,7.918,15.473,2.529,26.081c-5.389,10.605-12.463,12.725-12.463,12.725
			c-0.003-0.003,14.192,0.47,17.506-12.307c3.311-12.778,0.476-22.712,0.476-22.712c-0.003-0.003,6.15,6.625,5.206,20.347
			c-0.951,13.726-3.317,15.619-3.317,15.619s7.098-1.422,9.466-11.359c2.365-9.939-0.949-21.298-0.949-21.298
			c-0.003,0,6.625,7.577,6.625,19.403c0,11.832-2.365,12.778-2.365,12.778c13.467-5.056,15.669-18.195,12.365-30.344
			c0,0,6.092,8.576,4.67,18.042c-1.419,9.458-2.838,8.515-2.838,8.515s7.114-1.017,14.829-11.24L317.67,168.666L317.67,168.666z"/>
		<path fill="#BC8241" d="M74.65,190.392c-4.812-0.735-11.419-2.315-18.497-5.103c5.058-0.243,12.714-1.845,17.181-8.692
			c7.098-10.888,2.368-14.197,2.368-14.197c8.811,3.784,5.983,18.293-1.052,27.995C74.65,190.395,74.65,190.392,74.65,190.392z"/>
		<path fill="#1D1C19" d="M83.696,128.393c5.777,0,10.46,4.683,10.46,10.457c-0.003,5.774-4.683,10.457-10.46,10.457
			c-5.774,0-10.46-4.683-10.46-10.457s4.686-10.455,10.46-10.455V128.393z"/>
		<path fill="#FFFFFF" d="M83.694,129.963c4.908,0,8.888,3.983,8.888,8.893c-0.003,4.905-3.977,8.885-8.888,8.885
			c-4.905,0-8.885-3.98-8.885-8.885c0-4.91,3.98-8.89,8.885-8.89V129.963z"/>
		<path fill="#AD4B84" d="M83.567,131.797c3.821,0,6.924,3.1,6.924,6.924c0,3.827-3.103,6.929-6.924,6.929
			c-3.829,0-6.932-3.1-6.932-6.929C76.635,134.897,79.738,131.797,83.567,131.797L83.567,131.797z"/>
		<path fill="#9C3B6D" d="M90.124,140.946c-0.93,2.735-3.515,4.704-6.557,4.704c-3.829,0-6.932-3.1-6.932-6.929
			c0-1.533,0.499-2.947,1.34-4.091c0.005,1.469,0.367,5.563,4.197,7.627C85.007,143.785,88.102,143.282,90.124,140.946
			L90.124,140.946z"/>
		<path fill="#1D1C19" d="M83.9,133.718c2.556,0,4.63,2.077,4.63,4.635c0,2.556-2.075,4.633-4.63,4.633
			c-2.558,0-4.635-2.077-4.635-4.633C79.265,135.796,81.342,133.718,83.9,133.718L83.9,133.718z"/>
		<path fill="#FFFFFF" d="M81.085,139.353c0.999,0,1.813,0.811,1.813,1.816c0,1.002-0.814,1.818-1.813,1.818
			c-1.004,0-1.821-0.817-1.821-1.818C79.265,140.164,80.081,139.353,81.085,139.353L81.085,139.353z"/>
		<path fill="#FFFFFF" d="M84.989,135.901c0.753,0,1.361,0.613,1.361,1.361c0,0.751-0.608,1.361-1.361,1.361
			c-0.756,0-1.361-0.608-1.361-1.361c0-0.748,0.605-1.358,1.361-1.358V135.901z"/>
		<path fill="#D6C83B" d="M226.471,119.709c-0.106,0.005,4.982-4.995,6.213-7.5c1.226-2.516,1.308-2.82,1.308-2.82l0.743,0.547
			c0,0,1.179-3.303,2.788-4.731c1.609-1.43,2.751-1.004,3.954,0.314c1.202,1.327,6.3,10.539,6.3,10.539l0.669-0.558
			c0,0-6.245-9.728-6.34-11.034c-0.092-1.303,0-1.411,1.998-1.652c2.001-0.246,5.996,0.674,5.996,0.674l0.616-1.253
			c0,0,4.596,0.777,5.09,0.642c0.492-0.14,0.521-1.15,0.521-1.15l2.986,0.893c0,0-2.093-2.468-3.702-3.864
			c-1.615-1.401-1.649-1.897-0.299-2.701c1.353-0.803,1.792-1.742,2.371-2.085c0.579-0.341,2.764-0.806,2.764-0.806
			c0-0.003-0.462-2.286,0.825-2.579c1.29-0.293,1.969-0.645,1.969-0.645l-1.477-0.901c0,0-0.608-2.881,0.724-3.985
			c1.329-1.105,7.209-6.266,7.209-6.266s-2.704,0.296-3.954,1.094c-1.255,0.793-2.46,0.877-3.359,0.946
			c-0.904,0.063-5.637,0.103-6.792-0.521s-1.866-2.08-1.414-2.82c0.449-0.74,0.928-2.489,0.928-2.489l-0.423-3.095
			c0,0,1.3-2.915,2.146-3.784c0.843-0.867,2.931-2.727,2.931-2.727c0-0.003-3.798,1.887-5.494,0.698
			c-1.702-1.195-1.786-2.389-1.237-3.137c0.55-0.748,2.408-2.997,2.408-2.997s-2.767,2.215-3.732-0.037
			c-0.97-2.246-1.491-10.878-1.491-10.878s-1.615,4.149-3.214,5.774c-1.599,1.628-2.363,2.188-2.363,2.188l-0.727-0.251
			c0,0-0.513,4.07-2.371,3.399c-1.863-0.677-1.948-3.19-1.948-3.19l-0.108,6.866l-0.576,0.444l0.203,1.395
			c0,0-1.628,3.948-3.005,4.45s-2.014,0.048-2.704-2.529c-0.69-2.571-0.869-5.077-0.869-5.077s-0.883-1.044-0.93-1.747
			c-0.053-0.703-0.529-5.909-0.529-5.909c0-0.003-1.155,3.61-2.693,4.63c-1.538,1.012-1.982,0.444-2.368-0.737
			c-0.386-1.184-0.698-1.258-0.698-1.258c0-0.003-0.875-0.951-0.912-1.448c-0.034-0.505-0.386-2.593-0.386-2.593l-0.056-2.117
			c0,0-1.599,2.939-2.193,3.081c-0.597,0.143-2.423-0.029-2.423-0.029s0.013-1.21-1.525-1.599c-1.541-0.394-1.985-0.967-1.985-0.967
			l-2.87-3.425c0,0,0.46,3.599,0.425,4.506c-0.034,0.909-1.979,4.678-3.071,4.958c-1.086,0.283-2.815-1.308-2.815-1.308
			s1.253,2.027,1.911,2.688c0.647,0.658,1.358,4.945,1.324,5.851c-0.034,0.912-0.595,1.557-1.723,1.234
			c-1.134-0.322-2.468-2.04-2.468-2.04l-0.386-1.184c0,0-0.436,2.355,0.439,3.298c0.875,0.946,1.734,1.689,1.734,1.689l0.788,1.152
			c0,0,0.153,0.698,0.288,1.189c0.137,0.494,0.267,0.888,0.6,1.366c0.338,0.484,0.877,0.951,0.877,0.951
			c-0.003-0.003,0.523,0.262,0.904,1.343c0.378,1.078,0.436,1.884,0.581,2.482c0.143,0.592,0.404,2.791-0.172,3.232
			c-0.571,0.447-3.277-0.769-5.286-2.038c-2.008-1.269-4.133-2.825-4.133-2.825l-0.864-0.743c0,0,0.724,1.66-0.243,2.233
			c-0.965,0.568-4.297-0.901-4.297-0.901l-0.814-0.143c0,0,0.27,0.991-0.425,1.142c-0.695,0.148-3,0.314-4.149-0.209
			c-1.144-0.523-2.627-1.525-2.627-1.525l1.644,3.208l1.583,3.821l0.246,1.998c0,0,0.988,1.136,0.034,1.913
			c-0.954,0.772-2.994,0.42-2.994,0.42l2.54,1.625l0.872,0.946l2.164,0.653c0,0,1.705,1.287,2.08,2.267
			c0.373,0.98,0.127,1.81-0.83,2.482c-0.959,0.674-4.99,2.072-4.99,2.072l4.733-0.037l0.721,0.251l0.164,0.893l-0.156,0.616
			c0.034,0.499,1.995,2.479,4.395,2.201c2.397-0.272,4.028-0.085,4.028-0.085l1.961,0.666l1.284,1.015l0.994,1.237
			c0,0-0.994,1.586-2.418,2.799c-1.424,1.213-2.241,2.479-3.216,2.955c-0.975,0.47-2.053,0.854-3.816,1.583
			c-1.76,0.732-3.655,1.07-3.655,1.07s4.189,0.703,5.97,0.277c1.781-0.433,3.552,0.346,3.552,0.346l0.008,1.512
			c0,0-1.517,2.73-0.04,3.631c1.477,0.904,6.565,0.132,7.968,0.032c1.403-0.098,1.847,0.476,1.847,0.476l0.571,0.967
			c0,0,0.354,0.679,0.497,1.274c0.145,0.592,0.217,1.596,0.217,1.596c-0.003,0,1.615-2.741,2.246-3.79
			c0.632-1.057,1.213-1.403,2.563-2.201c1.35-0.806,2.479-1.995,2.759-0.906c0.277,1.089-0.336,2.344-0.336,2.344l-0.904,1.477
			l-0.751,0.758l2.336-1.179l0.547-0.743C225.784,117.238,226.569,119.701,226.471,119.709z"/>
		<path fill="#6C3531" d="M15.585,119.939c4.186,0,7.579,3.401,7.579,7.587c-0.003,4.186-3.393,7.582-7.579,7.582
			C11.393,135.106,8,131.712,8,127.526c0-4.189,3.393-7.585,7.585-7.585V119.939z"/>
		<path fill="#533330" d="M23.135,126.839c0.016,0.225,0.029,0.452,0.029,0.687c-0.003,4.186-3.393,7.582-7.579,7.582
			C11.393,135.106,8,131.712,8,127.526c0-0.156,0.003-0.307,0.013-0.455c1.039,1.654,3.576,4.165,9.332,3.79
			C20.416,130.663,22.155,128.948,23.135,126.839L23.135,126.839z"/>
		<path fill="#FFFFFF" d="M11.967,123.293c1.017,0,1.842,0.827,1.842,1.845c-0.003,1.015-0.825,1.842-1.842,1.842
			s-1.839-0.825-1.839-1.842C10.127,124.12,10.952,123.293,11.967,123.293L11.967,123.293z"/>
		<path fill="#FFFFFF" d="M14.66,121.881c0.391,0,0.708,0.314,0.708,0.706c-0.003,0.388-0.317,0.706-0.708,0.706
			s-0.708-0.314-0.708-0.706C13.951,122.193,14.269,121.881,14.66,121.881L14.66,121.881z"/>
	</g>
</g>
</svg>
