<?xml version="1.0" encoding="utf-8"?>
<!-- Generator: Adobe Illustrator 17.0.0, SVG Export Plug-In . SVG Version: 6.00 Build 0)  -->
<!DOCTYPE svg PUBLIC "-//W3C//DTD SVG 1.1 Basic//EN" "http://www.w3.org/Graphics/SVG/1.1/DTD/svg11-basic.dtd">
<svg version="1.1" baseProfile="basic" id="Слой_1"
	 xmlns="http://www.w3.org/2000/svg" xmlns:xlink="http://www.w3.org/1999/xlink" x="0px" y="0px" width="70.883px"
	 height="110.799px" viewBox="0 0 70.883 110.799" xml:space="preserve">
<path fill="#BAAE52" d="M68.4,107.029c-1.184-0.101-5.923-3.191-8.084-6.752c-1.565-2.579-3.96-7.938-5.302-11.033
	c0.337-0.828,0.945-2.061,1.997-3.51c1.965-2.692,2.844-4.522,2.863-8.25c0.026-3.721,0.031-4.391,1.618-9.056
	c0.184-0.536,0.362-1.046,0.533-1.53c1.34-3.81,2.225-6.326,0.569-8.935c-1.876-2.939-3.786-7.419-3.63-9.934l0.043-0.664
	c0.156-2.302,0.113-2.442-1.546-5.021c-0.674-1.047-0.944-1.742-1.183-2.356c-0.379-0.978-0.679-1.748-2.279-3.073
	c-0.595-0.491-0.989-0.799-1.279-1.024c-0.753-0.588-0.753-0.588-1.962-2.073l-0.686-0.84c-0.66-0.812-1.061-1.365-1.349-1.762
	c-0.826-1.141-0.929-1.182-2.645-1.869l-0.6-0.241c-1.258-0.518-1.994-0.652-2.531-0.751c-0.804-0.146-1.208-0.221-2.737-1.521
	c-1.032-0.872-1.267-1.365-1.438-1.726c-0.361-0.76-0.679-1.082-2.813-1.718c-1.615-0.491-2.465-0.54-3.086-0.576
	c-0.735-0.043-1.039-0.061-2.146-0.923l-0.486-0.385c-1.749-1.389-2.277-1.807-4.292-2.09c-0.508-0.072-0.939-0.103-1.323-0.13
	c-1.126-0.079-1.692-0.119-2.727-1.124c-0.303-0.291-0.521-0.516-0.693-0.693c-0.758-0.781-0.872-0.802-2.264-1.054l-0.34-0.062
	c-0.621-0.115-1.247-0.108-1.722-0.074c-0.576,0.041-0.852,0.275-2.103-1.14c-1.241-1.404-1.514-1.603-2.189-2.02
	c-0.281-0.173-0.647-0.398-1.244-0.834c-0.451-0.333-0.793-0.569-1.064-0.758c-0.84-0.582-0.909-0.63-1.531-1.684
	C8.156,8.829,8.12,8.769,7.738,8.386C7.585,8.231,7.36,8.006,6.968,7.567c-0.544-0.616-0.585-0.715-0.613-0.78
	C6.266,6.576,6.159,6.388,5.43,5.563c-0.569-0.644-0.863-1.39-1.1-1.988C4.053,2.871,3.814,2.264,3.185,2.264
	c-0.208,0-0.415,0.078-0.633,0.242C2.48,2.561,2.415,2.613,2.354,2.665L0,0l1.788,3.328C1.484,3.929,1.75,4.548,2.315,5.56
	C2.559,5.987,2.797,6.3,3.007,6.575c0.488,0.64,0.812,1.063,0.836,2.565l0.021,0.935c0.016,0.827,0.019,0.854,0.149,1.49
	c0.05,0.242,0.12,0.582,0.218,1.108c0.148,0.811,0.326,1.395,0.47,1.863c0.263,0.861,0.319,1.105,0.034,1.576
	c-0.092,0.151-0.174,0.244-0.309,0.306c-0.619,0.328-0.569,0.766-0.36,2.606c0.118,1.04,0.293,1.826,0.434,2.457
	c0.262,1.175,0.327,1.569-0.049,2.057c-0.207,0.269-0.392,0.37-0.647,0.492c-0.715,0.356-1.005,0.779-0.836,2.345
	c0.084,0.768,0.202,1.286,0.289,1.664c0.172,0.754,0.225,0.981-0.271,2.099c-0.249,0.577-0.467,0.715-0.665,0.842
	c-0.674,0.449-0.744,0.92-0.416,2.796l0.182,1.008c0.3,1.653,0.3,1.653,0.295,3.054L2.38,38.777
	c0.005,1.152-0.115,1.636-0.211,2.024c-0.153,0.615-0.216,0.997,0.146,2.302c0.134,0.484,0.255,0.857,0.357,1.172
	c0.353,1.09,0.447,1.382,0.09,3.402c-0.115,0.67-0.245,1.23-0.358,1.715c-0.355,1.525-0.589,2.533,0.507,3.773l0.218,0.244
	c0.901,1.008,0.901,1.008,0.835,4.259c-0.021,1.082-0.076,1.886-0.12,2.514c-0.106,1.551-0.15,2.193,0.608,3.256
	c0.842,1.178,1.052,1.865,1.673,3.903l0.087,0.285c0.407,1.351,0.578,1.572,1,1.909c0.209,0.166,0.495,0.394,1.059,1.229
	c0.548,0.822,0.496,1.119,0.444,1.405c-0.121,0.68,0.006,1.142,1.08,2.084c1.029,0.896,1.211,1.043,1.408,1.203
	c0.181,0.146,0.376,0.304,1.276,1.084c1.319,1.145,1.576,1.452,2.137,2.126c0.224,0.27,0.492,0.592,0.889,1.04
	c0.462,0.522,0.572,0.888,0.668,1.209c0.252,0.84,0.599,1.142,2.147,1.27c1.734,0.149,1.939,0.283,2.801,0.846
	c0.267,0.175,0.588,0.384,1.019,0.639c0.24,0.142,0.446,0.271,0.626,0.387l0.49,0.32c0.309,0.202,0.564,0.362,0.842,0.471
	l1.433,0.322c0.009-0.001,0.917-0.156,1.869-0.156c1.321,0,1.72,0.289,1.83,0.413c0.15,0.171,0.305,0.329,0.462,0.477l0.544,0.451
	c1.083,0.793,2.277,1.109,3.807,0.937c0.597-0.069,1.076-0.166,1.496-0.251c1.163-0.236,1.8-0.274,3.07,0.407
	c0.563,0.301,0.98,0.564,1.341,0.793c1.005,0.636,1.668,1.055,3.683,1.179c0.661,0.044,1.235,0.055,1.747,0.055l1.096-0.007
	c0.968,0,1.586,0.057,2.279,0.361c0.967,0.43,1.957,0.521,2.752,0.596c0.431,0.04,0.838,0.078,1.038,0.16
	c0.056,0.023,0.11,0.044,0.163,0.063c1.133,2.908,3.324,8.123,5.825,11.984c3.422,5.283,9.04,8.165,10.967,8.166
	c0.135,0,0.26-0.013,0.371-0.037c0.663-0.143,1.049-0.629,1.008-1.269C70.815,108.493,69.635,107.133,68.4,107.029z M46.483,31.83
	L46.483,31.83C46.483,31.83,46.483,31.83,46.483,31.83C46.483,31.83,46.483,31.83,46.483,31.83z"/>
</svg>
