<?xml version="1.0" encoding="utf-8"?>
<!-- Generator: Adobe Illustrator 17.0.0, SVG Export Plug-In . SVG Version: 6.00 Build 0)  -->
<!DOCTYPE svg PUBLIC "-//W3C//DTD SVG 1.1 Basic//EN" "http://www.w3.org/Graphics/SVG/1.1/DTD/svg11-basic.dtd">
<svg version="1.1" baseProfile="basic" id="Слой_1"
	 xmlns="http://www.w3.org/2000/svg" xmlns:xlink="http://www.w3.org/1999/xlink" x="0px" y="0px" width="133.948px"
	 height="174.62px" viewBox="0 0 133.948 174.62" xml:space="preserve">
<path fill="#EEBF31" d="M133.199,123.333c2.563-21.145-1.689-42.289-9.245-62.431c-8.929-6.148-17.235-13.031-24.485-19.049
	c-4.501-3.725-8.743-7.242-12.39-9.965l-0.401-0.395c-1.319-1.882-2.774-4.164-4.332-6.634c-7.01-11.025-16.612-26.318-28.64-24.747
	c-2.975,0.382-5.083,2.444-7.527,4.824c-2.632,2.567-5.613,5.484-10.243,6.699C21.737,15.095-0.54,23.669,0.01,31.953
	c0.563,8.503,32.28,20.945,52.145,26.771l-1.009,3.511c-0.181-0.071-18.914-5.257-28.53-5.257c-3.414,0-4.106,0.672-4.126,0.705
	c0,0-0.007,1.397,4.455,5.225c2.224,1.895,9.169,4.526,16.535,7.294c11.775,4.436,25.103,9.454,29.539,15.131l0.705,0.899
	l-0.414,1.28c-0.2,0.433-0.757,1.17-2.102,1.17c-1.701,0-5.723-1.112-12.681-3.065c-8.122-2.276-18.222-5.121-22.51-5.121
	c4.546,6.447,22.697,21.417,29.655,26.913l0.414,0.453l3.899,6.253l-0.828,1.009c-2.535,3.097,10.708,19.347,15.203,23.176
	l7.165,6.117l-8.924-3.007c-0.11-0.032-0.181-0.052-0.252-0.071c-0.006,0.407,0.026,0.97,0.058,1.364
	c0.039,0.453,0.058,0.905,0.058,1.339c4.843,4.32,6.88,9.059,8.859,13.644c1.371,3.194,2.658,6.227,4.882,9.208
	c2.488,3.346,5.913,5.777,9.899,7.726C118.503,162.165,130.543,145.648,133.199,123.333z"/>
</svg>
