<?xml version="1.0" encoding="utf-8"?>
<!-- Generator: Adobe Illustrator 17.0.0, SVG Export Plug-In . SVG Version: 6.00 Build 0)  -->
<!DOCTYPE svg PUBLIC "-//W3C//DTD SVG 1.1 Basic//EN" "http://www.w3.org/Graphics/SVG/1.1/DTD/svg11-basic.dtd">
<svg version="1.1" baseProfile="basic" id="Слой_1"
	 xmlns="http://www.w3.org/2000/svg" xmlns:xlink="http://www.w3.org/1999/xlink" x="0px" y="0px" width="161.165px"
	 height="201.594px" viewBox="0 0 161.165 201.594" xml:space="preserve">
<path fill="#3FA556" d="M103.082,147.367c-2.884-1.909-5.476-3.792-7.886-5.706c6.549-4.225,11.549-11.706,16.428-19.021
	c5.425-8.115,10.54-15.765,17.614-19.147l0.601-0.162c1.291-0.132,2.55-0.317,3.795-0.525c6.119-0.424,17.027-2.85,27.53-13.533
	C134.044,64.117,106.591,34.575,96.939,0C91.217,9.575,83.46,16.998,71.532,16.998c-1.546,0.2-3.375,0.317-5.218,0.317
	c-15.269,0-30.619-7.764-44.466-17.299c7.555,20.142,11.808,41.286,9.245,62.431C28.436,84.763,16.396,101.279,0,113.734
	c4.872,2.383,10.584,4.045,16.477,5.756c5.949,1.733,12.189,3.556,17.977,6.285c0,0,18.403,13.618,21.475,24.527
	c0.647,3.317,3.848,1.138,5.031,3.938l0.002-0.002c0.096,1.001,0.201,2.158,0.341,3.681c-2.684-1.086-5.328-2.212-8.005-3.291
	c-0.039,0.168-0.104,0.336-0.175,0.576c3.97,0.983,8.93,13.133,7.165,18.565c-10.185,0.983-14.491,3.388-22.438,7.359
	c0.175,0.071,0.343,0.175,0.582,0.278c20.531-1.765,37.059,10.786,54.673,20.188c0.472,0,0.744-0.065,1.151-0.472
	c-5.768-7.158-11.911-12.894-18.83-17.854c7.837-0.711,18.901,6.143,26.098,9.848c0.265,0,0.575-0.071,0.983-0.479
	c-4.682-5.807-9.913-9.506-15.545-12.829c2.748-0.168,6.208,0.647,9.363,1.022c0.239-0.272,0.543-0.55,0.815-0.854
	c-3.22-3.699-8.077-5.697-12.079-6.615c-15.409,0.168-15.409,0.168-15.681-0.071c-0.951-7.947-1.048-17.401,0.006-24.902
	l0.052-0.336l0.013-0.104c-0.229-0.13-0.491-0.269-0.748-0.407l8.476-7.333l7.74,4.889c0.938-0.051,1.845-0.172,2.729-0.342
	c2.055,2.25,4.386,4.028,4.947,7.973c0,4.442-0.168,5.768-0.065,6.615c0.407,0.168,0.879,0.375,1.326,0.576
	c1.319-1.015,3.388-3.388,5.186-3.388c1.229,2.205,2.58,4.21,3.059,7.734c1.727-2.309,2.884-4.274,3.699-6.751
	c1.151,0.472,2.819,2.405,4.378,3.563c7.637,3.802,10.993,7.773,16.121,15.442c0.336-4.313-1.558-9.674-3.052-12.997
	c4.617,1.358,11.504,6.887,15.371,11.167c0.815-0.071,0.815-0.071,1.222-0.479C138.343,159.006,112.451,151.809,103.082,147.367z"/>
</svg>
