<?xml version="1.0" encoding="utf-8"?>
<!-- Generator: Adobe Illustrator 17.0.0, SVG Export Plug-In . SVG Version: 6.00 Build 0)  -->
<!DOCTYPE svg PUBLIC "-//W3C//DTD SVG 1.1 Basic//EN" "http://www.w3.org/Graphics/SVG/1.1/DTD/svg11-basic.dtd">
<svg version="1.1" baseProfile="basic" id="Слой_1"
	 xmlns="http://www.w3.org/2000/svg" xmlns:xlink="http://www.w3.org/1999/xlink" x="0px" y="0px" width="99.194px"
	 height="177.903px" viewBox="0 0 99.194 177.903" xml:space="preserve">
<path fill="#D36234" d="M81.797,80.516c-0.572-1.185-1.159-2.365-1.75-3.553c-2.199-4.429-4.481-9.008-6.285-14.355l-0.595-1.785
	l1.798-0.543c1.914-0.569,4.042-1.953,6.279-3.408c1.377-0.884,2.816-1.81,4.329-2.641c4.298-2.577,13.622-2.073,13.622-2.073
	c-0.928-4.446-4.634-7.802-8.337-11.05c-1.368-1.301-2.32-2.057-2.32-2.057l0,0.002c-2.482-2.247-4.654-4.504-5.748-7.206
	l-0.42-1.08l0.802-0.854c0.364-0.394,0.77-1.521,1.171-3.058c0.551-0.168,0.872-0.285,0.872-0.285
	c4.792-6.531,1.319-15.041,1.319-15.041c-0.629,0.069-1.71,0.593-2.836,1.217l-9.851,4.228c0.6-1.087,1.004-2.208,1.283-3.333
	c0.043-0.14,0.08-0.302,0.11-0.486C76.646,6.55,73.413,0,73.413,0c-0.582,0.238-1.012,0.708-1.351,1.366
	c-3.167,4.143-6.253,14.199-6.29,14.321l-0.002,0c-0.002,0-0.005,0-0.007,0L54.259,4.63c-0.019-0.032-0.032-0.078-0.052-0.11
	c-0.022,0.749-0.018,1.64,0.008,2.637l-0.292,16.814c-16.632,2.535-26.57,13.89-36.115,26.292
	c-2.929,3.828-5.503,10.385-8.225,17.343C6.887,74.494,3.922,82.068,0,88.631c9.652,34.575,37.105,64.117,64.227,89.272
	c4.642-4.722,9.205-11.049,13.241-19.541C77.467,158.362,99.179,108.915,81.797,80.516z"/>
</svg>
