<?xml version="1.0" encoding="utf-8"?>
<!-- Generator: Adobe Illustrator 17.0.0, SVG Export Plug-In . SVG Version: 6.00 Build 0)  -->
<!DOCTYPE svg PUBLIC "-//W3C//DTD SVG 1.1 Basic//EN" "http://www.w3.org/Graphics/SVG/1.1/DTD/svg11-basic.dtd">
<svg version="1.1" baseProfile="basic" id="Слой_1"
	 xmlns="http://www.w3.org/2000/svg" xmlns:xlink="http://www.w3.org/1999/xlink" x="0px" y="0px" width="319.5px"
	 height="306.833px" viewBox="0 0 319.5 306.833" xml:space="preserve">
<path fill="#A8A8A8" stroke="#272525" stroke-width="3" stroke-miterlimit="10" d="M288.29,64.872
	c1.377-0.884,2.816-1.81,4.329-2.641c4.298-2.577,13.622-2.073,13.622-2.073c-0.928-4.446-4.634-7.802-8.337-11.05
	c-1.368-1.301-2.32-2.057-2.32-2.057v0.002c-2.482-2.247-4.654-4.504-5.748-7.206l-0.42-1.08l0.802-0.854
	c0.364-0.394,0.77-1.521,1.171-3.058c0.551-0.168,0.872-0.285,0.872-0.285c4.792-6.531,1.319-15.041,1.319-15.041
	c-0.629,0.069-1.71,0.593-2.836,1.217l-9.851,4.228c0.6-1.087,1.004-2.208,1.283-3.333c0.043-0.14,0.08-0.302,0.11-0.486
	C283.692,14.55,280.459,8,280.459,8c-0.582,0.238-1.012,0.708-1.351,1.366c-3.167,4.143-6.253,14.199-6.29,14.321h-0.002
	c-0.002,0-0.005,0-0.007,0L261.305,12.63c-0.019-0.032-0.032-0.078-0.052-0.11c-0.022,0.749-0.018,1.64,0.008,2.637l-0.292,16.814
	c-16.632,2.535-26.57,13.89-36.115,26.292c-2.929,3.828-5.503,10.385-8.225,17.343c-6.628,16.936-14.886,38.022-34.99,38.022
	c-1.546,0.2-3.375,0.317-5.218,0.317c-25.115,0-50.457-20.996-68.951-36.348c-4.501-3.725-8.743-7.242-12.39-9.965l-0.401-0.395
	c-1.319-1.882-2.774-4.164-4.333-6.634c-7.01-11.025-16.612-26.318-28.64-24.747c-2.975,0.382-5.083,2.444-7.527,4.824
	c-2.632,2.567-5.613,5.484-10.243,6.699C29.737,50.84,7.46,59.414,8.01,67.698c0.563,8.503,32.28,20.945,52.145,26.771l-1.009,3.511
	c-0.181-0.071-18.914-5.257-28.53-5.257c-3.414,0-4.106,0.672-4.126,0.705c0,0-0.007,1.397,4.455,5.225
	c2.224,1.895,9.169,4.526,16.535,7.294c11.775,4.436,25.103,9.454,29.539,15.131l0.705,0.899l-0.414,1.28
	c-0.2,0.433-0.757,1.17-2.102,1.17c-1.701,0-5.723-1.112-12.681-3.065c-8.122-2.276-18.222-5.121-22.51-5.121
	c4.546,6.447,22.697,21.417,29.655,26.913l0.414,0.453l3.899,6.253l-0.828,1.009c-2.535,3.097,10.708,19.347,15.203,23.176
	l7.165,6.117l-8.924-3.007c-0.11-0.032-0.181-0.052-0.252-0.071c-0.006,0.407,0.026,0.97,0.058,1.364
	c0.039,0.453,0.058,0.905,0.058,1.339c4.843,4.32,6.88,9.059,8.859,13.644c1.371,3.194,2.658,6.227,4.882,9.208
	c5.529,7.436,15.662,10.372,26.376,13.482c5.949,1.733,12.189,3.556,17.977,6.285c0,0,18.403,13.618,21.475,24.527
	c0.647,3.317,3.848,1.138,5.031,3.938l0.002-0.002c0.096,1.001,0.201,2.158,0.341,3.681c-2.684-1.086-5.328-2.212-8.005-3.291
	c-0.039,0.168-0.104,0.336-0.175,0.576c3.97,0.983,8.93,13.133,7.165,18.565c-10.185,0.983-14.491,3.388-22.438,7.359
	c0.175,0.071,0.343,0.175,0.582,0.278c20.531-1.765,37.059,10.786,54.673,20.188c0.472,0,0.744-0.065,1.151-0.472
	c-5.768-7.158-11.911-12.894-18.83-17.854c7.837-0.711,18.901,6.143,26.098,9.848c0.265,0,0.575-0.071,0.983-0.479
	c-4.682-5.807-9.913-9.506-15.545-12.829c2.748-0.168,6.208,0.647,9.363,1.022c0.239-0.272,0.543-0.55,0.815-0.854
	c-3.22-3.699-8.077-5.697-12.079-6.615c-15.409,0.168-15.409,0.168-15.681-0.071c-0.951-7.947-1.048-17.401,0.006-24.902
	l0.052-0.336l0.013-0.104c-0.229-0.13-0.491-0.269-0.748-0.407l8.476-7.333l7.74,4.889c0.938-0.051,1.845-0.172,2.729-0.342
	c2.055,2.25,4.386,4.028,4.947,7.973c0,4.442-0.168,5.768-0.065,6.615c0.407,0.168,0.879,0.375,1.326,0.576
	c1.319-1.015,3.388-3.388,5.186-3.388c1.229,2.205,2.58,4.21,3.059,7.734c1.727-2.309,2.884-4.274,3.699-6.751
	c1.151,0.472,2.819,2.405,4.378,3.563c7.637,3.802,10.993,7.773,16.121,15.442c0.336-4.313-1.558-9.674-3.052-12.997
	c4.617,1.358,11.504,6.887,15.371,11.168c0.815-0.071,0.815-0.071,1.222-0.479c-1.494-15.203-27.385-22.4-36.755-26.842
	c-2.884-1.909-5.476-3.792-7.886-5.706c6.549-4.225,11.549-11.706,16.428-19.021c5.425-8.115,10.54-15.765,17.614-19.147
	l0.601-0.162c1.291-0.132,2.55-0.317,3.795-0.525c8.824-0.611,27.605-5.37,40.771-33.074c0,0,21.712-49.447,4.33-77.846
	c-0.572-1.185-1.159-2.365-1.75-3.553c-2.199-4.429-4.481-9.008-6.285-14.355l-0.595-1.785l1.798-0.543
	C283.925,67.711,286.052,66.327,288.29,64.872z"/>
</svg>
