<?xml version="1.0" encoding="utf-8"?>
<!-- Generator: Adobe Illustrator 17.0.0, SVG Export Plug-In . SVG Version: 6.00 Build 0)  -->
<!DOCTYPE svg PUBLIC "-//W3C//DTD SVG 1.1 Basic//EN" "http://www.w3.org/Graphics/SVG/1.1/DTD/svg11-basic.dtd">
<svg version="1.1" baseProfile="basic" id="Слой_1"
	 xmlns="http://www.w3.org/2000/svg" xmlns:xlink="http://www.w3.org/1999/xlink" x="0px" y="0px" width="319.5px"
	 height="306.833px" viewBox="0 0 319.5 306.833" xml:space="preserve">
<path fill="#A9352D" stroke="#FFFFFF" stroke-width="6" stroke-miterlimit="10" d="M306.239,60.158l0.002,0
	c-0.001-0.003-0.003-0.005-0.004-0.008c-0.93-4.438-4.629-7.791-8.326-11.034c-1.372-1.306-2.328-2.065-2.328-2.065l-0.001,0.003
	c-2.483-2.247-4.655-4.505-5.749-7.207l-0.42-1.08l0.802-0.854c0.364-0.394,0.77-1.521,1.171-3.058
	c0.551-0.168,0.872-0.285,0.872-0.285c4.784-6.522,1.33-15.015,1.32-15.039c0-0.001,0-0.001,0-0.002c0,0-0.001,0-0.001,0l0,0
	l-0.001,0c-0.629,0.07-1.708,0.593-2.831,1.215l-9.853,4.229l0.004-0.011c0.595-1.08,0.998-2.195,1.276-3.313
	c0.045-0.145,0.083-0.314,0.114-0.506c1.395-6.568-1.793-13.071-1.825-13.137c-0.001-0.003-0.002-0.006-0.003-0.008
	c-0.582,0.238-1.012,0.708-1.351,1.366c-3.163,4.137-6.244,14.17-6.291,14.321l-0.003,0c-0.003,0-0.006,0-0.009,0l-11.5-11.054
	c-0.001-0.001-0.001-0.003-0.002-0.004c-0.019-0.032-0.032-0.078-0.052-0.11c-0.022,0.75-0.018,1.642,0.008,2.639l-0.292,16.812
	l-0.001,0c-16.632,2.535-26.57,13.89-36.115,26.292c-2.929,3.828-5.503,10.385-8.225,17.343
	c-6.628,16.935-14.886,38.022-34.99,38.022c-1.545,0.2-3.375,0.317-5.218,0.317c-25.115,0-50.457-20.996-68.951-36.348
	c-4.501-3.725-8.743-7.242-12.39-9.965l-0.401-0.394c-1.319-1.882-2.774-4.164-4.332-6.635c-7.01-11.025-16.612-26.318-28.64-24.747
	c-2.975,0.382-5.083,2.444-7.527,4.824c-2.632,2.567-5.613,5.484-10.243,6.699C29.737,50.84,7.46,59.414,8.01,67.698
	c0.563,8.503,32.28,20.945,52.145,26.771l-1.009,3.511c-0.181-0.071-18.914-5.257-28.53-5.257c-3.414,0-4.106,0.673-4.126,0.705
	c0,0-0.006,1.397,4.455,5.225c2.224,1.895,9.169,4.526,16.535,7.294c11.775,4.436,25.103,9.454,29.538,15.131l0.705,0.899
	l-0.414,1.28c-0.2,0.433-0.757,1.17-2.102,1.17c-1.701,0-5.723-1.112-12.681-3.065c-8.122-2.276-18.222-5.121-22.51-5.121
	c4.546,6.447,22.697,21.417,29.655,26.913l0.414,0.453l3.899,6.253l-0.828,1.009c-2.535,3.097,10.708,19.347,15.202,23.176
	l7.165,6.117l-8.924-3.007c-0.11-0.032-0.181-0.052-0.252-0.071c-0.006,0.407,0.026,0.97,0.058,1.364
	c0.039,0.453,0.058,0.905,0.058,1.339c4.843,4.32,6.88,9.059,8.859,13.644c1.371,3.194,2.658,6.227,4.882,9.208
	c5.529,7.436,15.662,10.372,26.376,13.482c5.949,1.733,12.189,3.557,17.977,6.285l0.129-1.099
	c15.539,1.675,38.43-16.696,47.386-30.108c11.678-18.255,6.214-33.548-0.11-51.259c-0.821-2.283-1.649-4.598-2.451-6.951
	c-0.369-1.08-0.744-2.166-1.099-3.272c-0.065-0.2-0.129-0.407-0.194-0.608l3.472-1.106c1.17,3.679,2.444,7.229,3.686,10.721
	c6.382,17.834,12.409,34.686-0.259,54.466c-8.801,13.198-29.37,30.108-45.911,31.724c7.488,4.501,13.754,11.109,16.826,22.018
	c0.65,3.319,3.851,1.139,5.035,3.939l0.001-0.001c0.096,1.001,0.202,2.157,0.341,3.68c-2.683-1.086-5.328-2.211-8.005-3.291
	c-0.039,0.169-0.104,0.337-0.175,0.576c3.971,0.983,8.93,13.133,7.165,18.565c-10.184,0.983-14.491,3.389-22.438,7.359
	c0.175,0.071,0.343,0.175,0.582,0.278c20.53-1.765,37.059,10.786,54.673,20.188c0.472,0,0.744-0.065,1.151-0.473
	c-5.768-7.159-11.911-12.894-18.83-17.854c7.837-0.712,18.901,6.143,26.098,9.848c0.265,0,0.576-0.072,0.983-0.479
	c-4.681-5.807-9.913-9.505-15.545-12.829c2.748-0.168,6.207,0.647,9.363,1.022c0.239-0.272,0.543-0.55,0.815-0.854
	c-3.22-3.699-8.076-5.697-12.079-6.615c-15.409,0.168-15.409,0.168-15.681-0.071c-0.951-7.947-1.048-17.401,0.006-24.902
	l0.052-0.336l0.013-0.103c-0.229-0.13-0.491-0.269-0.748-0.406l8.476-7.334l7.74,4.889c0.938-0.051,1.845-0.172,2.729-0.342
	c2.055,2.25,4.387,4.028,4.947,7.972c0,4.442-0.168,5.768-0.065,6.615c0.407,0.168,0.879,0.375,1.326,0.576
	c1.319-1.015,3.388-3.388,5.186-3.388c1.229,2.205,2.58,4.21,3.059,7.734c1.727-2.309,2.884-4.274,3.699-6.751
	c1.151,0.472,2.819,2.405,4.378,3.563c7.637,3.802,10.993,7.773,16.121,15.442c0.336-4.313-1.558-9.674-3.052-12.997
	c4.617,1.358,11.504,6.887,15.371,11.167c0.815-0.071,0.815-0.071,1.222-0.479c-1.494-15.202-27.385-22.4-36.755-26.842
	c-2.885-1.909-5.478-3.793-7.887-5.707c6.549-4.225,11.549-11.706,16.427-19.021c5.425-8.115,10.54-15.765,17.614-19.147
	l0.601-0.162c1.29-0.132,2.548-0.317,3.792-0.525c8.822-0.61,27.607-5.366,40.775-33.074c0,0,21.716-49.457,4.325-77.854
	c-0.571-1.182-1.156-2.359-1.746-3.545c-2.199-4.429-4.481-9.008-6.285-14.355l-0.595-1.785l1.798-0.543
	c1.914-0.569,4.042-1.953,6.279-3.408c1.367-0.877,2.795-1.796,4.296-2.623C296.863,59.653,306.214,60.157,306.239,60.158
	C306.239,60.158,306.239,60.158,306.239,60.158L306.239,60.158z"/>
<g id="cccc">
	<path fill="#E1972F" d="M201.194,234.848c-1.707,1.403-3.641,3.453-4.798,5.005h0.097l0.013,0.019
		c2.237,3.11,5.516,4.708,6.195,9.486c0,4.442-0.168,5.768-0.065,6.615c0.407,0.168,0.879,0.375,1.326,0.576
		c1.319-1.015,3.388-3.388,5.186-3.388c1.229,2.205,2.58,4.21,3.059,7.734c1.727-2.309,2.884-4.274,3.699-6.751
		c1.151,0.472,2.819,2.405,4.378,3.563c7.637,3.802,10.993,7.773,16.121,15.442c0.336-4.313-1.558-9.674-3.052-12.997
		c4.617,1.358,11.504,6.887,15.371,11.167c0.815-0.071,0.815-0.071,1.222-0.479c-1.494-15.202-27.385-22.4-36.755-26.842
		C208.598,240.958,204.744,237.984,201.194,234.848z"/>
	<path fill="#E1972F" d="M203.211,298.225c-17.614-9.402-34.143-21.953-54.673-20.188c-0.239-0.103-0.407-0.207-0.582-0.278
		c7.947-3.97,12.254-6.376,22.438-7.359c1.765-5.432-3.194-17.582-7.165-18.565c0.071-0.239,0.136-0.407,0.175-0.576
		c2.677,1.08,5.322,2.205,8.005,3.291c-0.563-6.156-0.576-6.344-1.63-14.368l-0.019-0.168c2.451,0.951,7.145,3.065,9.797,4.565
		l-0.013,0.103l-0.052,0.336c-1.054,7.501-0.957,16.955-0.006,24.902c0.272,0.239,0.272,0.239,15.681,0.071
		c4.003,0.918,8.859,2.916,12.079,6.615c-0.272,0.304-0.576,0.582-0.815,0.854c-3.156-0.375-6.615-1.19-9.363-1.022
		c5.632,3.324,10.864,7.022,15.545,12.829c-0.407,0.407-0.718,0.479-0.983,0.479c-7.197-3.705-18.261-10.56-26.098-9.848
		c6.919,4.96,13.062,10.695,18.83,17.854C203.955,298.16,203.683,298.225,203.211,298.225L203.211,298.225z"/>
	<path fill="#442F2B" d="M277.303,44.445c0,3.531-2.858,6.395-6.389,6.395s-6.395-2.865-6.395-6.395
		c0-3.531,2.865-6.395,6.395-6.395C274.445,38.049,277.303,40.914,277.303,44.445z"/>
	<path fill="#C67C32" d="M171.067,250.871l16.218-14.032l7.74,4.889c12.157-0.666,19.561-11.743,26.706-22.458
		c5.425-8.115,10.54-15.765,17.614-19.147l0.601-0.162c32.015-3.285,49.985-29.875,54.919-81.276
		c1.461-15.177-3.026-24.178-7.773-33.722c-2.199-4.429-4.481-9.008-6.285-14.355l-0.595-1.785l1.798-0.543
		c1.914-0.569,4.042-1.953,6.279-3.408c3.919-2.515,8.322-5.387,13.592-5.387c1.468,0,2.91,0.22,4.358,0.673
		c-0.957-4.585-4.869-8.012-8.684-11.355c-3.266-2.858-6.344-5.555-7.721-8.956l-0.42-1.08l0.802-0.854
		c1.351-1.461,3.278-12.959,3.363-18.384c-1.112,0.123-3.634,1.655-5.328,2.677c-1.849,1.125-3.046,1.817-4.029,2.037l-3.33,0.731
		l1.235-3.169c0.705-1.785-0.032-8.639-1.668-13.806c-1.83,0.75-2.276,3.544-2.49,8.574c-0.123,3.22-0.22,5.768-1.739,7.068
		l-1.442,1.229l-0.938-1.203l-1.035,0.019c-2.929,0-6.88-1.254-11.51-11.058c-0.019-0.032-0.032-0.078-0.052-0.11
		c-0.103,3.576,0.343,10.236,1.235,17.427l0.226,1.759l-1.746,0.265c-16.632,2.535-26.57,13.89-36.115,26.292
		c-2.929,3.828-5.503,10.385-8.225,17.343c-6.628,16.935-14.886,38.022-34.99,38.022c-1.545,0.2-3.375,0.317-5.218,0.317
		c-25.115,0-50.457-20.996-68.951-36.348c-4.501-3.725-8.743-7.242-12.39-9.965l-0.401-0.394c-1.319-1.882-2.774-4.164-4.332-6.635
		c-7.01-11.025-16.612-26.318-28.64-24.747c-2.975,0.382-5.083,2.444-7.527,4.824c-2.632,2.567-5.613,5.484-10.243,6.699
		C29.737,50.84,7.46,59.414,8.01,67.698c0.563,8.503,32.28,20.945,52.145,26.771l-1.009,3.511
		c-0.181-0.071-18.914-5.257-28.53-5.257c-3.414,0-4.106,0.673-4.126,0.705c0,0-0.006,1.397,4.455,5.225
		c2.224,1.895,9.169,4.526,16.535,7.294c11.775,4.436,25.103,9.454,29.538,15.131l0.705,0.899l-0.414,1.28
		c-0.2,0.433-0.757,1.17-2.102,1.17c-1.701,0-5.723-1.112-12.681-3.065c-8.122-2.276-18.222-5.121-22.51-5.121l0,0
		c4.546,6.447,22.697,21.417,29.655,26.913l0.414,0.453l3.899,6.253l-0.828,1.009c-2.535,3.097,10.708,19.347,15.202,23.176
		l7.165,6.117l-8.924-3.007c-0.11-0.032-0.181-0.052-0.252-0.071c-0.006,0.407,0.026,0.97,0.058,1.364
		c0.039,0.453,0.058,0.905,0.058,1.339c4.843,4.32,6.88,9.059,8.859,13.644c1.371,3.194,2.658,6.227,4.882,9.208
		c5.529,7.436,15.662,10.372,26.376,13.482c5.949,1.733,12.189,3.557,17.977,6.285l0.129-1.099
		c15.539,1.675,38.43-16.696,47.386-30.108c11.678-18.255,6.214-33.548-0.11-51.259c-0.821-2.283-1.649-4.598-2.451-6.951
		c-0.369-1.08-0.744-2.166-1.099-3.272c-0.065-0.2-0.129-0.407-0.194-0.608l3.472-1.106c1.17,3.679,2.444,7.229,3.686,10.721
		c6.382,17.834,12.409,34.686-0.259,54.466c-8.801,13.198-29.37,30.108-45.911,31.724c7.488,4.501,13.754,11.109,16.826,22.018
		C166.682,250.251,169.883,248.071,171.067,250.871z M269.686,50.083c-2.477,0-4.475-2.011-4.475-4.475
		c0-2.477,2.011-4.481,4.475-4.481c2.47,0,4.475,2.005,4.475,4.481C274.16,48.072,272.169,50.083,269.686,50.083z"/>
	<path fill="#F0DFCD" d="M282.47,76.996c0,0-68.266,59.885-43.668,122.364c0,0,27.961,4.352,45.711-32.998
		c0,0,21.727-49.481,4.313-77.875L282.47,76.996z"/>
	<path fill="#A9352D" d="M260.969,31.971l0.336-19.341l11.51,11.064c0,0,4.048-13.243,7.643-15.694c0,0,4.643,9.35,0.433,16.974
		l12.687-5.445c0,0,3.472,8.51-1.319,15.041c0,0-9.376,3.434-14.937,0C271.761,31.124,260.969,31.971,260.969,31.971z"/>
	<path fill="#A9352D" d="M292.564,62.26l3.02-15.209c0,0,7.255,5.736,10.657,13.107C306.24,60.158,296.838,59.647,292.564,62.26z"/>
</g>
</svg>
