<?xml version="1.0" encoding="utf-8"?>
<!-- Generator: Adobe Illustrator 17.0.0, SVG Export Plug-In . SVG Version: 6.00 Build 0)  -->
<!DOCTYPE svg PUBLIC "-//W3C//DTD SVG 1.1//EN" "http://www.w3.org/Graphics/SVG/1.1/DTD/svg11.dtd">
<svg version="1.1" id="Слой_1" xmlns="http://www.w3.org/2000/svg" xmlns:xlink="http://www.w3.org/1999/xlink" x="0px" y="0px"
	 width="350px" height="350px" viewBox="0 0 350 350" enable-background="new 0 0 350 350" xml:space="preserve">
<path fill="#A8A8A8" stroke="#272525" stroke-width="3" stroke-miterlimit="10" d="M168.226,127.628
	c-18.344-8.368-35.613-22.677-49.484-34.187c-5.099-4.222-9.911-8.213-14.044-11.293l-0.449-0.452
	c-1.501-2.134-3.15-4.72-4.911-7.517c-7.946-12.497-18.833-29.833-32.465-28.052c-3.371,0.432-5.759,2.77-8.529,5.469
	c-2.979,2.909-6.359,6.217-11.607,7.596C30.638,63.11,5.393,72.83,6.011,82.22c0.64,9.638,36.591,23.734,59.108,30.344l-1.144,3.975
	c-0.208-0.076-21.439-5.957-32.339-5.957c-3.866,0-4.651,0.759-4.674,0.802c0,0-0.01,1.583,5.046,5.917
	c2.527,2.15,10.399,5.132,18.741,8.269c13.348,5.033,28.451,10.719,33.484,17.151l0.798,1.019l-0.468,1.454
	c-0.231,0.492-0.858,1.326-2.388,1.326c-1.923,0-6.481-1.263-14.37-3.473c-9.202-2.586-20.65-5.812-25.509-5.812
	c5.152,7.312,25.723,24.278,33.609,30.505l0.471,0.518l4.417,7.081l-0.94,1.145c-2.869,3.516,12.138,21.933,17.234,26.267
	l8.12,6.933l-10.116-3.407c-0.122-0.036-0.201-0.056-0.287-0.082c-0.007,0.462,0.03,1.101,0.069,1.547
	c0.04,0.518,0.063,1.026,0.063,1.521c5.495,4.891,7.803,10.264,10.04,15.462c1.56,3.625,3.015,7.062,5.535,10.439
	c6.267,8.424,17.751,11.755,29.895,15.278c0.531,0.155,1.068,0.312,1.602,0.469c2.038-5.66,3.948-11.287,5.825-16.729
	C159.863,199.692,167.96,163.521,168.226,127.628z"/>
<path fill="#A8A8A8" stroke="#272525" stroke-width="3" stroke-miterlimit="10" d="M248.238,254.314
	c6.144-9.205,11.943-17.87,19.961-21.702l0.68-0.188c1.458-0.15,2.881-0.357,4.288-0.592c7.307-0.503,20.655-3.53,33.139-17.387
	c-34.948-20.238-62.32-55.123-79.321-92.445c-5.947,7.429-13.623,12.575-24.19,12.575c-1.758,0.231-3.829,0.36-5.914,0.36
	c-9.632,0-19.292-2.73-28.671-7.009c-0.266,35.894-8.363,72.064-20.394,106.553c-1.877,5.442-3.787,11.069-5.825,16.729
	c6.259,1.833,12.733,3.805,18.771,6.658l5.274,2.843c8.486,5.096,15.587,12.593,19.067,24.955c0.732,3.757,2.015,6.735,3.361,9.908
	c2.345,5.472,4.776,11.108,3.994,19.968l-0.056,0.709l-0.514,0.544c-2.457,2.523-7.464,3.509-12.804,4.525
	c-2.919,0.581-6.254,1.21-8.8,2.134c3.575-0.31,7.411-1.105,11.155-1.847c0.056,0,0.112-0.017,0.149-0.017
	c5.059-1.049,10.31-2.094,15.04-2.094c4.502,0,8.081,0.937,10.957,2.902l1.524,1.023l-0.851,1.633
	c-0.798,1.53-1.831,2.681-2.827,3.816c-0.666,0.725-1.283,1.402-1.778,2.154c1.923-0.172,3.691-1.019,5.709-1.983
	c2.428-1.161,5.191-2.49,8.628-2.638c0.422,0,0.858-0.02,1.27-0.02c7.414,0,14.641,2.827,21.02,5.314
	c5.304,2.081,10.314,4.024,14.535,4.047c-0.607-1.105-0.983-2.296-0.89-3.301c0.125-1.339,1.042-2.873,3.268-3.12
	c1.633-0.33,5.247-0.31,9.519-0.169c2.065,0.073,4.265,0.152,6.451,0.152c3.305,0,7.586-0.152,10.769-1.115
	c-0.501-0.168-1.026-0.37-1.573-0.534c-2.246-0.759-4.819-1.6-6.28-3.922l-5.188,2.365c-8.681,1.336-19.954-1.794-27.557-4.024
	c-3.16-0.933-6.148-1.794-7.342-1.794l-0.818,0.116l-0.798-0.502c-10.861-7.86-17.019-20.627-18.335-37.92l-0.155-2.094l2.081-0.112
	C231.744,279.008,240.138,266.452,248.238,254.314z"/>
<path fill="#A8A8A8" stroke="#272525" stroke-width="3" stroke-miterlimit="10" d="M306.318,214.587
	c4.593-5.098,9.07-11.65,13.085-20.099c0,0,24.625-56.084,4.892-88.268l-0.008-0.015c-0.641-1.326-1.299-2.648-1.961-3.979
	c-2.487-5.023-5.079-10.205-7.118-16.27l-0.673-2.022l2.032-0.62c2.17-0.64,4.584-2.213,7.121-3.862
	c1.541-0.99,3.152-2.027,4.846-2.961l-0.001,0.006c4.845-2.958,15.495-2.384,15.495-2.384c-1.05-5.06-5.279-8.876-9.497-12.571
	c-1.503-1.427-2.546-2.258-2.568-2.276c-2.815-2.549-5.282-5.108-6.523-8.174l-0.478-1.224l0.907-0.967
	c0.413-0.446,0.873-1.724,1.328-3.466c0.624-0.19,0.988-0.323,0.988-0.323c5.435-7.401,1.501-17.045,1.501-17.045
	c-0.716,0.08-1.944,0.675-3.221,1.382l-11.163,4.789c0.684-1.238,1.143-2.517,1.459-3.798c0.045-0.15,0.084-0.321,0.116-0.513
	C318.482,22.433,314.81,15,314.81,15c-0.66,0.271-1.148,0.803-1.532,1.549c-3.611,4.725-7.132,16.235-7.132,16.235l-13.044-12.537
	c-0.023-0.033-0.04-0.086-0.059-0.122c-0.025,0.857-0.021,1.879,0.009,3.022l-0.332,19.024c-18.853,2.873-30.116,15.742-40.931,29.8
	c-3.324,4.334-6.24,11.772-9.321,19.654c-4.03,10.292-8.594,21.932-15.468,30.52C243.999,159.464,271.37,194.349,306.318,214.587z"
	/>
</svg>
