<?xml version="1.0" encoding="utf-8"?>
<!-- Generator: Adobe Illustrator 17.0.0, SVG Export Plug-In . SVG Version: 6.00 Build 0)  -->
<!DOCTYPE svg PUBLIC "-//W3C//DTD SVG 1.1 Basic//EN" "http://www.w3.org/Graphics/SVG/1.1/DTD/svg11-basic.dtd">
<svg version="1.1" baseProfile="basic" id="Слой_1"
	 xmlns="http://www.w3.org/2000/svg" xmlns:xlink="http://www.w3.org/1999/xlink" x="0px" y="0px" width="240px" height="230px"
	 viewBox="0 0 240 230" xml:space="preserve">
<path fill="none" stroke="#FFFFFF" stroke-width="6" stroke-miterlimit="10" d="M223.539,138.68
	c5.158-10.151,8.001-21.234,8.001-32.843c0-48.693-49.929-88.166-111.52-88.166c-16.476,0-32.116,2.827-46.191,7.898
	c-6.947-2.988-13.858-5.926-19.807-7.897c-4.763-1.578-7.939-2.324-9.996-2.528c-0.038-0.189-0.08-0.379-0.132-0.571
	c-3.347-12.436-18.207-3.406-18.207-3.406c5.182-0.272,7.24,2.003,7.24,2.003l-12.38,4.592l6.352,1.564l5.681,1.398l-9.864,1.574
	c0,0,9.371,7.987,16.002,4.355c4.017-2.203,4.742-5.667,4.742-5.667s0.188-0.41,0.376-1.1c1.715-1.58,11.798,0.781,24.684,7.735
	C32.853,42.329,8.5,71.833,8.5,105.837c0,11.233,2.663,21.973,7.507,31.853c0.544,12.263,2.382,31.343,8.501,36.65v27.061
	c0,6.03,3.229,11.293,8.042,14.197c0.168,0.14,0.542,0.4,1.296,0.705c2.194,1.07,4.649,1.687,7.253,1.687h3.299
	c4.428,0.193,9.829,0,9.829,0h0.827c0,0,6.587,1.129,11.342,0.577c1.915-0.223,3.507-0.496,4.847-0.785
	c1.512-0.229,2.956-0.654,4.305-1.261c1.295-0.525,1.783-0.921,1.783-0.921s0.002-0.012,0.004-0.025
	c4.791-2.909,8.002-8.16,8.002-14.174c0,0,0-0.316,0-0.89c0.479,0.013,0.953,0.018,1.409,0.008c1.472-0.032,3.085-0.107,4.59-0.192
	c9.737,2.868,20.694,4.486,32.288,4.486c11.834,0,23-1.689,32.886-4.669c0.52,0.062,1.065,0.121,1.622,0.174v5.494
	c0,6.871,4.179,12.767,10.133,15.286l0,0c0,0,6.043,2.676,10.528,2.578c4.487-0.099,10.272-1.244,10.272-1.244
	s6.024,1.342,10.515,1.244c4.487-0.099,10.363-3.098,10.363-3.098s0.001-0.011,0.002-0.018c5.35-2.753,9.016-8.318,9.016-14.748
	V169.95C222.054,161.835,223.153,148.196,223.539,138.68z"/>
<path fill="#EB7272" d="M1602.97,686.224c0.358-0.247,0.715-0.495,1.073-0.742c0.084,0.127,0.169,0.254,0.253,0.381
	c-0.434,0.129-0.868,0.259-1.302,0.388C1602.994,686.25,1602.97,686.224,1602.97,686.224z"/>
<path fill="#EB7272" d="M1570.006,1049.175c0.243,0.36,0.489,0.718,0.714,1.089c0.004,0.007-0.235,0.163-0.361,0.249
	c-0.133-0.432-0.267-0.865-0.401-1.297C1569.957,1049.216,1570.006,1049.175,1570.006,1049.175z"/>
<g>
	<g>
		<g>
			<path fill="#989898" d="M113.803,41.18c0,0-17.408,4.163-36.067-8.062C59.077,20.894,43.173,17.248,43.578,20.59
				c0,0-11.287-10.12,10.444-2.918c21.733,7.201,56.312,27.307,58.575,15.596C114.859,21.56,113.803,41.18,113.803,41.18z"/>
			<path fill="#989898" d="M43.46,20.986c0,0-0.725,3.464-4.742,5.667c-6.631,3.632-16.002-4.355-16.002-4.355l9.864-1.574
				l-5.681-1.398l-6.352-1.564l12.38-4.592c0,0-2.058-2.275-7.24-2.003c0,0,14.86-9.03,18.207,3.406
				C44.823,18.02,43.46,20.986,43.46,20.986z"/>
		</g>
		<g>
			
				<linearGradient id="SVGID_1_" gradientUnits="userSpaceOnUse" x1="665.6819" y1="429.159" x2="611.1884" y2="354.389" gradientTransform="matrix(1 0 0 1 -561.92 -235.32)">
				<stop  offset="0.0121" style="stop-color:#B5C0CD"/>
				<stop  offset="1" style="stop-color:#858E98"/>
			</linearGradient>
			<path fill="url(#SVGID_1_)" d="M106.127,182.657c0,9.162-7.427,16.589-16.591,16.589H61.89c-9.164,0-16.591-7.427-16.591-16.589
				V128.05c0-9.162,7.427-16.59,16.591-16.59h27.646c9.164,0,16.591,7.428,16.591,16.59V182.657z"/>
			<g>
				
					<linearGradient id="SVGID_2_" gradientUnits="userSpaceOnUse" x1="150.8369" y1="-604.1021" x2="152.9594" y2="-611.7429" gradientTransform="matrix(-0.9979 0.0654 -0.0654 -0.9979 193.2851 -457.6921)">
					<stop  offset="0.0121" style="stop-color:#B5C0CD"/>
					<stop  offset="1" style="stop-color:#858E98"/>
				</linearGradient>
				<path fill="url(#SVGID_2_)" d="M97.759,157.318c0,0-25.177,5.778-32.727,3.798L97.759,157.318z"/>
				
					<linearGradient id="SVGID_3_" gradientUnits="userSpaceOnUse" x1="152.146" y1="-592.5418" x2="154.2686" y2="-600.1832" gradientTransform="matrix(-0.9979 0.0654 -0.0654 -0.9979 193.2851 -457.6921)">
					<stop  offset="0.0121" style="stop-color:#B5C0CD"/>
					<stop  offset="1" style="stop-color:#858E98"/>
				</linearGradient>
				<path fill="url(#SVGID_3_)" d="M95.697,145.868c0,0-25.181,5.776-32.728,3.799L95.697,145.868z"/>
			</g>
			<g>
				
					<linearGradient id="SVGID_4_" gradientUnits="userSpaceOnUse" x1="612.6486" y1="413.2887" x2="616.714" y2="392.9754" gradientTransform="matrix(0.9998 -0.0221 0.024 1.0844 -559.3256 -219.5208)">
					<stop  offset="0.0121" style="stop-color:#B5C0CD"/>
					<stop  offset="1" style="stop-color:#858E98"/>
				</linearGradient>
				<path fill="url(#SVGID_4_)" d="M55.458,199.49c0,0-1.161-14.768,10.666-13.946c11.831,0.821,10.13,14.389,10.13,14.389
					s-5.807,0.488-10.296,0.587C61.474,200.619,55.458,199.49,55.458,199.49z"/>
				<path fill="#85929D" d="M76.243,199.49c0,0-1.163-14.768,10.666-13.946c11.826,0.821,10.132,14.389,10.132,14.389
					s-5.809,0.488-10.295,0.587C82.257,200.619,76.243,199.49,76.243,199.49z"/>
			</g>
		</g>
		<g>
			
				<linearGradient id="SVGID_5_" gradientUnits="userSpaceOnUse" x1="762.3434" y1="429.1591" x2="707.8499" y2="354.3889" gradientTransform="matrix(1 0 0 1 -561.92 -235.32)">
				<stop  offset="0.0121" style="stop-color:#B5C0CD"/>
				<stop  offset="1" style="stop-color:#858E98"/>
			</linearGradient>
			<path fill="url(#SVGID_5_)" d="M202.789,182.657c0,9.162-7.428,16.589-16.591,16.589h-27.647
				c-9.162,0-16.591-7.427-16.591-16.589V128.05c0-9.162,7.428-16.59,16.591-16.59h27.647c9.162,0,16.591,7.428,16.591,16.59
				V182.657z"/>
			<g>
				
					<linearGradient id="SVGID_6_" gradientUnits="userSpaceOnUse" x1="54.3849" y1="-610.4236" x2="56.5072" y2="-618.0639" gradientTransform="matrix(-0.9979 0.0654 -0.0654 -0.9979 193.2851 -457.6921)">
					<stop  offset="0.0121" style="stop-color:#B5C0CD"/>
					<stop  offset="1" style="stop-color:#858E98"/>
				</linearGradient>
				<path fill="url(#SVGID_6_)" d="M194.421,157.318c0,0-25.177,5.778-32.725,3.798L194.421,157.318z"/>
				
					<linearGradient id="SVGID_7_" gradientUnits="userSpaceOnUse" x1="55.6954" y1="-598.8632" x2="57.8179" y2="-606.5042" gradientTransform="matrix(-0.9979 0.0654 -0.0654 -0.9979 193.2851 -457.6921)">
					<stop  offset="0.0121" style="stop-color:#B5C0CD"/>
					<stop  offset="1" style="stop-color:#858E98"/>
				</linearGradient>
				<path fill="url(#SVGID_7_)" d="M192.358,145.868c0,0-25.179,5.776-32.727,3.799L192.358,145.868z"/>
			</g>
			<g>
				<path fill="#85929D" d="M152.119,199.49c0,0-1.16-14.768,10.67-13.946c11.826,0.821,10.128,14.389,10.128,14.389
					s-5.807,0.488-10.297,0.587C158.136,200.619,152.119,199.49,152.119,199.49z"/>
				
					<linearGradient id="SVGID_8_" gradientUnits="userSpaceOnUse" x1="729.3419" y1="419.2725" x2="733.407" y2="398.9593" gradientTransform="matrix(0.9998 -0.0221 0.024 1.0844 -559.3256 -219.5208)">
					<stop  offset="0.0121" style="stop-color:#B5C0CD"/>
					<stop  offset="1" style="stop-color:#858E98"/>
				</linearGradient>
				<path fill="url(#SVGID_8_)" d="M172.905,199.49c0,0-1.163-14.768,10.666-13.946c11.826,0.821,10.128,14.389,10.128,14.389
					s-5.805,0.488-10.294,0.587C178.917,200.619,172.905,199.49,172.905,199.49z"/>
			</g>
		</g>
		<g>
			<path fill="#9F9F9F" d="M218.961,205.812c0,9.162-7.427,16.59-16.589,16.59h-27.649c-9.162,0-16.591-7.428-16.591-16.59v-54.607
				c0-9.161,7.428-16.59,16.591-16.59h27.649c9.162,0,16.589,7.428,16.589,16.59V205.812z"/>
			<path fill="#AAAAAA" d="M223.738,128.004c0,0,0.509,42.953-9.169,48.238c-9.675,5.287-35.144,9.252-51.441,3.965
				c-16.298-5.286,21.394-36.344,35.144-41.631c13.753-5.285,24.959-13.215,24.959-13.215L223.738,128.004z"/>
			<g>
				<path fill="#85929D" d="M168.265,221.098c0,0-1.136-13.221,10.694-12.399c11.829,0.821,10.106,13.733,10.106,13.733
					s-5.785,1.145-10.272,1.244C174.308,223.774,168.265,221.098,168.265,221.098z"/>
				<path fill="#85929D" d="M189.065,222.432c0,0-1.152-14.555,10.68-13.733c11.824,0.821,10.198,11.879,10.198,11.879
					s-5.876,2.999-10.363,3.098C195.089,223.774,189.065,222.432,189.065,222.432z"/>
			</g>
		</g>
		<path fill="#9F9F9F" d="M85.337,201.402c0,9.162-7.427,16.589-16.591,16.589H41.099c-9.161,0-16.591-7.427-16.591-16.589v-54.607
			c0-9.161,7.43-16.591,16.591-16.591h27.647c9.164,0,16.591,7.429,16.591,16.591C85.337,146.795,85.337,201.402,85.337,201.402z"/>
		<path fill="#AAAAAA" d="M15.788,126.985c0,0-0.557,42.954,10.016,48.24s38.403,9.251,56.211,3.963
			c17.81-5.286-23.374-36.343-38.403-41.629c-15.026-5.286-27.27-13.217-27.27-13.217L15.788,126.985z"/>
		<ellipse fill="#AFAFAF" cx="120.02" cy="105.837" rx="111.52" ry="88.166"/>
		<g>
			<path fill="#85929D" d="M32.43,215.488c0,0,0.852-13.866,13.446-12.802c12.594,1.065,8.351,15.305,8.351,15.305
				s-6.266,0.224-10.833-0.051C33.949,217.37,32.43,215.488,32.43,215.488z"/>
			<path fill="#85929D" d="M55.054,217.991c0,0-1.206-15.655,11.411-14.779c12.619,0.876,10.866,12.389,10.866,12.389
				s-2.414,1.976-10.935,2.967C61.641,219.12,55.054,217.991,55.054,217.991z"/>
		</g>
	</g>
	<g>
		<g>
			<circle fill="#BBBBBB" cx="123.213" cy="118.507" r="72.389"/>
			<path fill="#CCCCCB" d="M120.51,56.072c0,0-11.644-9.676-7.409-14.771c0,0-12.233,5.833-4.227,12.485
				C116.881,60.438,120.51,56.072,120.51,56.072z"/>
			<path fill="#CCCCCB" d="M121.505,54.993c0,0-0.27-8.678,3.526-8.797c0,0-7.154-3.035-6.967,2.931
				C118.25,55.094,121.505,54.993,121.505,54.993z"/>
			<path fill="#CCCCCB" d="M120.587,56.926c0,0,13.454-0.377,10.688-6.68c0,0,2.617,7.281-2.849,9.681
				C122.959,62.327,120.587,56.926,120.587,56.926z"/>
		</g>
		<path fill="#FFFFFF" d="M172.225,200.301c0.318,1.08-0.3,2.213-1.38,2.529l-4.831,1.42c-1.08,0.319-2.214-0.3-2.531-1.379
			l-3.319-11.296c-0.318-1.079,0.301-2.212,1.38-2.53l4.834-1.421c1.079-0.316,2.21,0.302,2.528,1.381L172.225,200.301z"/>
		<path fill="#FFFFFF" d="M83.322,201.563c-0.511,1.003-1.737,1.402-2.74,0.892l-4.489-2.289c-1.001-0.51-1.401-1.738-0.89-2.741
			l5.345-10.49c0.513-1.001,1.741-1.4,2.743-0.889l4.487,2.288c1.003,0.51,1.401,1.738,0.89,2.739L83.322,201.563z"/>
		<g>
			<ellipse fill="#C3C1C4" cx="123.624" cy="161.246" rx="73.04" ry="43.568"/>
			<g>
				<path fill="#E2A9C9" d="M75.667,114.336c0,4.408-3.572,7.98-7.983,7.98c-4.408,0-7.984-3.573-7.984-7.98
					c0-4.411,3.577-7.984,7.984-7.984C72.095,106.351,75.667,109.925,75.667,114.336z"/>
				<path fill="#E2A9C9" d="M184.772,114.336c0,4.745-3.848,8.595-8.595,8.595c-4.748,0-8.598-3.85-8.598-8.595
					c0-4.75,3.85-8.597,8.598-8.597C180.924,105.738,184.772,109.586,184.772,114.336z"/>
				<g>
					<path fill="#272525" d="M141.859,107.353c-0.208,0.7-0.354,1.426-0.354,2.194c0,4.296,3.486,7.778,7.782,7.778
						c4.295,0,7.778-3.482,7.778-7.778c0-0.768-0.146-1.494-0.352-2.194H141.859z"/>
				</g>
				<g>
					<path fill="#FFFFFF" d="M143.14,107.353c-0.089,0.3-0.152,0.611-0.152,0.94c0,1.84,1.494,3.331,3.334,3.331
						c1.841,0,3.332-1.491,3.332-3.331c0-0.329-0.061-0.64-0.151-0.94H143.14z"/>
				</g>
				<g>
					<path fill="#272525" d="M93.153,107.353c-0.209,0.7-0.354,1.426-0.354,2.194c0,4.296,3.486,7.778,7.782,7.778
						c4.295,0,7.778-3.482,7.778-7.778c0-0.768-0.146-1.494-0.352-2.194H93.153z"/>
				</g>
				<g>
					<path fill="#FFFFFF" d="M94.433,107.353c-0.089,0.3-0.152,0.611-0.152,0.94c0,1.84,1.494,3.331,3.334,3.331
						c1.841,0,3.332-1.491,3.332-3.331c0-0.329-0.061-0.64-0.151-0.94H94.433z"/>
				</g>
			</g>
			<path fill="#BBBBBB" d="M79.345,62.437c0,0,2.563-20.786-4.841-20.217c-7.405,0.568-21.64-6.55-20.786,18.224
				c0,0,1.707,9.683,19.362,9.112C73.079,69.555,79.345,67.278,79.345,62.437z"/>
			<path fill="#BBBBBB" d="M177.731,70.582c0,0,20.571-3.921,17.765-10.796c-2.809-6.875-0.389-22.608-23.711-14.212
				c0,0-8.696,4.589-2.75,21.222C169.035,66.796,173.123,72.064,177.731,70.582z"/>
			<path fill="#E1A4C4" d="M75.358,65.569c0,0-4.841-7.688-1.423-14.807c3.416-7.12-11.389-5.98-12.529-3.987
				s-7.404,10.82,0.854,12.815C70.517,61.582,72.795,62.151,75.358,65.569z"/>
			<path fill="#E1A4C4" d="M170.624,67.803c0,0,6.429-6.418,14.129-4.657c7.696,1.762,3.319-12.427,1.122-13.099
				c-2.194-0.673-12.187-4.833-12.309,3.66C173.443,62.202,173.39,64.549,170.624,67.803z"/>
		</g>
		<g>
			<path fill="#BBBBBB" d="M102.552,160.677c0,0-10.249-7.973-14.238-1.708c-3.985,6.265,1.14,10.82,1.14,10.82
				S99.632,170.788,102.552,160.677z"/>
			<path fill="#97A7B2" d="M92.23,169.363c0,0-4.485-9.612-0.213-9.398s9.611,2.35,8.542,4.485s-5.979,5.125-7.475,5.125
				C91.588,169.576,92.23,169.363,92.23,169.363z"/>
		</g>
		<g>
			<path fill="#BBBBBB" d="M144.745,160.677c0,0,10.249-7.973,14.236-1.708c3.987,6.265-1.14,10.82-1.14,10.82
				S147.663,170.788,144.745,160.677z"/>
			<path fill="#97A7B2" d="M155.065,169.363c0,0,4.487-9.612,0.215-9.398s-9.612,2.35-8.544,4.485
				c1.069,2.135,5.979,5.125,7.475,5.125S155.065,169.363,155.065,169.363z"/>
		</g>
	</g>
</g>
</svg>
