<?xml version="1.0" encoding="utf-8"?>
<!-- Generator: Adobe Illustrator 17.0.0, SVG Export Plug-In . SVG Version: 6.00 Build 0)  -->
<!DOCTYPE svg PUBLIC "-//W3C//DTD SVG 1.1//EN" "http://www.w3.org/Graphics/SVG/1.1/DTD/svg11.dtd">
<svg version="1.1" id="Слой_1" xmlns="http://www.w3.org/2000/svg" xmlns:xlink="http://www.w3.org/1999/xlink" x="0px" y="0px"
	 width="223.038px" height="215.681px" viewBox="0 0 223.038 215.681" enable-background="new 0 0 223.038 215.681"
	 xml:space="preserve">
<path fill="#87BB50" d="M215.039,130.669c5.155-10.148,7.999-21.226,7.999-32.832C223.04,49.142,173.109,9.67,111.521,9.67
	c-16.477,0-32.118,2.827-46.193,7.898c-6.947-2.987-13.857-5.925-19.806-7.896c-4.763-1.578-7.938-2.324-9.996-2.528
	c-0.038-0.189-0.08-0.379-0.132-0.571C32.047-5.863,17.187,3.167,17.187,3.167c5.182-0.272,7.24,2.003,7.24,2.003l-12.38,4.592
	l6.352,1.564l5.681,1.398l-9.864,1.574c0,0,9.371,7.987,16.002,4.355c4.017-2.203,4.742-5.667,4.742-5.667s0.188-0.41,0.376-1.1
	c1.715-1.58,11.797,0.781,24.683,7.734C24.353,34.328,0,63.831,0,97.837c0,11.236,2.659,21.98,7.507,31.861
	c0.544,12.264,2.383,31.338,8.502,36.642v27.061c0,6.029,3.228,11.29,8.038,14.194c0.167,0.14,0.542,0.401,1.303,0.709
	c2.193,1.069,4.647,1.686,7.251,1.686h3.299c4.428,0.192,9.828,0,9.828,0h0.827c0,0,6.587,1.129,11.342,0.577
	c1.914-0.223,3.505-0.496,4.844-0.784c1.514-0.229,2.961-0.655,4.312-1.264c1.291-0.524,1.779-0.919,1.779-0.919
	s0.002-0.012,0.003-0.025c4.792-2.909,8.003-8.16,8.003-14.174v-3.054c-0.106-0.038-0.214-0.074-0.319-0.113l-1.697,3.329
	c-0.511,1.003-1.737,1.402-2.74,0.892l-4.489-2.289c-1.001-0.51-1.401-1.738-0.89-2.741l1.439-2.823
	c-7.159-3.591-13.141-7.989-17.563-12.956c0.001,0,0.002,0,0.003,0c-1.002-1.125-1.923-2.28-2.76-3.461
	c-0.411-0.58-0.796-1.169-1.166-1.761c-0.072-0.115-0.143-0.229-0.213-0.345c-0.36-0.593-0.702-1.19-1.02-1.794
	c-0.04-0.077-0.077-0.154-0.117-0.231c-0.301-0.584-0.583-1.173-0.844-1.768c-0.03-0.068-0.062-0.135-0.092-0.203
	c-0.267-0.621-0.508-1.248-0.729-1.879c-0.042-0.118-0.082-0.237-0.122-0.356c-0.205-0.61-0.391-1.224-0.553-1.842
	c-0.018-0.067-0.036-0.134-0.053-0.202c-0.003-0.01-0.005-0.02-0.007-0.03c-0.155-0.615-0.285-1.234-0.397-1.857
	c-0.015-0.086-0.032-0.171-0.047-0.257c-0.006-0.036-0.012-0.072-0.018-0.108c-0.104-0.629-0.185-1.262-0.243-1.898
	c-0.012-0.13-0.021-0.261-0.031-0.392c-0.051-0.669-0.086-1.34-0.086-2.016c0-0.717,0.029-1.43,0.087-2.139
	c0.403-4.962,2.2-9.706,5.159-14.097c0,0,0,0,0-0.001c0,0,0,0,0,0c-0.014-0.036-0.026-0.072-0.04-0.108
	c-0.421-1.074-0.814-2.161-1.184-3.26c-0.12-0.354-0.224-0.715-0.338-1.072c-0.254-0.796-0.503-1.595-0.73-2.403
	c-0.114-0.406-0.218-0.818-0.325-1.227c-0.204-0.778-0.4-1.56-0.579-2.348c-0.094-0.415-0.183-0.832-0.27-1.25
	c-0.168-0.807-0.322-1.62-0.463-2.437c-0.696-4.03-1.077-8.168-1.077-12.397c0-18.883,7.232-36.075,19.074-48.963
	c-14.683-0.612-16.181-9.101-16.181-9.101c-0.854-24.774,13.381-17.655,20.786-18.224c6.127-0.471,5.428,13.684,5.005,18.579
	c7.828-5.938,16.901-10.318,26.759-12.682c0.831-3.746,6.16-6.482,6.772-6.785c0.017-0.003,0.03-0.006,0.047-0.009
	c-1.276,1.555-1.085,3.532-0.201,5.53c2.007-0.287,4.04-0.492,6.096-0.61c1.683-1.605,5.15-0.395,5.9-0.105
	c16.025,0.362,30.761,5.933,42.589,15.085c-2.382-12.11,4.314-15.648,4.314-15.648c23.323-8.396,20.902,7.337,23.711,14.212
	c2.806,6.875-17.765,10.796-17.765,10.796c-0.072,0.023-0.144,0.04-0.216,0.06c11.255,12.759,18.087,29.513,18.087,47.865
	c0,5.583-0.639,11.016-1.837,16.236c-0.078,0.339-0.166,0.673-0.248,1.01c-0.153,0.624-0.31,1.246-0.479,1.864
	c-0.101,0.368-0.206,0.734-0.312,1.1c-0.183,0.628-0.374,1.253-0.573,1.875c-0.097,0.303-0.191,0.607-0.292,0.909
	c-0.308,0.921-0.629,1.836-0.973,2.74c3.718,5.225,5.775,10.973,5.775,17.006c0,0.253-0.011,0.504-0.019,0.755
	c-0.005,0.19-0.006,0.381-0.016,0.57c-0.013,0.264-0.037,0.526-0.058,0.789c-0.015,0.186-0.027,0.372-0.046,0.557
	c-0.028,0.273-0.064,0.544-0.1,0.815c-0.023,0.17-0.044,0.34-0.07,0.509c-0.043,0.282-0.093,0.564-0.146,0.845
	c-0.028,0.153-0.057,0.307-0.088,0.46c-0.06,0.293-0.125,0.585-0.194,0.876c-0.032,0.134-0.065,0.268-0.099,0.402
	c-0.078,0.305-0.16,0.61-0.248,0.913c-0.033,0.112-0.068,0.224-0.102,0.337c-0.098,0.32-0.198,0.639-0.307,0.956
	c-0.029,0.084-0.061,0.168-0.09,0.252c-0.121,0.341-0.245,0.682-0.379,1.021c-0.139,0.351-0.282,0.7-0.435,1.047
	c-0.038,0.085-0.078,0.17-0.116,0.255c-0.156,0.344-0.317,0.687-0.486,1.028c-0.047,0.095-0.096,0.189-0.144,0.284
	c-0.172,0.337-0.349,0.672-0.534,1.006c-0.047,0.085-0.094,0.169-0.142,0.254c-0.202,0.357-0.412,0.713-0.629,1.066
	c-0.034,0.054-0.066,0.109-0.1,0.164c-1.053,1.691-2.276,3.332-3.659,4.917c-0.003,0.003-0.006,0.006-0.009,0.01
	c-0.338,0.388-0.687,0.771-1.044,1.152c-4.349,4.635-10.07,8.75-16.845,12.142l1.667,5.674c0.318,1.079-0.299,2.213-1.38,2.529
	l-4.831,1.42c-1.08,0.319-2.214-0.3-2.531-1.379l-1.352-4.6c-1.305,0.484-2.641,0.942-3.999,1.377v6.164
	c0,6.874,4.183,12.772,10.141,15.289c0.079,0.035,6.065,2.672,10.521,2.575c4.487-0.099,10.272-1.244,10.272-1.244
	s6.024,1.342,10.515,1.244c4.487-0.099,10.363-3.098,10.363-3.098s0.002-0.011,0.002-0.018c5.349-2.753,9.015-8.318,9.015-14.748
	v-35.858C213.555,153.836,214.654,140.187,215.039,130.669z"/>
</svg>
