<?xml version="1.0" encoding="utf-8"?>
<!-- Generator: Adobe Illustrator 17.0.0, SVG Export Plug-In . SVG Version: 6.00 Build 0)  -->
<!DOCTYPE svg PUBLIC "-//W3C//DTD SVG 1.1 Basic//EN" "http://www.w3.org/Graphics/SVG/1.1/DTD/svg11-basic.dtd">
<svg version="1.1" baseProfile="basic" id="Слой_1"
	 xmlns="http://www.w3.org/2000/svg" xmlns:xlink="http://www.w3.org/1999/xlink" x="0px" y="0px" width="129.14px"
	 height="135.3px" viewBox="0 0 129.14 135.3" xml:space="preserve">
<path fill="#42BCAA" d="M126.425,46.033c-0.261-0.812-0.536-1.667-0.9-2.472c0.959-2.06,1.036-4.31-0.016-6.183
	c-0.525-0.937-1.282-1.678-2.184-2.224c-0.171-0.832-0.454-1.741-0.858-2.675c-1.4-3.232-3.662-5.528-5.053-5.126
	c-1.393,0.405-1.391,3.355,0.007,6.588c0.041,0.095,0.085,0.186,0.128,0.28c-0.708,0.123-1.42,0.33-2.125,0.612
	c-0.408-0.72-0.936-1.473-1.579-2.217c-2.306-2.661-5.152-4.172-6.359-3.37c-1.206,0.804-0.318,3.617,1.986,6.281
	c0.652,0.754,1.348,1.41,2.037,1.953c-0.192,0.204-0.373,0.412-0.544,0.627c-3.111-1.448-6.212-1.675-6.986-0.485
	c-0.788,1.216,1.14,3.447,4.314,4.979c0.253,0.122,0.505,0.233,0.757,0.338c-0.014,0.389-0.005,0.777,0.049,1.158
	c-2.184,0.418-3.764,1.611-3.71,2.954c0.066,1.598,2.416,2.803,5.246,2.685c1.086-0.044,2.083-0.278,2.899-0.638
	c0.473,0.149,0.968,0.255,1.481,0.317c0.294,1.869,0.808,3.798,1.164,5.727c1.222,6.645,1.652,13.633,0.531,20.024
	c-1.087,6.186-2.427,10.354-7.858,13.653c-4.801,2.918-10.618,4.632-16.634,4.299c-0.019-0.003-0.035-0.003-0.053-0.003
	c-0.834-0.051-7.532-0.853-9.752-0.635c-1.721-0.586-3.488-1.035-5.294-1.337c0.017-0.003,0.034-0.005,0.051-0.008
	c1.237-0.209,2.803-8.619,3.398-9.981c2.853-6.547,8.721-11.516,13.147-16.956c6.194-7.618,8.355-16.621,7.92-26.297
	c-0.392-8.673-4.784-16.868-9.712-23.823c-2.864-4.042-7.763-8.099-12.047-10.545c-3.346-1.911-7.748-3.1-11.563-3.413
	C56.355-0.866,44.569,4.304,36.534,13.04c-5.816,6.323-7.405,15.51-1.86,22.601c2.669,3.413,6.6,5.605,10.918,6.008
	c3.709,0.347,10.064-0.384,13.215-2.552c3.181-2.189,2.822-7.279-0.946-8.514c-2.847-0.934-5.972,1.178-8.858,1.203
	c-6.876,0.059-11.512-6.952-8.286-13.123c4.179-7.996,16.19-11.158,24.479-10.871c8.531,0.296,14.015,4.052,19.549,10.41
	c10.447,12.003,8.885,26.988,0.856,39.866c-1.686,2.702-3.542,5.311-5.417,7.821c-5.13,6.863-10.477,13.566-16.01,20.11
	c-1.745,2.064-5.509,8.038-8.387,8.49c0.163-0.025,0.327-0.051,0.491-0.077c-1.108,0.561-2.19,1.18-3.246,1.854
	c-2.778,0.765-6.871,2.259-7.504,2.451c-0.018,0.003-0.034,0.007-0.051,0.016c-5.778,1.712-11.833,1.386-17.178-0.346
	c-6.045-1.958-8.31-5.705-10.794-11.473c-2.567-5.96-3.76-12.86-4.102-19.607c-0.1-1.958-0.044-3.955-0.19-5.84
	c0.485-0.178,0.942-0.395,1.368-0.65c0.877,0.162,1.901,0.159,2.968-0.048c2.78-0.539,4.789-2.252,4.484-3.823
	c-0.257-1.319-2.069-2.115-4.291-2.018c-0.035-0.383-0.115-0.763-0.219-1.138c0.221-0.161,0.441-0.327,0.659-0.504
	c2.733-2.222,4.097-4.838,3.048-5.839c-1.028-0.98-3.992-0.044-6.685,2.083c-0.216-0.169-0.441-0.33-0.675-0.485
	c0.546-0.687,1.071-1.486,1.532-2.369c1.63-3.124,1.843-6.066,0.485-6.571c-1.36-0.5-3.781,1.624-5.41,4.747
	c-0.454,0.872-0.794,1.727-1.024,2.522c-0.75-0.112-1.491-0.148-2.208-0.105c0.02-0.101,0.042-0.2,0.06-0.302
	c0.615-3.469-0.065-6.339-1.513-6.412c-1.447-0.071-3.118,2.686-3.735,6.152c-0.177,1.002-0.244,1.952-0.218,2.801
	c-0.752,0.739-1.318,1.635-1.613,2.668c-0.589,2.063,0.003,4.231,1.407,6.013c-0.169,0.868-0.234,1.768-0.3,2.62
	c-0.278,3.571-0.322,6.958,0.485,10.477c3.774,16.503,9.9,33.419,26.824,40.296c2.681,1.09,5.574,2.125,8.542,2.844
	c-2.836,5.688-4.77,12.13-5.549,19.027c4.79-7.315,11.956-2.04,17.589,1.09c1.596,0.957,4.149,0.957,5.426,0
	c5.107-3.51,11.17-7.341,16.277-4.149c7.022,4.149,14.362,3.83,20.426-1.277c5.107-4.149,11.809,2.872,17.873,5.426
	c0.818,0.35,1.679,0.593,2.571,0.757c-0.873-10.634-4.474-20.276-9.928-27.855c3.478-1.525,6.757-3.613,9.695-5.706
	C128.627,89.584,132.541,65.11,126.425,46.033z"/>
</svg>
