<?xml version="1.0" encoding="utf-8"?>
<!-- Generator: Adobe Illustrator 17.0.0, SVG Export Plug-In . SVG Version: 6.00 Build 0)  -->
<!DOCTYPE svg PUBLIC "-//W3C//DTD SVG 1.1//EN" "http://www.w3.org/Graphics/SVG/1.1/DTD/svg11.dtd">
<svg version="1.1" id="Слой_1" xmlns="http://www.w3.org/2000/svg" xmlns:xlink="http://www.w3.org/1999/xlink" x="0px" y="0px"
	 width="240px" height="230px" viewBox="0 0 240 230" enable-background="new 0 0 240 230" xml:space="preserve">
<path fill="#97A7B2" stroke="#FFFFFF" stroke-width="6" stroke-miterlimit="10" d="M196.08,160.945
	c0-6.038-2.061-11.788-5.783-17.016c3.041-7.995,4.721-16.661,4.721-25.723c0-18.358-6.847-35.108-18.109-47.869
	c0.08-0.022,0.158-0.03,0.238-0.056c0,0,20.571-3.921,17.765-10.796c-2.809-6.875-0.389-22.608-23.711-14.212
	c0,0-6.704,3.543-4.309,15.673c-11.813-9.145-26.525-14.707-42.529-15.085c-0.595-0.236-4.226-1.568-5.961,0.089
	c-2.056,0.118-4.088,0.326-6.095,0.612c-0.892-2.011-1.088-4.001,0.21-5.562c0,0-5.962,2.848-6.832,6.831
	c-9.858,2.365-18.933,6.737-26.761,12.676c0.423-4.877,1.131-19.06-5.004-18.588c-7.405,0.568-21.64-6.55-20.786,18.224
	c0,0,1.498,8.491,16.187,9.101C57.477,82.132,50.24,99.322,50.24,118.206c0,9.356,1.794,18.288,5.026,26.497
	C51.881,149.724,50,155.202,50,160.945c0,13.387,10.131,25.359,26.06,33.351l-1.441,2.828c-0.511,1.003-0.111,2.231,0.89,2.741
	l4.489,2.289c1.003,0.51,2.229,0.111,2.74-0.892l1.7-3.335c11.202,4.169,24.426,6.586,38.602,6.586
	c14.135,0,27.324-2.402,38.506-6.549l1.353,4.606c0.317,1.079,1.451,1.698,2.531,1.379l4.831-1.42
	c1.08-0.316,1.698-1.449,1.38-2.529l-1.669-5.68C185.929,186.328,196.08,174.346,196.08,160.945z"/>
<path fill="#EB7272" d="M1602.97,686.224c0.358-0.247,0.715-0.495,1.073-0.742c0.084,0.127,0.169,0.254,0.253,0.381
	c-0.434,0.129-0.868,0.259-1.302,0.388C1602.994,686.25,1602.97,686.224,1602.97,686.224z"/>
<path fill="#EB7272" d="M1570.006,1049.175c0.243,0.36,0.489,0.718,0.714,1.089c0.004,0.007-0.235,0.163-0.361,0.249
	c-0.133-0.432-0.267-0.865-0.401-1.297C1569.957,1049.216,1570.006,1049.175,1570.006,1049.175z"/>
<g>
	<g>
		<circle fill="#BBBBBB" cx="122.629" cy="118.206" r="72.389"/>
		<path fill="#CCCCCB" d="M119.926,55.771c0,0-11.644-9.676-7.409-14.771c0,0-12.233,5.833-4.227,12.485
			C116.297,60.137,119.926,55.771,119.926,55.771z"/>
		<path fill="#CCCCCB" d="M120.921,54.692c0,0-0.27-8.678,3.526-8.797c0,0-7.154-3.035-6.967,2.931
			C117.667,54.793,120.921,54.692,120.921,54.692z"/>
		<path fill="#CCCCCB" d="M120.003,56.625c0,0,13.454-0.377,10.688-6.68c0,0,2.617,7.281-2.849,9.681
			C122.375,62.026,120.003,56.625,120.003,56.625z"/>
	</g>
	<path fill="#FFFFFF" d="M171.641,200c0.318,1.08-0.3,2.213-1.38,2.529l-4.831,1.42c-1.08,0.319-2.214-0.3-2.531-1.379
		l-3.319-11.296c-0.318-1.079,0.301-2.212,1.38-2.53l4.834-1.421c1.079-0.316,2.21,0.302,2.528,1.381L171.641,200z"/>
	<path fill="#FFFFFF" d="M82.738,201.262c-0.511,1.003-1.737,1.402-2.74,0.892l-4.489-2.289c-1.001-0.51-1.401-1.738-0.89-2.741
		l5.345-10.49c0.513-1.001,1.741-1.4,2.743-0.889l4.487,2.288c1.003,0.51,1.401,1.738,0.89,2.739L82.738,201.262z"/>
	<g>
		<ellipse fill="#C3C1C4" cx="123.04" cy="160.945" rx="73.04" ry="43.568"/>
		<g>
			<path fill="#E2A9C9" d="M75.083,114.035c0,4.408-3.572,7.98-7.983,7.98c-4.407,0-7.984-3.573-7.984-7.98
				c0-4.411,3.577-7.984,7.984-7.984C71.511,106.05,75.083,109.624,75.083,114.035z"/>
			<path fill="#E2A9C9" d="M184.188,114.035c0,4.745-3.848,8.595-8.595,8.595c-4.748,0-8.598-3.85-8.598-8.595
				c0-4.75,3.85-8.597,8.598-8.597C180.34,105.437,184.188,109.285,184.188,114.035z"/>
			<g>
				<path fill="#272525" d="M141.275,107.052c-0.208,0.7-0.354,1.426-0.354,2.194c0,4.296,3.486,7.778,7.782,7.778
					c4.295,0,7.778-3.482,7.778-7.778c0-0.768-0.146-1.494-0.352-2.194H141.275z"/>
			</g>
			<g>
				<path fill="#FFFFFF" d="M142.556,107.052c-0.089,0.3-0.152,0.611-0.152,0.94c0,1.84,1.494,3.331,3.334,3.331
					c1.841,0,3.332-1.491,3.332-3.331c0-0.329-0.061-0.64-0.151-0.94H142.556z"/>
			</g>
			<g>
				<path fill="#272525" d="M92.569,107.052c-0.209,0.7-0.354,1.426-0.354,2.194c0,4.296,3.486,7.778,7.782,7.778
					c4.295,0,7.778-3.482,7.778-7.778c0-0.768-0.146-1.494-0.352-2.194H92.569z"/>
			</g>
			<g>
				<path fill="#FFFFFF" d="M93.849,107.052c-0.089,0.3-0.152,0.611-0.152,0.94c0,1.84,1.494,3.331,3.334,3.331
					c1.841,0,3.332-1.491,3.332-3.331c0-0.329-0.061-0.64-0.151-0.94H93.849z"/>
			</g>
		</g>
		<path fill="#BBBBBB" d="M78.761,62.136c0,0,2.563-20.786-4.841-20.217c-7.405,0.568-21.64-6.55-20.786,18.224
			c0,0,1.707,9.683,19.362,9.112C72.495,69.254,78.761,66.977,78.761,62.136z"/>
		<path fill="#BBBBBB" d="M177.147,70.281c0,0,20.571-3.921,17.765-10.796c-2.809-6.875-0.389-22.608-23.711-14.212
			c0,0-8.696,4.589-2.75,21.222C168.451,66.495,172.539,71.763,177.147,70.281z"/>
		<path fill="#E1A4C4" d="M74.774,65.268c0,0-4.841-7.688-1.423-14.807c3.416-7.12-11.389-5.98-12.529-3.987
			s-7.404,10.82,0.854,12.815C69.933,61.281,72.211,61.85,74.774,65.268z"/>
		<path fill="#E1A4C4" d="M170.04,67.502c0,0,6.429-6.418,14.129-4.657c7.696,1.762,3.319-12.427,1.122-13.099
			c-2.194-0.673-12.187-4.833-12.309,3.66C172.859,61.901,172.806,64.248,170.04,67.502z"/>
	</g>
	<g>
		<path fill="#BBBBBB" d="M101.968,160.376c0,0-10.249-7.973-14.238-1.708c-3.985,6.265,1.14,10.82,1.14,10.82
			S99.048,170.487,101.968,160.376z"/>
		<path fill="#97A7B2" d="M91.646,169.062c0,0-4.485-9.612-0.213-9.398s9.611,2.35,8.542,4.485
			c-1.069,2.135-5.979,5.125-7.475,5.125C91.004,169.275,91.646,169.062,91.646,169.062z"/>
	</g>
	<g>
		<path fill="#BBBBBB" d="M144.161,160.376c0,0,10.249-7.973,14.236-1.708c3.987,6.265-1.14,10.82-1.14,10.82
			S147.079,170.487,144.161,160.376z"/>
		<path fill="#97A7B2" d="M154.481,169.062c0,0,4.487-9.612,0.215-9.398s-9.612,2.35-8.544,4.485
			c1.069,2.135,5.979,5.125,7.475,5.125S154.481,169.062,154.481,169.062z"/>
	</g>
</g>
</svg>
