<?xml version="1.0" encoding="utf-8"?>
<!-- Generator: Adobe Illustrator 17.0.0, SVG Export Plug-In . SVG Version: 6.00 Build 0)  -->
<!DOCTYPE svg PUBLIC "-//W3C//DTD SVG 1.1 Basic//EN" "http://www.w3.org/Graphics/SVG/1.1/DTD/svg11-basic.dtd">
<svg version="1.1" baseProfile="basic" id="Слой_1"
	 xmlns="http://www.w3.org/2000/svg" xmlns:xlink="http://www.w3.org/1999/xlink" x="0px" y="0px" width="95.586px"
	 height="151.564px" viewBox="0 0 95.586 151.564" xml:space="preserve">
<path fill="#B76153" d="M67.093,95.011c7.116-15.4,16.784-29.26,24.351-44.739C101.356,30,93.233,5.934,69.726,0.93
	C58.983-1.359,45.741,0.715,36.394,5.639c-1.139,0.6-2.215,1.23-3.245,1.881c-7.756,4.907-12.611,11.184-17.227,17.505
	c-1.073-4.928-1.832-9.969-2.116-14.962C5.575,14.617,0,23.384,0,33.457c0,14.757,11.963,26.72,26.72,26.72
	c0.553,0,1.101-0.022,1.646-0.055c-1.748-3.652-3.747-8.123-5.696-13.137c5.502-11.281,9.923-23.061,22.719-28.168
	c0.995-0.397,1.978-0.746,2.949-1.057c23.044-7.373,39.023,9.179,27.639,33.71c-7.312,15.753-19.106,25.834-25.501,40.387
	c-1.625,3.699-2.907,7.681-3.672,12.125c-0.748-3.278-1.709-6.738-2.911-10.366c-9.718,3.998-16.562,13.556-16.562,24.716
	c0,11.955,7.852,22.074,18.68,25.487c0.768-2.014,2.094-6.177,2.757-12.299c1.544,5.109,3.773,9.882,6.751,13.491
	c5.384,6.526,13.225,9.236,23.963,3.159c8.784-4.971,13.705-17.199,9.185-26.564c-1.587-3.288-4.745-5.464-8.105-6.571
	c-7.461-2.459-15.913,0.356-10.348,7.997c2.096,2.873,8.594,1.276,8.979,4.36c0.123,0.983-0.369,2.436-1.83,4.666
	c-0.432,0.658-0.939,1.212-1.492,1.686c-3.222,2.765-8.228,2.493-11.89-0.145c-9.217-6.639-3.525-21.96-0.502-30.01
	C64.576,100.663,65.797,97.815,67.093,95.011z"/>
</svg>
