<?xml version="1.0" encoding="utf-8"?>
<!-- Generator: Adobe Illustrator 17.0.0, SVG Export Plug-In . SVG Version: 6.00 Build 0)  -->
<!DOCTYPE svg PUBLIC "-//W3C//DTD SVG 1.1 Basic//EN" "http://www.w3.org/Graphics/SVG/1.1/DTD/svg11-basic.dtd">
<svg version="1.1" baseProfile="basic" id="Слой_1"
	 xmlns="http://www.w3.org/2000/svg" xmlns:xlink="http://www.w3.org/1999/xlink" x="0px" y="0px" width="118.402px"
	 height="154.697px" viewBox="0 0 118.402 154.697" xml:space="preserve">
<path fill="#BAAE52" d="M86.295,103.588c1.097-2.925,2.318-5.773,3.614-8.577c7.116-15.4,16.784-29.26,24.351-44.739
	C124.172,30,116.049,5.934,92.542,0.93C81.799-1.359,68.557,0.715,59.21,5.639c-1.139,0.6-2.215,1.23-3.245,1.881
	c-7.695,4.869-12.535,11.087-17.119,17.357c0.083,0.211,0.19,0.507,0.318,0.876l-0.386-0.783c0.023-0.031,0.046-0.062,0.068-0.093
	c-0.172-0.438-0.236-0.507-0.156-0.084l-6.568-13.309l-9.927,20.113L0,34.823l16.061,15.656L12.27,72.586l19.853-10.437
	l19.853,10.437l-3.792-22.107l16.061-15.656L52.51,33.117c3.639-6.084,8.243-11.327,15.695-14.301
	c0.995-0.397,1.978-0.746,2.949-1.057c23.044-7.373,39.023,9.179,27.639,33.71c-7.312,15.753-19.106,25.834-25.501,40.387
	c-1.056,2.403-1.947,4.944-2.665,7.635l-11.441,4.749L40.359,92.05l1.777,22.359l-17.411,14.139l21.814,5.219l8.067,20.929
	l11.705-19.133l6.539-0.352c1.421,3.691,3.24,7.075,5.486,9.797c5.384,6.526,13.225,9.236,23.963,3.159
	c8.784-4.971,13.705-17.199,9.185-26.564c-1.587-3.288-4.745-5.464-8.105-6.571c-7.461-2.459-15.913,0.356-10.348,7.997
	c2.096,2.873,8.594,1.276,8.979,4.36c0.123,0.983-0.369,2.436-1.83,4.666c-0.432,0.658-0.939,1.212-1.492,1.686
	c-2.86,2.454-7.124,2.511-10.607,0.649l0.627-0.034l-6.39-7.471C80.382,119.438,84.062,109.533,86.295,103.588z"/>
</svg>
