<?xml version="1.0" encoding="utf-8"?>
<!-- Generator: Adobe Illustrator 17.0.0, SVG Export Plug-In . SVG Version: 6.00 Build 0)  -->
<!DOCTYPE svg PUBLIC "-//W3C//DTD SVG 1.1 Basic//EN" "http://www.w3.org/Graphics/SVG/1.1/DTD/svg11-basic.dtd">
<svg version="1.1" baseProfile="basic" id="Слой_1"
	 xmlns="http://www.w3.org/2000/svg" xmlns:xlink="http://www.w3.org/1999/xlink" x="0px" y="0px" width="123.084px"
	 height="151.564px" viewBox="0 0 123.084 151.564" xml:space="preserve">
<path fill="#87BB50" d="M94.591,95.011c7.116-15.4,16.784-29.26,24.351-44.739C128.854,30,120.731,5.934,97.224,0.93
	C86.481-1.359,73.239,0.715,63.892,5.639c-1.139,0.6-2.215,1.23-3.245,1.881c-6.303,3.988-10.69,8.881-14.59,13.966l-7.011-9.839
	L0,39.469l27.821,39.047l39.047-27.821l-10.944-15.36c3.843-7.016,8.62-13.188,16.963-16.518c0.995-0.397,1.978-0.746,2.949-1.057
	c23.044-7.373,39.023,9.179,27.639,33.71c-7.312,15.753-19.106,25.834-25.501,40.387c-1.343,3.055-2.432,6.322-3.207,9.865
	l-0.538-7.029l-47.805,3.656l3.656,47.805l47.805-3.656l-0.611-7.987c1.458,3.961,3.355,7.606,5.741,10.499
	c5.384,6.526,13.225,9.236,23.963,3.159c8.784-4.971,13.705-17.199,9.185-26.564c-1.587-3.288-4.745-5.464-8.105-6.571
	c-7.461-2.459-15.913,0.356-10.348,7.997c2.096,2.873,8.594,1.276,8.979,4.36c0.123,0.983-0.369,2.436-1.83,4.666
	c-0.432,0.658-0.939,1.212-1.492,1.686c-3.222,2.765-8.228,2.493-11.89-0.145c-9.217-6.639-3.525-21.96-0.502-30.01
	C92.074,100.663,93.295,97.815,94.591,95.011z"/>
</svg>
