<?xml version="1.0" encoding="utf-8"?>
<!-- Generator: Adobe Illustrator 17.0.0, SVG Export Plug-In . SVG Version: 6.00 Build 0)  -->
<!DOCTYPE svg PUBLIC "-//W3C//DTD SVG 1.1 Basic//EN" "http://www.w3.org/Graphics/SVG/1.1/DTD/svg11-basic.dtd">
<svg version="1.1" baseProfile="basic" id="Слой_1"
	 xmlns="http://www.w3.org/2000/svg" xmlns:xlink="http://www.w3.org/1999/xlink" x="0px" y="0px" width="266.917px"
	 height="212.479px" viewBox="0 0 266.917 212.479" xml:space="preserve">
<path fill="#BBCF46" stroke="#FFFFFF" stroke-width="6" stroke-miterlimit="10" d="M193.404,132.497
	c0-11.16,6.844-20.718,16.562-24.716c-2.367-7.147-5.687-14.958-10.278-23.396c0,0-2.256-3.844-5.25-10.098
	c-0.545,0.033-1.093,0.055-1.646,0.055c-14.757,0-26.72-11.963-26.72-26.72c0-10.072,5.575-18.839,13.806-23.393
	c-0.316-5.544-0.045-11.028,1.062-16.229H94.14c0,0,3.472,24.999-6.249,48.61c0,0-20.833,33.331-21.528,48.605
	c0,0-7.638,4.164-9.721-29.861c0,0,0.693-56.939-39.579-67.355c0,0-9.723,1.389-9.027,11.805c0,0,17.359,0,27.081,29.165
	c0,0,2.776,40.276-1.389,82.635c0,0-2.084,44.44,45.134,53.47c0,0,2.083,11.801,15.972,19.439h82.635
	c0,0,28.469-13.19,34.025-45.135c0,0,0.236-0.473,0.588-1.397C201.256,154.57,193.404,144.451,193.404,132.497z"/>
<g>
	<path fill="#FAF8F3" d="M138.691,89.626c2.889-5.75,6.062-12.453,13.023-14.652c10.728-3.39,21.522,7.553,22.785,16.656
		c2.94,21.134-25.814,26.278-34.722,40.867c-11.724-9.567-41.536-25.552-36.899-41.787c6.389-22.381,28.967-14.445,36.456,0.919
		L138.691,89.626z"/>
	<path fill="none" d="M151.714,74.974c-6.96,2.199-10.134,8.902-13.023,14.652l0.642,2.003c-7.489-15.364-30.067-23.3-36.456-0.919
		c-4.637,16.235,25.175,32.22,36.899,41.787c8.908-14.589,37.662-19.733,34.722-40.867
		C173.236,82.527,162.442,71.583,151.714,74.974z"/>
	<path fill="#BBCF46" d="M193.404,132.497c0-11.16,6.844-20.718,16.562-24.716c-2.368-7.147-5.687-14.958-10.278-23.396
		c0,0-2.256-3.844-5.25-10.098c-0.545,0.033-1.093,0.055-1.646,0.055c-14.757,0-26.72-11.963-26.72-26.72
		c0-10.072,5.575-18.839,13.806-23.393c-0.316-5.544-0.045-11.028,1.062-16.23H94.14c0,0,3.472,24.999-6.249,48.61
		c0,0-20.832,33.33-21.528,48.605c0,0-7.638,4.164-9.721-29.861c0,0,0.693-56.939-39.579-67.355c0,0-9.723,1.389-9.027,11.805
		c0,0,17.359,0,27.081,29.165c0,0,2.776,40.276-1.389,82.635c0,0-2.084,44.44,45.134,53.47c0,0,2.083,11.801,15.972,19.439h82.635
		c0,0,28.469-13.19,34.025-45.135c0,0,0.236-0.473,0.588-1.397C201.256,154.57,193.404,144.451,193.404,132.497z M139.777,132.497
		c-11.724-9.567-41.536-25.552-36.899-41.787c6.389-22.381,28.967-14.445,36.456,0.919l-0.642-2.003
		c2.889-5.75,6.062-12.453,13.023-14.652c10.728-3.39,21.522,7.553,22.785,16.656C177.439,112.763,148.684,117.907,139.777,132.497z
		"/>
</g>
</svg>
