<?xml version="1.0" encoding="utf-8"?>
<!-- Generator: Adobe Illustrator 17.0.0, SVG Export Plug-In . SVG Version: 6.00 Build 0)  -->
<!DOCTYPE svg PUBLIC "-//W3C//DTD SVG 1.1 Basic//EN" "http://www.w3.org/Graphics/SVG/1.1/DTD/svg11-basic.dtd">
<svg version="1.1" baseProfile="basic" id="Слой_1"
	 xmlns="http://www.w3.org/2000/svg" xmlns:xlink="http://www.w3.org/1999/xlink" x="0px" y="0px" width="266.917px"
	 height="212.479px" viewBox="0 0 266.917 212.479" xml:space="preserve">
<path fill="#FAF8F3" stroke="#FFFFFF" stroke-width="6" stroke-miterlimit="10" d="M257.516,64.438
	c9.912-20.272,1.789-44.338-21.718-49.342c-10.743-2.289-23.985-0.216-33.332,4.709c-9.712,5.119-15.242,12.226-20.471,19.385
	c-2.264-10.4-3.158-21.304-1.055-31.19h-86.8c0,0,3.472,24.999-6.249,48.61c0,0-20.833,33.33-21.528,48.605
	c0,0-7.638,4.164-9.721-29.861c0,0,0.693-56.939-39.579-67.355c0,0-9.723,1.389-9.027,11.805c0,0,17.359,0,27.081,29.165
	c0,0,2.776,40.276-1.389,82.635c0,0-2.084,44.44,45.134,53.47c0,0,2.083,11.801,15.972,19.439h82.635
	c0,0,28.469-13.19,34.026-45.135c0,0,2.378-4.765,3.345-13.694c4.337,14.348,14.037,26.088,30.713,16.651
	c8.784-4.972,13.705-17.199,9.185-26.564c-5.111-10.589-26.524-9.657-18.453,1.426c2.764,3.788,13.193-0.204,7.15,9.026
	c-2.946,4.49-9.091,4.632-13.382,1.541c-9.217-6.639-3.525-21.96-0.502-30.01C236.676,98.762,248.572,82.736,257.516,64.438z
	 M212.877,118.146c-2.222-9.736-6.268-21.042-13.189-33.763c0,0.001-5.658-9.634-10.946-23.233
	c5.502-11.281,9.923-23.06,22.719-28.167c24.598-9.816,42.451,7.088,30.588,32.653C232.88,85.393,216.649,96.221,212.877,118.146z"
	/>
<g id="__x0023_Layer_x0020_2">
	<g id="_439656472">
		<path fill="#BBCF46" d="M180.94,8h-86.8c0,0,3.472,24.999-6.249,48.61c0,0-20.833,33.33-21.528,48.605
			c0,0-7.638,4.164-9.721-29.861c0,0,0.693-56.939-39.579-67.355c0,0-9.723,1.389-9.027,11.805c0,0,17.359,0,27.081,29.165
			c0,0,2.776,40.276-1.389,82.635c0,0-2.084,44.44,45.134,53.47c0,0,2.083,11.801,15.972,19.439h82.635
			c0,0,28.469-13.19,34.026-45.135c0,0,13.886-27.774-11.807-74.995C199.689,84.385,173.997,40.639,180.94,8z"/>
		<path fill="#BBCF46" d="M180.94,40.639c5.557-7.64,11.159-15.37,21.526-20.834c9.347-4.925,22.589-6.998,33.332-4.709
			c23.507,5.004,31.63,29.07,21.718,49.342c-8.944,18.298-20.84,34.324-27.965,53.316c-3.023,8.05-8.715,23.371,0.502,30.01
			c4.291,3.091,10.436,2.949,13.382-1.541c6.043-9.23-4.386-5.238-7.15-9.026c-8.071-11.083,13.342-12.015,18.453-1.426
			c4.52,9.365-0.401,21.592-9.185,26.564c-25.27,14.3-34.525-20.023-33.365-38.368c1.645-25.985,19.914-36.899,29.861-58.331
			c11.863-25.565-5.99-42.469-30.588-32.653c-13.973,5.577-17.958,19.112-24.272,31.264L180.94,40.639z"/>
		<path fill="#FAF8F3" d="M138.691,89.626c2.889-5.75,6.062-12.453,13.023-14.652c10.728-3.39,21.522,7.553,22.785,16.656
			c2.94,21.134-25.814,26.278-34.722,40.867c-11.724-9.567-41.536-25.552-36.899-41.787c6.389-22.381,28.967-14.445,36.456,0.919
			L138.691,89.626z"/>
	</g>
</g>
<path fill="none" d="M243.436,146.223c1.46-2.23,1.953-3.684,1.83-4.666c-0.821,2.278-1.947,4.41-3.322,6.353
	C242.497,147.435,243.004,146.881,243.436,146.223z"/>
<path fill="none" d="M188.742,61.15c1.949,5.013,3.948,9.485,5.696,13.137c13.99-0.851,25.074-12.461,25.074-26.664
	c0-5.867-1.896-11.289-5.102-15.697c-0.971,0.311-1.954,0.66-2.949,1.057C198.665,38.089,194.244,49.87,188.742,61.15z"/>
<path fill="none" d="M194.438,74.287c2.994,6.254,5.25,10.098,5.25,10.098c4.591,8.437,7.91,16.248,10.278,23.396
	c2.076-0.854,4.283-1.451,6.583-1.759c6.395-14.552,18.189-24.634,25.501-40.387c11.383-24.531-4.596-41.083-27.639-33.71
	c3.206,4.408,5.102,9.83,5.102,15.697C219.512,61.826,208.428,73.436,194.438,74.287z"/>
</svg>
