<?xml version="1.0" encoding="utf-8"?>
<!-- Generator: Adobe Illustrator 17.0.0, SVG Export Plug-In . SVG Version: 6.00 Build 0)  -->
<!DOCTYPE svg PUBLIC "-//W3C//DTD SVG 1.1 Basic//EN" "http://www.w3.org/Graphics/SVG/1.1/DTD/svg11-basic.dtd">
<svg version="1.1" baseProfile="basic" id="Слой_1"
	 xmlns="http://www.w3.org/2000/svg" xmlns:xlink="http://www.w3.org/1999/xlink" x="0px" y="0px" width="79.746px"
	 height="151.544px" viewBox="0 0 79.746 151.544" xml:space="preserve">
<path fill="#42BCAA" d="M51.253,95.011c7.116-15.4,16.784-29.26,24.351-44.739C85.516,30,77.393,5.934,53.886,0.93
	C43.143-1.359,29.901,0.715,20.554,5.639c-1.139,0.6-2.215,1.23-3.245,1.881C9.554,12.428,4.698,18.705,0.083,25.025
	C-0.99,20.097,8.779,51.998,6.83,46.985c5.502-11.281,9.923-23.061,22.719-28.168c0.995-0.397,1.978-0.746,2.949-1.057
	c23.044-7.373,39.023,9.179,27.639,33.71c-7.312,15.753-19.106,25.834-25.501,40.387c-1.625,3.699-2.907,7.681-3.672,12.125
	c-1.821,10.466-2.071,16.466-0.946,26.591c1.826,10.502,7.664,14.171,9.855,16.378c4.065,4.094,13.03,7.295,23.767,1.219
	c8.784-4.971,13.705-17.199,9.185-26.564c-1.587-3.288-4.745-5.464-8.105-6.571c-7.461-2.459-15.913,0.356-10.348,7.997
	c2.096,2.873,8.594,1.276,8.979,4.36c0.123,0.983-0.369,2.436-1.83,4.666c-0.432,0.658-0.939,1.212-1.492,1.686
	c-3.222,2.765-8.228,2.493-11.89-0.145c-9.217-6.639-3.525-21.96-0.502-30.01C48.736,100.663,49.957,97.815,51.253,95.011z"/>
</svg>
