<?xml version="1.0" encoding="utf-8"?>
<!-- Generator: Adobe Illustrator 17.0.0, SVG Export Plug-In . SVG Version: 6.00 Build 0)  -->
<!DOCTYPE svg PUBLIC "-//W3C//DTD SVG 1.1 Basic//EN" "http://www.w3.org/Graphics/SVG/1.1/DTD/svg11-basic.dtd">
<svg version="1.1" baseProfile="basic" id="Слой_1"
	 xmlns="http://www.w3.org/2000/svg" xmlns:xlink="http://www.w3.org/1999/xlink" x="0px" y="0px" width="358.875px"
	 height="253.75px" viewBox="0 0 358.875 253.75" xml:space="preserve">
<polygon fill="#A8A8A8" stroke="#272525" stroke-width="3" stroke-miterlimit="10" points="557.307,189.762 557.307,189.762 
	557.306,189.761 "/>
<path fill="#A8A8A8" stroke="#272525" stroke-width="3" stroke-miterlimit="10" d="M322.939,73.595
	c-15.406-7.336-43.716-1.893-55.322,11.986c-4.605-3.473-10.035-6.637-16.454-9.273v-9.314h-1.55c0,0-2.33-15.518-22.506-14.744
	c0,0-2.328-16.296-20.176-17.848c0,0,10.864-27.162-17.853-26.386c0,0-24.834,5.432-13.192,24.832c0,0-17.072,3.105-21.732,17.072
	c0,0-16.296,0-22.504,17.073v8.538c-20.847,6.351-32.367,19.305-38.733,31.383c-15.549-0.689-25.22-7.597-35.77-19.225
	c-5.524-6.086-9.828-16.039-18.114-14.5C29.569,74.949,11.746,80.877,8,81.999c39.053,8.139,38.616,58.799,57.429,87.435
	c4.008,6.107,13.463,15.09,20.176,18.107c3.628,1.632,10.112,2.519,15.95,2.328c12.952,15.486,28.542,22.505,28.542,22.505v5.948
	h0.776c-4.099,0-7.453,3.353-7.453,7.453c0,4.1,3.518,6.303,7.453,7.453c45.169,13.201,84.447,11.349,119.71,0
	c3.902-1.256,7.453-3.353,7.453-7.453c0-4.099-3.353-7.453-7.453-7.453h0.578v-5.428c0,0,19.682-6.451,32.073-30.275
	c8.413-5.55,20.616-9.046,27.944-12.153c16.904-7.159,26.903-19.14,34.663-36.214C356.906,109.919,348.047,85.548,322.939,73.595z
	 M309.625,154.548c-6.488,4.439-13.604,7.387-20.029,11.542c2.276-8.491,3.617-18.423,3.474-30.025c0,0,0.781-21.228-14.435-39.903
	c8.102-6.887,19.023-11.507,28.922-11.059c15.144,0.689,24.733,11.957,25.35,27.421
	C333.611,130.132,323.728,144.887,309.625,154.548z"/>
</svg>
