<?xml version="1.0" encoding="utf-8"?>
<!-- Generator: Adobe Illustrator 17.0.0, SVG Export Plug-In . SVG Version: 6.00 Build 0)  -->
<!DOCTYPE svg PUBLIC "-//W3C//DTD SVG 1.1 Basic//EN" "http://www.w3.org/Graphics/SVG/1.1/DTD/svg11-basic.dtd">
<svg version="1.1" baseProfile="basic" id="Слой_1"
	 xmlns="http://www.w3.org/2000/svg" xmlns:xlink="http://www.w3.org/1999/xlink" x="0px" y="0px" width="358.875px"
	 height="253.75px" viewBox="0 0 358.875 253.75" xml:space="preserve">
<path fill="#FAF8F3" stroke="#FFFFFF" stroke-width="6" stroke-miterlimit="10" d="M322.939,73.595
	c-15.541-7.401-43.982-2.216-55.392,11.934c0.001,0.001,0.003,0.002,0.004,0.003c-4.591-3.454-10-6.6-16.389-9.224v-9.314v0h-1.549
	c0,0-2.33-15.519-22.506-14.744c0,0-2.328-16.296-20.176-17.848c0,0,10.864-27.162-17.853-26.386c0,0-24.834,5.432-13.192,24.833
	c0,0-17.072,3.105-21.732,17.072c0,0-16.296,0-22.504,17.073v8.538c-4.446,1.355-8.462,3.013-12.101,4.896
	c-0.012-0.064-0.016-0.13-0.029-0.194c-10.45,5.325-17.77,12.521-22.894,19.909c0.108,0.038,0.22,0.065,0.329,0.101
	c-1.513,2.19-2.833,4.395-3.985,6.574c0.003-0.006,0.006-0.011,0.009-0.017C77,106.298,67.861,99.498,57.147,87.69
	c-5.524-6.086-9.828-16.039-18.114-14.5C29.569,74.949,9.604,80.234,8,81.999c39.053,8.139,38.616,58.799,57.429,87.435
	c4.008,6.107,13.463,15.09,20.176,18.107c3.707,1.668,10.399,3.028,16.335,2.784c2.432,2.866,4.949,5.436,7.434,7.719
	c-0.055,0.07-0.115,0.137-0.169,0.208c10.584,9.66,20.498,14.122,20.498,14.122v5.949h0.395v0.001h0.775
	c-4.099,0-7.452,3.353-7.453,7.453c0,4.1,3.518,6.303,7.453,7.453c45.169,13.201,84.446,11.349,119.71,0
	c3.902-1.256,7.453-3.353,7.453-7.453c0-4.1-3.354-7.453-7.453-7.453h0.579v-5.428c0,0,19.373-6.345,31.778-29.707
	c-0.005,0.01-0.01,0.02-0.015,0.03c8.422-5.881,20.68-9.539,28.254-12.751c16.904-7.159,26.903-19.14,34.663-36.214
	C356.907,109.919,348.048,85.548,322.939,73.595z M269.172,86.792c-0.002-0.002-0.005-0.004-0.007-0.006
	C269.168,86.788,269.17,86.79,269.172,86.792z M85.102,133.47c-0.01,0.174-0.013,0.267-0.013,0.267
	c-0.101,0.83-0.187,1.653-0.262,2.469c0.075-0.816,0.161-1.639,0.262-2.47C85.089,133.736,85.093,133.64,85.102,133.47z
	 M85.421,130.315c-0.001,0.005-0.001,0.009-0.002,0.014C85.42,130.324,85.421,130.32,85.421,130.315z M85.346,130.904
	c-0.005,0.04-0.009,0.078-0.014,0.117C85.337,130.982,85.341,130.944,85.346,130.904z M85.282,131.445
	c-0.006,0.053-0.012,0.105-0.017,0.156C85.271,131.549,85.276,131.499,85.282,131.445z M85.23,131.931
	c-0.006,0.06-0.012,0.119-0.018,0.176C85.218,132.049,85.224,131.992,85.23,131.931z M85.188,132.363
	c-0.006,0.061-0.011,0.121-0.016,0.178C85.177,132.484,85.183,132.425,85.188,132.363z M85.156,132.726
	c-0.006,0.066-0.011,0.133-0.016,0.193C85.145,132.858,85.151,132.793,85.156,132.726z M85.132,133.028
	c-0.005,0.068-0.01,0.135-0.014,0.193C85.122,133.162,85.127,133.096,85.132,133.028z M85.115,133.272
	c-0.004,0.063-0.008,0.124-0.011,0.175C85.107,133.396,85.111,133.337,85.115,133.272z M84.508,141.984
	c-0.009,0.459-0.017,0.918-0.018,1.372C84.491,142.901,84.499,142.443,84.508,141.984z M84.765,136.986
	c-0.045,0.551-0.09,1.101-0.124,1.646C84.675,138.087,84.719,137.537,84.765,136.986z M84.594,139.55
	c-0.025,0.491-0.049,0.981-0.065,1.466C84.545,140.531,84.569,140.041,84.594,139.55z M85.013,152.333
	c-0.05-0.413-0.099-0.826-0.141-1.243C84.915,151.507,84.964,151.92,85.013,152.333z M84.784,150.143
	c-0.037-0.416-0.072-0.834-0.103-1.254C84.712,149.31,84.747,149.727,84.784,150.143z M84.619,147.917
	c-0.025-0.423-0.046-0.848-0.064-1.276C84.573,147.069,84.594,147.494,84.619,147.917z M84.521,145.656
	c-0.012-0.436-0.02-0.874-0.024-1.314C84.501,144.782,84.508,145.221,84.521,145.656z M85.438,155.359
	c0.076,0.461,0.16,0.916,0.244,1.371C85.598,156.276,85.514,155.821,85.438,155.359z M85.125,153.248
	c0.056,0.423,0.12,0.841,0.184,1.259C85.245,154.089,85.182,153.671,85.125,153.248z M85.809,157.431
	c0.13,0.667,0.27,1.328,0.417,1.982C86.078,158.758,85.939,158.098,85.809,157.431z M86.416,160.203
	c0.095,0.397,0.188,0.795,0.289,1.188C86.604,160.999,86.511,160.601,86.416,160.203z M86.953,162.308
	c0.092,0.339,0.183,0.679,0.28,1.015C87.136,162.988,87.045,162.648,86.953,162.308z M87.52,164.283
	c0.095,0.311,0.189,0.622,0.287,0.93C87.709,164.905,87.615,164.594,87.52,164.283z M88.129,166.188
	c0.098,0.292,0.197,0.583,0.298,0.872C88.326,166.771,88.227,166.48,88.129,166.188z M88.781,168.042
	c0.101,0.275,0.204,0.548,0.308,0.82C88.985,168.59,88.882,168.317,88.781,168.042z M89.475,169.851
	c0.102,0.256,0.207,0.51,0.312,0.764C89.682,170.361,89.578,170.107,89.475,169.851z M90.21,171.617
	c0.101,0.233,0.204,0.464,0.307,0.695C90.414,172.082,90.311,171.851,90.21,171.617z M90.982,173.34
	c0.094,0.203,0.191,0.402,0.287,0.603C91.173,173.742,91.076,173.543,90.982,173.34z M91.79,175.023
	c0.07,0.141,0.142,0.278,0.213,0.418C91.933,175.301,91.86,175.163,91.79,175.023z M95.13,181.004
	c0.027,0.044,0.054,0.089,0.081,0.133C95.184,181.093,95.157,181.048,95.13,181.004z M95.98,182.339
	c0.057,0.087,0.112,0.175,0.169,0.262C96.092,182.514,96.037,182.425,95.98,182.339z M96.909,183.731
	c0.065,0.096,0.13,0.192,0.196,0.287C97.039,183.923,96.974,183.827,96.909,183.731z M97.879,185.12
	c0.064,0.089,0.127,0.178,0.191,0.267C98.007,185.298,97.943,185.209,97.879,185.12z M98.874,186.479
	c0.057,0.076,0.114,0.152,0.172,0.228C98.988,186.631,98.931,186.555,98.874,186.479z M99.892,187.81
	c0.039,0.05,0.079,0.1,0.118,0.15C99.971,187.91,99.931,187.861,99.892,187.81z M100.929,189.109
	c0.004,0.005,0.009,0.01,0.013,0.016C100.938,189.12,100.933,189.114,100.929,189.109z M284.012,181.084
	c-0.059,0.12-0.117,0.242-0.176,0.361C283.895,181.326,283.953,181.204,284.012,181.084z M284.942,179.121
	c-0.071,0.156-0.142,0.312-0.213,0.466C284.8,179.433,284.871,179.276,284.942,179.121z M309.625,154.548
	c-6.607,4.52-13.547,7.395-20.063,11.672c0,0,0,0.001,0,0.001c2.298-8.519,3.652-18.495,3.508-30.156
	c0,0,0.782-21.253-14.462-39.936c0.013,0.016,0.027,0.032,0.04,0.048c8.144-7.096,18.829-11.531,28.909-11.074
	c15.144,0.689,24.733,11.957,25.35,27.421C333.611,130.132,323.728,144.888,309.625,154.548z M285.598,177.643
	c0.071-0.164,0.141-0.33,0.212-0.495C285.74,177.314,285.669,177.479,285.598,177.643z M286.448,175.594
	c0.061-0.153,0.123-0.306,0.183-0.461C286.571,175.287,286.51,175.44,286.448,175.594z M287.287,173.401
	c0.042-0.114,0.084-0.226,0.126-0.34C287.371,173.175,287.329,173.287,287.287,173.401z M277.471,94.775
	c0.013,0.015,0.025,0.029,0.038,0.044C277.496,94.804,277.484,94.79,277.471,94.775z"/>
<polygon fill="#A8A8A8" stroke="#272525" stroke-width="3" stroke-miterlimit="10" points="557.307,189.762 557.307,189.762 
	557.306,189.761 "/>
<g>
	<g id="__x0023_Layer_x0020_1">
		<path fill="#CD3D6B" d="M130.873,218.324h119.71c4.099,0,7.453,3.353,7.453,7.453l0,0c0,4.1-3.551,6.197-7.453,7.453
			c-35.264,11.349-74.541,13.201-119.71,0c-3.935-1.15-7.453-3.353-7.453-7.453l0,0
			C123.421,221.677,126.774,218.324,130.873,218.324z"/>
		<path fill="#CD3D6B" d="M251.162,66.994v9.314c43.461,17.85,41.908,59.757,41.908,59.757
			c0.774,62.859-41.908,76.831-41.908,76.831v5.428H130.098v-5.949c0,0-51.74-23.283-45.009-78.638c0,0,1.552-44.493,46.561-58.205
			v-8.538c6.208-17.073,22.504-17.073,22.504-17.073c4.66-13.967,21.732-17.072,21.732-17.072
			c-11.642-19.401,13.192-24.833,13.192-24.833c28.717-0.776,17.853,26.386,17.853,26.386c17.848,1.552,20.176,17.848,20.176,17.848
			c20.176-0.775,22.506,14.744,22.506,14.744L251.162,66.994L251.162,66.994z"/>
	</g>
	<g id="__x0023_Layer_x0020_3">
		<path fill="#CD3D6B" d="M92.978,106.801C77,106.298,67.861,99.498,57.147,87.69c-5.524-6.086-9.828-16.039-18.114-14.5
			C29.569,74.949,12.323,81.997,8,81.999c39.053,8.139,38.616,58.799,57.429,87.435c4.008,6.107,13.463,15.09,20.176,18.107
			c3.707,1.668,10.4,3.028,16.336,2.784c-10.812-12.738-19.925-31.321-16.852-56.589C85.088,133.737,85.543,120.844,92.978,106.801z
			"/>
		<path fill="#CD3D6B" d="M267.547,85.529c11.41-14.15,39.851-19.335,55.392-11.934c25.109,11.953,33.968,36.324,22.903,60.659
			c-7.76,17.074-17.759,29.055-34.663,36.214c-7.574,3.212-19.832,6.87-28.254,12.751c2.598-4.887,4.89-10.522,6.637-16.999
			c6.516-4.277,13.456-7.152,20.063-11.672c14.103-9.66,23.986-24.416,23.282-42.024c-0.617-15.464-10.206-26.732-25.35-27.421
			c-10.08-0.457-20.765,3.978-28.909,11.074C275.624,92.464,271.967,88.854,267.547,85.529z"/>
		<path fill="#D3698D" d="M251.162,66.994v9.314c43.461,17.85,41.908,59.757,41.908,59.757
			c0.774,62.859-41.908,76.831-41.908,76.831v5.428H130.098v-5.949c0,0-51.74-23.283-45.009-78.638c0,0,1.552-44.493,46.561-58.205
			v-8.538h0.017c17.364,2.791,36.985,4.364,57.762,4.364s40.397-1.574,57.762-4.364L251.162,66.994L251.162,66.994z"/>
		<path fill="#FAF8F3" d="M119.867,83.712c0,9.625-7.8,17.426-17.426,17.426c-2.039,0-3.997-0.351-5.815-0.995
			c5.124-7.388,12.444-14.584,22.894-19.909C119.747,81.358,119.867,82.521,119.867,83.712z"/>
		<path fill="#FAF8F3" d="M187.982,94.798c0,9.626-7.8,17.426-17.426,17.426c-9.626,0-17.426-7.8-17.426-17.426
			c0-9.622,7.8-17.426,17.426-17.426C180.181,77.372,187.982,85.177,187.982,94.798z"/>
		<path fill="#FAF8F3" d="M257.684,118.56c0,9.625-7.8,17.426-17.424,17.426c-9.627,0-17.428-7.8-17.428-17.426
			c0-9.62,7.8-17.424,17.428-17.424C249.883,101.136,257.684,108.94,257.684,118.56z"/>
		<path fill="#FAF8F3" d="M142.044,147.074c0,9.623-7.8,17.426-17.428,17.426c-9.623,0-17.423-7.803-17.423-17.426
			c0-9.624,7.8-17.426,17.423-17.426C134.243,129.648,142.044,137.45,142.044,147.074z"/>
		<path fill="#FAF8F3" d="M203.825,167.666c0,9.623-7.803,17.426-17.426,17.426c-9.627,0-17.428-7.803-17.428-17.426
			c0-9.62,7.8-17.426,17.428-17.426C196.022,150.24,203.825,158.046,203.825,167.666z"/>
		<path fill="#FAF8F3" d="M140.462,208.853c0,3.492-1.027,6.743-2.796,9.47h-7.963v-5.949c0,0-9.914-4.462-20.498-14.122
			c3.185-4.149,8.194-6.826,13.83-6.826C132.66,191.427,140.462,199.234,140.462,208.853z"/>
		<path fill="#FAF8F3" d="M271.942,189.844c0,9.625-7.802,17.426-17.426,17.426c-9.627,0-17.428-7.8-17.428-17.426
			c0-9.619,7.8-17.424,17.428-17.424C264.139,172.42,271.942,180.225,271.942,189.844z"/>
		<path fill="#FAF8F3" d="M193.856,218.324c2.825-1.973,6.261-3.133,9.969-3.133s7.144,1.159,9.969,3.133H193.856z"/>
		<path fill="#FAF8F3" d="M289.991,162.903c-5.982-2.761-10.133-8.811-10.133-15.833c0-7.914,5.279-14.595,12.511-16.718
			c0.385,3.546,0.306,5.709,0.306,5.709C292.8,146.244,291.78,155.137,289.991,162.903z"/>
	</g>
</g>
</svg>
