<?xml version="1.0" encoding="utf-8"?>
<!-- Generator: Adobe Illustrator 17.0.0, SVG Export Plug-In . SVG Version: 6.00 Build 0)  -->
<!DOCTYPE svg PUBLIC "-//W3C//DTD SVG 1.1 Basic//EN" "http://www.w3.org/Graphics/SVG/1.1/DTD/svg11-basic.dtd">
<svg version="1.1" baseProfile="basic" id="Слой_1"
	 xmlns="http://www.w3.org/2000/svg" xmlns:xlink="http://www.w3.org/1999/xlink" x="0px" y="0px" width="208.595px"
	 height="151.33px" viewBox="0 0 208.595 151.33" xml:space="preserve">
<path fill="#EEBF31" d="M166.677,9.314V0h-3.972c-17.364,2.791-36.985,4.364-57.761,4.364C84.167,4.364,64.546,2.79,47.182,0h-0.017
	v8.538c-4.446,1.355-8.462,3.013-12.101,4.896c-0.012-0.064-0.016-0.13-0.029-0.194c-10.45,5.325-17.77,12.521-22.894,19.909
	c0.108,0.038,0.22,0.065,0.329,0.101C1.207,49.553,0.604,66.743,0.604,66.743c-3.763,30.952,10.755,51.874,24.286,64.308
	c-0.056,0.07-0.115,0.137-0.17,0.209c10.584,9.66,20.498,14.122,20.498,14.122v5.948h0.394h7.568h14.572
	c-6.63-13.199-10.611-30.052-10.611-48.419c0-42.322,21.112-76.63,47.156-76.63s47.156,34.308,47.156,76.63
	c0,18.367-3.981,35.22-10.611,48.419h25.835v-5.428c0,0,42.682-13.972,41.908-76.831C208.584,69.071,210.138,27.164,166.677,9.314z"
	/>
</svg>
