<?xml version="1.0" encoding="utf-8"?>
<!-- Generator: Adobe Illustrator 17.0.0, SVG Export Plug-In . SVG Version: 6.00 Build 0)  -->
<!DOCTYPE svg PUBLIC "-//W3C//DTD SVG 1.1 Basic//EN" "http://www.w3.org/Graphics/SVG/1.1/DTD/svg11-basic.dtd">
<svg version="1.1" baseProfile="basic" id="Слой_1"
	 xmlns="http://www.w3.org/2000/svg" xmlns:xlink="http://www.w3.org/1999/xlink" x="0px" y="0px" width="82.986px"
	 height="112.986px" viewBox="0 0 82.986 112.986" xml:space="preserve">
<path fill="#A4C74C" d="M0,15.296C11.41,1.146,39.85-4.039,55.392,3.362C80.501,15.315,89.36,39.686,78.295,64.021
	c-7.76,17.074-17.759,29.055-34.663,36.214c-7.574,3.212-19.832,6.87-28.254,12.751c2.598-4.887,4.89-10.522,6.637-16.999
	c6.516-4.277,13.456-7.152,20.063-11.672c14.103-9.66,23.986-24.416,23.282-42.024C64.743,26.827,55.154,15.559,40.01,14.87
	c-10.08-0.457-20.765,3.978-28.909,11.074C8.077,22.232,4.42,18.621,0,15.296z"/>
</svg>
