<?xml version="1.0" encoding="utf-8"?>
<!-- Generator: Adobe Illustrator 17.0.0, SVG Export Plug-In . SVG Version: 6.00 Build 0)  -->
<!DOCTYPE svg PUBLIC "-//W3C//DTD SVG 1.1 Basic//EN" "http://www.w3.org/Graphics/SVG/1.1/DTD/svg11-basic.dtd">
<svg version="1.1" baseProfile="basic" id="Слой_1"
	 xmlns="http://www.w3.org/2000/svg" xmlns:xlink="http://www.w3.org/1999/xlink" x="0px" y="0px" width="358.875px"
	 height="253.75px" viewBox="0 0 358.875 253.75" xml:space="preserve">
<path fill="#A8A8A8" stroke="#272525" stroke-width="3" stroke-miterlimit="10" d="M131.453,218h119.71
	c4.099,0,7.453,3.353,7.453,7.453l0,0c0,4.1-3.551,6.197-7.453,7.453c-35.264,11.349-74.541,13.201-119.71,0
	c-3.935-1.15-7.453-3.353-7.453-7.453l0,0C124.001,221.353,127.354,218,131.453,218z"/>
<path fill="#A8A8A8" stroke="#272525" stroke-width="3" stroke-miterlimit="10" d="M92.978,106.771
	C77,106.268,67.861,99.469,57.147,87.66c-5.524-6.086-9.828-16.039-18.114-14.5C29.569,74.919,11.512,80.849,8,81.969
	c39.053,8.139,38.616,58.799,57.429,87.435c4.008,6.107,13.463,15.09,20.176,18.107c3.707,1.668,10.4,3.028,16.336,2.785
	c-10.812-12.738-19.925-31.321-16.852-56.589C85.088,133.707,85.543,120.814,92.978,106.771z"/>
<path fill="#A8A8A8" stroke="#272525" stroke-width="3" stroke-miterlimit="10" d="M268,85.296
	c11.41-14.15,39.851-19.335,55.392-11.934c25.109,11.953,33.968,36.324,22.903,60.659c-7.76,17.074-17.759,29.055-34.663,36.214
	c-7.574,3.212-19.832,6.87-28.254,12.751c2.598-4.887,4.89-10.522,6.637-16.999c6.516-4.277,13.456-7.152,20.063-11.672
	c14.103-9.66,23.986-24.416,23.282-42.024c-0.617-15.464-10.206-26.732-25.35-27.421c-10.08-0.457-20.765,3.978-28.909,11.074
	C276.077,92.231,272.42,88.621,268,85.296z"/>
<path fill="#A8A8A8" stroke="#272525" stroke-width="3" stroke-miterlimit="10" d="M189.78,71.358
	c20.777,0,40.397-1.574,57.761-4.364h2.422c0,0-2.33-15.518-22.506-14.744c0,0-2.328-16.296-20.176-17.848
	c0,0,10.864-27.162-17.853-26.386c0,0-24.834,5.432-13.192,24.833c0,0-17.072,3.105-21.732,17.072c0,0-16.296,0-22.504,17.073h0.017
	C149.382,69.785,169.003,71.358,189.78,71.358z"/>
<path fill="#A8A8A8" stroke="#272525" stroke-width="3" stroke-miterlimit="10" d="M251.677,76.308v-9.314h-3.972
	c-17.364,2.791-36.985,4.364-57.761,4.364c-20.777,0-40.398-1.574-57.762-4.364h-0.017v8.538c-4.446,1.355-8.462,3.013-12.101,4.896
	c-0.012-0.064-0.016-0.13-0.029-0.194c-10.45,5.325-17.77,12.521-22.894,19.909c0.108,0.038,0.22,0.065,0.329,0.101
	c-11.263,16.303-11.866,33.493-11.866,33.493c-3.763,30.952,10.755,51.874,24.286,64.308c-0.056,0.07-0.115,0.137-0.17,0.209
	c10.584,9.66,20.498,14.122,20.498,14.122v5.949h0.394h7.568h14.572c-6.63-13.199-10.611-30.052-10.611-48.419
	c0-42.322,21.112-76.63,47.156-76.63s47.156,34.308,47.156,76.63c0,18.367-3.981,35.22-10.611,48.419h25.835v-5.428
	c0,0,42.682-13.972,41.908-76.831C293.585,136.065,295.138,94.158,251.677,76.308z"/>
<path fill="#A8A8A8" stroke="#272525" stroke-width="3" stroke-miterlimit="10" d="M189.156,93C163.113,93,142,127.308,142,169.63
	c0,18.367,3.981,35.22,10.611,48.419h41.618h19.937H225.7c6.63-13.199,10.611-30.052,10.611-48.419
	C236.312,127.308,215.2,93,189.156,93z"/>
</svg>
