<?xml version="1.0" encoding="utf-8"?>
<!-- Generator: Adobe Illustrator 17.0.0, SVG Export Plug-In . SVG Version: 6.00 Build 0)  -->
<!DOCTYPE svg PUBLIC "-//W3C//DTD SVG 1.1 Basic//EN" "http://www.w3.org/Graphics/SVG/1.1/DTD/svg11-basic.dtd">
<svg version="1.1" baseProfile="basic" id="Слой_1"
	 xmlns="http://www.w3.org/2000/svg" xmlns:xlink="http://www.w3.org/1999/xlink" x="0px" y="0px" width="124.552px"
	 height="269.451px" viewBox="0 0 124.552 269.451" xml:space="preserve">
<path fill="#B76153" d="M62.278,0C27.882,0,0,27.882,0,62.276c0,28.614,19.294,52.712,45.58,60.009v131.576l14.655,15.59V124.515
	c0.679,0.022,1.359,0.037,2.044,0.037c34.391,0,62.273-27.877,62.273-62.276C124.552,27.882,96.669,0,62.278,0z M58.204,45.588
	c-8.77,0-15.877-7.107-15.877-15.864c0-8.773,7.107-15.88,15.877-15.88s15.877,7.107,15.877,15.88
	C74.081,38.481,66.974,45.588,58.204,45.588z"/>
</svg>
