<?xml version="1.0" encoding="utf-8"?>
<!-- Generator: Adobe Illustrator 17.0.0, SVG Export Plug-In . SVG Version: 6.00 Build 0)  -->
<!DOCTYPE svg PUBLIC "-//W3C//DTD SVG 1.1 Basic//EN" "http://www.w3.org/Graphics/SVG/1.1/DTD/svg11-basic.dtd">
<svg version="1.1" baseProfile="basic" id="Слой_1"
	 xmlns="http://www.w3.org/2000/svg" xmlns:xlink="http://www.w3.org/1999/xlink" x="0px" y="0px" width="118.255px"
	 height="196.809px" viewBox="0 0 118.255 196.809" xml:space="preserve">
<path fill="#BAAE52" d="M117.567,88.372c0,0-5.803-0.994-5.139-1.492c0,0-2.322-0.332-2.984,0.662c0,0-7.76,0.446-15.878,0.667
	l-0.148-7.683c1.769-6.411-3.316-25.201-3.316-25.201l-3.771-11.189l-0.318-6.939C80.162,11.023,74.154,4.861,71.159,3.485
	c-0.831-0.707-1.766-1.347-2.831-1.88c0,0-9.728-3.756-16.138,0.223c0,0-6.465,2.417-8.921,8.754
	c-3.304,2.098-11.578,8.862-14.731,25.509c0,0-3.094,23.433-3.537,24.98c0,0-1.747,8.237-1.959,13.176
	c-1.956,6.064-1.953,12.598-1.858,15.123L0.906,89.585c-2.1,1.217,0.11,6.745,0.11,6.745c0.332,1.159-0.165,3.979-0.165,3.979
	c0,0.036,0.225,0.067,0.604,0.095c-0.225,1.415-0.308,4.578,0.778,11.51c0,0,0.662,33.379,0.443,36.032
	c0,0,0.883,21.001,0.662,23.21c0,0,1.769,19.01,4.863,22.77l0.465,0.004c0.06,0.641,0.199,1.103,0.199,1.103
	c0.662,1.99,22.769,1.769,22.769,1.769l72.064-1.33c2.061,0,2.576-0.415,2.597-0.815c1.126-0.535,2.382-1.975,2.931-5.594
	c0,0,4.198-2.43,4.419-22.106c0,0-0.664-28.958,0-33.6c0,0,1.99-16.138,1.546-18.348c0,0-0.441-7.295,1.327-9.283
	c0,0,1.073-3.714,0.495-6.468c1.01-0.478,0.721-1.6,0.721-1.6c-0.497-1.326,0.499-8.291,0.499-8.291
	C118.399,87.707,117.567,88.372,117.567,88.372z M88.24,85.794l-0.321-7.013C88.216,80.184,88.689,83.099,88.24,85.794z
	 M62.359,4.258c0,0,7.344-0.987,13.167,9.37c1.85,7.038,2.419,16.934,2.419,16.934c-0.189,2.381-0.143,4.797,0.049,7.172
	c-0.324,13.468-1.266,27.758-1.266,27.758c-1.99,6.411,0.884,12.822,0.884,12.822l1.91,9.868c-1.616-0.098-2.871-0.251-3.57-0.475
	c0,0-10.775-2.486-28.348-0.165l-6.901,1.424c-2.895,0.067-5.999,0.134-8.847,0.194v-8.858c-1.107-6.63,3.755-18.348,3.755-18.348
	c7.516-17.462,7.074-28.074,7.074-28.074c-0.752-5.383-0.368-11.967,0.106-16.668C44.482,12.372,49.462,2.935,62.359,4.258z"/>
</svg>
