<?xml version="1.0" encoding="utf-8"?>
<!-- Generator: Adobe Illustrator 17.0.0, SVG Export Plug-In . SVG Version: 6.00 Build 0)  -->
<!DOCTYPE svg PUBLIC "-//W3C//DTD SVG 1.1 Basic//EN" "http://www.w3.org/Graphics/SVG/1.1/DTD/svg11-basic.dtd">
<svg version="1.1" baseProfile="basic" id="Слой_1"
	 xmlns="http://www.w3.org/2000/svg" xmlns:xlink="http://www.w3.org/1999/xlink" x="0px" y="0px" width="187.598px"
	 height="72.949px" viewBox="0 0 187.598 72.949" xml:space="preserve">
<path fill="#42BCAA" d="M187.537,22.701l-3.509-8.431c-0.17-1.449-0.716-3.173-2.048-4.919l-0.103-0.248l-0.096,0.001
	C178.385,4.886,170.294,0.633,151.621,0L17.816,3.228L0,30.097l4.252,10.815c0,0,1.693,0.193,4.739,0.518l0.059,0.149l4.007,0.371
	c0.908,2.519,3.34,7.812,8.865,12.305c-1.148,3.695-0.651,7.875,1.731,11.326c1.103,1.598,2.501,2.865,4.062,3.8
	c2.021,1.411,4.419,2.07,6.749,1.871c2.51-0.008,5.037-0.743,7.253-2.272c3.143-2.171,5.005-5.5,5.443-9.034
	c3.573-1.711,8.443-5.519,13.057-13.925c17.266,1.257,36.339,2.323,53.86,2.591c1.417,2.65,3.667,5.925,7.109,8.889
	c-0.986,3.346-0.506,7.103,1.643,10.214c1.014,1.47,2.3,2.633,3.735,3.492c1.854,1.294,4.055,1.895,6.193,1.71
	c2.297-0.01,4.611-0.685,6.639-2.083c2.862-1.975,4.565-4.997,4.984-8.209c0.784-0.552,1.526-1.245,2.172-2.112
	c3.545-2.979,7.847-7.778,11.469-15.359l-3.966,0.562C168.555,42.374,188.858,35.403,187.537,22.701z"/>
</svg>
