<?xml version="1.0" encoding="utf-8"?>
<!-- Generator: Adobe Illustrator 17.0.0, SVG Export Plug-In . SVG Version: 6.00 Build 0)  -->
<!DOCTYPE svg PUBLIC "-//W3C//DTD SVG 1.1 Basic//EN" "http://www.w3.org/Graphics/SVG/1.1/DTD/svg11-basic.dtd">
<svg version="1.1" baseProfile="basic" id="Слой_1"
	 xmlns="http://www.w3.org/2000/svg" xmlns:xlink="http://www.w3.org/1999/xlink" x="0px" y="0px" width="155.258px"
	 height="140.081px" viewBox="0 0 155.258 140.081" xml:space="preserve">
<path fill="#87BB50" d="M154.314,76.385c0,0,2.636-16.505-0.901-30.343c-0.056-1.094-0.096-1.735-0.096-1.735
	c-1.426-5.132-2.28-23.097-2.28-23.097c-0.095-0.304-0.188-0.577-0.281-0.856h0.564c2.139-15.396-14.97-20.1-14.97-20.1
	c-10.537-1.317-17.015,2.666-20.97,7.538c-0.828-0.488-1.389-0.74-1.389-0.74C89.926,6.376,62.137,25.692,62.137,25.692
	c-10.614,4.128-9.825,7.684-7.293,9.944c-7.603,6.681-15.752,16.491-15.752,16.491c-0.239,3.245-0.712,5.805-1.339,7.842
	c-1.067,0.578-1.799,0.932-2.052,0.968c0,0-3.579,2.345-8.226,5.528c-1.919-0.708-3.297-1.798-3.297-1.798
	c-6.988,5.282-11.057,10.306-13.38,13.998c-2.618,2.172-4.326,3.895-4.243,4.641c0,0-11.096,10.821-4.419,27.196
	c0.604,3.757,1.993,8.474,5.097,13.133c0,0,16.266,21.69,32.536,14.573c0,0,11.026-1.581,27.608-20.525
	c0.19,0.412,0.416,0.846,0.673,1.295l0.292,5.739c0,0,5.559,8.983,16.25,11.976c0,0,45.34,12.404,59.456-10.264
	c0,0,7.116-9.745,8.73-20.463C154.188,99.137,154.982,89.621,154.314,76.385z M110.334,17.588c-0.528,1.748-0.782,3.097-0.879,3.699
	c-0.088,0.147-0.175,0.299-0.263,0.454c-2.023,0.757-4.353,5.926-6.108,10.664c-5.742-2.125-13.472-3.019-22.307,1.084
	c0,0-7.62,4.838-16.597,10.449c-0.343-0.125-0.351-0.282-0.351-0.282c0.678-9.15,23.385-15.251,23.385-15.251
	c1.904-2.167,2.462-3.461,2.142-4.152c8.82-3.386,16.16-6.015,16.16-6.015C107.269,17.672,108.866,17.509,110.334,17.588z
	 M112.558,18.054c0.035-0.034,0.078-0.075,0.119-0.114c5.795,1.525,8.769,7.074,8.769,7.074c0.345-0.982,0.588-1.895,0.77-2.765
	c0.006,0.134,0.014,0.271,0.018,0.4l-0.788,2.365c-0.438,1.299-0.908,2.536-1.393,3.745c-3.808,1.213-7.537,3.353-10.43,6.971
	c-0.083-0.055-0.169-0.11-0.254-0.166l2.836-16.912C112.332,18.438,112.449,18.238,112.558,18.054z M138.062,28.055
	c0,0-6.664-1.522-14.082-0.246l-0.503-8.893l-0.223,0.671c-0.093-2.703-1.024-4.953-2.286-6.755
	c4.557-1.675,10.619-2.264,17.518,1.251c0,0,3.853,0.861,6.181,4.428c-0.316,1.161-0.476,2.13-0.476,2.13l0.88,10.847
	C143.112,29.913,140.804,28.715,138.062,28.055z M149.797,17.802l0.012-0.007c-0.001,0.009-0.001,0.019-0.002,0.028
	C149.803,17.816,149.8,17.81,149.797,17.802z M114.143,9.466c-0.023,0.033-0.047,0.067-0.069,0.1
	c-1.665-0.463-3.376-0.719-4.941-0.85C111.07,8.718,112.731,8.987,114.143,9.466z"/>
</svg>
