<?xml version="1.0" encoding="utf-8"?>
<!-- Generator: Adobe Illustrator 17.0.0, SVG Export Plug-In . SVG Version: 6.00 Build 0)  -->
<!DOCTYPE svg PUBLIC "-//W3C//DTD SVG 1.1 Basic//EN" "http://www.w3.org/Graphics/SVG/1.1/DTD/svg11-basic.dtd">
<svg version="1.1" baseProfile="basic" id="Слой_1"
	 xmlns="http://www.w3.org/2000/svg" xmlns:xlink="http://www.w3.org/1999/xlink" x="0px" y="0px" width="157px" height="304.125px"
	 viewBox="0 0 157 304.125" xml:space="preserve">
<path fill="#DE8C2F" stroke="#FFFFFF" stroke-width="6" stroke-miterlimit="10" d="M102.436,180.579v-39.011
	c25.72-10.087,43.954-35.081,43.954-64.382C146.39,38.978,115.42,8,77.207,8C38.991,8,8,38.978,8,77.186
	c0,28.688,17.459,53.296,42.34,63.784v131.598l21.982,21.985l32.966-32.966l-13.036-13.033l6.918-6.918l-8.138-8.141l23.207-23.205
	l-21.575-21.573v-8.138H102.436z M56.857,43.216c0.112-8.677,7.166-15.674,15.867-15.674c8.674,0,15.709,6.955,15.863,15.595
	c-0.069,8.703-7.148,15.737-15.863,15.737C64.024,58.874,56.969,51.882,56.857,43.216z"/>
<path fill="#EB7272" d="M1602.97,686.224c0.358-0.247,0.715-0.495,1.073-0.742c0.084,0.127,0.169,0.254,0.253,0.381
	c-0.434,0.129-0.868,0.259-1.302,0.388C1602.994,686.25,1602.97,686.224,1602.97,686.224z"/>
<path fill="#EB7272" d="M1570.006,1049.175c0.243,0.36,0.489,0.718,0.714,1.089c0.004,0.007-0.235,0.163-0.361,0.249
	c-0.133-0.432-0.267-0.865-0.401-1.297C1569.957,1049.216,1570.006,1049.175,1570.006,1049.175z"/>
<g id="__x0023_Layer_x0020_1">
	<path fill="#DC862E" d="M8,77.186c0,28.688,17.459,53.296,42.34,63.784v131.598l21.982,21.985l32.966-32.966l-13.036-13.033
		l6.918-6.918l-8.138-8.141l23.207-23.205l-21.575-21.573v-8.138h9.772v-39.011c25.72-10.087,43.954-35.081,43.954-64.382
		C146.39,38.978,115.42,8,77.207,8C38.991,8,8,38.978,8,77.186z M88.593,43.01L88.593,43.01c0,8.762-7.112,15.864-15.869,15.864
		c-8.77,0-15.877-7.102-15.877-15.864c0-8.77,7.107-15.88,15.877-15.88C81.481,27.13,88.593,34.24,88.593,43.01z"/>
	<polygon fill="#DE8C2F" points="60.099,126.563 60.099,268.505 74.754,283.149 74.754,126.563 	"/>
	<path fill="#DE8C2F" d="M14.519,75.974c0,34.399,27.882,62.276,62.278,62.276c34.391,0,62.273-27.877,62.273-62.276
		c0-34.394-27.882-62.276-62.273-62.276C42.401,13.698,14.519,41.58,14.519,75.974z M88.601,43.422L88.601,43.422
		c0,8.757-7.107,15.864-15.877,15.864s-15.877-7.107-15.877-15.864c0-8.773,7.107-15.88,15.877-15.88S88.601,34.649,88.601,43.422z"
		/>
</g>
</svg>
