<?xml version="1.0" encoding="utf-8"?>
<!-- Generator: Adobe Illustrator 17.0.0, SVG Export Plug-In . SVG Version: 6.00 Build 0)  -->
<!DOCTYPE svg PUBLIC "-//W3C//DTD SVG 1.1 Basic//EN" "http://www.w3.org/Graphics/SVG/1.1/DTD/svg11-basic.dtd">
<svg version="1.1" baseProfile="basic" id="Слой_1"
	 xmlns="http://www.w3.org/2000/svg" xmlns:xlink="http://www.w3.org/1999/xlink" x="0px" y="0px" width="157px" height="304.125px"
	 viewBox="0 0 157 304.125" xml:space="preserve">
<path fill="#DC862E" stroke="#FCFCFC" stroke-width="6" stroke-miterlimit="10" d="M102.437,180.579v-39.011
	c25.72-10.087,43.954-35.081,43.954-64.382C146.39,38.978,115.42,8,77.207,8C38.991,8,8,38.978,8,77.186
	c0,28.688,17.459,53.296,42.34,63.784v131.598l21.982,21.985l32.966-32.966l-13.036-13.033l6.918-6.918l-8.138-8.141l23.207-23.205
	l-21.575-21.573v-8.138H102.437z M76.798,138.25c-0.684,0-1.365-0.015-2.044-0.037v144.936l-14.655-15.59V135.983
	c-26.286-7.297-45.58-31.395-45.58-60.009c0-34.394,27.882-62.276,62.278-62.276c34.391,0,62.273,27.882,62.273,62.276
	C139.071,110.373,111.189,138.25,76.798,138.25z"/>
<path fill="#EB7272" d="M1602.97,686.224c0.358-0.247,0.715-0.495,1.073-0.742c0.084,0.127,0.169,0.254,0.253,0.381
	c-0.434,0.129-0.868,0.259-1.302,0.388C1602.994,686.25,1602.97,686.224,1602.97,686.224z"/>
<path fill="#EB7272" d="M1570.006,1049.175c0.243,0.36,0.489,0.718,0.714,1.089c0.004,0.007-0.235,0.163-0.361,0.249
	c-0.133-0.432-0.267-0.865-0.401-1.297C1569.957,1049.216,1570.006,1049.175,1570.006,1049.175z"/>
<g>
	<g>
		<path fill="#DC862E" d="M8,77.186c0,28.688,17.459,53.296,42.34,63.784v131.598l21.982,21.985l32.966-32.966l-13.036-13.033
			l6.918-6.918l-8.138-8.141l23.207-23.205l-21.575-21.573v-8.138h9.772v-39.011c25.72-10.087,43.954-35.081,43.954-64.382
			C146.39,38.978,115.42,8,77.207,8C38.991,8,8,38.978,8,77.186z M139.071,75.974c0,34.399-27.882,62.276-62.273,62.276
			c-0.684,0-1.365-0.015-2.044-0.037v144.936l-14.655-15.59V135.983c-26.286-7.297-45.58-31.395-45.58-60.009
			c0-34.394,27.882-62.276,62.278-62.276C111.189,13.698,139.071,41.58,139.071,75.974z"/>
	</g>
</g>
</svg>
