<?xml version="1.0" encoding="utf-8"?>
<!-- Generator: Adobe Illustrator 17.0.0, SVG Export Plug-In . SVG Version: 6.00 Build 0)  -->
<!DOCTYPE svg PUBLIC "-//W3C//DTD SVG 1.1 Basic//EN" "http://www.w3.org/Graphics/SVG/1.1/DTD/svg11-basic.dtd">
<svg version="1.1" baseProfile="basic" id="Слой_1"
	 xmlns="http://www.w3.org/2000/svg" xmlns:xlink="http://www.w3.org/1999/xlink" x="0px" y="0px" width="145.737px"
	 height="87.621px" viewBox="0 0 145.737 87.621" xml:space="preserve">
<path fill="#DB9252" d="M108.763,18.705C97.579,6.278,81.423-3.664,65.268,1.307c-13.67,3.728-17.398,22.369-29.825,27.34
	c-6.528,2.374-13.626,2.756-21.016,2.516C10.216,36.286,5.511,41.008,0,45.173c11.571,31.422,48.631,46.471,79.982,41.522
	c5.082-0.954,10.008-2.328,14.726-4.104c2.224-0.837,4.398-1.769,6.526-2.78c-0.248-1.148-0.446-2.299-0.531-3.45
	c-1.587-0.31-3.225-1.076-4.677-2.289c-3.627-3.033-4.726-7.7-2.45-10.427c1.549-1.854,4.259-2.331,6.975-1.493
	c-1.815-2.751-2.041-5.957-0.303-8.034c2.258-2.706,6.982-2.479,10.598,0.476c-2.489-2.941-3.024-6.714-1.066-9.053
	c2.274-2.728,7.064-2.477,10.695,0.556c2.359,1.97,3.647,4.632,3.634,7.003c2.454,0.137,4.935,0.648,7.364,1.489
	c7.254-9.537,12.292-20.46,14.264-32.494c-4.256-1.705-8.37-3.441-11.988-5.627C124.692,20.935,115.756,24.921,108.763,18.705z
	 M94.392,53.788c0,0-15.7,9.032-27.899,4.495c0,0-8.672-1.4-10.461-23.73c0,0,0.933-24.876,25.472-21.538
	C81.504,13.014,107.106,18.197,94.392,53.788z"/>
</svg>
