<?xml version="1.0" encoding="utf-8"?>
<!-- Generator: Adobe Illustrator 17.0.0, SVG Export Plug-In . SVG Version: 6.00 Build 0)  -->
<!DOCTYPE svg PUBLIC "-//W3C//DTD SVG 1.1 Basic//EN" "http://www.w3.org/Graphics/SVG/1.1/DTD/svg11-basic.dtd">
<svg version="1.1" baseProfile="basic" id="Слой_1"
	 xmlns="http://www.w3.org/2000/svg" xmlns:xlink="http://www.w3.org/1999/xlink" x="0px" y="0px" width="264.719px"
	 height="279.938px" viewBox="0 0 264.719 279.938" xml:space="preserve">
<polygon fill="#A8A8A8" stroke="#272525" stroke-width="3" stroke-miterlimit="10" points="557.307,189.762 557.307,189.762 
	557.306,189.761 "/>
<path fill="#A8A8A8" stroke="#272525" stroke-width="3" stroke-miterlimit="10" d="M183,46.317
	c9.587-15.34,32.49-27.242,46.492-9.341c6.167,7.885,8.379,18.069,3.98,27.337c-6.96,14.651-21.947,14.696-36.443,15.404L183,46.317
	z"/>
<path fill="#A8A8A8" stroke="#272525" stroke-width="3" stroke-miterlimit="10" d="M120,112.846c0,0,0.933-24.876,25.472-21.538
	c0,0,25.602,5.183,12.888,40.773c0,0-15.7,9.032-27.899,4.495C130.461,136.576,121.789,135.176,120,112.846z"/>
<path fill="#A8A8A8" stroke="#272525" stroke-width="3" stroke-miterlimit="10" d="M120.867,245.043
	c5.266-11.335,1.793-24.766-2.881-35.582c-2.297-4.778-5.408-8.999-9.055-12.53c-13.911-20.74-49.699-20.449-60.43,4.5
	c-4.645,13.417-2.586,27.98,4.232,39.829c1.877,2.874,10.339,22.548,28.296,28.977c11.432,2.05,20.965,0,30.496-8.19
	C118.048,256.79,119.838,247.441,120.867,245.043z"/>
<path fill="#A8A8A8" stroke="#272525" stroke-width="3" stroke-miterlimit="10" d="M224.649,216.217
	c-0.542-24.967-30.847-44.009-53.329-28.774c-9.938,7.849-15.863,19.34-17.487,31.42c-3.954,14.697-1.578,31.313,7.778,43.537
	c8.611,8.206,17.665,11.934,29.801,10.575c21.042-1.658,32.224-29.691,34.116-41.32
	C226.168,226.388,225.819,221.159,224.649,216.217z"/>
<path fill="#A8A8A8" stroke="#272525" stroke-width="3" stroke-miterlimit="10" d="M209.615,172.89
	c-8.232,9.853-23.963,10.27-35.139,0.935c-6.161-5.147-9.65-12.183-10.163-19.112c-1.588-0.31-3.224-1.076-4.677-2.289
	c-3.627-3.033-4.726-7.7-2.45-10.427c1.549-1.853,4.259-2.331,6.975-1.493c-1.815-2.751-2.041-5.957-0.303-8.034
	c2.258-2.706,6.982-2.479,10.599,0.476c-2.489-2.941-3.024-6.714-1.066-9.053c2.274-2.728,7.064-2.477,10.694,0.556
	c2.359,1.97,3.647,4.632,3.634,7.003c5.715,0.32,11.59,2.542,16.564,6.696C215.459,147.484,217.845,163.037,209.615,172.89z"/>
<path fill="#A8A8A8" stroke="#272525" stroke-width="3" stroke-miterlimit="10" d="M74.13,56.989
	c-15.048-10.04-40.822-11.462-46.218,10.614c-2.378,9.725-0.2,19.919,7.622,26.552c12.371,10.492,26.048,4.366,39.55-0.949
	L74.13,56.989z"/>
<path fill="#A8A8A8" stroke="#272525" stroke-width="3" stroke-miterlimit="10" d="M174.112,173.662
	c-5.137-4.292-8.386-9.9-9.632-15.662c-2.128,1.011-4.302,1.943-6.526,2.78c-4.718,1.776-9.645,3.15-14.727,4.104
	c-11.977,1.891-24.786,0.858-36.691-2.887c-3.177,9.367-7.159,17.489-11.536,24.516c5.243,2.505,9.878,6.271,13.233,11.274
	c3.647,3.532,6.758,7.752,9.055,12.53c4.674,10.816,8.147,24.247,2.881,35.582c-0.892,2.08-2.361,9.383-6.99,14.716
	c8.852,3.698,18.654,5.767,28.977,5.767c6.744,0,13.267-0.88,19.448-2.52l-0.167-0.15c-9.018-11.153-11.559-26.171-8.191-39.701
	c0.642-13.656,6.756-27.033,17.899-35.835c13.855-9.389,30.677-5.757,41.678,4.254c-0.762-6.36-2.486-12.447-5.029-18.135
	C199.265,182.596,184.66,182.473,174.112,173.662z"/>
<path fill="#A8A8A8" stroke="#272525" stroke-width="3" stroke-miterlimit="10" d="M86.305,151
	c-21.117,9.564-64.881,33.654-61.072,67.696c0,0,2.878,12.47,22.134,8.269c-1.79-8.255-1.486-16.981,1.384-25.271
	c8.143-18.931,30.706-23.652,47.197-15.773c4.377-7.027,8.359-15.149,11.536-24.517C99.907,159.021,92.7,155.533,86.305,151z"/>
<path fill="#A8A8A8" stroke="#272525" stroke-width="3" stroke-miterlimit="10" d="M99.017,106.974
	c12.427-4.971,16.155-23.611,29.825-27.34c16.155-4.971,32.31,4.971,43.495,17.398c6.993,6.216,15.929,2.23,24.987-2.239
	c-2.933-1.772-5.545-3.833-7.589-6.46c-15.407-16.593-24.016-39.968-25.86-63.657c-18.266-9.1-39.426-11.757-58.439-4.514
	c-4.766,1.905-9.107,4.394-13.051,7.346c-1.472,1.103-2.87,2.289-4.232,3.516c-0.252,23.304,11.348,47.806-2.806,68.492
	c-2.304,3.456-4.731,6.79-7.347,9.972C85.391,109.73,92.489,109.348,99.017,106.974z"/>
<path fill="#A8A8A8" stroke="#272525" stroke-width="3" stroke-miterlimit="10" d="M172.763,96.705
	c-11.184-12.427-27.34-22.369-43.495-17.398c-13.67,3.728-17.398,22.369-29.825,27.34c-6.528,2.374-13.626,2.756-21.016,2.516
	c-4.211,5.123-8.916,9.845-14.427,14.01c11.571,31.422,48.631,46.471,79.982,41.522c5.082-0.954,10.008-2.328,14.727-4.104
	c2.224-0.837,4.398-1.769,6.526-2.78c-0.248-1.148-0.446-2.299-0.531-3.45c-1.588-0.31-3.225-1.076-4.677-2.289
	c-3.627-3.033-4.726-7.7-2.45-10.427c1.549-1.854,4.259-2.331,6.975-1.493c-1.815-2.751-2.041-5.957-0.303-8.034
	c2.258-2.706,6.982-2.479,10.599,0.476c-2.489-2.941-3.024-6.714-1.066-9.053c2.274-2.728,7.064-2.477,10.695,0.556
	c2.359,1.97,3.647,4.632,3.634,7.003c2.454,0.137,4.935,0.648,7.364,1.489c7.254-9.537,12.292-20.46,14.264-32.494
	c-4.256-1.705-8.37-3.441-11.988-5.627C188.693,98.935,179.756,102.921,172.763,96.705z M158.392,131.788
	c0,0-15.7,9.032-27.899,4.495c0,0-8.672-1.4-10.461-23.73c0,0,0.933-24.876,25.472-21.538
	C145.504,91.014,171.106,96.197,158.392,131.788z"/>
<path fill="#A8A8A8" stroke="#272525" stroke-width="3" stroke-miterlimit="10" d="M246.147,45.197
	c0.246-0.584,1.182-2.043,1.254-2.671c1.015-8.884,2.603-14.599-3.57-22.293c-4.904-6.107-12.911-9.679-20.426-11.174
	c-10.482-2.083-21.794-1.244-31.727,3.866c-8.351,4.298-14.132,9.454-20.609,15.157c-2.298-1.417-4.659-2.725-7.069-3.926
	c1.843,23.689,10.452,47.064,25.86,63.657c4.565,5.869,11.871,9,19.577,12.088c0.35-2.135,0.615-4.301,0.766-6.504
	c10.574,2.326,20.803-0.219,27.117-2.784c9.936-4.032,10.064-11.729,6.218-19.983c4.668-3.191,9.738-7.247,10.166-13.525
	C253.976,53.089,250.84,45.437,246.147,45.197z M233.486,63.587c-6.96,14.651-21.947,14.696-36.443,15.404l-14.029-33.399
	c9.587-15.34,32.49-27.242,46.492-9.341C235.673,44.136,237.885,54.32,233.486,63.587z"/>
<path fill="#A8A8A8" stroke="#272525" stroke-width="3" stroke-miterlimit="10" d="M85.523,99.492
	C99.677,78.805,88.077,54.303,88.329,31c-2.26,2.035-4.388,4.211-6.355,6.54c-9.801-2.932-17.933-5.891-28.672-6.444
	c-11.156-0.57-21.815,3.32-30.508,9.53c-6.234,4.451-12.062,11.001-14.02,18.587C6.314,68.766,10.111,73.318,14.695,81
	c0.32,0.542,1.776,1.488,2.239,1.921c-4.18,2.148-3.889,10.413-1.989,13.956c2.977,5.551,9.264,7.163,14.831,8.152
	c-0.107,9.103,3.175,16.062,13.888,15.651c6.765-0.259,12.084-3.579,17.363-7.376c0.617,3.56,1.537,6.95,2.723,10.17
	C72.684,116.722,79.509,108.512,85.523,99.492z M36.042,94.47c-7.823-6.633-10-16.827-7.622-26.552
	c5.395-22.076,31.169-20.654,46.217-10.614l0.955,36.216C62.09,98.836,48.412,104.962,36.042,94.47z"/>
</svg>
