<?xml version="1.0" encoding="utf-8"?>
<!-- Generator: Adobe Illustrator 17.0.0, SVG Export Plug-In . SVG Version: 6.00 Build 0)  -->
<!DOCTYPE svg PUBLIC "-//W3C//DTD SVG 1.1 Basic//EN" "http://www.w3.org/Graphics/SVG/1.1/DTD/svg11-basic.dtd">
<svg version="1.1" baseProfile="basic" id="Слой_1"
	 xmlns="http://www.w3.org/2000/svg" xmlns:xlink="http://www.w3.org/1999/xlink" x="0px" y="0px" width="119.324px"
	 height="93.551px" viewBox="0 0 119.324 93.551" xml:space="preserve">
<path fill="#7566A9" d="M21.017,90.974c12.427-4.971,16.155-23.611,29.825-27.34c16.155-4.971,32.31,4.971,43.495,17.398
	c6.993,6.216,15.929,2.23,24.987-2.239c-2.933-1.772-5.545-3.833-7.589-6.46C96.328,55.74,87.719,32.365,85.875,8.676
	c-18.267-9.1-39.426-11.757-58.439-4.514c-4.766,1.905-9.107,4.394-13.051,7.346c-1.472,1.103-2.87,2.289-4.232,3.516
	C9.901,38.328,21.501,62.83,7.347,83.516C5.043,86.972,2.616,90.306,0,93.488C7.392,93.731,14.49,93.348,21.017,90.974z"/>
</svg>
