<?xml version="1.0" encoding="utf-8"?>
<!-- Generator: Adobe Illustrator 17.0.0, SVG Export Plug-In . SVG Version: 6.00 Build 0)  -->
<!DOCTYPE svg PUBLIC "-//W3C//DTD SVG 1.1 Basic//EN" "http://www.w3.org/Graphics/SVG/1.1/DTD/svg11-basic.dtd">
<svg version="1.1" baseProfile="basic" id="Слой_1"
	 xmlns="http://www.w3.org/2000/svg" xmlns:xlink="http://www.w3.org/1999/xlink" x="0px" y="0px" width="58.511px"
	 height="58.562px" viewBox="0 0 58.511 58.562" xml:space="preserve">
<path fill="#EEBF31" d="M53.615,50.89c-8.232,9.853-23.963,10.27-35.139,0.935c-6.161-5.147-9.65-12.183-10.163-19.112
	c-1.588-0.31-3.225-1.076-4.677-2.289c-3.627-3.033-4.726-7.7-2.45-10.427c1.549-1.853,4.259-2.331,6.975-1.493
	c-1.815-2.751-2.041-5.957-0.303-8.034c2.258-2.706,6.982-2.479,10.598,0.476c-2.489-2.941-3.024-6.714-1.066-9.053
	c2.274-2.728,7.064-2.477,10.694,0.556c2.359,1.97,3.647,4.632,3.634,7.003c5.715,0.32,11.59,2.542,16.564,6.696
	C59.458,25.484,61.844,41.037,53.615,50.89z"/>
</svg>
