<?xml version="1.0" encoding="utf-8"?>
<!-- Generator: Adobe Illustrator 17.0.0, SVG Export Plug-In . SVG Version: 6.00 Build 0)  -->
<!DOCTYPE svg PUBLIC "-//W3C//DTD SVG 1.1 Basic//EN" "http://www.w3.org/Graphics/SVG/1.1/DTD/svg11-basic.dtd">
<svg version="1.1" baseProfile="basic" id="Слой_1"
	 xmlns="http://www.w3.org/2000/svg" xmlns:xlink="http://www.w3.org/1999/xlink" x="0px" y="0px" width="117.823px"
	 height="108.382px" viewBox="0 0 117.823 108.382" xml:space="preserve">
<path fill="#5F8FAF" d="M79.111,15.662C73.974,11.37,70.725,5.762,69.479,0c-2.128,1.011-4.302,1.943-6.526,2.78
	c-4.718,1.776-9.645,3.15-14.726,4.104C36.25,8.775,23.441,7.742,11.536,3.997C8.359,13.364,4.377,21.486,0,28.513
	c5.243,2.505,9.878,6.271,13.233,11.274c3.647,3.532,6.758,7.752,9.055,12.53c4.674,10.816,8.147,24.247,2.881,35.582
	c-0.892,2.08-2.361,9.383-6.99,14.716c8.852,3.698,18.654,5.767,28.977,5.767c6.744,0,13.267-0.88,19.448-2.52l-0.167-0.15
	c-9.018-11.153-11.559-26.171-8.191-39.701c0.642-13.656,6.756-27.033,17.899-35.835c13.855-9.389,30.677-5.757,41.678,4.254
	c-0.762-6.36-2.486-12.447-5.029-18.135C104.264,24.595,89.659,24.473,79.111,15.662z"/>
</svg>
