<?xml version="1.0" encoding="utf-8"?>
<!-- Generator: Adobe Illustrator 17.0.0, SVG Export Plug-In . SVG Version: 6.00 Build 0)  -->
<!DOCTYPE svg PUBLIC "-//W3C//DTD SVG 1.1 Basic//EN" "http://www.w3.org/Graphics/SVG/1.1/DTD/svg11-basic.dtd">
<svg version="1.1" baseProfile="basic" id="Слой_1"
	 xmlns="http://www.w3.org/2000/svg" xmlns:xlink="http://www.w3.org/1999/xlink" x="0px" y="0px" width="264.719px"
	 height="279.938px" viewBox="0 0 264.719 279.938" xml:space="preserve">
<polygon fill="#A8A8A8" stroke="#272525" stroke-width="3" stroke-miterlimit="10" points="557.307,189.762 557.307,189.762 
	557.306,189.761 "/>
<path fill="#A8A8A8" stroke="#272525" stroke-width="3" stroke-miterlimit="10" d="M246.198,45.197
	c0.246-0.584,1.183-2.043,1.254-2.671c1.015-8.884,2.603-14.599-3.57-22.293c-4.904-6.107-12.911-9.679-20.426-11.174
	c-10.482-2.083-21.794-1.244-31.727,3.866c-8.351,4.298-14.131,9.454-20.609,15.157c-19.713-12.158-43.987-16.639-65.508-8.44
	c-4.766,1.905-9.107,4.394-13.051,7.346c-3.914,2.932-7.434,6.323-10.587,10.056c-9.801-2.932-17.933-5.891-28.672-6.444
	c-11.156-0.57-21.815,3.32-30.508,9.53c-6.235,4.451-12.063,11.001-14.021,18.587c-2.46,9.553,1.337,14.105,5.92,21.787
	c0.32,0.542,1.776,1.488,2.239,1.921c-4.18,2.148-3.889,10.413-1.989,13.956c2.977,5.551,9.264,7.163,14.831,8.152
	c-0.107,9.103,3.175,16.062,13.888,15.651c6.765-0.259,12.084-3.579,17.363-7.376c2.873,16.579,12.285,29.505,24.834,38.401
	c-21.117,9.564-64.881,33.654-61.071,67.696c0,0,2.879,12.47,22.134,8.269c1.107,5.105,3.011,10.03,5.616,14.558
	c-0.207-0.614-0.399-1.232-0.58-1.854c4.093,14.003,14.636,26.137,28.876,30.882c11.432,1.908,20.965,0,30.496-7.622
	c1.109-0.832,2.095-1.719,2.986-2.644c8.686,3.533,18.267,5.504,28.345,5.504c6.744,0,13.267-0.88,19.448-2.52l-0.154-0.138
	c8.607,7.76,17.658,11.285,29.787,9.999c7.89-0.588,13.548-4.541,17.567-10.106c-0.069,0.096-0.13,0.2-0.2,0.295
	c10.543-6.71,14.857-19.895,16.749-31.524c0.64-5.267,0.291-10.496-0.879-15.438c-0.219-10.078-12.007-24.843-11.652-24.52
	c-0.762-6.36-2.486-12.447-5.029-18.135c-0.025,0.025,0.972-0.988,1.457-1.569c8.23-9.853,5.844-25.406-5.332-34.743
	c-2.838-2.37-5.972-4.089-9.2-5.207c8.54-11.229,14.027-24.374,15.029-38.998c10.574,2.326,20.803-0.219,27.117-2.783
	c9.936-4.033,10.064-11.729,6.218-19.983c4.668-3.191,9.738-7.246,10.165-13.525C254.027,53.089,250.891,45.437,246.198,45.197z"/>
</svg>
