<?xml version="1.0" encoding="utf-8"?>
<!-- Generator: Adobe Illustrator 17.0.0, SVG Export Plug-In . SVG Version: 6.00 Build 0)  -->
<!DOCTYPE svg PUBLIC "-//W3C//DTD SVG 1.1 Basic//EN" "http://www.w3.org/Graphics/SVG/1.1/DTD/svg11-basic.dtd">
<svg version="1.1" baseProfile="basic" id="Слой_1"
	 xmlns="http://www.w3.org/2000/svg" xmlns:xlink="http://www.w3.org/1999/xlink" x="0px" y="0px" width="89.72px" height="91.9px"
	 viewBox="0 0 89.72 91.9" xml:space="preserve">
<path fill="#6E9FC5" d="M82.147,37.197c0.246-0.584,1.182-2.043,1.254-2.671c1.015-8.884,2.603-14.599-3.57-22.293
	C74.927,6.126,66.92,2.554,59.405,1.059C48.923-1.024,37.611-0.185,27.678,4.925c-8.351,4.298-14.132,9.454-20.609,15.157
	C4.771,18.665,2.41,17.357,0,16.156C1.843,39.845,10.452,63.22,25.86,79.812c4.565,5.869,11.871,9,19.577,12.088
	c0.35-2.135,0.615-4.301,0.766-6.504c10.574,2.326,20.803-0.219,27.117-2.784c9.936-4.032,10.064-11.729,6.218-19.983
	c4.668-3.191,9.738-7.247,10.166-13.525C89.976,45.089,86.84,37.437,82.147,37.197z M69.486,55.587
	c-6.96,14.651-21.947,14.696-36.443,15.404L19.014,37.592c9.587-15.34,32.49-27.242,46.492-9.341
	C71.674,36.136,73.886,46.32,69.486,55.587z"/>
</svg>
