<?xml version="1.0" encoding="utf-8"?>
<!-- Generator: Adobe Illustrator 17.0.0, SVG Export Plug-In . SVG Version: 6.00 Build 0)  -->
<!DOCTYPE svg PUBLIC "-//W3C//DTD SVG 1.1 Basic//EN" "http://www.w3.org/Graphics/SVG/1.1/DTD/svg11-basic.dtd">
<svg version="1.1" baseProfile="basic" id="Слой_1"
	 xmlns="http://www.w3.org/2000/svg" xmlns:xlink="http://www.w3.org/1999/xlink" x="0px" y="0px" width="84.566px"
	 height="92.474px" viewBox="0 0 84.566 92.474" xml:space="preserve">
<path fill="#7AACCE" d="M77.523,68.492C91.677,47.805,80.077,23.303,80.329,0c-2.26,2.034-4.388,4.211-6.355,6.54
	c-9.801-2.932-17.933-5.891-28.672-6.444c-11.156-0.57-21.815,3.32-30.508,9.53C8.559,14.077,2.731,20.627,0.773,28.213
	C-1.687,37.766,2.11,42.318,6.694,50c0.32,0.542,1.776,1.488,2.239,1.921c-4.18,2.148-3.889,10.413-1.989,13.956
	c2.977,5.551,9.264,7.163,14.831,8.152c-0.107,9.103,3.175,16.062,13.888,15.651c6.765-0.259,12.084-3.579,17.363-7.376
	c0.617,3.56,1.537,6.95,2.723,10.17C64.684,85.723,71.509,77.513,77.523,68.492z M28.042,63.471
	c-7.823-6.633-10-16.827-7.622-26.552c5.395-22.076,31.169-20.654,46.217-10.614l0.955,36.216
	C54.09,67.837,40.412,73.963,28.042,63.471z"/>
</svg>
