<?xml version="1.0" encoding="utf-8"?>
<!-- Generator: Adobe Illustrator 17.0.0, SVG Export Plug-In . SVG Version: 6.00 Build 0)  -->
<!DOCTYPE svg PUBLIC "-//W3C//DTD SVG 1.1 Basic//EN" "http://www.w3.org/Graphics/SVG/1.1/DTD/svg11-basic.dtd">
<svg version="1.1" baseProfile="basic" id="Слой_1"
	 xmlns="http://www.w3.org/2000/svg" xmlns:xlink="http://www.w3.org/1999/xlink" x="0px" y="0px" width="264.719px"
	 height="279.938px" viewBox="0 0 264.719 279.938" xml:space="preserve">
<path fill="#E1D9CE" stroke="#FFFFFF" stroke-width="6" stroke-miterlimit="10" d="M246.198,45.197
	c0.245-0.584,1.182-2.043,1.254-2.671c1.015-8.884,2.603-14.599-3.57-22.293c-4.904-6.107-12.911-9.679-20.426-11.174
	c-10.481-2.083-21.794-1.244-31.727,3.866c-8.351,4.298-14.131,9.454-20.609,15.157c-19.713-12.159-43.987-16.639-65.506-8.44
	c-4.765,1.905-9.107,4.393-13.051,7.346c-3.914,2.932-7.434,6.323-10.587,10.056c-9.802-2.932-17.934-5.891-28.672-6.444
	c-11.156-0.57-21.815,3.321-30.508,9.53c-6.236,4.451-12.063,11.001-14.021,18.587c-2.461,9.553,1.337,14.105,5.92,21.787
	c0.32,0.542,1.775,1.488,2.239,1.921c-4.18,2.148-3.889,10.413-1.989,13.956c2.977,5.551,9.264,7.163,14.831,8.152
	c-0.108,9.103,3.175,16.062,13.888,15.651c6.765-0.259,12.085-3.579,17.363-7.376c2.873,16.579,12.286,29.505,24.834,38.401
	c-21.116,9.564-64.883,33.654-61.073,67.697c0,0,2.879,12.471,22.136,8.269c1.107,5.105,3.011,10.031,5.616,14.559
	c-0.205-0.608-0.396-1.221-0.576-1.837c4.097,13.995,14.637,26.122,28.871,30.865c11.433,1.908,20.965,0,30.496-7.622
	c1.109-0.832,2.095-1.718,2.985-2.644c8.686,3.533,18.267,5.504,28.345,5.504c6.744,0,13.267-0.881,19.448-2.52l-0.136-0.122
	c8.602,7.748,17.648,11.268,29.769,9.983c7.882-0.588,13.537-4.533,17.554-10.089c-0.065,0.09-0.122,0.188-0.188,0.278
	c10.543-6.71,14.857-19.895,16.749-31.524c0.641-5.267,0.292-10.496-0.879-15.436c-0.219-10.1-5.311-19.228-12.784-25.511
	c0.384,0.323,0.763,0.652,1.134,0.989c-0.762-6.36-2.486-12.446-5.029-18.134c-0.016,0.016-0.035,0.029-0.051,0.045
	c0.525-0.508,1.03-1.044,1.507-1.615c8.23-9.853,5.844-25.406-5.332-34.742c-2.838-2.37-5.972-4.089-9.2-5.207
	c8.541-11.23,14.029-24.375,15.031-39c10.574,2.326,20.802-0.219,27.117-2.783c9.936-4.032,10.063-11.728,6.218-19.983
	c4.667-3.191,9.737-7.247,10.165-13.525C254.027,53.089,250.891,45.437,246.198,45.197z M152.52,239.509
	c0.001,0.015,0.003,0.029,0.004,0.044c-0.001-0.01-0.003-0.021-0.003-0.031C152.521,239.517,152.521,239.513,152.52,239.509z
	 M152.343,236.312c0-0.014,0-0.027,0-0.041c0,0.018,0,0.036,0,0.054C152.343,236.32,152.343,236.316,152.343,236.312z
	 M174.967,185.829c0.279-0.145,0.559-0.289,0.84-0.424c0.015-0.007,0.03-0.014,0.046-0.021c-0.622,0.298-1.239,0.623-1.852,0.968
	c0.134-0.076,0.268-0.157,0.403-0.23C174.591,186.02,174.779,185.926,174.967,185.829z M177.228,184.766
	c0.201-0.085,0.403-0.164,0.605-0.244c0.034-0.013,0.068-0.026,0.102-0.039c-0.602,0.236-1.202,0.492-1.798,0.77
	c0.089-0.041,0.177-0.082,0.266-0.122C176.676,185.006,176.951,184.882,177.228,184.766z M179.266,183.994
	c0.284-0.096,0.568-0.189,0.852-0.276c0.026-0.008,0.052-0.015,0.077-0.023c-0.605,0.184-1.208,0.391-1.808,0.615
	c0.093-0.035,0.185-0.072,0.277-0.106C178.865,184.132,179.065,184.062,179.266,183.994z M181.592,183.305
	c0.185-0.047,0.37-0.094,0.555-0.137c0.079-0.018,0.158-0.033,0.237-0.051c-0.609,0.137-1.217,0.292-1.822,0.469
	c0.047-0.014,0.095-0.029,0.142-0.042C181,183.459,181.296,183.38,181.592,183.305z M183.595,182.865
	c0.345-0.063,0.691-0.117,1.036-0.169c0.015-0.002,0.031-0.005,0.046-0.007c-0.596,0.088-1.192,0.195-1.787,0.319
	c0.067-0.014,0.134-0.03,0.201-0.043C183.259,182.932,183.427,182.896,183.595,182.865z M186.264,182.497
	c0.079-0.008,0.159-0.018,0.239-0.025c0.125-0.011,0.25-0.014,0.374-0.024c-0.631,0.047-1.263,0.109-1.894,0.195
	c0.021-0.003,0.043-0.007,0.064-0.01C185.453,182.579,185.858,182.535,186.264,182.497z M191.157,182.417
	c0.07,0.004,0.14,0.012,0.21,0.017c-0.633-0.042-1.268-0.072-1.904-0.077c0.504,0.004,1.007,0.02,1.509,0.047
	C191.033,182.408,191.095,182.413,191.157,182.417z M192.739,182.553c0.272,0.03,0.543,0.065,0.814,0.102
	c-0.522-0.07-1.046-0.127-1.571-0.173c0.149,0.013,0.298,0.021,0.446,0.035C192.531,182.528,192.635,182.542,192.739,182.553z
	 M187.444,182.413c0.563-0.031,1.125-0.05,1.687-0.051C188.569,182.363,188.007,182.381,187.444,182.413z M162.69,197.256
	c0,0,0-0.001,0.001-0.001c0.995-1.405,2.07-2.76,3.225-4.056c1.733-1.944,3.645-3.755,5.735-5.405
	c0.453-0.307,0.909-0.598,1.367-0.877c0.157-0.096,0.316-0.182,0.474-0.275c0.026-0.016,0.053-0.03,0.08-0.046
	c-0.646,0.376-1.288,0.77-1.922,1.199C168.167,190.546,165.176,193.743,162.69,197.256z M161.26,199.4
	c0.16-0.254,0.336-0.499,0.501-0.751C161.596,198.901,161.419,199.146,161.26,199.4C161.259,199.4,161.26,199.4,161.26,199.4z
	 M50.101,226.356c0,0.001,0,0.002,0,0.003C50.101,226.358,50.101,226.357,50.101,226.356
	C50.101,226.356,50.101,226.356,50.101,226.356z M152.345,233.922c0.004-0.152,0.019-0.304,0.025-0.457
	c-0.009,0.242-0.022,0.485-0.027,0.727C152.345,234.102,152.343,234.012,152.345,233.922z M152.475,231.53
	c0.014-0.179,0.035-0.358,0.051-0.537c-0.022,0.25-0.044,0.501-0.062,0.751C152.468,231.673,152.469,231.601,152.475,231.53z
	 M152.726,229.139c0.011-0.086,0.024-0.172,0.035-0.258c-0.016,0.123-0.032,0.246-0.048,0.37
	C152.718,229.213,152.721,229.176,152.726,229.139z M153.752,223.629c0-0.001,0-0.002,0-0.003c0.156-0.625,0.326-1.245,0.507-1.863
	c-0.181,0.62-0.352,1.244-0.508,1.871C153.751,223.632,153.751,223.631,153.752,223.629z M154.868,219.844
	c-0.137,0.405-0.267,0.812-0.393,1.22C154.601,220.656,154.73,220.249,154.868,219.844z M155.569,217.924
	c-0.147,0.377-0.289,0.756-0.426,1.138C155.28,218.68,155.422,218.301,155.569,217.924z M156.401,215.923
	c-0.182,0.411-0.361,0.822-0.531,1.238C156.04,216.745,156.219,216.333,156.401,215.923z M157.519,213.569
	c-0.296,0.576-0.579,1.158-0.85,1.745C156.94,214.726,157.223,214.144,157.519,213.569z M158.483,211.798
	c-0.221,0.386-0.432,0.776-0.641,1.168C158.051,212.575,158.262,212.184,158.483,211.798z M159.54,210.048
	c-0.219,0.346-0.434,0.695-0.643,1.046C159.107,210.743,159.321,210.394,159.54,210.048z M160.729,208.273
	c-0.253,0.359-0.503,0.72-0.745,1.086C160.226,208.993,160.476,208.632,160.729,208.273z M162.332,206.128
	c-0.412,0.514-0.81,1.037-1.197,1.568C161.522,207.165,161.92,206.642,162.332,206.128z M163.642,204.578
	c-0.337,0.381-0.664,0.769-0.986,1.161C162.979,205.347,163.306,204.959,163.642,204.578z M165.047,203.069
	c-0.301,0.309-0.595,0.622-0.886,0.939C164.452,203.691,164.747,203.377,165.047,203.069z M166.581,201.576
	c-0.328,0.303-0.651,0.61-0.968,0.922C165.929,202.186,166.253,201.879,166.581,201.576z M168.559,199.848
	c-0.493,0.401-0.974,0.814-1.445,1.235C167.585,200.662,168.066,200.25,168.559,199.848z M198.479,183.692
	c0.627,0.181,1.25,0.374,1.867,0.589C199.73,184.066,199.106,183.872,198.479,183.692z M200.57,184.363
	c0.566,0.202,1.127,0.419,1.682,0.649C201.697,184.783,201.136,184.565,200.57,184.363z M202.644,185.173
	c0.585,0.25,1.164,0.515,1.736,0.795C203.808,185.689,203.229,185.423,202.644,185.173z M204.799,186.179
	c0.54,0.272,1.075,0.555,1.601,0.853C205.874,186.734,205.339,186.451,204.799,186.179z M206.579,187.13
	c0.558,0.32,1.106,0.66,1.647,1.008C207.685,187.79,207.137,187.45,206.579,187.13z M196.155,183.103
	c0.638,0.137,1.271,0.296,1.901,0.469C197.426,183.399,196.793,183.24,196.155,183.103z M194.086,182.728
	c0.056,0.008,0.112,0.018,0.168,0.026c0.352,0.055,0.704,0.114,1.054,0.18c0.196,0.037,0.392,0.076,0.587,0.116
	C195.295,182.927,194.692,182.82,194.086,182.728z M192.3,180.01c-0.004,0-0.007,0-0.011,0c0.009,0,0.017,0,0.026,0
	C192.31,180.01,192.305,180.01,192.3,180.01z M190.072,179.885c-0.059-0.006-0.117-0.008-0.176-0.015
	c-0.012-0.001-0.024-0.004-0.036-0.005c0.079,0.008,0.157,0.014,0.236,0.021C190.089,179.885,190.08,179.886,190.072,179.885z
	 M185.54,179.039c-0.018-0.005-0.036-0.011-0.054-0.016c0.022,0.006,0.045,0.013,0.067,0.019
	C185.549,179.041,185.545,179.04,185.54,179.039z M183.173,178.276c-0.052-0.019-0.104-0.042-0.156-0.062
	c-0.015-0.006-0.029-0.013-0.043-0.018c0.101,0.039,0.202,0.077,0.304,0.115C183.243,178.298,183.207,178.289,183.173,178.276z
	 M180.833,177.279c-0.026-0.013-0.052-0.028-0.078-0.041c0.067,0.032,0.134,0.065,0.201,0.097
	C180.916,177.316,180.874,177.299,180.833,177.279z M50.099,227.166c0.001,0.415,0.009,0.829,0.022,1.243
	C50.108,227.995,50.1,227.581,50.099,227.166z M51.442,237.947c0.101,0.408,0.209,0.813,0.321,1.218
	C51.651,238.76,51.543,238.354,51.442,237.947z M50.151,229.212c0.023,0.453,0.055,0.904,0.091,1.356
	C50.206,230.116,50.173,229.665,50.151,229.212z M50.292,231.223c0.061,0.647,0.136,1.293,0.225,1.937
	C50.428,232.516,50.354,231.87,50.292,231.223z M50.617,233.8c0.069,0.449,0.14,0.898,0.222,1.346
	C50.758,234.699,50.686,234.25,50.617,233.8z M50.996,235.946c0.08,0.397,0.164,0.792,0.254,1.187
	C51.16,236.739,51.076,236.343,50.996,235.946z M152.744,241.546c0.034,0.252,0.074,0.503,0.112,0.754
	C152.819,242.048,152.778,241.798,152.744,241.546z M153.135,243.97c0.051,0.273,0.105,0.546,0.161,0.818
	C153.241,244.516,153.187,244.243,153.135,243.97z M153.664,246.417c0.063,0.259,0.124,0.518,0.192,0.776
	C153.789,246.935,153.728,246.675,153.664,246.417z M154.372,248.989c0.056,0.183,0.106,0.368,0.165,0.55
	C154.478,249.357,154.428,249.172,154.372,248.989z M155.358,251.876c0.029,0.076,0.064,0.151,0.093,0.227
	C155.422,252.027,155.388,251.952,155.358,251.876z M156.302,254.127c0.103,0.228,0.214,0.452,0.321,0.679
	C156.516,254.579,156.405,254.355,156.302,254.127z M157.38,256.341c0.132,0.254,0.269,0.506,0.407,0.757
	C157.649,256.847,157.513,256.595,157.38,256.341z M158.607,258.529c0.146,0.244,0.292,0.489,0.443,0.731
	C158.899,259.018,158.753,258.773,158.607,258.529z M160.027,260.74c0.135,0.196,0.264,0.396,0.403,0.59
	C160.291,261.136,160.162,260.936,160.027,260.74z M210.645,261.245c-0.077,0.125-0.159,0.245-0.238,0.369
	C210.485,261.49,210.568,261.37,210.645,261.245z M218.198,232.764c-0.01,0.193-0.021,0.388-0.032,0.583
	C218.177,233.152,218.188,232.957,218.198,232.764z M218.042,235.184c-0.013,0.173-0.025,0.344-0.04,0.518
	C218.017,235.528,218.029,235.357,218.042,235.184z M217.768,238.106c-0.006,0.056-0.014,0.112-0.021,0.168
	C217.754,238.218,217.762,238.161,217.768,238.106z M217.457,240.514c-0.029,0.2-0.059,0.399-0.089,0.599
	C217.399,240.913,217.429,240.713,217.457,240.514z M217.035,243.146c-0.027,0.153-0.052,0.305-0.08,0.458
	C216.983,243.451,217.007,243.298,217.035,243.146z M216.448,246.107c-0.02,0.088-0.042,0.175-0.062,0.263
	C216.406,246.283,216.428,246.195,216.448,246.107z M215.85,248.558c-0.052,0.198-0.105,0.394-0.159,0.591
	C215.745,248.952,215.798,248.755,215.85,248.558z M215.086,251.22c-0.039,0.125-0.075,0.251-0.115,0.376
	C215.011,251.471,215.047,251.345,215.086,251.22z M214.134,254.009c-0.042,0.113-0.088,0.223-0.131,0.335
	C214.045,254.232,214.092,254.122,214.134,254.009z M213.191,256.326c-0.081,0.185-0.162,0.37-0.245,0.553
	C213.029,256.696,213.11,256.512,213.191,256.326z M212.002,258.833c-0.047,0.091-0.09,0.184-0.137,0.274
	C211.912,259.017,211.955,258.924,212.002,258.833z M218.278,230.659c0.001-0.031,0.002-0.063,0.003-0.094
	C218.281,230.596,218.279,230.628,218.278,230.659z M218.303,228.45c0-0.177-0.003-0.349-0.004-0.524
	C218.3,228.101,218.303,228.272,218.303,228.45z M218.256,225.882c0.006,0.174,0.01,0.352,0.015,0.529
	C218.267,226.235,218.263,226.056,218.256,225.882z M210.564,189.766c0.442,0.333,0.877,0.675,1.305,1.027
	C211.441,190.441,211.006,190.099,210.564,189.766z M208.658,188.418c0.524,0.347,1.042,0.705,1.549,1.077
	C209.7,189.123,209.182,188.765,208.658,188.418z M206.547,175.431c0.067-0.052,0.132-0.106,0.198-0.159
	C206.679,175.325,206.614,175.379,206.547,175.431z M196.568,179.696c0.051-0.008,0.102-0.014,0.153-0.023
	C196.67,179.682,196.618,179.688,196.568,179.696z M198.687,179.25c0.075-0.019,0.15-0.036,0.224-0.056
	C198.837,179.214,198.762,179.231,198.687,179.25z M200.77,178.603c0.085-0.031,0.171-0.061,0.256-0.093
	C200.941,178.542,200.855,178.572,200.77,178.603z M202.788,177.752c0.087-0.042,0.173-0.084,0.259-0.127
	C202.962,177.669,202.875,177.71,202.788,177.752z M204.72,176.695c0.08-0.05,0.16-0.101,0.24-0.151
	C204.88,176.595,204.801,176.646,204.72,176.695z"/>
<polygon fill="#A8A8A8" stroke="#272525" stroke-width="3" stroke-miterlimit="10" points="557.307,189.762 557.307,189.762 
	557.306,189.761 "/>
<g id="__x0023_Layer_x0020_2">
	<path fill="#D5C5A2" d="M96.883,146.636c0,0-77.099,27.552-72.095,72.27c0,0,3.153,13.737,25.071,7.542
		c0,0,41.932-15.247,58.262-68.139L96.883,146.636z"/>
	<path fill="#C2B4A6" d="M212.775,210.683L212.775,210.683l-0.005-0.007L212.775,210.683z M162.109,263.48
		c-6.181,1.639-12.704,2.52-19.448,2.52c-34.629,0-63.473-23.135-69.817-53.767c12.529-10.422,27.108-27.461,35.278-53.924
		L98,147.795c12.209-9.219,27.743-14.744,44.661-14.744c7.004,0,13.769,0.949,20.161,2.713c0.081,1.383,0.589,2.843,1.48,4.194
		c-2.717-0.837-5.426-0.36-6.975,1.493c-2.276,2.727-1.177,7.394,2.45,10.427c1.452,1.213,3.089,1.979,4.677,2.289
		c0.514,6.929,4.003,13.965,10.163,19.112c10.548,8.811,25.153,8.934,33.682,0.635c2.543,5.688,4.267,11.774,5.029,18.134
		c-11-10.011-27.823-13.642-41.678-4.254c-11.143,8.802-17.257,22.179-17.899,35.835c-3.368,13.529-0.827,28.547,8.191,39.701
		L162.109,263.48z M153.753,223.62c0.074-0.296,0.15-0.591,0.23-0.886C153.903,223.028,153.827,223.324,153.753,223.62z
		 M154.044,222.512c0.071-0.26,0.145-0.518,0.221-0.776C154.189,221.993,154.115,222.252,154.044,222.512z M154.334,221.496
		c0.088-0.294,0.179-0.587,0.272-0.88C154.513,220.908,154.422,221.202,154.334,221.496z M154.676,220.404
		c0.084-0.259,0.171-0.518,0.26-0.777C154.847,219.886,154.76,220.145,154.676,220.404z M155.013,219.404
		c0.096-0.275,0.195-0.549,0.297-0.822C155.209,218.854,155.109,219.129,155.013,219.404z M155.406,218.326
		c0.095-0.252,0.193-0.505,0.293-0.756C155.599,217.822,155.501,218.073,155.406,218.326z M155.791,217.339
		c0.11-0.271,0.222-0.541,0.337-0.81C156.013,216.798,155.901,217.068,155.791,217.339z M156.229,216.296
		c0.108-0.249,0.218-0.498,0.33-0.746C156.447,215.797,156.337,216.046,156.229,216.296z M156.669,215.31
		c0.121-0.262,0.244-0.523,0.37-0.783C156.913,214.787,156.79,215.048,156.669,215.31z M157.137,214.325
		c0.129-0.263,0.26-0.525,0.395-0.786C157.398,213.8,157.266,214.062,157.137,214.325z M157.628,213.352
		c0.138-0.266,0.279-0.53,0.422-0.792C157.907,212.823,157.766,213.086,157.628,213.352z M158.134,212.408
		c0.151-0.274,0.305-0.547,0.462-0.818C158.439,211.861,158.285,212.134,158.134,212.408z M158.682,211.442
		c0.153-0.262,0.31-0.523,0.468-0.783C158.991,210.918,158.835,211.18,158.682,211.442z M159.239,210.513
		c0.166-0.27,0.336-0.537,0.508-0.803C159.575,209.976,159.406,210.243,159.239,210.513z M159.838,209.569
		c0.166-0.254,0.333-0.505,0.504-0.755C160.172,209.064,160.004,209.316,159.838,209.569z M160.433,208.682
		c0.186-0.271,0.375-0.54,0.568-0.807C160.808,208.142,160.619,208.411,160.433,208.682z M161.083,207.762
		c0.19-0.262,0.385-0.523,0.581-0.782C161.468,207.239,161.273,207.5,161.083,207.762z M161.715,206.914
		c0.209-0.274,0.422-0.545,0.638-0.814C162.136,206.369,161.924,206.64,161.715,206.914z M162.414,206.025
		c0.212-0.263,0.427-0.522,0.645-0.78C162.84,205.503,162.625,205.763,162.414,206.025z M163.099,205.197
		c0.23-0.271,0.464-0.539,0.701-0.804C163.562,204.657,163.329,204.926,163.099,205.197z M163.833,204.356
		c0.229-0.256,0.462-0.509,0.698-0.76C164.295,203.846,164.062,204.1,163.833,204.356z M164.589,203.533
		c0.245-0.259,0.494-0.516,0.746-0.77C165.083,203.017,164.834,203.274,164.589,203.533z M165.346,202.752
		c0.246-0.247,0.496-0.492,0.749-0.733C165.843,202.261,165.593,202.505,165.346,202.752z M166.174,201.943
		c0.251-0.238,0.505-0.475,0.763-0.708C166.68,201.468,166.426,201.705,166.174,201.943z M166.986,201.191
		c0.257-0.231,0.517-0.46,0.781-0.686C167.504,200.731,167.243,200.96,166.986,201.191z M167.837,200.446
		c0.274-0.234,0.552-0.465,0.833-0.693c0.289-0.201,0.58-0.392,0.872-0.579c-0.292,0.187-0.583,0.379-0.872,0.579
		C168.389,199.981,168.111,200.212,167.837,200.446z M169.786,199.02c0.215-0.134,0.43-0.265,0.646-0.392
		C170.216,198.755,170,198.886,169.786,199.02z M170.71,198.465c0.271-0.156,0.543-0.307,0.816-0.451
		C171.253,198.158,170.981,198.309,170.71,198.465z M171.584,197.982c0.295-0.155,0.592-0.302,0.89-0.445
		C172.176,197.68,171.879,197.827,171.584,197.982z M172.731,197.416c0.222-0.103,0.444-0.203,0.667-0.3
		C173.175,197.213,172.953,197.313,172.731,197.416z M173.666,197.002c0.26-0.109,0.521-0.214,0.783-0.314
		C174.187,196.787,173.926,196.892,173.666,197.002z M174.577,196.637c0.301-0.113,0.602-0.219,0.904-0.319
		C175.179,196.418,174.878,196.524,174.577,196.637z M175.731,196.237c0.226-0.073,0.451-0.143,0.678-0.209
		C176.182,196.093,175.957,196.164,175.731,196.237z M176.696,195.944c0.254-0.072,0.509-0.139,0.765-0.202
		C177.205,195.805,176.95,195.872,176.696,195.944z M177.617,195.702c0.302-0.073,0.603-0.139,0.906-0.201
		C178.221,195.563,177.919,195.629,177.617,195.702z M178.793,195.449c0.225-0.044,0.45-0.084,0.675-0.122
		C179.242,195.365,179.018,195.405,178.793,195.449z M179.766,195.279c0.245-0.038,0.49-0.072,0.736-0.104
		C180.256,195.206,180.01,195.241,179.766,195.279z M180.69,195.15c0.306-0.036,0.611-0.066,0.917-0.092
		C181.301,195.083,180.996,195.114,180.69,195.15z M181.861,195.039c0.227-0.017,0.454-0.031,0.681-0.043
		C182.315,195.008,182.088,195.022,181.861,195.039z M182.847,194.983c0.24-0.009,0.48-0.015,0.72-0.018
		C183.327,194.968,183.087,194.974,182.847,194.983z M183.778,194.962c0.303-0.001,0.605,0.002,0.907,0.011
		C184.383,194.964,184.081,194.96,183.778,194.962z M184.952,194.982c0.223,0.008,0.445,0.018,0.667,0.032
		C185.396,195.001,185.174,194.99,184.952,194.982z M185.929,195.034c0.229,0.016,0.457,0.036,0.685,0.057
		C186.385,195.07,186.157,195.05,185.929,195.034z M186.864,195.114c0.297,0.031,0.593,0.066,0.889,0.105
		C187.457,195.18,187.161,195.145,186.864,195.114z M188.032,195.259c0.209,0.029,0.417,0.062,0.625,0.096
		C188.449,195.321,188.241,195.289,188.032,195.259z M189.016,195.416c0.194,0.034,0.387,0.07,0.581,0.108
		C189.403,195.486,189.21,195.45,189.016,195.416z M189.931,195.589c0.282,0.058,0.563,0.12,0.844,0.186
		C190.494,195.709,190.213,195.647,189.931,195.589z M191.087,195.852c0.195,0.048,0.39,0.097,0.583,0.148
		C191.476,195.948,191.282,195.899,191.087,195.852z M192.051,196.103c0.168,0.046,0.335,0.095,0.502,0.144
		C192.386,196.198,192.219,196.15,192.051,196.103z M192.948,196.364c0.265,0.081,0.529,0.166,0.792,0.254
		C193.477,196.53,193.213,196.446,192.948,196.364z M194.117,196.749c0.163,0.057,0.326,0.114,0.489,0.173
		C194.443,196.862,194.28,196.805,194.117,196.749z M195.017,197.074c0.155,0.059,0.309,0.118,0.463,0.179
		C195.326,197.192,195.171,197.132,195.017,197.074z M195.886,197.414c0.191,0.078,0.38,0.159,0.57,0.24
		C196.266,197.572,196.077,197.492,195.886,197.414z M197.909,198.311c0.133,0.064,0.266,0.129,0.398,0.194
		C198.174,198.44,198.042,198.375,197.909,198.311z M198.732,198.717c0.136,0.069,0.271,0.141,0.406,0.212
		C199.003,198.858,198.868,198.786,198.732,198.717z"/>
	<path fill="#E1D9CE" d="M152.56,240.022c-3.767,0.783-7.676,1.198-11.687,1.198c-30.33,0-54.917-23.575-54.917-52.655
		c0-29.081,24.588-52.656,54.917-52.656c7.137,0,13.955,1.306,20.21,3.682c-1.501,0.141-2.834,0.757-3.756,1.86
		c-2.276,2.727-1.177,7.394,2.45,10.427c1.452,1.213,3.089,1.979,4.677,2.289c0.514,6.929,4.003,13.965,10.163,19.112
		c6.105,5.1,13.57,7.289,20.429,6.619c0.175,1.013,0.324,2.035,0.437,3.067c-7.88-1.529-16.296-0.279-23.833,4.829
		c-11.143,8.802-17.257,22.179-17.899,35.835C152.421,228.971,152.012,234.545,152.56,240.022z M153.753,223.62
		c0.074-0.296,0.15-0.591,0.23-0.886C153.903,223.028,153.827,223.324,153.753,223.62z M154.044,222.512
		c0.071-0.26,0.145-0.518,0.221-0.776C154.189,221.993,154.115,222.252,154.044,222.512z M154.334,221.496
		c0.088-0.294,0.179-0.587,0.272-0.88C154.513,220.908,154.422,221.202,154.334,221.496z M154.676,220.404
		c0.084-0.259,0.171-0.518,0.26-0.777C154.847,219.886,154.76,220.145,154.676,220.404z M155.013,219.404
		c0.096-0.275,0.195-0.549,0.297-0.822C155.209,218.854,155.109,219.129,155.013,219.404z M155.406,218.326
		c0.095-0.252,0.193-0.505,0.293-0.756C155.599,217.822,155.501,218.073,155.406,218.326z M155.791,217.339
		c0.11-0.271,0.222-0.541,0.337-0.81C156.013,216.798,155.901,217.068,155.791,217.339z M156.229,216.296
		c0.108-0.249,0.218-0.498,0.33-0.746C156.447,215.797,156.337,216.046,156.229,216.296z M156.669,215.31
		c0.121-0.262,0.244-0.523,0.37-0.783C156.913,214.787,156.79,215.048,156.669,215.31z M157.137,214.325
		c0.129-0.263,0.26-0.525,0.395-0.786C157.398,213.8,157.266,214.062,157.137,214.325z M157.628,213.352
		c0.138-0.266,0.279-0.53,0.422-0.792C157.907,212.823,157.766,213.086,157.628,213.352z M158.134,212.408
		c0.151-0.274,0.305-0.547,0.462-0.818C158.439,211.861,158.285,212.134,158.134,212.408z M158.682,211.442
		c0.153-0.262,0.31-0.523,0.468-0.783C158.991,210.918,158.835,211.18,158.682,211.442z M159.239,210.513
		c0.166-0.27,0.336-0.537,0.508-0.803C159.575,209.976,159.406,210.243,159.239,210.513z M159.838,209.569
		c0.166-0.254,0.333-0.505,0.504-0.755C160.172,209.064,160.004,209.316,159.838,209.569z M160.433,208.682
		c0.186-0.271,0.375-0.54,0.568-0.807C160.808,208.142,160.619,208.411,160.433,208.682z M161.083,207.762
		c0.19-0.262,0.385-0.523,0.581-0.782C161.468,207.239,161.273,207.5,161.083,207.762z M161.715,206.914
		c0.209-0.274,0.422-0.545,0.638-0.814C162.136,206.369,161.924,206.64,161.715,206.914z M162.414,206.025
		c0.212-0.263,0.427-0.522,0.645-0.78C162.84,205.503,162.625,205.762,162.414,206.025z M163.099,205.197
		c0.23-0.271,0.464-0.539,0.701-0.804C163.562,204.657,163.329,204.926,163.099,205.197z M163.833,204.356
		c0.229-0.256,0.462-0.509,0.698-0.76C164.295,203.846,164.062,204.099,163.833,204.356z M164.589,203.533
		c0.245-0.259,0.494-0.516,0.746-0.77C165.083,203.017,164.834,203.274,164.589,203.533z M165.346,202.752
		c0.246-0.247,0.496-0.492,0.749-0.733C165.843,202.261,165.593,202.505,165.346,202.752z M166.174,201.943
		c0.251-0.238,0.505-0.475,0.763-0.708C166.68,201.468,166.426,201.705,166.174,201.943z M166.986,201.191
		c0.257-0.231,0.517-0.46,0.781-0.686C167.504,200.731,167.243,200.96,166.986,201.191z M167.837,200.446
		c0.274-0.234,0.552-0.465,0.833-0.693c0.306-0.212,0.614-0.416,0.923-0.614c-0.31,0.197-0.617,0.401-0.923,0.614
		C168.389,199.981,168.111,200.212,167.837,200.446z M169.668,199.092c0.297-0.188,0.595-0.37,0.895-0.544
		C170.263,198.722,169.965,198.904,169.668,199.092z M170.618,198.515c0.306-0.177,0.613-0.347,0.921-0.509
		C171.231,198.169,170.924,198.339,170.618,198.515z M171.628,197.96c0.295-0.154,0.591-0.302,0.888-0.443
		C172.218,197.658,171.923,197.806,171.628,197.96z M172.592,197.479c0.312-0.148,0.626-0.288,0.94-0.423
		C173.218,197.191,172.904,197.331,172.592,197.479z M173.598,197.029c0.294-0.125,0.589-0.243,0.885-0.355
		C174.187,196.786,173.892,196.904,173.598,197.029z M174.619,196.622c0.307-0.115,0.616-0.225,0.925-0.327
		C175.234,196.398,174.926,196.507,174.619,196.622z M175.599,196.277c0.301-0.099,0.602-0.192,0.905-0.279
		C176.201,196.085,175.9,196.178,175.599,196.277z M176.645,195.958c0.285-0.081,0.57-0.156,0.856-0.227
		C177.216,195.801,176.93,195.877,176.645,195.958z M177.651,195.694c0.294-0.071,0.589-0.136,0.884-0.197
		C178.239,195.558,177.944,195.624,177.651,195.694z M178.702,195.465c0.275-0.054,0.551-0.104,0.826-0.149
		C179.253,195.361,178.977,195.41,178.702,195.465z M179.696,195.288c0.291-0.046,0.583-0.086,0.874-0.123
		C180.279,195.202,179.987,195.242,179.696,195.288z M180.78,195.141c0.26-0.03,0.521-0.056,0.781-0.078
		C181.3,195.085,181.04,195.111,180.78,195.141z M181.774,195.045c0.268-0.021,0.537-0.037,0.806-0.05
		C182.311,195.008,182.042,195.024,181.774,195.045z M182.846,194.983c0.251-0.009,0.503-0.016,0.754-0.019
		C183.349,194.967,183.098,194.974,182.846,194.983z M183.862,194.962c0.24,0,0.48,0.003,0.72,0.008
		C184.342,194.965,184.102,194.962,183.862,194.962z M184.933,194.981c0.237,0.008,0.475,0.02,0.712,0.034
		C185.407,195.001,185.17,194.99,184.933,194.981z M185.943,195.035c0.219,0.016,0.437,0.034,0.655,0.055
		C186.38,195.069,186.161,195.051,185.943,195.035z M187.001,195.13c0.207,0.022,0.413,0.047,0.62,0.073
		C187.415,195.177,187.208,195.152,187.001,195.13z M188.04,195.261c0.189,0.027,0.376,0.056,0.564,0.086
		C188.416,195.316,188.228,195.288,188.04,195.261z M190.132,195.633c0.158,0.034,0.316,0.068,0.474,0.104
		C190.448,195.702,190.29,195.667,190.132,195.633z"/>
	<path fill="#C2B59B" d="M171.12,28.082c6.478-5.703,12.258-10.859,20.609-15.157c9.933-5.11,21.246-5.949,31.727-3.866
		c7.515,1.495,15.522,5.067,20.426,11.174c6.173,7.694,4.585,13.409,3.57,22.293c-0.072,0.628-1.009,2.087-1.254,2.671
		c4.693,0.24,7.829,7.892,7.556,11.907c-0.428,6.278-5.498,10.334-10.165,13.525c3.845,8.255,3.718,15.951-6.218,19.983
		c-6.315,2.564-16.543,5.109-27.117,2.783c-1.74,25.393-16.981,46.337-38.3,60.508c-4.265,2.546-8.776,4.718-13.495,6.493
		c-4.718,1.776-9.645,3.15-14.727,4.104c-34.564,5.456-76.068-13.392-82.705-51.692c-5.278,3.797-10.598,7.117-17.363,7.376
		c-10.713,0.411-13.996-6.548-13.888-15.651c-5.567-0.989-11.854-2.601-14.831-8.152c-1.9-3.543-2.191-11.808,1.989-13.956
		c-0.464-0.433-1.919-1.379-2.239-1.921c-4.583-7.682-8.381-12.234-5.92-21.787c1.958-7.586,7.785-14.136,14.021-18.587
		c8.693-6.209,19.352-10.1,30.508-9.53c10.738,0.553,18.87,3.512,28.672,6.444c3.153-3.733,6.673-7.124,10.587-10.056
		c3.944-2.953,8.286-5.441,13.051-7.346C127.133,11.443,151.407,15.923,171.12,28.082z"/>
	<path fill="#E1D9CE" d="M183.065,45.591c9.587-15.34,32.49-27.242,46.492-9.341c6.167,7.885,8.379,18.069,3.98,27.337
		c-6.96,14.651-21.947,14.696-36.443,15.404L183.065,45.591z"/>
	<path fill="#3C2116" d="M107.04,108.273c0,3.421-2.773,6.194-6.194,6.194c-3.424,0-6.195-2.772-6.195-6.194
		c0-3.421,2.771-6.194,6.195-6.194C104.268,102.079,107.04,104.852,107.04,108.273z"/>
	<path fill="#FFFFFF" d="M104.657,106.844c0,1.315-1.065,2.383-2.382,2.383c-1.315,0-2.383-1.068-2.383-2.383
		c0-1.317,1.069-2.382,2.383-2.382C103.592,104.462,104.657,105.528,104.657,106.844z"/>
	<path fill="#3C2116" d="M183.758,97.79c0,3.421-2.773,6.194-6.194,6.194c-3.419,0-6.193-2.773-6.193-6.194
		c0-3.423,2.774-6.196,6.193-6.196C180.985,91.594,183.758,94.367,183.758,97.79z"/>
	<path fill="#6D1B1D" d="M119.43,141.629c0.025-0.029,0.226,0.49,0.821,1.105c0.258,0.319,0.684,0.632,1.166,0.956
		c0.505,0.305,1.101,0.582,1.771,0.847c1.356,0.499,3.025,0.847,4.838,1.036c1.807,0.181,3.775,0.23,5.665,0.005l0.692-0.096
		c0.06,0.011,0.434-0.108,0.637-0.156l1.445-0.385c0.498-0.118,0.773-0.376,1.178-0.529c0.385-0.162,0.759-0.344,1.058-0.647
		c0.306-0.281,0.679-0.488,0.931-0.811c0.262-0.322,0.517-0.635,0.764-0.943c0.397-0.705,0.835-1.348,1.125-2.04
		c0.634-1.336,1.149-2.515,1.552-3.304c0.403-0.795,0.657-1.233,0.657-1.233s-0.097,0.504-0.31,1.36
		c-0.25,0.846-0.417,2.094-0.878,3.573c-0.18,0.745-0.544,1.542-0.922,2.374c-0.254,0.397-0.517,0.805-0.784,1.221
		c-0.26,0.428-0.707,0.725-1.071,1.102c-0.357,0.392-0.821,0.674-1.319,0.929c-0.476,0.244-1.005,0.606-1.476,0.718l-1.436,0.416
		c-0.286,0.072-0.385,0.133-0.821,0.216l-0.801,0.126c-4.206,0.427-8.4-0.406-11.188-1.945c-1.402-0.76-2.324-1.783-2.785-2.588
		c-0.268-0.388-0.327-0.731-0.403-0.957C119.467,141.749,119.43,141.629,119.43,141.629z"/>
	<path fill="#6D1B1D" d="M145.16,135.909c0,0,0.039,0.108,0.116,0.308c0.09,0.189,0.149,0.521,0.36,0.844
		c0.164,0.342,0.426,0.711,0.759,1.112c0.351,0.385,0.793,0.756,1.311,1.109c1.063,0.678,2.482,1.16,4.054,1.434
		c1.571,0.26,3.312,0.317,4.978,0.086l0.62-0.086l0.581-0.149l1.3-0.335c0.694-0.365,1.441-0.521,2.063-1.016
		c0.678-0.379,1.214-0.918,1.77-1.39c0.468-0.565,0.986-1.044,1.361-1.596c0.808-1.047,1.431-2.003,1.904-2.644
		c0.476-0.643,0.747-1.011,0.747-1.011s-0.149,0.432-0.412,1.188c-0.287,0.744-0.657,1.824-1.316,3.057
		c-0.286,0.636-0.751,1.263-1.21,1.94c-0.551,0.616-1.099,1.323-1.881,1.833c-0.687,0.605-1.641,1-2.536,1.414l-1.292,0.367
		l-0.728,0.201l-0.717,0.118c-1.917,0.221-3.839,0.12-5.58-0.338c-0.873-0.211-1.691-0.522-2.431-0.899
		c-0.751-0.357-1.395-0.833-1.943-1.313c-0.538-0.502-0.945-1.041-1.236-1.554c-0.282-0.519-0.447-1.005-0.526-1.422
		c-0.131-0.398-0.066-0.714-0.099-0.927C145.164,136.024,145.16,135.909,145.16,135.909z"/>
	<path fill="#7C4727" d="M119.781,112.359c0,0,0.933-24.876,25.472-21.538c0,0,25.602,5.183,12.888,40.773
		c0,0-15.7,9.032-27.899,4.495C130.242,136.089,121.57,134.689,119.781,112.359z"/>
	<path fill="#C2B59B" d="M117.793,209.935c4.674,10.816,8.147,24.247,2.881,35.582c0.942-13.869-7.535-29.783-13.633-38.13
		c-11.437-14.771-45.268-16.677-54.797,6.195c-3.089,9.266-2.737,19.156,0.296,28.152c-6.818-11.849-8.877-26.412-4.232-39.829
		c10.731-24.949,46.519-25.24,60.43-4.5C112.384,200.936,115.496,205.156,117.793,209.935z"/>
	<path fill="#988D7B" d="M111.331,263.14c-9.531,7.622-19.063,9.53-30.496,7.622c-22.873-7.622-36.218-34.307-28.592-57.181
		c9.529-22.871,43.36-20.966,54.797-6.195C116.094,219.776,130.391,248.845,111.331,263.14z"/>
	<path fill="#C2B59B" d="M225.857,232.006c-1.892,11.629-6.206,24.814-16.749,31.524c8.268-11.175,9.703-29.149,9.063-39.464
		c-1.673-18.607-29.147-38.445-49.501-24.312c-7.594,6.142-12.626,14.664-14.92,23.877c0.642-13.656,6.756-27.034,17.899-35.835
		c22.482-15.235,52.787,3.807,53.329,28.774C226.149,221.51,226.498,226.739,225.857,232.006z"/>
	<path fill="#988D7B" d="M191.742,273.341c-12.136,1.287-21.19-2.243-29.801-10.011c-15.158-18.748-12.018-48.416,6.729-63.577
		c20.353-14.134,47.828,5.705,49.501,24.312C219.122,239.378,215.502,271.569,191.742,273.341z"/>
	<path fill="#D5C5A2" d="M209.755,172.344c-8.232,9.853-23.963,10.27-35.139,0.935c-6.161-5.147-9.65-12.183-10.163-19.112
		c-1.588-0.31-3.224-1.076-4.677-2.289c-3.627-3.033-4.726-7.7-2.45-10.427c1.549-1.853,4.259-2.331,6.975-1.493
		c-1.815-2.751-2.041-5.957-0.303-8.034c2.258-2.706,6.982-2.479,10.599,0.476c-2.489-2.941-3.024-6.714-1.066-9.053
		c2.274-2.728,7.064-2.477,10.694,0.556c2.359,1.97,3.647,4.632,3.634,7.003c5.715,0.32,11.59,2.542,16.564,6.696
		C215.599,146.938,217.985,162.491,209.755,172.344z"/>
	<path fill="#FFFFFF" d="M180.898,95.406c0,1.317-1.064,2.384-2.38,2.384c-1.317,0-2.384-1.067-2.384-2.384
		c0-1.315,1.067-2.38,2.384-2.38C179.834,93.026,180.898,94.091,180.898,95.406z"/>
	<path fill="#E1D9CE" d="M74.637,56.809c-15.048-10.04-40.822-11.462-46.218,10.614c-2.378,9.725-0.2,19.919,7.622,26.552
		c12.371,10.492,26.048,4.366,39.55-0.949L74.637,56.809z"/>
</g>
</svg>
