<?xml version="1.0" encoding="utf-8"?>
<!-- Generator: Adobe Illustrator 17.0.0, SVG Export Plug-In . SVG Version: 6.00 Build 0)  -->
<!DOCTYPE svg PUBLIC "-//W3C//DTD SVG 1.1 Basic//EN" "http://www.w3.org/Graphics/SVG/1.1/DTD/svg11-basic.dtd">
<svg version="1.1" baseProfile="basic" id="Слой_1"
	 xmlns="http://www.w3.org/2000/svg" xmlns:xlink="http://www.w3.org/1999/xlink" x="0px" y="0px" width="380px" height="300px"
	 viewBox="0 0 380 300" xml:space="preserve">
<g>
	<path fill="#E6D2DB" stroke="#FFFFFF" stroke-width="6" stroke-miterlimit="10" d="M371.778,138.117
		c4.355-18.101-14.783-67.962-66.691-71.7c-1.588-3.027-3.472-5.975-5.68-8.789c-11.25-14.356-28.936-23.49-46.625-24.217
		c-1.98-3.305-4.159-6.019-6.227-8.217C236.662,14.741,221.914,8.76,206.084,8.76c-9.083,0-17.689,1.917-25.153,5.399
		c-7.951-4.014-16.718-6.158-25.685-6.158c-17.035,0-31.615,7.534-41.078,20.163c-1.259-0.092-2.499-0.139-3.77-0.139
		c-17.395,0-33.76,7.948-43.846,20.982c1.934,0.288,3.718,0.883,5.264,1.891c0.067,0.044,0.136,0.083,0.202,0.128
		c0.327,0.224,0.639,0.472,0.943,0.736c0.073,0.064,0.147,0.127,0.219,0.193c0.297,0.274,0.582,0.57,0.853,0.887
		c0.06,0.07,0.118,0.142,0.176,0.214c0.274,0.338,0.537,0.696,0.781,1.083c0.036,0.057,0.069,0.118,0.104,0.176
		c0.256,0.422,0.499,0.865,0.718,1.347c2,6-3,13-1,16c0.179,0.314,0.377,0.622,0.583,0.929c0.044,0.065,0.087,0.131,0.132,0.195
		c0.203,0.294,0.416,0.586,0.639,0.875c0.041,0.053,0.083,0.105,0.125,0.157c0.204,0.259,0.414,0.516,0.63,0.772
		c0.046,0.055,0.091,0.109,0.138,0.164c0.238,0.278,0.484,0.554,0.734,0.829c0.074,0.082,0.149,0.163,0.224,0.245
		c0.216,0.235,0.434,0.469,0.656,0.702c0.126,0.133,0.253,0.266,0.381,0.399c0.145,0.152,0.291,0.303,0.437,0.455
		c0.689,0.714,1.385,1.428,2.061,2.152c3.654,3.916,6.665,8.119,4.262,14.126c-3,6-9,12-11,18c-3,7,7,13,5,22
		c-1.331,6.655-7.974,7.997-12.861,10.802l0,0c0,0-0.001,0-0.001,0.001c-0.291,0.167-0.574,0.34-0.851,0.519
		c-0.024,0.016-0.048,0.031-0.072,0.047c-0.555,0.362-1.077,0.753-1.556,1.181c-0.041,0.037-0.081,0.076-0.122,0.113
		c-0.19,0.175-0.371,0.357-0.545,0.546c-0.047,0.051-0.095,0.101-0.141,0.153c-0.405,0.46-0.762,0.962-1.061,1.516
		c-0.04,0.075-0.077,0.153-0.115,0.229c-0.106,0.212-0.203,0.432-0.291,0.659c-0.034,0.088-0.07,0.174-0.101,0.264
		c-0.108,0.31-0.206,0.629-0.282,0.969c-2,5-1,10-4,15c-0.15,0.2-0.321,0.383-0.494,0.564c-0.15,0.151-0.306,0.297-0.468,0.438l0,0
		c-3.458,2.997-10.088,3.183-11.026,4.983c4.635,8.898,12.189,16.21,21.338,21.154c2.89,30.726,4.999,69.655,8.504,87.005
		c2.524,12.689,5.352,12.107,8.15,12.107c2.828,0,4.377,0,6.613,0c5.307,0,5.121-17.547,5.121-17.547s0.702-27.554,4.542-63.583
		c0.654,0.564,1.323,1.106,2,1.638c5.824,29.428,14.178,55.451,17.675,69.352c2.679,10.624,4.994,10.115,7.331,10.115
		c2.334,0,8.312,0,10.171,0c2.533,0,1.702-12.449,1.702-12.449s-6.139-23.788-7.363-54.961c1.892,0.197,3.797,0.299,5.709,0.299
		c10.13,0,19.957-2.774,29.002-8.037c9.89,7.066,22.114,11.003,35.584,11.003c0.626,0,1.247-0.024,1.869-0.042
		c2.207,24.209,5.618,43.373,7.961,55.46c1.765,9.182,4.134,8.752,6.458,8.752c2.344,0,6.724,0,8.578,0
		c4.415,0,4.744-12.689,4.744-12.689s-0.637-29.974,1.821-60.014c3.073-1.882,5.904-4.044,8.42-6.467
		c0.396,0.058,0.793,0.105,1.19,0.156c4.882,30.68,10.99,54.868,14.908,69.504c2.66,9.966,4.994,9.51,7.316,9.51
		c2.331,0,6.715,0,8.578,0c4.418,0,3.495-13.783,3.495-13.783s-3.884-35.429-4.085-69.425c8.369-3.61,15.719-9.175,21.176-16.317
		c4.327-5.646,7.309-11.998,8.923-18.794C343.301,178.87,391.639,170.657,371.778,138.117z"/>
	<g>
		<path fill="#C6D6EE" d="M338.613,118.087c0,6.879-5.576,12.458-12.455,12.458l0,0c-6.876,0-12.455-5.579-12.455-12.458l0,0
			c0-6.876,5.579-12.452,12.455-12.452l0,0C333.037,105.635,338.613,111.211,338.613,118.087L338.613,118.087z"/>
		<path fill="#C6D6EE" d="M224.801,29.428H124.444c-20.265,0-38.8,7.984-53.061,21.193c1.835,1.075,3.362,2.69,4.431,5.04
			c2,6-3,13-1,16c4,7,15,12,11,22c-3,6-9,12-11,18c-3,7,7,13,5,22c-2,10-16,8-18,17c-2,5-1,10-4,15
			c-0.277,0.37-0.609,0.696-0.962,1.002c14.653,23.397,39.458,38.779,67.592,38.779h100.358c45.028,0,81.53-39.402,81.53-88.004
			C306.331,68.833,269.829,29.428,224.801,29.428z"/>
		<path fill="#39322E" d="M241.241,201.539c5.083,36.081,12.224,64.463,16.614,80.862c2.66,9.966,4.994,9.51,7.315,9.51
			c2.331,0,6.715,0,8.578,0c4.418,0,3.495-13.783,3.495-13.783s-5.374-49.001-3.808-87.045
			C265.825,197.731,249.844,201.539,241.241,201.539z"/>
		<path fill="#39322E" d="M202.387,208.757c1.831,33.202,6.424,59.314,9.349,74.404c1.765,9.182,4.134,8.752,6.458,8.752
			c2.344,0,6.724,0,8.578,0c4.415,0,4.744-12.689,4.744-12.689s-0.958-45.073,4.007-80.069
			C227.325,205.275,210.989,208.757,202.387,208.757z"/>
		<path fill="#39322E" d="M98.25,189.369c5.082,38.412,17.129,74.954,21.519,92.403c2.679,10.624,4.994,10.115,7.331,10.115
			c2.334,0,8.312,0,10.171,0c2.533,0,1.702-12.449,1.702-12.449s-8.96-34.676-7.395-75.172
			C121.085,203.409,105.919,197.656,98.25,189.369z"/>
		<path fill="#39322E" d="M103.497,183.202c-10.52-5.959-28.117-9.64-38.197-7.771c3.96,31.485,6.155,83.522,10.368,104.374
			c2.524,12.689,5.352,12.107,8.15,12.107c2.828,0,4.377,0,6.613,0c5.307,0,5.121-17.547,5.121-17.547
			S96.636,231.744,103.497,183.202z"/>
		<path fill="#7990C8" d="M299.407,57.627c-11.25-14.356-28.936-23.49-46.625-24.217c-1.98-3.305-4.159-6.019-6.227-8.217
			c-9.893-10.453-24.641-16.434-40.471-16.434c-9.083,0-17.689,1.917-25.153,5.399C172.98,10.144,164.213,8,155.246,8
			c-17.035,0-31.615,7.534-41.078,20.163c-1.259-0.092-2.499-0.139-3.77-0.139c-17.395,0-33.76,7.948-43.846,20.982
			c3.987,0.594,7.354,2.457,9.262,6.655c2,6-3,13-1,16c1.597,2.795,4.31,5.272,6.739,7.875
			c-1.014-14.949,13.231-26.473,28.845-26.473c5.981,0,12.148,1.676,17.762,5.513c2.461-17.269,14.318-25.546,27.086-25.546
			c9.333,0,19.135,4.39,26.162,12.942c3.634-7.733,14.002-12.199,24.676-12.199c14.707,0,29.974,8.514,28.838,28.829
			c5.057-2.954,10.367-4.245,15.589-4.245c20.163,0,38.829,19.163,34.857,35.312c-18.771,12.92,3.444,40.771-7.053,58.293
			c6.281,23.139-10.95,36.381-27.953,36.381c-7.825,0-15.595-2.799-21.016-8.717c2.571,13.862-11.807,23.072-27.44,23.072
			c-13.103,0-27.108-6.487-32.658-22.076c-10.244,13.903-21.672,19.112-31.928,19.112c-17.373,0-31.372-14.922-30.704-27.614
			c-3.545,1.793-7.597,2.625-11.721,2.625c-16.215,0-33.724-12.828-27.941-30.284c-2.456,1.41-4.47,3.187-5.139,6.198
			c-2,5-1,10-4,15c-2.992,3.989-10.954,4.001-11.989,5.985c8.145,15.636,25.283,26.397,44.299,27.964
			c1.692,2.486,3.596,4.883,5.74,7.142c10.877,11.465,25.976,18.024,41.455,18.024c10.13,0,19.957-2.774,29.002-8.037
			c9.89,7.066,22.114,11.003,35.584,11.003c15.504,0,30.037-5.551,39.851-15.001c2.825,0.417,5.677,0.658,8.606,0.658
			c17.484,0,33.921-7.86,43.972-21.013c8.154-10.64,11.582-23.768,9.94-37.7c3.815-12.626,1.493-25.027-0.275-34.626
			c-0.452-2.486-1.085-5.864-1.338-8.252c3.432-3.289,5.88-7.493,7.04-12.161C313.137,85.646,309.373,70.336,299.407,57.627z"/>
		<path fill="#6E6962" d="M371.778,138.117c5.304-22.045-24.224-91.211-105.367-66.782c-41.378-18.983-60.371,14.558-60.602,22.996
			c-0.262,9.188,31.896,9.957,42.758,8.789c-2.809,3.896-0.196,0.797-1.929,12.809c-2.167,15.048,2.347,27.494,12.101,40.673
			C276.844,180.963,401.697,187.136,371.778,138.117z M325.292,126.81c-4.387-0.614-7.455-4.725-6.841-9.172
			c0.613-4.441,4.665-7.533,9.049-6.92c4.358,0.642,7.43,4.738,6.813,9.172C333.695,124.34,329.647,127.423,325.292,126.81z"/>
		<path fill="#E6D2DB" d="M306.448,130.542c0,6.882-5.579,12.458-12.458,12.458l0,0c-6.879,0-12.455-5.576-12.455-12.458l0,0
			c0-6.873,5.576-12.455,12.455-12.455l0,0C300.869,118.087,306.448,123.669,306.448,130.542L306.448,130.542z"/>
	</g>
</g>
</svg>
