<?xml version="1.0" encoding="utf-8"?>
<!-- Generator: Adobe Illustrator 17.0.0, SVG Export Plug-In . SVG Version: 6.00 Build 0)  -->
<!DOCTYPE svg PUBLIC "-//W3C//DTD SVG 1.1 Basic//EN" "http://www.w3.org/Graphics/SVG/1.1/DTD/svg11-basic.dtd">
<svg version="1.1" baseProfile="basic" id="Слой_1"
	 xmlns="http://www.w3.org/2000/svg" xmlns:xlink="http://www.w3.org/1999/xlink" x="0px" y="0px" width="380px" height="300px"
	 viewBox="0 0 380 300" xml:space="preserve">
<g>
	<path fill="#E6D2DB" stroke="#F9F9F9" stroke-width="6" stroke-miterlimit="10" d="M362.356,138.158
		c4.355-18.102-14.784-67.963-66.692-71.7c-1.588-3.027-3.472-5.974-5.679-8.789c-11.25-14.356-28.936-23.49-46.625-24.217
		c-1.98-3.305-4.159-6.019-6.227-8.217c-9.893-10.453-24.641-16.434-40.471-16.434c-9.083,0-17.689,1.917-25.153,5.399
		c-7.951-4.014-16.718-6.158-25.685-6.158c-17.035,0-31.615,7.534-41.078,20.163c-1.259-0.092-2.499-0.139-3.77-0.139
		c-19.109,0-37.001,9.571-46.66,24.964c-2.549,4.048-4.431,8.337-5.639,12.755c-19.441,7.202-30.868,26.099-30.868,43.861
		c0,13.521,5.146,25.381,14.166,34.085c-1.493,8.717-0.405,17.509,3.368,25.799c4.495,9.878,12.515,17.984,22.399,23.322
		c2.89,30.725,4.999,69.647,8.504,86.994c2.524,12.689,5.352,12.107,8.15,12.107c2.828,0,4.377,0,6.613,0
		c5.307,0,5.121-17.547,5.121-17.547s0.702-27.553,4.543-63.582c0.654,0.564,1.323,1.106,2,1.638
		c5.823,29.428,14.178,55.451,17.675,69.352c2.679,10.624,4.994,10.115,7.331,10.115c2.334,0,8.312,0,10.171,0
		c2.533,0,1.702-12.449,1.702-12.449s-6.139-23.788-7.363-54.961c1.893,0.197,3.798,0.299,5.71,0.299
		c10.13,0,19.957-2.774,29.002-8.037c9.89,7.066,22.114,11.003,35.584,11.003c0.626,0,1.247-0.024,1.869-0.042
		c2.207,24.21,5.618,43.373,7.961,55.46c1.765,9.182,4.134,8.752,6.458,8.752c2.344,0,6.724,0,8.578,0
		c4.415,0,4.744-12.689,4.744-12.689s-0.637-29.975,1.821-60.015c3.073-1.882,5.904-4.044,8.42-6.467
		c0.396,0.058,0.793,0.105,1.19,0.156c4.882,30.681,10.99,54.868,14.908,69.504c2.66,9.966,4.994,9.51,7.316,9.51
		c2.331,0,6.715,0,8.578,0c4.418,0,3.495-13.783,3.495-13.783s-3.885-35.429-4.085-69.425c8.369-3.61,15.718-9.174,21.176-16.317
		c4.327-5.646,7.309-11.998,8.923-18.794C333.879,178.912,382.218,170.699,362.356,138.158z"/>
	<g>
		<path fill="#C6D6EE" d="M329.192,118.128c0,6.879-5.576,12.458-12.455,12.458l0,0c-6.876,0-12.455-5.579-12.455-12.458l0,0
			c0-6.876,5.579-12.452,12.455-12.452l0,0C323.616,105.677,329.192,111.253,329.192,118.128L329.192,118.128z"/>
		<path fill="#C6D6EE" d="M296.909,117.48c0,48.602-36.501,88.004-81.53,88.004H115.021c-45.028,0-81.53-39.402-81.53-88.004l0,0
			c0-48.605,36.501-88.01,81.53-88.01h100.358C260.408,29.47,296.909,68.875,296.909,117.48L296.909,117.48z"/>
		<path fill="#39322E" d="M231.819,201.581c5.083,36.081,12.224,64.463,16.614,80.862c2.66,9.966,4.994,9.51,7.316,9.51
			c2.331,0,6.715,0,8.578,0c4.418,0,3.495-13.783,3.495-13.783s-5.374-49.001-3.808-87.045
			C256.404,197.773,240.422,201.581,231.819,201.581z"/>
		<path fill="#39322E" d="M192.965,208.798c1.831,33.203,6.424,59.314,9.349,74.404c1.765,9.182,4.134,8.752,6.458,8.752
			c2.344,0,6.724,0,8.578,0c4.415,0,4.744-12.689,4.744-12.689s-0.958-45.073,4.007-80.069
			C217.904,205.316,201.568,208.798,192.965,208.798z"/>
		<path fill="#39322E" d="M88.828,189.411c5.082,38.412,17.129,74.954,21.519,92.403c2.679,10.624,4.994,10.115,7.331,10.115
			c2.334,0,8.312,0,10.171,0c2.533,0,1.702-12.449,1.702-12.449s-8.96-34.676-7.395-75.172
			C111.663,203.45,96.498,197.697,88.828,189.411z"/>
		<path fill="#39322E" d="M55.878,175.472c3.96,31.485,6.155,83.522,10.368,104.374c2.524,12.689,5.352,12.107,8.15,12.107
			c2.828,0,4.377,0,6.613,0c5.307,0,5.121-17.547,5.121-17.547s1.085-42.621,7.945-91.163
			C83.556,177.284,65.958,173.603,55.878,175.472z"/>
		<g>
			<path fill="#7990C8" d="M145.824,33.072c9.333,0,19.135,4.39,26.162,12.942c3.634-7.733,14.002-12.199,24.676-12.199
				c14.707,0,29.974,8.514,28.838,28.829c5.057-2.954,10.367-4.245,15.589-4.245c20.163,0,38.829,19.163,34.857,35.312
				c-18.771,12.92,3.444,40.771-7.053,58.293c6.281,23.139-10.95,36.381-27.953,36.381c-7.825,0-15.595-2.799-21.016-8.717
				c2.571,13.862-11.807,23.072-27.44,23.072c-13.103,0-27.108-6.487-32.658-22.076c-10.244,13.903-21.672,19.112-31.928,19.112
				c-17.373,0-31.372-14.922-30.704-27.614c-3.545,1.793-7.597,2.625-11.721,2.625c-19.603,0-41.1-18.749-21.042-41.758
				c-11.506-2.268-21.595-9.675-21.595-23.414c0-7.996,6.936-21.848,23.199-21.848c2.635,0,5.538,0.38,8.666,1.186
				c-9.286-19.223,7.518-35.85,26.276-35.85c5.981,0,12.148,1.676,17.762,5.513C121.199,41.349,133.056,33.072,145.824,33.072
				 M145.824,8.042c-17.035,0-31.615,7.534-41.078,20.163c-1.259-0.092-2.499-0.139-3.77-0.139c-19.109,0-37.001,9.571-46.66,24.964
				c-2.549,4.048-4.431,8.337-5.639,12.755c-19.441,7.202-30.868,26.099-30.868,43.861c0,13.521,5.146,25.381,14.166,34.085
				c-1.493,8.717-0.405,17.509,3.368,25.799c7.645,16.801,25.479,28.484,45.36,30.122c1.692,2.486,3.596,4.883,5.74,7.142
				c10.877,11.465,25.976,18.024,41.455,18.024c10.13,0,19.957-2.774,29.002-8.037c9.89,7.066,22.114,11.003,35.584,11.003
				c15.504,0,30.037-5.551,39.851-15.001c2.824,0.417,5.677,0.658,8.606,0.658c17.484,0,33.921-7.86,43.972-21.013
				c8.154-10.64,11.582-23.768,9.94-37.7c3.815-12.626,1.493-25.027-0.275-34.626c-0.452-2.486-1.085-5.864-1.338-8.252
				c3.432-3.289,5.88-7.493,7.04-12.161c3.435-14.001-0.329-29.312-10.295-42.02c-11.25-14.356-28.936-23.49-46.625-24.217
				c-1.98-3.305-4.159-6.019-6.227-8.217c-9.893-10.453-24.641-16.434-40.471-16.434c-9.083,0-17.689,1.917-25.153,5.399
				C163.558,10.186,154.791,8.042,145.824,8.042L145.824,8.042z"/>
		</g>
		<path fill="#6E6962" d="M362.356,138.158c5.304-22.045-24.224-91.211-105.367-66.782c-41.378-18.983-60.371,14.558-60.602,22.996
			c-0.262,9.188,31.896,9.957,42.757,8.789c-2.809,3.896-0.196,0.797-1.929,12.809c-2.167,15.048,2.347,27.494,12.101,40.673
			C267.423,181.004,392.276,187.178,362.356,138.158z M315.87,126.851c-4.387-0.614-7.455-4.725-6.841-9.172
			c0.614-4.441,4.665-7.533,9.049-6.92c4.358,0.642,7.429,4.738,6.813,9.172C324.273,124.381,320.225,127.465,315.87,126.851z"/>
		<path fill="#E6D2DB" d="M297.026,130.583c0,6.882-5.579,12.458-12.458,12.458l0,0c-6.879,0-12.455-5.576-12.455-12.458l0,0
			c0-6.873,5.576-12.455,12.455-12.455l0,0C291.447,118.128,297.026,123.71,297.026,130.583L297.026,130.583z"/>
	</g>
</g>
</svg>
