<?xml version="1.0" encoding="utf-8"?>
<!-- Generator: Adobe Illustrator 17.0.0, SVG Export Plug-In . SVG Version: 6.00 Build 0)  -->
<!DOCTYPE svg PUBLIC "-//W3C//DTD SVG 1.1 Basic//EN" "http://www.w3.org/Graphics/SVG/1.1/DTD/svg11-basic.dtd">
<svg version="1.1" baseProfile="basic" id="Слой_1"
	 xmlns="http://www.w3.org/2000/svg" xmlns:xlink="http://www.w3.org/1999/xlink" x="0px" y="0px" width="77.952px"
	 height="122.64px" viewBox="0 0 77.952 122.64" xml:space="preserve">
<path fill="#87BB50" d="M77.092,44.655c0.984-2.461,1.057-4.617,0.553-6.577c0.001,0,0.001,0,0.002,0
	c-0.002-0.007-0.004-0.013-0.006-0.019c-0.087-0.336-0.194-0.666-0.314-0.992c-0.057-0.159-0.119-0.314-0.181-0.468
	c-0.027-0.065-0.056-0.129-0.084-0.193c-0.852-1.988-2.154-3.583-3.378-4.94c-0.279-0.314-0.563-0.626-0.852-0.936l0,0l-0.001-0.001
	c-0.675-0.724-1.371-1.438-2.061-2.152c-0.146-0.152-0.292-0.303-0.437-0.455c-0.127-0.133-0.254-0.266-0.381-0.399
	c-0.221-0.234-0.44-0.468-0.656-0.702c-0.075-0.081-0.15-0.163-0.224-0.245c-0.25-0.275-0.495-0.551-0.733-0.829
	c-0.047-0.054-0.092-0.109-0.138-0.164c-0.216-0.256-0.427-0.513-0.63-0.772c-0.041-0.052-0.084-0.105-0.125-0.157
	c-0.223-0.289-0.435-0.581-0.639-0.875c-0.045-0.065-0.088-0.13-0.132-0.195c-0.205-0.306-0.403-0.615-0.583-0.929c-2-3,3-10,1-16
	c-0.219-0.482-0.462-0.925-0.718-1.347c-0.035-0.058-0.069-0.119-0.104-0.176c-0.245-0.387-0.507-0.746-0.781-1.083
	c-0.058-0.072-0.117-0.144-0.176-0.214c-0.272-0.317-0.556-0.613-0.853-0.887c-0.072-0.066-0.146-0.129-0.219-0.193
	c-0.303-0.264-0.616-0.512-0.943-0.736c-0.066-0.045-0.135-0.085-0.202-0.128c-0.144-0.094-0.286-0.19-0.434-0.276
	c-0.005,0.005-0.01,0.01-0.016,0.015C61.204,0.788,59.583,0.261,57.831,0c-0.994,1.284-1.948,2.6-2.815,3.981
	c-2.549,4.048-4.431,8.337-5.639,12.755c-7.967,2.951-14.585,7.868-19.626,13.865c-1.134-2.596-3.721-4.412-6.735-4.412
	c-3.798,0-6.922,2.881-7.308,6.576c-1.425-0.673-3.011-1.06-4.692-1.06C4.932,31.705,0,36.637,0,42.721
	c0,4.147,2.294,7.755,5.679,9.634C2.426,53.112,0,56.023,0,59.506c0,3.379,2.283,6.218,5.389,7.077
	c-0.47,1.225-0.738,2.549-0.738,3.939c0,6.084,4.932,11.016,11.016,11.016c2.442,0,4.697-0.796,6.522-2.141
	c2.414,5.763,5.962,10.922,10.485,15.286c-1.493,8.717-0.405,17.509,3.368,25.799c0.332,0.73,0.691,1.448,1.061,2.158
	c0.983-1.885,8.207-1.996,11.494-5.421c0.177-0.178,0.344-0.364,0.494-0.564c3-5,2-10,4-15c0.076-0.34,0.173-0.659,0.282-0.969
	c0.032-0.09,0.067-0.177,0.101-0.264c0.089-0.227,0.186-0.447,0.291-0.659c0.038-0.077,0.075-0.155,0.115-0.229
	c0.3-0.554,0.656-1.057,1.061-1.516c0.046-0.052,0.094-0.102,0.141-0.153c0.174-0.189,0.356-0.371,0.545-0.546
	c0.041-0.038,0.08-0.076,0.122-0.113c0.479-0.428,1.001-0.819,1.556-1.181c0.024-0.016,0.048-0.031,0.072-0.047
	c0.277-0.179,0.56-0.352,0.851-0.519l0.001-0.001c4.264-2.114,7.097-2.429,10.433-6.089c1.156-1.219,2.031-2.727,2.428-4.713
	c2-9-8-15-5-22C68.092,56.655,74.092,50.655,77.092,44.655z"/>
</svg>
