<?xml version="1.0" encoding="utf-8"?>
<!-- Generator: Adobe Illustrator 17.0.0, SVG Export Plug-In . SVG Version: 6.00 Build 0)  -->
<!DOCTYPE svg PUBLIC "-//W3C//DTD SVG 1.1 Basic//EN" "http://www.w3.org/Graphics/SVG/1.1/DTD/svg11-basic.dtd">
<svg version="1.1" baseProfile="basic" id="Слой_1"
	 xmlns="http://www.w3.org/2000/svg" xmlns:xlink="http://www.w3.org/1999/xlink" x="0px" y="0px" width="380px" height="300px"
	 viewBox="0 0 380 300" xml:space="preserve">
<g>
	<g>
		<path fill="#C6D6EE" d="M23.667,133.91c-7.728,0-14.016-6.288-14.016-14.016c0-0.76,0.063-1.517,0.187-2.265
			C6.891,115.769,5,112.486,5,108.878c0-3.013,1.278-5.757,3.381-7.663C6.234,98.712,5,95.49,5,92.093
			c0-7.728,6.288-14.016,14.016-14.016c0.915,0,1.818,0.088,2.705,0.265c1.69-3.455,5.232-5.781,9.295-5.781
			c5.649,0,10.255,4.549,10.348,10.176c14.075,0.556,25.319,10.245,25.319,22.074c0,12.186-11.932,22.099-26.599,22.099
			c-1.387,0-2.77-0.089-4.133-0.265C33.525,131.076,28.863,133.91,23.667,133.91z"/>
		<path fill="#FFFFFF" d="M31.016,75.561c4.059,0,7.349,3.29,7.349,7.349c0,1.028-0.213,2.006-0.594,2.894
			c0.761-0.06,1.531-0.092,2.312-0.092c13.034,0,23.599,8.551,23.599,19.099c0,10.548-10.566,19.099-23.599,19.099
			c-2.053,0-4.044-0.213-5.943-0.612c-1.435,4.417-5.579,7.612-10.474,7.612c-6.084,0-11.016-4.932-11.016-11.016
			c0-1.39,0.268-2.715,0.738-3.939C10.283,115.096,8,112.257,8,108.878c0-3.483,2.426-6.394,5.679-7.151
			C10.294,99.847,8,96.24,8,92.093c0-6.084,4.932-11.016,11.016-11.016c1.681,0,3.267,0.387,4.692,1.06
			C24.094,78.442,27.218,75.561,31.016,75.561 M31.016,69.561c-4.453,0-8.421,2.168-10.851,5.554
			c-0.381-0.026-0.764-0.039-1.149-0.039C9.633,75.077,2,82.71,2,92.093c0,3.209,0.907,6.291,2.537,8.932
			C2.928,103.24,2,105.962,2,108.878c0,3.978,1.783,7.65,4.674,10.132c-0.015,0.294-0.023,0.589-0.023,0.884
			c0,9.383,7.633,17.016,17.016,17.016c5.605,0,10.698-2.716,13.83-7.095c0.859,0.063,1.723,0.095,2.587,0.095
			c16.321,0,29.599-11.259,29.599-25.099c0-12.705-11.19-23.236-25.652-24.877C42.675,74.001,37.354,69.561,31.016,69.561
			L31.016,69.561z"/>
	</g>
	<path fill="#E6D2DB" stroke="#F9F9F9" stroke-width="6" stroke-miterlimit="10" d="M371.801,138.116
		c4.355-18.102-14.784-67.963-66.692-71.7c-1.588-3.027-3.472-5.974-5.679-8.789c-11.25-14.356-28.936-23.49-46.625-24.217
		c-1.98-3.305-4.159-6.019-6.227-8.217c-9.893-10.453-24.641-16.434-40.471-16.434c-9.083,0-17.689,1.917-25.153,5.399
		C173.003,10.144,164.236,8,155.269,8c-17.035,0-31.615,7.534-41.078,20.163c-1.259-0.092-2.499-0.139-3.77-0.139
		c-19.109,0-37.001,9.571-46.66,24.964c-2.549,4.048-4.431,8.337-5.639,12.755c-8.29,3.071-15.116,8.272-20.227,14.601
		c-1.042-2.792-3.725-4.783-6.88-4.783c-3.798,0-6.922,2.881-7.308,6.576c-1.425-0.673-3.011-1.06-4.692-1.06
		C12.932,81.077,8,86.009,8,92.093c0,4.147,2.294,7.755,5.679,9.634C10.426,102.484,8,105.395,8,108.878
		c0,3.379,2.283,6.218,5.389,7.077c-0.47,1.225-0.738,2.549-0.738,3.939c0,6.084,4.932,11.016,11.016,11.016
		c2.754,0,5.27-1.011,7.2-2.683c2.416,5.833,5.985,11.053,10.554,15.461c-1.493,8.717-0.405,17.509,3.368,25.799
		c4.495,9.878,12.515,17.984,22.399,23.322c2.89,30.725,4.999,69.647,8.504,86.994c2.524,12.689,5.352,12.107,8.15,12.107
		c2.828,0,4.377,0,6.613,0c5.307,0,5.121-17.547,5.121-17.547s0.702-27.554,4.543-63.582c0.654,0.564,1.323,1.106,1.999,1.638
		c5.823,29.428,14.178,55.451,17.675,69.352c2.679,10.624,4.994,10.115,7.331,10.115c2.334,0,8.312,0,10.171,0
		c2.533,0,1.702-12.449,1.702-12.449s-6.139-23.788-7.363-54.961c1.893,0.197,3.798,0.299,5.71,0.299
		c10.13,0,19.957-2.774,29.002-8.037c9.89,7.066,22.114,11.003,35.584,11.003c0.626,0,1.247-0.024,1.869-0.042
		c2.207,24.21,5.618,43.373,7.961,55.46c1.765,9.182,4.134,8.752,6.458,8.752c2.344,0,6.724,0,8.578,0
		c4.415,0,4.744-12.689,4.744-12.689s-0.637-29.975,1.821-60.015c3.073-1.882,5.904-4.044,8.42-6.467
		c0.395,0.058,0.793,0.105,1.19,0.156c4.882,30.681,10.99,54.868,14.908,69.504c2.66,9.966,4.994,9.51,7.316,9.51
		c2.331,0,6.715,0,8.578,0c4.418,0,3.495-13.783,3.495-13.783s-3.885-35.429-4.085-69.425c8.369-3.61,15.718-9.175,21.176-16.317
		c4.327-5.646,7.309-11.998,8.923-18.794C343.325,178.87,391.663,170.657,371.801,138.116z"/>
	<g>
		<path fill="#C6D6EE" stroke="#7990C7" stroke-width="7" stroke-miterlimit="10" d="M40.083,85.712
			c-0.78,0-1.551,0.033-2.312,0.092c0.381-0.888,0.594-1.866,0.594-2.894c0-4.059-3.29-7.349-7.349-7.349
			c-3.798,0-6.922,2.881-7.308,6.576c-1.425-0.673-3.011-1.06-4.692-1.06C12.932,81.077,8,86.009,8,92.093
			c0,4.147,2.294,7.755,5.679,9.634C10.426,102.484,8,105.395,8,108.878c0,3.379,2.283,6.218,5.389,7.077
			c-0.47,1.225-0.738,2.549-0.738,3.939c0,6.084,4.932,11.016,11.016,11.016c4.895,0,9.039-3.195,10.474-7.612
			c1.899,0.399,3.89,0.612,5.943,0.612c13.034,0,23.599-8.551,23.599-19.099C63.683,94.263,53.117,85.712,40.083,85.712z"/>
		<g>
			<path fill="#C6D6EE" d="M338.637,118.086c0,6.879-5.576,12.458-12.455,12.458l0,0c-6.876,0-12.455-5.579-12.455-12.458l0,0
				c0-6.876,5.579-12.452,12.455-12.452l0,0C333.061,105.635,338.637,111.211,338.637,118.086L338.637,118.086z"/>
			<path fill="#C6D6EE" d="M306.354,117.438c0,48.602-36.501,88.004-81.53,88.004H124.466c-45.028,0-81.53-39.402-81.53-88.004l0,0
				c0-48.605,36.501-88.01,81.53-88.01h100.358C269.853,29.428,306.354,68.833,306.354,117.438L306.354,117.438z"/>
			<path fill="#39322E" d="M241.264,201.539c5.083,36.081,12.224,64.463,16.614,80.862c2.66,9.966,4.994,9.51,7.316,9.51
				c2.331,0,6.715,0,8.578,0c4.418,0,3.495-13.783,3.495-13.783s-5.374-49.001-3.808-87.045
				C265.849,197.731,249.867,201.539,241.264,201.539z"/>
			<path fill="#39322E" d="M202.41,208.756c1.831,33.203,6.424,59.314,9.349,74.404c1.765,9.182,4.134,8.752,6.458,8.752
				c2.344,0,6.724,0,8.578,0c4.415,0,4.744-12.689,4.744-12.689s-0.958-45.073,4.007-80.069
				C227.349,205.274,211.013,208.756,202.41,208.756z"/>
			<path fill="#39322E" d="M98.273,189.369c5.082,38.412,17.129,74.954,21.519,92.403c2.679,10.624,4.994,10.115,7.331,10.115
				c2.334,0,8.312,0,10.171,0c2.533,0,1.702-12.449,1.702-12.449s-8.96-34.676-7.395-75.172
				C121.108,203.408,105.943,197.655,98.273,189.369z"/>
			<path fill="#39322E" d="M65.323,175.43c3.96,31.485,6.155,83.522,10.368,104.374c2.524,12.689,5.352,12.107,8.15,12.107
				c2.828,0,4.377,0,6.613,0c5.307,0,5.121-17.547,5.121-17.547s1.085-42.621,7.945-91.163
				C93.001,177.242,75.403,173.561,65.323,175.43z"/>
			<g>
				<path fill="#7990C8" d="M155.269,33.03c9.333,0,19.135,4.39,26.162,12.942c3.634-7.733,14.002-12.199,24.676-12.199
					c14.707,0,29.974,8.514,28.838,28.829c5.057-2.954,10.367-4.245,15.589-4.245c20.163,0,38.829,19.163,34.857,35.312
					c-18.771,12.92,3.444,40.771-7.053,58.293c6.281,23.139-10.95,36.381-27.953,36.381c-7.825,0-15.595-2.799-21.016-8.717
					c2.571,13.862-11.807,23.072-27.44,23.072c-13.103,0-27.108-6.487-32.658-22.076c-10.244,13.903-21.672,19.112-31.928,19.112
					c-17.373,0-31.372-14.922-30.704-27.614c-3.545,1.793-7.597,2.625-11.721,2.625c-19.603,0-41.1-18.749-21.042-41.758
					c-11.506-2.268-21.595-9.675-21.595-23.414c0-7.996,6.936-21.848,23.199-21.848c2.635,0,5.538,0.38,8.666,1.186
					c-9.286-19.223,7.518-35.85,26.276-35.85c5.981,0,12.148,1.676,17.762,5.513C130.644,41.307,142.501,33.03,155.269,33.03
					 M155.269,8c-17.035,0-31.615,7.534-41.078,20.163c-1.259-0.092-2.499-0.139-3.77-0.139c-19.109,0-37.001,9.571-46.66,24.964
					c-2.549,4.048-4.431,8.337-5.639,12.755c-19.441,7.202-30.868,26.099-30.868,43.861c0,13.521,5.146,25.381,14.166,34.085
					c-1.493,8.717-0.405,17.509,3.368,25.799c7.645,16.801,25.479,28.484,45.36,30.122c1.692,2.486,3.596,4.883,5.74,7.142
					c10.877,11.465,25.976,18.024,41.455,18.024c10.13,0,19.957-2.774,29.002-8.037c9.89,7.066,22.114,11.003,35.584,11.003
					c15.504,0,30.037-5.551,39.851-15.001c2.824,0.417,5.677,0.658,8.606,0.658c17.484,0,33.921-7.86,43.972-21.013
					c8.154-10.64,11.582-23.768,9.94-37.7c3.815-12.626,1.493-25.027-0.275-34.626c-0.452-2.486-1.085-5.864-1.338-8.252
					c3.432-3.289,5.88-7.493,7.04-12.161c3.435-14.001-0.329-29.312-10.295-42.02c-11.25-14.356-28.936-23.49-46.625-24.217
					c-1.98-3.305-4.159-6.019-6.227-8.217c-9.893-10.453-24.641-16.434-40.471-16.434c-9.083,0-17.689,1.917-25.153,5.399
					C173.003,10.144,164.236,8,155.269,8L155.269,8z"/>
			</g>
			<path fill="#6E6962" d="M371.801,138.116c5.304-22.045-24.224-91.211-105.367-66.782c-41.378-18.983-60.371,14.558-60.602,22.996
				c-0.262,9.188,31.896,9.957,42.757,8.789c-2.809,3.896-0.196,0.797-1.929,12.809c-2.167,15.048,2.347,27.494,12.101,40.673
				C276.868,180.962,401.721,187.136,371.801,138.116z M325.315,126.809c-4.387-0.614-7.455-4.725-6.841-9.172
				c0.614-4.441,4.665-7.533,9.049-6.92c4.358,0.642,7.429,4.738,6.813,9.172C333.718,124.339,329.67,127.423,325.315,126.809z"/>
			<path fill="#E6D2DB" d="M306.471,130.541c0,6.882-5.579,12.458-12.458,12.458l0,0c-6.879,0-12.455-5.576-12.455-12.458l0,0
				c0-6.873,5.576-12.455,12.455-12.455l0,0C300.892,118.086,306.471,123.668,306.471,130.541L306.471,130.541z"/>
		</g>
	</g>
</g>
</svg>
