<?xml version="1.0" encoding="utf-8"?>
<!-- Generator: Adobe Illustrator 17.0.0, SVG Export Plug-In . SVG Version: 6.00 Build 0)  -->
<!DOCTYPE svg PUBLIC "-//W3C//DTD SVG 1.1 Basic//EN" "http://www.w3.org/Graphics/SVG/1.1/DTD/svg11-basic.dtd">
<svg version="1.1" baseProfile="basic" id="Слой_1"
	 xmlns="http://www.w3.org/2000/svg" xmlns:xlink="http://www.w3.org/1999/xlink" x="0px" y="0px" width="161.216px"
	 height="145.931px" viewBox="0 0 161.216 145.931" xml:space="preserve">
<path fill="#7566A9" d="M94.253,2.843C79.83,45.004,38.843,60.6,0,72.821c9.98,16.153,21.327,25.178,29.037,29.884
	c1.207,0.898,2.433,1.783,3.694,2.643c33.85,23.093,26.086,23.803,31.597,33.064c5.511,9.252,23.91,12.002,30.778-3.637
	c6.873-15.648,32.513-30.923,50.794-58.24c6.365-9.512,11.469-20.321,15.316-32.285C140.875,28.359,120.138,13.7,99.032,0
	C97.291,0.849,95.006,1.336,94.253,2.843z"/>
</svg>
