<?xml version="1.0" encoding="utf-8"?>
<!-- Generator: Adobe Illustrator 17.0.0, SVG Export Plug-In . SVG Version: 6.00 Build 0)  -->
<!DOCTYPE svg PUBLIC "-//W3C//DTD SVG 1.1 Basic//EN" "http://www.w3.org/Graphics/SVG/1.1/DTD/svg11-basic.dtd">
<svg version="1.1" baseProfile="basic" id="Слой_1"
	 xmlns="http://www.w3.org/2000/svg" xmlns:xlink="http://www.w3.org/1999/xlink" x="0px" y="0px" width="288.5px" height="420px"
	 viewBox="0 0 288.5 420" xml:space="preserve">
<polygon fill="#A8A8A8" stroke="#272525" stroke-width="3" stroke-miterlimit="10" points="153.939,201.584 153.939,201.584 
	153.938,201.583 "/>
<path fill="#A8A8A8" stroke="#272525" stroke-width="3" stroke-miterlimit="10" d="M275.476,234.333
	c-1.571-42.565-8.107-57.22-23.898-82.318c-15.794-25.086-37.926-28.659-44.116-39.826c-4.591-8.283-7.785-21.459-15.378-26.425
	c2.264-2.557,4.606-5.526,6.81-8.908c0.396-0.61,2.31-3.714,4.879-7.929c30.904-5.928,33.613-23.5,35.152-35.644
	C240.47,21.056,233.032,8,233.032,8c-3.773,12.896-14.028,17.279-26.682,30.154c-10.802,10.994-5.861,25.798-3.86,29.834
	c-1.974,3.181-3.511,5.631-4.195,6.672c-1.757,2.678-4.238,5.944-7.63,9.399c-0.959-4.134-3.015-11.942-5.352-19.263
	c-0.834-3.641-2.344-10.127-4.221-17.407c0.066-0.115,0.14-0.226,0.174-0.358c0.156-0.597-0.05-1.275-0.528-1.948
	c-0.708-1.21-2.314-2.443-4.36-3.185c-3.011-1.09-5.793-0.706-6.206,0.873c-0.126,0.488,0.014,1.033,0.324,1.585
	c1.297,6.435,2.304,13.22,2.547,19.584c-0.51,6.72-0.676,14.005-0.688,18.646c-7.544-4.14-16.749-8.217-26.985-10.731
	c-1-0.247-5.109-1.114-10.988-2.312C88.833,11.114,60.13,20.92,43.729,29.253C27.312,37.576,8,62.671,8,62.671
	c19.958-4.427,37.784,12.334,68.627,25.997c24.823,10.997,47.67-7.352,55.256-15.438c4.995,1.074,8.795,1.921,10.615,2.377
	c7.56,1.892,17.851,5.789,29.819,13.75c-4.905,5.338-5.842,13.383-12.678,20.551c-2.865,3.011-7.68,6.863-13.454,11.744
	c-2.397,1.957-5.165,4.338-8.171,7.134c-11.133,10.104-23.836,23.581-33.06,41.473c-12.166,21.269-21.479,48.543-20.5,81.644
	c0.244,9.047,0.946,17.412,2.013,25.155c0.004,0.028,0.007,0.056,0.01,0.084c0.008,0.065,0.018,0.13,0.026,0.195
	c0.017,0.122,0.033,0.246,0.05,0.368c0.556,4.306,1.333,8.751,2.357,13.277c9.776,45.472,32.946,65.509,45.879,73.403
	c1.207,0.898,2.433,1.783,3.694,2.643c33.85,23.093,26.086,23.803,31.597,33.064c5.511,9.252,23.91,12.002,30.778-3.637
	c6.873-15.648,32.513-30.923,50.794-58.24C268.983,312.316,277.051,276.89,275.476,234.333z"/>
</svg>
