<?xml version="1.0" encoding="utf-8"?>
<!-- Generator: Adobe Illustrator 17.0.0, SVG Export Plug-In . SVG Version: 6.00 Build 0)  -->
<!DOCTYPE svg PUBLIC "-//W3C//DTD SVG 1.1 Basic//EN" "http://www.w3.org/Graphics/SVG/1.1/DTD/svg11-basic.dtd">
<svg version="1.1" baseProfile="basic" id="Слой_1"
	 xmlns="http://www.w3.org/2000/svg" xmlns:xlink="http://www.w3.org/1999/xlink" x="0px" y="0px" width="288.5px" height="420px"
	 viewBox="0 0 288.5 420" xml:space="preserve">
<path fill="#A8A8A8" stroke="#272525" stroke-width="3" stroke-miterlimit="10" d="M199.253,264.844
	c-14.423,42.161-55.41,57.757-94.253,69.978c9.98,16.153,21.327,25.178,29.037,29.884c1.208,0.898,2.433,1.783,3.694,2.643
	c33.85,23.093,26.086,23.803,31.597,33.064c5.511,9.252,23.91,12.002,30.778-3.637c6.873-15.648,32.513-30.923,50.794-58.24
	c6.365-9.512,11.469-20.321,15.316-32.285C245.875,290.359,225.137,275.7,204.032,262
	C202.291,262.849,200.006,263.336,199.253,264.844z"/>
<path fill="#A8A8A8" stroke="#272525" stroke-width="3" stroke-miterlimit="10" d="M85.07,251.76
	c0.244,9.047,0.946,17.412,2.013,25.155c0.004,0.028,0.007,0.056,0.01,0.084c0.008,0.065,0.018,0.13,0.026,0.195
	c0.017,0.122,0.033,0.246,0.05,0.368c0.556,4.306,1.333,8.751,2.357,13.277c3.948,18.364,10.082,32.576,16.842,43.519
	c38.843-12.221,79.829-27.817,94.253-69.978c0.754-1.507,3.038-1.994,4.78-2.843C169.005,237.912,131.507,217.16,93.008,198
	C87.685,213.753,84.476,231.677,85.07,251.76z"/>
<path fill="#A8A8A8" stroke="#272525" stroke-width="3" stroke-miterlimit="10" d="M242.014,139.823
	c-14.085-14.527-29.542-18.594-34.552-27.633c-4.591-8.283-7.785-21.459-15.378-26.425c2.264-2.557,4.606-5.526,6.81-8.908
	c0.396-0.61,2.31-3.714,4.879-7.929c30.904-5.928,33.613-23.5,35.152-35.644C240.471,21.056,233.032,8,233.032,8
	c-3.773,12.896-14.028,17.279-26.682,30.154c-10.802,10.994-5.861,25.798-3.86,29.834c-1.974,3.181-3.511,5.631-4.195,6.672
	c-1.757,2.678-4.238,5.944-7.63,9.399c-0.959-4.134-3.015-11.942-5.352-19.263c-0.834-3.641-2.344-10.127-4.221-17.407
	c0.066-0.115,0.14-0.226,0.174-0.358c0.156-0.597-0.05-1.275-0.528-1.948c-0.708-1.21-2.314-2.443-4.36-3.185
	c-3.011-1.09-5.793-0.706-6.206,0.873c-0.126,0.488,0.014,1.033,0.324,1.585c1.297,6.435,2.304,13.22,2.547,19.584
	c-0.51,6.72-0.676,14.005-0.688,18.646c-7.544-4.14-16.749-8.217-26.985-10.731c-1-0.247-5.109-1.114-10.988-2.312
	C88.833,11.114,60.13,20.92,43.729,29.253C27.312,37.576,8,62.671,8,62.671c19.958-4.427,37.784,12.334,68.627,25.997
	c24.823,10.997,47.67-7.352,55.256-15.438c4.995,1.074,8.795,1.921,10.615,2.377c7.56,1.892,17.851,5.789,29.819,13.75
	c-4.905,5.338-5.842,13.383-12.678,20.551c-2.865,3.011-7.68,6.863-13.454,11.744c-2.397,1.957-5.165,4.338-8.171,7.134
	c-0.911,0.827-1.835,1.685-2.764,2.557c17.517,2.805,35.074,10.709,50.296,18.625C202.747,158.567,223.242,150.676,242.014,139.823z
	"/>
<path fill="#A8A8A8" stroke="#272525" stroke-width="3" stroke-miterlimit="10" d="M185.347,149.715
	c-0.064-0.031-0.128-0.058-0.192-0.09c-15.223-7.916-32.779-15.819-50.296-18.625c-10.427,9.791-21.826,22.488-30.296,38.916
	C99.779,178.28,95.45,187.588,92,197.8c27.571,13.721,54.624,28.267,81.131,44.089C189.223,213.326,178.295,179.851,185.347,149.715
	z"/>
<path fill="#A8A8A8" stroke="#272525" stroke-width="3" stroke-miterlimit="10" d="M274.952,234.51
	c-1.571-42.565-8.107-57.22-23.899-82.318c-3.009-4.779-6.249-8.774-9.563-12.192c-18.703,10.813-39.114,18.681-56.274,10.235
	c-7.052,30.136,3.877,63.611-12.216,92.175c31.972,19.083,63.147,40.027,93.446,63.699
	C273.073,285.497,275.949,261.437,274.952,234.51z"/>
</svg>
