<?xml version="1.0" encoding="utf-8"?>
<!-- Generator: Adobe Illustrator 17.0.0, SVG Export Plug-In . SVG Version: 6.00 Build 0)  -->
<!DOCTYPE svg PUBLIC "-//W3C//DTD SVG 1.1 Basic//EN" "http://www.w3.org/Graphics/SVG/1.1/DTD/svg11-basic.dtd">
<svg version="1.1" baseProfile="basic" id="Слой_1"
	 xmlns="http://www.w3.org/2000/svg" xmlns:xlink="http://www.w3.org/1999/xlink" x="0px" y="0px" width="120.401px"
	 height="136.358px" viewBox="0 0 120.401 136.358" xml:space="preserve">
<path fill="#D36234" d="M0.07,53.76c0.244,9.047,0.946,17.412,2.013,25.155c0.004,0.028,0.007,0.056,0.01,0.084
	c0.008,0.065,0.018,0.13,0.026,0.195c0.017,0.122,0.033,0.246,0.05,0.368c0.556,4.306,1.333,8.751,2.357,13.277
	c3.948,18.364,10.082,32.576,16.842,43.519c38.843-12.221,79.829-27.817,94.253-69.978c0.754-1.507,3.038-1.994,4.78-2.843
	C84.004,39.911,46.506,19.159,8.007,0C2.686,15.753-0.523,33.677,0.07,53.76z"/>
</svg>
