<?xml version="1.0" encoding="utf-8"?>
<!-- Generator: Adobe Illustrator 17.0.0, SVG Export Plug-In . SVG Version: 6.00 Build 0)  -->
<!DOCTYPE svg PUBLIC "-//W3C//DTD SVG 1.1 Basic//EN" "http://www.w3.org/Graphics/SVG/1.1/DTD/svg11-basic.dtd">
<svg version="1.1" baseProfile="basic" id="Слой_1"
	 xmlns="http://www.w3.org/2000/svg" xmlns:xlink="http://www.w3.org/1999/xlink" x="0px" y="0px" width="234.014px"
	 height="145.62px" viewBox="0 0 234.014 145.62" xml:space="preserve">
<path fill="#CE9538" d="M234.014,131.823c-14.085-14.527-29.542-18.594-34.552-27.633c-4.591-8.283-7.785-21.459-15.378-26.425
	c2.264-2.557,4.606-5.526,6.81-8.908c0.396-0.61,2.31-3.714,4.879-7.929c30.904-5.928,33.613-23.5,35.152-35.644
	C232.471,13.057,225.032,0,225.032,0c-3.773,12.896-14.027,17.279-26.682,30.154c-10.802,10.994-5.861,25.798-3.86,29.834
	c-1.974,3.181-3.511,5.63-4.195,6.672c-1.757,2.678-4.238,5.944-7.63,9.399c-0.959-4.134-3.015-11.942-5.352-19.263
	c-0.834-3.641-2.344-10.127-4.221-17.407c0.066-0.115,0.14-0.226,0.174-0.358c0.156-0.597-0.05-1.275-0.528-1.948
	c-0.708-1.21-2.314-2.443-4.36-3.185c-3.011-1.09-5.793-0.706-6.206,0.873c-0.126,0.488,0.014,1.033,0.324,1.585
	c1.297,6.435,2.304,13.22,2.547,19.584c-0.51,6.72-0.676,14.005-0.688,18.645c-7.544-4.14-16.749-8.217-26.985-10.731
	c-1-0.247-5.109-1.114-10.988-2.312C80.834,3.115,52.13,12.921,35.73,21.254C19.312,29.576,0,54.671,0,54.671
	c19.958-4.427,37.784,12.334,68.627,25.997c24.823,10.997,47.67-7.352,55.256-15.438c4.995,1.074,8.795,1.921,10.615,2.377
	c7.56,1.892,17.851,5.789,29.819,13.75c-4.905,5.338-5.842,13.383-12.678,20.551c-2.865,3.011-7.68,6.863-13.453,11.744
	c-2.397,1.957-5.165,4.338-8.171,7.134c-0.911,0.827-1.835,1.685-2.764,2.557c17.517,2.805,35.074,10.709,50.296,18.625
	C194.747,150.567,215.241,142.676,234.014,131.823z"/>
</svg>
