<?xml version="1.0" encoding="utf-8"?>
<!-- Generator: Adobe Illustrator 17.0.0, SVG Export Plug-In . SVG Version: 6.00 Build 0)  -->
<!DOCTYPE svg PUBLIC "-//W3C//DTD SVG 1.1 Basic//EN" "http://www.w3.org/Graphics/SVG/1.1/DTD/svg11-basic.dtd">
<svg version="1.1" baseProfile="basic" id="Слой_1"
	 xmlns="http://www.w3.org/2000/svg" xmlns:xlink="http://www.w3.org/1999/xlink" x="0px" y="0px" width="288.5px" height="420px"
	 viewBox="0 0 288.5 420" xml:space="preserve">
<path fill="#F3EA7F" stroke="#FFFFFF" stroke-width="6" stroke-miterlimit="10" d="M275.474,234.333
	c-1.571-42.565-8.107-57.22-23.898-82.318c-15.794-25.086-37.926-28.659-44.116-39.826c-4.59-8.281-7.784-21.454-15.375-26.423
	c2.263-2.556,4.605-5.529,6.809-8.909c0.396-0.61,2.31-3.715,4.88-7.93c30.903-5.927,33.613-23.499,35.151-35.643
	C240.471,21.056,233.032,8,233.032,8c-3.774,12.896-14.028,17.279-26.682,30.154c-10.803,10.995-5.861,25.799-3.86,29.834
	c-1.974,3.181-3.511,5.63-4.196,6.672c-1.757,2.678-4.239,5.944-7.63,9.399c-0.959-4.134-3.015-11.942-5.352-19.263
	c-0.834-3.641-2.344-10.127-4.221-17.407c0.066-0.115,0.14-0.227,0.174-0.359c0.144-0.548-0.022-1.165-0.419-1.783
	c-0.652-1.262-2.33-2.574-4.469-3.35c-3.012-1.09-5.794-0.707-6.206,0.873c-0.13,0.504,0.001,1.07,0.336,1.641
	c1.292,6.418,2.293,13.183,2.535,19.528c-0.509,6.712-0.677,14.004-0.689,18.645c-7.543-4.14-16.748-8.216-26.983-10.731
	c-1-0.247-5.109-1.114-10.989-2.312C88.833,11.114,60.13,20.921,43.729,29.253C27.312,37.576,8,62.671,8,62.671
	c19.958-4.427,37.784,12.334,68.627,25.998c24.823,10.996,47.671-7.353,55.256-15.439c4.995,1.074,8.795,1.92,10.616,2.377
	c7.56,1.891,17.85,5.788,29.818,13.749c-4.906,5.338-5.842,13.384-12.679,20.551c-2.879,3.026-7.727,6.901-13.538,11.816
	c-2.353,1.924-5.058,4.251-7.995,6.979c-11.161,10.119-23.916,23.63-33.167,41.586c-12.158,21.265-21.462,48.53-20.484,81.616
	c0.245,9.06,0.948,17.437,2.017,25.19c0.002,0.016,0.004,0.033,0.006,0.049c0.005,0.038,0.011,0.077,0.016,0.115
	c0.022,0.157,0.042,0.317,0.064,0.473c0.554,4.283,1.326,8.703,2.342,13.202c9.771,45.512,32.958,65.56,45.895,73.455
	c1.206,0.896,2.43,1.781,3.689,2.64c33.85,23.093,26.086,23.803,31.597,33.064c5.511,9.252,23.91,12.002,30.778-3.637
	c6.873-15.648,32.513-30.923,50.794-58.24C268.982,312.316,277.05,276.889,275.474,234.333z"/>
<polygon fill="#A8A8A8" stroke="#272525" stroke-width="3" stroke-miterlimit="10" points="153.939,201.584 153.939,201.584 
	153.938,201.583 "/>
<g id="Слой_x0020_1">
	<path fill="#0A7C00" d="M134.523,69.721c0.752,0.959-27.05,32.612-57.896,18.948C45.784,75.005,27.958,58.244,8,62.671
		c0,0,19.312-25.095,35.729-33.418C60.147,20.912,88.892,11.09,134.523,69.721z"/>
	<path fill="#0A7C00" d="M203.167,69.049c-0.519,0.101-9.47-18.017,3.183-30.895C219.004,25.279,229.258,20.896,233.032,8
		c0,0,7.439,13.056,5.893,25.284C237.376,45.508,234.655,63.239,203.167,69.049z"/>
	<path fill="#2CA81B" d="M232.767,10.355c0,0-7.782,20.299-12.069,27.688c-4.282,7.389-19.746,32.573-22.404,36.617
		c-3.553,5.416-10.058,13.235-21.099,20.169l2.545,2.16c0,0,10.621-7.045,19.154-20.132c1.325-2.039,19.536-31.834,22.866-38.438
		C225.09,31.831,232.767,10.355,232.767,10.355z"/>
	<path fill="#2CA81B" d="M12.938,60.132c0,0,38.197-2.608,53.362-0.037c15.167,2.56,67.619,13.361,76.199,15.512
		c11.48,2.872,29.253,10.364,49.64,29.695l1.107-8.411c0,0-20.181-18.234-47.876-25.038c-4.312-1.066-66.304-13.625-79.415-14.722
		C52.843,56.027,12.938,60.132,12.938,60.132z"/>
	<path fill="#FFCC00" d="M86.477,277.143c3.741,29.929,18.158,66.79,52.006,89.885c33.85,23.093,26.086,23.803,31.597,33.064
		c5.511,9.252,23.91,12.002,30.778-3.637c6.873-15.648,32.513-30.923,50.794-58.24c17.33-25.899,25.398-61.326,23.822-103.882
		c-1.571-42.565-8.107-57.22-23.898-82.318c-15.794-25.086-37.926-28.659-44.116-39.826c-6.185-11.159-9.827-31.214-25.121-28.086
		c-15.291,3.124-12.768,15.391-22.701,25.804c-9.926,10.434-43.196,30.876-59.031,69.756
		C84.776,218.536,82.486,245.237,86.477,277.143z"/>
	<path fill="#2CA81B" d="M170.24,43.087c1.422,6.804,2.543,14.07,2.802,20.852c-0.772,10.18-0.759,21.696-0.608,23.27
		c0.278,2.874,4.705,5.137,9.893,5.034c5.192-0.098,9.176-2.511,8.904-5.391c-0.145-1.501-2.78-12.223-5.919-22.056
		c-0.848-3.702-2.394-10.343-4.315-17.772L170.24,43.087z"/>
	<path fill="#9AC24D" d="M181.265,47.03c-0.407,1.577-3.188,1.967-6.203,0.866c-3.014-1.087-5.122-3.254-4.71-4.831
		c0.402-1.575,3.184-1.954,6.204-0.86C179.569,43.299,181.679,45.452,181.265,47.03z"/>
	<path fill="#DFFC00" d="M181.094,46.732c-0.415,1.575-3.193,1.96-6.203,0.86c-3.02-1.087-5.125-3.251-4.72-4.822
		c0.412-1.58,3.194-1.963,6.206-0.873C179.393,42.991,181.502,45.152,181.094,46.732z"/>
	<path fill="#FFD429" d="M155.259,114.872c0,0-73.467,46.988-70.805,137.032c2.666,98.804,59.46,116.997,59.46,116.997
		s-28.637-73.187-11.351-109.066C149.858,223.939,173.095,157.792,155.259,114.872z"/>
</g>
</svg>
