<?xml version="1.0" encoding="utf-8"?>
<!-- Generator: Adobe Illustrator 17.0.0, SVG Export Plug-In . SVG Version: 6.00 Build 0)  -->
<!DOCTYPE svg PUBLIC "-//W3C//DTD SVG 1.1 Basic//EN" "http://www.w3.org/Graphics/SVG/1.1/DTD/svg11-basic.dtd">
<svg version="1.1" baseProfile="basic" id="Слой_1"
	 xmlns="http://www.w3.org/2000/svg" xmlns:xlink="http://www.w3.org/1999/xlink" x="0px" y="0px" width="42.114px"
	 height="177.88px" viewBox="0 0 42.114 177.88" xml:space="preserve">
<path fill="#BAAE52" d="M42.082,60.744c-0.011-0.05-0.054-0.119-0.142-0.214c-3.242-3.492-4.418-12.989-4.632-14.524
	c-0.109-0.785-1.27-1.652-2.545-2.319c-0.198-0.117-0.421-0.238-0.667-0.355c0.408-9.578-0.061-19.165-2.628-26.21
	c-2.47-6.78,1.466-9.67,4.463-17.122c0,0-6.485,2.041-10.2,10.171c-0.039-0.092-0.085-0.173-0.131-0.249
	c-0.077-0.129-0.179-0.213-0.262-0.251c-0.028-0.013-0.055,0-0.081,0.014c-0.001-0.002-0.002-0.005-0.003-0.007
	c0.008-0.008,0.015-0.018,0.02-0.031c0.027-0.077,0.037-0.202,0.011-0.326c-0.019-0.091-0.046-0.205-0.094-0.305
	c-0.051-0.106-0.117-0.176-0.18-0.25c-0.082-0.097-0.178-0.153-0.254-0.173c-0.034-0.009-0.06,0.019-0.087,0.038
	c-0.005-0.066-0.027-0.152-0.076-0.232c-0.04-0.066-0.092-0.147-0.157-0.212c-0.068-0.068-0.139-0.104-0.209-0.144
	c-0.067-0.039-0.132-0.052-0.189-0.057c0.001-0.003,0.003-0.005,0.003-0.009c0-0.068-0.026-0.169-0.08-0.258
	c-0.04-0.066-0.093-0.148-0.157-0.212c-0.068-0.068-0.139-0.104-0.208-0.144c-0.091-0.052-0.181-0.068-0.246-0.062
	c-0.034,0.003-0.046,0.045-0.067,0.067c-0.023,0.024-0.05,0.029-0.05,0.068c0,0.003,0.001,0.006,0.001,0.009
	c-0.027-0.029-0.055-0.057-0.082-0.081c-0.047-0.042-0.096-0.047-0.16-0.074c-0.058-0.023-0.125-0.067-0.183-0.071
	c-0.108-0.007-0.232,0.009-0.312,0.062c-0.017,0.011-0.034,0.022-0.051,0.034c-0.003-0.003-0.007-0.005-0.01-0.007
	c0.043-0.032,0.084-0.068,0.101-0.11c0.036-0.087,0.017-0.187-0.006-0.278c-0.025-0.1-0.128-0.211-0.211-0.289
	c-0.054-0.051-0.11-0.059-0.183-0.091c-0.067-0.029-0.143-0.082-0.21-0.088c-0.125-0.013-0.27,0.002-0.365,0.061
	c-0.001,0.001-0.002,0.001-0.003,0.002c-0.028-0.089-0.083-0.171-0.139-0.245c-0.086-0.115-0.279-0.201-0.429-0.256
	c-0.097-0.035-0.174-0.013-0.287-0.013c-0.102,0-0.23-0.026-0.32,0.004c-0.17,0.055-0.349,0.155-0.439,0.286
	c-0.049,0.07-0.103,0.141-0.133,0.219c-0.086-0.04-0.2-0.061-0.292-0.071C19.443,6.43,19.389,6.46,19.305,6.48
	c-0.076,0.018-0.176,0.022-0.237,0.06c-0.117,0.071-0.234,0.177-0.279,0.29c-0.035,0.087-0.082,0.176-0.061,0.269
	c0.02,0.087,0.093,0.165,0.155,0.226c0.021,0.021,0.046,0.039,0.074,0.055c-0.002,0.002-0.004,0.004-0.005,0.006
	c-0.022,0.008-0.044,0.016-0.067,0.024c-0.051-0.06-0.123-0.107-0.183-0.139c-0.051-0.027-0.091-0.011-0.149-0.011
	c-0.054,0-0.12-0.02-0.167,0.003c-0.088,0.043-0.182,0.121-0.229,0.224c-0.036,0.079-0.081,0.156-0.081,0.254
	c0,0.021,0.007,0.042,0.01,0.062c-0.008,0.005-0.016,0.01-0.024,0.015c-0.04-0.012-0.076-0.002-0.125-0.002
	c-0.053,0-0.12-0.02-0.167,0.003c-0.088,0.043-0.182,0.122-0.229,0.224c-0.011,0.023-0.022,0.047-0.033,0.07
	c-0.01-0.003-0.021-0.006-0.031-0.011c-0.026-0.013-0.05-0.047-0.083-0.037c-0.061,0.019-0.139,0.067-0.205,0.148
	c-0.05,0.063-0.104,0.123-0.145,0.21c-0.038,0.083-0.059,0.179-0.075,0.254c-0.003,0.019-0.005,0.037-0.007,0.056
	c-0.04,0.043-0.08,0.087-0.119,0.132c-0.024-0.016-0.049-0.035-0.078-0.025c-0.072,0.026-0.163,0.09-0.237,0.192
	c-0.057,0.078-0.118,0.153-0.161,0.262c-0.033,0.083-0.05,0.172-0.064,0.253c-0.091,0.129-0.181,0.264-0.271,0.405
	c-0.046,0.035-0.092,0.079-0.133,0.134c-0.07,0.091-0.144,0.178-0.199,0.305c-0.051,0.119-0.079,0.252-0.099,0.36
	c-0.055,0.148-0.113,0.333-0.171,0.55c-0.091,0.051-0.191,0.136-0.276,0.256c-0.084,0.119-0.175,0.233-0.237,0.398
	c-0.059,0.155-0.087,0.33-0.106,0.469c-0.026,0.189,0.003,0.375,0.051,0.485c0.029,0.066,0.081,0.071,0.135,0.092
	c0.012,0.005,0.023,0.01,0.035,0.015c-0.015-0.002-0.031-0.005-0.047-0.01c-0.053-0.018-0.108-0.076-0.169-0.05
	c-0.114,0.051-0.252,0.164-0.359,0.338c-0.082,0.133-0.171,0.262-0.227,0.442c-0.053,0.17-0.071,0.358-0.082,0.508
	c-0.015,0.204,0.029,0.4,0.086,0.515c0.035,0.069,0.091,0.07,0.151,0.089c0.024,0.008,0.048,0.017,0.072,0.023
	c-0.009-0.001-0.018-0.001-0.027-0.002c-0.066-0.013-0.14-0.074-0.207-0.033c-0.127,0.077-0.274,0.231-0.375,0.452
	c-0.078,0.169-0.165,0.334-0.205,0.556c-0.038,0.208-0.032,0.433-0.024,0.611c0.009,0.191,0.06,0.369,0.122,0.498
	c-0.12,0.099-0.245,0.245-0.341,0.436c-0.099,0.198-0.209,0.391-0.266,0.653c-0.054,0.246-0.056,0.514-0.053,0.727
	c0.003,0.189,0.042,0.367,0.094,0.513c-0.024,0.06-0.044,0.123-0.06,0.188c-0.019,0.003-0.039,0.006-0.061,0.006
	c-0.084,0-0.189-0.058-0.262,0.009c-0.139,0.125-0.285,0.351-0.36,0.648c-0.057,0.227-0.127,0.452-0.127,0.735
	c0,0.266,0.059,0.542,0.11,0.761c0.07,0.297,0.218,0.556,0.352,0.692c0.078,0.078,0.155,0.058,0.244,0.056
	c-0.005,0.018-0.012,0.035-0.016,0.054c-0.021,0.003-0.043,0.007-0.068,0.007c-0.088,0-0.198-0.061-0.276,0.009
	c-0.068,0.062-0.138,0.149-0.201,0.253c-1.889-5.407-5.643-6.918-7.467-6.578C2.633,16.56,1.282,18.067,0,20.917
	c3.202-1.721,4.584-1.469,5.801,0.208c0.788,1.392,2.476,4.549,3.914,8.407c0.082,0.322,0.159,0.656,0.234,1
	c-0.397-0.411-0.909-0.646-1.702-0.971c-1.708-0.701-4.167,0.605-5.086,1.157c-0.129,0.054-0.25,0.119-0.358,0.201
	c-0.338,0.256-0.596,0.557-0.78,0.903c-0.104,0.16-0.187,0.323-0.219,0.475c0,0,0.014-0.018,0.04-0.048
	c-0.477,1.448,0.111,3.551,1.602,6.345c0,0-0.183-4.886,2.494-6.528c0.508,0.451,1.009,1.05,1.368,1.828
	c0.173,0.455,0.322,0.953,0.449,1.49c0.377,2.115,0.547,6.027,0.622,8.779c-0.196,8.188-1.736,18.32-2.204,24.817
	c-0.889,12.333,4.091,16.399,7.245,18.218c-0.622,0.808-0.186,2.303,0.447,2.489c2.353,0.692,1.069,2.66,2.512,3.135
	c0.274,0.09,0.548,0.166,0.821,0.231l-3.767,84.827h15.246l-1.965-88.314c0.773-0.554,0.66-1.332,0.426-1.881
	c1.907-1.074,2.165-2.516,3.425-3.803c2.34-2.389,3.097-6.26,3.109-10.64c0.055-2.097-0.104-3.862-0.249-4.987
	c-0.099-1.068-0.221-2.144-0.356-3.217c0.1,0.533,0.159,0.843,0.159,0.843c-0.064-0.349-0.126-0.707-0.188-1.07
	c-0.156-1.216-0.327-2.427-0.5-3.614c0.316-2.602,0.623-5.357,0.888-8.196c0.328,0.489,0.684,1.018,1.076,1.597
	c4.055,5.99,6.555,6.3,7.34,6.21c0.162,0.036,0.25,0.021,0.244-0.052c0.017-0.006,0.026-0.01,0.026-0.01
	C42.099,60.747,42.09,60.745,42.082,60.744z M13.935,21.186c-0.007,0.003-0.016,0.003-0.023,0.006
	c-0.066,0.032-0.132,0.071-0.197,0.115c0.019-0.089,0.032-0.18,0.041-0.269c0.059,0.045,0.119,0.085,0.177,0.117
	c0.002,0.001,0.004,0.001,0.006,0.002C13.938,21.167,13.936,21.177,13.935,21.186z M14.615,14.944
	c-0.003-0.005-0.006-0.01-0.009-0.015c-0.023-0.034-0.047-0.045-0.074-0.05c0.017-0.003,0.035-0.009,0.053-0.019
	c0.026-0.015,0.054-0.033,0.08-0.053C14.647,14.851,14.63,14.897,14.615,14.944z M23.867,8.109
	c-0.001,0.003-0.003,0.003-0.003,0.007c-0.001,0.028,0.002,0.062,0.009,0.098c-0.026-0.016-0.051-0.031-0.078-0.047
	c-0.013-0.028-0.026-0.055-0.039-0.083C23.795,8.097,23.833,8.106,23.867,8.109z M23.352,7.846c0.007-0.018,0.01-0.036,0.013-0.054
	c0.013,0.019,0.03,0.038,0.046,0.056c-0.022,0.002-0.043,0.005-0.062,0.005C23.349,7.85,23.351,7.848,23.352,7.846z M21.39,7
	c0.021,0.054,0.052,0.109,0.091,0.16c-0.044-0.034-0.098-0.064-0.153-0.091C21.351,7.049,21.371,7.025,21.39,7z M19.99,7.082
	c0.004-0.011,0.01-0.025,0.015-0.038c0.036,0.035,0.079,0.067,0.124,0.096c-0.059,0.004-0.118,0.009-0.178,0.015
	C19.967,7.133,19.981,7.108,19.99,7.082z"/>
</svg>
