<?xml version="1.0" encoding="utf-8"?>
<!-- Generator: Adobe Illustrator 17.0.0, SVG Export Plug-In . SVG Version: 6.00 Build 0)  -->
<!DOCTYPE svg PUBLIC "-//W3C//DTD SVG 1.1 Basic//EN" "http://www.w3.org/Graphics/SVG/1.1/DTD/svg11-basic.dtd">
<svg version="1.1" baseProfile="basic" id="Слой_1"
	 xmlns="http://www.w3.org/2000/svg" xmlns:xlink="http://www.w3.org/1999/xlink" x="0px" y="0px" width="223.292px"
	 height="339.979px" viewBox="0 0 223.292 339.979" xml:space="preserve">
<g>
	<path fill="#FFFFFF" stroke="#FFFFFF" stroke-width="6" stroke-miterlimit="10" d="M190.433,148.666
		c11.954-14.599,19.075-32.476,19.075-51.863C209.508,47.761,164.396,8,108.757,8C53.111,8,8,47.761,8,96.803
		c0,19.387,7.121,37.265,19.075,51.863c1.414,1.987,41.265,58.372,44.653,82.153c2.416,17.016,3.134,25.258,3.348,28.66h-1.864
		c-7.14,0-12.923,4.229-12.923,9.445c0,5.21,5.782,9.444,12.921,9.445c-1.021,0-2.042,0-3.062,0c0,1.618,8.458,3.242,8.458,4.866
		s-8.458,3.248-8.458,4.872s8.458,3.248,8.458,4.872c0,1.624-8.458,3.242-8.458,4.866s8.458,3.248,8.458,4.872
		s-8.458,3.248-8.458,4.872c0,1.624,8.458,3.248,8.458,4.866c0,1.624-8.458,3.248-8.458,4.872c3.216,0,6.433,0,9.649,0
		s6.432,0,9.655,0c3.216,0,6.433,0,9.649,0s6.433,0,9.649,0c3.222,0,6.432,0,9.655,0c3.216,0,6.433,0,9.649,0s6.433,0,9.649,0
		c3.222,0,6.439,0,9.655,0c0-1.624-8.458-3.248-8.458-4.866c0-1.624,8.458-3.248,8.458-4.872s-8.458-3.248-8.458-4.872
		s8.458-3.248,8.458-4.872c0-1.618-8.458-3.242-8.458-4.866s8.458-3.248,8.458-4.872s-8.458-3.248-8.458-4.872
		c0-1.624,8.458-3.248,8.458-4.866c-1.02,0-2.04,0-3.06,0c7.133-0.001,12.921-4.235,12.921-9.445c0-5.216-5.79-9.445-12.923-9.445
		h-1.864c0.214-3.402,0.932-11.644,3.348-28.66C149.168,207.031,189.013,150.653,190.433,148.666z"/>
	<path fill="#FFFFFF" stroke="#FFFFFF" stroke-width="6" stroke-miterlimit="10" d="M70.148,322.385
		c0,1.548,2.484,2.815,5.516,2.815h15.005c0.198,2.051,2.828,3.688,6.019,3.688h24.132c3.184,0,5.815-1.637,6.019-3.688h14.999
		c3.038,0,5.522-1.267,5.522-2.815v-5.057H70.148V322.385z"/>
</g>
<g id="__x0023_Layer_x0020_1">
	<path id="path10308" fill="#F7D95A" d="M209.508,96.803C209.508,47.761,164.396,8,108.757,8C53.111,8,8,47.761,8,96.803
		c0,19.387,7.121,37.265,19.075,51.863c1.414,1.987,41.265,58.372,44.653,82.153c3.439,24.221,3.439,30.679,3.439,30.679
		l18.98,0.643l-0.038,0.974l14.642-0.49l14.642,0.49l-0.032-0.974l18.98-0.643c0,0,0-6.458,3.439-30.679
		c3.388-23.788,43.233-80.166,44.653-82.153C202.387,134.067,209.508,116.19,209.508,96.803z"/>
	<polygon fill="#6D6969" points="107.643,124.559 101.344,266.243 100.42,266.204 106.713,124.52 	"/>
	<polygon fill="#6D6969" points="112.362,124.533 115.515,266.211 114.585,266.23 111.438,124.546 	"/>
	<path id="path10348" fill="#989898" d="M157.219,268.924c0,5.21-5.789,9.445-12.923,9.445H73.212
		c-7.14,0-12.923-4.235-12.923-9.445l0,0c0-5.216,5.783-9.445,12.923-9.445h71.084C151.429,259.479,157.219,263.708,157.219,268.924
		L157.219,268.924z"/>
	<path id="rect10292" fill="#6E6F6F" d="M96.688,328.888h24.132c3.184,0,5.815-1.637,6.019-3.688h-36.17
		C90.867,327.251,93.497,328.888,96.688,328.888z"/>
	<path id="rect10300" fill="#121215" d="M75.664,325.2h66.174c3.038,0,5.522-1.267,5.522-2.815v-5.057H70.148v5.057
		C70.148,323.933,72.632,325.2,75.664,325.2z"/>
	<path id="rect10402" fill="#808080" d="M70.148,278.369c3.216,0,6.433,0,9.649,0s6.433,0,9.655,0c3.216,0,6.433,0,9.649,0
		s6.433,0,9.649,0c3.223,0,6.439,0,9.655,0s6.433,0,9.649,0c3.216,0,6.433,0,9.655,0c3.216,0,6.433,0,9.649,0
		c0,1.618-8.458,3.242-8.458,4.866s8.458,3.248,8.458,4.872s-8.458,3.248-8.458,4.872s8.458,3.248,8.458,4.866
		c0,1.624-8.458,3.248-8.458,4.872s8.458,3.248,8.458,4.872c0,1.624-8.458,3.248-8.458,4.872c0,1.618,8.458,3.242,8.458,4.866
		c-3.216,0-6.433,0-9.655,0c-3.216,0-6.433,0-9.649,0s-6.433,0-9.649,0c-3.223,0-6.433,0-9.655,0c-3.216,0-6.433,0-9.649,0
		s-6.433,0-9.649,0c-3.223,0-6.439,0-9.655,0c-3.216,0-6.433,0-9.649,0c0-1.624,8.458-3.248,8.458-4.872
		c0-1.618-8.458-3.242-8.458-4.866s8.458-3.248,8.458-4.872s-8.458-3.248-8.458-4.872s8.458-3.242,8.458-4.866
		s-8.458-3.248-8.458-4.872s8.458-3.248,8.458-4.872S70.148,279.987,70.148,278.369z"/>
	<path fill="#FFFFFF" d="M81.861,140.201c3.006,4.624,6.445,8.127,10.108,10.515c3.891,2.535,8.044,3.802,12.171,3.802
		c4.133,0,8.28-1.267,12.177-3.802c3.662-2.382,7.108-5.885,10.114-10.515c5.044-7.751,7.566-17.948,7.566-28.17
		s-2.522-20.419-7.566-28.17c-1.879-2.885-4.025-5.07-6.305-6.554c-2.401-1.56-4.955-2.344-7.49-2.344
		c-2.535,0-5.082,0.783-7.484,2.35c-2.274,1.478-4.414,3.662-6.293,6.547c-3.165,4.866-4.745,11.279-4.745,17.718
		s1.58,12.853,4.745,17.712c1.166,1.783,2.49,3.134,3.885,4.038c1.433,0.93,2.962,1.401,4.477,1.401
		c1.509,0,3.038-0.471,4.465-1.401c1.388-0.904,2.7-2.248,3.86-4.025l2.656,1.726c-1.408,2.159-3.038,3.809-4.789,4.955
		c-1.962,1.28-4.076,1.917-6.191,1.917c-2.121,0-4.235-0.637-6.203-1.917c-1.758-1.146-3.401-2.802-4.809-4.968
		c-3.516-5.395-5.274-12.432-5.274-19.438s1.758-14.044,5.274-19.444c2.121-3.267,4.579-5.758,7.222-7.477
		c2.917-1.904,6.057-2.853,9.203-2.853c3.153,0,6.293,0.949,9.216,2.847c2.643,1.72,5.108,4.216,7.235,7.484
		c5.395,8.286,8.089,19.107,8.089,29.896c0,10.795-2.694,21.61-8.089,29.896c-3.261,5.006-7.019,8.821-11.05,11.445
		c-4.414,2.872-9.152,4.305-13.897,4.305s-9.483-1.433-13.897-4.312c-4.025-2.618-7.783-6.433-11.037-11.439L81.861,140.201z"/>
</g>
</svg>
