<?xml version="1.0" encoding="utf-8"?>
<!-- Generator: Adobe Illustrator 17.0.0, SVG Export Plug-In . SVG Version: 6.00 Build 0)  -->
<!DOCTYPE svg PUBLIC "-//W3C//DTD SVG 1.1 Basic//EN" "http://www.w3.org/Graphics/SVG/1.1/DTD/svg11-basic.dtd">
<svg version="1.1" baseProfile="basic" id="Слой_1"
	 xmlns="http://www.w3.org/2000/svg" xmlns:xlink="http://www.w3.org/1999/xlink" x="0px" y="0px" width="223.292px"
	 height="339.979px" viewBox="0 0 223.292 339.979" xml:space="preserve">
<path fill="#F7D95A" stroke="#FFFFFF" stroke-width="6" stroke-miterlimit="10" d="M190.433,148.665
	c11.954-14.598,19.075-32.475,19.075-51.863C209.508,47.761,164.396,8,108.757,8C53.111,8,8,47.761,8,96.803
	c0,19.387,7.121,37.265,19.075,51.863c1.414,1.987,41.265,58.372,44.653,82.153c2.416,17.016,3.134,25.258,3.348,28.66h-1.864
	c-7.14,0-12.923,4.229-12.923,9.445c0,5.21,5.783,9.445,12.923,9.445c-1.021,0-2.042,0-3.063,0c0,1.618,8.458,3.242,8.458,4.866
	c0,1.624-8.458,3.248-8.458,4.872s8.458,3.248,8.458,4.872s-8.458,3.242-8.458,4.866s8.458,3.248,8.458,4.872
	s-8.458,3.248-8.458,4.872s8.458,3.248,8.458,4.866c0,1.624-8.458,3.248-8.458,4.872v5.057c0,1.548,2.484,2.815,5.516,2.815h15.005
	c0.197,2.051,2.828,3.688,6.019,3.688h24.132c3.185,0,5.815-1.637,6.019-3.688h14.999c3.038,0,5.522-1.267,5.522-2.815v-5.057
	c0-1.624-8.458-3.248-8.458-4.866c0-1.624,8.458-3.248,8.458-4.872s-8.458-3.248-8.458-4.872s8.458-3.248,8.458-4.872
	c0-1.618-8.458-3.242-8.458-4.866s8.458-3.248,8.458-4.872s-8.458-3.248-8.458-4.872c0-1.624,8.458-3.248,8.458-4.866
	c-1.021,0-2.042,0-3.063,0c7.133,0,12.923-4.235,12.923-9.445c0-5.216-5.789-9.445-12.923-9.445h-1.864
	c0.214-3.402,0.932-11.644,3.348-28.66C149.168,207.03,189.013,150.652,190.433,148.665z M100.719,259.479l4.523-101.843
	c-0.367,0.017-0.735,0.042-1.102,0.042c-4.745,0-9.483-1.433-13.897-4.312c-4.025-2.618-7.783-6.433-11.037-11.439l2.656-1.726
	c3.006,4.624,6.445,8.127,10.107,10.515c3.892,2.535,8.044,3.802,12.171,3.802c0.414,0,0.829-0.022,1.243-0.048l1.182-26.618
	c-1.899-0.118-3.782-0.72-5.546-1.868c-1.758-1.146-3.401-2.802-4.808-4.968c-3.516-5.395-5.274-12.432-5.274-19.438
	c0-7.006,1.758-14.044,5.274-19.444c2.121-3.267,4.579-5.758,7.222-7.477c2.917-1.904,6.057-2.853,9.203-2.853
	c3.153,0,6.293,0.949,9.216,2.847c2.643,1.72,5.108,4.216,7.235,7.484c5.395,8.286,8.089,19.107,8.089,29.896
	c0,10.795-2.694,21.61-8.089,29.896c-3.261,5.006-7.019,8.821-11.05,11.445c-1.62,1.054-3.284,1.911-4.976,2.577l2.304,103.53
	H100.719z"/>
<g>
	<path id="path10348_1_" fill="#989898" d="M157.219,268.924c0,5.21-5.789,9.445-12.923,9.445H73.212
		c-7.14,0-12.923-4.235-12.923-9.445l0,0c0-5.216,5.783-9.445,12.923-9.445h71.084C151.429,259.479,157.219,263.708,157.219,268.924
		L157.219,268.924z"/>
	<path id="rect10292_1_" fill="#6E6F6F" d="M96.688,328.888h24.132c3.184,0,5.815-1.637,6.019-3.688H90.669
		C90.867,327.251,93.497,328.888,96.688,328.888z"/>
	<path id="rect10300_1_" fill="#121215" d="M75.664,325.2h66.174c3.038,0,5.522-1.267,5.522-2.815v-5.057H70.148v5.057
		C70.148,323.933,72.632,325.2,75.664,325.2z"/>
	<path id="rect10402_1_" fill="#808080" d="M70.148,278.369c3.216,0,6.433,0,9.649,0s6.433,0,9.655,0c3.216,0,6.433,0,9.649,0
		s6.433,0,9.649,0c3.223,0,6.439,0,9.655,0s6.433,0,9.649,0c3.216,0,6.433,0,9.655,0c3.216,0,6.433,0,9.649,0
		c0,1.618-8.458,3.242-8.458,4.866c0,1.624,8.458,3.248,8.458,4.872s-8.458,3.248-8.458,4.872s8.458,3.248,8.458,4.866
		c0,1.624-8.458,3.248-8.458,4.872s8.458,3.248,8.458,4.872s-8.458,3.248-8.458,4.872c0,1.618,8.458,3.242,8.458,4.866
		c-3.216,0-6.433,0-9.655,0c-3.216,0-6.433,0-9.649,0c-3.216,0-6.433,0-9.649,0c-3.223,0-6.433,0-9.655,0c-3.216,0-6.433,0-9.649,0
		s-6.433,0-9.649,0c-3.223,0-6.439,0-9.655,0s-6.433,0-9.649,0c0-1.624,8.458-3.248,8.458-4.872c0-1.618-8.458-3.242-8.458-4.866
		s8.458-3.248,8.458-4.872s-8.458-3.248-8.458-4.872s8.458-3.242,8.458-4.866s-8.458-3.248-8.458-4.872s8.458-3.248,8.458-4.872
		C78.606,281.611,70.148,279.987,70.148,278.369z"/>
	<path fill="#F7D95A" d="M108.757,8C53.111,8,8,47.761,8,96.803c0,19.387,7.121,37.265,19.075,51.863
		c1.414,1.987,41.265,58.372,44.653,82.153c2.416,17.016,3.134,25.258,3.348,28.66h25.643l4.523-101.843
		c-0.367,0.017-0.735,0.042-1.102,0.042c-4.745,0-9.483-1.433-13.897-4.312c-4.025-2.618-7.783-6.433-11.037-11.439l2.656-1.726
		c3.006,4.624,6.445,8.127,10.107,10.515c3.892,2.535,8.044,3.802,12.171,3.802c0.414,0,0.829-0.022,1.243-0.048l1.182-26.618
		c-1.899-0.118-3.782-0.72-5.546-1.868c-1.758-1.146-3.401-2.802-4.808-4.968c-3.516-5.395-5.274-12.432-5.274-19.438
		c0-7.006,1.758-14.044,5.274-19.444c2.121-3.267,4.579-5.758,7.222-7.477c2.917-1.904,6.057-2.853,9.203-2.853
		c3.153,0,6.293,0.949,9.216,2.847c2.643,1.72,5.108,4.216,7.235,7.484c5.394,8.286,8.088,19.107,8.088,29.896
		c0,10.795-2.694,21.61-8.088,29.896c-3.261,5.006-7.019,8.821-11.05,11.445c-1.62,1.054-3.284,1.91-4.976,2.577l2.304,103.53
		h27.067c0.214-3.402,0.932-11.644,3.348-28.66c3.388-23.788,43.233-80.166,44.653-82.153
		c11.954-14.598,19.075-32.475,19.075-51.863C209.508,47.761,164.396,8,108.757,8z"/>
</g>
</svg>
