<?xml version="1.0" encoding="utf-8"?>
<!-- Generator: Adobe Illustrator 17.0.0, SVG Export Plug-In . SVG Version: 6.00 Build 0)  -->
<!DOCTYPE svg PUBLIC "-//W3C//DTD SVG 1.1 Basic//EN" "http://www.w3.org/Graphics/SVG/1.1/DTD/svg11-basic.dtd">
<svg version="1.1" baseProfile="basic" id="Слой_1"
	 xmlns="http://www.w3.org/2000/svg" xmlns:xlink="http://www.w3.org/1999/xlink" x="0px" y="0px" width="306.75px"
	 height="386.5px" viewBox="0 0 306.75 386.5" xml:space="preserve">
<polygon fill="#A8A8A8" stroke="#272525" stroke-width="3" stroke-miterlimit="10" points="153.939,201.584 153.939,201.584 
	153.938,201.583 "/>
<polygon fill="#A8A8A8" stroke="#272525" stroke-width="3" stroke-miterlimit="10" points="557.307,189.762 557.307,189.762 
	557.306,189.761 "/>
<path fill="#A8A8A8" stroke="#272525" stroke-width="3" stroke-miterlimit="10" d="M290.528,218.304
	c-1.912-38.244-9.861-51.411-29.073-73.962c-19.214-22.539-46.135-25.749-53.664-35.782c-6.215-8.282-10.328-22.003-22.05-24.949
	c2.294-2.557,4.685-5.562,6.928-9.001c0.384-0.59,2.235-3.593,4.721-7.671c29.895-5.735,32.515-22.734,34.004-34.481
	C232.89,20.631,225.695,8,225.695,8c-3.651,12.474-13.571,16.715-25.811,29.169c-10.449,10.635-5.672,24.955-3.736,28.86
	c-1.909,3.077-3.396,5.447-4.058,6.454c-1.7,2.591-4.101,5.75-7.382,9.092c-0.928-3.999-2.916-11.552-5.176-18.635
	c-0.81-3.521-2.271-9.797-4.085-16.839c0.064-0.111,0.135-0.219,0.168-0.346c0.139-0.529-0.022-1.126-0.405-1.723
	c-0.63-1.221-2.253-2.492-4.324-3.243c-2.912-1.054-5.604-0.683-6.003,0.845c-0.126,0.488,0.001,1.035,0.325,1.588
	c1.249,6.209,2.217,12.752,2.453,18.889c-0.494,6.503-0.655,13.552-0.667,18.04c-7.298-4.005-16.203-7.949-26.106-10.382
	c-0.968-0.24-4.941-1.078-10.628-2.237C86.197,11.01,58.43,20.497,42.565,28.559C26.683,36.611,8,60.886,8,60.886
	c19.306-4.283,36.552,11.932,66.39,25.152c24.012,10.636,46.114-7.112,53.453-14.935c4.833,1.039,8.509,1.859,10.271,2.3
	c7.314,1.83,17.27,5.6,28.849,13.302c-7.729,4.707-8.208,12.731-17.343,19.806c-3.482,2.703-9.333,6.159-16.347,10.539
	c-2.922,1.762-6.299,3.907-9.967,6.427c-13.536,9.075-28.979,21.176-40.197,37.242c-14.805,19.112-26.141,43.623-24.95,73.373
	c0.297,8.141,1.153,15.667,2.454,22.633c0.003,0.016,0.005,0.031,0.008,0.047c0.006,0.036,0.014,0.072,0.02,0.108
	c0.026,0.138,0.05,0.278,0.076,0.415c0.677,3.871,1.624,7.866,2.87,11.934c11.893,40.829,40.059,58.827,55.791,65.922
	c1.473,0.809,2.967,1.606,4.505,2.381c41.18,20.748,31.732,21.386,38.438,29.708c6.703,8.311,29.088,10.781,37.442-3.27
	c8.359-14.058,39.55-27.784,61.788-52.328C282.631,288.371,292.444,256.541,290.528,218.304z"/>
</svg>
