<?xml version="1.0" encoding="utf-8"?>
<!-- Generator: Adobe Illustrator 17.0.0, SVG Export Plug-In . SVG Version: 6.00 Build 0)  -->
<!DOCTYPE svg PUBLIC "-//W3C//DTD SVG 1.1 Basic//EN" "http://www.w3.org/Graphics/SVG/1.1/DTD/svg11-basic.dtd">
<svg version="1.1" baseProfile="basic" id="Слой_1"
	 xmlns="http://www.w3.org/2000/svg" xmlns:xlink="http://www.w3.org/1999/xlink" x="0px" y="0px" width="102.144px"
	 height="184.315px" viewBox="0 0 102.144 184.315" xml:space="preserve">
<path fill="#3FA556" d="M39.72,11.773C36.141,7.796,32.09,3.975,28.191,0c-1.08,1.39-2.14,2.8-3.156,4.254
	C10.231,23.366-1.105,47.877,0.086,77.626c0.297,8.141,1.153,15.667,2.454,22.633c0.003,0.016,0.005,0.031,0.008,0.047
	c0.006,0.036,0.014,0.072,0.02,0.108c0.026,0.138,0.05,0.278,0.076,0.415c0.677,3.871,1.624,7.866,2.87,11.934
	c11.893,40.829,40.059,58.827,55.791,65.922c1.473,0.809,2.967,1.606,4.505,2.381c2.27,1.144,4.377,2.223,6.351,3.249
	c1.399-33.976,1.516-68.433,22.56-99.542c2.65-3.802,5.445-7.34,8.361-10.651C81.945,53.734,60.783,33.15,39.72,11.773z"/>
</svg>
