<?xml version="1.0" encoding="utf-8"?>
<!-- Generator: Adobe Illustrator 17.0.0, SVG Export Plug-In . SVG Version: 6.00 Build 0)  -->
<!DOCTYPE svg PUBLIC "-//W3C//DTD SVG 1.1 Basic//EN" "http://www.w3.org/Graphics/SVG/1.1/DTD/svg11-basic.dtd">
<svg version="1.1" baseProfile="basic" id="Слой_1"
	 xmlns="http://www.w3.org/2000/svg" xmlns:xlink="http://www.w3.org/1999/xlink" x="0px" y="0px" width="306.75px"
	 height="386.5px" viewBox="0 0 306.75 386.5" xml:space="preserve">
<path fill="#D0DA41" stroke="#FFFFFF" stroke-width="6" stroke-miterlimit="10" d="M290.529,218.303
	c-1.912-38.244-9.861-51.411-29.073-73.962c-19.214-22.539-46.135-25.749-53.664-35.782c-6.215-8.282-10.328-22.002-22.05-24.949
	c2.294-2.557,4.684-5.562,6.927-9.001c0.384-0.589,2.235-3.592,4.72-7.67c29.896-5.735,32.517-22.735,34.004-34.481
	C232.889,20.631,225.694,8,225.694,8c-3.651,12.474-13.57,16.716-25.811,29.17c-10.449,10.634-5.672,24.954-3.736,28.859
	c-1.909,3.077-3.396,5.447-4.058,6.455c-1.7,2.591-4.101,5.75-7.382,9.093c-0.928-3.999-2.917-11.552-5.176-18.635
	c-0.809-3.521-2.271-9.796-4.084-16.839c0.064-0.111,0.135-0.219,0.168-0.346c0.139-0.529-0.021-1.125-0.404-1.721
	c-0.629-1.222-2.253-2.493-4.325-3.245c-2.912-1.054-5.604-0.683-6.003,0.845c-0.126,0.488,0.001,1.035,0.325,1.589
	c1.249,6.209,2.217,12.752,2.454,18.888c-0.494,6.503-0.655,13.552-0.667,18.04c-7.298-4.005-16.203-7.949-26.106-10.382
	c-0.968-0.239-4.942-1.078-10.628-2.237C86.197,11.01,58.43,20.497,42.565,28.559C26.683,36.611,8,60.886,8,60.886
	c19.306-4.283,36.552,11.932,66.389,25.152c24.012,10.636,46.114-7.112,53.453-14.935c4.833,1.039,8.51,1.859,10.271,2.3
	c7.314,1.83,17.269,5.599,28.847,13.301c-7.728,4.707-8.207,12.73-17.341,19.805c-3.492,2.711-9.366,6.179-16.407,10.577
	c-2.893,1.746-6.227,3.864-9.849,6.35c-13.553,9.081-29.027,21.197-40.262,37.291c-14.802,19.111-26.135,43.619-24.943,73.364
	c0.298,8.156,1.156,15.695,2.461,22.671c0,0.003,0.001,0.005,0.001,0.008c0.001,0.006,0.002,0.012,0.003,0.017
	c0.033,0.177,0.064,0.357,0.098,0.534c0.672,3.834,1.609,7.791,2.839,11.819c11.881,40.898,40.085,58.917,55.826,66.014
	c1.47,0.807,2.961,1.603,4.496,2.376c41.18,20.748,31.732,21.386,38.438,29.708c6.703,8.311,29.088,10.781,37.442-3.27
	c8.359-14.058,39.55-27.784,61.788-52.328C282.631,288.37,292.445,256.541,290.529,218.303z"/>
<polygon fill="#A8A8A8" stroke="#272525" stroke-width="3" stroke-miterlimit="10" points="153.939,201.584 153.939,201.584 
	153.938,201.583 "/>
<g id="Слой_x0020_1_1_">
	<path fill="#2CA81B" d="M130.396,67.706c0.729,0.929-26.167,31.549-56.007,18.332C44.552,72.818,27.306,56.603,8,60.886
		c0,0,18.683-24.275,34.565-32.327C58.446,20.489,86.253,10.987,130.396,67.706z"/>
	<path fill="#2CA81B" d="M196.803,67.057c-0.502,0.099-9.161-17.429,3.08-29.887c12.241-12.454,22.16-16.696,25.811-29.17
		c0,0,7.195,12.631,5.699,24.458C229.896,44.282,227.264,61.435,196.803,67.057z"/>
	<path fill="#0A7C00" d="M225.438,10.276c0,0-7.529,19.638-11.676,26.786c-4.143,7.147-19.104,31.51-21.673,35.422
		c-3.438,5.24-9.732,12.803-20.412,19.513l2.464,2.089c0,0,10.273-6.815,18.528-19.477c1.282-1.97,18.899-30.797,22.119-37.183
		C218.011,31.052,225.438,10.276,225.438,10.276z"/>
	<path fill="#0A7C00" d="M12.776,58.431c0,0,36.951-2.522,51.623-0.034c14.672,2.474,65.413,12.924,73.714,15.006
		c11.105,2.778,28.299,10.025,48.021,28.726l1.071-8.137c0,0-19.524-17.638-46.316-24.221c-4.171-1.032-64.141-13.183-76.824-14.243
		C51.38,54.46,12.776,58.431,12.776,58.431z"/>
	<path fill="#ADD17D" d="M60.619,256.77c4.55,26.889,22.087,60.01,63.262,80.76c41.18,20.748,31.732,21.386,38.438,29.708
		c6.703,8.311,29.088,10.781,37.442-3.27c8.359-14.058,39.55-27.784,61.788-52.328c21.082-23.27,30.896-55.099,28.98-93.337
		c-1.912-38.244-9.861-51.411-29.073-73.962c-19.214-22.539-46.135-25.749-53.664-35.782c-7.525-10.027-11.956-28.044-30.56-25.234
		c-18.601,2.806-15.532,13.827-27.613,23.184c-12.077,9.374-52.547,27.74-71.811,62.676
		C58.549,204.112,55.762,228.102,60.619,256.77z"/>
	<path fill="#0A7C00" d="M164.95,41.942c1.375,6.583,2.459,13.612,2.712,20.171c-0.748,9.85-0.735,20.99-0.591,22.511
		c0.269,2.781,4.552,4.97,9.572,4.871c5.022-0.095,8.876-2.429,8.613-5.216c-0.14-1.451-2.69-11.823-5.725-21.337
		c-0.823-3.58-2.319-10.006-4.175-17.192L164.95,41.942z"/>
	<path fill="#9AC24D" d="M175.615,45.757c-0.394,1.526-3.084,1.903-6.001,0.838c-2.916-1.052-4.955-3.149-4.554-4.673
		c0.388-1.526,3.08-1.892,6.001-0.834C173.973,42.149,176.016,44.231,175.615,45.757z"/>
	<path fill="#DFFC00" d="M175.449,45.468c-0.401,1.524-3.089,1.895-6.001,0.832c-2.921-1.052-4.958-3.145-4.565-4.664
		c0.399-1.528,3.091-1.899,6.003-0.845C173.805,41.849,175.844,43.94,175.449,45.468z"/>
	<path fill="#C3E696" d="M144.288,110.97c0,0-89.371,42.219-86.131,123.121c3.244,88.774,72.33,105.121,72.33,105.121
		s-34.836-65.756-13.808-97.995C137.719,208.964,165.985,149.535,144.288,110.97z"/>
</g>
</svg>
