<?xml version="1.0" encoding="utf-8"?>
<!-- Generator: Adobe Illustrator 17.0.0, SVG Export Plug-In . SVG Version: 6.00 Build 0)  -->
<!DOCTYPE svg PUBLIC "-//W3C//DTD SVG 1.1 Basic//EN" "http://www.w3.org/Graphics/SVG/1.1/DTD/svg11-basic.dtd">
<svg version="1.1" baseProfile="basic" id="Слой_1"
	 xmlns="http://www.w3.org/2000/svg" xmlns:xlink="http://www.w3.org/1999/xlink" x="0px" y="0px" width="201.106px"
	 height="117.649px" viewBox="0 0 201.106 117.649" xml:space="preserve">
<path fill="#D36234" d="M201.106,78.295c-4.111-19.316-12.102-30.679-25.913-46.89C159.055,12.474,137.485,7.179,126.53,0.023
	c-0.552,1.438-1.208,2.865-2.001,4.276c-4,7-11,11-18,12c-19,3-41,3-52-15C54.197,0.968,53.898,0.519,53.644,0
	c-2.054,1.273-4.271,2.636-6.635,4.112c-2.922,1.762-6.299,3.907-9.967,6.427C24.73,18.792,10.853,29.561,0,43.527
	c3.899,3.975,7.949,7.796,11.528,11.773c21.063,21.378,42.225,41.962,63.361,62.349C107.07,81.118,154.704,73.733,201.106,78.295z"
	/>
</svg>
