<?xml version="1.0" encoding="utf-8"?>
<!-- Generator: Adobe Illustrator 17.0.0, SVG Export Plug-In . SVG Version: 6.00 Build 0)  -->
<!DOCTYPE svg PUBLIC "-//W3C//DTD SVG 1.1 Basic//EN" "http://www.w3.org/Graphics/SVG/1.1/DTD/svg11-basic.dtd">
<svg version="1.1" baseProfile="basic" id="Слой_1"
	 xmlns="http://www.w3.org/2000/svg" xmlns:xlink="http://www.w3.org/1999/xlink" x="0px" y="0px" width="306.75px"
	 height="386.5px" viewBox="0 0 306.75 386.5" xml:space="preserve">
<polygon fill="#A8A8A8" stroke="#272525" stroke-width="3" stroke-miterlimit="10" points="153.939,201.584 153.939,201.584 
	153.938,201.583 "/>
<polygon fill="#A8A8A8" stroke="#272525" stroke-width="3" stroke-miterlimit="10" points="557.307,189.762 557.307,189.762 
	557.306,189.761 "/>
<path fill="#A8A8A8" stroke="#272525" stroke-width="3" stroke-miterlimit="10" d="M192.791,129.236c7-1,14-5,18-12
	c0.794-1.411,1.449-2.838,2.001-4.276c-2.088-1.364-3.795-2.794-5-4.401c-6.215-8.282-10.328-22.003-22.05-24.949
	c2.294-2.557,4.685-5.562,6.928-9.001c0.384-0.59,2.235-3.593,4.721-7.671c29.895-5.735,32.515-22.734,34.004-34.481
	C232.89,20.631,225.695,8,225.695,8c-3.651,12.474-13.571,16.715-25.811,29.169c-10.449,10.635-5.672,24.955-3.736,28.86
	c-1.909,3.077-3.396,5.447-4.058,6.454c-1.7,2.591-4.101,5.75-7.382,9.092c-0.928-3.999-2.916-11.552-5.176-18.635
	c-0.81-3.521-2.271-9.797-4.085-16.839c0.064-0.111,0.135-0.219,0.168-0.346c0.139-0.529-0.022-1.126-0.405-1.723
	c-0.63-1.221-2.253-2.492-4.324-3.243c-2.912-1.054-5.604-0.683-6.003,0.845c-0.126,0.488,0.001,1.035,0.325,1.588
	c1.249,6.209,2.217,12.752,2.453,18.889c-0.494,6.503-0.655,13.552-0.667,18.04c-7.298-4.005-16.203-7.949-26.106-10.382
	c-0.968-0.24-4.941-1.078-10.628-2.237C86.197,11.01,58.43,20.497,42.565,28.559C26.683,36.611,8,60.886,8,60.886
	c19.306-4.283,36.552,11.932,66.39,25.152c24.012,10.636,46.114-7.112,53.453-14.935c4.833,1.039,8.509,1.859,10.271,2.3
	c7.314,1.83,17.27,5.6,28.849,13.302c-7.729,4.707-8.208,12.731-17.343,19.806c-2.308,1.792-5.673,3.923-9.712,6.427
	c0.254,0.519,0.553,0.968,0.884,1.299C151.791,132.236,173.791,132.236,192.791,129.236z"/>
<path fill="#A8A8A8" stroke="#272525" stroke-width="3" stroke-miterlimit="10" d="M130,340.193
	c33.828,17.59,25.751,18.596,32.087,26.459c6.703,8.311,29.088,10.781,37.442-3.27c7.329-12.326,32.21-24.398,53.22-43.73
	C222.45,288.979,191.712,259.7,160.921,230c-2.916,3.31-5.711,6.849-8.361,10.651C131.516,271.76,131.399,306.217,130,340.193z"/>
<path fill="#A8A8A8" stroke="#272525" stroke-width="3" stroke-miterlimit="10" d="M97.72,167.773
	c-3.579-3.977-7.629-7.798-11.528-11.773c-1.08,1.39-2.14,2.8-3.156,4.254c-14.805,19.112-26.141,43.623-24.95,73.373
	c0.297,8.141,1.153,15.667,2.454,22.633c0.003,0.016,0.005,0.031,0.008,0.047c0.006,0.036,0.014,0.072,0.02,0.108
	c0.026,0.138,0.05,0.278,0.076,0.415c0.677,3.871,1.624,7.866,2.87,11.934c11.893,40.829,40.059,58.827,55.791,65.922
	c1.473,0.809,2.967,1.606,4.505,2.381c2.27,1.144,4.377,2.223,6.351,3.249c1.399-33.976,1.516-68.433,22.56-99.542
	c2.65-3.802,5.445-7.34,8.361-10.651C139.945,209.734,118.783,189.15,97.72,167.773z"/>
<path fill="#A8A8A8" stroke="#272525" stroke-width="3" stroke-miterlimit="10" d="M287.106,191.295
	c-4.111-19.316-12.102-30.679-25.913-46.89c-16.138-18.931-37.708-24.227-48.663-31.382c-0.552,1.438-1.208,2.865-2.001,4.276
	c-4,7-11,11-18,12c-19,3-41,3-52-15c-0.331-0.331-0.631-0.78-0.884-1.299c-2.054,1.273-4.271,2.636-6.635,4.112
	c-2.922,1.762-6.299,3.907-9.967,6.427C110.73,131.792,96.853,142.561,86,156.527c3.899,3.975,7.949,7.796,11.528,11.773
	c21.063,21.378,42.225,41.962,63.361,62.349C193.07,194.118,240.704,186.733,287.106,191.295z"/>
<path fill="#A8A8A8" stroke="#272525" stroke-width="3" stroke-miterlimit="10" d="M287.216,191.207
	c-46.402-4.562-94.036,2.822-126.216,39.354c30.791,29.7,61.529,58.979,91.828,89.653c2.952-2.716,5.828-5.574,8.568-8.598
	c21.082-23.27,30.896-55.099,28.98-93.337C289.839,207.528,288.824,198.759,287.216,191.207z"/>
</svg>
