<?xml version="1.0" encoding="utf-8"?>
<!-- Generator: Adobe Illustrator 17.0.0, SVG Export Plug-In . SVG Version: 6.00 Build 0)  -->
<!DOCTYPE svg PUBLIC "-//W3C//DTD SVG 1.1 Basic//EN" "http://www.w3.org/Graphics/SVG/1.1/DTD/svg11-basic.dtd">
<svg version="1.1" baseProfile="basic" id="Слой_1"
	 xmlns="http://www.w3.org/2000/svg" xmlns:xlink="http://www.w3.org/1999/xlink" x="0px" y="0px" width="223.598px"
	 height="122.724px" viewBox="0 0 223.598 122.724" xml:space="preserve">
<path fill="#CE9538" d="M184.791,121.236c7-1,14-5,18-12c0.794-1.411,1.449-2.838,2.001-4.276c-2.088-1.364-3.795-2.794-5-4.401
	c-6.215-8.282-10.328-22.003-22.05-24.949c2.294-2.557,4.685-5.562,6.928-9.001c0.384-0.59,2.235-3.593,4.721-7.671
	c29.895-5.735,32.515-22.734,34.004-34.481C224.89,12.631,217.695,0,217.695,0c-3.651,12.474-13.571,16.715-25.811,29.169
	c-10.449,10.635-5.672,24.955-3.736,28.86c-1.909,3.077-3.396,5.447-4.058,6.454c-1.7,2.591-4.101,5.75-7.382,9.092
	c-0.928-3.999-2.916-11.552-5.176-18.635c-0.81-3.521-2.271-9.797-4.085-16.839c0.064-0.111,0.135-0.219,0.168-0.346
	c0.139-0.529-0.022-1.126-0.405-1.723c-0.63-1.221-2.253-2.492-4.324-3.243c-2.912-1.054-5.604-0.683-6.003,0.845
	c-0.126,0.488,0.001,1.035,0.325,1.588c1.249,6.209,2.217,12.752,2.453,18.889c-0.494,6.503-0.655,13.552-0.667,18.04
	c-7.298-4.005-16.203-7.949-26.106-10.382c-0.968-0.24-4.941-1.078-10.628-2.237C78.197,3.01,50.43,12.497,34.565,20.559
	C18.683,28.611,0,52.886,0,52.886c19.306-4.283,36.552,11.932,66.39,25.152c24.012,10.636,46.114-7.112,53.453-14.935
	c4.833,1.039,8.509,1.859,10.271,2.3c7.314,1.83,17.27,5.6,28.849,13.302c-7.729,4.707-8.208,12.731-17.343,19.806
	c-2.308,1.792-5.673,3.923-9.712,6.427c0.254,0.519,0.553,0.968,0.884,1.299C143.791,124.236,165.791,124.236,184.791,121.236z"/>
</svg>
