<?xml version="1.0" encoding="utf-8"?>
<!-- Generator: Adobe Illustrator 17.0.0, SVG Export Plug-In . SVG Version: 6.00 Build 0)  -->
<!DOCTYPE svg PUBLIC "-//W3C//DTD SVG 1.1 Basic//EN" "http://www.w3.org/Graphics/SVG/1.1/DTD/svg11-basic.dtd">
<svg version="1.1" baseProfile="basic" id="Слой_1"
	 xmlns="http://www.w3.org/2000/svg" xmlns:xlink="http://www.w3.org/1999/xlink" x="0px" y="0px" width="27.056px"
	 height="126.415px" viewBox="0 0 27.056 126.415" xml:space="preserve">
<path fill="#42BCAA" d="M10.63,86.409c-1.184-5.025-3.94-17.228-5.029-26.366c-1.616-13.585-2.55-29.469-1.087-35.335
	c1.463-5.848,5.175-6.042,5.198-6.043C10.5,12.764,17.397,10.701,24.434,0c6.642,2.102-1.674,10.453,0.342,15.158
	c2.229,4.458,0,8.917-2.972,12.632c-0.743,2.229,2.229,5.945,2.229,7.431c0.399,4.384,0.147,8.98-0.966,13.333
	c-6.179-7.123-10.068-14.259-11.984-20.362c-0.869,0.196-1.745,0.562-2.181,1.252c-1.035,1.639-1.25,15.6,0.128,29.822
	c1.058,10.876,3.523,22.334,4.625,27.129c6.085,0.603,10.284,4.687,10.52,12.073c0.26,8.021-5.31,10.112-6.41,15.201
	c-1.23,5.693,1.487,12.745,1.487,12.745s-15.912-6.599-18.629-19.149C-1.922,95.511,3.716,87.39,10.63,86.409z"/>
</svg>
