<?xml version="1.0" encoding="utf-8"?>
<!-- Generator: Adobe Illustrator 17.0.0, SVG Export Plug-In . SVG Version: 6.00 Build 0)  -->
<!DOCTYPE svg PUBLIC "-//W3C//DTD SVG 1.1 Basic//EN" "http://www.w3.org/Graphics/SVG/1.1/DTD/svg11-basic.dtd">
<svg version="1.1" baseProfile="basic" id="Слой_1"
	 xmlns="http://www.w3.org/2000/svg" xmlns:xlink="http://www.w3.org/1999/xlink" x="0px" y="0px" width="111.603px"
	 height="71.302px" viewBox="0 0 111.603 71.302" xml:space="preserve">
<path fill="#87BB50" d="M77.127,11.145c-1.081,0.867-2.085,1.806-3.03,2.791c-10.729-4.643-25.89-0.532-28.361,13.109
	c-1.288,7.097,1.376,15.579-1.416,22.271c-1.749,4.189-6.345,7.079-10.996,7.197c-3.889-5.306-11.346-3.748-15.625-8.405
	c0.272,1.079,0.032,2.621,0.287,3.712c-2.064-0.917-3.965-3.154-6.036-4.518c0.243,2.019,0.071,3.512,1.074,5.493
	c-5.205-3.716-6.863-8.814-9.142-14.08c-0.464,4.463-0.565,9.062,0.657,13.209c-0.962-1.39-2.695-2.576-3.644-4.16
	c-2.879,6.866,1.432,16.98,9.522,18c-1.77,0.297-3.639,1.079-5.538,1.284c5.254,3.371,13.153,5.174,19.724,3.777
	c7.252-1.547,8.236-5.381,11.513-10.456c2.492,0.19,4.864-0.019,6.26-0.535c7.21-2.672,9.489-10.361,9.351-17.214
	c-0.151-7.335-3.013-14.822,3.331-20.932c3.8-3.657,10.019-4.337,14.217-1.282c-3.946,6.881-5.558,15.126-4.766,23.227
	c0.578,5.928,2.668,14.505,5.789,22.164c1.328-1.472,2.37-3.125,3.015-4.846c2.131-4.972,0.71-11.364,5.682-15.626
	c6.393-4.972,14.916-7.813,17.047-15.626c2.131-6.393-2.131-14.206,0.71-19.177c3.031-5.557,8.581-9.303,14.852-10.5
	C98.555-0.313,87.439,2.877,77.127,11.145z"/>
</svg>
