<?xml version="1.0" encoding="utf-8"?>
<!-- Generator: Adobe Illustrator 17.0.0, SVG Export Plug-In . SVG Version: 6.00 Build 0)  -->
<!DOCTYPE svg PUBLIC "-//W3C//DTD SVG 1.1 Basic//EN" "http://www.w3.org/Graphics/SVG/1.1/DTD/svg11-basic.dtd">
<svg version="1.1" baseProfile="basic" id="Слой_1"
	 xmlns="http://www.w3.org/2000/svg" xmlns:xlink="http://www.w3.org/1999/xlink" x="0px" y="0px" width="335px" height="325.167px"
	 viewBox="0 0 335 325.167" xml:space="preserve">
<path fill="#EB7272" d="M1602.97,686.224c0.358-0.247,0.715-0.495,1.073-0.742c0.084,0.127,0.169,0.254,0.253,0.381
	c-0.434,0.129-0.868,0.259-1.302,0.388C1602.994,686.25,1602.97,686.224,1602.97,686.224z"/>
<path fill="#EB7272" d="M1570.006,1049.175c0.243,0.36,0.489,0.718,0.714,1.089c0.004,0.007-0.235,0.163-0.361,0.249
	c-0.133-0.432-0.267-0.865-0.401-1.297C1569.957,1049.216,1570.006,1049.175,1570.006,1049.175z"/>
<g id="Lion">
	<g id="Body_4_">
		<g id="Right_Legs">
			<g id="Right_Back_Leg">
				<path id="Leg_BG_2_" fill="#D9C039" d="M73.793,187.999c0.23,2.49,0.534,4.973,0.922,7.443
					c1.083,6.895,2.614,13.72,3.801,20.599c0.705,4.085,1.354,8.182,1.891,12.297c1.194,9.081,1.828,18.252,1.805,27.413
					c-0.021,8.32,0.361,16.786-0.095,25.085c-0.13,2.432-0.3,4.859-0.521,7.286c-0.264,2.911-0.655,5.491,2.049,7.384
					c5.278,3.689,13.701,3.539,19.821,3.539c0.003,0,14.594,0,14.597,0c2.065,0,6.079-2.25,7.894-3.312
					c4.315-2.524,3.489-5.829,1.931-9.83c-2.182-5.612-4.521-11.157-6.774-16.739c-1.511-4.043-3.022-8.088-4.535-12.129
					c-2.317-6.197-4.633-12.397-6.949-18.594c-2.574-6.885-3.744-14.195-5.315-21.368c0,0-31.081-41.98-31.084-41.98
					c0.425,0.571,0.037,3.556,0.064,4.492c0.05,1.808,0.134,3.616,0.261,5.421C73.623,186.007,73.703,187.003,73.793,187.999z"/>
				<g id="Toes_2_">
					
						<linearGradient id="Toe_1_" gradientUnits="userSpaceOnUse" x1="-563.7512" y1="560.496" x2="-538.1452" y2="560.496" gradientTransform="matrix(-1 0 0 1 -433.2672 -270.153)">
						<stop  offset="0" style="stop-color:#F6E579"/>
						<stop  offset="1" style="stop-color:#FFFFFF"/>
					</linearGradient>
					<ellipse id="Toe_35_" fill="url(#Toe_1_)" cx="117.681" cy="290.343" rx="12.803" ry="10.582"/>
					
						<linearGradient id="Toe_2_" gradientUnits="userSpaceOnUse" x1="-551.8032" y1="560.4945" x2="-526.1962" y2="560.4945" gradientTransform="matrix(-1 0 0 1 -433.2672 -270.153)">
						<stop  offset="0" style="stop-color:#F6E579"/>
						<stop  offset="1" style="stop-color:#FFFFFF"/>
					</linearGradient>
					<path id="Toe_34_" fill="url(#Toe_2_)" d="M92.929,290.343c0,5.842,5.732,10.582,12.806,10.582
						c7.072,0,12.801-4.74,12.801-10.582c0-5.846-5.729-10.585-12.801-10.585C98.661,279.758,92.929,284.498,92.929,290.343z"/>
					
						<linearGradient id="Toe_3_" gradientUnits="userSpaceOnUse" x1="-540.7392" y1="560.496" x2="-515.1332" y2="560.496" gradientTransform="matrix(-1 0 0 1 -433.2672 -270.153)">
						<stop  offset="0" style="stop-color:#F6E579"/>
						<stop  offset="1" style="stop-color:#FFFFFF"/>
					</linearGradient>
					<ellipse id="Toe_33_" fill="url(#Toe_3_)" cx="94.669" cy="290.343" rx="12.803" ry="10.582"/>
				</g>
			</g>
			<g id="Right_Front_Leg">
				<path id="Leg_BG" fill="#D9C039" d="M173.892,195.366c0.23,2.49,0.535,4.974,0.922,7.447c1.083,6.893,2.61,13.717,3.801,20.596
					c0.705,4.088,1.35,8.185,1.891,12.297c1.19,9.085,1.825,18.252,1.806,27.418c-0.021,8.316,0.357,16.782-0.095,25.081
					c-0.134,2.433-0.3,4.859-0.521,7.286c-0.264,2.911-0.655,5.495,2.045,7.384c5.282,3.689,13.701,3.539,19.824,3.539
					c0.003,0,14.589,0,14.596,0c2.062,0,6.077-2.25,7.891-3.309c4.319-2.527,3.494-5.829,1.936-9.833
					c-2.182-5.609-4.526-11.157-6.779-16.738c-1.511-4.044-3.021-8.086-4.532-12.13c-2.316-6.196-4.632-12.394-6.949-18.59
					c-2.574-6.885-3.744-14.198-5.314-21.371l-31.084-41.98c0.421,0.571,0.034,3.557,0.061,4.492
					c0.05,1.809,0.137,3.616,0.261,5.425C173.721,193.374,173.798,194.369,173.892,195.366z"/>
				<g id="Toes">
					
						<linearGradient id="Toe_4_" gradientUnits="userSpaceOnUse" x1="-663.8462" y1="567.863" x2="-638.2402" y2="567.863" gradientTransform="matrix(-1 0 0 1 -433.2672 -270.153)">
						<stop  offset="0" style="stop-color:#F6E579"/>
						<stop  offset="1" style="stop-color:#FFFFFF"/>
					</linearGradient>
					<ellipse id="Toe" fill="url(#Toe_4_)" cx="217.776" cy="297.71" rx="12.803" ry="10.582"/>
					
						<linearGradient id="Toe_5_" gradientUnits="userSpaceOnUse" x1="-651.9002" y1="567.863" x2="-626.2942" y2="567.863" gradientTransform="matrix(-1 0 0 1 -433.2672 -270.153)">
						<stop  offset="0" style="stop-color:#F6E579"/>
						<stop  offset="1" style="stop-color:#FFFFFF"/>
					</linearGradient>
					<ellipse id="Toe_32_" fill="url(#Toe_5_)" cx="205.83" cy="297.71" rx="12.803" ry="10.582"/>
					
						<linearGradient id="Toe_6_" gradientUnits="userSpaceOnUse" x1="-640.8342" y1="567.863" x2="-615.2282" y2="567.863" gradientTransform="matrix(-1 0 0 1 -433.2672 -270.153)">
						<stop  offset="0" style="stop-color:#F6E579"/>
						<stop  offset="1" style="stop-color:#FFFFFF"/>
					</linearGradient>
					<ellipse id="Toe_31_" fill="url(#Toe_6_)" cx="194.764" cy="297.71" rx="12.803" ry="10.582"/>
				</g>
			</g>
		</g>
		<g id="Tail_3_">
			<path id="Tail_Path" fill="#D9C039" d="M23.868,112.181c-1.835,11.194-0.097,22.054,10.763,30.012
				c2.432,1.784,5.043,3.277,7.704,4.692c4.094,2.173,7.885,2.249,8.269,7.403c0.1,1.387,2.099,10.448,1.156,11.203
				c-0.003,0-6.32,5.054-6.32,5.054c-2.446-2.079-4.89-4.164-7.34-6.24c-4.011-3.389-6.588-7.453-9.539-11.739
				c-3.927-5.699-8.129-11.311-9.756-18.168c-1.745-7.36-2.35-14.977-1.505-22.508c0.395-3.507,1.107-7.151,3.169-10.094
				c0.966-1.379,2.193-2.517,3.547-3.51c0.802-0.59,4.275-1.943,4.569-2.741C26.583,100.963,24.784,106.613,23.868,112.181z"/>
			<path id="Tail_Fur" fill="#A1622F" d="M21.88,111.921c1.203,0.145,2.426,0.054,3.57-0.395c2.947-1.163,4.288-4.214,5.091-7.067
				c1.189-4.223,0.975-9.239,5.1-11.917c1.711-1.109,3.78-1.788,5.732-2.35c1.11-0.319,2.24-0.562,3.376-0.789
				c-4.412-1.39-9.201,0.348-12.367,3.57c-0.779,0.795-1.765,2.377-2.747,2.819c-0.331-0.917,0.237-2.027,0.448-2.907
				c0.254-1.057,0.538-2.106,0.893-3.134c0.698-2.022,1.695-3.992,3.245-5.495c1.976-1.918,5.047-2.088,7.644-1.949
				c1.413,0.077,2.844,0.226,4.258,0.226c-0.649-0.297-1.181-0.764-1.812-1.082c-0.712-0.361-1.521-0.467-2.306-0.544
				c-3.449-0.331-7.551,0.543-10.221,2.856c-1.775,1.536-2.717,3.705-3.784,5.743c-0.498,0.955-0.972,1.926-1.558,2.835
				c-0.374,0.579-1.136,1.704-1.804,1.882c-0.385,0.102,0-1.648,0.077-1.8c0.344-0.683,0.946-1.198,1.37-1.828
				c0.421-0.624,0.809-1.273,1.11-1.964c0.525-1.208,0.785-2.559,0.494-3.863c-0.478-2.151-2.5-3.664-4.519-2.255
				c-1.249,0.874-2.086,2.302-2.897,3.559c1.183-0.692,2.834-1.825,4.291-1.427c1.334,0.364,1.374,1.804,0.899,2.878
				c-0.745,1.686-2.39,2.874-3.75,4.038c-1.524,1.304-2.887,2.697-3.814,4.496c-1.14,2.205-1.717,4.674-2.35,7.06
				c-1.835-1.265-1.828-3.99-1.975-5.978c-0.261,2.807-0.933,5.924-0.331,8.72c0.267,1.254,0.916,2.39,1.818,3.294
				c0.976,0.971,2.113,1.319,3.362,1.813c0.829,0.331,1.678,0.622,2.551,0.806C21.272,111.834,21.576,111.886,21.88,111.921z"/>
		</g>
		<path id="Body_BG" fill="#F3D732" d="M34.467,178.621c0,39.406,42.986,71.35,96.017,71.35c53.03,0,96.017-31.944,96.017-71.35
			c0-39.401-42.987-71.344-96.017-71.344C77.453,107.276,34.467,139.22,34.467,178.621z"/>
		<g id="Left_Legs">
			<g id="Left_Back_Leg">
				<path id="Leg_BG_3_" fill="#F3D732" d="M35.029,193.993c0.23,2.493,0.535,4.976,0.922,7.447c1.083,6.895,2.61,13.717,3.8,20.596
					c0.705,4.088,1.35,8.185,1.892,12.296c1.189,9.085,1.825,18.257,1.804,27.418c-0.02,8.316,0.357,16.786-0.093,25.081
					c-0.134,2.433-0.301,4.86-0.521,7.29c-0.264,2.907-0.655,5.491,2.046,7.379c5.281,3.69,13.701,3.544,19.823,3.544
					c0.003,0,14.589,0,14.597,0c2.062,0,6.076-2.25,7.891-3.312c4.318-2.528,3.493-5.829,1.935-9.833
					c-2.182-5.609-4.526-11.158-6.778-16.739c-1.511-4.044-3.022-8.085-4.532-12.129c-2.317-6.198-4.633-12.394-6.949-18.591
					c-2.573-6.885-3.743-14.198-5.314-21.37c0,0-31.084-41.978-31.084-41.981c0.42,0.571,0.034,3.557,0.06,4.492
					c0.05,1.809,0.137,3.621,0.261,5.425C34.858,192,34.935,193,35.029,193.993z"/>
				<g id="Toes_3_">
					
						<linearGradient id="Toe_7_" gradientUnits="userSpaceOnUse" x1="-524.9832" y1="566.489" x2="-499.3772" y2="566.489" gradientTransform="matrix(-1 0 0 1 -433.2672 -270.153)">
						<stop  offset="0" style="stop-color:#F6E579"/>
						<stop  offset="1" style="stop-color:#FFFFFF"/>
					</linearGradient>
					<ellipse id="Toe_30_" fill="url(#Toe_7_)" cx="78.913" cy="296.336" rx="12.803" ry="10.582"/>
					
						<linearGradient id="Toe_8_" gradientUnits="userSpaceOnUse" x1="-513.0362" y1="566.489" x2="-487.4302" y2="566.489" gradientTransform="matrix(-1 0 0 1 -433.2672 -270.153)">
						<stop  offset="0" style="stop-color:#F6E579"/>
						<stop  offset="1" style="stop-color:#FFFFFF"/>
					</linearGradient>
					<ellipse id="Toe_29_" fill="url(#Toe_8_)" cx="66.966" cy="296.336" rx="12.803" ry="10.582"/>
					
						<linearGradient id="Toe_9_" gradientUnits="userSpaceOnUse" x1="-501.9702" y1="566.489" x2="-476.3642" y2="566.489" gradientTransform="matrix(-1 0 0 1 -433.2672 -270.153)">
						<stop  offset="0" style="stop-color:#F6E579"/>
						<stop  offset="1" style="stop-color:#FFFFFF"/>
					</linearGradient>
					<ellipse id="Toe_28_" fill="url(#Toe_9_)" cx="55.9" cy="296.336" rx="12.803" ry="10.582"/>
				</g>
			</g>
			<g id="Left_Front_Leg">
				<path id="Leg_BG_1_" fill="#F3D732" d="M145.729,240.297c1.194,9.085,1.828,18.253,1.805,27.418
					c-0.021,8.316,0.361,16.783-0.093,25.081c-0.13,2.433-0.301,4.86-0.521,7.287c-0.264,2.91-0.655,5.495,2.049,7.383
					c5.277,3.69,13.7,3.54,19.82,3.54c0.003,0,14.593,0,14.596,0c2.066,0,6.08-2.25,7.895-3.309
					c4.315-2.527,3.489-5.829,1.931-9.833c-2.182-5.609-4.522-11.158-6.775-16.739c-1.51-4.044-3.021-8.085-4.535-12.129
					c-2.316-6.198-4.632-12.394-6.948-18.59c-2.575-6.886-3.744-14.199-5.315-21.371
					C169.637,229.034,145.191,236.186,145.729,240.297z"/>
				<g id="Toes_1_">
					
						<linearGradient id="Toe_10_" gradientUnits="userSpaceOnUse" x1="-629.0722" y1="572.456" x2="-603.4662" y2="572.456" gradientTransform="matrix(-1 0 0 1 -433.2672 -270.153)">
						<stop  offset="0" style="stop-color:#F6E579"/>
						<stop  offset="1" style="stop-color:#FFFFFF"/>
					</linearGradient>
					<ellipse id="Toe_27_" fill="url(#Toe_10_)" cx="183.002" cy="302.303" rx="12.803" ry="10.582"/>
					
						<linearGradient id="Toe_11_" gradientUnits="userSpaceOnUse" x1="-617.1232" y1="572.456" x2="-591.5172" y2="572.456" gradientTransform="matrix(-1 0 0 1 -433.2672 -270.153)">
						<stop  offset="0" style="stop-color:#F6E579"/>
						<stop  offset="1" style="stop-color:#FFFFFF"/>
					</linearGradient>
					<ellipse id="Toe_26_" fill="url(#Toe_11_)" cx="171.053" cy="302.303" rx="12.803" ry="10.582"/>
					
						<linearGradient id="Toe_18_" gradientUnits="userSpaceOnUse" x1="-606.0602" y1="572.456" x2="-580.4542" y2="572.456" gradientTransform="matrix(-1 0 0 1 -433.2672 -270.153)">
						<stop  offset="0" style="stop-color:#F6E579"/>
						<stop  offset="1" style="stop-color:#FFFFFF"/>
					</linearGradient>
					<ellipse id="Toe_25_" fill="url(#Toe_18_)" cx="159.99" cy="302.303" rx="12.803" ry="10.582"/>
				</g>
			</g>
		</g>
	</g>
	<g id="Head_3_">
		<path fill="#A1622F" d="M92.657,112.693c0,55.607,51.143,100.692,114.234,100.692c63.084,0,114.229-45.085,114.229-100.692
			C321.12,57.083,269.975,12,206.891,12C143.801,12,92.657,57.083,92.657,112.693z"/>
		<g id="Ears_2_">
			<g id="Left_Ear_3_">
				<path id="Ear_BG_8_" fill="#F3D732" d="M256.369,50.425c1.825,2.567,0,0.404,27.457,26.304
					c15.165,0,27.458-11.777,27.458-26.304c0-14.529-12.293-26.305-27.458-26.305C268.662,24.119,256.369,35.896,256.369,50.425z"/>
				
					<linearGradient id="Inner_Ear_1_" gradientUnits="userSpaceOnUse" x1="-715.6697" y1="341.293" x2="-715.6697" y2="303.078" gradientTransform="matrix(-1 0 0 1 -433.2672 -270.153)">
					<stop  offset="0" style="stop-color:#957844"/>
					<stop  offset="1" style="stop-color:#52351C"/>
				</linearGradient>
				<path id="Inner_Ear_8_" fill="url(#Inner_Ear_1_)" d="M263.117,52.032c1.286,1.866,0,0.293,19.289,19.108
					c10.651,0,19.282-8.557,19.282-19.108c0-10.556-8.631-19.107-19.282-19.107C271.754,32.925,263.117,41.477,263.117,52.032z"/>
			</g>
			<g id="Right_Ear_3_">
				<path id="Ear_BG_7_" fill="#F3D732" d="M160.165,50.425c-1.825,2.567,0,0.404-27.458,26.304
					c-15.164,0-27.458-11.777-27.458-26.304c0-14.529,12.294-26.305,27.458-26.305C147.875,24.119,160.165,35.896,160.165,50.425z"
					/>
				
					<linearGradient id="Inner_Ear_2_" gradientUnits="userSpaceOnUse" x1="979.547" y1="341.293" x2="979.547" y2="303.078" gradientTransform="matrix(1 0 0 1 -845.4155 -270.153)">
					<stop  offset="0" style="stop-color:#957844"/>
					<stop  offset="1" style="stop-color:#52351C"/>
				</linearGradient>
				<path id="Inner_Ear_7_" fill="url(#Inner_Ear_2_)" d="M153.417,52.032c-1.284,1.866,0,0.293-19.289,19.108
					c-10.649,0-19.282-8.557-19.282-19.108c0-10.556,8.633-19.107,19.282-19.107C144.78,32.925,153.417,41.477,153.417,52.032z"/>
			</g>
		</g>
		<g id="Face_2_">
			<path id="Head_BG_1_" fill="#F3D732" d="M132.393,120.764c0,43.948,33.664,79.579,75.19,79.579s75.197-35.63,75.197-79.579
				c0-43.952-33.671-79.58-75.197-79.58S132.393,76.813,132.393,120.764z"/>
			<path id="Muzzle_4_" fill="#E5B467" d="M171.135,166.367c0,18.968,16.321,34.35,36.449,34.35
				c20.135,0,36.452-15.381,36.452-34.35c0-18.972-16.317-34.349-36.452-34.349C187.456,132.019,171.135,147.396,171.135,166.367z"
				/>
			<path id="Smile_4_" fill="none" stroke="#282827" stroke-linecap="round" stroke-miterlimit="10" d="M200.955,187.334
				c2.567,2.868,7.503,2.921,10.956,2.26c8.784-1.682,16.054-9.803,20.138-17.361"/>
			<g id="Nose">
				<polygon fill="#52351C" points="207.586,160.882 233.005,142.639 182.164,142.639 				"/>
				
					<linearGradient id="SVGID_1_" gradientUnits="userSpaceOnUse" x1="-640.8532" y1="442.886" x2="-640.8532" y2="426.848" gradientTransform="matrix(-1 0 0 1 -433.2672 -270.153)">
					<stop  offset="0.172" style="stop-color:#E5B467"/>
					<stop  offset="0.5968" style="stop-color:#52351C"/>
				</linearGradient>
				
					<line fill="none" stroke="url(#SVGID_1_)" stroke-linecap="round" stroke-miterlimit="10" x1="207.586" y1="157.195" x2="207.586" y2="172.233"/>
				<path fill="#E5B467" d="M201.847,157.496c-0.153-0.802-0.591-1.627-0.872-2.403c-0.29-0.808-0.578-1.621-0.916-2.413
					c-0.671-1.582-1.531-3.109-2.844-4.252c-1.294-1.133-3.389-2.701-5.231-2.36c-1.186,0.221-2.493,1.568-2.179,2.884
					c0.29,1.21,1.504,1.855,2.443,2.51c1.487,1.03,2.881,2.189,4.328,3.272c0.261,0.193,0.531,0.472,0.826,0.618
					C198.799,156.039,200.357,157.102,201.847,157.496z"/>
				<path fill="#E5B467" d="M213.63,157.496c0.161-0.802,0.602-1.627,0.876-2.403c0.291-0.808,0.581-1.621,0.916-2.413
					c0.676-1.582,1.534-3.109,2.841-4.252c1.3-1.133,3.393-2.701,5.235-2.36c1.19,0.221,2.496,1.568,2.176,2.884
					c-0.291,1.21-1.495,1.855-2.444,2.51c-1.487,1.03-2.878,2.189-4.325,3.272c-0.261,0.193-0.531,0.472-0.822,0.618
					C216.684,156.039,215.127,157.102,213.63,157.496z"/>
			</g>
			<g id="Eyes_3_">
				<g id="Left_Eye_3_">
					<ellipse id="Eye_BG" fill="#FFFFFF" cx="232.049" cy="118.447" rx="11.895" ry="14.601"/>
					<path id="Pupil_BG_8_" fill="#E3A030" d="M226.502,118.87c0,4.03,2.667,7.301,5.952,7.301c3.283,0,5.947-3.271,5.947-7.301
						c0-4.035-2.664-7.3-5.947-7.3C229.169,111.57,226.502,114.835,226.502,118.87z"/>
					<ellipse id="Small_Reflection_8_" fill="#F4FAFD" cx="232.481" cy="117.951" rx="1.016" ry="0.919"/>
					<path id="Big_Reflection_8_" fill="#F4FAFD" d="M232.909,115.791c0,0.854,0.761,1.541,1.701,1.541
						c0.946,0,1.708-0.688,1.708-1.541c0-0.852-0.762-1.537-1.708-1.537C233.67,114.254,232.909,114.939,232.909,115.791z"/>
				</g>
				<g id="Right_Eye_3_">
					<ellipse id="Eye_BG_7_" fill="#FFFFFF" cx="183.065" cy="118.447" rx="11.896" ry="14.601"/>
					<path id="Pupil_BG_7_" fill="#E3A030" d="M188.612,118.87c0,4.03-2.665,7.301-5.951,7.301c-3.282,0-5.948-3.271-5.948-7.301
						c0-4.035,2.666-7.3,5.948-7.3C185.947,111.57,188.612,114.835,188.612,118.87z"/>
					<ellipse id="Small_Reflection_7_" fill="#F4FAFD" cx="182.634" cy="117.951" rx="1.017" ry="0.919"/>
					<ellipse id="Big_Reflection_7_" fill="#F4FAFD" cx="180.502" cy="115.791" rx="1.705" ry="1.541"/>
				</g>
			</g>
			<g id="Eye_Brows_4_">
				<path id="Left_Eye_Brow_4_" fill="none" stroke="#3D3D3D" stroke-linecap="round" stroke-miterlimit="10" d="M257.756,86.99
					c-0.695,0.036-6.825-21.365-22.391-16.96"/>
				<path id="Right_Eye_Brow_4_" fill="none" stroke="#3D3D3D" stroke-linecap="round" stroke-miterlimit="10" d="M157.357,86.99
					c0.695,0.036,6.828-21.365,22.391-16.96"/>
			</g>
		</g>
	</g>
</g>
<g>
	<g>
		<path fill="#D9C039" d="M38.1,164.305c2.451,2.076,4.894,4.161,7.34,6.24c0,0,6.317-5.054,6.32-5.054
			c0.943-0.755-1.056-9.816-1.156-11.203c-0.385-5.155-4.175-5.231-8.269-7.403c-2.661-1.414-5.272-2.908-7.704-4.692
			c-10.86-7.958-12.598-18.818-10.763-30.012c0.916-5.569,2.715-11.219,4.717-16.635c-0.294,0.797-3.767,2.151-4.569,2.741
			c-1.354,0.993-2.581,2.131-3.547,3.51c-2.062,2.943-2.773,6.587-3.169,10.094c-0.845,7.531-0.24,15.148,1.505,22.508
			c1.627,6.857,5.829,12.469,9.756,18.168C31.512,156.852,34.089,160.916,38.1,164.305z"/>
		<path fill="#A1622F" d="M25.45,111.525c2.947-1.163,4.288-4.214,5.091-7.067c1.189-4.223,0.975-9.239,5.1-11.917
			c1.711-1.109,3.781-1.788,5.732-2.35c1.11-0.319,2.24-0.562,3.376-0.789c-4.412-1.39-9.201,0.348-12.367,3.57
			c-0.779,0.795-1.765,2.377-2.747,2.819c-0.331-0.917,0.237-2.027,0.448-2.907c0.254-1.057,0.538-2.106,0.893-3.134
			c0.698-2.022,1.695-3.992,3.245-5.495c1.976-1.918,5.047-2.088,7.644-1.949c1.413,0.077,2.844,0.226,4.258,0.226
			c-0.648-0.297-1.181-0.764-1.812-1.082c-0.712-0.361-1.521-0.467-2.306-0.544c-3.449-0.331-7.551,0.543-10.221,2.856
			c-1.775,1.536-2.717,3.705-3.784,5.743c-0.498,0.955-0.972,1.926-1.558,2.835c-0.374,0.579-1.136,1.704-1.804,1.882
			c-0.385,0.102,0-1.648,0.077-1.8c0.344-0.683,0.946-1.198,1.37-1.828c0.421-0.624,0.809-1.273,1.11-1.964
			c0.525-1.208,0.785-2.559,0.494-3.863c-0.478-2.151-2.5-3.664-4.519-2.255c-1.249,0.874-2.086,2.302-2.897,3.559
			c1.183-0.692,2.834-1.825,4.291-1.427c1.334,0.364,1.374,1.804,0.899,2.878c-0.745,1.686-2.39,2.874-3.75,4.038
			c-1.524,1.304-2.887,2.697-3.814,4.496c-1.14,2.205-1.718,4.674-2.35,7.06c-1.835-1.265-1.828-3.99-1.975-5.978
			c-0.261,2.807-0.933,5.924-0.331,8.72c0.267,1.254,0.916,2.39,1.818,3.294c0.976,0.971,2.113,1.319,3.362,1.813
			c0.829,0.331,1.678,0.622,2.551,0.806c0.298,0.063,0.602,0.115,0.906,0.15C23.083,112.065,24.306,111.975,25.45,111.525z"/>
		<path fill="#F3D732" d="M64.086,179.026c0-8.633,5.313-14.61,9.298-21.916c2.656-4.649-2.656-11.29-1.328-17.267
			c1.328-5.977,9.962-5.313,12.618-10.626c1.972-3.944-1.91-7.523-3.499-11.823c-26.754,11.922-45.045,33.248-46.596,57.829
			c4.972,1.69,9.613,6.473,14.897,9.115C53.46,186.995,64.086,186.331,64.086,179.026z"/>
	</g>
	<g>
		<path fill="#D9C039" d="M127.89,285.904c-2.182-5.612-4.521-11.157-6.774-16.739c-1.511-4.043-3.022-8.088-4.536-12.129
			c-2.317-6.198-4.633-12.397-6.949-18.594c-2.574-6.885-3.744-14.195-5.316-21.368c0,0-31.081-41.98-31.084-41.98
			c0.425,0.571,0.037,3.556,0.064,4.492c0.05,1.808,0.134,3.616,0.261,5.421c0.066,0.999,0.147,1.996,0.237,2.992
			c0.23,2.49,0.534,4.973,0.922,7.444c1.083,6.895,2.614,13.72,3.801,20.599c0.705,4.085,1.354,8.182,1.891,12.297
			c1.194,9.08,1.828,18.252,1.805,27.413c-0.021,8.32,0.361,16.786-0.095,25.085c-0.13,2.432-0.3,4.859-0.521,7.286
			c-0.264,2.911-0.655,5.491,2.049,7.384c5.279,3.689,13.701,3.539,19.821,3.539c0.003,0,14.594,0,14.597,0
			c2.065,0,6.079-2.25,7.894-3.312C130.274,293.211,129.448,289.905,127.89,285.904z"/>
		
			<linearGradient id="Toe_36_" gradientUnits="userSpaceOnUse" x1="-563.7512" y1="560.496" x2="-538.1452" y2="560.496" gradientTransform="matrix(-1 0 0 1 -433.2672 -270.153)">
			<stop  offset="0" style="stop-color:#F6E579"/>
			<stop  offset="1" style="stop-color:#FFFFFF"/>
		</linearGradient>
		<ellipse id="Toe_24_" fill="url(#Toe_36_)" cx="117.681" cy="290.343" rx="12.803" ry="10.582"/>
		
			<linearGradient id="Toe_37_" gradientUnits="userSpaceOnUse" x1="-551.8032" y1="560.4945" x2="-526.1962" y2="560.4945" gradientTransform="matrix(-1 0 0 1 -433.2672 -270.153)">
			<stop  offset="0" style="stop-color:#F6E579"/>
			<stop  offset="1" style="stop-color:#FFFFFF"/>
		</linearGradient>
		<path id="Toe_23_" fill="url(#Toe_37_)" d="M92.929,290.343c0,5.842,5.732,10.582,12.806,10.582
			c7.072,0,12.801-4.74,12.801-10.582c0-5.846-5.729-10.585-12.801-10.585C98.661,279.758,92.929,284.498,92.929,290.343z"/>
		
			<linearGradient id="Toe_38_" gradientUnits="userSpaceOnUse" x1="-540.7392" y1="560.496" x2="-515.1332" y2="560.496" gradientTransform="matrix(-1 0 0 1 -433.2672 -270.153)">
			<stop  offset="0" style="stop-color:#F6E579"/>
			<stop  offset="1" style="stop-color:#FFFFFF"/>
		</linearGradient>
		<ellipse id="Toe_22_" fill="url(#Toe_38_)" cx="94.669" cy="290.343" rx="12.803" ry="10.582"/>
		<path id="Leg_BG_6_" fill="#D9C039" d="M173.892,195.366c0.23,2.49,0.535,4.974,0.922,7.447c1.083,6.893,2.61,13.717,3.801,20.596
			c0.705,4.088,1.35,8.185,1.891,12.297c1.19,9.085,1.825,18.252,1.806,27.418c-0.021,8.316,0.357,16.782-0.095,25.081
			c-0.134,2.433-0.3,4.859-0.521,7.286c-0.264,2.911-0.655,5.495,2.045,7.384c5.282,3.689,13.701,3.539,19.824,3.539
			c0.003,0,14.589,0,14.596,0c2.062,0,6.077-2.25,7.891-3.309c4.319-2.527,3.494-5.829,1.936-9.833
			c-2.182-5.609-4.526-11.157-6.779-16.738c-1.511-4.044-3.021-8.086-4.532-12.13c-2.316-6.196-4.632-12.394-6.949-18.59
			c-2.574-6.885-3.744-14.198-5.314-21.371l-31.084-41.98c0.421,0.571,0.034,3.557,0.061,4.492c0.05,1.809,0.137,3.616,0.261,5.425
			C173.721,193.374,173.798,194.369,173.892,195.366z"/>
		
			<linearGradient id="Toe_39_" gradientUnits="userSpaceOnUse" x1="-663.8462" y1="567.863" x2="-638.2402" y2="567.863" gradientTransform="matrix(-1 0 0 1 -433.2672 -270.153)">
			<stop  offset="0" style="stop-color:#F6E579"/>
			<stop  offset="1" style="stop-color:#FFFFFF"/>
		</linearGradient>
		<ellipse id="Toe_21_" fill="url(#Toe_39_)" cx="217.776" cy="297.71" rx="12.803" ry="10.582"/>
		
			<linearGradient id="Toe_40_" gradientUnits="userSpaceOnUse" x1="-651.9002" y1="567.863" x2="-626.2942" y2="567.863" gradientTransform="matrix(-1 0 0 1 -433.2672 -270.153)">
			<stop  offset="0" style="stop-color:#F6E579"/>
			<stop  offset="1" style="stop-color:#FFFFFF"/>
		</linearGradient>
		<ellipse id="Toe_20_" fill="url(#Toe_40_)" cx="205.83" cy="297.71" rx="12.803" ry="10.582"/>
		
			<linearGradient id="Toe_41_" gradientUnits="userSpaceOnUse" x1="-640.8342" y1="567.863" x2="-615.2282" y2="567.863" gradientTransform="matrix(-1 0 0 1 -433.2672 -270.153)">
			<stop  offset="0" style="stop-color:#F6E579"/>
			<stop  offset="1" style="stop-color:#FFFFFF"/>
		</linearGradient>
		<ellipse id="Toe_19_" fill="url(#Toe_41_)" cx="194.764" cy="297.71" rx="12.803" ry="10.582"/>
		<path fill="#F3D732" d="M130.484,107.276c-18.03,0-34.897,3.696-49.31,10.119c1.589,4.299,5.471,7.878,3.499,11.823
			c-2.656,5.313-11.29,4.649-12.618,10.626s3.985,12.618,1.328,17.267c-3.985,7.305-9.298,13.282-9.298,21.916
			c0,7.305-10.626,7.969-14.61,5.313c-5.284-2.642-9.925-7.424-14.897-9.115c-0.071,1.126-0.111,2.258-0.111,3.397
			c0,39.406,42.986,71.35,96.017,71.35c53.03,0,96.017-31.944,96.017-71.35C226.502,139.22,183.515,107.276,130.484,107.276z"/>
		<path fill="#F3D732" d="M89.125,291.898c-2.182-5.609-4.526-11.158-6.778-16.739c-1.511-4.044-3.022-8.085-4.532-12.129
			c-2.317-6.197-4.633-12.394-6.949-18.591c-2.573-6.885-3.743-14.198-5.314-21.37c0,0-31.084-41.978-31.084-41.981
			c0.42,0.571,0.034,3.557,0.06,4.492c0.05,1.809,0.137,3.621,0.261,5.425c0.071,0.996,0.148,1.996,0.241,2.988
			c0.23,2.493,0.535,4.976,0.922,7.447c1.083,6.895,2.611,13.717,3.8,20.596c0.705,4.088,1.35,8.186,1.892,12.296
			c1.189,9.085,1.825,18.257,1.804,27.418c-0.02,8.316,0.357,16.786-0.093,25.081c-0.134,2.433-0.301,4.86-0.522,7.29
			c-0.264,2.907-0.655,5.491,2.046,7.379c5.281,3.69,13.701,3.544,19.823,3.544c0.003,0,14.589,0,14.597,0
			c2.062,0,6.076-2.25,7.891-3.312C91.508,299.203,90.683,295.902,89.125,291.898z"/>
		
			<linearGradient id="Toe_42_" gradientUnits="userSpaceOnUse" x1="-524.9832" y1="566.489" x2="-499.3772" y2="566.489" gradientTransform="matrix(-1 0 0 1 -433.2672 -270.153)">
			<stop  offset="0" style="stop-color:#F6E579"/>
			<stop  offset="1" style="stop-color:#FFFFFF"/>
		</linearGradient>
		<ellipse id="Toe_17_" fill="url(#Toe_42_)" cx="78.913" cy="296.336" rx="12.803" ry="10.582"/>
		
			<linearGradient id="Toe_43_" gradientUnits="userSpaceOnUse" x1="-513.0362" y1="566.489" x2="-487.4302" y2="566.489" gradientTransform="matrix(-1 0 0 1 -433.2672 -270.153)">
			<stop  offset="0" style="stop-color:#F6E579"/>
			<stop  offset="1" style="stop-color:#FFFFFF"/>
		</linearGradient>
		<ellipse id="Toe_16_" fill="url(#Toe_43_)" cx="66.966" cy="296.336" rx="12.803" ry="10.582"/>
		
			<linearGradient id="Toe_44_" gradientUnits="userSpaceOnUse" x1="-501.9702" y1="566.489" x2="-476.3642" y2="566.489" gradientTransform="matrix(-1 0 0 1 -433.2672 -270.153)">
			<stop  offset="0" style="stop-color:#F6E579"/>
			<stop  offset="1" style="stop-color:#FFFFFF"/>
		</linearGradient>
		<ellipse id="Toe_15_" fill="url(#Toe_44_)" cx="55.9" cy="296.336" rx="12.803" ry="10.582"/>
		<path id="Leg_BG_4_" fill="#F3D732" d="M145.729,240.297c1.194,9.085,1.828,18.253,1.805,27.418
			c-0.021,8.316,0.361,16.783-0.093,25.081c-0.13,2.433-0.301,4.86-0.521,7.287c-0.264,2.91-0.655,5.495,2.049,7.383
			c5.277,3.69,13.7,3.54,19.82,3.54c0.003,0,14.593,0,14.596,0c2.066,0,6.08-2.25,7.895-3.309c4.315-2.527,3.489-5.829,1.931-9.833
			c-2.182-5.609-4.522-11.158-6.775-16.739c-1.51-4.044-3.021-8.085-4.535-12.129c-2.316-6.198-4.632-12.394-6.948-18.59
			c-2.575-6.886-3.744-14.199-5.315-21.371C169.637,229.034,145.191,236.186,145.729,240.297z"/>
		
			<linearGradient id="Toe_45_" gradientUnits="userSpaceOnUse" x1="-629.0722" y1="572.456" x2="-603.4662" y2="572.456" gradientTransform="matrix(-1 0 0 1 -433.2672 -270.153)">
			<stop  offset="0" style="stop-color:#F6E579"/>
			<stop  offset="1" style="stop-color:#FFFFFF"/>
		</linearGradient>
		<ellipse id="Toe_14_" fill="url(#Toe_45_)" cx="183.002" cy="302.303" rx="12.803" ry="10.582"/>
		
			<linearGradient id="Toe_46_" gradientUnits="userSpaceOnUse" x1="-617.1232" y1="572.456" x2="-591.5172" y2="572.456" gradientTransform="matrix(-1 0 0 1 -433.2672 -270.153)">
			<stop  offset="0" style="stop-color:#F6E579"/>
			<stop  offset="1" style="stop-color:#FFFFFF"/>
		</linearGradient>
		<ellipse id="Toe_13_" fill="url(#Toe_46_)" cx="171.053" cy="302.303" rx="12.803" ry="10.582"/>
		
			<linearGradient id="Toe_47_" gradientUnits="userSpaceOnUse" x1="-606.0602" y1="572.456" x2="-580.4542" y2="572.456" gradientTransform="matrix(-1 0 0 1 -433.2672 -270.153)">
			<stop  offset="0" style="stop-color:#F6E579"/>
			<stop  offset="1" style="stop-color:#FFFFFF"/>
		</linearGradient>
		<ellipse id="Toe_12_" fill="url(#Toe_47_)" cx="159.99" cy="302.303" rx="12.803" ry="10.582"/>
		<path fill="#A1622F" d="M92.657,112.693c0,55.607,51.143,100.692,114.234,100.692c63.084,0,114.229-45.085,114.229-100.692
			C321.12,57.083,269.975,12,206.891,12C143.801,12,92.657,57.083,92.657,112.693z"/>
		<path id="Ear_BG_5_" fill="#F3D732" d="M256.369,50.425c1.825,2.567,0,0.404,27.457,26.304c15.165,0,27.458-11.777,27.458-26.304
			c0-14.529-12.293-26.305-27.458-26.305C268.662,24.119,256.369,35.896,256.369,50.425z"/>
		
			<linearGradient id="Inner_Ear_3_" gradientUnits="userSpaceOnUse" x1="-715.6697" y1="341.293" x2="-715.6697" y2="303.078" gradientTransform="matrix(-1 0 0 1 -433.2672 -270.153)">
			<stop  offset="0" style="stop-color:#957844"/>
			<stop  offset="1" style="stop-color:#52351C"/>
		</linearGradient>
		<path id="Inner_Ear_5_" fill="url(#Inner_Ear_3_)" d="M263.117,52.032c1.286,1.866,0,0.293,19.289,19.108
			c10.651,0,19.282-8.557,19.282-19.108c0-10.556-8.631-19.107-19.282-19.107C271.754,32.925,263.117,41.477,263.117,52.032z"/>
		<path id="Ear_BG_4_" fill="#F3D732" d="M160.165,50.425c-1.825,2.567,0,0.404-27.458,26.304
			c-15.164,0-27.458-11.777-27.458-26.304c0-14.529,12.294-26.305,27.458-26.305C147.875,24.119,160.165,35.896,160.165,50.425z"/>
		
			<linearGradient id="Inner_Ear_6_" gradientUnits="userSpaceOnUse" x1="979.547" y1="341.293" x2="979.547" y2="303.078" gradientTransform="matrix(1 0 0 1 -845.4155 -270.153)">
			<stop  offset="0" style="stop-color:#957844"/>
			<stop  offset="1" style="stop-color:#52351C"/>
		</linearGradient>
		<path id="Inner_Ear_4_" fill="url(#Inner_Ear_6_)" d="M153.417,52.032c-1.284,1.866,0,0.293-19.289,19.108
			c-10.649,0-19.282-8.557-19.282-19.108c0-10.556,8.633-19.107,19.282-19.107C144.78,32.925,153.417,41.477,153.417,52.032z"/>
		<path id="Head_BG_2_" fill="#F3D732" d="M132.393,120.764c0,43.948,33.664,79.579,75.19,79.579s75.197-35.63,75.197-79.579
			c0-43.952-33.671-79.58-75.197-79.58S132.393,76.813,132.393,120.764z"/>
		<path id="Muzzle_3_" fill="#E5B467" d="M171.135,166.367c0,18.968,16.321,34.35,36.449,34.35c20.135,0,36.452-15.381,36.452-34.35
			c0-18.972-16.317-34.349-36.452-34.349C187.456,132.019,171.135,147.396,171.135,166.367z"/>
		<path id="Smile_3_" fill="none" stroke="#282827" stroke-linecap="round" stroke-miterlimit="10" d="M200.955,187.334
			c2.567,2.868,7.503,2.921,10.956,2.26c8.784-1.682,16.054-9.803,20.138-17.361"/>
		<g id="Nose_1_">
			<polygon fill="#52351C" points="207.586,160.882 233.005,142.639 182.164,142.639 			"/>
			
				<linearGradient id="SVGID_2_" gradientUnits="userSpaceOnUse" x1="-640.8532" y1="442.886" x2="-640.8532" y2="426.848" gradientTransform="matrix(-1 0 0 1 -433.2672 -270.153)">
				<stop  offset="0.172" style="stop-color:#E5B467"/>
				<stop  offset="0.5968" style="stop-color:#52351C"/>
			</linearGradient>
			
				<line fill="none" stroke="url(#SVGID_2_)" stroke-linecap="round" stroke-miterlimit="10" x1="207.586" y1="157.195" x2="207.586" y2="172.233"/>
			<path fill="#E5B467" d="M201.847,157.496c-0.153-0.802-0.591-1.627-0.872-2.403c-0.29-0.808-0.578-1.621-0.916-2.413
				c-0.671-1.582-1.531-3.109-2.844-4.252c-1.294-1.133-3.389-2.701-5.231-2.36c-1.186,0.221-2.493,1.568-2.179,2.884
				c0.29,1.21,1.504,1.855,2.443,2.51c1.487,1.03,2.881,2.189,4.328,3.272c0.261,0.193,0.531,0.472,0.826,0.618
				C198.799,156.039,200.357,157.102,201.847,157.496z"/>
			<path fill="#E5B467" d="M213.63,157.496c0.161-0.802,0.602-1.627,0.876-2.403c0.291-0.808,0.581-1.621,0.916-2.413
				c0.676-1.582,1.534-3.109,2.841-4.252c1.3-1.133,3.393-2.701,5.235-2.36c1.19,0.221,2.496,1.568,2.176,2.884
				c-0.291,1.21-1.495,1.855-2.444,2.51c-1.487,1.03-2.878,2.189-4.325,3.272c-0.261,0.193-0.531,0.472-0.822,0.618
				C216.684,156.039,215.127,157.102,213.63,157.496z"/>
		</g>
		<ellipse id="Eye_BG_5_" fill="#FFFFFF" cx="232.049" cy="118.447" rx="11.895" ry="14.601"/>
		<path id="Pupil_BG_6_" fill="#E3A030" d="M226.502,118.87c0,4.03,2.667,7.301,5.952,7.301c3.283,0,5.947-3.271,5.947-7.301
			c0-4.035-2.664-7.3-5.947-7.3C229.169,111.57,226.502,114.835,226.502,118.87z"/>
		<ellipse id="Small_Reflection_6_" fill="#F4FAFD" cx="232.481" cy="117.951" rx="1.016" ry="0.919"/>
		<path id="Big_Reflection_6_" fill="#F4FAFD" d="M232.909,115.791c0,0.854,0.761,1.541,1.701,1.541
			c0.946,0,1.708-0.688,1.708-1.541c0-0.852-0.762-1.537-1.708-1.537C233.67,114.254,232.909,114.939,232.909,115.791z"/>
		<ellipse id="Eye_BG_4_" fill="#FFFFFF" cx="183.065" cy="118.447" rx="11.896" ry="14.601"/>
		<path id="Pupil_BG_5_" fill="#E3A030" d="M188.612,118.87c0,4.03-2.665,7.301-5.951,7.301c-3.282,0-5.948-3.271-5.948-7.301
			c0-4.035,2.666-7.3,5.948-7.3C185.947,111.57,188.612,114.835,188.612,118.87z"/>
		<ellipse id="Small_Reflection_5_" fill="#F4FAFD" cx="182.634" cy="117.951" rx="1.017" ry="0.919"/>
		<ellipse id="Big_Reflection_5_" fill="#F4FAFD" cx="180.502" cy="115.791" rx="1.705" ry="1.541"/>
		<g id="Eye_Brows_2_">
			<path id="Left_Eye_Brow_2_" fill="none" stroke="#3D3D3D" stroke-linecap="round" stroke-miterlimit="10" d="M257.756,86.99
				c-0.695,0.036-6.825-21.365-22.391-16.96"/>
			<path id="Right_Eye_Brow_2_" fill="none" stroke="#3D3D3D" stroke-linecap="round" stroke-miterlimit="10" d="M157.357,86.99
				c0.695,0.036,6.828-21.365,22.391-16.96"/>
		</g>
	</g>
</g>
</svg>
