<?xml version="1.0" encoding="utf-8"?>
<!-- Generator: Adobe Illustrator 17.0.0, SVG Export Plug-In . SVG Version: 6.00 Build 0)  -->
<!DOCTYPE svg PUBLIC "-//W3C//DTD SVG 1.1 Basic//EN" "http://www.w3.org/Graphics/SVG/1.1/DTD/svg11-basic.dtd">
<svg version="1.1" baseProfile="basic" id="Слой_1"
	 xmlns="http://www.w3.org/2000/svg" xmlns:xlink="http://www.w3.org/1999/xlink" x="0px" y="0px" width="72.221px"
	 height="104.928px" viewBox="0 0 72.221 104.928" xml:space="preserve">
<path fill="#BAAE52" d="M68.175,36.556c-16.044,7.149-29.039,17.683-37.211,30.271c-0.533-0.234-1.078-0.487-1.629-0.78
	c-2.661-1.414-5.272-2.908-7.704-4.692c-10.86-7.958-12.598-18.818-10.763-30.012c0.015-0.091,0.035-0.183,0.05-0.274
	c0.52-0.07,1.034-0.186,1.532-0.382c2.947-1.163,4.288-4.214,5.091-7.067c1.189-4.223,0.975-9.239,5.1-11.917
	c1.711-1.109,3.781-1.788,5.732-2.35c1.11-0.319,2.24-0.562,3.376-0.789c-4.412-1.39-9.201,0.348-12.367,3.57
	c-0.779,0.795-1.765,2.377-2.747,2.819c-0.331-0.917,0.237-2.027,0.448-2.907c0.254-1.057,0.538-2.106,0.893-3.134
	c0.698-2.022,1.695-3.992,3.245-5.495c1.976-1.918,5.047-2.088,7.644-1.949c1.413,0.077,2.844,0.226,4.258,0.226
	c-0.648-0.297-1.181-0.764-1.812-1.082c-0.712-0.361-1.521-0.467-2.306-0.544c-3.449-0.331-7.551,0.543-10.221,2.856
	C17.009,4.46,16.067,6.629,15,8.667c-0.498,0.955-0.972,1.926-1.558,2.835c-0.374,0.579-1.136,1.704-1.804,1.882
	c-0.385,0.102,0-1.648,0.077-1.8c0.344-0.683,0.946-1.198,1.37-1.828c0.421-0.624,0.809-1.273,1.11-1.964
	c0.525-1.208,0.785-2.559,0.494-3.863c-0.478-2.151-2.5-3.664-4.519-2.255C8.921,2.548,8.084,3.976,7.273,5.233
	c1.183-0.692,2.834-1.825,4.291-1.427c1.334,0.364,1.374,1.804,0.899,2.878c-0.745,1.686-2.39,2.874-3.75,4.038
	c-1.524,1.304-2.887,2.697-3.814,4.496c-1.14,2.205-1.718,4.674-2.35,7.06c-1.835-1.265-1.828-3.99-1.975-5.978
	c-0.261,2.807-0.933,5.924-0.331,8.72c0.267,1.254,0.916,2.39,1.818,3.294c0.719,0.716,1.527,1.093,2.402,1.439
	c-0.06,0.434-0.114,0.868-0.163,1.3c-0.845,7.531-0.24,15.148,1.505,22.508c1.627,6.857,5.829,12.469,9.756,18.168
	c2.609,3.788,4.929,7.401,8.202,10.53c-1.174,3.931-1.923,7.981-2.184,12.126c4.972,1.69,9.613,6.473,14.897,9.115
	c3.984,2.657,14.61,1.993,14.61-5.312c0-8.633,5.313-14.61,9.298-21.916c2.656-4.649-2.656-11.29-1.328-17.267
	s9.962-5.313,12.618-10.626C73.646,44.435,69.764,40.856,68.175,36.556z"/>
</svg>
