<?xml version="1.0" encoding="utf-8"?>
<!-- Generator: Adobe Illustrator 17.0.0, SVG Export Plug-In . SVG Version: 6.00 Build 0)  -->
<!DOCTYPE svg PUBLIC "-//W3C//DTD SVG 1.1 Basic//EN" "http://www.w3.org/Graphics/SVG/1.1/DTD/svg11-basic.dtd">
<svg version="1.1" baseProfile="basic" id="Слой_1"
	 xmlns="http://www.w3.org/2000/svg" xmlns:xlink="http://www.w3.org/1999/xlink" x="0px" y="0px" width="363.5px"
	 height="256.083px" viewBox="0 0 363.5 256.083" xml:space="preserve">
<path fill="#CF4A73" stroke="#FFFFFF" stroke-width="6" stroke-miterlimit="10" d="M337.572,105.531
	c7.716-7.218,16.404-18.581,13.139-30.007c-4.313-15.09-18.541-24.474-33.881-19.288c14.598-29.659-24.708-54.874-43.407-31.174
	c0.489-12.33-18.06-17.568-27.281-17.025c-14.58,0.86-21.734,9.295-27.635,22.107c-15.635-20.141-63.583,9.04-39.778,35.987
	c-3.862,2.582-26.031,0.493-24.547,26.45c-0.162,2.908,0.548,5.569,1.869,7.948c-10.484,1.885-23.52-0.409-31.979-1.108
	c-1.518-0.125-3.002-0.196-4.469-0.234c-6.272,1.197-11.822,4.944-14.852,10.5c-2.841,4.972,1.421,12.785-0.71,19.177
	c-2.131,7.813-10.654,10.654-17.047,15.626c-4.972,4.262-3.551,10.654-5.682,15.626c-0.531,1.416-2.405,4.023-2.405,4.023
	c0.009,0.018,0.017,0.038,0.026,0.056c-0.207,0.258-0.411,0.519-0.635,0.767c0.724,1.778,1.51,3.495,2.34,5.129
	c1.471,6.736,3.454,17.363,10.494,30.186c2.998,5.461,2.89,16.955,2.655,23.018c-0.233,5.989-2.064,13.391,0.938,18.115
	c-0.001,0.006-0.003,0.011-0.004,0.017l-0.262-0.14c2.223,7.492,24.942,7.025,28.553,6.754c1.161-0.087,2.607-0.29,4.063-0.652
	c1.114-0.208,2.052-0.524,2.838-0.952c1.845-0.82,3.357-2.002,3.827-3.667c3.397,0.021,6.147-0.136,7.215-0.24
	c4.246-0.417,12.284-2.453,10.466-8.105c0.228-1.338,0.357-2.859,0.428-4.597c0.391-9.575-1.19-19.396-2.701-28.62
	c-0.278-1.695-0.848-5.261-1.221-9.207c2.97-0.03,5.947-0.028,8.936,0.059c11.927,0.345,23.384,2.531,35.302,2.311
	c3.933-0.074,7.911-0.409,11.904-0.889c1.162,2.536,2.138,5.228,2.57,8.081c0.932,6.16-0.483,12.481-0.718,18.543
	c-0.236,6.083-2.128,13.628,1.078,18.34c-0.062,0.246-0.113,0.499-0.148,0.761l-0.265-0.134c2.392,7.439,25.094,6.465,28.698,6.113
	c4.245-0.416,12.284-2.453,10.466-8.105c0.013-0.076,0.029-0.147,0.041-0.224c4.722,0.182,8.85-0.041,10.219-0.175
	c4.245-0.414,12.284-2.451,10.465-8.103c0.229-1.339,0.358-2.861,0.429-4.598c0.39-9.576-1.191-19.397-2.702-28.617
	c-0.43-2.626-1.561-9.745-1.573-15.808c0.238-0.082,0.479-0.165,0.712-0.246c2.985,3.551,6.954,6.94,10.985,10.424
	c6.195,5.353,15.333,5.241,23.731,3.709c19.237-3.516,26.488-24.389,20.214-38.961c7.084,0.587,10.734,3.275,17.765,0.107
	c5.864-2.639,12.335-8.198,15.419-13.802C359.61,125.954,352.057,110.043,337.572,105.531z"/>
<path fill="#EB7272" d="M1602.97,686.224c0.358-0.247,0.715-0.495,1.073-0.742c0.084,0.127,0.169,0.254,0.253,0.381
	c-0.434,0.129-0.868,0.259-1.302,0.388C1602.994,686.25,1602.97,686.224,1602.97,686.224z"/>
<path fill="#EB7272" d="M1570.006,1049.175c0.243,0.36,0.489,0.718,0.714,1.089c0.004,0.007-0.235,0.163-0.361,0.249
	c-0.133-0.432-0.267-0.865-0.401-1.297C1569.957,1049.216,1570.006,1049.175,1570.006,1049.175z"/>
<g>
	<path fill="#DB8E30" d="M264.91,170.252c-4.218,3.091-1.441,20.633-0.709,25.112c1.511,9.22,3.092,19.041,2.702,28.617
		c-0.344,8.429-1.909,12.039-10.851,12.039c-7.986,0-16.915,0.255-24.311-2.89c-8.406-3.575-5.397-13.745-5.095-21.523
		c0.235-6.063,1.65-12.387,0.718-18.546c-0.97-6.405-4.672-12.001-7.095-16.828L264.91,170.252z"/>
	<path fill="#895E3B" d="M227.311,230.57c2.391,7.442,25.093,6.464,28.698,6.113c4.471-0.436,13.158-2.669,10.097-9.033
		c-2.085-4.335-10.575-3.005-12.356,1.326c-1.6-4.689-10.231-5.048-11.48-0.171c-0.61-6.206-13.631-5.939-14.694,1.899
		L227.311,230.57z"/>
	<path fill="#DB8E30" d="M149.854,176.099c-4.218,3.091-1.441,20.632-0.708,25.109c1.511,9.224,3.092,19.045,2.701,28.62
		c-0.344,8.43-1.909,12.036-10.851,12.036c-7.985,0-16.914,0.258-24.311-2.887c-8.406-3.578-5.396-13.748-5.095-21.526
		c0.235-6.063,1.651-12.384,0.719-18.543c-0.971-6.405-4.673-12.002-7.096-16.83L149.854,176.099z"/>
	<path fill="#895E3B" d="M112.255,236.418c2.391,7.439,25.094,6.464,28.698,6.112c4.472-0.439,13.159-2.672,10.097-9.037
		c-2.085-4.335-10.574-3.001-12.356,1.33c-1.599-4.69-10.231-5.048-11.479-0.175c-0.61-6.202-13.632-5.938-14.694,1.903
		L112.255,236.418z"/>
	<path fill="#E7AB30" d="M86.994,144.491c6.392-4.972,14.916-7.813,17.047-15.626c2.131-6.392-2.131-14.205,0.71-19.177
		c3.031-5.557,8.581-9.303,14.852-10.5c1.467,0.038,2.952,0.109,4.469,0.234c12.977,1.073,36.728,5.907,45.508-6.369l100.113,83.843
		c-8.905,3.839-32.835,10.764-42.176,12.59c-11.664,2.286-23.706,4.667-35.353,4.886c-11.919,0.22-23.376-1.966-35.302-2.311
		c-11.85-0.346-23.51,0.654-35.313-0.392c-10.188-0.897-27.368-5.232-34.873-12.712c-3.226-3.215-6.081-8.355-8.379-13.993
		c1.328-1.472,2.37-3.125,3.015-4.846C83.443,155.145,82.022,148.753,86.994,144.491z"/>
	<path fill="#E7AB30" d="M244.184,178.755c-4.218,3.09-1.441,20.632-0.709,25.109c1.511,9.224,3.092,19.045,2.702,28.62
		c-0.344,8.43-1.909,12.036-10.851,12.036c-7.986,0-16.915,0.258-24.312-2.887c-8.406-3.577-5.396-13.748-5.094-21.526
		c0.235-6.063,1.65-12.383,0.718-18.543c-0.97-6.405-4.673-12.001-7.095-16.83L244.184,178.755z"/>
	<path fill="#895E3B" d="M206.585,239.073c2.392,7.439,25.094,6.465,28.698,6.113c4.471-0.439,13.159-2.671,10.097-9.036
		c-2.085-4.335-10.575-3.001-12.356,1.329c-1.6-4.689-10.231-5.047-11.48-0.174c-0.61-6.203-13.631-5.938-14.694,1.903
		L206.585,239.073z"/>
	<path fill="#E7AB30" d="M132.048,181.943c-4.217,3.091-1.441,20.633-0.708,25.11c1.51,9.223,3.092,19.044,2.701,28.62
		c-0.344,8.429-1.908,12.035-10.85,12.035c-7.986,0-16.915,0.259-24.312-2.886c-8.406-3.578-5.396-13.748-5.094-21.526
		c0.235-6.063,0.344-17.557-2.655-23.018c-9.75-17.758-9.801-31.309-12.224-36.137L132.048,181.943z"/>
	<path fill="#895E3B" d="M94.458,241.288c2.223,7.492,24.942,7.025,28.553,6.754c4.481-0.336,13.217-2.373,10.298-8.806
		c-1.988-4.379-10.505-3.239-12.382,1.052c-1.495-4.724-10.115-5.275-11.474-0.43c-0.472-6.219-13.494-6.243-14.733,1.569
		L94.458,241.288z"/>
	<path fill="#895E3B" d="M258.008,170.451c-2.835,14.015-12.98,24.165-25.956,25.214c-18.97,1.533-35.597-9.64-34.969-32.011
		c-13.634,3.694-28.639,6.531-36.967-6.552c-15.574-28.181,4.403-38.741,10.348-45.708c-8.862-3.019-16.785-9.731-16.281-18.813
		c-1.485-25.957,20.685-23.867,24.547-26.45c-23.804-26.946,24.143-56.127,39.778-35.987c5.901-12.812,13.055-21.247,27.634-22.107
		c9.22-0.544,27.769,4.695,27.281,17.025c18.699-23.7,58.004,1.515,43.407,31.174c15.34-5.186,29.568,4.197,33.881,19.288
		c3.265,11.426-5.423,22.788-13.139,30.007c14.485,4.511,22.039,20.422,13.882,35.256c-3.085,5.604-9.555,11.163-15.419,13.802
		c-7.031,3.167-10.68,0.479-17.765-0.107c6.274,14.572-0.976,35.445-20.214,38.961c-8.399,1.532-17.536,1.644-23.731-3.709
		c-6.966-6.02-13.77-11.757-15.575-18.541L258.008,170.451z"/>
	<path fill="#E7AB30" d="M291.23,60.015c0,0,10.975-5.509,20.375-1.644c2.592,1.065,5.659,4.483,5.736,8.237
		c0.155,7.917-11.112,12.739-11.112,12.739L291.23,60.015z"/>
	<path fill="#895E3B" d="M301.328,62.571c0,0,7.321-1.923,10.895,0.429c2.233,1.467,2.355,4.163,2.068,4.966
		c-0.793,2.233-6.333,7.032-6.333,7.032L301.328,62.571z"/>
	<path fill="#E7AB30" d="M224.141,57.964c0,0-10.156-6.898-19.985-4.297c-2.707,0.713-6.197,3.699-6.763,7.411
		c-1.196,7.827,9.345,14.088,9.345,14.088L224.141,57.964z"/>
	<path fill="#895E3B" d="M214.609,59.591c0,0-7.001-2.863-10.859-1c-2.405,1.158-2.878,3.818-2.699,4.654
		c0.494,2.313,5.359,7.797,5.359,7.797L214.609,59.591z"/>
	<path fill="#E7AB30" d="M255.086,45.989c34.165,0.969,61.105,27.013,60.176,58.171c-0.931,31.158-29.38,55.633-63.547,54.665
		c-34.164-0.972-61.105-27.016-60.175-58.175C192.471,69.491,220.923,45.02,255.086,45.989z"/>
	<path d="M236.76,81.763c-2.737-0.084-5.036,1.993-5.122,4.638c-0.078,2.64,2.079,4.851,4.827,4.934
		c2.742,0.092,5.039-1.984,5.119-4.63C241.666,84.063,239.505,81.845,236.76,81.763z"/>
	<path d="M270.773,83.889c-2.737-0.084-5.037,1.993-5.122,4.638c-0.078,2.64,2.079,4.852,4.827,4.935
		c2.742,0.091,5.039-1.984,5.119-4.63C275.679,86.19,273.518,83.97,270.773,83.889z"/>
	<path fill="#872225" d="M228.261,123.748c0,0,4.915,7.573,10.239,7.744c7.896,0.235,12.9-5.731,13.257-6.172
		c0.565,0.836,5.231,7.395,12.911,7.655c8.437,0.268,13.167-9.813,13.167-9.813c-1.89,1.769-6.389,8.323-13.123,8.295
		c-6.882-0.204-10.833-5.819-11.509-6.874l-0.341-14.105h-0.007l-0.01-0.001l0.038-0.557l-1.207-0.144l-1.225,14.059
		c-0.341,0.439-1.389,1.764-3.067,3.085c-2.057,1.594-4.443,3.202-8.84,3.064C236.379,129.92,232.14,127.213,228.261,123.748z"/>
	<path fill="#B92A2B" d="M252.274,101.401c8.002,0.25,16.264,2.129,14.328,5.465c-2.597,4.474-6.762,8.741-14.766,8.493
		c-7.994-0.25-12.101-5.156-14.201-9.402C235.923,102.506,244.277,101.147,252.274,101.401z"/>
	<path fill="#CF4A73" d="M287.539,98.521c5.748,0.168,10.274,4.965,10.108,10.713c-0.169,5.749-4.966,10.275-10.713,10.108
		c-5.75-0.169-10.274-4.965-10.108-10.714C276.993,102.879,281.79,98.354,287.539,98.521z"/>
	<path fill="#CF4A73" d="M220.715,95.418c5.749,0.167,10.274,4.962,10.106,10.713c-0.167,5.747-4.962,10.274-10.713,10.106
		c-5.749-0.167-10.274-4.965-10.107-10.713C210.169,99.775,214.964,95.251,220.715,95.418z"/>
</g>
</svg>
