<?xml version="1.0" encoding="utf-8"?>
<!-- Generator: Adobe Illustrator 17.0.0, SVG Export Plug-In . SVG Version: 6.00 Build 0)  -->
<!DOCTYPE svg PUBLIC "-//W3C//DTD SVG 1.1 Basic//EN" "http://www.w3.org/Graphics/SVG/1.1/DTD/svg11-basic.dtd">
<svg version="1.1" baseProfile="basic" id="Слой_1"
	 xmlns="http://www.w3.org/2000/svg" xmlns:xlink="http://www.w3.org/1999/xlink" x="0px" y="0px" width="158.289px"
	 height="165.842px" viewBox="0 0 158.289 165.842" xml:space="preserve">
<path fill="#B76153" d="M154.962,56.423c-0.319-0.995-0.657-2.044-1.103-3.03c1.175-2.525,1.269-5.282-0.02-7.579
	c-0.643-1.149-1.571-2.057-2.677-2.726c-0.209-1.02-0.556-2.134-1.051-3.279c-1.716-3.961-4.489-6.776-6.193-6.283
	c-1.708,0.497-1.705,4.112,0.009,8.076c0.05,0.117,0.105,0.228,0.157,0.343c-0.868,0.151-1.741,0.404-2.604,0.75
	c-0.5-0.882-1.147-1.806-1.935-2.717c-2.826-3.262-6.315-5.113-7.795-4.13c-1.478,0.985-0.39,4.434,2.435,7.699
	c0.799,0.924,1.652,1.728,2.497,2.393c-0.236,0.25-0.457,0.505-0.667,0.768c-3.814-1.775-7.614-2.053-8.563-0.594
	c-0.966,1.49,1.398,4.225,5.288,6.103c0.31,0.149,0.619,0.285,0.928,0.414c-0.018,0.477-0.006,0.952,0.061,1.419
	c-2.678,0.513-4.613,1.974-4.548,3.62c0.081,1.959,2.961,3.436,6.43,3.291c1.331-0.054,2.554-0.341,3.553-0.782
	c0.58,0.183,1.187,0.313,1.815,0.389c0.36,2.29,0.991,4.656,1.427,7.02c1.498,8.144,2.025,16.71,0.651,24.544
	c-1.332,7.582-2.975,12.691-9.632,16.735c-5.885,3.577-13.015,5.678-20.389,5.27c-0.023-0.004-0.043-0.004-0.065-0.003
	c-1.022-0.062-9.232-1.046-11.954-0.778c-2.11-0.718-4.276-1.269-6.489-1.639c0.021-0.003,0.042-0.006,0.062-0.01
	c1.516-0.256,3.435-10.565,4.165-12.234c3.497-8.025,10.689-14.116,16.115-20.784c7.593-9.337,10.241-20.373,9.708-32.233
	c-0.481-10.631-5.864-20.675-11.904-29.201c-3.511-4.954-9.515-9.928-14.766-12.925c-4.102-2.342-9.497-3.799-14.173-4.184
	C69.076-1.062,54.629,5.275,44.78,15.983c-7.129,7.751-9.077,19.011-2.28,27.702c3.271,4.184,8.089,6.87,13.383,7.364
	c4.546,0.425,12.335-0.47,16.199-3.129c3.899-2.683,3.459-8.922-1.159-10.436c-3.489-1.145-7.321,1.444-10.858,1.474
	c-8.429,0.073-14.11-8.521-10.157-16.085C55.03,13.073,69.752,9.197,79.912,9.549c10.457,0.362,17.179,4.966,23.961,12.76
	c12.805,14.712,10.891,33.08,1.05,48.865c-2.066,3.312-4.341,6.51-6.64,9.586c-6.288,8.413-12.842,16.629-19.624,24.649
	c-2.139,2.53-6.752,9.852-10.281,10.407c0.2-0.031,0.401-0.063,0.602-0.094c-1.358,0.687-2.685,1.446-3.979,2.273
	c-3.405,0.938-8.421,2.769-9.197,3.004c-0.022,0.004-0.042,0.009-0.062,0.019c-7.083,2.098-14.504,1.699-21.055-0.424
	c-7.41-2.401-10.186-6.992-13.23-14.062C18.31,99.228,16.848,90.77,16.429,82.5c-0.122-2.401-0.053-4.847-0.232-7.158
	c0.594-0.219,1.154-0.485,1.677-0.797c1.075,0.199,2.33,0.195,3.638-0.058c3.408-0.66,5.87-2.76,5.496-4.686
	c-0.315-1.617-2.535-2.593-5.259-2.473c-0.043-0.469-0.141-0.935-0.269-1.395c0.271-0.197,0.54-0.401,0.808-0.618
	c3.35-2.724,5.021-5.931,3.736-7.158c-1.26-1.201-4.894-0.053-8.194,2.554c-0.265-0.207-0.54-0.405-0.828-0.594
	c0.669-0.842,1.313-1.822,1.878-2.904c1.997-3.829,2.259-7.435,0.594-8.054c-1.667-0.613-4.634,1.991-6.632,5.818
	c-0.556,1.069-0.973,2.117-1.256,3.091c-0.92-0.137-1.827-0.182-2.706-0.129c0.025-0.124,0.051-0.245,0.073-0.37
	c0.754-4.252-0.08-7.77-1.854-7.859c-1.774-0.087-3.822,3.292-4.578,7.541c-0.217,1.229-0.299,2.393-0.267,3.434
	c-0.922,0.906-1.615,2.004-1.977,3.271c-0.722,2.529,0.003,5.187,1.724,7.371c-0.208,1.064-0.287,2.167-0.368,3.212
	c-0.341,4.377-0.394,8.529,0.594,12.842c4.626,20.228,12.135,40.963,32.879,49.392c3.286,1.336,6.832,2.605,10.47,3.486
	c-3.476,6.972-5.847,14.868-6.802,23.322c5.872-8.966,14.655-2.5,21.559,1.336c1.956,1.174,5.085,1.174,6.651,0
	c6.26-4.303,13.692-8.998,19.951-5.085c8.607,5.085,17.604,4.694,25.037-1.565c6.26-5.085,14.474,3.521,21.907,6.651
	c1.003,0.429,2.058,0.727,3.151,0.928c-1.07-13.034-5.484-24.853-12.169-34.142c4.263-1.869,8.282-4.429,11.884-6.994
	C157.661,109.805,162.458,79.806,154.962,56.423z"/>
</svg>
