<?xml version="1.0" encoding="utf-8"?>
<!-- Generator: Adobe Illustrator 17.0.0, SVG Export Plug-In . SVG Version: 6.00 Build 0)  -->
<!DOCTYPE svg PUBLIC "-//W3C//DTD SVG 1.1 Basic//EN" "http://www.w3.org/Graphics/SVG/1.1/DTD/svg11-basic.dtd">
<svg version="1.1" baseProfile="basic" id="Слой_1"
	 xmlns="http://www.w3.org/2000/svg" xmlns:xlink="http://www.w3.org/1999/xlink" x="0px" y="0px" width="335px" height="325.167px"
	 viewBox="0 0 335 325.167" xml:space="preserve">
<path fill="#EB7272" d="M1602.97,686.224c0.358-0.247,0.715-0.495,1.073-0.742c0.084,0.127,0.169,0.254,0.253,0.381
	c-0.434,0.129-0.868,0.259-1.302,0.388C1602.994,686.25,1602.97,686.224,1602.97,686.224z"/>
<path fill="#EB7272" d="M1570.006,1049.175c0.243,0.36,0.489,0.718,0.714,1.089c0.004,0.007-0.235,0.163-0.361,0.249
	c-0.133-0.432-0.267-0.865-0.401-1.297C1569.957,1049.216,1570.006,1049.175,1570.006,1049.175z"/>
<g>
	<g>
		<path fill="#D9C039" d="M127.89,285.904c-2.182-5.612-4.521-11.157-6.774-16.739c-1.511-4.043-3.022-8.088-4.536-12.129
			c-2.317-6.198-4.633-12.397-6.949-18.594c-2.574-6.885-3.744-14.195-5.316-21.368c0,0-31.081-41.98-31.084-41.98
			c0.425,0.571,0.037,3.556,0.064,4.492c0.05,1.808,0.134,3.616,0.261,5.421c0.066,0.999,0.147,1.996,0.237,2.992
			c0.23,2.49,0.534,4.973,0.922,7.444c1.083,6.895,2.614,13.72,3.801,20.599c0.705,4.085,1.354,8.182,1.891,12.297
			c1.194,9.08,1.828,18.252,1.805,27.413c-0.021,8.32,0.361,16.786-0.095,25.085c-0.13,2.432-0.3,4.859-0.521,7.286
			c-0.264,2.911-0.655,5.491,2.049,7.384c5.279,3.689,13.701,3.539,19.821,3.539c0.003,0,14.594,0,14.597,0
			c2.065,0,6.079-2.25,7.894-3.312C130.274,293.211,129.448,289.905,127.89,285.904z"/>
		
			<linearGradient id="Toe_1_" gradientUnits="userSpaceOnUse" x1="-338.7916" y1="-180.336" x2="-313.1856" y2="-180.336" gradientTransform="matrix(-1 0 0 -1 -208.3072 110.007)">
			<stop  offset="0" style="stop-color:#F6E579"/>
			<stop  offset="1" style="stop-color:#FFFFFF"/>
		</linearGradient>
		<ellipse id="Toe_24_" fill="url(#Toe_1_)" cx="117.681" cy="290.343" rx="12.803" ry="10.582"/>
		
			<linearGradient id="Toe_2_" gradientUnits="userSpaceOnUse" x1="-326.8436" y1="-180.3345" x2="-301.2366" y2="-180.3345" gradientTransform="matrix(-1 0 0 -1 -208.3072 110.007)">
			<stop  offset="0" style="stop-color:#F6E579"/>
			<stop  offset="1" style="stop-color:#FFFFFF"/>
		</linearGradient>
		<path id="Toe_23_" fill="url(#Toe_2_)" d="M92.929,290.343c0,5.842,5.732,10.582,12.806,10.582c7.072,0,12.801-4.74,12.801-10.582
			c0-5.846-5.729-10.585-12.801-10.585C98.661,279.758,92.929,284.498,92.929,290.343z"/>
		
			<linearGradient id="Toe_3_" gradientUnits="userSpaceOnUse" x1="-315.7796" y1="-180.336" x2="-290.1736" y2="-180.336" gradientTransform="matrix(-1 0 0 -1 -208.3072 110.007)">
			<stop  offset="0" style="stop-color:#F6E579"/>
			<stop  offset="1" style="stop-color:#FFFFFF"/>
		</linearGradient>
		<ellipse id="Toe_22_" fill="url(#Toe_3_)" cx="94.669" cy="290.343" rx="12.803" ry="10.582"/>
		<path id="Leg_BG_6_" fill="#D9C039" d="M173.892,195.366c0.23,2.49,0.535,4.974,0.922,7.447c1.083,6.893,2.61,13.717,3.801,20.596
			c0.705,4.088,1.35,8.185,1.891,12.297c1.19,9.085,1.825,18.252,1.806,27.418c-0.021,8.316,0.357,16.782-0.095,25.081
			c-0.134,2.433-0.3,4.859-0.521,7.286c-0.264,2.911-0.655,5.495,2.045,7.384c5.282,3.689,13.701,3.539,19.824,3.539
			c0.003,0,14.589,0,14.596,0c2.062,0,6.077-2.25,7.891-3.309c4.319-2.527,3.494-5.829,1.936-9.833
			c-2.182-5.609-4.526-11.157-6.779-16.738c-1.511-4.044-3.021-8.086-4.532-12.13c-2.316-6.196-4.632-12.394-6.949-18.59
			c-2.574-6.885-3.744-14.198-5.314-21.371l-31.084-41.98c0.421,0.571,0.034,3.557,0.061,4.492c0.05,1.809,0.137,3.616,0.261,5.425
			C173.721,193.374,173.798,194.369,173.892,195.366z"/>
		
			<linearGradient id="Toe_4_" gradientUnits="userSpaceOnUse" x1="-438.8866" y1="-187.703" x2="-413.2806" y2="-187.703" gradientTransform="matrix(-1 0 0 -1 -208.3072 110.007)">
			<stop  offset="0" style="stop-color:#F6E579"/>
			<stop  offset="1" style="stop-color:#FFFFFF"/>
		</linearGradient>
		<ellipse id="Toe_21_" fill="url(#Toe_4_)" cx="217.776" cy="297.71" rx="12.803" ry="10.582"/>
		
			<linearGradient id="Toe_5_" gradientUnits="userSpaceOnUse" x1="-426.9406" y1="-187.703" x2="-401.3346" y2="-187.703" gradientTransform="matrix(-1 0 0 -1 -208.3072 110.007)">
			<stop  offset="0" style="stop-color:#F6E579"/>
			<stop  offset="1" style="stop-color:#FFFFFF"/>
		</linearGradient>
		<ellipse id="Toe_20_" fill="url(#Toe_5_)" cx="205.83" cy="297.71" rx="12.803" ry="10.582"/>
		
			<linearGradient id="Toe_6_" gradientUnits="userSpaceOnUse" x1="-415.8746" y1="-187.703" x2="-390.2686" y2="-187.703" gradientTransform="matrix(-1 0 0 -1 -208.3072 110.007)">
			<stop  offset="0" style="stop-color:#F6E579"/>
			<stop  offset="1" style="stop-color:#FFFFFF"/>
		</linearGradient>
		<ellipse id="Toe_19_" fill="url(#Toe_6_)" cx="194.764" cy="297.71" rx="12.803" ry="10.582"/>
		<path fill="#F3D732" d="M130.484,107.276c-18.03,0-34.897,3.696-49.31,10.119c1.589,4.299,5.471,7.878,3.499,11.823
			c-2.656,5.313-11.29,4.649-12.618,10.626c-1.328,5.977,3.985,12.618,1.328,17.267c-3.985,7.305-9.298,13.282-9.298,21.916
			c0,7.305-10.626,7.969-14.61,5.313c-5.284-2.642-9.925-7.424-14.897-9.115c-0.071,1.126-0.111,2.258-0.111,3.397
			c0,39.406,42.986,71.35,96.017,71.35c53.03,0,96.017-31.944,96.017-71.35C226.502,139.22,183.515,107.276,130.484,107.276z"/>
		<path fill="#F3D732" d="M89.125,291.898c-2.182-5.609-4.526-11.158-6.778-16.739c-1.511-4.044-3.022-8.085-4.532-12.129
			c-2.317-6.197-4.633-12.394-6.949-18.591c-2.573-6.885-3.743-14.198-5.314-21.37c0,0-31.084-41.978-31.084-41.981
			c0.42,0.571,0.034,3.557,0.06,4.492c0.05,1.809,0.137,3.621,0.261,5.425c0.071,0.996,0.148,1.996,0.241,2.988
			c0.23,2.493,0.535,4.976,0.922,7.447c1.083,6.895,2.611,13.717,3.8,20.596c0.705,4.088,1.35,8.186,1.892,12.296
			c1.189,9.085,1.825,18.257,1.804,27.418c-0.02,8.316,0.357,16.786-0.093,25.081c-0.134,2.433-0.301,4.86-0.522,7.29
			c-0.264,2.907-0.655,5.491,2.046,7.379c5.281,3.69,13.701,3.544,19.823,3.544c0.003,0,14.589,0,14.597,0
			c2.062,0,6.076-2.25,7.891-3.312C91.508,299.203,90.683,295.902,89.125,291.898z"/>
		
			<linearGradient id="Toe_7_" gradientUnits="userSpaceOnUse" x1="-300.0236" y1="-186.329" x2="-274.4176" y2="-186.329" gradientTransform="matrix(-1 0 0 -1 -208.3072 110.007)">
			<stop  offset="0" style="stop-color:#F6E579"/>
			<stop  offset="1" style="stop-color:#FFFFFF"/>
		</linearGradient>
		<ellipse id="Toe_17_" fill="url(#Toe_7_)" cx="78.913" cy="296.336" rx="12.803" ry="10.582"/>
		
			<linearGradient id="Toe_8_" gradientUnits="userSpaceOnUse" x1="-288.0766" y1="-186.329" x2="-262.4706" y2="-186.329" gradientTransform="matrix(-1 0 0 -1 -208.3072 110.007)">
			<stop  offset="0" style="stop-color:#F6E579"/>
			<stop  offset="1" style="stop-color:#FFFFFF"/>
		</linearGradient>
		<ellipse id="Toe_16_" fill="url(#Toe_8_)" cx="66.966" cy="296.336" rx="12.803" ry="10.582"/>
		
			<linearGradient id="Toe_9_" gradientUnits="userSpaceOnUse" x1="-277.0106" y1="-186.329" x2="-251.4046" y2="-186.329" gradientTransform="matrix(-1 0 0 -1 -208.3072 110.007)">
			<stop  offset="0" style="stop-color:#F6E579"/>
			<stop  offset="1" style="stop-color:#FFFFFF"/>
		</linearGradient>
		<ellipse id="Toe_15_" fill="url(#Toe_9_)" cx="55.9" cy="296.336" rx="12.803" ry="10.582"/>
		<path id="Leg_BG_4_" fill="#F3D732" d="M145.729,240.297c1.194,9.085,1.828,18.253,1.805,27.418
			c-0.021,8.316,0.361,16.783-0.093,25.081c-0.13,2.433-0.301,4.86-0.521,7.287c-0.264,2.91-0.655,5.495,2.049,7.383
			c5.277,3.69,13.7,3.54,19.82,3.54c0.003,0,14.593,0,14.596,0c2.066,0,6.08-2.25,7.895-3.309c4.315-2.527,3.489-5.829,1.931-9.833
			c-2.182-5.609-4.522-11.158-6.775-16.739c-1.51-4.044-3.021-8.085-4.535-12.129c-2.316-6.198-4.632-12.394-6.948-18.59
			c-2.575-6.886-3.744-14.199-5.315-21.371C169.637,229.034,145.191,236.186,145.729,240.297z"/>
		
			<linearGradient id="Toe_10_" gradientUnits="userSpaceOnUse" x1="-404.1126" y1="-192.296" x2="-378.5066" y2="-192.296" gradientTransform="matrix(-1 0 0 -1 -208.3072 110.007)">
			<stop  offset="0" style="stop-color:#F6E579"/>
			<stop  offset="1" style="stop-color:#FFFFFF"/>
		</linearGradient>
		<ellipse id="Toe_14_" fill="url(#Toe_10_)" cx="183.002" cy="302.303" rx="12.803" ry="10.582"/>
		
			<linearGradient id="Toe_11_" gradientUnits="userSpaceOnUse" x1="-392.1636" y1="-192.296" x2="-366.5576" y2="-192.296" gradientTransform="matrix(-1 0 0 -1 -208.3072 110.007)">
			<stop  offset="0" style="stop-color:#F6E579"/>
			<stop  offset="1" style="stop-color:#FFFFFF"/>
		</linearGradient>
		<ellipse id="Toe_13_" fill="url(#Toe_11_)" cx="171.053" cy="302.303" rx="12.803" ry="10.582"/>
		
			<linearGradient id="Toe_18_" gradientUnits="userSpaceOnUse" x1="-381.1006" y1="-192.296" x2="-355.4946" y2="-192.296" gradientTransform="matrix(-1 0 0 -1 -208.3072 110.007)">
			<stop  offset="0" style="stop-color:#F6E579"/>
			<stop  offset="1" style="stop-color:#FFFFFF"/>
		</linearGradient>
		<ellipse id="Toe_12_" fill="url(#Toe_18_)" cx="159.99" cy="302.303" rx="12.803" ry="10.582"/>
		<path fill="#A1622F" d="M92.657,112.693c0,55.607,51.143,100.692,114.234,100.692c63.084,0,114.229-45.085,114.229-100.692
			C321.12,57.083,269.975,12,206.891,12C143.801,12,92.657,57.083,92.657,112.693z"/>
		<path id="Ear_BG_5_" fill="#F3D732" d="M256.369,50.425c1.825,2.567,0,0.404,27.457,26.304c15.165,0,27.458-11.777,27.458-26.304
			c0-14.529-12.293-26.305-27.458-26.305C268.662,24.119,256.369,35.896,256.369,50.425z"/>
		
			<linearGradient id="Inner_Ear_1_" gradientUnits="userSpaceOnUse" x1="-490.7101" y1="38.867" x2="-490.7101" y2="77.082" gradientTransform="matrix(-1 0 0 -1 -208.3072 110.007)">
			<stop  offset="0" style="stop-color:#957844"/>
			<stop  offset="1" style="stop-color:#52351C"/>
		</linearGradient>
		<path id="Inner_Ear_5_" fill="url(#Inner_Ear_1_)" d="M263.117,52.032c1.286,1.866,0,0.293,19.289,19.108
			c10.651,0,19.282-8.557,19.282-19.108c0-10.556-8.631-19.107-19.282-19.107C271.754,32.925,263.117,41.477,263.117,52.032z"/>
		<path id="Ear_BG_4_" fill="#F3D732" d="M160.165,50.425c-1.825,2.567,0,0.404-27.458,26.304
			c-15.164,0-27.458-11.777-27.458-26.304c0-14.529,12.294-26.305,27.458-26.305C147.875,24.119,160.165,35.896,160.165,50.425z"/>
		
			<linearGradient id="Inner_Ear_2_" gradientUnits="userSpaceOnUse" x1="698.5875" y1="38.867" x2="698.5875" y2="77.082" gradientTransform="matrix(1 0 0 -1 -564.4555 110.007)">
			<stop  offset="0" style="stop-color:#957844"/>
			<stop  offset="1" style="stop-color:#52351C"/>
		</linearGradient>
		<path id="Inner_Ear_4_" fill="url(#Inner_Ear_2_)" d="M153.417,52.032c-1.284,1.866,0,0.293-19.289,19.108
			c-10.649,0-19.282-8.557-19.282-19.108c0-10.556,8.633-19.107,19.282-19.107C144.78,32.925,153.417,41.477,153.417,52.032z"/>
		<path id="Head_BG_2_" fill="#F3D732" d="M132.393,120.764c0,43.948,33.664,79.579,75.19,79.579s75.197-35.63,75.197-79.579
			c0-43.952-33.671-79.58-75.197-79.58C166.057,41.184,132.393,76.813,132.393,120.764z"/>
		<path id="Muzzle_3_" fill="#E5B467" d="M171.135,166.367c0,18.968,16.321,34.35,36.449,34.35c20.135,0,36.452-15.381,36.452-34.35
			c0-18.972-16.317-34.349-36.452-34.349C187.456,132.019,171.135,147.396,171.135,166.367z"/>
		<path id="Smile_3_" fill="none" stroke="#282827" stroke-linecap="round" stroke-miterlimit="10" d="M200.955,187.334
			c2.567,2.868,7.503,2.921,10.956,2.26c8.784-1.682,16.054-9.803,20.138-17.361"/>
		<g id="Nose_1_">
			<polygon fill="#52351C" points="207.586,160.882 233.005,142.639 182.164,142.639 			"/>
			
				<linearGradient id="SVGID_1_" gradientUnits="userSpaceOnUse" x1="-415.8936" y1="-62.726" x2="-415.8936" y2="-46.688" gradientTransform="matrix(-1 0 0 -1 -208.3072 110.007)">
				<stop  offset="0.172" style="stop-color:#E5B467"/>
				<stop  offset="0.5968" style="stop-color:#52351C"/>
			</linearGradient>
			
				<line fill="none" stroke="url(#SVGID_1_)" stroke-linecap="round" stroke-miterlimit="10" x1="207.586" y1="157.195" x2="207.586" y2="172.233"/>
			<path fill="#E5B467" d="M201.847,157.496c-0.153-0.802-0.591-1.627-0.872-2.403c-0.29-0.808-0.578-1.621-0.916-2.413
				c-0.671-1.582-1.531-3.109-2.844-4.252c-1.294-1.133-3.389-2.701-5.231-2.36c-1.186,0.221-2.493,1.568-2.179,2.884
				c0.29,1.21,1.504,1.855,2.443,2.51c1.487,1.03,2.881,2.189,4.328,3.272c0.261,0.193,0.531,0.472,0.826,0.618
				C198.799,156.039,200.357,157.102,201.847,157.496z"/>
			<path fill="#E5B467" d="M213.63,157.496c0.161-0.802,0.602-1.627,0.876-2.403c0.291-0.808,0.581-1.621,0.916-2.413
				c0.676-1.582,1.534-3.109,2.841-4.252c1.3-1.133,3.393-2.701,5.235-2.36c1.19,0.221,2.496,1.568,2.176,2.884
				c-0.291,1.21-1.495,1.855-2.444,2.51c-1.487,1.03-2.878,2.189-4.325,3.272c-0.261,0.193-0.531,0.472-0.822,0.618
				C216.684,156.039,215.127,157.102,213.63,157.496z"/>
		</g>
		<ellipse id="Eye_BG_5_" fill="#FFFFFF" cx="232.049" cy="118.447" rx="11.895" ry="14.601"/>
		<path id="Pupil_BG_6_" fill="#E3A030" d="M226.502,118.87c0,4.03,2.667,7.301,5.952,7.301c3.283,0,5.947-3.271,5.947-7.301
			c0-4.035-2.664-7.3-5.947-7.3C229.169,111.57,226.502,114.835,226.502,118.87z"/>
		<ellipse id="Small_Reflection_6_" fill="#F4FAFD" cx="232.481" cy="117.951" rx="1.016" ry="0.919"/>
		<path id="Big_Reflection_6_" fill="#F4FAFD" d="M232.909,115.791c0,0.854,0.761,1.541,1.701,1.541
			c0.946,0,1.708-0.688,1.708-1.541c0-0.852-0.762-1.537-1.708-1.537C233.67,114.254,232.909,114.939,232.909,115.791z"/>
		<ellipse id="Eye_BG_4_" fill="#FFFFFF" cx="183.065" cy="118.447" rx="11.896" ry="14.601"/>
		<path id="Pupil_BG_5_" fill="#E3A030" d="M188.612,118.87c0,4.03-2.665,7.301-5.951,7.301c-3.282,0-5.948-3.271-5.948-7.301
			c0-4.035,2.666-7.3,5.948-7.3C185.947,111.57,188.612,114.835,188.612,118.87z"/>
		<ellipse id="Small_Reflection_5_" fill="#F4FAFD" cx="182.634" cy="117.951" rx="1.017" ry="0.919"/>
		<ellipse id="Big_Reflection_5_" fill="#F4FAFD" cx="180.502" cy="115.791" rx="1.705" ry="1.541"/>
		<g id="Eye_Brows_2_">
			<path id="Left_Eye_Brow_2_" fill="none" stroke="#3D3D3D" stroke-linecap="round" stroke-miterlimit="10" d="M257.756,86.99
				c-0.695,0.036-6.825-21.365-22.391-16.96"/>
			<path id="Right_Eye_Brow_2_" fill="none" stroke="#3D3D3D" stroke-linecap="round" stroke-miterlimit="10" d="M157.357,86.99
				c0.695,0.036,6.828-21.365,22.391-16.96"/>
		</g>
	</g>
	<path fill="none" stroke="#FFFFFF" stroke-width="3" stroke-linecap="round" stroke-miterlimit="10" d="M214.518,213.156
		c59.527-3.461,106.602-47.116,106.602-100.463c0-17.518-5.079-33.99-14.005-48.339c2.639-4.04,4.169-8.812,4.169-13.929
		c0-14.529-12.293-26.305-27.458-26.305c-5.423,0-10.475,1.512-14.733,4.112C251.195,17.968,229.835,12,206.891,12
		c-22.354,0-43.204,5.665-60.815,15.448c-3.957-2.117-8.513-3.328-13.368-3.328c-15.164,0-27.458,11.776-27.458,26.305
		c0,4.197,1.031,8.161,2.856,11.681c-9.819,14.866-15.448,32.146-15.448,50.587c0,0.113,0.004,0.225,0.005,0.338
		c-3.974,1.267-7.812,2.726-11.488,4.364c1.589,4.299,5.471,7.878,3.499,11.823c-2.656,5.313-11.29,4.649-12.618,10.626
		c-1.328,5.977,3.985,12.618,1.328,17.267c-3.985,7.305-9.298,13.282-9.298,21.916c0,7.305-10.626,7.969-14.61,5.313
		c-5.284-2.642-9.925-7.424-14.897-9.115c-0.071,1.126-0.111,2.258-0.111,3.397c0,0.856,0.028,1.708,0.068,2.557
		c-0.041-0.055-0.067-0.09-0.067-0.091c0.031,0.042,0.049,0.121,0.072,0.188c0.028,0.574,0.065,1.146,0.112,1.716
		c-0.035,0.994-0.137,2.085-0.123,2.588c0.05,1.809,0.137,3.621,0.261,5.425c0.071,0.996,0.148,1.996,0.241,2.988
		c0.23,2.493,0.535,4.976,0.922,7.447c1.083,6.895,2.611,13.717,3.8,20.596c0.705,4.088,1.35,8.186,1.892,12.296
		c1.189,9.085,1.825,18.257,1.804,27.418c-0.02,8.316,0.357,16.786-0.093,25.081c-0.134,2.433-0.301,4.86-0.522,7.29
		c-0.253,2.79-0.616,5.281,1.744,7.147c2.146,3.359,6.408,5.65,11.323,5.65c1.985,0,3.856-0.384,5.533-1.05
		c1.677,0.666,3.548,1.05,5.533,1.05c2.159,0,4.189-0.446,5.974-1.226c1.784,0.78,3.815,1.226,5.974,1.226
		c5.324,0,9.886-2.687,11.817-6.509c1.242,0.332,2.564,0.516,3.939,0.516c1.984,0,3.856-0.384,5.532-1.05
		c1.677,0.666,3.549,1.05,5.534,1.05c2.159,0,4.189-0.446,5.973-1.226c1.784,0.78,3.815,1.226,5.974,1.226
		c7.071,0,12.803-4.738,12.803-10.582c0-2.95-1.464-5.616-3.82-7.535c-1.82-4.56-3.711-9.09-5.548-13.643
		c-1.511-4.043-3.022-8.088-4.536-12.129c-1.019-2.725-2.036-5.449-3.055-8.174c5.505,0.729,11.172,1.11,16.959,1.11
		c5.522,0,10.934-0.351,16.201-1.016c0.567,6.237,0.864,12.498,0.849,18.759c-0.021,8.316,0.361,16.783-0.093,25.081
		c-0.13,2.433-0.301,4.86-0.521,7.287c-0.253,2.793-0.616,5.285,1.746,7.15c2.146,3.359,6.408,5.652,11.324,5.652
		c1.984,0,3.855-0.384,5.531-1.05c1.676,0.666,3.547,1.05,5.531,1.05c2.159,0,4.19-0.446,5.975-1.226
		c1.784,0.78,3.815,1.226,5.974,1.226c4.406,0,8.292-1.841,10.595-4.642c0.385,0.029,0.773,0.049,1.167,0.049
		c1.985,0,3.856-0.384,5.533-1.05c1.677,0.666,3.548,1.05,5.533,1.05c2.158,0,4.189-0.446,5.973-1.226
		c1.784,0.78,3.815,1.226,5.973,1.226c7.071,0,12.803-4.738,12.803-10.582c0-2.949-1.463-5.614-3.817-7.533
		c-1.821-4.559-3.715-9.091-5.553-13.643c-1.511-4.044-3.021-8.086-4.532-12.13c-2.316-6.196-4.632-12.394-6.949-18.59
		c-2.574-6.885-3.744-14.198-5.314-21.371l-0.132-0.178C208.144,220.822,211.575,217.104,214.518,213.156z M82.212,255.752
		c-0.016,6.398,0.203,12.881,0.099,19.31c-1.499-4.012-2.998-8.02-4.496-12.032c-2.317-6.197-4.633-12.394-6.949-18.591
		c-1.449-3.877-2.448-7.892-3.33-11.939c4.365,2.819,9.079,5.346,14.082,7.548C82.017,245.274,82.226,250.514,82.212,255.752z
		 M182.312,263.124c-0.006,2.359,0.02,4.731,0.051,7.107c-0.154-0.412-0.308-0.823-0.462-1.235
		c-2.316-6.198-4.632-12.394-6.948-18.59c-0.937-2.504-1.684-5.066-2.336-7.656c2.86-1.04,5.64-2.182,8.331-3.421
		C181.852,247.225,182.329,255.175,182.312,263.124z"/>
</g>
</svg>
