<?xml version="1.0" encoding="utf-8"?>
<!-- Generator: Adobe Illustrator 17.0.0, SVG Export Plug-In . SVG Version: 6.00 Build 0)  -->
<!DOCTYPE svg PUBLIC "-//W3C//DTD SVG 1.1 Basic//EN" "http://www.w3.org/Graphics/SVG/1.1/DTD/svg11-basic.dtd">
<svg version="1.1" baseProfile="basic" id="Слой_1"
	 xmlns="http://www.w3.org/2000/svg" xmlns:xlink="http://www.w3.org/1999/xlink" x="0px" y="0px" width="60.949px"
	 height="88.551px" viewBox="0 0 60.949 88.551" xml:space="preserve">
<path fill="#BAAE52" d="M57.535,30.85c-13.54,6.033-24.507,14.923-31.403,25.546c-0.45-0.197-0.91-0.411-1.375-0.658
	c-2.246-1.193-4.449-2.454-6.502-3.96C9.09,45.063,7.624,35.898,9.172,26.451c0.013-0.077,0.03-0.154,0.042-0.231
	c0.439-0.059,0.873-0.157,1.293-0.322c2.487-0.981,3.619-3.556,4.296-5.964c1.003-3.564,0.823-7.797,4.304-10.057
	c1.444-0.936,3.191-1.509,4.837-1.983c0.937-0.269,1.89-0.474,2.849-0.666c-3.723-1.173-7.765,0.294-10.437,3.013
	c-0.657,0.671-1.49,2.006-2.318,2.379c-0.279-0.774,0.2-1.711,0.378-2.453c0.214-0.892,0.454-1.777,0.754-2.645
	c0.589-1.706,1.43-3.369,2.739-4.637c1.668-1.619,4.259-1.762,6.451-1.645c1.192,0.065,2.4,0.191,3.593,0.191
	c-0.547-0.251-0.997-0.645-1.529-0.913c-0.601-0.305-1.284-0.394-1.946-0.459c-2.911-0.279-6.372,0.458-8.626,2.41
	c-1.498,1.296-2.293,3.127-3.193,4.847c-0.42,0.806-0.82,1.625-1.315,2.393c-0.316,0.489-0.959,1.438-1.522,1.588
	c-0.325,0.086,0-1.391,0.065-1.519c0.29-0.576,0.798-1.011,1.156-1.543c0.355-0.527,0.683-1.074,0.937-1.657
	c0.443-1.019,0.662-2.16,0.417-3.26c-0.403-1.815-2.11-3.092-3.814-1.903C7.529,2.15,6.823,3.355,6.138,4.416
	C7.137,3.832,8.53,2.876,9.76,3.212c1.126,0.307,1.16,1.522,0.759,2.429C9.889,7.063,8.501,8.066,7.353,9.048
	c-1.286,1.1-2.436,2.276-3.219,3.794c-0.962,1.861-1.45,3.944-1.983,5.958c-1.549-1.068-1.543-3.367-1.667-5.045
	c-0.22,2.369-0.787,4.999-0.279,7.359c0.225,1.058,0.773,2.017,1.534,2.78c0.607,0.604,1.289,0.922,2.027,1.214
	c-0.051,0.366-0.096,0.733-0.138,1.097c-0.713,6.356-0.203,12.784,1.27,18.995c1.373,5.787,4.919,10.523,8.233,15.332
	c2.202,3.197,4.16,6.246,6.922,8.887c-0.991,3.317-1.623,6.735-1.843,10.233c4.196,1.426,8.113,5.463,12.572,7.692
	c3.362,2.242,12.33,1.682,12.33-4.483c0-7.286,4.484-12.33,7.847-18.495c2.241-3.923-2.241-9.528-1.121-14.572
	c1.121-5.044,8.407-4.484,10.649-8.968C62.152,37.499,58.876,34.479,57.535,30.85z"/>
</svg>
