<?xml version="1.0" encoding="utf-8"?>
<!-- Generator: Adobe Illustrator 17.0.0, SVG Export Plug-In . SVG Version: 6.00 Build 0)  -->
<!DOCTYPE svg PUBLIC "-//W3C//DTD SVG 1.1 Basic//EN" "http://www.w3.org/Graphics/SVG/1.1/DTD/svg11-basic.dtd">
<svg version="1.1" baseProfile="basic" id="Слой_1"
	 xmlns="http://www.w3.org/2000/svg" xmlns:xlink="http://www.w3.org/1999/xlink" x="0px" y="0px" width="198.07px"
	 height="207.736px" viewBox="0 0 198.07 207.736" xml:space="preserve">
<path fill="#42BCAA" d="M194.111,70.682c-0.4-1.247-0.823-2.56-1.382-3.795c1.472-3.163,1.59-6.617-0.025-9.494
	c-0.806-1.439-1.968-2.577-3.353-3.415c-0.262-1.278-0.697-2.673-1.317-4.107c-2.149-4.962-5.623-8.488-7.758-7.87
	c-2.139,0.622-2.136,5.151,0.011,10.116c0.063,0.146,0.131,0.286,0.197,0.43c-1.087,0.189-2.181,0.506-3.262,0.939
	c-0.626-1.105-1.437-2.262-2.424-3.404c-3.54-4.086-7.911-6.405-9.764-5.174c-1.852,1.234-0.489,5.554,3.05,9.644
	c1.001,1.157,2.069,2.165,3.128,2.998c-0.295,0.313-0.573,0.633-0.836,0.962c-4.777-2.224-9.538-2.572-10.726-0.744
	c-1.21,1.867,1.751,5.293,6.624,7.645c0.388,0.187,0.775,0.357,1.162,0.519c-0.022,0.598-0.008,1.193,0.076,1.778
	c-3.354,0.642-5.779,2.473-5.697,4.535c0.101,2.454,3.709,4.304,8.054,4.123c1.667-0.068,3.199-0.427,4.451-0.979
	c0.727,0.229,1.487,0.392,2.274,0.487c0.451,2.869,1.241,5.832,1.787,8.793c1.877,10.202,2.537,20.932,0.815,30.745
	c-1.669,9.498-3.726,15.897-12.065,20.963c-7.372,4.481-16.303,7.112-25.54,6.601c-0.029-0.005-0.054-0.005-0.081-0.004
	c-1.28-0.078-11.565-1.31-14.974-0.975c-2.643-0.899-5.356-1.589-8.128-2.053c0.026-0.004,0.052-0.008,0.078-0.012
	c1.899-0.321,4.303-13.234,5.217-15.325c4.38-10.052,13.39-17.682,20.186-26.035c9.511-11.696,12.828-25.52,12.161-40.376
	c-0.602-13.317-7.346-25.899-14.912-36.578C136.739,15.41,129.218,9.18,122.64,5.425c-5.138-2.934-11.896-4.759-17.754-5.241
	C86.526-1.33,68.429,6.608,56.092,20.021c-8.93,9.709-11.37,23.814-2.856,34.701c4.098,5.241,10.133,8.606,16.765,9.224
	c5.695,0.533,15.452-0.589,20.291-3.919c4.884-3.361,4.333-11.176-1.452-13.072c-4.371-1.434-9.17,1.809-13.601,1.847
	c-10.558,0.091-17.675-10.674-12.723-20.149c6.417-12.277,24.858-17.132,37.585-16.691c13.099,0.454,21.519,6.221,30.015,15.984
	c16.04,18.429,13.642,41.438,1.315,61.211c-2.588,4.149-5.438,8.155-8.317,12.008c-7.877,10.537-16.087,20.83-24.582,30.877
	c-2.68,3.169-8.458,12.342-12.878,13.036c0.251-0.039,0.502-0.079,0.754-0.118c-1.701,0.861-3.363,1.811-4.984,2.847
	c-4.265,1.175-10.549,3.469-11.521,3.763c-0.027,0.005-0.052,0.011-0.078,0.024c-8.872,2.628-18.168,2.128-26.375-0.531
	c-9.282-3.007-12.759-8.759-16.572-17.615c-3.942-9.151-5.773-19.745-6.298-30.105c-0.153-3.007-0.067-6.072-0.291-8.967
	c0.744-0.274,1.446-0.607,2.101-0.998c1.346,0.249,2.919,0.244,4.557-0.073c4.269-0.827,7.353-3.457,6.885-5.869
	c-0.395-2.025-3.176-3.248-6.588-3.098c-0.054-0.588-0.177-1.171-0.337-1.748c0.339-0.247,0.677-0.502,1.012-0.774
	c4.196-3.412,6.29-7.429,4.68-8.966c-1.578-1.505-6.13-0.067-10.264,3.199c-0.332-0.259-0.677-0.507-1.037-0.744
	c0.838-1.055,1.645-2.282,2.352-3.638c2.502-4.797,2.83-9.314,0.744-10.089c-2.088-0.768-5.805,2.494-8.307,7.288
	c-0.697,1.339-1.219,2.652-1.573,3.872c-1.152-0.172-2.289-0.228-3.39-0.161c0.031-0.155,0.064-0.307,0.092-0.464
	c0.944-5.326-0.1-9.733-2.323-9.845c-2.222-0.109-4.788,4.124-5.735,9.446c-0.272,1.539-0.374,2.997-0.334,4.301
	c-1.155,1.135-2.023,2.51-2.476,4.097c-0.904,3.168,0.004,6.497,2.16,9.233c-0.26,1.333-0.359,2.714-0.461,4.023
	C1.62,98.847,1.553,104.048,2.79,109.45c5.795,25.339,15.201,51.312,41.186,61.87c4.116,1.674,8.558,3.263,13.115,4.367
	c-4.354,8.734-7.324,18.624-8.52,29.214c7.355-11.231,18.358-3.132,27.006,1.673c2.45,1.47,6.37,1.47,8.331,0
	c7.841-5.39,17.151-11.271,24.992-6.37c10.781,6.37,22.052,5.88,31.362-1.96c7.841-6.37,18.131,4.41,27.442,8.331
	c1.256,0.538,2.578,0.911,3.947,1.163c-1.34-16.327-6.869-31.132-15.244-42.768c5.34-2.341,10.374-5.548,14.886-8.761
	C197.493,137.551,203.502,99.973,194.111,70.682z"/>
</svg>
