<?xml version="1.0" encoding="utf-8"?>
<!-- Generator: Adobe Illustrator 17.0.0, SVG Export Plug-In . SVG Version: 6.00 Build 0)  -->
<!DOCTYPE svg PUBLIC "-//W3C//DTD SVG 1.1 Basic//EN" "http://www.w3.org/Graphics/SVG/1.1/DTD/svg11-basic.dtd">
<svg version="1.1" baseProfile="basic" id="Слой_1"
	 xmlns="http://www.w3.org/2000/svg" xmlns:xlink="http://www.w3.org/1999/xlink" x="0px" y="0px" width="265px" height="360px"
	 viewBox="0 0 265 360" xml:space="preserve">
<path fill="#EB7272" d="M1602.97,686.224c0.358-0.247,0.715-0.495,1.073-0.742c0.084,0.127,0.169,0.254,0.253,0.381
	c-0.434,0.129-0.868,0.259-1.302,0.388C1602.994,686.25,1602.97,686.224,1602.97,686.224z"/>
<path fill="#EB7272" d="M1570.006,1049.175c0.243,0.36,0.489,0.718,0.714,1.089c0.004,0.007-0.235,0.163-0.361,0.249
	c-0.133-0.432-0.267-0.865-0.401-1.297C1569.957,1049.216,1570.006,1049.175,1570.006,1049.175z"/>
<g>
	<path fill="#3C281B" stroke="#FFFFFF" stroke-width="6" stroke-miterlimit="10" d="M245.818,292.165
		c-3.669-19.21-17.602-37.684-35.234-46.08c-2.304-1.098-4.937-2.482-7.628-3.242c1.609-6.786,2.489-13.954,2.489-21.38
		c0-2.615-0.108-5.199-0.317-7.746c-1.369-0.252-2.691-0.625-3.947-1.163c-9.311-3.92-19.601-14.701-27.442-8.331
		c-9.311,7.841-20.582,8.331-31.362,1.96c-7.841-4.9-17.151,0.98-24.992,6.37c-1.96,1.47-5.88,1.47-8.331,0
		c-8.648-4.805-19.651-12.904-27.006-1.673c-0.391,3.459-0.597,6.99-0.597,10.582c0,5.063,0.411,10.007,1.176,14.794
		c-18.244-1.568-38.168,5.626-51.138,18.402c-8.383,8.255-10.849,19.687-9.401,31.093c0.201,1.577,1.642,12.092,4.359,20.597
		c-2.22,2.023-3.409,4.753-2.962,7.528c0.361,2.238,1.731,4.108,3.685,5.391c0.137,0.679,0.311,1.385,0.528,2.108
		c1.228,4.092,3.27,7.095,4.565,6.71c1.174-0.353,1.324-3.384,0.424-7.002c0.74,0.057,1.502,0.049,2.276-0.023
		c0.1,0.413,0.21,0.832,0.338,1.258c1.226,4.092,3.27,7.096,4.563,6.71c1.293-0.388,1.35-4.021,0.124-8.112
		c-0.117-0.391-0.244-0.769-0.375-1.139c0.378-0.182,0.743-0.379,1.092-0.592c0.06,0.224,0.123,0.45,0.191,0.678
		c1.227,4.092,3.27,7.095,4.564,6.707c1.293-0.388,1.349-4.019,0.124-8.11c-0.33-1.102-0.72-2.12-1.139-3.019
		c0.435-0.76,0.756-1.563,0.932-2.394c2.712,0.443,5.051-0.27,5.557-1.852c0.602-1.882-1.613-4.276-4.946-5.34
		c-1.278-0.41-2.535-0.563-3.634-0.492c-0.827-0.637-1.777-1.16-2.826-1.541c-0.261-2.148-0.664-4.115-0.982-5.519
		c-1.596-7.024-3.397-13.916-0.986-21.007c5.489-16.134,21.401-22.754,36.826-25.322c4.145-0.692,8.338-0.21,12.447,0.558
		c0.877,2.413,1.852,4.759,2.921,7.032c-2.801-0.378-5.736-0.025-8.506,1.211c-7.943,3.546-11.511,12.858-7.967,20.803
		c2.727,6.113,8.874,9.618,15.183,9.299c-0.115,1.333-0.19,2.677-0.19,4.038c0,18.621,11.005,34.831,27.251,43.253
		c5.698,7.272,14.994,12.013,25.503,12.013s19.806-4.741,25.503-12.014c16.246-8.422,27.25-24.631,27.25-43.252
		c0-1.35-0.074-2.683-0.187-4.006c6.145,0.129,12.059-3.367,14.72-9.331c3.546-7.946-0.024-17.258-7.967-20.803
		c-1.076-0.48-2.177-0.819-3.286-1.044c0.345-0.729,0.69-1.458,1.016-2.203c0.116,0.046,0.238,0.092,0.345,0.136
		c4.844,2.017,9.797,4.224,13.619,7.924c11.231,10.876,20.567,25.364,15.92,41.761c-2.042,7.204-7.44,11.852-12.744,16.729
		c-1.059,0.974-2.507,2.364-3.942,3.983c-1.08-0.283-2.161-0.392-3.203-0.337c-0.864-0.683-1.984-1.27-3.268-1.659
		c-3.349-1.017-6.53-0.305-7.107,1.586c-0.481,1.59,1.039,3.506,3.523,4.681c-0.327,0.784-0.519,1.627-0.592,2.5
		c-0.855,0.502-1.755,1.119-2.652,1.838c-3.334,2.67-5.351,5.692-4.506,6.746c0.844,1.053,4.233-0.257,7.566-2.928
		c0.186-0.149,0.366-0.299,0.543-0.449c0.166,0.374,0.355,0.743,0.562,1.107c-0.318,0.23-0.637,0.469-0.956,0.725
		c-3.332,2.67-5.35,5.692-4.507,6.745c0.845,1.054,4.235-0.257,7.567-2.928c0.347-0.278,0.677-0.561,0.994-0.845
		c0.596,0.499,1.218,0.937,1.859,1.311c-2.797,2.466-4.394,5.046-3.627,6.003c0.845,1.053,4.233-0.257,7.566-2.928
		c0.589-0.472,1.134-0.955,1.632-1.436c2.338,0.054,4.528-0.707,6.097-2.344c1.944-2.029,2.515-4.952,1.838-7.877
		c7.069-5.456,14.229-13.292,15.29-14.476C243.566,314.531,248.03,303.722,245.818,292.165z"/>
	<g>
		<path fill="#4E341A" d="M173.739,204.224c-9.311,7.841-20.581,8.331-31.362,1.96c-7.841-4.9-17.151,0.98-24.992,6.37
			c-1.96,1.47-5.88,1.47-8.331,0c-8.648-4.805-19.651-12.904-27.006-1.673c-0.391,3.459-0.597,6.991-0.597,10.582
			c0,42.109,27.756,76.244,61.996,76.244s61.997-34.135,61.997-76.244c0-2.615-0.107-5.199-0.317-7.746
			c-1.369-0.252-2.691-0.625-3.947-1.163C191.87,208.634,181.58,197.853,173.739,204.224z"/>
		<g id="Arms_1_">
			<g id="Right_Arm_1_">
				<path id="Right_Arm_BG_1_" fill="#4E3722" d="M196.433,242.898c0.411-0.234,0.733-0.385,0.923-0.424
					c4.474-0.946,9.323,1.749,13.228,3.611c17.632,8.396,31.565,26.871,35.234,46.08c2.212,11.557-2.252,22.366-9.923,30.93
					c-2.002,2.234-25.712,28.145-29.56,17.08c-1.925-5.577,5.486-12.973,8.884-16.099c5.304-4.877,10.702-9.525,12.744-16.729
					c4.648-16.396-4.689-30.884-15.92-41.761c-3.823-3.7-8.775-5.907-13.619-7.924c-2.911-1.213-9.59-2.839-10.506-6.423
					C187.068,247.89,194.102,244.228,196.433,242.898z"/>
				<g id="Hand_3_">
					
						<ellipse id="Palm_3_" transform="matrix(-0.722 -0.6919 0.6919 -0.722 129.2249 727.3782)" fill="#CDB86F" cx="210.742" cy="337.728" rx="11.125" ry="8.96"/>
					
						<ellipse id="Finger_11_" transform="matrix(-0.6253 -0.7804 0.7804 -0.6253 60.037 705.9907)" fill="#CDB86F" cx="199.511" cy="338.582" rx="2.446" ry="7.735"/>
					<path id="Finger_10_" fill="#CDB86F" d="M208.752,338.94c0.845,1.053-1.175,4.075-4.506,6.746
						c-3.332,2.67-6.722,3.981-7.567,2.928c-0.843-1.053,1.175-4.075,4.507-6.745C204.517,339.198,207.907,337.887,208.752,338.94z"
						/>
					
						<ellipse id="Finger_9_" transform="matrix(-0.6253 -0.7804 0.7804 -0.6253 69.4698 728.0032)" fill="#CDB86F" cx="209.512" cy="347.323" rx="2.446" ry="7.735"/>
					<path id="Thumb_3_" fill="#CDB86F" d="M209.829,331.327c-0.573,1.889-3.754,2.601-7.103,1.586
						c-3.348-1.017-5.6-3.374-5.028-5.264c0.576-1.891,3.758-2.603,7.107-1.586C208.154,327.076,210.402,329.436,209.829,331.327z"
						/>
				</g>
			</g>
			<g id="Left_Arm_1_">
				<path id="Left_Arm_BG_1_" fill="#4E3722" d="M100.12,242.164c-0.207-0.427-0.384-0.731-0.518-0.872
					c-3.144-3.321-8.666-3.858-12.938-4.543c-19.279-3.103-41.24,4.186-55.173,17.911c-8.383,8.255-10.849,19.687-9.401,31.093
					c0.378,2.975,5.172,37.767,14.625,30.848c4.752-3.497,2.855-13.793,1.834-18.298c-1.596-7.024-3.397-13.916-0.986-21.007
					c5.489-16.134,21.401-22.754,36.826-25.322c5.248-0.876,10.575,0.121,15.708,1.213c3.086,0.656,9.507,3.113,12.295,0.682
					C104.993,251.593,101.283,244.583,100.12,242.164z"/>
				<g id="Hand_2_">
					<path id="Palm_2_" fill="#CDB86F" d="M33.042,303.258c-6.067,0.979-10.344,5.734-9.555,10.619
						c0.788,4.884,6.344,8.051,12.411,7.071c6.065-0.979,10.34-5.732,9.551-10.615C44.66,305.448,39.107,302.279,33.042,303.258z"/>
					
						<ellipse id="Finger_8_" transform="matrix(-0.9579 0.2871 -0.2871 -0.9579 176.2969 612.4811)" fill="#CDB86F" cx="43.242" cy="319.166" rx="2.446" ry="7.734"/>
					<path id="Finger_7_" fill="#CDB86F" d="M35.426,314.209c-1.295,0.388-1.349,4.021-0.124,8.11
						c1.225,4.092,3.27,7.096,4.563,6.71c1.293-0.388,1.35-4.021,0.124-8.112C38.763,316.827,36.72,313.823,35.426,314.209z"/>
					<path id="Finger_6_" fill="#CDB86F" d="M27.823,313.266c-1.293,0.388-1.349,4.021-0.124,8.11
						c1.228,4.092,3.27,7.095,4.565,6.71c1.293-0.388,1.348-4.021,0.123-8.112C31.162,315.884,29.117,312.88,27.823,313.266z"/>
					<path id="Thumb_2_" fill="#CDB86F" d="M38.863,307.331c-0.602,1.879,1.613,4.275,4.944,5.34
						c3.333,1.064,6.526,0.404,7.128-1.478c0.602-1.882-1.613-4.276-4.946-5.34C42.659,304.784,39.464,305.449,38.863,307.331z"/>
				</g>
			</g>
		</g>
		<g id="Ears_1_">
			<g id="Left_Ear_1_">
				<circle id="Ear_BG_2_" fill="#3C2819" cx="87.666" cy="275.16" r="15.751"/>
				<path id="Inner_Ear_2_" fill="#CDB86F" d="M103.528,272.056c2.868,6.426-0.019,13.958-6.443,16.824
					c-6.426,2.866-13.958-0.018-16.826-6.443c-2.866-6.428,0.019-13.96,6.447-16.826C93.13,262.746,100.662,265.63,103.528,272.056z
					"/>
			</g>
			<g id="Right_Ear_1_">
				<circle id="Ear_BG_1_" fill="#3C2819" cx="193.931" cy="275.16" r="15.751"/>
				<path id="Inner_Ear_1_" fill="#CDB86F" d="M178.069,272.056c-2.867,6.426,0.019,13.958,6.443,16.824
					c6.426,2.866,13.958-0.018,16.826-6.443c2.866-6.428-0.018-13.96-6.446-16.826C188.468,262.746,180.936,265.63,178.069,272.056z
					"/>
			</g>
		</g>
		<g id="Face_1_">
			<ellipse fill="#604020" cx="141.029" cy="294.914" rx="52.753" ry="49.409"/>
			<g id="Muzzle_1_">
				<ellipse id="Muzzle_BG_1_" fill="#CDB86F" cx="141.029" cy="321.387" rx="31.392" ry="28.792"/>
				<path id="Nose_2_" fill="#352619" d="M151.755,298.329c0,2.759-4.977,9.274-11.119,9.274c-6.144,0-11.124-6.515-11.124-9.274
					c0-2.759,4.98,4.574,11.124,4.574C146.778,302.902,151.755,295.569,151.755,298.329z"/>
				<path id="Smile_1_" fill="none" stroke="#34271B" stroke-linecap="round" stroke-miterlimit="10" d="M160.364,329.296
					c-0.676,1.673-1.236,3.339-2.179,4.778c-3.811,5.818-9.671,7.971-15.08,8.042c-3.355,0.044-6.792-0.586-10.018-1.909"/>
			</g>
			<g id="Eyes_1_">
				<g id="Left_Eye_1_">
					<ellipse id="Eye_BG_2_" fill="#FFFFFF" cx="119.176" cy="282.57" rx="7.296" ry="8.955"/>
					<g id="Pupil_2_">
						<path id="Pupil_BG_2_" fill="#894594" d="M122.579,283.266c0,2.471-1.636,4.477-3.652,4.477c-2.011,0-3.647-2.006-3.647-4.477
							c0-2.475,1.635-4.478,3.647-4.478C120.943,278.788,122.579,280.791,122.579,283.266z"/>
						<g id="Reflection_3_">
							<ellipse id="Small_Reflection_2_" fill="#F4FAFD" cx="118.912" cy="282.702" rx="0.623" ry="0.564"/>
							<path id="Big_Reflection_2_" fill="#F4FAFD" d="M118.649,281.377c0,0.524-0.468,0.944-1.043,0.944
								c-0.582,0-1.048-0.421-1.048-0.944c0-0.522,0.466-0.943,1.048-0.943C118.181,280.434,118.649,280.855,118.649,281.377z"/>
						</g>
					</g>
				</g>
				<g id="Right_Eye_1_">
					<ellipse id="Eye_BG_1_" fill="#FFFFFF" cx="159.494" cy="282.57" rx="7.296" ry="8.955"/>
					<g id="Pupil_1_">
						<path id="Pupil_BG_1_" fill="#894594" d="M156.091,283.266c0,2.471,1.636,4.477,3.651,4.477c2.013,0,3.648-2.006,3.648-4.477
							c0-2.475-1.636-4.478-3.648-4.478C157.727,278.788,156.091,280.791,156.091,283.266z"/>
						<g id="Reflection_2_">
							<ellipse id="Small_Reflection_1_" fill="#F4FAFD" cx="159.758" cy="282.702" rx="0.623" ry="0.564"/>
							<path id="Big_Reflection_1_" fill="#F4FAFD" d="M160.021,281.377c0,0.524,0.468,0.944,1.043,0.944
								c0.582,0,1.048-0.421,1.048-0.944c0-0.522-0.465-0.943-1.048-0.943C160.489,280.434,160.021,280.855,160.021,281.377z"/>
						</g>
					</g>
				</g>
			</g>
			<g id="Eye_Brows_1_">
				<path id="Left_Eye_Brow_1_" fill="none" stroke="#FBF7C7" stroke-linecap="round" stroke-miterlimit="10" d="M110.04,269.842
					c1.631-3.595,3.739-7.555,7.333-9.519c3.018-1.65,7.079-1.455,10.108,0.063"/>
				<path id="Right_Eye_Brow_1_" fill="none" stroke="#FBF7C7" stroke-linecap="round" stroke-miterlimit="10" d="M172.109,269.842
					c-1.631-3.595-3.74-7.555-7.333-9.519c-3.018-1.65-7.078-1.455-10.108,0.063"/>
			</g>
		</g>
		<path id="Hair_2_" fill="#3C281B" d="M108.903,255.716c0.154-0.104,0.676-0.06,0.876-0.102c0.313-0.063,0.62-0.154,0.925-0.254
			c2.327-0.765,4.644-1.285,7.082-1.566c0.702-0.08,1.407-0.145,2.112-0.207c0.319-0.029,0.652-0.071,0.972-0.027
			c0.125,0.017-0.166,1.151-0.198,1.253c-0.617,2.023-2.753,2.473-4.37,3.441c-0.362,0.217-0.707,0.471-0.998,0.779
			c-0.209,0.219-0.491,0.761-0.847,0.716c3.666,0.463,7.332,0.2,10.902-0.734c0.464-0.121,4.221-0.901,4.174-1.59
			c0.173,2.373-1.053,4.458-2.453,6.296c-1.125,1.479-2.452,2.819-4.03,3.839c-0.616,0.401-1.348,0.582-1.755,1.157
			c2.873,0.129,5.822,0.078,8.704,0.025c1.726-0.031,3.401-0.33,5.069-0.758c1.352-0.348,2.726-0.892,3.951-1.557
			c2.14-1.16,4.124-2.842,5.773-4.626c1.715-1.856,2.936-4.189,4.863-5.857c0.198,2.364,0.438,4.751,0.299,7.152
			c-0.136,2.371-1.269,6.471-3.441,7.86c2.516-1.825,5.268-3.299,7.795-5.108c1.755-1.257,3.461-2.701,4.539-4.599
			c1.266-2.222,1.494-4.768,1.904-7.24c3.795,2.933,7.583,5.754,9.674,10.21c0.509,1.086,0.832,3.027,1.909,3.703
			c0.634-1.033,0.957-1.996,0.926-3.192c-0.054-2.125-1.031-4.078-1.934-5.951c-0.715-1.477-2.027-3.611-1.248-5.271
			c1.208,0.133,2.259,0.109,3.458,0.455c2.676,0.769,5.642,2.386,8.381,2.636c-1.092-3.276-2.519-6.809-5.537-8.776
			c-1.744-1.135-4.191-1.338-5.747-2.737c1.475-1.051,3.176-1.707,4.848-2.373c1.786-0.711,3.607-1.362,5.486-1.782
			c1.151-0.258,2.323-0.422,3.502-0.444c0.693-0.012,1.383,0.015,2.076,0.028c0.438,0.007,1.674-0.254,2.028-0.051
			c-4.03-2.318-9.21-2.978-13.772-3.366c-2.404-0.205-4.84-0.285-7.25-0.247c-4.285,0.069-8.589,0.587-12.716,1.76
			c-2.064,0.587-4.075,1.34-6.051,2.174c-1.015,0.428-2.02,0.876-3.02,1.332c-0.505,0.229-1.011,0.462-1.513,0.695
			c-0.242,0.112-1.433,0.478-1.514,0.703c1.291-3.523,3.411-6.622,5.595-9.635c0.569-0.785,1.081-1.715,1.559-2.547
			c-2.564-0.158-5.481,1.671-7.629,2.871c-4.18,2.335-8.143,5.079-12.16,7.679c-1.117,0.721-2.192,1.475-3.268,2.253
			c-0.95,0.685-2.099,1.591-3.277,1.796c-0.725-2.627-0.548-5.723-0.673-8.428c-0.067,2.855-0.752,6.156-2.108,8.683
			c-1.109,2.064-2.962,3.569-4.862,4.953c-1.321,0.962-2.802,1.514-4.031,2.581L108.903,255.716z"/>
	</g>
</g>
</svg>
