<?xml version="1.0" encoding="utf-8"?>
<!-- Generator: Adobe Illustrator 17.0.0, SVG Export Plug-In . SVG Version: 6.00 Build 0)  -->
<!DOCTYPE svg PUBLIC "-//W3C//DTD SVG 1.1 Basic//EN" "http://www.w3.org/Graphics/SVG/1.1/DTD/svg11-basic.dtd">
<svg version="1.1" baseProfile="basic" id="Слой_1"
	 xmlns="http://www.w3.org/2000/svg" xmlns:xlink="http://www.w3.org/1999/xlink" x="0px" y="0px" width="265px" height="360px"
	 viewBox="0 0 265 360" xml:space="preserve">
<path fill="#EB7272" d="M1602.97,686.224c0.358-0.247,0.715-0.495,1.073-0.742c0.084,0.127,0.169,0.254,0.253,0.381
	c-0.434,0.129-0.868,0.259-1.302,0.388C1602.994,686.25,1602.97,686.224,1602.97,686.224z"/>
<path fill="#EB7272" d="M1570.006,1049.175c0.243,0.36,0.489,0.718,0.714,1.089c0.004,0.007-0.235,0.163-0.361,0.249
	c-0.133-0.432-0.267-0.865-0.401-1.297C1569.957,1049.216,1570.006,1049.175,1570.006,1049.175z"/>
<g>
	<path fill="#3C281B" stroke="#FFFFFF" stroke-width="6" stroke-miterlimit="10" d="M245.818,292.165
		c-3.669-19.209-17.602-37.684-35.234-46.08c-2.304-1.099-4.937-2.482-7.628-3.242c1.61-6.786,2.489-13.955,2.489-21.38
		c0-19.379-5.889-37.057-15.574-50.509c5.344-2.342,10.384-5.551,14.899-8.766c26.201-18.657,32.209-56.236,22.819-85.527
		c-0.4-1.246-0.823-2.56-1.382-3.795c1.471-3.162,1.589-6.616-0.025-9.493c-0.806-1.44-1.968-2.578-3.354-3.416
		c-0.262-1.278-0.698-2.673-1.317-4.107c-2.149-4.962-5.623-8.488-7.758-7.87c-2.139,0.622-2.136,5.151,0.011,10.116
		c0.063,0.146,0.131,0.287,0.197,0.43c-1.087,0.189-2.18,0.506-3.262,0.939c-0.626-1.105-1.438-2.263-2.425-3.405
		c-3.54-4.086-7.911-6.405-9.764-5.174c-1.852,1.234-0.489,5.554,3.05,9.644c1.001,1.157,2.069,2.165,3.129,2.998
		c-0.295,0.313-0.573,0.633-0.836,0.962c-4.777-2.224-9.539-2.573-10.726-0.745c-1.21,1.867,1.751,5.293,6.624,7.645
		c0.388,0.187,0.776,0.357,1.163,0.519c-0.023,0.598-0.008,1.193,0.076,1.778c-3.355,0.642-5.78,2.473-5.697,4.535
		c0.101,2.454,3.709,4.304,8.054,4.122c1.667-0.068,3.199-0.426,4.451-0.979c0.728,0.23,1.489,0.392,2.277,0.487
		c0.451,2.869,1.239,5.831,1.785,8.792c1.877,10.203,2.537,20.933,0.815,30.745c-1.668,9.498-3.726,15.897-12.065,20.963
		c-7.372,4.482-16.303,7.113-25.54,6.601c-0.03-0.005-0.054-0.005-0.081-0.004c-1.286-0.078-11.654-1.32-15.017-0.971
		c-2.649-0.899-5.368-1.586-8.146-2.047c0.047-0.007,0.093-0.015,0.14-0.022c1.9-0.321,4.304-13.233,5.217-15.325
		c4.38-10.052,13.39-17.682,20.187-26.035c9.511-11.696,12.828-25.52,12.161-40.376c-0.602-13.316-7.346-25.899-14.912-36.578
		c-4.398-6.206-11.919-12.436-18.497-16.191c-5.137-2.934-11.895-4.759-17.754-5.241c-18.361-1.514-36.458,6.424-48.794,19.837
		c-8.929,9.709-11.37,23.814-2.856,34.701c4.098,5.241,10.132,8.606,16.764,9.224c5.695,0.533,15.452-0.589,20.291-3.919
		c4.884-3.36,4.333-11.175-1.452-13.072c-4.371-1.434-9.17,1.809-13.601,1.847c-10.558,0.09-17.676-10.674-12.723-20.149
		c6.417-12.277,24.858-17.132,37.585-16.691c13.098,0.454,21.519,6.221,30.015,15.984c16.04,18.429,13.642,41.439,1.315,61.211
		c-2.588,4.149-5.438,8.155-8.316,12.006c-7.877,10.537-16.087,20.83-24.582,30.877c-2.679,3.169-8.458,12.342-12.878,13.036
		c0.248-0.039,0.496-0.078,0.745-0.117c-1.696,0.858-3.35,1.811-4.966,2.844c-4.265,1.174-10.558,3.471-11.53,3.765
		c-0.027,0.006-0.052,0.011-0.078,0.024c-8.872,2.628-18.168,2.128-26.375-0.531c-9.282-3.007-12.759-8.759-16.573-17.615
		c-3.942-9.151-5.773-19.745-6.298-30.105c-0.153-3.006-0.069-6.069-0.293-8.963c0.747-0.274,1.452-0.609,2.109-1.001
		c1.345,0.247,2.915,0.242,4.551-0.075c4.269-0.826,7.353-3.456,6.885-5.869c-0.395-2.024-3.175-3.247-6.586-3.098
		c-0.054-0.589-0.177-1.172-0.337-1.749c0.339-0.247,0.676-0.502,1.01-0.773c4.196-3.412,6.29-7.429,4.68-8.966
		c-1.577-1.505-6.129-0.067-10.263,3.199c-0.332-0.259-0.677-0.508-1.037-0.744c0.838-1.055,1.644-2.282,2.351-3.639
		c2.502-4.796,2.831-9.314,0.744-10.088c-2.088-0.768-5.804,2.495-8.307,7.288c-0.697,1.339-1.219,2.653-1.574,3.873
		c-1.152-0.172-2.29-0.227-3.391-0.16c0.031-0.156,0.065-0.309,0.092-0.466c0.944-5.326-0.101-9.733-2.323-9.845
		c-2.222-0.109-4.788,4.123-5.735,9.446c-0.272,1.541-0.374,3-0.334,4.306c-1.154,1.135-2.021,2.509-2.473,4.094
		c-0.905,3.171,0.006,6.503,2.165,9.24c-0.259,1.331-0.367,2.707-0.469,4.013c-0.427,5.483-0.494,10.684,0.744,16.086
		c5.795,25.339,15.201,51.312,41.186,61.87c4.114,1.673,8.555,3.261,13.11,4.366c-5.777,11.586-9.113,25.212-9.113,39.798
		c0,5.063,0.411,10.008,1.177,14.795c-18.243-1.568-38.167,5.626-51.137,18.402c-8.383,8.255-10.849,19.687-9.401,31.093
		c0.2,1.577,1.641,12.091,4.359,20.596c-2.221,2.023-3.41,4.753-2.962,7.528c0.361,2.238,1.731,4.108,3.685,5.391
		c0.137,0.679,0.311,1.385,0.527,2.108c1.228,4.092,3.27,7.095,4.565,6.71c1.174-0.352,1.324-3.384,0.424-7.003
		c0.74,0.057,1.502,0.049,2.276-0.023c0.1,0.413,0.21,0.833,0.338,1.259c1.225,4.092,3.27,7.096,4.563,6.71
		c1.293-0.388,1.35-4.021,0.124-8.112c-0.117-0.392-0.244-0.77-0.376-1.14c0.378-0.183,0.743-0.379,1.093-0.593
		c0.061,0.227,0.124,0.454,0.193,0.684c1.226,4.092,3.269,7.094,4.563,6.706s1.349-4.019,0.123-8.111
		c-0.331-1.103-0.721-2.122-1.14-3.022c0.436-0.761,0.758-1.565,0.934-2.396c2.712,0.443,5.05-0.271,5.556-1.853
		c0.602-1.882-1.613-4.276-4.946-5.34c-1.278-0.41-2.535-0.563-3.634-0.492c-0.826-0.636-1.776-1.159-2.824-1.54
		c-0.261-2.148-0.664-4.114-0.982-5.518c-1.596-7.024-3.397-13.916-0.986-21.007c5.489-16.134,21.401-22.754,36.826-25.322
		c4.145-0.692,8.337-0.211,12.446,0.558c0.877,2.413,1.853,4.759,2.921,7.032c-0.685-0.091-1.38-0.154-2.09-0.154
		c-8.699,0-15.751,7.052-15.751,15.751s7.052,15.751,15.751,15.751c0.27,0,0.534-0.027,0.8-0.04c-0.116,1.335-0.19,2.681-0.19,4.043
		c0,18.623,11.005,34.833,27.252,43.254c5.698,7.271,14.993,12.011,25.501,12.011s19.803-4.74,25.501-12.011
		c16.247-8.421,27.252-24.631,27.252-43.254c0-1.355-0.074-2.693-0.189-4.02c0.113,0.002,0.224,0.017,0.338,0.017
		c8.699,0,15.751-7.052,15.751-15.751c0-7.625-5.419-13.984-12.616-15.437c0.344-0.728,0.688-1.455,1.013-2.198
		c0.117,0.046,0.238,0.092,0.345,0.137c4.844,2.017,9.796,4.224,13.619,7.924c11.231,10.877,20.568,25.365,15.92,41.761
		c-2.042,7.204-7.44,11.852-12.744,16.729c-1.054,0.97-2.495,2.352-3.923,3.962c-1.096-0.288-2.193-0.398-3.25-0.339
		c-0.86-0.673-1.97-1.252-3.241-1.636c-3.349-1.017-6.531-0.305-7.107,1.586c-0.481,1.588,1.037,3.504,3.52,4.679
		c-0.325,0.787-0.517,1.633-0.587,2.508c-0.854,0.502-1.753,1.118-2.65,1.837c-3.334,2.671-5.352,5.691-4.507,6.746
		c0.845,1.054,4.232-0.257,7.566-2.928c0.19-0.152,0.374-0.306,0.555-0.459c0.166,0.372,0.354,0.739,0.561,1.102
		c-0.323,0.233-0.646,0.476-0.97,0.735c-3.332,2.67-5.35,5.692-4.507,6.745c0.845,1.053,4.235-0.258,7.567-2.928
		c0.353-0.283,0.688-0.571,1.01-0.859c0.598,0.5,1.223,0.939,1.867,1.313c-2.809,2.472-4.416,5.06-3.647,6.02
		c0.845,1.054,4.232-0.257,7.566-2.928c0.599-0.48,1.154-0.972,1.66-1.461c2.329,0.048,4.51-0.714,6.074-2.346
		c1.942-2.026,2.515-4.943,1.842-7.863c7.065-5.456,14.218-13.283,15.279-14.467C243.566,314.531,248.03,303.722,245.818,292.165z"
		/>
	<g id="Monkey_1_">
		<g id="Body_1_">
			<ellipse id="Main_Body_1_" fill="#4E341A" cx="143.448" cy="221.463" rx="61.997" ry="76.243"/>
			<g id="Arms_2_">
				<g id="Right_Arm_2_">
					<path id="Right_Arm_BG_2_" fill="#4E3722" d="M196.433,242.898c0.411-0.234,0.733-0.385,0.923-0.424
						c4.474-0.946,9.323,1.749,13.228,3.611c17.632,8.396,31.565,26.871,35.234,46.08c2.212,11.557-2.252,22.366-9.923,30.93
						c-2.002,2.234-25.712,28.145-29.56,17.08c-1.925-5.577,5.486-12.973,8.884-16.099c5.304-4.877,10.702-9.525,12.744-16.729
						c4.648-16.396-4.689-30.884-15.92-41.761c-3.823-3.7-8.775-5.907-13.619-7.924c-2.911-1.213-9.59-2.839-10.506-6.423
						C187.068,247.89,194.102,244.228,196.433,242.898z"/>
					<g id="Hand_5_">
						
							<ellipse id="Palm_5_" transform="matrix(-0.722 -0.6919 0.6919 -0.722 129.2249 727.3782)" fill="#CDB86F" cx="210.742" cy="337.728" rx="11.125" ry="8.96"/>
						
							<ellipse id="Finger_17_" transform="matrix(-0.6253 -0.7804 0.7804 -0.6253 60.037 705.9907)" fill="#CDB86F" cx="199.511" cy="338.582" rx="2.446" ry="7.735"/>
						<path id="Finger_16_" fill="#CDB86F" d="M208.752,338.94c0.845,1.053-1.175,4.075-4.506,6.746
							c-3.332,2.67-6.722,3.981-7.567,2.928c-0.843-1.053,1.175-4.075,4.507-6.745C204.517,339.198,207.907,337.887,208.752,338.94z
							"/>
						
							<ellipse id="Finger_15_" transform="matrix(-0.6253 -0.7804 0.7804 -0.6253 69.4698 728.0032)" fill="#CDB86F" cx="209.512" cy="347.323" rx="2.446" ry="7.735"/>
						<path id="Thumb_5_" fill="#CDB86F" d="M209.829,331.327c-0.573,1.889-3.754,2.601-7.103,1.586
							c-3.348-1.017-5.6-3.374-5.028-5.264c0.576-1.891,3.758-2.603,7.107-1.586C208.154,327.076,210.402,329.436,209.829,331.327z"
							/>
					</g>
				</g>
				<g id="Left_Arm_2_">
					<path id="Left_Arm_BG_2_" fill="#4E3722" d="M100.12,242.164c-0.207-0.427-0.384-0.731-0.518-0.872
						c-3.144-3.321-8.666-3.858-12.938-4.543c-19.279-3.103-41.24,4.186-55.173,17.911c-8.383,8.255-10.849,19.687-9.401,31.093
						c0.378,2.975,5.172,37.767,14.625,30.848c4.752-3.497,2.855-13.793,1.834-18.298c-1.596-7.024-3.397-13.916-0.986-21.007
						c5.489-16.134,21.401-22.754,36.826-25.322c5.248-0.876,10.575,0.121,15.708,1.213c3.086,0.656,9.507,3.113,12.295,0.682
						C104.993,251.593,101.283,244.583,100.12,242.164z"/>
					<g id="Hand_4_">
						<path id="Palm_4_" fill="#CDB86F" d="M33.042,303.258c-6.067,0.979-10.344,5.734-9.555,10.619
							c0.788,4.884,6.344,8.051,12.411,7.071c6.065-0.979,10.34-5.732,9.551-10.615C44.66,305.448,39.107,302.279,33.042,303.258z"
							/>
						
							<ellipse id="Finger_14_" transform="matrix(-0.9579 0.2871 -0.2871 -0.9579 176.2969 612.4811)" fill="#CDB86F" cx="43.242" cy="319.166" rx="2.446" ry="7.734"/>
						<path id="Finger_13_" fill="#CDB86F" d="M35.426,314.209c-1.295,0.388-1.349,4.021-0.124,8.11
							c1.225,4.092,3.27,7.096,4.563,6.71c1.293-0.388,1.35-4.021,0.124-8.112C38.763,316.827,36.72,313.823,35.426,314.209z"/>
						<path id="Finger_12_" fill="#CDB86F" d="M27.823,313.266c-1.293,0.388-1.349,4.021-0.124,8.11
							c1.228,4.092,3.27,7.095,4.565,6.71c1.293-0.388,1.348-4.021,0.123-8.112C31.162,315.884,29.117,312.88,27.823,313.266z"/>
						<path id="Thumb_4_" fill="#CDB86F" d="M38.863,307.331c-0.602,1.879,1.613,4.275,4.944,5.34
							c3.333,1.064,6.526,0.404,7.128-1.478c0.602-1.882-1.613-4.276-4.946-5.34C42.659,304.784,39.464,305.449,38.863,307.331z"/>
					</g>
				</g>
			</g>
			<g id="Legs_3_">
				<g id="Right_Leg_2_">
					<path id="Right_Leg_BG_2_" fill="#4E3621" d="M175.068,148.954c9.237,0.512,18.168-2.119,25.54-6.601
						c8.339-5.066,10.397-11.465,12.065-20.963c1.722-9.812,1.062-20.542-0.815-30.745c-1.422-7.715-4.517-15.441,1.116-21.494
						c2.103-2.257,7.19-2.177,10.003-0.364c2.69,1.729,3.687,4.994,4.612,7.874c9.39,29.291,3.382,66.87-22.819,85.527
						c-6.547,4.663-14.196,9.313-22.28,11.323c-3.017,0.751-12.42,1.581-15.216-1.178l-11.464-11.295c0,0,3.085-12.564,3.114-12.69
						c0.306-1.213,14.542,0.51,16.063,0.602C175.014,148.949,175.038,148.949,175.068,148.954z"/>
					<g id="Foot_5_">
						<path id="Palm-__Foot_2_" fill="#CDB86F" d="M219.569,79.846c6.66-3.733,9.622-11.109,6.613-16.473
							c-3.006-5.366-10.841-6.689-17.501-2.958c-6.662,3.734-9.622,11.109-6.615,16.471
							C205.072,82.251,212.905,83.576,219.569,79.846z"/>
						<path id="Toe_18_" fill="#CDB86F" d="M221.522,65.961c2.14-0.62,2.132-5.15-0.011-10.111c-2.149-4.962-5.623-8.488-7.758-7.87
							c-2.139,0.622-2.136,5.151,0.011,10.116C215.91,63.056,219.384,66.578,221.522,65.961z"/>
						<path id="Toe_11_" fill="#CDB86F" d="M211.324,65.702c1.854-1.234,0.487-5.552-3.05-9.642
							c-3.54-4.086-7.911-6.405-9.764-5.174c-1.852,1.234-0.489,5.554,3.05,9.644C205.096,64.616,209.469,66.933,211.324,65.702z"/>
						<path id="Toe_10_" fill="#CDB86F" d="M210.765,72.265c1.211-1.867-1.755-5.29-6.625-7.643
							c-4.872-2.346-9.803-2.741-11.014-0.876c-1.21,1.867,1.751,5.293,6.624,7.645C204.616,73.738,209.55,74.13,210.765,72.265z"/>
						<path id="Toe_-_Thumb_5_" fill="#CDB86F" d="M211.033,77.576c-0.101-2.449-3.708-4.298-8.051-4.122
							c-4.345,0.183-7.789,2.317-7.691,4.769c0.101,2.454,3.709,4.304,8.054,4.122C207.691,82.168,211.135,80.029,211.033,77.576z"
							/>
					</g>
				</g>
				<g id="Left_Leg_2_">
					<path fill="#4E351F" d="M103.303,157.572c-8.872,2.628-18.168,2.128-26.375-0.531c-9.282-3.007-12.759-8.759-16.573-17.615
						c-3.942-9.151-5.773-19.745-6.298-30.105c-0.398-7.834,0.831-16.066-6.047-20.657c-2.563-1.711-7.494-0.46-9.815,1.952
						c-2.22,2.304-2.436,5.71-2.671,8.727c-0.427,5.483-0.494,10.684,0.744,16.086c5.795,25.339,15.201,51.312,41.186,61.87
						c7.446,3.028,15.961,5.787,24.291,5.879c3.109,0.035,12.451-1.327,14.536-4.657l8.548-13.635c0,0-5.899-11.513-5.957-11.629
						c-0.576-1.109-14.031,3.85-15.491,4.291C103.354,157.554,103.329,157.559,103.303,157.572z"/>
					<g id="Foot_4_">
						
							<ellipse id="Palm_-_Foot_2_" transform="matrix(0.9616 0.2744 -0.2744 0.9616 26.4731 -9.4798)" fill="#CDB86F" cx="47.12" cy="89.883" rx="13.824" ry="11.136"/>
						<path id="Toe_9_" fill="#CDB86F" d="M38.957,87.531c-2.224-0.108-3.264-4.519-2.323-9.841
							c0.947-5.323,3.513-9.555,5.735-9.446c2.222,0.112,3.267,4.519,2.323,9.845C43.75,83.41,41.18,87.639,38.957,87.531z"/>
						<path id="Toe_8_" fill="#CDB86F" d="M48.82,84.928c-2.087-0.774-1.753-5.291,0.744-10.086
							c2.503-4.793,6.219-8.056,8.307-7.288c2.087,0.774,1.758,5.292-0.744,10.088C54.63,82.434,50.911,85.697,48.82,84.928z"/>
						<path id="Toe_7_" fill="#CDB86F" d="M50.878,91.184c-1.608-1.537,0.489-5.552,4.684-8.964
							c4.199-3.407,8.905-4.929,10.514-3.394c1.61,1.537-0.484,5.554-4.68,8.966C57.201,91.201,52.491,92.718,50.878,91.184z"/>
						<path id="Toe_-_Thumb_4_" fill="#CDB86F" d="M51.842,96.414c-0.466-2.407,2.618-5.038,6.884-5.868
							c4.27-0.825,8.113,0.457,8.583,2.866c0.468,2.413-2.616,5.043-6.885,5.869C56.153,100.11,52.309,98.824,51.842,96.414z"/>
					</g>
				</g>
			</g>
			<path id="Tail_2_" fill="#4E351D" d="M164.909,95.137c12.327-19.772,14.725-42.782-1.315-61.211
				c-8.496-9.763-16.917-15.53-30.015-15.984c-12.727-0.441-31.168,4.414-37.585,16.691c-4.953,9.475,2.165,20.239,12.723,20.149
				c4.431-0.038,9.23-3.281,13.601-1.847c5.785,1.897,6.336,9.712,1.452,13.072c-4.839,3.33-14.596,4.452-20.291,3.919
				c-6.632-0.618-12.666-3.983-16.764-9.224c-8.514-10.887-6.073-24.992,2.856-34.701c12.336-13.413,30.433-21.351,48.794-19.837
				c5.859,0.482,12.617,2.307,17.754,5.241c6.578,3.755,14.099,9.985,18.497,16.191c7.566,10.679,14.31,23.262,14.912,36.578
				c0.667,14.856-2.65,28.68-12.161,40.376c-6.797,8.353-15.807,15.983-20.187,26.035c-0.913,2.092-3.317,15.004-5.217,15.325
				c-10.942,1.715-21.886,3.43-32.83,5.146c4.42-0.694,10.199-9.867,12.878-13.036c8.495-10.047,16.705-20.34,24.582-30.877
				C159.471,103.292,162.321,99.286,164.909,95.137z"/>
		</g>
		<g id="Head_1_">
			<g id="Ears_3_">
				<g id="Left_Ear_2_">
					<circle id="Ear_BG_6_" fill="#3C2819" cx="87.666" cy="275.16" r="15.751"/>
					<path id="Inner_Ear_6_" fill="#CDB86F" d="M103.528,272.056c2.868,6.426-0.019,13.958-6.443,16.824
						c-6.426,2.866-13.958-0.018-16.826-6.443c-2.866-6.428,0.019-13.96,6.447-16.826C93.13,262.746,100.662,265.63,103.528,272.056
						z"/>
				</g>
				<g id="Right_Ear_2_">
					<circle id="Ear_BG_3_" fill="#3C2819" cx="193.931" cy="275.16" r="15.751"/>
					<path id="Inner_Ear_3_" fill="#CDB86F" d="M178.069,272.056c-2.867,6.426,0.019,13.958,6.443,16.824
						c6.426,2.866,13.958-0.018,16.826-6.443c2.866-6.428-0.018-13.96-6.446-16.826C188.468,262.746,180.936,265.63,178.069,272.056
						z"/>
				</g>
			</g>
			<g id="Face_3_">
				<ellipse fill="#604020" cx="141.029" cy="294.914" rx="52.753" ry="49.409"/>
				<g id="Muzzle_2_">
					<ellipse id="Muzzle_BG_2_" fill="#CDB86F" cx="141.029" cy="321.387" rx="31.392" ry="28.792"/>
					<path id="Nose_3_" fill="#352619" d="M151.755,298.329c0,2.759-4.977,9.274-11.119,9.274c-6.144,0-11.124-6.515-11.124-9.274
						c0-2.759,4.98,4.574,11.124,4.574C146.778,302.902,151.755,295.569,151.755,298.329z"/>
					<path id="Smile_2_" fill="none" stroke="#34271B" stroke-linecap="round" stroke-miterlimit="10" d="M160.364,329.296
						c-0.676,1.673-1.236,3.339-2.179,4.778c-3.811,5.818-9.671,7.971-15.08,8.042c-3.355,0.044-6.792-0.586-10.018-1.909"/>
				</g>
				<g id="Eyes_2_">
					<g id="Left_Eye_2_">
						<ellipse id="Eye_BG_6_" fill="#FFFFFF" cx="119.176" cy="282.57" rx="7.296" ry="8.955"/>
						<g id="Pupil_6_">
							<path id="Pupil_BG_4_" fill="#894594" d="M122.579,283.266c0,2.471-1.636,4.477-3.652,4.477
								c-2.011,0-3.647-2.006-3.647-4.477c0-2.475,1.635-4.478,3.647-4.478C120.943,278.788,122.579,280.791,122.579,283.266z"/>
							<g id="Reflection_5_">
								<ellipse id="Small_Reflection_4_" fill="#F4FAFD" cx="118.912" cy="282.702" rx="0.623" ry="0.564"/>
								<path id="Big_Reflection_4_" fill="#F4FAFD" d="M118.649,281.377c0,0.524-0.468,0.944-1.043,0.944
									c-0.582,0-1.048-0.421-1.048-0.944c0-0.522,0.466-0.943,1.048-0.943C118.181,280.434,118.649,280.855,118.649,281.377z"/>
							</g>
						</g>
					</g>
					<g id="Right_Eye_2_">
						<ellipse id="Eye_BG_3_" fill="#FFFFFF" cx="159.494" cy="282.57" rx="7.296" ry="8.955"/>
						<g id="Pupil_3_">
							<path id="Pupil_BG_3_" fill="#894594" d="M156.091,283.266c0,2.471,1.636,4.477,3.651,4.477c2.013,0,3.648-2.006,3.648-4.477
								c0-2.475-1.636-4.478-3.648-4.478C157.727,278.788,156.091,280.791,156.091,283.266z"/>
							<g id="Reflection_4_">
								<ellipse id="Small_Reflection_3_" fill="#F4FAFD" cx="159.758" cy="282.702" rx="0.623" ry="0.564"/>
								<path id="Big_Reflection_3_" fill="#F4FAFD" d="M160.021,281.377c0,0.524,0.468,0.944,1.043,0.944
									c0.582,0,1.048-0.421,1.048-0.944c0-0.522-0.465-0.943-1.048-0.943C160.489,280.434,160.021,280.855,160.021,281.377z"/>
							</g>
						</g>
					</g>
				</g>
				<g id="Eye_Brows_3_">
					<path id="Left_Eye_Brow_3_" fill="none" stroke="#FBF7C7" stroke-linecap="round" stroke-miterlimit="10" d="M110.04,269.842
						c1.631-3.595,3.739-7.555,7.333-9.519c3.018-1.65,7.079-1.455,10.108,0.063"/>
					<path id="Right_Eye_Brow_3_" fill="none" stroke="#FBF7C7" stroke-linecap="round" stroke-miterlimit="10" d="M172.109,269.842
						c-1.631-3.595-3.74-7.555-7.333-9.519c-3.018-1.65-7.078-1.455-10.108,0.063"/>
				</g>
			</g>
			<path id="Hair_3_" fill="#3C281B" d="M108.903,255.716c0.154-0.104,0.676-0.06,0.876-0.102c0.313-0.063,0.62-0.154,0.925-0.254
				c2.327-0.765,4.644-1.285,7.082-1.566c0.702-0.08,1.407-0.145,2.112-0.207c0.319-0.029,0.652-0.071,0.972-0.027
				c0.125,0.017-0.166,1.151-0.198,1.253c-0.617,2.023-2.753,2.473-4.37,3.441c-0.362,0.217-0.707,0.471-0.998,0.779
				c-0.209,0.219-0.491,0.761-0.847,0.716c3.666,0.463,7.332,0.2,10.902-0.734c0.464-0.121,4.221-0.901,4.174-1.59
				c0.173,2.373-1.053,4.458-2.453,6.296c-1.125,1.479-2.452,2.819-4.03,3.839c-0.616,0.401-1.348,0.582-1.755,1.157
				c2.873,0.129,5.822,0.078,8.704,0.025c1.726-0.031,3.401-0.33,5.069-0.758c1.352-0.348,2.726-0.892,3.951-1.557
				c2.14-1.16,4.124-2.842,5.773-4.626c1.715-1.856,2.936-4.189,4.863-5.857c0.198,2.364,0.438,4.751,0.299,7.152
				c-0.136,2.371-1.269,6.471-3.441,7.86c2.516-1.825,5.268-3.299,7.795-5.108c1.755-1.257,3.461-2.701,4.539-4.599
				c1.266-2.222,1.494-4.768,1.904-7.24c3.795,2.933,7.583,5.754,9.674,10.21c0.509,1.086,0.832,3.027,1.909,3.703
				c0.634-1.033,0.957-1.996,0.926-3.192c-0.054-2.125-1.031-4.078-1.934-5.951c-0.715-1.477-2.027-3.611-1.248-5.271
				c1.208,0.133,2.259,0.109,3.458,0.455c2.676,0.769,5.642,2.386,8.381,2.636c-1.092-3.276-2.519-6.809-5.537-8.776
				c-1.744-1.135-4.191-1.338-5.747-2.737c1.475-1.051,3.176-1.707,4.848-2.373c1.786-0.711,3.607-1.362,5.486-1.782
				c1.151-0.258,2.323-0.422,3.502-0.444c0.693-0.012,1.383,0.015,2.076,0.028c0.438,0.007,1.674-0.254,2.028-0.051
				c-4.03-2.318-9.21-2.978-13.772-3.366c-2.404-0.205-4.84-0.285-7.25-0.247c-4.285,0.069-8.589,0.587-12.716,1.76
				c-2.064,0.587-4.075,1.34-6.051,2.174c-1.015,0.428-2.02,0.876-3.02,1.332c-0.505,0.229-1.011,0.462-1.513,0.695
				c-0.242,0.112-1.433,0.478-1.514,0.703c1.291-3.523,3.411-6.622,5.595-9.635c0.569-0.785,1.081-1.715,1.559-2.547
				c-2.564-0.158-5.481,1.671-7.629,2.871c-4.18,2.335-8.143,5.079-12.16,7.679c-1.117,0.721-2.192,1.475-3.268,2.253
				c-0.95,0.685-2.099,1.591-3.277,1.796c-0.725-2.627-0.548-5.723-0.673-8.428c-0.067,2.855-0.752,6.156-2.108,8.683
				c-1.109,2.064-2.962,3.569-4.862,4.953c-1.321,0.962-2.802,1.514-4.031,2.581L108.903,255.716z"/>
		</g>
	</g>
</g>
</svg>
