<?xml version="1.0" encoding="utf-8"?>
<!-- Generator: Adobe Illustrator 17.0.0, SVG Export Plug-In . SVG Version: 6.00 Build 0)  -->
<!DOCTYPE svg PUBLIC "-//W3C//DTD SVG 1.1 Basic//EN" "http://www.w3.org/Graphics/SVG/1.1/DTD/svg11-basic.dtd">
<svg version="1.1" baseProfile="basic" id="Слой_1"
	 xmlns="http://www.w3.org/2000/svg" xmlns:xlink="http://www.w3.org/1999/xlink" x="0px" y="0px" width="167.456px"
	 height="166.186px" viewBox="0 0 167.456 166.186" xml:space="preserve">
<path fill="#87BB50" d="M140.966,53.108c2.664-5.044,4.179-10.788,4.179-16.889C145.146,16.216,128.93,0,108.926,0
	C90.643,0,75.532,13.549,73.067,31.153C31.859,36.39,0,71.579,0,114.209c0,11.919,2.496,23.253,6.984,33.516
	c9.884-1.427,20.339-0.221,26.883,2.233c19.756,8.467,41.394,11.289,62.09,2.822c15.052-5.645,30.104,5.645,45.157,12.23
	c2.781,1.39,5.562,1.239,8.343,1.066c11.27-14.262,17.999-32.278,17.999-51.867C167.456,90.105,157.267,68.385,140.966,53.108z"/>
</svg>
