<?xml version="1.0" encoding="utf-8"?>
<!-- Generator: Adobe Illustrator 17.0.0, SVG Export Plug-In . SVG Version: 6.00 Build 0)  -->
<!DOCTYPE svg PUBLIC "-//W3C//DTD SVG 1.1 Basic//EN" "http://www.w3.org/Graphics/SVG/1.1/DTD/svg11-basic.dtd">
<svg version="1.1" baseProfile="basic" id="Слой_1"
	 xmlns="http://www.w3.org/2000/svg" xmlns:xlink="http://www.w3.org/1999/xlink" x="0px" y="0px" width="131.289px"
	 height="149.653px" viewBox="0 0 131.289 149.653" xml:space="preserve">
<path fill="#BAAE52" d="M70.066,0.579C42.49,4.632,20.961,7.569,6.652,26.106c0,0-7.805,10.408-6.506,17.885
	c0.408,2.336,1.259,4.45,2.88,6.432c1.628,2.444,4.441,5.221,9.278,7.914c13.281,7.395,18.761,7.173,24.945,9.648
	c4.216,1.688,13.149,4.324,22.069,6.152c0.542,2.759,1.137,5.643,1.315,7.251c0,0,2.926,18.861-0.325,26.992
	c-3.252,8.128-9.755,23.902-5.853,30.73c6.949,12.162,25.365,15.772,34.144,0.161c8.781-15.608,1.302-54.955-0.325-60.485
	c-0.411-1.4-0.719-2.967-1.028-4.553c10.923-3.109,25.736-10.277,37.473-24.901c0,0,5.892-6.869,6.282-12.913
	C134.698,21.237,102.229-4.153,70.066,0.579z"/>
</svg>
