<?xml version="1.0" encoding="utf-8"?>
<!-- Generator: Adobe Illustrator 17.0.0, SVG Export Plug-In . SVG Version: 6.00 Build 0)  -->
<!DOCTYPE svg PUBLIC "-//W3C//DTD SVG 1.1 Basic//EN" "http://www.w3.org/Graphics/SVG/1.1/DTD/svg11-basic.dtd">
<svg version="1.1" baseProfile="basic" id="Слой_1"
	 xmlns="http://www.w3.org/2000/svg" xmlns:xlink="http://www.w3.org/1999/xlink" x="0px" y="0px" width="121.965px"
	 height="132.975px" viewBox="0 0 121.965 132.975" xml:space="preserve">
<path fill="#B76153" d="M111.59,47.156c-0.632-0.448-1.307-0.877-2.006-1.278c-1.428-0.82-2.956-1.518-4.553-2.117
	c2.618-0.573,4.652-1.573,6.021-3.188c1.067-1.262,2.164-3.448,1.324-6.711c-0.881-3.405-3.312-6.33-7.029-8.46
	c-4.935-2.826-10.946-3.702-14.928-3.578c-1.153,0.037-2.251,0.149-3.294,0.325c0.966-1.781,1.255-3.739,0.834-5.719
	c-1.014-4.765-5.731-8.089-8.452-9.648c-1.165-0.669-2.367-1.244-3.568-1.715c-3.787-1.475-10.855-3.464-15.648-0.172
	c-1.635,1.123-3.559,3.282-3.801,7.258c-0.985-1.575-2.227-3.111-3.79-4.578c-1.553-1.456-3.469-2.854-5.539-4.04
	c-7.24-4.146-14.128-4.67-18.894-1.438c-2.788,1.89-3.409,4.259-3.439,5.91c-0.041,2.122,0.831,4.226,2.426,6.391
	c-2.729-1.099-5.348-1.789-7.835-2.055c-3.146-0.337-13.744-1.006-17.877,4.648c-1.321,1.808-2.47,4.93-0.437,9.54
	c1.198,2.709,3.226,4.901,6.031,6.508c4.24,2.43,9.79,3.306,15.599,3.75c-8.903,1.919-16.188,5.687-17.191,13.102
	c-0.92,6.784,4.272,13.032,9.827,16.213c3.263,1.869,6.734,2.785,10.043,2.647c1.887-0.077,3.585-0.476,5.12-1.105
	c-0.244,0.394-0.474,0.801-0.689,1.218c-2.711,5.264-2.036,10.667,1.564,14.836c-0.733,2.325-1.321,4.667-1.742,6.985
	c-1.583,8.733-1.376,17.556,0.417,26.1c-0.662-1.676-1.227-3.385-1.705-5.163c-1.913-7.129-2.541-14.155-2.151-21.514
	c0.024-0.448-0.437-0.873-0.869-0.553c-8.015,5.956-15.666,17.662-11.164,27.94c3.664,8.366,12.682,11.579,20.299,15.377
	c0.565,0.282,1.041-0.054,1.216-0.509c0.551,0.162,1.182-0.063,1.476-0.514c6.597-2.504,13.829-4.962,18.018-11.044
	c5.431-7.888,5.409-16.935,6.567-26.065c0.028-0.216-0.048-0.392-0.162-0.532c0.037-0.096,0.09-0.183,0.125-0.28
	c0.045-0.124-0.118-0.201-0.186-0.086c-0.042,0.071-0.092,0.133-0.135,0.204c-0.161-0.087-0.351-0.13-0.557-0.069
	c-8.722,2.539-17.421,6.533-22.852,14.124c-3.08,4.304-4.185,9.234-3.933,14.203c-3.107-10.069-4.103-20.775-2.011-31.192
	c0.37-1.843,0.821-3.671,1.34-5.48c0.805,0.661,1.692,1.279,2.673,1.841c0.002,0,0.005,0.003,0.007,0.004
	c8.358,4.785,21.417,4.629,27.529-3.238c1.095-1.406,1.881-2.906,2.43-4.47c0.744,2.043,1.935,3.997,3.762,5.744
	c0.951,0.912,2.043,1.725,3.251,2.418c7.462,4.273,19.367,3.713,24.128-3.429c4.153-6.235,1.171-13.883-4.245-21.21
	c2.194,1.656,4.401,3.193,6.613,4.458c6.333,3.627,11.698,4.334,16.404,2.157c4.572-2.116,5.775-5.218,5.979-7.447
	C122.566,55.489,114.176,48.984,111.59,47.156z M34.357,130.588c0.058,0.048,0.117,0.096,0.174,0.144
	c0.018,0.042,0.036,0.085,0.054,0.127c-0.053-0.026-0.104-0.052-0.157-0.077L34.357,130.588z M33.656,128.685l-0.532-1.445
	c0.184,0.493,0.373,0.984,0.568,1.473C33.68,128.704,33.668,128.694,33.656,128.685z M46.395,49.824
	c0.516,0.52,1.078,1.02,1.667,1.506c-0.9,0.888-1.762,1.703-2.492,2.388l-0.277,0.259c-1.262,1.185-2.664,2.298-4.148,3.44
	c0.411-0.633,0.801-1.261,1.177-1.858c0.943-1.506,1.836-2.925,2.711-4.063C45.487,50.904,45.941,50.353,46.395,49.824z
	 M66.095,62.837c-0.039-0.235-0.077-0.472-0.116-0.704c-0.261-1.562-0.511-3.099-0.707-4.593c0.433-0.001,0.858-0.022,1.281-0.048
	c-0.01,0.688-0.014,1.369-0.064,2.106C66.422,60.588,66.276,61.677,66.095,62.837z"/>
</svg>
