<?xml version="1.0" encoding="utf-8"?>
<!-- Generator: Adobe Illustrator 17.0.0, SVG Export Plug-In . SVG Version: 6.00 Build 0)  -->
<!DOCTYPE svg PUBLIC "-//W3C//DTD SVG 1.1 Basic//EN" "http://www.w3.org/Graphics/SVG/1.1/DTD/svg11-basic.dtd">
<svg version="1.1" baseProfile="basic" id="Слой_1"
	 xmlns="http://www.w3.org/2000/svg" xmlns:xlink="http://www.w3.org/1999/xlink" x="0px" y="0px" width="192.958px"
	 height="222.979px" viewBox="0 0 192.958 222.979" xml:space="preserve">
<path fill="#A16931" stroke="#FFFFFF" stroke-width="6" stroke-miterlimit="10" d="M186.026,48.069
	c-0.02-0.143-0.091-0.341-0.206-0.59c-1.729-3.72-13.673-18.659-21.907-24.452c-8.782-6.179-23.74-12.681-33.821-12.681
	c-0.046,0-0.095-0.002-0.141-0.003c-0.478-0.003-0.959-0.018-1.441-0.046c-0.025-0.001-0.049-0.002-0.073-0.004
	c-1.628-0.1-3.269-0.322-4.865-0.522c-0.52-0.065-1.038-0.142-1.557-0.212c-3.774-0.55-7.98-1.221-12.592-1.449
	c-0.111-0.006-0.222-0.01-0.333-0.016c-0.244-0.011-0.488-0.021-0.735-0.029c-0.405-0.017-0.81-0.039-1.215-0.048
	c-3.289-0.076-6.581,0.116-9.816,0.716c-0.297,0.055-0.595,0.127-0.893,0.187c-3.27,0.613-6.684,1.586-10.237,3.056
	c0,0-7.57,4.759-6.478,10.396c0.048,0.506,0.143,1.025,0.291,1.559c0.395,1.426,1.33,3.258,2.179,4.162l2.177,2.464l1.59-0.242
	l0.24,2.14l1.07,0.872l1.942-1.112c0.002,0.209-0.293,2.018-0.293,2.018s3.44,2.312,4.739,2.353
	c0.857,0.027,3.718-2.198,6.414-3.882c-0.069,0.362-0.217,1.676-0.219,2.01c0.295-0.188,2.662-1.711,4.079-1.764
	c0.032,0.162,0.027,0.319-0.007,0.472c-0.269,0.462-0.623,0.942-1.102,1.405c-0.593,0.468-1.274,0.872-1.663,1.21
	c-0.001,0.001-0.001,0.001-0.002,0.002c-1.523,0.83-2.099,1.246-2.262,1.452c-0.051,0.026-0.085,0.043-0.085,0.043l0.272,2.477
	c0,0,1.218,2.642,4.762,3.731c3.544,1.089,9.528,1.995,9.528,1.995s2.535-2.01,2.421-1.893c0,0,0.528,1.789,0.158,2.624l1.607,0.702
	l2.458-3.381c0,0-0.184,3.454-0.53,4.093c0,0,1.879,0.41,3.987,1.071c-0.153,2.094-0.464,6.25-0.814,10.484
	c-0.678,0.282-1.345,0.58-1.999,0.898c-4.238,2.062-7.634,4.549-10.372,7.192c-9.745-3.967-20.998-5.984-32.216-4.334
	C50.49,67.246,28.96,70.182,14.652,88.718c0,0-7.805,10.408-6.506,17.885c0.407,2.334,1.257,4.446,2.876,6.426
	c1.628,2.446,4.441,5.225,9.282,7.92c13.281,7.395,18.761,7.173,24.945,9.648c4.216,1.688,13.149,4.324,22.069,6.153
	c0.541,2.759,1.137,5.644,1.315,7.252c0,0,0.699,4.514,1.034,10.076c-5.313-1.884-11.425-2.097-17.669,2.305
	c-0.031,0.022-0.06,0.044-0.091,0.066c-6.238-3.339-13.356-5.714-16.586-5.978c-5.661-0.465-9.42,4.61-10.816,9.556
	c0,0-3.426,8.051-5.032,12.385c-1.607,4.334-5.059,9.3-0.074,14.81c3.262,3.605,10.101,3.87,16.817,2.14
	c1.934,5.928,5.765,14.862,11.606,16.264c5.093,1.222,8.328-0.702,9.715-3.374c1.01,6.437,2.967,12.27,6.725,13.281
	c4.904,1.32,8.867-0.63,11.04-3.909c3.298,0.87,6.782,0.875,10.096-0.153c0.512,1.979,1.919,3.628,4.639,4.588
	c6.198,2.182,11.479,2.255,15.64-7.879c1.207-2.941,2.271-6.29,3.22-9.727c6.553,4.265,18.508,6.282,25.851-1.809
	c0.793-0.873,1.483-2.061,2.084-3.502c2.733-0.503,4.775-1.601,4.775-1.601c10.983-8.018,15.282-59.411,13.371-81.573
	c-0.595-6.904-1.237-12.206-1.838-16.234c13.043-4.84,28.555-10.984,25.393-20.976c-3.452-10.914-23.079-18.087-41.272-16.664
	c0.089-1.633,0.161-3.011,0.218-4.103l0.221,0.306l1.94,0.387l0.366-1.291l1.259,1.342c0,0,5.828,0.835,9.721,1.283
	c3.89,0.448,14.238,0.691,20.085,1.125c2.691,0.198,5.36-0.145,7.977-0.778c2.016-0.487,3.992-1.423,5.523-2.88
	c0.689-0.655,1.471-1.877,1.487-2.902C186.062,48.405,186.051,48.233,186.026,48.069z M115.713,128.534
	c-0.548-0.042-1.09-0.063-1.63-0.072c0.587-0.365,1.175-0.741,1.763-1.13C115.802,127.734,115.757,128.135,115.713,128.534z
	 M137.244,113.392c-0.215-2.385-0.393-4.855-0.537-7.368c0.144-0.27,0.284-0.543,0.422-0.823
	C137.19,107.746,137.227,110.501,137.244,113.392z M50.531,185.81c1.777,0.443,3.765,0.778,5.97,0.929
	c-0.004,2.076,0.043,4.886,0.236,7.946C55.207,192.297,52.768,189.056,50.531,185.81z M101.021,174.086c0,0-0.106,0.275-0.293,0.755
	c-0.048-1.516-0.122-3.033-0.217-4.539c0.74,0.371,1.255,0.613,1.455,0.706C101.627,171.878,101.406,172.932,101.021,174.086z"/>
<g id="cccc">
	<g id="_585272424">
		<path fill="#EDD7B9" d="M150.679,82.15c0,0,2.388,5.658,4.298,27.818c1.911,22.162-2.388,73.555-13.371,81.573
			c0,0-10.509,5.658-15.761-2.83c-5.253-8.486,10.509-19.803,10.985-40.079c0.477-20.273,0.954-53.282-0.956-57.996
			C133.964,85.922,145.426,76.019,150.679,82.15z"/>
		<path fill="#A16931" d="M99.118,89.993c0,0,1.13-19.735,21.534-29.66c20.409-9.923,53.311-2.019,57.88,12.425
			c4.572,14.444-29.886,20.85-39.487,26.893S98.338,118.91,99.118,89.993z"/>
		<path fill="#DBC4A3" d="M123.567,47.547c0,0-0.638,8.97-1.277,16.085s-2.556,19.177-2.556,23.509
			c0,4.33-5.431,57.225-7.347,67.744c-1.918,10.517-11.181,33.716-7.349,39.903s20.445,12.064,29.709,1.856
			c9.264-10.207,4.791-62.484,2.875-79.498c-1.918-17.013-1.598-40.211-0.957-50.73c0.638-10.517,0.957-17.322,0.957-17.322
			s1.916-11.134-5.75-11.754C124.205,36.72,123.247,41.361,123.567,47.547z"/>
		<path fill="#EDD7B9" d="M34.723,184.035c0,0,4.238,19.465,13.099,21.591c8.859,2.126,12.129-5.257,9.749-9.566
			c-2.378-4.308-10.154-13.487-11.861-18.757C44.001,172.035,32.703,172.606,34.723,184.035z"/>
		<path fill="#A16931" d="M24.505,160.027c0,0-3.426,8.051-5.032,12.385c-1.607,4.334-5.059,9.3-0.074,14.81
			c4.985,5.508,18.321,3.25,26.808-2.071c8.491-5.318,20.116-12.745,16.249-20.012c-3.869-7.267-21.475-14.206-27.135-14.668
			C29.66,150.006,25.901,155.081,24.505,160.027z"/>
		<path fill="#DAC09F" d="M68.633,144.002c0,0,2.926,18.861-0.325,26.992c-3.252,8.128-9.755,23.902-5.853,30.73
			c6.949,12.162,25.365,15.772,34.144,0.161c8.781-15.608,1.302-54.955-0.325-60.485c-1.625-5.529-1.625-13.659-6.504-15.284
			c-4.877-1.625-20.486-4.553-23.412,4.878C66.601,133.921,68.31,141.075,68.633,144.002z"/>
		<path fill="#EDD7B9" d="M56.564,183.198c0,0-1.281,29.918,7.698,32.335c8.984,2.419,14.822-6.127,12.251-13.74
			c-2.569-7.615-5.974-22.289-5.974-22.289S57.153,172.311,56.564,183.198z"/>
		<path fill="#C67C32" d="M39.329,180.149c0,0,7.924,8.127,24.1,6.452c14.146-1.463,23.978-8.857,22.917-14.65
			C85.289,166.156,40.934,175.145,39.329,180.149z"/>
		<path fill="#95612F" d="M37.401,174.54c0,0,1.404-8.857,14.597-18.157c13.195-9.303,25.811,1.992,31.508,6.159
			c5.699,4.166,7.32,12.807-2.496,17.306C71.193,184.344,34.019,188.862,37.401,174.54z"/>
		<path fill="#EDD7B9" d="M101.021,174.086c0,0-7.361,19.169-11.515,24.794c-4.153,5.625-7.445,14.364,0.53,17.179
			c6.198,2.182,11.479,2.255,15.64-7.879c4.25-10.359,6.79-25.723,8.39-32.497c0,0,1.383-5.853-5.441-6.87
			C101.803,167.797,102.233,170.457,101.021,174.086z"/>
		<path fill="#C67C32" d="M144.72,163.917c0,0-3.481,6.504-17.711,7.734c-8.533,0.737-12.849,2.061-12.849,2.061
			s-1.625-0.948-5.628-1.813c-3.998-0.862-6.464-0.845-6.464-0.845s-18.128-8.214-17.617-15.943
			c0.564-8.58,14.146-4.356,33.125-1.232C136.549,157.002,147.124,160.248,144.72,163.917z"/>
		<path fill="#A16931" d="M83.328,156.345c0,0,2.955,8.18,16.467,11.095c13.516,2.912,22.42,2.255,26.927,2.261
			c4.635,0.006,17.231,0.657,18.784-6.551c1.555-7.207-1.713-18.284-10.811-26.371c-9.1-8.093-21.976-10.527-30.442-6.277
			C98.127,133.577,79.804,144.271,83.328,156.345z"/>
		<path fill="#C67C32" d="M8.961,105.515c0,0-1.94,8.038,11.343,15.434c13.281,7.395,18.761,7.173,24.945,9.648
			c7.695,3.08,31.099,9.326,41.466,8.04c10.367-1.289,30.777-7.719,46.005-26.691c0,0,7.453-8.683,6.156-15.115
			C137.578,90.401,8.961,105.515,8.961,105.515z"/>
		<path fill="#A16931" d="M14.652,88.718c0,0-7.805,10.408-6.506,17.885c1.304,7.479,7.157,12.683,28.293,18.536
			c21.137,5.855,37.072,15.608,55.933,11.382c18.86-4.227,39.998-21.137,46.177-36.096c6.178-14.959-27.317-42.113-60.485-37.234
			C50.49,67.246,28.96,70.182,14.652,88.718z"/>
		<path fill="#C67C32" d="M186.057,48.583c0.005-0.178-0.006-0.35-0.031-0.514c-0.325-2.276-13.33-18.861-22.112-25.04
			s-23.74-12.681-33.821-12.681c-2.161,0-4.382-0.309-6.522-0.577c-2.564-0.321-5.116-0.727-7.678-1.049
			c-2.906-0.366-5.826-0.638-8.754-0.706c-3.289-0.076-6.581,0.116-9.816,0.716c-3.71,0.688-7.494,1.719-10.918,3.334
			c-0.87,0.409-1.663,0.939-2.386,1.571c-2.986,2.607-5.206,5.998-4.013,10.293c0.395,1.426,1.33,3.258,2.179,4.162l2.177,2.464
			l1.59-0.242l0.24,2.14l1.07,0.872l1.942-1.112c0.002,0.209-0.293,2.018-0.293,2.018s3.44,2.312,4.739,2.353
			c0.857,0.027,3.718-2.198,6.414-3.882c-0.069,0.362-0.217,1.676-0.219,2.01c0.295-0.188,2.662-1.711,4.079-1.764
			c0.264,1.33-1.934,2.358-2.773,3.088c-0.935,0.812-2.349,1.496-2.349,1.496l0.272,2.477c0,0,1.218,2.642,4.762,3.731
			s9.528,1.995,9.528,1.995s2.535-2.01,2.421-1.893c0,0,0.528,1.789,0.158,2.624l1.607,0.702l2.458-3.381
			c0,0-0.184,3.454-0.53,4.093c0,0,4.561,0.993,7.447,2.384c2.883,1.394,9.483,1.666,9.483,1.666l0.352-0.933l0.939,1.299
			l1.94,0.387l0.366-1.291l1.259,1.342c0,0,5.828,0.835,9.721,1.283c3.89,0.448,14.238,0.691,20.085,1.125
			c2.691,0.198,5.36-0.145,7.977-0.778c2.016-0.487,3.992-1.423,5.523-2.88C185.259,50.83,186.041,49.608,186.057,48.583z"/>
		<path fill="#A16931" d="M86.193,11.975c0,0-11.382,7.152-4.228,14.306l2.601,2.603l5.204-0.651l-3.903,1.95l1.627,1.302
			l5.853-1.627l-4.228,2.277c0,0,3.254,2.276,4.553,2.276c1.302,0,7.825-4.772,10.731-5.527c0,0-2.47,2.261-4.335,3.808
			c0,0,2.059-1.533,4.659-1.858c0,0,0,3.252-3.577,5.204c-3.577,1.95-1.952,1.625-1.952,1.625s1.302,2.603,4.878,3.577
			c3.577,0.976,9.107,1.952,9.107,1.952s3.252-1.302,4.877-3.577c0,0-1.302,3.252-2.276,4.227l1.625,0.649l3.579-3.252
			c0,0-0.245,0.651-0.569,1.463c-0.325,0.814,0.487,2.034,0.161,2.685c0,0,4.959,1.705,7.885,3.006
			c2.928,1.302,8.456,0.976,8.456,0.976l-0.325-2.276l1.627,2.601l1.95,0.325l0.325-1.302l1.302,1.302c0,0,5.853,0.651,9.755,0.976
			c3.903,0.325,19.512,2.276,25.365,1.95c5.853-0.325,9.429-2.601,9.105-4.878c-0.325-2.276-13.33-18.861-22.112-25.04
			s-23.74-12.681-33.821-12.681S105.055,4.171,86.193,11.975z"/>
	</g>
</g>
</svg>
