<?xml version="1.0" encoding="utf-8"?>
<!-- Generator: Adobe Illustrator 17.0.0, SVG Export Plug-In . SVG Version: 6.00 Build 0)  -->
<!DOCTYPE svg PUBLIC "-//W3C//DTD SVG 1.1 Basic//EN" "http://www.w3.org/Graphics/SVG/1.1/DTD/svg11-basic.dtd">
<svg version="1.1" baseProfile="basic" id="Слой_1"
	 xmlns="http://www.w3.org/2000/svg" xmlns:xlink="http://www.w3.org/1999/xlink" x="0px" y="0px" width="127.349px"
	 height="145.546px" viewBox="0 0 127.349 145.546" xml:space="preserve">
<path fill="#87BB50" d="M127.34,80.952c-0.043-0.584-0.435-1.24-0.912-1.574c-1.08-0.757-0.691-0.171-0.682-1.14
	c0.006-0.639-0.251-1.171-0.812-1.526c-0.303-0.192-2.291-0.98-2.292-0.977c0.157-0.374-0.102-0.959-0.46-1.121
	c-0.716-0.325-2.015,0.13-1.832-0.912c0.022-0.128-0.117-0.193-0.198-0.133l-0.108-0.143c0.92,0.146,1.837-0.181,2.34-1.067
	c0.36-0.637,0.531-1.228,0.558-1.96c0.032-0.878,0.257-0.685,1.017-1.072c2.212-1.125,0.696-3.68-0.845-4.663
	c1.196-1.017,1.579-2.319,0.215-3.583c-0.68-0.63-1.674-0.789-2.557-0.827c-0.32-0.013-0.704-1.477-1.047-1.82
	c-0.376-0.375-1.106-0.568-1.621-0.477c-0.204,0.036-1.874,0.786-1.864,0.808c-0.366-0.801-0.792-0.448-1.17-0.115
	c-0.169,0.077-0.336,0.189-0.49,0.331c-0.231,0.039-0.406-0.244-0.479-1.348c-0.004-0.059-0.054-0.086-0.1-0.082l-0.096-0.674
	c0.722,0.335,2.015,0.526,2.446-0.34c0.089-0.18,0.251-1.057,0.36-1.055c0.663,0.012,1.289-0.285,1.821-0.645
	c0.852-0.576,1.313-1.872,1.105-2.862c-0.128-0.609-0.336-1.24-0.786-1.698c-0.654-0.666,0.251-0.75,0.809-1.365
	c1.679-1.845,0.469-4.782-1.877-5.123c-0.142-0.02-1.066,0.068-1.055,0.018c0.097-0.452,0.186-0.912-0.064-1.341
	c-0.686-1.172-2.18,0.205-1.596-1.434c0.011-0.031-0.018-0.054-0.046-0.057v-0.689c0.025,0,0.048,0.003,0.076-0.003
	c2.246-0.506,3.972-3.295,1.544-4.308c0.994-1.017,1.42-2.332,0.071-3.019c1.574-1.961-0.771-3.609-2.878-3.92
	c1.312-1.632,1.979-3.797,0.438-5.602c-0.845-0.989-1.849-1.602-3.06-2.056c-0.962-0.36-3.474,0.102-3.584-0.804
	c-0.562-4.574-6.759-5.301-9.107-1.894c-0.849-0.988-2.122-1.671-3.343-0.724c-0.892,0.692-1.343,1.545-1.591,2.636
	c-0.025,0.113-1.626,0.27-1.937,0.429c-0.607,0.311-1.068,1.315-1.062,1.95c0.003,0.496-1.637,0.392-1.989,0.811
	c-0.24,0.286-0.391,1.459-0.661,1.43c-0.264-0.028-1.012,0.032-1.243,0.204c-0.336,0.251-0.824,0.221-1.319,0.108
	c-0.366-0.124-0.733-0.232-1.085-0.317c-0.118-0.035-0.229-0.067-0.327-0.088c-0.006-0.001-0.001,0.005-0.003,0.01l0,0l-1.747-1.048
	c2.771-1.301,4.155-4.335,1.676-6.464c1.596-1.347,3.174-3.98,1.481-5.809c-0.338-0.365-0.704-0.703-1.172-0.895
	c-1.074-0.44,0.379-1.849,0.727-2.674c0.56-1.322,0.206-2.605-0.773-3.58c-0.908-0.904-2.638-1.048-3.816-0.801
	c-0.876,0.184-1.097,0.561-1.053-0.427c0.026-0.57,0.038-1.197-0.218-1.729c-1.078-2.24-3.799-1.965-5.656-0.908
	c-0.511,0.291-0.935,0.719-1.32,1.154c-0.296,0.334-1.716-0.739-2.061-0.906c-0.767-0.373-1.557-0.467-2.286,0.005
	c-0.682,0.441-1.054,2.783-1.671,2.759c-1.166-0.045-1.854,0.473-2.104,1.616c-0.166,0.758,0.151,0.824-0.905,0.763
	c-0.364-0.021-2.156,0.58-2.279,0.314c-0.325-0.707-1.429-0.85-2.025-0.45c-0.421,0.282-0.668,0.536-0.936,0.967
	c-0.189,0.305-1.129,0.12-1.45,0.166c-0.233,0.034-0.57,0.316-0.635,0.549c-0.229,0.833-0.489,1.064-1.274,1.24
	c-0.686-0.633-1.907-0.741-3.035-0.213c0.917-0.429,0.772-2.666,0.553-3.468c-0.234-0.857-0.986-1.389-1.781-1.654
	c-1.045-0.347-2.2,0.123-3.074,0.668c-0.576,0.359-1.023,0.901-1.432,1.429c-0.315,0.407-1.126-1.22-1.309-1.493
	c-1.737-2.599-4.704-1.778-6.22,0.582c-0.305,0.474-0.562,1.168-0.606,1.72c0.006-0.071-1.697-0.554-1.798-0.562
	c-1.461-0.12-2.652,0.336-3.744,1.305c-1.074,0.953-1.439,2.413-1.308,3.785c0.123,1.299-1.404,0.987-2.311,1.867
	c-0.614,0.596-0.73,1.754-0.356,2.498c0.06,0.119,0.784,1.424,0.965,1.384c-0.442,0.098-0.741,0.476-0.977,0.824
	c-0.478,0.702,0.13,1.334,0.711,1.612c-0.351-0.169-1.338,0.429-1.594,1.141c-1.023-0.114-2.149,0.323-2.82,1.225
	c-0.292,0.392-0.117,1.094-0.801,1.042c-0.993-0.075-1.828,0.004-2.767,0.356c-1.278,0.477-2.063,1.653-2.302,2.943
	c-0.097,0.525,0.019,1.043,0.134,1.549c0.063,0.274,0.848,1.837,0.847,1.837c-1.113,0.188-1.835,1.065-2.05,2.119
	c-0.447,2.189,1.543,4.186,3.604,4.346c-0.673,1.047-0.646,2.136,0.568,2.482c-0.512,0.511-1.025,1.255-0.519,1.903
	c-0.001-0.001-0.162,0.309-0.329,0.68c-0.268,0.199-0.364,0.497-0.337,0.904c-0.003,0.015-0.01,0.033-0.013,0.047
	c-0.589,0.029-1.202,0.209-1.772,0.563c-0.682,0.424-0.318,0.477-0.955-0.027c-0.264-0.209-0.65-0.349-0.979-0.386
	c-1.369-0.155-2.639,0.394-3.752,1.151c-1.595,1.083-3.11,3.611-1.053,5.072c-0.396-0.281-1.479,0.894-1.738,1.162
	c-0.46,0.475-0.557,1.075-0.585,1.698c-0.032,0.719,0.784,0.829-0.07,0.763c-0.807-0.063-1.622,0.095-2.392,0.317
	c-4.6,1.327-8.861,9.063-5.32,13.235c0.837,0.986,1.892,1.523,3.143,1.806c0.039,0.009,0.217,0.955,0.298,1.104
	c0.205,0.374,0.948,0.579,1.304,0.561c0.884-0.046,0.169,0.225-0.088,0.942c-0.218,0.607-0.093,1.284,0.079,1.88
	c0.315,1.089,1.569,2.14,2.719,2.168c0.659,0.016,1.177-0.121,1.758-0.43c0.893-0.477,0.196-0.372,0.882,0.101
	c0.796,0.549,1.5,0.241,1.943-0.4c0.253,0.853,0.916,1.317,1.782,1.385c-0.308,0.356-0.42,0.885-0.384,1.381
	c-0.504,0.027-1.034,0.206-1.547,0.511c-0.81,0.48-0.54,0.999-1.281,0.208c-0.521-0.557-1.402-0.977-2.164-1.015
	c-1.752-0.088-3.19,0.751-4.164,2.181c-0.438,0.643-0.573,1.428-0.598,2.187c-0.003,0.079,0.138,1.056,0.102,1.047
	c-0.466-0.126-0.971-0.093-1.443-0.053c-3.394,0.292-5.31,4.667-3.219,7.274c0.637,0.795-0.006,0.405-0.357,1.181
	c-0.228,0.505-0.33,1.042-0.06,1.567c0.656,1.275,2.02,2.138,3.42,1.907c-1.471,3.759,3.163,6.988,6.224,4.41
	c0.528,1.489,2.328,2.616,3.568,0.951c0.903-1.214,0.478-0.213,1.889-0.231c0.901-0.012,1.072-0.927,0.978-1.619
	c0.541,0.217,1.218,0.296,1.753,0.289c-0.354,0.701-0.526,1.698,0.381,1.984c0.767,0.241,0.419,0.268,0.21,1.111
	c-0.194,0.781-0.053,1.613,0.145,2.374c0.327,1.254,1.297,2.285,2.621,2.308c0.215,0.004,1.633-0.739,1.74-0.572
	c0.313,0.483,0.977,0.914,1.514,1.091c1.586,0.522,3.179,0.371,4.492-0.695c1.134-0.921,2.217-0.223,2.854-1.973
	c0.137-0.376,1.43-0.133,1.796-0.228c0.754-0.197,1.344-0.496,1.897-1.007c4.148-0.034,9.094,0.275,9.094,0.275
	s4.767,7.801,5.417,15.169c0.022,0.241,0.037,0.484,0.049,0.73c0,0.004,0,0.008,0,0.012c0.004,0.079,0.005,0.159,0.007,0.238
	c0.006,0.164,0.012,0.328,0.014,0.493c0.001,0.072,0,0.145,0,0.217c0,0.032,0,0.064,0,0.096c-0.001,0.146-0.001,0.291-0.004,0.438
	c-0.002,0.107-0.006,0.215-0.01,0.323c-0.005,0.145-0.01,0.291-0.018,0.437c0,0.004-0.001,0.009-0.001,0.013
	c-0.006,0.109-0.013,0.218-0.019,0.327c-0.009,0.14-0.019,0.28-0.03,0.421c-0.009,0.113-0.019,0.226-0.029,0.339
	c-0.013,0.146-0.028,0.291-0.043,0.436c-0.011,0.107-0.023,0.214-0.035,0.321c-0.017,0.151-0.036,0.302-0.056,0.454
	c-0.005,0.036-0.009,0.072-0.014,0.108c-0.009,0.068-0.017,0.136-0.027,0.204c-0.022,0.158-0.045,0.315-0.069,0.472
	c-0.002,0.016-0.005,0.032-0.007,0.048c-0.012,0.079-0.023,0.158-0.036,0.236c-0.028,0.174-0.057,0.346-0.087,0.518
	c-0.007,0.041-0.014,0.082-0.021,0.123c-0.006,0.033-0.011,0.067-0.017,0.1c-0.038,0.213-0.078,0.424-0.119,0.635
	c-0.002,0.009-0.003,0.018-0.005,0.027c-0.005,0.026-0.01,0.052-0.015,0.078c-0.071,0.359-0.146,0.713-0.223,1.062
	c-0.007,0.033-0.015,0.066-0.022,0.099c-0.079,0.352-0.16,0.7-0.244,1.04c0,0.003-0.001,0.006-0.002,0.008
	c0,0.001-0.001,0.003-0.001,0.004c-0.057,0.232-0.115,0.459-0.174,0.683c-0.003,0.012-0.006,0.024-0.009,0.035
	c-0.056,0.215-0.113,0.426-0.17,0.634c-0.002,0.007-0.004,0.013-0.005,0.02c-0.002,0.006-0.003,0.011-0.005,0.017
	c-0.056,0.204-0.112,0.403-0.168,0.599c-0.004,0.013-0.007,0.026-0.011,0.039l0,0l0,0c-0.819,2.844-1.626,4.819-1.626,4.819v8.235
	c3.034,2.817,5.2,2.167,9.751,3.034c4.55,0.867,14.952,0.867,15.819,0.867s20.153-6.934,10.618-8.018
	c-0.467-0.053-0.929-0.14-1.39-0.244c-4.395-0.99-8.487-4.189-11.636-7.701c-0.002-0.002-0.004-0.004-0.005-0.006
	c-0.221-0.247-0.438-0.495-0.649-0.744c-0.005-0.006-0.01-0.012-0.015-0.018c-0.208-0.245-0.412-0.492-0.61-0.738
	c-0.016-0.02-0.032-0.04-0.048-0.059c-0.162-0.202-0.32-0.404-0.475-0.605c-0.005-0.006-0.009-0.012-0.014-0.018
	c-0.029-0.038-0.058-0.075-0.087-0.113c-0.133-0.175-0.265-0.35-0.392-0.525c-0.042-0.057-0.084-0.114-0.126-0.172
	c-0.117-0.161-0.231-0.322-0.344-0.483c-0.047-0.067-0.094-0.134-0.14-0.201c-0.108-0.157-0.214-0.312-0.317-0.467
	c-0.046-0.068-0.092-0.137-0.136-0.206c-0.095-0.145-0.188-0.288-0.279-0.431c-0.024-0.038-0.048-0.076-0.072-0.114
	c-0.028-0.044-0.056-0.089-0.083-0.133c-0.086-0.138-0.17-0.274-0.252-0.41c-0.053-0.089-0.105-0.177-0.157-0.265
	c-0.071-0.12-0.141-0.24-0.208-0.358c-0.061-0.107-0.119-0.213-0.177-0.319c-0.056-0.102-0.112-0.203-0.165-0.303
	c-0.054-0.101-0.105-0.201-0.156-0.3c-0.05-0.096-0.1-0.193-0.147-0.288c-0.057-0.115-0.109-0.226-0.162-0.338
	c-0.037-0.077-0.073-0.154-0.108-0.229c-0.055-0.122-0.106-0.239-0.156-0.357c-0.028-0.065-0.057-0.13-0.083-0.192
	c-0.024-0.058-0.043-0.112-0.066-0.169c-0.017-0.045-0.036-0.09-0.052-0.135c-0.027-0.069-0.056-0.14-0.081-0.208
	c-0.048-0.132-0.089-0.257-0.128-0.381c-0.011-0.032-0.022-0.064-0.032-0.094c-0.048-0.155-0.089-0.304-0.122-0.446
	c-1.083-4.55-1.517-14.085,0.216-15.819c1.733-1.733,2.6-5.851,2.6-5.851c5.201-2.167,11.268-5.634,11.268-5.634
	c7.853-0.885,13.837-2.503,17.82-3.876c-0.259,0.92-0.111,1.962,0.186,2.845c0.498,1.48,1.767,1.857,3.059,1.513
	c-0.056,1.141,0.336,2.263,1.605,2.616c0.775,0.215,1.465,0.218,2.25,0.055c0.857-0.179,0.679,0.65,1.206,1.383
	c0.835,1.16,2.357,1.405,3.587,0.856c1.085-0.484,0.748,0.021,1.725,0.556c0.789,0.433,1.449,0.529,2.315,0.241
	c0.437-0.146,0.917-1.011,1.46-0.689c0.639,0.379,1.107,0.413,1.818,0.211c0.655-0.186,1.064-0.83,1.326-1.398
	c0.092-0.2,1.866,0.422,2.229,0.448c3.678,0.251,4.818-4.867,3.478-7.529c3.361-0.382,5.055-3.072,2.69-5.734
	C126.492,83.502,127.453,82.49,127.34,80.952z M66.051,94.616c-0.129-0.181-0.193-0.41-0.212-0.669
	c-0.005-0.065-0.001-0.135,0-0.204c0.001-0.067,0.001-0.133,0.007-0.203c0.007-0.075,0.019-0.153,0.031-0.231
	c0.011-0.07,0.022-0.141,0.037-0.214c0.017-0.082,0.037-0.165,0.059-0.249c0.019-0.073,0.039-0.147,0.062-0.222
	c0.026-0.087,0.053-0.174,0.083-0.263c0.025-0.074,0.052-0.149,0.08-0.224c0.033-0.091,0.067-0.182,0.103-0.273
	c0.029-0.072,0.06-0.145,0.091-0.218c0.04-0.094,0.079-0.187,0.12-0.281c0.03-0.067,0.062-0.132,0.093-0.198
	c0.112-0.239,0.228-0.474,0.346-0.701c0.006-0.011,0.011-0.023,0.017-0.033c0.049-0.094,0.099-0.184,0.148-0.275
	c0.033-0.061,0.066-0.123,0.099-0.182c0.046-0.082,0.09-0.159,0.134-0.237c0.035-0.062,0.071-0.124,0.105-0.183
	c0.042-0.072,0.083-0.141,0.123-0.209c0.033-0.056,0.067-0.112,0.098-0.164c0.038-0.062,0.075-0.123,0.11-0.179
	c0.03-0.049,0.06-0.096,0.087-0.141c0.03-0.049,0.061-0.097,0.088-0.139c0.028-0.044,0.054-0.085,0.078-0.122
	c0.02-0.03,0.041-0.064,0.058-0.089c0.024-0.037,0.043-0.066,0.06-0.092c0.009-0.014,0.023-0.035,0.03-0.045
	c0.016-0.024,0.03-0.045,0.03-0.045c2.698-2.428,6.824-6.537,9.555-9.292l1.085-0.145c-0.054,0.989-0.293,1.951,0.078,2.901
	c0.285,0.729,1.034,0.348,0.586,1.248c-0.736,1.477,0.335,3.258,1.851,3.527c0.885,0.157,1.14-0.41,1.885,0.357
	c0.043,0.044,0.093,0.075,0.141,0.11C75.833,92.295,66.905,95.812,66.051,94.616z M59.116,96.349
	c-1.517-0.216-0.866-10.401-0.866-10.401c0.727-1.293,1.545-3.37,2.285-5.467c0.893,0.102,2.022-0.045,2.64,0.166
	c0.845,0.288,1.416,0.614,2.289,0.318c0.742-0.251,1.017-0.72,1.928-0.635c0.85,0.08,2.711-1.502,2.438-2.206
	c0.057,0.145,0.126,0.3,0.203,0.451C66.544,87.918,60.458,96.541,59.116,96.349z M56.265,76.772c0.206-0.103,0.406-0.22,0.596-0.371
	c-0.059,0.931,0.267,1.977,1.239,2.244c0.273,0.075,0.959-0.081,0.957-0.055c-0.025,0.583,0.005,1.018,0.396,1.457
	c-0.969,2.558-1.854,4.601-1.854,4.601C57.599,82.644,56.876,79.267,56.265,76.772z M52.228,78.665
	c0.873-0.777-0.462-1.703,0.67-1.567c0.319,0.038,0.633,0.066,0.942,0.081c0.19,3.297,0.075,7.685,0.075,7.685
	c-1.431-0.881-2.638-3.384-3.48-5.634C51.003,79.084,51.747,79.094,52.228,78.665z M72.648,79.427
	c0.134,0.53,0.602,0.777,1.057,0.946c0.461,0.171,1.136-0.615,1.47-0.386c0.08,0.055,0.157,0.091,0.234,0.13
	c-3.183,3.069-6.975,6.263-6.975,6.263c1.15-1.38,2.361-4.468,3.244-7.063C72.153,79.326,72.626,79.338,72.648,79.427z
	 M38.515,95.58c1.284-0.837,2.732-1.483,2.229-3.311c1.627,0.359,1.838-1.416,1.226-2.747c0.484,0.029,0.957,0.015,1.412-0.046
	c0.002,0.006,0.004,0.012,0.005,0.019c0.027,0.095,0.055,0.189,0.082,0.285c0.002,0.005,0.003,0.01,0.004,0.016
	c0.029,0.101,0.058,0.201,0.087,0.303c0.007,0.026,0.015,0.052,0.022,0.078c0.039,0.139,0.078,0.279,0.117,0.42
	c0.023,0.083,0.045,0.166,0.068,0.249c0.024,0.086,0.047,0.173,0.07,0.259c0.025,0.093,0.05,0.186,0.074,0.279
	c0.017,0.065,0.034,0.131,0.051,0.196c0.003,0.011,0.005,0.021,0.008,0.032c0.033,0.126,0.065,0.251,0.097,0.376
	c0.018,0.072,0.036,0.144,0.054,0.217c0.028,0.113,0.056,0.226,0.083,0.338c0.017,0.071,0.034,0.142,0.051,0.214
	c0.025,0.107,0.051,0.214,0.075,0.32c0.019,0.083,0.038,0.165,0.056,0.248c0.025,0.11,0.049,0.221,0.073,0.33
	c0.017,0.077,0.033,0.154,0.049,0.23c0.02,0.095,0.04,0.191,0.058,0.285c0.012,0.062,0.023,0.122,0.035,0.182
	c0.023,0.121,0.046,0.24,0.067,0.358c0.002,0.013,0.004,0.025,0.006,0.037c0.008,0.044,0.015,0.087,0.022,0.13
	c0.018,0.107,0.036,0.212,0.052,0.315c0.008,0.05,0.014,0.097,0.021,0.146c0.016,0.11,0.032,0.219,0.046,0.324
	c0.005,0.042,0.009,0.082,0.014,0.124c0.014,0.113,0.026,0.225,0.036,0.332c0.003,0.028,0.004,0.054,0.006,0.081
	c0.009,0.111,0.017,0.221,0.022,0.325c0.001,0.024,0.001,0.045,0.002,0.068c0.004,0.105,0.006,0.207,0.005,0.302v0.001
	c0,0.008-0.001,0.015-0.001,0.024c-0.003,0.125-0.01,0.24-0.022,0.348c-0.003,0.025-0.007,0.048-0.01,0.073
	c-0.012,0.087-0.028,0.167-0.048,0.239c-0.006,0.023-0.013,0.046-0.02,0.068c-0.022,0.069-0.049,0.13-0.08,0.183
	c-0.008,0.014-0.015,0.03-0.024,0.043c-0.041,0.062-0.088,0.113-0.142,0.148l0,0c-0.052,0.033-0.11,0.056-0.175,0.064
	C43.243,98.21,40.557,96.787,38.515,95.58z M45.104,88.909c0.694-0.397,1.276-0.994,1.665-1.881c0.686-1.562,0.112-3.139-1.181-3.96
	c0.948-0.596,1.195-1.565-0.039-2.435c0.143,0.101,0.587-0.864,0.578-1.169c-0.007-0.238-0.134-0.424-0.313-0.571l1.539,0.616
	c-0.041,0.073-0.039,0.165,0.048,0.24c0.592,0.518,1.14,0.673,1.669,0.435c1.522,3.487,4.195,7.497,4.195,7.497
	s-0.216,16.252-1.733,16.686c-0.053,0.015-0.109,0.02-0.166,0.019c-0.004,0-0.007-0.001-0.011-0.001h-0.001
	c-0.056-0.004-0.114-0.013-0.173-0.03l0,0c-1.615-0.455-4.416-6.056-4.416-6.056C47.139,95.926,46.074,91.897,45.104,88.909z
	 M36.488,99.603c-0.136-0.784-0.639-1.521,0.13-2.032c0.026-0.017,0.048-0.053,0.034-0.085c-0.22-0.536-0.088-0.335-0.462-0.746
	c-0.018-0.02-0.039-0.019-0.057-0.013l-0.06-0.244c2.649,1.156,6.576,2.9,6.141,2.9c-0.018,0-0.045,0.001-0.077,0.001
	c-0.002,0-0.005,0-0.007,0C41.561,99.396,38.98,99.5,36.488,99.603z M80.005,90.709c-0.007,0.001-0.013,0.001-0.019,0.002
	c-0.039,0.003-0.067,0.005-0.067,0.005c1.132-0.609,3.068-2.024,4.98-3.497c0.219-0.042,0.427-0.095,0.607-0.143
	c1.405-0.379,2.05-0.475,3.447,0.075c0.742,0.292,1.406,0.51,2.117,0.072c0.36-0.222,0.333-0.965,0.782-0.823
	c0.768,0.245,1.211,0.042,1.637-0.632c0.118-0.187,0.17-0.31,0.188-0.391c0.069,0.06,0.222,0.124,0.542,0.151
	c1.35,0.115,0.862-0.415,1.37,0.711c0.31,0.686,0.661,0.914,0.767,1.304c-4.566,1.547-9.582,2.382-12.858,2.8l0,0
	C81.635,90.58,80.336,90.684,80.005,90.709z"/>
</svg>
