<?xml version="1.0" encoding="utf-8"?>
<!-- Generator: Adobe Illustrator 17.0.0, SVG Export Plug-In . SVG Version: 6.00 Build 0)  -->
<!DOCTYPE svg PUBLIC "-//W3C//DTD SVG 1.1 Basic//EN" "http://www.w3.org/Graphics/SVG/1.1/DTD/svg11-basic.dtd">
<svg version="1.1" baseProfile="basic" id="Слой_1"
	 xmlns="http://www.w3.org/2000/svg" xmlns:xlink="http://www.w3.org/1999/xlink" x="0px" y="0px" width="131.673px"
	 height="163.414px" viewBox="0 0 131.673 163.414" xml:space="preserve">
<path fill="#42BCAA" d="M131.673,123.185c0,0-16.999,0.722-33.622-22.576c-2.631-3.687-4.864-7.13-6.76-10.316
	c1.389-0.177,2.87-0.402,4.384-0.689c-4.567-4.837-5.855-9.905-5.855-9.905c4.464,5.084,8.396,7.704,10.423,8.848
	c0.597-0.167,1.192-0.345,1.778-0.535c8.826-2.871,6.137-9.304,6.137-9.304c-0.049-0.08-0.105-0.159-0.167-0.238
	c-0.828-2.028-1.548-2.068-12.604-5.795c-2.211-0.745-4.073-1.738-5.64-2.858c-0.185-0.132-0.364-0.266-0.541-0.402
	c-0.038-0.029-0.075-0.058-0.113-0.086c-0.173-0.135-0.342-0.271-0.508-0.408c-0.032-0.026-0.062-0.053-0.094-0.079
	c-0.155-0.13-0.307-0.262-0.455-0.394c-0.019-0.017-0.038-0.033-0.057-0.05c-0.158-0.143-0.312-0.286-0.462-0.431
	c-0.033-0.031-0.065-0.063-0.098-0.095c-0.148-0.144-0.294-0.289-0.435-0.435c-0.018-0.019-0.036-0.038-0.054-0.057
	c-0.131-0.137-0.259-0.274-0.384-0.412c-0.023-0.025-0.047-0.051-0.07-0.076c-0.132-0.147-0.26-0.294-0.385-0.442
	c-0.026-0.03-0.051-0.061-0.077-0.091c-0.255-0.304-0.495-0.609-0.721-0.913c-0.022-0.03-0.044-0.059-0.066-0.089
	c-0.109-0.148-0.215-0.295-0.318-0.443c-0.018-0.025-0.035-0.051-0.053-0.076c-0.097-0.141-0.192-0.282-0.284-0.422
	c-0.009-0.014-0.019-0.028-0.028-0.043c-0.097-0.149-0.19-0.296-0.281-0.443c-0.018-0.029-0.036-0.058-0.054-0.087
	c-0.089-0.146-0.176-0.291-0.259-0.435c-0.009-0.015-0.017-0.03-0.025-0.044c-0.079-0.137-0.155-0.272-0.228-0.407
	c-0.012-0.022-0.024-0.044-0.036-0.065c-0.076-0.14-0.149-0.279-0.219-0.416c-0.013-0.026-0.027-0.052-0.04-0.078
	c-0.143-0.28-0.274-0.553-0.395-0.818c-0.011-0.023-0.021-0.047-0.032-0.07c0-0.001-0.001-0.001-0.001-0.002
	c1.945,0.491,3.71,0.608,5.164,0.556c-1.518-1.132-2.736-2.369-3.709-3.574l0,0c-0.308-0.382-0.592-0.761-0.853-1.131
	c-0.002-0.003-0.005-0.007-0.007-0.01c-0.084-0.119-0.165-0.238-0.245-0.356c-0.238-0.354-0.455-0.7-0.652-1.033
	c0.236-0.007,0.465-0.012,0.689-0.015c0.407,0.512,0.824,0.988,1.242,1.432l0.001,0.001c0.106,0.113,0.213,0.223,0.319,0.332
	c0.006,0.006,0.011,0.011,0.017,0.017c0.101,0.103,0.203,0.205,0.304,0.304c0.011,0.01,0.021,0.021,0.032,0.031
	c0.098,0.096,0.197,0.191,0.295,0.283c0.006,0.006,0.012,0.012,0.018,0.018l0,0c1.955,1.844,3.811,2.97,4.756,3.483
	c1.184-0.197,1.873-0.448,1.873-0.448c-2.171-0.938-3.982-2.197-5.475-3.548c-0.164-0.148-0.324-0.298-0.48-0.448
	c-0.002-0.002-0.004-0.003-0.005-0.005c-0.157-0.151-0.311-0.304-0.461-0.456l0,0c-0.32-0.327-0.623-0.655-0.909-0.983
	c0.279,0.009,0.547,0.02,0.802,0.034c0.284,0.293,0.56,0.563,0.828,0.815c0,0,0,0-0.001,0c0.038,0.036,0.075,0.068,0.112,0.103
	c0.084,0.078,0.168,0.155,0.25,0.229c0.042,0.038,0.083,0.073,0.124,0.109c0.083,0.074,0.167,0.147,0.248,0.217
	c0.007,0.006,0.014,0.012,0.02,0.018l0,0c2.02,1.727,3.406,2.251,3.406,2.251c4.666-0.875,7.71-6.079,7.71-6.079
	s-10.005-2.22-17.473-10.763c-1.104-1.263-2.02-2.599-2.782-3.94c-0.102-0.179-0.201-0.358-0.297-0.537
	c-0.003-0.005-0.006-0.011-0.009-0.016c-0.198-0.369-0.384-0.737-0.56-1.103c-0.004-0.009-0.009-0.018-0.013-0.027
	c-0.654-1.369-1.157-2.712-1.546-3.956c0.873-0.013,1.642-0.076,2.318-0.177c-0.407-1.777-1.419-3.482-1.419-3.482
	c1.216,0.795,2.18,2.135,2.807,3.193c3.174-0.877,3.503-2.675,3.503-2.675l-0.067-0.229c0.066-3.029-3.442-1.599-7.726-7.043
	c-4.504-5.723-2.218-15.084-1.67-18.594c0.548-3.51,1.619-5.12-1.317-3.903C69.2,1.62,68.671,3.434,66.125,15.95
	C63.58,28.466,53.397,32.064,53.397,32.064c0.953,0.502,2.264,0.84,3.76,0.908c1.587,0.535,3.638,0.712,5.919,0.724
	c-0.829,2.077-1.964,4.249-3.516,6.264c-5.455,7.083-19.609,11.354-20.916,11.946c-1.307,0.592-1.19,2.339-1.19,2.339l0.249-0.19
	c0.927,2.499,4.121,4.624,4.121,4.624c0.106,0.078,0.214,0.153,0.324,0.226c4.176-1.269,7.453-5.66,7.453-5.66
	c-0.136,2.753-1.641,5.702-2.687,7.443c1.311,0.23,2.733,0.329,4.239,0.324c-0.11,0.153-0.22,0.307-0.329,0.457
	c-0.034,0.047-0.068,0.092-0.102,0.139c-0.142,0.193-0.284,0.384-0.426,0.572c-0.043,0.057-0.086,0.114-0.129,0.17
	c-0.168,0.221-0.337,0.44-0.505,0.654c-14.638,18.651-27.606,9.461-27.606,9.461s-1.1,6.182,2.037,11.742
	c1.686-0.204,3.305-0.549,4.846-0.994l0,0c0.001,0,0.002-0.001,0.003-0.001c0.219-0.063,0.436-0.128,0.651-0.196
	c0.05-0.016,0.101-0.031,0.151-0.047c0.192-0.061,0.382-0.123,0.571-0.186c0.03-0.01,0.06-0.019,0.09-0.029l0,0
	c0.025-0.008,0.05-0.017,0.075-0.026c0.775,0.665,1.832,1.277,3.115,1.839c-0.144,0.09-0.286,0.179-0.427,0.266
	c-0.68,0.418-1.331,0.795-1.946,1.134c-0.024,0.013-0.049,0.027-0.073,0.04c-0.114,0.063-0.225,0.123-0.337,0.182
	c-0.063,0.034-0.126,0.068-0.188,0.101c-0.093,0.049-0.184,0.098-0.275,0.145c-0.08,0.042-0.159,0.083-0.237,0.123
	c-0.076,0.039-0.152,0.078-0.226,0.116c-0.093,0.047-0.184,0.093-0.275,0.138c-0.06,0.03-0.121,0.061-0.179,0.09
	c-0.951,0.47-1.746,0.82-2.325,1.06c2.511,2.251,6.191,4.025,11.563,4.66c-2.881,3.112-6.651,6.277-11.274,8.302
	c-0.001,0.001-0.003,0.001-0.004,0.002c-0.187,0.082-0.376,0.162-0.566,0.24c-0.005,0.002-0.009,0.004-0.014,0.006
	c-0.184,0.075-0.369,0.149-0.555,0.22c-0.022,0.009-0.044,0.018-0.066,0.026c-12.661,4.833-22.846,9.67-25.841,15.976
	c0,0,0.087-0.132,0.256-0.355c-1.355,2.711-0.302,6.148,1.829,9.093c5.913-7.389,15.566-10.827,15.566-10.827
	c-5.879,4.16-10.932,11.352-12.665,13.973c0.692,0.594,1.419,1.129,2.159,1.583c3.631,2.227,7.792,3.574,12.15,4.258
	c3.043-8.314,9.927-16.617,9.927-16.617c-4.038,8.376-5.246,14.589-5.592,17.084c3.542,0.217,7.14,0.058,10.624-0.367
	c2.546-3.26,5.438-8.126,5.438-8.126l-3.14,7.806c0.822-0.129,1.635-0.273,2.438-0.429c-0.626,1.187-1.284,2.336-1.969,3.446
	c-1.32-0.042-3.025,0.649-3.025,0.649l0.345,0.153c0.034,0.152,0.267,1.033,1.159,1.54c-0.434,0.636-0.876,1.258-1.325,1.866
	c-0.768-0.242-2.307-0.579-3.822-0.052c0,0,0.163,0.191,0.419,0.472c-0.04,0.485-0.007,1.657,1.06,2.565
	c-0.839,1.007-1.691,1.971-2.55,2.891c-1.144-0.121-3.875-0.35-5.054,0.051c0,0,0.149,0.189,0.416,0.471
	c-0.051,0.52-0.029,1.839,1.3,2.817c-8.8,8.244-17.259,12.075-17.259,12.075l94.147-0.78c-4.411-3.291-8.06-7.058-11.08-11.033
	c-0.425-0.56-0.838-1.123-1.239-1.69c-0.013-0.019-0.027-0.037-0.04-0.056c-0.199-0.282-0.395-0.565-0.587-0.848
	c-0.012-0.017-0.024-0.035-0.035-0.052c-0.39-0.574-0.767-1.152-1.133-1.731c-0.012-0.019-0.024-0.039-0.037-0.058
	c-0.182-0.289-0.361-0.578-0.537-0.867c-0.006-0.011-0.013-0.021-0.019-0.032c-0.357-0.587-0.702-1.177-1.035-1.767
	c-0.01-0.018-0.02-0.035-0.03-0.053c-0.166-0.295-0.33-0.59-0.491-0.885c-0.001-0.001-0.001-0.003-0.002-0.004
	c-0.326-0.599-0.64-1.198-0.943-1.797c-0.008-0.015-0.016-0.031-0.023-0.046c-0.383-0.757-0.746-1.514-1.095-2.269
	c4.046,0.769,8.224,1.12,12.501,0.864c-0.524-6.56-2.578-13.475-4.854-19.412c0.749-0.056,1.503-0.1,2.262-0.133
	c2.296,4.356,3.846,8.02,4.892,11.012c0.161,0.462,0.311,0.908,0.449,1.338c0.002,0.005,0.003,0.01,0.005,0.015
	c0.069,0.216,0.136,0.427,0.2,0.635c0.002,0.008,0.005,0.015,0.007,0.023c0.062,0.203,0.122,0.402,0.179,0.597
	c0.002,0.005,0.003,0.011,0.005,0.016c0.055,0.19,0.108,0.375,0.159,0.557c0.008,0.03,0.016,0.059,0.024,0.088
	c0.046,0.166,0.09,0.33,0.133,0.49c0.004,0.014,0.007,0.027,0.011,0.041c0.043,0.161,0.083,0.318,0.122,0.474
	c0.011,0.045,0.023,0.09,0.034,0.135c0.035,0.142,0.069,0.281,0.101,0.418c0.313,1.326,0.492,2.404,0.594,3.237
	c4.643-0.731,9.387-2.229,14.193-4.725c-1.183-0.942-2.335-1.95-3.451-3c-0.357-0.336-0.71-0.676-1.059-1.019
	c-0.006-0.006-0.011-0.011-0.017-0.017c-0.352-0.347-0.7-0.697-1.044-1.05l0,0c-2.96-3.04-5.61-6.293-7.823-9.271
	c0.809,0.03,1.612,0.067,2.406,0.112c3.678,3.774,6.814,6.467,9.345,8.377l0,0c0.002,0.001,0.003,0.002,0.005,0.004
	c0.963,0.727,1.839,1.34,2.623,1.856c0.003,0.002,0.007,0.004,0.01,0.007l0,0c1.197,0.787,2.182,1.348,2.94,1.74
	c1.908-1.205,3.823-2.574,5.744-4.123c-1.32-0.474-2.6-1.021-3.837-1.62c-0.447-0.216-0.888-0.44-1.323-0.669
	c-2.77-1.461-5.297-3.165-7.519-4.887c1.378,0.155,2.674,0.319,3.862,0.482c2.115,1.126,4.062,1.975,5.786,2.614l0,0
	c0.021,0.008,0.042,0.015,0.063,0.023c0.112,0.041,0.223,0.082,0.333,0.121c0.042,0.015,0.083,0.03,0.124,0.044
	c0.1,0.036,0.199,0.07,0.297,0.104c0.037,0.013,0.075,0.026,0.112,0.039c0.265,0.091,0.523,0.177,0.776,0.258
	c0.035,0.011,0.07,0.022,0.105,0.033c0.094,0.03,0.187,0.059,0.279,0.088c0.035,0.011,0.071,0.022,0.106,0.033
	c0.105,0.032,0.209,0.064,0.312,0.094c0.016,0.005,0.032,0.01,0.047,0.014c0.125,0.037,0.248,0.072,0.369,0.107
	c0.008,0.002,0.016,0.004,0.024,0.007c0.114,0.032,0.225,0.063,0.335,0.093c0.006,0.002,0.013,0.004,0.019,0.005l0,0
	c1.002,0.273,1.868,0.462,2.576,0.591C129.488,125.324,130.579,124.287,131.673,123.185z M81.983,132.259
	c-0.145-0.423-0.287-0.844-0.422-1.261c0-0.001-0.001-0.003-0.001-0.004c-0.186-0.573-0.363-1.14-0.532-1.702
	c-0.001-0.003-0.002-0.005-0.002-0.008c-0.253-0.842-0.487-1.67-0.704-2.481c-0.001-0.005-0.002-0.009-0.004-0.014
	c-0.061-0.228-0.12-0.453-0.178-0.678c0.184-1.146,0.333-2.283,0.452-3.397c0.696-0.152,1.394-0.297,2.092-0.434
	C82.705,126.116,82.391,129.504,81.983,132.259z"/>
</svg>
