<?xml version="1.0" encoding="utf-8"?>
<!-- Generator: Adobe Illustrator 17.0.0, SVG Export Plug-In . SVG Version: 6.00 Build 0)  -->
<!DOCTYPE svg PUBLIC "-//W3C//DTD SVG 1.1 Basic//EN" "http://www.w3.org/Graphics/SVG/1.1/DTD/svg11-basic.dtd">
<svg version="1.1" baseProfile="basic" id="Слой_1"
	 xmlns="http://www.w3.org/2000/svg" xmlns:xlink="http://www.w3.org/1999/xlink" x="0px" y="0px" width="192.958px"
	 height="222.979px" viewBox="0 0 192.958 222.979" xml:space="preserve">
<g>
	<path fill="#DBC4A3" stroke="#FFFFFF" stroke-width="6" stroke-miterlimit="10" d="M186.029,48.114
		c-0.002-0.016,0-0.031-0.002-0.047c-0.326-2.276-13.33-18.861-22.112-25.04c-8.781-6.178-23.74-12.681-33.821-12.681
		c-0.044,0-0.089-0.002-0.133-0.002c-0.483-0.003-0.969-0.018-1.456-0.047c-0.022-0.001-0.044-0.002-0.066-0.003
		c-1.629-0.1-3.271-0.323-4.868-0.523c-0.513-0.064-1.024-0.14-1.537-0.21c-3.774-0.55-7.98-1.222-12.592-1.451
		c-0.135-0.008-0.269-0.012-0.404-0.019c-0.219-0.01-0.438-0.019-0.658-0.026c-0.414-0.017-0.827-0.04-1.241-0.049
		c-3.289-0.076-6.581,0.116-9.816,0.716c-0.3,0.056-0.602,0.129-0.902,0.189c-3.267,0.613-6.678,1.586-10.228,3.055
		c0,0-7.574,4.762-6.477,10.4c0.048,0.504,0.143,1.022,0.29,1.554c0.395,1.426,1.33,3.258,2.179,4.162l2.177,2.464l1.59-0.242
		l0.24,2.14l1.07,0.872l1.942-1.112c0.002,0.209-0.293,2.018-0.293,2.018s3.44,2.313,4.74,2.353
		c0.857,0.027,3.718-2.198,6.414-3.882c-0.069,0.362-0.217,1.676-0.219,2.01c0.295-0.188,2.662-1.711,4.079-1.764
		c0.032,0.162,0.027,0.32-0.007,0.473c-0.269,0.461-0.624,0.941-1.102,1.404c-0.593,0.468-1.274,0.872-1.664,1.211c0,0,0,0,0,0
		c-1.525,0.831-2.101,1.247-2.263,1.453c-0.052,0.026-0.086,0.043-0.086,0.043l0.272,2.477c0,0,1.218,2.642,4.762,3.731
		c3.544,1.089,9.528,1.995,9.528,1.995s2.535-2.01,2.421-1.893c0,0,0.528,1.789,0.158,2.623l1.607,0.702l2.458-3.381
		c0,0-0.184,3.454-0.53,4.093c0,0,1.879,0.41,3.987,1.07c-0.153,2.094-0.464,6.251-0.814,10.487
		c-0.677,0.281-1.344,0.579-1.997,0.897c-4.238,2.062-7.634,4.549-10.372,7.193c3.947,1.607,7.645,3.534,10.993,5.668
		c0.711,0.453,1.402,0.917,2.08,1.387c0.149,0.103,0.298,0.206,0.446,0.311c0.662,0.468,1.308,0.943,1.936,1.425
		c0.127,0.097,0.25,0.196,0.376,0.294c0.648,0.506,1.282,1.017,1.89,1.535c0.027,0.023,0.052,0.046,0.078,0.069
		c0.595,0.51,1.165,1.026,1.72,1.546c0.101,0.094,0.204,0.188,0.303,0.283c0.541,0.515,1.059,1.035,1.558,1.557
		c0.103,0.108,0.205,0.216,0.306,0.325c0.498,0.532,0.978,1.066,1.431,1.603c0.056,0.067,0.109,0.134,0.164,0.201
		c0.44,0.529,0.858,1.06,1.252,1.592c0.041,0.055,0.085,0.111,0.126,0.166c0.404,0.553,0.778,1.107,1.13,1.66
		c0.067,0.105,0.134,0.21,0.199,0.314c0.578,0.935,1.079,1.867,1.498,2.791c0.047,0.104,0.092,0.207,0.137,0.31
		c0.18,0.415,0.346,0.829,0.492,1.24c0.017,0.048,0.037,0.096,0.054,0.144c0.157,0.454,0.29,0.905,0.404,1.353
		c0.024,0.096,0.044,0.191,0.067,0.287c0.086,0.367,0.157,0.732,0.212,1.093c0.015,0.095,0.032,0.19,0.045,0.284
		c0.057,0.431,0.094,0.858,0.105,1.28c0.002,0.071-0.002,0.14-0.001,0.211c0.003,0.355-0.011,0.705-0.041,1.051
		c-0.009,0.108-0.019,0.217-0.031,0.325c-0.048,0.407-0.111,0.81-0.207,1.203c-0.133,2.065-0.91,4.227-1.873,6.178
		c0.06,2.515,0.096,5.247,0.113,8.101c-0.212-2.362-0.391-4.8-0.534-7.287c-1.799,3.365-3.988,5.921-3.988,5.921
		c-5.221,6.505-11.049,11.531-16.874,15.384c-0.044,0.402-0.089,0.799-0.133,1.198c-0.539-0.041-1.076-0.072-1.608-0.081
		c-6.682,4.16-13.278,6.811-18.858,8.4c0.308,1.586,0.616,3.153,1.027,4.553c0.398,1.353,1.147,4.737,1.922,9.298
		c0.082,0.484,0.165,0.987,0.247,1.496c0.028,0.174,0.056,0.34,0.084,0.517c0.101,0.638,0.202,1.296,0.302,1.969
		c0.043,0.292,0.086,0.595,0.129,0.892c0.061,0.423,0.122,0.846,0.182,1.28c0.047,0.344,0.093,0.694,0.14,1.044
		c0.054,0.405,0.107,0.813,0.159,1.226c0.047,0.373,0.093,0.749,0.139,1.127c0.049,0.409,0.097,0.822,0.144,1.238
		c0.044,0.386,0.088,0.772,0.13,1.164c0.047,0.435,0.091,0.876,0.135,1.316c0.038,0.382,0.078,0.761,0.114,1.146
		c0.053,0.564,0.102,1.135,0.15,1.706c0.021,0.243,0.044,0.483,0.063,0.727c0,0,0,0,0.001,0c0.073,0.912,0.139,1.83,0.198,2.753
		c0.737,0.37,1.252,0.612,1.455,0.706c-0.34,0.871-0.56,1.926-0.946,3.08c0,0-0.106,0.275-0.293,0.755
		c0.329,10.361-0.547,20.679-4.129,27.046c-2.924,5.199-6.919,8.256-11.202,9.585c0.512,1.979,1.919,3.628,4.638,4.588
		c6.198,2.182,11.478,2.255,15.64-7.879c1.207-2.942,2.272-6.291,3.22-9.729c6.553,4.265,18.508,6.283,25.851-1.808
		c0.792-0.873,1.482-2.061,2.084-3.501c2.732-0.503,4.773-1.601,4.773-1.601c10.984-8.018,15.283-59.411,13.372-81.574
		c-0.595-6.904-1.236-12.204-1.837-16.233c13.042-4.84,28.555-10.985,25.393-20.976c-3.453-10.915-23.081-18.088-41.273-16.665
		c0.089-1.633,0.162-3.011,0.218-4.103l0.22,0.305l1.94,0.387l0.366-1.291l1.259,1.342c0,0,5.828,0.835,9.721,1.283
		c3.89,0.448,14.239,0.691,20.085,1.125c2.691,0.198,5.36-0.145,7.977-0.778c2.016-0.487,3.992-1.423,5.523-2.88
		c0.692-0.655,1.473-1.876,1.489-2.901C186.061,48.421,186.049,48.265,186.029,48.114z"/>
	<path fill="#DBC4A3" stroke="#FFFFFF" stroke-width="6" stroke-miterlimit="10" d="M62.456,201.724
		c-2.01-3.517-1.255-9.406,0.39-15.4c0.13-0.473,0.265-0.946,0.405-1.419c0.054-0.182,0.105-0.364,0.161-0.546
		c0.148-0.487,0.303-0.972,0.458-1.456c0.075-0.232,0.148-0.465,0.224-0.696c0.017-0.05,0.034-0.1,0.051-0.15
		c0.157-0.473,0.317-0.942,0.478-1.408c0.015-0.044,0.03-0.089,0.045-0.133c0.081-0.234,0.164-0.465,0.246-0.696
		c0.137-0.387,0.275-0.771,0.414-1.15c0.082-0.225,0.165-0.451,0.247-0.673c0.028-0.076,0.056-0.151,0.085-0.227
		c0.159-0.425,0.317-0.849,0.474-1.262c0.083-0.218,0.166-0.431,0.248-0.646c0.152-0.393,0.303-0.783,0.451-1.162
		c0.078-0.198,0.155-0.396,0.232-0.59c0.158-0.4,0.314-0.793,0.465-1.172c0.061-0.154,0.125-0.314,0.185-0.464
		c0.187-0.469,0.372-0.929,0.544-1.359h0c0.016-0.039,0.033-0.083,0.049-0.122c1.662-4.154,1.709-11.107,1.359-16.917
		c-5.313-1.884-11.425-2.096-17.669,2.305c-0.032,0.022-0.061,0.044-0.092,0.067c-6.238-3.339-13.356-5.714-16.586-5.978
		c-5.661-0.464-9.419,4.611-10.815,9.556c0,0-3.426,8.051-5.032,12.385c-1.607,4.335-5.059,9.3-0.074,14.81
		c3.262,3.605,10.101,3.87,16.816,2.14c1.934,5.928,5.765,14.863,11.606,16.265c5.093,1.222,8.328-0.703,9.715-3.375
		c1.01,6.437,2.967,12.27,6.725,13.282c4.904,1.321,8.867-0.63,11.04-3.909C70.064,210.242,65.299,206.701,62.456,201.724z
		 M50.522,185.797c1.775,0.443,3.776,0.766,5.979,0.918c-0.005,2.078,0.042,4.898,0.236,7.97
		C55.205,192.294,52.761,189.047,50.522,185.797z"/>
</g>
<g>
	<path fill="#EDD7B9" d="M34.723,184.035c0,0,4.238,19.465,13.099,21.591c8.859,2.126,12.129-5.257,9.749-9.566
		c-2.378-4.308-10.154-13.487-11.861-18.757C44.001,172.035,32.703,172.606,34.723,184.035z"/>
	<path fill="#A16931" d="M24.505,160.027c0,0-3.426,8.051-5.032,12.385c-1.607,4.335-5.059,9.3-0.074,14.81
		c4.985,5.508,18.321,3.25,26.808-2.071c8.491-5.318,20.116-12.745,16.249-20.012c-3.869-7.267-21.475-14.206-27.135-14.668
		C29.66,150.006,25.901,155.081,24.505,160.027z"/>
	<path fill="#C67C32" d="M186.057,48.583c0.005-0.178-0.006-0.35-0.031-0.514c-0.325-2.276-13.33-18.861-22.112-25.04
		s-23.74-12.681-33.821-12.681c-2.161,0-4.382-0.309-6.522-0.577c-2.564-0.321-5.116-0.727-7.678-1.049
		c-2.906-0.366-5.826-0.638-8.754-0.706c-3.289-0.076-6.581,0.116-9.816,0.716c-3.71,0.688-7.494,1.719-10.918,3.334
		c-0.87,0.409-1.663,0.939-2.386,1.571c-2.986,2.607-5.206,5.998-4.013,10.293c0.395,1.426,1.33,3.258,2.179,4.162l2.177,2.464
		l1.59-0.242l0.24,2.14l1.07,0.872l1.942-1.112c0.002,0.209-0.293,2.018-0.293,2.018s3.44,2.312,4.739,2.353
		c0.857,0.027,3.718-2.198,6.414-3.882c-0.069,0.362-0.217,1.676-0.219,2.01c0.295-0.188,2.662-1.711,4.079-1.764
		c0.264,1.33-1.934,2.358-2.773,3.088c-0.935,0.812-2.349,1.496-2.349,1.496l0.272,2.477c0,0,1.218,2.642,4.762,3.731
		c3.544,1.089,9.528,1.995,9.528,1.995s2.535-2.01,2.421-1.893c0,0,0.528,1.789,0.158,2.624l1.607,0.702l2.458-3.381
		c0,0-0.184,3.454-0.53,4.093c0,0,4.561,0.993,7.447,2.384c2.883,1.394,9.483,1.666,9.483,1.666l0.352-0.933l0.939,1.299l1.94,0.387
		l0.366-1.291l1.259,1.342c0,0,5.828,0.835,9.721,1.283c3.89,0.448,14.239,0.691,20.085,1.125c2.691,0.198,5.36-0.145,7.977-0.778
		c2.016-0.487,3.992-1.423,5.523-2.88C185.259,50.83,186.041,49.608,186.057,48.583z"/>
	<path fill="#A16931" d="M86.193,11.975c0,0-11.382,7.152-4.227,14.306l2.601,2.603l5.204-0.651l-3.903,1.95l1.627,1.302
		l5.853-1.627l-4.228,2.277c0,0,3.254,2.276,4.553,2.276c1.302,0,7.825-4.772,10.731-5.527c0,0-2.47,2.261-4.334,3.808
		c0,0,2.058-1.533,4.659-1.858c0,0,0,3.252-3.577,5.204c-3.577,1.95-1.952,1.625-1.952,1.625s1.302,2.603,4.878,3.577
		c3.577,0.976,9.107,1.952,9.107,1.952s3.252-1.302,4.877-3.577c0,0-1.302,3.252-2.276,4.227l1.625,0.649l3.579-3.252
		c0,0-0.245,0.651-0.569,1.463c-0.325,0.814,0.487,2.034,0.161,2.685c0,0,4.959,1.705,7.885,3.006
		c2.928,1.302,8.456,0.976,8.456,0.976l-0.325-2.276l1.627,2.601l1.95,0.325l0.325-1.302l1.302,1.302c0,0,5.853,0.651,9.755,0.976
		c3.903,0.325,19.512,2.276,25.365,1.95c5.853-0.325,9.429-2.601,9.105-4.878c-0.325-2.276-13.33-18.861-22.112-25.04
		s-23.74-12.681-33.821-12.681S105.055,4.171,86.193,11.975z"/>
	<path fill="#EDD7B9" d="M108.626,168.814c-6.823-1.017-6.393,1.644-7.605,5.271c0,0-0.105,0.275-0.293,0.755
		c0.329,10.361-0.547,20.679-4.129,27.046c-2.924,5.199-6.919,8.256-11.202,9.585c0.512,1.979,1.919,3.628,4.639,4.588
		c6.198,2.182,11.478,2.255,15.64-7.879c4.25-10.359,6.79-25.723,8.39-32.497C114.067,175.683,115.451,169.831,108.626,168.814z"/>
	<path fill="#C67C32" d="M117.575,153.877c-7.459-1.228-14.078-2.623-19.407-3.347c0.92,5.381,1.882,12.44,2.344,19.769
		c0.961,0.482,1.556,0.752,1.556,0.752s2.466-0.016,6.464,0.845c4.003,0.865,5.628,1.813,5.628,1.813s4.316-1.324,12.849-2.061
		c14.231-1.23,17.712-7.734,17.712-7.734C147.124,160.248,136.549,157.002,117.575,153.877z"/>
	<path fill="#C67C32" d="M68.259,171.115c-12.859,1.937-28.005,6.148-28.93,9.034c0,0,7.706,7.89,23.421,6.511
		C64.281,180.962,66.651,175.132,68.259,171.115z"/>
	<path fill="#A16931" d="M134.694,136.78c-6.003-5.339-13.65-8.213-20.59-8.332c-6.682,4.16-13.278,6.811-18.858,8.4
		c0.308,1.586,0.616,3.153,1.027,4.553c0.807,2.741,3.051,13.795,4.04,26.146c13.221,2.783,21.961,2.149,26.408,2.156
		c4.635,0.006,17.231,0.657,18.784-6.551C147.061,155.945,143.793,144.867,134.694,136.78z"/>
	<path fill="#95612F" d="M68.308,170.993c1.662-4.154,1.709-11.107,1.36-16.917c-5.313-1.884-11.425-2.096-17.669,2.305
		c-13.193,9.3-14.597,18.157-14.597,18.157c-2.201,9.318,12.762,10.66,26.191,9.224C65.08,178.983,66.969,174.34,68.308,170.993z"/>
	<path fill="#EDD7B9" d="M62.456,201.724c-3.001-5.252,0.152-15.791,3.247-24.077c-3.898-1.003-8.788-0.932-9.139,5.551
		c0,0-1.281,29.918,7.698,32.335c4.904,1.321,8.867-0.63,11.04-3.909C70.064,210.242,65.299,206.701,62.456,201.724z"/>
	<path fill="#EDD7B9" d="M154.977,109.968c-1.909-22.16-4.298-27.818-4.298-27.818c-4.196-4.897-12.345,0.434-14.486,5.181
		c2.577,4.115,3.666,8.183,2.809,11.703c-0.133,2.065-0.91,4.227-1.873,6.178c0.304,12.633,0.003,30.58-0.299,43.421
		c-0.477,20.276-16.238,31.592-10.985,40.079c5.253,8.488,15.761,2.83,15.761,2.83C152.588,183.523,156.888,132.131,154.977,109.968
		z"/>
	<path fill="#A16931" d="M178.532,72.759c-4.57-14.446-37.471-22.349-57.88-12.425c-4.238,2.062-7.634,4.549-10.372,7.193
		c18.196,7.407,31.129,21.621,28.722,31.508c-0.014,0.228-0.04,0.458-0.069,0.689c0.037-0.023,0.077-0.047,0.114-0.07
		C148.647,93.609,183.103,87.202,178.532,72.759z"/>
	<g>
		<path fill="#DBC4A3" d="M137.623,117.144c-0.394-3.499-0.692-7.26-0.914-11.118c-1.799,3.365-3.988,5.92-3.988,5.92
			c-5.221,6.505-11.049,11.531-16.874,15.384c-1.333,12.105-2.684,23.298-3.458,27.553c-1.918,10.517-11.181,33.716-7.349,39.903
			s20.445,12.064,29.709,1.856C144.012,186.435,139.538,134.158,137.623,117.144z"/>
		<path fill="#DBC4A3" d="M121.189,73.138c6.618,4.203,11.877,9.213,14.983,14.16c-0.031-8.43,0.196-16.015,0.492-20.884
			c0.638-10.517,0.957-17.322,0.957-17.322s1.916-11.134-5.75-11.754c-7.668-0.618-8.625,4.024-8.306,10.209
			c0,0-0.638,8.97-1.277,16.085C122.048,66.322,121.624,69.719,121.189,73.138z"/>
	</g>
</g>
</svg>
