<?xml version="1.0" encoding="utf-8"?>
<!-- Generator: Adobe Illustrator 17.0.0, SVG Export Plug-In . SVG Version: 6.00 Build 0)  -->
<!DOCTYPE svg PUBLIC "-//W3C//DTD SVG 1.1 Basic//EN" "http://www.w3.org/Graphics/SVG/1.1/DTD/svg11-basic.dtd">
<svg version="1.1" baseProfile="basic" id="Слой_1"
	 xmlns="http://www.w3.org/2000/svg" xmlns:xlink="http://www.w3.org/1999/xlink" x="0px" y="0px" width="148.563px"
	 height="191.778px" viewBox="0 0 148.563 191.778" xml:space="preserve">
<path fill="#ECBE33" d="M105.855,56.365c-0.002,1.348-0.138,2.634-0.462,3.808c-2.689,9.725-8.202,17.377-8.202,17.377
	C87.126,90.587,71.51,88.068,65.258,86.349c-12.009-3.251-24.885-12.69-26.639-26.455c-3.11-24.338,1.879-28.627,4.665-32.341
	C48.7,20.335,60.522,12.798,56.558,4.619C52.529-3.676,37.325,0.95,29.017,4.966C21.705,8.521,13.616,14.25,8.8,25.578
	c-0.055-0.019-0.109-0.035-0.174-0.058c-2.377-0.778-5.066,0.893-6.006,3.768c-0.947,2.859,0.209,5.821,2.585,6.605l0.54,0.167
	C5.09,39.6,4.688,43.523,4.602,47.873c-0.045,0-0.071,0-0.119,0C1.991,47.889-0.023,50.343,0,53.35
	c0.013,3.01,2.059,5.445,4.557,5.42h0.405c0.148,1.745,0.295,3.492,0.54,5.359c0.28,2.175,0.726,4.334,1.266,6.461
	c-2.38,0.739-3.612,3.653-2.74,6.528c0.883,2.891,3.534,4.642,5.924,3.906l0.45-0.128c1.879,4.08,4.231,7.97,6.984,11.62
	c-0.115,0.106-0.218,0.186-0.35,0.295c-1.895,1.619-1.854,4.796,0.1,7.09c1.96,2.284,5.086,2.833,6.993,1.205l0.501-0.43
	c3.511,3.367,7.408,6.399,11.633,9.047c-0.08,0.17-0.167,0.337-0.257,0.511c-1.115,2.23,0.177,5.134,2.875,6.473
	c2.695,1.343,5.792,0.604,6.897-1.629l0.119-0.247c3.402,1.487,6.939,2.775,10.608,3.772c6.339,1.709,12.638,2.554,18.787,2.554
	c3.482,0,6.923-0.276,10.28-0.8c5.638-0.896,6.554,2.117,3.113,8.272c-5.712,10.197-10.496,21.261-16.513,25.871
	c-6.435,4.925-21.669,3.386-24.945,1.767c-8.182-4.119-18.196-0.877-22.372,7.309c-4.208,8.211,0.874,14.845,9.092,19.038
	c0.659,0.347,2.516,0.922,5.079,1.536c-0.036,0.231-0.071,0.437-0.116,0.675c-0.398,2.461,1.671,4.851,4.649,5.346
	c2.965,0.479,5.706-1.128,6.114-3.589l0.071-0.427c3.784,0.514,8.002,0.877,12.426,1.005c0.01,0.174,0.026,0.328,0.036,0.504
	c0.189,2.49,2.775,4.328,5.779,4.093c2.859-0.209,4.999-2.226,5.044-4.562c6.547-0.222,13.094-1.285,19.478-6.184
	c17.704-13.608,51.517-48.201,54.356-52.101c0,0,0.624-0.795,1.7-2.041C142.921,99.286,127.428,74.325,105.855,56.365z"/>
</svg>
