<?xml version="1.0" encoding="utf-8"?>
<!-- Generator: Adobe Illustrator 17.0.0, SVG Export Plug-In . SVG Version: 6.00 Build 0)  -->
<!DOCTYPE svg PUBLIC "-//W3C//DTD SVG 1.1//EN" "http://www.w3.org/Graphics/SVG/1.1/DTD/svg11.dtd">
<svg version="1.1" id="Слой_1" xmlns="http://www.w3.org/2000/svg" xmlns:xlink="http://www.w3.org/1999/xlink" x="0px" y="0px"
	 width="350px" height="350px" viewBox="0 0 350 350" enable-background="new 0 0 350 350" xml:space="preserve">
<path fill="#A8A8A8" stroke="#272525" stroke-width="3" stroke-miterlimit="10" d="M107.857,189.365
	c-0.002,1.348-0.138,2.634-0.463,3.808c-2.689,9.725-8.202,17.377-8.202,17.377c-10.065,13.037-25.681,10.518-31.933,8.799
	c-12.009-3.251-24.885-12.69-26.639-26.455c-3.11-24.338,1.879-28.627,4.665-32.341c5.416-7.218,17.238-14.755,13.274-22.934
	c-4.029-8.295-19.233-3.669-27.541,0.347c-7.312,3.555-15.401,9.284-20.217,20.612c-0.055-0.019-0.109-0.035-0.174-0.058
	c-2.377-0.778-5.066,0.893-6.006,3.768c-0.947,2.859,0.209,5.821,2.585,6.605l0.539,0.167c-0.655,3.54-1.057,7.463-1.143,11.813
	c-0.045,0-0.071,0-0.119,0c-2.492,0.016-4.506,2.47-4.483,5.477c0.013,3.01,2.059,5.445,4.557,5.42h0.405
	c0.148,1.745,0.295,3.492,0.54,5.359c0.28,2.175,0.726,4.334,1.266,6.461c-2.38,0.739-3.612,3.653-2.74,6.528
	c0.883,2.891,3.534,4.642,5.924,3.906l0.45-0.128c1.879,4.08,4.231,7.97,6.984,11.62c-0.115,0.106-0.218,0.186-0.35,0.295
	c-1.895,1.619-1.854,4.796,0.1,7.09c1.96,2.284,5.085,2.833,6.993,1.205l0.501-0.43c3.511,3.367,7.408,6.399,11.633,9.047
	c-0.08,0.17-0.167,0.337-0.257,0.511c-1.115,2.23,0.177,5.134,2.875,6.473c2.695,1.343,5.792,0.604,6.897-1.629l0.119-0.247
	c3.402,1.487,6.939,2.775,10.608,3.772c6.339,1.709,12.638,2.554,18.787,2.554c3.482,0,6.923-0.276,10.28-0.8
	c5.638-0.896,6.554,2.117,3.113,8.272c-5.712,10.197-10.496,21.261-16.513,25.871c-6.435,4.925-21.669,3.386-24.945,1.767
	c-8.182-4.119-18.196-0.877-22.372,7.309c-4.208,8.211,0.874,14.845,9.092,19.038c0.659,0.347,2.516,0.922,5.079,1.536
	c-0.035,0.231-0.071,0.437-0.116,0.675c-0.398,2.461,1.671,4.851,4.649,5.346c2.965,0.479,5.706-1.128,6.114-3.589l0.071-0.427
	c3.784,0.514,8.002,0.877,12.426,1.005c0.01,0.174,0.026,0.328,0.035,0.504c0.189,2.49,2.775,4.328,5.779,4.093
	c2.859-0.209,4.999-2.226,5.044-4.562c6.547-0.222,13.094-1.285,19.478-6.184c17.704-13.608,51.517-48.201,54.356-52.101
	c0,0,0.624-0.795,1.7-2.041C144.923,232.286,129.43,207.325,107.857,189.365z"/>
<path fill="#A8A8A8" stroke="#272525" stroke-width="3" stroke-miterlimit="10" d="M242.637,204.201
	c-0.654-1.466-1.269-3.022-1.792-4.654c-2.133-6.717,2.348-16.814,6.081-22.803c10.939-17.586,17.367-42.247,17.367-62.74
	c0-53.026-34.625-96.004-87.645-96.004C123.622,18,89,60.989,89,114.004c0,17.732,4.793,39.744,13.172,56.106
	c2.663,5.196,5.929,13.192,5.917,19.65c21.573,17.959,37.066,42.92,42.704,70.5c4.039-4.68,14.518-15.805,22.893-15.805
	c10.614,0,24.525,19.484,24.525,19.484c0.246,0.335,0.754,0.94,1.46,1.744C209.324,241.957,223.643,220.603,242.637,204.201z"/>
<path fill="#A8A8A8" stroke="#272525" stroke-width="3" stroke-miterlimit="10" d="M341.413,195.679h0.006l1.863,0.019
	c2.496,0.026,4.539-2.413,4.565-5.423c0.01-3.007-1.989-5.464-4.494-5.477c-0.601-0.007-1.176-0.007-1.709-0.01
	c-0.132-4.131-0.546-7.874-1.215-11.254l2.197-0.723c2.377-0.781,3.54-3.736,2.596-6.595c-0.944-2.869-3.624-4.552-6.004-3.768
	c-0.726,0.235-1.375,0.447-1.979,0.646c-4.838-10.997-12.786-16.632-20.004-20.13c-8.292-4.022-23.493-8.634-27.532-0.344
	c-3.964,8.182,7.861,15.703,13.293,22.937c2.776,3.707,7.755,7.983,4.645,32.321c-1.744,13.775-14.639,23.217-26.626,26.459
	c-6.264,1.718-21.877,4.237-31.93-8.793c0,0-4.028-4.798-7.119-11.724c-18.994,16.402-33.314,37.757-42.966,61.483
	c7.476,8.512,38.88,41.17,55.061,53.583c6.107,4.69,12.381,5.869,18.649,6.149l-0.055,0.671c-0.19,2.493,2.095,4.69,5.098,4.922
	c3.004,0.225,5.59-1.609,5.783-4.089c0.042-0.53,0.074-1.015,0.116-1.484c4.318-0.096,8.443-0.431,12.191-0.903l0.218,1.307
	c0.402,2.458,3.142,4.064,6.114,3.576c2.971-0.485,5.057-2.872,4.639-5.339c-0.084-0.504-0.158-0.97-0.234-1.42
	c3.097-0.71,5.294-1.378,6.043-1.777c8.205-4.183,13.284-10.81,9.095-19.028c-4.18-8.189-14.202-11.431-22.379-7.306
	c-3.283,1.606-18.527,3.142-24.942-1.783c-6.02-4.613-10.939-15.626-16.708-25.797c-3.498-6.123-2.593-9.133,3.039-8.237
	c3.354,0.533,6.788,0.8,10.277,0.793c6.13,0,12.426-0.835,18.768-2.554c4.292-1.166,8.391-2.731,12.314-4.565
	c1.121,2.217,4.196,2.943,6.888,1.61c2.692-1.34,3.98-4.237,2.866-6.473c-0.08-0.167-0.151-0.321-0.235-0.479
	c4.138-2.744,7.938-5.869,11.347-9.307l0.781,0.665c1.905,1.613,5.028,1.08,6.988-1.218c1.95-2.294,1.995-5.461,0.099-7.077
	c-0.299-0.254-0.556-0.475-0.822-0.703c2.593-3.624,4.752-7.489,6.493-11.517l1.423,0.434c2.387,0.723,5.034-1.018,5.917-3.903
	c0.874-2.875-0.353-5.815-2.734-6.538c-0.434-0.122-0.819-0.247-1.208-0.357c0.369-1.664,0.681-3.348,0.893-5.031
	C341.06,199.885,341.259,197.758,341.413,195.679z"/>
</svg>
