<?xml version="1.0" encoding="utf-8"?>
<!-- Generator: Adobe Illustrator 17.0.0, SVG Export Plug-In . SVG Version: 6.00 Build 0)  -->
<!DOCTYPE svg PUBLIC "-//W3C//DTD SVG 1.1//EN" "http://www.w3.org/Graphics/SVG/1.1/DTD/svg11.dtd">
<svg version="1.1" id="Слой_1" xmlns="http://www.w3.org/2000/svg" xmlns:xlink="http://www.w3.org/1999/xlink" x="0px" y="0px"
	 width="350px" height="350px" viewBox="0 0 350 350" enable-background="new 0 0 350 350" xml:space="preserve">
<g>
	<path fill="#253C32" d="M157.606,149.671c0,9.567-7.755,17.322-17.322,17.322l0,0c-9.564,0-17.319-7.755-17.319-17.322l0,0
		c0-9.564,7.755-17.319,17.319-17.319l0,0C149.851,132.352,157.606,140.107,157.606,149.671L157.606,149.671z"/>
	<path fill="#253C32" d="M225.866,149.671c0,9.567-7.755,17.322-17.322,17.322l0,0c-9.564,0-17.319-7.755-17.319-17.322l0,0
		c0-9.564,7.755-17.319,17.319-17.319l0,0C218.111,132.352,225.866,140.107,225.866,149.671L225.866,149.671z"/>
	<path fill="#952B59" d="M199.276,208.949c0,9.564-13.207,17.319-29.498,17.319l0,0c-16.288,0-29.494-7.755-29.494-17.319l0,0
		c0-9.567,13.207-17.322,29.494-17.322l0,0C186.069,191.627,199.276,199.382,199.276,208.949L199.276,208.949z"/>
	<path fill="#A8A4C8" stroke="#FFFFFF" stroke-width="3" stroke-miterlimit="10" d="M341.714,196.545l1.863,0.019
		c2.496,0.026,4.539-2.413,4.565-5.423c0.01-3.007-1.989-5.464-4.494-5.477c-0.601-0.007-1.176-0.007-1.709-0.01
		c-0.132-4.131-0.546-7.874-1.215-11.254l2.198-0.723c2.377-0.781,3.54-3.736,2.596-6.595c-0.944-2.869-3.624-4.552-6.004-3.768
		c-0.726,0.235-1.375,0.447-1.979,0.646c-4.838-10.997-12.786-16.632-20.004-20.13c-8.292-4.022-23.493-8.634-27.532-0.344
		c-3.964,8.182,7.861,15.703,13.293,22.937c2.776,3.707,7.755,7.983,4.645,32.321c-1.744,13.775-14.639,23.217-26.626,26.459
		c-6.264,1.719-21.878,4.237-31.93-8.793c0,0-5.917-7.035-8.911-16.378c-2.133-6.717,2.348-16.814,6.081-22.803
		c10.939-17.585,17.367-42.247,17.367-62.74c0-53.026-34.625-96.004-87.645-96.004c-53.026,0-87.648,42.989-87.648,96.004
		c0,17.732,4.793,39.744,13.171,56.106c3.219,6.281,7.334,16.66,5.455,23.458c-2.689,9.725-8.202,17.377-8.202,17.377
		c-10.065,13.037-25.681,10.518-31.933,8.799c-12.009-3.251-24.885-12.69-26.639-26.455c-3.11-24.338,1.879-28.627,4.665-32.341
		c5.416-7.218,17.238-14.755,13.274-22.934c-4.029-8.295-19.233-3.669-27.541,0.347c-7.312,3.555-15.401,9.284-20.217,20.612
		c-0.055-0.019-0.109-0.035-0.174-0.058c-2.377-0.778-5.066,0.893-6.006,3.768c-0.947,2.859,0.209,5.821,2.585,6.605l0.54,0.167
		c-0.655,3.54-1.057,7.463-1.143,11.812c-0.045,0-0.071,0-0.119,0c-2.492,0.016-4.506,2.471-4.483,5.477
		c0.013,3.01,2.059,5.445,4.557,5.42H6.82c0.148,1.744,0.295,3.492,0.539,5.359c0.28,2.175,0.726,4.334,1.266,6.461
		c-2.38,0.739-3.612,3.652-2.74,6.528c0.883,2.891,3.534,4.642,5.924,3.906l0.45-0.128c1.879,4.08,4.231,7.97,6.984,11.62
		c-0.115,0.106-0.218,0.186-0.35,0.295c-1.896,1.619-1.854,4.796,0.1,7.09c1.96,2.284,5.086,2.833,6.993,1.205l0.501-0.43
		c3.511,3.367,7.408,6.399,11.633,9.047c-0.08,0.17-0.167,0.337-0.257,0.511c-1.115,2.23,0.177,5.134,2.875,6.473
		c2.696,1.343,5.792,0.604,6.897-1.629l0.119-0.247c3.402,1.487,6.939,2.775,10.608,3.772c6.339,1.709,12.638,2.554,18.787,2.554
		c3.482,0,6.923-0.276,10.28-0.8c5.638-0.896,6.554,2.117,3.113,8.272c-5.712,10.197-10.496,21.261-16.513,25.871
		c-6.435,4.925-21.669,3.386-24.945,1.767c-8.182-4.119-18.196-0.877-22.372,7.309c-4.208,8.211,0.874,14.845,9.092,19.038
		c0.659,0.347,2.516,0.922,5.079,1.536c-0.036,0.231-0.071,0.437-0.116,0.675c-0.398,2.461,1.671,4.851,4.649,5.346
		c2.965,0.479,5.706-1.128,6.113-3.589l0.071-0.427c3.784,0.514,8.002,0.877,12.426,1.005c0.01,0.174,0.026,0.328,0.036,0.504
		c0.189,2.49,2.776,4.328,5.779,4.093c2.859-0.209,4.999-2.226,5.044-4.562c6.547-0.222,13.094-1.285,19.478-6.184
		c17.704-13.608,51.517-48.201,54.356-52.101c0,0,13.988-17.846,24.592-17.846c10.614,0,24.525,19.484,24.525,19.484
		c2.846,3.884,38.811,41.741,56.521,55.327c6.107,4.69,12.381,5.869,18.649,6.149l-0.055,0.671c-0.19,2.493,2.095,4.69,5.098,4.922
		c3.004,0.225,5.59-1.609,5.783-4.089c0.042-0.53,0.074-1.015,0.116-1.484c4.318-0.096,8.443-0.431,12.191-0.903l0.218,1.307
		c0.402,2.458,3.142,4.064,6.114,3.576c2.971-0.485,5.057-2.872,4.639-5.339c-0.084-0.504-0.158-0.97-0.235-1.42
		c3.097-0.71,5.294-1.378,6.043-1.777c8.205-4.183,13.284-10.81,9.095-19.028c-4.18-8.189-14.202-11.431-22.378-7.306
		c-3.283,1.606-18.527,3.142-24.942-1.783c-6.02-4.613-10.939-15.626-16.708-25.797c-3.499-6.123-2.593-9.133,3.039-8.237
		c3.354,0.533,6.788,0.8,10.277,0.793c6.13,0,12.426-0.835,18.768-2.554c4.292-1.166,8.391-2.731,12.314-4.565
		c1.121,2.217,4.196,2.943,6.888,1.61c2.692-1.34,3.98-4.237,2.866-6.473c-0.08-0.167-0.151-0.321-0.235-0.479
		c4.138-2.744,7.938-5.869,11.347-9.307l0.781,0.665c1.905,1.613,5.028,1.08,6.988-1.217c1.95-2.294,1.995-5.461,0.099-7.077
		c-0.299-0.254-0.556-0.475-0.822-0.703c2.593-3.624,4.752-7.489,6.493-11.517l1.423,0.434c2.387,0.723,5.034-1.018,5.917-3.903
		c0.874-2.875-0.353-5.815-2.734-6.538c-0.434-0.122-0.82-0.247-1.208-0.357c0.369-1.664,0.681-3.348,0.893-5.031
		c0.276-2.246,0.475-4.372,0.63-6.451L341.714,196.545L341.714,196.545z M79.499,244.611c-2.859,0.45-5.795,0.678-8.732,0.678
		c-5.22,0-10.553-0.726-15.857-2.146c-23.085-6.274-40.42-24.849-43.154-46.257c-3.271-25.723,3.45-42.264,20.56-50.564
		c1.484-0.712,3.28-0.103,4.003,1.383c0.726,1.494,0.106,3.283-1.378,4.009c-9.258,4.488-21.106,13.975-17.238,44.414
		c2.422,19.025,18.013,35.582,38.779,41.227c7.456,2.011,14.983,2.461,22.08,1.34c1.587-0.244,3.171,0.854,3.428,2.496
		C82.249,242.812,81.125,244.348,79.499,244.611z M137.489,159.71c-5.879,0-10.672-4.793-10.672-10.672
		c0-5.884,4.793-10.672,10.672-10.672c5.888,0,10.672,4.788,10.672,10.672C148.161,154.917,143.378,159.71,137.489,159.71z
		 M191.569,208.692c-1.474,1.606-3.197,2.984-5.108,4.144c-3.871,2.374-8.548,3.505-13.162,3.46
		c-4.613-0.199-9.098-1.5-12.863-3.801c-1.883-1.134-3.64-2.448-5.179-4.003c-2.557-2.56,0.967-3.621,7.055-2.146
		c3.868,0.932,7.543,1.536,11.205,1.596c3.682,0.17,7.28-0.344,11.074-1.294C190.561,205.129,194.043,206.013,191.569,208.692z
		 M208.956,159.742c-5.763,0-10.444-4.674-10.444-10.444c0-5.759,4.68-10.439,10.444-10.439c5.763,0,10.425,4.681,10.425,10.439
		C219.38,155.068,214.719,159.742,208.956,159.742z M332.838,196.886c-2.727,21.405-20.075,39.983-43.154,46.257
		c-5.307,1.42-10.637,2.146-15.86,2.146c-2.939,0-5.869-0.228-8.725-0.678c-1.629-0.264-2.75-1.799-2.493-3.421
		c0.26-1.642,1.834-2.74,3.428-2.496c7.1,1.124,14.611,0.671,22.089-1.34c20.76-5.632,36.337-22.202,38.769-41.227
		c3.874-30.439-7.977-39.926-17.235-44.414c-1.484-0.726-2.104-2.515-1.378-4.009c0.723-1.486,2.519-2.106,4.009-1.383
		C329.388,154.621,336.115,171.163,332.838,196.886z"/>
	<path fill="#E6D2DB" d="M146.915,179.705c0,6.615-5.362,11.977-11.976,11.977l0,0c-6.612,0-11.973-5.362-11.973-11.977l0,0
		c0-6.611,5.362-11.973,11.973-11.973l0,0C141.553,167.732,146.915,173.094,146.915,179.705L146.915,179.705z"/>
	<path fill="#E6D2DB" d="M223.226,179.705c0,6.615-5.362,11.977-11.977,11.977l0,0c-6.611,0-11.973-5.362-11.973-11.977l0,0
		c0-6.611,5.362-11.973,11.973-11.973l0,0C217.864,167.732,223.226,173.094,223.226,179.705L223.226,179.705z"/>
</g>
</svg>
