<?xml version="1.0" encoding="utf-8"?>
<!-- Generator: Adobe Illustrator 17.0.0, SVG Export Plug-In . SVG Version: 6.00 Build 0)  -->
<!DOCTYPE svg PUBLIC "-//W3C//DTD SVG 1.1 Basic//EN" "http://www.w3.org/Graphics/SVG/1.1/DTD/svg11-basic.dtd">
<svg version="1.1" baseProfile="basic" id="Слой_1"
	 xmlns="http://www.w3.org/2000/svg" xmlns:xlink="http://www.w3.org/1999/xlink" x="0px" y="0px" width="148.845px"
	 height="192.647px" viewBox="0 0 148.845 192.647" xml:space="preserve">
<path fill="#D16234" d="M142.411,57.679h0.006l1.863,0.019c2.496,0.026,4.539-2.413,4.565-5.423c0.01-3.007-1.989-5.464-4.494-5.477
	c-0.601-0.007-1.176-0.007-1.709-0.01c-0.132-4.131-0.546-7.874-1.215-11.254l2.198-0.723c2.377-0.781,3.54-3.736,2.596-6.595
	c-0.944-2.869-3.624-4.552-6.004-3.768c-0.726,0.235-1.375,0.447-1.979,0.646c-4.838-10.997-12.786-16.632-20.004-20.13
	C109.942,0.942,94.741-3.67,90.702,4.62c-3.964,8.182,7.861,15.703,13.294,22.937c2.776,3.707,7.755,7.983,4.645,32.321
	c-1.744,13.775-14.639,23.217-26.626,26.459c-6.264,1.718-21.877,4.237-31.93-8.793c0,0-4.028-4.798-7.119-11.724
	C23.972,82.222,9.652,103.577,0,127.303c7.476,8.512,38.88,41.17,55.061,53.583c6.107,4.69,12.381,5.869,18.649,6.149l-0.055,0.671
	c-0.189,2.493,2.095,4.69,5.098,4.922c3.004,0.225,5.59-1.609,5.783-4.089c0.042-0.53,0.074-1.015,0.116-1.484
	c4.318-0.096,8.443-0.431,12.191-0.903l0.219,1.307c0.402,2.458,3.142,4.064,6.113,3.576c2.971-0.485,5.057-2.872,4.639-5.339
	c-0.083-0.504-0.158-0.97-0.234-1.42c3.097-0.71,5.294-1.378,6.043-1.777c8.205-4.183,13.284-10.81,9.095-19.028
	c-4.18-8.189-14.202-11.431-22.379-7.306c-3.283,1.606-18.527,3.142-24.942-1.783c-6.02-4.613-10.939-15.626-16.708-25.797
	c-3.498-6.123-2.593-9.133,3.039-8.237c3.354,0.533,6.788,0.8,10.277,0.793c6.13,0,12.426-0.835,18.768-2.554
	c4.292-1.166,8.391-2.731,12.314-4.565c1.121,2.217,4.196,2.943,6.888,1.61c2.692-1.34,3.981-4.237,2.866-6.473
	c-0.08-0.167-0.151-0.321-0.235-0.479c4.138-2.744,7.938-5.869,11.347-9.307l0.781,0.665c1.905,1.613,5.028,1.08,6.988-1.218
	c1.95-2.294,1.995-5.461,0.099-7.077c-0.299-0.254-0.556-0.475-0.822-0.703c2.593-3.624,4.752-7.489,6.493-11.517l1.423,0.434
	c2.387,0.723,5.034-1.018,5.917-3.903c0.874-2.875-0.353-5.815-2.734-6.538c-0.434-0.122-0.819-0.247-1.208-0.357
	c0.369-1.664,0.681-3.348,0.893-5.031C142.058,61.885,142.257,59.758,142.411,57.679z"/>
</svg>
