<?xml version="1.0" encoding="utf-8"?>
<!-- Generator: Adobe Illustrator 17.0.0, SVG Export Plug-In . SVG Version: 6.00 Build 0)  -->
<!DOCTYPE svg PUBLIC "-//W3C//DTD SVG 1.1 Basic//EN" "http://www.w3.org/Graphics/SVG/1.1/DTD/svg11-basic.dtd">
<svg version="1.1" baseProfile="basic" id="Слой_1"
	 xmlns="http://www.w3.org/2000/svg" xmlns:xlink="http://www.w3.org/1999/xlink" x="0px" y="0px" width="175.293px"
	 height="247.683px" viewBox="0 0 175.293 247.683" xml:space="preserve">
<path fill="#3FA457" d="M153.637,186.201c-0.654-1.466-1.269-3.022-1.792-4.654c-2.133-6.717,2.348-16.814,6.081-22.803
	c10.939-17.586,17.367-42.247,17.367-62.74C175.293,42.978,140.668,0,87.648,0C34.622,0,0,42.989,0,96.004
	c0,17.732,4.793,39.744,13.171,56.106c2.663,5.196,5.929,13.192,5.917,19.65c21.573,17.959,37.066,42.92,42.704,70.5
	c4.039-4.68,14.518-15.805,22.893-15.805c10.614,0,24.525,19.484,24.525,19.484c0.246,0.335,0.754,0.94,1.46,1.744
	C120.324,223.957,134.643,202.603,153.637,186.201z"/>
</svg>
