<?xml version="1.0" encoding="utf-8"?>
<!-- Generator: Adobe Illustrator 17.0.0, SVG Export Plug-In . SVG Version: 6.00 Build 0)  -->
<!DOCTYPE svg PUBLIC "-//W3C//DTD SVG 1.1 Basic//EN" "http://www.w3.org/Graphics/SVG/1.1/DTD/svg11-basic.dtd">
<svg version="1.1" baseProfile="basic" id="Слой_1"
	 xmlns="http://www.w3.org/2000/svg" xmlns:xlink="http://www.w3.org/1999/xlink" x="0px" y="0px" width="225px" height="380px"
	 viewBox="0 0 225 380" xml:space="preserve">
<g>
	<path fill="none" stroke="#FFFFFF" stroke-width="6" stroke-miterlimit="10" d="M170.818,136.616
		c11.695-36.878,4.246-66.185-12.426-86.194c-3.097-7.34-3.648-13.751-2.286-19.458c2.377-3.097,6.289-4.778,10.928-5.792
		c-2.928-0.561-5.802-0.808-8.568-0.456c3.317-6.336,9.092-11.769,16.195-16.716c-15.354,3.219-28.698,9.501-35.664,25.578
		c-27.15-17.013-63.53-18.579-89.754-1.291C42.127,17.163,29.094,11.131,14.166,8c7.086,4.947,12.855,10.377,16.172,16.696
		c-2.708-0.318-5.525-0.064-8.392,0.48c4.484,0.98,8.287,2.58,10.681,5.477c1.515,5.998,0.91,12.767-2.553,20.577
		c-12.97,19.096-18.734,47.352-11.191,85.856c-28.8,120.136,26.66,148.974,80.07,172.607c-1.369,6.4-4.862,10.126-10.407,11.249
		c-17.602-7.056-37.074,8.828-27.417,28.381c3.51-15.898,10.316-20.821,19.191-18.87c-3.374,6.705-3.117,13.879,0.162,21.453
		c3.499-9.889,8.916-16.466,18.866-15.161c-3.242,7.52-2.238,16.131,0.321,25.152c13.818-31.809,31.008-29.138,50.625-1.609
		c4.615-13.301,3.513-24.168-12.087-28.861l0.044-3.09c13.633,7.78,25.196,16.993,32.543,29.801
		c16.611,18.363,28.117,20.331,32.245-1.295C229.852,265.195,221.615,189.676,170.818,136.616z M108.718,313.998l17.081,7.82
		C117.218,331.356,106.04,331.177,108.718,313.998z"/>
	<g>
		<path fill="#F4DAC1" d="M168.891,92.845c0,32.428-32.522,58.722-72.639,58.722c-40.12,0-72.639-26.295-72.639-58.722
			c0-32.424,32.519-58.719,72.639-58.719C136.369,34.126,168.891,60.42,168.891,92.845z"/>
		<path fill="#4F898C" d="M170.818,136.616c11.695-36.878,4.246-66.185-12.426-86.194c-3.097-7.34-3.648-13.751-2.286-19.458
			c2.377-3.097,6.289-4.778,10.928-5.792c-2.928-0.561-5.802-0.808-8.568-0.456c3.317-6.336,9.092-11.769,16.195-16.716
			c-15.354,3.219-28.698,9.501-35.664,25.578c-27.15-17.013-63.53-18.579-89.754-1.291C42.128,17.163,29.094,11.131,14.166,8
			c7.086,4.947,12.855,10.377,16.172,16.696c-2.708-0.318-5.525-0.064-8.392,0.48c4.484,0.98,8.287,2.58,10.681,5.477
			c1.515,5.998,0.909,12.767-2.553,20.577c-12.97,19.096-18.734,47.352-11.191,85.856c-28.8,120.136,26.66,148.974,80.07,172.607
			c-1.369,6.4-4.862,10.126-10.407,11.249c-17.602-7.056-37.073,8.828-27.417,28.381c3.51-15.898,10.316-20.821,19.191-18.87
			c-3.374,6.705-3.117,13.879,0.162,21.453c3.499-9.889,8.916-16.466,18.866-15.161c-3.242,7.52-2.238,16.131,0.321,25.152
			c13.818-31.809,31.008-29.138,50.625-1.609c4.615-13.301,3.513-24.168-12.087-28.861l0.044-3.09
			c13.633,7.78,25.196,16.993,32.543,29.801c16.611,18.363,28.117,20.331,32.245-1.295l0,0
			C229.852,265.195,221.615,189.676,170.818,136.616z M96.664,149.985c-55.01-4.534-74.228-28.814-65.789-71.108
			c13.609-43.18,45.337-38.899,64.822-4.838c18.751-37.506,46.72-31.84,62.557-5.16C176.242,109.324,151.39,147.865,96.664,149.985z
			 M108.718,313.998l17.081,7.82C117.218,331.357,106.04,331.177,108.718,313.998z"/>
		<path fill="#AB5615" d="M88.695,118.399c-0.368,10.59,3.094,18.64,7.898,25.797c4.561-6.475,7.32-14.914,7.584-26.122
			C102.703,106.924,90.382,105.889,88.695,118.399z"/>
		<path fill="#62596A" d="M109.928,101.071c12.477,16.827,25.108,14.359,37.872-3.898
			C133.336,82.208,120.559,82.174,109.928,101.071z"/>
		<path fill="#ACA8AF" d="M114.513,100.628c9.2,12.409,18.518,10.59,27.928-2.874C131.773,86.719,122.354,86.695,114.513,100.628z"
			/>
		<path fill="#62596A" d="M43.068,94.867c7.141,19.688,19.952,20.939,37.402,7.09C70.894,83.486,58.664,79.787,43.068,94.867z"/>
		<path fill="#ACA8AF" d="M47.838,97.832c6.552,13.988,16.043,14.055,27.938,2.725C67.513,87.628,58.286,85.731,47.838,97.832z"/>
		<path fill="#373638" d="M137.596,99.387c0,5.034-4.081,9.112-9.119,9.112c-5.034,0-9.115-4.077-9.115-9.112
			c0-5.041,4.081-9.119,9.115-9.119C133.515,90.269,137.596,94.346,137.596,99.387z"/>
		<path fill="#373638" d="M70.924,99.387c0,5.034-4.081,9.112-9.119,9.112c-5.034,0-9.115-4.077-9.115-9.112
			c0-5.041,4.081-9.119,9.115-9.119C66.843,90.269,70.924,94.346,70.924,99.387z"/>
		<path fill="#CB9DA3" d="M61.809,121.506c0,5.034-4.081,9.112-9.119,9.112c-5.034,0-9.112-4.078-9.112-9.112
			c0-5.038,4.077-9.119,9.112-9.119C57.728,112.387,61.809,116.468,61.809,121.506z"/>
		<path fill="#CB9DA3" d="M145.974,120.969c0,5.031-4.081,9.112-9.119,9.112c-5.034,0-9.115-4.081-9.115-9.112
			c0-5.041,4.081-9.118,9.115-9.118C141.893,111.85,145.974,115.928,145.974,120.969z"/>
	</g>
</g>
</svg>
