<?xml version="1.0" encoding="utf-8"?>
<!-- Generator: Adobe Illustrator 17.0.0, SVG Export Plug-In . SVG Version: 6.00 Build 0)  -->
<!DOCTYPE svg PUBLIC "-//W3C//DTD SVG 1.1 Basic//EN" "http://www.w3.org/Graphics/SVG/1.1/DTD/svg11-basic.dtd">
<svg version="1.1" baseProfile="basic" id="Слой_1"
	 xmlns="http://www.w3.org/2000/svg" xmlns:xlink="http://www.w3.org/1999/xlink" x="0px" y="0px" width="126.451px"
	 height="125.461px" viewBox="0 0 126.451 125.461" xml:space="preserve">
<path fill="#87BB50" d="M125.708,57.964c-0.17-2.424-0.467-4.87-0.905-7.337c-0.289-1.692-0.682-3.425-1.141-5.167
	c-0.046-0.176-0.085-0.355-0.132-0.529c-0.093-0.342-0.199-0.684-0.298-1.027c-0.194-0.679-0.392-1.356-0.606-2.022
	c-0.057-0.176-0.119-0.35-0.177-0.526c-0.248-0.751-0.504-1.496-0.776-2.23c-0.168-0.458-0.349-0.909-0.526-1.363
	c-0.121-0.305-0.238-0.612-0.363-0.913c-1.31-3.226-2.827-6.334-4.505-9.118C105.634,10.075,87.581-0.238,69.387,3.028
	c-4.676,0.833-9.022,2.528-12.972,4.9c-0.06-1.768-0.102-3.692-0.114-5.754C54.354,2.505,52.62,0.182,51.1,0
	c0.01,3.382,0.101,6.457,0.231,9.184c-4.824-1.021-9.802-1.169-14.797-0.267C22.136,11.497,9.201,24.291,4.762,36.321
	c0.053,0.111,0.107,0.211,0.161,0.321c-4.602,10.34-6.21,22.883-3.829,36.159c0.219,1.23,0.481,2.439,0.763,3.647
	c0.127,1.074,0.276,2.149,0.466,3.223c5.52,30.783,37.597,50.801,71.659,44.693C107.889,118.285,130.953,88.605,125.708,57.964z"/>
</svg>
