<?xml version="1.0" encoding="utf-8"?>
<!-- Generator: Adobe Illustrator 17.0.0, SVG Export Plug-In . SVG Version: 6.00 Build 0)  -->
<!DOCTYPE svg PUBLIC "-//W3C//DTD SVG 1.1 Basic//EN" "http://www.w3.org/Graphics/SVG/1.1/DTD/svg11-basic.dtd">
<svg version="1.1" baseProfile="basic" id="Слой_1"
	 xmlns="http://www.w3.org/2000/svg" xmlns:xlink="http://www.w3.org/1999/xlink" x="0px" y="0px" width="248.75px"
	 height="369.125px" viewBox="0 0 248.75 369.125" xml:space="preserve">
<path fill="#E8AF33" stroke="#FFFFFF" stroke-width="6" stroke-miterlimit="10" d="M196.73,125.987
	c-8.328-34.772-39.692-57.197-66.181-59.531c1.163-14.719,5.522-32.128-11.744-49.244c-4.067-4.03-7.336-6.97-9.978-9.112
	l-8.224,7.015c4.478,2.724,12.918,8.925,19.545,18.134c4.918,6.845,4.353,20.877,4.324,33.044
	C107.504,66.824,87.862,75.95,73.4,91.53c8.127-0.116,15.854,2.048,21.283,7.894c10.624,11.383,3.035,28.078,6.071,40.979
	c1.518,9.106,11.383,17.454,7.589,28.078c-2.277,7.589-12.901,9.106-15.936,15.936c-3.794,8.348-0.759,16.695,1.518,25.043
	c3.036,11.383,9.865,28.078-1.518,33.39c-9.865,4.553-23.525,2.277-33.39,6.071c-12.142,4.553-6.83,25.043-17.454,27.319
	c-9.78,1.726-19.122,1.276-27.368,5.583c16.869,42.94,65.499,80.474,111.843,80.474c57.268,0,114.85-57.313,114.85-111.32
	C240.886,210.292,207.028,168.927,196.73,125.987z"/>
<path fill="#EB7272" d="M1602.97,686.224c0.358-0.247,0.715-0.495,1.073-0.742c0.084,0.127,0.169,0.254,0.253,0.381
	c-0.434,0.129-0.868,0.259-1.302,0.388C1602.994,686.25,1602.97,686.224,1602.97,686.224z"/>
<path fill="#EB7272" d="M1570.006,1049.175c0.243,0.36,0.489,0.718,0.714,1.089c0.004,0.007-0.235,0.163-0.361,0.249
	c-0.133-0.432-0.267-0.865-0.401-1.297C1569.957,1049.216,1570.006,1049.175,1570.006,1049.175z"/>
<g id="Слой_x0020_1_1_">
	<path fill="#E4A030" d="M196.73,125.987c-8.806-36.768-43.373-59.746-70.694-59.746c-17.312,0-37.73,9.231-52.637,25.289
		c8.127-0.116,15.854,2.048,21.283,7.894c10.624,11.383,3.035,28.078,6.071,40.979c1.518,9.106,11.383,17.454,7.589,28.078
		c-2.277,7.589-12.901,9.106-15.936,15.936c-3.794,8.348-0.759,16.695,1.518,25.043c3.035,11.383,9.865,28.078-1.518,33.39
		c-9.865,4.553-23.525,2.277-33.39,6.071c-12.142,4.553-6.83,25.043-17.454,27.319c-9.78,1.726-19.122,1.276-27.368,5.583
		c16.869,42.94,65.499,80.474,111.843,80.474c57.268,0,114.85-57.313,114.85-111.32C240.886,210.292,207.028,168.927,196.73,125.987
		z"/>
	<path fill="#E8AF33" d="M207.402,193.971c-13.082-15.686-24.186-87.432-37.134-83.522c-12.955,3.91-17.664,23.716-10.395,76.947
		c2.343,17.112-14.739,39.485-14.739,58.97c0,29.089,19.306,52.671,43.119,52.671c23.806,0,43.112-23.582,43.112-52.671
		C231.364,226.031,220.484,209.65,207.402,193.971z"/>
	<path fill="#E8AF33" d="M185.782,325.06c-18.351,10.56-39.03,16.142-59.634,16.985c-52.455,2.134-95.947-55.977-104.529-54.261
		c19.694,38.231,62.962,69.641,104.38,69.641c22.358,0,44.761-9.164,63.604-23.604C205.051,321.978,201.67,315.911,185.782,325.06z"
		/>
	<path fill="#E8AF33" d="M139.999,80.032c0,2.798-5.545,5.067-12.381,5.067c-6.843,0-12.388-2.269-12.388-5.067
		s5.545-5.067,12.388-5.067C134.454,74.965,139.999,77.233,139.999,80.032z"/>
	<path fill="#917133" d="M120.148,33.248c-6.627-9.209-15.067-15.41-19.545-18.134l8.224-7.015c2.642,2.142,5.91,5.082,9.978,9.112
		c24.179,23.97,5.948,48.515,13.478,65.44c-2.5,2.112-2.716,0.463-5.567,2.448C121.477,75.278,128.245,44.517,120.148,33.248z"/>
	<path fill="#E8AF33" d="M163.044,90.666c2.127,3.493,1.866,7.41-0.597,8.746c-2.463,1.343-8.403,0.127-8.328-3.903
		c0.082-5.216-3.903-8.694-1.448-10.037C155.133,84.136,160.909,87.166,163.044,90.666z"/>
	<path fill="#E8AF33" d="M150.574,103.711c0,6.679-3.597,12.082-8.037,12.082c-4.433,0-11.306-6.164-8.03-12.082
		c3.627-6.545,3.597-12.067,8.03-12.067C146.977,91.644,150.574,97.047,150.574,103.711z"/>
</g>
</svg>
