<?xml version="1.0" encoding="utf-8"?>
<!-- Generator: Adobe Illustrator 17.0.0, SVG Export Plug-In . SVG Version: 6.00 Build 0)  -->
<!DOCTYPE svg PUBLIC "-//W3C//DTD SVG 1.1 Basic//EN" "http://www.w3.org/Graphics/SVG/1.1/DTD/svg11-basic.dtd">
<svg version="1.1" baseProfile="basic" id="Слой_1"
	 xmlns="http://www.w3.org/2000/svg" xmlns:xlink="http://www.w3.org/1999/xlink" x="0px" y="0px" width="128.4px"
	 height="182.45px" viewBox="0 0 128.4 182.45" xml:space="preserve">
<path fill="#42BCAA" d="M104.648,101.953c-9.595-7.335-28.289-13.619-39.945-11.716l-0.072-5.129
	c5.098-4.184,2.617-9.931,2.617-9.931c-0.78-1.56-1.758-2.698-2.805-3.553l-0.131-9.376c5.043-4.181,2.571-9.894,2.571-9.894
	c-0.768-1.537-1.729-2.665-2.758-3.516l-0.135-9.71c0.007-0.656,0.004-1.258,0.004-1.875c3.518-4.019,1.441-8.81,1.441-8.81
	c-0.563-1.126-1.233-2.021-1.951-2.766c-0.595-5.601-1.492-7.197-1.492-7.197C54.747,2.356,35.547,1.27,35.547,1.27L13.544,0.211
	L10.729,0L6.381,0.366c-8.697-0.187-5.979,7.24-5.979,7.24l8.879,10.692l0.017-0.17l6.201,8.018l-4.585,28.383l-5.26,63.946
	c-0.996,5.972-1.276,11.542-1.272,15.998c-0.001,0.001-0.003,0.001-0.004,0.002l0.003,0.217c0.018,5.968,0.547,9.868,0.547,9.868
	c2.909,13.47,10.495,20.273,16.166,23.576c-0.246,2.444,1.051,3.963,1.051,3.963c0.917,2.103,4.498,0.297,6.398-0.853
	c9.273,3.528,27.469,6.651,27.469,6.651c0.967,0.335,2.037,0.518,3.171,0.589l0.09,1.768c2.357,4.342,7.252,0.906,7.252,0.906
	l17.208-7.613c6.629-2.702,8.012-5.235,8.217-6.588c6.591-3.634,8.09-6.032,8.09-6.032l-0.535-1.06
	c2.167,0.267,4.399,0.432,6.693,0.456c0,0,9.272-0.665,13.039-6.643c0.479-0.401,0.913-0.85,1.324-1.32
	c1.306-0.879,2.505-1.984,3.393-3.391c0.713-0.601,1.362-1.284,1.928-2.053C133.345,136.798,123.618,116.471,104.648,101.953z"/>
</svg>
