<?xml version="1.0" encoding="utf-8"?>
<!-- Generator: Adobe Illustrator 17.0.0, SVG Export Plug-In . SVG Version: 6.00 Build 0)  -->
<!DOCTYPE svg PUBLIC "-//W3C//DTD SVG 1.1 Basic//EN" "http://www.w3.org/Graphics/SVG/1.1/DTD/svg11-basic.dtd">
<svg version="1.1" baseProfile="basic" id="Слой_1"
	 xmlns="http://www.w3.org/2000/svg" xmlns:xlink="http://www.w3.org/1999/xlink" x="0px" y="0px" width="168.513px"
	 height="115.441px" viewBox="0 0 168.513 115.441" xml:space="preserve">
<path fill="#B76153" d="M165.109,55.035l-9.406-6.794l-0.15,0.001c2.14-5.401,4.26-12.592,6.084-22.185l0.336-0.29
	c1.175-3.817,1.194-6.15,0.986-7.461c0.02-0.128,0.041-0.247,0.06-0.376c0,0-0.054-0.045-0.16-0.112
	c-0.162-0.659-0.363-0.935-0.363-0.935L138.456,0.16c-11.495-1.567-17.244,8.883-17.244,8.883
	c-1.679,4.777-3.836,8.434-6.132,11.239c-3.517-0.914-7.186-1.302-6.135,1.468l-0.646,4.52c-0.17,0.105-0.339,0.209-0.507,0.307
	c-0.124,0.006-0.241,0.039-0.366,0.039l0.108,0.108c-2.131,1.211-4.047,1.889-5.441,2.26c-0.536-0.562-1.171-1.077-1.907-1.536
	l0.123-0.11L82.932,11.137c-12.167-2.116-19.543,3.433-23.866,9.429C48.246,8.467,32.892,4.864,32.892,4.864
	c-13.59-1.631-17.418,0.273-17.97,2.475L14.6,6.954L9.897,23.68c0,0,5.261,9.199,12.048,16.414c-1.52,0.671-2.7,1.314-3.618,1.909
	C13.225,35.227,8.499,31.501,5.8,32.795c-0.861,0.413-1.587,0.869-2.212,1.36c-0.524-0.039-1.018,0.002-1.446,0.207
	c-3.966,1.903-2.244,13.973,3.667,28.317c-0.038,0.324-0.095,0.642-0.095,0.977c0,2.871,1.455,5.378,3.634,6.817
	c8.07,16.347,17.977,27.74,22.411,25.611c0.354-0.17,0.647-0.447,0.911-0.774c0.885-0.091,1.798-0.34,2.746-0.795
	c1.771-0.85,2.396-3.743,2.033-7.944c4.988,3.819,13.771,8.42,26.863,8.095c-0.452,1.874-0.589,3.221-0.589,3.221
	c1.569,14.632,14.631,17.246,14.631,17.246l0.052-0.097c1.695,0.501,3.603,0.554,5.598,0.062c6.456-1.591,11.38-8.241,11-14.862
	c-0.045-0.778-0.167-1.518-0.347-2.221c14.75,7.67,29.397,14.843,33.868,15.549c0,0,14.632,3.659,17.769-5.748l2.401-8.809
	c0.493-0.36,0.732-0.598,0.732-0.598l1.347-6.736c0.184-0.664,0.22-1.102,0.22-1.102c-1.379-2.207-13.1-11.406-23.86-19.6
	c6.042-2.709,11.821-5.131,16.023-6.532c0,0,2.798-0.345,6.475-5.152c17.92,6.77,16.519,3.586,16.519,3.586l1.044-2.788
	C169.249,60.041,169.15,58.672,165.109,55.035z"/>
</svg>
