<?xml version="1.0" encoding="utf-8"?>
<!-- Generator: Adobe Illustrator 17.0.0, SVG Export Plug-In . SVG Version: 6.00 Build 0)  -->
<!DOCTYPE svg PUBLIC "-//W3C//DTD SVG 1.1 Basic//EN" "http://www.w3.org/Graphics/SVG/1.1/DTD/svg11-basic.dtd">
<svg version="1.1" baseProfile="basic" id="Слой_1"
	 xmlns="http://www.w3.org/2000/svg" xmlns:xlink="http://www.w3.org/1999/xlink" x="0px" y="0px" width="101.204px"
	 height="190.297px" viewBox="0 0 101.204 190.297" xml:space="preserve">
<path fill="#BAAE52" d="M92.753,48.877c-3.035-12.901,4.553-29.596-6.071-40.979c-5.428-5.846-13.155-8.01-21.283-7.894
	c-9.1,9.803-16.149,22.148-19.176,36.501C37.515,77.773,0,108.534,0,159.451c0,10.302,2.217,20.724,6.193,30.846
	c8.246-4.307,17.589-3.857,27.368-5.583c10.624-2.277,5.312-22.766,17.454-27.319c9.865-3.794,23.525-1.518,33.39-6.071
	c11.383-5.312,4.553-22.007,1.518-33.39c-2.277-8.348-5.312-16.695-1.518-25.043c3.035-6.83,13.66-8.348,15.936-15.936
	C104.137,66.331,94.271,57.983,92.753,48.877z"/>
</svg>
