<?xml version="1.0" encoding="utf-8"?>
<!-- Generator: Adobe Illustrator 17.0.0, SVG Export Plug-In . SVG Version: 6.00 Build 0)  -->
<!DOCTYPE svg PUBLIC "-//W3C//DTD SVG 1.1 Basic//EN" "http://www.w3.org/Graphics/SVG/1.1/DTD/svg11-basic.dtd">
<svg version="1.1" baseProfile="basic" id="Слой_1"
	 xmlns="http://www.w3.org/2000/svg" xmlns:xlink="http://www.w3.org/1999/xlink" x="0px" y="0px" width="332.958px"
	 height="182.979px" viewBox="0 0 332.958 182.979" xml:space="preserve">
<path fill="#40894C" stroke="#FFFFFF" stroke-width="6" stroke-miterlimit="10" d="M255.584,105.688
	c-5.797-0.7-11.155-0.725-16.325-0.408c7.368-3.823,14.676-7.786,22.654-11.156c38.255-16.153,42.016-47.012,64.049-73.325
	c-15.381-10.09-46.521-15.872-64.709-11.101c-19.324,5.066-29.653,15.732-46.465,23.633c-16.377,7.704-36.094,2.203-51.798,14.244
	c-8.883,6.82-8.336,8.252-20.25,8.168c-7.887-0.07-17.051-1.656-24.938-1.403c-22.159,0.716-43.448,11.929-55.447,26.397
	l0.898,1.024c-10.166,0.594-42.24-10.749-42.512,1.959c-5.324-1.874-9.857-1.748-12.036,3.009
	c-5.557,12.139,23.422,20.784,28.755,29.976c7.873,13.57,12.153,23.661,29.906,32.081c14.455,6.862,31.407,12.153,47.714,15.872
	c15.226,3.452,28.418,8.925,44.767,10.062c17.682,1.221,34.354-1.824,52.177-1.923c41.441-0.253,60.807-23.45,93.562-37.077
	C297.615,122.683,273.772,107.877,255.584,105.688z"/>
<g id="__x0023_Layer_x0020_1">
	<path fill="#3B7D47" d="M63.253,81.761c-10.567,0.617-44.823-11.676-42.409,3.565c2.273,14.398,34.41,11.985,44.978,19.212
		c15.577,10.666,25.738,19.212,47.321,20.896c17.598,1.375,36.543,0.196,53.931-2.316c16.237-2.344,31.8-1.895,47.644-7.017
		c17.149-5.557,30.748-15.03,47.195-21.977c38.255-16.153,42.016-47.012,64.049-73.325c-15.381-10.09-46.521-15.872-64.709-11.101
		c-19.324,5.066-29.653,15.732-46.465,23.633c-16.377,7.704-36.094,2.203-51.798,14.244c-8.883,6.82-8.336,8.252-20.25,8.168
		c-7.887-0.07-17.051-1.656-24.938-1.403c-22.159,0.716-43.448,11.929-55.447,26.397L63.253,81.761L63.253,81.761z"/>
	<path fill="#40894C" d="M63.407,88.595c13.472,7.213,30.13,16.181,47.041,10.441c16.784-5.726,16.63-22.075,29.499-29.906
		c-16.349-2.989-28.151-9.36-41.974,0.435C87.18,77.2,79.251,84.02,66.663,89.942l-3.27-1.347H63.407z"/>
	<path fill="#40894C" d="M111.964,102.124c17.275,3.172,38.62,7.157,53.566-2.638c14.833-9.711,19.338-35.196,29.148-45.862
		c-13.711-5.964-45.539,8.981-55.461,21.724c-7.732,9.936-12.869,18.356-23.254,27.183L111.964,102.124z"/>
	<path fill="#40894C" d="M170.708,102.587c14.16-0.182,31.702-0.337,40.361-12.883c8.603-12.448,8.083-36.01,12.574-48.43
		c-13.641,4.996-31.253,19.956-35.21,34.452c-3.087,11.311-9.094,15.788-14.539,26.495L170.708,102.587L170.708,102.587z"/>
	<path fill="#4B8E4D" d="M47.157,97.815C37.712,94.84,14.599,73.86,8.705,86.729c-5.557,12.139,23.422,20.784,28.755,29.976
		c7.873,13.57,12.153,23.661,29.906,32.081c14.455,6.862,31.407,12.153,47.714,15.872c15.226,3.452,28.418,8.925,44.767,10.062
		c17.682,1.221,34.354-1.824,52.177-1.923c41.441-0.253,60.807-23.45,93.562-37.077c-7.971-13.037-31.814-27.843-50.002-30.032
		c-19.31-2.33-33.793,2.737-52.415,3.48c-18.145,0.73-32.305-10.09-52.135-5.712c-11.213,2.484-11.508,3.789-21.724-0.182
		c-6.764-2.624-13.837-6.89-20.77-9.29c-19.493-6.694-43.715-4.799-61.635,2.723L47.157,97.815L47.157,97.815z"/>
	<path fill="#5AAC55" d="M39.143,107.344c0.926,1.193,1.754,2.428,2.428,3.733c6.89,13.276,10.539,24.025,25.738,32.081
		c14.118,7.494,33.582,9.711,49.51,13.767c14.23,3.621,29.204,10.16,43.995,11.311c17.275,1.333,35.631-2.189,53.159-2.302
		c13.472-0.084,24.685-3.27,36.15-9.122c8.785-4.491,16.924-10.048,25.022-15.381c5.487-3.607,10.974-7.143,16.672-10.427
		c-9.122-9.038-23.52-17.809-34.424-19.282c-7.915-1.067-15.254-0.449-23.099,0.674c-9.669,1.389-18.847,3.087-28.713,3.536
		c-5.712,0.253-11.297-0.365-16.826-1.53c-10.539-2.231-23.661-8.294-34.438-5.627c-14.721,3.649-18.398,5.417-33.288-1.067
		c-7.199-3.129-13.949-7.845-21.106-10.595c-12.911-4.968-31.982-1.277-45.595,2.751L39.143,107.344z"/>
	<circle fill="#6DB253" cx="120.426" cy="135.551" r="16.447"/>
	<circle fill="#78B552" cx="115.065" cy="132.268" r="8.224"/>
	<circle fill="#6DB253" cx="82.198" cy="121.532" r="15.24"/>
	<circle fill="#78B552" cx="77.244" cy="118.473" r="7.62"/>
	<circle fill="#6DB253" cx="162.821" cy="142.737" r="16.447"/>
	<circle fill="#78B552" cx="157.488" cy="139.439" r="8.224"/>
	<circle fill="#6DB253" cx="206.858" cy="140.912" r="16.447"/>
	<circle fill="#78B552" cx="201.512" cy="137.614" r="8.224"/>
	<circle fill="#6DB253" cx="248.103" cy="134.541" r="16.447"/>
	<circle fill="#78B552" cx="242.756" cy="131.243" r="8.224"/>
	<path fill="#40894C" d="M252.496,82.112c16.546-21.78,0.842-38.775,5.319-51.194c-48.71,1.333-22.257,42.185-42.915,63.39
		C214.9,94.307,243.963,94.475,252.496,82.112z"/>
	<path fill="#40894C" d="M261.351,77.018c11.676-5.992,26.159-13.332,30.383-28.081c4.182-14.637,1.137-26.173-13.276-24.924
		c-11.143,3.845-19.268,0.267-13.613,19.296c0.112,11.353,1.038,20.278-0.954,32.067L261.351,77.018L261.351,77.018z"/>
</g>
</svg>
