<?xml version="1.0" encoding="utf-8"?>
<!-- Generator: Adobe Illustrator 17.0.0, SVG Export Plug-In . SVG Version: 6.00 Build 0)  -->
<!DOCTYPE svg PUBLIC "-//W3C//DTD SVG 1.1 Basic//EN" "http://www.w3.org/Graphics/SVG/1.1/DTD/svg11-basic.dtd">
<svg version="1.1" baseProfile="basic" id="Слой_1"
	 xmlns="http://www.w3.org/2000/svg" xmlns:xlink="http://www.w3.org/1999/xlink" x="0px" y="0px" width="332.958px"
	 height="182.979px" viewBox="0 0 332.958 182.979" xml:space="preserve">
<path fill="#5AAC55" stroke="#FFFFFF" stroke-width="6" stroke-miterlimit="10" d="M255.583,105.688
	c-5.797-0.699-11.155-0.725-16.325-0.408c7.368-3.823,14.676-7.786,22.654-11.156c38.256-16.153,42.016-47.012,64.049-73.325
	c-15.381-10.09-46.521-15.872-64.709-11.101c-19.324,5.066-29.653,15.732-46.465,23.633c-16.377,7.704-36.094,2.203-51.798,14.244
	c-8.883,6.82-8.336,8.252-20.25,8.168c-7.887-0.07-17.051-1.656-24.938-1.403c-22.159,0.716-43.448,11.928-55.447,26.397
	l0.898,1.024c-10.166,0.594-42.241-10.749-42.512,1.959c-5.324-1.874-9.857-1.748-12.036,3.009
	c-5.557,12.139,23.422,20.784,28.755,29.976c7.873,13.57,12.153,23.661,29.905,32.081c14.455,6.862,31.407,12.153,47.714,15.872
	c15.226,3.452,28.418,8.925,44.767,10.062c17.682,1.221,34.354-1.824,52.177-1.923c41.441-0.253,60.807-23.45,93.562-37.077
	C297.614,122.683,273.771,107.877,255.583,105.688z M248.103,150.988c-9.084,0-16.447-7.364-16.447-16.447
	s7.364-16.447,16.447-16.447s16.447,7.364,16.447,16.447S257.187,150.988,248.103,150.988z M73.309,109.17
	c0.17-0.123,0.338-0.248,0.513-0.363c0.244-0.161,0.497-0.309,0.751-0.456c0.2-0.116,0.401-0.23,0.606-0.337
	c0.317-0.165,0.639-0.324,0.969-0.466c0.164-0.071,0.334-0.132,0.501-0.197c0.263-0.103,0.528-0.203,0.798-0.292
	c0.178-0.059,0.359-0.111,0.54-0.163c0.274-0.079,0.551-0.15,0.831-0.214c0.178-0.04,0.356-0.08,0.536-0.114
	c0.309-0.058,0.623-0.104,0.938-0.143c0.155-0.019,0.309-0.044,0.466-0.059c0.475-0.045,0.954-0.073,1.441-0.073
	c8.417,0,15.24,6.823,15.24,15.24s-6.823,15.24-15.24,15.24c-8.417,0-15.241-6.823-15.241-15.24
	C66.958,116.436,69.468,111.937,73.309,109.17z M103.978,135.552c0-4.197,1.585-8.015,4.173-10.921
	c0.28-0.314,0.567-0.622,0.87-0.914c0.122-0.118,0.251-0.228,0.376-0.342c0.286-0.259,0.578-0.512,0.882-0.751
	c0.149-0.117,0.302-0.229,0.456-0.341c0.296-0.217,0.598-0.424,0.908-0.621c0.172-0.109,0.346-0.215,0.522-0.317
	c0.307-0.179,0.621-0.346,0.94-0.506c0.19-0.095,0.381-0.189,0.575-0.277c0.32-0.145,0.649-0.274,0.98-0.398
	c0.203-0.076,0.405-0.156,0.613-0.224c0.341-0.113,0.69-0.205,1.04-0.296c0.207-0.053,0.411-0.114,0.621-0.16
	c0.383-0.083,0.774-0.141,1.167-0.196c0.185-0.026,0.366-0.064,0.554-0.085c0.582-0.063,1.172-0.099,1.771-0.099
	c0.51,0,1.012,0.031,1.51,0.076c0.097,0.009,0.194,0.016,0.29,0.027c0.476,0.052,0.945,0.123,1.408,0.215
	c0.094,0.019,0.186,0.041,0.279,0.061c0.444,0.096,0.883,0.206,1.313,0.338c0.039,0.012,0.079,0.021,0.117,0.033
	c0.444,0.139,0.878,0.303,1.305,0.478c0.106,0.043,0.212,0.086,0.317,0.132c0.406,0.176,0.805,0.367,1.194,0.575
	c0.101,0.054,0.199,0.112,0.299,0.168c0.335,0.188,0.664,0.387,0.984,0.598c0.079,0.052,0.161,0.1,0.239,0.154
	c0.352,0.24,0.69,0.498,1.022,0.764c0.113,0.091,0.226,0.182,0.336,0.276c0.316,0.267,0.623,0.544,0.917,0.834
	c0.099,0.097,0.193,0.2,0.29,0.3c0.234,0.242,0.46,0.491,0.678,0.747c0.086,0.101,0.177,0.199,0.261,0.303
	c2.303,2.83,3.688,6.438,3.688,10.371c0,9.084-7.364,16.447-16.447,16.447C111.342,151.999,103.978,144.635,103.978,135.552z
	 M146.374,142.737c0-9.084,7.364-16.447,16.447-16.447c9.084,0,16.447,7.364,16.447,16.447s-7.364,16.447-16.447,16.447
	C153.738,159.184,146.374,151.82,146.374,142.737z M190.411,140.912c0-9.084,7.364-16.447,16.447-16.447
	c9.084,0,16.447,7.364,16.447,16.447s-7.364,16.447-16.447,16.447C197.775,157.36,190.411,149.996,190.411,140.912z"/>
<g>
	<path fill="#3B7D47" d="M261.253,9.699c-19.324,5.066-29.653,15.732-46.465,23.633c-16.377,7.704-36.094,2.203-51.798,14.244
		c-8.883,6.82-8.336,8.252-20.25,8.168c-7.887-0.07-17.051-1.656-24.938-1.403c-22.159,0.716-43.448,11.929-55.447,26.397
		l0.898,1.024c-10.567,0.617-44.823-11.676-42.409,3.565c2.273,14.398,34.41,11.985,44.978,19.212
		c2.479,1.698,4.821,3.341,7.093,4.912c2.571-1.978,5.789-3.158,9.284-3.158c8.417,0,15.24,6.823,15.24,15.24
		c0,0.336-0.015,0.668-0.036,0.998c3.213,0.999,6.684,1.786,10.529,2.331c3.017-3.522,7.493-5.757,12.494-5.757
		c5.501,0,10.368,2.704,13.354,6.852c11.236-0.248,22.561-1.288,33.294-2.838c16.237-2.344,31.8-1.895,47.644-7.017
		c17.149-5.557,30.748-15.03,47.195-21.977c38.256-16.153,42.016-47.012,64.049-73.325C310.581,10.709,279.44,4.927,261.253,9.699z"
		/>
	<path fill="#40894C" d="M63.407,88.595c13.472,7.213,30.13,16.181,47.041,10.441c16.784-5.726,16.63-22.075,29.499-29.906
		c-16.349-2.989-28.151-9.36-41.974,0.435C87.18,77.2,79.251,84.02,66.663,89.942l-3.27-1.347H63.407z"/>
	<path fill="#40894C" d="M111.964,102.124c17.275,3.172,38.62,7.157,53.566-2.638c14.833-9.711,19.338-35.196,29.148-45.862
		c-13.711-5.964-45.539,8.981-55.461,21.724c-7.732,9.936-12.869,18.356-23.254,27.183L111.964,102.124z"/>
	<path fill="#40894C" d="M170.708,102.587c14.16-0.182,31.702-0.337,40.361-12.883c8.603-12.448,8.083-36.01,12.574-48.43
		c-13.641,4.996-31.253,19.956-35.21,34.452c-3.087,11.311-9.094,15.788-14.539,26.495L170.708,102.587L170.708,102.587z"/>
	<path fill="#40894C" d="M252.496,82.112c16.546-21.78,0.842-38.775,5.319-51.194c-48.71,1.333-22.257,42.185-42.915,63.39
		C214.9,94.307,243.963,94.475,252.496,82.112z"/>
	<path fill="#40894C" d="M261.351,77.018c11.676-5.992,26.159-13.332,30.383-28.081c4.182-14.637,1.137-26.173-13.276-24.924
		c-11.143,3.845-19.268,0.267-13.613,19.296c0.112,11.353,1.038,20.278-0.954,32.067L261.351,77.018L261.351,77.018z"/>
	<path fill="#4B8E4D" d="M255.583,105.688c-19.31-2.33-33.793,2.737-52.415,3.48c-18.145,0.73-32.305-10.09-52.135-5.712
		c-11.213,2.484-11.507,3.789-21.724-0.182c-6.764-2.624-13.837-6.89-20.77-9.29c-19.493-6.694-43.715-4.8-61.635,2.722l0.253,1.109
		C37.712,94.84,14.599,73.86,8.705,86.729c-5.557,12.139,23.422,20.784,28.755,29.976c7.873,13.57,12.153,23.661,29.905,32.081
		c14.455,6.862,31.407,12.153,47.714,15.872c15.226,3.452,28.418,8.925,44.767,10.062c17.682,1.221,34.354-1.824,52.177-1.923
		c41.441-0.253,60.807-23.45,93.562-37.077C297.614,122.683,273.77,107.877,255.583,105.688z M82.198,136.772
		c-8.417,0-15.241-6.823-15.241-15.24s6.823-15.24,15.241-15.24s15.24,6.823,15.24,15.24S90.615,136.772,82.198,136.772z
		 M120.426,151.999c-9.084,0-16.447-7.364-16.447-16.447c0-9.084,7.364-16.447,16.447-16.447c9.084,0,16.447,7.364,16.447,16.447
		C136.873,144.635,129.509,151.999,120.426,151.999z M162.821,159.184c-9.084,0-16.447-7.364-16.447-16.447
		c0-9.084,7.364-16.447,16.447-16.447c9.084,0,16.447,7.364,16.447,16.447C179.268,151.82,171.905,159.184,162.821,159.184z
		 M206.858,157.36c-9.084,0-16.447-7.364-16.447-16.447c0-9.084,7.364-16.447,16.447-16.447c9.084,0,16.447,7.364,16.447,16.447
		C223.306,149.996,215.942,157.36,206.858,157.36z M248.103,150.988c-9.084,0-16.447-7.364-16.447-16.447
		c0-9.084,7.364-16.447,16.447-16.447c9.084,0,16.447,7.364,16.447,16.447C264.55,143.625,257.187,150.988,248.103,150.988z"/>
	<path fill="#5AAC55" d="M257.393,111.722c-7.915-1.067-15.254-0.449-23.099,0.674c-9.669,1.389-18.847,3.087-28.713,3.536
		c-5.712,0.253-11.297-0.365-16.826-1.53c-10.539-2.231-23.661-8.294-34.438-5.627c-14.721,3.649-18.398,5.417-33.288-1.067
		c-7.199-3.129-13.949-7.845-21.106-10.595c-12.911-4.968-31.982-1.277-45.595,2.751l-15.184,7.48
		c0.926,1.193,1.754,2.428,2.428,3.733c6.89,13.276,10.539,24.025,25.738,32.081c14.118,7.494,33.582,9.711,49.51,13.767
		c14.23,3.621,29.204,10.16,43.995,11.311c17.275,1.333,35.631-2.189,53.159-2.301c13.472-0.084,24.685-3.27,36.15-9.122
		c8.785-4.491,16.925-10.048,25.022-15.381c5.487-3.607,10.974-7.143,16.672-10.427
		C282.696,121.967,268.297,113.196,257.393,111.722z M82.198,136.772c-8.417,0-15.241-6.823-15.241-15.24s6.823-15.24,15.241-15.24
		s15.24,6.823,15.24,15.24S90.615,136.772,82.198,136.772z M120.426,151.999c-9.084,0-16.447-7.364-16.447-16.447
		c0-9.084,7.364-16.447,16.447-16.447c9.084,0,16.447,7.364,16.447,16.447C136.873,144.635,129.509,151.999,120.426,151.999z
		 M162.821,159.184c-9.084,0-16.447-7.364-16.447-16.447c0-9.084,7.364-16.447,16.447-16.447c9.084,0,16.447,7.364,16.447,16.447
		C179.268,151.82,171.905,159.184,162.821,159.184z M206.858,157.36c-9.084,0-16.447-7.364-16.447-16.447
		c0-9.084,7.364-16.447,16.447-16.447c9.084,0,16.447,7.364,16.447,16.447C223.306,149.996,215.942,157.36,206.858,157.36z
		 M248.103,150.988c-9.084,0-16.447-7.364-16.447-16.447c0-9.084,7.364-16.447,16.447-16.447c9.084,0,16.447,7.364,16.447,16.447
		C264.55,143.625,257.187,150.988,248.103,150.988z"/>
</g>
</svg>
