<?xml version="1.0" encoding="utf-8"?>
<!-- Generator: Adobe Illustrator 17.0.0, SVG Export Plug-In . SVG Version: 6.00 Build 0)  -->
<!DOCTYPE svg PUBLIC "-//W3C//DTD SVG 1.1 Basic//EN" "http://www.w3.org/Graphics/SVG/1.1/DTD/svg11-basic.dtd">
<svg version="1.1" baseProfile="basic" id="Слой_1"
	 xmlns="http://www.w3.org/2000/svg" xmlns:xlink="http://www.w3.org/1999/xlink" x="0px" y="0px" width="205px" height="355px"
	 viewBox="0 0 205 355" xml:space="preserve">
<path fill="#A8A8A8" stroke="#272525" stroke-width="3" stroke-miterlimit="10" d="M63.128,114
	c-15.021,31.938-30.04,63.876-45.024,95.831c-1.687,3.598-2.893,7.422-4.323,11.141c-0.261,0.408-0.716,0.799-0.753,1.226
	c-0.291,3.416-0.564,6.836-0.725,10.261c-0.419,8.921-0.793,17.845-1.156,26.769c-0.17,4.185-0.259,8.372-0.411,12.558
	c-0.104,2.871-0.238,5.741-0.387,8.61c-0.334,6.416-0.687,12.831-1.032,19.247c-0.546,12.585-1.073,25.171-1.655,37.755
	c-0.108,2.328-0.436,4.647-0.663,6.97c0,0.627,0,1.254,0,1.881c0.47-0.263,1.01-0.448,1.398-0.801
	c10.852-9.832,21.691-19.678,32.523-29.533c0.403-0.367,0.714-0.834,1.068-1.254l0,0c0.597-0.42,1.249-0.782,1.784-1.271
	c3.507-3.203,6.967-6.458,10.483-9.65c7.722-7.012,15.464-14,23.205-20.991c3.475-3.138,6.989-6.235,10.447-9.392
	c3.785-3.455,7.537-6.947,11.265-10.464c0.286-0.27,0.273-0.858,0.399-1.298c1.055-1.537,2.344-2.964,3.129-4.628
	c4.044-8.568,8.075-17.142,12.109-25.715c-10.415-21.205-21.35-42.303-30.575-63.827C76.365,149.584,69.619,131.745,63.128,114z"/>
<path fill="#A8A8A8" stroke="#272525" stroke-width="3" stroke-miterlimit="10" d="M188.621,38.733
	c-20.661-9.526-41.209-19.298-61.808-28.959c-1.439-0.675-2.956-1.186-4.436-1.774c-1.254,0-2.508,0-3.762,0
	c-0.492,0.215-0.968,0.48-1.478,0.636c-3.211,0.983-5.714,2.911-7.16,5.918c-3.942,8.195-7.76,16.45-11.628,24.681
	c-1.694,3.545-3.388,7.089-5.083,10.634c-3.709,7.936-7.403,15.878-11.13,23.806C75.759,87.239,69.379,100.802,63,114.366
	c6.491,17.745,13.237,35.584,21.108,53.425c9.225,21.525,20.161,42.622,30.575,63.827c9.076-19.286,18.141-38.578,27.206-57.869
	c12.933-27.527,25.867-55.053,38.8-82.58c1.717-3.592,3.434-7.184,5.151-10.777c4.179-9.206,8.358-18.412,12.537-27.619
	c0-1.129,0-2.257,0-3.386C197.193,43.936,193.525,40.994,188.621,38.733z"/>
</svg>
