<?xml version="1.0" encoding="utf-8"?>
<!-- Generator: Adobe Illustrator 17.0.0, SVG Export Plug-In . SVG Version: 6.00 Build 0)  -->
<!DOCTYPE svg PUBLIC "-//W3C//DTD SVG 1.1 Basic//EN" "http://www.w3.org/Graphics/SVG/1.1/DTD/svg11-basic.dtd">
<svg version="1.1" baseProfile="basic" id="Слой_1"
	 xmlns="http://www.w3.org/2000/svg" xmlns:xlink="http://www.w3.org/1999/xlink" x="0px" y="0px" width="135.377px"
	 height="223.618px" viewBox="0 0 135.377 223.618" xml:space="preserve">
<path fill="#ECBE33" d="M125.621,30.733C104.96,21.207,84.412,11.435,63.813,1.774C62.374,1.099,60.857,0.588,59.377,0
	c-1.254,0-2.508,0-3.762,0c-0.492,0.215-0.968,0.48-1.478,0.636c-3.211,0.983-5.714,2.911-7.16,5.918
	c-3.942,8.195-7.76,16.45-11.628,24.681c-1.694,3.545-3.388,7.089-5.083,10.634c-3.709,7.936-7.403,15.878-11.13,23.806
	C12.759,79.239,6.379,92.802,0,106.366c6.491,17.745,13.237,35.584,21.108,53.425c9.225,21.525,20.161,42.622,30.575,63.827
	c9.076-19.286,18.141-38.578,27.206-57.869c12.933-27.527,25.867-55.053,38.8-82.58c1.717-3.592,3.434-7.184,5.151-10.777
	c4.179-9.206,8.358-18.412,12.537-27.619c0-1.129,0-2.257,0-3.386C134.193,35.936,130.525,32.994,125.621,30.733z"/>
</svg>
