<?xml version="1.0" encoding="utf-8"?>
<!-- Generator: Adobe Illustrator 17.0.0, SVG Export Plug-In . SVG Version: 6.00 Build 0)  -->
<!DOCTYPE svg PUBLIC "-//W3C//DTD SVG 1.1 Basic//EN" "http://www.w3.org/Graphics/SVG/1.1/DTD/svg11-basic.dtd">
<svg version="1.1" baseProfile="basic" id="Слой_1"
	 xmlns="http://www.w3.org/2000/svg" xmlns:xlink="http://www.w3.org/1999/xlink" x="0px" y="0px" width="205px" height="355px"
	 viewBox="0 0 205 355" xml:space="preserve">
<g>
	<g>
		<path fill="#D1AE43" stroke="#FFFFFF" stroke-width="8" stroke-miterlimit="10" d="M188.496,38.926
			c-20.661-9.526-41.209-19.297-61.808-28.959c-1.439-0.675-2.956-1.187-4.436-1.774c-1.254,0-2.508,0-3.762,0
			c-0.491,0.215-0.967,0.48-1.477,0.636c-3.211,0.983-5.714,2.912-7.16,5.918c-3.942,8.195-7.761,16.45-11.628,24.681
			c24.932,11.71,49.865,23.418,74.794,35.131c4.24,1.992,8.464,4.015,12.696,6.025c4.179-9.206,8.358-18.412,12.537-27.619
			c0-1.129,0-2.257,0-3.386C197.068,44.129,193.4,41.187,188.496,38.926z"/>
		<path fill="#D1AE43" stroke="#FFFFFF" stroke-width="8" stroke-miterlimit="10" d="M98.224,39.428
			c-1.695,3.545-3.389,7.089-5.083,10.634c0.564,0.362,1.098,0.789,1.698,1.076c8.123,3.883,16.254,7.745,24.384,11.613
			c4.364,2.009,8.744,3.986,13.089,6.035c7.34,3.462,14.658,6.969,21.985,10.457c0.047,0.021,0.093,0.042,0.14,0.063
			c-0.047-0.021-0.094-0.042-0.141-0.063v0.001c-7.327-3.488-14.644-6.995-21.983-10.456c-4.345-2.049-8.724-4.026-13.088-6.035
			c-2.419,5.219-4.821,10.446-7.261,15.655c-4.828,10.308-9.674,20.608-14.518,30.908c-6.069,12.904-12.146,25.805-18.215,38.709
			c-4.844,10.3-9.67,20.609-14.524,30.905c-6.588,13.974-13.206,27.935-19.788,41.913c-1.997,4.24-3.918,8.517-5.873,12.777
			c-0.872-0.328-1.74-0.666-2.617-0.984c-3.274-1.186-6.545-1.234-9.868-0.121c-1.844,0.617-3.647,0.724-5.291,0.39
			c1.644,0.333,3.445,0.226,5.289-0.391c3.322-1.113,6.594-1.065,9.868,0.121c0.876,0.317,1.745,0.655,2.618,0.984
			c1.956-4.26,3.876-8.536,5.873-12.777c6.582-13.977,13.2-27.938,19.788-41.913c4.854-10.296,9.68-20.605,14.524-30.905
			c6.069-12.904,12.146-25.805,18.215-38.709c4.844-10.3,9.69-20.6,14.518-30.908c2.44-5.209,4.842-10.436,7.261-15.655
			c-8.13-3.868-16.261-7.731-24.384-11.613c-0.6-0.287-1.134-0.714-1.698-1.076c-3.709,7.935-7.403,15.878-11.131,23.804
			c-21.394,45.504-42.813,90.996-64.16,136.522c-1.687,3.599-2.893,7.422-4.323,11.141c0,0.001,0,0.002,0,0.003
			c-0.262,0.407-0.715,0.798-0.751,1.224c-0.29,3.417-0.564,6.837-0.725,10.261c-0.42,8.921-0.793,17.845-1.156,26.769
			c-0.17,4.185-0.259,8.373-0.411,12.558c-0.104,2.871-0.237,5.741-0.387,8.61c-0.334,6.416-0.687,12.831-1.032,19.247l0,0
			c-0.546,12.585-1.073,25.17-1.655,37.754c-0.108,2.329-0.436,4.647-0.663,6.97c0,0.627,0,1.254,0.001,1.881
			c0.469-0.264,1.009-0.449,1.398-0.801c10.852-9.832,21.691-19.679,32.523-29.533c0.403-0.366,0.714-0.833,1.067-1.253
			c0,0,0,0,0.001,0c0.597-0.421,1.249-0.782,1.784-1.271c3.507-3.203,6.967-6.457,10.483-9.65
			c7.721-7.012,15.464-14.001,23.205-20.991c3.476-3.138,6.989-6.235,10.447-9.392c3.785-3.456,7.536-6.948,11.265-10.464
			c0.286-0.27,0.273-0.858,0.399-1.298c-2.152,0.909-4.23,2.114-6.47,2.663c-1.852,0.455-3.294,0.474-4.452,0.012
			c1.158,0.462,2.599,0.442,4.451-0.012c2.24-0.549,4.319-1.754,6.47-2.663c1.055-1.537,2.343-2.964,3.129-4.628
			c13.142-27.843,26.222-55.717,39.315-83.584c12.934-27.527,25.867-55.053,38.8-82.58c-6.602-3.067-13.203-6.14-19.811-9.199
			c-0.053-0.025-0.107-0.048-0.16-0.073c0.054,0.025,0.108,0.048,0.161,0.073c6.607,3.058,13.207,6.131,19.81,9.199
			c1.717-3.592,3.434-7.184,5.151-10.777c-4.231-2.01-8.456-4.033-12.696-6.025C148.089,62.845,123.156,51.138,98.224,39.428z
			 M48.363,244.134c0.016,0.051,0.038,0.096,0.053,0.147c0-0.001-0.001-0.002-0.001-0.003
			C48.4,244.228,48.378,244.184,48.363,244.134z"/>
	</g>
	<g>
		<g>
			<path fill="#D1563A" d="M98.225,39.428c3.867-8.231,7.686-16.486,11.628-24.681c1.446-3.006,3.949-4.935,7.16-5.918
				c0.51-0.156,0.986-0.421,1.477-0.636c1.254,0,2.508,0,3.762,0c1.48,0.587,2.997,1.099,4.436,1.774
				c20.599,9.662,41.147,19.433,61.808,28.959c4.904,2.261,8.572,5.203,9.756,10.653c0,1.129,0,2.257,0,3.386
				c-4.179,9.207-8.358,18.413-12.537,27.619c-4.232-2.01-8.456-4.033-12.696-6.025C148.09,62.846,123.157,51.138,98.225,39.428z"/>
			<path fill="#5E5E5E" d="M6.748,344.926c0.227-2.323,0.555-4.641,0.663-6.97c0.582-12.584,1.109-25.17,1.655-37.755
				c3.187,1.418,6.392,2.798,9.558,4.261c7.714,3.565,15.411,7.169,23.114,10.757c-0.354,0.42-0.665,0.888-1.068,1.254
				c-10.832,9.854-21.671,19.701-32.523,29.533c-0.389,0.352-0.929,0.537-1.398,0.801C6.748,346.18,6.748,345.553,6.748,344.926z"/>
			<path fill="#E3C66F" d="M180.564,91.362c-12.933,27.527-25.866,55.053-38.8,82.58c-13.093,27.867-26.173,55.741-39.315,83.584
				c-0.786,1.664-2.074,3.091-3.129,4.628c-2.151,0.909-4.23,2.114-6.47,2.663c-4.233,1.038-6.321-0.196-7.787-4.253
				c-1.162-3.216-2.951-5.909-5.908-7.691c-1.642-0.99-3.374-1.829-5.065-2.737c1.612-3.589,3.174-7.201,4.843-10.762
				c6.983-14.898,14.001-29.779,21-44.669c4.79-10.19,9.559-20.391,14.358-30.577c6.507-13.81,13.034-27.609,19.551-41.414
				c2.244-4.753,4.489-9.505,6.725-14.261c4.579-9.735,9.153-19.473,13.729-29.21c2.153,0.972,4.313,1.927,6.457,2.92
				C167.361,85.222,173.962,88.295,180.564,91.362z"/>
			<path fill="#E7D7BB" d="M74.09,250.136c1.691,0.907,3.424,1.747,5.066,2.737c2.957,1.783,4.746,4.476,5.908,7.691
				c1.467,4.058,3.555,5.292,7.787,4.253c2.24-0.549,4.318-1.754,6.47-2.663c-0.126,0.44-0.113,1.028-0.399,1.298
				c-3.729,3.516-7.48,7.008-11.265,10.464c-3.458,3.157-6.971,6.254-10.447,9.392c-7.741,6.99-15.484,13.979-23.205,20.991
				c-3.516,3.193-6.976,6.447-10.483,9.65c-0.535,0.489-1.187,0.85-1.784,1.271c-7.703-3.588-15.4-7.192-23.114-10.757
				c-3.166-1.463-6.371-2.843-9.558-4.261c0.345-6.416,0.698-12.831,1.032-19.247c0.15-2.869,0.283-5.739,0.387-8.61
				c0.152-4.185,0.241-8.373,0.411-12.558c0.363-8.924,0.736-17.848,1.156-26.769c0.161-3.424,0.435-6.844,0.725-10.261
				c0.036-0.427,0.491-0.818,0.753-1.226c0.131,1.17,0.176,2.359,0.409,3.509c1.254,6.203,6.722,9.45,12.622,7.475
				c3.323-1.113,6.594-1.065,9.868,0.121c0.877,0.318,1.746,0.656,2.618,0.984c4.6,2.254,7.854,5.672,9.368,10.658
				c0.518,1.705,1.703,2.838,3.383,3.533c1.848,0.765,3.578,1.855,5.468,2.464c1.36,0.438,3.076,0.809,4.328,0.359
				C65.76,249.138,69.864,248.829,74.09,250.136z"/>
			<path fill="#6E8085" d="M180.564,91.362c-6.603-3.068-13.203-6.141-19.81-9.199c-2.143-0.992-4.304-1.947-6.457-2.92
				c-7.327-3.488-14.645-6.995-21.985-10.457c-4.345-2.049-8.725-4.026-13.089-6.035c-8.13-3.868-16.261-7.73-24.384-11.613
				c-0.6-0.287-1.134-0.714-1.698-1.076c1.694-3.545,3.388-7.089,5.083-10.634c24.932,11.71,49.865,23.417,74.795,35.132
				c4.24,1.992,8.465,4.015,12.696,6.025C183.998,84.178,182.281,87.77,180.564,91.362z"/>
			<path fill="#E3C66F" d="M93.142,50.063c0.564,0.362,1.098,0.789,1.698,1.076c8.123,3.882,16.254,7.745,24.384,11.613
				c-2.419,5.219-4.821,10.446-7.261,15.655c-4.828,10.308-9.674,20.608-14.518,30.908c-6.069,12.904-12.146,25.805-18.215,38.709
				c-4.844,10.3-9.67,20.609-14.524,30.905c-6.588,13.975-13.206,27.936-19.788,41.913c-1.997,4.241-3.917,8.517-5.873,12.777
				c-0.873-0.329-1.742-0.667-2.618-0.984c-3.274-1.186-6.546-1.234-9.868-0.121c-5.9,1.976-11.368-1.272-12.622-7.475
				c-0.233-1.15-0.277-2.338-0.409-3.509c1.43-3.719,2.636-7.542,4.323-11.141c21.347-45.526,42.766-91.018,64.16-136.522
				C85.739,65.941,89.433,57.998,93.142,50.063z"/>
			<path fill="#D1AE43" d="M39.046,233.62c1.955-4.26,3.876-8.537,5.873-12.777c6.582-13.978,13.2-27.939,19.788-41.913
				c4.854-10.296,9.68-20.605,14.524-30.905c6.069-12.904,12.146-25.805,18.215-38.709c4.844-10.3,9.69-20.6,14.518-30.908
				c2.44-5.209,4.842-10.436,7.261-15.655c4.364,2.009,8.743,3.986,13.088,6.035c7.339,3.461,14.657,6.969,21.985,10.457
				c-4.576,9.737-9.15,19.475-13.729,29.21c-2.237,4.756-4.482,9.508-6.725,14.261c-6.517,13.804-13.045,27.604-19.551,41.414
				c-4.799,10.186-9.568,20.387-14.358,30.577c-6.999,14.89-14.018,29.771-21,44.669c-1.669,3.562-3.232,7.173-4.843,10.762
				c-4.226-1.306-8.33-0.997-12.497,0.499c-1.252,0.449-2.967,0.079-4.328-0.359c-1.891-0.609-3.62-1.699-5.468-2.464
				c-1.68-0.695-2.865-1.828-3.383-3.533C46.9,239.292,43.646,235.873,39.046,233.62z"/>
		</g>
	</g>
</g>
</svg>
