<?xml version="1.0" encoding="utf-8"?>
<!-- Generator: Adobe Illustrator 17.0.0, SVG Export Plug-In . SVG Version: 6.00 Build 0)  -->
<!DOCTYPE svg PUBLIC "-//W3C//DTD SVG 1.1 Basic//EN" "http://www.w3.org/Graphics/SVG/1.1/DTD/svg11-basic.dtd">
<svg version="1.1" baseProfile="basic" id="Слой_1"
	 xmlns="http://www.w3.org/2000/svg" xmlns:xlink="http://www.w3.org/1999/xlink" x="0px" y="0px" width="107.81px"
	 height="232.249px" viewBox="0 0 107.81 232.249" xml:space="preserve">
<path fill="#D16234" d="M56.129,0c-15.021,31.938-30.04,63.876-45.024,95.831c-1.687,3.598-2.893,7.422-4.323,11.141
	c-0.261,0.408-0.716,0.799-0.753,1.226c-0.291,3.416-0.564,6.836-0.725,10.261c-0.419,8.921-0.793,17.845-1.156,26.769
	c-0.17,4.185-0.259,8.372-0.411,12.558c-0.104,2.871-0.238,5.741-0.387,8.61c-0.334,6.416-0.687,12.831-1.032,19.247
	c-0.546,12.585-1.073,25.171-1.655,37.755c-0.108,2.328-0.436,4.647-0.663,6.97c0,0.627,0,1.254,0,1.881
	c0.47-0.263,1.01-0.448,1.398-0.801c10.852-9.832,21.691-19.678,32.523-29.533c0.403-0.367,0.714-0.834,1.068-1.254l0,0
	c0.597-0.42,1.249-0.782,1.784-1.271c3.507-3.203,6.967-6.458,10.483-9.65c7.722-7.012,15.464-14,23.205-20.991
	c3.475-3.138,6.989-6.235,10.447-9.392c3.785-3.455,7.537-6.947,11.265-10.464c0.286-0.27,0.273-0.858,0.399-1.298
	c1.055-1.537,2.344-2.964,3.129-4.628c4.044-8.568,8.075-17.142,12.109-25.715C97.395,96.047,86.46,74.949,77.235,53.425
	C69.366,35.584,62.62,17.745,56.129,0z"/>
</svg>
