<?xml version="1.0" encoding="utf-8"?>
<!-- Generator: Adobe Illustrator 17.0.0, SVG Export Plug-In . SVG Version: 6.00 Build 0)  -->
<!DOCTYPE svg PUBLIC "-//W3C//DTD SVG 1.1 Basic//EN" "http://www.w3.org/Graphics/SVG/1.1/DTD/svg11-basic.dtd">
<svg version="1.1" baseProfile="basic" id="Слой_1"
	 xmlns="http://www.w3.org/2000/svg" xmlns:xlink="http://www.w3.org/1999/xlink" x="0px" y="0px" width="205px" height="355px"
	 viewBox="0 0 205 355" xml:space="preserve">
<path fill="#A8A8A8" stroke="#272525" stroke-width="3" stroke-miterlimit="10" d="M41.738,315.218
	c0.597-0.42,1.249-0.782,1.784-1.271c3.507-3.203,6.967-6.458,10.483-9.65c7.722-7.012,15.464-14,23.205-20.991
	c3.475-3.138,6.989-6.235,10.447-9.392c3.785-3.455,7.537-6.947,11.265-10.464c0.286-0.27,0.273-0.858,0.399-1.298
	c1.055-1.537,2.344-2.964,3.129-4.628c13.142-27.844,26.221-55.717,39.315-83.584c12.933-27.527,25.867-55.053,38.8-82.58
	c1.717-3.592,3.434-7.184,5.151-10.777c4.179-9.206,8.358-18.412,12.537-27.619c0-1.129,0-2.257,0-3.386
	c-1.184-5.45-4.851-8.392-9.756-10.653c-20.661-9.526-41.209-19.298-61.808-28.959c-1.439-0.675-2.956-1.186-4.436-1.774
	c-1.254,0-2.508,0-3.762,0c-0.492,0.215-0.968,0.48-1.478,0.636c-3.211,0.983-5.714,2.911-7.16,5.918
	c-3.942,8.195-7.76,16.45-11.628,24.681c-1.694,3.545-3.388,7.089-5.083,10.634c-3.709,7.936-7.403,15.878-11.13,23.806
	c-21.394,45.504-42.813,90.996-64.16,136.522c-1.687,3.598-2.893,7.422-4.323,11.141c-0.261,0.408-0.716,0.799-0.753,1.226
	c-0.291,3.416-0.564,6.836-0.725,10.261c-0.419,8.921-0.793,17.845-1.156,26.769c-0.17,4.185-0.259,8.372-0.411,12.558
	c-0.104,2.871-0.238,5.741-0.387,8.61c-0.334,6.416-0.687,12.831-1.032,19.247c-0.546,12.585-1.073,25.171-1.655,37.755
	c-0.108,2.328-0.436,4.647-0.663,6.97c0,0.627,0,1.254,0,1.881c0.47-0.263,1.01-0.448,1.398-0.801
	c10.852-9.832,21.691-19.678,32.523-29.533C41.072,316.106,41.384,315.639,41.738,315.218"/>
</svg>
