<?xml version="1.0" encoding="utf-8"?>
<!-- Generator: Adobe Illustrator 17.0.0, SVG Export Plug-In . SVG Version: 6.00 Build 0)  -->
<!DOCTYPE svg PUBLIC "-//W3C//DTD SVG 1.1 Basic//EN" "http://www.w3.org/Graphics/SVG/1.1/DTD/svg11-basic.dtd">
<svg version="1.1" baseProfile="basic" id="Слой_1"
	 xmlns="http://www.w3.org/2000/svg" xmlns:xlink="http://www.w3.org/1999/xlink" x="0px" y="0px" width="360px" height="325px"
	 viewBox="0 0 360 325" xml:space="preserve">
<path fill="#A8A8A8" stroke="#272525" stroke-width="3" stroke-miterlimit="10" d="M123.815,133.02
	c-15.86,17.901-33.301,47.942-36.815,77.206c24.046-13.269,41.715-37.193,68.681-46.126c3.866-8.673,9.214-17.128,16.081-24.89
	c53.355-60.324,40.039-93.61,35.322-101.68c-0.123-0.269-0.233-0.542-0.364-0.809c-10.338-21.097-41.414-27.066-69.414-13.343
	c-18.677,9.16-31.251,24.775-34.486,40.423c-1.244,1.534-1.991,3.486-1.991,5.614c0,1.642,0.452,3.176,1.226,4.499
	c0.274,4.324,1.344,8.541,3.286,12.506c5.716,11.655,17.767,18.68,32.125,20.327c-1.467,2.424-7.579,11.753-14.734,11.753
	c0,0,9.587,1.37,13.017-0.685v0.589C132.289,123.051,128.333,127.922,123.815,133.02z"/>
<path fill="#A8A8A8" stroke="#272525" stroke-width="3" stroke-miterlimit="10" d="M164.401,282.985
	c32.373-34.461,65.79-63.701,96.074-101.295c7.014-8.572,13.444-17.146,19.295-26.152c-12.945-2.353-27.227-1.305-33.609-1.305
	c-13.314,0-78.134,1.299-94.751,21.597c1.158-4.072,2.635-8.145,4.429-12.17c-26.966,8.932-44.636,32.856-68.681,46.126
	c-0.529,4.406-0.75,8.795-0.595,13.122c-15.455,3.376-52.548,12.707-64.368,26.675c-9.473,11.195,2.962,24.008,7.567,34.196
	c-1.751,1.396-2.778,3.061-2.778,4.854c0,0.004,0.001,0.007,0.001,0.011c-2.136,1.329-3.425,3.04-3.425,4.91
	c0,0.062,0.015,0.122,0.018,0.184c-0.866,0.6-1.53,1.281-1.937,2.021C17.749,296.58,15,298.565,15,300.882
	c0,3.048,4.755,5.522,10.62,5.522c3.922,0,7.337-1.107,9.178-2.749c3.633-0.26,6.739-1.363,8.575-2.92
	c3.047-0.584,5.616-1.672,7.334-3.077c0.887-0.428,1.674-0.91,2.336-1.439c4.908-1.565,8.192-4.371,8.192-7.586
	c0-0.815-0.228-1.601-0.622-2.351c1.079-1.875,1.587-4.042,1.307-6.552c-1.645-14.816,13.847-23.471,34.859-24.222
	c10.455,15.308,29.764,27.497,61.721,33.402C160.519,287.004,162.493,285.039,164.401,282.985z"/>
<path fill="#A8A8A8" stroke="#272525" stroke-width="3" stroke-miterlimit="10" d="M344.644,196.452
	c-0.762-12.959-20.687-19.905-40.699-23.618c-3.14-10.157-13.401-14.785-24.675-16.834c-5.851,9.006-12.281,17.58-19.295,26.152
	c-30.284,37.594-63.701,66.834-96.074,101.295c-1.907,2.054-3.882,4.019-5.901,5.925c2.829,0.523,5.746,1.001,8.776,1.423
	C288.959,307.805,346.185,222.746,344.644,196.452z"/>
</svg>
