<?xml version="1.0" encoding="utf-8"?>
<!-- Generator: Adobe Illustrator 17.0.0, SVG Export Plug-In . SVG Version: 6.00 Build 0)  -->
<!DOCTYPE svg PUBLIC "-//W3C//DTD SVG 1.1 Basic//EN" "http://www.w3.org/Graphics/SVG/1.1/DTD/svg11-basic.dtd">
<svg version="1.1" baseProfile="basic" id="Слой_1"
	 xmlns="http://www.w3.org/2000/svg" xmlns:xlink="http://www.w3.org/1999/xlink" x="0px" y="0px" width="260.5px" height="360px"
	 viewBox="0 0 260.5 360" xml:space="preserve">
<path fill="#A8A8A8" stroke="#272525" stroke-width="3" stroke-miterlimit="10" d="M209.365,143.191
	c-0.189-0.243-0.384-0.494-0.558-0.71c-0.074-0.217-0.13-0.432-0.214-0.65c-14.265-37.091-24.448-88.074-34.63-108.17
	c-1.831-3.605-4.467-6.311-7.535-8.328c-3.756-3.184-10.812-7.663-22.266-9.599C134.189,14.053,125.546,8,125.546,8
	s0.222,5.715,5.097,8.235c0.77,0.408,2.963,1.901,4.339,2.869c-2.333-1.47-8.036-4.374-16.983-4.374c0,0,5.424,3.907,10.929,5.914
	c-5.692-0.514-13.425-0.758-16.691,0.466c0,0,1.563,2.041,6.299,2.764c-11.664,7.197-18.685,28.273-24.027,51.508
	c-4.333,18.814-12.471,39.314-20.824,59.456c-0.501,0.478-1.077,1.041-1.685,1.642C113.689,157.501,167.043,161.731,209.365,143.191
	z"/>
<path fill="#A8A8A8" stroke="#272525" stroke-width="3" stroke-miterlimit="10" d="M58.111,260.563
	c-1.754,1.169-3.796,2.052-5.983,3.07c5.298,18.824,14.026,35.168,25.538,47.566C59.364,313.509,25,318.366,25,322.268
	c0,5.319,40.777,26.594,53.199,28.379c10.104,1.444,27.256-12.396,33.284-17.59c7.04,2.214,14.525,3.395,22.4,3.395
	c8.715,0,17.153-1.467,25.169-4.199l-2.832,2.427c0,0,23.06,21.275,35.47,19.502c12.41-1.761,53.199-23.048,53.199-28.367
	c0-4.131-38.508-9.331-55.706-11.448c11.421-10.197,20.934-23.469,27.755-38.836C173.799,241.883,107.883,223.235,58.111,260.563z"
	/>
<path fill="#A8A8A8" stroke="#272525" stroke-width="3" stroke-miterlimit="10" d="M231.034,185.903
	c-8.255-22.958-17.361-36.38-21.902-42.193c-42.321,18.54-95.676,14.31-137.365-6.71c-6.633,6.564-19.226,20.403-29.804,40.051
	c-16.598,30.816-36.321,94.046-33.732,102.63c1.907,6.314,24.456-11.165,40.396-31.702c0.926,5.588,2.149,11.002,3.622,16.235
	c2.187-1.018,4.23-1.901,5.983-3.07c49.771-37.328,115.688-18.68,158.826,14.967c1.525-3.436,2.919-6.974,4.165-10.608
	c11.979,17.144,26.445,29.947,28.708,24.582C253.499,281.594,244.168,222.435,231.034,185.903z"/>
</svg>
