<?xml version="1.0" encoding="utf-8"?>
<!-- Generator: Adobe Illustrator 17.0.0, SVG Export Plug-In . SVG Version: 6.00 Build 0)  -->
<!DOCTYPE svg PUBLIC "-//W3C//DTD SVG 1.1 Basic//EN" "http://www.w3.org/Graphics/SVG/1.1/DTD/svg11-basic.dtd">
<svg version="1.1" baseProfile="basic" id="Слой_1"
	 xmlns="http://www.w3.org/2000/svg" xmlns:xlink="http://www.w3.org/1999/xlink" x="0px" y="0px" width="219.888px"
	 height="114.285px" viewBox="0 0 219.888 114.285" xml:space="preserve">
<path fill="#3FA556" d="M33.111,20.563c-1.754,1.169-3.796,2.052-5.983,3.07c5.298,18.824,14.026,35.168,25.538,47.566
	C34.364,73.509,0,78.366,0,82.268c0,5.319,40.777,26.594,53.199,28.379c10.104,1.444,27.256-12.396,33.284-17.59
	c7.04,2.214,14.525,3.395,22.4,3.395c8.715,0,17.153-1.467,25.168-4.199l-2.832,2.427c0,0,23.06,21.275,35.47,19.502
	c12.41-1.761,53.199-23.048,53.199-28.367c0-4.131-38.508-9.331-55.706-11.448c11.421-10.197,20.934-23.469,27.755-38.836
	C148.799,1.883,82.882-16.765,33.111,20.563z"/>
</svg>
