<?xml version="1.0" encoding="utf-8"?>
<!-- Generator: Adobe Illustrator 17.0.0, SVG Export Plug-In . SVG Version: 6.00 Build 0)  -->
<!DOCTYPE svg PUBLIC "-//W3C//DTD SVG 1.1 Basic//EN" "http://www.w3.org/Graphics/SVG/1.1/DTD/svg11-basic.dtd">
<svg version="1.1" baseProfile="basic" id="Слой_1"
	 xmlns="http://www.w3.org/2000/svg" xmlns:xlink="http://www.w3.org/1999/xlink" x="0px" y="0px" width="242.697px"
	 height="154.322px" viewBox="0 0 242.697 154.322" xml:space="preserve">
<path fill="#EEBF31" d="M223.034,48.904c-8.255-22.958-17.361-36.38-21.902-42.193C158.81,25.25,105.456,21.021,63.767,0
	c-6.633,6.564-19.226,20.403-29.804,40.051C17.365,70.867-2.358,134.097,0.231,142.681c1.907,6.314,24.456-11.165,40.396-31.702
	c0.926,5.588,2.149,11.002,3.622,16.235c2.187-1.018,4.23-1.901,5.983-3.07c49.771-37.328,115.688-18.68,158.826,14.967
	c1.525-3.436,2.919-6.974,4.165-10.608c11.979,17.144,26.445,29.947,28.708,24.582C245.499,144.594,236.168,85.435,223.034,48.904z"
	/>
</svg>
