<?xml version="1.0" encoding="utf-8"?>
<!-- Generator: Adobe Illustrator 17.0.0, SVG Export Plug-In . SVG Version: 6.00 Build 0)  -->
<!DOCTYPE svg PUBLIC "-//W3C//DTD SVG 1.1 Basic//EN" "http://www.w3.org/Graphics/SVG/1.1/DTD/svg11-basic.dtd">
<svg version="1.1" baseProfile="basic" id="Слой_1"
	 xmlns="http://www.w3.org/2000/svg" xmlns:xlink="http://www.w3.org/1999/xlink" x="0px" y="0px" width="137.365px"
	 height="146.953px" viewBox="0 0 137.365 146.953" xml:space="preserve">
<path fill="#CE953A" d="M137.365,135.191c-0.189-0.243-0.384-0.494-0.558-0.71c-0.074-0.217-0.13-0.432-0.214-0.65
	c-14.265-37.091-24.448-88.074-34.63-108.17c-1.831-3.605-4.467-6.31-7.535-8.328c-3.756-3.184-10.812-7.663-22.266-9.599
	C62.189,6.053,53.546,0,53.546,0s0.222,5.715,5.097,8.235c0.77,0.408,2.963,1.901,4.339,2.869C60.65,9.634,54.946,6.73,45.999,6.73
	c0,0,5.424,3.907,10.929,5.914c-5.692-0.514-13.425-0.758-16.691,0.466c0,0,1.563,2.041,6.299,2.764
	c-11.664,7.197-18.685,28.273-24.027,51.508c-4.333,18.814-12.471,39.314-20.824,59.456c-0.501,0.478-1.077,1.041-1.685,1.642
	C41.689,149.501,95.044,153.731,137.365,135.191z"/>
</svg>
