<?xml version="1.0" encoding="utf-8"?>
<!-- Generator: Adobe Illustrator 17.0.0, SVG Export Plug-In . SVG Version: 6.00 Build 0)  -->
<!DOCTYPE svg PUBLIC "-//W3C//DTD SVG 1.1 Basic//EN" "http://www.w3.org/Graphics/SVG/1.1/DTD/svg11-basic.dtd">
<svg version="1.1" baseProfile="basic" id="Слой_1"
	 xmlns="http://www.w3.org/2000/svg" xmlns:xlink="http://www.w3.org/1999/xlink" x="0px" y="0px" width="260.5px" height="360px"
	 viewBox="0 0 260.5 360" xml:space="preserve">
<path fill="#E7AB31" stroke="#FFFFFF" stroke-width="6" stroke-miterlimit="10" d="M231.033,185.383
	c-8.6-23.918-18.139-37.51-22.46-42.905c-0.073-0.216-0.129-0.43-0.214-0.647c-14.265-37.091-24.448-88.074-34.63-108.17
	c-1.831-3.605-4.467-6.311-7.535-8.328c-3.756-3.184-10.812-7.663-22.266-9.599C133.956,14.053,125.313,8,125.313,8
	s0.221,5.715,5.097,8.235c0.77,0.408,2.963,1.901,4.339,2.869c-2.333-1.47-8.036-4.374-16.983-4.374c0,0,5.424,3.907,10.929,5.914
	c-5.692-0.514-13.425-0.758-16.691,0.466c0,0,1.563,2.041,6.299,2.764c-11.664,7.197-18.686,28.273-24.027,51.508
	c-4.333,18.815-12.472,39.316-20.825,59.46c-5.972,5.694-19.941,20.246-31.488,41.691c-16.597,30.815-36.321,94.045-33.732,102.63
	c1.907,6.313,24.459-11.157,40.398-31.691c4.256,25.682,14.447,47.947,29.158,63.789c-18.302,2.31-52.667,7.167-52.667,11.069
	c0,5.319,40.777,26.594,53.199,28.379c10.104,1.444,27.257-12.397,33.284-17.591c7.04,2.214,14.526,3.395,22.4,3.395
	c8.715,0,17.153-1.467,25.169-4.199l-2.833,2.427c0,0,23.06,21.275,35.47,19.502c12.41-1.762,53.199-23.048,53.199-28.367
	c0-4.131-38.508-9.331-55.706-11.447c13.973-12.476,25.096-29.55,31.919-49.44c11.978,17.143,26.446,29.941,28.708,24.576
	C253.498,281.074,244.167,221.915,231.033,185.383z"/>
<g>
	<path fill="#E7AB31" d="M181.171,313.466c0,0,63.837,7.092,63.837,12.41c0,5.319-40.789,26.605-53.199,28.367
		c-12.41,1.773-35.47-19.502-35.47-19.502L181.171,313.466z"/>
	<path fill="#E7AB31" d="M88.956,309.92c0,0-63.836,7.092-63.836,12.41c0,5.319,40.777,26.594,53.199,28.379
		c12.41,1.773,35.458-19.514,35.458-19.514L88.956,309.92z"/>
	<path fill="#272525" d="M209.443,148.083c0.047-2.041-0.257-4.117-1.084-6.252c-14.265-37.091-24.448-88.074-34.63-108.17
		c-1.831-3.605-4.467-6.311-7.535-8.328c-3.756-3.184-10.812-7.663-22.266-9.599C133.956,14.053,125.313,8,125.313,8
		s0.221,5.715,5.097,8.235c0.77,0.408,2.963,1.901,4.339,2.869c-2.333-1.47-8.036-4.374-16.983-4.374c0,0,5.424,3.907,10.929,5.914
		c-5.692-0.514-13.425-0.758-16.691,0.466c0,0,1.563,2.041,6.299,2.764c-11.664,7.197-18.686,28.273-24.027,51.508
		c-11.209,48.673-47.88,108.637-47.88,144.469c0,64.863,35.283,116.662,87.607,116.662c52.313,0,94.734-52.58,94.734-117.432
		C228.737,192.394,221.539,167.807,209.443,148.083z"/>
	
		<linearGradient id="SVGID_1_" gradientUnits="userSpaceOnUse" x1="677.0201" y1="253.1065" x2="709.8644" y2="542.7334" gradientTransform="matrix(1 0 0 1 -561.92 -270.32)">
		<stop  offset="0.0121" style="stop-color:#D2D0D3"/>
		<stop  offset="1" style="stop-color:#FCF8FA"/>
	</linearGradient>
	<path fill="url(#SVGID_1_)" d="M199.237,155.012c0.047-1.773-0.222-3.593-0.921-5.447c-12.212-32.286-20.925-76.667-29.649-94.151
		c-4.421-8.864-14.219-11.501-22.803-11.944c-4.281,3.15-6.695,8.783-6.695,8.783c-1.224-4.059-1.586-6.788-1.493-8.643
		c-3.802,0.327-6.497,0.863-7.138,1.003c-7.722,6.229-8.386,15.012-8.386,15.012c-2.438-5.972-1.493-10.369,0.14-13.344
		c-10.615,5.599-16.878,24.518-21.614,45.443c-9.599,42.375-32.216,50.633-32.216,81.822c0,56.453,24.518,88.727,69.295,88.727
		s65.073-28.903,65.073-85.357C202.831,153.694,209.596,172.181,199.237,155.012z"/>
	<path fill="#272525" d="M196.065,141.423c0,0,3.196,64.175,9.658,91.899c6.462,27.725,40.625,64.735,44.206,56.243
		c3.569-8.491-5.762-67.65-18.896-104.182c-11.559-32.146-24.82-45.652-24.82-45.652L196.065,141.423z"/>
	<path fill="#272525" d="M80.291,136.35c0,0-7.862,61.597-18.336,88.844c-10.474,27.259-51.134,62.542-53.724,53.969
		c-2.589-8.585,17.135-71.815,33.732-102.63c15.128-28.098,34.432-44.381,34.432-44.381L80.291,136.35z"/>
	<g>
		<path fill="#272525" d="M141.864,173.371c0,0,31.924-34.292,31.924-2.368S141.864,173.371,141.864,173.371z"/>
		<path fill="#272525" d="M138.901,172.228c0,0-31.912,34.28-31.912,2.368C106.989,142.671,138.901,172.228,138.901,172.228z"/>
	</g>
	<g>
		<path fill="#E0A1C3" d="M186.034,103.76c0,3.884-3.173,7.022-7.08,7.022s-7.08-3.138-7.08-7.022s3.172-7.021,7.08-7.021
			S186.034,99.876,186.034,103.76z"/>
		<path fill="#E0A1C3" d="M106.674,101.101c0,3.884-3.161,7.022-7.068,7.022c-3.919,0-7.092-3.138-7.092-7.022
			s3.173-7.022,7.092-7.022C103.513,94.079,106.674,97.217,106.674,101.101z"/>
		<g>
			<path fill="#272525" d="M167.163,100.529c0,4.048-3.277,7.336-7.336,7.336c-4.047,0-7.325-3.289-7.325-7.336
				s3.277-7.337,7.325-7.337C163.885,93.193,167.163,96.482,167.163,100.529z"/>
			<path fill="#FFFFFF" d="M160.223,98.605c0,1.913-1.563,3.476-3.476,3.476c-1.925,0-3.476-1.563-3.476-3.476
				c0-1.925,1.551-3.476,3.476-3.476C158.659,95.129,160.223,96.681,160.223,98.605z"/>
			<path fill="#FFFFFF" d="M163.57,100.156c0,0.63-0.514,1.143-1.143,1.143c-0.63,0-1.143-0.513-1.143-1.143
				c0-0.641,0.513-1.154,1.143-1.154S163.57,99.515,163.57,100.156z"/>
		</g>
		<g>
			<path fill="#272525" d="M126.956,99.363c0,4.047-3.289,7.337-7.325,7.337c-4.059,0-7.336-3.289-7.336-7.337
				s3.278-7.325,7.336-7.325C123.668,92.038,126.956,95.316,126.956,99.363z"/>
			<path fill="#FFFFFF" d="M123.901,99.083c0,0.63-0.513,1.143-1.143,1.143c-0.641,0-1.155-0.513-1.155-1.143
				c0-0.641,0.514-1.154,1.155-1.154C123.388,97.929,123.901,98.442,123.901,99.083z"/>
			<path fill="#FFFFFF" d="M120.005,97.438c0,1.913-1.551,3.464-3.476,3.464c-1.913,0-3.464-1.551-3.464-3.464
				c0-1.924,1.552-3.476,3.464-3.476C118.455,93.963,120.005,95.514,120.005,97.438z"/>
		</g>
	</g>
	<path fill="#E7AB31" d="M128.263,106.688c0,0,11.232-12.411,24.238,0c0,0-7.092,8.876-11.816,8.876
		C135.951,115.564,128.263,106.688,128.263,106.688z"/>
</g>
</svg>
