<?xml version="1.0" encoding="utf-8"?>
<!-- Generator: Adobe Illustrator 17.0.0, SVG Export Plug-In . SVG Version: 6.00 Build 0)  -->
<!DOCTYPE svg PUBLIC "-//W3C//DTD SVG 1.1 Basic//EN" "http://www.w3.org/Graphics/SVG/1.1/DTD/svg11-basic.dtd">
<svg version="1.1" baseProfile="basic" id="Слой_1"
	 xmlns="http://www.w3.org/2000/svg" xmlns:xlink="http://www.w3.org/1999/xlink" x="0px" y="0px" width="360px" height="325px"
	 viewBox="0 0 360 325" xml:space="preserve">
<path fill="#A8A8A8" stroke="#272525" stroke-width="3" stroke-miterlimit="10" d="M344.557,196.258
	c-0.762-12.959-20.687-19.905-40.699-23.618c-6.746-21.819-46.343-18.138-58.283-18.138c-13.314,0-78.134,1.299-94.751,21.597
	c3.652-12.845,10.456-25.696,20.51-37.06c53.355-60.324,40.039-93.61,35.322-101.68c-0.123-0.269-0.233-0.542-0.364-0.809
	c-10.338-21.097-41.414-27.066-69.414-13.343c-18.677,9.16-31.251,24.775-34.486,40.423c-1.244,1.534-1.991,3.486-1.991,5.614
	c0,1.642,0.452,3.176,1.226,4.499c0.274,4.324,1.344,8.541,3.286,12.506c5.716,11.655,17.767,18.68,32.125,20.327
	c-1.467,2.424-7.579,11.753-14.734,11.753c0,0,9.587,1.37,13.017-0.685v0.589c-3.46,4.646-7.416,9.517-11.934,14.615
	c-18.248,20.596-38.599,57.264-37.409,90.328c-15.455,3.376-52.548,12.707-64.368,26.675c-9.473,11.195,2.962,24.008,7.567,34.196
	c-1.751,1.396-2.778,3.061-2.778,4.854c0,0.004,0.001,0.007,0.001,0.011c-2.136,1.329-3.425,3.04-3.425,4.91
	c0,0.062,0.015,0.122,0.018,0.184c-0.866,0.6-1.53,1.281-1.937,2.021c-3.892,0.821-6.641,2.806-6.641,5.123
	c0,3.048,4.755,5.522,10.62,5.522c3.922,0,7.337-1.107,9.178-2.749c3.633-0.26,6.739-1.363,8.575-2.92
	c3.047-0.584,5.616-1.672,7.334-3.077c0.887-0.428,1.674-0.91,2.336-1.439c4.908-1.565,8.192-4.371,8.192-7.586
	c0-0.815-0.228-1.601-0.622-2.351c1.079-1.875,1.587-4.042,1.307-6.552c-1.645-14.816,13.847-23.471,34.859-24.222
	c11.381,16.663,33.239,29.636,70.497,34.825C288.872,307.611,346.098,222.552,344.557,196.258z"/>
</svg>
