<?xml version="1.0" encoding="utf-8"?>
<!-- Generator: Adobe Illustrator 17.0.0, SVG Export Plug-In . SVG Version: 6.00 Build 0)  -->
<!DOCTYPE svg PUBLIC "-//W3C//DTD SVG 1.1 Basic//EN" "http://www.w3.org/Graphics/SVG/1.1/DTD/svg11-basic.dtd">
<svg version="1.1" baseProfile="basic" id="Слой_1"
	 xmlns="http://www.w3.org/2000/svg" xmlns:xlink="http://www.w3.org/1999/xlink" x="0px" y="0px" width="72.337px"
	 height="105.805px" viewBox="0 0 72.337 105.805" xml:space="preserve">
<path fill="#42BCAA" d="M53.945,0.033L53.945,0.033c-1.177-0.561-1.349,6.141,0.8,6.787c2.145,0.65,15.049,12.805,8.549,26.155
	c-6.49,13.365-39.031,34.074-47.436,35.378C7.436,69.657,1.233,62.345,0,58.272c0.216,5.005,8.121,22.051,16.943,21.858
	c0.394,10.621,11.082,17.206,12.595,25.675c4.938-12.334-6.139-13.373,0.882-23.067c6.55-9.02,29.107-24.199,36.341-36.236
	C74.181,34.157,77.774,11.528,53.945,0.033z"/>
</svg>
