<?xml version="1.0" encoding="utf-8"?>
<!-- Generator: Adobe Illustrator 17.0.0, SVG Export Plug-In . SVG Version: 6.00 Build 0)  -->
<!DOCTYPE svg PUBLIC "-//W3C//DTD SVG 1.1 Basic//EN" "http://www.w3.org/Graphics/SVG/1.1/DTD/svg11-basic.dtd">
<svg version="1.1" baseProfile="basic" id="Слой_1"
	 xmlns="http://www.w3.org/2000/svg" xmlns:xlink="http://www.w3.org/1999/xlink" x="0px" y="0px" width="232.458px"
	 height="277.979px" viewBox="0 0 232.458 277.979" xml:space="preserve">
<path fill="#C2242A" stroke="#FFFFFF" stroke-width="6" stroke-miterlimit="10" d="M140.21,150.819
	c20.535-8.781,47.282-17.571,41.208-43.427c-0.003-0.005-0.006-0.009-0.009-0.014c0,0,0,0,0-0.001
	c-0.16-0.252-0.328-0.504-0.496-0.755c-0.071-0.107-0.138-0.214-0.211-0.321c-2.913-4.304-6.763-8.594-8.372-13.836
	c-0.002-0.007-0.005-0.014-0.007-0.021c-0.123-0.403-0.23-0.814-0.325-1.229c-0.009-0.038-0.021-0.076-0.029-0.114
	c-0.087-0.39-0.155-0.788-0.214-1.189c-0.01-0.066-0.025-0.131-0.034-0.197c-0.051-0.379-0.082-0.767-0.107-1.157
	c-0.009-0.144-0.03-0.283-0.035-0.429c-6.376,0.14-12.272-8.725-15.133-15.541c-7.292-5.268-16.087-9.234-24.094-6.396
	c-17.972,6.363-48.125,36.447-64.47,56.416c-16.343,19.986-34.012,59.6-35.845,75.146c-1.822,15.558-4.361,23.076-4.368,37.738
	c-0.02,14.667-7.512,24.898-16.547,28.094c-2.157,0.762-3.033,1.615-3.107,2.483c-0.003,0-0.005,0-0.008,0
	c-0.001,0.012,0.004,0.025,0.003,0.037c-0.009,0.157,0.004,0.314,0.044,0.471c0.004,0.015,0.011,0.031,0.016,0.046
	c0.042,0.147,0.106,0.294,0.187,0.441c0.014,0.025,0.026,0.05,0.041,0.075c0.094,0.158,0.206,0.316,0.339,0.472
	c0.015,0.018,0.032,0.035,0.047,0.052c0.127,0.146,0.269,0.29,0.424,0.434c0.023,0.021,0.043,0.042,0.066,0.062
	c0.172,0.155,0.357,0.308,0.556,0.459c0.025,0.019,0.051,0.038,0.077,0.057c0.187,0.14,0.384,0.279,0.589,0.415
	c0.025,0.016,0.048,0.033,0.073,0.049c0.224,0.147,0.456,0.29,0.694,0.431c0.033,0.02,0.066,0.039,0.1,0.058
	c0.224,0.131,0.452,0.259,0.683,0.385c0.022,0.012,0.043,0.024,0.064,0.035c0.248,0.133,0.499,0.263,0.749,0.389
	c0.04,0.02,0.08,0.04,0.12,0.06c0.236,0.117,0.47,0.232,0.702,0.341c0.014,0.007,0.029,0.014,0.043,0.021
	c0.249,0.117,0.492,0.229,0.731,0.337c0.039,0.018,0.076,0.034,0.115,0.052c0.224,0.1,0.442,0.197,0.651,0.287
	c0.008,0.003,0.016,0.007,0.024,0.01c0.225,0.098,0.436,0.188,0.638,0.273c0.034,0.014,0.064,0.027,0.097,0.041
	c0.183,0.077,0.358,0.151,0.514,0.216c0.153,0.064,0.284,0.12,0.407,0.172c0.033,0.014,0.064,0.027,0.094,0.04
	c0.12,0.052,0.227,0.098,0.307,0.136c1.857,0.895,17.761,3.054,27.941-7.632c10.161-10.698,25.079-42.711,35.206-55.52
	c10.137-12.823,28.746-43.769,53.625-55.658c0.602-0.287,1.215-0.572,1.836-0.856c0.122-0.056,0.244-0.111,0.367-0.167
	C137.486,151.996,138.834,151.408,140.21,150.819z"/>
<g>
	<path fill="#CB2229" d="M171.579,88.13c-6.376,0.14-12.272-8.725-15.133-15.541c-7.292-5.269-16.087-9.234-24.094-6.396
		c-17.972,6.363-48.125,36.447-64.469,56.416c-16.343,19.986-34.012,59.6-35.845,75.146c-1.822,15.558-4.361,23.076-4.368,37.738
		c-0.02,14.667-7.512,24.898-16.547,28.094c-9.037,3.193,4.235,7.972,6.081,8.837c1.857,0.895,17.761,3.054,27.941-7.632
		c10.161-10.698,25.079-42.711,35.206-55.52c10.137-12.823,28.746-43.769,53.625-55.658c20.772-9.913,54.157-17.642,47.444-46.221
		C177.739,101.584,171.869,95.951,171.579,88.13z"/>
	<path fill="#C2242A" d="M171.591,88.315c-24.393,8.374-51.656,24.383-80.341,51.68c-19.218,18.288-34.227,45.194-48.887,100.158
		c-4.303,16.135-25.662,26.738-34.356,25.916c-0.236,2.769,7.79,5.697,9.196,6.355c1.857,0.895,17.761,3.054,27.941-7.632
		c10.161-10.698,25.079-42.711,35.206-55.52c10.137-12.823,28.746-43.769,53.625-55.658c20.775-9.914,54.161-17.646,47.435-46.235
		C177.758,101.621,171.966,96.033,171.591,88.315z"/>
</g>
</svg>
