<?xml version="1.0" encoding="utf-8"?>
<!-- Generator: Adobe Illustrator 17.0.0, SVG Export Plug-In . SVG Version: 6.00 Build 0)  -->
<!DOCTYPE svg PUBLIC "-//W3C//DTD SVG 1.1 Basic//EN" "http://www.w3.org/Graphics/SVG/1.1/DTD/svg11-basic.dtd">
<svg version="1.1" baseProfile="basic" id="Слой_1"
	 xmlns="http://www.w3.org/2000/svg" xmlns:xlink="http://www.w3.org/1999/xlink" x="0px" y="0px" width="57.682px"
	 height="133.842px" viewBox="0 0 57.682 133.842" xml:space="preserve">
<path fill="#BAAE52" d="M57.675,80.172l-19.467-6.056c-0.003-0.018-0.007-0.037-0.008-0.055c2.998,0.771,11.032,2.635,19.337,2.915
	c-0.397-5.304-1.486-10.508-2.459-15.728c-0.814-4.008-1.332-8.067-1.555-12.172c-5.955-0.11-11.834,2.126-17.815,2.238
	c4.16-2.291,8.107-5.471,13.022-6.979c-4.735-6.141-7.036-13.58-8.089-20.75c-4.951,2.615-5.101,3.485-10.996,4.805
	c2.005-4.864,4.689-6.76,5.307-11.707C35.507,12.134,25.004,3.208,21.348,0c-0.14,1.742-0.121,3.75-0.009,5.914
	c-3.785,5.032-9.562,13.252-8.493,16.81c1.426,4.71,4.366,5.936,7.14,10.234c-6,0.087-6.29-0.727-11.575-2.131
	c0.152,7.274-0.874,15.109-4.499,22.236c5.07,0.33,9.469,2.522,13.922,3.792C11.95,58.152,5.821,57.333,0,58.841
	c0.458,4.075,0.624,8.173,0.488,12.297C0.4,76.483,0.191,81.84,0.68,87.135c7.963-2.183,15.415-5.815,18.337-7.323
	c0.003,0.023,0.005,0.046,0.007,0.063L1.076,90.299c0.265,1.75,0.606,3.5,1.119,5.231c1.711,5.967,5.496,11.098,9.935,15.967
	c4.768-5.837,9.109-10.944,10.123-12.09c0.002,0.015,0.005,0.024,0.004,0.037c-0.06,0.076-0.13,0.162-0.22,0.273
	c-1.497,1.817-4.361,7.713-7.391,14.458c6.174,6.39,13.055,12.498,17.289,19.668c1-0.583,1.89-1.899,2.666-3.75
	c0.008,0.001,0.016,0.002,0.022,0.005c2.963-8.02,8.696-15.622,13.696-23.333c-3.748-5.419-7.239-10.157-9.155-12.005
	c0.001-0.042,0.001-0.083,0-0.122c1.919,1.481,6.351,4.969,11.179,8.911c3.545-5.814,6.404-11.733,7.101-17.987
	C57.658,83.748,57.703,81.952,57.675,80.172z"/>
</svg>
