<?xml version="1.0" encoding="utf-8"?>
<!-- Generator: Adobe Illustrator 17.0.0, SVG Export Plug-In . SVG Version: 6.00 Build 0)  -->
<!DOCTYPE svg PUBLIC "-//W3C//DTD SVG 1.1 Basic//EN" "http://www.w3.org/Graphics/SVG/1.1/DTD/svg11-basic.dtd">
<svg version="1.1" baseProfile="basic" id="Слой_1"
	 xmlns="http://www.w3.org/2000/svg" xmlns:xlink="http://www.w3.org/1999/xlink" x="0px" y="0px" width="232.458px"
	 height="277.979px" viewBox="0 0 232.458 277.979" xml:space="preserve">
<path fill="#C2242A" stroke="#FFFFFF" stroke-width="6" stroke-miterlimit="10" d="M208.58,8.033
	c-1.177-0.561-1.349,6.141,0.8,6.787c2.145,0.65,15.049,12.805,8.549,26.155c-6.49,13.365-39.031,34.074-47.436,35.378
	c-8.423,1.304-15.579-10.299-15.859-10.081s0.713,3.705,1.812,6.321c-7.293-5.27-16.086-9.24-24.094-6.401
	c-17.972,6.363-48.125,36.447-64.47,56.416c-16.343,19.986-34.011,59.6-35.845,75.146c-1.822,15.558-4.361,23.076-4.368,37.738
	c-0.02,14.667-7.512,24.898-16.547,28.094c-2.157,0.762-3.108,2.833-3.067,2.99c0.004,0.015,0.122,0.341,0.203,0.488
	c0.014,0.025,0.026,0.05,0.04,0.075c0.094,0.158,0.206,0.316,0.339,0.472c0.015,0.017,0.032,0.034,0.047,0.052
	c0.127,0.146,0.269,0.29,0.424,0.434c0.023,0.021,0.044,0.042,0.068,0.064c0.171,0.154,0.356,0.307,0.554,0.458
	c0.026,0.02,0.053,0.039,0.08,0.059c0.186,0.139,0.38,0.276,0.584,0.411c0.026,0.018,0.051,0.035,0.078,0.053
	c0.221,0.145,0.451,0.287,0.686,0.427c0.039,0.023,0.079,0.046,0.118,0.069c0.214,0.125,0.432,0.248,0.653,0.368
	c0.03,0.016,0.06,0.033,0.091,0.05c0.242,0.13,0.485,0.256,0.729,0.378c0.051,0.026,0.102,0.051,0.154,0.076
	c0.214,0.106,0.427,0.21,0.638,0.31c0.035,0.017,0.071,0.034,0.106,0.051c0.233,0.11,0.461,0.214,0.685,0.315
	c0.063,0.028,0.123,0.055,0.184,0.083c0.183,0.082,0.361,0.16,0.534,0.235c0.043,0.019,0.086,0.038,0.128,0.056
	c0.191,0.083,0.371,0.16,0.545,0.233c0.101,0.043,0.192,0.081,0.286,0.121c0.048,0.02,0.093,0.039,0.139,0.059
	c0.255,0.107,0.487,0.204,0.673,0.284c0.024,0.01,0.046,0.02,0.068,0.029c0.124,0.053,0.233,0.101,0.315,0.139
	c1.857,0.895,17.761,3.054,27.941-7.632c3.493-3.677,7.548-9.874,11.777-16.943c0.769-1.285,1.544-2.599,2.322-3.932
	s1.56-2.685,2.342-4.046c4.305-7.486,8.643-15.247,12.626-21.635c2.173-3.485,4.24-6.562,6.139-8.963
	c6.019-7.614,15.024-21.616,26.556-34.226c3.641-3.982,7.535-7.825,11.666-11.284c0.688-0.576,1.383-1.142,2.085-1.696
	c4.209-3.324,8.654-6.223,13.319-8.452c4.275-2.04,9.084-3.987,13.968-6.043c0.394-0.166,0.788-0.332,1.182-0.499
	c0.045-0.019,0.09-0.038,0.135-0.057c0.832-0.353,1.664-0.71,2.496-1.071c0.059-0.025,0.117-0.05,0.176-0.076
	c17.547-7.638,34.442-17.374,29.488-38.472c1.316,2.078,2.355,4.178,2.753,6.41c4.938-12.334-6.139-13.373,0.882-23.067
	c6.55-9.02,29.107-24.199,36.341-36.236C228.816,42.157,232.41,19.528,208.58,8.033z"/>
<g id="__x0023_Layer_x0020_2">
	<g id="_278109912">
		<path fill="#CB2229" d="M172.267,87.719c0,0-21.944-27.896-39.915-21.527c-17.972,6.363-48.125,36.447-64.47,56.416
			c-16.343,19.986-34.011,59.6-35.845,75.146c-1.822,15.558-4.361,23.076-4.368,37.738c-0.02,14.667-7.512,24.898-16.547,28.094
			c-9.037,3.193,4.235,7.972,6.081,8.837c1.857,0.895,17.761,3.054,27.941-7.632c10.161-10.698,25.079-42.711,35.206-55.52
			c10.137-12.823,28.746-43.769,53.625-55.658C158.872,141.731,201.906,132.994,172.267,87.719L172.267,87.719z"/>
		<path fill="#2E7143" d="M208.58,8.033c-1.177-0.561-1.349,6.141,0.8,6.787c2.145,0.65,15.049,12.805,8.549,26.155
			c-6.49,13.365-39.031,34.074-47.436,35.378c-8.423,1.304-14.626-6.008-15.859-10.081c0.216,5.005,8.121,22.051,16.943,21.858
			c0.394,10.621,11.082,17.206,12.595,25.675c4.938-12.334-6.139-13.373,0.882-23.067c6.55-9.02,29.107-24.199,36.341-36.236
			C228.816,42.157,232.41,19.528,208.58,8.033L208.58,8.033z"/>
	</g>
	<path fill="#C2242A" d="M8.007,266.068c-0.236,2.769,7.79,5.697,9.196,6.355c1.857,0.895,17.761,3.054,27.941-7.632
		c10.161-10.698,25.079-42.711,35.206-55.52c10.137-12.823,28.746-43.769,53.625-55.658c24.843-11.855,67.735-20.583,38.483-65.597
		c-24.612,8.291-52.183,24.36-81.207,51.979c-19.218,18.288-34.227,45.194-48.887,100.158
		C38.06,256.287,16.701,266.89,8.007,266.068z"/>
</g>
</svg>
