<?xml version="1.0" encoding="utf-8"?>
<!-- Generator: Adobe Illustrator 17.0.0, SVG Export Plug-In . SVG Version: 6.00 Build 0)  -->
<!DOCTYPE svg PUBLIC "-//W3C//DTD SVG 1.1 Basic//EN" "http://www.w3.org/Graphics/SVG/1.1/DTD/svg11-basic.dtd">
<svg version="1.1" baseProfile="basic" id="Слой_1"
	 xmlns="http://www.w3.org/2000/svg" xmlns:xlink="http://www.w3.org/1999/xlink" x="0px" y="0px" width="148.217px"
	 height="139.965px" viewBox="0 0 148.217 139.965" xml:space="preserve">
<path fill="#EEBF31" d="M69.267,0.844c-7.979,6.52-13.015,11.084-14.038,11.217c2.498-0.325-20.906-6.822-26.582-8.036
	C22.531,2.698,17.908,0.377,14.633,0c-0.755,12.402,20.941,22.067,22.431,32.131C39.725,50.209,0,56.915,0,56.915l3.496,24.781
	c0,0,10.578,0.721,16.792,0c13.46,16.578,43.854,16.936,64.377,26.758c-0.161,15.135-18.224,19.881-19.591,29.472
	c2.498,0.933,4.862-3.89,7.047-3.587c2.062,0.303,3.948,5.79,5.754,5.622c15.764-1.368,23.149-18.841,26.383-34.185
	c27.217,3.268,11.81,21.516,5.578,33.503c3.216-0.991,10.997-5.242,13.915-4.79c0,0,3.594,6.001,9.908,2.089
	c0.02-10.444,6.508-21.15,2.778-30.802c3.858-0.149,7.794-0.327,11.78-0.547c-1.93-4.718-4.5-9.258-8.024-13.548
	C116.354,60.666,98.607,24.553,69.267,0.844z"/>
</svg>
