<?xml version="1.0" encoding="utf-8"?>
<!-- Generator: Adobe Illustrator 17.0.0, SVG Export Plug-In . SVG Version: 6.00 Build 0)  -->
<!DOCTYPE svg PUBLIC "-//W3C//DTD SVG 1.1 Basic//EN" "http://www.w3.org/Graphics/SVG/1.1/DTD/svg11-basic.dtd">
<svg version="1.1" baseProfile="basic" id="Слой_1"
	 xmlns="http://www.w3.org/2000/svg" xmlns:xlink="http://www.w3.org/1999/xlink" x="0px" y="0px" width="192.746px"
	 height="152.264px" viewBox="0 0 192.746 152.264" xml:space="preserve">
<path fill="#3FA556" d="M187.699,28.146c1.255-4.004,2.961-7.58,5.047-10.888C167.703,2.713,139.257-2.16,97.225,0.85
	C57.407,3.717,19.708,31.774,0,47.878c29.34,23.71,47.087,59.822,70.926,90.838c3.524,4.29,6.094,8.83,8.024,13.548
	c26.505-1.463,55.283-4.888,79.218-15.516c2.711-1.207,5.444-2.802,8.1-4.342c0.118-24.858,1.043-49.605,8.323-73.483
	C176.975,48.664,182.932,39.545,187.699,28.146z"/>
</svg>
