<?xml version="1.0" encoding="utf-8"?>
<!-- Generator: Adobe Illustrator 17.0.0, SVG Export Plug-In . SVG Version: 6.00 Build 0)  -->
<!DOCTYPE svg PUBLIC "-//W3C//DTD SVG 1.1 Basic//EN" "http://www.w3.org/Graphics/SVG/1.1/DTD/svg11-basic.dtd">
<svg version="1.1" baseProfile="basic" id="Слой_1"
	 xmlns="http://www.w3.org/2000/svg" xmlns:xlink="http://www.w3.org/1999/xlink" x="0px" y="0px" width="101.765px"
	 height="169.495px" viewBox="0 0 101.765 169.495" xml:space="preserve">
<path fill="#D36234" d="M95.146,40.505c-7.582-3.777-14.967,0.853-16.791,6.703c-12.429-10.367-12.987-21.117-22.4-29.469
	C48.023,10.717,40.087,4.827,31.777,0c-2.086,3.308-3.791,6.884-5.047,10.888c-4.766,11.399-10.724,20.518-13.107,30.777
	C6.343,65.544,5.417,90.291,5.3,115.148c8.549-4.956,16.291-9.338,19.853,1.644C32.931,140.756,4.365,155.797,0,166.355
	c1.291,0.303,6.368-3.191,7.604-2.962c1.264,0.19,1.505,4.121-0.12,4.121c24.137,1.597,30.529-21.192,34.5-41.323
	c16.633,10.012,2.697,28.622-2.8,40.164c6.015-1.173,4.426-0.947,7.007,2.701c22.071,4.669,24.534-29.04,20.96-46.871
	c-1.39-7.16-8.215-9.098-8.394-14.755c-0.196-7.312,7.044-9.855,9.804-14.717c5.064-8.812,3.833-16.848,8.397-24.118
	c8.296,1.897,8.535,11.491,9.807,20.088c4.981-2.772,2.227-12.418,1.37-17.393C99.192,68.502,108.564,50.553,95.146,40.505z"/>
</svg>
