<?xml version="1.0" encoding="utf-8"?>
<!-- Generator: Adobe Illustrator 17.0.0, SVG Export Plug-In . SVG Version: 6.00 Build 0)  -->
<!DOCTYPE svg PUBLIC "-//W3C//DTD SVG 1.1 Basic//EN" "http://www.w3.org/Graphics/SVG/1.1/DTD/svg11-basic.dtd">
<svg version="1.1" baseProfile="basic" id="Слой_1"
	 xmlns="http://www.w3.org/2000/svg" xmlns:xlink="http://www.w3.org/1999/xlink" x="0px" y="0px" width="335px" height="190px"
	 viewBox="-0.379 -0.5 335 190" xml:space="preserve">
<path fill="#A8A8A8" stroke="#272525" stroke-width="2" stroke-linejoin="round" stroke-miterlimit="10" d="M70.574,49.194
	c-7.627,6.214-12.548,10.631-13.846,11.108c0.836-0.686-21.201-6.775-26.681-7.944c-6.102-1.32-10.714-3.629-13.982-4.004
	c-0.753,12.338,20.893,21.953,22.379,31.965C41.1,98.304,1.466,104.976,1.466,104.976l3.488,24.653c0,0,10.554,0.717,16.753,0
	c13.429,16.492,43.753,16.849,64.229,26.62c-0.161,15.057-18.182,19.778-19.546,29.32c2.492,0.928,4.851-3.87,7.031-3.568
	c2.057,0.301,3.939,5.76,5.741,5.593c15.728-1.361,23.096-18.744,26.322-34.009c27.154,3.251,11.783,21.405,5.565,33.33
	c3.209-0.986,10.972-5.215,13.883-4.765c0,0,3.586,5.97,9.885,2.078c0.02-10.39,6.493-21.041,2.772-30.643
	c3.849-0.148,7.776-0.325,11.753-0.544c-0.029-0.07-0.061-0.14-0.09-0.21c26.439-1.456,55.144-4.864,79.019-15.435
	c2.705-1.201,5.431-2.788,8.081-4.32c0.001-0.172,0.003-0.343,0.004-0.515c8.289-4.779,15.736-8.685,19.205,1.983
	c7.76,23.84-20.74,38.804-25.095,49.307c1.288,0.301,6.353-3.175,7.587-2.947c1.261,0.189,1.502,4.1-0.12,4.1
	c24.081,1.589,30.459-21.083,34.421-41.11c16.595,9.96,2.691,28.474-2.794,39.957c6.001-1.167,4.416-0.942,6.991,2.687
	c22.02,4.645,24.478-28.89,20.912-46.629c-1.387-7.123-8.196-9.051-8.375-14.679c-0.196-7.274,7.028-9.804,9.781-14.641
	c5.052-8.767,3.824-16.761,8.378-23.994c8.277,1.887,8.515,11.432,9.784,19.984c4.97-2.758,2.222-12.354,1.367-17.303
	c11.03-2.773,20.381-20.63,6.994-30.626c-7.565-3.758-14.933,0.849-16.752,6.668c-12.4-10.314-12.957-21.008-22.348-29.317
	c-7.749-6.84-15.503-12.593-23.607-17.339c0.029-0.046,0.054-0.094,0.082-0.14C237.783,4.053,209.402-0.795,167.467,2.2
	c-39.726,2.852-77.338,30.764-97.001,46.785"/>
</svg>
