<?xml version="1.0" encoding="utf-8"?>
<!-- Generator: Adobe Illustrator 17.0.0, SVG Export Plug-In . SVG Version: 6.00 Build 0)  -->
<!DOCTYPE svg PUBLIC "-//W3C//DTD SVG 1.1 Basic//EN" "http://www.w3.org/Graphics/SVG/1.1/DTD/svg11-basic.dtd">
<svg version="1.1" baseProfile="basic" id="Слой_1"
	 xmlns="http://www.w3.org/2000/svg" xmlns:xlink="http://www.w3.org/1999/xlink" x="0px" y="0px" width="800px" height="480px"
	 viewBox="0 0 800 480" xml:space="preserve">
<rect x="0" fill="#D2E9F9" width="800" height="480"/>
<g>
	<g>
		<path fill="#E5C9BF" stroke="#FFFFFF" stroke-width="3" stroke-miterlimit="10" d="M420.001,243.396l3.486,24.649
			c0,0,10.546,0.717,16.741,0c13.419,16.489,43.722,16.846,64.183,26.615c-0.161,15.054-18.169,19.775-19.532,29.315
			c2.49,0.928,4.847-3.869,7.026-3.568c2.056,0.301,3.936,5.759,5.737,5.592c15.717-1.361,23.079-18.74,26.305-34.002
			c27.135,3.251,11.774,21.401,5.561,33.324c3.206-0.986,10.964-5.214,13.873-4.764c0,0,3.583,5.969,9.878,2.078
			c0.02-10.388,6.488-21.037,2.77-30.638c29.43-1.134,63.272-3.817,90.724-15.977c11.401-5.066,23.214-17.002,27.869-2.684
			c7.755,23.836-20.725,38.797-25.077,49.298c1.287,0.301,6.349-3.174,7.581-2.946c1.26,0.189,1.5,4.099-0.12,4.099
			c24.064,1.588,30.437-21.079,34.396-41.102c16.583,9.959,2.689,28.469-2.792,39.95c5.996-1.167,4.413-0.942,6.986,2.687
			c22.005,4.644,24.46-28.885,20.897-46.62c-1.386-7.122-8.19-9.049-8.369-14.676c-0.195-7.273,7.023-9.802,9.774-14.638
			c5.049-8.765,3.821-16.758,8.372-23.989c8.271,1.887,8.509,11.43,9.777,19.981c4.966-2.757,2.22-12.352,1.366-17.3
			c11.023-2.774,20.367-20.626,6.989-30.621c-7.559-3.757-14.922,0.848-16.74,6.667c-12.392-10.312-12.948-21.004-22.333-29.312
			c-31.742-28.033-63.527-37.951-119.339-33.965c-55.772,4.005-107.387,57.474-110.928,57.934c2.49-0.323-20.843-6.786-26.502-7.993
			c-6.098-1.32-10.708-3.628-13.972-4.003c-0.753,12.336,20.878,21.949,22.363,31.959
			C459.605,236.726,420.001,243.396,420.001,243.396z"/>
		<path fill="#D2E9F9" stroke="#FFFFFF" stroke-width="2" stroke-miterlimit="10" d="M730.467,209.431
			c6.613-11.275,18.287,6.969,5.58,9.313C733.836,215.984,731.497,213.322,730.467,209.431z"/>
		<path fill="#FFFFFF" d="M467.242,225.124c0-6.539,5.531-11.785,12.376-11.785c6.852,0,12.378,5.274,12.378,11.785
			c0,6.536-5.583,11.81-12.378,11.81C472.774,236.934,467.242,231.66,467.242,225.124z"/>
		<path fill="#6A5538" d="M468.106,230.617c0-3.043,2.572-5.482,5.754-5.482c3.189,0,5.761,2.454,5.761,5.482
			c0,3.043-2.597,5.49-5.761,5.49C470.678,236.106,468.106,233.659,468.106,230.617z"/>
		<path fill="#CB9DA4" d="M477.426,251.443c0-6.242,5.279-11.252,11.811-11.252c6.541,0,11.82,5.036,11.82,11.252
			c0,6.238-5.333,11.27-11.82,11.27C482.705,262.713,477.426,257.68,477.426,251.443z"/>
	</g>
	<path fill="#434343" d="M424.036,251.452c0-1.67,1.41-3.012,3.161-3.012c1.747,0,3.158,1.353,3.158,3.012
		c0,1.67-1.425,3.02-3.158,3.02C425.446,254.471,424.036,253.122,424.036,251.452z"/>
</g>
</svg>
