<?xml version="1.0" encoding="utf-8"?>
<!-- Generator: Adobe Illustrator 17.0.0, SVG Export Plug-In . SVG Version: 6.00 Build 0)  -->
<!DOCTYPE svg PUBLIC "-//W3C//DTD SVG 1.1 Basic//EN" "http://www.w3.org/Graphics/SVG/1.1/DTD/svg11-basic.dtd">
<svg version="1.1" baseProfile="basic" id="Слой_1"
	 xmlns="http://www.w3.org/2000/svg" xmlns:xlink="http://www.w3.org/1999/xlink" x="0px" y="0px" width="800px" height="480px"
	 viewBox="0 0 800 480" xml:space="preserve">
<rect x="0" fill="#D2E9F9" width="800" height="480"/>
<path fill="#A8A8A8" stroke="#272525" stroke-width="2" stroke-miterlimit="10" d="M676.699,168.146
	c1.255-4.004,2.961-7.58,5.047-10.888c-25.043-14.545-53.489-19.418-95.521-16.408c-39.818,2.867-77.517,30.924-97.225,47.028
	c29.34,23.71,47.087,59.822,70.926,90.838c3.524,4.29,6.094,8.83,8.024,13.548c26.505-1.463,55.283-4.888,79.218-15.516
	c2.711-1.207,5.444-2.802,8.1-4.342c0.118-24.858,1.043-49.605,8.323-73.483C665.975,188.664,671.932,179.545,676.699,168.146z"/>
<path fill="#A8A8A8" stroke="#272525" stroke-width="2" stroke-miterlimit="10" d="M745.146,197.505
	c-7.582-3.777-14.967,0.853-16.791,6.703c-12.429-10.367-12.987-21.117-22.4-29.469c-7.932-7.022-15.868-12.912-24.178-17.739
	c-2.086,3.308-3.791,6.884-5.047,10.888c-4.766,11.399-10.724,20.518-13.107,30.777c-7.28,23.879-8.206,48.626-8.323,73.483
	c8.549-4.956,16.291-9.338,19.853,1.644c7.778,23.964-20.788,39.005-25.153,49.563c1.291,0.303,6.368-3.191,7.604-2.962
	c1.264,0.19,1.505,4.121-0.12,4.121c24.137,1.597,30.529-21.192,34.5-41.323c16.633,10.012,2.697,28.622-2.8,40.164
	c6.015-1.173,4.426-0.947,7.007,2.701c22.071,4.669,24.534-29.04,20.96-46.871c-1.39-7.16-8.215-9.098-8.394-14.755
	c-0.196-7.312,7.044-9.855,9.804-14.717c5.064-8.812,3.833-16.848,8.397-24.118c8.296,1.897,8.535,11.491,9.807,20.088
	c4.981-2.772,2.227-12.418,1.37-17.393C749.192,225.502,758.564,207.553,745.146,197.505z"/>
<path fill="#A8A8A8" stroke="#272525" stroke-width="2" stroke-miterlimit="10" d="M489.268,187.844
	c-7.979,6.52-13.015,11.084-14.038,11.217c2.498-0.325-20.906-6.822-26.582-8.036c-6.116-1.327-10.739-3.648-14.014-4.025
	c-0.755,12.402,20.941,22.067,22.431,32.131c2.661,18.078-37.064,24.784-37.064,24.784l3.496,24.781c0,0,10.578,0.721,16.792,0
	c13.46,16.578,43.854,16.936,64.377,26.758c-0.161,15.135-18.224,19.881-19.591,29.472c2.498,0.933,4.862-3.89,7.047-3.587
	c2.062,0.303,3.948,5.79,5.754,5.622c15.764-1.368,23.149-18.841,26.383-34.185c27.217,3.268,11.81,21.516,5.578,33.503
	c3.216-0.991,10.997-5.242,13.915-4.79c0,0,3.594,6.001,9.908,2.089c0.02-10.444,6.508-21.15,2.778-30.802
	c3.858-0.149,7.794-0.327,11.78-0.547c-1.93-4.718-4.5-9.258-8.024-13.548C536.355,247.666,518.608,211.553,489.268,187.844z"/>
</svg>
