<?xml version="1.0" encoding="utf-8"?>
<!-- Generator: Adobe Illustrator 17.0.0, SVG Export Plug-In . SVG Version: 6.00 Build 0)  -->
<!DOCTYPE svg PUBLIC "-//W3C//DTD SVG 1.1 Basic//EN" "http://www.w3.org/Graphics/SVG/1.1/DTD/svg11-basic.dtd">
<svg version="1.1" baseProfile="basic" id="Слой_1"
	 xmlns="http://www.w3.org/2000/svg" xmlns:xlink="http://www.w3.org/1999/xlink" x="0px" y="0px" width="800px" height="480px"
	 viewBox="0 0 800 480" xml:space="preserve">
<rect x="0" fill="#D2E9F9" width="800" height="480"/>
<path fill="#A8A8A8" stroke="#000000" stroke-width="2" stroke-miterlimit="10" d="M745.382,197.763
	c-7.582-3.777-14.967,0.853-16.791,6.703c-12.429-10.367-12.987-21.117-22.4-29.469c-31.838-28.184-63.719-38.155-119.699-34.147
	c-55.94,4.027-107.711,57.783-111.263,58.245c2.498-0.325-20.906-6.822-26.582-8.036c-6.116-1.327-10.739-3.648-14.014-4.025
	c-0.755,12.402,20.941,22.067,22.431,32.131C459.725,237.243,420,243.949,420,243.949l3.496,24.781c0,0,10.578,0.721,16.792,0
	c13.46,16.578,43.854,16.936,64.377,26.758c-0.161,15.135-18.224,19.881-19.591,29.472c2.498,0.933,4.862-3.89,7.047-3.587
	c2.062,0.303,3.948,5.79,5.754,5.622c15.764-1.368,23.149-18.841,26.383-34.185c27.217,3.268,11.81,21.516,5.578,33.503
	c3.216-0.991,10.997-5.242,13.915-4.79c0,0,3.594,6.001,9.908,2.089c0.02-10.444,6.508-21.15,2.778-30.802
	c29.519-1.14,63.463-3.837,90.998-16.063c11.436-5.093,23.284-17.093,27.953-2.698c7.778,23.964-20.788,39.005-25.153,49.563
	c1.291,0.303,6.368-3.191,7.604-2.962c1.264,0.19,1.505,4.121-0.12,4.121c24.137,1.597,30.529-21.192,34.5-41.323
	c16.633,10.012,2.697,28.622-2.8,40.165c6.015-1.173,4.426-0.947,7.007,2.701c22.071,4.669,24.534-29.04,20.96-46.871
	c-1.39-7.16-8.215-9.098-8.394-14.755c-0.196-7.312,7.044-9.855,9.804-14.717c5.064-8.812,3.833-16.848,8.397-24.118
	c8.296,1.897,8.535,11.491,9.807,20.088c4.981-2.772,2.227-12.418,1.37-17.393C749.428,225.76,758.8,207.811,745.382,197.763z"/>
</svg>
