<?xml version="1.0" encoding="UTF-8" standalone="no"?>
<!-- Generator: Adobe Illustrator 17.0.0, SVG Export Plug-In . SVG Version: 6.00 Build 0)  -->

<svg
   xmlns:dc="http://purl.org/dc/elements/1.1/"
   xmlns:cc="http://creativecommons.org/ns#"
   xmlns:rdf="http://www.w3.org/1999/02/22-rdf-syntax-ns#"
   xmlns:svg="http://www.w3.org/2000/svg"
   xmlns="http://www.w3.org/2000/svg"
   xmlns:sodipodi="http://sodipodi.sourceforge.net/DTD/sodipodi-0.dtd"
   xmlns:inkscape="http://www.inkscape.org/namespaces/inkscape"
   version="1.1"
   id="Слой_1"
   x="0px"
   y="0px"
   width="335px"
   height="190px"
   viewBox="-0.379 -0.5 335 190"
   xml:space="preserve"
   inkscape:version="0.48.4 r9939"
   sodipodi:docname="pig_gray_lines.svg"><metadata
   id="metadata3817"><rdf:RDF><cc:Work
       rdf:about=""><dc:format>image/svg+xml</dc:format><dc:type
         rdf:resource="http://purl.org/dc/dcmitype/StillImage" /></cc:Work></rdf:RDF></metadata><defs
   id="defs3815" /><sodipodi:namedview
   pagecolor="#ffffff"
   bordercolor="#666666"
   borderopacity="1"
   objecttolerance="10"
   gridtolerance="10"
   guidetolerance="10"
   inkscape:pageopacity="0"
   inkscape:pageshadow="2"
   inkscape:window-width="1024"
   inkscape:window-height="708"
   id="namedview3813"
   showgrid="false"
   inkscape:zoom="0.94925373"
   inkscape:cx="167.5"
   inkscape:cy="95"
   inkscape:window-x="-4"
   inkscape:window-y="-4"
   inkscape:window-maximized="1"
   inkscape:current-layer="Слой_1" />
<path
   stroke-miterlimit="10"
   d="m 258.56441,29.077508 c 1.25651,-3.996549 2.96462,-7.566651 5.05309,-10.868843 C 238.54273,3.6894449 210.05974,-1.175045 167.97405,1.8301422 128.10531,4.6918431 90.358153,32.698784 70.624497,48.774276 100.00169,72.442508 117.7723,108.4897 141.64179,139.45066 c 3.52861,4.2825 6.10182,8.81388 8.03477,13.52383 26.53902,-1.45993 55.35417,-4.87953 79.32,-15.48847 2.71472,-1.20511 5.45051,-2.79752 8.11003,-4.33471 0.11842,-24.81413 1.04474,-49.516861 8.33384,-73.352662 2.38653,-10.23971 8.3509,-19.34257 13.12398,-30.72114 z"
   id="path3807"
   inkscape:connector-curvature="0"
   style="fill:#a8a8a8;stroke:#272525;stroke-width:2.00699449;stroke-linejoin:round;stroke-miterlimit:10" />
<path
   fill="#A8A8A8"
   stroke="#272525"
   stroke-width="2"
   stroke-linejoin="round"
   stroke-miterlimit="10"
   d="M325.547,58.796  c-7.565-3.758-14.933,0.849-16.752,6.668c-12.4-10.314-12.957-21.008-22.348-29.317c-7.914-6.986-15.831-12.845-24.122-17.647  c-2.081,3.291-3.782,6.848-5.035,10.832c-4.755,11.34-10.699,20.412-13.077,30.618c-7.263,23.756-8.187,48.375-8.304,73.104  c8.529-4.93,16.254-9.29,19.807,1.636c7.76,23.84-20.74,38.804-25.095,49.307c1.288,0.301,6.353-3.175,7.587-2.947  c1.261,0.189,1.502,4.1-0.12,4.1c24.081,1.589,30.459-21.083,34.421-41.11c16.595,9.96,2.691,28.474-2.794,39.957  c6.001-1.167,4.416-0.942,6.991,2.687c22.02,4.645,24.478-28.89,20.912-46.629c-1.387-7.123-8.196-9.051-8.375-14.679  c-0.196-7.274,7.028-9.804,9.781-14.641c5.052-8.767,3.824-16.761,8.378-23.994c8.277,1.887,8.515,11.432,9.784,19.984  c4.97-2.758,2.222-12.354,1.367-17.303C329.583,86.649,338.934,68.792,325.547,58.796z"
   id="path3809" />
<path
   fill="#A8A8A8"
   stroke="#272525"
   stroke-width="2"
   stroke-linejoin="round"
   stroke-miterlimit="10"
   d="M70.729,49.34  c-7.961,6.486-12.985,11.027-14.006,11.159c2.492-0.323-20.858-6.787-26.521-7.995C24.1,51.184,19.488,48.875,16.22,48.5  c-0.753,12.338,20.893,21.953,22.379,31.965c2.656,17.985-36.978,24.657-36.978,24.657l3.488,24.653c0,0,10.554,0.717,16.753,0  c13.429,16.492,43.753,16.849,64.229,26.62c-0.161,15.057-18.182,19.778-19.546,29.32c2.492,0.928,4.851-3.87,7.031-3.568  c2.057,0.301,3.939,5.76,5.741,5.593c15.728-1.361,23.096-18.744,26.322-34.009c27.154,3.251,11.783,21.405,5.565,33.33  c3.209-0.986,10.972-5.215,13.883-4.765c0,0,3.586,5.97,9.885,2.078c0.02-10.39,6.493-21.041,2.772-30.643  c3.849-0.148,7.776-0.325,11.753-0.544c-1.926-4.694-4.49-9.21-8.006-13.478C117.707,108.853,100.001,72.927,70.729,49.34z"
   id="path3811" />
</svg>