<?xml version="1.0" encoding="utf-8"?>
<!-- Generator: Adobe Illustrator 17.0.0, SVG Export Plug-In . SVG Version: 6.00 Build 0)  -->
<!DOCTYPE svg PUBLIC "-//W3C//DTD SVG 1.1 Basic//EN" "http://www.w3.org/Graphics/SVG/1.1/DTD/svg11-basic.dtd">
<svg version="1.1" baseProfile="basic" id="Слой_1"
	 xmlns="http://www.w3.org/2000/svg" xmlns:xlink="http://www.w3.org/1999/xlink" x="0px" y="0px" width="153.547px"
	 height="111.805px" viewBox="0 0 153.547 111.805" xml:space="preserve">
<path fill="#D36234" d="M135.158,66.809c3.432-0.67,7.21-1.075,11.403-1.075c5.07,0-5.639-7.669-18.071-13.087
	c0.922-1.217,1.475-2.729,1.475-4.374c0-4.01-3.25-7.261-7.26-7.261c-0.996,0-1.946,0.201-2.81,0.565
	C102.795,17.393,81.707,0,58.889,0C40.813,0,29.662,8.228,21.011,21.96C12.766,33.647,6.866,50.069,0,69.183
	c49.439,17.014,99.446,31.877,153.547,42.622C148.968,96.908,142.735,81.387,135.158,66.809z"/>
</svg>
