<?xml version="1.0" encoding="utf-8"?>
<!-- Generator: Adobe Illustrator 17.0.0, SVG Export Plug-In . SVG Version: 6.00 Build 0)  -->
<!DOCTYPE svg PUBLIC "-//W3C//DTD SVG 1.1 Basic//EN" "http://www.w3.org/Graphics/SVG/1.1/DTD/svg11-basic.dtd">
<svg version="1.1" baseProfile="basic" id="Слой_1"
	 xmlns="http://www.w3.org/2000/svg" xmlns:xlink="http://www.w3.org/1999/xlink" x="0px" y="0px" width="335.5px"
	 height="190.167px" viewBox="0 0 335.5 190.167" xml:space="preserve">
<g>
	<g>
		<path fill="#E5C9BF" stroke="#FFFFFF" stroke-width="3" stroke-miterlimit="10" d="M326.401,59.455
			c-7.559-3.757-14.922,0.848-16.74,6.667c-12.392-10.312-12.948-21.004-22.333-29.312C255.586,8.777,223.801-1.141,167.989,2.845
			C112.217,6.85,60.602,60.319,57.061,60.779c2.49-0.323-20.843-6.786-26.502-7.993c-6.098-1.32-10.708-3.628-13.972-4.003
			C15.834,61.119,37.465,70.732,38.95,80.742C41.604,98.722,2,105.392,2,105.392l3.486,24.649c0,0,10.546,0.717,16.741,0
			c13.419,16.489,43.722,16.846,64.183,26.615c-0.161,15.054-18.169,19.775-19.532,29.315c2.49,0.928,4.847-3.869,7.026-3.568
			c2.056,0.301,3.936,5.759,5.737,5.592c15.717-1.361,23.079-18.74,26.305-34.002c27.135,3.251,11.774,21.401,5.561,33.324
			c3.206-0.986,10.964-5.214,13.873-4.764c0,0,3.583,5.969,9.878,2.078c0.02-10.388,6.488-21.037,2.77-30.638
			c29.43-1.134,63.272-3.817,90.724-15.977c11.401-5.066,23.214-17.002,27.869-2.684c7.755,23.836-20.725,38.797-25.077,49.298
			c1.287,0.301,6.349-3.174,7.581-2.946c1.26,0.189,1.5,4.099-0.12,4.099c24.064,1.588,30.437-21.079,34.396-41.102
			c16.583,9.959,2.689,28.469-2.792,39.95c5.996-1.167,4.413-0.942,6.986,2.687c22.005,4.644,24.46-28.885,20.897-46.62
			c-1.386-7.122-8.19-9.049-8.369-14.676c-0.195-7.273,7.023-9.802,9.774-14.638c5.049-8.765,3.821-16.758,8.372-23.989
			c8.271,1.887,8.509,11.43,9.777,19.981c4.966-2.757,2.22-12.352,1.366-17.3C330.435,87.302,339.779,69.45,326.401,59.455z
			 M318.046,80.74c-2.211-2.76-2.912-1.008-3.942-4.899C321,56.833,330.753,78.396,318.046,80.74z"/>
		<path fill="#FFFFFF" d="M49.241,87.12c0-6.539,5.531-11.785,12.376-11.785c6.852,0,12.378,5.274,12.378,11.785
			c0,6.536-5.583,11.81-12.378,11.81C54.773,98.93,49.241,93.656,49.241,87.12z"/>
		<path fill="#6A5538" d="M50.105,92.613c0-3.043,2.572-5.482,5.754-5.482c3.189,0,5.761,2.454,5.761,5.482
			c0,3.043-2.597,5.49-5.761,5.49C52.677,98.102,50.105,95.655,50.105,92.613z"/>
		<path fill="#CB9DA4" d="M59.425,113.439c0-6.242,5.279-11.252,11.811-11.252c6.541,0,11.82,5.036,11.82,11.252
			c0,6.238-5.333,11.27-11.82,11.27C64.704,124.709,59.425,119.676,59.425,113.439z"/>
	</g>
	<path fill="#434343" d="M6.035,113.448c0-1.67,1.41-3.012,3.161-3.012c1.747,0,3.158,1.353,3.158,3.012
		c0,1.67-1.425,3.02-3.158,3.02C7.445,116.467,6.035,115.118,6.035,113.448z"/>
</g>
</svg>
