<?xml version="1.0" encoding="utf-8"?>
<!-- Generator: Adobe Illustrator 17.0.0, SVG Export Plug-In . SVG Version: 6.00 Build 0)  -->
<!DOCTYPE svg PUBLIC "-//W3C//DTD SVG 1.1 Basic//EN" "http://www.w3.org/Graphics/SVG/1.1/DTD/svg11-basic.dtd">
<svg version="1.1" baseProfile="basic" id="Слой_1"
	 xmlns="http://www.w3.org/2000/svg" xmlns:xlink="http://www.w3.org/1999/xlink" x="0px" y="0px" width="111.425px"
	 height="84.107px" viewBox="0 0 111.425 84.107" xml:space="preserve">
<path fill="#B76153" d="M0.898,72.278c34.405,15.769,74.156,14.82,110.528,2.776c-0.837-1.182-1.68-2.467-2.519-3.89
	c-8.209-13.916-12.846-35.504-16.948-42.285c-4.106-6.781-11.244-10.17-16.416-8.206c-5.173,1.962-8.205,11.061-9.456,19.267
	c-1.25,8.207-7.673,20.162-11.241,18.557c-3.566-1.607-5.958-9.852-3.749-22.354c2.324-13.15,6.159-16.308,8.212-21
	c2.497-5.711,0.71-13.204-5.888-14.99c-4.533-1.225-14.275,4.818-24.407,21.977c-5.248,8.881-13.419,37.258-21.089,35.473
	c-0.687-0.16-1.212-0.396-1.606-0.704C1.847,62.1-1.74,70.3,0.898,72.278z"/>
</svg>
