<?xml version="1.0" encoding="utf-8"?>
<!-- Generator: Adobe Illustrator 17.0.0, SVG Export Plug-In . SVG Version: 6.00 Build 0)  -->
<!DOCTYPE svg PUBLIC "-//W3C//DTD SVG 1.1 Basic//EN" "http://www.w3.org/Graphics/SVG/1.1/DTD/svg11-basic.dtd">
<svg version="1.1" baseProfile="basic" id="Слой_1"
	 xmlns="http://www.w3.org/2000/svg" xmlns:xlink="http://www.w3.org/1999/xlink" x="0px" y="0px" width="139.073px"
	 height="71.831px" viewBox="0 0 139.073 71.831" xml:space="preserve">
<path fill="#BAAE52" d="M118.394,22.205c0.642,0.32,9.28,1.175,16.334-1.896c1.735,0.159,3.214,0.6,3.901,1.509
	c2.292,3.061-4.582,8.018-13.744,9.931c-9.16,1.909,4.582,0.761,4.963,6.87c0.383,6.107-16.034,11.067-35.121,23.284
	C75.636,74.119,45.863,76.794,17.61,59.991C-3.495,47.44-2.011,18.916,3.593,2.584C13.597,0.897,22.99-0.277,24.866,0.057
	c4.199,0.763,50.393,18.326,55.737,20.237c5.343,1.911,37.028,1.523,37.792,1.911H118.394z"/>
</svg>
