<?xml version="1.0" encoding="utf-8"?>
<!-- Generator: Adobe Illustrator 17.0.0, SVG Export Plug-In . SVG Version: 6.00 Build 0)  -->
<!DOCTYPE svg PUBLIC "-//W3C//DTD SVG 1.1 Basic//EN" "http://www.w3.org/Graphics/SVG/1.1/DTD/svg11-basic.dtd">
<svg version="1.1" baseProfile="basic" id="Слой_1"
	 xmlns="http://www.w3.org/2000/svg" xmlns:xlink="http://www.w3.org/1999/xlink" x="0px" y="0px" width="149.685px"
	 height="89.04px" viewBox="0 0 149.685 89.04" xml:space="preserve">
<path fill="#B76153" d="M149.525,55.685c-1.386-6.597-6.59-11.457-11.315-15.891c-11.099-8.328-23.928-14.641-37.528-17.419
	c-1.183-0.967-1.46-2.42-1.595-3.88c-0.973-7.915-7.219-14.85-14.776-17C77.024-1.418,68.487,0.11,62.173,4.483
	c-5.549,3.812-9.017,10.328-8.949,17c-9.504,2.075-18.737,5.34-27.267,9.916c-5.34,2.711-10.193,6.313-15.121,9.639
	c-4.022,4.718-9.085,9.159-10.545,15.405c-1.041,4.164,0.831,8.47,3.67,11.525c5.137,5.617,12.147,9.22,19.082,12.133
	c12.701,5.137,26.301,7.631,39.894,8.605c14.296,0.906,28.863,0,42.875-3.055c12.498-2.839,24.976-7.003,35.318-14.702
	C145.774,67.339,150.634,62.066,149.525,55.685z"/>
</svg>
