<?xml version="1.0" encoding="utf-8"?>
<!-- Generator: Adobe Illustrator 17.0.0, SVG Export Plug-In . SVG Version: 6.00 Build 0)  -->
<!DOCTYPE svg PUBLIC "-//W3C//DTD SVG 1.1 Basic//EN" "http://www.w3.org/Graphics/SVG/1.1/DTD/svg11-basic.dtd">
<svg version="1.1" baseProfile="basic" id="Слой_1"
	 xmlns="http://www.w3.org/2000/svg" xmlns:xlink="http://www.w3.org/1999/xlink" x="0px" y="0px" width="97.557px"
	 height="122.197px" viewBox="0 0 97.557 122.197" xml:space="preserve">
<path fill="#BAAE52" d="M97.427,25.092l-10.01-0.451c0,0,0.006,0.02,0.015,0.059c0.131,0.556,0.958,5.007-3.876,10.395
	C59.326,3.445,12.56,23.948,12.56,23.948C5.463,18.278,7.956,0,7.956,0c-28.521,42.769,28.806,55.212,28.806,55.212
	c24.151,4.805,35.985,10.555,41.414,14.116c0.243,0.222,0.478,0.44,0.701,0.651c-8.076,5.931-27.141,19.9-27.843,20.096
	c-0.899,0.248-13.556,30.621-13.556,30.621c9.701,3.046,17.709,1.18,24.211-3.121c18.596-5.522,27.46-24.752,27.46-24.752
	c8.5-24.038,4.511-39.89,0.692-48.031C92.817,41.744,98.483,34.587,97.427,25.092z"/>
</svg>
