<?xml version="1.0" encoding="utf-8"?>
<!-- Generator: Adobe Illustrator 17.0.0, SVG Export Plug-In . SVG Version: 6.00 Build 0)  -->
<!DOCTYPE svg PUBLIC "-//W3C//DTD SVG 1.1 Basic//EN" "http://www.w3.org/Graphics/SVG/1.1/DTD/svg11-basic.dtd">
<svg version="1.1" baseProfile="basic" id="Слой_1"
	 xmlns="http://www.w3.org/2000/svg" xmlns:xlink="http://www.w3.org/1999/xlink" x="0px" y="0px" width="141.183px"
	 height="101.841px" viewBox="0 0 141.183 101.841" xml:space="preserve">
<g>
	<path fill="#87BB50" d="M126.8,70.54c0.252-0.72,0.47-1.453,0.615-2.213c0,0,6.029-10.786-10.166-15.374l-11.452,1.867
		c0,0,0.036,0.083,0.093,0.223c-0.404-0.886-0.756-1.782-0.756-2.151c0-0.023,0.002-0.042,0.003-0.06l0.005-0.03l-0.006-0.028
		c-0.018-0.068-0.441-1.688-2.191-2.718c-0.057-0.028-4.434-2.221-4.434-5.417c0-0.343,0.051-0.701,0.164-1.067
		c0.005-0.027,0.104-0.747,0.104-1.917c0-1.433-0.156-3.544-0.818-5.89l0.267,0.294c4.257,3.91,7.502,5.685,9.82,6.442
		c3.768,1.416,5.57,0.422,5.57,0.422c3.783-0.91,1.36-3.028,1.36-3.028c-2.723-0.757-6.507-6.813-6.507-6.813
		c-2.272-11.351-6.965-11.502-6.965-11.502c-8.644-1.923-9.449,3.978-9.524,5.1c-0.024-0.005-0.049-0.005-0.072-0.01
		c-0.939-1.823-2.362-2.367-2.362-2.367c-3.177-1.966-6.356,1.362-6.356,1.362c0.617-0.198,1.168-0.187,1.668-0.056
		c-0.097,0.033-0.154,0.056-0.154,0.056c-2.875-0.604-9.234,3.331-9.234,3.331c-7.416,6.208-10.898,5.299-10.898,5.299
		c-1.809-0.494-3.243-0.448-4.192-0.306c-2.133-4.182-4.332-3.163-5.078-2.636c-0.288-3.314-0.854-9.644-1.296-13.562
		c0.077-0.401,0.162-1.06,0.152-1.948c0.002-0.324-0.005-0.669-0.035-1.057c-0.19-2.41-1.129-6.006-4.308-10.287
		c0,0-1.341-1.851-3.979-3.231c-0.101-0.031-0.211-0.053-0.315-0.081c-0.2-0.082-0.567-0.215-1.08-0.344
		c-2.781-1.057-6.626-1.411-11.505,0.681c0,0-0.604,0.26-1.171,0.831c-0.167,0.127-0.404,0.378-0.597,0.804
		c-0.398,0.734-0.571,1.731-0.054,3.042c0.004,0.015,0.004,0.026,0.007,0.04l0.013,0.002c0.185,0.458,0.448,0.951,0.819,1.486
		c0,0,0.582,0.7,0.019,2.118c-1.523,0.941-3.514,2.507-3.914,4.441c-0.218,0.263-2.559,3.151-2.559,7.171
		c0,0.21,0.005,0.423,0.02,0.639c-0.09,0.177-0.697,1.389-0.974,2.624c-0.157-0.032-0.295-0.035-0.389,0.033
		c0,0-2.715-0.189-1.665,2.292c-1.236,1.21-2.591,3.013-2.591,5.122c0,0.424,0.053,0.86,0.177,1.305
		c0.007,0.035,0.974,3.762,5.746,4.524c0.005,0.142,0.042,0.358,0.227,0.596c0.017,0.022,0.048,0.037,0.067,0.058
		c0.054,0.21,0.387,0.375,0.765,0.495c0.546,0.225,1.27,0.364,2.216,0.392l0.026,0.001l0.026-0.007
		c0.04-0.014,0.33-0.114,0.75-0.288c0.277-0.099,0.55-0.223,0.816-0.367c0.406-0.197,0.852-0.434,1.292-0.713
		c0.578,0.263,2.363,0.852,2.338-1.882c0.745-0.056,2.487-0.198,3.57-0.399c-1.189,1.568-6.277,8.621-6.277,14.576
		c0,0.95,0.134,1.866,0.43,2.732c-0.348,0.657-4.297,8.179-4.873,12.22c-3.06,0.617-5.586,2.695-6.835,5.472
		c-0.373,0.317-0.467,0.668-0.397,1.023c-0.212,0.67-0.348,1.372-0.409,2.096l-0.091,0.35l0.071,0.043
		c-0.003,0.081-0.011,0.161-0.012,0.243c-3.888-1.573-9.549-2.905-14.143-0.128c0.003-0.002,0.005-0.004,0.008-0.006
		c0,0-2.79,1.399-4.024,3.849c-0.492,0.25-1.033,0.802-0.919,1.984C0.295,80.661,0.141,80.98,0,81.328c0,0,0.411,0.673,1.377,1.783
		c0.348,0.728,0.862,1.493,1.59,2.295c0,0,0.769,0.766,2.278,1.95c0.993,0.785,2.307,1.754,3.924,2.812
		c-5.625,4.822-6.92,11.002,22.012,11.658c0,0,46.836,1.091,87.341-15.271C118.522,86.554,163.438,67.606,126.8,70.54z
		 M56.491,67.499c0.632,0.066,11.114,1.023,21.974-6.178c0.06,1.732,0.578,3.345,1.44,4.726L79.86,66.03l0.106,0.117
		c0.278,0.434,0.592,0.842,0.935,1.224c-10.319,3.858-20.358,6.051-29.265,7.244C53.296,71.884,55.811,67.9,56.491,67.499z
		 M108.556,62.365c0.872,0.796,1.525,1.524,2.037,2.688c-0.051-0.014-0.102-0.027-0.153-0.041c-0.784-1.41-1.916-2.596-3.276-3.455
		c0-0.541-0.015-1.356-0.069-2.197l0.012-0.091c0,0-0.011-0.005-0.019-0.008c-0.016-0.229-0.035-0.453-0.057-0.679
		c0.227,0.982,0.367,1.987,0.27,2.795C107.338,61.351,107.549,61.445,108.556,62.365z"/>
	<path fill="#87BB50" d="M107.298,61.42c0.002-0.014,0.002-0.029,0.003-0.043C107.285,61.389,107.298,61.42,107.298,61.42z"/>
</g>
</svg>
