<?xml version="1.0" encoding="utf-8"?>
<!-- Generator: Adobe Illustrator 17.0.0, SVG Export Plug-In . SVG Version: 6.00 Build 0)  -->
<!DOCTYPE svg PUBLIC "-//W3C//DTD SVG 1.1 Basic//EN" "http://www.w3.org/Graphics/SVG/1.1/DTD/svg11-basic.dtd">
<svg version="1.1" baseProfile="basic" id="Слой_1"
	 xmlns="http://www.w3.org/2000/svg" xmlns:xlink="http://www.w3.org/1999/xlink" x="0px" y="0px" width="259.5px"
	 height="323.125px" viewBox="0 0 259.5 323.125" xml:space="preserve">
<path fill="#EBD4C6" stroke="#FFFFFF" stroke-width="6" stroke-miterlimit="10" d="M246.078,157.411
	c-2.771-11.66-8.253-22.685-15.817-31.979c-6.455-8.118-13.526-15.682-20.332-23.448c-1.798-1.947-3.049-4.306-4.022-6.807
	l0.412-0.622c1.115-1.25,0.419-3.326,0.419-4.853c-0.135-1.46-0.203-2.92-0.135-4.441c2.501-3.474,3.677-7.773,3.535-12.079
	c0.487-4.576-0.419-9.429-3.19-13.255c-4.231-5.401-9.923-9.842-16.378-12.133c4.725,4.434,9.93,9.294,11.315,15.891
	c1.109,6.381-3.751,11.653-8.395,15.263c-10.342,7.699-22.82,11.863-35.318,14.702c-14.012,3.055-28.579,3.961-42.875,3.055
	c-13.593-0.973-27.193-3.468-39.894-8.605c-6.935-2.913-13.945-6.516-19.082-12.133c-2.839-3.055-4.711-7.361-3.67-11.525
	c1.46-6.246,6.523-10.687,10.545-15.405c-5.34,1.737-9.855,5.489-13.668,9.436c-4.096,4.238-6.036,10.268-5.144,16.101
	c-0.203,5.414,2.163,10.545,5.556,14.573c-0.135,1.595-0.412,3.258-0.277,4.853c-0.554,2.704-0.764,5.617-2.636,7.773
	c-6.448,7.489-12.829,14.911-18.94,22.685c-4.792,6.029-9.152,12.417-12.491,19.42c-6.935,13.809-10.193,29.701-7.834,45.105
	c1.318,8.53,4.434,16.642,8.328,24.347c4.988,10.2,10.822,20.048,16.79,29.701c2.629,4.015,4.846,8.388,7.834,12.133
	c1.737,3.265,3.954,6.313,5.901,9.443c-1.528,8.253,2.981,16.229,8.388,22.198c7.915,8.253,18.318,13.667,28.937,17.48
	c12.904,4.651,26.497,6.942,40.097,7.706c16.723,0.764,33.506-0.696,49.607-5.137c10.896-2.974,21.508-7.28,30.809-13.667
	c8.882-6.171,17.068-15.053,18.176-26.226c0.831-6.381-1.46-12.559-4.441-18.102c4.441-7.354,8.598-14.783,12.627-22.346
	c4.921-9.227,9.706-18.595,13.113-28.437C248.227,185.023,249.336,170.801,246.078,157.411z"/>
<path fill="#EB7272" d="M1602.97,686.224c0.358-0.247,0.715-0.495,1.073-0.742c0.084,0.127,0.169,0.254,0.253,0.381
	c-0.434,0.129-0.868,0.259-1.302,0.388C1602.994,686.25,1602.97,686.224,1602.97,686.224z"/>
<path fill="#EB7272" d="M1570.006,1049.175c0.243,0.36,0.489,0.718,0.714,1.089c0.004,0.007-0.235,0.163-0.361,0.249
	c-0.133-0.432-0.267-0.865-0.401-1.297C1569.957,1049.216,1570.006,1049.175,1570.006,1049.175z"/>
<g id="__x0023_Layer_x0020_1_1_">
	<path fill="#E9B254" d="M190.57,47.794c6.455,2.291,12.147,6.732,16.378,12.133c2.771,3.826,3.677,8.679,3.19,13.255
		c-3.19,8.334-10.335,14.222-18.108,18.115c-10.545,5.475-22.063,8.672-33.716,10.747c-14.499,2.501-29.275,3.13-43.923,2.359
		c-14.56-0.892-29.133-3.258-42.875-8.253c-7.003-2.636-13.945-5.969-19.562-10.964c-3.332-2.846-5.691-6.658-7.571-10.612
		c-0.892-5.833,1.048-11.863,5.144-16.101c3.812-3.947,8.328-7.699,13.667-9.436c-4.022,4.718-9.085,9.159-10.545,15.405
		c-1.041,4.164,0.831,8.47,3.67,11.525c5.137,5.617,12.147,9.22,19.082,12.133c12.701,5.137,26.301,7.631,39.894,8.605
		c14.296,0.906,28.863,0,42.875-3.055c12.498-2.839,24.976-7.003,35.318-14.702c4.644-3.61,9.504-8.882,8.395-15.263
		C200.499,57.088,195.295,52.228,190.57,47.794z"/>
	<path fill="#D8762D" d="M192.03,91.297c7.773-3.893,14.918-9.781,18.108-18.115c0.142,4.306-1.034,8.605-3.535,12.079
		c-5.137,7.908-13.323,13.181-21.644,17.067c-10.964,4.988-22.766,7.976-34.703,9.706c-15.952,2.224-32.188,2.291-48.14-0.068
		c-2.427-0.345-4.853-0.554-7.287-0.899c-0.203,0-0.622-0.135-0.825-0.21c-8.605-2.359-17.351-4.441-25.402-8.328
		c-7.003-3.19-13.6-7.564-18.663-13.384c-3.393-4.029-5.759-9.159-5.556-14.573c1.879,3.954,4.238,7.767,7.571,10.612
		c5.617,4.995,12.559,8.328,19.562,10.964c13.742,4.995,28.315,7.361,42.875,8.253c14.648,0.771,29.424,0.142,43.923-2.359
		C169.967,99.97,181.485,96.773,192.03,91.297z"/>
	<path fill="#EBC837" d="M184.96,102.329c8.321-3.887,16.506-9.159,21.644-17.067c-0.068,1.521,0,2.981,0.135,4.441
		c-2.494,2.075-4.65,4.441-7.077,6.523c-7.415,6.239-16.304,10.47-25.53,13.39c-13.188,4.434-27.132,6.516-41.077,7.003
		c-10.403,0.629-20.812-0.419-31.215-1.318c-1.392-0.074-2.778-0.21-4.164-0.284c-0.973-1.237-1.872-2.629-2.846-3.947
		c2.433,0.345,4.86,0.554,7.287,0.899c15.952,2.359,32.188,2.291,48.14,0.068C162.194,110.305,173.996,107.317,184.96,102.329z"/>
	<path fill="#AB5B3D" d="M49.941,89.148c5.063,5.82,11.66,10.193,18.663,13.384c8.05,3.887,16.797,5.969,25.402,8.328
		c-0.419,0-1.318,0-1.744-0.068c1.183,2.427,2.569,4.786,4.299,6.935c-7.834-0.622-15.263-3.326-22.468-6.104
		c-9.294-3.887-18.46-9.233-24.428-17.622C49.528,92.406,49.805,90.743,49.941,89.148z"/>
	<path fill="#F4E538" d="M199.661,96.225c2.427-2.082,4.583-4.448,7.077-6.523c0,1.528,0.696,3.603-0.419,4.853
		c-3.258,2.014-6.861,4.164-7.976,8.118c-1.109,5.827-0.21,11.863-0.554,17.764c-1.528,3.123-3.19,6.861-6.658,8.179
		c-3.123,0.906-5.34-2.075-7.003-4.299c-2.021-2.494-3.407-6.171-6.732-7.212c-2.366-0.771-4.171,1.528-4.583,3.61
		c-1.872,6.868-1.041,14.425-3.887,21.089c-0.967,2.359-2.771,4.65-5.414,5.063c-3.326,0.696-6.584-1.115-8.74-3.535
		c-5.475-6.313-7.773-14.986-14.222-20.474c-3.535-2.974-8.53-2.075-12.687-1.379c-4.934,0.825-10.071,2.636-15.06,1.311
		c-4.373-1.244-7.841-4.367-10.964-7.489c10.403,0.899,20.812,1.947,31.215,1.318c13.945-0.487,27.889-2.569,41.077-7.003
		C183.358,106.695,192.246,102.464,199.661,96.225z"/>
	<path fill="#BA683C" d="M47.027,101.775c1.872-2.156,2.082-5.07,2.636-7.773c5.969,8.388,15.134,13.735,24.428,17.622
		c7.206,2.778,14.634,5.482,22.468,6.104c4.86,5.279,9.443,11.66,16.729,13.674c7.76,1.244,15.33-3.332,23.164-1.737
		c3.751,0.825,6.185,4.164,8.192,7.145c3.677,5.34,5.969,11.721,10.822,16.229c2.494,2.501,6.523,3.055,9.578,1.528
		c1.866-1.041,2.427-3.116,3.184-4.921c3.055-6.59,3.265-13.945,4.306-21.028c16.926,14.992,24.003,39.482,19.636,61.402
		c-2.913,15.263-10.754,29.207-20.954,40.8c-5.624,6.726-12.417,12.275-19.494,17.27c-11.869,8.26-25.53,14.087-39.894,16.31
		c-23.935,3.468-48.911,0.689-71.116-9.233c-2.988-3.745-5.205-8.118-7.834-12.133c-5.969-9.652-11.802-19.501-16.79-29.701
		c-3.893-7.706-7.009-15.817-8.328-24.347c-2.359-15.405,0.899-31.296,7.834-45.105c3.339-7.003,7.699-13.39,12.491-19.42
		C34.198,116.686,40.579,109.264,47.027,101.775z"/>
	<path fill="#E9C133" d="M198.343,102.674c1.115-3.954,4.718-6.104,7.976-8.118l-0.412,0.622
		C204.312,98.442,201.466,100.869,198.343,102.674z"/>
	<path fill="#A2462C" d="M198.343,102.674c3.123-1.805,5.969-4.231,7.564-7.496c0.973,2.501,2.224,4.86,4.022,6.807
		c6.807,7.767,13.877,15.33,20.332,23.448c7.564,9.294,13.046,20.319,15.817,31.979c3.258,13.39,2.149,27.612-2.149,40.664
		c-3.407,9.842-8.192,19.21-13.113,28.437c-4.029,7.564-8.186,14.992-12.627,22.347c-3.258,4.786-4.583,10.68-7.908,15.465
		c-7.287,10.896-18.453,18.527-30.248,23.867c-21.299,9.504-45.241,12.207-68.344,9.646c-14.222-1.67-28.234-5.482-40.935-12.207
		c-9.436-5.137-18.311-11.869-24.138-21.022c-1.947-3.13-4.164-6.178-5.901-9.443c22.205,9.923,47.181,12.701,71.116,9.233
		c14.364-2.224,28.024-8.05,39.894-16.31c7.077-4.995,13.87-10.545,19.494-17.27c10.2-11.592,18.041-25.537,20.954-40.8
		c4.367-21.921-2.711-46.41-19.636-61.402c0.142-0.967,0.345-1.94,0.554-2.913c1.805,0.074,3.893-0.412,5.414,0.838
		c3.326,2.913,4.921,7.496,8.672,10.051c1.386,1.048,3.393,0.771,4.786-0.203c2.014-1.386,2.981-3.745,3.812-5.969
		c1.392-3.123,1.94-6.59,2.014-9.984C198.134,114.536,197.235,108.5,198.343,102.674z"/>
	<path fill="#99503E" d="M92.261,110.792c0.426,0.068,1.325,0.068,1.744,0.068c0.203,0.074,0.622,0.21,0.825,0.21
		c0.973,1.318,1.872,2.711,2.846,3.947c4.373,5.347,9.504,10.896,16.446,12.708c8.044,1.318,15.952-3.61,24.003-1.744
		c4.644,1.744,7.287,6.32,9.713,10.342c3.123,5.07,5.408,11.173,10.687,14.431c3.123,1.94,6.868,0.696,9.706-1.109
		c-0.757,1.805-1.318,3.88-3.184,4.921c-3.055,1.528-7.084,0.973-9.578-1.528c-4.853-4.509-7.145-10.889-10.822-16.229
		c-2.008-2.981-4.441-6.32-8.192-7.145c-7.834-1.595-15.405,2.981-23.164,1.737c-7.287-2.014-11.869-8.395-16.729-13.674
		C94.83,115.577,93.444,113.218,92.261,110.792z"/>
	<path fill="#ECC432" d="M97.675,115.016c1.386,0.074,2.771,0.21,4.164,0.284c3.123,3.123,6.59,6.246,10.964,7.489
		c4.988,1.325,10.126-0.487,15.06-1.311c4.157-0.696,9.152-1.595,12.687,1.379c6.448,5.489,8.747,14.161,14.222,20.474
		c2.156,2.42,5.414,4.231,8.74,3.535c2.643-0.412,4.448-2.704,5.414-5.063c2.846-6.665,2.014-14.222,3.887-21.089
		c0.412-2.082,2.217-4.38,4.583-3.61c3.326,1.041,4.711,4.718,6.732,7.212c1.663,2.224,3.88,5.205,7.003,4.299
		c3.468-1.318,5.13-5.056,6.658-8.179c-0.074,3.393-0.622,6.861-2.014,9.984c-1.94,1.67-4.502,4.164-7.212,2.711
		c-4.089-2.427-5.34-7.564-8.949-10.484c-1.183-1.034-3.123-1.318-4.441-0.412c-1.041,0.906-1.528,2.224-2.082,3.468
		c-0.21,0.973-0.412,1.947-0.554,2.913c-1.041,7.084-1.25,14.438-4.306,21.028c-2.839,1.805-6.584,3.048-9.706,1.109
		c-5.279-3.258-7.564-9.362-10.687-14.431c-2.427-4.022-5.07-8.598-9.713-10.342c-8.05-1.866-15.959,3.062-24.003,1.744
		C107.179,125.912,102.049,120.363,97.675,115.016z"/>
	<path fill="#984F3E" d="M175.172,122.235c1.318-0.906,3.258-0.622,4.441,0.412c3.61,2.92,4.86,8.057,8.949,10.484
		c2.711,1.453,5.272-1.041,7.212-2.711c-0.831,2.224-1.798,4.583-3.812,5.969c-1.392,0.973-3.4,1.25-4.786,0.203
		c-3.751-2.555-5.347-7.138-8.672-10.051c-1.521-1.25-3.61-0.764-5.414-0.838C173.644,124.459,174.131,123.141,175.172,122.235z"/>
	<path fill="#EBD4C6" d="M210.28,264.324c3.326-4.786,4.65-10.68,7.908-15.465c2.981,5.543,5.272,11.721,4.441,18.102
		c-1.109,11.173-9.294,20.055-18.176,26.226c-9.301,6.388-19.913,10.693-30.809,13.667c-16.101,4.441-32.884,5.901-49.607,5.137
		c-13.6-0.764-27.193-3.055-40.097-7.706c-10.619-3.812-21.022-9.227-28.937-17.48c-5.408-5.969-9.916-13.945-8.388-22.198
		c5.827,9.152,14.702,15.885,24.138,21.022c12.701,6.726,26.713,10.538,40.935,12.207c23.104,2.562,47.045-0.142,68.344-9.646
		C191.827,282.852,202.994,275.22,210.28,264.324z"/>
</g>
</svg>
