<?xml version="1.0" encoding="utf-8"?>
<!-- Generator: Adobe Illustrator 17.0.0, SVG Export Plug-In . SVG Version: 6.00 Build 0)  -->
<!DOCTYPE svg PUBLIC "-//W3C//DTD SVG 1.1 Basic//EN" "http://www.w3.org/Graphics/SVG/1.1/DTD/svg11-basic.dtd">
<svg version="1.1" baseProfile="basic" id="Слой_1"
	 xmlns="http://www.w3.org/2000/svg" xmlns:xlink="http://www.w3.org/1999/xlink" x="0px" y="0px" width="259.5px"
	 height="323.125px" viewBox="0 0 259.5 323.125" xml:space="preserve">
<g>
	<path fill="#EBD4C6" stroke="#FFFAFA" stroke-width="6" stroke-miterlimit="10" d="M49.939,89.145
		c5.063,5.82,11.66,10.194,18.663,13.384c8.051,3.887,16.797,5.969,25.402,8.328c0.203,0.075,0.622,0.21,0.825,0.21
		c2.434,0.345,4.86,0.554,7.287,0.899c15.952,2.359,32.188,2.292,48.14,0.068c11.937-1.73,23.739-4.718,34.703-9.706
		c8.321-3.886,16.507-9.159,21.644-17.067c2.501-3.474,3.677-7.773,3.535-12.079c0.487-4.576-0.419-9.429-3.19-13.255
		c-4.231-5.401-9.923-9.842-16.378-12.133c-11.099-8.328-23.928-14.641-37.528-17.419c-0.001,0,0.001,0,0,0
		c-1.182-0.967-1.461-2.419-1.596-3.879c-0.973-7.915-7.219-14.851-14.776-17c-0.358-0.075-0.358-0.075,0-0.001
		c-7.287-2.913-15.824-1.385-22.137,2.988c-5.549,3.812-9.017,10.328-8.949,16.998c0.038,0.585,0.105,1.171,0.185,1.755
		c-0.08-0.584-0.148-1.169-0.185-1.754c-9.503,2.075-18.737,5.34-27.267,9.916c-5.34,2.71-10.194,6.313-15.121,9.637
		c-4.022,4.718-9.085,9.159-10.545,15.405c-1.041,4.164,0.831,8.47,3.67,11.525c5.137,5.617,12.147,9.22,19.082,12.133
		c12.701,5.137,26.301,7.632,39.894,8.605c14.296,0.906,28.863,0,42.875-3.055c0.209-2.112,0.419-4.261,0.377-6.377
		c0.042,2.116-0.167,4.265-0.377,6.377c-0.001,0-0.001,0-0.002,0c-14.012,3.055-28.579,3.961-42.875,3.055
		c-13.593-0.974-27.193-3.468-39.894-8.605c-6.935-2.913-13.945-6.516-19.082-12.133c-2.839-3.055-4.711-7.361-3.67-11.525
		c1.46-6.246,6.523-10.687,10.545-15.405c-5.339,1.737-9.855,5.489-13.667,9.436c-4.096,4.238-6.036,10.268-5.144,16.101
		C44.18,79.987,46.546,85.116,49.939,89.145z M169.529,99.627c7.772-1.977,15.362-4.623,22.501-8.33
		C184.89,95.005,177.3,97.65,169.529,99.627z M158.105,52.581c-3.61,3.542-8.666,4.583-13.526,5.272l0.276,0.411l0,0l-0.276-0.411
		c0,0,0-0.001-0.001-0.001C149.438,57.163,154.494,56.122,158.105,52.581c2.426-2.151,3.399-5.895,1.946-8.883
		c-0.225-0.504-0.482-0.982-0.767-1.437c0.285,0.455,0.542,0.934,0.768,1.438C161.505,46.687,160.532,50.432,158.105,52.581z
		 M137.982,48.484C137.982,48.484,137.982,48.484,137.982,48.484c-1.326,0.521-2.681,0.915-4.053,1.19
		C135.3,49.399,136.655,49.005,137.982,48.484C137.981,48.484,137.981,48.484,137.982,48.484z M151.932,30.308
		C151.932,30.308,151.932,30.308,151.932,30.308c-0.553,1.731-0.905,3.609-1.39,5.346c0,0-0.001,0-0.001,0
		c-0.908,2.55-2.336,4.86-4.133,6.855c1.796-1.995,3.224-4.305,4.132-6.854C151.026,33.918,151.378,32.038,151.932,30.308z
		 M106.174,33.469c0.928,3.938,2.882,7.632,6,10.227c6.388,1.805,13.526,2.224,19.562-0.831c6.013-2.714,10.451-8.68,11.601-15.164
		c-1.149,6.485-5.588,12.452-11.602,15.166c-6.036,3.055-13.173,2.636-19.561,0.831c0,0,0,0,0,0
		C109.056,41.102,107.102,37.407,106.174,33.469z M105.796,31.483c0.074,0.5,0.179,0.995,0.284,1.49
		C105.974,32.478,105.869,31.983,105.796,31.483z"/>
	<path fill="#EBD4C6" stroke="#FFFAFA" stroke-width="6" stroke-miterlimit="10" d="M246.078,157.412
		c-2.771-11.66-8.253-22.685-15.817-31.979c-6.455-8.118-13.525-15.681-20.332-23.448c-1.798-1.947-2.97-4.106-3.944-6.607
		c-1.396,2.857-3.828,4.872-6.486,6.59c2.659-1.718-0.041-3.248-1.156,0.706c-1.108,5.826-0.209,11.862-0.554,17.763
		c-0.007,0.341-0.023,0.682-0.041,1.024c0.017-0.342,0.033-0.683,0.041-1.024l0,0c0.344-5.901-0.555-11.937,0.554-17.764
		c1.115-3.954,4.718-6.104,7.976-8.118c1.115-1.25,0.42-3.323,0.419-4.851c0,0,0.001-0.001,0.001-0.001
		c-0.135-1.46-0.203-2.92-0.135-4.441c-5.138,7.908-13.323,13.18-21.644,17.067c-10.964,4.988-22.766,7.976-34.703,9.708
		c-15.952,2.223-32.188,2.291-48.14-0.068c-2.427-0.345-4.854-0.554-7.287-0.899c0.961,1.301,1.85,2.672,2.808,3.897
		c-0.959-1.224-1.848-2.596-2.808-3.897c-0.203,0-0.622-0.136-0.825-0.21c-0.419,0-1.317,0-1.743-0.068c0,0,0,0,0,0
		c0.426,0.068,1.325,0.068,1.744,0.068c-8.605-2.359-17.352-4.441-25.402-8.328c-7.003-3.191-13.6-7.564-18.663-13.384
		c-0.136,1.595-0.413,3.258-0.276,4.853c5.968,8.389,15.134,13.735,24.428,17.622c7.205,2.778,14.634,5.482,22.468,6.104
		c-0.609-0.757-1.163-1.547-1.693-2.35c0.53,0.803,1.084,1.593,1.694,2.35c4.86,5.279,9.442,11.66,16.729,13.674
		c7.759,1.244,15.33-3.332,23.164-1.737c3.751,0.825,6.184,4.164,8.192,7.145c3.677,5.34,5.969,11.72,10.822,16.229
		c1.87,1.876,4.604,2.657,7.143,2.286c-2.54,0.372-5.275-0.408-7.146-2.285c-4.853-4.508-7.145-10.889-10.822-16.229
		c-2.007-2.981-4.441-6.32-8.192-7.145c-7.834-1.595-15.404,2.981-23.164,1.737c-7.286-2.014-11.869-8.395-16.729-13.674
		c-7.834-0.622-15.262-3.326-22.468-6.104c-9.294-3.887-18.459-9.234-24.428-17.622c-0.554,2.703-0.764,5.617-2.636,7.773
		c-6.448,7.489-12.829,14.911-18.942,22.686c-4.792,6.03-9.152,12.417-12.491,19.42c-6.935,13.809-10.193,29.7-7.834,45.105
		c1.319,8.53,4.435,16.641,8.328,24.347c4.988,10.2,10.821,20.049,16.79,29.701c2.629,4.015,4.846,8.388,7.834,12.133
		c0.002,0.001,0.003,0.001,0.005,0.002c1.736,3.263,3.952,6.31,5.898,9.438c-1.528,8.253,2.98,16.229,8.388,22.198
		c7.915,8.253,18.318,13.668,28.937,17.48c12.904,4.651,26.497,6.942,40.097,7.706c16.723,0.764,33.506-0.696,49.607-5.137
		c10.896-2.974,21.508-7.279,30.809-13.667c8.882-6.171,17.067-15.053,18.176-26.226c0.831-6.38-1.46-12.558-4.44-18.101
		c0,0,0,0,0,0c4.441-7.355,8.598-14.783,12.627-22.347c4.921-9.227,9.706-18.595,13.113-28.437
		C248.227,185.024,249.336,170.802,246.078,157.412z M195.775,130.421c-0.831,2.224-1.798,4.583-3.812,5.969
		c-1.393,0.974-3.4,1.251-4.786,0.203c-0.469-0.32-0.905-0.671-1.314-1.047c0.409,0.375,0.844,0.727,1.313,1.046
		c1.386,1.047,3.394,0.77,4.786-0.203c2.014-1.386,2.981-3.744,3.811-5.968c0,0,0.001-0.001,0.002-0.001
		c1.218-2.733,1.79-5.729,1.963-8.709C197.565,124.692,196.993,127.688,195.775,130.421z M148.315,133.299
		c-1.198-2.128-2.428-4.227-3.86-6.17C145.888,129.072,147.117,131.171,148.315,133.299z M168.055,143.513
		c-0.004,0.006-0.007,0.013-0.01,0.019C168.048,143.525,168.051,143.519,168.055,143.513z M179.614,122.647
		c3.609,2.92,4.86,8.057,8.949,10.484c0.508,0.272,1.011,0.406,1.506,0.432c-0.495-0.026-0.998-0.16-1.507-0.432
		c-4.089-2.427-5.339-7.564-8.949-10.484c-0.739-0.646-1.774-0.999-2.768-0.952C177.839,121.647,178.875,122.001,179.614,122.647z
		 M117.447,116.533c-5.203-0.296-10.405-0.782-15.607-1.232l0,0C107.041,115.75,112.244,116.237,117.447,116.533z M108.235,120.697
		c-0.782-0.495-1.529-1.05-2.256-1.629C106.707,119.647,107.453,120.201,108.235,120.697z M138.125,125.981
		c-8.051-1.866-15.959,3.062-24.003,1.744c-6.297-1.643-11.101-6.362-15.203-11.215c4.103,4.853,8.906,9.57,15.203,11.214
		c8.044,1.318,15.953-3.61,24.003-1.744c2.612,0.981,4.591,2.859,6.255,5.029C142.716,128.839,140.737,126.962,138.125,125.981z
		 M158.525,150.754c-5.279-3.258-7.564-9.361-10.687-14.431c-1.039-1.722-2.119-3.544-3.377-5.204
		c1.258,1.659,2.338,3.481,3.377,5.203C150.961,141.391,153.246,147.495,158.525,150.754c3.121,1.937,6.864,0.696,9.703-1.108
		c0,0,0,0,0,0c0,0,0,0.001,0,0.001C165.39,151.451,161.647,152.693,158.525,150.754z M163.858,155.042
		c-0.19,0.059-0.389,0.087-0.583,0.132C163.469,155.129,163.668,155.101,163.858,155.042z M151.722,248.09
		c7.077-4.995,13.87-10.544,19.494-17.27c10.2-11.593,18.041-25.537,20.954-40.8c4.367-21.919-2.709-46.408-19.634-61.4
		c0-0.001,0-0.003,0.001-0.004c0.142-0.966,0.344-1.94,0.554-2.913c1.804,0.074,3.892-0.412,5.413,0.838
		c0.012,0.01,0.021,0.023,0.033,0.033c-0.011-0.01-0.021-0.022-0.032-0.032c-1.521-1.25-3.609-0.764-5.414-0.838
		c-0.209,0.973-0.412,1.946-0.554,2.913c16.925,14.992,24.003,39.481,19.636,61.402c-2.913,15.263-10.754,29.208-20.954,40.8
		c-5.624,6.725-12.417,12.275-19.494,17.27c-3.993,2.778-8.191,5.273-12.548,7.456C143.533,253.363,147.731,250.868,151.722,248.09z
		"/>
</g>
<path fill="#EB7272" d="M1602.97,686.224c0.358-0.247,0.715-0.495,1.073-0.742c0.084,0.127,0.169,0.254,0.253,0.381
	c-0.434,0.129-0.868,0.259-1.302,0.388C1602.994,686.25,1602.97,686.224,1602.97,686.224z"/>
<path fill="#EB7272" d="M1570.006,1049.175c0.243,0.36,0.489,0.718,0.714,1.089c0.004,0.007-0.235,0.163-0.361,0.249
	c-0.133-0.432-0.267-0.865-0.401-1.297C1569.957,1049.216,1570.006,1049.175,1570.006,1049.175z"/>
<g id="__x0023_Layer_x0020_1">
	<path fill="#ECBB31" d="M114.533,12.483c6.313-4.373,14.85-5.901,22.137-2.988c-0.358-0.074-1.048-0.142-1.318-0.21
		c2.771,2.913,6.097,5.549,7.354,9.51c3.19,9.294-2.224,20.123-10.97,24.07c-6.036,3.055-13.174,2.636-19.562,0.831
		c-4.157-3.461-6.246-8.875-6.59-14.215C105.516,22.811,108.984,16.295,114.533,12.483z"/>
	<path fill="#E0962F" d="M135.352,9.286c0.27,0.068,0.96,0.135,1.318,0.21c7.557,2.149,13.803,9.085,14.776,17
		c0.135,1.46,0.412,2.913,1.595,3.88c-0.277,0-0.831-0.068-1.109-0.068c-0.554,1.73-0.906,3.61-1.392,5.347
		c-2.075,5.827-6.868,10.403-12.559,12.829c-7.07,2.778-14.979,1.947-21.779-1.244c-1.325-1.183-2.643-2.359-4.029-3.542
		c6.388,1.805,13.526,2.224,19.562-0.831c8.747-3.947,14.161-14.776,10.97-24.07C141.449,14.835,138.124,12.199,135.352,9.286z"/>
	<path fill="#F4E537" d="M113.29,16.708c1.94-0.757,4.711,0.277,4.711,2.569c0.493,2.636-2.981,4.171-4.995,2.846
		C110.721,21.223,111.133,17.478,113.29,16.708z"/>
	<path fill="#D0502D" d="M78.317,39.399c8.53-4.576,17.764-7.841,27.267-9.916c0.345,5.34,2.433,10.754,6.59,14.215
		c1.386,1.183,2.704,2.359,4.029,3.542c3.535,5.482,9.713,8.395,15.952,9.706c4.157,0.973,8.463,1.048,12.701,1.318
		c4.441,7.429,9.504,14.648,12.559,22.833c1.595,3.954,1.176,8.328,0.757,12.552c-14.012,3.055-28.579,3.961-42.875,3.055
		c-13.593-0.973-27.193-3.468-39.894-8.605c-6.935-2.913-13.945-6.516-19.082-12.133c-2.839-3.055-4.711-7.361-3.67-11.525
		c1.46-6.246,6.523-10.687,10.545-15.405C68.123,45.712,72.977,42.109,78.317,39.399z"/>
	<path fill="#C22A2B" d="M151.933,30.307c0.277,0,0.831,0.068,1.109,0.068c13.6,2.778,26.429,9.091,37.528,17.419
		c4.725,4.434,9.93,9.294,11.315,15.891c1.109,6.381-3.751,11.653-8.395,15.263c-10.342,7.699-22.82,11.863-35.318,14.702
		c0.419-4.225,0.838-8.598-0.757-12.552c-3.055-8.186-8.118-15.405-12.559-22.833l-0.277-0.412c4.86-0.689,9.916-1.73,13.526-5.272
		c2.427-2.149,3.4-5.894,1.947-8.882c-1.805-4.029-5.624-6.448-9.51-8.044C151.027,33.917,151.379,32.038,151.933,30.307z"/>
	<path fill="#A6292B" d="M150.541,35.654c3.887,1.595,7.706,4.015,9.51,8.044c1.453,2.988,0.48,6.732-1.947,8.882
		c-3.61,3.542-8.666,4.583-13.526,5.272c-2.156-3.19-4.509-6.171-6.597-9.369C143.673,46.057,148.466,41.481,150.541,35.654z"/>
	<path fill="#B02F2C" d="M116.203,47.24c6.8,3.19,14.708,4.022,21.779,1.244c2.089,3.197,4.441,6.178,6.597,9.369l0.277,0.412
		c-4.238-0.27-8.544-0.345-12.701-1.318C125.916,55.635,119.738,52.722,116.203,47.24z"/>
	<path fill="#E9B254" d="M190.57,47.794c6.455,2.291,12.147,6.732,16.378,12.133c2.771,3.826,3.677,8.679,3.19,13.255
		c-3.19,8.334-10.335,14.222-18.108,18.115c-10.545,5.475-22.063,8.672-33.716,10.747c-14.499,2.501-29.275,3.13-43.923,2.359
		c-14.56-0.892-29.133-3.258-42.875-8.253c-7.003-2.636-13.945-5.969-19.562-10.964c-3.332-2.846-5.691-6.658-7.571-10.612
		c-0.892-5.833,1.048-11.863,5.144-16.101c3.812-3.947,8.328-7.699,13.667-9.436c-4.022,4.718-9.085,9.159-10.545,15.405
		c-1.041,4.164,0.831,8.47,3.67,11.525c5.137,5.617,12.147,9.22,19.082,12.133c12.701,5.137,26.301,7.631,39.894,8.605
		c14.296,0.906,28.863,0,42.875-3.055c12.498-2.839,24.976-7.003,35.318-14.702c4.644-3.61,9.504-8.882,8.395-15.263
		C200.499,57.088,195.295,52.228,190.57,47.794z"/>
	<path fill="#D8762D" d="M192.03,91.297c7.773-3.893,14.918-9.781,18.108-18.115c0.142,4.306-1.034,8.605-3.535,12.079
		c-5.137,7.908-13.323,13.181-21.644,17.067c-10.964,4.988-22.766,7.976-34.703,9.706c-15.952,2.224-32.188,2.291-48.14-0.068
		c-2.427-0.345-4.853-0.554-7.287-0.899c-0.203,0-0.622-0.135-0.825-0.21c-8.605-2.359-17.351-4.441-25.402-8.328
		c-7.003-3.19-13.6-7.564-18.663-13.384c-3.393-4.029-5.759-9.159-5.556-14.573c1.879,3.954,4.238,7.767,7.571,10.612
		c5.617,4.995,12.559,8.328,19.562,10.964c13.742,4.995,28.315,7.361,42.875,8.253c14.648,0.771,29.424,0.142,43.923-2.359
		C169.967,99.97,181.485,96.773,192.03,91.297z"/>
	<path fill="#EBC837" d="M184.96,102.329c8.321-3.887,16.506-9.159,21.644-17.067c-0.068,1.521,0,2.981,0.135,4.441
		c-2.494,2.075-4.65,4.441-7.077,6.523c-7.415,6.239-16.304,10.47-25.53,13.39c-13.188,4.434-27.132,6.516-41.077,7.003
		c-10.403,0.629-20.812-0.419-31.215-1.318c-1.392-0.074-2.778-0.21-4.164-0.284c-0.973-1.237-1.872-2.629-2.846-3.947
		c2.433,0.345,4.86,0.554,7.287,0.899c15.952,2.359,32.188,2.291,48.14,0.068C162.194,110.305,173.996,107.317,184.96,102.329z"/>
	<path fill="#AB5B3D" d="M49.941,89.148c5.063,5.82,11.66,10.193,18.663,13.384c8.05,3.887,16.797,5.969,25.402,8.328
		c-0.419,0-1.318,0-1.744-0.068c1.183,2.427,2.569,4.786,4.299,6.935c-7.834-0.622-15.263-3.326-22.468-6.104
		c-9.294-3.887-18.46-9.233-24.428-17.622C49.528,92.406,49.805,90.743,49.941,89.148z"/>
	<path fill="#F4E538" d="M199.661,96.225c2.427-2.082,4.583-4.448,7.077-6.523c0,1.528,0.696,3.603-0.419,4.853
		c-3.258,2.014-6.861,4.164-7.976,8.118c-1.109,5.827-0.21,11.863-0.554,17.764c-1.528,3.123-3.19,6.861-6.658,8.179
		c-3.123,0.906-5.34-2.075-7.003-4.299c-2.021-2.494-3.407-6.171-6.732-7.212c-2.366-0.771-4.171,1.528-4.583,3.61
		c-1.872,6.868-1.041,14.425-3.887,21.089c-0.967,2.359-2.771,4.65-5.414,5.063c-3.326,0.696-6.584-1.115-8.74-3.535
		c-5.475-6.313-7.773-14.986-14.222-20.474c-3.535-2.974-8.53-2.075-12.687-1.379c-4.934,0.825-10.071,2.636-15.06,1.311
		c-4.373-1.244-7.841-4.367-10.964-7.489c10.403,0.899,20.812,1.947,31.215,1.318c13.945-0.487,27.889-2.569,41.077-7.003
		C183.358,106.695,192.246,102.464,199.661,96.225z"/>
	<path fill="#BA683C" d="M47.027,101.775c1.872-2.156,2.082-5.07,2.636-7.773c5.969,8.388,15.134,13.735,24.428,17.622
		c7.206,2.778,14.634,5.482,22.468,6.104c4.86,5.279,9.443,11.66,16.729,13.674c7.76,1.244,15.33-3.332,23.164-1.737
		c3.751,0.825,6.185,4.164,8.192,7.145c3.677,5.34,5.969,11.721,10.822,16.229c2.494,2.501,6.523,3.055,9.578,1.528
		c1.866-1.041,2.427-3.116,3.184-4.921c3.055-6.59,3.265-13.945,4.306-21.028c16.926,14.992,24.003,39.482,19.636,61.402
		c-2.913,15.263-10.754,29.207-20.954,40.8c-5.624,6.726-12.417,12.275-19.494,17.27c-11.869,8.26-25.53,14.087-39.894,16.31
		c-23.935,3.468-48.911,0.689-71.116-9.233c-2.988-3.745-5.205-8.118-7.834-12.133c-5.969-9.652-11.802-19.501-16.79-29.701
		c-3.893-7.706-7.009-15.817-8.328-24.347c-2.359-15.405,0.899-31.296,7.834-45.105c3.339-7.003,7.699-13.39,12.491-19.42
		C34.198,116.686,40.579,109.264,47.027,101.775z"/>
	<path fill="#E9C133" d="M198.343,102.674c1.115-3.954,4.718-6.104,7.976-8.118l-0.412,0.622
		C204.312,98.442,201.466,100.869,198.343,102.674z"/>
	<path fill="#A2462C" d="M198.343,102.674c3.123-1.805,5.969-4.231,7.564-7.496c0.973,2.501,2.224,4.86,4.022,6.807
		c6.807,7.767,13.877,15.33,20.332,23.448c7.564,9.294,13.046,20.319,15.817,31.979c3.258,13.39,2.149,27.612-2.149,40.664
		c-3.407,9.842-8.192,19.21-13.113,28.437c-4.029,7.564-8.186,14.992-12.627,22.347c-3.258,4.786-4.583,10.68-7.908,15.465
		c-7.287,10.896-18.453,18.527-30.248,23.867c-21.299,9.504-45.241,12.207-68.344,9.646c-14.222-1.67-28.234-5.482-40.935-12.207
		c-9.436-5.137-18.311-11.869-24.138-21.022c-1.947-3.13-4.164-6.178-5.901-9.443c22.205,9.923,47.181,12.701,71.116,9.233
		c14.364-2.224,28.024-8.05,39.894-16.31c7.077-4.995,13.87-10.545,19.494-17.27c10.2-11.592,18.041-25.537,20.954-40.8
		c4.367-21.921-2.711-46.41-19.636-61.402c0.142-0.967,0.345-1.94,0.554-2.913c1.805,0.074,3.893-0.412,5.414,0.838
		c3.326,2.913,4.921,7.496,8.672,10.051c1.386,1.048,3.393,0.771,4.786-0.203c2.014-1.386,2.981-3.745,3.812-5.969
		c1.392-3.123,1.94-6.59,2.014-9.984C198.134,114.536,197.235,108.5,198.343,102.674z"/>
	<path fill="#99503E" d="M92.261,110.792c0.426,0.068,1.325,0.068,1.744,0.068c0.203,0.074,0.622,0.21,0.825,0.21
		c0.973,1.318,1.872,2.711,2.846,3.947c4.373,5.347,9.504,10.896,16.446,12.708c8.044,1.318,15.952-3.61,24.003-1.744
		c4.644,1.744,7.287,6.32,9.713,10.342c3.123,5.07,5.408,11.173,10.687,14.431c3.123,1.94,6.868,0.696,9.706-1.109
		c-0.757,1.805-1.318,3.88-3.184,4.921c-3.055,1.528-7.084,0.973-9.578-1.528c-4.853-4.509-7.145-10.889-10.822-16.229
		c-2.008-2.981-4.441-6.32-8.192-7.145c-7.834-1.595-15.405,2.981-23.164,1.737c-7.287-2.014-11.869-8.395-16.729-13.674
		C94.83,115.577,93.444,113.218,92.261,110.792z"/>
	<path fill="#ECC432" d="M97.675,115.016c1.386,0.074,2.771,0.21,4.164,0.284c3.123,3.123,6.59,6.246,10.964,7.489
		c4.988,1.325,10.126-0.487,15.06-1.311c4.157-0.696,9.152-1.595,12.687,1.379c6.448,5.489,8.747,14.161,14.222,20.474
		c2.156,2.42,5.414,4.231,8.74,3.535c2.643-0.412,4.448-2.704,5.414-5.063c2.846-6.665,2.014-14.222,3.887-21.089
		c0.412-2.082,2.217-4.38,4.583-3.61c3.326,1.041,4.711,4.718,6.732,7.212c1.663,2.224,3.88,5.205,7.003,4.299
		c3.468-1.318,5.13-5.056,6.658-8.179c-0.074,3.393-0.622,6.861-2.014,9.984c-1.94,1.67-4.502,4.164-7.212,2.711
		c-4.089-2.427-5.34-7.564-8.949-10.484c-1.183-1.034-3.123-1.318-4.441-0.412c-1.041,0.906-1.528,2.224-2.082,3.468
		c-0.21,0.973-0.412,1.947-0.554,2.913c-1.041,7.084-1.25,14.438-4.306,21.028c-2.839,1.805-6.584,3.048-9.706,1.109
		c-5.279-3.258-7.564-9.362-10.687-14.431c-2.427-4.022-5.07-8.598-9.713-10.342c-8.05-1.866-15.959,3.062-24.003,1.744
		C107.179,125.912,102.049,120.363,97.675,115.016z"/>
	<path fill="#984F3E" d="M175.172,122.235c1.318-0.906,3.258-0.622,4.441,0.412c3.61,2.92,4.86,8.057,8.949,10.484
		c2.711,1.453,5.272-1.041,7.212-2.711c-0.831,2.224-1.798,4.583-3.812,5.969c-1.392,0.973-3.4,1.25-4.786,0.203
		c-3.751-2.555-5.347-7.138-8.672-10.051c-1.521-1.25-3.61-0.764-5.414-0.838C173.644,124.459,174.131,123.141,175.172,122.235z"/>
	<path fill="#EBD4C6" d="M210.28,264.324c3.326-4.786,4.65-10.68,7.908-15.465c2.981,5.543,5.272,11.721,4.441,18.102
		c-1.109,11.173-9.294,20.055-18.176,26.226c-9.301,6.388-19.913,10.693-30.809,13.667c-16.101,4.441-32.884,5.901-49.607,5.137
		c-13.6-0.764-27.193-3.055-40.097-7.706c-10.619-3.812-21.022-9.227-28.937-17.48c-5.408-5.969-9.916-13.945-8.388-22.198
		c5.827,9.152,14.702,15.885,24.138,21.022c12.701,6.726,26.713,10.538,40.935,12.207c23.104,2.562,47.045-0.142,68.344-9.646
		C191.827,282.852,202.994,275.22,210.28,264.324z"/>
</g>
</svg>
