<?xml version="1.0" encoding="utf-8"?>
<!-- Generator: Adobe Illustrator 17.0.0, SVG Export Plug-In . SVG Version: 6.00 Build 0)  -->
<!DOCTYPE svg PUBLIC "-//W3C//DTD SVG 1.1 Basic//EN" "http://www.w3.org/Graphics/SVG/1.1/DTD/svg11-basic.dtd">
<svg version="1.1" baseProfile="basic" id="Слой_1"
	 xmlns="http://www.w3.org/2000/svg" xmlns:xlink="http://www.w3.org/1999/xlink" x="0px" y="0px" width="136.05px"
	 height="109.363px" viewBox="0 0 136.05 109.363" xml:space="preserve">
<path fill="#42BCAA" d="M136.05,98.339l-3.08-21.944l0.043-0.077l-0.053,0.009l-1.837-13.087l-13.728-14.834
	c-0.606-1.603-1.087-3.292-0.487-3.441L98.046,27.452c-0.568-0.712-1.067-1.314-1.491-1.796c0.015-0.042,0.042-0.076,0.049-0.123
	c0.096-0.043,0.175-0.102,0.235-0.18c0.49-0.635-0.509-2.214-2.228-3.529c-1.719-1.312-3.509-1.861-3.993-1.225
	c-0.007,0.009-0.007,0.022-0.013,0.032L64.982,6.964l-2.714,0.708L45.545,0.002c0,0-12.472-0.291-39.741,5.509
	c0,0,7.832,2.03-5.804,17.986c0,0,22.6,6.955,52.454,52.137l-6.306,8.287l-1.513-0.057l-2.317,2.591l-1.026,1.295
	c0,0-3.722-0.271-2.428,3.776c0,0,0.701,1.944,3.346,2.591c0,0,3.021-0.324,2.75-3.399c-0.268-3.075,0-0.107,0-0.107l2.916-4.479
	L47.28,84.73l6.472-8.598c6.523,2.237,37.912,13.583,64.027,33.231l0.501-1.026C120.103,107.019,133.351,97.53,136.05,98.339z"/>
</svg>
