<?xml version="1.0" encoding="utf-8"?>
<!-- Generator: Adobe Illustrator 17.0.0, SVG Export Plug-In . SVG Version: 6.00 Build 0)  -->
<!DOCTYPE svg PUBLIC "-//W3C//DTD SVG 1.1 Basic//EN" "http://www.w3.org/Graphics/SVG/1.1/DTD/svg11-basic.dtd">
<svg version="1.1" baseProfile="basic" id="Слой_1"
	 xmlns="http://www.w3.org/2000/svg" xmlns:xlink="http://www.w3.org/1999/xlink" x="0px" y="0px" width="91.881px"
	 height="127.408px" viewBox="0 0 91.881 127.408" xml:space="preserve">
<path fill="#337F85" d="M91.746,47.498c-0.105-1.77-0.273-3.528-0.505-5.272c-0.003-0.02-0.006-0.041-0.008-0.061
	c-0.33-2.455-0.797-4.877-1.393-7.263c-0.253-1.012-0.522-2.019-0.824-3.017c-0.004-0.013-0.008-0.026-0.012-0.039
	c-0.66-2.171-1.452-4.301-2.357-6.394c-0.493-1.142-1.01-2.275-1.579-3.391c-0.004-0.007-0.007-0.014-0.011-0.021
	c-1.614-3.161-3.534-6.212-5.784-9.128c-0.007-0.009-0.014-0.018-0.021-0.028c-1.686-2.184-3.557-4.292-5.622-6.314
	c-0.688-0.674-1.398-1.339-2.13-1.994c-0.015-0.014-0.03-0.027-0.045-0.041c-1.757-1.57-3.64-3.083-5.655-4.534
	c0,0-0.001,0-0.001-0.001L0,65.799l61.609,61.609c0.001-0.001,0.002-0.002,0.003-0.003c0.438-0.526,0.873-1.059,1.306-1.594
	c0.073-0.091,0.146-0.181,0.219-0.272c0.881-1.097,1.75-2.213,2.605-3.347c0.058-0.077,0.116-0.154,0.174-0.232
	c0.382-0.508,0.761-1.02,1.137-1.536c0.055-0.075,0.11-0.15,0.165-0.225c0.428-0.588,0.852-1.18,1.272-1.777
	c0.001-0.001,0.002-0.003,0.003-0.004c0.403-0.573,0.802-1.151,1.198-1.732c0.068-0.099,0.135-0.198,0.202-0.297
	c0.806-1.189,1.598-2.394,2.372-3.613c0.052-0.083,0.104-0.166,0.157-0.248c0.346-0.547,0.688-1.097,1.027-1.649
	c0.049-0.08,0.098-0.159,0.147-0.238c0.756-1.238,1.494-2.49,2.214-3.754c0.058-0.101,0.115-0.203,0.173-0.304
	c0.718-1.268,1.418-2.548,2.098-3.839c0.041-0.078,0.081-0.156,0.122-0.234c0.308-0.588,0.612-1.179,0.912-1.771
	c0.038-0.074,0.076-0.148,0.113-0.223c0.66-1.31,1.298-2.631,1.915-3.96c0.044-0.094,0.087-0.188,0.131-0.282
	c0.615-1.334,1.209-2.677,1.778-4.028c0.028-0.067,0.056-0.135,0.084-0.202c0.264-0.628,0.522-1.258,0.776-1.89
	c0.025-0.062,0.05-0.124,0.075-0.186c0.546-1.368,1.068-2.743,1.564-4.123c0.029-0.082,0.059-0.163,0.088-0.245
	c0.494-1.384,0.963-2.774,1.404-4.168c0.017-0.054,0.033-0.107,0.05-0.161c0.208-0.661,0.41-1.324,0.606-1.987
	c0.014-0.049,0.029-0.098,0.044-0.147c0.413-1.406,0.798-2.815,1.154-4.226c0.018-0.069,0.035-0.139,0.052-0.208
	c0.354-1.418,0.679-2.837,0.973-4.257c0.007-0.033,0.013-0.066,0.02-0.099c0.143-0.694,0.278-1.389,0.406-2.083
	c0.005-0.027,0.01-0.055,0.015-0.082c0.262-1.431,0.491-2.862,0.688-4.292c0.007-0.05,0.014-0.099,0.02-0.149
	c0.195-1.433,0.356-2.865,0.481-4.293c0.001-0.017,0.003-0.034,0.004-0.05c0.062-0.711,0.115-1.422,0.16-2.131
	c0.001-0.011,0.002-0.023,0.002-0.034c0.089-1.433,0.142-2.861,0.157-4.284c0-0.035,0.001-0.07,0.001-0.104
	C91.894,51.05,91.851,49.268,91.746,47.498z"/>
</svg>
