<?xml version="1.0" encoding="utf-8"?>
<!-- Generator: Adobe Illustrator 17.0.0, SVG Export Plug-In . SVG Version: 6.00 Build 0)  -->
<!DOCTYPE svg PUBLIC "-//W3C//DTD SVG 1.1//EN" "http://www.w3.org/Graphics/SVG/1.1/DTD/svg11.dtd">
<svg version="1.1" id="Слой_1" xmlns="http://www.w3.org/2000/svg" xmlns:xlink="http://www.w3.org/1999/xlink" x="0px" y="0px"
	 width="66.321px" height="60.479px" viewBox="0 0 66.321 60.479" enable-background="new 0 0 66.321 60.479" xml:space="preserve">
<path fill="#CE9538" d="M60.433,0H5.886C2.635,0,0,2.635,0,5.886v44.259c5.907,3,12.313,5.281,19.036,6.927
	c0.038,0.009,0.075,0.019,0.113,0.028c0.624,0.152,1.25,0.298,1.879,0.439c0.068,0.015,0.137,0.031,0.205,0.046
	c0.612,0.136,1.226,0.267,1.843,0.393c0.082,0.017,0.165,0.033,0.247,0.05c0.609,0.123,1.221,0.241,1.834,0.355
	c0.087,0.016,0.175,0.032,0.263,0.048c0.615,0.112,1.231,0.22,1.849,0.322c0.08,0.013,0.159,0.026,0.239,0.039
	c0.631,0.103,1.263,0.202,1.898,0.295c0.053,0.008,0.106,0.015,0.16,0.023c4.136,0.602,8.35,0.997,12.605,1.201
	c0.046,0.002,0.091,0.005,0.137,0.007c0.586,0.028,1.173,0.049,1.76,0.07c0.166,0.006,0.332,0.013,0.498,0.018
	c0.532,0.017,1.065,0.029,1.597,0.04c0.222,0.005,0.445,0.01,0.667,0.014c0.499,0.008,0.999,0.012,1.499,0.015
	c0.257,0.002,0.515,0.004,0.772,0.004c0.48,0,0.961-0.002,1.441-0.006c0.276-0.002,0.551-0.005,0.827-0.009
	c0.468-0.006,0.936-0.015,1.404-0.026c0.291-0.007,0.581-0.014,0.872-0.022c0.457-0.013,0.915-0.027,1.372-0.044
	c0.299-0.011,0.598-0.023,0.898-0.036c0.452-0.019,0.905-0.039,1.357-0.062c0.304-0.015,0.607-0.033,0.911-0.05
	c0.45-0.025,0.899-0.051,1.349-0.08c0.303-0.019,0.606-0.041,0.909-0.063c0.451-0.031,0.902-0.063,1.352-0.098
	c0.292-0.023,0.584-0.048,0.876-0.073c0.464-0.039,0.928-0.076,1.391-0.119c0.247-0.023,0.494-0.048,0.741-0.072
	c0.507-0.048,1.013-0.096,1.519-0.149h0.001V5.885C66.32,2.635,63.684,0,60.433,0z"/>
</svg>
