<?xml version="1.0" encoding="utf-8"?>
<!-- Generator: Adobe Illustrator 17.0.0, SVG Export Plug-In . SVG Version: 6.00 Build 0)  -->
<!DOCTYPE svg PUBLIC "-//W3C//DTD SVG 1.1 Basic//EN" "http://www.w3.org/Graphics/SVG/1.1/DTD/svg11-basic.dtd">
<svg version="1.1" baseProfile="basic" id="Слой_1"
	 xmlns="http://www.w3.org/2000/svg" xmlns:xlink="http://www.w3.org/1999/xlink" x="0px" y="0px" width="128.243px"
	 height="87.576px" viewBox="0 0 128.243 87.576" xml:space="preserve">
<path fill="#369371" d="M0,29.949c3.335,32.376,30.693,57.627,63.95,57.627c35.508,0,64.294-28.785,64.294-64.294
	c0-8.154-1.534-15.946-4.302-23.124c-0.045-0.002-0.089-0.005-0.134-0.008C98.613-1.08,69.737,4.917,53.146,28.418
	c-0.497,0.128-1.004,0.234-1.517,0.329c-0.068,0.013-0.136,0.027-0.204,0.039c-0.488,0.086-0.984,0.157-1.485,0.216
	c-0.091,0.011-0.182,0.021-0.273,0.031c-0.498,0.054-1.001,0.096-1.509,0.126c-0.088,0.005-0.176,0.009-0.265,0.013
	c-0.523,0.026-1.05,0.044-1.583,0.047c-0.052,0-0.104-0.001-0.156-0.001c-0.525,0.001-1.055-0.008-1.589-0.026
	c-0.056-0.002-0.112-0.003-0.169-0.005c-0.539-0.021-1.083-0.053-1.63-0.092c-0.102-0.007-0.203-0.014-0.305-0.022
	c-0.528-0.04-1.059-0.089-1.592-0.143c-0.119-0.012-0.238-0.025-0.357-0.038c-0.53-0.057-1.062-0.12-1.597-0.19
	c-0.111-0.014-0.222-0.03-0.333-0.045c-0.514-0.069-1.029-0.142-1.546-0.22c-0.099-0.015-0.198-0.03-0.297-0.045
	c-0.501-0.077-1.004-0.159-1.507-0.243c-0.146-0.024-0.292-0.048-0.438-0.073c-0.488-0.083-0.977-0.17-1.466-0.258
	c-0.215-0.039-0.429-0.077-0.644-0.117c-0.423-0.078-0.847-0.156-1.27-0.236c-5.261-0.993-10.485-2.122-15.213-2.57
	c-0.003,0-0.006-0.001-0.01-0.001c-2.306-0.218-4.495-0.274-6.512-0.072c-0.015,0.001-0.03,0.003-0.044,0.004
	c-0.49,0.05-0.97,0.115-1.439,0.197c-0.021,0.004-0.041,0.007-0.062,0.011c-1.432,0.255-2.761,0.665-3.966,1.271
	c-0.01,0.005-0.021,0.01-0.032,0.015c-0.389,0.197-0.764,0.416-1.126,0.655c-0.025,0.016-0.05,0.033-0.074,0.049
	c-0.358,0.24-0.703,0.502-1.033,0.787c-0.016,0.014-0.031,0.028-0.047,0.042C1.173,28.452,0.552,29.144,0,29.949z"/>
</svg>
