<?xml version="1.0" encoding="utf-8"?>
<!-- Generator: Adobe Illustrator 17.0.0, SVG Export Plug-In . SVG Version: 6.00 Build 0)  -->
<!DOCTYPE svg PUBLIC "-//W3C//DTD SVG 1.1//EN" "http://www.w3.org/Graphics/SVG/1.1/DTD/svg11.dtd">
<svg version="1.1" id="Слой_1" xmlns="http://www.w3.org/2000/svg" xmlns:xlink="http://www.w3.org/1999/xlink" x="0px" y="0px"
	 width="108.266px" height="73.933px" viewBox="0 0 108.266 73.933" enable-background="new 0 0 108.266 73.933"
	 xml:space="preserve">
<path fill="#369371" d="M0,25.283c2.816,27.332,25.911,48.65,53.988,48.65c29.977,0,54.278-24.301,54.278-54.278
	c0-6.884-1.295-13.462-3.632-19.521c-0.038-0.002-0.075-0.004-0.113-0.006c-21.269-1.04-45.647,4.023-59.653,23.863
	c-0.42,0.108-0.848,0.198-1.281,0.278c-0.058,0.011-0.115,0.023-0.172,0.033c-0.412,0.073-0.831,0.132-1.253,0.182
	c-0.077,0.009-0.154,0.018-0.231,0.027c-0.42,0.046-0.845,0.081-1.274,0.106c-0.074,0.004-0.149,0.007-0.223,0.011
	c-0.441,0.022-0.886,0.037-1.336,0.04c-0.044,0-0.088-0.001-0.132-0.001c-0.444,0.001-0.891-0.006-1.342-0.022
	c-0.048-0.002-0.095-0.002-0.143-0.004c-0.455-0.018-0.914-0.045-1.376-0.077c-0.086-0.006-0.172-0.012-0.258-0.018
	c-0.445-0.034-0.894-0.075-1.344-0.121c-0.1-0.01-0.201-0.021-0.301-0.032c-0.448-0.048-0.897-0.101-1.348-0.16
	c-0.094-0.012-0.188-0.025-0.281-0.038c-0.434-0.058-0.869-0.12-1.305-0.186c-0.084-0.013-0.167-0.025-0.251-0.038
	c-0.423-0.065-0.848-0.134-1.272-0.205c-0.123-0.021-0.247-0.041-0.37-0.062c-0.412-0.07-0.825-0.143-1.238-0.218
	c-0.181-0.033-0.362-0.065-0.543-0.099c-0.357-0.066-0.715-0.132-1.072-0.199c-4.441-0.838-8.851-1.791-12.843-2.17
	c-0.003,0-0.005-0.001-0.008-0.001c-1.947-0.184-3.794-0.231-5.498-0.061c-0.012,0.001-0.025,0.002-0.037,0.004
	c-0.414,0.042-0.819,0.097-1.215,0.167c-0.018,0.003-0.035,0.006-0.052,0.009c-1.209,0.215-2.331,0.562-3.349,1.073
	c-0.009,0.004-0.018,0.009-0.027,0.013c-0.328,0.166-0.645,0.351-0.95,0.553c-0.021,0.014-0.042,0.028-0.063,0.042
	c-0.302,0.203-0.593,0.424-0.872,0.664c-0.014,0.012-0.027,0.024-0.04,0.036C0.991,24.02,0.466,24.604,0,25.283z"/>
</svg>
