<?xml version="1.0" encoding="utf-8"?>
<!-- Generator: Adobe Illustrator 17.0.0, SVG Export Plug-In . SVG Version: 6.00 Build 0)  -->
<!DOCTYPE svg PUBLIC "-//W3C//DTD SVG 1.1 Basic//EN" "http://www.w3.org/Graphics/SVG/1.1/DTD/svg11-basic.dtd">
<svg version="1.1" baseProfile="basic" id="Слой_1"
	 xmlns="http://www.w3.org/2000/svg" xmlns:xlink="http://www.w3.org/1999/xlink" x="0px" y="0px" width="78.558px"
	 height="71.703px" viewBox="0 0 78.558 71.703" xml:space="preserve">
<path fill="#CE9538" d="M71.585,0H6.973C3.122,0,0,3.122,0,6.973v52.427c6.998,3.554,14.585,6.256,22.548,8.205
	c0.045,0.011,0.089,0.022,0.134,0.033c0.739,0.18,1.481,0.353,2.226,0.52c0.081,0.018,0.162,0.036,0.243,0.055
	c0.725,0.161,1.452,0.316,2.183,0.465c0.097,0.02,0.195,0.04,0.293,0.059c0.722,0.146,1.446,0.286,2.173,0.42
	c0.104,0.019,0.207,0.038,0.311,0.057c0.728,0.133,1.458,0.26,2.191,0.381c0.094,0.016,0.189,0.03,0.283,0.046
	c0.747,0.122,1.496,0.239,2.248,0.35c0.063,0.009,0.126,0.018,0.189,0.027c4.899,0.713,9.891,1.181,14.931,1.423
	c0.054,0.003,0.108,0.006,0.162,0.009c0.694,0.033,1.389,0.059,2.085,0.083c0.197,0.007,0.393,0.015,0.59,0.022
	c0.63,0.02,1.261,0.034,1.892,0.047c0.263,0.005,0.527,0.012,0.79,0.016c0.591,0.01,1.183,0.014,1.775,0.018
	c0.305,0.002,0.61,0.004,0.915,0.004c0.569,0.001,1.138-0.002,1.707-0.007c0.326-0.003,0.653-0.006,0.979-0.01
	c0.554-0.008,1.109-0.018,1.663-0.03c0.344-0.008,0.689-0.017,1.033-0.026c0.542-0.015,1.084-0.032,1.625-0.052
	c0.354-0.013,0.709-0.028,1.063-0.043c0.536-0.023,1.072-0.046,1.608-0.073c0.36-0.018,0.719-0.039,1.079-0.059
	c0.532-0.03,1.065-0.06,1.597-0.094c0.359-0.023,0.718-0.049,1.076-0.074c0.534-0.037,1.068-0.074,1.602-0.116
	c0.346-0.027,0.692-0.057,1.038-0.086c0.549-0.046,1.099-0.091,1.648-0.141c0.293-0.027,0.585-0.057,0.878-0.085
	c0.6-0.057,1.201-0.114,1.8-0.177c0,0,0.001,0,0.001,0V6.973C78.558,3.122,75.436,0,71.585,0z"/>
</svg>
