<?xml version="1.0" encoding="utf-8"?>
<!-- Generator: Adobe Illustrator 17.0.0, SVG Export Plug-In . SVG Version: 6.00 Build 0)  -->
<!DOCTYPE svg PUBLIC "-//W3C//DTD SVG 1.1 Basic//EN" "http://www.w3.org/Graphics/SVG/1.1/DTD/svg11-basic.dtd">
<svg version="1.1" baseProfile="basic" id="Слой_1"
	 xmlns="http://www.w3.org/2000/svg" xmlns:xlink="http://www.w3.org/1999/xlink" x="0px" y="0px" width="227.875px"
	 height="186.75px" viewBox="0 0 227.875 186.75" xml:space="preserve">
<polygon fill="#A8A8A8" stroke="#272525" stroke-width="3" stroke-miterlimit="10" points="557.307,189.762 557.307,189.762 
	557.306,189.761 "/>
<path fill="#A8A8A8" stroke="#272525" stroke-width="3" stroke-miterlimit="10" d="M143.474,82.033l55.548-55.548
	c-5.413-3.899-11.94-7.267-19.717-9.958c-2.791-0.966,0.452-6.488-7.404-8.464c-2.722-0.686-7.031,4.534-10.012,3.996
	c-6.708-1.211-22.086-2.43-22.048-2.428c2.337,6.06,3.632,12.638,3.632,19.521c0,16.729-7.573,31.685-19.473,41.641
	c6.24,4.631,12.731,8.873,19.844,11.612L143.474,82.033z"/>
<path fill="#A8A8A8" stroke="#272525" stroke-width="3" stroke-miterlimit="10" d="M123.744,71
	c-9.423,7.885-21.557,12.637-34.805,12.637c-1.016,0-2.022-0.036-3.024-0.091c-2.648,10.009-5.276,19.929-7.915,29.793h27.218
	c2.432,0,4.518,1.475,5.416,3.578c4.31-3.003,8.433-6.326,13.385-8.612c9.922-5.197,21.439-8.479,31.096-14.167L143.59,82.613
	C136.475,79.873,129.984,75.63,123.744,71z"/>
<path fill="#A8A8A8" stroke="#272525" stroke-width="3" stroke-miterlimit="10" d="M124.385,108.167
	c-4.952,2.286-9.075,5.609-13.385,8.612c0.302,0.709,0.471,1.489,0.471,2.308v53.685c2.293-0.24,4.579-0.524,6.85-0.852
	c8.991-1.298,15.404,7.601,34.005,7.601c28.339,0,11.918-20.47,19.737-24.925c8.179-4.66,16.31-11.807,23.533-20.481L155.481,94
	C145.824,99.688,134.307,102.97,124.385,108.167z"/>
<path fill="#A8A8A8" stroke="#272525" stroke-width="3" stroke-miterlimit="10" d="M35.186,34.779
	c0.001,0.005,0.001,0.01,0.002,0.015C35.272,34.653,35.286,34.633,35.186,34.779z"/>
<path fill="#A8A8A8" stroke="#272525" stroke-width="3" stroke-miterlimit="10" d="M220.454,67.099
	c-0.089-1.494-0.23-2.979-0.427-4.45c-0.002-0.017-0.005-0.035-0.007-0.052c-0.278-2.072-0.673-4.117-1.176-6.132
	c-0.213-0.854-0.441-1.705-0.696-2.547c-0.003-0.011-0.007-0.022-0.01-0.033c-0.557-1.833-1.226-3.631-1.99-5.398
	c-0.417-0.964-0.853-1.921-1.333-2.863c-0.003-0.006-0.006-0.012-0.009-0.018c-1.362-2.668-2.984-5.244-4.883-7.706
	c-0.006-0.008-0.012-0.016-0.018-0.023c-1.424-1.843-3.003-3.623-4.746-5.331c-0.581-0.569-1.18-1.13-1.798-1.683
	c-0.013-0.011-0.026-0.023-0.038-0.034c-1.484-1.325-3.073-2.603-4.774-3.828c0,0-0.001,0-0.001-0.001L143,82.548l52.012,52.012
	c0.001-0.001,0.001-0.002,0.002-0.003c0.37-0.444,0.737-0.894,1.102-1.346c0.062-0.077,0.123-0.153,0.185-0.23
	c0.744-0.926,1.478-1.868,2.2-2.826c0.049-0.065,0.098-0.13,0.147-0.195c0.322-0.429,0.642-0.861,0.96-1.297
	c0.046-0.063,0.093-0.126,0.139-0.19c0.361-0.497,0.719-0.996,1.074-1.5c0.001-0.001,0.002-0.002,0.003-0.004
	c0.34-0.484,0.677-0.972,1.011-1.462c0.057-0.084,0.114-0.167,0.171-0.251c0.681-1.004,1.349-2.021,2.002-3.05
	c0.044-0.07,0.088-0.14,0.132-0.21c0.292-0.462,0.581-0.926,0.867-1.392c0.041-0.067,0.083-0.134,0.124-0.201
	c0.638-1.045,1.262-2.102,1.869-3.169c0.049-0.086,0.097-0.171,0.146-0.257c0.606-1.071,1.197-2.151,1.771-3.241
	c0.035-0.066,0.069-0.132,0.103-0.198c0.26-0.497,0.517-0.995,0.77-1.496c0.032-0.063,0.064-0.125,0.096-0.188
	c0.557-1.106,1.096-2.221,1.616-3.343c0.037-0.079,0.074-0.159,0.11-0.238c0.519-1.126,1.02-2.26,1.501-3.401
	c0.024-0.057,0.047-0.114,0.071-0.17c0.223-0.531,0.441-1.062,0.655-1.595c0.021-0.052,0.042-0.105,0.063-0.157
	c0.461-1.155,0.901-2.316,1.32-3.481c0.025-0.069,0.049-0.138,0.074-0.207c0.417-1.169,0.813-2.342,1.186-3.519
	c0.014-0.045,0.028-0.09,0.042-0.136c0.176-0.558,0.347-1.117,0.512-1.677c0.012-0.041,0.025-0.083,0.037-0.124
	c0.349-1.187,0.674-2.377,0.974-3.568c0.015-0.059,0.03-0.117,0.044-0.176c0.299-1.197,0.574-2.395,0.821-3.594
	c0.006-0.028,0.011-0.055,0.017-0.083c0.121-0.586,0.235-1.172,0.343-1.759c0.004-0.023,0.009-0.046,0.013-0.069
	c0.221-1.208,0.415-2.416,0.581-3.623c0.006-0.042,0.012-0.084,0.017-0.126c0.164-1.21,0.3-2.418,0.406-3.624
	c0.001-0.014,0.002-0.028,0.004-0.042c0.052-0.6,0.097-1.2,0.135-1.799c0.001-0.009,0.001-0.019,0.002-0.029
	c0.075-1.21,0.12-2.416,0.133-3.617c0-0.029,0.001-0.059,0.001-0.088C220.578,70.098,220.542,68.594,220.454,67.099z"/>
<path fill="#A8A8A8" stroke="#272525" stroke-width="3" stroke-miterlimit="10" d="M35,35.283
	c2.816,27.332,25.911,48.65,53.988,48.65c29.977,0,54.278-24.301,54.278-54.278c0-6.884-1.295-13.462-3.632-19.521
	c-0.038-0.002-0.075-0.004-0.113-0.006c-21.269-1.04-45.647,4.023-59.653,23.863c-0.42,0.108-0.848,0.198-1.281,0.278
	c-0.058,0.011-0.115,0.023-0.173,0.033c-0.412,0.073-0.831,0.132-1.253,0.182c-0.077,0.009-0.154,0.018-0.231,0.027
	c-0.42,0.046-0.845,0.081-1.274,0.106c-0.074,0.004-0.149,0.007-0.223,0.011c-0.441,0.022-0.886,0.037-1.336,0.04
	c-0.044,0-0.088-0.001-0.132-0.001c-0.444,0.001-0.891-0.006-1.342-0.022c-0.048-0.002-0.095-0.002-0.143-0.004
	c-0.455-0.018-0.915-0.045-1.376-0.077c-0.086-0.006-0.172-0.012-0.258-0.018c-0.446-0.034-0.894-0.075-1.344-0.121
	c-0.1-0.01-0.201-0.021-0.301-0.032c-0.448-0.048-0.897-0.101-1.348-0.16c-0.094-0.012-0.188-0.025-0.281-0.038
	c-0.434-0.058-0.869-0.12-1.305-0.186c-0.084-0.013-0.167-0.025-0.251-0.038c-0.423-0.065-0.848-0.134-1.272-0.205
	c-0.123-0.021-0.247-0.041-0.37-0.062c-0.412-0.07-0.825-0.143-1.238-0.218c-0.181-0.033-0.362-0.065-0.543-0.099
	c-0.357-0.066-0.715-0.132-1.072-0.199c-4.441-0.838-8.851-1.791-12.843-2.17c-0.003,0-0.005-0.001-0.008-0.001
	c-1.947-0.184-3.794-0.231-5.498-0.061c-0.012,0.001-0.025,0.002-0.037,0.004c-0.414,0.042-0.819,0.097-1.215,0.167
	c-0.018,0.003-0.035,0.006-0.052,0.009c-1.209,0.215-2.331,0.562-3.348,1.073c-0.009,0.004-0.018,0.009-0.027,0.013
	c-0.328,0.166-0.645,0.351-0.95,0.553c-0.021,0.014-0.042,0.028-0.063,0.042c-0.302,0.203-0.593,0.424-0.872,0.664
	c-0.014,0.012-0.027,0.024-0.04,0.036C35.991,34.02,35.466,34.604,35,35.283z"/>
<path fill="#A8A8A8" stroke="#272525" stroke-width="3" stroke-miterlimit="10" d="M105.433,113H50.886
	c-3.251,0-5.886,2.635-5.886,5.886v44.259c5.907,3,12.313,5.281,19.036,6.927c0.038,0.009,0.075,0.019,0.113,0.028
	c0.624,0.152,1.25,0.298,1.879,0.439c0.068,0.015,0.137,0.031,0.205,0.046c0.612,0.136,1.226,0.267,1.843,0.393
	c0.082,0.017,0.165,0.033,0.247,0.05c0.609,0.123,1.221,0.241,1.834,0.355c0.087,0.016,0.175,0.032,0.263,0.048
	c0.615,0.112,1.231,0.22,1.849,0.322c0.08,0.013,0.159,0.026,0.239,0.039c0.631,0.103,1.263,0.202,1.898,0.295
	c0.053,0.008,0.106,0.015,0.16,0.023c4.136,0.602,8.35,0.997,12.605,1.201c0.046,0.002,0.091,0.005,0.137,0.007
	c0.586,0.028,1.173,0.049,1.76,0.07c0.166,0.006,0.332,0.013,0.498,0.018c0.532,0.017,1.065,0.029,1.597,0.04
	c0.222,0.005,0.445,0.01,0.667,0.014c0.499,0.008,0.999,0.012,1.499,0.015c0.257,0.002,0.515,0.004,0.772,0.004
	c0.48,0.001,0.96-0.002,1.441-0.006c0.276-0.002,0.551-0.005,0.827-0.009c0.468-0.006,0.936-0.015,1.404-0.026
	c0.291-0.007,0.581-0.014,0.872-0.022c0.457-0.013,0.915-0.027,1.372-0.044c0.299-0.011,0.598-0.023,0.898-0.036
	c0.452-0.019,0.905-0.039,1.357-0.062c0.304-0.015,0.607-0.033,0.911-0.05c0.45-0.025,0.899-0.051,1.348-0.08
	c0.303-0.019,0.606-0.041,0.909-0.063c0.451-0.031,0.902-0.063,1.352-0.098c0.292-0.023,0.584-0.048,0.876-0.073
	c0.464-0.039,0.928-0.076,1.391-0.119c0.247-0.023,0.494-0.048,0.741-0.072c0.507-0.048,1.014-0.096,1.519-0.149h0.001v-53.685
	C111.32,115.635,108.684,113,105.433,113z"/>
<path fill="#A8A8A8" stroke="#272525" stroke-width="3" stroke-miterlimit="10" d="M35,35.489c0.083-0.121,0.178-0.224,0.266-0.339
	c-0.051-0.097-0.077-0.149-0.078-0.15c-0.002-0.015-1.593,2.76-2.09,5.386c-0.374,1.979-14.029,8.396-17.761,10.9
	c-15.282,10.25-1.714,16.651-3.159,19.295c-5.24,9.584-3.961,15.722-2.99,34.491c2.001,38.694,35.436,58.631,35.829,58.412
	c0.393-0.219,0-44.259,0-44.259c0-3.251,2.635-5.886,5.886-5.886h27.33c2.594-9.697,5.178-19.451,7.781-29.287
	C59.296,82.608,37.716,61.849,35,35.489z"/>
</svg>
