<?xml version="1.0" encoding="utf-8"?>
<!-- Generator: Adobe Illustrator 17.0.0, SVG Export Plug-In . SVG Version: 6.00 Build 0)  -->
<!DOCTYPE svg PUBLIC "-//W3C//DTD SVG 1.1//EN" "http://www.w3.org/Graphics/SVG/1.1/DTD/svg11.dtd">
<svg version="1.1" id="Слой_1" xmlns="http://www.w3.org/2000/svg" xmlns:xlink="http://www.w3.org/1999/xlink" x="0px" y="0px"
	 width="77.567px" height="107.56px" viewBox="0 0 77.567 107.56" enable-background="new 0 0 77.567 107.56" xml:space="preserve">
<path fill="#337F85" d="M77.454,40.099c-0.089-1.494-0.23-2.979-0.427-4.45c-0.002-0.017-0.005-0.035-0.007-0.052
	c-0.279-2.072-0.673-4.117-1.176-6.132c-0.213-0.854-0.441-1.705-0.696-2.547c-0.003-0.011-0.007-0.022-0.01-0.033
	c-0.557-1.833-1.226-3.631-1.99-5.398c-0.417-0.964-0.853-1.921-1.333-2.863c-0.003-0.006-0.006-0.012-0.009-0.018
	c-1.362-2.668-2.984-5.244-4.883-7.706c-0.006-0.008-0.012-0.016-0.018-0.023c-1.424-1.843-3.003-3.623-4.746-5.331
	c-0.581-0.569-1.18-1.13-1.798-1.683c-0.013-0.011-0.026-0.023-0.038-0.034c-1.484-1.325-3.073-2.603-4.774-3.828
	c0,0,0,0-0.001-0.001L0,55.548l52.012,52.012c0.001-0.001,0.002-0.002,0.002-0.003c0.37-0.444,0.737-0.894,1.102-1.346
	c0.062-0.077,0.123-0.153,0.185-0.23c0.744-0.926,1.478-1.868,2.2-2.826c0.049-0.065,0.098-0.13,0.147-0.195
	c0.322-0.429,0.642-0.861,0.96-1.297c0.046-0.063,0.093-0.126,0.139-0.19c0.361-0.497,0.719-0.996,1.074-1.5
	c0.001-0.001,0.002-0.002,0.003-0.004c0.34-0.484,0.677-0.972,1.011-1.462c0.057-0.084,0.114-0.167,0.171-0.251
	c0.681-1.004,1.349-2.021,2.002-3.05c0.044-0.07,0.088-0.14,0.132-0.21c0.292-0.462,0.581-0.926,0.867-1.392
	c0.041-0.067,0.083-0.134,0.124-0.201c0.638-1.045,1.262-2.102,1.869-3.169c0.049-0.086,0.098-0.171,0.146-0.257
	c0.606-1.071,1.197-2.151,1.771-3.241c0.035-0.066,0.069-0.132,0.103-0.198c0.26-0.497,0.517-0.995,0.77-1.496
	c0.032-0.063,0.064-0.125,0.096-0.188c0.557-1.106,1.096-2.221,1.616-3.343c0.037-0.079,0.074-0.159,0.11-0.238
	c0.519-1.126,1.021-2.26,1.501-3.401c0.024-0.057,0.047-0.114,0.071-0.17c0.223-0.531,0.441-1.062,0.655-1.596
	c0.021-0.052,0.042-0.105,0.063-0.157c0.461-1.155,0.901-2.316,1.32-3.481c0.025-0.069,0.049-0.138,0.074-0.207
	c0.417-1.169,0.813-2.342,1.186-3.519c0.014-0.045,0.028-0.09,0.042-0.136c0.176-0.558,0.347-1.117,0.512-1.677
	c0.012-0.041,0.025-0.083,0.037-0.124c0.349-1.187,0.674-2.377,0.974-3.568c0.015-0.059,0.03-0.117,0.044-0.176
	c0.299-1.197,0.574-2.395,0.821-3.594c0.006-0.028,0.011-0.055,0.017-0.083c0.121-0.586,0.235-1.172,0.343-1.759
	c0.004-0.023,0.009-0.046,0.013-0.069c0.221-1.208,0.415-2.416,0.581-3.623c0.006-0.042,0.012-0.084,0.017-0.126
	c0.164-1.21,0.3-2.418,0.406-3.624c0.001-0.014,0.002-0.028,0.004-0.042c0.052-0.6,0.097-1.2,0.135-1.799
	c0.001-0.01,0.001-0.019,0.002-0.029c0.075-1.21,0.12-2.416,0.133-3.617c0-0.029,0.001-0.059,0.001-0.088
	C77.578,43.098,77.542,41.594,77.454,40.099z"/>
</svg>
