<?xml version="1.0" encoding="utf-8"?>
<!-- Generator: Adobe Illustrator 17.0.0, SVG Export Plug-In . SVG Version: 6.00 Build 0)  -->
<!DOCTYPE svg PUBLIC "-//W3C//DTD SVG 1.1 Basic//EN" "http://www.w3.org/Graphics/SVG/1.1/DTD/svg11-basic.dtd">
<svg version="1.1" baseProfile="basic" id="Слой_1"
	 xmlns="http://www.w3.org/2000/svg" xmlns:xlink="http://www.w3.org/1999/xlink" x="0px" y="0px" width="227.875px"
	 height="186.75px" viewBox="0 0 227.875 186.75" xml:space="preserve">
<polygon fill="#A8A8A8" stroke="#272525" stroke-width="3" stroke-miterlimit="10" points="557.307,189.762 557.307,189.762 
	557.306,189.761 "/>
<path fill="#C67C32" stroke="#FFFFFF" stroke-width="6" stroke-miterlimit="10" d="M179.281,16.527
	c-2.791-0.966,0.452-6.488-7.404-8.464c-2.722-0.686-7.031,4.534-10.012,3.996c-6.708-1.211-14.081-2.04-22.161-2.434
	c-21.269-1.04-45.647,4.023-59.653,23.863c-16.419,4.214-43.155-13.394-46.955,6.693c-0.374,1.979-14.029,8.396-17.761,10.9
	c-15.282,10.25-1.714,16.651-3.159,19.295c-5.24,9.584-3.961,15.721-2.99,34.491c3.155,61.005,59.456,74.138,108.999,66.985
	c8.991-1.298,15.404,7.601,34.005,7.601c28.339,0,11.918-20.47,19.737-24.925C213.616,130.775,254.082,42.408,179.281,16.527z"/>
<g>
	<g id="cccc">
		<path fill="#D99030" d="M139.705,9.624c-21.269-1.04-45.647,4.023-59.653,23.863c-16.419,4.214-43.155-13.394-46.955,6.693
			c-0.374,1.979-14.029,8.396-17.761,10.9c-15.282,10.25-1.714,16.651-3.159,19.295c-5.24,9.584-3.961,15.722-2.99,34.491
			c3.155,61.005,59.456,74.138,108.999,66.985c8.991-1.298,15.404,7.601,34.005,7.601c28.338,0,11.918-20.47,19.737-24.925
			c41.688-23.751,82.154-112.118,7.353-137.999c-2.791-0.966,0.452-6.488-7.404-8.464c-2.722-0.686-7.031,4.534-10.012,3.996
			C155.158,10.847,147.785,10.018,139.705,9.624z"/>
		<path fill="#C67C32" d="M69.595,96.746c-7.153,3.143-6.934-10.057-5.693-11.298c1.241-1.24,2.65,1.158,3.891,2.399
			c1.241,1.241,0.403,5.426,0.962,5.331C69.313,93.083,76.748,93.602,69.595,96.746z"/>
		<path fill="#C67C32" d="M96.052,115.106c-3.439,1.512,0.296-3.615-0.377-7.307c-0.673-3.692,1.002,1.434,1.598,2.031
			c0.596,0.596,0.466,1.731,0.734,1.685C98.276,111.469,99.49,113.595,96.052,115.106z"/>
		<path fill="#C67C32" d="M105.438,160.623c0.383,0.146-1.133-14.349-6.642-12.861c-5.509,1.488,10.559-1.632,11.683-0.507
			c1.124,1.125-2.316,11.019-1.81,10.934C109.175,158.102,105.055,160.476,105.438,160.623z"/>
		<path fill="#C67C32" d="M166.593,137.471c-7.893,3.469,0.481-5.125,1.85-6.494c1.369-1.369,0.279-7.89,1.648-6.521
			c1.369,1.37,3.71,6.543,4.326,6.438C175.034,130.79,174.485,134.002,166.593,137.471z"/>
		<path fill="#C67C32" d="M44.898,149.696c-7.893,3.469-2.789-10.125-1.42-11.494c1.369-1.369,0.478,4.536,1.847,5.905
			c1.369,1.37,2.891,2.73,3.507,2.625C49.449,146.627,52.79,146.227,44.898,149.696z"/>
		<path fill="#C67C32" d="M157.405,45.646c-3.266,4.365,2.483-11.142-0.264-13.882c-2.747-2.74,1.969,2.818,3.141,3.991
			c1.171,1.172,0.916,3.401,1.443,3.311C162.252,38.976,160.671,41.281,157.405,45.646z"/>
		<path fill="#C67C32" d="M143.756,20.849c-6.044,3.652,3.566-2.695-1.42-7.95c-4.986-5.255,3.689-1.374,5.058-0.427
			c1.369,0.947-0.319,6.399,0.297,6.327C148.308,18.727,149.8,17.198,143.756,20.849z"/>
		<path fill="#C67C32" d="M104.735,27.473c-3.995,1.757-1.412-5.125-0.719-5.818c0.693-0.693,3.555,1.104,4.248,1.797
			s-1.849,2.574-1.538,2.521C107.039,25.92,108.73,25.717,104.735,27.473z"/>
		<path fill="#C67C32" d="M136.489,94.177c-4.984,2.191-3.084-4.349-0.896-7.258c2.187-2.909,5.7-4.485,2.317,2.944
			c-3.384,7.429,0.675,2.509,1.064,2.443C139.363,92.24,141.474,91.987,136.489,94.177z"/>
		<path fill="#C67C32" d="M113.743,53.107c-3.946,1.735-1.394-5.063-0.71-5.747c0.684-0.684,3.372-1.132,4.057-0.447
			c0.685,0.684-1.688,4.765-1.38,4.712C116.019,51.572,117.689,51.372,113.743,53.107z"/>
		<path fill="#C67C32" d="M155.463,174.881c-9.657,5.574-6.764-3.475-1.002-8.108c5.763-4.634,1.622,2.322,2.588,3.288
			c0.965,0.965,0.754,2.802,1.189,2.728C158.674,172.716,165.12,169.306,155.463,174.881z"/>
		<path fill="#C67C32" d="M192.042,67.773c-3.218,1.415-1.979-2.26-1.421-2.818c0.558-0.558,1.326-5.056,1.885-4.498
			c0.558,0.558,0.889,6.151,1.14,6.108C193.898,66.522,195.259,66.359,192.042,67.773z"/>
		<path fill="#C67C32" d="M199.474,113.8c-3.438,1.511,0.296-3.615-0.376-7.307c-0.673-3.692,1.002,1.434,1.598,2.031
			c0.596,0.596,0.465,1.731,0.734,1.685C201.699,110.163,202.913,112.288,199.474,113.8z"/>
		<path fill="#C67C32" d="M182.53,90.508c-4.774,2.099-1.687-6.124-0.859-6.953c0.828-0.828,1.391,1.992,2.219,2.82
			c0.828,0.828,0.647,2.403,1.02,2.34S187.304,88.41,182.53,90.508z"/>
	</g>
	<g id="__x0023_Layer_x0020_3">
		<path fill="#C67C32" d="M24.637,110.087c-4.774,2.099-1.687-6.125-0.859-6.952c0.828-0.828,2.484-2.042,3.311-1.214
			c0.829,0.829-0.445,6.437-0.073,6.374C27.39,108.231,29.411,107.989,24.637,110.087z"/>
		<path fill="#C67C32" d="M57.239,123.055c-0.918-1.705,0.369-7.365,2.074-8.282c1.706-0.917,1.256,3.815,2.173,5.52
			c0.917,1.705-3.349,8.273-5.055,9.191C54.725,130.401,58.156,124.76,57.239,123.055z"/>
		<path fill="#C67C32" d="M19.07,54.91c3.836,0,12.503,7.555,12.503,11.391c0,3.837-7.832-1.389-11.669-1.389
			s-7.78,0.781-7.78-3.056C12.125,58.019,15.234,54.91,19.07,54.91z"/>
		<path fill="#C67C32" d="M65.434,60.518c-4.774,2.099-1.687-6.125-0.859-6.953c0.829-0.828,1.391,1.992,2.219,2.82
			c0.828,0.828,0.647,2.403,1.02,2.34C68.188,58.661,70.208,58.419,65.434,60.518z"/>
		<path fill="#C67C32" d="M100.73,78.743c-0.109-6.322,4.865-4.721,6.375,2.401c1.511,7.121-1.712,0.9-2.45,1.472
			c-0.738,0.571-1.379,1.309-1.95,0.572C102.134,82.451,100.839,85.066,100.73,78.743z"/>
		<path fill="#C67C32" d="M71.597,150.521c94.145-28.899,91.433-65.11,82.602-86.839c-6.744-16.606-42.186-23.819-60.191-26.453
			c91.007-4.219,85.716,52.182,57.883,79.536C138.796,129.637,105.358,144.454,71.597,150.521L71.597,150.521z"/>
	</g>
</g>
</svg>
