<?xml version="1.0" encoding="utf-8"?>
<!-- Generator: Adobe Illustrator 17.0.0, SVG Export Plug-In . SVG Version: 6.00 Build 0)  -->
<!DOCTYPE svg PUBLIC "-//W3C//DTD SVG 1.1 Basic//EN" "http://www.w3.org/Graphics/SVG/1.1/DTD/svg11-basic.dtd">
<svg version="1.1" baseProfile="basic" id="Слой_1"
	 xmlns="http://www.w3.org/2000/svg" xmlns:xlink="http://www.w3.org/1999/xlink" x="0px" y="0px" width="92.569px"
	 height="152.193px" viewBox="0 0 92.569 152.193" xml:space="preserve">
<path fill="#D36234" d="M32.203,0c-0.362,0.612-1.887,3.269-2.475,6.38C29.285,8.724,13.11,16.326,8.69,19.291
	C-9.412,31.432,6.66,39.014,4.949,42.146c-6.206,11.352-4.692,18.623-3.541,40.855c2.371,45.835,41.975,69.45,42.44,69.19
	c0.465-0.26,0-52.427,0-52.427c0-3.851,3.122-6.973,6.973-6.973h32.373c3.126-11.684,6.239-23.435,9.376-35.29
	C60.955,55.765,35.426,31.196,32.203,0z"/>
</svg>
