<?xml version="1.0" encoding="utf-8"?>
<!-- Generator: Adobe Illustrator 17.0.0, SVG Export Plug-In . SVG Version: 6.00 Build 0)  -->
<!DOCTYPE svg PUBLIC "-//W3C//DTD SVG 1.1 Basic//EN" "http://www.w3.org/Graphics/SVG/1.1/DTD/svg11-basic.dtd">
<svg version="1.1" baseProfile="basic" id="Слой_1"
	 xmlns="http://www.w3.org/2000/svg" xmlns:xlink="http://www.w3.org/1999/xlink" x="0px" y="0px" width="227.875px"
	 height="186.75px" viewBox="0 0 227.875 186.75" xml:space="preserve">
<polygon fill="#A8A8A8" stroke="#272525" stroke-width="3" stroke-miterlimit="10" points="557.307,189.762 557.307,189.762 
	557.306,189.761 "/>
<path fill="#A8A8A8" stroke="#272525" stroke-width="3" stroke-miterlimit="10" d="M179.281,16.527
	c-2.791-0.966,0.452-6.488-7.404-8.464c-2.722-0.686-7.031,4.534-10.012,3.996c-6.708-1.211-14.081-2.04-22.161-2.434
	c-21.269-1.04-45.647,4.023-59.653,23.863c-16.419,4.214-43.155-13.394-46.955,6.693c-0.374,1.979-14.029,8.396-17.761,10.9
	c-15.282,10.25-1.714,16.651-3.159,19.295c-5.24,9.584-3.961,15.722-2.99,34.491c3.155,61.005,59.456,74.138,108.999,66.985
	c8.991-1.298,15.404,7.601,34.005,7.601c28.339,0,11.918-20.47,19.737-24.925C213.616,130.775,254.082,42.408,179.281,16.527z"/>
</svg>
