<?xml version="1.0" encoding="utf-8"?>
<!-- Generator: Adobe Illustrator 17.0.0, SVG Export Plug-In . SVG Version: 6.00 Build 0)  -->
<!DOCTYPE svg PUBLIC "-//W3C//DTD SVG 1.1//EN" "http://www.w3.org/Graphics/SVG/1.1/DTD/svg11.dtd">
<svg version="1.1" id="Слой_1" xmlns="http://www.w3.org/2000/svg" xmlns:xlink="http://www.w3.org/1999/xlink" x="0px" y="0px"
	 width="78.147px" height="128.486px" viewBox="0 0 78.147 128.486" enable-background="new 0 0 78.147 128.486"
	 xml:space="preserve">
<path fill="#D36234" d="M27.187,0c-0.306,0.516-1.593,2.76-2.09,5.386c-0.374,1.979-14.029,8.396-17.761,10.9
	c-15.282,10.25-1.714,16.651-3.159,19.295c-5.24,9.584-3.961,15.722-2.99,34.491c2.001,38.694,35.436,58.631,35.829,58.412
	c0.393-0.22,0-44.259,0-44.259c0-3.251,2.635-5.886,5.886-5.886h27.33c2.639-9.864,5.267-19.784,7.915-29.792
	C51.46,47.078,29.908,26.336,27.187,0z"/>
</svg>
