<?xml version="1.0" encoding="utf-8"?>
<!-- Generator: Adobe Illustrator 17.0.0, SVG Export Plug-In . SVG Version: 6.00 Build 0)  -->
<!DOCTYPE svg PUBLIC "-//W3C//DTD SVG 1.1 Basic//EN" "http://www.w3.org/Graphics/SVG/1.1/DTD/svg11-basic.dtd">
<svg version="1.1" baseProfile="basic" id="Слой_1"
	 xmlns="http://www.w3.org/2000/svg" xmlns:xlink="http://www.w3.org/1999/xlink" x="0px" y="0px" width="60.199px"
	 height="145.786px" viewBox="0 0 60.199 145.786" xml:space="preserve">
<path fill="#42BCAA" d="M57.778,83.548c0,0-9.22-33.425-10.338-40.104c0,0-0.756-4.609-2.776-10.31
	c3.361-0.95,6.504-3.738,8.621-9.777c0,0-5.429,5.383-9.072,4.448c0,0-0.022-0.091-0.065-0.256h0.001
	c-0.105-0.396-0.343-1.238-0.738-2.361c-0.02-0.057-0.042-0.117-0.063-0.175c-0.053-0.15-0.109-0.303-0.168-0.461
	c-0.034-0.092-0.068-0.184-0.104-0.278c-0.052-0.137-0.107-0.277-0.163-0.42c-0.042-0.108-0.083-0.214-0.128-0.325
	c-0.072-0.179-0.149-0.364-0.227-0.55c-0.078-0.186-0.161-0.377-0.245-0.569c-0.051-0.117-0.102-0.234-0.156-0.353
	c-0.069-0.154-0.141-0.31-0.215-0.467c-0.054-0.115-0.108-0.231-0.164-0.347c-0.078-0.164-0.157-0.328-0.24-0.494
	c-0.056-0.113-0.115-0.228-0.174-0.343c-0.142-0.28-0.291-0.562-0.445-0.847c-0.08-0.149-0.159-0.297-0.243-0.446
	c-0.082-0.146-0.168-0.293-0.253-0.44c-0.062-0.106-0.12-0.212-0.184-0.319c-0.001,0.001-0.002,0.001-0.003,0.002
	c-3.225-5.433-8.693-11.201-17.41-11.271c0.619-3.15,2.497-3.881,2.497-3.881L22.68,0c-3.412,2.014-4.365,5.675-4.63,7.419
	C14.404,8.183,8.161,10.813,2.323,19.62c0,0-6.257,11.634,1.767,20.262c0,0-0.016-0.045-0.039-0.111
	c0.344,0.428,0.732,0.844,1.161,1.247c0.001,0.011,0.002,0.029,0.003,0.05c0.001,0.023,0.003,0.053,0.005,0.088
	c0.002,0.031,0.004,0.064,0.006,0.104c0.001,0.009,0.001,0.019,0.002,0.029c0.01,0.178,0.025,0.433,0.043,0.761
	c0.001,0.009,0.001,0.018,0.002,0.028c0.165,3.012,0.618,11.888,0.77,21.386c0,0.026,0.001,0.051,0.001,0.077
	c0.005,0.317,0.01,0.634,0.014,0.951c0.001,0.088,0.002,0.175,0.003,0.263c0.003,0.255,0.006,0.511,0.009,0.767
	c0.001,0.121,0.003,0.243,0.004,0.364c0.002,0.224,0.004,0.448,0.006,0.672c0.001,0.148,0.003,0.297,0.004,0.446
	c0.001,0.189,0.002,0.377,0.003,0.566c0.001,0.174,0.002,0.348,0.003,0.522c0.001,0.161,0.001,0.322,0.002,0.483
	c0.001,0.197,0.001,0.394,0.001,0.59c0,0.131,0,0.262,0,0.394c0,0.224,0,0.448-0.001,0.671c0,0.041,0,0.082,0,0.123
	C6.07,77.625,5.79,84.521,4.985,88.685c0.002-0.005,0.004-0.011,0.006-0.016c-0.239,1.244-0.524,2.247-0.863,2.944
	c0,0-5.826,17.702-0.451,34.234c0,0.001,0,0.002-0.001,0.003c0.005,0.016,0.011,0.032,0.017,0.048
	c0.131,0.401,0.271,0.801,0.415,1.2c0.047,0.131,0.096,0.262,0.145,0.393c0.135,0.362,0.275,0.722,0.422,1.082
	c0.023,0.057,0.045,0.115,0.069,0.173c0.168,0.406,0.346,0.81,0.529,1.213c0.053,0.116,0.106,0.231,0.16,0.347
	c0.181,0.388,0.367,0.774,0.563,1.158c0.014,0.027,0.026,0.054,0.04,0.081c0.21,0.409,0.432,0.815,0.659,1.219
	c0.056,0.1,0.113,0.2,0.171,0.3c0.234,0.407,0.474,0.812,0.727,1.213l0.001,0.001c0.254,0.403,0.521,0.802,0.794,1.199
	c0.064,0.094,0.129,0.187,0.195,0.28c0.278,0.396,0.563,0.789,0.861,1.178c0,0,0.005,0.006,0.015,0.017
	c0.005,0.006,0.011,0.012,0.02,0.022c0.009,0.01,0.019,0.021,0.032,0.035c0.01,0.011,0.019,0.021,0.032,0.035
	c0.02,0.022,0.044,0.048,0.071,0.077c0.011,0.012,0.02,0.021,0.032,0.035c0.036,0.039,0.078,0.083,0.124,0.131
	c0.021,0.022,0.044,0.046,0.067,0.07c0.032,0.033,0.065,0.067,0.101,0.104c0.027,0.028,0.055,0.056,0.085,0.086
	c0.036,0.036,0.073,0.073,0.112,0.112c0.035,0.035,0.069,0.069,0.107,0.106c0.068,0.067,0.139,0.136,0.215,0.209
	c0.042,0.04,0.087,0.083,0.131,0.124c0.045,0.043,0.09,0.086,0.138,0.13c0.049,0.046,0.099,0.092,0.151,0.14
	c0.051,0.047,0.104,0.095,0.158,0.144c0.053,0.048,0.105,0.096,0.161,0.146c0.063,0.056,0.129,0.114,0.194,0.172
	c0.096,0.084,0.195,0.171,0.298,0.259c0.061,0.052,0.121,0.104,0.185,0.157c0.069,0.058,0.14,0.117,0.212,0.177
	c0.06,0.05,0.121,0.1,0.183,0.151c0.076,0.062,0.152,0.124,0.231,0.187c0.067,0.053,0.136,0.108,0.205,0.162
	c0.137,0.108,0.278,0.216,0.423,0.327c0.073,0.056,0.146,0.111,0.221,0.167c0.088,0.065,0.178,0.131,0.269,0.197
	c0.073,0.053,0.147,0.107,0.221,0.16c0.093,0.067,0.187,0.134,0.284,0.201c0.078,0.055,0.158,0.109,0.237,0.164
	c0.163,0.112,0.33,0.224,0.501,0.336c0.092,0.06,0.183,0.121,0.277,0.181c0.102,0.066,0.207,0.131,0.312,0.196
	c0.088,0.055,0.177,0.11,0.266,0.165c0.108,0.066,0.216,0.131,0.326,0.197c0.092,0.055,0.185,0.109,0.279,0.163
	c0.112,0.065,0.222,0.129,0.336,0.193c0.184,0.103,0.371,0.205,0.561,0.306c0.111,0.059,0.225,0.117,0.338,0.175
	c0.107,0.055,0.213,0.11,0.321,0.164c0.119,0.059,0.238,0.117,0.359,0.176c0.109,0.052,0.219,0.104,0.33,0.155
	c0.121,0.056,0.241,0.112,0.363,0.167c0.149,0.066,0.301,0.131,0.452,0.195c0.172,0.073,0.347,0.144,0.523,0.215
	c0.133,0.053,0.265,0.106,0.4,0.157c0.124,0.047,0.249,0.092,0.375,0.138c0.129,0.047,0.26,0.092,0.391,0.137
	c0.126,0.043,0.251,0.086,0.379,0.127c0.159,0.051,0.32,0.1,0.481,0.149c0.168,0.051,0.338,0.1,0.509,0.147
	c0.177,0.049,0.355,0.097,0.534,0.142c0.124,0.031,0.249,0.06,0.375,0.089c0.154,0.036,0.308,0.07,0.464,0.103
	c0.127,0.027,0.254,0.053,0.382,0.078c0.177,0.034,0.355,0.065,0.534,0.095c0.107,0.018,0.212,0.038,0.319,0.054
	c0.27,0.041,0.542,0.077,0.817,0.108c0.115,0.013,0.232,0.023,0.348,0.034c0.184,0.018,0.369,0.034,0.555,0.047
	c0.124,0.009,0.248,0.017,0.373,0.023c0.197,0.011,0.396,0.017,0.595,0.022c0.083,0.002,0.163,0.008,0.246,0.009
	c-0.001-0.001-0.002-0.002-0.003-0.003c1.768,0.024,3.625-0.177,5.553-0.669c-0.005,0.003-0.009,0.006-0.014,0.009
	c0.073-0.019,0.148-0.042,0.222-0.061c0.117-0.031,0.233-0.064,0.35-0.097c0.159-0.045,0.317-0.092,0.477-0.141
	c0.134-0.041,0.268-0.084,0.402-0.128c0.145-0.047,0.29-0.097,0.435-0.148c0.148-0.052,0.296-0.105,0.445-0.16
	c0.133-0.05,0.267-0.101,0.401-0.154c0.161-0.063,0.322-0.128,0.483-0.195c0.123-0.051,0.247-0.105,0.371-0.159
	c0.172-0.075,0.344-0.151,0.516-0.231c0.115-0.053,0.23-0.109,0.346-0.164c0.181-0.087,0.363-0.176,0.546-0.269
	c0.107-0.055,0.215-0.112,0.323-0.169c0.19-0.1,0.381-0.202,0.572-0.308c0.102-0.057,0.204-0.117,0.306-0.175
	c0.197-0.113,0.395-0.228,0.593-0.348c0.096-0.058,0.193-0.12,0.289-0.179c0.205-0.127,0.41-0.256,0.616-0.391
	c0.091-0.059,0.182-0.122,0.273-0.183c0.211-0.142,0.423-0.284,0.635-0.434c0.088-0.062,0.176-0.128,0.264-0.191
	c0.216-0.155,0.432-0.312,0.649-0.476c0.084-0.064,0.169-0.132,0.254-0.197c0.221-0.17,0.441-0.34,0.663-0.519
	c0.084-0.068,0.168-0.14,0.252-0.209c0.223-0.183,0.445-0.367,0.669-0.559c0.086-0.074,0.172-0.153,0.258-0.228
	c0.222-0.194,0.443-0.388,0.666-0.592c0.1-0.092,0.201-0.19,0.301-0.283c0.209-0.195,0.418-0.388,0.627-0.592
	c0.31-0.301,0.62-0.61,0.931-0.93C47.65,136.251,66.815,116.648,57.778,83.548z"/>
</svg>
