<?xml version="1.0" encoding="utf-8"?>
<!-- Generator: Adobe Illustrator 17.0.0, SVG Export Plug-In . SVG Version: 6.00 Build 0)  -->
<!DOCTYPE svg PUBLIC "-//W3C//DTD SVG 1.1 Basic//EN" "http://www.w3.org/Graphics/SVG/1.1/DTD/svg11-basic.dtd">
<svg version="1.1" baseProfile="basic" id="Слой_1"
	 xmlns="http://www.w3.org/2000/svg" xmlns:xlink="http://www.w3.org/1999/xlink" x="0px" y="0px" width="266.917px"
	 height="238.958px" viewBox="0 0 266.917 238.958" xml:space="preserve">
<path fill="#D97E2D" stroke="#FFFFFF" stroke-width="6" stroke-miterlimit="10" d="M253.306,126.416c0,0-3.873-20.115-24.716-31.084
	c0,0-17.568-11.664-37.568-10.412c0,0-17.938-7.904-26.314-2.222c0,0-10.73-3.098-19.865-1.327c0.68-1.59,1.258-2.615,1.258-2.615
	c2.845-6.493,4.439-14.372,5.316-20.437l0.043-0.298c0.083-0.593,0.161-1.168,0.232-1.721l0.034-0.275
	c0.115-0.91,0.212-1.761,0.294-2.536l0.024-0.23l0.012-0.118l0.01-0.108l0.023-0.221l0.021-0.216l0.021-0.211l0.003-0.035
	l0.017-0.171l0.086-0.956l0.015-0.175l0.007-0.08l0.008-0.09l0.013-0.165l0.004-0.047l0.009-0.111l0.024-0.3l0.01-0.132v-0.009
	l0.01-0.134l0.007-0.099l0.003-0.03l0.009-0.122l0.005-0.07l0.003-0.047l0.008-0.11l0.004-0.044l0.003-0.06l0.007-0.097l0.002-0.021
	l0.005-0.069l0.005-0.084v-0.005l0.005-0.072l0.004-0.062V48.98l0.004-0.063l0.003-0.04l0.001-0.015l0.002-0.049l0.002-0.023
	l0.001-0.019l0.002-0.033v-0.01l0.001-0.017l0.001-0.019l0.001-0.002v-0.01v-0.004c-0.094-0.467-0.177-0.931-0.249-1.39
	l-0.002-0.017c-0.031-0.192-0.059-0.383-0.086-0.573l-0.007-0.048l-0.013-0.095l-0.006-0.048l-0.007-0.048l-0.036-0.284
	l-0.006-0.048l-0.006-0.047l-0.006-0.048l-0.038-0.329l-0.005-0.047l-0.006-0.047c-1.443-13.279,5.42-22.025,5.42-22.025
	c2.326-2.842,5.795-9.152,5.795-9.152l-0.085-0.17l-0.031-0.061l-0.079-0.147l-0.006-0.01l-0.103-0.183l-0.002-0.003l-0.097-0.163
	l-0.027-0.043l-0.085-0.133l-0.022-0.033l-0.107-0.16l-0.004-0.006l-0.113-0.16l-0.012-0.017l-0.102-0.138l-0.025-0.032
	l-0.116-0.149l-0.005-0.008l-0.098-0.12l-0.028-0.032l-0.03-0.036l-0.095-0.111l-0.011-0.013l-0.133-0.15l-0.008-0.008l-0.106-0.113
	l-0.027-0.029l-0.08-0.082l-0.019-0.019l-0.07-0.069l-0.021-0.021l-0.099-0.097l-0.01-0.01l-0.112-0.105l-0.026-0.025l-0.088-0.078
	l-0.012-0.011l-0.081-0.071l-0.021-0.019l-0.103-0.088l-0.013-0.011l-0.118-0.097l-0.097-0.078l-0.021-0.018l-0.065-0.05
	l-0.001-0.001l0.001-0.001c-0.178-0.139-0.361-0.271-0.547-0.399h-0.001l-0.098-0.067l-0.01-0.007l-0.123-0.081l-0.023-0.014
	l-0.01-0.007l-0.012-0.009l-0.021-0.013l-0.034-0.022l-0.033-0.021l-0.016-0.01l-0.017-0.01l-0.006-0.004l-0.028-0.017l-0.034-0.021
	l-0.033-0.021l-0.008-0.004l-0.004-0.003l-0.056-0.034l-0.034-0.021l-0.017-0.01l-0.017-0.01l-0.005-0.003l-0.064-0.038l-0.034-0.02
	l-0.032-0.019l-0.002-0.001l-0.034-0.02l-0.069-0.039l-0.013-0.007l-0.02-0.012l-0.126-0.07l-0.109-0.059l-0.01-0.005l-0.015-0.008
	l-0.152-0.081l-0.008-0.004l-0.283-0.143l-0.001,0.002l-0.094-0.047l-0.136-0.065l-0.016-0.008l-0.12-0.054l-0.274-0.122
	l-0.138-0.058l-0.274-0.112l-0.002-0.001l-0.105-0.041l-0.033-0.013l-0.139-0.052l-0.011-0.005l-0.127-0.047l-0.057-0.021
	l-0.082-0.03l-0.004-0.001l-0.135-0.048l-0.139-0.048l-0.01-0.004l-0.13-0.043l-0.055-0.018l-0.084-0.027l-0.1-0.032l-0.038-0.011
	l-0.139-0.043l-0.007-0.003l-0.131-0.038l-0.052-0.016l-0.086-0.025l-0.097-0.028l-0.041-0.011v0.011
	c-0.959-0.269-1.896-0.453-2.746-0.579l0.001-0.001l-0.356-0.05l-0.013-0.002l-0.03-0.004l-0.09-0.011l-0.03-0.004l-0.03-0.004
	l-0.03-0.004l-0.025-0.004h-0.004l-0.03-0.004l-0.029-0.004l-0.03-0.003l-0.116-0.014l-0.03-0.003l-0.005-0.001l-0.024-0.003
	l-0.029-0.003l-0.029-0.004l-0.056-0.006l-0.029-0.003l-0.028-0.003l-0.029-0.004l-0.014-0.001l-0.013-0.002l-0.028-0.002
	l-0.028-0.003l-0.055-0.006l-0.027-0.003l-0.028-0.003l-0.028-0.003l-0.517-0.046l-0.001,0.002
	c-1.142-0.087-1.876-0.065-1.876-0.065c-6.938,5.165-9.897,31.551-9.897,31.551c-0.138,12.174-3.244,22.194-3.825,23.965
	l-0.006,0.02l-0.01,0.027l-0.009,0.027l-0.004,0.01l-0.023,0.07l-0.003,0.01l-0.006,0.018l-0.006,0.016l-0.004,0.01l-0.002,0.005
	l-0.005,0.014l-0.004,0.012l-0.003,0.008l-0.001,0.002l-0.003,0.01l-0.003,0.007l-0.002,0.006l-0.002,0.005v0.001l-0.001,0.002
	l-0.026,0.093l-0.026,0.093l-0.026,0.093l-0.027,0.092l-0.027,0.093l-0.026,0.093l-0.026,0.092l-0.025,0.086l-0.001,0.008
	l-0.027,0.092l-0.027,0.092l-0.026,0.093l-0.027,0.092l-0.026,0.092l-0.026,0.093l-0.027,0.092l-0.023,0.081l-0.003,0.011
	l-0.027,0.092l-0.026,0.092l-0.027,0.092l-0.027,0.092l-0.026,0.092l-0.027,0.092l-0.026,0.091l-0.023,0.08l-0.004,0.012
	l-0.052,0.184l-0.027,0.092c-0.324,1.135-0.651,2.254-0.974,3.362l0.008-0.014c-2.106,7.204-4.249,14.024-5.8,18.846
	c-2.221-1.073-22.126-10.269-34.627-1.641c0,0-20.407,0.919-25.98,4.831c0,0-34.433,2.317-51.711,34.604
	c0,0-15.638,26.736-1.714,57.627c-0.201-0.33-0.402-0.657-0.605-0.999c1.041,2.4,2.256,4.831,3.67,7.275
	c0,0,10.328,21.332,30.697,27.502c0,0,7.723,5.386,18.632,8.521c6.519,1.894,14.193,2.995,22.045,1.655
	c0.284,0.093,0.939,0.298,1.871,0.551c4.204,1.158,14.781,3.472,23.212,0.297c0,0,5.684-2.801,11.07-1.099
	c0,0,20.298,1.702,29.232-2.175c0,0,2.326-0.704,5.285,0.158c0.674,0.21,1.379,0.499,2.094,0.901c0,0,0.062,0.017,0.165,0.044
	c0.007,0.004,0.013,0.006,0.02,0.01c0,0,17.637,4.945,36.24-2.872c0,0,23.175-3.058,35.73-19.218c0,0,15.98-7.932,24.772-31.918
	C257.907,172.545,263.262,151.514,253.306,126.416z"/>
<g>
	<g id="Слой_x0020_1">
		<path fill="#D1572B" d="M128.02,88.594c0,0-21.585-10.892-34.839-1.745c0,0-20.407,0.919-25.98,4.831
			c0,0-34.433,2.317-51.711,34.604c0,0-17.832,30.481,1.534,63.955c0,0,10.329,21.333,30.697,27.504
			c0,0,19.632,13.695,40.519,10.119c0,0,14.283,4.91,25.059,0.852c0,0,5.684-2.801,11.07-1.099c0,0,20.298,1.702,29.232-2.175
			c0,0,3.613-1.1,7.564,1.113c0,0,17.637,4.945,36.24-2.872c0,0,23.175-3.058,35.73-19.218c0,0,15.98-7.932,24.772-31.918
			c0,0,5.355-21.031-4.601-46.129c0,0-3.873-20.115-24.716-31.084c0,0-17.568-11.664-37.568-10.412c0,0-17.938-7.904-26.314-2.222
			c0,0-19.188-5.542-28.089,2.429L128.02,88.594z"/>
	</g>
	<g id="__x0023_Layer_x0020_1_1_">
		<path fill="#CC592C" d="M107.592,96.446c0,0-16.852-6.258-31.333-1.11c0,0,19.526-2.301,27.962,2.681c0,0-7.53,0.574-17.995,8.851
			c0,0,29.664-13.897,46.257-10.257c0,0,20.28-0.084,24.62,29.299c0,0,1.978-15.547-11.731-29.174c0,0,17.346-8.259,38.356,4.287
			c0,0-9.917-7.476-17.305-9.033c0,0,8.636-5.895,27.223-6.201c-1.068,0-2.148,0.026-3.234,0.095c0,0-0.472-0.208-1.296-0.534
			c-7.358-0.232-19.787,0.369-27.149,6.201c0,0-2.69-4.145,2.134-7.89c0,0-2.046-0.59-5.116-1.107
			c-2.347,1.464-9.197,6-11.517,10.443c0,0-5.572-2.046,0.285-11.117c-4.331,0.31-8.653,1.448-11.736,4.212l-8.603,3.468
			c0,0-13.383-6.755-25.541-5.159c5.443,0.699,17.032,2.654,21.983,7.071l-9.871,3.632c0,0-9.503-7.098-20.17-8.074
			c-0.418,0.246-0.833,0.505-1.237,0.786c0,0-1.207,0.054-3.11,0.192C94.098,88.452,101.325,90.228,107.592,96.446z"/>
		<path fill="#4B8E4D" d="M125.522,95.477c0,0,4.111-12.235,8.086-25.833l-0.008,0.014c0.323-1.108,0.65-2.227,0.974-3.362
			l0.027-0.092l0.052-0.184l0.004-0.012l0.023-0.08l0.026-0.091l0.027-0.092l0.026-0.092l0.027-0.092l0.027-0.092l0.026-0.092
			l0.027-0.092l0.003-0.011l0.023-0.081l0.027-0.092l0.026-0.093l0.026-0.092l0.027-0.092l0.026-0.093l0.027-0.092l0.027-0.092
			l0.001-0.008l0.025-0.086l0.026-0.092l0.026-0.093l0.027-0.093l0.027-0.092l0.026-0.093l0.026-0.093l0.026-0.093l0.001-0.002
			v-0.001l0.002-0.005l0,0l0.002-0.006l0.003-0.007l0.003-0.01l0.001-0.002l0.003-0.008l0.004-0.012l0.005-0.014l0.002-0.005
			l0.004-0.01l0.006-0.016l0.006-0.018l0.003-0.01l0.023-0.07l0.004-0.01l0.009-0.027l0.01-0.027l0.006-0.02
			c0.581-1.771,3.687-11.791,3.825-23.965c0,0,2.959-26.386,9.897-31.551c0,0,0.734-0.022,1.876,0.065l0.001-0.002l0.517,0.046
			l0.028,0.003l0.028,0.003l0.027,0.003l0.055,0.006l0.028,0.003l0.028,0.002l0.013,0.002l0.014,0.001l0.029,0.004l0.028,0.003
			l0.029,0.003l0.056,0.006l0.029,0.004l0.029,0.003l0.024,0.003l0.005,0.001l0.03,0.003l0.116,0.014l0.03,0.003l0.029,0.004
			l0.03,0.004h0.004l0.025,0.004l0.03,0.004l0.03,0.004l0.03,0.004l0.09,0.011l0.03,0.004l0.013,0.002l0.356,0.05l-0.001,0.001
			c0.85,0.126,1.787,0.31,2.746,0.579V8.847l0.041,0.011l0.097,0.028l0.086,0.025l0.052,0.016l0.131,0.038l0.007,0.003l0.139,0.043
			l0.038,0.011l0.1,0.032l0.084,0.027l0.055,0.018l0.13,0.043l0.01,0.004l0.139,0.048l0.135,0.048l0.004,0.001l0.082,0.03
			l0.057,0.021l0.127,0.047l0.011,0.005l0.139,0.052l0.033,0.013l0.105,0.041l0.002,0.001l0.274,0.112l0.138,0.058l0.274,0.122
			l0.12,0.054l0.016,0.008l0.136,0.065l0.094,0.047l0.001-0.002l0.283,0.143l0.008,0.004l0.152,0.081l0.015,0.008l0.01,0.005
			l0.109,0.059l0.126,0.07l0.02,0.012l0.013,0.007l0.069,0.039l0.034,0.02l0.002,0.001l0.032,0.019l0.034,0.02l0.064,0.038
			l0.005,0.003l0.017,0.01l0.017,0.01l0.034,0.021l0.056,0.034l0.004,0.003l0.008,0.004l0.033,0.021l0.034,0.021l0.028,0.017
			l0.006,0.004l0.017,0.01l0.016,0.01l0.033,0.021l0.034,0.022l0.021,0.013l0.012,0.009l0.01,0.007l0.023,0.014l0.123,0.081
			l0.01,0.007l0.098,0.067h0.001c0.186,0.128,0.369,0.26,0.547,0.399l-0.001,0.001l0.001,0.001l0.065,0.05l0.021,0.018l0.097,0.078
			l0.118,0.097l0.013,0.011l0.103,0.088l0.021,0.019l0.081,0.071l0.012,0.011l0.088,0.078l0.026,0.025l0.112,0.105l0.01,0.01
			l0.099,0.097l0.021,0.021l0.07,0.069l0.019,0.019l0.08,0.082l0.027,0.029l0.106,0.113l0.008,0.008l0.133,0.15l0.011,0.013
			l0.095,0.111l0.03,0.036l0.028,0.032l0.098,0.12l0.005,0.008l0.116,0.149l0.025,0.032l0.102,0.138l0.012,0.017l0.113,0.16
			l0.004,0.006l0.107,0.16l0.022,0.033l0.085,0.133l0.027,0.043l0.097,0.163l0.002,0.003l0.103,0.183l0.006,0.01l0.079,0.147
			l0.031,0.061l0.085,0.17c0,0-3.469,6.31-5.795,9.152c0,0-6.863,8.746-5.42,22.025l0.006,0.047l0.005,0.047l0.038,0.329
			l0.006,0.048l0.006,0.047l0.006,0.048l0.036,0.284l0.007,0.048l0.006,0.048l0.013,0.095l0.007,0.048
			c0.027,0.19,0.055,0.381,0.086,0.573l0.002,0.017c0.072,0.459,0.155,0.923,0.249,1.39v0.004v0.01l-0.001,0.002l-0.001,0.019
			l-0.001,0.017v0.01l-0.002,0.033l-0.001,0.019l-0.002,0.023l-0.002,0.049l-0.001,0.015l-0.003,0.04l-0.004,0.063v0.008
			l-0.004,0.062l-0.005,0.072v0.005l-0.005,0.084l-0.005,0.069l-0.002,0.021l-0.007,0.097l-0.003,0.06l-0.004,0.044l-0.008,0.11
			l-0.003,0.047l-0.005,0.07l-0.009,0.122l-0.003,0.03l-0.007,0.099l-0.01,0.134v0.009l-0.01,0.132l-0.024,0.3l-0.009,0.111
			l-0.004,0.047l-0.013,0.165l-0.008,0.09l-0.007,0.08l-0.015,0.175l-0.086,0.956l-0.017,0.171l-0.003,0.035l-0.021,0.211
			l-0.021,0.216l-0.023,0.221l-0.01,0.108l-0.012,0.118l-0.024,0.23c-0.082,0.775-0.179,1.626-0.294,2.536l-0.034,0.275
			c-0.071,0.553-0.149,1.128-0.232,1.721l-0.043,0.298c-0.877,6.065-2.471,13.944-5.316,20.437c0,0-6.016,10.661-2.068,16.606
			c0,0-1.775,2.648-4.834,4.125c-1.639,0.935-3.565,1.585-5.568,1.307v0.003c-0.626-0.089-1.259-0.266-1.893-0.552l-0.011-0.005
			c-0.105-0.048-0.21-0.098-0.315-0.152l-0.005-0.003l-0.021-0.01l-0.07-0.037l-0.069-0.037L131.244,100l-0.141-0.079l-0.016-0.01
			h-0.001l-0.159-0.094l-0.035-0.021l-0.108-0.068l-0.017-0.01l-0.016-0.01l-0.006-0.004l-0.124-0.081l-0.011-0.008l-0.003-0.002
			l-0.013-0.009c-0.101-0.068-0.202-0.139-0.303-0.214l-0.003-0.002l-0.03-0.022l-0.13-0.098l-0.011-0.009l-0.07-0.055l-0.07-0.055
			l-0.008-0.006l-0.002-0.002l-0.131-0.108l-0.026-0.022l-0.002-0.002l-0.157-0.134l-0.025-0.023l-0.129-0.115l-0.005-0.004
			C128.218,97.96,126.896,96.9,125.522,95.477z M158.383,9.918l0.176,0.087l0.108,0.054 M150.973,8.067
			c0.165,0.011,0.338,0.027,0.518,0.044 M150.973,8.067L150.973,8.067L150.973,8.067z"/>
		<path fill="#D97E2D" d="M213.924,130.487c0,0,25.578,64.212-16.296,87.225c0,0-33.561,10.194-35.325,2.836
			c0,0-5.219-4.271,2.516-26.272c0,0,4.754-27.864-3.279-50.002c0,0,9.411,53.159-13.201,66.713c0,0-24.415,16.129-31.733,7.958
			c0,0-2.039-2.82-4.764-8.088c-0.296-0.314-0.592-0.701-0.885-1.164c0,0-0.587-1.362-1.512-3.774
			c-5.12-11.248-11.147-29.302-11.385-52.291c-0.042-2.001-0.021-3.996,0.069-5.977c0.058-1.628,0.139-3.283,0.257-4.952
			c0,0-6.857,34.238,6.796,68.141c0,0,0.611,9.524-18.306,5.251c0,0-30.678-5.504-24.225-57.5c0,0-9.057,19.046,4.665,53.627
			c0,0-7.733,15.154-25.73-0.513c0,0-1.273-1.33-3.081-3.903c-15.967-19.325-12.285-44.921-12.285-44.921
			c0.415-3.94,1.03-7.636,1.814-11.111c0.403-2.054,0.888-4.159,1.464-6.308c0,0-12.141,19.016,1.887,56.651
			c0,0-8.315-2.497-18.214-19.201c1.041,2.4,2.256,4.831,3.67,7.275c0,0,10.328,21.332,30.697,27.502
			c0,0,19.631,13.696,40.516,10.123c0,0,14.281,4.908,25.062,0.85c0,0,5.684-2.802,11.071-1.104c0,0,20.295,1.704,29.226-2.168
			c0,0,3.617-1.107,7.567,1.109c0,0,17.641,4.946,36.237-2.872c0,0,5.112-0.673,11.826-3.058l0.141-0.249
			C209.185,220.321,239.064,183.446,213.924,130.487z"/>
	</g>
</g>
</svg>
