<?xml version="1.0" encoding="utf-8"?>
<!-- Generator: Adobe Illustrator 17.0.0, SVG Export Plug-In . SVG Version: 6.00 Build 0)  -->
<!DOCTYPE svg PUBLIC "-//W3C//DTD SVG 1.1 Basic//EN" "http://www.w3.org/Graphics/SVG/1.1/DTD/svg11-basic.dtd">
<svg version="1.1" baseProfile="basic" id="Слой_1"
	 xmlns="http://www.w3.org/2000/svg" xmlns:xlink="http://www.w3.org/1999/xlink" x="0px" y="0px" width="33.576px"
	 height="113.927px" viewBox="0 0 33.576 113.927" xml:space="preserve">
<path fill="#B76153" d="M28.36,96.753c-2.989-2.97-4.068-4.939-4.068-7.702c0-2.18-0.507-8.286-1.308-16.206
	c-0.289-2.832-0.618-8.14-0.728-11.698c-0.203-6.665-0.613-13.324-0.943-19.984c-0.996-19.981-0.725-21.871,3.197-25.362
	c3.95-3.513,8.984-7.668,4.688-13.085c-3.344-4.217-9.543-3.459-13.117,1.822c-1.119,1.653-2.475,3.263-3.051,3.561
	C11.207,9.037,9.1,9.631,8.522,9.408c-0.067-0.026-0.12-0.055-0.175-0.085c-0.036-0.019-0.07-0.039-0.1-0.059
	c-0.03-0.021-0.056-0.042-0.081-0.063c-0.025-0.022-0.05-0.043-0.07-0.066C8.077,9.113,8.063,9.09,8.049,9.067
	C8.035,9.044,8.02,9.02,8.011,8.996c-0.008-0.023-0.01-0.047-0.013-0.07C7.995,8.902,7.991,8.878,7.993,8.854
	C7.996,8.829,8.006,8.805,8.015,8.78c0.008-0.023,0.014-0.047,0.027-0.07c0.015-0.026,0.039-0.051,0.061-0.077
	C8.121,8.612,8.135,8.591,8.158,8.57C8.19,8.541,8.232,8.514,8.273,8.486C8.297,8.47,8.315,8.453,8.342,8.438
	c0.073-0.043,0.157-0.083,0.253-0.121c1.243-0.489,3.851-2.832,3.851-3.488c0-0.068-0.014-0.133-0.035-0.198
	c-0.006-0.019-0.015-0.037-0.022-0.056c-0.02-0.048-0.045-0.094-0.075-0.14c-0.011-0.017-0.022-0.034-0.035-0.051
	c-0.045-0.059-0.096-0.117-0.158-0.173c-0.001,0-0.001-0.001-0.001-0.001c-0.067-0.06-0.144-0.118-0.229-0.174
	c-0.012-0.008-0.025-0.016-0.038-0.024c-0.075-0.048-0.156-0.095-0.243-0.14c-0.016-0.008-0.031-0.016-0.047-0.024
	c-0.208-0.104-0.445-0.199-0.708-0.285c-0.006-0.002-0.013-0.004-0.019-0.006c-0.12-0.039-0.244-0.075-0.373-0.11
	c-0.014-0.004-0.027-0.009-0.042-0.012L10.42,3.436C7.985,2.786,4.05,2.81,2.638,3.887c-2.548,1.94-3.227,4.856-2.134,7.9
	c-0.005-0.01-0.011-0.021-0.016-0.032c0.082,0.23,0.175,0.46,0.276,0.691c0.04,0.09,0.087,0.181,0.129,0.271
	c0.086,0.181,0.176,0.361,0.274,0.542c0.054,0.1,0.11,0.2,0.168,0.3c0.117,0.201,0.242,0.402,0.374,0.603
	c0.043,0.065,0.082,0.131,0.127,0.196c0.178,0.26,0.371,0.52,0.574,0.778c0.06,0.076,0.125,0.152,0.187,0.228
	c0.162,0.198,0.332,0.395,0.509,0.591c0.07,0.078,0.14,0.156,0.213,0.233c0.245,0.261,0.499,0.521,0.771,0.777
	c4.234,3.986,3.758,8.764,4.288,13.953c0.177,1.739,0.334,10.027,0.435,18.31c0.116,9.228,0.386,18.826,0.8,24.708
	c0.028,0.396,0.055,0.778,0.081,1.151c0.008,0.112,0.015,0.219,0.023,0.329c0.019,0.273,0.038,0.542,0.056,0.803
	c0.008,0.122,0.016,0.239,0.025,0.359c0.016,0.229,0.031,0.454,0.046,0.675c0.009,0.133,0.018,0.263,0.026,0.393
	c0.014,0.206,0.027,0.408,0.04,0.607c0.008,0.126,0.016,0.251,0.024,0.374c0.012,0.188,0.023,0.37,0.034,0.551
	c0.007,0.12,0.015,0.241,0.022,0.358c0.011,0.183,0.021,0.359,0.03,0.535c0.006,0.106,0.012,0.215,0.018,0.318
	c0.014,0.263,0.027,0.519,0.038,0.765c0.004,0.077,0.006,0.148,0.009,0.223c0.008,0.172,0.015,0.343,0.021,0.507
	c0.004,0.104,0.007,0.202,0.01,0.303c0.004,0.129,0.009,0.259,0.012,0.383c0.003,0.102,0.005,0.201,0.007,0.3
	c0.002,0.116,0.005,0.232,0.006,0.344c0.001,0.098,0.002,0.193,0.003,0.288c0.001,0.107,0.001,0.211,0,0.315
	c0,0.091-0.001,0.182-0.002,0.27c-0.001,0.101-0.003,0.199-0.006,0.297c-0.002,0.083-0.003,0.167-0.006,0.247
	c-0.003,0.103-0.008,0.202-0.013,0.301c-0.003,0.069-0.006,0.14-0.01,0.207c-0.009,0.157-0.02,0.309-0.032,0.456
	c-0.005,0.061-0.012,0.119-0.018,0.178c-0.009,0.09-0.018,0.18-0.028,0.267c-0.008,0.065-0.017,0.127-0.025,0.19
	c-0.01,0.077-0.021,0.153-0.032,0.227c-0.01,0.063-0.021,0.124-0.032,0.185c-0.012,0.071-0.025,0.141-0.039,0.209
	c-0.012,0.059-0.024,0.118-0.037,0.175c-0.015,0.067-0.031,0.133-0.047,0.198c-0.014,0.055-0.028,0.11-0.042,0.164
	c-0.018,0.066-0.038,0.131-0.057,0.195c-0.015,0.049-0.029,0.099-0.045,0.147c-0.024,0.074-0.051,0.147-0.078,0.219
	c-0.013,0.036-0.025,0.072-0.039,0.107c-0.04,0.104-0.083,0.206-0.129,0.307C9.41,88.4,9.392,88.435,9.375,88.472
	c-0.031,0.066-0.062,0.132-0.096,0.196c-0.021,0.042-0.044,0.083-0.066,0.124c-0.032,0.059-0.064,0.117-0.097,0.175
	c-0.024,0.042-0.05,0.084-0.075,0.126c-0.034,0.057-0.069,0.113-0.105,0.169c-0.027,0.041-0.053,0.083-0.081,0.124
	c-0.038,0.057-0.078,0.115-0.118,0.173c-0.028,0.039-0.055,0.079-0.084,0.119c-0.046,0.063-0.094,0.127-0.142,0.191
	c-0.025,0.033-0.049,0.066-0.075,0.1c-0.067,0.087-0.137,0.174-0.208,0.263c-0.009,0.011-0.018,0.023-0.027,0.034
	c-0.434,0.531-0.952,1.096-1.565,1.763c-4.719,5.131-8.971,15.423-1.309,20.11c1.574,0.962,3.437,1.107,5.378,0.309
	c0.206-0.085,0.46-0.186,0.741-0.296c0,0,0,0,0.001,0c0.438-0.171,0.948-0.366,1.469-0.561c0.025-0.009,0.049-0.019,0.074-0.028
	c0.208-0.077,0.416-0.154,0.622-0.229c0.11-0.04,0.218-0.08,0.326-0.119c0.21-0.076,0.42-0.152,0.617-0.221
	c3.641-1.284,3.623-2.075,0.218-3.27c-0.37-0.13-0.67-0.268-0.9-0.405l0,0c-0.075-0.045-0.142-0.089-0.202-0.134
	c-0.016-0.012-0.028-0.023-0.043-0.035c-0.041-0.032-0.082-0.065-0.115-0.096c-0.02-0.019-0.035-0.038-0.052-0.058
	c-0.021-0.023-0.044-0.047-0.061-0.07s-0.027-0.046-0.04-0.069c-0.01-0.018-0.022-0.036-0.028-0.053
	c-0.009-0.024-0.012-0.046-0.015-0.069c-0.054-0.328,0.45-0.549,1.528-0.465c2.545,0.205,4.33,1.333,6.104,3.633
	c0.915,1.188,2.253,2.4,2.979,2.763C33.955,117.901,37.361,105.702,28.36,96.753z"/>
</svg>
