<?xml version="1.0" encoding="utf-8"?>
<!-- Generator: Adobe Illustrator 17.0.0, SVG Export Plug-In . SVG Version: 6.00 Build 0)  -->
<!DOCTYPE svg PUBLIC "-//W3C//DTD SVG 1.1 Basic//EN" "http://www.w3.org/Graphics/SVG/1.1/DTD/svg11-basic.dtd">
<svg version="1.1" baseProfile="basic" id="Слой_1"
	 xmlns="http://www.w3.org/2000/svg" xmlns:xlink="http://www.w3.org/1999/xlink" x="0px" y="0px" width="184.439px"
	 height="158.593px" viewBox="0 0 184.439 158.593" xml:space="preserve">
<path fill="#EEBF31" d="M42.351,0c-4.756,22.608-7.776,44.846-8.992,66.124c-2.166-2.08-4.584-4.6-6.737-6.846
	c-7.987-8.352-12.334-12.703-16.24-12.703C3.493,46.575,0,52.526,0,64.264C0,75.995,13.5,98.9,30.903,110.828
	c3.672,2.64,8.119,2.605,12.685-0.088c1.595-0.978,2.559-1.332,3.042-1.468c8.266,7.694,15.225,13.639,20.693,17.64
	c2.104,2.838,4.34,5.637,6.604,8.352c3.489,4.428,6.458,7.169,9.082,8.394c8.067,3.509,20.021,6.126,36.555,8.035
	c8.222,1.04,20.431,3.01,30.238,4.574l1.508,0.22c4.94,0.797,7.892,1.273,9.649,1.542l0.031,0.564l0.799-0.039
	c1.401-0.071,2.869-0.181,3.964-0.794c4.846-1.247,8.402-4.072,10.607-8.478c4.077-8.219,1.68-13.429-1.063-16.377
	c-1.37-1.419-4.759-4.098-10.339-8.148c-2.174-1.591-5.004-2.861-7.547-3.939c9.604,1.059,18.675,2.138,27.028,3.206
	C146.792,73.677,95.865,34.04,42.351,0z"/>
</svg>
