<?xml version="1.0" encoding="utf-8"?>
<!-- Generator: Adobe Illustrator 17.0.0, SVG Export Plug-In . SVG Version: 6.00 Build 0)  -->
<!DOCTYPE svg PUBLIC "-//W3C//DTD SVG 1.1 Basic//EN" "http://www.w3.org/Graphics/SVG/1.1/DTD/svg11-basic.dtd">
<svg version="1.1" baseProfile="basic" id="Слой_1"
	 xmlns="http://www.w3.org/2000/svg" xmlns:xlink="http://www.w3.org/1999/xlink" x="0px" y="0px" width="152.048px"
	 height="148.725px" viewBox="0 0 152.048 148.725" xml:space="preserve">
<path fill="#CE9538" d="M128.052,101.496c-13-16-30-28-35-49c-2.34-10.53-2.62-20.719-2.054-30.966
	c-15.276,6.061-27.876,16.728-35.274,33.481C66.547,20.135,30.014-0.324,8.179,0.004C7.087,0.02,6.032,0.089,5.021,0.21
	C4.684,0.25,4.352,0.296,4.026,0.348C2.873,20.432,24.562,28.833,18.934,26.335c-7.77-3.473-11.682-4.557-18.532-11.806
	c-3.802,29.075,19.946,61.348,47.593,49.227c0.243,0.921,0.459,1.826,0.664,2.726c0.06,0.264,0.118,0.527,0.175,0.789
	c0.158,0.725,0.303,1.444,0.438,2.156c0.034,0.182,0.073,0.366,0.106,0.547c0.15,0.831,0.281,1.65,0.401,2.462
	c0.043,0.294,0.082,0.584,0.122,0.876c0.079,0.579,0.15,1.153,0.214,1.722c0.032,0.282,0.067,0.566,0.095,0.846
	c0.075,0.742,0.138,1.476,0.191,2.202c0.024,0.334,0.042,0.664,0.062,0.995c0.027,0.454,0.05,0.904,0.068,1.352
	c0.015,0.357,0.03,0.715,0.04,1.068c0.015,0.558,0.023,1.11,0.026,1.658c0.003,0.494,0,0.983-0.007,1.47
	c-0.004,0.316-0.008,0.632-0.016,0.945c-0.01,0.429-0.023,0.856-0.04,1.279c-0.008,0.209-0.02,0.415-0.03,0.623
	c-0.043,0.892-0.097,1.772-0.165,2.637c-0.008,0.108-0.016,0.217-0.025,0.324c-0.043,0.523-0.09,1.041-0.141,1.554
	c0,0.003-0.001,0.006-0.001,0.01c-1.379,13.858-5.508,24.242-3.687,32.459c0.002,0.01,0.004,0.019,0.006,0.029
	c0.2,0.896,0.473,1.767,0.827,2.613c0.024,0.059,0.05,0.117,0.075,0.175c0.348,0.804,0.771,1.586,1.281,2.348
	c0.027,0.04,0.047,0.082,0.075,0.122c0.001-0.003,0.003-0.005,0.004-0.008c3.428,5.027,10.613,9.167,24.417,12.843
	c60.552,16.116,88.707-2.91,16.144-17.585c0.255-0.029,0.516-0.054,0.772-0.082c4.609,0.439,26.293,2.675,40.548,7.097
	c12.772,3.973,22.022,1.265,19.091-6.435c0.776,0.08,1.548,0.169,2.323,0.253C144.806,117.035,134.705,110.644,128.052,101.496z"/>
</svg>
