<?xml version="1.0" encoding="utf-8"?>
<!-- Generator: Adobe Illustrator 17.0.0, SVG Export Plug-In . SVG Version: 6.00 Build 0)  -->
<!DOCTYPE svg PUBLIC "-//W3C//DTD SVG 1.1 Basic//EN" "http://www.w3.org/Graphics/SVG/1.1/DTD/svg11-basic.dtd">
<svg version="1.1" baseProfile="basic" id="Слой_1"
	 xmlns="http://www.w3.org/2000/svg" xmlns:xlink="http://www.w3.org/1999/xlink" x="0px" y="0px" width="346.833px"
	 height="248.167px" viewBox="0 0 346.833 248.167" xml:space="preserve">
<path fill="#FFFFFF" stroke="#FFFFFF" stroke-width="6" stroke-miterlimit="10" d="M328.951,135.257
	c-0.049-0.503-0.109-1.012-0.18-1.527c-0.008-0.059-0.014-0.117-0.022-0.176c-0.08-0.561-0.17-1.128-0.277-1.704
	c-0.047-0.047-0.11-0.1-0.185-0.157c-0.039-0.03-0.089-0.064-0.135-0.096c-0.04-0.028-0.076-0.055-0.121-0.084
	c-0.07-0.047-0.151-0.097-0.233-0.148c-0.028-0.017-0.054-0.034-0.083-0.052c-0.107-0.065-0.225-0.134-0.351-0.206
	c-0.001,0-0.001-0.001-0.002-0.001c-1.907-1.09-5.896-2.939-10.909-5.127c-16.702-7.318-44.73-18.522-44.73-18.522
	c5.697-5.711,66.208-44.614,64.807-58.822c-0.58-5.843-2.445-8.914-5.051-10.08c-0.004-0.002-0.009-0.004-0.013-0.006
	c-0.286-0.127-0.58-0.232-0.883-0.315c-0.003-0.001-0.007-0.002-0.01-0.003c-0.912-0.247-1.898-0.298-2.939-0.181
	c-0.011,0.001-0.021,0.002-0.032,0.003c-0.328,0.038-0.662,0.094-1,0.163c-0.035,0.007-0.07,0.014-0.104,0.021
	c-0.325,0.07-0.655,0.154-0.989,0.252c-0.048,0.014-0.097,0.029-0.145,0.043c-0.327,0.099-0.657,0.209-0.991,0.333
	c-0.055,0.02-0.11,0.042-0.166,0.063c-0.333,0.126-0.668,0.262-1.006,0.411c-0.052,0.023-0.105,0.048-0.158,0.072
	c-0.307,0.138-0.616,0.284-0.927,0.439c-0.074,0.037-0.148,0.073-0.222,0.111c-0.298,0.152-0.598,0.313-0.899,0.479
	c-0.106,0.058-0.211,0.116-0.317,0.176c-0.286,0.162-0.572,0.331-0.859,0.505c-0.139,0.084-0.277,0.168-0.416,0.254
	c-0.263,0.163-0.526,0.331-0.789,0.503c-0.169,0.11-0.337,0.222-0.506,0.336c-0.167,0.112-0.335,0.227-0.502,0.343
	c-0.275,0.189-0.549,0.382-0.823,0.579c-0.083,0.06-0.167,0.121-0.25,0.181c-0.379,0.276-0.757,0.557-1.134,0.846
	c-0.013,0.01-0.027,0.02-0.04,0.031c-4.583,3.512-8.963,7.876-12.021,11.334c-6.944,7.839-13.069,14.797-18.376,20.813
	c-15.17,17.187-23.595,26.628-24.948,26.546c22.138-54.123,21.554-92.352,13.698-94.758c-0.004-0.001-0.009-0.001-0.013-0.003
	c-0.205-0.062-0.415-0.101-0.63-0.114c-0.027-0.002-0.055,0.004-0.082,0.003c-0.194-0.006-0.39,0.001-0.591,0.035
	c-0.053,0.009-0.109,0.032-0.163,0.044c-0.177,0.039-0.355,0.082-0.537,0.152c-0.085,0.033-0.172,0.085-0.258,0.124
	c-0.155,0.072-0.31,0.138-0.469,0.232c-0.118,0.07-0.24,0.164-0.36,0.246c-0.13,0.089-0.259,0.168-0.391,0.272
	c-0.156,0.123-0.315,0.273-0.474,0.417c-0.1,0.091-0.198,0.168-0.299,0.266c-0.194,0.19-0.392,0.409-0.589,0.629
	c-0.069,0.077-0.137,0.141-0.206,0.222c-0.235,0.274-0.474,0.578-0.714,0.895c-0.033,0.044-0.066,0.081-0.1,0.126
	c-5.253,7.064-11.549,24.642-16.813,55.435c-2.512,14.661-6.644,32.246-9.637,47.621c-2.965,15.155-6.452,21.223-20.989,13.096
	C173.887,101.8,88.845,88.622,63.724,145.509c10.823-34.876-25.709-55.335-47.545-55.007c-1.092,0.016-2.147,0.085-3.157,0.206
	c-0.337,0.04-0.669,0.087-0.995,0.139c-1.153,20.083,20.536,28.485,14.908,25.986c-7.77-3.473-11.682-4.558-18.532-11.806
	c-3.802,29.075,19.946,61.348,47.593,49.227c0.243,0.921,0.459,1.826,0.664,2.726c0.06,0.264,0.118,0.527,0.175,0.789
	c0.158,0.725,0.303,1.444,0.438,2.156c0.034,0.182,0.073,0.366,0.106,0.547c0.15,0.83,0.281,1.648,0.401,2.46
	c0.044,0.295,0.083,0.587,0.122,0.879c0.079,0.578,0.149,1.152,0.214,1.721c0.032,0.282,0.067,0.566,0.095,0.846
	c0.075,0.742,0.138,1.476,0.191,2.202c0.024,0.335,0.042,0.666,0.062,0.998c0.027,0.451,0.049,0.899,0.068,1.344
	c0.015,0.359,0.031,0.72,0.04,1.075c0.015,0.555,0.023,1.105,0.026,1.651c0.003,0.498,0,0.99-0.007,1.48
	c-0.004,0.313-0.008,0.626-0.016,0.936c-0.01,0.43-0.023,0.859-0.04,1.283c-0.008,0.209-0.02,0.415-0.03,0.623
	c-0.043,0.896-0.098,1.779-0.166,2.648c-0.008,0.103-0.015,0.207-0.024,0.31c-0.043,0.523-0.09,1.043-0.141,1.556
	c0,0.005-0.001,0.01-0.002,0.016c-1.38,13.856-5.508,24.239-3.686,32.455c0.002,0.009,0.004,0.019,0.006,0.028
	c0.2,0.897,0.473,1.767,0.827,2.614c0.024,0.058,0.049,0.116,0.074,0.175c0.348,0.804,0.772,1.587,1.281,2.349
	c0.027,0.04,0.047,0.082,0.074,0.122c0.001-0.003,0.003-0.005,0.004-0.008c3.428,5.027,10.613,9.167,24.417,12.843
	c60.552,16.116,88.707-2.91,16.143-17.585c0.255-0.029,0.516-0.054,0.772-0.082c4.609,0.439,26.293,2.675,40.548,7.097
	c12.772,3.973,22.022,1.265,19.091-6.435c12.931,1.327,25.729,3.304,37.439,5.776c17.324,3.651,27.812,9.994,43.653,12.959
	c10.474,1.949,32.562,0.178,44.257-1.839c25.78-4.434,19.452-19.768-2.018-18.216c-19.51,1.413-42.512,13.42-43.418-4.884
	c5.439,1.015,11.703,1.279,17.569,1.04c13.81-0.549,43.091-2.759,39.219-12.698s-25.41-4.42-37.009-0.563
	c-7.406,2.469-14.126,0.22-18.027-1.879c4.213-12.903,15.517-16.938,30.436-19.097c24.143-3.496,62.09-10.522,59.129-41.347
	C328.955,135.301,328.954,135.279,328.951,135.257z"/>
<g id="Слой_x0020_1">
	<g id="_528879560">
		<path fill="#7F7F7F" d="M235.866,193.225c0,0.563,9.939,8.291,21.552,4.42c11.6-3.857,33.138-9.376,37.009,0.563
			s-25.41,12.149-39.219,12.698c-13.81,0.563-29.844-1.647-32.054-9.939C220.944,192.676,235.866,192.676,235.866,193.225
			L235.866,193.225z"/>
		<path fill="#7F7F7F" d="M97.191,215.327c0,0,25.423,2.21,41.443,7.179c16.02,4.983,26.522-0.535,14.359-13.247
			c-12.149-12.712-38.67-6.63-38.67-6.63L97.191,215.327z"/>
		<path fill="#939393" d="M241.385,114.732c2.993-15.375,7.125-32.96,9.637-47.621c17.736-103.711,47.195-57.628,8.992,35.774
			c1.826,0.11,16.528-17.118,43.338-47.36c9.321-10.543,30.928-29.583,33.179-6.891c1.4,14.208-59.111,53.112-64.807,58.822
			c0,0,53.88,21.538,56.749,24.394c6.246,33.783-33.619,41.196-58.644,44.82c-19.067,2.759-32.232,8.58-32.232,32.067
			c0,19.946,23.556,7.454,43.461,6.013c21.47-1.551,27.798,13.782,2.018,18.216c-11.696,2.018-33.783,3.789-44.257,1.839
			c-15.842-2.965-26.329-9.307-43.653-12.959c-30.887-6.521-69.338-9.609-97.85-6.356c72.563,14.675,44.408,33.701-16.144,17.585
			c-50.16-13.357-13.027-32.822-25.176-78.823c-27.647,12.121-51.396-20.152-47.593-49.227c6.85,7.248,10.762,8.333,18.532,11.806
			c5.628,2.498-16.061-5.903-14.908-25.986c20.907-3.336,63.229,17.461,51.698,54.663c25.121-56.887,110.163-43.708,156.672-17.681
			C234.933,135.954,238.42,129.887,241.385,114.732z"/>
		<path fill="#7F7F7F" d="M241.385,114.732c2.993-15.375,7.125-32.96,9.637-47.621c8.841-51.711,20.591-66.166,25.423-56.118
			c-3.638,3.35-9.719,11.586-13.851,31.079c-6.273,29.542-9.211,90.107-29.5,93.8c-20.275,3.693-47.195-21.044-87.389-21.786
			c-40.18-0.741-70.422,21.786-76.325,48.005c-4.324,19.232-6.054,46.728-12.629,58.15c-9.019-13.247,8.058-32.644-0.755-65.988
			c-27.647,12.121-51.396-20.152-47.593-49.227c6.85,7.248,10.762,8.333,18.532,11.806c5.628,2.498-16.061-5.903-14.908-25.986
			c20.907-3.336,63.243,17.461,51.698,54.663c25.121-56.887,110.163-43.708,156.672-17.681
			C234.933,135.954,238.42,129.887,241.385,114.732z M261.372,102.061c4.489-3.748,18.656-20.221,41.965-46.536
			c8.525-9.637,27.304-26.357,32.191-11.861c-3.679-0.865-10.721-0.865-19.109,7.276c-12.904,12.561-42.39,45.795-50.874,50.215
			C262.594,102.706,261.111,103.31,261.372,102.061L261.372,102.061z"/>
		<path fill="#EFD0D0" d="M316.131,125.837c6.617,2.883,11.531,5.203,12.341,6.013c0.865,4.695,0.824,8.882,0.082,12.616
			c-3.748,0.686-7.646-0.137-10.392-3.061C311.889,134.746,314.47,128.528,316.131,125.837L316.131,125.837z"/>
		<path fill="#7F7F7F" d="M302.101,169.408c-4.063,1.483-8.333,2.691-12.588,3.693c-11.504-3.665-14.084-15.306-14.084-15.306
			s1.318,3.102,7.962,7.536C287.523,168.09,296.102,169.134,302.101,169.408L302.101,169.408z"/>
		<path fill="#FFFFFF" d="M283.13,134.678c-3.899,5.546-11.325,7.042-16.583,3.35c-5.271-3.706-6.383-11.188-2.485-16.734
			c3.899-5.546,11.325-7.042,16.583-3.35C285.917,121.637,287.029,129.146,283.13,134.678L283.13,134.678z"/>
		<path d="M280.796,131.713c-2.567,3.652-7.454,4.64-10.913,2.21c-3.459-2.443-4.201-7.372-1.634-11.023s7.454-4.64,10.913-2.21
			C282.636,123.133,283.363,128.061,280.796,131.713L280.796,131.713z"/>
		<path fill="#FFFFFF" d="M273.672,129.557c-0.933,1.332-2.718,1.702-3.981,0.81c-1.263-0.892-1.537-2.691-0.604-4.022
			c0.947-1.332,2.732-1.702,3.995-0.81C274.344,126.428,274.619,128.226,273.672,129.557L273.672,129.557z"/>
	</g>
</g>
</svg>
