<?xml version="1.0" encoding="utf-8"?>
<!-- Generator: Adobe Illustrator 17.0.0, SVG Export Plug-In . SVG Version: 6.00 Build 0)  -->
<!DOCTYPE svg PUBLIC "-//W3C//DTD SVG 1.1 Basic//EN" "http://www.w3.org/Graphics/SVG/1.1/DTD/svg11-basic.dtd">
<svg version="1.1" baseProfile="basic" id="Слой_1"
	 xmlns="http://www.w3.org/2000/svg" xmlns:xlink="http://www.w3.org/1999/xlink" x="0px" y="0px" width="254.846px"
	 height="229.625px" viewBox="0 0 254.846 229.625" xml:space="preserve">
<path fill="#3FA556" d="M216.135,176.638c12.183-6.654,23.215-17.18,32.768-31.299c2.238-3.304,4.218-6.609,5.943-9.908
	c-6.883-5.915-13.475-12.186-19.813-18.524c-35.541-32.209-58.896-69.958-83.324-111.035C134.104,1.993,117.758,0,103.143,0
	C31.972,0,11.839,46.305,1.011,71.192l-0.802,1.882l-0.196,0.612C0.009,73.707,0.005,73.728,0,73.748
	c53.514,34.039,104.441,73.677,142.088,124.026c28.419,3.632,48.455,7.129,52.237,9.248c5.48,12.745,16.819,20.329,33.851,22.603
	c8.018,0,13.571-3.107,16.42-9.22c2.813-5.556,0.453-11.78-7.038-18.606l-11.217-8.306c-3.786-2.68-6.201-5.368-7.699-8.682
	c-3.462-5.054-3.217-7.085-3.144-7.438C215.547,177.188,215.615,176.932,216.135,176.638z"/>
</svg>
