<?xml version="1.0" encoding="utf-8"?>
<!-- Generator: Adobe Illustrator 17.0.0, SVG Export Plug-In . SVG Version: 6.00 Build 0)  -->
<!DOCTYPE svg PUBLIC "-//W3C//DTD SVG 1.1 Basic//EN" "http://www.w3.org/Graphics/SVG/1.1/DTD/svg11-basic.dtd">
<svg version="1.1" baseProfile="basic" id="Слой_1"
	 xmlns="http://www.w3.org/2000/svg" xmlns:xlink="http://www.w3.org/1999/xlink" x="0px" y="0px" width="370px" height="330px"
	 viewBox="0 0 370 330" xml:space="preserve">
<g>
	<g>
		<g>
			<path fill="#AFD7DE" stroke="#FFFFFF" stroke-width="3" stroke-miterlimit="10" d="M347.865,114.871l-0.141-0.194
				c-3.026-4.16-6.176-8.462-9.486-13.263c-15.246-22.137-29.374-32.889-43.221-32.889c-0.63,0-1.26,0.013-1.895,0.071
				c-3.351-5.093-13.846-23.714-22.77-39.984C260.5,13.554,251.283,5.549,242.078,4.159l-0.879-0.072
				c-3.279,0-6.117,2.336-8.428,7.004c-0.954,2.462-0.319,6.408,8.898,27.453c-6.794-11.371-14.488-22.519-24.097-26.102
				c-2.378-0.897-4.372-1.309-6.158-1.309c-3.693,0-5.602,1.834-6.549,3.385c-2.723,4.406-0.998,12.615,5.236,25.03
				c6.403,14.984,11.87,27.926,15.374,36.443c5.535,13.646,5.731,18.119,6.05,24.923l0.024,0.719
				c0.097,1.529,0.159,3.159,0.318,5.109c0.117,0.839-0.831,1.853-2.666,2.867c-1.615,0.881-3.156,1.37-4.33,1.37
				c-0.368,0-0.698-0.042-0.905-0.133c-9.969-4.428-17.583-7.937-22.678-10.458l-0.696-0.272
				c-18.785-4.341-36.171-6.544-51.638-6.544c-71.171,0-91.304,46.305-102.132,71.192l-0.802,1.882l-0.196,0.612
				c-4.764,22.629-7.788,44.889-9.005,66.187c-2.166-2.08-4.584-4.6-6.737-6.846c-7.987-8.352-12.334-12.703-16.24-12.703
				c-6.889,0-10.382,5.951-10.382,17.689c0,11.731,13.5,34.636,30.903,46.564c3.672,2.64,8.119,2.605,12.685-0.088
				c1.595-0.978,2.559-1.332,3.042-1.468c8.266,7.694,15.225,13.639,20.693,17.64c2.104,2.838,4.34,5.637,6.604,8.352
				c3.489,4.428,6.458,7.169,9.082,8.394c8.067,3.509,20.021,6.126,36.555,8.034c8.222,1.04,20.431,3.01,30.238,4.574l1.508,0.22
				c4.94,0.797,7.892,1.273,9.649,1.542l0.031,0.564l0.799-0.039c1.401-0.071,2.869-0.181,3.964-0.794
				c4.846-1.247,8.402-4.072,10.607-8.478c4.077-8.219,1.68-13.429-1.063-16.377c-1.37-1.419-4.759-4.098-10.339-8.148
				c-2.174-1.591-5.004-2.861-7.547-3.939c42.276,4.662,74.372,9.712,79.265,12.453c5.48,12.745,16.819,20.329,33.851,22.603
				c8.018,0,13.571-3.107,16.42-9.22c2.814-5.556,0.453-11.78-7.038-18.605l-11.217-8.307c-3.786-2.679-6.201-5.368-7.699-8.682
				c-3.462-5.054-3.217-7.085-3.144-7.438c0.048-0.185,0.117-0.441,0.637-0.735c12.183-6.654,23.215-17.18,32.768-31.299
				c8.79-12.975,13.639-25.953,14.41-38.62c11.081-0.716,26.25-9.243,37.148-16.325c13.455-8.744,20.268-19.056,20.268-30.628
				C366.55,140.4,358.305,129.119,347.865,114.871z M300.205,120.288c-5.132,0-9.321-4.182-9.321-9.324
				c0-5.138,4.189-9.317,9.321-9.317c5.143,0,9.314,4.179,9.314,9.317C309.519,116.105,305.348,120.288,300.205,120.288z"/>
		</g>
	</g>
	<circle fill="#393E3F" cx="302.737" cy="107.355" r="6.013"/>
	<circle fill="#E2A5A9" cx="271.608" cy="145.016" r="12.026"/>
	<g>
		
			<line fill="none" stroke="#717E82" stroke-width="0.5" stroke-linecap="round" stroke-linejoin="round" stroke-miterlimit="10" x1="287.781" y1="136.898" x2="346.199" y2="142.428"/>
		
			<line fill="none" stroke="#717E82" stroke-width="0.5" stroke-linecap="round" stroke-linejoin="round" stroke-miterlimit="10" x1="288.773" y1="166.751" x2="345.207" y2="145.026"/>
		
			<line fill="none" stroke="#717E82" stroke-width="0.5" stroke-linecap="round" stroke-linejoin="round" stroke-miterlimit="10" x1="307.309" y1="175.67" x2="346.783" y2="145.026"/>
	</g>
	<path fill="#D56E74" d="M360.643,133.749l-15.18,8.527l20.905,14.008C366.369,156.284,362.374,136.703,360.643,133.749z"/>
	<path fill="#C4C7C7" d="M241.918,88.633l22.116-12.165c0,0-18.798-38.701-36.492-48.653
		C209.848,17.862,231.966,70.941,241.918,88.633z"/>
	<path fill="#C4C7C7" d="M267.503,71.006l16.13-10.458c0,0-13.71-33.265-26.616-41.818
		C244.114,10.174,260.247,55.799,267.503,71.006z"/>
	<polygon fill="#717E82" points="358.551,173.535 346.783,173.535 349.926,181.414 	"/>
</g>
</svg>
