<?xml version="1.0" encoding="utf-8"?>
<!-- Generator: Adobe Illustrator 17.0.0, SVG Export Plug-In . SVG Version: 6.00 Build 0)  -->
<!DOCTYPE svg PUBLIC "-//W3C//DTD SVG 1.1 Basic//EN" "http://www.w3.org/Graphics/SVG/1.1/DTD/svg11-basic.dtd">
<svg version="1.1" baseProfile="basic" id="Слой_1"
	 xmlns="http://www.w3.org/2000/svg" xmlns:xlink="http://www.w3.org/1999/xlink" x="0px" y="0px" width="169.019px"
	 height="224.917px" viewBox="0 0 169.019 224.917" xml:space="preserve">
<path fill="#D36234" d="M83.323,206.393c6.338,6.338,12.93,12.608,19.813,18.524c5.049-9.657,7.892-19.271,8.467-28.712
	c11.081-0.716,26.25-9.243,37.148-16.325c1.286-0.836,2.491-1.69,3.656-2.554v0.001l0.009-0.008c3.375-2.505,6.256-5.125,8.605-7.86
	l0.012-0.011h-0.002c4.583-5.34,7.188-11.109,7.819-17.251l0,0v-0.001c0.1-0.973,0.169-1.952,0.169-2.944
	c0.007-6.762-2.255-13.073-5.894-19.59l0,0c-3.324-5.953-7.794-12.076-12.777-18.878l-0.141-0.194
	c-3.026-4.16-6.176-8.462-9.486-13.263C125.475,75.19,111.347,64.438,97.5,64.438c-0.63,0-1.26,0.013-1.895,0.071
	c-3.351-5.093-13.846-23.714-22.77-39.984C62.983,9.467,53.766,1.461,44.561,0.072L43.68,0c-3.279,0-6.117,2.336-8.428,7.004
	c-0.954,2.462-0.319,6.408,8.898,27.453C37.356,23.086,29.662,11.938,20.053,8.355c-2.378-0.897-4.372-1.309-6.159-1.309
	c-3.693,0-5.601,1.834-6.549,3.385c-2.723,4.406-0.997,12.615,5.236,25.03c6.403,14.984,11.87,27.926,15.374,36.443
	c5.535,13.646,5.731,18.119,6.05,24.923l0.024,0.719c0.097,1.529,0.159,3.159,0.318,5.109c0.117,0.839-0.831,1.853-2.666,2.867
	c-1.615,0.881-3.156,1.37-4.33,1.37c-0.368,0-0.698-0.042-0.905-0.133c-9.969-4.428-17.583-7.937-22.678-10.458l-0.696-0.272
	C2.038,95.79,1.025,95.582,0,95.357C24.427,136.435,47.782,174.184,83.323,206.393z"/>
</svg>
