<?xml version="1.0" encoding="utf-8"?>
<!-- Generator: Adobe Illustrator 17.0.0, SVG Export Plug-In . SVG Version: 6.00 Build 0)  -->
<!DOCTYPE svg PUBLIC "-//W3C//DTD SVG 1.1 Basic//EN" "http://www.w3.org/Graphics/SVG/1.1/DTD/svg11-basic.dtd">
<svg version="1.1" baseProfile="basic" id="Слой_1"
	 xmlns="http://www.w3.org/2000/svg" xmlns:xlink="http://www.w3.org/1999/xlink" x="0px" y="0px" width="346.833px"
	 height="248.167px" viewBox="0 0 346.833 248.167" xml:space="preserve">
<path fill="#A8A8A8" stroke="#272525" stroke-width="3" stroke-miterlimit="10" d="M136.052,192.496c-13-16-30-28-35-49
	c-2.34-10.53-2.62-20.719-2.054-30.966c-15.276,6.061-27.876,16.728-35.274,33.481c10.823-34.876-25.709-55.335-47.545-55.007
	c-1.092,0.016-2.147,0.085-3.157,0.206c-0.337,0.04-0.669,0.087-0.995,0.139c-1.153,20.083,20.536,28.484,14.908,25.986
	c-7.77-3.473-11.682-4.557-18.532-11.806c-3.802,29.075,19.946,61.348,47.593,49.227c0.243,0.921,0.459,1.826,0.664,2.726
	c0.06,0.264,0.118,0.527,0.175,0.789c0.158,0.725,0.303,1.444,0.438,2.156c0.034,0.182,0.073,0.366,0.106,0.547
	c0.15,0.831,0.281,1.65,0.401,2.462c0.043,0.294,0.082,0.584,0.122,0.876c0.079,0.579,0.15,1.153,0.214,1.722
	c0.032,0.282,0.067,0.566,0.095,0.846c0.075,0.742,0.138,1.476,0.191,2.202c0.024,0.334,0.042,0.664,0.062,0.995
	c0.027,0.454,0.05,0.904,0.068,1.352c0.015,0.357,0.03,0.715,0.04,1.068c0.015,0.558,0.023,1.11,0.026,1.658
	c0.003,0.494,0,0.983-0.007,1.47c-0.004,0.316-0.008,0.632-0.016,0.945c-0.01,0.429-0.023,0.856-0.04,1.279
	c-0.008,0.209-0.02,0.415-0.03,0.623c-0.043,0.892-0.097,1.772-0.165,2.637c-0.008,0.108-0.016,0.217-0.025,0.324
	c-0.043,0.523-0.09,1.041-0.141,1.554c0,0.003-0.001,0.006-0.001,0.01c-1.379,13.858-5.508,24.242-3.687,32.459
	c0.002,0.01,0.004,0.019,0.006,0.029c0.2,0.896,0.473,1.767,0.827,2.613c0.024,0.059,0.05,0.117,0.075,0.175
	c0.348,0.804,0.771,1.586,1.281,2.348c0.027,0.04,0.047,0.082,0.075,0.122c0.001-0.003,0.003-0.005,0.004-0.008
	c3.428,5.027,10.613,9.167,24.417,12.843c60.552,16.116,88.707-2.91,16.144-17.585c0.255-0.029,0.516-0.054,0.772-0.082
	c4.609,0.439,26.293,2.675,40.548,7.097c12.772,3.973,22.022,1.265,19.091-6.435c0.776,0.08,1.548,0.169,2.323,0.253
	C152.806,208.034,142.705,201.644,136.052,192.496z"/>
<path fill="#A8A8A8" stroke="#272525" stroke-width="3" stroke-miterlimit="10" d="M216.357,125.962
	c-32.919-17.026-82.066-27.396-117.107-13.493c-0.566,10.246-0.286,20.435,2.054,30.966c2.441,10.252,7.745,18.357,14.044,25.831
	c35.787-4.355,71.934-5.022,107.893-5.482C218.059,152.073,215.753,138.935,216.357,125.962z"/>
<path fill="#A8A8A8" stroke="#272525" stroke-width="3" stroke-miterlimit="10" d="M280.962,214.409
	c-19.51,1.413-42.511,13.42-43.418-4.884c5.439,1.015,11.703,1.279,17.569,1.04c13.81-0.549,43.091-2.759,39.219-12.698
	c-3.871-9.939-25.41-4.42-37.009-0.563c-7.406,2.469-14.126,0.22-18.026-1.879c1.282-3.925,3.227-7.02,5.723-9.501
	c-4.47-0.377-8.437-1.771-11.064-5.273c-4.558-5.277-8.233-11.255-11.063-17.651c-35.959,0.46-72.107,1.127-107.893,5.482
	c6.604,7.836,14.303,14.979,20.956,23.169c6.653,9.148,16.754,15.539,23.996,24.33c12.137,1.32,24.108,3.199,35.116,5.523
	c17.324,3.651,27.812,9.994,43.653,12.959c10.474,1.949,32.562,0.178,44.257-1.839C308.76,228.192,302.432,212.858,280.962,214.409z
	"/>
<path fill="#A8A8A8" stroke="#272525" stroke-width="3" stroke-miterlimit="10" d="M328.937,135.25
	c-0.049-0.502-0.109-1.011-0.18-1.526c-0.008-0.059-0.014-0.116-0.022-0.176c-0.08-0.561-0.17-1.128-0.277-1.704
	c-0.047-0.047-0.11-0.1-0.185-0.157c-0.04-0.03-0.091-0.065-0.138-0.098c-0.039-0.027-0.074-0.053-0.118-0.082
	c-0.071-0.047-0.153-0.098-0.236-0.15c-0.027-0.017-0.052-0.032-0.08-0.049c-1.731-1.052-5.911-2.999-11.253-5.331
	c-16.701-7.318-44.739-18.526-44.739-18.526c5.697-5.711,66.208-44.614,64.807-58.822c-0.58-5.843-2.445-8.914-5.051-10.08
	c-0.004-0.002-0.009-0.004-0.013-0.006c-0.286-0.127-0.58-0.232-0.883-0.315c-0.003-0.001-0.007-0.002-0.01-0.003
	c-0.912-0.247-1.898-0.298-2.939-0.181c-0.011,0.001-0.021,0.002-0.032,0.003c-0.328,0.038-0.662,0.094-1,0.163
	c-0.035,0.007-0.069,0.014-0.104,0.021c-0.325,0.07-0.655,0.154-0.988,0.252c-0.048,0.014-0.097,0.029-0.146,0.044
	c-0.327,0.099-0.657,0.209-0.99,0.332c-0.055,0.02-0.111,0.042-0.166,0.063c-0.333,0.126-0.667,0.262-1.005,0.41
	c-0.053,0.023-0.106,0.049-0.159,0.073c-0.307,0.138-0.615,0.284-0.925,0.438c-0.074,0.037-0.148,0.073-0.222,0.111
	c-0.299,0.152-0.599,0.313-0.9,0.48c-0.105,0.058-0.211,0.115-0.316,0.175c-0.286,0.162-0.574,0.332-0.861,0.506
	c-0.138,0.083-0.276,0.167-0.414,0.253c-0.263,0.164-0.527,0.332-0.791,0.504c-0.168,0.11-0.337,0.222-0.505,0.335
	c-0.165,0.111-0.331,0.225-0.496,0.339c-0.278,0.191-0.555,0.386-0.832,0.586c-0.08,0.058-0.16,0.116-0.24,0.174
	c-0.382,0.278-0.763,0.562-1.143,0.853c-0.011,0.009-0.023,0.017-0.034,0.026c-4.584,3.513-8.965,7.878-12.024,11.336
	c-6.959,7.857-13.097,14.828-18.412,20.854c-15.148,17.162-23.561,26.587-24.912,26.506c22.138-54.124,21.554-92.353,13.698-94.758
	c-0.003-0.001-0.007-0.001-0.01-0.002c-0.206-0.062-0.417-0.102-0.633-0.114c-0.027-0.002-0.055,0.004-0.082,0.003
	c-0.194-0.006-0.39,0.001-0.591,0.035c-0.053,0.009-0.109,0.032-0.162,0.044c-0.177,0.04-0.355,0.082-0.538,0.153
	c-0.084,0.032-0.171,0.084-0.256,0.123c-0.156,0.072-0.311,0.139-0.471,0.233c-0.117,0.069-0.237,0.162-0.355,0.243
	c-0.132,0.09-0.262,0.17-0.396,0.276c-0.154,0.121-0.312,0.27-0.469,0.412c-0.102,0.092-0.202,0.171-0.305,0.271
	c-0.193,0.189-0.39,0.408-0.588,0.628c-0.069,0.078-0.137,0.142-0.207,0.224c-0.234,0.272-0.471,0.574-0.709,0.889
	c-0.035,0.047-0.07,0.085-0.105,0.133c-5.253,7.064-11.548,24.642-16.813,55.434c-2.512,14.661-6.644,32.246-9.637,47.621
	c-2.965,15.155-6.452,21.223-20.989,13.096c-1.396-0.781-2.828-1.55-4.291-2.306c-0.932,20.058,5.044,40.532,17.947,55.472
	c2.626,3.502,6.594,4.896,11.064,5.273c5.709-5.674,14.332-8.094,24.713-9.596c24.142-3.496,62.087-10.522,59.129-41.343
	C328.941,135.298,328.94,135.274,328.937,135.25z"/>
</svg>
