<?xml version="1.0" encoding="utf-8"?>
<!-- Generator: Adobe Illustrator 17.0.0, SVG Export Plug-In . SVG Version: 6.00 Build 0)  -->
<!DOCTYPE svg PUBLIC "-//W3C//DTD SVG 1.1 Basic//EN" "http://www.w3.org/Graphics/SVG/1.1/DTD/svg11-basic.dtd">
<svg version="1.1" baseProfile="basic" id="Слой_1"
	 xmlns="http://www.w3.org/2000/svg" xmlns:xlink="http://www.w3.org/1999/xlink" x="0px" y="0px" width="184.826px"
	 height="72.307px" viewBox="0 0 184.826 72.307" xml:space="preserve">
<path fill="#369371" d="M165.962,51.407c-19.51,1.413-42.511,13.42-43.418-4.884c5.439,1.015,11.703,1.279,17.569,1.04
	c13.81-0.549,43.091-2.759,39.219-12.698c-3.871-9.939-25.41-4.42-37.009-0.563c-7.406,2.469-14.126,0.22-18.026-1.879
	c1.282-3.925,3.227-7.02,5.723-9.501c-4.47-0.377-8.437-1.771-11.064-5.273C114.398,12.373,110.723,6.396,107.893,0
	C71.934,0.46,35.787,1.127,0,5.482c6.604,7.836,14.303,14.979,20.956,23.169c6.653,9.148,16.754,15.539,23.996,24.33
	c12.137,1.32,24.108,3.199,35.116,5.523c17.324,3.651,27.812,9.994,43.653,12.959c10.474,1.949,32.562,0.178,44.257-1.839
	C193.76,65.19,187.431,49.856,165.962,51.407z"/>
</svg>
