<?xml version="1.0" encoding="utf-8"?>
<!-- Generator: Adobe Illustrator 17.0.0, SVG Export Plug-In . SVG Version: 6.00 Build 0)  -->
<!DOCTYPE svg PUBLIC "-//W3C//DTD SVG 1.1 Basic//EN" "http://www.w3.org/Graphics/SVG/1.1/DTD/svg11-basic.dtd">
<svg version="1.1" baseProfile="basic" id="Слой_1"
	 xmlns="http://www.w3.org/2000/svg" xmlns:xlink="http://www.w3.org/1999/xlink" x="0px" y="0px" width="120.544px"
	 height="178.256px" viewBox="0 0 120.544 178.256" xml:space="preserve">
<path fill="#EEBF31" d="M112.941,127.245c-0.049-0.502-0.109-1.011-0.18-1.526c-0.008-0.059-0.014-0.116-0.022-0.176
	c-0.08-0.561-0.17-1.128-0.277-1.704c-0.047-0.047-0.11-0.1-0.185-0.157c-0.04-0.03-0.091-0.065-0.138-0.098
	c-0.039-0.027-0.074-0.053-0.118-0.082c-0.071-0.047-0.153-0.098-0.236-0.15c-0.027-0.017-0.052-0.032-0.08-0.049
	c-1.731-1.052-5.911-2.999-11.253-5.331c-16.701-7.318-44.739-18.526-44.739-18.526c5.697-5.711,66.208-44.614,64.807-58.822
	c-0.58-5.843-2.445-8.914-5.051-10.08c-0.004-0.002-0.009-0.004-0.013-0.006c-0.286-0.127-0.58-0.232-0.883-0.315
	c-0.003-0.001-0.007-0.002-0.01-0.003c-0.912-0.247-1.898-0.298-2.939-0.181c-0.011,0.001-0.021,0.002-0.032,0.003
	c-0.328,0.038-0.662,0.094-1,0.163c-0.035,0.007-0.069,0.014-0.104,0.021c-0.325,0.07-0.655,0.154-0.988,0.252
	c-0.048,0.014-0.097,0.029-0.146,0.044c-0.327,0.099-0.657,0.209-0.99,0.332c-0.055,0.02-0.111,0.042-0.166,0.063
	c-0.333,0.126-0.667,0.262-1.005,0.41c-0.053,0.023-0.106,0.049-0.159,0.073c-0.307,0.138-0.615,0.284-0.925,0.438
	c-0.074,0.037-0.148,0.073-0.222,0.111c-0.299,0.152-0.599,0.313-0.9,0.48c-0.105,0.058-0.211,0.115-0.316,0.175
	c-0.286,0.162-0.574,0.332-0.861,0.506c-0.138,0.083-0.276,0.167-0.414,0.253c-0.263,0.164-0.527,0.332-0.791,0.504
	c-0.168,0.11-0.337,0.222-0.505,0.335c-0.165,0.111-0.331,0.225-0.496,0.339c-0.278,0.191-0.555,0.386-0.832,0.586
	c-0.08,0.058-0.16,0.116-0.24,0.174c-0.382,0.278-0.763,0.562-1.143,0.853c-0.011,0.009-0.023,0.017-0.034,0.026
	c-4.584,3.513-8.965,7.878-12.024,11.336c-6.959,7.857-13.097,14.828-18.412,20.854C53.767,85.53,45.354,94.956,44.003,94.875
	C66.141,40.751,65.557,2.522,57.701,0.117c-0.003-0.001-0.007-0.001-0.01-0.002C57.484,0.052,57.274,0.013,57.057,0
	c-0.027-0.002-0.055,0.004-0.082,0.003c-0.194-0.006-0.39,0.001-0.591,0.035c-0.053,0.009-0.109,0.032-0.162,0.044
	c-0.177,0.04-0.355,0.082-0.538,0.153C55.6,0.268,55.513,0.32,55.428,0.359c-0.156,0.072-0.311,0.139-0.471,0.233
	c-0.117,0.069-0.237,0.162-0.355,0.243c-0.132,0.09-0.262,0.17-0.396,0.276c-0.154,0.121-0.312,0.27-0.469,0.412
	c-0.102,0.092-0.202,0.171-0.305,0.271c-0.193,0.189-0.39,0.408-0.588,0.628c-0.069,0.078-0.137,0.142-0.207,0.224
	c-0.234,0.272-0.471,0.574-0.709,0.889c-0.035,0.047-0.07,0.085-0.105,0.133c-5.253,7.064-11.548,24.642-16.813,55.434
	c-2.512,14.661-6.644,32.246-9.637,47.621c-2.965,15.155-6.452,21.223-20.989,13.096c-1.396-0.781-2.828-1.55-4.291-2.306
	c-0.932,20.058,5.044,40.532,17.947,55.472c2.626,3.502,6.594,4.896,11.064,5.273c5.709-5.674,14.332-8.094,24.713-9.596
	c24.142-3.496,62.087-10.522,59.129-41.343C112.945,127.293,112.943,127.269,112.941,127.245z"/>
</svg>
