<?xml version="1.0" encoding="utf-8"?>
<!-- Generator: Adobe Illustrator 17.0.0, SVG Export Plug-In . SVG Version: 6.00 Build 0)  -->
<!DOCTYPE svg PUBLIC "-//W3C//DTD SVG 1.1 Basic//EN" "http://www.w3.org/Graphics/SVG/1.1/DTD/svg11-basic.dtd">
<svg version="1.1" baseProfile="basic" id="Слой_1"
	 xmlns="http://www.w3.org/2000/svg" xmlns:xlink="http://www.w3.org/1999/xlink" x="0px" y="0px" width="370px" height="330px"
	 viewBox="0 0 370 330" xml:space="preserve">
<path fill="#A8A8A8" stroke="#272525" stroke-width="3" stroke-miterlimit="10" d="M280.314,210.393
	c6.338,6.338,12.93,12.608,19.813,18.524c5.049-9.657,7.892-19.271,8.467-28.712c11.081-0.716,26.25-9.243,37.148-16.325
	c1.286-0.836,2.491-1.69,3.656-2.554v0.001l0.009-0.008c3.375-2.505,6.256-5.125,8.605-7.86l0.012-0.011h-0.002
	c4.583-5.34,7.188-11.109,7.819-17.251l0,0v-0.001c0.1-0.973,0.169-1.952,0.169-2.944c0.007-6.762-2.255-13.073-5.894-19.59l0,0
	c-3.324-5.952-7.794-12.076-12.777-18.877l-0.141-0.194c-3.026-4.16-6.176-8.462-9.486-13.263
	c-15.246-22.137-29.374-32.889-43.221-32.889c-0.63,0-1.26,0.013-1.895,0.071c-3.351-5.093-13.846-23.714-22.77-39.984
	c-9.852-15.058-19.069-23.064-28.274-24.453L240.671,4c-3.279,0-6.117,2.336-8.428,7.004c-0.954,2.462-0.319,6.408,8.898,27.453
	c-6.794-11.371-14.488-22.519-24.097-26.102c-2.378-0.897-4.372-1.309-6.159-1.309c-3.693,0-5.601,1.834-6.549,3.385
	c-2.723,4.406-0.997,12.615,5.236,25.03c6.403,14.984,11.87,27.926,15.374,36.443c5.535,13.646,5.731,18.119,6.05,24.923
	l0.024,0.719c0.097,1.529,0.159,3.159,0.318,5.109c0.117,0.839-0.831,1.853-2.666,2.867c-1.615,0.881-3.156,1.37-4.33,1.37
	c-0.368,0-0.698-0.042-0.905-0.133c-9.969-4.428-17.583-7.937-22.678-10.458l-0.696-0.272c-1.034-0.239-2.047-0.447-3.072-0.672
	C221.418,140.435,244.772,178.183,280.314,210.393z"/>
<path fill="#A8A8A8" stroke="#272525" stroke-width="3" stroke-miterlimit="10" d="M262.126,270.638
	c12.183-6.654,23.215-17.18,32.768-31.299c2.238-3.304,4.218-6.609,5.943-9.908c-6.883-5.915-13.475-12.186-19.813-18.524
	c-35.541-32.209-58.896-69.958-83.324-111.035C180.095,95.993,163.749,94,149.134,94c-71.171,0-91.304,46.305-102.132,71.192
	l-0.802,1.882l-0.196,0.612c-0.004,0.021-0.008,0.042-0.013,0.062c53.514,34.039,104.441,73.677,142.088,124.026
	c28.419,3.632,48.455,7.129,52.237,9.248c5.48,12.745,16.819,20.329,33.851,22.603c8.018,0,13.571-3.107,16.42-9.22
	c2.813-5.556,0.453-11.78-7.038-18.606l-11.217-8.306c-3.786-2.68-6.201-5.368-7.699-8.682c-3.462-5.054-3.217-7.085-3.144-7.438
	C261.538,271.188,261.605,270.932,262.126,270.638z"/>
<path fill="#A8A8A8" stroke="#272525" stroke-width="3" stroke-miterlimit="10" d="M46.342,167
	c-4.756,22.608-7.776,44.846-8.992,66.124c-2.166-2.08-4.584-4.6-6.737-6.846c-7.987-8.352-12.334-12.703-16.24-12.703
	c-6.889,0-10.382,5.951-10.382,17.689c0,11.731,13.5,34.636,30.903,46.564c3.672,2.64,8.119,2.605,12.685-0.088
	c1.595-0.978,2.559-1.332,3.042-1.468c8.266,7.694,15.225,13.639,20.693,17.64c2.104,2.838,4.34,5.637,6.604,8.352
	c3.489,4.428,6.458,7.169,9.082,8.394c8.067,3.509,20.021,6.126,36.555,8.035c8.222,1.04,20.431,3.01,30.238,4.574l1.508,0.22
	c4.94,0.797,7.892,1.273,9.649,1.542l0.031,0.564l0.799-0.039c1.401-0.071,2.869-0.181,3.964-0.794
	c4.846-1.247,8.402-4.072,10.607-8.478c4.077-8.219,1.68-13.429-1.063-16.377c-1.37-1.419-4.759-4.098-10.339-8.148
	c-2.174-1.591-5.004-2.861-7.547-3.939c9.604,1.059,18.675,2.138,27.028,3.206C150.783,240.677,99.856,201.04,46.342,167z"/>
</svg>
