<?xml version="1.0" encoding="utf-8"?>
<!-- Generator: Adobe Illustrator 17.0.0, SVG Export Plug-In . SVG Version: 6.00 Build 0)  -->
<!DOCTYPE svg PUBLIC "-//W3C//DTD SVG 1.1 Basic//EN" "http://www.w3.org/Graphics/SVG/1.1/DTD/svg11-basic.dtd">
<svg version="1.1" baseProfile="basic" id="Слой_1"
	 xmlns="http://www.w3.org/2000/svg" xmlns:xlink="http://www.w3.org/1999/xlink" x="0px" y="0px" width="278.458px"
	 height="238.958px" viewBox="0 0 278.458 238.958" xml:space="preserve">
<g>
	<g>
		<g>
<path fill="#86BB50" stroke="#FFFFFF" stroke-width="6" stroke-miterlimit="10" d="M265.703,71.185
	c-2.324-6.63-6.072-3.79-9.409-4.865c-5.804-1.866-10.918-1.566-16.666-3.835c-10.595-4.176-14.49,5.012-24.218,4.702
	c-4.417-0.141-4.21-3.602-9.79-0.146c-0.796,0.494-1.462,1.123-2.06,1.817c0.401-1.895,1.3-3.379,4.294-4.087
	c4.01-0.943,5.459,0.592,5.333-4.287c-0.112-4.4-1.176-8.616,3.672-10.488c2.092-0.81,4.229-0.689,6.277-1.599
	c2.931-1.304,3.157-0.088,6.504-0.237c10.562-0.494,7.848-16.398,13.609-23.098c1.676-1.947,2.118-11.578,1.124-12.957
	c-4.206-5.847-12.054,1.829-16.69,3.614c-2.364,0.906-6.74,2.262-9.003,3.415c-3.632,1.852-4.75,5.913-5.576,9.659
	c-1.287,5.828-2.201,17.493-11.223,15.268c-3.101-0.759-3.302-0.721-6.601,0.862c-0.404,0.195-0.743,0.442-1.06,0.709
	c-0.036-0.091-0.063-0.183-0.1-0.274c-2.418-5.835-5.798-4.343-3.157-16.769c2.64-12.43,0.503-14.475-4.931-18.977
	c-8.377-6.948-18.799,11.093-24.742,6.396c-2.217-1.764-6.903-2.223-7.348,11.166c-0.446,13.388-3.636,4.35-9.666,7.01
	c-6.034,2.661-4.355,16.625-3.238,24.167c1.709,11.487,4.693,17.237,5.685,27.479c-4.208,6.175-8.852,12.282-13.916,17.984
	c-22.761-20.046-56.802-20.294-78.355,0.277c-15.548,14.836-20.545,36.664-15.023,56.566c-0.007,0-0.014-0.003-0.021-0.003
	c0.128,0.465,0.303,0.921,0.444,1.381c0.312,1.027,0.614,2.05,0.983,3.058c0.213,0.591,0.47,1.167,0.702,1.75
	c0.38,0.951,0.744,1.904,1.172,2.844c0.359,0.78,0.779,1.54,1.173,2.312c0.369,0.721,0.709,1.453,1.108,2.161
	c0.834,1.483,1.731,2.937,2.698,4.36c-1.289,3.465-4.433,10.032-11.131,15.416c-9.574,7.696-19.088,11.023-18.129,20.895
	c0.959,9.866-11.324,15.632-10.428,17.14s9.855-1.493,15.817-11.495c5.963-10.007,8.587-15.385,22.807-16.733
	c8.438-0.799,13.093-6.086,15.479-10.255c1.358,0.999,2.747,1.93,4.164,2.803c0.652,0.402,1.327,0.751,1.987,1.124
	c0.77,0.435,1.533,0.891,2.319,1.289c0.813,0.413,1.644,0.775,2.472,1.148c0.654,0.296,1.304,0.61,1.968,0.883
	c0.881,0.363,1.776,0.678,2.669,0.994c0.477,0.17,0.942,0.373,1.422,0.532c0-0.009-0.002-0.024,0-0.035
	c19.624,6.45,41.664,2.497,57.215-12.341c19.991-19.075,22.607-49.72,7.76-72.953c10.713-5.248,24.783-11.889,39.796-18.298
	l0.015,0.371c5.967-3.535,10.663,10.057,15.667,13.087c9.111,5.514,9.477,0.429,16.187-3.765c5.43-3.391,8.861,0.064,13.939-0.219
	c3.838-0.216,4.317-2.396,7.529-4.41c4.115-2.587,11.61-1.276,14.641-4.729c1.69-1.929,2.188-6.719,4.03-9.256
	C258.45,86.168,268.029,77.819,265.703,71.185z M178.49,72.398c0.306-0.689,0.736-1.275,1.241-1.802
	c0.344,1.056,0.722,2.04,1.088,2.911c-0.952,0.813-1.909,1.626-2.876,2.442C177.844,74.894,177.894,73.737,178.49,72.398z
	 M149.334,87.356c2.318-2.101,6.127-4.755,10.38-4.456c3.263,0.229,6.047,0.798,8.454,1.124
	c-10.112,8.171-20.797,16.221-31.558,23.425c-0.466-0.486-0.945-0.953-1.423-1.42C139.691,100.579,144.561,94.278,149.334,87.356z
	 M141.864,113.724c-0.778-1.061-1.594-2.104-2.45-3.126c9.243-7.401,20.544-16.595,32.104-26.35
	c1.276-0.046,2.424-0.297,3.459-0.911c2.96-1.761,3.409-3.245,3.302-4.835c1.154-0.988,2.306-1.979,3.456-2.972
	c0.492,1.01,0.842,1.618,0.842,1.618c0.974,0.341,2.63,0.675,4.589,0.896c-2.308,3.459-2.794,10.554-3.57,13.685l0.135,3.361
	C170.643,100,156.405,106.131,141.864,113.724z"/>
</g>
	</g>
<g id="__x0023_Layer_x0020_2">
	<path fill="#5C9D50" d="M181.06,56.79c6.603-6.27,7.404-4.719,9.156-6.163c2.005-1.648,2.55-4.492,5.064-5.704
		c3.299-1.583,3.5-1.621,6.601-0.862c9.022,2.225,9.936-9.44,11.223-15.268c0.826-3.746,1.944-7.807,5.576-9.659
		c2.263-1.153,6.639-2.509,9.003-3.415c4.636-1.785,12.484-9.461,16.69-3.614c0.994,1.379,0.552,11.01-1.124,12.957
		c-5.761,6.7-3.047,22.604-13.609,23.098c-3.347,0.149-3.573-1.067-6.504,0.237c-2.048,0.91-4.185,0.789-6.277,1.599
		c-4.848,1.872-3.784,6.088-3.672,10.488c0.126,4.879-1.323,3.344-5.333,4.287c-5.452,1.289-3.97,5.142-5.149,9.392
		c-1.558,5.593-16.249,4.343-20.127,2.985C182.578,77.148,174.456,63.072,181.06,56.79L181.06,56.79L181.06,56.79z"/>
	<path fill="#86BB50" d="M198.787,59.528c0,0,7.508,4.532,13.356,0.125c0,0-8.32,4.227-12.253-1.545L198.787,59.528z"/>
	<path fill="#86BB50" d="M195.951,61.825c0,0-4.523-9.468,1.251-16.029c0,0-5.822,9.546,0.532,14.851L195.951,61.825L195.951,61.825
		z"/>
	<path fill="#86BB50" d="M232.003,25.319c0,0-62.719,66.412-118.029,95.812l3.727,6.573
		C117.701,127.704,213.61,53.945,232.003,25.319z"/>
	<path fill="#3F7341" d="M183.597,91.729c0.956-3.856,1.471-13.722,5.491-15.408c3.378-1.42,5.885,1.002,9.102-0.988
		c3.016-1.866,4.116-6.237,7.43-8.292c5.58-3.456,5.373,0.005,9.79,0.146c9.728,0.31,13.623-8.878,24.218-4.702
		c5.748,2.269,10.862,1.969,16.666,3.835c3.337,1.075,7.085-1.765,9.409,4.865c2.326,6.634-7.253,14.983-9.82,18.528
		c-1.842,2.537-2.34,7.327-4.03,9.256c-3.031,3.453-10.526,2.142-14.641,4.729c-3.212,2.014-3.691,4.194-7.529,4.41
		c-5.078,0.283-8.509-3.172-13.939,0.219c-6.71,4.194-7.076,9.279-16.187,3.765c-5.004-3.03-9.7-16.622-15.667-13.087
		L183.597,91.729L183.597,91.729z"/>
	<path fill="#3F7341" d="M159.714,82.9c6.937,0.486,11.736,2.529,15.264,0.437c6.202-3.689,1.386-6.164,3.512-10.939
		c2.145-4.821,9.87-4.992,12.836-10.007c3.111-5.257,5.21-11.204,2.794-17.033c-2.418-5.835-5.798-4.343-3.157-16.769
		c2.64-12.43,0.503-14.475-4.931-18.977c-8.377-6.948-18.799,11.093-24.742,6.396c-2.217-1.764-6.903-2.223-7.348,11.166
		c-0.446,13.388-3.636,4.35-9.666,7.01c-6.034,2.661-4.355,16.625-3.238,24.167c1.918,12.89,5.448,18.54,5.959,31.44
		C146.998,89.792,152.776,82.412,159.714,82.9L159.714,82.9z"/>
	<path fill="#86BB50" d="M160.857,66.875c0,0-12.661-15.221-12.822-28.62c0,0,2.733,18.676,13.512,25.979L160.857,66.875z"/>
	<path fill="#86BB50" d="M169.71,47.447c0,0-9.908-13.332-8.063-24.897c0,0-0.162,16.156,9.123,22.625L169.71,47.447L169.71,47.447z
		"/>
	<path fill="#86BB50" d="M165.879,55.677c0,0,16.353-0.17,24.133-8.757c0,0-12.35,10.04-23.032,6.507L165.879,55.677z"/>
	<path fill="#86BB50" d="M153.344,78.273c0,0,14.714,0.127,21.553-8.292c0,0-10.925,9.784-20.606,6.067L153.344,78.273z"/>
	<path fill="#86BB50" d="M247.898,77.163c0,0-63.546,9.678-125.638,47.639l1.868,2.223
		C124.129,127.026,202.637,85.343,247.898,77.163L247.898,77.163z"/>
	<path fill="#86BB50" d="M175.592,29.432c0,0-23.09,65.995-64.338,93.62l4.391,4.284C115.646,127.337,166.665,79.344,175.592,29.432
		z"/>
	
		<linearGradient id="SVGID_1_" gradientUnits="userSpaceOnUse" x1="-59.7384" y1="12232.6406" x2="-13.6039" y2="12280.9873" gradientTransform="matrix(0 0 0 0 -568.2316 -356.362)">
		<stop  offset="0" style="stop-color:#CF4A5C"/>
		<stop  offset="0.451" style="stop-color:#B7252B"/>
		<stop  offset="1" style="stop-color:#CF4A5C"/>
	</linearGradient>
	<path fill="url(#SVGID_1_)" d="M55.5,130.491c0,0-21.667,26.605,2.593,50.364c24.258,23.76,38.614,12.765,55.329,8.675
		C113.422,189.53,39.738,204.837,55.5,130.491L55.5,130.491z"/>
	<path fill="#D1572B" d="M136.713,107.551c-22.607-23.694-59.438-25.242-82.261-3.46c-15.548,14.836-20.545,36.664-15.023,56.566
		c-0.007,0-0.014-0.003-0.021-0.003c0.128,0.465,0.303,0.921,0.444,1.381c0.312,1.027,0.614,2.05,0.983,3.058
		c0.213,0.591,0.47,1.167,0.702,1.75c0.38,0.951,0.744,1.904,1.172,2.844c0.359,0.78,0.779,1.54,1.173,2.312
		c0.369,0.721,0.709,1.453,1.108,2.161c0.834,1.483,1.731,2.937,2.698,4.36c-1.289,3.465-4.433,10.032-11.131,15.416
		c-9.574,7.696-19.088,11.023-18.129,20.895C19.387,224.697,8,231.971,8,231.971s9.855-1.493,15.817-11.495
		c5.963-10.007,8.587-15.385,22.807-16.733c8.438-0.799,13.093-6.086,15.479-10.255c1.358,0.999,2.747,1.93,4.164,2.803
		c0.652,0.402,1.327,0.751,1.987,1.124c0.77,0.435,1.533,0.891,2.319,1.289c0.813,0.413,1.644,0.775,2.472,1.148
		c0.654,0.296,1.304,0.61,1.968,0.883c0.881,0.363,1.776,0.678,2.669,0.994c0.477,0.17,0.942,0.373,1.422,0.532
		c0-0.009-0.002-0.024,0-0.035c19.624,6.45,41.664,2.497,57.215-12.341C159.144,168.106,159.321,131.242,136.713,107.551
		L136.713,107.551z"/>
	<path fill="#D3612B" d="M80.518,98.527c0,0-48.14,4.957-37.65,56.954C42.869,155.482,46.382,118.164,80.518,98.527z"/>
	<path fill="#86BB50" d="M220.364,37.882c0,0-3.784-9.855,2.539-15.932c0,0-6.612,9.06-0.656,14.903L220.364,37.882L220.364,37.882z
		"/>
	<path fill="#86BB50" d="M218.248,41.229c0,0,8.987,5.423,15.982,0.151c0,0-9.957,5.059-14.664-1.851L218.248,41.229z"/>
	<path fill="#86BB50" d="M198.861,90.95c0,0,5.052-13.481,15.161-16.514c0,0-12.794,6.242-12.793,16.498L198.861,90.95
		L198.861,90.95z"/>
	<path fill="#86BB50" d="M219.573,84.111c0,0,5.052-13.476,15.161-16.509c0,0-12.794,6.242-12.794,16.495L219.573,84.111z"/>
	<path fill="#86BB50" d="M207.004,87.344c0,0,10.882,14.104,22.741,14.284c0,0-16.006-3.045-20.249-15.049L207.004,87.344z"/>
</g>
</g>
</svg>
