<?xml version="1.0" encoding="utf-8"?>
<!-- Generator: Adobe Illustrator 17.0.0, SVG Export Plug-In . SVG Version: 6.00 Build 0)  -->
<!DOCTYPE svg PUBLIC "-//W3C//DTD SVG 1.1 Basic//EN" "http://www.w3.org/Graphics/SVG/1.1/DTD/svg11-basic.dtd">
<svg version="1.1" baseProfile="basic" id="Слой_1"
	 xmlns="http://www.w3.org/2000/svg" xmlns:xlink="http://www.w3.org/1999/xlink" x="0px" y="0px" width="94.179px"
	 height="125.465px" viewBox="0 0 94.179 125.465" xml:space="preserve">
<path fill="#42BCAA" d="M87.193,97.665c-2.343-1.903-1.338-4.912-1.338-4.912l-6.668-0.078l3.559-3.853c0,0-4.888-2.588-6.265-2.131
	c-1.371,0.461-5.697,1.895-5.697,1.895l0.824-5.622c0,0-3.528-0.366-4.119,0.218c-0.595,0.578-7.268,1.647-7.268,1.647l1.397-3.135
	c0,0-2.157-0.435-7.07,1.202c-4.914,1.63-15.11,2.349-17.852,1.348c-2.74-1.001-3.307-4.258-3.307-4.258s19.833-5.072,28.251-2.511
	c8.418,2.561,16.647,3.264,18.415,2.673c1.771-0.584,3.731-0.86,3.731-0.86l-8.797-4.343c0,0,4.516-0.348,6.681-2.606
	c2.174-2.252,4.752-5.776,4.752-5.776s-8.211-4.161-10.949-5.164c-2.739-1.002-9.025,0.326-9.997-0.883
	c-0.971-1.209-1.568,0.141-0.971-1.209c0.597-1.342,11.567,0.366,15.302-0.876c3.731-1.244,7.306-7.788,7.306-7.788
	s-7.84-0.832-9.8-0.947c-1.958-0.112-1.958-0.112-1.958-0.112s3.142-0.662,5.711-3.425c2.566-2.771,3.801-11.977,3.801-11.977
	s-8.616-2.496-10.383-1.91c-1.767,0.59-4.313,0.68-4.313,0.68l-0.381-2.172l-2.95,1.746l-0.742-7.028L65.334,22.7
	c0,0-4.31-0.475-5.706,3.047c-1.397,3.523-5.198,15.113-5.592,15.628c-0.396,0.512-1.973,1.806-2.748,0.15
	c-0.778-1.663,0.812-3.71,2.02-8.703c1.21-4.995-0.694-13.539-0.694-13.539s-4.326,1.052-5.909,3.493
	c-1.583,2.434-4.539,4.951-4.539,4.951l-1.709-9.378c0,0-3.927,0.924-3.558,4.625c0.367,3.701,2.833,17.013,2.603,21.703
	c-0.226,4.666-8.222,27.978-10.571,27.612c-3.175-0.495-0.924-8.874,0.667-12.075c1.59-3.209,6.356-12.444,6.581-16.726
	c0.222-4.285-0.707-12.005-0.707-12.005l-4.323,1.437c0,0,2.01-7.554,1.643-11.257c-0.369-3.7-1.122-8.42-1.122-8.42l-3.153,1.805
	L25.485,0c0,0-5.338,5.595-5.738,7.646c-0.409,2.046-1.227,7.672-1.227,7.672l-5.035-10.19c0,0-1.588,3.213-0.444,8.568
	c1.138,5.361,2.272,11.866,2.272,11.866L5.226,9.032c0,0-0.423,4.351-0.239,6.196c0.182,1.85,0.146,7.597,1.117,9.191
	c0.97,1.593,4.815,12.544,4.815,12.544L2.773,23.614c0,0,1.315,8.743,3.249,12.688c1.941,3.948,5.593,14.974,8.668,24.277
	c1.398,4.228,2.348,8.438,3.135,12.05C12.806,68.395,7.28,65.081,1.47,62.732c-0.451,0.63-0.816,1.337-1.072,2.112
	c-1.238,3.744,0.502,7.747,3.92,9.47c-1.432,0.939-2.572,2.345-3.151,4.097c-1.362,4.12,0.874,8.563,4.993,9.925
	C6.738,88.527,7.32,88.64,7.9,88.695c-0.162,0.328-0.311,0.665-0.429,1.022c-1.362,4.12,0.874,8.563,4.993,9.925
	c1.156,0.382,2.336,0.472,3.469,0.325c-0.257,3.507,1.871,6.874,5.362,8.028c2.412,0.798,4.931,0.354,6.882-0.971
	c0.894,1.842,2.5,3.337,4.598,4.031c2.143,0.709,4.371,0.436,6.21-0.562c-0.778-5.469-2.342-10.872-4.66-16.045
	c2.942,2.374,5.932,4.892,8.141,7.001c6.234,5.961,11.676,12.947,16.741,18.141c5.066,5.211,8.78,5.875,8.78,5.875l-4.069-6.673
	c0,0,5.465,2.768,7.819,3.138c2.354,0.366,5.294,0.539,5.294,0.539l-6.03-7.562l2.36-0.783c0,0-4.681-4.184-7.412-5.95
	c-2.733-1.768-8.382-7.926-8.382-7.926s11.918,7.133,15.426,10.174c3.507,3.039,6.052,3.719,6.052,3.719l-1.344-4.141l8.009,4.607
	l-5.239-8.587c0,0,3.516,2.274,5.476,2.772c1.954,0.494,4.123-0.991,4.123-0.991l-3.888-4.826c0,0,6.656,1.231,7.839,0.842
	C95.195,103.419,89.531,99.558,87.193,97.665z"/>
</svg>
