<?xml version="1.0" encoding="utf-8"?>
<!-- Generator: Adobe Illustrator 17.0.0, SVG Export Plug-In . SVG Version: 6.00 Build 0)  -->
<!DOCTYPE svg PUBLIC "-//W3C//DTD SVG 1.1 Basic//EN" "http://www.w3.org/Graphics/SVG/1.1/DTD/svg11-basic.dtd">
<svg version="1.1" baseProfile="basic" id="Слой_1"
	 xmlns="http://www.w3.org/2000/svg" xmlns:xlink="http://www.w3.org/1999/xlink" x="0px" y="0px" width="61.755px"
	 height="75.221px" viewBox="0 0 61.755 75.221" xml:space="preserve">
<g>
	<path fill="#BAAE52" d="M61.742,8.544l-0.005-0.053l-0.015-0.129l-0.001-0.009l-0.022-0.162l-0.001-0.003l-0.023-0.146
		l-0.007-0.039l-0.023-0.121l-0.006-0.03l-0.031-0.146l-0.001-0.005L61.57,7.552l-0.004-0.016l-0.034-0.129l-0.009-0.03
		l-0.041-0.141l-0.001-0.007l-0.036-0.115l-0.011-0.031l-0.012-0.035L61.384,6.94L61.38,6.928l-0.053-0.146l-0.004-0.008
		l-0.044-0.112l-0.011-0.029l-0.034-0.082l-0.008-0.019l-0.031-0.07L61.185,6.44l-0.044-0.099l-0.004-0.01l-0.051-0.108
		l-0.012-0.026l-0.041-0.082l-0.005-0.011L60.99,6.03l-0.01-0.02l-0.049-0.093l-0.006-0.012l-0.057-0.104L60.82,5.717l-0.01-0.019
		l-0.033-0.055l0-0.001l0.001,0c-0.089-0.152-0.183-0.3-0.281-0.446l-0.001,0l-0.052-0.077l-0.005-0.008l-0.066-0.094L60.361,5
		l-0.005-0.008l-0.006-0.01l-0.011-0.015L60.32,4.941l-0.018-0.025l-0.009-0.012l-0.009-0.012l-0.003-0.005l-0.015-0.02
		l-0.019-0.025l-0.018-0.025l-0.005-0.005L60.222,4.81l-0.031-0.041l-0.019-0.025l-0.009-0.012L60.154,4.72l-0.003-0.004
		L60.116,4.67l-0.019-0.024l-0.018-0.023l-0.001-0.001l-0.019-0.024L60.021,4.55l-0.007-0.009l-0.011-0.014L59.931,4.44
		l-0.062-0.074l-0.006-0.006l-0.009-0.01l-0.087-0.102l-0.005-0.005L59.6,4.057l-0.001,0.001l-0.054-0.061l-0.08-0.086l-0.009-0.01
		l-0.071-0.074L59.221,3.66l-0.083-0.082l-0.166-0.16l-0.001-0.001l-0.064-0.06l-0.02-0.019l-0.086-0.078l-0.006-0.007l-0.078-0.07
		l-0.035-0.032L58.63,3.107l-0.003-0.002l-0.084-0.073l-0.087-0.075l-0.006-0.006l-0.082-0.068l-0.035-0.029L58.282,2.81
		l-0.063-0.052L58.194,2.74l-0.088-0.071l-0.004-0.004l-0.084-0.065l-0.033-0.026L57.93,2.53l-0.062-0.048l-0.026-0.02l0,0.001
		c-0.617-0.47-1.241-0.872-1.82-1.208l0.001,0L55.78,1.116l-0.009-0.005L55.75,1.1l-0.063-0.034l-0.02-0.011l-0.021-0.012
		l-0.021-0.011l-0.017-0.01L55.607,1.02l-0.021-0.012l-0.02-0.011l-0.02-0.01l-0.08-0.043l-0.021-0.011L55.442,0.93l-0.016-0.009
		l-0.02-0.01l-0.02-0.011l-0.039-0.02l-0.02-0.01l-0.019-0.01l-0.02-0.011l-0.01-0.005l-0.009-0.005l-0.02-0.01l-0.019-0.01
		l-0.038-0.02l-0.019-0.01l-0.019-0.01l-0.019-0.01l-0.361-0.182l-0.001,0.001C53.971,0.195,53.434,0,53.434,0
		c-6.502,1.742-16.223,19.973-16.223,19.973c-3.598,8.764-8.723,15.118-9.652,16.232l-0.01,0.013l-0.015,0.017l-0.014,0.017
		l-0.006,0.006l-0.037,0.044l-0.005,0.006l-0.01,0.011l-0.009,0.01l-0.006,0.006l-0.003,0.003l-0.008,0.009l-0.006,0.008
		l-0.004,0.005l-0.001,0.001l-0.005,0.006l-0.004,0.004l-0.003,0.004l-0.003,0.003l0,0.001l-0.001,0.001l-0.046,0.06l-0.046,0.06
		l-0.046,0.06l-0.046,0.059l-0.046,0.06l-0.046,0.06l-0.045,0.059l-0.043,0.055l-0.003,0.005l-0.046,0.059l-0.046,0.059l-0.046,0.06
		l-0.046,0.059l-0.045,0.059l-0.046,0.06l-0.046,0.059l-0.04,0.052l-0.005,0.007l-0.046,0.059l-0.045,0.059l-0.046,0.059
		l-0.046,0.059l-0.045,0.059l-0.046,0.059l-0.045,0.058l-0.04,0.051L26.311,37.8l-0.09,0.118l-0.046,0.059
		c-0.56,0.727-1.118,1.443-1.67,2.151l0.01-0.008c-0.513,0.657-1.022,1.305-1.529,1.948l-4.017-4.68
		C13.651,32.677,7.725,29.03,1.47,26.502c-0.451,0.63-0.816,1.337-1.072,2.112c-1.238,3.744,0.502,7.747,3.92,9.47
		c-1.432,0.939-2.572,2.345-3.151,4.097c-1.362,4.12,0.874,8.563,4.993,9.925c0.577,0.191,1.159,0.304,1.739,0.358
		c-0.162,0.328-0.311,0.665-0.429,1.022c-1.362,4.12,0.874,8.563,4.993,9.925c1.156,0.382,2.336,0.472,3.469,0.325
		c-0.257,3.507,1.871,6.874,5.362,8.028c2.412,0.798,4.931,0.354,6.882-0.971c0.894,1.842,2.5,3.337,4.598,4.031
		c2.143,0.709,4.371,0.436,6.21-0.562c-1.071-7.527-3.616-14.934-7.604-21.776c0.045-0.033,0.085-0.065,0.131-0.097
		c-0.076-0.026-0.154-0.042-0.23-0.067c-0.3-0.512-0.603-1.023-0.92-1.528c0.349-0.312,0.567-0.489,0.567-0.489
		c3.922-3.878,7.34-9.118,9.717-13.252l0.117-0.203c0.231-0.405,0.452-0.798,0.662-1.178l0.104-0.189
		c0.345-0.625,0.659-1.213,0.941-1.75l0.083-0.159l0.043-0.082l0.038-0.075l0.08-0.153l0.077-0.15l0.076-0.147l0.012-0.024
		l0.061-0.119l0.337-0.667l0.061-0.122l0.028-0.056l0.032-0.063l0.057-0.116l0.016-0.033l0.038-0.078l0.104-0.21l0.045-0.093
		l0.003-0.006l0.046-0.094l0.034-0.07l0.011-0.021l0.042-0.086l0.024-0.049l0.016-0.033l0.037-0.077l0.016-0.031l0.019-0.042
		l0.033-0.068l0.008-0.015l0.023-0.048l0.028-0.059l0.001-0.004l0.024-0.051l0.021-0.044l0.002-0.006l0.021-0.044l0.014-0.028
		l0.005-0.011l0.016-0.035l0.008-0.016l0.006-0.013l0.011-0.023l0.003-0.007l0.006-0.012l0.006-0.013l0.001-0.001l0.003-0.007
		l0.001-0.003c0.067-0.365,0.14-0.724,0.219-1.077l0.003-0.013c0.034-0.147,0.067-0.294,0.102-0.439l0.009-0.037l0.018-0.072
		l0.009-0.036l0.009-0.037l0.056-0.216l0.009-0.036l0.009-0.036l0.009-0.036l0.067-0.25l0.01-0.035l0.009-0.036
		c2.772-10.018,10.248-14.371,10.248-14.371c2.499-1.388,6.821-4.953,6.821-4.953L61.742,8.544z"/>
	<path fill="#BAAE52" d="M22.638,40.875l-1.417-1.427c-0.115-0.112-0.235-0.214-0.35-0.325c0.63,0.607,1.259,1.217,1.869,1.856
		C22.706,40.944,22.671,40.91,22.638,40.875z"/>
	<path fill="#BAAE52" d="M18.839,37.237l0.13,0.151c0.162,0.144,0.329,0.279,0.49,0.424C19.25,37.624,19.049,37.422,18.839,37.237z"
		/>
</g>
</svg>
