<?xml version="1.0" encoding="utf-8"?>
<!-- Generator: Adobe Illustrator 17.0.0, SVG Export Plug-In . SVG Version: 6.00 Build 0)  -->
<!DOCTYPE svg PUBLIC "-//W3C//DTD SVG 1.1 Basic//EN" "http://www.w3.org/Graphics/SVG/1.1/DTD/svg11-basic.dtd">
<svg version="1.1" baseProfile="basic" id="Слой_1"
	 xmlns="http://www.w3.org/2000/svg" xmlns:xlink="http://www.w3.org/1999/xlink" x="0px" y="0px" width="44.66px"
	 height="50.164px" viewBox="0 0 44.66 50.164" xml:space="preserve">
<path fill="#B76153" d="M44.392,28.893c-0.361-1.893-1.034-3.578-2.059-5.149c-0.481-0.736-1.064-1.496-1.782-2.326c0,0,0,0,0,0
	c-0.181-0.209-0.368-0.412-0.553-0.617c0.181,0.146,0.373,0.301,0.461,0.374c0.186,0.159,0.594,0.347,0.745,0.474
	c0.151,0.127,0.286,0.19,0.542,0.38c0.255,0.19,0.148-0.13,0.118-0.259c-0.03-0.128-0.235-0.35-0.406-0.573
	c-0.115-0.146-0.265-0.28-0.42-0.416c-0.092-0.177-0.366-0.678-0.579-0.794c-0.26-0.141-0.317-0.574-0.534-0.91
	c-0.214-0.335-0.98-0.519-1.116-0.518c-0.036,0.001-0.175-0.048-0.361-0.121c-0.083-0.051-0.158-0.094-0.211-0.129
	c0,0-0.018,0.01-0.045,0.025c-0.001,0-0.002-0.001-0.002-0.001c-0.026-0.105-0.037-0.132-0.086-0.272
	c-0.069-0.193-0.138-0.191-0.245-0.359c-0.016-0.026-0.038-0.056-0.059-0.084c0.184,0.026,0.387,0.121,0.735,0.173
	c0.406,0.06,0.482,0.38,0.844,0.503c0.361,0.124,0.383,0.093,0.473,0.092c0.09-0.001,0.397,0.028,0.45-0.133
	c0.052-0.162-0.122-0.255-0.212-0.384c-0.091-0.128-0.212-0.126-0.212-0.126l-0.285-0.062l-0.76-0.408l-0.168-0.16
	c0.007,0,0.017,0,0.024,0c0.316-0.003,0.371-0.149,0.427-0.294c0.056-0.146-0.362-0.382-0.71-0.329
	c-0.147,0.022-0.248,0.025-0.348,0.023c-0.008-0.084-0.029-0.251-0.071-0.356c-0.008-0.021-0.025-0.032-0.039-0.047
	c0.433-0.005,0.611-0.008,1.087-0.013c0.539-0.006,0.178-0.389,0.178-0.389l-0.473-0.284c0,0-0.327,0.15-0.665,0.25
	c-0.338,0.1-0.597-0.235-0.597-0.235l-0.394,0.054c0,0-0.263-0.059-0.599-0.14c0.128-0.04,0.28-0.041,0.538-0.119
	c0.337-0.099,0.255-0.066,0.45-0.132c0.194-0.067,0.404-0.07,0.734-0.073c0.331-0.004,0.263-0.035,0.406-0.069
	c0.143-0.035,0.405-0.069,0.486-0.231c0.083-0.163-0.061-0.257-0.234-0.351c-0.172-0.095-0.496-0.187-0.742-0.088
	c-0.247,0.1-0.217,0.099-0.472,0.166c-0.257,0.067-0.111,0.162-0.411,0.166c-0.3,0.003-0.308-0.03-0.428-0.027
	c-0.12,0.002-0.187-0.03-0.443-0.091c-0.256-0.062-0.158-0.031-0.406-0.06c-0.22-0.026-0.504,0.023-0.566,0.035
	c0.043-0.064,0.081-0.129,0.091-0.198c0.009-0.055,0.004-0.092-0.007-0.124c0.223,0.014,0.499,0.03,0.661,0.027
	c0.3-0.003,0.374-0.067,0.465-0.069c0.089-0.001,0.42-0.134,0.704-0.33c0.285-0.197,0.216-0.228,0.224-0.324
	c0.008-0.097-0.054-0.354-0.116-0.48c-0.06-0.128-0.293-0.222-0.421-0.254c-0.129-0.031-0.18,0.26-0.18,0.26L36.9,13.47
	c0,0-0.24,0.132-0.487,0.101c-0.248-0.028-0.542-0.121-0.631-0.12c-0.068,0.001-0.27-0.141-0.441-0.252
	c-0.07-0.154-0.213-0.445-0.321-0.479c-0.091-0.028-0.175,0.182-0.223,0.404c-0.177,0.05-0.351,0.13-0.404,0.182
	c-0.081,0.081-0.4,0.14-0.559,0.178c-0.071-0.136-0.143-0.285-0.215-0.442c0.054-0.005,0.101-0.01,0.164-0.017
	c0.34-0.038,0.397-0.145,0.49-0.29c0.006-0.002,0.02-0.004,0.025-0.006c0.063-0.026,0.44-0.054,0.535-0.224
	c0.095-0.169,0.206-0.266,0.217-0.412c0.01-0.143-0.037-0.434-0.08-0.53c-0.047-0.095-0.142-0.216-0.374-0.428
	c-0.106-0.098-0.167-0.192-0.22-0.283c0.058-0.039,0.116-0.075,0.174-0.103c0.202-0.099-0.083-0.53-0.083-0.53
	S34.263,9.739,34.16,9.5c-0.102-0.241-0.103-0.434-0.071-0.675c0.034-0.242-0.259-0.142-0.259-0.142l-0.043,0.58
	c0,0,0.206,0.478,0.264,0.913c0.009,0.07,0.003,0.136-0.009,0.198c-0.06-0.107-0.085-0.195-0.216-0.293
	c-0.194-0.142-0.402-0.452-0.526-0.402c-0.027,0.011-0.052,0.029-0.075,0.05c-0.034-0.215-0.058-0.407-0.035-0.508
	c0.044-0.194-0.193-0.335-0.328-0.333c-0.135,0.002-0.226,0.098-0.121,0.532c0.001,0.005,0,0.01,0.002,0.015
	c-0.111-0.073-0.179,0.008-0.32,0.036c-0.173,0.034-0.013,0.58-0.013,0.58s0.061,0.252,0.096,0.398
	c-0.105-0.12-0.218-0.219-0.346-0.251c-0.033-0.008-0.077-0.032-0.125-0.062c0-0.005,0-0.011,0.001-0.016
	c0.008-0.266,0.248-0.776,0.449-1.213c0.247-0.166,0.488-0.352,0.623-0.406c0.247-0.101,0.709-0.058,0.64-0.346
	c-0.069-0.288-1.005-0.616-1.005-0.616s-0.115-0.081-0.26,0.071c-0.048-0.027-0.096-0.055-0.159-0.066
	c-0.25-0.043-0.46,0.595-0.614,1.005c-0.038-0.128-0.079-0.253-0.103-0.355c-0.069-0.288-0.107-0.577-0.107-0.577
	s-0.065-0.642-0.043-0.805c0.02-0.16,0.096-0.483,0.064-0.738C31.49,5.816,31.231,5.24,31.231,5.24s-0.197-0.318-0.528-0.315
	c-0.33,0.005,0.048,0.45,0.048,0.45s0.107,0.449,0.122,0.641c0.017,0.192,0.177,0.738,0.132,0.932
	c-0.043,0.192,0.062,0.513,0.011,0.674c0,0-0.048,0.804-0.026,0.901c0.003,0.014,0.001,0.041-0.003,0.074
	c-0.062-0.122-0.121-0.217-0.121-0.217l0.021-0.387c0,0-0.008-0.216-0.098-0.409c-0.092-0.192-0.188-0.407-0.267-0.455
	c-0.079-0.048-0.219-0.07-0.219-0.07s-0.026,0.004-0.058,0.01c-0.003-0.004-0.006-0.014-0.009-0.017
	c-0.038-0.04-0.151-0.071-0.251-0.091c-0.009-0.183-0.023-0.376-0.069-0.573c-0.058-0.24-0.082-0.529-0.269-0.647
	c-0.185-0.119-0.309-0.263-0.365-0.117c-0.055,0.145-0.1,0.242-0.036,0.507c0.062,0.265,0.131,0.553,0.148,0.623
	c0.015,0.062,0.081,0.337,0.122,0.511c-0.023,0.095-0.05,0.195-0.076,0.292c-0.149-0.069-0.294-0.144-0.415-0.237
	c-0.014-0.034-0.023-0.066-0.04-0.101c-0.091-0.192-0.118-0.216-0.171-0.433c-0.05-0.215-0.058-0.335-0.086-0.553
	c-0.03-0.216,0.004-0.266-0.042-0.458c-0.045-0.192-0.16-0.287-0.305-0.431c-0.084-0.08-0.171-0.098-0.233-0.1
	c0.024-0.192,0.045-0.369,0.044-0.5c-0.002-0.387,0.296-1.79,0.193-2.028c-0.103-0.241-0.486-0.14-0.486-0.14l-0.04,0.964
	c0,0-0.232,0.726-0.175,1.16c0.033,0.242-0.077,0.648-0.186,1.036c0.003-0.03,0.007-0.054,0.011-0.07
	c0.029-0.129-0.032-0.515-0.063-0.643c-0.031-0.128-0.257-0.447-0.363-0.508c-0.104-0.064-0.702-0.925-0.702-0.925l-0.54-1.247
	c0,0-0.115-0.353-0.234-0.481c-0.121-0.127-0.21,0.003-0.21,0.003l-0.232,0.163l0.092,0.514c0,0,0.1,0.417,0.176,0.609
	c0.075,0.191,0.763,0.924,0.763,0.924s0.369,0.412,0.46,0.668c0.091,0.256,0.056,0.611,0.019,0.707
	c-0.016,0.042-0.015,0.227-0.001,0.436c-0.031,0.027-0.055,0.059-0.081,0.091c-1.61-1.639-2.943-2.801-4.307-3.756
	c-1.6-1.117-3.053-1.807-4.318-2.048c-1.674-0.317-3.554-0.2-5.436,0.338c-1.815,0.519-3.579,1.401-5.101,2.552
	c-0.301,0.229-0.59,0.474-0.87,0.73C4.893,2.929,3.195,2.141,1.47,1.444c-0.451,0.63-0.816,1.337-1.072,2.112
	c-1.238,3.744,0.502,7.747,3.92,9.47c-1.432,0.939-2.572,2.345-3.151,4.097c-1.362,4.12,0.874,8.563,4.993,9.925
	c0.577,0.191,1.159,0.304,1.739,0.358c-0.162,0.328-0.311,0.665-0.429,1.022c-1.362,4.12,0.874,8.563,4.993,9.925
	c1.156,0.382,2.336,0.472,3.469,0.325c-0.257,3.507,1.871,6.874,5.362,8.028c2.412,0.798,4.931,0.354,6.882-0.971
	c0.894,1.842,2.5,3.337,4.598,4.031c2.143,0.709,4.371,0.436,6.21-0.562c-0.314-2.208-0.763-4.405-1.328-6.582
	c1.006-0.479,1.935-1.066,2.781-1.792c0.569-0.488,1.11-1.041,1.607-1.643c0.634-0.768,1.159-1.603,1.56-2.481
	c0.626-1.365,0.977-2.871,1.045-4.478C44.692,31.137,44.605,30.015,44.392,28.893z"/>
</svg>
