<?xml version="1.0" encoding="utf-8"?>
<!-- Generator: Adobe Illustrator 17.0.0, SVG Export Plug-In . SVG Version: 6.00 Build 0)  -->
<!DOCTYPE svg PUBLIC "-//W3C//DTD SVG 1.1 Basic//EN" "http://www.w3.org/Graphics/SVG/1.1/DTD/svg11-basic.dtd">
<svg version="1.1" baseProfile="basic" id="Слой_1"
	 xmlns="http://www.w3.org/2000/svg" xmlns:xlink="http://www.w3.org/1999/xlink" x="0px" y="0px" width="152.09px"
	 height="133.793px" viewBox="0 0 152.09 133.793" xml:space="preserve">
<g>
	<path fill="#87BB50" d="M151.729,63.183c-2.324-6.63-6.072-3.789-9.409-4.865c-5.804-1.866-10.918-1.566-16.666-3.835
		c-10.595-4.176-14.491,5.012-24.218,4.702c-4.417-0.14-4.211-3.602-9.791-0.146c-0.796,0.493-1.462,1.122-2.059,1.816
		c0.401-1.894,1.301-3.376,4.293-4.084c4.01-0.943,5.46,0.592,5.333-4.287c-0.113-4.4-1.176-8.616,3.672-10.488
		c2.092-0.81,4.228-0.689,6.277-1.599c2.931-1.304,3.157-0.088,6.504-0.237c10.562-0.494,7.848-16.398,13.609-23.098
		c1.676-1.948,2.118-11.578,1.124-12.957c-4.206-5.846-12.054,1.83-16.69,3.614c-2.364,0.905-6.74,2.262-9.003,3.415
		c-3.632,1.852-4.75,5.912-5.576,9.659c-1.287,5.828-2.201,17.493-11.223,15.268c-3.101-0.76-3.302-0.722-6.601,0.862
		c-0.404,0.195-0.744,0.442-1.06,0.709c-0.035-0.091-0.062-0.182-0.1-0.273c-2.418-5.835-5.798-4.343-3.157-16.769
		c2.64-12.43,0.503-14.475-4.931-18.977C63.682-5.335,53.26,12.706,47.317,8.009c-2.216-1.764-6.903-2.223-7.348,11.166
		c-0.446,13.387-3.635,4.35-9.666,7.01c-6.034,2.661-4.355,16.625-3.238,24.166c1.709,11.485,4.692,17.236,5.685,27.476
		c-4.207,6.173-8.848,12.28-13.911,17.981c0.211,0.185,0.411,0.387,0.62,0.576C14.018,91.462,7.916,87.679,1.47,85.073
		c-0.451,0.63-0.816,1.337-1.072,2.112c-1.238,3.744,0.502,7.747,3.92,9.47C2.886,97.594,1.747,99,1.167,100.752
		c-1.362,4.12,0.874,8.563,4.993,9.925c0.577,0.191,1.159,0.304,1.739,0.358c-0.162,0.328-0.311,0.665-0.429,1.022
		c-1.362,4.12,0.874,8.563,4.993,9.925c1.156,0.382,2.336,0.472,3.469,0.325c-0.257,3.507,1.871,6.874,5.362,8.028
		c2.412,0.798,4.931,0.354,6.882-0.971c0.894,1.842,2.5,3.337,4.598,4.031c2.143,0.709,4.371,0.436,6.21-0.562
		c-1.184-8.322-4.152-16.505-8.901-23.931c0.006,0.01,0.013,0.02,0.02,0.03c10.712-5.247,24.786-11.89,39.798-18.3l0.015,0.37
		c5.966-3.535,10.663,10.057,15.667,13.087c9.111,5.514,9.476,0.428,16.187-3.765c5.43-3.391,8.861,0.064,13.939-0.219
		c3.838-0.217,4.316-2.397,7.529-4.41c4.116-2.587,11.61-1.276,14.641-4.729c1.691-1.929,2.188-6.719,4.03-9.256
		C144.476,78.167,154.055,69.817,151.729,63.183z M64.516,64.399c0.306-0.689,0.736-1.275,1.24-1.802
		c0.344,1.054,0.721,2.037,1.087,2.907c-0.951,0.812-1.908,1.625-2.875,2.441C63.87,66.892,63.921,65.736,64.516,64.399z
		 M20.871,97.695c0.115,0.111,0.236,0.213,0.35,0.325c4.499-5.445,9.365-11.744,14.133-18.657c2.317-2.102,6.13-4.762,10.386-4.462
		V74.9c3.26,0.228,6.043,0.797,8.449,1.123c-10.111,8.169-20.792,16.222-31.551,23.424c0.033,0.035,0.068,0.069,0.102,0.104
		C22.129,98.912,21.501,98.302,20.871,97.695z M22.74,99.551c0.484,0.507,0.954,1.022,1.414,1.542
		C23.691,100.574,23.223,100.058,22.74,99.551z M27.896,105.721c-0.779-1.063-1.598-2.107-2.455-3.132
		c0.001,0.002,0.003,0.003,0.004,0.005c9.241-7.399,20.544-16.595,32.1-26.346c1.276-0.046,2.424-0.297,3.459-0.911
		c2.96-1.761,3.409-3.245,3.302-4.835c1.154-0.988,2.307-1.979,3.457-2.972c0.492,1.009,0.841,1.617,0.841,1.617
		c0.974,0.341,2.63,0.675,4.589,0.896c-2.308,3.459-2.793,10.553-3.569,13.684l0.136,3.363
		C56.672,92.002,42.435,98.13,27.896,105.721z"/>
	<polygon fill="#87BB50" points="69.623,83.729 69.623,83.729 69.623,83.728 	"/>
</g>
</svg>
