<?xml version="1.0" encoding="utf-8"?>
<!-- Generator: Adobe Illustrator 17.0.0, SVG Export Plug-In . SVG Version: 6.00 Build 0)  -->
<!DOCTYPE svg PUBLIC "-//W3C//DTD SVG 1.1 Basic//EN" "http://www.w3.org/Graphics/SVG/1.1/DTD/svg11-basic.dtd">
<svg version="1.1" baseProfile="basic" id="Слой_1"
	 xmlns="http://www.w3.org/2000/svg" xmlns:xlink="http://www.w3.org/1999/xlink" x="0px" y="0px" width="278.458px"
	 height="238.958px" viewBox="0 0 278.458 238.958" xml:space="preserve">
<path fill="#D3612B" stroke="#FFFFFF" stroke-width="6" stroke-miterlimit="10" d="M152.959,140.835
	c-1.839,0.998-4.067,1.27-6.21,0.562c-2.098-0.694-3.703-2.188-4.598-4.031c-1.951,1.326-4.47,1.769-6.882,0.971
	c-3.491-1.154-5.619-4.521-5.362-8.028c-1.132,0.147-2.312,0.057-3.469-0.325c-4.12-1.362-6.355-5.806-4.993-9.925
	c0.118-0.357,0.267-0.695,0.429-1.022c-0.58-0.054-1.163-0.167-1.739-0.358c-4.12-1.362-6.355-5.806-4.993-9.925
	c0.579-1.752,1.719-3.159,3.151-4.097c-3.418-1.723-5.158-5.726-3.92-9.47c0.256-0.774,0.621-1.482,1.072-2.112
	c-20.52-8.296-44.439-4.781-60.992,11.018c-15.548,14.836-20.545,36.664-15.023,56.566c-0.007,0-0.014-0.003-0.021-0.003
	c0.128,0.465,0.303,0.921,0.444,1.38c0.312,1.027,0.614,2.05,0.983,3.057c0.213,0.591,0.47,1.167,0.703,1.75
	c0.38,0.951,0.744,1.904,1.172,2.844c0.359,0.78,0.779,1.54,1.173,2.312c0.369,0.721,0.709,1.453,1.108,2.161
	c0.834,1.483,1.731,2.937,2.698,4.36c-1.289,3.465-4.433,10.032-11.131,15.416c-9.574,7.696-19.088,11.023-18.129,20.895
	C19.387,224.697,8,231.971,8,231.971s9.855-1.493,15.817-11.495c5.963-10.007,8.587-15.385,22.807-16.733
	c8.438-0.799,13.093-6.086,15.479-10.255c1.358,0.999,2.747,1.93,4.164,2.803c0.652,0.402,1.327,0.751,1.987,1.124
	c0.77,0.435,1.533,0.891,2.319,1.289c0.813,0.413,1.644,0.775,2.472,1.148c0.654,0.297,1.304,0.61,1.968,0.883
	c0.881,0.363,1.776,0.678,2.669,0.994c0.477,0.17,0.942,0.373,1.422,0.532c0-0.009-0.002-0.024,0-0.035
	c19.624,6.45,41.664,2.497,57.215-12.341C149.927,176.9,155.48,158.554,152.959,140.835z"/>
<g>
	<path fill="#D1572B" d="M146.749,141.396c-2.098-0.694-3.703-2.188-4.598-4.031c-1.951,1.326-4.47,1.769-6.882,0.971
		c-3.491-1.154-5.619-4.521-5.362-8.028c-1.132,0.147-2.312,0.057-3.469-0.325c-4.12-1.362-6.355-5.806-4.993-9.925
		c0.118-0.357,0.267-0.695,0.429-1.022c-0.58-0.054-1.163-0.167-1.739-0.358c-4.12-1.362-6.355-5.806-4.993-9.925
		c0.579-1.752,1.719-3.159,3.151-4.097c-3.418-1.723-5.158-5.726-3.92-9.47c0.256-0.774,0.621-1.482,1.072-2.112
		c-20.52-8.296-44.439-4.781-60.992,11.018c-15.548,14.836-20.545,36.664-15.023,56.566c-0.007,0-0.014-0.003-0.021-0.003
		c0.128,0.465,0.303,0.921,0.444,1.381c0.312,1.027,0.614,2.05,0.983,3.057c0.213,0.591,0.47,1.167,0.703,1.75
		c0.38,0.951,0.744,1.904,1.172,2.844c0.359,0.78,0.779,1.54,1.173,2.312c0.369,0.721,0.709,1.453,1.108,2.161
		c0.834,1.483,1.731,2.937,2.698,4.36c-1.289,3.465-4.433,10.032-11.131,15.416c-9.574,7.696-19.088,11.023-18.129,20.895
		C19.387,224.697,8,231.971,8,231.971s9.855-1.493,15.817-11.495c5.963-10.007,8.587-15.385,22.807-16.733
		c8.438-0.799,13.093-6.086,15.479-10.255c1.358,0.999,2.747,1.93,4.164,2.803c0.652,0.402,1.327,0.751,1.987,1.124
		c0.77,0.435,1.533,0.891,2.319,1.289c0.814,0.413,1.644,0.775,2.472,1.148c0.654,0.296,1.304,0.61,1.968,0.883
		c0.881,0.363,1.776,0.678,2.669,0.994c0.477,0.17,0.942,0.373,1.422,0.532c0-0.009-0.002-0.024,0-0.035
		c19.624,6.45,41.664,2.497,57.215-12.341c13.607-12.984,19.16-31.329,16.639-49.049
		C151.12,141.833,148.892,142.105,146.749,141.396z"/>
	<path fill="#D3612B" d="M80.518,98.527c0,0-48.14,4.957-37.65,56.954C42.869,155.482,46.382,118.164,80.518,98.527z"/>
</g>
</svg>
