<?xml version="1.0" encoding="utf-8"?>
<!-- Generator: Adobe Illustrator 17.0.0, SVG Export Plug-In . SVG Version: 6.00 Build 0)  -->
<!DOCTYPE svg PUBLIC "-//W3C//DTD SVG 1.1 Basic//EN" "http://www.w3.org/Graphics/SVG/1.1/DTD/svg11-basic.dtd">
<svg version="1.1" baseProfile="basic" id="Слой_1"
	 xmlns="http://www.w3.org/2000/svg" xmlns:xlink="http://www.w3.org/1999/xlink" x="0px" y="0px" width="67.276px"
	 height="61.061px" viewBox="0 0 67.276 61.061" xml:space="preserve">
<path fill="#B76153" d="M66.964,45.54c-1.411-3.863-7.32-5.387-11.782-10.166c-5.332-5.711-3.001-7.86-5.443-17.743
	c-2.442-9.882-7.623-4.874-9.501-7.174c-0.898-1.099-0.945-2.08-1.084-3.309c-0.152-1.343-0.413-2.985-2.009-5.404
	C35.2-1.203,26.338,0.477,26.338,0.477C15.869,1.315,7.645,5.098,3.184,17.762S-0.465,44.02,2.054,49.85
	c2.865,2.065,4.383-1.861,4.621-2.986s11.511-14.331,22.622-10.211c-3.47,13.6,9.999,22.694,17.589,24.341
	c4.012,0.871,19.668-6.926,20.347-12.885C67.343,47.135,67.239,46.293,66.964,45.54z"/>
</svg>
