<?xml version="1.0" encoding="utf-8"?>
<!-- Generator: Adobe Illustrator 17.0.0, SVG Export Plug-In . SVG Version: 6.00 Build 0)  -->
<!DOCTYPE svg PUBLIC "-//W3C//DTD SVG 1.1 Basic//EN" "http://www.w3.org/Graphics/SVG/1.1/DTD/svg11-basic.dtd">
<svg version="1.1" baseProfile="basic" id="Слой_1"
	 xmlns="http://www.w3.org/2000/svg" xmlns:xlink="http://www.w3.org/1999/xlink" x="0px" y="0px" width="412.458px"
	 height="157.479px" viewBox="0 0 412.458 157.479" xml:space="preserve">
<path fill="#8A6EA3" stroke="#FFFFFF" stroke-width="6" stroke-miterlimit="10" d="M404.89,66.736
	c-3.779,1.888-7.541,0.867-11.51-2.144c-0.265-0.201-0.53-0.41-0.797-0.628c-0.533-0.436-1.07-0.907-1.611-1.409
	c-0.812-0.754-1.634-1.58-2.468-2.471c-0.834-0.891-1.68-1.847-2.539-2.861c-2.292-2.703-4.68-5.815-7.199-9.198
	c-0.315-0.423-0.642-0.832-0.979-1.229c-0.675-0.794-1.394-1.536-2.148-2.23c-0.754-0.694-1.543-1.341-2.359-1.943
	c-5.305-3.913-11.752-5.941-17.092-6.993c-0.411-0.081-0.815-0.156-1.212-0.226c-2.777-0.488-5.183-0.714-6.867-0.818
	c-0.241-0.015-0.466-0.027-0.677-0.038c-0.133-0.006-0.248-0.011-0.368-0.016c-3.067-1.622-5.848-3.018-8.4-4.21
	c-1.099-0.513-2.158-0.989-3.181-1.432c-0.512-0.221-1.015-0.434-1.51-0.638c-0.99-0.409-1.949-0.786-2.882-1.133
	c-1.866-0.694-3.629-1.269-5.337-1.748c-3.843-1.078-7.41-1.668-11.248-2.029c-0.853-0.08-1.72-0.149-2.606-0.209
	s-1.792-0.112-2.723-0.157c-0.466-0.023-0.937-0.044-1.416-0.065c-0.958-0.041-1.945-0.077-2.966-0.112
	c-0.511-0.017-1.03-0.034-1.558-0.052c-1.586-0.051-3.256-0.102-5.031-0.162c-2.367-0.08-4.92-0.177-7.709-0.312
	c-1.394-0.068-2.847-0.145-4.364-0.235c-1.517-0.09-3.1-0.193-4.752-0.311c-1.653-0.118-3.377-0.251-5.177-0.403
	c-7.201-0.606-15.631-1.503-25.675-2.872c-2.511-0.342-5.123-0.714-7.841-1.118c-13.594-2.019-29.86-4.846-49.552-8.831
	c-16.246-3.296-53.284,10.273-83.526,19.202c-0.085,0.025-0.173,0.052-0.258,0.077c-0.753,0.222-1.494,0.436-2.237,0.651
	c-0.412,0.12-0.83,0.243-1.24,0.361c-0.611,0.175-1.21,0.342-1.814,0.513c-0.526,0.148-1.058,0.301-1.578,0.446
	c-0.534,0.148-1.054,0.287-1.582,0.431c-0.579,0.158-1.164,0.32-1.734,0.472c-0.464,0.124-0.913,0.237-1.371,0.357
	c-0.618,0.161-1.243,0.327-1.85,0.481c-0.433,0.109-0.85,0.208-1.277,0.313c-0.618,0.152-1.241,0.309-1.847,0.453
	c-0.39,0.092-0.765,0.174-1.15,0.262c-0.166,0.038-0.331,0.075-0.496,0.113c-0.305-0.45-0.639-0.922-1.036-1.44v-0.002
	c-0.406-0.531-0.815-1.057-1.21-1.581c-0.986-1.309-1.884-2.603-2.429-3.916c-0.109-0.263-0.204-0.526-0.283-0.791
	c-0.214-0.728-0.54,0.063-0.814,1.078c-0.274,1.014-0.494,2.252-0.497,2.417c-0.022,1.231,0.24,2.389,0.673,3.446
	c-0.528-0.336-1.12-0.687-1.808-1.059c-2.353-1.271-4.712-2.474-6.148-4.143c-0.31-0.358-0.416-0.158-0.412,0.296
	c0.005,0.544,0.169,1.454,0.331,2.202c0.081,0.374,0.162,0.708,0.222,0.935c0.04,0.151,0.071,0.256,0.087,0.293
	c1.305,3.053,4.241,4.823,6.726,5.483c0.01,0.022,0.018,0.047,0.026,0.071c0.024,0.074,0.04,0.159,0.046,0.254
	c0.002,0.029,0.007,0.054,0.007,0.085c0.002,0.128-0.01,0.271-0.036,0.431c-0.006,0.034-0.015,0.073-0.022,0.109
	c-0.026,0.136-0.06,0.281-0.104,0.437c-0.015,0.055-0.031,0.111-0.048,0.168c-0.056,0.186-0.122,0.382-0.2,0.592
	c-0.007,0.019-0.012,0.035-0.019,0.054c-0.088,0.232-0.191,0.482-0.304,0.743c-0.029,0.068-0.061,0.138-0.092,0.208
	c-0.096,0.215-0.2,0.439-0.311,0.671c-0.032,0.066-0.061,0.129-0.094,0.196c-0.146,0.298-0.302,0.606-0.471,0.93
	c-0.023,0.043-0.048,0.089-0.071,0.132c-0.151,0.286-0.312,0.582-0.48,0.886c-0.047,0.086-0.095,0.172-0.144,0.259
	c-0.187,0.333-0.381,0.674-0.587,1.027c-0.012,0.02-0.022,0.039-0.034,0.059c-0.227,0.389-0.468,0.791-0.718,1.202
	c-0.04,0.066-0.082,0.134-0.123,0.201c-0.221,0.361-0.449,0.729-0.686,1.106c-0.04,0.063-0.079,0.126-0.119,0.19
	c-0.556,0.881-1.156,1.803-1.793,2.759c-0.04,0.059-0.079,0.119-0.119,0.179c-0.655,0.979-1.349,1.992-2.08,3.035
	c-0.009,0.013-0.018,0.026-0.027,0.038c-0.362,0.517-0.734,1.04-1.113,1.57c-0.018,0.025-0.035,0.05-0.053,0.075
	c-0.785,1.094-1.604,2.214-2.455,3.352c-0.007,0.01-0.015,0.02-0.022,0.03c-5.598,7.488-12.515,15.761-19.47,22.723v0c0,0,0,0,0,0
	c-0.05-0.108-0.107-0.216-0.164-0.325c-0.026-0.05-0.048-0.101-0.076-0.151c-0.079-0.143-0.167-0.285-0.257-0.428
	c-0.025-0.04-0.047-0.081-0.074-0.121c-0.096-0.148-0.202-0.296-0.31-0.445c-0.026-0.036-0.049-0.072-0.076-0.108
	c-0.115-0.154-0.239-0.309-0.366-0.464c-0.024-0.029-0.046-0.059-0.071-0.088c-0.132-0.158-0.273-0.316-0.417-0.475
	c-0.024-0.026-0.046-0.053-0.07-0.079c-0.151-0.163-0.31-0.326-0.473-0.489c-0.021-0.021-0.04-0.042-0.062-0.063
	c-0.169-0.167-0.345-0.334-0.526-0.501c-0.019-0.017-0.036-0.035-0.055-0.052c-0.186-0.171-0.38-0.341-0.578-0.511
	c-0.016-0.013-0.03-0.027-0.046-0.04c-0.203-0.173-0.413-0.347-0.629-0.52c-0.013-0.01-0.025-0.02-0.037-0.03
	c-0.219-0.176-0.445-0.351-0.677-0.526c-0.01-0.007-0.019-0.015-0.029-0.022c-0.047-0.036-0.091-0.071-0.139-0.107
	c-0.188-0.14-0.382-0.28-0.577-0.419c-0.01-0.007-0.019-0.014-0.029-0.021c-0.25-0.179-0.505-0.357-0.766-0.534
	c-0.003-0.002-0.007-0.005-0.01-0.007c-0.263-0.179-0.531-0.357-0.804-0.534c-0.003-0.002-0.006-0.004-0.01-0.006
	c-0.275-0.179-0.555-0.357-0.841-0.534c-0.001,0-0.002-0.001-0.003-0.002c-0.286-0.178-0.577-0.355-0.872-0.531
	c-0.001,0-0.002-0.001-0.002-0.001c-0.293-0.175-0.589-0.348-0.891-0.521c-0.005-0.003-0.01-0.006-0.014-0.008
	c-0.298-0.171-0.6-0.341-0.906-0.511c-0.008-0.004-0.015-0.009-0.023-0.013c-0.304-0.168-0.612-0.336-0.924-0.502
	c-0.009-0.005-0.018-0.01-0.028-0.015c-0.312-0.167-0.627-0.332-0.946-0.497c-0.008-0.004-0.016-0.008-0.024-0.013
	c-0.311-0.161-0.626-0.32-0.942-0.479c-0.02-0.01-0.04-0.02-0.06-0.03c-0.311-0.156-0.625-0.31-0.941-0.464
	c-0.023-0.011-0.045-0.022-0.068-0.033c-0.314-0.152-0.63-0.303-0.948-0.453c-0.026-0.012-0.052-0.025-0.078-0.037
	c-0.308-0.145-0.618-0.289-0.929-0.431c-0.041-0.019-0.082-0.038-0.124-0.057c-0.114-0.052-0.227-0.105-0.341-0.156
	c-0.187-0.085-0.376-0.168-0.565-0.252c-0.05-0.022-0.1-0.044-0.149-0.067c-0.296-0.132-0.594-0.262-0.892-0.391
	c-0.058-0.025-0.115-0.05-0.173-0.075c-0.117-0.051-0.234-0.102-0.352-0.153c-0.169-0.072-0.339-0.143-0.508-0.214
	c-0.074-0.031-0.149-0.063-0.223-0.094c-0.271-0.114-0.542-0.226-0.813-0.338c-0.09-0.037-0.181-0.074-0.271-0.111
	c-0.113-0.046-0.225-0.093-0.337-0.139c-0.149-0.06-0.297-0.119-0.446-0.178c-0.1-0.04-0.199-0.08-0.299-0.12
	c-0.249-0.099-0.497-0.197-0.745-0.294c-0.115-0.045-0.23-0.09-0.345-0.134c-0.108-0.042-0.216-0.084-0.323-0.126
	c-0.124-0.048-0.248-0.094-0.372-0.141c-0.133-0.051-0.266-0.101-0.399-0.151c-0.214-0.08-0.427-0.16-0.64-0.239
	c-0.149-0.055-0.298-0.11-0.447-0.165c-0.193-0.071-0.386-0.141-0.579-0.211c-0.171-0.062-0.342-0.123-0.513-0.184
	c-0.173-0.061-0.345-0.122-0.516-0.183c-0.186-0.065-0.372-0.13-0.557-0.194c-0.154-0.053-0.308-0.106-0.462-0.159
	c-0.201-0.069-0.401-0.137-0.601-0.204c-0.138-0.046-0.276-0.092-0.413-0.138c-0.213-0.071-0.425-0.14-0.636-0.209
	c-0.12-0.039-0.24-0.078-0.36-0.117c-0.23-0.074-0.458-0.147-0.685-0.218c-0.098-0.031-0.196-0.062-0.293-0.092
	c-0.243-0.076-0.483-0.15-0.722-0.223c-0.083-0.025-0.166-0.051-0.249-0.076c-0.251-0.076-0.5-0.15-0.747-0.223
	c-0.068-0.02-0.137-0.04-0.205-0.06c-0.26-0.076-0.517-0.15-0.771-0.222c-0.053-0.015-0.106-0.03-0.159-0.045
	c-0.266-0.075-0.527-0.147-0.787-0.217c-0.042-0.011-0.083-0.023-0.125-0.034c-0.265-0.071-0.525-0.14-0.783-0.207
	c-0.036-0.009-0.073-0.019-0.109-0.028c-0.261-0.067-0.517-0.132-0.77-0.194c-0.031-0.008-0.062-0.015-0.093-0.023
	c-0.092-0.022-0.186-0.047-0.277-0.068c-0.163-0.039-0.32-0.075-0.48-0.112c-0.025-0.006-0.051-0.012-0.076-0.018
	c-0.245-0.057-0.486-0.111-0.722-0.162c-0.028-0.006-0.057-0.013-0.086-0.019c-0.078-0.017-0.159-0.035-0.235-0.052
	c-0.152-0.032-0.297-0.061-0.444-0.09c-0.03-0.006-0.061-0.013-0.091-0.018c-0.218-0.044-0.43-0.084-0.637-0.122
	c-0.031-0.006-0.063-0.012-0.094-0.017c-0.201-0.037-0.397-0.07-0.589-0.102c-0.035-0.006-0.071-0.012-0.106-0.018
	c-0.183-0.029-0.359-0.056-0.532-0.08c-0.04-0.006-0.081-0.012-0.12-0.017c-0.159-0.022-0.313-0.041-0.463-0.058
	c-0.049-0.006-0.1-0.012-0.148-0.017c-0.135-0.015-0.265-0.026-0.392-0.037c-0.057-0.005-0.115-0.01-0.17-0.015
	c-0.111-0.008-0.216-0.014-0.321-0.019c-0.065-0.003-0.131-0.007-0.193-0.009C10,59.376,9.975,59.374,9.954,59.373
	c-0.064-0.002-0.12,0-0.181,0c-0.072,0-0.145-0.002-0.212,0c-0.063,0.001-0.12,0.005-0.18,0.008
	c-0.077,0.004-0.155,0.007-0.226,0.013c-0.009,0.001-0.021,0.001-0.03,0.002c-0.032,0.003-0.057,0.009-0.088,0.012
	c-0.08,0.009-0.159,0.019-0.231,0.033c-0.023,0.004-0.042,0.01-0.064,0.015c-0.08,0.017-0.157,0.036-0.225,0.058
	c-0.001,0-0.003,0.001-0.005,0.001c-0.006,0.002-0.009,0.005-0.015,0.006C8.187,59.63,8.011,59.797,8,60.03
	c0.358,1.141,0.96,2.557,1.734,4.153c0.516,1.064,1.107,2.208,1.752,3.404c0.322,0.598,0.658,1.208,1.005,1.828
	c1.039,1.86,2.174,3.805,3.329,5.738c0.77,1.289,1.549,2.573,2.315,3.823c1.532,2.501,3.012,4.87,4.261,6.878
	c0.312,0.502,0.61,0.982,0.891,1.436v0.002c1.161,1.876,2.102,3.474,2.933,4.802c1.257,2.007,2.265,3.396,3.405,4.197
	c-0.126,0.169-0.222,0.348-0.293,0.535c-0.004,0.009-0.008,0.019-0.011,0.028c-0.067,0.184-0.108,0.376-0.125,0.574
	c-0.001,0.012-0.002,0.024-0.003,0.036c-0.014,0.201-0.004,0.409,0.031,0.624c0.001,0.006,0.003,0.013,0.004,0.019
	c0.113,0.665,0.453,1.39,0.988,2.15c0.005,0.007,0.009,0.014,0.014,0.021c0.174,0.246,0.37,0.496,0.584,0.749
	c0.013,0.016,0.026,0.031,0.04,0.047c0.213,0.25,0.445,0.502,0.695,0.757c0.016,0.016,0.032,0.032,0.048,0.048
	c0.255,0.258,0.527,0.518,0.817,0.779c0.006,0.006,0.013,0.011,0.019,0.017c0.596,0.536,1.263,1.075,1.992,1.613
	c0.011,0.008,0.021,0.016,0.032,0.024c0.349,0.257,0.714,0.513,1.091,0.768c0.034,0.023,0.068,0.047,0.103,0.07
	c0.367,0.247,0.747,0.492,1.137,0.735c0.046,0.029,0.092,0.057,0.138,0.086c0.392,0.242,0.793,0.482,1.206,0.719
	c0.041,0.024,0.084,0.047,0.125,0.071c0.426,0.243,0.861,0.483,1.307,0.719c0.015,0.008,0.031,0.016,0.047,0.024
	c0.455,0.24,0.92,0.476,1.394,0.706c0.017,0.008,0.033,0.016,0.049,0.024c0.458,0.223,0.926,0.44,1.399,0.652
	c0.058,0.026,0.115,0.052,0.173,0.078c0.456,0.203,0.918,0.4,1.386,0.591c0.076,0.031,0.151,0.062,0.227,0.093
	c0.464,0.188,0.933,0.37,1.407,0.546c0.076,0.028,0.152,0.056,0.228,0.084c0.482,0.176,0.968,0.347,1.458,0.51
	c0.058,0.019,0.117,0.038,0.176,0.057c0.514,0.168,1.031,0.331,1.552,0.482c0.005,0.002,0.01,0.003,0.016,0.004
	c0.516,0.15,1.034,0.289,1.555,0.421c0.062,0.016,0.123,0.032,0.184,0.047c0.499,0.124,0.998,0.238,1.499,0.344
	c0.084,0.018,0.167,0.036,0.251,0.053c0.491,0.101,0.983,0.192,1.474,0.275c0.089,0.015,0.178,0.029,0.268,0.044
	c0.494,0.079,0.987,0.149,1.478,0.208c0.077,0.009,0.153,0.017,0.23,0.025c0.509,0.057,1.016,0.105,1.521,0.139
	c0.038,0.003,0.075,0.004,0.113,0.006c0.508,0.032,1.013,0.052,1.515,0.059c0.036,0,0.072,0.002,0.108,0.003
	c0.499,0.005,0.993-0.006,1.484-0.028c0.071-0.003,0.143-0.005,0.214-0.009c0.474-0.025,0.943-0.064,1.407-0.115
	c0.081-0.009,0.161-0.018,0.242-0.028c0.46-0.056,0.915-0.124,1.364-0.208c0.075-0.014,0.149-0.029,0.224-0.044
	c0.456-0.09,0.906-0.192,1.349-0.312c0.051-0.014,0.101-0.03,0.152-0.044c0.464-0.13,0.922-0.274,1.369-0.439
	c5.414-2.002,11.425-5.274,17.589-9.188c3.082-1.957,6.202-4.075,9.305-6.275c3.103-2.2,6.188-4.482,9.201-6.767
	c3.615-2.743,7.125-5.491,10.434-8.109s6.417-5.105,9.227-7.327c7.479-0.029,14.163,0.865,20.151,2.313
	c1.649,0.399,3.243,0.84,4.786,1.317c0.594,0.184,1.182,0.371,1.761,0.565c9.08,3.044,16.279,7.28,21.893,11.13
	c5.115,3.512,9.947,6.507,14.854,9.107c8.178,4.335,16.565,7.575,26.82,10.293c0.438,2.368,1.291,5.376,2.223,9.093
	c0.361,1.436,0.771,2.924,1.175,4.426c0.202,0.751,0.403,1.505,0.595,2.258c0.288,1.129,0.557,2.256,0.784,3.363
	c0.151,0.738,0.283,1.468,0.389,2.185c0.265,1.792,0.366,3.501,0.196,5.054c-0.267,2.437-2.897,7.043-2.921,8.815
	c-0.003,0.253,0.047,0.448,0.164,0.571c1.156,1.197,2.555,1.839,4.067,2.125c0.756,0.143,1.541,0.198,2.338,0.188
	c0.266-0.003,0.533-0.013,0.801-0.03c0.417-0.026,0.836-0.069,1.254-0.121c0,0-0.001,0.001-0.001,0.001h0.001
	c0.01-0.001,0.019-0.003,0.029-0.005c0.579-0.073,1.156-0.165,1.728-0.272c0.017-0.003,0.033-0.006,0.05-0.009
	c0.01-0.002,0.02-0.004,0.03-0.005c0.094-0.018,0.188-0.036,0.281-0.054c0.474-0.093,0.943-0.193,1.402-0.295c0,0,0.001,0,0.001,0
	c0.742-0.166,1.308-0.571,1.758-1.128c2.314-2.868,1.126-10.3,0.103-16.181c-0.081-0.468-0.162-0.926-0.239-1.372
	c-0.066-0.38-0.12-0.755-0.164-1.126c-0.012-0.104-0.018-0.205-0.029-0.308c-0.028-0.265-0.056-0.531-0.073-0.791
	c-0.007-0.103-0.008-0.203-0.014-0.306c-0.014-0.257-0.027-0.515-0.032-0.767c-0.002-0.088,0.001-0.174,0.001-0.261
	c-0.001-0.264-0.002-0.528,0.006-0.786c0.002-0.067,0.007-0.131,0.01-0.197c0.011-0.277,0.025-0.552,0.046-0.823
	c0.004-0.047,0.009-0.093,0.013-0.139c0.024-0.288,0.052-0.574,0.086-0.855c0.003-0.026,0.007-0.052,0.011-0.078
	c0.038-0.3,0.08-0.597,0.127-0.889c0.001-0.008,0.003-0.015,0.004-0.023c0.362-2.198,0.989-4.166,1.598-5.924
	c0.174-0.504,0.347-0.99,0.512-1.46l0.041,0.01l0.041,0.01c0.23,0.976,0.5,2.036,0.796,3.182c0.296,1.146,0.617,2.379,0.949,3.699
	c0.541,2.155,1.194,4.427,1.771,6.686c0.096,0.377,0.19,0.753,0.281,1.128c0.364,1.502,0.68,2.988,0.892,4.421
	c0.265,1.792,0.367,3.5,0.198,5.05c-0.305,2.785-3.699,8.415-2.756,9.385c0.77,0.798,1.649,1.349,2.597,1.713
	c0.474,0.182,0.966,0.317,1.47,0.412c0.252,0.048,0.507,0.086,0.765,0.115c0.764,0.086,1.55,0.092,2.344,0.045
	c0.863-0.051,1.733-0.168,2.593-0.317c0,0,0,0.001,0,0.001c0.014-0.002,0.027-0.006,0.041-0.008c0.736-0.129,1.463-0.28,2.169-0.437
	c0.001,0,0.002,0,0.003-0.001c0.913-0.204,1.584-0.738,2.063-1.518c0.32-0.52,0.554-1.149,0.719-1.863
	c0.247-1.07,0.336-2.331,0.318-3.698c-0.048-3.644-0.859-8.043-1.475-11.605c-0.26-1.49-0.347-2.903-0.312-4.242
	c0.009-0.335,0.025-0.665,0.048-0.99c0.209-2.93,0.976-5.489,1.738-7.716c0.169-0.495,0.338-0.973,0.501-1.436l0.758,0.049
	c-0.002-0.003-0.005-0.004-0.007-0.007c5.292,0.346,10.571,0.496,15.82,0.452c10.993-0.091,21.853-0.992,32.424-2.528
	c1.762-0.256,3.516-0.529,5.261-0.82c3.49-0.581,6.946-1.228,10.361-1.936c1.26-0.261,2.509-0.54,3.758-0.817
	c3.062,2.857,6.485,5.472,10.168,7.714l0.002-0.001c2.213,1.347,3.195,3.872,3.553,6.703c0.102,0.809,0.154,1.643,0.169,2.481
	c0.022,1.257-0.038,2.525-0.133,3.733c-0.063,0.806-0.142,1.586-0.222,2.319c-0.08,0.733-0.161,1.42-0.229,2.04
	c-0.003,0.029-0.011,0.062-0.015,0.091c-0.042,0.327-0.119,0.686-0.229,1.074c-0.06,0.211-0.129,0.43-0.204,0.655
	c-0.15,0.449-0.327,0.92-0.516,1.399c-0.094,0.239-0.192,0.481-0.29,0.722c-0.197,0.483-0.399,0.966-0.591,1.436
	c-0.192,0.469-0.375,0.924-0.533,1.351c-0.079,0.213-0.152,0.419-0.217,0.616c-0.13,0.394-0.229,0.752-0.282,1.059
	c-0.079,0.461-0.055,0.808,0.121,0.992c1.156,1.193,2.554,1.834,4.067,2.121c0.504,0.096,1.021,0.152,1.546,0.176
	c0.262,0.012,0.527,0.016,0.792,0.013c0.797-0.009,1.607-0.081,2.412-0.193c0.269-0.037,0.537-0.079,0.804-0.123
	c0.801-0.135,1.594-0.3,2.361-0.471c0.254-0.057,0.476-0.145,0.678-0.252c0.161-0.085,0.313-0.179,0.444-0.294
	c0.296-0.258,0.52-0.589,0.684-0.982c0.157-0.376,0.257-0.81,0.317-1.289c0.005-0.036,0.01-0.072,0.014-0.109
	c0.43-3.887-1.781-10.739-0.516-15.757c0.973-3.85,1.941-7.55,2.889-11.106c1.496,1.105,3.044,2.154,4.647,3.128
	c1.107,0.673,1.892,1.652,2.459,2.806c2.025,4.12,1.105,10.597,0.68,14.48c-0.076,0.696-0.345,1.57-0.691,2.504
	c-0.087,0.234-0.178,0.471-0.272,0.71c-0.377,0.957-0.803,1.946-1.16,2.849c-0.089,0.226-0.174,0.446-0.254,0.659
	c-0.158,0.426-0.292,0.824-0.387,1.178c-0.048,0.177-0.085,0.343-0.112,0.497c-0.026,0.153-0.041,0.294-0.043,0.42
	c0,0.013,0.004,0.021,0.004,0.033c0.002,0.234,0.049,0.419,0.161,0.535c0.385,0.399,0.797,0.736,1.232,1.019
	c0.869,0.566,1.826,0.915,2.834,1.106c0.504,0.095,1.021,0.151,1.545,0.175c1.8,0.082,3.692-0.214,5.484-0.587
	c0,0.001,0.001,0.002,0.001,0.004h0h0.001c0.296-0.069,0.592-0.125,0.882-0.194c0.152-0.034,0.295-0.077,0.428-0.129
	c0.267-0.104,0.497-0.244,0.694-0.416c0.296-0.258,0.52-0.589,0.683-0.982c0.218-0.524,0.331-1.158,0.371-1.876
	c0.02-0.359,0.021-0.74,0.009-1.138c-0.013-0.398-0.039-0.815-0.076-1.246c-0.018-0.216-0.039-0.435-0.062-0.657
	c-0.046-0.445-0.1-0.903-0.158-1.371c-0.058-0.468-0.12-0.946-0.182-1.431c-0.031-0.242-0.062-0.487-0.093-0.732
	c-0.061-0.491-0.12-0.987-0.173-1.485c-0.053-0.498-0.099-0.998-0.136-1.497c-0.018-0.249-0.034-0.498-0.046-0.747
	c-0.025-0.497-0.038-0.991-0.034-1.479c0.009-1.22,0.12-2.402,0.397-3.497c2.98-11.792,5.926-22.216,8.319-31.204
	c0.598-2.247,1.162-4.405,1.683-6.471c0.781-3.1,1.466-5.996,2.028-8.684c0.561-2.688,0.999-5.168,1.286-7.438
	c0.025-0.109,0.037-0.219,0.06-0.329c0.603-2.874,0.647-5.768,0.133-8.616c-0.64-3.548-2.129-7.025-4.423-10.299
	c-0.382-0.546-0.787-1.086-1.214-1.62c-1.28-1.601-2.76-3.147-4.434-4.62c-0.558-0.491-1.137-0.974-1.738-1.448
	c-0.139-0.11-0.316-0.248-0.529-0.411c-1.592-1.222-5.122-3.835-8.57-6.311c-0.089-0.064-0.178-0.128-0.268-0.192
	c3.013,0.029,6.262,0.863,9.633,2.478c0.828,0.397,1.664,0.841,2.505,1.331c2.103,1.225,4.24,2.741,6.385,4.539
	c3.003,2.517,6.022,5.589,8.983,9.194c6.765,8.239,12.396,10.504,16.246,10.702c0.481,0.025,0.935,0.017,1.359-0.015
	c0.243-0.018,0.474-0.047,0.698-0.08c0.325-0.048,0.629-0.111,0.911-0.183c0.202-0.052,0.397-0.106,0.577-0.166
	c0.151-0.05,0.295-0.103,0.43-0.157c0.202-0.081,0.381-0.165,0.547-0.248c0.121-0.061,0.232-0.121,0.333-0.181
	c0.131-0.078,0.252-0.154,0.348-0.225C404.879,66.937,405.003,66.747,404.89,66.736z"/>
<g>
	<g id="РЎР_x00bb_РѕР_x2116__x0020_1">
		<path fill="#8A6EA3" d="M345.591,34.496c0.863,0,23.098,0,33.176,13.529c10.076,13.529,18.061,22.739,26.123,18.712
			c0.723,0.066-8.274,7.482-21.803-8.996c-13.534-16.48-28.286-21.809-37.209-14.033c-8.925,7.772-1.151-9.211-0.287-9.211H345.591z
			"/>
		<path fill="#9C8CBA" d="M327.744,116.795c5.059,3.078,3.682,12.317,3.139,17.276c-0.304,2.795-3.698,8.415-2.757,9.395
			c3.082,3.182,7.891,2.435,11.981,1.523c4.868-1.088-0.145-11.675,1.621-18.682c14.724-58.29,28.694-83.144-21.206-66.414
			c-30.591,10.258-17.431,41.898,7.22,56.903L327.744,116.795z"/>
		<path fill="#8A6EA3" d="M83.773,30.788c-2.353-1.271-4.712-2.474-6.148-4.143c-0.99-1.147,0.101,3.426,0.228,3.726
			C81.318,38.475,96.272,37.543,83.773,30.788L83.773,30.788z"/>
		<path fill="#B7A5CD" d="M31.826,94.949c-11.732,3.582,18.372,23.031,35.249,16.781c17.324-6.406,40.766-25.816,55.756-37.666
			c22.779-0.089,38.317,8.279,48.59,15.325c13.64,9.365,25.266,15.052,41.673,19.4c0.438,2.368,1.291,5.376,2.223,9.093
			c1.442,5.745,3.683,12.317,3.139,17.286c-0.305,2.785-3.697,8.403-2.756,9.386c3.083,3.192,7.891,2.435,11.981,1.522
			c4.868-1.088,2.858-11.559,1.621-18.681c-1.062-6.145,0.786-10.977,2.102-14.734l0.083,0.019c0.461,1.951,1.08,4.241,1.745,6.881
			c1.443,5.745,3.683,12.326,3.141,17.286c-0.305,2.785-3.699,8.415-2.756,9.385c3.081,3.192,7.891,2.435,11.981,1.523
			c4.868-1.088,2.858-11.559,1.626-18.682c-1.038-5.96,0.674-10.685,1.975-14.384c29.569,2.038,58.735-2.319,84.575-9.713
			c4.175,5.065,9.488,9.705,15.49,13.353c5.062,3.076,3.683,12.316,3.139,17.286c-0.304,2.784-3.697,8.413-2.755,9.385
			c3.082,3.192,7.889,2.435,11.98,1.523c4.868-1.088-0.15-11.676,1.622-18.682c5.959-23.584,11.786-41.694,13.315-53.797
			c2.147-9.54-2.004-19.342-11.616-26.932c-2.217-1.758-14.48-10.773-17.179-12.209c-42.91-22.857-28.6-0.893-154.632-26.398
			c-20.061-4.068-71.823,17.576-103.347,24.447c-0.092,0.019-0.179,0.068-0.271,0.137c-3.799,0.747-6.154,1.824-5.1,2.553
			c3.562,2.484-32.944,53.31-52.593,59.308V94.949z"/>
		<path fill="#A289BC" d="M360.746,146.717c0.296-0.069,0.592-0.125,0.882-0.194c4.868-1.088-0.15-11.676,1.622-18.682
			c5.959-23.584,11.786-41.694,13.315-53.797c2.147-9.54-2.004-19.342-11.616-26.932c-2.217-1.758-14.48-10.773-17.179-12.209
			c-42.91-22.857-28.6-0.893-154.632-26.398c-20.051-4.068-71.776,17.556-103.303,24.437c0.394,2.136,4.465,0.97,15.933-1.639
			c11.473-2.602,66.455-22.496,89.796-16.014c23.341,6.482,93.365,20.681,119.627,18.09c26.253-2.591,48.167,17.305,50.438,37.735
			c2.27,20.418-1.945,30.474-5.188,49.923c-1.936,11.616-1.324,18.954,0.306,25.679H360.746z M224.16,146.717
			c1.193-0.146,2.386-0.388,3.521-0.641c4.868-1.088,2.858-11.559,1.621-18.681c-1.038-6.009,0.699-10.755,2.005-14.462
			c-0.407-2.038-1.398-3.628-3.456,1.941c-2.264,6.163-1.621,11.347-0.645,21.401c0.55,5.686-1.285,8.774-3.048,10.443H224.16z
			 M243.385,148.201c0.752-0.126,1.495-0.282,2.213-0.446c4.868-1.088,2.858-11.559,1.626-18.682
			c-1.038-5.96,0.674-10.685,1.975-14.384l0.758,0.049c-1.054-1.223-2.685-0.872-4.596,2.087
			c-3.567,5.503-1.621,13.936-0.976,23.983C244.622,144.494,244.117,146.776,243.385,148.201L243.385,148.201z"/>
		<path fill="#EDDFD9" d="M23.286,87.291C18.793,80.031,9.907,66.116,8,60.03c0.184-3.991,46.963,10.947,45.347,22.371
			c-0.606,4.317-7.153,9.628-13.466,12.402c-10.468,4.59-10.405,2.495-16.596-7.51V87.291z"/>
		<path fill="#EBCFC4" d="M8.04,59.883c1.367-3.455,46.899,11.249,45.307,22.518c-0.193,1.395-1.014,2.901-2.247,4.376
			c-4.309-1.417-9.463-4.93-14.389-10.539C24.931,62.814,9.509,60.34,8.038,59.883H8.04z"/>
		<path fill="#FFFFFF" d="M82.134,67.251c-1.015,1.707-3.155,2.319-4.777,1.349c-1.62-0.961-2.116-3.125-1.101-4.832
			c1.015-1.71,3.155-2.32,4.78-1.35c1.621,0.959,2.11,3.124,1.096,4.833H82.134z"/>
		<path fill="#2B2A29" d="M81.385,66.435c-0.668,1.126-2.078,1.524-3.145,0.893c-1.068-0.63-1.392-2.058-0.723-3.183
			c0.665-1.126,2.076-1.522,3.144-0.893C81.731,63.893,82.049,65.31,81.385,66.435L81.385,66.435z"/>
		<path fill="#FFFFFF" d="M79.256,65.969c-0.244,0.408-0.757,0.553-1.151,0.321c-0.389-0.234-0.51-0.748-0.267-1.164
			c0.247-0.408,0.762-0.553,1.151-0.32c0.393,0.233,0.509,0.757,0.266,1.164L79.256,65.969z"/>
		<path fill="#8A6EA3" d="M90.14,31.194c-1.626-2.124-3.291-4.171-3.921-6.287c-0.427-1.456-1.306,3.165-1.31,3.494
			c-0.155,8.802,13.873,14.081,5.232,2.795V31.194z"/>
	</g>
	<g>
		<g>
			<path fill="#EDDFD9" d="M23.286,87.291C18.793,80.031,9.907,66.116,8,60.03c0.184-3.991,46.963,10.947,45.347,22.371
				c-0.606,4.317-7.153,9.628-13.466,12.402c-10.468,4.59-10.405,2.495-16.596-7.51V87.291z"/>
			<path fill="#EBCFC4" d="M8.04,59.883c1.367-3.455,46.899,11.249,45.307,22.518c-0.193,1.395-1.014,2.901-2.247,4.376
				c-4.309-1.417-9.463-4.93-14.389-10.539C24.931,62.814,9.509,60.34,8.038,59.883H8.04z"/>
		</g>
		<g>
			<path fill="#8A6EA3" d="M345.591,34.496c0.863,0,23.098,0,33.176,13.529c10.076,13.529,18.061,22.739,26.123,18.712
				c0.723,0.066-8.274,7.482-21.803-8.996c-13.534-16.48-28.286-21.809-37.209-14.033c-8.925,7.772-1.151-9.211-0.287-9.211H345.591
				z"/>
			<path fill="#9C8CBA" d="M327.744,116.795c5.059,3.078,3.682,12.317,3.139,17.276c-0.304,2.795-3.698,8.415-2.757,9.395
				c3.082,3.182,7.891,2.435,11.981,1.523c4.868-1.088-0.145-11.675,1.621-18.682c14.724-58.29,28.694-83.144-21.206-66.414
				c-30.591,10.258-17.431,41.898,7.22,56.903L327.744,116.795z"/>
			<path fill="#8A6EA3" d="M83.773,30.788c-2.353-1.271-4.712-2.474-6.148-4.143c-0.99-1.147,0.101,3.426,0.228,3.726
				C81.318,38.475,96.272,37.543,83.773,30.788L83.773,30.788z"/>
			<path fill="#B7A5CD" d="M376.564,74.044c2.147-9.54-2.004-19.342-11.616-26.932c-2.217-1.758-14.48-10.773-17.179-12.209
				c-42.91-22.857-28.6-0.893-154.632-26.398c-20.061-4.068-71.823,17.576-103.347,24.447c-0.092,0.019-0.179,0.068-0.271,0.137
				c-3.799,0.747-6.154,1.824-5.1,2.553c2.477,1.728-14.424,26.831-31.557,43.982c0.435,0.94,0.614,1.87,0.486,2.778
				c-0.606,4.317-7.153,9.628-13.466,12.402c-5.539,2.429-8.129,2.984-10.258,1.488c-4.154,5.569,22.11,21.119,37.451,15.438
				c17.324-6.406,40.766-25.816,55.756-37.666c22.779-0.089,38.317,8.279,48.59,15.325c13.64,9.365,25.266,15.052,41.673,19.4
				c0.438,2.368,1.291,5.376,2.223,9.093c1.442,5.745,3.683,12.317,3.139,17.286c-0.305,2.785-3.697,8.403-2.756,9.386
				c3.083,3.192,7.891,2.435,11.981,1.522c4.868-1.088,2.858-11.559,1.621-18.681c-1.062-6.145,0.786-10.977,2.102-14.734
				l0.083,0.019c0.461,1.951,1.08,4.241,1.745,6.881c1.443,5.745,3.683,12.326,3.141,17.286c-0.306,2.785-3.699,8.415-2.756,9.385
				c3.081,3.192,7.891,2.435,11.981,1.523c4.868-1.088,2.858-11.559,1.626-18.682c-1.038-5.96,0.674-10.685,1.975-14.384
				c29.569,2.038,58.736-2.319,84.575-9.713c4.175,5.065,9.488,9.705,15.49,13.353c5.062,3.076,3.683,12.316,3.139,17.286
				c-0.304,2.784-3.697,8.413-2.755,9.385c3.082,3.192,7.889,2.435,11.98,1.523c4.868-1.088-0.15-11.676,1.622-18.682
				C369.209,104.256,375.036,86.146,376.564,74.044z"/>
			<path fill="#A289BC" d="M360.746,146.717c0.296-0.069,0.592-0.125,0.882-0.194c4.868-1.088-0.15-11.676,1.622-18.682
				c5.959-23.584,11.786-41.694,13.315-53.797c2.147-9.54-2.004-19.342-11.616-26.932c-2.217-1.758-14.48-10.773-17.179-12.209
				c-42.91-22.857-28.6-0.893-154.632-26.398c-20.051-4.068-71.776,17.556-103.303,24.437c0.394,2.136,4.465,0.97,15.933-1.639
				c11.473-2.602,66.455-22.496,89.796-16.014c23.341,6.482,93.365,20.681,119.627,18.09c26.253-2.591,48.167,17.305,50.438,37.735
				c2.27,20.418-1.946,30.474-5.188,49.923c-1.936,11.616-1.324,18.954,0.306,25.679H360.746z M224.16,146.717
				c1.193-0.146,2.386-0.388,3.521-0.641c4.868-1.088,2.858-11.559,1.621-18.681c-1.038-6.009,0.699-10.755,2.005-14.462
				c-0.407-2.038-1.398-3.628-3.456,1.941c-2.264,6.163-1.621,11.347-0.645,21.401c0.55,5.686-1.285,8.774-3.048,10.443H224.16z
				 M243.385,148.201c0.752-0.126,1.495-0.282,2.213-0.446c4.868-1.088,2.858-11.559,1.626-18.682
				c-1.038-5.96,0.674-10.685,1.975-14.384l0.758,0.049c-1.054-1.223-2.685-0.872-4.596,2.087
				c-3.567,5.503-1.621,13.936-0.976,23.983C244.622,144.494,244.117,146.776,243.385,148.201L243.385,148.201z"/>
			<path fill="#FFFFFF" d="M82.134,67.251c-1.015,1.707-3.155,2.319-4.777,1.349c-1.62-0.961-2.116-3.125-1.101-4.832
				c1.015-1.71,3.155-2.32,4.78-1.35c1.621,0.959,2.11,3.124,1.096,4.833H82.134z"/>
			<path fill="#2B2A29" d="M81.385,66.435c-0.668,1.126-2.078,1.524-3.145,0.893c-1.068-0.63-1.392-2.058-0.723-3.183
				c0.665-1.126,2.076-1.522,3.144-0.893C81.731,63.893,82.049,65.31,81.385,66.435L81.385,66.435z"/>
			<path fill="#FFFFFF" d="M79.256,65.969c-0.244,0.408-0.757,0.553-1.151,0.321c-0.389-0.234-0.51-0.748-0.267-1.164
				c0.247-0.408,0.762-0.553,1.151-0.32c0.393,0.233,0.509,0.757,0.266,1.164L79.256,65.969z"/>
			<path fill="#8A6EA3" d="M90.14,31.194c-1.626-2.124-3.291-4.171-3.921-6.287c-0.427-1.456-1.306,3.165-1.31,3.494
				c-0.155,8.802,13.873,14.081,5.232,2.795V31.194z"/>
		</g>
	</g>
</g>
</svg>
