<?xml version="1.0" encoding="utf-8"?>
<!-- Generator: Adobe Illustrator 17.0.0, SVG Export Plug-In . SVG Version: 6.00 Build 0)  -->
<!DOCTYPE svg PUBLIC "-//W3C//DTD SVG 1.1 Basic//EN" "http://www.w3.org/Graphics/SVG/1.1/DTD/svg11-basic.dtd">
<svg version="1.1" baseProfile="basic" id="Слой_1"
	 xmlns="http://www.w3.org/2000/svg" xmlns:xlink="http://www.w3.org/1999/xlink" x="0px" y="0px" width="37.995px"
	 height="54.539px" viewBox="0 0 37.995 54.539" xml:space="preserve">
<g>
	<path fill="#87BB50" d="M37.977,30.185c-0.097-0.464-0.489-1.716-0.548-2.077c-2.715-2.115-7.31-11.027-9.59-12.512
		C22.09,13.03,15.677,12,11.3,7.489C9.506,5.64,7.577-0.068,4.778,0.001C3.324,1.898,1.991,3.67,1.023,5.917
		C-4.151,17.935,11.802,22.226,15.469,29.51c1.164,2.315,1.53,8.356,1.393,10.386c-0.435,6.474,5.42,12.263,10.662,13.006
		c0.5-1.648,1.706-2.914,1.885-4.728c-0.273-6.354,0.471-7.462,3.7-12.042c1.323-1.876,3.189-4.342,4.886-5.861
		C37.991,30.249,37.983,30.213,37.977,30.185z"/>
	<path fill="#87BB50" d="M27.272,53.799c-5.649-2.172-8.487-4.603-9.961-7.598c-2.371-4.819-0.387-11.801-2.563-15.69
		c-1.936-3.452-7.503-7.963-10.53-10.375c-1.392-1.108-2.243-1.896-3.193-3.987c-1.305-0.553,0.111,5.216,0.554,5.889
		c5.893,6.204,8.375,16.923,13.151,24.688c2.138,3.476,4.704,6.945,8.946,7.675c0.93,0.16,1.942,0.186,3.045,0.055
		c0.213-0.025,0.424-0.046,0.645-0.084c-0.029-0.179-0.058-0.358-0.087-0.537C27.276,53.824,27.274,53.811,27.272,53.799z"/>
</g>
</svg>
