<?xml version="1.0" encoding="utf-8"?>
<!-- Generator: Adobe Illustrator 17.0.0, SVG Export Plug-In . SVG Version: 6.00 Build 0)  -->
<!DOCTYPE svg PUBLIC "-//W3C//DTD SVG 1.1 Basic//EN" "http://www.w3.org/Graphics/SVG/1.1/DTD/svg11-basic.dtd">
<svg version="1.1" baseProfile="basic" id="Слой_1"
	 xmlns="http://www.w3.org/2000/svg" xmlns:xlink="http://www.w3.org/1999/xlink" x="0px" y="0px" width="412.458px"
	 height="157.479px" viewBox="0 0 412.458 157.479" xml:space="preserve">
<path fill="#8A6EA3" stroke="#FFFFFF" stroke-width="6" stroke-miterlimit="10" d="M404.89,66.737
	c-8.062,4.027-16.047-5.183-26.123-18.712c-8.702-11.682-26.456-13.276-31.701-13.493c-42.041-22.234-28.6-0.664-153.928-26.027
	c-16.217-3.29-53.15,10.224-83.362,19.153c-0.141,0.042-0.284,0.085-0.425,0.126c-1.006,0.297-2,0.585-2.99,0.87
	c-0.156,0.045-0.316,0.092-0.471,0.137c-0.875,0.251-1.736,0.493-2.597,0.734c-0.265,0.074-0.536,0.153-0.8,0.226
	c-0.796,0.221-1.576,0.431-2.357,0.642c-0.317,0.086-0.641,0.176-0.956,0.26c-0.749,0.2-1.482,0.387-2.216,0.576
	c-0.334,0.086-0.676,0.178-1.006,0.261c-0.719,0.182-1.419,0.35-2.121,0.521c-0.332,0.08-0.673,0.168-1.001,0.245
	c-0.563,0.133-1.107,0.253-1.659,0.378c-0.305-0.45-0.639-0.922-1.036-1.44v-0.002H90.14c-1.626-2.124-3.291-4.171-3.921-6.287
	c-0.427-1.456-1.306,3.165-1.31,3.494c-0.022,1.231,0.241,2.389,0.673,3.447c-0.529-0.336-1.12-0.688-1.809-1.06
	c-2.353-1.271-4.712-2.474-6.148-4.143c-0.99-1.147,0.101,3.426,0.228,3.726c1.306,3.054,4.243,4.824,6.729,5.483
	c1.334,2.964-15.081,27.114-31.72,43.77c0.435,0.94,0.614,1.87,0.486,2.778c-0.606,4.317-7.153,9.628-13.466,12.402
	c-5.539,2.429-8.129,2.984-10.258,1.488c-4.154,5.569,22.11,21.119,37.451,15.438c17.324-6.406,40.766-25.816,55.756-37.666
	c22.779-0.089,38.317,8.279,48.59,15.325c13.64,9.365,25.266,15.052,41.673,19.4c0.438,2.368,1.291,5.376,2.223,9.093
	c1.442,5.745,3.683,12.317,3.139,17.286c-0.305,2.785-3.697,8.403-2.756,9.386c2.227,2.306,5.354,2.547,8.46,2.162
	c-0.001,0.001-0.002,0.001-0.002,0.002h0.002v-0.001c0.012-0.001,0.023-0.004,0.034-0.005c0.571-0.072,1.14-0.163,1.703-0.268
	c0.028-0.005,0.056-0.01,0.084-0.015c0.575-0.109,1.144-0.228,1.699-0.352c1.826-0.408,2.684-2.135,2.978-4.511
	c0.098-0.792,0.134-1.656,0.122-2.567c-0.012-0.911-0.072-1.869-0.165-2.85c-0.278-2.941-0.85-6.083-1.314-8.754
	c-0.001-0.005-0.001-0.01-0.002-0.015c-0.064-0.374-0.118-0.744-0.162-1.109c-0.014-0.116-0.021-0.228-0.033-0.343
	c-0.026-0.253-0.053-0.507-0.07-0.756c-0.008-0.112-0.009-0.221-0.015-0.332c-0.013-0.248-0.026-0.496-0.031-0.739
	c-0.002-0.1,0.002-0.197,0.001-0.297c-0.001-0.251-0.002-0.503,0.006-0.749c0.003-0.08,0.009-0.159,0.012-0.238
	c0.011-0.263,0.023-0.524,0.043-0.781c0.005-0.06,0.012-0.119,0.017-0.179c0.023-0.274,0.049-0.546,0.082-0.814
	c0.005-0.042,0.012-0.082,0.017-0.123c0.036-0.285,0.076-0.568,0.121-0.845c0.003-0.019,0.007-0.038,0.01-0.057
	c0.049-0.298,0.103-0.593,0.162-0.883c0-0.001,0-0.002,0.001-0.003c0.494-2.445,1.284-4.591,1.942-6.469l0.083,0.019
	c0.461,1.951,1.08,4.241,1.745,6.881c1.443,5.745,3.683,12.326,3.141,17.286c-0.306,2.785-3.699,8.415-2.756,9.385
	c2.539,2.63,6.252,2.578,9.768,1.968c0,0,0,0.001,0,0.001c0.017-0.003,0.033-0.007,0.05-0.01c0.734-0.128,1.46-0.279,2.163-0.436
	c4.868-1.088,2.858-11.559,1.626-18.682c-1.038-5.96,0.674-10.685,1.975-14.384l0.758,0.049c-0.002-0.003-0.005-0.005-0.007-0.007
	c23.285,1.52,46.299-0.909,67.624-5.648c3.062,2.857,6.485,5.472,10.168,7.713l0.002-0.001c5.059,3.078,3.682,12.317,3.139,17.276
	c-0.304,2.795-3.698,8.415-2.757,9.395c3.082,3.182,7.891,2.435,11.981,1.523c4.868-1.088-0.145-11.675,1.621-18.682
	c0.973-3.85,1.941-7.55,2.889-11.106c1.496,1.105,3.045,2.154,4.647,3.128c5.062,3.076,3.683,12.316,3.139,17.286
	c-0.304,2.784-3.697,8.413-2.755,9.385c2.863,2.965,7.215,2.522,11.098,1.713c0,0.001,0,0.002,0.001,0.003h-0.001v0.001
	c0.296-0.069,0.592-0.125,0.882-0.194c0.456-0.102,0.826-0.288,1.122-0.546c0.129-0.113,0.24-0.244,0.342-0.383
	c0.153-0.208,0.278-0.443,0.378-0.706c0.192-0.503,0.296-1.097,0.333-1.769c0.01-0.18,0.015-0.365,0.017-0.554
	c0.003-0.38-0.011-0.779-0.037-1.194c-0.077-1.246-0.264-2.64-0.45-4.095c-0.155-1.212-0.31-2.466-0.401-3.713
	c-0.036-0.499-0.062-0.996-0.074-1.489c-0.035-1.479,0.058-2.919,0.391-4.232c0.425-1.683,0.849-3.33,1.271-4.957
	c5.497-21.173,10.624-37.601,12.044-48.84c2.147-9.54-2.004-19.342-11.616-26.932c-1.205-0.955-5.374-4.052-9.365-6.912
	c8.195,0.081,18.14,6.14,27.503,17.541C396.616,74.219,405.613,66.803,404.89,66.737z"/>
<g>
	<g>
		<path fill="#8A6EA3" d="M345.591,34.496c0.863,0,23.098,0,33.176,13.529c10.076,13.529,18.061,22.739,26.123,18.712
			c0.723,0.066-8.274,7.482-21.803-8.996c-13.534-16.48-28.286-21.809-37.209-14.033C336.953,51.48,344.727,34.497,345.591,34.496
			L345.591,34.496L345.591,34.496z"/>
		<path fill="#9C8CBA" d="M327.744,116.795c5.059,3.078,3.682,12.317,3.139,17.276c-0.304,2.795-3.698,8.415-2.757,9.395
			c3.082,3.182,7.891,2.435,11.981,1.523c4.868-1.088-0.145-11.675,1.621-18.682c14.724-58.29,28.694-83.144-21.206-66.414
			c-30.591,10.258-17.431,41.898,7.22,56.903L327.744,116.795z"/>
		<path fill="#8A6EA3" d="M83.773,30.788c-2.353-1.271-4.712-2.474-6.148-4.143c-0.99-1.147,0.101,3.426,0.228,3.726
			C81.318,38.475,96.272,37.543,83.773,30.788L83.773,30.788z"/>
		<path fill="#B7A5CD" d="M376.564,74.044c2.147-9.54-2.004-19.342-11.616-26.932c-2.217-1.758-14.48-10.773-17.179-12.209
			c-42.91-22.857-28.6-0.893-154.632-26.398C173.076,4.437,121.314,26.081,89.79,32.952c-0.092,0.019-0.179,0.068-0.271,0.137
			c-3.799,0.747-6.154,1.824-5.1,2.553c2.477,1.728-14.424,26.831-31.557,43.982c0.435,0.94,0.614,1.87,0.486,2.778
			c-0.606,4.317-7.153,9.628-13.466,12.402c-5.539,2.429-8.129,2.984-10.258,1.488c-4.154,5.569,22.11,21.119,37.451,15.438
			c17.324-6.406,40.766-25.816,55.756-37.666c22.779-0.089,38.317,8.279,48.59,15.325c13.64,9.365,25.266,15.052,41.673,19.4
			c0.438,2.368,1.291,5.376,2.223,9.093c1.442,5.745,3.683,12.317,3.139,17.286c-0.305,2.785-3.697,8.403-2.756,9.386
			c3.083,3.192,7.891,2.435,11.981,1.522c4.868-1.088,2.858-11.559,1.621-18.681c-1.062-6.145,0.786-10.977,2.102-14.734
			l0.083,0.019c0.461,1.951,1.08,4.241,1.745,6.881c1.443,5.745,3.683,12.326,3.141,17.286c-0.306,2.785-3.699,8.415-2.756,9.385
			c3.081,3.192,7.891,2.435,11.981,1.523c4.868-1.088,2.858-11.559,1.626-18.682c-1.038-5.96,0.674-10.685,1.975-14.384
			c29.569,2.038,58.736-2.319,84.575-9.713c4.175,5.065,9.488,9.705,15.49,13.353c5.062,3.076,3.683,12.316,3.139,17.286
			c-0.304,2.784-3.697,8.413-2.755,9.385c3.082,3.192,7.889,2.435,11.98,1.523c4.868-1.088-0.15-11.676,1.622-18.682
			C369.209,104.256,375.036,86.146,376.564,74.044z"/>
		<path fill="#A289BC" d="M360.746,146.717c0.296-0.069,0.592-0.125,0.882-0.194c4.868-1.088-0.15-11.676,1.622-18.682
			c5.959-23.584,11.786-41.694,13.315-53.797c2.147-9.54-2.004-19.342-11.616-26.932c-2.217-1.758-14.48-10.773-17.179-12.209
			c-42.91-22.857-28.6-0.893-154.632-26.398c-20.051-4.068-71.776,17.556-103.303,24.437c0.394,2.136,4.465,0.97,15.933-1.639
			c11.473-2.602,66.455-22.496,89.796-16.014s93.365,20.681,119.627,18.09c26.253-2.591,48.167,17.305,50.438,37.735
			c2.27,20.418-1.946,30.474-5.188,49.923c-1.936,11.616-1.324,18.954,0.306,25.679L360.746,146.717L360.746,146.717z
			 M224.16,146.717c1.193-0.146,2.386-0.388,3.521-0.641c4.868-1.088,2.858-11.559,1.621-18.681
			c-1.038-6.009,0.699-10.755,2.005-14.462c-0.407-2.038-1.398-3.628-3.456,1.941c-2.264,6.163-1.621,11.347-0.645,21.401
			c0.55,5.686-1.285,8.774-3.048,10.443L224.16,146.717L224.16,146.717z M243.385,148.201c0.752-0.126,1.495-0.282,2.213-0.446
			c4.868-1.088,2.858-11.559,1.626-18.682c-1.038-5.96,0.674-10.685,1.975-14.384l0.758,0.049c-1.054-1.223-2.685-0.872-4.596,2.087
			c-3.567,5.503-1.621,13.936-0.976,23.983C244.622,144.494,244.117,146.776,243.385,148.201L243.385,148.201z"/>
		<path fill="#FFFFFF" d="M82.134,67.251c-1.015,1.707-3.155,2.319-4.777,1.349c-1.62-0.961-2.116-3.125-1.101-4.832
			c1.015-1.71,3.155-2.32,4.78-1.35c1.621,0.959,2.11,3.124,1.096,4.833H82.134z"/>
		<path fill="#2B2A29" d="M81.385,66.435c-0.668,1.126-2.078,1.524-3.145,0.893c-1.068-0.63-1.392-2.058-0.723-3.183
			c0.665-1.126,2.076-1.522,3.144-0.893C81.731,63.893,82.049,65.31,81.385,66.435L81.385,66.435z"/>
		<path fill="#FFFFFF" d="M79.256,65.969c-0.244,0.408-0.757,0.553-1.151,0.321c-0.389-0.234-0.51-0.748-0.267-1.164
			c0.247-0.408,0.762-0.553,1.151-0.32C79.382,65.039,79.498,65.563,79.256,65.969L79.256,65.969z"/>
		<path fill="#8A6EA3" d="M90.14,31.194c-1.626-2.124-3.291-4.171-3.921-6.287c-0.427-1.456-1.306,3.165-1.31,3.494
			c-0.155,8.802,13.873,14.081,5.232,2.795v-0.002H90.14z"/>
	</g>
</g>
</svg>
