<?xml version="1.0" encoding="utf-8"?>
<!-- Generator: Adobe Illustrator 17.0.0, SVG Export Plug-In . SVG Version: 6.00 Build 0)  -->
<!DOCTYPE svg PUBLIC "-//W3C//DTD SVG 1.1 Basic//EN" "http://www.w3.org/Graphics/SVG/1.1/DTD/svg11-basic.dtd">
<svg version="1.1" baseProfile="basic" id="Слой_1"
	 xmlns="http://www.w3.org/2000/svg" xmlns:xlink="http://www.w3.org/1999/xlink" x="0px" y="0px" width="123.069px"
	 height="88.462px" viewBox="0 0 123.069 88.462" xml:space="preserve">
<path fill="#BAAE52" d="M109.547,25.478c0.002-0.019,0.004-0.038,0.006-0.057l0.072-0.744C94.194,10.481,73.96,1.357,52.999,0.228
	C36.964-0.947,19.706,2.252,8.418,13.695c-6.589,6.587-8.884,16.216-8.341,25.593l0.011,0.009c-0.004-0.003-0.008-0.006-0.012-0.009
	c4.588,18.348,20.685,33.134,38.049,40.415c20.117,9.6,45.085,12.267,65.424,3.135c10.791-4.415,17.331-14.996,19.455-26.054
	C123.782,45.152,117.49,34.148,109.547,25.478z"/>
</svg>
