<?xml version="1.0" encoding="utf-8"?>
<!-- Generator: Adobe Illustrator 17.0.0, SVG Export Plug-In . SVG Version: 6.00 Build 0)  -->
<!DOCTYPE svg PUBLIC "-//W3C//DTD SVG 1.1 Basic//EN" "http://www.w3.org/Graphics/SVG/1.1/DTD/svg11-basic.dtd">
<svg version="1.1" baseProfile="basic" id="Слой_1"
	 xmlns="http://www.w3.org/2000/svg" xmlns:xlink="http://www.w3.org/1999/xlink" x="0px" y="0px" width="300.5px"
	 height="246.125px" viewBox="0 0 300.5 246.125" xml:space="preserve">
<path fill="#EB7272" d="M1602.97,686.224c0.358-0.247,0.715-0.495,1.073-0.742c0.084,0.127,0.169,0.254,0.253,0.381
	c-0.434,0.129-0.868,0.259-1.302,0.388C1602.994,686.25,1602.97,686.224,1602.97,686.224z"/>
<path fill="#EB7272" d="M1570.006,1049.175c0.243,0.36,0.489,0.718,0.714,1.089c0.004,0.007-0.235,0.163-0.361,0.249
	c-0.133-0.432-0.267-0.865-0.401-1.297C1569.957,1049.216,1570.006,1049.175,1570.006,1049.175z"/>
<g>
	<g id="Слой_x0020_1_2_">
		<path fill="#A16931" d="M234.052,52.04c1.723,1.127,3.376,2.413,4.943,3.901c10.016,8.289,8.395,22.922,17.793,31.974
			c16.453,17.274,34.198,36.462,37.178,60.515c-4.629,15.846-14.581,30.256-29.893,37.485c-2.229,1.152-4.61,1.89-7.057,2.432
			c1.001-0.358,1.983-0.775,2.935-1.268c15.313-7.229,25.265-21.638,29.895-37.485l-0.021-0.157c0.373-1.085,0.721-2.179,1.043-3.28
			c-2.981-24.052-20.725-43.24-37.177-60.515c-9.4-9.052-7.778-23.685-17.794-31.974C235.295,53.095,234.679,52.555,234.052,52.04z
			 M239.53,191.78c-1.853,0.667-3.626,1.537-5.273,2.724c-8.654,6.924-11.837,18.486-21.416,24.476
			c-7.253,4.598-15.272,7.972-23.656,10.119c6.89-2.13,13.48-5.116,19.535-8.955c9.579-5.989,12.763-17.551,21.416-24.475
			C232.973,193.624,236.176,192.518,239.53,191.78z"/>
		<path fill="#A16931" d="M290.87,146.157c0.593,3.405,0.319,6.931-0.95,10.253c-4.499,13.809-12.98,26.815-26.583,33.278
			c-8.532,4.907-19.072,4.191-27.749,8.24c-9.08,7.272-13.013,19.256-23.106,25.777c-17.61,12.164-40.907,12.561-62.045,10.06
			c-25.331-3.405-51.959-11.066-70.645-29.384c-10.074-9.358-16.461-21.973-25.057-32.729
			c-10.341-12.886-27.343-18.428-39.151-29.906c-4.574-4.208-6.617-10.352-7.207-16.109c6.561,6.952,13.051,14.647,21.696,19.449
			c13.95,8.025,27.745,17.561,35.53,31.853c17.339,29.429,50.906,47.347,84.494,51.71c20.612,3.049,42.315-0.956,59.645-11.943
			c9.579-5.989,12.763-17.551,21.416-24.475c8.582-6.186,20.518-3.779,29.818-8.589C276.288,176.412,286.239,162.002,290.87,146.157
			z"/>
	</g>
	<path fill="#FFFFFF" d="M253.691,85.642c-9.4-9.053-7.778-23.685-17.793-31.975c-13.969-13.256-34.762-10.655-50.722-19.624
		C155.672,18.535,122.137,3.5,88.467,9.255c-18.37,2.679-33.023,14.925-43.643,29.023c-10.378,14.737-9.357,34.237-20.851,48.454
		c-0.615,0.752-1.638,2.364-2.357,3.34c-1.043,1.07-2.789,3.657-3.934,4.946c-0.915,1.397-3.203,3.99-4.351,5.285
		c-4.131,7.725-6.243,16.388-4.953,25.333c6.561,6.952,13.051,14.647,21.696,19.449c13.95,8.025,27.745,17.561,35.53,31.853
		c17.339,29.429,50.906,47.347,84.494,51.71c20.612,3.049,42.315-0.956,59.645-11.943c9.579-5.989,12.763-17.551,21.416-24.475
		c8.582-6.186,20.518-3.779,29.818-8.589c15.313-7.23,25.264-21.639,29.895-37.485C287.888,122.104,270.144,102.916,253.691,85.642z
		 M208.18,132.141c-2.124,11.058-8.664,21.639-19.455,26.054c-20.339,9.132-45.307,6.465-65.424-3.135
		c-17.364-7.281-33.46-22.067-38.049-40.415c0.004,0.003,0.007,0.005,0.011,0.008l-0.01-0.008
		c-0.543-9.378,1.752-19.006,8.341-25.593c11.289-11.444,28.547-14.642,44.581-13.467c20.961,1.129,41.195,10.253,56.627,24.449
		l-0.072,0.744c-0.002,0.018-0.004,0.037-0.006,0.055C202.666,109.503,208.959,120.508,208.18,132.141z"/>
</g>
</svg>
