<?xml version="1.0" encoding="utf-8"?>
<!-- Generator: Adobe Illustrator 17.0.0, SVG Export Plug-In . SVG Version: 6.00 Build 0)  -->
<!DOCTYPE svg PUBLIC "-//W3C//DTD SVG 1.1 Basic//EN" "http://www.w3.org/Graphics/SVG/1.1/DTD/svg11-basic.dtd">
<svg version="1.1" baseProfile="basic" id="Слой_1"
	 xmlns="http://www.w3.org/2000/svg" xmlns:xlink="http://www.w3.org/1999/xlink" x="0px" y="0px" width="348.542px"
	 height="199.083px" viewBox="0 0 348.542 199.083" xml:space="preserve">
<path fill="#323432" stroke="#FFFFFF" stroke-width="6" stroke-miterlimit="10" d="M335.47,74.715
	c0.048-0.163,0.091-0.324,0.137-0.487c0.265-0.934,0.511-1.864,0.725-2.789c0.004-0.016,0.008-0.032,0.012-0.047
	c0.218-0.942,0.403-1.878,0.571-2.81c0.029-0.16,0.059-0.319,0.086-0.479c0.155-0.906,0.289-1.807,0.398-2.701
	c0.016-0.134,0.03-0.268,0.045-0.402c0.104-0.9,0.189-1.794,0.248-2.68c0.002-0.03,0.005-0.061,0.007-0.091
	c0.059-0.902,0.089-1.796,0.103-2.683c0.002-0.151,0.005-0.302,0.006-0.453c0.006-0.863-0.006-1.719-0.04-2.566
	c-0.005-0.123-0.013-0.244-0.019-0.366c-0.039-0.818-0.094-1.629-0.169-2.431c-0.007-0.071-0.011-0.144-0.018-0.215
	c-0.08-0.822-0.184-1.633-0.301-2.436c-0.025-0.169-0.049-0.338-0.076-0.507c-0.122-0.778-0.258-1.548-0.412-2.307
	c-0.029-0.144-0.063-0.286-0.093-0.43c-0.145-0.68-0.303-1.353-0.474-2.016c-0.035-0.136-0.067-0.274-0.103-0.409
	c-0.189-0.707-0.395-1.4-0.611-2.086c-0.064-0.204-0.13-0.407-0.197-0.61c-0.219-0.661-0.447-1.315-0.691-1.955
	c-0.07-0.184-0.145-0.363-0.217-0.545c-0.205-0.519-0.418-1.03-0.639-1.533c-0.084-0.193-0.166-0.388-0.253-0.578
	c-0.264-0.579-0.541-1.145-0.825-1.703c-0.116-0.228-0.234-0.453-0.353-0.678c-0.287-0.539-0.58-1.071-0.885-1.588
	c-0.117-0.199-0.24-0.39-0.359-0.585c-0.238-0.389-0.482-0.771-0.73-1.146c-0.134-0.203-0.267-0.409-0.404-0.608
	c-0.325-0.471-0.658-0.928-0.998-1.376c-0.153-0.202-0.308-0.4-0.464-0.597c-0.074-0.093-0.207-0.256-0.201-0.243
	c-5.965-7.397-13.965-11.261-21.753-9.523c-4.665-9.668-5.727-13.895-15.537-11.312c-7.158,1.878-10.435,4.018-11.789,5.008
	c-9.182-0.233-18.107,1.475-25.124,5.637c-14.481,8.598,19.991,43.626,10.792,47.396c-1.502-0.288-3.038-0.56-4.604-0.795
	c-7.358-1.144-14.545-2.1-21.573-2.81c-3.203-6.008-10.022-9.008-19.553-5.591c-3.598,1.286-5.612,2.734-6.567,4.219
	c-43.125,0.167-79.881,14.217-112.504,59.38c-5.981,8.272-17.437,24.722-23.189,23.052c-12.656-3.654-22.316-32.094-18.272-49.445
	C60.439,86.941,11.581,117.483,8,120.681c10.573,14.049,31.884,36.294,88.015,57.129c37.688,13.992,108.001,13.441,155.358-6.373
	c1.914,0.898,4.611,1.191,8.353,0.528c9.747-1.73,14.827-7.458,16.128-14.212c7.231-5.449,13.137-11.69,17.274-18.768
	c5.116-8.769,11.467-16.556,17.774-24.293c8.644-10.594,17.21-21.082,22.42-33.829c0.392-0.958,0.747-1.913,1.084-2.865
	c0.063-0.177,0.127-0.354,0.188-0.531C334.911,76.547,335.203,75.629,335.47,74.715z"/>
<polygon fill="#A8A8A8" stroke="#272525" stroke-width="3" stroke-miterlimit="10" points="557.307,189.762 557.307,189.762 
	557.306,189.761 "/>
<g id="Слой_x0020_1">
	<path fill="#6F7A98" d="M333.322,80.863c13.912-33.999-7.142-65.193-26.796-60.807c-4.665-9.668-5.727-13.895-15.537-11.312
		c-7.158,1.878-10.435,4.018-11.789,5.008c-9.182-0.233-18.107,1.475-25.124,5.637c-14.481,8.598,19.991,43.626,10.792,47.396
		c-1.502-0.288-3.038-0.56-4.604-0.796c-64.599-10.046-116.161-5.765-160.196,55.198c-5.981,8.272-17.437,24.722-23.189,23.052
		c-12.656-3.654-22.316-32.094-18.272-49.445C60.439,86.941,11.581,117.483,8,120.681c10.573,14.049,31.884,36.294,88.015,57.129
		c52.458,19.476,168.121,10.776,197.113-38.825c5.116-8.769,11.467-16.556,17.774-24.293
		C319.546,104.098,328.111,93.61,333.322,80.863L333.322,80.863z"/>
	<path fill="#55617D" d="M333.322,80.863c8.409-20.549,4.045-40.052-5.061-51.323c4.001,8.204,11.105,29.485-2.488,50.761
		c-17.467,27.332-29.612,33.79-40.626,53.908c-11.01,20.116-45.937,48.597-109.723,47.84c-63.787-0.757-95.299-13.673-111.626-28.1
		c-11.35-10.035-24.35-28.871-30.835-48.989C21.286,111.688,9.675,119.193,8,120.681c10.573,14.049,31.884,36.294,88.015,57.129
		c52.458,19.476,168.121,10.776,197.113-38.825c5.116-8.769,11.467-16.556,17.774-24.293
		C319.546,104.098,328.111,93.61,333.322,80.863L333.322,80.863z"/>
	<path fill="#BCC8DC" d="M282.973,88.846c19.257,22.714-5.43,71.586-67.151,78.996c-61.72,7.409-103.395,1.97-104.679-28.142
		c-1.848-43.248,44.526-61.12,83.587-67.67c25.162-4.228,71.158-3.339,88.243,16.818V88.846z"/>
	<path fill="#424E6B" d="M260.497,38.555c0,2.959,1.77,5.309,4.926,7.344c3.361,2.165,8.106,3.927,7.547,3.953
		c-4.468,0.195-16.039-7.032-17.859-11.297c-0.382-0.888,3.17,2.935,4.302,1.814c0.178-0.184,0.178-1.632,0.178-1.998
		C259.591,37.653,260.497,37.106,260.497,38.555L260.497,38.555z"/>
	<path fill="#FFFFFF" d="M297.283,32.971c1.037,4.122,5.388,6.745,9.723,5.845c4.332-0.888,7.005-4.945,5.972-9.068
		c-1.038-4.111-5.391-6.731-9.723-5.845C298.92,24.791,296.248,28.849,297.283,32.971L297.283,32.971z"/>
	<path fill="#2B2A29" d="M300.175,32.083c0.681,2.713,3.544,4.436,6.396,3.862c2.853-0.588,4.614-3.262,3.933-5.976
		c-0.682-2.713-3.549-4.436-6.398-3.847C301.254,26.707,299.494,29.383,300.175,32.083L300.175,32.083z"/>
	<path fill="#FFFFFF" d="M305.286,32.528c0.248,0.99,1.299,1.631,2.338,1.409c1.042-0.21,1.683-1.187,1.435-2.179
		c-0.248-0.993-1.295-1.617-2.335-1.41C305.682,30.57,305.038,31.536,305.286,32.528L305.286,32.528z"/>
	<path fill="#FFFFFF" d="M288.646,17.105c0.779,3.026,4.051,4.96,7.309,4.307c3.255-0.654,5.264-3.639,4.487-6.668
		c-0.779-3.04-4.049-4.957-7.305-4.305c-3.258,0.653-5.267,3.642-4.491,6.668V17.105z"/>
	<path fill="#2B2A29" d="M290.818,16.452c0.515,1.996,2.668,3.263,4.815,2.833c2.138-0.43,3.464-2.388,2.95-4.383
		c-0.511-1.998-2.664-3.263-4.807-2.831c-2.145,0.43-3.467,2.388-2.958,4.383V16.452z"/>
	<path fill="#FFFFFF" d="M294.661,16.778c0.188,0.731,0.973,1.202,1.759,1.045c0.781-0.169,1.263-0.886,1.078-1.604
		c-0.188-0.731-0.973-1.2-1.755-1.043c-0.784,0.155-1.269,0.873-1.08,1.603L294.661,16.778z"/>
	<path fill="#434F71" d="M236.938,86.109c-1.14,2.097-13.784,22.986-15.468,16.097c-1.318-5.389,1.704-5.138-4.18-4.097
		c-3.993,0.718,0.32-4.787-1.076-4.918c-2.594-0.25-2.92,2.74-4.639,0.678c-4.465-5.362,16.223-15.42,8.013-20.756
		c-3.337-2.166-15.303-10.215-0.451-15.525C237.928,50.854,246.203,69.03,236.938,86.109z"/>
	<path fill="#434F71" d="M263.825,132.826c-1.977-1.239-23.017-12.98-22.272-6.027c0.583,5.44,3.688,3.628-2.92,5.792
		c-4.491,1.473,2.094,4.058,0.663,4.906c-2.653,1.579-4.094-0.873-5.156,1.853c-2.761,7.057,22.827,5.035,16.094,14.05
		c-2.736,3.652-8.183,21.697,9.492,18.565C282.08,167.998,279.902,143.002,263.825,132.826L263.825,132.826z"/>
	<path fill="#323432" d="M273.224,34.548c-8.537,1.318-16.166,6.981-16.003,0.849c0.051-1.946-0.241-4.737,0.026-8.755
		c1.295-19.467,28.31,6.029,15.979,7.907L273.224,34.548z"/>
</g>
</svg>
