<?xml version="1.0" encoding="utf-8"?>
<!-- Generator: Adobe Illustrator 17.0.0, SVG Export Plug-In . SVG Version: 6.00 Build 0)  -->
<!DOCTYPE svg PUBLIC "-//W3C//DTD SVG 1.1 Basic//EN" "http://www.w3.org/Graphics/SVG/1.1/DTD/svg11-basic.dtd">
<svg version="1.1" baseProfile="basic" id="Слой_1"
	 xmlns="http://www.w3.org/2000/svg" xmlns:xlink="http://www.w3.org/1999/xlink" x="0px" y="0px" width="348.542px"
	 height="199.083px" viewBox="0 0 348.542 199.083" xml:space="preserve">
<polygon fill="#A8A8A8" stroke="#272525" stroke-width="3" stroke-miterlimit="10" points="557.307,189.762 557.307,189.762 
	557.306,189.761 "/>
<path fill="#A8A8A8" stroke="#272525" stroke-width="3" stroke-miterlimit="10" d="M76.881,143.732
	c-12.656-3.654-22.316-32.094-18.272-49.445c1.833-7.854-47.025,22.687-50.606,25.885c9.79,13.009,28.809,33.044,76.132,52.481
	c-0.305-10-1.205-19.908-3.698-29.613C79.113,143.744,77.906,144.029,76.881,143.732z"/>
<path fill="#A8A8A8" stroke="#272525" stroke-width="3" stroke-miterlimit="10" d="M110.71,139.892
	c-1.848-43.248,44.526-61.12,83.586-67.67c5.973-1.004,13.126-1.713,20.782-1.951c-2.566-2.284-4.816-5.351-2.941-8.271
	c-43.125,0.167-79.881,14.217-112.504,59.38c-4.916,6.799-13.527,19.113-19.633,22.36c1.226,4.773,2.064,9.596,2.638,14.454
	c9.904-3.119,19.768-6.618,29.763-9.706C111.42,145.879,110.844,143.021,110.71,139.892z"/>
<path fill="#A8A8A8" stroke="#272525" stroke-width="3" stroke-miterlimit="10" d="M247.765,158.892
	c-9.211,4.14-19.896,7.199-32.015,8.654c-55.308,6.639-94.513,2.957-102.987-19.546c-9.995,3.088-19.86,6.587-29.763,9.706
	c0.593,5.02,0.905,10.078,1.06,15.16c3.784,1.554,7.727,3.105,11.883,4.648c37.688,13.992,108.001,13.441,155.358-6.373
	C246.742,169.004,246.661,163.408,247.765,158.892z"/>
<path fill="#A8A8A8" stroke="#272525" stroke-width="3" stroke-miterlimit="10" d="M237.002,85.958
	c-1.14,2.097-13.784,22.986-15.468,16.097c-1.318-5.389,1.704-5.138-4.18-4.097c-3.993,0.718,0.32-4.787-1.076-4.918
	c-2.594-0.25-2.92,2.74-4.639,0.678c-4.465-5.362,16.223-15.42,8.013-20.756c-3.337-2.166-15.303-10.215-0.451-15.525
	C237.992,50.703,246.267,68.879,237.002,85.958z"/>
<path fill="#A8A8A8" stroke="#272525" stroke-width="3" stroke-miterlimit="10" d="M263.894,133.214
	c-1.977-1.239-23.017-12.98-22.272-6.027c0.583,5.44,3.688,3.628-2.92,5.792c-4.491,1.473,2.094,4.058,0.663,4.906
	c-2.653,1.579-4.094-0.873-5.156,1.853c-2.761,7.057,22.827,5.035,16.094,14.05c-2.736,3.652-8.183,21.697,9.492,18.565
	C282.149,168.386,279.971,143.39,263.894,133.214L263.894,133.214z"/>
<path fill="#A8A8A8" stroke="#272525" stroke-width="3" stroke-miterlimit="10" d="M338.079,56.527
	c-0.005-0.123-0.013-0.244-0.019-0.366c-0.039-0.818-0.094-1.629-0.169-2.431c-0.007-0.071-0.011-0.144-0.018-0.215
	c-0.08-0.822-0.184-1.633-0.301-2.436c-0.025-0.169-0.049-0.338-0.076-0.507c-0.122-0.778-0.258-1.548-0.412-2.307
	c-0.029-0.144-0.063-0.286-0.093-0.43c-0.145-0.681-0.303-1.353-0.474-2.016c-0.035-0.136-0.067-0.273-0.103-0.409
	c-0.188-0.707-0.395-1.4-0.611-2.086c-0.064-0.204-0.13-0.407-0.197-0.61c-0.219-0.661-0.447-1.315-0.691-1.955
	c-0.07-0.184-0.145-0.363-0.217-0.545c-0.205-0.518-0.418-1.029-0.639-1.533c-0.085-0.193-0.166-0.388-0.253-0.579
	c-0.264-0.579-0.541-1.145-0.825-1.703c-0.116-0.227-0.233-0.452-0.352-0.676c-0.287-0.54-0.58-1.072-0.885-1.589
	c-0.117-0.198-0.239-0.389-0.359-0.584c-0.239-0.389-0.482-0.771-0.73-1.146c-0.135-0.203-0.267-0.409-0.404-0.608
	c-0.324-0.471-0.658-0.928-0.998-1.376c-0.153-0.202-0.308-0.4-0.464-0.597c-0.074-0.093-0.207-0.256-0.201-0.243
	c-5.965-7.397-13.965-11.261-21.753-9.523c-4.665-9.668-5.727-13.895-15.537-11.312c-7.157,1.878-10.435,4.018-11.789,5.008
	c-9.182-0.233-18.107,1.475-25.124,5.637c-14.481,8.598,19.991,43.626,10.792,47.396c-1.502-0.288-3.038-0.56-4.604-0.796
	c-7.358-1.144-14.545-2.1-21.573-2.81c1.218,2.285,1.909,5.004,2.029,7.975c17.209,2.122,33.514,7.383,42.253,17.693v-0.002
	c11.306,13.336,7.457,35.687-10.135,53.371c2.851,4.934,3.982,10.516,3.015,15.535c7.231-5.449,13.137-11.69,17.274-18.768
	c5.116-8.769,11.467-16.556,17.774-24.293c8.644-10.594,17.21-21.082,22.421-33.828c0.392-0.958,0.747-1.913,1.084-2.865
	c0.063-0.177,0.127-0.354,0.188-0.531c0.317-0.921,0.609-1.838,0.876-2.752c0.048-0.163,0.092-0.325,0.138-0.487
	c0.265-0.933,0.51-1.864,0.725-2.789c0.004-0.016,0.008-0.032,0.012-0.048c0.218-0.942,0.403-1.878,0.571-2.81
	c0.029-0.16,0.058-0.319,0.086-0.479c0.155-0.906,0.289-1.807,0.398-2.701c0.016-0.134,0.03-0.268,0.045-0.402
	c0.104-0.899,0.189-1.794,0.248-2.68c0.002-0.03,0.005-0.061,0.007-0.091c0.059-0.902,0.089-1.795,0.103-2.683
	c0.002-0.151,0.005-0.302,0.006-0.453C338.125,58.23,338.113,57.374,338.079,56.527z"/>
<path fill="#A8A8A8" stroke="#272525" stroke-width="3" stroke-miterlimit="10" d="M111.053,139.621
	c1.279,29.99,42.624,35.505,103.931,28.23c-6.636-32.123-15.911-63.641-26.143-94.851
	C151.143,80.318,109.296,98.496,111.053,139.621z"/>
<path fill="#A8A8A8" stroke="#272525" stroke-width="3" stroke-miterlimit="10" d="M283.042,88.767v0.002
	c-8.739-10.31-25.044-15.571-42.253-17.693c0.187,4.617-1.004,9.832-3.781,14.953c-1.14,2.097-13.784,22.986-15.468,16.098
	c-1.318-5.389,1.705-5.138-4.18-4.097c-3.993,0.718,0.32-4.787-1.076-4.918c-2.594-0.25-2.92,2.74-4.639,0.678
	c-4.465-5.362,16.223-15.42,8.013-20.756c-0.939-0.609-2.561-1.685-4.077-3.034c-7.656,0.238-14.809,0.947-20.782,1.951
	c-1.917,0.322-3.853,0.671-5.799,1.049c10.232,31.21,19.507,62.728,26.143,94.851c0.25-0.03,0.497-0.058,0.748-0.088
	c12.119-1.455,22.804-4.514,32.015-8.654c0.623-2.547,1.618-4.75,2.396-5.788c6.733-9.015-18.855-6.993-16.094-14.05
	c1.062-2.726,2.503-0.274,5.156-1.853c1.431-0.849-5.154-3.433-0.663-4.906c6.608-2.164,3.503-0.352,2.92-5.792
	c-0.745-6.953,20.296,4.789,22.272,6.027c3.857,2.441,6.903,5.74,9.014,9.392C290.499,124.454,294.348,102.103,283.042,88.767z"/>
</svg>
