<?xml version="1.0" encoding="utf-8"?>
<!-- Generator: Adobe Illustrator 17.0.0, SVG Export Plug-In . SVG Version: 6.00 Build 0)  -->
<!DOCTYPE svg PUBLIC "-//W3C//DTD SVG 1.1 Basic//EN" "http://www.w3.org/Graphics/SVG/1.1/DTD/svg11-basic.dtd">
<svg version="1.1" baseProfile="basic" id="Слой_1"
	 xmlns="http://www.w3.org/2000/svg" xmlns:xlink="http://www.w3.org/1999/xlink" x="0px" y="0px" width="348.542px"
	 height="199.083px" viewBox="0 0 348.542 199.083" xml:space="preserve">
<polygon fill="#A8A8A8" stroke="#272525" stroke-width="3" stroke-miterlimit="10" points="557.307,189.762 557.307,189.762 
	557.306,189.761 "/>
<path fill="#A8A8A8" stroke="#272525" stroke-width="3" stroke-miterlimit="10" d="M335.473,74.717
	c0.048-0.164,0.092-0.328,0.139-0.491c0.264-0.931,0.509-1.859,0.723-2.781c0.004-0.018,0.009-0.036,0.013-0.054
	c0.218-0.942,0.403-1.877,0.57-2.808c0.029-0.16,0.058-0.32,0.086-0.479c0.155-0.906,0.289-1.807,0.398-2.701
	c0.016-0.134,0.03-0.268,0.045-0.402c0.104-0.899,0.189-1.794,0.248-2.68c0.002-0.03,0.005-0.061,0.007-0.091
	c0.059-0.902,0.089-1.795,0.103-2.683c0.002-0.151,0.005-0.302,0.006-0.453c0.006-0.863-0.006-1.719-0.04-2.567
	c-0.005-0.122-0.013-0.243-0.019-0.365c-0.039-0.819-0.094-1.63-0.169-2.432c-0.007-0.071-0.011-0.144-0.018-0.215
	c-0.08-0.822-0.184-1.632-0.301-2.435c-0.025-0.17-0.05-0.339-0.076-0.507c-0.122-0.778-0.257-1.547-0.412-2.305
	c-0.03-0.146-0.063-0.289-0.094-0.434c-0.145-0.679-0.302-1.351-0.473-2.013c-0.035-0.136-0.067-0.274-0.103-0.409
	c-0.188-0.706-0.394-1.399-0.611-2.084c-0.065-0.206-0.131-0.41-0.198-0.614c-0.219-0.661-0.447-1.314-0.69-1.953
	c-0.07-0.184-0.145-0.363-0.217-0.545c-0.205-0.518-0.418-1.029-0.639-1.533c-0.085-0.193-0.166-0.388-0.253-0.579
	c-0.264-0.579-0.541-1.145-0.825-1.703c-0.116-0.227-0.233-0.452-0.352-0.675c-0.287-0.54-0.581-1.073-0.886-1.591
	c-0.117-0.198-0.239-0.389-0.358-0.583c-0.239-0.39-0.483-0.773-0.732-1.149c-0.134-0.202-0.266-0.407-0.402-0.606
	c-0.325-0.471-0.659-0.929-0.999-1.377c-0.153-0.202-0.308-0.4-0.463-0.596c-0.074-0.093-0.207-0.256-0.201-0.243
	c-5.965-7.397-13.965-11.261-21.754-9.523c-4.665-9.668-5.727-13.895-15.537-11.312c-7.157,1.878-10.435,4.018-11.789,5.008
	c-9.182-0.233-18.107,1.475-25.124,5.637c-14.481,8.598,19.991,43.626,10.792,47.396c-1.502-0.288-3.038-0.56-4.604-0.796
	c-7.358-1.144-14.545-2.1-21.573-2.81c-3.203-6.008-10.022-9.008-19.553-5.591c-3.598,1.286-5.612,2.734-6.567,4.219
	c-43.125,0.167-79.881,14.217-112.504,59.38c-5.981,8.272-17.437,24.722-23.189,23.052c-12.656-3.654-22.316-32.094-18.272-49.445
	C60.439,86.942,11.581,117.483,8,120.681c10.573,14.049,31.884,36.294,88.015,57.129c37.688,13.992,108.001,13.441,155.358-6.373
	c1.914,0.898,4.611,1.191,8.353,0.528c9.747-1.73,14.827-7.458,16.128-14.212c7.23-5.449,13.137-11.69,17.274-18.768
	c5.116-8.769,11.467-16.556,17.774-24.293c8.644-10.594,17.21-21.082,22.42-33.828c0.392-0.958,0.747-1.913,1.084-2.865
	c0.063-0.177,0.127-0.354,0.188-0.531C334.913,76.547,335.205,75.631,335.473,74.717z"/>
</svg>
