<?xml version="1.0" encoding="utf-8"?>
<!-- Generator: Adobe Illustrator 17.0.0, SVG Export Plug-In . SVG Version: 6.00 Build 0)  -->
<!DOCTYPE svg PUBLIC "-//W3C//DTD SVG 1.1 Basic//EN" "http://www.w3.org/Graphics/SVG/1.1/DTD/svg11-basic.dtd">
<svg version="1.1" baseProfile="basic" id="Слой_1"
	 xmlns="http://www.w3.org/2000/svg" xmlns:xlink="http://www.w3.org/1999/xlink" x="0px" y="0px" width="99.12px"
	 height="149.753px" viewBox="0 0 99.12 149.753" xml:space="preserve">
<path fill="#68B9C0" d="M99.079,48.527c-0.005-0.123-0.013-0.244-0.019-0.366c-0.039-0.818-0.094-1.629-0.169-2.431
	c-0.007-0.071-0.011-0.144-0.018-0.215c-0.08-0.822-0.184-1.633-0.301-2.436c-0.025-0.169-0.049-0.338-0.076-0.507
	c-0.122-0.778-0.258-1.548-0.412-2.307c-0.029-0.144-0.063-0.286-0.093-0.43c-0.145-0.681-0.303-1.353-0.474-2.016
	c-0.035-0.136-0.067-0.273-0.103-0.409c-0.188-0.707-0.395-1.4-0.611-2.086c-0.064-0.204-0.13-0.407-0.197-0.61
	c-0.219-0.661-0.447-1.315-0.691-1.955c-0.07-0.184-0.145-0.363-0.217-0.545c-0.205-0.518-0.418-1.029-0.639-1.533
	c-0.085-0.193-0.166-0.388-0.253-0.579c-0.264-0.579-0.541-1.145-0.825-1.703c-0.116-0.227-0.233-0.452-0.352-0.676
	c-0.287-0.54-0.58-1.072-0.885-1.589c-0.117-0.198-0.239-0.389-0.359-0.584c-0.239-0.389-0.482-0.771-0.73-1.146
	c-0.135-0.203-0.267-0.409-0.404-0.608c-0.324-0.471-0.658-0.928-0.998-1.376c-0.153-0.202-0.308-0.4-0.464-0.597
	c-0.074-0.093-0.207-0.256-0.201-0.243c-5.965-7.397-13.965-11.261-21.753-9.523C63.17,2.388,62.108-1.839,52.298,0.744
	C45.14,2.623,41.862,4.762,40.509,5.752C31.327,5.52,22.402,7.228,15.385,11.39C0.904,19.987,35.376,55.016,26.177,58.786
	c-1.502-0.288-3.038-0.56-4.604-0.796c-7.358-1.144-14.545-2.1-21.573-2.81c1.218,2.285,1.909,5.004,2.029,7.975
	c17.209,2.122,33.514,7.383,42.253,17.693v-0.002c11.306,13.336,7.457,35.687-10.135,53.371c2.851,4.934,3.982,10.516,3.015,15.535
	c7.231-5.449,13.137-11.69,17.274-18.768c5.116-8.769,11.467-16.556,17.774-24.293c8.644-10.594,17.21-21.082,22.421-33.828
	c0.392-0.958,0.747-1.913,1.084-2.865c0.063-0.177,0.127-0.354,0.188-0.531c0.317-0.921,0.609-1.838,0.876-2.752
	c0.048-0.163,0.092-0.325,0.138-0.487c0.265-0.933,0.51-1.864,0.725-2.789c0.004-0.016,0.008-0.032,0.012-0.048
	c0.218-0.942,0.403-1.878,0.571-2.81c0.029-0.16,0.058-0.319,0.086-0.479c0.155-0.906,0.289-1.807,0.398-2.701
	c0.016-0.134,0.03-0.268,0.045-0.402c0.104-0.899,0.189-1.794,0.248-2.68c0.002-0.03,0.005-0.061,0.007-0.091
	c0.059-0.902,0.089-1.795,0.103-2.683c0.002-0.151,0.005-0.302,0.006-0.453C99.125,50.23,99.113,49.374,99.079,48.527z"/>
</svg>
