<?xml version="1.0" encoding="utf-8"?>
<!-- Generator: Adobe Illustrator 17.0.0, SVG Export Plug-In . SVG Version: 6.00 Build 0)  -->
<!DOCTYPE svg PUBLIC "-//W3C//DTD SVG 1.1 Basic//EN" "http://www.w3.org/Graphics/SVG/1.1/DTD/svg11-basic.dtd">
<svg version="1.1" baseProfile="basic" id="Слой_1"
	 xmlns="http://www.w3.org/2000/svg" xmlns:xlink="http://www.w3.org/1999/xlink" x="0px" y="0px" width="100.443px"
	 height="97.851px" viewBox="0 0 100.443 97.851" xml:space="preserve">
<path fill="#337F85" d="M94.042,18.766v0.002C85.303,8.458,68.998,3.197,51.789,1.076c0.187,4.617-1.004,9.832-3.781,14.953
	c-1.14,2.097-13.784,22.986-15.468,16.098c-1.318-5.389,1.705-5.138-4.18-4.097c-3.993,0.718,0.32-4.787-1.076-4.918
	c-2.594-0.25-2.92,2.74-4.639,0.678c-4.465-5.362,16.223-15.42,8.013-20.756C29.719,2.425,28.096,1.349,26.581,0
	C18.925,0.238,11.772,0.947,5.799,1.951C3.881,2.272,1.946,2.622,0,3c10.232,31.21,19.507,62.728,26.143,94.851
	c0.25-0.03,0.497-0.058,0.748-0.088c12.119-1.455,22.804-4.514,32.015-8.654c0.623-2.547,1.618-4.75,2.396-5.788
	c6.733-9.015-18.855-6.993-16.094-14.05c1.062-2.726,2.503-0.274,5.156-1.853c1.431-0.849-5.154-3.433-0.663-4.906
	c6.608-2.164,3.503-0.352,2.92-5.792c-0.745-6.953,20.296,4.789,22.272,6.027c3.857,2.441,6.903,5.74,9.014,9.392
	C101.499,54.453,105.348,32.102,94.042,18.766z"/>
</svg>
