<?xml version="1.0" encoding="utf-8"?>
<!-- Generator: Adobe Illustrator 17.0.0, SVG Export Plug-In . SVG Version: 6.00 Build 0)  -->
<!DOCTYPE svg PUBLIC "-//W3C//DTD SVG 1.1 Basic//EN" "http://www.w3.org/Graphics/SVG/1.1/DTD/svg11-basic.dtd">
<svg version="1.1" baseProfile="basic" id="Слой_1"
	 xmlns="http://www.w3.org/2000/svg" xmlns:xlink="http://www.w3.org/1999/xlink" x="0px" y="0px" width="283.719px"
	 height="277.938px" viewBox="0 0 283.719 277.938" xml:space="preserve">
<path fill="#F2D084" stroke="#FFFFFF" stroke-width="6" stroke-miterlimit="10" d="M269.907,122.243
	c0.026-0.024,0.055-0.049,0.081-0.073l-0.276-0.302l0,0c-2.739-4.574-5.982-7.478-9.585-9.033c0.14-2.899-0.485-5.877-1.995-8.92
	c5.099-9.113,5.392-19.169-2.318-29.798c0.025-0.029,0.051-0.058,0.076-0.087l-0.33-0.282c-4.944-6.337-10.522-8.986-16.421-8.931
	c-0.34-4.547-2.458-9.094-6.832-13.556l-0.235-0.363c-0.032,0.021-0.064,0.043-0.096,0.063c-6.804-6.472-13.859-8.848-20.877-8.285
	c0.338-7.043-2.297-13.99-9.08-20.49c0.019-0.032,0.039-0.065,0.058-0.098l-0.368-0.214c-7.04-6.291-14.034-7.346-20.76-4.868
	c-0.768-0.671-1.582-1.331-2.496-1.969l-0.001,0l-0.281-0.296c-0.026,0.025-0.052,0.051-0.078,0.076
	c-8.397-5.441-16.186-6.008-23.268-3.279c-44.401-23.604-65.305,79.019-61.382,92.945l-7.35,11.273
	c-0.069-0.026-0.141-0.056-0.21-0.082l-0.285,0.84l-19.13,29.338c-0.02-0.007-0.04-0.016-0.06-0.023l-0.082,0.241l-21.612,33.145
	c-0.029-0.014-0.046-0.023-0.046-0.023c-3.893,3.678-7.786,7.356-11.668,11.052c-18.878,17.391-24.813,31.788-24.996,42.897
	c-0.234,13.738,9.293,25.544,20.671,32.292c6.096,3.608,12.373,4.542,18.479,3.823c21.612-2.561,40.918-25.936,40.918-25.936
	c3.461-3.232,6.918-6.45,10.393-9.679c-0.069-0.15-0.147-0.292-0.216-0.442l58.91-37.368l4.086-1.454
	c0.256-0.091,0.301-0.524,0.16-1.24l15.299-9.705C190.686,187.556,294.977,167.628,269.907,122.243z M122.781,196.603
	c-1.31-2.261-2.779-4.666-4.367-7.125l23.787-19.559c1.774,2.806,3.408,5.578,4.887,8.254L122.781,196.603z M148.749,181.258
	c2.39,4.552,4.301,8.726,5.696,12.191l-25.324,16.064c-0.634-2.044-2.27-5.571-4.625-9.866L148.749,181.258z M97.888,164.597
	c-0.158-0.134-0.321-0.264-0.48-0.397l20.917-22.585c0.087,0.073,0.178,0.147,0.264,0.22c2.26,1.916,4.433,3.968,6.524,6.11
	l-22.579,21.024C100.992,167.383,99.439,165.912,97.888,164.597z M128.401,111.768c1.896-0.028,5.082-0.871,9.125-2.391
	c-1.766,4.464-3.114,8.163-3.98,10.709l-13.818,14.92c-2.232-1.746-4.508-3.41-6.808-4.988L128.401,111.768z M123.652,138.193
	c-0.403-0.342-0.814-0.674-1.221-1.011l11.748-12.685c2.279,0.065,6.548-1.007,11.987-3.001c-1.156,3.724-1.749,6.644-1.693,8.422
	l-14.906,13.879C127.606,141.76,125.628,139.868,123.652,138.193z M149.135,130.577c2.825-0.97,7.002-2.509,12.032-4.528
	c-3.691,6.49-6.504,11.924-8.125,15.273l-14.832,12.513c-1.999-2.556-4.061-5.026-6.155-7.355L149.135,130.577z M115.62,139.441
	l-20.908,22.575c-1.804-1.415-3.644-2.766-5.503-4.049l19.783-23.32C111.321,136.244,113.571,137.859,115.62,139.441z
	 M127.624,150.607c2.096,2.297,4.097,4.676,5.997,7.101l-23.607,19.916c-1.622-2.073-3.293-4.078-4.99-5.974L127.624,150.607z
	 M135.722,160.465c1.57,2.112,3.068,4.242,4.482,6.368l-23.816,19.583c-1.361-2.014-2.791-4.038-4.274-6.032L135.722,160.465z
	 M140.317,156.589l12.814-10.811c2.457,0.375,7.421-0.299,13.813-1.88c-0.3,0.584-0.576,1.128-0.826,1.627l-21.218,17.447
	C143.429,160.835,141.896,158.695,140.317,156.589z M114.96,103.286c3.707-2.103,10.043-5.944,17.492-10.953
	c-2.262,6.312-3.935,11.545-4.911,14.883l-17.634,20.786c-3.051-1.98-6.12-3.8-9.158-5.454L114.96,103.286z M105.988,132.621
	l-19.79,23.328c-2.335-1.507-4.682-2.899-7.008-4.178l18.191-24.659C100.137,128.827,103.08,130.694,105.988,132.621z
	 M82.933,159.799l-23.938,28.217c-1.538-1.09-2.995-2.079-4.354-2.967l21.727-29.451C78.482,156.915,80.717,158.334,82.933,159.799z
	 M85.936,161.824c1.883,1.297,3.697,2.605,5.352,3.888l-25.447,27.477c-1.341-1.078-2.653-2.092-3.928-3.046L85.936,161.824z
	 M93.978,167.903c1.668,1.431,3.28,2.948,4.837,4.528l-27.384,25.498c-0.978-0.876-1.95-1.72-2.913-2.535L93.978,167.903z
	 M101.331,175.09c1.696,1.866,3.317,3.796,4.858,5.762l-27.987,23.612c-0.259-0.268-0.516-0.553-0.775-0.817
	c-1.097-1.116-2.198-2.19-3.296-3.23L101.331,175.09z M108.286,183.613c1.475,2.004,2.865,4.026,4.17,6.036l-27.422,22.548
	c-1.461-1.805-2.946-3.551-4.455-5.208L108.286,183.613z M87.284,215.075l27.135-22.312c1.488,2.435,2.842,4.821,4.056,7.105
	l-27.292,20.694C89.929,218.664,88.621,216.843,87.284,215.075z M146.949,166.014l19.204-15.79c1.029,0.17,2.47,0.174,4.268,0.014
	c-3.377,6.549-5.392,11.798-5.579,14.472l-12.667,9.604C150.583,171.647,148.827,168.85,146.949,166.014z M97.875,104.022
	c2.879-1.861,7.389-4.94,12.767-8.904c-0.452,3.783-0.504,6.69-0.134,8.37l-12.853,17.423c-2.825-1.443-5.598-2.725-8.283-3.847
	L97.875,104.022z M86.982,120.727c1.896,1.179,4.492,2.747,7.444,4.56L76.099,150.13c-2.163-1.101-4.289-2.09-6.355-2.966
	L86.982,120.727z M67.712,150.28c1.512,0.936,3.481,2.127,5.701,3.49l-21.7,29.415c-1.531-0.945-2.857-1.719-3.938-2.329
	L67.712,150.28z M93.036,223.502l27.048-20.509c1.829,3.674,3.244,6.962,4.212,9.581l-27.575,17.492
	C95.567,227.8,94.331,225.617,93.036,223.502z M153.936,177.325l15.235-11.552c4.575-1.069,12.816-3.264,22.546-6.42
	c-6.649,8.337-11.816,15.612-14.498,19.649l-16.954,10.754C159.001,186.691,156.804,182.328,153.936,177.325z"/>
<polygon fill="#A8A8A8" stroke="#272525" stroke-width="3" stroke-miterlimit="10" points="557.307,189.762 557.307,189.762 
	557.306,189.761 "/>
<g id="Слой_x0020_1">
	<g id="_280746248">
		<polygon fill="#F2D084" points="69.451,204.774 179.091,102.684 176.597,100.005 66.957,202.095 		"/>
		<path fill="#F2D084" d="M232.123,51.094c-23.515,15.548-53.91,45.269-87.032,80.606c-0.081-0.054-0.162-0.109-0.227-0.195
			C139.422,124.353,190.517,11.133,232.123,51.094z"/>
		<path fill="#E8AD40" d="M145.172,131.767c1.926,0.31,123.843-43.061,87.135-80.507l-0.003-0.003
			c-0.06-0.058-0.12-0.106-0.18-0.164c-23.515,15.548-53.91,45.269-87.032,80.606C145.12,131.719,145.141,131.752,145.172,131.767z"
			/>
		<path fill="#F2D084" d="M232.306,51.261c-23.343,15.089-53.854,44.947-87.135,80.507C178.452,96.207,208.964,66.35,232.306,51.261
			c-23.343,15.089-53.854,44.947-87.135,80.507C178.452,96.207,208.964,66.35,232.306,51.261L232.306,51.261z"/>
		<line fill="none" x1="145.172" y1="131.767" x2="145.172" y2="131.767"/>
		<path fill="#F2D084" d="M145.487,132.062c16.627-17.766,32.568-34.113,47.275-47.909c14.688-13.778,28.132-25,39.78-32.529
			l-0.47-0.727c-11.694,7.559-25.178,18.812-39.902,32.624c-14.704,13.794-30.66,30.157-47.314,47.95L145.487,132.062z"/>
		<polygon fill="#F2D084" points="87.097,228.005 200.022,142.381 197.931,139.622 85.005,225.246 		"/>
		<path fill="#FAEBC6" d="M254.854,98.886c-23.614,12.39-55.055,37.463-89.599,67.561c-0.071-0.059-0.142-0.119-0.195-0.206
			C160.621,158.991,219.509,57.308,254.854,98.886z"/>
		<path fill="#F7DFA5" d="M165.324,166.518c1.783,0.475,120.663-28.714,89.687-67.458l-0.003-0.003
			c-0.05-0.061-0.103-0.111-0.153-0.171c-23.614,12.39-55.055,37.463-89.599,67.561C165.28,166.467,165.297,166.501,165.324,166.518
			z"/>
		<path fill="#F2D084" d="M255.011,99.06c-23.409,11.974-54.972,37.165-89.687,67.457
			C200.039,136.225,231.602,111.034,255.011,99.06c-23.409,11.974-54.972,37.165-89.687,67.457
			C200.039,136.225,231.602,111.034,255.011,99.06L255.011,99.06z"/>
		<line fill="none" x1="165.324" y1="166.518" x2="165.324" y2="166.518"/>
		<path fill="#F2D084" d="M165.594,166.825c17.344-15.134,33.905-28.998,49.063-40.58c15.137-11.566,28.86-20.845,40.541-26.82
			l-0.373-0.729c-11.727,5.999-25.491,15.304-40.665,26.899c-15.155,11.58-31.733,25.458-49.103,40.615L165.594,166.825z"/>
		<polygon fill="#F2D084" points="74.319,207.74 182.635,116.356 184.868,119.002 76.552,210.386 		"/>
		<path fill="#FAEBC6" d="M237.102,72.404c-17.27,20.32-48.631,45.493-85.575,72.59c0.042,0.082,0.085,0.165,0.158,0.235
			C157.784,151.152,269.91,116.012,237.102,72.404z"/>
		<path fill="#F7DFA5" d="M151.473,144.912c-0.071-1.844,54.491-111.421,85.494-72.699l0.002,0.004
			c0.048,0.063,0.086,0.125,0.134,0.188c-17.27,20.32-48.631,45.493-85.575,72.59C151.513,144.965,151.484,144.942,151.473,144.912z
			"/>
		<path fill="#F2D084" d="M236.967,72.213c-16.819,20.211-48.322,45.478-85.494,72.699
			C188.645,117.69,220.147,92.423,236.967,72.213c-16.819,20.211-48.322,45.478-85.494,72.699
			C188.645,117.69,220.147,92.423,236.967,72.213L236.967,72.213z"/>
		<line fill="none" x1="151.473" y1="144.912" x2="151.473" y2="144.912"/>
		<path fill="#F2D084" d="M151.232,144.582c18.572-13.6,35.732-26.716,50.357-38.963c14.606-12.23,26.67-23.583,35.063-33.668
			l0.63,0.524c-8.426,10.124-20.524,21.512-35.166,33.772c-14.623,12.245-31.801,25.373-50.401,38.994L151.232,144.582z"/>
		<polygon fill="#F2D084" points="82.198,214.528 197.666,119.584 199.985,122.405 84.518,217.349 		"/>
		<path fill="#D89132" d="M255.702,73.952c-18.486,21.203-51.9,47.336-91.229,75.424c0.043,0.087,0.087,0.175,0.163,0.25
			C170.99,155.955,289.726,120.386,255.702,73.952z"/>
		<path fill="#F2D084" d="M164.416,149.288c-0.051-1.945,58.962-116.796,91.145-75.539l0.003,0.004
			c0.049,0.067,0.089,0.133,0.138,0.199c-18.486,21.203-51.9,47.336-91.229,75.424C164.457,149.346,164.428,149.32,164.416,149.288z
			"/>
		<path fill="#F2D084" d="M255.561,73.749c-18.009,21.093-51.574,47.323-91.145,75.539
			C203.988,121.072,237.552,94.842,255.561,73.749c-18.009,21.093-51.574,47.323-91.145,75.539
			C203.988,121.072,237.552,94.842,255.561,73.749L255.561,73.749z"/>
		<line fill="none" x1="164.416" y1="149.288" x2="164.416" y2="149.288"/>
		<path fill="#F2D084" d="M164.167,148.937c19.77-14.097,38.045-27.702,53.635-40.424c15.569-12.705,28.445-24.519,37.431-35.044
			l0.658,0.561c-9.022,10.566-21.935,22.416-37.542,35.152c-15.587,12.72-33.881,26.338-53.681,40.457L164.167,148.937z"/>
		<polygon fill="#F2D084" points="90.243,234.174 209.914,158.264 211.769,161.188 92.098,237.098 		"/>
		<path fill="#E8AD40" d="M269.821,122.076c-19.857,17.8-54.332,38.504-94.599,60.361c0.031,0.088,0.062,0.175,0.124,0.255
			C180.59,189.384,296.436,169.717,269.821,122.076z"/>
		<path fill="#F2D084" d="M175.179,182.347c0.178-1.837,69.047-103.036,94.533-60.48l0.002,0.004
			c0.039,0.068,0.068,0.135,0.107,0.203c-19.857,17.8-54.332,38.504-94.599,60.361C175.211,182.406,175.186,182.379,175.179,182.347
			z"/>
		<path fill="#F2D084" d="M269.712,121.868c-19.396,17.753-54.023,38.531-94.532,60.48
			C215.689,160.399,250.316,139.62,269.712,121.868c-19.396,17.753-54.023,38.531-94.532,60.48
			C215.689,160.399,250.316,139.62,269.712,121.868L269.712,121.868z"/>
		<line fill="none" x1="175.179" y1="182.347" x2="175.179" y2="182.347"/>
		<path fill="#F2D084" d="M174.985,181.988c20.239-10.965,39.014-21.642,55.16-31.8c16.125-10.145,29.612-19.763,39.29-28.621
			l0.553,0.604c-9.716,8.893-23.243,18.541-39.407,28.71c-16.143,10.156-34.937,20.843-55.207,31.826L174.985,181.988z"/>
		<polygon fill="#F2D084" points="41.618,190.299 119.023,71.589 116.123,69.698 38.718,188.408 		"/>
		<path fill="#E8AD40" d="M155.96,12.141c-18.048,19.632-39.183,53.845-61.543,93.834c-0.087-0.032-0.174-0.064-0.253-0.128
			C87.538,100.521,108.657-15.069,155.96,12.141z"/>
		<path fill="#F7DFA5" d="M94.506,106.02c1.838-0.155,103.894-67.75,61.66-93.767l-0.004-0.002c-0.068-0.04-0.134-0.07-0.202-0.109
			c-18.048,19.632-39.183,53.845-61.543,93.834C94.448,105.987,94.475,106.012,94.506,106.02z"/>
		<path fill="#F2D084" d="M156.166,12.253c-17.994,19.171-39.205,53.535-61.66,93.766C116.961,65.788,138.172,31.424,156.166,12.253
			c-17.994,19.171-39.205,53.535-61.66,93.766C116.961,65.788,138.172,31.424,156.166,12.253L156.166,12.253z"/>
		<line fill="none" x1="94.506" y1="106.02" x2="94.506" y2="106.02"/>
		<path fill="#F2D084" d="M94.863,106.218c11.219-20.1,22.13-38.74,32.49-54.757c10.346-15.997,20.133-29.362,29.112-38.928
			l-0.597-0.561c-9.014,9.604-18.831,23.009-29.202,39.044c-10.358,16.015-21.28,34.673-32.516,54.804L94.863,106.218z"/>
		<polygon fill="#F2D084" points="58.247,188.897 153.591,76.509 156.337,78.838 60.993,191.227 		"/>
		<path fill="#E8AD40" d="M201.88,22.046c-14.211,23.817-42.037,55.038-75.259,89.195c0.058,0.077,0.116,0.154,0.203,0.214
			C134.1,116.479,243.043,61.118,201.88,22.046z"/>
		<path fill="#F2D084" d="M126.552,111.165c-0.391-1.879,36.688-123.664,75.157-89.291l0.003,0.003
			c0.06,0.056,0.109,0.113,0.169,0.169c-14.211,23.817-42.037,55.038-75.259,89.195
			C126.602,111.214,126.568,111.195,126.552,111.165z"/>
		<path fill="#F2D084" d="M201.708,21.874c-13.767,23.626-41.722,54.968-75.156,89.292C159.986,76.842,187.941,45.5,201.708,21.874
			c-13.767,23.626-41.722,54.968-75.156,89.292C159.986,76.842,187.941,45.5,201.708,21.874L201.708,21.874z"/>
		<line fill="none" x1="126.552" y1="111.165" x2="126.552" y2="111.165"/>
		<path fill="#F2D084" d="M126.248,110.869c16.704-17.148,32.044-33.557,44.934-48.638c12.872-15.06,23.289-28.782,30.159-40.571
			l0.737,0.429c-6.898,11.835-17.344,25.599-30.248,40.696c-12.887,15.077-28.243,31.502-44.972,48.677L126.248,110.869z"/>
		<polygon fill="#F2D084" points="53.814,186.171 137.945,72.129 135.159,70.074 51.028,184.115 		"/>
		<path fill="#F2D084" d="M178.253,14.913c-19.151,18.557-42.227,51.492-66.859,90.124c-0.085-0.037-0.17-0.074-0.245-0.142
			C104.842,99.195,132.6-14.983,178.253,14.913z"/>
		<path fill="#F7DFA5" d="M111.481,105.086c1.845-0.048,107.633-61.636,66.972-90.05l-0.004-0.002
			c-0.065-0.043-0.13-0.078-0.196-0.121c-19.151,18.557-42.227,51.492-66.859,90.124C111.424,105.05,111.45,105.077,111.481,105.086
			z"/>
		<path fill="#F2D084" d="M178.453,15.036c-19.071,18.101-42.232,51.182-66.972,90.05C136.221,66.219,159.382,33.137,178.453,15.036
			c-19.071,18.101-42.232,51.182-66.972,90.05C136.221,66.219,159.382,33.137,178.453,15.036L178.453,15.036z"/>
		<line fill="none" x1="111.481" y1="105.086" x2="111.481" y2="105.086"/>
		<path fill="#F2D084" d="M111.826,105.305c12.361-19.418,24.33-37.397,35.597-52.789c11.252-15.372,21.795-28.15,31.312-37.182
			l-0.564-0.594c-9.554,9.067-20.128,21.883-31.409,37.292c-11.265,15.39-23.247,33.386-35.626,52.834L111.826,105.305z"/>
		<polygon fill="#F2D084" points="63.558,195.654 159.854,91.679 162.394,94.032 66.098,198.006 		"/>
		<path fill="#F2D084" d="M208.522,41.381c-14.648,22.284-42.686,51.112-76.03,82.534c0.052,0.077,0.105,0.153,0.186,0.214
			C139.456,129.26,246.429,80.638,208.522,41.381z"/>
		<path fill="#E8AD40" d="M132.428,123.84c-0.297-1.821,40.42-117.261,75.936-82.631l0.003,0.003c0.055,0.057,0.1,0.113,0.155,0.169
			c-14.648,22.284-42.686,51.112-76.03,82.534C132.473,123.889,132.442,123.869,132.428,123.84z"/>
		<path fill="#F2D084" d="M208.363,41.209c-14.214,22.12-42.381,51.058-75.936,82.631C165.982,92.267,194.149,63.329,208.363,41.209
			c-14.214,22.12-42.381,51.058-75.936,82.631C165.982,92.267,194.149,63.329,208.363,41.209L208.363,41.209z"/>
		<line fill="none" x1="132.428" y1="123.84" x2="132.428" y2="123.84"/>
		<path fill="#F2D084" d="M132.148,123.542c16.764-15.775,32.187-30.896,45.201-44.842c12.997-13.929,23.578-26.675,30.67-37.713
			l0.689,0.443c-7.121,11.081-17.732,23.866-30.76,37.828c-13.012,13.945-28.45,29.08-45.24,44.879L132.148,123.542z"/>
		<path fill="#283961" d="M88.072,243.317l-55.072-53.076c-18.878,17.391-24.813,31.788-24.996,42.897
			c-0.234,13.738,9.293,25.544,20.671,32.292c6.095,3.608,12.373,4.542,18.479,3.823C68.766,266.692,88.072,243.317,88.072,243.317z
			"/>
		<path fill="#2A638B" d="M98.466,233.638c-3.476,3.229-6.932,6.447-10.393,9.679l-55.072-53.076
			c3.882-3.696,7.775-7.374,11.668-11.052c0,0,16.744,8.17,32.758,24.458C85.303,211.671,93.016,221.681,98.466,233.638z"/>
		<path fill="#F2D084" d="M66.408,145.826c9.748,3.656,21.398,10.219,31.48,18.771c16.637,14.111,33.574,46.03,31.334,46.826
			l-4.729,1.682c-3.673-10.236-14.751-31.841-30.825-45.473c-8.636-7.325-24.534-16.279-28.269-18.829L66.408,145.826z"/>
		<path fill="#F2D084" d="M85.883,115.672c11.696,4.387,25.673,12.261,37.769,22.521c19.96,16.93,40.282,55.226,37.594,56.182
			l-5.674,2.019c-4.408-12.281-17.699-38.203-36.983-54.558c-10.361-8.789-29.436-19.531-33.917-22.591L85.883,115.672z"/>
	</g>
</g>
</svg>
