<?xml version="1.0" encoding="utf-8"?>
<!-- Generator: Adobe Illustrator 17.0.0, SVG Export Plug-In . SVG Version: 6.00 Build 0)  -->
<!DOCTYPE svg PUBLIC "-//W3C//DTD SVG 1.1 Basic//EN" "http://www.w3.org/Graphics/SVG/1.1/DTD/svg11-basic.dtd">
<svg version="1.1" baseProfile="basic" id="Слой_1"
	 xmlns="http://www.w3.org/2000/svg" xmlns:xlink="http://www.w3.org/1999/xlink" x="0px" y="0px" width="283.719px"
	 height="277.938px" viewBox="0 0 283.719 277.938" xml:space="preserve">
<polygon fill="#A8A8A8" stroke="#272525" stroke-width="3" stroke-miterlimit="10" points="557.307,189.762 557.307,189.762 
	557.306,189.761 "/>
<path fill="#A8A8A8" stroke="#272525" stroke-width="3" stroke-miterlimit="10" d="M269.911,122.231
	c0.027-0.024,0.055-0.049,0.081-0.073l-0.276-0.302l0,0c-2.739-4.574-5.982-7.478-9.585-9.033c0.14-2.899-0.485-5.877-1.995-8.92
	c5.099-9.113,5.392-19.169-2.318-29.798c0.025-0.029,0.051-0.058,0.076-0.087l-0.33-0.282c-4.948-6.343-10.533-8.984-16.438-8.924
	c-0.339-4.549-2.439-9.098-6.816-13.563l-0.235-0.364c-0.032,0.021-0.064,0.043-0.096,0.063c-6.804-6.472-13.859-8.848-20.877-8.285
	c0.338-7.043-2.297-13.99-9.08-20.49c0.019-0.032,0.039-0.065,0.058-0.097l-0.369-0.215c-7.037-6.288-14.027-7.334-20.75-4.86
	c-0.771-0.673-1.588-1.337-2.505-1.977h-0.001l-0.281-0.296c-0.026,0.025-0.052,0.051-0.078,0.076
	c-8.397-5.442-16.186-6.008-23.268-3.279c-44.401-23.604-65.305,79.019-61.382,92.945l-7.351,11.273
	c-0.069-0.026-0.141-0.056-0.21-0.082l-0.285,0.84l-19.13,29.338c-0.02-0.007-0.04-0.016-0.06-0.023l-0.082,0.241l-21.612,33.145
	c-0.029-0.014-0.046-0.023-0.046-0.023c-3.893,3.678-7.786,7.356-11.667,11.052C14.125,207.622,8.19,222.019,8.006,233.128
	c-0.234,13.738,9.293,25.544,20.671,32.292c6.096,3.608,12.373,4.542,18.479,3.823c21.612-2.561,40.918-25.936,40.918-25.936
	c3.461-3.232,6.918-6.45,10.393-9.679c-0.068-0.15-0.146-0.292-0.216-0.442l58.91-37.368l4.086-1.454
	c0.256-0.091,0.301-0.524,0.16-1.24l15.299-9.705C190.69,187.544,294.98,167.615,269.911,122.231z"/>
</svg>
