<?xml version="1.0" encoding="utf-8"?>
<!-- Generator: Adobe Illustrator 17.0.0, SVG Export Plug-In . SVG Version: 6.00 Build 0)  -->
<!DOCTYPE svg PUBLIC "-//W3C//DTD SVG 1.1 Basic//EN" "http://www.w3.org/Graphics/SVG/1.1/DTD/svg11-basic.dtd">
<svg version="1.1" baseProfile="basic" id="Слой_1"
	 xmlns="http://www.w3.org/2000/svg" xmlns:xlink="http://www.w3.org/1999/xlink" x="0px" y="0px" width="97.369px"
	 height="91.954px" viewBox="0 0 97.369 91.954" xml:space="preserve">
<path fill="#6E9FC5" d="M97.369,17.941c-6.042-6.18-13.454-11.127-22.331-14.355C62.422-0.83,48.406-0.697,34.155,1.459
	c0.075,0.616,0.174,1.151,0.299,1.594l-7.351,11.273c-0.069-0.026-0.141-0.056-0.21-0.082l-0.285,0.84L7.479,44.422
	c-0.02-0.007-0.04-0.016-0.06-0.023l-0.082,0.241L0,55.891c13.665,12.164,27.371,24.134,41.146,36.063
	c11.137-17.207,22.837-34.145,36.169-50.809C83.776,33.176,90.523,25.493,97.369,17.941z"/>
</svg>
