<?xml version="1.0" encoding="utf-8"?>
<!-- Generator: Adobe Illustrator 17.0.0, SVG Export Plug-In . SVG Version: 6.00 Build 0)  -->
<!DOCTYPE svg PUBLIC "-//W3C//DTD SVG 1.1 Basic//EN" "http://www.w3.org/Graphics/SVG/1.1/DTD/svg11-basic.dtd">
<svg version="1.1" baseProfile="basic" id="Слой_1"
	 xmlns="http://www.w3.org/2000/svg" xmlns:xlink="http://www.w3.org/1999/xlink" x="0px" y="0px" width="283.719px"
	 height="277.938px" viewBox="0 0 283.719 277.938" xml:space="preserve">
<polygon fill="#A8A8A8" stroke="#272525" stroke-width="3" stroke-miterlimit="10" points="557.307,189.762 557.307,189.762 
	557.306,189.761 "/>
<path fill="#A8A8A8" stroke="#272525" stroke-width="3" stroke-miterlimit="10" d="M44.717,178.893
	c-0.029-0.014-0.046-0.023-0.046-0.023c-3.893,3.678-7.786,7.356-11.667,11.052C14.126,207.313,8.191,221.71,8.007,232.819
	c-0.234,13.738,9.293,25.544,20.671,32.292c6.096,3.608,12.373,4.542,18.479,3.823c21.612-2.561,40.918-25.936,40.918-25.936
	c3.461-3.232,6.918-6.45,10.393-9.679c-0.068-0.15-0.146-0.292-0.216-0.442l27.69-17.565C103.408,195.97,81.158,176.731,58.991,157
	L44.717,178.893z"/>
<path fill="#A8A8A8" stroke="#272525" stroke-width="3" stroke-miterlimit="10" d="M156.362,118.941
	c-6.042-6.18-13.454-11.127-22.331-14.355c-12.617-4.416-26.632-4.283-40.884-2.127c0.075,0.616,0.174,1.151,0.299,1.594
	l-7.351,11.272c-0.069-0.026-0.141-0.056-0.21-0.082l-0.285,0.84l-19.13,29.338c-0.02-0.007-0.04-0.016-0.06-0.023l-0.082,0.241
	l-7.337,11.252c13.665,12.164,27.371,24.134,41.146,36.063c11.137-17.207,22.837-34.144,36.169-50.809
	C142.769,134.177,149.515,126.494,156.362,118.941z"/>
<path fill="#A8A8A8" stroke="#272525" stroke-width="3" stroke-miterlimit="10" d="M156.223,119
	c-6.847,7.552-13.593,15.235-20.054,23.204c-13.332,16.665-25.032,33.602-36.169,50.809c8.571,7.422,17.162,14.831,25.805,22.25
	l31.219-19.803l4.086-1.454c0.256-0.091,0.301-0.524,0.16-1.24l15.299-9.705c0.174,0.051,0.373,0.096,0.574,0.14
	C178.26,159.08,171.801,134.934,156.223,119z"/>
<path fill="#A8A8A8" stroke="#272525" stroke-width="3" stroke-miterlimit="10" d="M211.121,42.649
	c0.338-7.043-2.297-13.99-9.08-20.49c0.019-0.032,0.039-0.065,0.058-0.097l-0.369-0.215c-7.037-6.288-14.027-7.334-20.75-4.86
	c-0.771-0.673-1.588-1.337-2.505-1.977h-0.001l-0.281-0.296c-0.026,0.025-0.052,0.051-0.078,0.076
	c-8.397-5.442-16.186-6.008-23.268-3.279c-42.988-22.853-63.95,72.613-61.68,91.351c14.251-2.156,28.267-2.289,40.884,2.127
	c8.877,3.228,16.289,8.175,22.331,14.355c22.473-24.79,46.023-48.17,64.11-75.591C217.378,42.734,214.246,42.398,211.121,42.649z"/>
<path fill="#A8A8A8" stroke="#272525" stroke-width="3" stroke-miterlimit="10" d="M269.549,122.466
	c0.027-0.024,0.055-0.049,0.081-0.073l-0.276-0.302l0,0c-2.739-4.574-5.982-7.478-9.585-9.033c0.14-2.899-0.485-5.877-1.995-8.92
	c5.099-9.113,5.392-19.169-2.318-29.798c0.025-0.029,0.051-0.058,0.076-0.087l-0.33-0.282c-4.948-6.343-10.533-8.984-16.438-8.924
	c-0.339-4.549-2.439-9.098-6.816-13.563l-0.235-0.364c-0.032,0.021-0.064,0.043-0.096,0.063c-3.775-3.591-7.627-5.916-11.507-7.183
	c-18.087,27.421-41.637,50.801-64.11,75.591c15.578,15.934,22.037,40.079,20.92,64.201
	C192.915,187.276,294.306,167.285,269.549,122.466z"/>
</svg>
