<?xml version="1.0" encoding="utf-8"?>
<!-- Generator: Adobe Illustrator 17.0.0, SVG Export Plug-In . SVG Version: 6.00 Build 0)  -->
<!DOCTYPE svg PUBLIC "-//W3C//DTD SVG 1.1 Basic//EN" "http://www.w3.org/Graphics/SVG/1.1/DTD/svg11-basic.dtd">
<svg version="1.1" baseProfile="basic" id="Слой_1"
	 xmlns="http://www.w3.org/2000/svg" xmlns:xlink="http://www.w3.org/1999/xlink" x="0px" y="0px" width="117.94px"
	 height="112.159px" viewBox="0 0 117.94 112.159" xml:space="preserve">
<path fill="#7566A9" d="M36.714,21.893c-0.029-0.014-0.046-0.023-0.046-0.023c-3.893,3.678-7.786,7.356-11.667,11.052
	C6.123,50.313,0.188,64.71,0.004,75.819c-0.234,13.738,9.293,25.544,20.671,32.292c6.096,3.608,12.373,4.542,18.479,3.823
	c21.612-2.561,40.918-25.936,40.918-25.936c3.461-3.232,6.918-6.45,10.393-9.679c-0.068-0.15-0.146-0.292-0.216-0.442l27.69-17.565
	C95.406,38.97,73.157,19.732,50.989,0L36.714,21.893z"/>
</svg>
