<?xml version="1.0" encoding="utf-8"?>
<!-- Generator: Adobe Illustrator 17.0.0, SVG Export Plug-In . SVG Version: 6.00 Build 0)  -->
<!DOCTYPE svg PUBLIC "-//W3C//DTD SVG 1.1//EN" "http://www.w3.org/Graphics/SVG/1.1/DTD/svg11.dtd">
<svg version="1.1" id="Слой_1" xmlns="http://www.w3.org/2000/svg" xmlns:xlink="http://www.w3.org/1999/xlink" x="0px" y="0px"
	 width="95.303px" height="168.513px" viewBox="0 0 95.303 168.513" enable-background="new 0 0 95.303 168.513"
	 xml:space="preserve">
<path fill="#42BCAA" d="M17.413,152.794c0.297-0.209,0.622-0.389,0.888-0.632c1.745-1.594,3.467-3.213,5.217-4.802
	c3.843-3.489,7.696-6.967,11.548-10.446c1.73-1.562,3.478-3.103,5.199-4.675c1.883-1.72,3.751-3.458,5.606-5.208
	c0.142-0.134,0.136-0.426,0.199-0.645c0.525-0.765,1.166-1.475,1.557-2.303c6.54-13.857,13.049-27.728,19.565-41.597
	c6.437-13.699,12.873-27.398,19.309-41.096c0.855-1.787,1.708-3.576,2.563-5.363c2.08-4.582,4.159-9.163,6.239-13.745
	c0-0.562,0-1.123,0-1.685c-0.589-2.712-2.414-4.176-4.855-5.302C80.165,10.554,69.939,5.69,59.688,0.882
	C58.972,0.546,58.218,0.292,57.481,0c-0.624,0-1.249,0-1.872,0c-0.245,0.107-0.482,0.239-0.735,0.317
	c-1.598,0.489-2.844,1.449-3.563,2.945c-1.962,4.079-3.862,8.187-5.786,12.282c-0.843,1.764-1.686,3.528-2.53,5.292
	c-1.846,3.949-3.684,7.902-5.539,11.847C26.809,55.329,16.15,77.968,5.526,100.624c-0.84,1.791-1.44,3.694-2.151,5.544
	c-0.13,0.203-0.356,0.398-0.374,0.61c-0.145,1.7-0.281,3.402-0.361,5.106c-0.208,4.44-0.395,8.881-0.575,13.322
	c-0.085,2.082-0.129,4.167-0.204,6.249c-0.052,1.428-0.118,2.857-0.193,4.285c-0.166,3.193-0.342,6.385-0.514,9.579
	c-0.272,6.263-0.534,12.527-0.824,18.789c-0.054,1.159-0.217,2.312-0.33,3.468c0,0.312,0,0.624,0,0.936
	c0.234-0.131,0.502-0.223,0.696-0.399c5.401-4.893,10.795-9.793,16.185-14.697C17.082,153.236,17.237,153.004,17.413,152.794"/>
</svg>
