<?xml version="1.0" encoding="utf-8"?>
<!-- Generator: Adobe Illustrator 17.0.0, SVG Export Plug-In . SVG Version: 6.00 Build 0)  -->
<!DOCTYPE svg PUBLIC "-//W3C//DTD SVG 1.1//EN" "http://www.w3.org/Graphics/SVG/1.1/DTD/svg11.dtd">
<svg version="1.1" id="Слой_1" xmlns="http://www.w3.org/2000/svg" xmlns:xlink="http://www.w3.org/1999/xlink" x="0px" y="0px"
	 width="117.087px" height="207.031px" viewBox="0 0 117.087 207.031" enable-background="new 0 0 117.087 207.031"
	 xml:space="preserve">
<path fill="#42BCAA" d="M21.393,187.72c0.365-0.257,0.764-0.478,1.091-0.777c2.144-1.958,4.259-3.948,6.409-5.9
	c4.721-4.287,9.455-8.56,14.188-12.834c2.125-1.919,4.273-3.812,6.387-5.743c2.314-2.113,4.608-4.248,6.888-6.398
	c0.175-0.165,0.167-0.524,0.244-0.793c0.645-0.94,1.433-1.812,1.913-2.83c8.035-17.024,16.032-34.066,24.037-51.105
	c7.908-16.83,15.815-33.66,23.723-50.49c1.05-2.196,2.099-4.393,3.149-6.589c2.555-5.629,5.11-11.258,7.665-16.887
	c0-0.69,0-1.38,0-2.07c-0.724-3.332-2.966-5.131-5.965-6.514C98.489,12.966,85.926,6.991,73.332,1.084
	C72.452,0.671,71.525,0.359,70.62,0c-0.767,0-1.534,0-2.3,0c-0.301,0.131-0.592,0.294-0.903,0.389
	c-1.963,0.601-3.494,1.78-4.378,3.618c-2.41,5.011-4.745,10.058-7.109,15.09c-1.036,2.167-2.072,4.335-3.108,6.502
	c-2.268,4.852-4.526,9.708-6.805,14.555C32.937,67.976,19.841,95.79,6.789,123.625c-1.032,2.2-1.769,4.538-2.643,6.811
	c-0.16,0.249-0.438,0.489-0.46,0.75c-0.178,2.089-0.345,4.18-0.443,6.273c-0.256,5.455-0.485,10.911-0.707,16.367
	c-0.104,2.558-0.158,5.119-0.251,7.678c-0.064,1.755-0.145,3.51-0.237,5.264c-0.204,3.923-0.42,7.845-0.631,11.768
	c-0.334,7.695-0.656,15.39-1.012,23.084c-0.066,1.424-0.267,2.841-0.405,4.261c0,0.383,0,0.767,0,1.15
	c0.287-0.161,0.617-0.274,0.855-0.49c6.635-6.011,13.262-12.032,19.885-18.057C20.987,188.263,21.177,187.977,21.393,187.72"/>
</svg>
