<?xml version="1.0" encoding="utf-8"?>
<!-- Generator: Adobe Illustrator 17.0.0, SVG Export Plug-In . SVG Version: 6.00 Build 0)  -->
<!DOCTYPE svg PUBLIC "-//W3C//DTD SVG 1.1 Basic//EN" "http://www.w3.org/Graphics/SVG/1.1/DTD/svg11-basic.dtd">
<svg version="1.1" baseProfile="basic" id="Слой_1"
	 xmlns="http://www.w3.org/2000/svg" xmlns:xlink="http://www.w3.org/1999/xlink" x="0px" y="0px" width="400px" height="220px"
	 viewBox="0 0 400 220" xml:space="preserve">
<g>
	<g>
		<path fill="#E4BC76" stroke="#FFFFFF" stroke-width="3" stroke-miterlimit="10" d="M391.405,98.361
			c-3.19-3.203-8.34-3.203-11.53,0c-2.765,2.752-2.979,6.937-0.959,10.088l-36.368,36.384c-1.09-0.745-2.269-1.292-3.382-1.902
			l10.935-40.804c3.737,0.182,7.256-2.119,8.244-5.856c1.205-4.36-1.394-8.823-5.754-9.983c-4.354-1.195-8.82,1.407-9.977,5.776
			c-1.004,3.762,0.873,7.48,4.229,9.216l-10.728,39.996c-4.485-1.982-9.423-3.177-14.602-3.472
			c-36.866-2.033-31.253,36.409-46.043,36.409c-3.439,0-20.749-7.819-20.749-7.819l-11.878,2.433
			c-41.348,6-80.279-22.846-81.772-23.959l-4.721-3.58c0,0-7.988,15.414-22.117,23.13c-10.466,5.683-22.517,6.863-30.786,6.863
			c-15.145,0-34.258-4.216-42.808-13.656c-1.349-1.49-2.413-3.094-3.65-4.629c-43.627,22.325-61.515,59.229-44.311,59.229
			c28.008,0,308.827,0,308.827,0c20.541,0,37.202-16.667,37.202-37.211c0-11.508-5.341-21.312-13.541-28.021l36.125-36.147
			c3.152,2.055,7.323,1.806,10.088-0.934C394.592,106.71,394.592,101.538,391.405,98.361z"/>
		<path fill="#BDBBB9" stroke="#FFFFFF" stroke-width="3" stroke-miterlimit="10" d="M130.309,157.235
			c34.641-18.837,21.916-89.14-20.365-64.699c42.268-35.13,60.038,34.328,56.042,45.788c0,0,37.154,28.069,75.653,22.395
			c0-48.764-17.223-128.394-87.89-148.641C59.527-14.917,11.661,91.52,66.665,152.143
			C75.961,162.376,110.267,168.168,130.309,157.235z"/>
	</g>
	<path fill="#F3EDE4" d="M317.222,169.344c-4.494,0-8.158-3.66-8.158-8.148c0-4.517,3.664-8.154,8.158-8.154
		c4.51,0,8.148,3.638,8.148,8.154C325.371,165.684,321.733,169.344,317.222,169.344z"/>
	<circle fill="#6A5538" cx="318.266" cy="165.131" r="5.826"/>
</g>
</svg>
