<?xml version="1.0" encoding="utf-8"?>
<!-- Generator: Adobe Illustrator 17.0.0, SVG Export Plug-In . SVG Version: 6.00 Build 0)  -->
<!DOCTYPE svg PUBLIC "-//W3C//DTD SVG 1.1//EN" "http://www.w3.org/Graphics/SVG/1.1/DTD/svg11.dtd">
<svg version="1.1" id="Слой_1" xmlns="http://www.w3.org/2000/svg" xmlns:xlink="http://www.w3.org/1999/xlink" x="0px" y="0px"
	 width="331px" height="180px" viewBox="0 0 331 180" enable-background="new 0 0 331 180" xml:space="preserve">
<g>
	<path fill="#6A5538" stroke="#FFFFFF" stroke-width="6" stroke-miterlimit="10" d="M321.531,81.733
		c-2.596-2.607-6.788-2.607-9.385,0c-2.251,2.24-2.425,5.646-0.781,8.211l-29.602,29.615c-0.887-0.606-1.847-1.052-2.753-1.548
		l8.901-33.212c3.042,0.148,5.906-1.725,6.71-4.766c0.981-3.549-1.135-7.181-4.683-8.126c-3.544-0.973-7.179,1.145-8.121,4.701
		c-0.817,3.062,0.711,6.088,3.442,7.501l-8.732,32.555c-3.651-1.613-7.67-2.586-11.885-2.826
		c-30.007-1.655-25.438,29.635-37.477,29.635c-2.799,0-16.889-6.364-16.889-6.364l-9.668,1.98
		c-33.655,4.884-65.343-18.595-66.558-19.501l-3.843-2.914c0,0-6.502,12.546-18.002,18.827c-8.519,4.626-18.328,5.586-25.058,5.586
		c-12.327,0-27.884-3.432-34.843-11.115c-1.098-1.213-1.964-2.518-2.971-3.768c-35.51,18.171-50.07,48.209-36.067,48.209
		c22.797,0,251.369,0,251.369,0c16.719,0,30.281-13.566,30.281-30.288c0-9.367-4.347-17.347-11.022-22.808l29.404-29.422
		c2.566,1.673,5.961,1.47,8.211-0.76C324.125,88.528,324.125,84.319,321.531,81.733z"/>
	<path fill="#6A5538" stroke="#FFFFFF" stroke-width="6" stroke-miterlimit="10" d="M109.012,129.653
		c28.196-15.332,17.839-72.555-16.576-52.662c34.404-28.594,48.868,27.941,45.615,37.269c0,0,30.241,22.847,61.578,18.228
		c0-39.691-14.019-104.506-71.538-120.986C51.4-10.47,12.439,76.165,57.21,125.509C64.776,133.838,92.699,138.552,109.012,129.653z"
		/>
</g>
<g>
	<g>
		<path fill="#E4BC76" d="M321.531,81.733c-2.596-2.607-6.788-2.607-9.385,0c-2.251,2.24-2.425,5.646-0.781,8.211l-29.602,29.615
			c-0.887-0.606-1.847-1.052-2.753-1.548l8.901-33.212c3.042,0.148,5.906-1.725,6.71-4.766c0.981-3.549-1.135-7.181-4.683-8.126
			c-3.544-0.973-7.179,1.145-8.121,4.701c-0.817,3.062,0.711,6.088,3.442,7.501l-8.732,32.555c-3.651-1.613-7.67-2.586-11.885-2.826
			c-30.007-1.655-25.438,29.635-37.477,29.635c-2.799,0-16.889-6.364-16.889-6.364l-9.668,1.98
			c-33.655,4.884-65.343-18.595-66.558-19.501l-3.843-2.914c0,0-6.502,12.546-18.002,18.827c-8.519,4.626-18.328,5.586-25.058,5.586
			c-12.327,0-27.884-3.432-34.843-11.115c-1.098-1.213-1.964-2.518-2.971-3.768c-35.51,18.171-50.07,48.209-36.067,48.209
			c22.797,0,251.369,0,251.369,0c16.719,0,30.281-13.566,30.281-30.288c0-9.367-4.347-17.347-11.022-22.808l29.404-29.422
			c2.566,1.673,5.961,1.47,8.211-0.76C324.125,88.528,324.125,84.319,321.531,81.733z"/>
		<path fill="#BDBBB9" d="M109.012,129.653c28.196-15.332,17.839-72.555-16.576-52.662c34.404-28.594,48.868,27.941,45.615,37.269
			c0,0,30.241,22.847,61.578,18.228c0-39.691-14.019-104.506-71.538-120.986C51.4-10.47,12.439,76.165,57.21,125.509
			C64.776,133.838,92.699,138.552,109.012,129.653z"/>
	</g>
	<path fill="#F3EDE4" d="M261.15,139.509c-3.658,0-6.64-2.979-6.64-6.632c0-3.677,2.982-6.637,6.64-6.637
		c3.671,0,6.632,2.961,6.632,6.637C267.783,136.53,264.822,139.509,261.15,139.509z"/>
	<circle fill="#6A5538" cx="262" cy="136.08" r="4.742"/>
</g>
</svg>
