<?xml version="1.0" encoding="utf-8"?>
<!-- Generator: Adobe Illustrator 17.0.0, SVG Export Plug-In . SVG Version: 6.00 Build 0)  -->
<!DOCTYPE svg PUBLIC "-//W3C//DTD SVG 1.1 Basic//EN" "http://www.w3.org/Graphics/SVG/1.1/DTD/svg11-basic.dtd">
<svg version="1.1" baseProfile="basic" id="Слой_1"
	 xmlns="http://www.w3.org/2000/svg" xmlns:xlink="http://www.w3.org/1999/xlink" x="0px" y="0px" width="246.958px"
	 height="197.979px" viewBox="0 0 246.958 197.979" xml:space="preserve">
<path fill="#D97B2E" stroke="#FFFFFF" stroke-width="6" stroke-miterlimit="10" d="M235.74,117.712
	c-4.891-15.033-15.455-28.18-29.745-37.027c-1.453-0.899-2.934-1.73-4.429-2.52c3.506-22.179,0.061-40.564-9.119-48.3
	c-1.29-1.569-2.733-2.875-4.335-3.867c-15.201-9.411-44.031,8.699-69.059,41.565c0.516,0.513,1.048,1.014,1.586,1.511
	c-0.001,0.002-0.002,0.003-0.003,0.004c0.04,0.037,0.082,0.072,0.122,0.108c0.188,0.172,0.382,0.339,0.572,0.509
	c0.385,0.343,0.774,0.683,1.169,1.016c0.231,0.195,0.465,0.386,0.7,0.577c0.4,0.325,0.806,0.642,1.217,0.956
	c0.21,0.16,0.419,0.322,0.632,0.479c0.628,0.462,1.264,0.913,1.917,1.344c3.682,2.426,9.728,5.007,9.728,5.007
	c0.002,0.001,6.797,1.601,9.163,1.355l0,0c0.001,0,0.001,0,0.002,0c3.05-0.318,5.005-1.476,6.039-2.299
	c0.003-0.003,0.007-0.005,0.01-0.008c0.073-0.058,0.142-0.115,0.206-0.169c0.005-0.004,0.009-0.008,0.014-0.012
	c0.103-0.088,0.195-0.17,0.273-0.245c0,0,0.001-0.001,0.001-0.001c0.061-0.058,0.114-0.11,0.16-0.157
	c0.008-0.008,0.017-0.017,0.025-0.025c0.027-0.028,0.05-0.052,0.072-0.076c0.013-0.014,0.025-0.027,0.036-0.039
	c0.002-0.003,0.006-0.006,0.008-0.009c0,0,0.001-0.001,0.001-0.001c0.014-0.015,0.024-0.027,0.035-0.039
	c0.012-0.013,0.02-0.023,0.028-0.033c0.009-0.01,0.015-0.018,0.021-0.024c0.01-0.012,0.015-0.018,0.015-0.018l-0.013,0.06
	c0.084,0.052,0.164,0.115,0.24,0.185c0.022,0.02,0.043,0.043,0.065,0.065c0.055,0.055,0.108,0.115,0.159,0.18
	c0.037,0.047,0.071,0.101,0.105,0.154c0.028,0.043,0.055,0.087,0.08,0.134c0.03,0.053,0.059,0.108,0.086,0.167
	c0.034,0.074,0.065,0.154,0.095,0.236c0.025,0.068,0.048,0.139,0.069,0.212c0.029,0.098,0.055,0.199,0.078,0.307
	c0.012,0.055,0.022,0.113,0.032,0.171c0.021,0.122,0.038,0.249,0.052,0.383c0.004,0.042,0.01,0.081,0.014,0.124
	c0.015,0.185,0.023,0.382,0.023,0.591c0,0.033-0.002,0.068-0.002,0.101c-0.002,0.192-0.01,0.394-0.025,0.606
	c-0.003,0.037-0.005,0.074-0.008,0.112c-0.02,0.243-0.047,0.497-0.085,0.765c-0.002,0.012-0.003,0.023-0.005,0.035
	c-0.04,0.282-0.09,0.579-0.151,0.891c-0.004,0.018-0.008,0.038-0.011,0.056c-0.127,0.641-0.298,1.343-0.521,2.115
	c-0.002,0.008-0.004,0.015-0.007,0.023c-0.341,1.178-0.801,2.514-1.401,4.024c-0.003,0.007-0.006,0.014-0.009,0.022
	c-0.199,0.502-0.414,1.022-0.644,1.563c-0.048,0.112-0.091,0.218-0.14,0.332c-0.068,0.156-0.142,0.321-0.212,0.48
	c-0.116,0.263-0.231,0.525-0.354,0.796c-0.08,0.177-0.166,0.36-0.249,0.541c-0.123,0.267-0.247,0.535-0.377,0.81
	c-0.091,0.192-0.186,0.39-0.28,0.586c-0.132,0.275-0.265,0.551-0.404,0.833c-0.102,0.207-0.207,0.418-0.312,0.63
	c-0.141,0.283-0.285,0.569-0.433,0.861c-0.113,0.223-0.23,0.449-0.347,0.677c-0.15,0.292-0.304,0.587-0.461,0.887
	c-0.124,0.236-0.249,0.474-0.377,0.714c-0.164,0.309-0.333,0.623-0.504,0.94c-0.132,0.244-0.264,0.488-0.4,0.736
	c-0.178,0.326-0.362,0.659-0.548,0.993c-0.14,0.252-0.279,0.503-0.424,0.76c-0.195,0.347-0.398,0.703-0.601,1.059
	c-0.147,0.258-0.291,0.513-0.442,0.775c-0.216,0.376-0.442,0.762-0.667,1.147c-0.149,0.255-0.293,0.505-0.446,0.764
	c-0.26,0.441-0.531,0.895-0.802,1.348c-0.128,0.214-0.251,0.423-0.382,0.64c-0.409,0.68-0.829,1.372-1.264,2.08
	c-0.432,0.704-0.856,1.387-1.274,2.053c-0.141,0.226-0.278,0.439-0.418,0.66c-0.275,0.436-0.55,0.871-0.819,1.29
	c-0.157,0.245-0.31,0.479-0.465,0.718c-0.244,0.378-0.489,0.755-0.728,1.12c-0.163,0.248-0.322,0.487-0.482,0.728
	c-0.225,0.339-0.449,0.677-0.669,1.004c-0.161,0.24-0.32,0.473-0.479,0.706c-0.214,0.315-0.428,0.628-0.638,0.931
	c-0.154,0.222-0.305,0.44-0.457,0.657c-0.208,0.298-0.415,0.592-0.619,0.879c-0.148,0.209-0.296,0.415-0.442,0.619
	c-0.2,0.279-0.398,0.552-0.594,0.82c-0.141,0.193-0.282,0.386-0.421,0.574c-0.197,0.266-0.391,0.525-0.584,0.78
	c-0.131,0.173-0.262,0.348-0.391,0.516c-0.196,0.256-0.388,0.503-0.579,0.748c-0.12,0.154-0.242,0.312-0.361,0.462
	c-0.201,0.255-0.398,0.498-0.593,0.74c-0.023,0.028-0.046,0.057-0.069,0.086c-0.836,1.03-1.623,1.946-2.364,2.76
	c-0.024,0.027-0.049,0.054-0.073,0.081c-0.737,0.807-1.429,1.512-2.076,2.125c-0.014,0.013-0.027,0.026-0.041,0.039
	c-0.318,0.3-0.626,0.579-0.923,0.836c-0.005,0.004-0.01,0.009-0.014,0.013c-0.297,0.256-0.583,0.49-0.859,0.706
	c-0.014,0.011-0.029,0.023-0.043,0.034c-0.267,0.207-0.524,0.394-0.772,0.565c-0.024,0.017-0.048,0.033-0.072,0.049
	c-0.233,0.159-0.458,0.301-0.675,0.43c-0.027,0.016-0.054,0.033-0.081,0.049c-0.223,0.13-0.438,0.245-0.644,0.345
	c-0.029,0.014-0.057,0.026-0.086,0.039c-0.173,0.082-0.34,0.152-0.501,0.214c-0.041,0.016-0.083,0.033-0.123,0.047
	c-0.171,0.061-0.336,0.112-0.494,0.152c-0.048,0.012-0.094,0.021-0.14,0.031c-0.113,0.025-0.221,0.044-0.327,0.058
	c-0.053,0.007-0.107,0.016-0.158,0.021c-0.125,0.012-0.246,0.016-0.361,0.013c-0.059-0.001-0.115-0.007-0.171-0.012
	c-0.065-0.005-0.129-0.013-0.19-0.023c-0.058-0.009-0.117-0.018-0.172-0.031c-0.091-0.022-0.179-0.048-0.262-0.078
	c-0.029-0.011-0.058-0.021-0.086-0.033c-0.101-0.042-0.198-0.089-0.286-0.144l-0.052,0.039c0,0,0.004-0.008,0.01-0.022
	c0.003-0.007,0.006-0.014,0.01-0.024c0.006-0.013,0.012-0.028,0.02-0.048c0.006-0.015,0.012-0.029,0.019-0.047
	c0.009-0.023,0.019-0.05,0.03-0.078c0.008-0.021,0.015-0.04,0.024-0.064c0.018-0.051,0.037-0.107,0.057-0.17
	c0.01-0.031,0.02-0.067,0.031-0.101c0.012-0.039,0.023-0.077,0.035-0.119c0.012-0.043,0.024-0.089,0.037-0.136
	c0.011-0.042,0.022-0.084,0.033-0.129c0.013-0.053,0.026-0.106,0.039-0.163c0.01-0.043,0.019-0.089,0.028-0.134
	c0.028-0.135,0.055-0.28,0.079-0.435c0.004-0.025,0.008-0.049,0.012-0.075c0.011-0.077,0.021-0.16,0.031-0.242
	c0.006-0.051,0.012-0.101,0.018-0.154c0.009-0.085,0.017-0.172,0.024-0.261c0.004-0.053,0.008-0.108,0.011-0.163
	c0.006-0.096,0.012-0.192,0.015-0.293c0.001-0.036,0.001-0.074,0.002-0.111c0.005-0.215,0.004-0.44-0.005-0.674
	c-0.002-0.046-0.002-0.091-0.005-0.137c-0.006-0.115-0.015-0.234-0.025-0.354c-0.005-0.062-0.01-0.123-0.016-0.186
	c-0.012-0.122-0.026-0.246-0.042-0.373c-0.008-0.059-0.017-0.12-0.026-0.18c-0.063-0.436-0.156-0.896-0.282-1.378
	c-0.017-0.066-0.033-0.131-0.052-0.198c-0.031-0.111-0.063-0.223-0.098-0.336c0,0,0-0.001,0-0.001v0
	c-0.01-0.032-0.021-0.065-0.031-0.097c-0.024-0.077-0.049-0.154-0.075-0.231c-0.05-0.149-0.101-0.299-0.158-0.453
	c-0.024-0.065-0.051-0.131-0.076-0.196c-0.127-0.329-0.27-0.665-0.431-1.008c-0.02-0.042-0.037-0.083-0.057-0.125
	c-0.076-0.158-0.159-0.318-0.243-0.479c-0.048-0.092-0.095-0.183-0.146-0.276c-0.086-0.158-0.175-0.316-0.269-0.476
	c-0.057-0.097-0.117-0.196-0.177-0.294c-0.099-0.163-0.198-0.326-0.306-0.492c-0.051-0.078-0.108-0.158-0.16-0.237
	c-0.211-0.315-0.438-0.633-0.68-0.956c-0.083-0.11-0.163-0.219-0.249-0.33c-0.124-0.159-0.256-0.32-0.389-0.481
	c-0.1-0.122-0.202-0.243-0.307-0.366c-0.136-0.159-0.275-0.319-0.42-0.48c-0.117-0.13-0.24-0.261-0.363-0.392
	c-0.147-0.158-0.291-0.315-0.447-0.474c0,0-0.001-0.001-0.001-0.001v0c-2.206-2.254-5.246-4.642-9.423-7.066
	c-0.649-0.376-1.307-0.73-1.971-1.072c-0.215-0.111-0.432-0.215-0.648-0.323c-0.46-0.228-0.922-0.451-1.387-0.664
	c-0.242-0.111-0.484-0.22-0.727-0.327c-0.486-0.214-0.975-0.419-1.466-0.618c-0.194-0.078-0.387-0.161-0.581-0.237
	c-0.073-0.029-0.145-0.06-0.218-0.089c-0.001,0.002-0.002,0.005-0.003,0.007c-0.629-0.243-1.26-0.481-1.894-0.701
	c-15.746,33.73-18.855,64.134-6.542,74.856c1.245,1.55,2.681,2.867,4.34,3.893c10.496,6.497,29.23,1.908,48.429-11.442
	c1.505,1.092,3.06,2.145,4.676,3.146c30.934,19.147,68.538,12.533,85.616-15.06C239.2,150.306,240.987,133.854,235.74,117.712z
	 M155.935,163.232c8.961-8.511,17.557-18.846,24.95-30.788c7.128-11.515,12.414-23.364,16.031-34.79
	c11.107,7.173,19.257,17.37,22.984,28.845c3.484,10.709,2.609,21.127-2.466,29.327C206.52,173.456,178.52,176.759,155.935,163.232z"
	/>
<g>
	<path fill="#2B9BD5" d="M235.74,117.712c-4.891-15.033-15.455-28.18-29.745-37.027c-14.291-8.845-30.771-12.435-46.408-10.108
		c-8.471,1.262-16.21,4.169-22.894,8.499c11.495,4.064,16.109-1.802,16.109-1.802l-0.013,0.06c1.481,0.917,1.956,4.491-1.772,13.225
		c2.442-0.845,5.039-1.481,7.771-1.888c12.3-1.835,25.478,1.123,37.112,8.322c11.632,7.199,20.16,17.678,24.002,29.504
		c3.484,10.709,2.609,21.127-2.466,29.327c-11.037,17.827-39.545,21.017-62.257,6.958c-14.432-8.933-23.665-23.068-25.654-36.76
		c-6.847,8.44-10.419,9.282-12.006,8.298l-0.052,0.039c0,0,3.051-6.433-4.971-14.629c-1.796,22.232,10.067,45.424,32.586,59.365
		c30.934,19.147,68.538,12.533,85.616-15.06C239.2,150.306,240.987,133.854,235.74,117.712z"/>
	<path fill="#A5C4E7" d="M167.006,84.782c-4.297,0.753-8.28,2.067-11.87,3.874c2.668-1.046,5.506-1.867,8.507-2.39
		c12.525-2.204,25.827,0.552,37.463,7.751c11.63,7.199,20.033,17.879,23.65,30.075c3.272,11.047,2.13,21.895-3.22,30.544
		c-3.404,5.497-8.315,9.681-14.089,12.57c7.242-2.827,13.408-7.522,17.452-14.055c5.352-8.648,6.496-19.498,3.221-30.547
		c-3.615-12.191-12.013-22.872-23.647-30.072C192.837,85.329,179.534,82.577,167.006,84.782z"/>
	<path fill="#2980B8" d="M190.41,28.36c-15.607-9.66-44.696,8.091-69.776,40.72c1.962,1.808,4.067,3.497,6.33,4.989
		c18.693,12.316,25.837,3.206,25.837,3.206l-0.013,0.06c2.291,1.419,2.19,9.181-12.197,32.614
		c-14.387,23.435-20.787,25.791-23.074,24.373l-0.052,0.039c0,0,4.968-10.457-14.394-21.695c-2.254-1.306-4.605-2.403-6.998-3.329
		c-16.919,35.998-19.346,68.617-4.099,78.055c18.318,11.338,61.724-11.033,88.909-54.949
		C208.068,88.528,208.727,39.699,190.41,28.36z"/>
	<path fill="#2B9BD5" d="M188.111,25.999c-15.201-9.411-44.031,8.699-69.059,41.566c2.397,2.385,5.028,4.602,7.912,6.504
		c18.693,12.316,25.837,3.206,25.837,3.206l-0.013,0.06c2.291,1.419,2.19,9.181-12.197,32.614
		c-14.387,23.435-20.787,25.791-23.074,24.373l-0.052,0.039c0,0,4.968-10.457-14.394-21.695c-2.847-1.65-5.848-2.967-8.895-4.023
		c-16.568,35.49-19.159,67.315-4.5,76.387c17.792,11.013,60.776-11.622,87.954-55.536C204.815,85.578,205.904,37.01,188.111,25.999z
		"/>
	<path fill="#2980B8" d="M156.605,75.686c-2.183-1.351-6.106,0.552-10.75,4.746c4.858-0.505,6.946-3.157,6.946-3.157l-0.013,0.06
		c2.291,1.419,2.19,9.181-12.197,32.614c-14.387,23.435-20.787,25.791-23.074,24.373l-0.052,0.039c0,0,1.269-2.682,0.014-6.786
		c-1.084,4.883-0.81,8.366,1.098,9.547c4.58,2.837,16.807-8.62,27.303-25.582C156.386,94.571,161.184,78.52,156.605,75.686z"/>
	<path fill="#D97B2E" d="M153.25,77.762c1.734,2.229,0.665,10.485-12.658,32.187c-13.242,21.57-19.715,25.279-22.444,24.628
		c4.486,2.299,15.699-8.151,25.276-23.624C153.034,95.429,157.38,80.683,153.25,77.762z"/>
</g>
</svg>
