<?xml version="1.0" encoding="utf-8"?>
<!-- Generator: Adobe Illustrator 17.0.0, SVG Export Plug-In . SVG Version: 6.00 Build 0)  -->
<!DOCTYPE svg PUBLIC "-//W3C//DTD SVG 1.1 Basic//EN" "http://www.w3.org/Graphics/SVG/1.1/DTD/svg11-basic.dtd">
<svg version="1.1" baseProfile="basic" id="Слой_1"
	 xmlns="http://www.w3.org/2000/svg" xmlns:xlink="http://www.w3.org/1999/xlink" x="0px" y="0px" width="154.486px"
	 height="154.252px" viewBox="0 0 154.486 154.252" xml:space="preserve">
<path fill="#B76153" d="M153.384,96.939l0.013-0.06c0,0-7.144,9.11-25.837-3.206c-2.849-1.878-5.45-4.065-7.823-6.416l23.731-8.949
	l-43.551-27.08L97.537,0L58.324,33.051L8.868,19.486l19.316,47.506L0,109.837l51.15-3.69l32.038,40.044l4.903-19.852
	c5.285,1.21,10.659,3.08,15.578,5.931c19.362,11.239,14.394,21.695,14.394,21.695l0.052-0.039
	c2.287,1.418,8.686-0.939,23.074-24.373C155.575,106.119,155.676,98.357,153.384,96.939z"/>
</svg>
