<?xml version="1.0" encoding="utf-8"?>
<!-- Generator: Adobe Illustrator 17.0.0, SVG Export Plug-In . SVG Version: 6.00 Build 0)  -->
<!DOCTYPE svg PUBLIC "-//W3C//DTD SVG 1.1 Basic//EN" "http://www.w3.org/Graphics/SVG/1.1/DTD/svg11-basic.dtd">
<svg version="1.1" baseProfile="basic" id="Слой_1"
	 xmlns="http://www.w3.org/2000/svg" xmlns:xlink="http://www.w3.org/1999/xlink" x="0px" y="0px" width="145.89px"
	 height="126.648px" viewBox="0 0 145.89 126.648" xml:space="preserve">
<path fill="#87BB50" d="M144.789,69.335l0.013-0.06c0,0-7.145,9.11-25.837-3.206c-8.214-5.416-14.418-13.36-18.795-20.577
	c-1.07-11.261-5.925-22.059-14.087-30.389c-0.163-0.167-0.332-0.329-0.498-0.493c-0.473-0.47-0.955-0.933-1.45-1.386
	c-0.236-0.217-0.476-0.431-0.718-0.643c-0.448-0.394-0.905-0.781-1.369-1.161c-0.272-0.223-0.543-0.447-0.821-0.665
	c-0.476-0.373-0.964-0.734-1.456-1.092c-0.27-0.197-0.535-0.398-0.81-0.591c-0.698-0.487-1.412-0.959-2.142-1.415
	c-0.068-0.043-0.132-0.09-0.2-0.132C53.044-7.07,22.111,0.211,7.521,23.784c-5.015,8.104-7.446,17.077-7.519,25.958
	C-0.111,63.465,5.407,76.967,15.72,86.693c2.427,2.288,5.119,4.368,8.065,6.192c0.811,0.502,1.633,0.972,2.46,1.423
	c0.247,0.134,0.496,0.256,0.744,0.386c0.595,0.311,1.191,0.614,1.793,0.899c0.273,0.129,0.548,0.251,0.822,0.375
	c0.604,0.273,1.211,0.534,1.821,0.781c0.246,0.099,0.491,0.197,0.738,0.292c0.7,0.271,1.404,0.523,2.111,0.76
	c0.149,0.05,0.297,0.103,0.447,0.152c11.122,3.615,22.985,3.148,33.568-0.932c8.406,0.706,18.278,2.716,26.783,7.646
	c19.362,11.239,14.394,21.695,14.394,21.695l0.052-0.039c2.287,1.418,8.686-0.939,23.074-24.373
	C146.979,78.516,147.08,70.754,144.789,69.335z"/>
</svg>
