<?xml version="1.0" encoding="utf-8"?>
<!-- Generator: Adobe Illustrator 17.0.0, SVG Export Plug-In . SVG Version: 6.00 Build 0)  -->
<!DOCTYPE svg PUBLIC "-//W3C//DTD SVG 1.1 Basic//EN" "http://www.w3.org/Graphics/SVG/1.1/DTD/svg11-basic.dtd">
<svg version="1.1" baseProfile="basic" id="Слой_1"
	 xmlns="http://www.w3.org/2000/svg" xmlns:xlink="http://www.w3.org/1999/xlink" x="0px" y="0px" width="179.18px"
	 height="143.132px" viewBox="0 0 179.18 143.132" xml:space="preserve">
<path fill="#42BCAA" d="M178.079,85.819l0.013-0.06c0,0-7.145,9.11-25.837-3.206c-7.325-4.83-13.047-11.669-17.305-18.212
	l2.862-5.108L102.594,0L33.688,0.883L0,60.999l35.218,59.233l68.906-0.883l2.919-5.209c7.029,1.047,14.6,3.115,21.32,7.009
	c19.362,11.239,14.394,21.695,14.394,21.695l0.052-0.039c2.287,1.418,8.686-0.939,23.074-24.373
	C180.269,95,180.37,87.237,178.079,85.819z"/>
</svg>
