<?xml version="1.0" encoding="utf-8"?>
<!-- Generator: Adobe Illustrator 17.0.0, SVG Export Plug-In . SVG Version: 6.00 Build 0)  -->
<!DOCTYPE svg PUBLIC "-//W3C//DTD SVG 1.1 Basic//EN" "http://www.w3.org/Graphics/SVG/1.1/DTD/svg11-basic.dtd">
<svg version="1.1" baseProfile="basic" id="Слой_1"
	 xmlns="http://www.w3.org/2000/svg" xmlns:xlink="http://www.w3.org/1999/xlink" x="0px" y="0px" width="246.958px"
	 height="197.979px" viewBox="0 0 246.958 197.979" xml:space="preserve">
<path fill="#F6D875" stroke="#FFFFFF" stroke-width="6" stroke-miterlimit="10" d="M235.739,117.711
	c-4.891-15.033-15.455-28.18-29.745-37.027c-1.453-0.899-2.934-1.729-4.428-2.519c3.506-22.18,0.061-40.565-9.12-48.3
	c-1.29-1.569-2.733-2.875-4.334-3.866c-15.199-9.41-44.024,8.707-69.052,41.57c-4.432-4.408-8.049-9.396-10.89-14.082
	c-1.071-11.258-5.924-22.052-14.082-30.38c-0.167-0.171-0.34-0.336-0.509-0.505c-0.47-0.466-0.948-0.925-1.439-1.375
	c-0.239-0.219-0.481-0.435-0.725-0.65c-0.445-0.392-0.9-0.776-1.362-1.155c-0.274-0.225-0.547-0.45-0.827-0.67
	c-0.472-0.371-0.958-0.729-1.446-1.085c-0.273-0.199-0.541-0.403-0.819-0.597c-0.694-0.485-1.405-0.954-2.131-1.408
	c-0.071-0.045-0.138-0.094-0.209-0.138C61.044,0.93,30.111,8.211,15.521,31.784c-3.219,5.201-5.37,10.761-6.519,16.424
	c-2.518,12.397-0.21,25.285,6.275,36.006c3.979,6.579,9.521,12.346,16.508,16.67c0.032,0.02,0.066,0.037,0.099,0.057
	c0.776,0.478,1.561,0.93,2.352,1.361c0.261,0.142,0.525,0.271,0.787,0.408c0.58,0.303,1.161,0.598,1.748,0.876
	c0.283,0.134,0.569,0.261,0.853,0.389c0.593,0.268,1.189,0.524,1.788,0.766c0.254,0.103,0.508,0.205,0.764,0.303
	c0.69,0.266,1.383,0.515,2.08,0.749c0.159,0.053,0.317,0.11,0.475,0.161c11.12,3.612,22.98,3.145,33.561-0.935
	c5.594,0.47,11.837,1.524,17.895,3.625c-15.704,33.641-18.843,63.971-6.64,74.765c1.262,1.594,2.736,2.933,4.43,3.982
	c10.497,6.497,29.234,1.907,48.435-11.446c1.505,1.092,3.053,2.15,4.669,3.15c30.934,19.147,68.538,12.533,85.616-15.06
	C239.199,150.305,240.986,133.853,235.739,117.711z M155.936,163.232c8.961-8.511,17.557-18.846,24.95-30.789
	c7.127-11.515,12.414-23.363,16.03-34.789c11.107,7.173,19.256,17.37,22.984,28.845c3.484,10.709,2.609,21.127-2.466,29.327
	C206.52,173.456,178.521,176.759,155.936,163.232z"/>
<g id="__x0023_Layer_x0020_1">
	<g id="_278646280">
		<path fill="#2B9BD5" d="M145.081,179.096c30.934,19.147,68.538,12.533,85.616-15.06c8.502-13.731,10.289-30.183,5.042-46.325
			c-4.891-15.033-15.455-28.18-29.745-37.027c-14.291-8.845-30.771-12.435-46.408-10.108c-16.786,2.501-30.711,11.443-39.212,25.173
			C103.294,123.344,114.151,159.949,145.081,179.096z M155.178,162.784L155.178,162.784c-22.712-14.058-32.575-40.997-21.537-58.823
			c5.075-8.201,14.004-13.632,25.145-15.288c12.3-1.835,25.478,1.123,37.112,8.322c11.632,7.199,20.16,17.678,24.002,29.504
			c3.484,10.709,2.609,21.127-2.466,29.327C206.398,173.653,177.89,176.843,155.178,162.784z"/>
	</g>
	<path fill="#A5C4E7" d="M167.006,84.782c-4.297,0.753-8.28,2.067-11.87,3.874c2.668-1.046,5.506-1.867,8.507-2.39
		c12.525-2.204,25.827,0.552,37.463,7.751c11.63,7.199,20.033,17.879,23.65,30.075c3.272,11.047,2.13,21.895-3.22,30.544
		c-3.404,5.497-8.315,9.681-14.089,12.57c7.242-2.827,13.408-7.522,17.452-14.055c5.352-8.648,6.496-19.498,3.221-30.547
		c-3.615-12.191-12.013-22.872-23.647-30.072C192.837,85.329,179.534,82.577,167.006,84.782z"/>
	<path fill="#2980B8" d="M190.411,28.36c18.317,11.339,17.657,60.168-9.525,104.083c-27.186,43.916-70.591,66.287-88.909,54.949
		c-18.316-11.338-11.131-56.128,16.05-100.044C135.208,43.435,172.094,17.023,190.411,28.36z"/>
	<path fill="#2B9BD5" d="M188.111,25.999c17.793,11.011,16.704,59.579-10.479,103.495c-27.178,43.914-70.162,66.549-87.954,55.536
		c-17.791-11.01-10.178-55.536,17.001-99.452C133.863,41.661,170.322,14.986,188.111,25.999z"/>
	<path fill="#2980B8" d="M156.605,75.686c4.579,2.834-0.22,18.885-10.725,35.853c-10.496,16.963-22.722,28.419-27.302,25.582
		c-4.578-2.833,0.222-18.886,10.723-35.848C139.802,84.306,152.027,72.852,156.605,75.686z"/>
	<path fill="#D97B2E" d="M153.122,77.665c4.356,2.696,0.015,17.598-9.698,33.287c-9.71,15.69-21.11,26.225-25.465,23.53
		L153.122,77.665z"/>
	<path fill="#EAB331" d="M84.62,15.524C61.044,0.93,30.111,8.211,15.521,31.784c-14.589,23.574-7.309,54.508,16.264,69.1
		c13.863,8.58,30.256,9.544,44.391,4.125c8.43,0.698,18.354,2.705,26.897,7.656c19.362,11.239,14.394,21.695,14.394,21.695
		l0.052-0.039c2.287,1.418,8.686-0.939,23.074-24.373c14.387-23.433,14.488-31.195,12.197-32.614l0.013-0.06
		c0,0-7.144,9.11-25.837-3.206c-8.247-5.438-14.47-13.425-18.849-20.666C106.657,38.34,98.483,24.101,84.62,15.524z"/>
	<path fill="#F4D25D" d="M84.618,15.524c23.573,14.59,30.854,45.524,16.263,69.096c-14.589,23.572-45.526,30.852-69.095,16.264
		C8.212,86.292,0.931,55.359,15.521,31.788S61.044,0.934,84.618,15.524z"/>
	<path fill="#F6D875" d="M74.688,53.678c16.825,7.73,22.019,24.131,11.607,36.615c-10.415,12.488-32.492,16.343-49.322,8.616
		c-16.823-7.732-22.02-24.121-11.608-36.605C35.771,49.819,57.862,45.946,74.688,53.678z"/>
</g>
</svg>
