<?xml version="1.0" encoding="utf-8"?>
<!-- Generator: Adobe Illustrator 17.0.0, SVG Export Plug-In . SVG Version: 6.00 Build 0)  -->
<!DOCTYPE svg PUBLIC "-//W3C//DTD SVG 1.1 Basic//EN" "http://www.w3.org/Graphics/SVG/1.1/DTD/svg11-basic.dtd">
<svg version="1.1" baseProfile="basic" id="Слой_1"
	 xmlns="http://www.w3.org/2000/svg" xmlns:xlink="http://www.w3.org/1999/xlink" x="0px" y="0px" width="310px" height="310px"
	 viewBox="0 0 310 310" xml:space="preserve">
<g>
	<path fill="#D4B5A4" stroke="#FCFCFC" stroke-width="6" stroke-miterlimit="10" d="M219.099,22.208
		c-1.88,0.591-3.701,1.249-5.47,1.964c0.021-0.015,0.034-0.026,0.034-0.026c-0.019,0.012-0.037,0.023-0.055,0.034
		c-10.211,4.129-18.596,10.261-25.39,17.754c-32.617,26.987-22.516,44.604-4.67,75.293c16.634,28.615,25.571,62.491,28.752,76.295
		c0.909,14.072-0.927,29.281-6.98,46.039c-0.013,0-0.041-0.031-0.07-0.031c2.106-6.845,3.672-14.513,4.224-23.445
		c3.215-51.509-40.105-93.959-53.66-117.784c-7.242-12.712,2.864-17.217-4.648-34.789c-4.924-11.512-9.871-11.084-12.271-15.26
		c-2.371-4.167-4.147-29.144-10.276-33.725c-6.148-4.594-13.996,22.314-13.996,22.314s-4.442-6.829-10.923-9.609
		c-6.459-2.786-6.658,15.162-6.259,17.711c-19.176,8.593-39.818,22.881-39.612,34.984c0.048,2.77,1.6,4.678,3.575,6.23l0.007,0.008
		l0.001-0.002c2.36,1.852,5.324,3.194,7.077,4.864c0.577,0.558,1.187,1.048,1.823,1.482c0,0-0.003,0.001-0.003,0.001l0.009,0.004
		c1.971,1.344,4.191,2.128,6.468,2.562l0.029,0.011l0.004-0.006c8.975,1.696,18.795-2.033,17.49,1.623
		c-1.329,3.691-3.447,14.611-3.729,21.855c-1.597,1.383-4.978,1.465-9.254,1.239c-1.317-3.623-4.18-9.767-4.803-10.847
		c-9.966-17.243-27.843-15.897-45.095-5.949L18.031,84.887l-3.425,11.85l12.474,9.058c-14.532,9.862-22.272,23.489-13.153,39.221
		c4.461,7.725,19.444,4.749,33.753-2.39l16.461-8.313c0,0,0-0.001,0-0.001h0c0.439,0.134,0.96,0.302,1.543,0.504
		c-4.589,2.29-8.583,4.194-9.478,4.132c-2.26,1.577-4.572,3.055-6.896,4.407c-9.75,5.604-21.491,10.116-30.414,9.555l10.839,18.711
		c8.586,14.874,42.501,11.382,42.501,11.382s9.458-13.056,12.572-26.053c0.724-2.637,1.283-5.264,1.677-7.803
		c0.77,0.969,1.506,2.001,2.208,3.089c-0.003-0.002-0.01-0.01-0.01-0.01c7.19,16.299,5.928,35.041-4.899,55.017
		c-0.117,0.21-0.23,0.425-0.345,0.638c-0.037,0.067-0.071,0.133-0.108,0.2c-0.063,0.114-0.117,0.226-0.179,0.339
		c-0.059,0.113-0.12,0.224-0.178,0.338c-10.664,19.966-0.981,35.453-0.981,35.453c1.58,1.566,2.95,3.107,4.145,4.61
		c0.979,1.411,1.975,2.786,2.927,4.134c3.31,5.306,4.453,9.822,4.826,12.655c-8.306,1.374-11.322,2.461-15.681,4.718
		c-4.002,2.051-5.999,6.031-5.752,10.777c13.831-4.144,31.09-5.031,37.057,0.678c-3.212-0.212-9.373,7.931-10.277,11.525
		c3.421-1.241,7.572-2.59,11.859-2.723c-1.566,0.949-7.109,3.267-5.203,4.508c1.893,1.242,11.212,1.438,14.887-0.902
		c8.546-5.436,39.705-4.644,62.773-22.58c38.224-9.087,78.747-15.941,93.032-65.579c6.681-23.254,2.891-44.989-17.278-71.312
		c-16.07-21.036-20.386-37.873-12.934-48.821c10.653-15.666,38.43-8.903,52.245,10.54C308.696,42.338,261.736,8.832,219.099,22.208z
		"/>
	<g>
		<path fill="#9F887C" d="M84.808,156.95c-3.114,12.997-12.572,26.053-12.572,26.053s-33.915,3.492-42.501-11.382L18.896,152.91
			c8.923,0.561,20.664-3.951,30.414-9.555c2.324-1.352,4.636-2.83,6.896-4.407c2.258,0.155,24.228-12.193,25.785-11.715
			C87.861,129.003,88.683,142.826,84.808,156.95z"/>
		<path fill="#39322E" d="M64.141,134.313c-0.323-9.144-0.786-1.723,3.529-3.556c4.54-1.944,3.117-4.11,9.883-4.11
			c1.246,0,3.2-4.433,4.439-4.391c0.079-1.63-4.648-11.879-5.47-13.304c-9.966-17.243-27.843-15.897-45.095-5.949L18.031,84.887
			l-3.425,11.85l12.474,9.058c-14.532,9.862-22.272,23.489-13.153,39.221c4.461,7.725,19.444,4.749,33.753-2.39L64.141,134.313z"/>
		<path fill="#93724C" d="M298.619,96.44c-13.815-19.443-41.592-26.206-52.245-10.54c-7.452,10.948-3.136,27.785,12.934,48.821
			c20.169,26.323,23.959,48.058,17.278,71.312c-14.285,49.638-54.808,56.492-93.032,65.579
			c-23.068,17.936-54.227,17.144-62.773,22.58c-3.675,2.34-12.994,2.144-14.887,0.902c-1.906-1.241,3.637-3.559,5.203-4.508
			c-4.287,0.133-8.438,1.482-11.859,2.723c0.904-3.594,7.065-11.737,10.277-11.525c-5.967-5.709-23.226-4.822-37.057-0.678
			c-0.247-4.746,1.75-8.726,5.752-10.777c4.496-2.327,7.546-3.41,16.463-4.847c0.086-9.331-13.153-18.23-15.084-30.774
			c-4.315-27.754,12.239-31.892,14.871-49.745c5.517-37.549-23.068-48.434-30.319-50.651c-4.265-1.295-12.956-2.536-16.371-0.567
			c-0.222-6.462,4.005-11.186,6.421-12.196c13.077-5.582,31.867,0.928,36.388-2.989c0.282-7.244,2.4-18.164,3.729-21.855
			c1.744-4.888-16.4,3.429-25.82-5.677c-3.222-3.071-10.555-5.018-10.66-11.1C57.622,67.825,78.264,53.537,97.44,44.944
			c-0.399-2.549-0.2-20.497,6.259-17.711c6.481,2.78,10.923,9.609,10.923,9.609s7.848-26.908,13.996-22.314
			c6.129,4.581,7.905,29.558,10.276,33.725c2.4,4.176,7.347,3.748,12.271,15.26c7.512,17.572-2.594,22.077,4.648,34.789
			c13.555,23.825,56.875,66.275,53.66,117.784c-0.552,8.932-2.118,16.6-4.224,23.445c0.029,0,0.057,0.031,0.07,0.031
			c24.98-69.156-21.723-111.984-37.726-156.986c6.858-27.051,22.519-51.252,51.506-60.368
			C261.736,8.832,308.696,42.338,298.619,96.44z"/>
		<path fill="#FFFFFF" d="M97.891,60.262c-1.576-2.736-6.323-2.964-10.568-0.507c-4.249,2.451-6.395,6.649-4.816,9.381
			c1.582,2.732,6.297,2.989,10.556,0.535C97.298,67.221,99.457,63.006,97.891,60.262z"/>
		<path fill="#5C4630" d="M86.489,61.161c-2.692,1.551-3.897,4.508-2.692,6.598c1.195,2.083,4.357,2.504,7.065,0.956
			c2.711-1.551,3.922-4.496,2.711-6.595C92.358,60.034,89.199,59.584,86.489,61.161z"/>
		<polygon fill="#D4B5A4" points="119.839,41.509 126.431,23.37 132.475,47.575 		"/>
		<polygon fill="#D4B5A4" points="101.721,42.525 104.464,33.47 111.608,41.509 		"/>
		<polygon fill="#39322E" points="58.446,82.639 64.375,80.623 61.41,86.166 		"/>
		<path fill="#39322E" d="M70.308,92.511c0,0,11.101-4.372,13.022-8.289l-6.516,10.866L70.308,92.511z"/>
		<path fill="#795B3D" d="M213.663,24.146c0,0-30.811,22.542-18.448,60.741c12.354,38.192,21.412,95.358,18.448,114.966
			c0,0-8.65-45.699-30.116-82.625C162.077,80.306,151.807,62.307,213.663,24.146z"/>
		<path fill="#D4B5A4" d="M88.683,152.226c0,0,35.002,33.662,22.925,81.225c-12.087,47.561-17.569,35.333-17.569,35.333
			s1.17-11.477-12.046-24.572c0,0-9.918-15.837,1.338-36.131C94.581,187.791,95.973,168.753,88.683,152.226z"/>
	</g>
</g>
</svg>
