<?xml version="1.0" encoding="utf-8"?>
<!-- Generator: Adobe Illustrator 17.0.0, SVG Export Plug-In . SVG Version: 6.00 Build 0)  -->
<!DOCTYPE svg PUBLIC "-//W3C//DTD SVG 1.1 Basic//EN" "http://www.w3.org/Graphics/SVG/1.1/DTD/svg11-basic.dtd">
<svg version="1.1" baseProfile="basic" id="Слой_1"
	 xmlns="http://www.w3.org/2000/svg" xmlns:xlink="http://www.w3.org/1999/xlink" x="0px" y="0px" width="310px" height="310px"
	 viewBox="0 0 310 310" xml:space="preserve">
<g>
	<g>
		<path fill="#D4B5A4" stroke="#FFFFFF" stroke-width="6" stroke-miterlimit="10" d="M178.263,230.121
			c6.803-12.453,17.96-17.304,31.373-19.765c-0.148-48.922-40.773-89.118-53.821-112.054c-7.242-12.712,2.863-17.217-4.648-34.789
			c-4.924-11.512-9.87-11.084-12.271-15.26c-2.372-4.166-4.148-29.144-10.276-33.725c-6.149-4.594-13.996,22.315-13.996,22.315
			s-4.442-6.829-10.924-9.609c-6.459-2.786-6.659,15.162-6.259,17.71c-19.177,8.592-39.818,22.882-39.614,34.985
			c0.048,2.773,1.603,4.682,3.582,6.235l0.002,0.002v-0.001c2.361,1.851,5.324,3.193,7.076,4.864c2.37,2.29,5.291,3.477,8.309,4.05
			l0.019,0.008l0.002-0.004c8.975,1.695,18.794-2.033,17.49,1.624c-1.328,3.691-3.447,14.612-3.729,21.856
			c-1.597,1.383-4.977,1.464-9.252,1.238c-1.316-3.623-4.18-9.768-4.803-10.848c-9.965-17.242-27.843-15.897-45.095-5.949
			L18.031,84.889l-3.424,11.85l12.474,9.058c-14.532,9.863-22.272,23.489-13.153,39.221c4.461,7.725,19.444,4.749,33.754-2.39
			l16.457-8.315c0,0,0,0,0.001,0c0.439,0.134,0.959,0.301,1.542,0.503c-4.588,2.289-8.581,4.192-9.476,4.131
			c-2.261,1.577-4.571,3.055-6.896,4.407c-9.75,5.604-21.492,10.116-30.415,9.555l10.838,18.711
			c8.587,14.874,42.502,11.381,42.502,11.381s9.459-13.056,12.573-26.053c0.724-2.637,1.282-5.263,1.676-7.802
			c0.77,0.968,1.504,1.999,2.206,3.085c-0.001-0.001-0.007-0.007-0.007-0.007c7.193,16.307,5.927,35.059-4.915,55.046
			c-0.097,0.176-0.192,0.354-0.288,0.532c-0.051,0.093-0.098,0.185-0.15,0.276c-0.087,0.158-0.162,0.312-0.247,0.469
			c-0.033,0.065-0.068,0.128-0.101,0.193c-10.679,19.975-0.99,35.469-0.99,35.469c1.573,1.559,2.937,3.094,4.13,4.59
			c0.99,1.428,1.999,2.819,2.961,4.183c3.297,5.294,4.435,9.8,4.808,12.628c-8.306,1.374-11.324,2.461-15.683,4.718
			c-4.002,2.052-6,6.031-5.752,10.778c13.831-4.144,31.09-5.031,37.057,0.678c-3.212-0.213-9.373,7.932-10.277,11.524
			c3.421-1.241,7.572-2.59,11.859-2.723c-1.566,0.95-7.109,3.267-5.203,4.509c1.893,1.241,11.213,1.437,14.888-0.902
			c7.753-4.932,34.118-4.739,56.168-18.054C169.325,262.402,169.383,245.437,178.263,230.121z"/>
	</g>
	<g>
		<g>
			<path fill="#9F887C" d="M84.808,156.95c-3.114,12.997-12.573,26.053-12.573,26.053s-33.915,3.493-42.502-11.381L18.895,152.91
				c8.923,0.561,20.664-3.951,30.415-9.555c2.325-1.352,4.635-2.83,6.896-4.407c2.258,0.155,24.228-12.193,25.785-11.715
				C87.861,129.002,88.682,142.826,84.808,156.95z"/>
			<path fill="#39322E" d="M64.14,134.312c-0.324-9.143-0.787-1.722,3.529-3.556c4.54-1.944,3.116-4.109,9.883-4.109
				c1.246,0,3.199-4.433,4.439-4.391c0.079-1.631-4.648-11.878-5.47-13.303c-9.965-17.242-27.843-15.897-45.095-5.949L18.031,84.889
				l-3.424,11.85l12.474,9.058c-14.532,9.863-22.272,23.489-13.153,39.221c4.461,7.725,19.444,4.749,33.754-2.39L64.14,134.312z"/>
			<path fill="#93724C" d="M178.263,230.121c6.803-12.453,17.96-17.304,31.373-19.765c-0.148-48.922-40.773-89.118-53.821-112.054
				c-7.242-12.712,2.863-17.217-4.648-34.789c-4.924-11.512-9.87-11.084-12.271-15.26c-2.372-4.166-4.148-29.144-10.276-33.725
				c-6.149-4.594-13.996,22.315-13.996,22.315s-4.442-6.829-10.924-9.609c-6.459-2.786-6.659,15.162-6.259,17.71
				c-19.177,8.592-39.818,22.882-39.614,34.985c0.105,6.081,7.439,8.029,10.66,11.1c9.421,9.105,27.564,0.788,25.82,5.677
				c-1.328,3.691-3.447,14.612-3.729,21.856c-4.521,3.916-23.312-2.593-36.388,2.989c-2.416,1.01-6.643,5.733-6.42,12.196
				c3.415-1.97,12.106-0.729,16.371,0.567c7.252,2.216,35.837,13.101,30.32,50.65c-2.632,17.854-19.187,21.991-14.872,49.745
				c1.931,12.544,15.169,21.444,15.083,30.774c-8.916,1.437-11.967,2.52-16.463,4.847c-4.002,2.052-6,6.031-5.752,10.778
				c13.831-4.144,31.09-5.031,37.057,0.678c-3.212-0.213-9.373,7.932-10.277,11.524c3.421-1.241,7.572-2.59,11.859-2.723
				c-1.566,0.95-7.109,3.267-5.203,4.509c1.893,1.241,11.213,1.437,14.888-0.902c7.753-4.932,34.118-4.739,56.168-18.054
				C169.325,262.402,169.383,245.437,178.263,230.121z"/>
			<path fill="#FFFFFF" d="M97.89,60.261c-1.576-2.735-6.322-2.964-10.568-0.507c-4.249,2.451-6.395,6.649-4.816,9.382
				c1.582,2.732,6.297,2.989,10.556,0.535C97.298,67.221,99.456,63.006,97.89,60.261z"/>
			<path fill="#5C4630" d="M86.489,61.16c-2.692,1.552-3.897,4.509-2.692,6.598c1.195,2.083,4.357,2.504,7.065,0.956
				c2.71-1.552,3.922-4.496,2.71-6.595C92.357,60.033,89.199,59.583,86.489,61.16z"/>
			<polygon fill="#D4B5A4" points="119.839,41.509 126.431,23.371 132.475,47.575 			"/>
			<polygon fill="#D4B5A4" points="101.721,42.525 104.463,33.471 111.607,41.509 			"/>
			<polygon fill="#39322E" points="58.446,82.639 64.375,80.622 61.41,86.166 			"/>
			<path fill="#39322E" d="M70.308,92.51c0,0,11.101-4.372,13.023-8.289l-6.516,10.865L70.308,92.51z"/>
			<path fill="#D4B5A4" d="M88.682,152.225c0,0,35.002,33.661,22.925,81.225c-12.087,47.56-17.569,35.333-17.569,35.333
				s1.17-11.477-12.046-24.572c0,0-9.918-15.837,1.338-36.131C94.58,187.79,95.972,168.752,88.682,152.225z"/>
		</g>
	</g>
</g>
</svg>
