<?xml version="1.0" encoding="utf-8"?>
<!-- Generator: Adobe Illustrator 17.0.0, SVG Export Plug-In . SVG Version: 6.00 Build 0)  -->
<!DOCTYPE svg PUBLIC "-//W3C//DTD SVG 1.1//EN" "http://www.w3.org/Graphics/SVG/1.1/DTD/svg11.dtd">
<svg version="1.1" id="Слой_1" xmlns="http://www.w3.org/2000/svg" xmlns:xlink="http://www.w3.org/1999/xlink" x="0px" y="0px"
	 width="133.17px" height="257.407px" viewBox="0 0 133.17 257.407" enable-background="new 0 0 133.17 257.407"
	 xml:space="preserve">
<path fill="#42BCAA" d="M52.226,2.95c-1.883,0.593-3.706,1.253-5.478,1.969c0.022-0.016,0.037-0.028,0.037-0.028
	c-0.02,0.013-0.039,0.025-0.06,0.037C36.513,9.065,28.126,15.206,21.33,22.712c-32.642,27.045-22.535,44.699-4.679,75.454
	c16.648,28.68,25.59,62.636,28.771,76.462c0.908,14.098-0.929,29.336-6.985,46.125c-0.013,0-0.041-0.031-0.07-0.031
	c2.107-6.859,3.674-14.543,4.226-23.493c0.12-1.927,0.168-3.84,0.162-5.742c-13.422,2.467-24.584,7.327-31.391,19.807
	c-8.886,15.348-8.944,32.348-1.315,46.113c2.256-1.364,4.467-2.869,6.608-4.536c38.246-9.106,78.792-15.974,93.085-65.715
	c6.685-23.303,2.893-45.083-17.288-71.46C76.375,94.617,72.057,77.745,79.513,66.774c10.66-15.698,38.452-8.922,52.275,10.561
	C141.872,23.122,94.885-10.454,52.226,2.95z"/>
</svg>
