<?xml version="1.0" encoding="utf-8"?>
<!-- Generator: Adobe Illustrator 17.0.0, SVG Export Plug-In . SVG Version: 6.00 Build 0)  -->
<!DOCTYPE svg PUBLIC "-//W3C//DTD SVG 1.1 Basic//EN" "http://www.w3.org/Graphics/SVG/1.1/DTD/svg11-basic.dtd">
<svg version="1.1" baseProfile="basic" id="Слой_1"
	 xmlns="http://www.w3.org/2000/svg" xmlns:xlink="http://www.w3.org/1999/xlink" x="0px" y="0px" width="298.219px"
	 height="224.938px" viewBox="0 0 298.219 224.938" xml:space="preserve">
<path fill="#2B5D9B" stroke="#FFFFFF" stroke-width="6" stroke-miterlimit="10" d="M282.826,77.211
	c-1.061-2.629-4.635-5.625-13.536-8.395l-10.727-3.774l0.04-1.711l10.91-3.694c4.161-2.429,5.241-13.632,5.508-20.496
	c0.195-2.615,0.245-5.566,0.073-8.902v-1.685c0,0-56.354-36.25-162.359-12.461c-1.276,0.02-2.429,0.121-3.394,0.334
	c0,0-67.126,5.587-67.639,27.453l-2.022,32.05c0,0-0.494,5.073,2.022,7.616l21.114,5.977l1.262,31.641l21.049,7.801l-30.701,15.088
	c0,0-1.39,0.383-2.722,1.054c-1.012,0.461-1.646,0.927-2.006,1.38l-4.292,2.03c0,0-12.185,7.324-29.952,27.642l-1.153,1.243
	c-1.794,1.901-2.596,3.454-2.788,4.717c-4.056,3.87-6.442,9.301,3.458,14.1l48.226,18.803c0,0,15.752,4.066,28.421-3.554
	L283.009,93.686C283.009,93.686,297.357,86.015,282.826,77.211z"/>
<polygon fill="#A8A8A8" stroke="#272525" stroke-width="3" stroke-miterlimit="10" points="557.307,189.762 557.307,189.762 
	557.306,189.761 "/>
<g id="__x0023_Layer_x0020_1">
	<path fill="#4786C6" d="M19.019,176.949c0,0-21.82,10.653-4.048,19.269l48.226,18.803c0,0,15.752,4.066,28.421-3.554
		L283.009,93.686c0,0,15.209-8.126-1.527-17.251l-20.818-6.111L19.019,176.949z"/>
	<path fill="#4786C6" d="M15.453,176.158c17.767-20.318,29.952-27.642,29.952-27.642L223.61,64.252l26.913-2.039l18.768,6.603
		c22.859,7.113,10.666,15.734,10.666,15.734L92.624,198.775c-21.308,12.187-35.533,3.553-35.533,3.553l-41.119-15.226
		c0,0-8.917-2.027-1.671-9.701L15.453,176.158z"/>
	<path fill="#E5E5E5" d="M53.924,151.171l35.087,12.716c0,0,12.204,4.054,26.418-4.078l26.96-14.726c0,0,10.685-7.656-10.172-12.73
		l-28.48-7.118c0,0,0.513-5.08-18.28,3.565l-31.032,15.251C54.425,144.051,43.246,147.116,53.924,151.171z"/>
	<polygon fill="#2B5D9B" points="202.386,105.911 175.944,95.773 207.381,79.37 214.216,97.83 	"/>
	<polygon fill="#CBCBCB" points="62.557,83.032 64.077,121.162 91.556,131.347 258.31,61.179 249.159,37.798 	"/>
	<path fill="#B2B3B2" d="M208.498,62.183c0,0-11.197,29.493-6.111,43.728l55.924-29.982l0.531-22.89L208.498,62.183z"/>
	<path fill="#2B5D9B" d="M41.702,82.339l53.921,16.469l109.315-36.216l12.192,12.621l52.383-18.673c0,0,6.595-6.568,5.581-26.302
		v-1.685c0,0-79.313-51.025-226.756,7.717L41.702,82.339z"/>
	<path fill="#4786C6" d="M204.595,65.295L95.623,98.808l2.033-47.813c0,0,89.467-42.708,177.438-17.297
		c0,0,0.512,22.381-5.581,25.938l-51.954,17.592L204.595,65.295z"/>
	<polygon fill="#FFFFFF" fill-opacity="0.5098" points="92.426,130.495 93.644,97.951 95.623,99.01 102.705,95.992 100.534,125.958 
			"/>
	<path fill="#CBCBCB" d="M52.036,144.957c0,0,3.01,2.275,7.902,3.51l27.233,8.953c0,0,15.16,1.955,24.426-1.955l27.347-14.901
		c0,0,5.785-3.861,0.929-5.828c0,0,8.753,3.946,3.861,9.381L111.828,161.8c0,0-11.487,5.381-22.816,2.087l-37.476-13.791
		C51.535,150.096,46.178,147.412,52.036,144.957z"/>
	<path fill="#2B5D9B" d="M74.852,204.765c0,0,11.534-23.503,31.956-36.825l172.043-91.215c0,0,3.326,0.705,3.772,2.47
		c0,0,1.128,2.986-3.319,5.65L95.707,197.219C95.707,197.219,84.167,204.765,74.852,204.765z"/>
	<path fill="#2E70B5" d="M41.702,83.545l53.921,15.263l6.105-28.997c0,0,0-17.802,19.825-22.885l34.054-12.196
		c0,0,13.219-6.117-11.692-12.717c0,0-25.416-7.611-34.575-5.587c0,0-67.126,5.587-67.639,27.453l-2.022,32.05
		C39.68,75.929,39.186,81.002,41.702,83.545z"/>
	<polygon fill="#2B5D9B" points="202.386,105.911 258.31,75.929 258.528,74.52 261.622,75.877 205.088,106.852 	"/>
</g>
</svg>
