<?xml version="1.0" encoding="utf-8"?>
<!-- Generator: Adobe Illustrator 17.0.0, SVG Export Plug-In . SVG Version: 6.00 Build 0)  -->
<!DOCTYPE svg PUBLIC "-//W3C//DTD SVG 1.1 Basic//EN" "http://www.w3.org/Graphics/SVG/1.1/DTD/svg11-basic.dtd">
<svg version="1.1" baseProfile="basic" id="Слой_1"
	 xmlns="http://www.w3.org/2000/svg" xmlns:xlink="http://www.w3.org/1999/xlink" x="0px" y="0px" width="281.331px"
	 height="151.063px" viewBox="0 0 281.331 151.063" xml:space="preserve">
<path fill="#369371" d="M274.826,12.169c-1.061-2.629-4.635-5.625-13.536-8.395L250.563,0l-0.253,10.887l0.218-1.409l3.094,1.357
	l-56.534,30.975l-2.702-0.941l-26.362-10.108L97.207,60.561l27.01,6.751c4.213,1.025,8.361,2.713,8.622,2.892
	c0.667,0.385,1.576,0.979,2.395,1.746c0.843,0.739,1.355,1.473,1.63,2.181c0.619,1.41,0.54,3.091-1.13,4.946l-0.619,0.343
	c-0.412,0.395-0.726,0.622-0.726,0.622l-26.96,14.726c-0.27,0.155-0.538,0.297-0.807,0.442l-2.795,1.549
	c0,0-10.53,4.927-21.37,2.456c-0.126-0.027-0.245-0.053-0.356-0.079c-0.013-0.003-0.026-0.006-0.039-0.009
	c-0.678-0.159-1.052-0.281-1.052-0.281L45.924,86.129c-0.958-0.364-1.734-0.719-2.364-1.065l-0.025-0.009
	c0,0-0.283-0.143-0.648-0.391c-0.009-0.006-0.017-0.012-0.026-0.018c-0.08-0.055-0.163-0.114-0.248-0.179
	c-0.888-0.646-1.272-1.253-1.304-1.811c-0.038-0.302,0.02-0.621,0.211-0.948c0.052-0.089-0.481,0.047-0.481,0.047l-3.634,1.718
	c0,0-12.185,7.324-29.952,27.642L6.3,112.359c-1.795,1.901-2.596,3.454-2.788,4.717c-4.056,3.87-6.442,9.301,3.458,14.1
	l48.226,18.804c0,0,15.752,4.066,28.421-3.554L275.008,28.644C275.008,28.644,289.356,20.973,274.826,12.169z"/>
</svg>
