<?xml version="1.0" encoding="utf-8"?>
<!-- Generator: Adobe Illustrator 17.0.0, SVG Export Plug-In . SVG Version: 6.00 Build 0)  -->
<!DOCTYPE svg PUBLIC "-//W3C//DTD SVG 1.1 Basic//EN" "http://www.w3.org/Graphics/SVG/1.1/DTD/svg11-basic.dtd">
<svg version="1.1" baseProfile="basic" id="Слой_1"
	 xmlns="http://www.w3.org/2000/svg" xmlns:xlink="http://www.w3.org/1999/xlink" x="0px" y="0px" width="298.219px"
	 height="224.938px" viewBox="0 0 298.219 224.938" xml:space="preserve">
<polygon fill="#A8A8A8" stroke="#272525" stroke-width="3" stroke-miterlimit="10" points="557.307,189.762 557.307,189.762 
	557.306,189.761 "/>
<path fill="#A8A8A8" stroke="#272525" stroke-width="3" stroke-miterlimit="10" d="M282.829,77.21
	c-1.061-2.629-4.635-5.625-13.536-8.395l-10.727-3.774l0.04-1.71l10.91-3.694c4.16-2.429,5.24-13.63,5.508-20.494
	c0.195-2.616,0.245-5.567,0.073-8.904v-1.685c0,0-56.354-36.25-162.359-12.461c-1.277,0.02-2.429,0.121-3.394,0.334
	c0,0-67.126,5.587-67.639,27.453l-2.022,32.05c0,0-0.494,5.073,2.022,7.616l21.114,5.977l1.262,31.641l21.049,7.801L54.428,144.05
	c0,0-1.391,0.383-2.723,1.055c-1.012,0.461-1.645,0.927-2.005,1.38l-4.292,2.03c0,0-12.185,7.324-29.952,27.642l-1.153,1.243
	c-1.795,1.901-2.596,3.454-2.788,4.717c-4.056,3.87-6.442,9.301,3.458,14.1l48.226,18.803c0,0,15.752,4.066,28.421-3.554
	L283.011,93.685C283.011,93.685,297.359,86.014,282.829,77.21z"/>
</svg>
