<?xml version="1.0" encoding="utf-8"?>
<!-- Generator: Adobe Illustrator 17.0.0, SVG Export Plug-In . SVG Version: 6.00 Build 0)  -->
<!DOCTYPE svg PUBLIC "-//W3C//DTD SVG 1.1 Basic//EN" "http://www.w3.org/Graphics/SVG/1.1/DTD/svg11-basic.dtd">
<svg version="1.1" baseProfile="basic" id="Слой_1"
	 xmlns="http://www.w3.org/2000/svg" xmlns:xlink="http://www.w3.org/1999/xlink" x="0px" y="0px" width="95.922px"
	 height="39.347px" viewBox="0 0 95.922 39.347" xml:space="preserve">
<g>
	<path fill="#3FA556" d="M35.828,3.361L5.127,18.449c0,0-1.391,0.383-2.722,1.054c-1.95,0.888-2.493,1.797-2.393,2.592
		c0.032,0.558,0.416,1.166,1.304,1.811c0.085,0.065,0.168,0.124,0.248,0.179c0.009,0.006,0.017,0.012,0.026,0.018
		c0.364,0.248,0.648,0.391,0.648,0.391l0.025,0.009c0.63,0.346,1.406,0.702,2.364,1.065l35.087,12.716c0,0,0.373,0.122,1.052,0.281
		c0.013,0.003,0.026,0.006,0.039,0.009c0.111,0.026,0.229,0.052,0.356,0.079c10.84,2.471,21.37-2.456,21.37-2.456l2.795-1.549
		c0.269-0.146,0.537-0.288,0.807-0.442l26.96-14.726c0,0,0.314-0.227,0.726-0.622l0.619-0.343c1.669-1.855,1.749-3.535,1.13-4.946
		c-0.274-0.708-0.787-1.442-1.63-2.181c-0.819-0.766-6.804-3.613-11.017-4.638L55.909,0L42.258,5.744L35.828,3.361z"/>
</g>
</svg>
