<?xml version="1.0" encoding="utf-8"?>
<!-- Generator: Adobe Illustrator 17.0.0, SVG Export Plug-In . SVG Version: 6.00 Build 0)  -->
<!DOCTYPE svg PUBLIC "-//W3C//DTD SVG 1.1 Basic//EN" "http://www.w3.org/Graphics/SVG/1.1/DTD/svg11-basic.dtd">
<svg version="1.1" baseProfile="basic" id="Слой_1"
	 xmlns="http://www.w3.org/2000/svg" xmlns:xlink="http://www.w3.org/1999/xlink" x="0px" y="0px" width="298.219px"
	 height="224.938px" viewBox="0 0 298.219 224.938" xml:space="preserve">
<polygon fill="#A8A8A8" stroke="#272525" stroke-width="3" stroke-miterlimit="10" points="557.307,189.762 557.307,189.762 
	557.306,189.761 "/>
<path fill="#A8A8A8" stroke="#272525" stroke-width="3" stroke-miterlimit="10" d="M204.971,65.669L96,99.182l2.033-47.813
	c0,0,89.467-42.708,177.438-17.297c0,0,0.512,22.381-5.581,25.938l-51.954,17.592L204.971,65.669z"/>
<g>
	<path fill="#A8A8A8" stroke="#272525" stroke-width="3" stroke-miterlimit="10" d="M98.014,50.994
		c0,0,89.467-42.708,177.438-17.297c0,0,0.171-0.124,0-3.46v-1.685c0,0-56.354-36.25-162.359-12.461
		c-1.276,0.02-2.429,0.121-3.394,0.334c0,0-67.126,5.587-67.639,27.453l-2.021,32.05c0,0-0.494,5.073,2.021,7.616l53.921,15.263
		L98.014,50.994z"/>
	<polygon fill="#A8A8A8" stroke="#272525" stroke-width="3" stroke-miterlimit="10" points="95.981,98.807 95.981,98.807 
		95.982,98.807 	"/>
</g>
<polygon fill="#A8A8A8" stroke="#272525" stroke-width="3" stroke-miterlimit="10" points="258.495,75.598 258.787,63 
	217.744,76.898 204.779,64.964 95.808,98.477 63,89.19 64.262,120.831 91.741,131.015 176.208,95.473 202.571,105.58 
	205.273,106.521 261.806,75.546 258.712,74.189 "/>
<path fill="#A8A8A8" stroke="#272525" stroke-width="3" stroke-miterlimit="10" d="M282.829,77.169
	c-1.061-2.629-4.635-5.625-13.536-8.395L258.566,65l-0.253,10.887l0.218-1.409l3.094,1.357l-56.534,30.975l-2.702-0.941
	l-26.362-10.108l-70.816,29.799l27.01,6.751c4.213,1.025,8.361,2.713,8.622,2.892c0.667,0.385,1.576,0.979,2.395,1.746
	c0.843,0.739,1.355,1.473,1.63,2.181c0.619,1.41,0.54,3.091-1.13,4.946l-0.619,0.343c-0.412,0.395-0.726,0.622-0.726,0.622
	l-26.96,14.726c-0.27,0.155-0.538,0.297-0.807,0.442l-2.795,1.549c0,0-10.53,4.927-21.37,2.456
	c-0.126-0.027-0.245-0.053-0.356-0.079c-0.013-0.003-0.026-0.006-0.039-0.009c-0.678-0.159-1.052-0.281-1.052-0.281l-35.087-12.716
	c-0.958-0.364-1.734-0.719-2.364-1.065l-0.025-0.009c0,0-0.283-0.143-0.648-0.391c-0.009-0.006-0.017-0.012-0.026-0.018
	c-0.08-0.055-0.163-0.114-0.248-0.179c-0.888-0.646-1.272-1.253-1.304-1.811c-0.038-0.302,0.02-0.621,0.211-0.948
	c0.052-0.089-0.481,0.047-0.481,0.047l-3.634,1.718c0,0-12.185,7.324-29.952,27.642l-1.153,1.243
	c-1.795,1.901-2.596,3.454-2.788,4.717c-4.056,3.87-6.442,9.301,3.458,14.1l48.226,18.804c0,0,15.752,4.066,28.421-3.554
	L283.011,93.644C283.011,93.644,297.359,85.973,282.829,77.169z"/>
<g>
	<path fill="#A8A8A8" stroke="#272525" stroke-width="3" stroke-miterlimit="10" d="M84.826,129.362l-30.7,15.088
		c0,0-1.391,0.383-2.722,1.054c-1.95,0.888-2.493,1.797-2.393,2.592c0.032,0.558,0.416,1.166,1.304,1.811
		c0.085,0.065,0.168,0.124,0.248,0.179c0.009,0.006,0.017,0.012,0.026,0.018c0.364,0.248,0.648,0.391,0.648,0.391l0.025,0.009
		c0.63,0.346,1.406,0.702,2.364,1.065l35.087,12.716c0,0,0.373,0.122,1.052,0.281c0.013,0.003,0.026,0.006,0.039,0.009
		c0.111,0.026,0.229,0.052,0.356,0.079c10.84,2.471,21.37-2.456,21.37-2.456l2.795-1.549c0.269-0.146,0.537-0.288,0.807-0.442
		l26.96-14.726c0,0,0.314-0.227,0.726-0.622l0.619-0.343c1.669-1.855,1.749-3.535,1.13-4.946c-0.274-0.708-0.787-1.442-1.63-2.181
		c-0.819-0.766-6.804-3.613-11.017-4.638L104.91,126l-13.651,5.744L84.826,129.362z"/>
</g>
</svg>
