<?xml version="1.0" encoding="utf-8"?>
<!-- Generator: Adobe Illustrator 17.0.0, SVG Export Plug-In . SVG Version: 6.00 Build 0)  -->
<!DOCTYPE svg PUBLIC "-//W3C//DTD SVG 1.1 Basic//EN" "http://www.w3.org/Graphics/SVG/1.1/DTD/svg11-basic.dtd">
<svg version="1.1" baseProfile="basic" id="Слой_1"
	 xmlns="http://www.w3.org/2000/svg" xmlns:xlink="http://www.w3.org/1999/xlink" x="0px" y="0px" width="343.375px"
	 height="236.75px" viewBox="0 0 343.375 236.75" xml:space="preserve">
<polygon fill="#A8A8A8" stroke="#272525" stroke-width="3" stroke-miterlimit="10" points="557.307,189.762 557.307,189.762 
	557.306,189.761 "/>
<path fill="#A8A8A8" stroke="#272525" stroke-width="3" stroke-miterlimit="10" d="M338.685,123.389c0,0-37.937-8.766-70.666-8.032
	c-0.768-2.12-1.841-3.69-3.134-4.793c-6.87-8.574-22.76,0.802-28.432,8.768c-1.316,1.851-1.92,3.866-3.708,5.082
	c-7.17,4.88-20.971,8.466-29.44,9.715c0,0-17.748-0.717-24.53-1.128l-11.134-0.26c3.726-2.212,14.837-9.381,14.36-15.978
	c0,0,0.388-1.01,0.939-2.673c0.563-1.312,0.879-2.776,1.275-4.169c0.04-0.143,0.08-0.283,0.12-0.429
	c1.756-6.212,3.445-13.554,1.942-19.99c-0.075-0.339-0.158-0.671-0.252-0.995c0,0,0.355-13.92-7.399,1.349l-2.868,22.133
	c-0.078-1.315-0.345-4.085-1.05-9.787c-0.052-0.424-0.107-0.865-0.165-1.322c-0.156-1.242-0.06-13.869-0.06-13.869
	s-0.936-10.815-7.607,3.056c0,0-2.321,11.646,0.376,23.08l-2.485,0.311c0,0-0.172-0.74-0.441-1.942
	c-0.807-3.604-2.489-11.355-3.034-15.703c0,0-1.82-1.25-3.801-1.23c-2.245,0.023-4.696,1.678-4.938,8.635
	c0,0,0.018,0.264,0.083,0.732c0.283,2.03,1.446,7.903,5.818,12.822c0,0-0.828,1.286-2.428,1.607
	c-1.701,0.341-4.275-0.409-7.664-4.966c0,0-2.974-6.011-7.308-5.157c-1,0.197-2.073,0.76-3.199,1.846l-0.21,0.848
	c-0.164-0.267-0.333-0.53-0.495-0.797c-0.296-0.486-0.646-1.019-1.027-1.585c-2.38-3.91-4.597-7.913-6.292-12.174
	c0,0-0.836-13.35-6.635-19.353c0,0-2.949-6.774-8.908-14.018c-0.369-1.364-2.815-10.866-2.73-10.111l-0.009-0.033
	c-0.978-11.956-9.471-33.733-10.977-38.952l-0.016-0.056c0,0-1.698-4.087-3.163-3.875c-1.003,0.143-1.897,2.298-2.063,9.154
	c0,0,2.723,24.834,7.772,31.936c-2.064-2.688-9.713-13.459-11.907-28.054L89.069,12.79c0,0-2.184-5.761-4.522-4.641
	c-0.982,0.47-1.992,2.147-2.878,5.99c0,0,0.015,0.179,0.049,0.512c0.331,3.222,2.457,20.84,10.107,30.171l5.079,10.295
	L85.096,44.825c0,0-0.084-0.131-0.238-0.373c-1.489-2.344-9.523-15.118-11.476-20.906c-0.208-0.615-0.346-1.153-0.4-1.589
	c-0.37-2.95-2.802-5.789-4.51-4.554c-1.169,0.844-2,3.596-1.6,9.524c0,0,4.873,18.733,19.936,28.194l-1.086,1.398
	c-0.02-0.01-14.396-7.456-25.412-21.619l-2.901-3c0,0-1.696-2.162-2.912-2.215c-1.073-0.049-1.773,1.542-0.604,7.703
	c0,0,3.935,11.278,16.049,17.327l3.311,2.949c0,0-0.213,0.016-0.62,0.018c-2.198,0.009-10.034-0.418-20.341-6.22l-8.125-4.447
	c0,0-1.546-0.153-2.202,0.533c-0.96,1.001-0.021,3.791,10.433,11.471c-4.44,0.826-6.786,3.772-6.299,8.178
	c0.145,1.309,3.336,9.433,4.765,9.543c-4.38-0.334-5.599,5.043-4.132,8.517c1.339,3.17,5.48,3.839,6.147,7.587
	c-0.529,0.248-0.974,0.531-1.358,0.84c-4.78,3.83,1.013,11.988,3.767,15.194c-8.051,5.488,0.064,11.167,3.223,15.989
	c-10.095,3.481,3.606,10.776,4.444,13.804c0.62,2.235-1.76,4.566-0.496,7.811c1.498,3.837,3.166,4.892,7.395,5.697
	c-5.124,5.733,4.506,9.115,8.057,10.368c-0.001,0-0.002,0.001-0.003,0.001c-0.562,0.093-1.252,0.223-1.818,0.412
	c0.002,0.359,0.027,0.714,0.061,1.067c-0.61,1.956,0.87,5.253,2.289,6.618c0.942,0.906,2.01,1.415,3.153,1.631
	c-3.33,1.607-6.413,1.78-10.434,2.491c-2.664,0.469-9.424,0.746-11.451,2.359c-2.374,1.89-2.337,4.291-0.299,5.528
	c0.144,0.279,0.341,0.538,0.59,0.775c-4.449,0.607-8.58,2.382-6.766,7.756c0.242-0.115,0.537-0.194,0.856-0.257
	c0.067,0.473,0.172,0.968,0.355,1.512h0.001l0,0c0.469-0.222,1.13-0.317,1.804-0.403c-1.72,1.261-5.047-0.097-5.839,2.73
	c-0.485,1.724,0.089,2.502,1.083,2.768c0.189,1.046,1.121,1.384,2.265,1.367c1.578-0.023,3.537-0.703,4.425-1.055
	c0.505-0.201,1.004-0.416,1.499-0.645c0.297-0.138,0.59-0.289,0.884-0.435c-12.684,7.631-26.059,14.605-26.059,14.605l-6.573,1.243
	c-17.384,2.18-13.81,7.198-13.81,7.198l-4.502,4.351c-5.017,3.573,3.211,2.12,3.211,2.12l6.931-1.711
	c7.916-0.571,14.695-3.524,14.695-3.524c6.624-4.195,49.458-31.43,49.458-31.43l9.371-3.188c9.612,1.254,28.497,0.856,41.746-0.689
	c1.14-0.133,2.278-0.296,3.413-0.475c0.345-0.053,0.691-0.11,1.038-0.168c0.336-0.057,0.671-0.114,1.007-0.175
	c10.534-1.895,22.126-6.06,32.003-14.598c8.294-6.419,17.03-14.676,26.792-18.604c9.466-3.809,18.927-7.765,27.994-12.457
	c1.37-0.71,2.686-1.292,3.969-1.765c5.586-2.047,10.539-2.025,16.513-1.406c4.348,0.452,9.799,0.175,14.22-1.483
	c1.033-0.384,2.012-0.842,2.907-1.384c2.745-1.661,4.486-3.666,6.856-4.912l5.703-0.147l52.376-3.57
	C329.824,124.595,329.305,122.463,338.685,123.389z M103.546,51.653c-0.056-0.069-0.144-0.179-0.261-0.328
	C103.372,51.438,103.458,51.551,103.546,51.653z M137.634,111.005l-0.001,0.005c-0.417-0.665-0.829-1.332-1.239-2.001
	C136.803,109.677,137.217,110.341,137.634,111.005z"/>
</svg>
