<?xml version="1.0" encoding="utf-8"?>
<!-- Generator: Adobe Illustrator 17.0.0, SVG Export Plug-In . SVG Version: 6.00 Build 0)  -->
<!DOCTYPE svg PUBLIC "-//W3C//DTD SVG 1.1 Basic//EN" "http://www.w3.org/Graphics/SVG/1.1/DTD/svg11-basic.dtd">
<svg version="1.1" baseProfile="basic" id="Слой_1"
	 xmlns="http://www.w3.org/2000/svg" xmlns:xlink="http://www.w3.org/1999/xlink" x="0px" y="0px" width="61.874px"
	 height="99.415px" viewBox="0 0 61.874 99.415" xml:space="preserve">
<path fill="#A04642" d="M4.724,3.749c-4.38-0.334-5.599,5.043-4.133,8.517c1.339,3.17,5.48,3.839,6.147,7.588
	c-7.101,3.32-0.567,12.57,2.409,16.034c-8.051,5.488,0.064,11.167,3.223,15.989c-10.095,3.481,3.606,10.776,4.444,13.804
	c0.62,2.235-1.76,4.566-0.496,7.811c1.498,3.837,3.166,4.892,7.395,5.697c-5.124,5.733,4.506,9.115,8.057,10.368
	c-3.543,0.587-1.437,6.206,0.529,8.098c5.591,5.376,15.544-2.968,19.94-6.35c2.979-2.291,14.211-7.838,7.568-12.168
	c-3.387-2.207-9.823,0.881-9.892,0.768s2.789-7.384,1.934-8.611c-1.882-2.706-7.738-1.043-10.635-0.861
	c1.186-2.859,8.047-3.98,2.434-8.685c-4.396-3.686-8.123,0.45-8.565-5.763c-0.14-2.004,1.794-1.193,0.051-4.76
	c-1.812-3.699-1.826-1.336-4.055-3.059c-5.154-3.987,0.42-3.16-1.06-8.442c-1.317-4.714-10.351-1.964-6.892-8.561
	c0.926-1.763,4.015-0.629,4.589-3.82c0.491-2.725-1.498-3.911-3.214-5.3c-1.85-1.503-4.076,0.091-4.623-3.221
	c-0.662-3.99,2.859-2.761,4.155-5.145c0.492-0.908,0.942-4.277,0.333-5.447c-1.477-2.856-3.11-0.782-4.567-2.573
	c-1.414-1.731-1.802-3.121-1.081-4.389C13.302,0.322,7.744-0.021,2.126,0.001C3.054,1.979,4.072,3.699,4.724,3.749z"/>
</svg>
