<?xml version="1.0" encoding="utf-8"?>
<!-- Generator: Adobe Illustrator 17.0.0, SVG Export Plug-In . SVG Version: 6.00 Build 0)  -->
<!DOCTYPE svg PUBLIC "-//W3C//DTD SVG 1.1 Basic//EN" "http://www.w3.org/Graphics/SVG/1.1/DTD/svg11-basic.dtd">
<svg version="1.1" baseProfile="basic" id="Слой_1"
	 xmlns="http://www.w3.org/2000/svg" xmlns:xlink="http://www.w3.org/1999/xlink" x="0px" y="0px" width="142.246px"
	 height="63.683px" viewBox="0 0 142.246 63.683" xml:space="preserve">
<path fill="#369371" d="M130.166,2.826c-4.38-6.029-17.523-0.886-23.14,1.431C94.284,9.504,80.554,15.982,68.792,23.133
	C55.8,33.209,26.506,48.48,26.506,48.48l-6.573,1.243c-17.384,2.18-13.81,7.198-13.81,7.198l-4.502,4.35
	c-5.017,3.573,3.211,2.12,3.211,2.12l6.931-1.711c7.916-0.571,14.695-3.524,14.695-3.524c6.624-4.195,49.458-31.43,49.458-31.43
	l9.381-3.192c10.592,0.884,42.297,0.341,55.684-3.511C146.087,18.554,134.356,8.597,130.166,2.826z"/>
</svg>
