<?xml version="1.0" encoding="utf-8"?>
<!-- Generator: Adobe Illustrator 17.0.0, SVG Export Plug-In . SVG Version: 6.00 Build 0)  -->
<!DOCTYPE svg PUBLIC "-//W3C//DTD SVG 1.1 Basic//EN" "http://www.w3.org/Graphics/SVG/1.1/DTD/svg11-basic.dtd">
<svg version="1.1" baseProfile="basic" id="Слой_1"
	 xmlns="http://www.w3.org/2000/svg" xmlns:xlink="http://www.w3.org/1999/xlink" x="0px" y="0px" width="69.781px"
	 height="66.262px" viewBox="0 0 69.781 66.262" xml:space="preserve">
<path fill="#D35F54" d="M58.878,5.875c-0.028-0.066-4.816-11.54-5.223,5.282c0,0,2.727,24.88,7.785,31.957
	c0.017,0.023,0.037,0.049,0.054,0.07c0.149,0.204,0.3,0.398,0.453,0.57c0,0-0.164-0.197-0.453-0.57
	c-0.018-0.024-0.036-0.045-0.054-0.07c-2.043-2.657-9.722-13.445-11.921-28.074L47.393,4.796c0,0-4.405-11.64-7.4,1.348
	c0,0,1.715,20.387,10.156,30.683l5.079,10.295L43.421,36.83c0,0-9.56-14.893-11.715-21.28c-0.209-0.615-0.346-1.153-0.4-1.589
	c-0.623-4.968-7.093-9.622-6.109,4.97c0,0,4.873,18.733,19.936,28.194l-1.086,1.399c0,0-14.389-7.446-25.413-21.62l-2.901-3
	c0,0-6.008-7.656-3.515,5.488c0,0,3.935,11.278,16.049,17.327l3.311,2.949c0,0-8.746,0.676-20.961-6.202L2.491,39.02
	c0,0-9.368-0.927,8.232,12.002c-4.44,0.826-6.786,3.772-6.299,8.178c0.079,0.712,1.06,3.437,2.167,5.795
	c5.618-0.022,11.176,0.321,16.593,1.267c0.292-0.513,0.76-1.007,1.423-1.495c0.914-0.671,3.073-0.106,4.159-0.511
	c0.509-0.193,3.58-2.072,3.309-2.04c1.914-0.226,3.957,1.383,6.062,0.873c2.777-0.671,3.546-5.527,6.605-6.171
	c2.613-0.55,4.066,2.463,7.028,1.312c3.712-1.446,3.287-8.021,9.133-7.543c3.114,0.256,3.487,4.621,7.444,1.596
	C74.638,47.474,58.148,4.58,58.878,5.875z"/>
</svg>
