<?xml version="1.0" encoding="utf-8"?>
<!-- Generator: Adobe Illustrator 17.0.0, SVG Export Plug-In . SVG Version: 6.00 Build 0)  -->
<!DOCTYPE svg PUBLIC "-//W3C//DTD SVG 1.1 Basic//EN" "http://www.w3.org/Graphics/SVG/1.1/DTD/svg11-basic.dtd">
<svg version="1.1" baseProfile="basic" id="Слой_1"
	 xmlns="http://www.w3.org/2000/svg" xmlns:xlink="http://www.w3.org/1999/xlink" x="0px" y="0px" width="50.423px"
	 height="51.218px" viewBox="0 0 50.423 51.218" xml:space="preserve">
<path fill="#7566A9" d="M46.505,31.389c0.562-1.31,0.878-2.772,1.273-4.162c0.041-0.147,0.083-0.291,0.124-0.442
	c1.755-6.21,3.443-13.55,1.94-19.984c-0.075-0.339-0.158-0.671-0.252-0.995c0,0,0.354-13.92-7.399,1.349l-2.868,22.133
	c-0.078-1.315-0.345-4.085-1.05-9.787c-0.052-0.424-0.107-0.865-0.165-1.322c-0.156-1.242-0.06-13.869-0.06-13.869
	s-0.936-10.815-7.607,3.056c0,0-2.321,11.646,0.376,23.08l-2.485,0.311c0,0-0.172-0.74-0.441-1.942
	c-0.807-3.604-2.489-11.355-3.034-15.703c0,0-1.82-1.25-3.801-1.23c-2.245,0.023-4.696,1.678-4.938,8.635
	c0,0,0.018,0.264,0.084,0.732c0.283,2.03,1.446,7.903,5.818,12.822c0,0-0.828,1.286-2.428,1.607
	c-1.701,0.341-4.275-0.409-7.664-4.966c0,0-2.974-6.011-7.308-5.156c-1,0.197-2.073,0.76-3.199,1.846l-1.395,5.642
	c-0.39,1.58,3.715,9.245,4.414,10.986c0.967,2.398,1.551,4.319,3.254,5.03l0.879,1.835l20.734,0.324l0.696-0.49
	c0,0,16.136-8.751,15.563-16.67C45.566,34.062,45.954,33.052,46.505,31.389z"/>
</svg>
