<?xml version="1.0" encoding="utf-8"?>
<!-- Generator: Adobe Illustrator 17.0.0, SVG Export Plug-In . SVG Version: 6.00 Build 0)  -->
<!DOCTYPE svg PUBLIC "-//W3C//DTD SVG 1.1 Basic//EN" "http://www.w3.org/Graphics/SVG/1.1/DTD/svg11-basic.dtd">
<svg version="1.1" baseProfile="basic" id="Слой_1"
	 xmlns="http://www.w3.org/2000/svg" xmlns:xlink="http://www.w3.org/1999/xlink" x="0px" y="0px" width="121.148px"
	 height="59.249px" viewBox="0 0 121.148 59.249" xml:space="preserve">
<g>
	<path fill="#87BB50" d="M121.148,31.745c-2.665,1.606-6.169-3.683-8.302-4.751c-2.236-1.117-4.762-1.689-7.251-1.833
		c-0.001,0-0.001-0.001-0.002-0.001c-3.689-2.033-8.267-3.19-11.691-2.974c-1.55,0.097-2.092-0.101-2.106-0.419
		c-0.027-0.701,2.51-1.982,2.51-1.982c0,0-0.001,0-0.002,0c0,0,0.001-0.001,0.001-0.001c-5.192-1.218-10.39,2.106-15.354,8.289
		c0.263-5.146-0.676-11.154-1.517-19.328l0,0c0,0,0,0,0-0.001c0,0-1.243-7.093-1.889-3.423c-0.466,2.659-1.298,6.223-3.6,11.161
		c0,0,0,0,0-0.001c-1.216-5.324-3.278-10.46-5.084-14.105c-3.793-7.657-1.898,5.105-2.653,11.303
		c-0.758,6.198-3.414,7.657-9.101,14.585c-0.103,0.125-0.196,0.249-0.292,0.373c0,0,0,0.001-0.001,0.001
		c-0.256-0.373-0.521-0.753-0.806-1.155c-5.696-8.011-6.784-15.565-9.387-16.451c-0.729-0.249-1.577,0.026-2.679,0.96
		c-3.305,2.803-7.055,8.248-7.328,14.959c0,0,0.001,0.001,0.001,0.001c0,0,0,0,0,0c-1.272-0.843-2.593-1.599-3.962-2.244
		c-0.924-0.742-2.117-1.82-3.855-3.492c-5.562-5.346-8.089-4.616-8.089-4.616c-0.062,1.255,0.074,2.321,0.293,3.249
		c0.14,0.591,0.306,1.137,0.501,1.605c-3.031-0.065-6.232,0.486-8.991,1.87c-2.132,1.062-5.637,6.348-8.305,4.745
		c0,0,0.007,0.004,0.007,0.004c-0.002-0.001-0.005-0.002-0.007-0.003c0.003,0,8.246,4.964,19.063,4.128
		c3.123-0.242,5.921,0.029,8.468,0.681c-0.147,0.915-0.162,1.764-0.163,1.917c0,0.002,0,0.001,0,0.003
		c-0.435-0.045-0.871-0.085-1.309-0.115c-0.195-0.013-0.387-0.021-0.581-0.032c0.01,0.001,0.018,0.003,0.027,0.003
		c-0.001,0-0.001,0-0.002,0c-0.009-0.001-0.017-0.002-0.026-0.003c-0.328-0.033-0.665-0.061-1.01-0.084
		c-4.422-0.287-8.527,0.207-11.976,0.955c-0.474,0.103-0.935,0.211-1.384,0.322c-2.011,0.481-3.934,1.091-5.765,1.82
		c-0.44,0.171-0.849,0.335-1.2,0.484c-1.187,0.504-1.849,0.853-1.849,0.853s0.003,0,0.004,0c0,0-0.003,0.002-0.003,0.002
		s0.006,0,0.011,0.001c-0.273,0.136-0.534,0.285-0.802,0.426c0,0,0.001,0,0.001,0.001c0,0-0.001,0-0.001,0.001c0,0,0,0-0.001-0.001
		c0,0,0.001-0.001,0.001-0.001c-0.002-0.002-0.005-0.004-0.007-0.006C3.371,39.6,3.04,39.781,2.711,39.964
		c0.015-0.008,0.03-0.016,0.045-0.024c-0.015,0.008-0.031,0.017-0.046,0.025c-0.933,0.52-1.835,1.075-2.71,1.66
		c0.626,0.806,1.318,1.558,2.073,2.242c0,0,0.001-0.001,0.001-0.001c1.502,1.362,3.244,2.462,5.152,3.24
		c0.072-0.094,0.151-0.177,0.226-0.267c-0.074,0.091-0.154,0.173-0.226,0.267c0.408,0.166,0.823,0.318,1.246,0.454
		c1.672-1.931,3.851-2.851,5.563-2.127c-1.712-0.724-3.891,0.197-5.563,2.127c0.252,0.081,0.505,0.155,0.761,0.224c0,0,0,0,0,0
		c0.841,0.228,1.707,0.395,2.593,0.495c-0.176-0.39-0.529-0.59-0.942-0.742c-0.421-0.153-0.83-0.231-1.24-0.041
		c0.41-0.191,0.818-0.112,1.241,0.041c0.413,0.152,0.765,0.352,0.942,0.742c0.654,0.074,1.319,0.116,1.993,0.116
		c0.772,0,1.531-0.052,2.277-0.15c0,0,0,0.001,0,0.001c0.68-0.089,1.347-0.219,2-0.383c-0.405-0.788-0.901-1.482-1.474-2.053
		c0.573,0.572,1.07,1.266,1.475,2.053c0.158-0.04,0.317-0.079,0.473-0.124c0.036-0.133,0.071-0.265,0.112-0.399
		c0.608-2.043,1.615-3.612,2.796-4.729c-1.181,1.118-2.188,2.686-2.796,4.729c-0.041,0.135-0.076,0.267-0.112,0.399
		c0.469-0.132,0.93-0.282,1.383-0.451c0.159,0.352,0.33,0.696,0.511,1.036c0,0.001-0.001,0.002-0.001,0.002
		c0.464,0.872,1.003,1.695,1.602,2.471c0.02-0.186,0.058-0.388,0.101-0.593c-0.043,0.205-0.081,0.407-0.101,0.593
		c0.435,0.565,0.898,1.107,1.398,1.613c0.678-0.316,1.489-1.126,2.215-2.228c-0.726,1.102-1.537,1.913-2.215,2.229
		c0.803,0.814,1.688,1.545,2.636,2.19c1.282-0.828,2.472-2.21,3.271-3.954c1.6-3.504,1.015-7.15-1.309-8.13
		c-0.436-0.184-0.902-0.262-1.382-0.244c0.481-0.018,0.948,0.06,1.384,0.244c2.324,0.98,2.909,4.626,1.309,8.13
		c-0.799,1.744-1.989,3.126-3.27,3.954c0.791,0.538,1.627,1.013,2.503,1.418l0,0c0,0,0.001,0,0.001,0c0,0,0.001,0,0.001,0.001
		c0,0,0,0,0,0c2.224,1.025,4.698,1.601,7.308,1.601c0.219,0,0.433-0.017,0.65-0.025c-0.699-1.639-1.82-2.832-3.209-3.245
		c1.39,0.411,2.512,1.606,3.211,3.247c0.509-0.019,1.012-0.058,1.509-0.119c0,0,0-0.001-0.001-0.001
		c2.806-0.346,5.41-1.346,7.642-2.859c0.358,0.33,0.731,0.643,1.115,0.942c0,0,0,0,0,0c0.648,0.505,1.33,0.965,2.046,1.375
		c0.933-0.916,2.02-1.423,3.152-1.357c1.241,0.073,2.338,0.824,3.179,2.026c-0.841-1.202-1.938-1.953-3.178-2.025
		c-1.133-0.066-2.219,0.44-3.151,1.358c2.56,1.469,5.526,2.311,8.69,2.311c5.333,0,10.105-2.388,13.314-6.151
		c1.002,0.953,2.117,1.787,3.322,2.483c0.107-0.212,0.222-0.41,0.342-0.6c-0.119,0.189-0.233,0.387-0.341,0.599
		c0.586,0.338,1.194,0.641,1.82,0.911c0.556-0.482,1.175-0.759,1.832-0.759c1.106,0,2.115,0.774,2.876,2.042
		c0.184,0.023,0.367,0.047,0.553,0.064c0,0,0,0.001,0,0.001c0.543,0.051,1.092,0.079,1.649,0.079c4.504,0,8.602-1.71,11.702-4.506
		c-0.817-0.83-1.531-1.874-2.031-3.109c-1.189-2.952-0.838-5.956,0.698-7.487c-1.535,1.532-1.884,4.535-0.697,7.486
		c0.5,1.235,1.214,2.279,2.031,3.109c0.032-0.029,0.064-0.056,0.096-0.085l0,0c0,0,0.001-0.001,0.001-0.001c0,0,0,0,0,0l0,0
		c0.482-0.441,0.936-0.909,1.366-1.401c-0.363-0.673-0.63-1.562-0.726-2.551c-0.053-0.554-0.038-0.991,0.031-1.336
		c-0.069,0.345-0.084,0.782-0.031,1.335c0.097,0.989,0.363,1.878,0.726,2.551c0.93-1.064,1.74-2.235,2.393-3.502
		c0.27,0.091,0.548,0.163,0.824,0.241c0,0,0,0.001,0,0.001c1.51,0.426,3.097,0.669,4.743,0.669c7.027,0,13.082-4.144,15.866-10.119
		l0,0h0.001c-2.619-1.629-5.53-2.95-8.736-3.908C117.203,34.117,121.146,31.745,121.148,31.745
		C121.148,31.745,121.148,31.745,121.148,31.745L121.148,31.745z"/>
	<path fill="#87BB50" d="M68.432,45.274c0.011,0.014,0.021,0.028,0.031,0.042c0.229-0.171,0.458-0.35,0.686-0.535
		C68.912,44.944,68.676,45.106,68.432,45.274z"/>
	<path fill="#87BB50" d="M77.86,55.733c-0.656,0-1.275,0.277-1.832,0.759c1.475,0.636,3.055,1.075,4.708,1.283
		C79.975,56.507,78.966,55.733,77.86,55.733z"/>
</g>
</svg>
