<?xml version="1.0" encoding="utf-8"?>
<!-- Generator: Adobe Illustrator 17.0.0, SVG Export Plug-In . SVG Version: 6.00 Build 0)  -->
<!DOCTYPE svg PUBLIC "-//W3C//DTD SVG 1.1 Basic//EN" "http://www.w3.org/Graphics/SVG/1.1/DTD/svg11-basic.dtd">
<svg version="1.1" baseProfile="basic" id="Слой_1"
	 xmlns="http://www.w3.org/2000/svg" xmlns:xlink="http://www.w3.org/1999/xlink" x="0px" y="0px" width="149.504px"
	 height="100.053px" viewBox="0 0 149.504 100.053" xml:space="preserve">
<g>
	<path fill="#B76153" d="M23.081,55.23c0,0,5.03,0.714-0.515,7.992c-3.723,4.885,10.056,7.568,8.567,10.359
		c-2.133,3.996-2.841,10.258,0.51,12.002c3.35,1.744,3.033,1.144,5.267,6.726c0.672,1.68,1.82,3.672,3.364,5.556
		c1.447,0.077,2.85,0.313,4.195,0.693c0.3,0.085,0.603,0.163,0.897,0.262c0.711-1.379,1.593-2.654,2.605-3.812
		c0.468-0.536,0.963-1.045,1.488-1.526c0.035-0.032,0.071-0.062,0.106-0.094c3.374-3.044,7.835-4.905,12.737-4.905
		c0.606,0,1.204,0.03,1.795,0.086c0.202,0.019,0.403,0.045,0.603,0.07c1.799,0.227,3.518,0.704,5.124,1.396
		c0.681,0.294,1.344,0.624,1.981,0.992c1.312,0.758,2.526,1.666,3.616,2.703c3.493-4.095,8.687-6.695,14.492-6.695
		c3.444,0,6.672,0.916,9.459,2.515c0.779,0.447,1.523,0.949,2.228,1.498c0.418,0.326,0.824,0.666,1.213,1.025
		c2.431-1.647,5.265-2.735,8.321-3.112c0.541-0.067,1.089-0.11,1.643-0.13c0.236-0.009,0.469-0.027,0.707-0.027
		c2.842,0,5.535,0.627,7.956,1.744c0.955,0.44,1.865,0.959,2.727,1.544c1.032,0.702,1.996,1.498,2.87,2.384
		c0.544,0.552,1.048,1.142,1.522,1.756c0.652,0.845,1.239,1.741,1.743,2.69c0.197,0.37,0.385,0.746,0.557,1.13
		c0.492-0.184,0.995-0.347,1.505-0.491c0.17-0.048,0.343-0.091,0.515-0.134c0.711-0.179,1.437-0.321,2.177-0.417
		c0.811-0.106,1.638-0.163,2.478-0.163c0.177,0,0.35,0.011,0.526,0.016c-0.084-2.054-0.495-3.696-0.495-3.696
		c5.103-1.455,7.139-15.654,7.139-15.654c7.618-2.96,2.749-16.985,2.749-16.985c5.331-3.814-1.523-13.39-0.597-17.623
		c0.927-4.233,1.24-11.444-0.679-12.159c-4.004-1.493-8.501,10.568-13.575,10.203c-5.076-0.366-6.488,4.298-6.488,4.298
		c-7.364-1.219-7.156,10.459-12.046,10.467c-2.942,0.005-4.488,1.966-5.862,3.634c-0.199,0.124-0.419,0.289-0.656,0.504
		c-0.694-1.217-0.952-2.431-0.241-3.676c2.391-4.183,8.168-11.156,3.188-16.536c-2.846-3.073-7.245-1.454-6.177-3.386
		c1.411-2.552,9.865-5.844,2.973-19.018c-3.316-6.339-6.885,0.033-8.002-8.689C98.174,1.823,98.942,0,98.942,0
		c-6.329,0.35-11.955,8.299-15.658,11.592c-4.664,4.147-1.292,9.948-3.154,12.389c-1.862,2.442-4.645-2.464-8.482,3.911
		c-2.016,3.349-0.24,8.029-0.312,10.747c-0.384-0.013-0.611-0.008-0.611-0.008c-1.645-4.452-4.096-5.539-6.166-5.495
		c0.289-0.039,0.579-0.069,0.862-0.084c-2.753-0.73-5.324,1.141-5.324,1.141c-3.275,1.152-3.657,4.174-3.339,6.662
		c-0.011,1.75,0.357,3.293,0.506,3.842c-0.172,0.047-0.34,0.098-0.5,0.155c-0.707-1.541-1.28-2.662-1.669-3.228
		c-3.35-4.885-15.263-4.187-15.263-4.187c-2.233-5.582-15.635-7.327-15.635-7.327c-3.35-3.489-10.424-2.791-14.146,1.046
		C6.328,34.996,1.489,33.949,0,34.298l1.489,1.048c15.299-0.212,16.38,5.233,18.24,6.977c1.862,1.744,1.49,0,0.746,5.233
		C19.731,52.788,23.081,55.23,23.081,55.23z M60.922,34.019c0,0,0.558-0.196,1.363-0.412c-0.976,0.376-1.611,0.838-1.611,0.838
		c-0.968,0.34-1.707,0.848-2.27,1.457C58.949,35.097,59.753,34.429,60.922,34.019z"/>
</g>
</svg>
