<?xml version="1.0" encoding="utf-8"?>
<!-- Generator: Adobe Illustrator 17.0.0, SVG Export Plug-In . SVG Version: 6.00 Build 0)  -->
<!DOCTYPE svg PUBLIC "-//W3C//DTD SVG 1.1 Basic//EN" "http://www.w3.org/Graphics/SVG/1.1/DTD/svg11-basic.dtd">
<svg version="1.1" baseProfile="basic" id="Слой_1"
	 xmlns="http://www.w3.org/2000/svg" xmlns:xlink="http://www.w3.org/1999/xlink" x="0px" y="0px" width="135.824px"
	 height="61.813px" viewBox="0 0 135.824 61.813" xml:space="preserve">
<g>
	<path fill="#42BCAA" d="M2.937,56.944c0.051-0.048,0.104-0.094,0.155-0.141c4.942-4.582,11.594-7.52,19.014-7.798
		c0.916-0.034,1.823-0.025,2.721,0.022c0.307,0.016,0.612,0.041,0.917,0.067c2.734,0.225,5.363,0.816,7.831,1.724
		c1.047,0.385,2.067,0.824,3.052,1.319c2.026,1.019,3.913,2.26,5.619,3.695c5.066-6.106,12.787-10.151,21.572-10.48
		c5.212-0.195,10.148,0.943,14.452,3.093c1.204,0.601,2.357,1.283,3.454,2.035c0.651,0.446,1.283,0.915,1.892,1.41
		c3.59-2.514,7.822-4.244,12.426-4.961c0.815-0.127,1.642-0.22,2.479-0.28c0.357-0.026,0.709-0.065,1.069-0.079
		c4.301-0.161,8.411,0.592,12.136,2.065c1.469,0.581,2.875,1.277,4.211,2.074c1.601,0.954,3.102,2.048,4.472,3.277
		c0.853,0.765,1.647,1.588,2.398,2.448c1.032,1.182,1.969,2.442,2.784,3.782c0.318,0.523,0.622,1.054,0.904,1.598
		c0.735-0.294,1.486-0.557,2.251-0.794c0.255-0.079,0.514-0.151,0.772-0.223c0.739-0.207,1.506-0.351,2.269-0.503
		c2.681-5.242,4.014-10.514,4.037-16.03c0.01-2.03-0.164-4.116-0.516-6.199c-0.449-2.658-1.227-5.211-2.313-7.588
		c-1.685-3.699-4.145-7.086-7.312-10.072c-2.159-2.021-4.609-3.832-7.283-5.382c-4.514-2.616-9.153-4.222-14.185-4.91
		c-2.359-0.319-4.948-0.473-7.917-0.473c0,0,0,0-0.001,0c-0.749,0-1.495,0.022-2.242,0.039c0.618-0.112,1.277-0.229,1.583-0.28
		c0.656-0.099,1.764-0.601,2.29-0.685c0.528-0.084,0.896-0.249,1.739-0.436c0.84-0.186-0.004-0.535-0.322-0.7
		c-0.315-0.164-1.132-0.14-1.892-0.185c-0.502-0.023-1.043,0.047-1.596,0.122c-0.526-0.125-2.035-0.452-2.651-0.223
		c-0.749,0.282-1.736-0.369-2.808-0.519c-1.066-0.155-2.799,1.087-3.036,1.366c-0.063,0.076-0.407,0.273-0.886,0.524
		c-0.251,0.08-0.472,0.157-0.638,0.204c0,0-0.012,0.055-0.028,0.136c-0.002,0.001-0.004,0.002-0.006,0.003
		c-0.261-0.133-0.336-0.159-0.709-0.306c-0.517-0.199-0.634-0.056-1.168-0.134c-0.081-0.012-0.182-0.019-0.277-0.028
		c0.379-0.331,0.933-0.577,1.657-1.197c0.842-0.725,1.631-0.314,2.523-0.836c0.893-0.519,0.869-0.619,1.026-0.805
		s0.762-0.763,0.524-1.157c-0.24-0.394-0.739-0.202-1.161-0.246c-0.422-0.04-0.632,0.211-0.632,0.211l-0.631,0.474l-2.182,0.833
		l-0.625,0.059c0.012-0.014,0.031-0.034,0.043-0.048c0.552-0.652,0.352-1.025,0.154-1.394c-0.2-0.373-1.423,0.064-1.932,0.871
		c-0.215,0.339-0.389,0.551-0.57,0.752c-0.187-0.132-0.564-0.385-0.854-0.484c-0.056-0.02-0.111-0.006-0.166-0.004
		c0.757-0.895,1.066-1.264,1.9-2.248c0.943-1.115-0.48-1.054-0.48-1.054l-1.419,0.465c0,0-0.273,0.934-0.666,1.805
		c-0.394,0.868-1.54,0.805-1.54,0.805L78.03,6.242c0,0-0.586,0.433-1.348,0.978c0.145-0.332,0.413-0.646,0.71-1.311
		c0.394-0.866,0.317-0.638,0.527-1.154c0.208-0.516,0.574-0.951,1.152-1.631c0.578-0.683,0.393-0.6,0.578-0.953
		c0.181-0.354,0.576-0.95,0.389-1.403c-0.186-0.458-0.633-0.331-1.134-0.143c-0.499,0.185-1.261,0.683-1.495,1.364
		c-0.233,0.681-0.183,0.619-0.498,1.26c-0.317,0.645,0.135,0.516-0.389,1.136c-0.526,0.62-0.606,0.577-0.815,0.828
		c-0.209,0.249-0.394,0.329-0.971,0.747c-0.58,0.415-0.343,0.268-0.843,0.725c-0.442,0.404-0.845,1.072-0.932,1.22
		c-0.055-0.203-0.122-0.394-0.243-0.538c-0.097-0.116-0.181-0.171-0.265-0.206c0.425-0.431,0.946-0.969,1.227-1.305
		c0.525-0.619,0.525-0.885,0.682-1.073c0.156-0.185,0.47-1.098,0.571-2.025c0.102-0.931-0.084-0.847-0.266-1.032
		c-0.186-0.188-0.82-0.516-1.188-0.613c-0.369-0.105-0.974,0.207-1.265,0.411c-0.292,0.209,0.213,0.828,0.213,0.828l1.137,0.678
		c0,0-0.156,0.725-0.657,1.176c-0.498,0.458-1.207,0.894-1.365,1.079c-0.118,0.141-0.767,0.303-1.296,0.456
		c-0.439-0.131-1.288-0.353-1.55-0.191c-0.218,0.136,0.063,0.68,0.43,1.172c-0.213,0.451-0.357,0.949-0.342,1.149
		c0.022,0.308-0.422,1.066-0.627,1.459c-0.404-0.095-0.836-0.212-1.285-0.344c0.085-0.121,0.158-0.226,0.255-0.366
		c0.525-0.764,0.406-1.07,0.276-1.517c0.007-0.016,0.028-0.049,0.033-0.062c0.059-0.174,0.669-0.997,0.49-1.492
		c-0.178-0.495-0.18-0.892-0.459-1.174c-0.275-0.275-0.952-0.693-1.226-0.774c-0.278-0.073-0.693-0.091-1.541,0.007
		c-0.389,0.043-0.688,0.001-0.969-0.05c0.022-0.187,0.052-0.371,0.097-0.538c0.155-0.589-1.23-0.769-1.23-0.769
		s-1.343-0.434-2.014-0.645c-0.673-0.218-1.07-0.558-1.508-1.051c-0.436-0.498-0.749,0.279-0.749,0.279l1.112,1.115
		c0,0,1.344,0.425,2.335,1.077c0.16,0.105,0.283,0.234,0.39,0.369c-0.324-0.067-0.55-0.173-0.982-0.077
		c-0.634,0.145-1.638,0.021-1.754,0.363c-0.026,0.075-0.032,0.158-0.031,0.241c-0.5-0.31-0.935-0.603-1.101-0.828
		c-0.318-0.434-1.028-0.199-1.263,0.08c-0.237,0.28-0.198,0.636,0.873,1.19c0.013,0.007,0.021,0.017,0.034,0.024
		c-0.346,0.097-0.3,0.381-0.493,0.718c-0.237,0.413,1.164,1.054,1.164,1.054s0.624,0.323,0.984,0.509
		c-0.432,0.003-0.835,0.059-1.127,0.263c-0.075,0.052-0.202,0.1-0.35,0.146c-0.011-0.01-0.021-0.02-0.032-0.031
		c-0.529-0.487-1.15-1.883-1.687-3.067c0.098-0.799,0.145-1.621,0.274-1.995c0.232-0.685,1.138-1.553,0.426-1.922
		c-0.712-0.369-3.04,0.965-3.04,0.965s-0.37,0.093-0.315,0.659c-0.141,0.051-0.282,0.099-0.417,0.21
		c-0.531,0.434,0.403,1.995,0.969,3.036c-0.33-0.148-0.658-0.286-0.909-0.417c-0.712-0.369-1.371-0.802-1.371-0.802
		s-1.428-1.004-1.722-1.338c-0.292-0.324-0.819-1.051-1.398-1.439c-0.582-0.394-2.217-0.885-2.217-0.885s-1.001-0.16-1.58,0.521
		c-0.574,0.683,1.006,0.699,1.006,0.699s1.108,0.575,1.528,0.885c0.423,0.307,1.824,0.944,2.142,1.38
		c0.316,0.429,1.16,0.781,1.399,1.171c0,0,1.559,1.523,1.797,1.649c0.034,0.018,0.086,0.07,0.146,0.138
		c-0.359-0.088-0.658-0.138-0.658-0.138L51.708,5.63c0,0-0.457-0.366-1.01-0.523c-0.556-0.152-1.167-0.336-1.403-0.26
		c-0.238,0.078-0.531,0.326-0.531,0.326s-0.038,0.06-0.082,0.138c-0.015-0.001-0.038-0.013-0.051-0.012
		C48.482,5.306,48.22,5.482,48,5.65c-0.39-0.307-0.811-0.62-1.295-0.874c-0.594-0.307-1.229-0.77-1.801-0.596
		c-0.572,0.167-1.085,0.167-0.886,0.54c0.198,0.369,0.319,0.634,0.974,0.972c0.652,0.342,1.364,0.711,1.538,0.802
		c0.152,0.079,0.833,0.431,1.262,0.655c0.154,0.217,0.311,0.447,0.462,0.672c-0.406,0.182-0.815,0.347-1.22,0.428
		c-0.095-0.032-0.176-0.069-0.279-0.097C46.201,8,46.105,8.012,45.567,7.737c-0.53-0.279-0.789-0.476-1.284-0.803
		c-0.494-0.321-0.536-0.479-1.011-0.725c-0.473-0.248-0.87-0.181-1.422-0.138c-0.313,0.029-0.503,0.176-0.617,0.301
		c-0.35-0.39-0.676-0.745-0.945-0.976c-0.796-0.683-3.138-3.776-3.809-3.987c-0.674-0.216-1.146,0.746-1.146,0.746l1.903,1.79
		c0,0,1.075,1.762,2.064,2.414c0.552,0.361,1.19,1.304,1.792,2.216c-0.055-0.06-0.098-0.11-0.125-0.146
		c-0.212-0.289-1.109-0.847-1.428-1.011c-0.317-0.164-1.37-0.265-1.684-0.157c-0.315,0.099-3.136-0.202-3.136-0.202l-3.509-1.105
		c0,0-0.925-0.39-1.398-0.373c-0.475,0.023-0.366,0.436-0.366,0.436L29.37,6.78l1.215,0.721c0,0,1.031,0.533,1.559,0.718
		c0.525,0.186,3.242,0.075,3.242,0.075s1.496-0.026,2.183,0.242c0.685,0.268,1.349,0.967,1.48,1.213
		c0.058,0.108,0.438,0.433,0.89,0.774c0.002,0.111,0.023,0.218,0.042,0.326c-6.207,0.392-10.947,1.06-15.317,2.161
		c-5.121,1.295-9.106,3.047-11.842,5.208c-3.615,2.865-6.705,6.919-8.938,11.723c-2.154,4.634-3.473,9.807-3.815,14.96
		c-0.285,4.396,0.308,8.858,1.69,13.282C2.15,57.769,2.52,57.336,2.937,56.944z"/>
</g>
</svg>
