<?xml version="1.0" encoding="utf-8"?>
<!-- Generator: Adobe Illustrator 17.0.0, SVG Export Plug-In . SVG Version: 6.00 Build 0)  -->
<!DOCTYPE svg PUBLIC "-//W3C//DTD SVG 1.1 Basic//EN" "http://www.w3.org/Graphics/SVG/1.1/DTD/svg11-basic.dtd">
<svg version="1.1" baseProfile="basic" id="Слой_1"
	 xmlns="http://www.w3.org/2000/svg" xmlns:xlink="http://www.w3.org/1999/xlink" x="0px" y="0px" width="171.625px"
	 height="198.646px" viewBox="0 0 171.625 198.646" xml:space="preserve">
<path fill="#A6262B" stroke="#FFFFFF" stroke-width="6" stroke-miterlimit="10" d="M137.057,43.307
	c6.018-1.187,10.043-3.243,9.974-3.563c-0.085-0.394-6.169-3.683-8.302-4.751c-2.237-1.117-4.762-1.69-7.251-1.834
	c-3.689-2.034-8.269-3.191-11.693-2.975c-4.964,0.31,0.404-2.402,0.404-2.402c-5.192-1.219-10.391,2.108-15.355,8.293
	c0.263-5.147-0.675-11.156-1.516-19.332c0,0-1.243-7.093-1.889-3.423c-0.466,2.661-1.298,6.228-3.605,11.171
	c-1.216-5.327-3.271-10.468-5.078-14.115c-3.793-7.657-1.898,5.105-2.653,11.303c-0.758,6.198-3.414,7.658-9.101,14.585
	c-0.106,0.129-0.186,0.255-0.286,0.383c-0.258-0.376-0.526-0.761-0.814-1.166c-7.291-10.253-7.031-19.758-12.064-15.49
	c-3.307,2.804-7.059,8.254-7.328,14.971c-1.273-0.844-2.59-1.61-3.96-2.256c-0.924-0.742-2.117-1.82-3.855-3.492
	c-5.562-5.346-8.089-4.616-8.089-4.616c-0.1,2.054,0.294,3.652,0.795,4.854c-3.032-0.066-6.232,0.485-8.991,1.87
	c-2.133,1.062-5.637,6.348-8.305,4.745c0.003,0,8.246,4.964,19.063,4.128c3.127-0.242,5.92,0.04,8.469,0.694
	c-0.147,0.915-0.161,1.763-0.162,1.91c-0.436-0.045-0.873-0.085-1.312-0.115c-0.16-0.011-0.315-0.011-0.475-0.021
	c-0.362-0.038-0.733-0.071-1.116-0.096c-4.824-0.313-9.27,0.303-12.898,1.165c-2.158,0.491-4.213,1.132-6.166,1.906
	c-0.219,0.085-0.425,0.166-0.623,0.246c-0.176,0.073-0.355,0.143-0.529,0.218c-1.254,0.528-1.944,0.9-1.942,0.9
	c-0.274,0.136-0.536,0.286-0.806,0.428c-0.003-0.002-4.37,2.666-4.388,2.693c-5.392,3.838-9.593,8.923-12.493,14.767
	c-0.115-0.012-2.713,6.481-2.63,6.637C8.716,75.997,8,80.745,8,85.61c0,21.345,12.907,41.622,28.737,62.841
	c-0.097,0.067-0.185,0.141-0.26,0.227c1.34,1.794,2.696,3.589,4.068,5.396c0.047-0.127,0.071-0.284,0.085-0.453
	c0.545,0.717,1.092,1.436,1.641,2.156c8.34,10.936,33.037,35.323,41.377,35.323c11.133,0,40.065-29.232,48.862-38.605
	c20.65-22.025,31.649-43.534,31.649-67.32C164.159,66.356,155.507,48.812,137.057,43.307z M107.424,44.736
	c-0.063,0.026-0.125,0.051-0.189,0.076c0.114-0.08,0.23-0.159,0.344-0.239C107.526,44.627,107.475,44.682,107.424,44.736z
	 M81.853,54.304c-0.018,0.002-0.037,0.007-0.055,0.009c0.009-0.023,0.017-0.045,0.026-0.068
	C81.834,54.265,81.844,54.284,81.853,54.304z"/>
<g id="__x0023_Layer_x0020_3">
	<g id="_422352304">
		<path fill="#76B452" d="M103.318,16.743c1.503,14.603,3.32,22.298-1.967,30.503C96.065,55.451,93.7,57.318,93.7,57.318
			s1.657,0.855-1.713-7.018c-3.367-7.87-2.386-11.277,2.546-19.611c4.933-8.337,6.254-13.705,6.896-17.369
			C102.075,9.65,103.318,16.743,103.318,16.743z"/>
		<path fill="#84BA50" d="M81.643,54.716c3.194-8.481,5.534-8.985-1.751-19.235c-7.291-10.253-7.031-19.758-12.064-15.49
			S56.73,34.654,63.485,46.319C70.241,57.982,81.643,54.716,81.643,54.716z"/>
		<path fill="#3DA556" d="M82.129,54.857c-3.032-6.195-6.821-11.663-1.137-18.593c5.687-6.927,8.343-8.387,9.101-14.585
			c0.755-6.198-1.14-18.96,2.653-11.303c3.793,7.654,8.722,21.878,4.554,30.629c-4.175,8.75-4.554,14.948-7.206,17.5
			C87.437,61.057,82.129,54.857,82.129,54.857z"/>
		<path fill="#3DA556" d="M78.039,56c-1.331-2.784-2.881-5.474-4.669-8.011c-0.476-0.68-0.977-1.353-1.491-2.026
			c-1.782-2.925-7.072-8.731-10.347-10.429c-0.207-0.106-0.401-0.204-0.586-0.291c-1.406-0.965-2.878-1.816-4.406-2.537
			c-0.924-0.742-2.117-1.82-3.855-3.492c-5.562-5.346-8.089-4.616-8.089-4.616c-0.1,2.054,0.294,3.652,0.795,4.854
			c-3.032-0.066-6.232,0.485-8.991,1.87c-2.133,1.062-5.637,6.348-8.305,4.745c0.003,0,8.246,4.964,19.063,4.128
			c10.823-0.839,17.751,4.453,23.789,10.61c6.038,6.154,8.531,8.431,8.537,8.434C78.803,58.618,78.421,56.795,78.039,56z"/>
		<path fill="#349452" d="M95.642,62.915c0.683-0.617,1.065-2.443,1.441-3.238c1.334-2.784,2.881-5.474,4.673-8.014
			c4.76-6.749,11.428-13.62,19.595-16.407c2.656-0.905,5.393-2.048,8.205-2.13c3.082-0.094,6.357,0.46,9.173,1.867
			c2.133,1.068,5.637,6.357,8.302,4.751c-0.003,0-8.249,4.964-19.063,4.128c-10.823-0.839-17.748,4.45-23.789,10.607
			C98.144,60.632,95.652,62.911,95.642,62.915z"/>
		<path fill="#CC2D2E" d="M164.159,85.175c0-23.789-13.811-45.561-43.785-43.522c-6.423,0.464-17.82,4.375-24.265,10.21
			c-6.968,6.307-14.027,6.198-21.08-0.366c-5.634-5.252-13.009-8.283-20.876-8.813C24.846,40.707,8,61.822,8,85.61
			s16.028,46.25,34.271,70.167c8.34,10.936,33.037,35.323,41.377,35.323c11.133,0,40.065-29.232,48.862-38.605
			C153.16,130.47,164.159,108.961,164.159,85.175z"/>
		<path fill="#D05353" d="M137.432,46.83c0.564-0.545-0.213-2.167-1.735-3.739c-1.181-0.319-2.402-0.592-3.664-0.808
			c-0.341,0.526-0.266,1.225,1.149,2.581C134.927,46.532,136.828,47.412,137.432,46.83z"/>
		<path fill="#D05353" d="M156.314,82.206c-2.371,0-4.297,2.938-4.297,6.561c0,0.761,0.1,1.475,0.26,2.152
			c0.013-3.608,2.098-6.523,4.669-6.523c1.328,0,2.521,0.783,3.37,2.029C159.696,83.96,158.143,82.206,156.314,82.206z
			 M153.78,66.666L153.78,66.666c2.48-0.695,5.346,1.566,6.395,5.045c0.034,0.116,0.047,0.232,0.078,0.348
			c-0.053-0.592-0.147-1.193-0.332-1.804c-1.052-3.479-3.915-5.741-6.395-5.048c-2.396,0.67-3.539,3.858-2.665,7.212
			C150.614,69.645,151.738,67.236,153.78,66.666z M120.915,61.803L120.915,61.803c-0.376-0.557-0.717-1.156-0.987-1.826
			c-1.466-3.627-0.595-7.338,1.942-8.283c1.535-0.573,3.323,0.009,4.826,1.353c-1.663-2.48-4.187-3.808-6.257-3.038
			c-2.54,0.949-3.407,4.66-1.945,8.293C119.074,59.733,119.932,60.926,120.915,61.803z M133.02,138.509L133.02,138.509
			c-1.989-1.096-2.624-3.724-1.729-6.295c-0.119,0.169-0.247,0.323-0.354,0.504c-1.769,2.972-1.29,6.436,1.068,7.732
			c2.361,1.303,5.712-0.047,7.485-3.019c0.282-0.47,0.482-0.955,0.651-1.441C138.309,138.593,135.237,139.73,133.02,138.509z
			 M135.616,116.211L135.616,116.211c-1.491-1.932-1.162-5.615,0.595-8.875c-0.172,0.197-0.351,0.376-0.517,0.598
			c-2.718,3.592-3.489,8.371-1.722,10.667c1.769,2.292,5.409,1.24,8.13-2.361c0.426-0.57,0.789-1.174,1.118-1.788
			C140.574,117.536,137.276,118.365,135.616,116.211z M119.597,153.497L119.597,153.497c-1.932-1.406-1.882-4.666-0.041-7.66
			c-0.26,0.272-0.526,0.545-0.767,0.855c-2.562,3.254-2.881,7.172-0.711,8.75c2.17,1.585,6.007,0.222,8.568-3.028
			c0.282-0.357,0.526-0.723,0.755-1.093C124.887,153.936,121.557,154.929,119.597,153.497z M145.017,81.257L145.017,81.257
			c0.147-0.438,0.282-0.889,0.388-1.353c1.35-5.709-0.598-11.118-4.406-12.994c-0.169-0.269-0.329-0.542-0.485-0.836
			c-2.045-3.899-2.07-8.017-0.069-9.189c1.212-0.711,2.891-0.169,4.478,1.221c-1.97-2.631-4.444-3.949-6.079-2.988
			c-2.007,1.174-1.979,5.29,0.066,9.189c0.467,0.896,1.005,1.679,1.572,2.371c-0.326-0.128-0.661-0.235-1.008-0.313
			c-4.56-0.996-9.405,2.909-11.171,8.825c-0.908-4.55-4.256-7.936-8.258-7.936c-4.698,0-8.506,4.651-8.506,10.394
			c0,3.066,1.093,5.809,2.822,7.714c-0.125-0.013-0.247-0.034-0.379-0.038c-4.3-0.088-7.901,5.183-8.049,11.782
			c-0.006,0.041,0,0.085,0,0.125c-1.359-1.798-3.276-2.972-5.462-3.1c-4.519-0.26-8.465,4.015-8.807,9.546
			c-0.241,3.824,1.3,7.25,3.771,9.085c-1.582,0.958-2.897,2.69-3.705,4.86c1.171-1.441,2.787-2.314,4.529-2.195
			c3.188,0.216,5.531,3.611,5.236,7.576c-0.298,3.965-3.116,7.003-6.304,6.78c-1.018-0.072-1.932-0.492-2.721-1.121
			c1.159,1.935,2.866,3.194,4.832,3.31c2.693,0.153,5.164-1.879,6.545-4.989c0.839,1.491,2.045,2.552,3.558,2.947
			c0.545,0.144,1.102,0.191,1.66,0.16c-1.437,1.033-2.659,2.474-3.464,4.237c-1.365,2.994-1.218,6.217,0.122,8.684
			c-3.251-0.175-6.965,2.546-8.929,6.843c-2.318,5.077-1.315,10.41,2.245,11.916c3.555,1.503,8.318-1.394,10.639-6.473
			c1.372-3.016,1.569-6.113,0.764-8.456c4.234,1.234,9.082-1.196,11.165-5.753c1.052-2.314,1.199-4.751,0.601-6.88
			c4.319,0.723,8.922-2.894,10.485-8.39c1.318-4.632,0.072-9.17-2.8-11.381c1.34-1.344,2.54-3.044,3.448-5.02
			c1.156-2.499,1.663-5.036,1.588-7.269c0.986,1.046,2.198,1.788,3.598,2.092c4.795,1.049,9.915-3.317,11.428-9.752
			C151.369,88.52,149.176,82.88,145.017,81.257z M102.053,103.95L102.053,103.95c-0.285,3.852-2.559,6.83-5.07,6.655
			c-2.521-0.169-4.328-3.432-4.04-7.281c0.285-3.852,2.556-6.83,5.073-6.655C100.534,96.838,102.341,100.101,102.053,103.95z
			 M113.277,76.184L113.277,76.184c0.576-4.118,3.223-7.1,5.916-6.661c2.687,0.438,4.4,4.134,3.824,8.252
			c-0.573,4.118-3.223,7.103-5.91,6.664C114.417,83.998,112.704,80.302,113.277,76.184z M106.951,127.723L106.951,127.723
			c-3.326-1.466-4.601-6.414-2.844-11.055c1.763-4.638,5.878-7.212,9.204-5.744c3.329,1.466,4.597,6.414,2.84,11.055
			C114.392,126.618,110.274,129.192,106.951,127.723z M107.474,154.766L107.474,154.766c-1.613,3.799-5.102,6.025-7.789,4.967
			c-2.693-1.055-3.564-4.995-1.954-8.797c1.622-3.799,5.114-6.025,7.801-4.964C108.222,147.027,109.093,150.964,107.474,154.766z
			 M118.125,140.238L118.125,140.238c-1.516,3.561-5.12,5.518-8.055,4.359c-2.941-1.152-4.093-4.976-2.581-8.543
			c1.516-3.564,5.127-5.515,8.064-4.363C118.488,132.85,119.638,136.671,118.125,140.238z M109.998,105.632L109.998,105.632
			c-3.138-1.234-4.153-5.841-2.267-10.285c1.898-4.447,5.969-7.053,9.11-5.816c3.135,1.231,4.146,5.834,2.255,10.282
			C117.204,104.26,113.133,106.866,109.998,105.632z M128.482,129.737L128.482,129.737c-2.152,3.495-5.828,4.926-8.202,3.188
			c-2.38-1.735-2.556-5.975-0.401-9.47c2.161-3.492,5.834-4.917,8.211-3.182C130.464,122.008,130.643,126.245,128.482,129.737z
			 M129.518,110.765L129.518,110.765c-1.622,3.993-5.048,6.442-7.654,5.465c-2.612-0.98-3.41-5.011-1.791-9.004
			c1.622-3.996,5.045-6.445,7.654-5.465C130.333,102.738,131.138,106.769,129.518,110.765z M135.033,91.501L135.033,91.501
			c-0.748,4.745-4.015,8.202-7.3,7.723c-3.291-0.476-5.355-4.71-4.613-9.452c0.748-4.745,4.018-8.202,7.31-7.723
			C133.718,82.529,135.782,86.76,135.033,91.501z M138.3,82.905L138.3,82.905c-2.487-0.36-4.043-3.57-3.476-7.169
			c0.564-3.595,3.032-6.22,5.518-5.86c2.487,0.363,4.043,3.57,3.476,7.169C143.251,80.64,140.783,83.265,138.3,82.905z
			 M148.935,92.973L148.935,92.973c-0.733,3.57-3.025,6.138-5.12,5.744c-2.105-0.401-3.207-3.614-2.474-7.187
			c0.736-3.567,3.028-6.138,5.127-5.737C148.566,86.193,149.671,89.406,148.935,92.973z"/>
		<path fill="#D05353" d="M99.444,71.63c0-4.366,1.923-7.898,4.3-7.898c1.597,0,2.994,1.613,3.73,3.999
			c-0.323-3.783-2.095-6.674-4.237-6.674c-2.377,0-4.3,3.536-4.3,7.901c0,1.419,0.207,2.75,0.567,3.899
			C99.466,72.457,99.444,72.05,99.444,71.63z"/>
		<path fill="#D05353" d="M85.58,86.324c-0.116-4.898,2.224-8.925,5.221-8.988c1.66-0.038,3.169,1.146,4.212,3.038
			c-0.808-3.495-2.897-5.985-5.29-5.935c-3.003,0.066-5.337,4.09-5.224,8.988c0.05,2.192,0.589,4.184,1.431,5.712
			C85.727,88.257,85.602,87.311,85.58,86.324z"/>
		<path fill="#D05353" d="M71.929,72.116c0.31-4.889,2.991-8.713,5.988-8.537c1.654,0.097,3.053,1.4,3.93,3.37
			c-0.501-3.551-2.368-6.198-4.754-6.336c-2.997-0.179-5.678,3.642-5.988,8.534c-0.138,2.186,0.222,4.215,0.933,5.806
			C71.91,74.057,71.866,73.102,71.929,72.116z"/>
		<path fill="#D05353" d="M119.672,76.835c-0.495,2.487-1.898,4.319-3.132,4.087c-1.237-0.225-1.835-2.421-1.34-4.907
			c0.495-2.483,1.553-2.599,2.79-2.374C119.224,73.869,120.164,74.355,119.672,76.835z"/>
		<path fill="#D05353" d="M140.395,75.983c-0.495,2.49-1.892,4.319-3.129,4.09c-1.234-0.229-1.835-2.424-1.34-4.911
			c0.495-2.483,1.553-2.599,2.79-2.371C139.947,73.021,140.887,73.503,140.395,75.983z"/>
		<path fill="#D05353" d="M130.577,90.859c-0.814,2.408-2.437,4.059-3.636,3.683c-1.196-0.373-1.503-2.624-0.695-5.033
			c0.814-2.405,1.879-2.393,3.075-2.02S131.385,88.457,130.577,90.859z"/>
		<path fill="#D05353" d="M125.651,109.095c-0.811,2.405-2.44,4.049-3.636,3.68c-1.199-0.376-1.51-2.624-0.698-5.033
			c0.814-2.408,1.879-2.393,3.075-2.023C125.591,106.095,126.459,106.69,125.651,109.095z"/>
		<path fill="#D05353" d="M99.297,103.227c0.056,2.53-0.918,4.597-2.173,4.622c-1.259,0.025-2.321-2.007-2.377-4.532
			c-0.05-2.53,0.958-2.856,2.217-2.884C98.226,100.411,99.247,100.699,99.297,103.227z"/>
		<path fill="#D05353" d="M97.781,120.727c0.053,2.527-0.921,4.601-2.177,4.622c-1.259,0.028-2.317-2.004-2.377-4.535
			c-0.05-2.527,0.961-2.853,2.22-2.875C96.707,117.914,97.728,118.199,97.781,120.727z"/>
		<path fill="#D05353" d="M84.133,126.198c0.053,2.53-0.921,4.597-2.18,4.622c-1.256,0.022-2.318-2.004-2.374-4.535
			c-0.053-2.527,0.961-2.856,2.217-2.878C83.059,123.383,84.08,123.671,84.133,126.198z"/>
		<path fill="#D05353" d="M82.617,109.791c0.053,2.527-0.924,4.597-2.18,4.622c-1.259,0.025-2.321-2.007-2.374-4.535
			c-0.05-2.53,0.958-2.856,2.217-2.878C81.543,106.975,82.564,107.26,82.617,109.791z"/>
		<path fill="#D05353" d="M65.699,109.005c0.576,2.468,0.056,4.682-1.168,4.951c-1.228,0.269-2.693-1.516-3.276-3.98
			c-0.583-2.465,0.341-2.978,1.566-3.251C64.052,106.455,65.114,106.54,65.699,109.005z"/>
		<path fill="#D05353" d="M62.69,126.48c1.127,2.283,1.124,4.557-0.013,5.073c-1.137,0.52-2.969-0.908-4.099-3.194
			c-1.131-2.286-0.348-2.981,0.789-3.498C60.504,124.341,61.559,124.194,62.69,126.48z"/>
		<path fill="#D05353" d="M47.523,112.622c1.131,2.286,1.124,4.557-0.009,5.077c-1.137,0.52-2.972-0.911-4.103-3.191
			c-1.131-2.286-0.344-2.981,0.792-3.504C45.34,110.483,46.395,110.342,47.523,112.622z"/>
		<path fill="#D05353" d="M55.838,91.138c0.583,2.468,0.063,4.685-1.162,4.951c-1.228,0.269-2.693-1.516-3.279-3.98
			c-0.583-2.465,0.341-2.981,1.569-3.251C54.193,88.592,55.258,88.676,55.838,91.138z"/>
		<path fill="#D05353" d="M39.108,81.592c-0.238,2.521-1.444,4.472-2.696,4.366c-1.253-0.11-2.076-2.239-1.841-4.757
			c0.238-2.518,1.281-2.737,2.534-2.628C38.359,78.683,39.343,79.074,39.108,81.592z"/>
		<path fill="#D05353" d="M61.055,71.987c-0.091,2.527-1.178,4.544-2.433,4.507c-1.259-0.041-2.205-2.126-2.12-4.651
			c0.085-2.53,1.118-2.803,2.374-2.762C60.134,69.119,61.14,69.46,61.055,71.987z"/>
		<path fill="#D05353" d="M52.164,57.165c-1.184,2.258-2.85,3.749-3.717,3.323c-0.877-0.423-0.623-2.593,0.561-4.854
			c1.184-2.258,2.036-2.189,2.906-1.763C52.79,54.29,53.348,54.907,52.164,57.165z"/>
		<path fill="#D05353" d="M24.567,53.04c0.714,0.636,2.743-0.357,4.525-2.217c1.782-1.857,1.419-2.599,0.698-3.238
			c-0.066-0.056-0.135-0.106-0.2-0.16c-1.516,0.789-2.96,1.663-4.328,2.618C24.367,51.377,24.041,52.577,24.567,53.04z"/>
		<path fill="#D05353" d="M37.37,58.79c-0.94,2.364-2.44,4.012-3.348,3.674c-0.918-0.332-0.893-2.521,0.041-4.882
			c0.94-2.364,1.791-2.377,2.706-2.045C37.68,55.871,38.306,56.432,37.37,58.79z"/>
		<path fill="#D05353" d="M10.512,71.943c0.911,0.335,2.411-1.306,3.351-3.67c0.933-2.364,0.31-2.922-0.604-3.257
			c-0.298-0.11-0.595-0.169-0.886-0.132c-0.968,1.948-1.791,3.98-2.471,6.079C9.989,71.471,10.192,71.824,10.512,71.943z"/>
		<path fill="#D05353" d="M79.204,91.558c0.056,2.53-0.921,4.597-2.18,4.626c-1.256,0.022-2.317-2.007-2.374-4.535
			c-0.05-2.53,0.961-2.853,2.22-2.881C78.129,88.742,79.154,89.03,79.204,91.558z"/>
		<path fill="#D05353" d="M78.624,70.7c-0.698,2.443-2.242,4.156-3.461,3.836c-1.209-0.319-1.625-2.559-0.93-4.992
			c0.698-2.443,1.763-2.477,2.978-2.155C78.427,67.709,79.323,68.264,78.624,70.7z"/>
		<path fill="#D05353" d="M97.139,141.108c-0.332,2.512-1.607,4.419-2.859,4.269c-1.246-0.157-1.989-2.311-1.66-4.82
			c0.335-2.509,1.384-2.687,2.634-2.537C96.5,138.174,97.471,138.6,97.139,141.108z"/>
		<path fill="#D05353" d="M84.315,148.076c0.507,2.483-0.081,4.685-1.315,4.917c-1.234,0.235-2.643-1.591-3.154-4.068
			c-0.504-2.487,0.432-2.975,1.666-3.207C82.746,145.483,83.807,145.593,84.315,148.076z"/>
		<path fill="#D05353" d="M103.434,154.305c-0.573,1.829-1.773,3.1-2.681,2.834c-0.914-0.263-1.181-1.96-0.611-3.786
			c0.576-1.829,1.378-1.835,2.289-1.575C103.34,152.041,104.004,152.48,103.434,154.305z"/>
		<path fill="#D05353" d="M96.231,169.253c-0.573,1.829-1.773,3.097-2.684,2.834c-0.911-0.26-1.181-1.957-0.611-3.786
			c0.576-1.829,1.381-1.835,2.296-1.572C96.134,166.995,96.801,167.428,96.231,169.253z"/>
		<path fill="#D05353" d="M83.478,165.605c0.285,1.888-0.247,3.526-1.19,3.652c-0.94,0.135-1.929-1.293-2.211-3.185
			c-0.279-1.888,0.448-2.22,1.387-2.349C82.401,163.591,83.2,163.716,83.478,165.605z"/>
		<path fill="#D05353" d="M67.309,148.189c0.37,2.49-0.332,4.648-1.572,4.814c-1.24,0.179-2.54-1.707-2.916-4.197
			c-0.366-2.49,0.589-2.934,1.832-3.104C65.887,145.53,66.937,145.696,67.309,148.189z"/>
		<path fill="#D05353" d="M92.933,84.113c-0.197,2.524-1.369,4.491-2.624,4.403c-1.256-0.091-2.111-2.211-1.917-4.732
			c0.197-2.521,1.24-2.756,2.49-2.662C92.141,81.21,93.134,81.589,92.933,84.113z"/>
		<path fill="#D05353" d="M115.031,98.153c-0.811,2.408-2.433,4.056-3.636,3.683c-1.193-0.373-1.503-2.624-0.695-5.033
			c0.814-2.405,1.879-2.393,3.075-2.02C114.971,95.156,115.842,95.748,115.031,98.153z"/>
		<path fill="#D05353" d="M111.999,119.668c-0.811,2.402-2.437,4.052-3.636,3.677c-1.196-0.37-1.503-2.624-0.698-5.03
			c0.817-2.405,1.882-2.393,3.079-2.02C111.94,116.668,112.807,117.263,111.999,119.668z"/>
		<path fill="#D05353" d="M125.651,127.56c-1.059,2.317-2.847,3.802-3.999,3.313s-1.225-2.759-0.169-5.073
			c1.062-2.314,2.12-2.202,3.273-1.716S126.706,125.246,125.651,127.56z"/>
		<path fill="#D05353" d="M136.966,134.666c-1.106,1.763-2.587,2.853-3.313,2.433c-0.73-0.423-0.423-2.192,0.68-3.955
			c1.106-1.766,1.826-1.638,2.556-1.218C137.614,132.346,138.071,132.903,136.966,134.666z"/>
		<path fill="#D05353" d="M124.075,149.614c-1.106,1.766-2.59,2.856-3.313,2.437c-0.73-0.423-0.423-2.195,0.68-3.959
			c1.106-1.766,1.826-1.635,2.556-1.215C124.724,147.293,125.178,147.851,124.075,149.614z"/>
		<path fill="#D05353" d="M145.18,122.653c-1.265,2.033-2.975,3.285-3.808,2.8c-0.833-0.482-0.485-2.518,0.78-4.547
			c1.271-2.026,2.101-1.879,2.938-1.397C145.926,119.988,146.449,120.627,145.18,122.653z"/>
		<path fill="#D05353" d="M155.039,107.348c-0.849,2.224-2.28,3.764-3.194,3.439c-0.914-0.323-0.971-2.383-0.125-4.607
			c0.852-2.22,1.697-2.227,2.612-1.904C155.246,104.595,155.882,105.131,155.039,107.348z"/>
		<path fill="#D05353" d="M25.309,71.646c-0.426,2.336-1.544,4.096-2.505,3.937c-0.961-0.163-1.4-2.183-0.98-4.516
			c0.426-2.33,1.253-2.48,2.214-2.321C24.999,68.906,25.726,69.316,25.309,71.646z"/>
		<path fill="#D05353" d="M17.956,87.333c0.078,2.368-0.645,4.309-1.619,4.341s-1.829-1.857-1.914-4.225
			c-0.081-2.368,0.698-2.678,1.672-2.709S17.868,84.968,17.956,87.333z"/>
		<path fill="#D05353" d="M25.97,101.485c0.767,2.249,0.642,4.309-0.282,4.601c-0.927,0.291-2.302-1.287-3.072-3.536
			c-0.774-2.249-0.116-2.759,0.811-3.053C24.354,99.202,25.196,99.24,25.97,101.485z"/>
		<path fill="#D05353" d="M26.756,119.74c1.08,2.126,1.331,4.143,0.561,4.51c-0.774,0.36-2.274-1.071-3.354-3.194
			c-1.077-2.13-0.586-2.678,0.185-3.041C24.921,117.651,25.679,117.617,26.756,119.74z"/>
		<path fill="#D05353" d="M38.134,134.691c1.077,2.123,1.331,4.143,0.557,4.503c-0.774,0.363-2.274-1.065-3.354-3.191
			c-1.08-2.13-0.586-2.678,0.185-3.041C36.299,132.599,37.053,132.565,38.134,134.691z"/>
		<path fill="#D05353" d="M51.403,154.011c1.08,2.133,1.328,4.15,0.557,4.513c-0.774,0.36-2.271-1.071-3.354-3.198
			c-1.077-2.126-0.583-2.675,0.188-3.041C49.568,151.922,50.323,151.891,51.403,154.011z"/>
		<path fill="#D05353" d="M37.041,148.277c-0.222,0.106-0.417,0.232-0.564,0.401c1.34,1.794,2.696,3.589,4.068,5.396
			c0.285-0.777-0.041-2.383-0.896-4.071C38.569,147.879,37.811,147.914,37.041,148.277z"/>
		<path fill="#D05353" d="M64.296,168.232c1.077,2.13,1.325,4.146,0.554,4.507c-0.774,0.366-2.271-1.065-3.351-3.188
			c-1.08-2.13-0.586-2.678,0.185-3.044C62.458,166.144,63.213,166.109,64.296,168.232z"/>
		<path fill="#D05353" d="M78.609,179.479c0.385,1.885,0.022,3.545-0.824,3.705c-0.842,0.16-1.838-1.237-2.233-3.122
			c-0.388-1.888,0.251-2.242,1.093-2.405C77.487,177.493,78.217,177.593,78.609,179.479z"/>
		<path fill="#D05353" d="M88.377,181.267c-0.523,1.851-1.616,3.182-2.446,2.969c-0.827-0.219-1.077-1.895-0.557-3.752
			c0.523-1.857,1.256-1.904,2.083-1.691C88.289,179.009,88.896,179.407,88.377,181.267z"/>
		<path fill="#D05353" d="M102.388,177.098c-1.156,1.566-2.659,2.452-3.364,1.973c-0.695-0.482-0.329-2.133,0.827-3.708
			c1.159-1.566,1.863-1.365,2.565-0.889C103.118,174.953,103.544,175.533,102.388,177.098z"/>
		<path fill="#D05353" d="M111.492,165.066c-1.159,1.566-2.662,2.449-3.367,1.973c-0.702-0.482-0.329-2.133,0.824-3.705
			c1.162-1.569,1.867-1.369,2.565-0.893C112.219,162.921,112.645,163.5,111.492,165.066z"/>
		<path fill="#D05353" d="M69.605,52.42c0.94,2.236,0.896,4.366-0.103,4.757c-1.005,0.391-2.577-1.106-3.52-3.345
			c-0.949-2.242-0.251-2.825,0.748-3.219C67.732,50.225,68.656,50.184,69.605,52.42z"/>
		<path fill="#D05353" d="M157.598,90.518c-0.298,2.349-1.325,4.162-2.292,4.046c-0.971-0.113-1.51-2.108-1.212-4.456
			c0.298-2.352,1.115-2.54,2.086-2.427C157.15,87.793,157.895,88.169,157.598,90.518z"/>
		<path fill="#D05353" d="M105.275,69.369c-0.298,2.352-1.322,4.165-2.292,4.049c-0.968-0.113-1.51-2.108-1.212-4.46
			c0.301-2.349,1.118-2.54,2.089-2.427C104.825,66.644,105.573,67.023,105.275,69.369z"/>
		<path fill="#D05353" d="M110.734,53.898c1.077,2.17,1.231,4.262,0.335,4.673c-0.896,0.41-2.496-1.015-3.573-3.182
			c-1.077-2.173-0.485-2.765,0.41-3.182C108.796,51.797,109.657,51.731,110.734,53.898z"/>
		<path fill="#D05353" d="M155.562,70.998c0.489,2.317,0.204,4.331-0.639,4.497c-0.836,0.163-1.91-1.585-2.399-3.905
			c-0.485-2.321,0.132-2.734,0.971-2.897C154.334,68.53,155.077,68.677,155.562,70.998z"/>
		<path fill="#D05353" d="M144.247,60.866c1.065,2.136,1.297,4.153,0.529,4.513c-0.77,0.354-2.258-1.09-3.326-3.223
			c-1.059-2.136-0.564-2.681,0.204-3.035C142.424,58.765,143.176,58.734,144.247,60.866z"/>
		<path fill="#D05353" d="M146.637,91.382c-0.68,2.728-2.145,4.726-3.27,4.469c-1.121-0.266-1.478-2.684-0.795-5.412
			c0.68-2.721,1.669-2.84,2.8-2.581C146.493,88.116,147.319,88.658,146.637,91.382z"/>
		<path fill="#D05353" d="M141.87,110.73c-1.225,2.693-3.125,4.5-4.234,4.027c-1.109-0.467-1.012-3.028,0.219-5.719
			c1.234-2.696,2.277-2.64,3.389-2.173C142.352,107.335,143.098,108.04,141.87,110.73z"/>
		<path fill="#D05353" d="M114.279,139.592c-1.059,2.318-2.847,3.799-3.999,3.313c-1.152-0.485-1.228-2.759-0.172-5.073
			c1.059-2.314,2.12-2.202,3.273-1.716C114.533,136.602,115.335,137.278,114.279,139.592z"/>
		<path fill="#D05353" d="M125.25,57.017c0.213,2.214-0.507,4.087-1.61,4.187c-1.099,0.094-2.161-1.622-2.377-3.833
			c-0.21-2.214,0.658-2.562,1.757-2.659C124.122,54.619,125.037,54.806,125.25,57.017z"/>
		<path fill="#D05353" d="M58.744,80.565c3.771-0.526,6.53-5.12,6.229-10.567c-0.31-5.662-3.808-10.087-7.814-9.884
			c-0.896,0.047-1.735,0.329-2.505,0.792c0.37-0.786,0.698-1.629,0.965-2.518c1.625-5.452,1.131-8.888-1.926-9.727
			c-3.05-0.842-7.504,1.228-9.126,6.677c-0.116,0.382-0.21,0.755-0.298,1.127c-1.043-2.427-2.903-4.118-5.189-4.366
			c-3.968-0.429-7.698,3.642-8.334,9.091c-0.598,5.149,2.656,7.767,6.264,8.615c-2.095,2.007-5.684,8.008-5.684,11.669
			c0,3.623,1.059,6.855,3.169,8.772c-1.021-1.547-1.39-3.695-1.654-6.038c-0.758-6.746,2.546-8.568,5.687-8.568
			c3.138,0,5.687,3.836,5.687,8.568c0,3.623-1.497,6.718-3.608,7.967c2.148,0.019,4.4-0.423,5.825-2.239
			c0.025,0.47,0.069,0.943,0.141,1.422c0.946,6.229,5.465,10.754,10.094,10.103c4.626-0.648,7.61-6.229,6.658-12.458
			C62.778,85.388,61.021,82.353,58.744,80.565z M41.225,61.568L41.225,61.568c-1.607,3.504-4.795,5.549-7.122,4.56
			c-2.324-0.98-2.913-4.622-1.309-8.13c1.607-3.504,4.798-5.549,7.125-4.566C42.243,54.415,42.828,58.057,41.225,61.568z
			 M58.628,62.222L58.628,62.222c3.11,0.385,5.127,4.5,4.497,9.198c-0.633,4.691-3.667,8.186-6.78,7.798
			c-3.113-0.385-5.13-4.503-4.5-9.201C52.474,65.326,55.509,61.837,58.628,62.222z M46.824,55.079L46.824,55.079
			c1.603-3.504,4.795-5.546,7.122-4.563c2.324,0.98,2.909,4.626,1.309,8.13c-1.607,3.508-4.795,5.553-7.122,4.566
			C45.807,62.232,45.221,58.586,46.824,55.079z M56.624,98.986L56.624,98.986c-3.01,0.861-6.592-2.114-8.002-6.649
			c-1.406-4.535-0.106-8.91,2.903-9.774c3.006-0.864,6.592,2.114,7.999,6.649C60.93,93.744,59.63,98.122,56.624,98.986z"/>
		<path fill="#D05353" d="M50.783,120.711c-2.559,1.654-6.956-0.329-9.818-4.435c-1.265-1.813-1.992-3.724-2.217-5.443
			c-0.366,2.145,0.376,4.998,2.217,7.632c2.862,4.099,7.259,6.085,9.818,4.435c1.428-0.924,1.951-2.797,1.663-4.97
			C52.242,119.13,51.701,120.122,50.783,120.711z"/>
		<path fill="#D05353" d="M65.966,134.82c-2.772,1.3-6.84-1.253-9.085-5.697c-0.764-1.516-1.196-3.044-1.353-4.466
			c-0.251,1.932,0.172,4.312,1.353,6.655c2.245,4.441,6.314,6.993,9.085,5.697c1.829-0.852,2.615-3.172,2.308-5.925
			C68.048,132.825,67.278,134.209,65.966,134.82z"/>
		<path fill="#D05353" d="M69.495,109.086c0.326,3.699-1.08,6.824-3.576,7.441c-2.988,0.736-6.398-2.396-7.62-6.993
			c0-0.009,0-0.022-0.006-0.028c0.066,0.723,0.188,1.466,0.385,2.211c1.221,4.601,4.632,7.732,7.62,6.996
			C69.276,117.983,70.707,113.674,69.495,109.086z"/>
		<path fill="#D05353" d="M69.918,147.735c0.288,3.695-0.974,6.827-3.229,7.444c-2.693,0.733-5.775-2.399-6.871-6.996
			c-0.006-0.009-0.006-0.019-0.009-0.028c0.06,0.723,0.169,1.463,0.351,2.214c1.099,4.601,4.178,7.729,6.874,6.996
			C69.721,156.629,71.011,152.323,69.918,147.735z"/>
		<path fill="#D05353" d="M86.732,127.225c-0.46,3.683-2.336,6.514-4.669,6.693c-2.794,0.219-5.177-3.426-5.327-8.146
			c-0.003-0.013,0-0.019,0-0.025c-0.091,0.717-0.132,1.463-0.106,2.233c0.147,4.72,2.534,8.365,5.324,8.149
			C84.737,135.916,86.876,131.932,86.732,127.225z"/>
		<path fill="#D05353" d="M75.806,111.485c-0.016-4.35,2.242-7.88,5.045-7.886c0.727-0.003,1.416,0.235,2.042,0.661
			c-0.927-1.45-2.208-2.349-3.627-2.346c-2.8,0.009-5.061,3.539-5.042,7.886c0.016,3.213,1.268,5.972,3.06,7.184
			C76.376,115.566,75.815,113.627,75.806,111.485z"/>
		<path fill="#D05353" d="M21.564,105.719c-2.249-3.768-2.098-7.914,0.335-9.248c0.629-0.348,1.353-0.467,2.114-0.398
			c-1.547-0.824-3.125-0.993-4.353-0.316c-2.433,1.337-2.584,5.481-0.338,9.251c1.663,2.79,4.175,4.591,6.348,4.798
			C24.157,109.005,22.672,107.583,21.564,105.719z"/>
		<path fill="#D05353" d="M19.807,73.159c0.576-4.309,3.301-7.522,6.079-7.178c0.72,0.088,1.372,0.413,1.932,0.914
			c-0.717-1.556-1.87-2.612-3.276-2.784c-2.775-0.344-5.496,2.869-6.076,7.178c-0.426,3.191,0.445,6.082,2.051,7.513
			C19.813,77.283,19.519,75.288,19.807,73.159z"/>
		<path fill="#D05353" d="M84.534,58.502c0,3.404,1.328,6.17,2.969,6.17c1.638,0,2.972-2.765,2.972-6.17
			c0-1.281-0.188-2.471-0.51-3.457c-1.744,0.949-3.498,1.425-5.249,1.397C84.603,57.086,84.534,57.772,84.534,58.502z"/>
		<path fill="#D05353" d="M94.07,52.937c-1.369,1.131-2.74,2.02-4.115,2.653c0.21,0.495,0.445,0.993,0.733,1.5
			c1.704,2.991,4.106,4.873,5.368,4.209c1.256-0.664,0.902-3.62-0.802-6.611C94.887,54.045,94.483,53.466,94.07,52.937z"/>
		<path fill="#D05353" d="M84.762,56.72c0.034-0.06,0.06-0.119,0.094-0.179c-2.133-0.116-4.269-1.002-6.404-2.662
			c-1.059,2.477-0.955,4.97,0.382,5.938C80.4,60.951,83.053,59.564,84.762,56.72z"/>
		<path fill="#3DA556" d="M88.633,54.697c8.791-6.909,9.853-10.191,15.136-17.25s10.855-10.971,16.42-9.665
			c0,0-5.368,2.712-0.404,2.402c4.97-0.313,12.374,2.264,15.956,6.22c0,0-9.427-2.101-17.716,1.535
			c-8.293,3.633-13.116,9.934-23.858,14.275C84.59,56.087,88.633,54.697,88.633,54.697z"/>
		<path fill="#349452" d="M91.49,53.494l-2.675,1.096c-0.42,0.16-0.936,0.366-1.265,0.454c-0.301-0.37,0.589-0.426,1.024-0.37
			l-0.094-0.26c-0.235,0.457-1.466-0.827-1.043,0.536c0.595-0.15,0.946-0.373,1.422-0.548l2.75-0.911
			c12.997-4.657,20.992-14.572,29.889-16.504c8.666-2.095,14.29-0.316,14.243-0.583c0.085,0.1-5.518-1.87-14.372,0.147
			C112.19,38.484,104.32,48.934,91.49,53.494z"/>
		<path fill="#349452" d="M69.088,47.747l2.803,2.371l0.153-0.15l-2.643-2.518c-6.016-6.022-12.298-11.309-18.174-12.314
			c-5.709-1.134-9.308-0.144-9.289-0.332c-0.009,0.304,3.605-0.567,9.217,0.623C56.921,36.495,63.05,41.713,69.088,47.747z"/>
		<path fill="#349452" d="M87.713,51.509c-0.889,1.225-1.885,2.352-2.8,3.511l0.501,0.41c0.93-1.171,1.939-2.308,2.844-3.555
			c13.758-18.465,3.229-37.227,4.109-36.394C91.179,14.833,101.254,33.442,87.713,51.509z"/>
		<path fill="#317E48" d="M55.465,42.827c0,0-0.003-3.16,1.012-4.134c0,0,1.769,1.459,2.781,2.675
			c1.008,1.215,3.285,1.704,4.801,1.704s3.288,0.482,4.043,1.456c0.761,0.974,3.032,2.186,4.3,2.675
			c1.262,0.485,4.801,3.89,5.813,5.105c1.008,1.215,2.781,2.671,4.55,1.701c1.769-0.971,2.527-1.701,3.793-0.485
			c1.262,1.215,2.778,1.945,4.043,0.971c1.262-0.971,3.032-3.16,4.801-3.645c1.769-0.485,3.63-1.763,4.644-2.004
			c1.012-0.244,2.906-1.156,3.414-2.371c0.304-0.739,3.31-1.287,4.773-2.12c0.943-0.539,1.845-0.62,2.142-0.523
			c0,0-3.032,1.187-4.832,2.186c-1.29,0.717-5.318,3.172-11.277,7.294c-5.249,3.63-10.238,5.105-16.72,0.57
			c-5.838-4.087-9.943-6.433-13.739-8.136C60.015,44.043,55.465,42.827,55.465,42.827z"/>
		<path fill="#A6262B" d="M30.389,47.002c0,0,7.313,0.761,9.946,1.585c6.273,1.964,9.755-2.615,14.55-4.391
			c2.28-0.846,5.308-0.022,6.577,0.548c0,0-3.367-1.816-8.9-2.177C40.26,41.769,30.389,47.002,30.389,47.002z"/>
	</g>
</g>
</svg>
