<?xml version="1.0" encoding="utf-8"?>
<!-- Generator: Adobe Illustrator 17.0.0, SVG Export Plug-In . SVG Version: 6.00 Build 0)  -->
<!DOCTYPE svg PUBLIC "-//W3C//DTD SVG 1.1 Basic//EN" "http://www.w3.org/Graphics/SVG/1.1/DTD/svg11-basic.dtd">
<svg version="1.1" baseProfile="basic" id="Слой_1"
	 xmlns="http://www.w3.org/2000/svg" xmlns:xlink="http://www.w3.org/1999/xlink" x="0px" y="0px" width="171.625px"
	 height="198.646px" viewBox="0 0 171.625 198.646" xml:space="preserve">
<path fill="#D05353" stroke="#FFFFFF" stroke-width="6" stroke-miterlimit="10" d="M145.815,47.211
	c-2.784,5.975-8.839,10.119-15.866,10.119c-1.646,0-3.233-0.243-4.743-0.669c-0.276-0.078-0.554-0.15-0.824-0.241
	c-0.653,1.267-1.463,2.438-2.393,3.502c-0.43,0.492-0.885,0.961-1.367,1.402c-0.032,0.029-0.065,0.057-0.097,0.086
	c-3.1,2.796-7.198,4.506-11.702,4.506c-0.556,0-1.106-0.028-1.649-0.079c-0.186-0.017-0.37-0.041-0.554-0.064
	c-1.652-0.208-3.232-0.646-4.708-1.283c-0.626-0.27-1.234-0.573-1.82-0.911c-1.205-0.696-2.32-1.531-3.322-2.483
	c-3.209,3.762-7.981,6.151-13.314,6.151c-3.164,0-6.13-0.841-8.69-2.311c-0.716-0.411-1.399-0.872-2.047-1.376
	c-0.384-0.299-0.757-0.612-1.115-0.942c-2.233,1.513-4.838,2.513-7.644,2.859c-0.497,0.061-1,0.101-1.509,0.119
	c-0.217,0.008-0.431,0.025-0.65,0.025c-2.611,0-5.085-0.576-7.31-1.602c-0.877-0.405-1.714-0.881-2.505-1.419
	c-0.949-0.645-1.834-1.376-2.636-2.19c-0.5-0.507-0.963-1.049-1.398-1.613c-0.599-0.776-1.138-1.6-1.602-2.471
	c-0.181-0.34-0.353-0.685-0.512-1.038c-0.452,0.169-0.914,0.319-1.383,0.451c-0.156,0.044-0.315,0.084-0.473,0.123
	c-0.653,0.165-1.32,0.295-2,0.383c-0.745,0.097-1.505,0.15-2.277,0.15c-0.674,0-1.339-0.042-1.993-0.116
	c-0.886-0.101-1.752-0.267-2.593-0.495c-0.256-0.07-0.511-0.144-0.762-0.224c-0.423-0.136-0.838-0.288-1.246-0.454
	c-1.908-0.777-3.649-1.878-5.152-3.24c-0.755-0.684-1.447-1.436-2.073-2.242c-0.208,0.139-0.418,0.277-0.622,0.419
	c-0.016,0.024-0.028,0.046-0.044,0.07c-5.396,3.838-9.599,8.927-12.5,14.773c-0.116-0.012-0.232-0.016-0.346-0.001
	c-0.968,1.948-1.791,3.98-2.471,6.079c0.037,0.216,0.1,0.397,0.18,0.551C8.707,75.985,8,80.741,8,85.61
	c0,21.345,12.907,41.622,28.736,62.84c-0.097,0.067-0.184,0.141-0.259,0.227c1.34,1.794,2.696,3.589,4.068,5.396
	c0.047-0.127,0.071-0.283,0.085-0.452c0.545,0.717,1.091,1.436,1.64,2.155c8.34,10.936,33.037,35.323,41.377,35.323
	c11.133,0,40.065-29.232,48.862-38.605c20.651-22.026,31.65-43.535,31.65-67.32C164.159,69.633,158.262,54.953,145.815,47.211z"/>
<g>
	<path fill="#CC2D2E" d="M128.09,120.273c-2.377-1.735-6.051-0.31-8.211,3.182c-2.155,3.495-1.979,7.735,0.401,9.47
		c2.374,1.738,6.051,0.307,8.202-3.188C130.643,126.245,130.464,122.008,128.09,120.273z M125.651,127.56
		c-1.059,2.318-2.847,3.802-3.999,3.313c-1.152-0.489-1.224-2.759-0.169-5.073c1.062-2.314,2.12-2.202,3.273-1.716
		C125.907,124.569,126.706,125.246,125.651,127.56z"/>
	<path fill="#CC2D2E" d="M115.554,131.691c-2.938-1.152-6.549,0.799-8.064,4.363c-1.513,3.567-0.36,7.391,2.581,8.543
		c2.934,1.159,6.539-0.799,8.055-4.359C119.638,136.671,118.488,132.85,115.554,131.691z M114.279,139.592
		c-1.059,2.318-2.847,3.799-3.999,3.313c-1.152-0.485-1.228-2.759-0.172-5.073c1.059-2.314,2.12-2.202,3.273-1.716
		C114.533,136.602,115.335,137.278,114.279,139.592z"/>
	<path fill="#CC2D2E" d="M105.532,145.972c-2.687-1.062-6.179,1.165-7.801,4.964c-1.61,3.802-0.739,7.742,1.954,8.797
		c2.687,1.059,6.176-1.168,7.789-4.967C109.093,150.964,108.222,147.027,105.532,145.972z M103.434,154.305
		c-0.573,1.829-1.773,3.1-2.681,2.834c-0.915-0.263-1.181-1.96-0.611-3.786c0.576-1.829,1.378-1.835,2.289-1.575
		C103.34,152.041,104.004,152.48,103.434,154.305z"/>
	<path fill="#CC2D2E" d="M117.107,84.439c2.687,0.438,5.337-2.546,5.91-6.664c0.576-4.118-1.137-7.814-3.824-8.252
		c-2.693-0.438-5.34,2.543-5.916,6.661C112.704,80.302,114.417,83.998,117.107,84.439z M115.2,76.015
		c0.495-2.483,1.553-2.599,2.79-2.374c1.234,0.229,2.173,0.714,1.682,3.194c-0.495,2.487-1.898,4.319-3.132,4.087
		C115.303,80.697,114.705,78.501,115.2,76.015z"/>
	<path fill="#CC2D2E" d="M51.525,82.563c-3.01,0.864-4.309,5.239-2.903,9.774c1.409,4.535,4.992,7.51,8.002,6.649
		c3.006-0.864,4.306-5.243,2.9-9.774C58.117,84.677,54.532,81.699,51.525,82.563z M54.676,96.089
		c-1.228,0.269-2.693-1.516-3.279-3.98c-0.583-2.465,0.341-2.981,1.569-3.251c1.228-0.266,2.292-0.182,2.872,2.28
		C56.42,93.606,55.9,95.823,54.676,96.089z"/>
	<path fill="#CC2D2E" d="M109.998,105.632c3.135,1.234,7.206-1.372,9.098-5.819c1.892-4.447,0.88-9.051-2.255-10.282
		c-3.141-1.237-7.212,1.369-9.11,5.816C105.845,99.791,106.86,104.398,109.998,105.632z M110.7,96.803
		c0.814-2.405,1.879-2.393,3.075-2.02c1.196,0.373,2.067,0.965,1.256,3.37c-0.811,2.408-2.433,4.056-3.636,3.683
		C110.202,101.463,109.892,99.212,110.7,96.803z"/>
	<path fill="#CC2D2E" d="M98.016,96.669c-2.518-0.175-4.788,2.803-5.074,6.655c-0.288,3.849,1.519,7.112,4.04,7.281
		c2.512,0.175,4.785-2.803,5.07-6.655C102.341,100.101,100.534,96.838,98.016,96.669z M97.124,107.849
		c-1.259,0.025-2.321-2.007-2.377-4.532c-0.05-2.53,0.958-2.856,2.217-2.884c1.262-0.022,2.283,0.266,2.333,2.794
		C99.353,105.757,98.379,107.824,97.124,107.849z"/>
	<path fill="#CC2D2E" d="M127.727,101.761c-2.609-0.98-6.032,1.469-7.654,5.465c-1.619,3.993-0.82,8.024,1.791,9.004
		c2.606,0.977,6.032-1.472,7.654-5.465C131.138,106.769,130.333,102.738,127.727,101.761z M125.651,109.095
		c-0.811,2.405-2.44,4.049-3.636,3.68c-1.199-0.376-1.51-2.624-0.698-5.033c0.814-2.408,1.879-2.393,3.075-2.023
		C125.591,106.095,126.459,106.69,125.651,109.095z"/>
	<path fill="#CC2D2E" d="M116.152,121.979c1.757-4.641,0.489-9.589-2.841-11.055c-3.326-1.469-7.441,1.106-9.204,5.744
		c-1.757,4.641-0.482,9.589,2.844,11.055C110.274,129.192,114.392,126.618,116.152,121.979z M111.999,119.668
		c-0.811,2.402-2.436,4.052-3.636,3.677c-1.196-0.37-1.503-2.624-0.698-5.03c0.817-2.405,1.882-2.393,3.078-2.02
		C111.94,116.668,112.807,117.263,111.999,119.668z"/>
	<path fill="#CC2D2E" d="M48.133,63.212c1.17,0.496,2.557,0.225,3.851-0.612c-0.949-0.645-1.834-1.376-2.636-2.19
		c-0.345,0.161-0.656,0.199-0.902,0.078c-0.43-0.208-0.587-0.838-0.496-1.692c-0.599-0.776-1.138-1.6-1.602-2.471
		C45.386,59.412,46.082,62.348,48.133,63.212z"/>
	<path fill="#CC2D2E" d="M145.815,47.211c-2.784,5.975-8.839,10.119-15.866,10.119c-1.646,0-3.233-0.243-4.743-0.669
		c0.017,0.113,0.032,0.23,0.044,0.356c0.213,2.214-0.507,4.087-1.61,4.187c-0.607,0.052-1.202-0.451-1.651-1.282
		c-0.43,0.492-0.885,0.961-1.367,1.402c0.097,0.16,0.19,0.325,0.293,0.478c-0.135-0.12-0.26-0.261-0.39-0.392
		c-3.1,2.796-7.198,4.506-11.702,4.506c-0.556,0-1.106-0.028-1.649-0.079c0.14,0.597,0.243,1.231,0.3,1.893
		c-0.226-0.734-0.516-1.394-0.854-1.958c-1.652-0.208-3.232-0.646-4.708-1.283c-1.458,1.263-2.468,3.979-2.468,7.139
		c0,0.42,0.022,0.827,0.059,1.228c-0.36-1.149-0.567-2.48-0.567-3.899c0-2.081,0.44-3.968,1.155-5.379
		c-1.205-0.696-2.32-1.531-3.322-2.483c-3.209,3.762-7.981,6.151-13.314,6.151c-3.164,0-6.13-0.841-8.69-2.311
		c-1.533,1.511-2.644,4.138-2.837,7.18c-0.063,0.987-0.019,1.942,0.11,2.837c-0.711-1.591-1.071-3.62-0.933-5.806
		c0.136-2.154,0.733-4.099,1.613-5.587c-0.384-0.299-0.757-0.612-1.115-0.942c-2.233,1.513-4.838,2.513-7.644,2.859
		c0.56,1.35,0.924,2.881,1.014,4.522c0.301,5.446-2.458,10.04-6.229,10.567c2.277,1.788,4.034,4.823,4.582,8.44
		c0.952,6.229-2.033,11.81-6.658,12.458c-4.629,0.651-9.148-3.874-10.094-10.103c-0.072-0.479-0.116-0.952-0.141-1.422
		c-1.425,1.816-3.677,2.258-5.825,2.239c2.111-1.25,3.608-4.344,3.608-7.967c0-4.732-2.549-8.568-5.687-8.568
		c-3.141,0-6.445,1.823-5.687,8.568c0.263,2.343,0.633,4.491,1.654,6.038c-2.111-1.917-3.169-5.149-3.169-8.772
		c0-3.661,3.589-9.661,5.684-11.669c-3.608-0.849-6.862-3.467-6.263-8.615c0.277-2.378,1.145-4.493,2.363-6.087
		c-1.908-0.777-3.649-1.878-5.152-3.24c-1.437,1.159-2.826,1.678-3.391,1.175c-0.517-0.455-0.208-1.622,0.652-2.927
		c-5.396,3.838-9.599,8.927-12.5,14.773c0.179,0.019,0.359,0.064,0.54,0.13c0.914,0.335,1.538,0.893,0.604,3.257
		c-0.939,2.364-2.44,4.005-3.351,3.67c-0.183-0.068-0.324-0.221-0.431-0.429C8.707,75.985,8,80.741,8,85.61
		c0,21.345,12.907,41.622,28.736,62.84c0.093-0.064,0.195-0.122,0.305-0.174c0.77-0.363,1.528-0.398,2.609,1.726
		c0.715,1.412,1.054,2.76,0.981,3.62c0.545,0.717,1.091,1.436,1.64,2.155c8.34,10.936,33.037,35.323,41.377,35.323
		c11.133,0,40.065-29.232,48.862-38.605c20.651-22.026,31.65-43.535,31.65-67.32C164.159,69.633,158.262,54.953,145.815,47.211z
		 M16.337,91.673c-0.974,0.031-1.829-1.857-1.914-4.225c-0.081-2.368,0.698-2.678,1.672-2.709s1.773,0.229,1.86,2.593
		C18.034,89.7,17.311,91.642,16.337,91.673z M19.321,105.008c-2.245-3.771-2.095-7.914,0.338-9.251
		c1.228-0.676,2.806-0.507,4.353,0.316c-0.761-0.069-1.484,0.05-2.114,0.398c-2.433,1.334-2.584,5.481-0.335,9.248
		c1.109,1.863,2.593,3.285,4.106,4.087C23.496,109.6,20.984,107.799,19.321,105.008z M25.309,71.646
		c-0.426,2.336-1.544,4.096-2.505,3.937c-0.961-0.163-1.4-2.183-0.98-4.516c0.426-2.33,1.253-2.48,2.214-2.321
		C24.999,68.906,25.726,69.316,25.309,71.646z M25.97,101.485c0.767,2.249,0.642,4.309-0.282,4.601
		c-0.927,0.291-2.302-1.287-3.072-3.536c-0.774-2.249-0.116-2.759,0.811-3.053C24.354,99.202,25.196,99.24,25.97,101.485z
		 M27.317,124.25c-0.774,0.36-2.274-1.071-3.354-3.194c-1.077-2.13-0.586-2.678,0.185-3.041c0.774-0.363,1.531-0.398,2.609,1.726
		C27.837,121.867,28.087,123.884,27.317,124.25z M25.885,65.981c-2.778-0.344-5.502,2.869-6.079,7.178
		c-0.288,2.13,0.006,4.125,0.711,5.643c-1.607-1.431-2.477-4.322-2.051-7.513c0.579-4.309,3.301-7.522,6.076-7.178
		c1.406,0.172,2.559,1.228,3.276,2.784C27.257,66.394,26.606,66.068,25.885,65.981z M44.203,111.003
		c1.137-0.52,2.192-0.661,3.32,1.619c1.131,2.286,1.124,4.557-0.009,5.077c-1.137,0.52-2.972-0.911-4.103-3.191
		C42.28,112.221,43.066,111.526,44.203,111.003z M34.57,81.201c0.238-2.518,1.281-2.737,2.534-2.628
		c1.256,0.11,2.239,0.501,2.004,3.019c-0.238,2.521-1.444,4.472-2.696,4.366C35.159,85.848,34.335,83.719,34.57,81.201z
		 M38.691,139.195c-0.774,0.363-2.274-1.065-3.354-3.191c-1.081-2.13-0.586-2.678,0.185-3.041c0.777-0.363,1.531-0.398,2.612,1.729
		C39.211,136.815,39.465,138.835,38.691,139.195z M51.96,158.524c-0.774,0.36-2.271-1.071-3.354-3.198
		c-1.077-2.126-0.583-2.675,0.188-3.041c0.773-0.363,1.528-0.395,2.609,1.726C52.483,156.144,52.731,158.161,51.96,158.524z
		 M50.783,122.9c-2.559,1.65-6.956-0.335-9.818-4.435c-1.841-2.634-2.584-5.487-2.217-7.632c0.225,1.719,0.952,3.63,2.217,5.443
		c2.862,4.106,7.259,6.088,9.818,4.435c0.918-0.589,1.459-1.582,1.663-2.781C52.734,120.104,52.211,121.976,50.783,122.9z
		 M62.821,106.725c1.231-0.269,2.292-0.185,2.878,2.28c0.576,2.468,0.056,4.682-1.168,4.951c-1.228,0.269-2.693-1.516-3.276-3.98
		C60.673,107.511,61.597,106.997,62.821,106.725z M58.299,109.534c1.221,4.597,4.632,7.729,7.62,6.993
		c2.496-0.617,3.902-3.742,3.576-7.441c1.212,4.588-0.219,8.897-3.198,9.627c-2.988,0.736-6.398-2.396-7.62-6.996
		c-0.197-0.745-0.319-1.488-0.385-2.211C58.299,109.512,58.299,109.524,58.299,109.534z M59.367,124.861
		c1.137-0.52,2.192-0.667,3.323,1.619c1.127,2.283,1.124,4.557-0.012,5.073c-1.137,0.52-2.969-0.908-4.1-3.194
		C57.447,126.073,58.23,125.377,59.367,124.861z M56.88,131.312c-1.181-2.343-1.603-4.723-1.353-6.655
		c0.157,1.422,0.589,2.95,1.353,4.466c2.245,4.444,6.314,6.996,9.085,5.697c1.312-0.611,2.083-1.995,2.308-3.736
		c0.307,2.753-0.479,5.073-2.308,5.925C63.194,138.305,59.126,135.753,56.88,131.312z M65.737,153.003
		c-1.24,0.178-2.54-1.707-2.916-4.197c-0.366-2.49,0.589-2.934,1.832-3.104c1.234-0.172,2.283-0.006,2.656,2.487
		C67.679,150.679,66.977,152.837,65.737,153.003z M64.851,172.739c-0.774,0.366-2.271-1.065-3.351-3.188
		c-1.08-2.13-0.586-2.678,0.185-3.044c0.774-0.363,1.528-0.398,2.612,1.726C65.374,170.362,65.621,172.379,64.851,172.739z
		 M67.034,157.365c-2.696,0.733-5.775-2.396-6.874-6.996c-0.182-0.752-0.291-1.491-0.351-2.214c0.003,0.009,0.003,0.019,0.009,0.028
		c1.096,4.597,4.178,7.729,6.871,6.996c2.255-0.617,3.517-3.749,3.229-7.444C71.011,152.323,69.721,156.629,67.034,157.365z
		 M101.771,68.959c0.301-2.349,1.118-2.54,2.089-2.427c0.965,0.113,1.713,0.492,1.416,2.837c-0.297,2.352-1.322,4.165-2.292,4.049
		C102.015,73.306,101.474,71.311,101.771,68.959z M89.723,74.439c2.393-0.05,4.482,2.44,5.29,5.935
		c-1.043-1.892-2.552-3.075-4.212-3.038c-2.997,0.063-5.337,4.09-5.221,8.988c0.022,0.987,0.147,1.932,0.351,2.815
		c-0.842-1.528-1.381-3.52-1.431-5.712C84.387,78.529,86.72,74.505,89.723,74.439z M84.133,126.198
		c0.053,2.53-0.921,4.597-2.18,4.622c-1.256,0.022-2.317-2.004-2.374-4.535c-0.053-2.527,0.961-2.856,2.217-2.878
		C83.059,123.383,84.08,123.671,84.133,126.198z M78.064,109.878c-0.05-2.53,0.958-2.856,2.217-2.878
		c1.262-0.025,2.283,0.26,2.336,2.79c0.053,2.527-0.924,4.597-2.18,4.622C79.179,114.438,78.117,112.406,78.064,109.878z
		 M74.234,69.544c0.698-2.443,1.763-2.477,2.978-2.155c1.215,0.319,2.111,0.874,1.412,3.31c-0.698,2.443-2.242,4.156-3.461,3.836
		C73.955,74.217,73.538,71.978,74.234,69.544z M79.204,91.558c0.056,2.53-0.921,4.597-2.18,4.626
		c-1.256,0.022-2.318-2.007-2.374-4.535c-0.05-2.53,0.961-2.853,2.22-2.881C78.129,88.742,79.154,89.03,79.204,91.558z
		 M79.266,101.914c1.419-0.003,2.7,0.896,3.627,2.346c-0.626-0.426-1.315-0.664-2.042-0.661c-2.803,0.006-5.061,3.536-5.045,7.886
		c0.009,2.142,0.57,4.081,1.478,5.499c-1.791-1.212-3.044-3.971-3.06-7.184C74.205,105.453,76.467,101.924,79.266,101.914z
		 M77.785,183.183c-0.842,0.16-1.838-1.237-2.233-3.122c-0.388-1.888,0.251-2.242,1.093-2.405c0.842-0.163,1.572-0.063,1.964,1.823
		C78.994,181.364,78.631,183.024,77.785,183.183z M76.629,127.98c-0.025-0.77,0.016-1.516,0.106-2.233c0,0.006-0.003,0.013,0,0.025
		c0.15,4.72,2.534,8.365,5.327,8.146c2.333-0.179,4.209-3.01,4.669-6.693c0.144,4.707-1.995,8.691-4.779,8.904
		C79.163,136.345,76.777,132.699,76.629,127.98z M82.288,169.256c-0.939,0.135-1.929-1.293-2.211-3.185
		c-0.279-1.888,0.448-2.22,1.387-2.349c0.936-0.132,1.735-0.006,2.014,1.882C83.763,167.493,83.231,169.131,82.288,169.256z
		 M82.999,152.993c-1.234,0.235-2.643-1.591-3.154-4.068c-0.504-2.487,0.432-2.975,1.666-3.207c1.234-0.235,2.296-0.125,2.803,2.358
		C84.822,150.56,84.233,152.762,82.999,152.993z M88.377,181.267c-0.523,1.851-1.616,3.182-2.446,2.969
		c-0.827-0.219-1.077-1.895-0.557-3.752c0.523-1.857,1.256-1.904,2.083-1.691C88.289,179.009,88.896,179.407,88.377,181.267z
		 M90.309,88.517c-1.256-0.091-2.111-2.211-1.917-4.732c0.197-2.521,1.24-2.756,2.49-2.662c1.259,0.088,2.252,0.467,2.051,2.991
		C92.736,86.638,91.565,88.604,90.309,88.517z M96.231,169.253c-0.573,1.829-1.773,3.097-2.684,2.834
		c-0.911-0.26-1.181-1.957-0.611-3.786c0.576-1.829,1.381-1.835,2.296-1.572C96.134,166.995,96.801,167.428,96.231,169.253z
		 M92.62,140.557c0.335-2.509,1.384-2.687,2.634-2.537c1.246,0.153,2.217,0.579,1.885,3.088c-0.332,2.512-1.607,4.419-2.859,4.269
		C93.033,145.22,92.291,143.066,92.62,140.557z M102.388,177.098c-1.156,1.566-2.659,2.452-3.363,1.973
		c-0.695-0.482-0.329-2.133,0.827-3.708c1.159-1.566,1.863-1.365,2.565-0.889C103.118,174.953,103.544,175.533,102.388,177.098z
		 M111.492,165.066c-1.159,1.566-2.662,2.449-3.367,1.973c-0.702-0.482-0.329-2.133,0.824-3.705
		c1.162-1.569,1.866-1.369,2.565-0.893C112.219,162.921,112.645,163.5,111.492,165.066z M126.647,152.414
		c-2.562,3.251-6.398,4.613-8.569,3.028c-2.17-1.578-1.851-5.496,0.711-8.75c0.241-0.31,0.507-0.582,0.767-0.855
		c-1.841,2.994-1.892,6.254,0.041,7.66c1.961,1.431,5.29,0.438,7.804-2.177C127.173,151.69,126.928,152.057,126.647,152.414z
		 M121.442,148.092c1.105-1.766,1.826-1.635,2.556-1.215c0.727,0.417,1.181,0.974,0.078,2.737c-1.105,1.766-2.59,2.856-3.313,2.436
		C120.032,151.628,120.339,149.855,121.442,148.092z M139.49,137.432c-1.773,2.972-5.124,4.322-7.485,3.019
		c-2.358-1.297-2.837-4.76-1.068-7.732c0.106-0.182,0.235-0.335,0.354-0.504c-0.896,2.571-0.26,5.199,1.729,6.295
		c2.217,1.221,5.29,0.085,7.122-2.518C139.972,136.476,139.772,136.962,139.49,137.432z M135.616,116.211
		c1.66,2.155,4.958,1.325,7.604-1.76c-0.329,0.614-0.692,1.218-1.118,1.788c-2.722,3.602-6.361,4.654-8.13,2.361
		c-1.766-2.296-0.996-7.075,1.722-10.667c0.166-0.222,0.345-0.401,0.517-0.598C134.454,110.596,134.125,114.279,135.616,116.211z
		 M137.855,109.039c1.234-2.696,2.277-2.64,3.389-2.173c1.109,0.47,1.854,1.174,0.626,3.865c-1.224,2.693-3.125,4.5-4.234,4.027
		C136.527,114.291,136.624,111.729,137.855,109.039z M134.332,133.144c1.105-1.766,1.826-1.638,2.556-1.218
		c0.727,0.42,1.184,0.977,0.078,2.74c-1.105,1.763-2.587,2.853-3.313,2.433C132.923,136.677,133.23,134.907,134.332,133.144z
		 M145.18,122.653c-1.265,2.032-2.975,3.285-3.808,2.8c-0.833-0.482-0.485-2.518,0.78-4.547c1.271-2.026,2.101-1.879,2.938-1.397
		C145.926,119.988,146.449,120.627,145.18,122.653z M149.956,94.489c-1.513,6.436-6.633,10.801-11.428,9.752
		c-1.4-0.304-2.612-1.046-3.598-2.092c0.075,2.233-0.432,4.77-1.588,7.269c-0.908,1.976-2.108,3.677-3.448,5.02
		c2.872,2.211,4.118,6.749,2.8,11.381c-1.563,5.496-6.166,9.113-10.485,8.39c0.598,2.13,0.451,4.566-0.601,6.88
		c-2.083,4.557-6.931,6.987-11.165,5.753c0.805,2.343,0.608,5.44-0.764,8.456c-2.321,5.08-7.084,7.977-10.639,6.473
		c-3.561-1.506-4.563-6.84-2.245-11.916c1.964-4.297,5.678-7.018,8.929-6.843c-1.34-2.468-1.488-5.69-0.122-8.684
		c0.805-1.763,2.026-3.204,3.464-4.237c-0.557,0.031-1.115-0.016-1.66-0.16c-1.513-0.395-2.718-1.456-3.558-2.947
		c-1.381,3.11-3.852,5.142-6.545,4.989c-1.967-0.116-3.674-1.375-4.832-3.31c0.789,0.629,1.704,1.049,2.721,1.121
		c3.188,0.222,6.007-2.815,6.304-6.78c0.294-3.965-2.048-7.36-5.236-7.576c-1.741-0.119-3.357,0.755-4.529,2.195
		c0.808-2.17,2.123-3.902,3.705-4.86c-2.471-1.835-4.012-5.261-3.771-9.085c0.341-5.531,4.287-9.806,8.806-9.546
		c2.186,0.128,4.103,1.303,5.462,3.1c0-0.041-0.006-0.085,0-0.125c0.147-6.599,3.749-11.869,8.049-11.782
		c0.132,0.003,0.254,0.025,0.379,0.038c-1.729-1.904-2.822-4.648-2.822-7.714c0-5.744,3.808-10.394,8.506-10.394
		c4.002,0,7.35,3.385,8.258,7.936c1.766-5.916,6.611-9.821,11.171-8.825c0.348,0.078,0.683,0.185,1.008,0.313
		c-0.567-0.692-1.105-1.475-1.572-2.371c-2.045-3.899-2.073-8.014-0.066-9.189c1.635-0.961,4.109,0.357,6.079,2.988
		c-1.588-1.391-3.266-1.932-4.478-1.221c-2.001,1.171-1.976,5.29,0.069,9.189c0.157,0.294,0.316,0.567,0.485,0.836
		c3.808,1.876,5.756,7.284,4.406,12.994c-0.106,0.464-0.241,0.914-0.388,1.353C149.176,82.88,151.369,88.52,149.956,94.489z
		 M93.228,120.814c-0.05-2.527,0.961-2.853,2.22-2.875c1.259-0.025,2.28,0.26,2.333,2.787c0.053,2.527-0.921,4.601-2.177,4.622
		C94.346,125.377,93.287,123.345,93.228,120.814z M144.776,65.379c-0.77,0.354-2.258-1.09-3.326-3.223
		c-1.059-2.136-0.564-2.681,0.204-3.035c0.77-0.357,1.522-0.388,2.593,1.744C145.312,63.002,145.544,65.019,144.776,65.379z
		 M153.526,65.207c2.48-0.692,5.343,1.569,6.395,5.048c0.185,0.611,0.279,1.212,0.332,1.804c-0.031-0.116-0.044-0.232-0.078-0.348
		c-1.049-3.479-3.915-5.741-6.395-5.045c-2.042,0.57-3.166,2.978-2.919,5.753C149.988,69.065,151.131,65.877,153.526,65.207z
		 M154.923,75.495c-0.836,0.163-1.91-1.585-2.399-3.905c-0.485-2.321,0.132-2.734,0.971-2.897c0.839-0.163,1.582-0.016,2.067,2.305
		C156.051,73.315,155.766,75.329,154.923,75.495z M155.039,107.348c-0.849,2.224-2.28,3.764-3.194,3.439
		c-0.915-0.323-0.971-2.383-0.125-4.607c0.852-2.22,1.697-2.227,2.612-1.904C155.246,104.595,155.882,105.131,155.039,107.348z
		 M157.598,90.518c-0.298,2.349-1.325,4.162-2.292,4.046c-0.971-0.113-1.51-2.108-1.212-4.456c0.297-2.352,1.115-2.54,2.086-2.427
		C157.15,87.793,157.895,88.169,157.598,90.518z M156.946,84.395c-2.571,0-4.657,2.916-4.669,6.523
		c-0.16-0.676-0.26-1.391-0.26-2.152c0-3.623,1.926-6.561,4.297-6.561c1.829,0,3.382,1.754,4.002,4.218
		C159.467,85.178,158.274,84.395,156.946,84.395z"/>
	<path fill="#CC2D2E" d="M44.454,55.738c-0.157,0.044-0.315,0.084-0.473,0.124c0.101,0.197,0.198,0.397,0.288,0.605
		C44.326,56.225,44.388,55.982,44.454,55.738z"/>
	<path fill="#CC2D2E" d="M141.341,91.529c-0.733,3.573,0.37,6.787,2.474,7.187c2.095,0.395,4.388-2.173,5.12-5.744
		c0.736-3.567-0.37-6.78-2.468-7.181C144.369,85.391,142.077,87.962,141.341,91.529z M146.637,91.382
		c-0.68,2.728-2.145,4.726-3.27,4.469c-1.121-0.266-1.478-2.684-0.796-5.412c0.68-2.722,1.669-2.84,2.8-2.581
		C146.493,88.116,147.319,88.658,146.637,91.382z"/>
	<path fill="#CC2D2E" d="M56.345,79.218c3.113,0.388,6.148-3.107,6.78-7.798c0.291-2.171,0.011-4.213-0.675-5.824
		c-0.217,0.008-0.431,0.025-0.65,0.025c-2.611,0-5.085-0.576-7.31-1.602c-1.32,1.413-2.315,3.537-2.646,5.999
		C51.215,74.715,53.232,78.833,56.345,79.218z M56.501,71.843c0.085-2.53,1.118-2.803,2.374-2.762
		c1.259,0.038,2.264,0.379,2.18,2.906c-0.091,2.527-1.177,4.544-2.433,4.507C57.363,76.453,56.417,74.367,56.501,71.843z"/>
	<path fill="#CC2D2E" d="M34.103,66.128c2.327,0.99,5.515-1.055,7.122-4.56c0.859-1.881,1.084-3.796,0.756-5.323
		c-0.745,0.097-1.505,0.15-2.277,0.15c-0.674,0-1.339-0.042-1.993-0.116c0.214,0.472,0.171,1.222-0.341,2.512
		c-0.94,2.364-2.44,4.012-3.348,3.674c-0.918-0.332-0.893-2.521,0.041-4.882c0.362-0.911,0.711-1.47,1.055-1.798
		c-0.256-0.069-0.511-0.144-0.762-0.224c-0.6,0.693-1.137,1.513-1.562,2.439C31.191,61.505,31.779,65.148,34.103,66.128z"/>
	<path fill="#CC2D2E" d="M130.43,82.05c-3.292-0.479-6.561,2.978-7.31,7.723c-0.742,4.741,1.322,8.976,4.613,9.452
		c3.285,0.479,6.552-2.978,7.3-7.723C135.782,86.76,133.718,82.529,130.43,82.05z M130.577,90.859
		c-0.814,2.408-2.437,4.059-3.636,3.683c-1.196-0.373-1.503-2.624-0.695-5.033c0.814-2.405,1.879-2.393,3.075-2.02
		C130.517,87.862,131.385,88.457,130.577,90.859z"/>
	<path fill="#CC2D2E" d="M143.818,77.045c0.567-3.598-0.99-6.805-3.476-7.169c-2.487-0.36-4.954,2.264-5.518,5.86
		c-0.567,3.598,0.99,6.808,3.476,7.169C140.783,83.265,143.251,80.64,143.818,77.045z M140.395,75.983
		c-0.495,2.49-1.892,4.319-3.129,4.09c-1.234-0.229-1.835-2.424-1.34-4.911c0.495-2.484,1.553-2.599,2.79-2.371
		C139.947,73.021,140.887,73.503,140.395,75.983z"/>
	<path fill="#D05353" d="M120.916,61.803c-0.103-0.153-0.196-0.318-0.293-0.478c-0.032,0.029-0.065,0.057-0.097,0.086
		C120.655,61.542,120.781,61.683,120.916,61.803z"/>
	<path fill="#D05353" d="M133.02,138.509c-1.989-1.096-2.624-3.724-1.729-6.295c-0.119,0.169-0.247,0.323-0.354,0.504
		c-1.769,2.972-1.29,6.436,1.068,7.732c2.361,1.303,5.712-0.047,7.485-3.019c0.282-0.47,0.482-0.955,0.651-1.441
		C138.309,138.593,135.237,139.73,133.02,138.509z"/>
	<path fill="#D05353" d="M156.314,82.206c-2.371,0-4.297,2.938-4.297,6.561c0,0.761,0.1,1.475,0.26,2.152
		c0.013-3.608,2.098-6.523,4.669-6.523c1.328,0,2.521,0.783,3.37,2.029C159.696,83.96,158.143,82.206,156.314,82.206z"/>
	<path fill="#D05353" d="M145.017,81.257c0.147-0.438,0.282-0.889,0.388-1.353c1.35-5.709-0.598-11.118-4.406-12.994
		c-0.169-0.269-0.329-0.542-0.485-0.836c-2.045-3.899-2.07-8.017-0.069-9.189c1.212-0.711,2.891-0.169,4.478,1.221
		c-1.97-2.631-4.444-3.949-6.079-2.988c-2.008,1.174-1.979,5.29,0.066,9.189c0.467,0.896,1.005,1.679,1.572,2.371
		c-0.326-0.128-0.661-0.235-1.008-0.313c-4.56-0.996-9.405,2.909-11.171,8.825c-0.908-4.55-4.256-7.936-8.258-7.936
		c-4.698,0-8.506,4.651-8.506,10.394c0,3.066,1.093,5.809,2.822,7.714c-0.125-0.013-0.247-0.034-0.379-0.038
		c-4.3-0.088-7.901,5.183-8.049,11.782c-0.006,0.041,0,0.085,0,0.125c-1.359-1.798-3.276-2.972-5.462-3.1
		c-4.519-0.26-8.465,4.015-8.806,9.546c-0.241,3.824,1.3,7.25,3.771,9.085c-1.582,0.958-2.897,2.69-3.705,4.86
		c1.171-1.441,2.787-2.314,4.529-2.195c3.188,0.216,5.531,3.611,5.236,7.576c-0.297,3.965-3.116,7.003-6.304,6.78
		c-1.018-0.072-1.932-0.492-2.721-1.121c1.159,1.935,2.866,3.194,4.832,3.31c2.693,0.153,5.164-1.879,6.545-4.989
		c0.839,1.491,2.045,2.552,3.558,2.947c0.545,0.144,1.102,0.191,1.66,0.16c-1.437,1.033-2.659,2.474-3.464,4.237
		c-1.366,2.994-1.218,6.217,0.122,8.684c-3.251-0.175-6.965,2.546-8.929,6.843c-2.318,5.077-1.315,10.41,2.245,11.916
		c3.555,1.503,8.318-1.394,10.639-6.473c1.372-3.016,1.569-6.113,0.764-8.456c4.234,1.234,9.082-1.196,11.165-5.753
		c1.052-2.314,1.199-4.751,0.601-6.88c4.319,0.723,8.922-2.894,10.485-8.39c1.318-4.632,0.072-9.17-2.8-11.381
		c1.34-1.344,2.54-3.044,3.448-5.02c1.156-2.499,1.663-5.036,1.588-7.269c0.987,1.046,2.199,1.788,3.598,2.092
		c4.795,1.049,9.915-3.317,11.428-9.752C151.369,88.52,149.176,82.88,145.017,81.257z M113.277,76.184
		c0.576-4.118,3.223-7.1,5.916-6.661c2.687,0.438,4.4,4.134,3.824,8.252c-0.573,4.118-3.223,7.103-5.91,6.664
		C114.417,83.998,112.704,80.302,113.277,76.184z M107.731,95.347c1.898-4.447,5.969-7.053,9.11-5.816
		c3.135,1.231,4.146,5.834,2.255,10.282c-1.892,4.447-5.963,7.053-9.098,5.819C106.86,104.398,105.845,99.791,107.731,95.347z
		 M102.053,103.95c-0.285,3.852-2.559,6.83-5.07,6.655c-2.521-0.169-4.328-3.432-4.04-7.281c0.285-3.852,2.556-6.83,5.074-6.655
		C100.534,96.838,102.341,100.101,102.053,103.95z M106.951,127.723c-3.326-1.466-4.601-6.414-2.844-11.055
		c1.763-4.638,5.878-7.212,9.204-5.744c3.329,1.466,4.597,6.414,2.841,11.055C114.392,126.618,110.274,129.192,106.951,127.723z
		 M107.474,154.766c-1.613,3.799-5.102,6.025-7.789,4.967c-2.693-1.055-3.564-4.995-1.954-8.797
		c1.622-3.799,5.114-6.025,7.801-4.964C108.222,147.027,109.093,150.964,107.474,154.766z M118.125,140.238
		c-1.516,3.561-5.12,5.518-8.055,4.359c-2.941-1.152-4.093-4.976-2.581-8.543c1.516-3.564,5.127-5.515,8.064-4.363
		C118.488,132.85,119.638,136.671,118.125,140.238z M128.482,129.737c-2.151,3.495-5.828,4.926-8.202,3.188
		c-2.38-1.735-2.556-5.975-0.401-9.47c2.161-3.492,5.834-4.917,8.211-3.182C130.464,122.008,130.643,126.245,128.482,129.737z
		 M129.518,110.765c-1.622,3.993-5.048,6.442-7.654,5.465c-2.612-0.98-3.41-5.011-1.791-9.004c1.622-3.996,5.045-6.445,7.654-5.465
		C130.333,102.738,131.138,106.769,129.518,110.765z M135.033,91.501c-0.749,4.745-4.015,8.202-7.3,7.723
		c-3.291-0.476-5.355-4.71-4.613-9.452c0.749-4.745,4.018-8.202,7.31-7.723C133.718,82.529,135.782,86.76,135.033,91.501z
		 M138.3,82.905c-2.487-0.36-4.043-3.57-3.476-7.169c0.564-3.595,3.031-6.22,5.518-5.86c2.487,0.363,4.043,3.57,3.476,7.169
		C143.251,80.64,140.783,83.265,138.3,82.905z M148.935,92.973c-0.733,3.57-3.025,6.138-5.12,5.744
		c-2.105-0.401-3.207-3.614-2.474-7.187c0.736-3.567,3.028-6.138,5.127-5.737C148.566,86.193,149.671,89.406,148.935,92.973z"/>
	<path fill="#D05353" d="M135.694,107.934c-2.718,3.592-3.489,8.371-1.722,10.667c1.769,2.292,5.409,1.24,8.13-2.361
		c0.426-0.57,0.789-1.174,1.118-1.788c-2.646,3.085-5.944,3.915-7.604,1.76c-1.491-1.932-1.162-5.615,0.595-8.875
		C136.039,107.533,135.86,107.711,135.694,107.934z"/>
	<path fill="#D05353" d="M119.597,153.497c-1.932-1.406-1.882-4.666-0.041-7.66c-0.26,0.272-0.526,0.545-0.767,0.855
		c-2.562,3.254-2.881,7.172-0.711,8.75c2.17,1.585,6.007,0.222,8.569-3.028c0.282-0.357,0.526-0.723,0.755-1.093
		C124.887,153.936,121.558,154.929,119.597,153.497z"/>
	<path fill="#D05353" d="M153.78,66.666c2.48-0.695,5.346,1.566,6.395,5.045c0.034,0.116,0.047,0.232,0.078,0.348
		c-0.053-0.592-0.147-1.193-0.332-1.804c-1.052-3.479-3.915-5.741-6.395-5.048c-2.396,0.67-3.539,3.858-2.665,7.212
		C150.614,69.645,151.738,67.236,153.78,66.666z"/>
	<path fill="#D05353" d="M98.937,68.959c0,1.419,0.207,2.75,0.567,3.899c-0.038-0.401-0.059-0.808-0.059-1.228
		c0-3.16,1.01-5.876,2.468-7.139c-0.626-0.27-1.234-0.573-1.82-0.911C99.377,64.99,98.937,66.877,98.937,68.959z"/>
	<path fill="#D05353" d="M107.474,67.731c-0.057-0.663-0.16-1.296-0.3-1.893c-0.186-0.017-0.37-0.041-0.554-0.064
		C106.958,66.337,107.248,66.997,107.474,67.731z"/>
	<path fill="#D05353" d="M85.58,86.324c-0.116-4.898,2.224-8.926,5.221-8.988c1.66-0.038,3.169,1.146,4.212,3.038
		c-0.808-3.495-2.897-5.985-5.29-5.935c-3.003,0.066-5.337,4.09-5.224,8.988c0.05,2.192,0.589,4.184,1.431,5.712
		C85.727,88.257,85.602,87.311,85.58,86.324z"/>
	<path fill="#D05353" d="M71.105,69.147c-0.138,2.186,0.222,4.215,0.933,5.806c-0.128-0.896-0.172-1.851-0.11-2.837
		c0.193-3.041,1.304-5.669,2.837-7.18c-0.716-0.411-1.399-0.872-2.047-1.376C71.838,65.048,71.241,66.993,71.105,69.147z"/>
	<path fill="#D05353" d="M116.54,80.922c1.234,0.232,2.637-1.6,3.132-4.087c0.492-2.48-0.448-2.966-1.682-3.194
		c-1.237-0.225-2.296-0.11-2.79,2.374C114.705,78.501,115.303,80.697,116.54,80.922z"/>
	<path fill="#D05353" d="M138.716,72.792c-1.237-0.229-2.296-0.113-2.79,2.371c-0.495,2.487,0.107,4.682,1.34,4.911
		c1.237,0.229,2.634-1.6,3.129-4.09C140.887,73.503,139.947,73.021,138.716,72.792z"/>
	<path fill="#D05353" d="M129.321,87.489c-1.196-0.373-2.261-0.385-3.075,2.02c-0.808,2.408-0.501,4.66,0.695,5.033
		c1.199,0.376,2.822-1.275,3.636-3.683C131.385,88.457,130.517,87.862,129.321,87.489z"/>
	<path fill="#D05353" d="M124.392,105.719c-1.196-0.37-2.261-0.385-3.075,2.023c-0.811,2.408-0.501,4.657,0.698,5.033
		c1.196,0.37,2.825-1.275,3.636-3.68C126.459,106.69,125.591,106.095,124.392,105.719z"/>
	<path fill="#D05353" d="M96.964,100.433c-1.259,0.028-2.267,0.354-2.217,2.884c0.056,2.524,1.118,4.557,2.377,4.532
		c1.256-0.025,2.23-2.092,2.173-4.622C99.247,100.699,98.226,100.411,96.964,100.433z"/>
	<path fill="#D05353" d="M97.781,120.727c-0.053-2.527-1.074-2.812-2.333-2.787c-1.259,0.022-2.27,0.348-2.22,2.875
		c0.059,2.53,1.118,4.563,2.377,4.535C96.86,125.327,97.834,123.254,97.781,120.727z"/>
	<path fill="#D05353" d="M81.797,123.408c-1.256,0.022-2.27,0.351-2.217,2.878c0.056,2.53,1.118,4.557,2.374,4.535
		c1.259-0.025,2.233-2.092,2.18-4.622C84.08,123.671,83.059,123.383,81.797,123.408z"/>
	<path fill="#D05353" d="M82.617,109.791c-0.053-2.53-1.074-2.815-2.336-2.79c-1.259,0.022-2.267,0.348-2.217,2.878
		c0.053,2.527,1.115,4.56,2.374,4.535C81.693,114.388,82.67,112.318,82.617,109.791z"/>
	<path fill="#D05353" d="M64.531,113.956c1.224-0.269,1.744-2.483,1.168-4.951c-0.586-2.465-1.647-2.549-2.878-2.28
		c-1.224,0.272-2.148,0.786-1.566,3.251C61.838,112.44,63.304,114.225,64.531,113.956z"/>
	<path fill="#D05353" d="M62.677,131.553c1.137-0.517,1.14-2.79,0.012-5.073c-1.131-2.286-2.186-2.139-3.323-1.619
		c-1.137,0.517-1.92,1.212-0.789,3.498C59.708,130.645,61.541,132.073,62.677,131.553z"/>
	<path fill="#D05353" d="M47.513,117.698c1.134-0.52,1.14-2.79,0.009-5.077c-1.127-2.28-2.183-2.139-3.32-1.619
		c-1.137,0.523-1.923,1.218-0.792,3.504C44.541,116.787,46.376,118.218,47.513,117.698z"/>
	<path fill="#D05353" d="M52.966,88.858c-1.228,0.269-2.151,0.786-1.569,3.251c0.586,2.465,2.051,4.25,3.279,3.98
		c1.225-0.266,1.744-2.483,1.162-4.951C55.258,88.676,54.193,88.592,52.966,88.858z"/>
	<path fill="#D05353" d="M36.411,85.958c1.253,0.106,2.458-1.845,2.696-4.366c0.235-2.518-0.748-2.909-2.004-3.019
		c-1.253-0.11-2.296,0.11-2.534,2.628C34.335,83.719,35.159,85.848,36.411,85.958z"/>
	<path fill="#D05353" d="M58.622,76.494c1.256,0.038,2.343-1.979,2.433-4.507c0.085-2.527-0.921-2.869-2.18-2.906
		c-1.256-0.041-2.289,0.232-2.374,2.762C56.417,74.367,57.363,76.453,58.622,76.494z"/>
	<path fill="#D05353" d="M48.447,60.487c0.246,0.121,0.557,0.083,0.902-0.078c-0.5-0.507-0.963-1.049-1.398-1.613
		C47.86,59.65,48.016,60.28,48.447,60.487z"/>
	<path fill="#D05353" d="M24.567,53.04c0.565,0.503,1.953-0.016,3.391-1.175c-0.755-0.684-1.447-1.436-2.073-2.242
		c-0.208,0.139-0.418,0.277-0.622,0.419c-0.016,0.024-0.028,0.046-0.044,0.07C24.359,51.418,24.05,52.585,24.567,53.04z"/>
	<path fill="#D05353" d="M34.062,57.581c-0.933,2.361-0.958,4.55-0.041,4.882c0.908,0.338,2.408-1.309,3.348-3.674
		c0.512-1.29,0.555-2.04,0.341-2.512c-0.886-0.101-1.752-0.267-2.593-0.495C34.773,56.111,34.424,56.67,34.062,57.581z"/>
	<path fill="#D05353" d="M10.512,71.943c0.911,0.335,2.411-1.306,3.351-3.67c0.933-2.364,0.31-2.922-0.604-3.257
		c-0.181-0.066-0.361-0.111-0.54-0.13c-0.116-0.012-0.232-0.016-0.346-0.001c-0.968,1.948-1.791,3.98-2.471,6.079
		c0.037,0.216,0.1,0.397,0.18,0.551C10.188,71.722,10.328,71.875,10.512,71.943z"/>
	<path fill="#D05353" d="M76.87,88.767c-1.259,0.028-2.27,0.351-2.22,2.881c0.056,2.527,1.118,4.557,2.374,4.535
		c1.259-0.028,2.236-2.095,2.18-4.626C79.154,89.03,78.129,88.742,76.87,88.767z"/>
	<path fill="#D05353" d="M75.164,74.537c1.218,0.319,2.762-1.394,3.461-3.836c0.698-2.437-0.197-2.991-1.412-3.31
		c-1.215-0.323-2.28-0.288-2.978,2.155C73.538,71.978,73.955,74.217,75.164,74.537z"/>
	<path fill="#D05353" d="M94.28,145.377c1.253,0.15,2.527-1.757,2.859-4.269c0.332-2.509-0.639-2.934-1.885-3.088
		c-1.25-0.15-2.299,0.028-2.634,2.537C92.291,143.066,93.033,145.22,94.28,145.377z"/>
	<path fill="#D05353" d="M81.512,145.718c-1.234,0.232-2.17,0.72-1.666,3.207c0.51,2.477,1.92,4.303,3.154,4.068
		c1.234-0.232,1.823-2.433,1.315-4.917C83.807,145.593,82.746,145.483,81.512,145.718z"/>
	<path fill="#D05353" d="M102.432,151.778c-0.911-0.26-1.713-0.254-2.289,1.575c-0.57,1.826-0.304,3.523,0.611,3.786
		c0.908,0.266,2.108-1.005,2.681-2.834C104.004,152.48,103.34,152.041,102.432,151.778z"/>
	<path fill="#D05353" d="M95.232,166.729c-0.914-0.263-1.719-0.257-2.296,1.572c-0.57,1.829-0.301,3.526,0.611,3.786
		c0.911,0.263,2.111-1.005,2.684-2.834C96.801,167.428,96.134,166.995,95.232,166.729z"/>
	<path fill="#D05353" d="M81.465,163.723c-0.939,0.128-1.666,0.46-1.387,2.349c0.282,1.892,1.271,3.32,2.211,3.185
		c0.943-0.125,1.475-1.763,1.19-3.652C83.2,163.716,82.401,163.591,81.465,163.723z"/>
	<path fill="#D05353" d="M64.653,145.703c-1.243,0.169-2.199,0.614-1.832,3.104c0.376,2.49,1.675,4.375,2.916,4.197
		c1.24-0.166,1.942-2.324,1.572-4.814C66.937,145.696,65.887,145.53,64.653,145.703z"/>
	<path fill="#D05353" d="M90.882,81.123c-1.25-0.094-2.293,0.141-2.49,2.662c-0.194,2.521,0.661,4.641,1.917,4.732
		c1.256,0.088,2.427-1.879,2.624-4.403C93.134,81.589,92.141,81.21,90.882,81.123z"/>
	<path fill="#D05353" d="M111.395,101.836c1.203,0.373,2.825-1.275,3.636-3.683c0.811-2.405-0.059-2.997-1.256-3.37
		c-1.196-0.373-2.261-0.385-3.075,2.02C109.892,99.212,110.202,101.463,111.395,101.836z"/>
	<path fill="#D05353" d="M110.743,116.295c-1.196-0.373-2.261-0.385-3.078,2.02c-0.805,2.405-0.498,4.66,0.698,5.03
		c1.2,0.376,2.825-1.275,3.636-3.677C112.807,117.263,111.94,116.668,110.743,116.295z"/>
	<path fill="#D05353" d="M124.755,124.084c-1.152-0.485-2.211-0.598-3.273,1.716c-1.055,2.314-0.983,4.585,0.169,5.073
		c1.152,0.489,2.941-0.996,3.999-3.313C126.706,125.246,125.907,124.569,124.755,124.084z"/>
	<path fill="#D05353" d="M133.652,137.1c0.727,0.42,2.208-0.67,3.313-2.433c1.106-1.763,0.648-2.321-0.078-2.74
		c-0.73-0.42-1.45-0.548-2.556,1.218C133.23,134.907,132.923,136.677,133.652,137.1z"/>
	<path fill="#D05353" d="M124.075,149.614c1.102-1.763,0.648-2.321-0.078-2.737c-0.73-0.42-1.45-0.551-2.556,1.215
		c-1.102,1.763-1.409,3.536-0.68,3.959C121.485,152.47,122.97,151.38,124.075,149.614z"/>
	<path fill="#D05353" d="M145.09,119.509c-0.836-0.482-1.666-0.63-2.938,1.397c-1.265,2.029-1.613,4.065-0.78,4.547
		c0.833,0.485,2.543-0.767,3.808-2.8C146.449,120.627,145.926,119.988,145.09,119.509z"/>
	<path fill="#D05353" d="M154.331,104.276c-0.915-0.323-1.76-0.316-2.612,1.904c-0.846,2.224-0.789,4.284,0.125,4.607
		c0.915,0.326,2.346-1.215,3.194-3.439C155.882,105.131,155.246,104.595,154.331,104.276z"/>
	<path fill="#D05353" d="M24.038,68.746c-0.961-0.16-1.788-0.009-2.214,2.321c-0.42,2.333,0.019,4.353,0.98,4.516
		c0.961,0.16,2.079-1.6,2.505-3.937C25.726,69.316,24.999,68.906,24.038,68.746z"/>
	<path fill="#D05353" d="M17.956,87.333c-0.088-2.364-0.886-2.624-1.86-2.593s-1.754,0.341-1.672,2.709
		c0.085,2.368,0.94,4.256,1.914,4.225C17.311,91.642,18.034,89.7,17.956,87.333z"/>
	<path fill="#D05353" d="M23.427,99.497c-0.927,0.294-1.585,0.805-0.811,3.053c0.77,2.249,2.145,3.827,3.072,3.536
		c0.924-0.291,1.049-2.352,0.282-4.601C25.196,99.24,24.354,99.202,23.427,99.497z"/>
	<path fill="#D05353" d="M24.147,118.015c-0.77,0.363-1.262,0.911-0.185,3.041c1.08,2.123,2.58,3.555,3.354,3.194
		c0.77-0.366,0.52-2.383-0.561-4.51C25.679,117.617,24.921,117.651,24.147,118.015z"/>
	<path fill="#D05353" d="M35.522,132.963c-0.77,0.363-1.265,0.911-0.185,3.041c1.08,2.126,2.581,3.555,3.354,3.191
		c0.774-0.36,0.52-2.38-0.557-4.503C37.053,132.565,36.299,132.599,35.522,132.963z"/>
	<path fill="#D05353" d="M48.794,152.286c-0.77,0.366-1.265,0.914-0.188,3.041c1.084,2.126,2.581,3.558,3.354,3.198
		c0.77-0.363,0.523-2.38-0.557-4.513C50.323,151.891,49.568,151.922,48.794,152.286z"/>
	<path fill="#D05353" d="M39.65,150.002c-1.08-2.123-1.838-2.089-2.609-1.726c-0.109,0.052-0.211,0.109-0.305,0.174
		c-0.097,0.067-0.184,0.141-0.259,0.227c1.34,1.794,2.696,3.589,4.068,5.396c0.047-0.127,0.071-0.283,0.085-0.452
		C40.703,152.762,40.365,151.414,39.65,150.002z"/>
	<path fill="#D05353" d="M61.685,166.507c-0.77,0.366-1.265,0.914-0.185,3.044c1.08,2.123,2.577,3.555,3.351,3.188
		c0.77-0.36,0.523-2.377-0.554-4.507C63.213,166.109,62.458,166.144,61.685,166.507z"/>
	<path fill="#D05353" d="M76.645,177.656c-0.842,0.163-1.481,0.517-1.093,2.405c0.395,1.885,1.39,3.282,2.233,3.122
		c0.846-0.16,1.209-1.82,0.824-3.705C78.217,177.593,77.487,177.493,76.645,177.656z"/>
	<path fill="#D05353" d="M87.456,178.793c-0.827-0.213-1.56-0.166-2.083,1.691c-0.52,1.857-0.269,3.533,0.557,3.752
		c0.83,0.213,1.923-1.118,2.446-2.969C88.896,179.407,88.289,179.009,87.456,178.793z"/>
	<path fill="#D05353" d="M102.416,174.474c-0.702-0.476-1.406-0.676-2.565,0.889c-1.156,1.575-1.522,3.226-0.827,3.708
		c0.705,0.479,2.208-0.407,3.363-1.973C103.544,175.533,103.118,174.953,102.416,174.474z"/>
	<path fill="#D05353" d="M111.514,162.442c-0.698-0.476-1.403-0.676-2.565,0.893c-1.152,1.572-1.525,3.223-0.824,3.705
		c0.705,0.476,2.208-0.407,3.367-1.973C112.645,163.5,112.219,162.921,111.514,162.442z"/>
	<path fill="#D05353" d="M156.179,87.681c-0.971-0.113-1.788,0.075-2.086,2.427c-0.298,2.349,0.241,4.344,1.212,4.456
		c0.968,0.116,1.995-1.697,2.292-4.046C157.895,88.169,157.15,87.793,156.179,87.681z"/>
	<path fill="#D05353" d="M102.983,73.418c0.971,0.116,1.995-1.697,2.292-4.049c0.297-2.346-0.451-2.725-1.416-2.837
		c-0.971-0.113-1.788,0.078-2.089,2.427C101.474,71.311,102.015,73.306,102.983,73.418z"/>
	<path fill="#D05353" d="M153.495,68.693c-0.839,0.163-1.456,0.576-0.971,2.897c0.489,2.321,1.563,4.068,2.399,3.905
		c0.842-0.166,1.127-2.18,0.639-4.497C155.077,68.677,154.334,68.53,153.495,68.693z"/>
	<path fill="#D05353" d="M141.654,59.122c-0.767,0.354-1.262,0.899-0.204,3.035c1.068,2.133,2.556,3.576,3.326,3.223
		c0.767-0.36,0.536-2.377-0.529-4.513C143.176,58.734,142.424,58.765,141.654,59.122z"/>
	<path fill="#D05353" d="M145.371,87.859c-1.131-0.26-2.12-0.141-2.8,2.581c-0.683,2.728-0.326,5.145,0.796,5.412
		c1.124,0.257,2.59-1.741,3.27-4.469C147.319,88.658,146.493,88.116,145.371,87.859z"/>
	<path fill="#D05353" d="M141.87,110.73c1.228-2.69,0.482-3.395-0.626-3.865c-1.112-0.467-2.155-0.523-3.389,2.173
		c-1.231,2.69-1.328,5.252-0.219,5.719C138.745,115.231,140.646,113.424,141.87,110.73z"/>
	<path fill="#D05353" d="M113.38,136.116c-1.152-0.485-2.214-0.598-3.273,1.716c-1.055,2.314-0.98,4.588,0.172,5.073
		c1.152,0.485,2.941-0.996,3.999-3.313C115.335,137.278,114.533,136.602,113.38,136.116z"/>
	<path fill="#D05353" d="M121.989,59.923c0.448,0.831,1.043,1.334,1.651,1.282c1.102-0.1,1.823-1.973,1.61-4.187
		c-0.012-0.126-0.027-0.243-0.044-0.356c-0.276-0.078-0.554-0.15-0.824-0.241C123.729,57.688,122.919,58.859,121.989,59.923z"/>
	<path fill="#D05353" d="M63.125,71.42c-0.633,4.691-3.667,8.186-6.78,7.798c-3.113-0.385-5.13-4.503-4.5-9.201
		c0.33-2.462,1.326-4.585,2.646-5.999c-0.877-0.404-1.714-0.881-2.505-1.419c-1.295,0.837-2.682,1.108-3.851,0.612
		c-2.052-0.864-2.747-3.8-1.785-6.887c-0.181-0.34-0.353-0.685-0.512-1.038c-0.452,0.169-0.914,0.319-1.383,0.451
		c-0.066,0.244-0.129,0.487-0.185,0.728c-0.089-0.208-0.187-0.408-0.288-0.605c-0.653,0.165-1.32,0.295-2,0.383
		c0.328,1.527,0.103,3.442-0.756,5.323c-1.607,3.504-4.795,5.549-7.122,4.56c-2.324-0.98-2.913-4.622-1.309-8.13
		c0.424-0.926,0.961-1.746,1.562-2.439c-0.423-0.136-0.838-0.288-1.246-0.454c-1.219,1.594-2.086,3.709-2.363,6.087
		c-0.598,5.149,2.656,7.767,6.263,8.615c-2.095,2.007-5.684,8.008-5.684,11.669c0,3.623,1.059,6.855,3.169,8.772
		c-1.021-1.547-1.39-3.695-1.654-6.038c-0.758-6.746,2.546-8.568,5.687-8.568c3.138,0,5.687,3.836,5.687,8.568
		c0,3.623-1.497,6.718-3.608,7.967c2.148,0.019,4.4-0.423,5.825-2.239c0.025,0.47,0.069,0.943,0.141,1.422
		c0.946,6.229,5.465,10.754,10.094,10.103c4.626-0.648,7.61-6.229,6.658-12.458c-0.548-3.617-2.305-6.652-4.582-8.44
		c3.771-0.526,6.53-5.12,6.229-10.567c-0.09-1.641-0.454-3.171-1.014-4.522c-0.497,0.061-1,0.101-1.509,0.119
		C63.136,67.208,63.416,69.249,63.125,71.42z M59.524,89.212c1.406,4.532,0.106,8.91-2.9,9.774c-3.01,0.861-6.592-2.114-8.002-6.649
		c-1.406-4.535-0.106-8.91,2.903-9.774C54.532,81.699,58.117,84.677,59.524,89.212z"/>
	<path fill="#D05353" d="M50.783,120.711c-2.559,1.654-6.956-0.329-9.818-4.435c-1.265-1.813-1.992-3.724-2.217-5.443
		c-0.366,2.145,0.376,4.998,2.217,7.632c2.862,4.099,7.259,6.085,9.818,4.435c1.428-0.924,1.951-2.797,1.663-4.97
		C52.242,119.13,51.701,120.122,50.783,120.711z"/>
	<path fill="#D05353" d="M65.966,137.009c1.829-0.852,2.615-3.172,2.308-5.925c-0.225,1.741-0.996,3.126-2.308,3.736
		c-2.772,1.3-6.84-1.253-9.085-5.697c-0.764-1.516-1.196-3.044-1.353-4.466c-0.251,1.932,0.172,4.312,1.353,6.655
		C59.126,135.753,63.194,138.305,65.966,137.009z"/>
	<path fill="#D05353" d="M66.298,118.713c2.978-0.73,4.41-5.039,3.198-9.627c0.326,3.699-1.08,6.824-3.576,7.441
		c-2.988,0.736-6.398-2.396-7.62-6.993c0-0.009,0-0.022-0.006-0.028c0.066,0.723,0.188,1.466,0.385,2.211
		C59.899,116.317,63.31,119.449,66.298,118.713z"/>
	<path fill="#D05353" d="M66.689,155.179c-2.693,0.733-5.775-2.399-6.871-6.996c-0.006-0.009-0.006-0.019-0.009-0.028
		c0.059,0.723,0.169,1.463,0.351,2.214c1.099,4.601,4.178,7.729,6.874,6.996c2.687-0.736,3.977-5.042,2.884-9.63
		C70.206,151.431,68.944,154.562,66.689,155.179z"/>
	<path fill="#D05353" d="M86.732,127.225c-0.46,3.683-2.336,6.514-4.669,6.693c-2.793,0.219-5.177-3.426-5.327-8.146
		c-0.003-0.013,0-0.019,0-0.025c-0.091,0.717-0.132,1.463-0.106,2.233c0.147,4.72,2.534,8.365,5.324,8.149
		C84.737,135.916,86.876,131.932,86.732,127.225z"/>
	<path fill="#D05353" d="M77.284,116.984c-0.908-1.419-1.469-3.357-1.478-5.499c-0.016-4.35,2.242-7.88,5.045-7.886
		c0.727-0.003,1.416,0.235,2.042,0.661c-0.927-1.45-2.208-2.349-3.627-2.346c-2.8,0.009-5.061,3.539-5.042,7.886
		C74.24,113.013,75.493,115.772,77.284,116.984z"/>
	<path fill="#D05353" d="M21.564,105.719c-2.249-3.767-2.098-7.914,0.335-9.248c0.629-0.348,1.353-0.467,2.114-0.398
		c-1.547-0.824-3.125-0.993-4.353-0.316c-2.433,1.337-2.584,5.481-0.338,9.251c1.663,2.79,4.175,4.591,6.348,4.798
		C24.157,109.005,22.672,107.583,21.564,105.719z"/>
	<path fill="#D05353" d="M24.542,64.111c-2.775-0.345-5.496,2.869-6.076,7.178c-0.426,3.191,0.445,6.082,2.051,7.513
		c-0.705-1.519-0.999-3.514-0.711-5.643c0.576-4.309,3.301-7.522,6.079-7.178c0.72,0.088,1.372,0.413,1.932,0.914
		C27.101,65.339,25.948,64.283,24.542,64.111z"/>
</g>
</svg>
