<?xml version="1.0" encoding="utf-8"?>
<!-- Generator: Adobe Illustrator 17.0.0, SVG Export Plug-In . SVG Version: 6.00 Build 0)  -->
<!DOCTYPE svg PUBLIC "-//W3C//DTD SVG 1.1 Basic//EN" "http://www.w3.org/Graphics/SVG/1.1/DTD/svg11-basic.dtd">
<svg version="1.1" baseProfile="basic" id="Слой_1"
	 xmlns="http://www.w3.org/2000/svg" xmlns:xlink="http://www.w3.org/1999/xlink" x="0px" y="0px" width="183.945px"
	 height="89.958px" viewBox="0 0 183.945 89.958" xml:space="preserve">
<path fill="#87BB50" d="M183.945,48.197c-4.047,2.439-9.368-5.592-12.606-7.214c-3.396-1.696-7.233-2.565-11.013-2.783
	c-5.601-3.087-12.552-4.843-17.751-4.516c-7.537,0.471,0.613-3.647,0.613-3.647c-7.884-1.85-15.775,3.198-23.312,12.586
	c0.399-7.814-1.026-16.937-2.304-29.348c0,0-1.888-10.77-2.867-5.197c-0.707,4.038-1.97,9.449-5.466,16.946
	c-1.847-8.084-4.978-15.882-7.72-21.416c-5.758-11.626-2.882,7.751-4.028,17.161c-1.151,9.411-5.183,11.626-13.818,22.145
	c-0.156,0.19-0.297,0.378-0.443,0.566c-0.389-0.566-0.792-1.145-1.226-1.755c-11.07-15.568-10.675-30-18.317-23.519
	C58.669,22.462,52.975,30.73,52.561,40.92c-1.931-1.28-3.937-2.428-6.016-3.408c-1.403-1.127-3.215-2.763-5.854-5.302
	c-8.445-8.117-12.283-7.009-12.283-7.009c-0.152,3.119,0.447,5.545,1.208,7.371c-4.603-0.1-9.463,0.737-13.652,2.839
	c-3.238,1.612-8.559,9.639-12.611,7.204c0.005,0,12.52,7.537,28.945,6.267c4.745-0.368,8.995,0.044,12.864,1.036
	c-0.225,1.392-0.247,2.686-0.249,2.918c-0.662-0.068-1.326-0.129-1.993-0.174c-0.296-0.02-0.588-0.032-0.883-0.049
	c-0.498-0.05-1.009-0.093-1.533-0.127c-6.715-0.436-12.947,0.314-18.183,1.451c-3.883,0.797-7.543,1.922-11.001,3.309
	c-0.609,0.238-1.181,0.468-1.674,0.677c-1.803,0.765-2.808,1.296-2.808,1.296s0.012,0.001,0.019,0.002
	c-0.415,0.207-0.813,0.433-1.221,0.649c-0.004-0.003-0.007-0.006-0.011-0.009c-0.51,0.266-1.013,0.54-1.512,0.818
	C2.698,61.469,1.328,62.311,0,63.2c0.951,1.223,2.001,2.365,3.148,3.404c2.281,2.067,4.925,3.739,7.822,4.919
	c0.62,0.252,1.25,0.483,1.892,0.689c0.382,0.123,0.768,0.235,1.157,0.341c1.277,0.346,2.591,0.599,3.937,0.752
	c0.994,0.113,2.002,0.177,3.026,0.177c1.172,0,2.325-0.08,3.457-0.227c1.033-0.135,2.046-0.332,3.037-0.582
	c0.24-0.061,0.481-0.121,0.718-0.188c0.712-0.201,1.413-0.428,2.099-0.685c0.241,0.536,0.503,1.06,0.777,1.576
	c0.704,1.323,1.523,2.574,2.432,3.752c0.661,0.857,1.364,1.68,2.123,2.45c1.219,1.236,2.563,2.347,4.003,3.326
	c1.202,0.817,2.472,1.54,3.804,2.154c3.378,1.557,7.135,2.433,11.099,2.433c0.332,0,0.658-0.025,0.987-0.038
	c0.773-0.028,1.537-0.088,2.292-0.181c4.262-0.526,8.217-2.043,11.607-4.341c0.543,0.5,1.109,0.976,1.693,1.43
	c0.984,0.766,2.021,1.466,3.109,2.09c3.887,2.231,8.391,3.508,13.195,3.508c8.097,0,15.343-3.627,20.216-9.339
	c1.521,1.447,3.215,2.714,5.044,3.771c0.889,0.514,1.813,0.974,2.764,1.384c2.24,0.966,4.639,1.632,7.148,1.948
	c0.28,0.035,0.559,0.071,0.842,0.097c0.824,0.077,1.659,0.119,2.503,0.119c6.839,0,13.062-2.596,17.768-6.842
	c0.049-0.044,0.099-0.086,0.147-0.131c0.732-0.67,1.423-1.381,2.076-2.128c1.412-1.615,2.642-3.393,3.633-5.318
	c0.41,0.138,0.832,0.247,1.251,0.365c2.293,0.647,4.702,1.016,7.202,1.016c10.669,0,19.864-6.292,24.09-15.365
	c-3.977-2.474-8.397-4.479-13.265-5.934C177.955,51.798,183.942,48.197,183.945,48.197z"/>
</svg>
