<?xml version="1.0" encoding="utf-8"?>
<!-- Generator: Adobe Illustrator 17.0.0, SVG Export Plug-In . SVG Version: 6.00 Build 0)  -->
<!DOCTYPE svg PUBLIC "-//W3C//DTD SVG 1.1 Basic//EN" "http://www.w3.org/Graphics/SVG/1.1/DTD/svg11-basic.dtd">
<svg version="1.1" baseProfile="basic" id="Слой_1"
	 xmlns="http://www.w3.org/2000/svg" xmlns:xlink="http://www.w3.org/1999/xlink" x="0px" y="0px" width="133.864px"
	 height="80.35px" viewBox="0 0 133.864 80.35" xml:space="preserve">
<path fill="#BAAE52" d="M72.984,80.128c0,0,14.862-4.494,23.37-5.937c8.505-1.436,17.358-1.625,24.55-2.582
	c7.206-0.948,9.957-3.529,9.957-3.529l-7.782-0.725c0,0,5.485-2.728,7.189-4.394c1.7-1.669,3.596-3.923,3.596-3.923l-9.667,0.316
	l0.782-2.36c0,0-6.152,1.253-9.2,2.387c-3.051,1.135-11.364,1.984-11.364,1.984s12.841-5.293,17.376-6.289
	c4.532-0.996,6.598-2.63,6.598-2.63l-4.123-1.397l8.48-3.668l-10.016-0.931c0,0,3.924-1.46,5.495-2.734
	c1.564-1.271,1.669-3.898,1.669-3.898l-6.193,0.233c0,0,4.964-4.601,5.359-5.782c0.384-1.179-6.096,1.055-9.011,1.799
	c-2.926,0.742-4.738-1.862-4.738-1.862l-4.047,5.3l-0.963-5.156c0,0-4.996,2.373-5.453,3.75c-0.45,1.375-1.885,5.7-1.885,5.7
	l-4.015-4.02c0,0-2.402,2.61-2.287,3.433c0.108,0.823-3.023,6.812-3.023,6.812l-1.679-2.994c0,0-1.638,1.469-3.261,6.387
	c-1.63,4.914-7.146,13.519-9.587,15.119c-2.44,1.599-5.39,0.107-5.39,0.107s7.785-18.933,14.869-24.152
	c7.084-5.219,12.565-11.397,13.148-13.168c0.59-1.769,1.54-3.505,1.54-3.505l-8.739,4.458c0,0,2.42-3.829,1.903-6.914
	c-0.506-3.089-1.791-7.262-1.791-7.262s-8.243,4.097-10.683,5.693c-2.44,1.597-5.132,7.431-6.682,7.488
	c-1.55,0.056-0.824,1.342-1.55,0.056c-0.719-1.281,7.206-9.056,8.442-12.792c1.232-3.735-1.878-10.512-1.878-10.512
	s-5.352,5.789-6.616,7.292c-1.26,1.503-1.26,1.503-1.26,1.503s1.347-2.915,0.667-6.626C74.401,6.492,67.758,0,67.758,0
	s-7.15,5.417-7.736,7.184c-0.583,1.769-2.032,3.864-2.032,3.864l-1.969-0.992l-0.363,3.409l-6.078-3.605l-2.702-1.062
	c0,0-2.957,3.172-0.967,6.396c1.99,3.226,9.011,13.199,9.189,13.823c0.174,0.624,0.269,2.661-1.522,2.293
	c-1.798-0.37-2.489-2.868-5.771-6.82c-3.282-3.955-11.27-7.534-11.27-7.534s-1.742,4.097-0.73,6.825
	c1.006,2.724,1.257,6.598,1.257,6.598l-8.54-4.234c0,0-1.606,3.701,1.582,5.617c3.187,1.917,15.334,7.895,18.957,10.882
	c3.606,2.969,17.519,23.312,15.822,24.977c-2.294,2.25-7.667-4.562-9.283-7.751c-1.623-3.193-6.179-12.533-9.478-15.272
	c-3.303-2.739-10.048-6.607-10.048-6.607l-1.431,4.325c0,0-4.856-6.126-8.044-8.045c-3.187-1.915-7.422-4.132-7.422-4.132
	l-0.437,3.607L4.863,27.183c0,0,1.296,7.623,2.702,9.17c1.396,1.551,5.418,5.569,5.418,5.569L1.805,39.87
	c0,0,1.627,3.193,6.605,5.476c4.979,2.291,10.872,5.269,10.872,5.269L0,48.822c0,0,3.236,2.939,4.825,3.894
	c1.592,0.96,6.179,4.423,8.037,4.597c1.857,0.174,12.935,3.635,12.935,3.635l-15.571-1.445c0,0,7.796,4.17,12.115,4.977
	c4.326,0.803,15.348,4.464,24.645,7.558c9.3,3.094,17.268,7.89,20.609,8.198C70.935,80.546,72.984,80.128,72.984,80.128z"/>
</svg>
