<?xml version="1.0" encoding="utf-8"?>
<!-- Generator: Adobe Illustrator 17.0.0, SVG Export Plug-In . SVG Version: 6.00 Build 0)  -->
<!DOCTYPE svg PUBLIC "-//W3C//DTD SVG 1.1 Basic//EN" "http://www.w3.org/Graphics/SVG/1.1/DTD/svg11-basic.dtd">
<svg version="1.1" baseProfile="basic" id="Слой_1"
	 xmlns="http://www.w3.org/2000/svg" xmlns:xlink="http://www.w3.org/1999/xlink" x="0px" y="0px" width="265.219px"
	 height="230.938px" viewBox="0 0 265.219 230.938" xml:space="preserve">
<polygon fill="#A8A8A8" stroke="#272525" stroke-width="3" stroke-miterlimit="10" points="557.307,189.762 557.307,189.762 
	557.306,189.761 "/>
<path fill="#A8A8A8" stroke="#272525" stroke-width="3" stroke-miterlimit="10" d="M99.55,63.493
	c-3.519-6.897-7.772-14.083-15.908-16.65c-14.294-4.521-28.68,10.063-30.362,22.193c-3.918,28.166,34.402,35.02,46.271,54.46
	c15.623-12.746,55.351-34.049,49.173-55.683c-7.839-27.468-33.984-20.668-45.863-3.427C101.843,65.863,100.898,66.856,99.55,63.493z
	"/>
<path fill="#A8A8A8" stroke="#272525" stroke-width="3" stroke-miterlimit="10" d="M253.363,43.175
	c-11.621-20.511-39.692-22.689-58.119-15.299c-0.044-0.397-0.093-0.775-0.14-1.162c-4.917,5.957-2.625,13.651,0.85,19.243
	c0.034-1.109,0.057-2.204,0.062-3.275c9.031-2.719,26.14-3.171,35.137,4.318c9.824,8.181,5.419,28.794-0.556,37.572
	c-14.964,21.985-44.069,25.688-62.785,42.237c0.814-2.046,1.298-3.211,1.298-3.211c1.763-2.501,3.411-4.993,4.963-7.474
	c-25.88,12.243-33.262,48.957-24.63,74.79c0.479-3.059,1.037-6.136,1.663-9.203c1.539,4.75,4.314,8.624,8.813,10.82
	c9.791,4.766,20.631,2.42,14.558-10.726c-5.505-11.904-13.933-11.084-9.919-26.807c3.06-12.007,10.16-16.793,20.641-22.206
	c10.479-5.426,26.078-12.014,35.998-18.384C242.631,100.636,268.384,69.676,253.363,43.175z"/>
<path fill="#A8A8A8" stroke="#272525" stroke-width="3" stroke-miterlimit="10" d="M161.758,124.797
	c-19.969-1.696-40.113-1.965-60.317-1.717c-0.374,0.005-1.552,0.813-1.568,1.108c-1.772,32.281-0.509,64.562,0.823,96.843h48.079
	c-1.352-9.059-0.703-19.768,1.012-30.719C142.779,169.34,146.327,141.196,161.758,124.797z"/>
<path fill="#A8A8A8" stroke="#272525" stroke-width="3" stroke-miterlimit="10" d="M161.438,124.699
	c3.576-3.801,7.789-6.971,12.659-9.275c16.356-26.149,21.301-50.975,21.882-70.168c-3.475-5.592-5.767-13.286-0.85-19.243
	C193.761,14.749,191.346,8,191.346,8h-89.074c-1.042,19.027,1.956,38.053-0.794,57.079c-0.094,0.652,0.31,0.894,0.636,0.375
	c11.432-18.175,38.677-26.006,46.708,2.137c6.134,21.479-32.972,42.629-48.823,55.404C120.58,122.724,141.1,122.972,161.438,124.699
	z"/>
<path fill="#A8A8A8" stroke="#272525" stroke-width="3" stroke-miterlimit="10" d="M53.042,220.933h47.662
	c-1.345-32.576-2.619-65.153-0.774-97.729c-0.042-0.068-0.091-0.132-0.134-0.2c-20.915,0.286-41.889,1.09-62.796,1.422
	C55.628,163.966,53.042,220.933,53.042,220.933z"/>
<path fill="#A8A8A8" stroke="#272525" stroke-width="3" stroke-miterlimit="10" d="M53.783,68.815
	c1.682-12.129,16.068-26.713,30.362-22.193c8.322,2.626,12.58,10.084,16.147,17.122c0.41,0.808,1.729,0.416,1.902-1.023
	c2.196-18.241-0.519-36.481,0.482-54.721H10.992C-2.03,71.575,31.673,114.472,31.673,114.472c1.976,3.15,3.771,6.485,5.404,9.953
	c20.907-0.332,41.881-1.136,62.796-1.422C87.812,103.774,49.883,96.847,53.783,68.815z"/>
</svg>
