<?xml version="1.0" encoding="utf-8"?>
<!-- Generator: Adobe Illustrator 17.0.0, SVG Export Plug-In . SVG Version: 6.00 Build 0)  -->
<!DOCTYPE svg PUBLIC "-//W3C//DTD SVG 1.1 Basic//EN" "http://www.w3.org/Graphics/SVG/1.1/DTD/svg11-basic.dtd">
<svg version="1.1" baseProfile="basic" id="Слой_1"
	 xmlns="http://www.w3.org/2000/svg" xmlns:xlink="http://www.w3.org/1999/xlink" x="0px" y="0px" width="111.85px"
	 height="170.805px" viewBox="0 0 111.85 170.805" xml:space="preserve">
<path fill="#3FA556" d="M107.363,19.175C95.742-1.336,67.671-3.514,49.244,3.877c-0.044-0.397-0.093-0.775-0.14-1.162
	c-4.917,5.957-2.625,13.651,0.85,19.243c0.034-1.109,0.057-2.204,0.062-3.275c9.031-2.719,26.14-3.171,35.137,4.318
	c9.824,8.181,5.419,28.794-0.556,37.572c-14.964,21.985-44.069,25.688-62.785,42.237c0.814-2.046,1.298-3.211,1.298-3.211
	c1.763-2.501,3.411-4.993,4.963-7.474c-25.88,12.243-33.262,48.957-24.63,74.79c0.479-3.059,1.037-6.136,1.663-9.203
	c1.539,4.75,4.314,8.624,8.813,10.82c9.791,4.766,20.631,2.42,14.558-10.726c-5.505-11.904-13.933-11.084-9.919-26.807
	c3.06-12.007,10.16-16.793,20.641-22.206c10.479-5.426,26.078-12.014,35.998-18.384C96.631,76.636,122.384,45.676,107.363,19.175z"
	/>
</svg>
