<?xml version="1.0" encoding="utf-8"?>
<!-- Generator: Adobe Illustrator 17.0.0, SVG Export Plug-In . SVG Version: 6.00 Build 0)  -->
<!DOCTYPE svg PUBLIC "-//W3C//DTD SVG 1.1 Basic//EN" "http://www.w3.org/Graphics/SVG/1.1/DTD/svg11-basic.dtd">
<svg version="1.1" baseProfile="basic" id="Слой_1"
	 xmlns="http://www.w3.org/2000/svg" xmlns:xlink="http://www.w3.org/1999/xlink" x="0px" y="0px" width="265.219px"
	 height="230.938px" viewBox="0 0 265.219 230.938" xml:space="preserve">
<polygon fill="#A8A8A8" stroke="#272525" stroke-width="3" stroke-miterlimit="10" points="557.307,189.762 557.307,189.762 
	557.306,189.761 "/>
<g id="Слой_x0020_1_1_">
	<path fill="#A8A8A8" stroke="#272525" stroke-width="3" stroke-miterlimit="10" d="M253.793,42.474
		c-11.621-20.511-39.692-22.689-58.119-15.299C194.338,15.205,191.751,8,191.751,8H10.992
		C-2.03,71.575,31.673,114.472,31.673,114.472c24.509,39.061,21.446,106.461,21.446,106.461h95.74
		c-1.73-11.589-0.192-25.877,2.675-39.921c1.539,4.75,4.314,8.624,8.813,10.82c9.79,4.766,20.631,2.42,14.558-10.726
		c-5.505-11.904-13.933-11.084-9.919-26.807c3.059-12.007,10.16-16.793,20.641-22.206c10.479-5.426,26.078-12.014,35.998-18.384
		C243.061,99.934,268.814,68.975,253.793,42.474z M231.027,83.872L231.027,83.872c-14.964,21.985-44.069,25.688-62.785,42.237
		c0.814-2.046,1.298-3.211,1.298-3.211c21.423-30.386,26.791-59.561,26.907-80.917c9.031-2.719,26.14-3.171,35.137,4.318
		C241.406,54.481,237.001,75.094,231.027,83.872z"/>
</g>
</svg>
