<?xml version="1.0" encoding="utf-8"?>
<!-- Generator: Adobe Illustrator 17.0.0, SVG Export Plug-In . SVG Version: 6.00 Build 0)  -->
<!DOCTYPE svg PUBLIC "-//W3C//DTD SVG 1.1 Basic//EN" "http://www.w3.org/Graphics/SVG/1.1/DTD/svg11-basic.dtd">
<svg version="1.1" baseProfile="basic" id="Слой_1"
	 xmlns="http://www.w3.org/2000/svg" xmlns:xlink="http://www.w3.org/1999/xlink" x="0px" y="0px" width="240px" height="365px"
	 viewBox="0 0 240 365" xml:space="preserve">
<path fill="#A8A8A8" stroke="#272525" stroke-width="3" stroke-miterlimit="10" d="M156.535,233.821
	c-20.433,6.385-39.59,7.663-60.023,3.831c-27.064-5.413-54.125-6.99-78.938-0.254c0.954,5.85,2.921,11.945,6.194,18.27
	c3.267,6.311,6.512,11.302,9.683,15.169c-2.831,1.867-5.272,3.797-7.358,5.769l-0.88,0.853
	c-22.849,22.822-0.222,50.743-0.222,50.743c31.77,39.707,66.788,30.007,69.858-7.462c6.889,1.758,14.107,2.697,21.544,2.697
	c7.404,0,14.59-0.932,21.452-2.675c1.581,38.336,36.346,49.079,67.895,9.771c0,0,21.996-27.053-0.137-49.228l-0.851-0.827
	c-2.613-2.478-5.788-4.891-9.631-7.19c1.644-3.518,3.075-7.156,4.242-10.912c1.479-2.352,2.967-4.949,4.46-7.833
	c3.25-6.278,5.221-12.333,6.184-18.143C192.216,234.423,174.697,229.28,156.535,233.821z"/>
<path fill="#A8A8A8" stroke="#272525" stroke-width="3" stroke-miterlimit="10" d="M186.809,180.618
	c11.908-12.863,20.105-29.203,22.917-47.325c-17.281-7.371-35.585-13.796-55.634-10.631c-21.711,5.108-39.59,17.879-61.3,10.217
	C74.913,127.771,59.588,115,40.431,115c-3.248,0-6.611,0.233-9.918,0.765c-0.047,1.198-0.08,2.401-0.08,3.611
	c0,20.747,7.023,39.844,18.797,55.082c-16.459,13.384-36.168,35.829-31.545,64.166c24.813-6.736,51.874-5.158,78.938,0.254
	c20.433,3.831,39.59,2.554,60.023-3.831c18.163-4.541,35.681,0.602,53.471,2.577C214.053,213.868,200.876,194.246,186.809,180.618z"
	/>
<path fill="#A8A8A8" stroke="#272525" stroke-width="3" stroke-miterlimit="10" d="M201.577,79.276
	c14.082-4.448,24.3-17.61,24.3-33.164c0-19.21-15.576-34.78-34.783-34.78c-15.976,0-29.4,10.787-33.478,25.467
	c-11.289-5.086-23.801-7.938-36.988-7.938c-13.474,0-26.24,2.974-37.721,8.269C79.8,21.104,65.708,9,48.774,9
	C29.57,9,14,24.571,14,43.779c0,16.374,11.326,30.067,26.561,33.762c-5.933,11.424-9.503,24.269-10.043,37.898
	c3.307-0.532,6.67-0.765,9.918-0.765c19.156,0,34.481,12.771,52.361,17.879c21.711,7.663,39.59-5.108,61.3-10.217
	c20.048-3.166,38.352,3.26,55.634,10.631c0.704-4.538,1.086-9.182,1.086-13.918C210.816,104.77,207.486,91.276,201.577,79.276z"/>
</svg>
