<?xml version="1.0" encoding="utf-8"?>
<!-- Generator: Adobe Illustrator 17.0.0, SVG Export Plug-In . SVG Version: 6.00 Build 0)  -->
<!DOCTYPE svg PUBLIC "-//W3C//DTD SVG 1.1 Basic//EN" "http://www.w3.org/Graphics/SVG/1.1/DTD/svg11-basic.dtd">
<svg version="1.1" baseProfile="basic" id="Слой_1"
	 xmlns="http://www.w3.org/2000/svg" xmlns:xlink="http://www.w3.org/1999/xlink" x="0px" y="0px" width="212.236px"
	 height="158.805px" viewBox="0 0 212.236 158.805" xml:space="preserve">
<path fill="#EEBF31" d="M192.627,48.628C177.73,34.437,144.562,8.826,110.079,2.121C88.104-2.151,63.265,0.129,42.65,8.058
	c-3.464-1.145-11.609-3.432-18.495-2.314c0.005-0.006,0.012-0.013,0.017-0.019c-0.15,0.024-0.297,0.056-0.446,0.084
	c-0.112,0.021-0.224,0.04-0.336,0.063c-0.474,0.097-0.94,0.213-1.397,0.346c-0.119,0.035-0.237,0.07-0.354,0.108
	c-0.455,0.144-0.901,0.306-1.334,0.491c-0.099,0.042-0.194,0.088-0.292,0.132c-0.445,0.202-0.879,0.423-1.294,0.674
	c-0.062,0.037-0.12,0.079-0.181,0.118c-0.442,0.278-0.87,0.579-1.273,0.919c-5.241,4.433-5.061,10.594-0.525,14.566
	c-5.272,4.63-9.591,9.902-12.656,15.789C2.607,41.856,1.256,44.761,0,47.712c7.143-0.572,14.3-0.861,21.458-0.867
	c0.126,0,0.291,0.228,0.248,0.343c-1.594,4.243-2.858,8.886-3.735,13.973h0.001c-6.667,38.676,6.003,90.694,73.353,97.357
	c1.333,0.132,2.64,0.22,3.935,0.288c-0.016-5.868,0.569-12.594,1.859-20.311c4.513-26.947,32.687-60.428,63.05-69.416
	c-0.139-5.534,5.655-16.027,10.822-18.573c1.697-0.835,3.255-1.264,4.686-1.354c8.099-0.51,12.093,10.041,13.516,22.025
	c4.049,0.997,8.041,2.501,11.937,4.597h0.002c2.068,1.106,4.007,2.234,5.833,3.368c1.831-3.421,3.59-6.176,5.271-8.343
	C206.605,63.192,200.121,55.764,192.627,48.628z"/>
</svg>
