<?xml version="1.0" encoding="utf-8"?>
<!-- Generator: Adobe Illustrator 17.0.0, SVG Export Plug-In . SVG Version: 6.00 Build 0)  -->
<!DOCTYPE svg PUBLIC "-//W3C//DTD SVG 1.1 Basic//EN" "http://www.w3.org/Graphics/SVG/1.1/DTD/svg11-basic.dtd">
<svg version="1.1" baseProfile="basic" id="Слой_1"
	 xmlns="http://www.w3.org/2000/svg" xmlns:xlink="http://www.w3.org/1999/xlink" x="0px" y="0px" width="287.833px" height="307px"
	 viewBox="0 0 287.833 307" xml:space="preserve">
<g>
	<path fill="#A8A8A8" stroke="#272525" stroke-width="3" stroke-miterlimit="10" d="M256.669,258.284h-0.002
		c-0.697-0.14,24.97-70.297-1.54-139.911c0.665-4.892,0.99-9.873,0.945-14.906c-0.181-20.434-8.763-42.489-22.59-24.667
		c-5.633-7.606-12.117-15.034-19.61-22.17c-14.897-14.191-48.066-39.802-82.548-46.507C109.35,5.85,84.51,8.13,63.896,16.059
		c-3.464-1.145-11.609-3.432-18.495-2.314c0.005-0.006,0.012-0.013,0.017-0.019c-0.15,0.024-0.296,0.056-0.445,0.083
		c-0.113,0.021-0.225,0.04-0.337,0.063c-0.475,0.097-0.941,0.213-1.398,0.346c-0.118,0.034-0.235,0.07-0.352,0.107
		c-0.456,0.144-0.902,0.306-1.335,0.491c-0.098,0.042-0.194,0.088-0.291,0.132c-0.445,0.202-0.879,0.424-1.295,0.675
		c-0.062,0.037-0.12,0.079-0.181,0.118c-0.442,0.278-0.87,0.579-1.273,0.919c-5.241,4.433-5.061,10.594-0.525,14.566
		c-5.272,4.63-9.591,9.902-12.656,15.789C-0.115,95.956,8.326,162.385,14.212,205.612c0.097,0.716,0.215,1.405,0.344,2.076
		c0.037,0.194,0.082,0.378,0.122,0.568c0.099,0.472,0.203,0.937,0.318,1.386c0.053,0.208,0.11,0.41,0.167,0.614
		c0.117,0.42,0.239,0.832,0.369,1.232c0.062,0.191,0.125,0.38,0.19,0.567c0.144,0.412,0.295,0.811,0.453,1.202
		c0.061,0.15,0.119,0.304,0.182,0.451c0.201,0.473,0.413,0.929,0.635,1.371c0.026,0.051,0.049,0.105,0.074,0.156
		c0.262,0.513,0.538,1.007,0.826,1.479c0.008,0.014,0.018,0.026,0.026,0.04c0.27,0.44,0.552,0.861,0.843,1.267
		c0.067,0.094,0.138,0.183,0.207,0.276c0.239,0.322,0.484,0.636,0.736,0.937c0.086,0.102,0.173,0.202,0.26,0.302
		c0.25,0.287,0.506,0.565,0.767,0.833c0.085,0.088,0.17,0.176,0.257,0.262c0.291,0.288,0.589,0.564,0.893,0.831
		c0.058,0.051,0.114,0.105,0.173,0.155c0.752,0.644,1.539,1.227,2.357,1.752c0.038,0.024,0.078,0.047,0.116,0.071
		c0.362,0.229,0.729,0.447,1.101,0.655c0.089,0.05,0.179,0.097,0.269,0.146c0.331,0.179,0.666,0.352,1.004,0.516
		C27,224.805,27.1,224.853,27.2,224.9c0.347,0.163,0.697,0.317,1.051,0.465c0.084,0.035,0.168,0.072,0.253,0.106
		c0.425,0.173,0.854,0.338,1.288,0.491c0.006,0.002,0.012,0.005,0.018,0.007l0,0c5.236,1.851,11.012,2.34,16.108,2.778
		c7.679,0.656,16.348-0.925,18.627-5.905c5.383-11.753-13.915-8.174-14.903-14.138c-4.103-24.702-5.232-47.132,31.511-29.752
		c-0.793,10.918-1.705,26.93-0.873,34.035c1.323,11.306,25.419,11.74,34.554,8.458c9.129-3.291-1.69-20.175-11.617-21.081
		c-9.925-0.903-7.857-4.249-7.857-4.249l4.153-7.051c2.609,1.599,5.339,3.324,8.203,5.191c7.251,4.727,12.553,10.355,16.363,16.478
		l0,0c0.57,0.916,1.104,1.844,1.608,2.781c0.03,0.055,0.059,0.11,0.088,0.165c1.519,2.846,2.745,5.781,3.717,8.769
		c0.013,0.04,0.026,0.08,0.039,0.12c0.97,3.003,1.687,6.058,2.191,9.128c0.005,0.029,0.009,0.058,0.014,0.088
		c0.501,3.077,0.789,6.167,0.907,9.233c0.001,0.027,0.002,0.053,0.003,0.08c0.115,3.064,0.06,6.102-0.122,9.077
		c-0.002,0.033-0.004,0.067-0.006,0.1c-0.123,1.977-0.302,3.926-0.525,5.836c-0.001,0.009-0.002,0.018-0.003,0.027
		c-0.11,0.943-0.232,1.875-0.362,2.797c-0.007,0.048-0.014,0.096-0.021,0.144c-0.261,1.838-0.558,3.631-0.879,5.37
		c-0.007,0.036-0.013,0.073-0.02,0.109c-0.158,0.85-0.321,1.686-0.489,2.509c-0.014,0.068-0.028,0.136-0.042,0.204
		c-0.336,1.637-0.689,3.217-1.048,4.729c-0.016,0.069-0.033,0.139-0.049,0.208c-0.173,0.724-0.347,1.432-0.52,2.123
		c-0.025,0.098-0.049,0.195-0.074,0.293c-0.349,1.377-0.696,2.685-1.033,3.916c-0.028,0.104-0.057,0.21-0.085,0.312
		c-0.156,0.566-0.309,1.115-0.458,1.646c-0.042,0.148-0.083,0.294-0.124,0.439c-0.128,0.451-0.253,0.891-0.374,1.314
		c-0.346,1.206-0.661,2.294-0.935,3.257c-0.002,0.007-0.004,0.014-0.006,0.021c-0.249,0.874-0.46,1.642-0.625,2.294
		c-0.011,0.043-0.023,0.088-0.033,0.129c-0.074,0.297-0.138,0.568-0.19,0.814c-0.009,0.041-0.016,0.08-0.024,0.119
		c-0.049,0.242-0.091,0.466-0.114,0.651c-0.031,0.249-0.02,0.491,0.012,0.73c0.006,0.046,0.011,0.092,0.019,0.138
		c0.042,0.231,0.112,0.457,0.211,0.679c0.016,0.037,0.037,0.073,0.055,0.109c0.107,0.218,0.236,0.432,0.395,0.641
		c0.01,0.013,0.017,0.026,0.027,0.039c0.171,0.22,0.376,0.433,0.602,0.643c0.035,0.033,0.07,0.065,0.106,0.097
		c0.236,0.21,0.496,0.415,0.784,0.615c0.011,0.008,0.024,0.015,0.035,0.023c0.305,0.209,0.637,0.412,0.996,0.609
		c0.005,0.003,0.01,0.006,0.015,0.009c0.365,0.2,0.759,0.393,1.176,0.581c0.014,0.006,0.028,0.013,0.043,0.019
		c13.738,6.155,54.378,5.783,56.509-3.593c4.316-18.977-22.785-12.479-22.682-19.443c0.476-31.863,9.376-52.566,20.381-64.404
		c0.001,0,0.001,0,0.002-0.001c0.546-0.587,1.098-1.151,1.654-1.694c0.038-0.038,0.077-0.075,0.116-0.112
		c1.121-1.09,2.259-2.095,3.409-3.012c0.003-0.002,0.005-0.004,0.008-0.007c6.829-5.444,14.05-7.874,20.358-7.797
		c0.358,0.004,0.713,0.015,1.064,0.036c0.243,0.014,0.486,0.031,0.726,0.053c0.494,0.045,0.986,0.096,1.466,0.173
		c0.024,0.004,0.048,0.008,0.072,0.011c0.581,0.095,1.151,0.213,1.708,0.355c0.025,0.006,0.049,0.013,0.073,0.019
		c1.111,0.286,2.171,0.665,3.173,1.13c0.037,0.017,0.074,0.033,0.111,0.05c0.47,0.222,0.925,0.467,1.367,0.728
		c0.065,0.038,0.129,0.076,0.193,0.115c0.43,0.262,0.848,0.54,1.25,0.838c0.054,0.04,0.106,0.082,0.159,0.123
		c0.412,0.314,0.812,0.642,1.19,0.994c46.724,43.467-33.367,90.119,21.981,90.12c0.665,0,1.329-0.014,1.992-0.035
		c0.061-0.002,0.122-0.004,0.183-0.006C274.603,288.113,301.572,267.427,256.669,258.284z"/>
	<polygon fill="#A8A8A8" stroke="#272525" stroke-width="3" stroke-miterlimit="10" points="29.81,225.968 29.809,225.967 
		29.809,225.968 	"/>
</g>
</svg>
