<?xml version="1.0" encoding="utf-8"?>
<!-- Generator: Adobe Illustrator 17.0.0, SVG Export Plug-In . SVG Version: 6.00 Build 0)  -->
<!DOCTYPE svg PUBLIC "-//W3C//DTD SVG 1.1 Basic//EN" "http://www.w3.org/Graphics/SVG/1.1/DTD/svg11-basic.dtd">
<svg version="1.1" baseProfile="basic" id="Слой_1"
	 xmlns="http://www.w3.org/2000/svg" xmlns:xlink="http://www.w3.org/1999/xlink" x="0px" y="0px" width="287.833px" height="307px"
	 viewBox="0 0 287.833 307" xml:space="preserve">
<g>
	<path fill="#FFFFFF" stroke="#FFFFFF" stroke-width="5" stroke-miterlimit="10" d="M256.669,258.283h-0.002
		c-0.697-0.14,24.97-70.297-1.54-139.911c0.665-4.892,0.99-9.873,0.945-14.906c-0.181-20.434-8.763-42.489-22.59-24.668
		c-5.633-7.606-12.117-15.034-19.61-22.17c-14.897-14.191-48.066-39.802-82.548-46.507C109.35,5.849,84.51,8.13,63.896,16.059
		c-3.46-1.144-11.599-3.441-18.48-2.331c0.001-0.001-0.097,0.017-0.147,0.025c-0.247,0.042-0.491,0.087-0.734,0.138
		c-0.065,0.014-0.13,0.029-0.195,0.043c-0.246,0.054-0.49,0.113-0.731,0.177c-0.065,0.017-0.129,0.035-0.193,0.053
		c-0.237,0.066-0.471,0.137-0.702,0.213c-0.067,0.022-0.134,0.044-0.201,0.067c-0.226,0.078-0.449,0.162-0.67,0.25
		c-0.068,0.027-0.135,0.053-0.202,0.081c-0.217,0.091-0.431,0.189-0.642,0.29c-0.065,0.031-0.131,0.061-0.196,0.094
		c-0.212,0.107-0.419,0.221-0.624,0.339c-0.059,0.034-0.12,0.066-0.179,0.101c-0.215,0.129-0.424,0.266-0.63,0.409
		c-0.044,0.03-0.09,0.058-0.134,0.089c-0.248,0.177-0.491,0.363-0.725,0.561c-5.241,4.433-5.061,10.594-0.525,14.566
		c-5.272,4.63-9.591,9.902-12.656,15.789C-0.115,95.956,8.326,162.385,14.212,205.611c0.097,0.716,0.215,1.404,0.344,2.075
		c0.038,0.195,0.082,0.38,0.122,0.571c0.099,0.471,0.203,0.934,0.317,1.382c0.053,0.209,0.111,0.413,0.168,0.617
		c0.116,0.419,0.239,0.83,0.368,1.23c0.062,0.191,0.125,0.381,0.19,0.567c0.144,0.412,0.296,0.812,0.454,1.204
		c0.06,0.149,0.118,0.302,0.181,0.448c0.201,0.473,0.413,0.93,0.635,1.372c0.025,0.051,0.048,0.105,0.074,0.155
		c0.262,0.513,0.538,1.007,0.827,1.48c0.008,0.013,0.016,0.024,0.024,0.037c0.27,0.441,0.553,0.862,0.845,1.269
		c0.068,0.095,0.139,0.185,0.208,0.277c0.239,0.322,0.484,0.635,0.736,0.937c0.085,0.102,0.172,0.202,0.259,0.302
		c0.25,0.287,0.506,0.565,0.768,0.833c0.085,0.088,0.17,0.176,0.257,0.262c0.291,0.288,0.589,0.564,0.892,0.83
		c0.058,0.051,0.115,0.105,0.174,0.156c0.751,0.644,1.539,1.226,2.356,1.751c0.04,0.025,0.08,0.049,0.12,0.074
		c0.36,0.228,0.726,0.446,1.097,0.653c0.09,0.05,0.181,0.098,0.271,0.147c0.331,0.179,0.665,0.351,1.003,0.515
		c0.099,0.048,0.198,0.096,0.298,0.143c0.347,0.163,0.698,0.318,1.052,0.466c0.084,0.035,0.167,0.071,0.251,0.106
		c0.426,0.173,0.855,0.338,1.288,0.491c0.006,0.002,0.012,0.005,0.018,0.007c0,0,0,0,0,0c5.236,1.851,11.012,2.34,16.108,2.778
		c7.679,0.656,16.348-0.925,18.627-5.905c5.383-11.753-13.915-8.174-14.903-14.138C45.538,184,44.409,161.57,81.151,178.951
		c-0.792,10.918-1.705,26.93-0.873,34.035c1.323,11.306,25.419,11.74,34.554,8.458c9.129-3.291-1.69-20.175-11.617-21.081
		c-9.925-0.903-7.857-4.249-7.857-4.249l4.153-7.051c2.609,1.599,5.339,3.323,8.203,5.191c7.251,4.727,12.553,10.355,16.363,16.478
		c0,0,0,0,0,0c0.57,0.915,1.103,1.843,1.607,2.779c0.03,0.056,0.06,0.112,0.09,0.169c1.518,2.846,2.744,5.78,3.716,8.767
		c0.013,0.04,0.026,0.079,0.038,0.119c0.97,3.003,1.687,6.057,2.191,9.126c0.005,0.031,0.01,0.062,0.015,0.093
		c0.501,3.076,0.789,6.165,0.907,9.229c0.001,0.027,0.002,0.055,0.003,0.082c0.115,3.062,0.06,6.099-0.122,9.074
		c-0.002,0.035-0.005,0.071-0.007,0.106c-0.123,1.976-0.302,3.923-0.524,5.832c-0.001,0.01-0.002,0.019-0.003,0.029
		c-0.11,0.943-0.232,1.875-0.362,2.797c-0.007,0.048-0.014,0.096-0.02,0.143c-0.261,1.836-0.558,3.629-0.879,5.367
		c-0.007,0.038-0.014,0.077-0.021,0.115c-0.158,0.849-0.321,1.684-0.488,2.505c-0.014,0.069-0.028,0.138-0.043,0.207
		c-0.336,1.636-0.688,3.213-1.047,4.724c-0.017,0.071-0.034,0.143-0.051,0.214c-0.173,0.724-0.347,1.431-0.52,2.123
		c-0.024,0.097-0.049,0.192-0.073,0.288c-0.349,1.379-0.697,2.688-1.034,3.921c-0.028,0.103-0.057,0.208-0.085,0.31
		c-0.156,0.566-0.309,1.114-0.458,1.645c-0.043,0.152-0.085,0.301-0.127,0.451c-0.121,0.426-0.239,0.842-0.354,1.243
		c-0.353,1.232-0.676,2.343-0.954,3.324c-0.001,0.003-0.002,0.006-0.003,0.01c-0.249,0.877-0.462,1.647-0.627,2.301
		c-0.01,0.041-0.022,0.085-0.032,0.126c-0.074,0.297-0.138,0.569-0.19,0.815c-0.009,0.042-0.016,0.08-0.024,0.12
		c-0.049,0.242-0.091,0.465-0.114,0.651c-0.019,0.155-0.023,0.308-0.018,0.46c0.002,0.05,0.009,0.099,0.013,0.149
		c0.009,0.102,0.022,0.203,0.042,0.303c0.011,0.057,0.025,0.113,0.04,0.169c0.025,0.093,0.055,0.186,0.089,0.278
		c0.02,0.055,0.04,0.11,0.064,0.165c0.043,0.099,0.094,0.196,0.148,0.293c0.024,0.044,0.045,0.089,0.072,0.133
		c0.081,0.133,0.173,0.265,0.274,0.394c0.042,0.054,0.091,0.107,0.137,0.16c0.067,0.079,0.135,0.157,0.209,0.235
		c0.061,0.063,0.126,0.125,0.191,0.187c0.069,0.065,0.139,0.13,0.213,0.194c0.075,0.066,0.152,0.131,0.232,0.195
		c0.071,0.057,0.146,0.113,0.221,0.169c0.092,0.069,0.182,0.138,0.28,0.205c0.051,0.035,0.106,0.069,0.158,0.104
		c0.259,0.172,0.535,0.34,0.831,0.504c0.023,0.013,0.044,0.025,0.066,0.038c0.158,0.086,0.323,0.171,0.491,0.255
		c0.042,0.021,0.082,0.042,0.125,0.063c0.175,0.086,0.355,0.171,0.54,0.254c0.028,0.013,0.056,0.025,0.084,0.038
		c13.762,6.143,54.355,5.767,56.485-3.604c4.316-18.977-22.786-12.479-22.682-19.443c0.476-31.863,9.376-52.566,20.381-64.404
		c0.001,0,0.001,0,0.002-0.001c0.547-0.588,1.099-1.151,1.655-1.695c0.038-0.037,0.075-0.073,0.113-0.109
		c1.121-1.09,2.26-2.095,3.41-3.013c0.003-0.003,0.007-0.005,0.01-0.008c6.828-5.443,14.049-7.873,20.356-7.796
		c0.358,0.004,0.714,0.015,1.065,0.036c0.243,0.014,0.486,0.031,0.726,0.053c0.494,0.045,0.986,0.096,1.465,0.173
		c0.024,0.004,0.048,0.008,0.072,0.011c0.581,0.095,1.151,0.214,1.708,0.355c0.024,0.006,0.048,0.013,0.072,0.019
		c1.111,0.286,2.172,0.665,3.174,1.131c0.036,0.017,0.074,0.033,0.11,0.05c0.47,0.222,0.926,0.467,1.369,0.728
		c0.064,0.038,0.128,0.076,0.191,0.114c0.431,0.262,0.849,0.541,1.25,0.839c0.054,0.04,0.106,0.082,0.159,0.123
		c0.412,0.314,0.812,0.642,1.19,0.994c46.724,43.467-33.367,90.119,21.981,90.12c0.664,0,1.328-0.014,1.991-0.035
		c0.062-0.002,0.124-0.004,0.186-0.006C274.604,288.112,301.571,267.427,256.669,258.283z"/>
	<path fill="#FFFFFF" stroke="#272525" stroke-width="5" stroke-miterlimit="10" d="M29.809,225.967
		C29.809,225.967,29.809,225.967,29.809,225.967C29.809,225.968,29.809,225.967,29.809,225.967z"/>
</g>
<polygon fill="#A8A8A8" stroke="#272525" stroke-width="3" stroke-miterlimit="10" points="153.939,141.584 153.939,141.584 
	153.938,141.583 "/>
<g id="Слой_x0020_1">
	<g id="_784584976">
		<path fill="#8E563C" d="M82.047,167.82c0,0-3.091,33.86-1.768,45.165c1.323,11.306,25.419,11.74,34.554,8.458
			c9.129-3.291-1.69-20.175-11.617-21.081c-9.925-0.903-7.857-4.249-7.857-4.249l11.843-20.11L82.047,167.82z"/>
		<path fill="#AF6F47" d="M256.669,258.283c46.018,9.371,16.551,30.868-13.423,30.868c-55.348-0.002,24.743-46.654-21.981-90.12
			c-15.061-14.007-57.425,1.839-58.48,72.401c-0.103,6.964,26.998,0.465,22.682,19.443c-2.596,11.422-62.347,9.483-60.987-1.34
			c0.99-7.818,26.16-67.294-16.767-95.28c-63.65-41.497-62.989-15.147-58.074,14.449c0.989,5.964,20.286,2.385,14.903,14.138
			c-2.279,4.98-10.948,6.561-18.627,5.905c-12.423-1.068-28.89-2.421-31.705-23.134C8.326,162.385-0.115,95.956,25.33,47.014
			c3.065-5.887,7.384-11.159,12.656-15.789c-4.536-3.972-4.716-10.133,0.525-14.566c7.014-5.936,20.625-2.173,25.385-0.6
			c20.614-7.929,45.454-10.21,67.429-5.937c34.482,6.704,67.65,32.316,82.548,46.507c85.947,81.854,41.885,201.472,42.795,201.655
			H256.669z"/>
		<path fill="#C37C4E" d="M39.219,69.159c-6.667,38.676,6.003,90.694,73.353,97.357c67.351,6.667,86.692-69.353,90.692-78.019
			c4.002-8.671-0.669-46.677-48.683-63.35C110.209,9.739,49.353,10.385,39.217,69.159H39.219z"/>
		<path fill="#9D5838" d="M247.409,289.012c-1.379,0.087-2.771,0.139-4.163,0.139c-55.348-0.002,24.743-46.654-21.981-90.12
			c-3.28-3.048-7.846-4.677-13.004-4.641c1.223-1.331,5.466-5.845,8.452-7.835c3.518-2.349,16.415,3.516,21.694,22.275
			c5.28,18.762,7.032,27.556,1.172,44.559C234.393,268.427,228.747,283.009,247.409,289.012L247.409,289.012z M145.35,298.039
			c-11.779-1.153-21.423-4.085-20.869-8.505c0.826-6.501,18.34-48.673-0.405-78.802c4.014-0.43,13.494,6.518,13.494,23.306
			c0.002,21.692-5.865,48.661,0,55.11C140.215,292.056,142.868,295.328,145.35,298.039L145.35,298.039z M29.81,225.967
			c-7.524-2.66-13.935-8.141-15.599-20.357C8.326,162.385-0.115,95.956,25.33,47.014c3.065-5.887,7.384-11.159,12.656-15.789
			c-4.536-3.972-4.716-10.133,0.525-14.566c1.92-1.62,4.321-2.513,6.907-2.934c-2.579,2.816-7.668,9.546-2.823,13.955
			c6.45,5.859,7.621,7.034-4.689,22.275c-12.314,15.242-24.624,73.867-16.414,130.149c3.354,23.003,5.926,37,8.316,45.863H29.81z"/>
		<path fill="#A35938" d="M210.899,194.522c-8.355-0.911-18.74,2.84-27.731,12.504c-17.567,5.325-34.951,5.959-47.208,0.925
			c-24.626-10.114-18.473-43.09-18.473-43.09s9.674-1.757,23.304-9.669c13.632-7.918,29.02-20.227,42.206-31.222
			c13.195-10.994,36.936-18.468,59.801-14.508c22.867,3.957,14.947,40.452-10.994,68.15
			C225.729,184.102,218.585,189.777,210.899,194.522L210.899,194.522z"/>
		<path fill="#DBA785" d="M222.379,83.773c2.068,1.106,4.007,2.234,5.833,3.368c16.887-31.555,27.658-6.593,27.861,16.325
			c0.341,37.481-19.257,72.326-55.263,85.533c-41.991,15.397-94.967,32.4-82.443-42.505c4.513-26.947,32.687-60.428,63.05-69.416
			c-0.139-5.534,5.655-16.027,10.822-18.573c11.297-5.559,16.528,6.568,18.202,20.671c4.049,0.997,8.041,2.501,11.937,4.597H222.379
			z"/>
		<path fill="#CF885F" d="M186.936,75.076c-0.192,0.783-0.387-6.829,4.883-10.147c5.272-3.319,9.56-0.195,10.731,4.1
			c1.173,4.289,1.368,7.61,1.368,7.61c0.002,0-16.789-2.34-16.984-1.56L186.936,75.076z M231.25,87.96c0,0,2.534-8.393,8.387-9.953
			c5.861-1.565,9.174,4.685,9.568,11.319c0.394,6.64-2.534,11.717-2.534,11.717L231.25,87.96z"/>
		<path fill="#C17C58" d="M135.24,177.853l-1.592,7.674c5.806,6.531,13.265,5.815,27.395,5.228
			c6.882-0.284-32.726,12.179-39.696-15.877c-0.336-1.367,5.031,8.115,7.527,8.927c2.321,0.762,4.753-5.145,6.365-5.951V177.853z"/>
		<path fill="#2B2A29" d="M157.548,160.251c-12.354,3.633-19.408,14.718-21.464,15.861c-2.991,1.673,1.5-1.623-8.348-26.085
			C123.514,139.53,173.709,155.499,157.548,160.251L157.548,160.251z"/>
		<path fill="#FFFFFF" d="M200.54,119.864c1.749,7.706,9.1,12.615,16.422,10.955c7.315-1.66,11.834-9.26,10.083-16.964
			c-1.745-7.709-9.1-12.612-16.414-10.951C203.311,104.562,198.792,112.157,200.54,119.864L200.54,119.864z"/>
		<path fill="#2B2A29" d="M205.426,118.219c1.151,5.075,5.99,8.305,10.802,7.212c4.82-1.095,7.793-6.094,6.642-11.165
			c-1.153-5.074-5.994-8.302-10.805-7.207C207.246,108.15,204.272,113.149,205.426,118.219L205.426,118.219z"/>
		<path fill="#FFFFFF" d="M214.061,119.049c0.42,1.853,2.188,3.035,3.947,2.637c1.757-0.401,2.844-2.226,2.424-4.078
			c-0.419-1.856-2.187-3.037-3.947-2.637C214.725,115.37,213.636,117.196,214.061,119.049L214.061,119.049z"/>
		<path fill="#FFFFFF" d="M167.206,102.004c1.54,6.804,8.034,11.136,14.491,9.669c6.464-1.467,10.449-8.174,8.904-14.977
			c-1.543-6.806-8.034-11.136-14.496-9.672c-6.462,1.465-10.444,8.176-8.899,14.983V102.004z"/>
		<path fill="#2B2A29" d="M171.517,100.554c1.012,4.475,5.288,7.329,9.536,6.364c4.25-0.964,6.875-5.381,5.862-9.86
			c-1.015-4.478-5.292-7.331-9.541-6.364c-4.257,0.961-6.875,5.38-5.859,9.861L171.517,100.554z"/>
		<path fill="#FFFFFF" d="M179.137,101.281c0.372,1.639,1.931,2.679,3.482,2.331c1.56-0.356,2.513-1.97,2.149-3.607
			c-0.375-1.634-1.934-2.677-3.491-2.324c-1.55,0.353-2.515,1.97-2.14,3.602V101.281z"/>
		<path fill="#FFFFFF" d="M140.126,149.901c0,0-3.394-1.6-6.326-1.273c-6.661,0.747-1.278,3.708,4.136,3.377
			c4.841-0.3,2.188-2.103,2.188-2.103L140.126,149.901z"/>
	</g>
</g>
</svg>
