<?xml version="1.0" encoding="utf-8"?>
<!-- Generator: Adobe Illustrator 17.0.0, SVG Export Plug-In . SVG Version: 6.00 Build 0)  -->
<!DOCTYPE svg PUBLIC "-//W3C//DTD SVG 1.1 Basic//EN" "http://www.w3.org/Graphics/SVG/1.1/DTD/svg11-basic.dtd">
<svg version="1.1" baseProfile="basic" id="Слой_1"
	 xmlns="http://www.w3.org/2000/svg" xmlns:xlink="http://www.w3.org/1999/xlink" x="0px" y="0px" width="240px" height="365px"
	 viewBox="0 0 240 365" xml:space="preserve">
<path fill="#A8A8A8" stroke="#272525" stroke-width="3" stroke-miterlimit="10" d="M205.781,282.121l-0.851-0.827
	c-2.613-2.478-5.788-4.891-9.631-7.19c1.644-3.518,3.075-7.156,4.242-10.912c1.479-2.352,2.967-4.949,4.46-7.833
	c16.536-31.946,0.384-58.188-17.125-75.149c14.89-16.084,24.002-37.595,24.002-61.243c0-14.28-3.331-27.774-9.24-39.774
	c14.082-4.448,24.3-17.61,24.3-33.164c0-19.21-15.576-34.78-34.783-34.78c-15.976,0-29.4,10.787-33.478,25.467
	c-11.289-5.086-23.801-7.938-36.988-7.938c-13.474,0-26.24,2.974-37.721,8.269c-3.107-16.026-17.199-28.13-34.133-28.13
	c-19.204,0-34.774,15.571-34.774,34.779c0,16.374,11.326,30.067,26.561,33.762c-6.455,12.428-10.123,26.536-10.123,41.509
	c0,20.747,7.023,39.844,18.797,55.082c-19.856,16.147-44.482,45.474-25.351,82.436c3.267,6.311,6.512,11.302,9.683,15.169
	c-2.831,1.867-5.272,3.797-7.358,5.769l-0.88,0.853c-22.848,22.822-0.221,50.743-0.221,50.743
	c31.77,39.707,66.788,30.007,69.858-7.462c6.889,1.758,14.107,2.697,21.544,2.697c7.404,0,14.59-0.932,21.452-2.675
	c1.581,38.336,36.346,49.079,67.895,9.771C205.917,331.349,227.913,304.297,205.781,282.121z"/>
</svg>
