<?xml version="1.0" encoding="utf-8"?>
<!-- Generator: Adobe Illustrator 17.0.0, SVG Export Plug-In . SVG Version: 6.00 Build 0)  -->
<!DOCTYPE svg PUBLIC "-//W3C//DTD SVG 1.1 Basic//EN" "http://www.w3.org/Graphics/SVG/1.1/DTD/svg11-basic.dtd">
<svg version="1.1" baseProfile="basic" id="Слой_1"
	 xmlns="http://www.w3.org/2000/svg" xmlns:xlink="http://www.w3.org/1999/xlink" x="0px" y="0px" width="211.877px"
	 height="125.943px" viewBox="0 0 211.877 125.943" xml:space="preserve">
<path fill="#EEBF31" d="M187.577,70.276c14.082-4.448,24.3-17.61,24.3-33.164c0-19.21-15.576-34.78-34.783-34.78
	c-15.976,0-29.4,10.787-33.478,25.467c-11.289-5.086-23.801-7.938-36.988-7.938c-13.474,0-26.24,2.974-37.721,8.269
	C65.8,12.104,51.708,0,34.774,0C15.569,0,0,15.571,0,34.779c0,16.374,11.326,30.067,26.561,33.762
	c-5.933,11.424-9.503,24.269-10.043,37.898c3.307-0.532,6.67-0.765,9.918-0.765c19.156,0,34.481,12.771,52.361,17.879
	c21.711,7.663,39.59-5.108,61.3-10.217c20.048-3.166,38.352,3.26,55.634,10.631c0.704-4.538,1.086-9.182,1.086-13.918
	C196.817,95.769,193.486,82.276,187.577,70.276z"/>
</svg>
