<?xml version="1.0" encoding="utf-8"?>
<!-- Generator: Adobe Illustrator 17.0.0, SVG Export Plug-In . SVG Version: 6.00 Build 0)  -->
<!DOCTYPE svg PUBLIC "-//W3C//DTD SVG 1.1 Basic//EN" "http://www.w3.org/Graphics/SVG/1.1/DTD/svg11-basic.dtd">
<svg version="1.1" baseProfile="basic" id="Слой_1"
	 xmlns="http://www.w3.org/2000/svg" xmlns:xlink="http://www.w3.org/1999/xlink" x="0px" y="0px" width="79.485px"
	 height="98.621px" viewBox="0 0 79.485 98.621" xml:space="preserve">
<path fill="#CE9538" d="M35.199,54.092c-0.689,11.111-1.096,27.74-0.328,34.293c1.323,11.306,25.419,11.74,34.554,8.458
	c9.129-3.291-1.69-20.175-11.617-21.081c-9.925-0.903-7.857-4.249-7.857-4.249l3.514-7.442c2.801,1.706,5.743,3.561,8.842,5.581
	c4.464,2.91,8.183,6.163,11.276,9.662c1.469-3.519,3.418-6.803,5.902-9.671c-5.237-5.534-8.35-14.294-8.385-27.45
	c0,0.004,0,0.007,0,0.011c-1.295-0.068-2.602-0.157-3.935-0.288C30.396,38.278,9.925,21.122,0,0
	c0.936,18.59,2.585,37.375,3.598,55.817C6.589,47.409,15.173,44.738,35.199,54.092z"/>
</svg>
