<?xml version="1.0" encoding="utf-8"?>
<!-- Generator: Adobe Illustrator 17.0.0, SVG Export Plug-In . SVG Version: 6.00 Build 0)  -->
<!DOCTYPE svg PUBLIC "-//W3C//DTD SVG 1.1 Basic//EN" "http://www.w3.org/Graphics/SVG/1.1/DTD/svg11-basic.dtd">
<svg version="1.1" baseProfile="basic" id="Слой_1"
	 xmlns="http://www.w3.org/2000/svg" xmlns:xlink="http://www.w3.org/1999/xlink" x="0px" y="0px" width="82.261px"
	 height="109.292px" viewBox="0 0 82.261 109.292" xml:space="preserve">
<path fill="#3FA556" d="M5.087,21.437c0.57,0.916,1.103,1.844,1.607,2.78c0.03,0.056,0.06,0.111,0.089,0.167
	c1.518,2.846,2.744,5.78,3.717,8.767c0.013,0.04,0.026,0.081,0.039,0.121c0.97,3.003,1.687,6.058,2.191,9.126
	c0.005,0.03,0.01,0.059,0.014,0.089c0.501,3.077,0.789,6.167,0.907,9.232c0.001,0.027,0.002,0.053,0.003,0.08
	c0.115,3.064,0.06,6.102-0.122,9.078c-0.002,0.033-0.004,0.066-0.006,0.099c-0.123,1.977-0.302,3.927-0.525,5.837
	c-0.001,0.009-0.002,0.017-0.003,0.026c-0.11,0.943-0.232,1.876-0.362,2.799c-0.007,0.047-0.014,0.095-0.02,0.142
	c-0.261,1.838-0.558,3.633-0.88,5.373c-0.007,0.035-0.013,0.071-0.02,0.106c-0.158,0.851-0.322,1.688-0.49,2.511
	c-0.014,0.067-0.027,0.134-0.041,0.201c-0.336,1.638-0.689,3.218-1.048,4.731c-0.016,0.069-0.033,0.139-0.049,0.207
	c-0.173,0.724-0.347,1.432-0.521,2.123c-0.025,0.098-0.049,0.195-0.074,0.293c-0.349,1.377-0.696,2.685-1.033,3.916
	c-0.028,0.104-0.057,0.21-0.085,0.312c-0.156,0.566-0.309,1.115-0.459,1.646c-0.042,0.148-0.083,0.294-0.124,0.439
	c-0.128,0.451-0.253,0.891-0.374,1.314c-0.346,1.206-0.661,2.294-0.935,3.257c-0.002,0.007-0.004,0.014-0.006,0.021
	c-0.249,0.874-0.46,1.642-0.625,2.294c-0.011,0.043-0.023,0.088-0.033,0.129c-0.074,0.297-0.138,0.568-0.19,0.814
	c-0.009,0.041-0.016,0.08-0.024,0.119c-0.049,0.242-0.091,0.466-0.114,0.651c-0.031,0.249-0.02,0.491,0.012,0.73
	c0.006,0.046,0.011,0.092,0.019,0.138c0.042,0.231,0.112,0.458,0.211,0.679c0.016,0.037,0.037,0.073,0.055,0.109
	c0.107,0.218,0.236,0.432,0.395,0.642c0.01,0.013,0.017,0.026,0.027,0.039c0.171,0.22,0.377,0.433,0.603,0.643
	c0.035,0.032,0.069,0.064,0.106,0.096c0.236,0.21,0.496,0.416,0.785,0.615c0.011,0.008,0.024,0.015,0.035,0.023
	c0.305,0.209,0.637,0.412,0.996,0.609c0.005,0.003,0.01,0.006,0.015,0.009c0.366,0.2,0.76,0.394,1.178,0.582
	c0.013,0.006,0.026,0.012,0.039,0.017c13.736,6.156,54.38,5.785,56.511-3.592c4.316-18.977-22.785-12.479-22.682-19.443
	c0.482-32.261,9.603-53.068,20.798-64.83c0.329-0.345,0.659-0.686,0.991-1.015c0.244-0.243,0.49-0.478,0.736-0.712
	c0.349-0.332,0.698-0.66,1.05-0.976c0.232-0.208,0.465-0.407,0.697-0.607c0.369-0.318,0.739-0.633,1.111-0.933
	c0.215-0.173,0.431-0.337,0.647-0.505c0.391-0.303,0.783-0.605,1.176-0.889c0.192-0.139,0.385-0.268,0.578-0.402
	c0.419-0.292,0.838-0.582,1.258-0.852c0.152-0.098,0.305-0.186,0.457-0.281c0.461-0.287,0.922-0.572,1.384-0.834
	c0.069-0.039,0.139-0.073,0.209-0.112c2.323-1.297,4.651-2.278,6.936-2.95c0.004-0.001,0.007-0.002,0.011-0.004
	c0.143-0.042,0.284-0.073,0.426-0.111C81.926,4.038,81.52,1.988,80.999,0C53.208,10.168,20.864,20.754,5.902,4.945
	C3.418,7.813,1.469,11.098,0,14.616C1.932,16.805,3.623,19.083,5.087,21.437z"/>
</svg>
