<?xml version="1.0" encoding="utf-8"?>
<!-- Generator: Adobe Illustrator 17.0.0, SVG Export Plug-In . SVG Version: 6.00 Build 0)  -->
<!DOCTYPE svg PUBLIC "-//W3C//DTD SVG 1.1 Basic//EN" "http://www.w3.org/Graphics/SVG/1.1/DTD/svg11-basic.dtd">
<svg version="1.1" baseProfile="basic" id="Слой_1"
	 xmlns="http://www.w3.org/2000/svg" xmlns:xlink="http://www.w3.org/1999/xlink" x="0px" y="0px" width="57.485px"
	 height="174.043px" viewBox="0 0 57.485 174.043" xml:space="preserve">
<path fill="#D36234" d="M13.241,0.866C-7.138,48.75,0.662,110.049,6.206,150.767c0.097,0.717,0.215,1.405,0.344,2.076
	c0.037,0.194,0.082,0.378,0.122,0.568c0.099,0.472,0.203,0.936,0.318,1.386c0.053,0.208,0.11,0.411,0.167,0.614
	c0.117,0.42,0.239,0.831,0.369,1.232c0.062,0.191,0.125,0.381,0.19,0.567c0.144,0.412,0.296,0.811,0.453,1.202
	c0.061,0.15,0.119,0.303,0.181,0.45c0.201,0.472,0.413,0.929,0.634,1.37c0.026,0.051,0.049,0.107,0.075,0.158
	c0.262,0.513,0.538,1.006,0.826,1.479c0.008,0.014,0.018,0.027,0.026,0.04c0.27,0.44,0.552,0.86,0.843,1.266
	c0.068,0.095,0.139,0.185,0.208,0.278c0.239,0.322,0.483,0.635,0.736,0.936c0.085,0.102,0.172,0.202,0.259,0.302
	c0.251,0.288,0.507,0.566,0.769,0.835c0.085,0.087,0.169,0.175,0.255,0.26c0.291,0.288,0.589,0.564,0.893,0.831
	c0.059,0.051,0.115,0.106,0.174,0.156c0.752,0.644,1.539,1.226,2.357,1.751c0.038,0.024,0.077,0.047,0.116,0.071
	c0.362,0.229,0.729,0.447,1.101,0.655c0.089,0.05,0.179,0.097,0.269,0.146c0.331,0.179,0.666,0.352,1.005,0.516
	c0.099,0.048,0.198,0.096,0.298,0.142c0.348,0.163,0.699,0.318,1.054,0.467c0.083,0.035,0.165,0.071,0.248,0.104
	c0.428,0.174,0.86,0.34,1.297,0.495c0.004,0.001,0.007,0.003,0.011,0.004l0,0c5.236,1.851,11.012,2.34,16.108,2.778
	c7.679,0.656,16.348-0.925,18.627-5.905c5.383-11.753-13.915-8.174-14.903-14.138c-1.824-10.979-3.049-21.499-0.635-28.286
	c-1.013-18.442-2.662-37.227-3.598-55.817c-8.255-17.568-9.216-37.88-6.189-55.441h-0.001c0.901-5.224,2.21-9.98,3.865-14.315
	C27.792-0.006,20.509,0.284,13.241,0.866z"/>
</svg>
