<?xml version="1.0" encoding="utf-8"?>
<!-- Generator: Adobe Illustrator 17.0.0, SVG Export Plug-In . SVG Version: 6.00 Build 0)  -->
<!DOCTYPE svg PUBLIC "-//W3C//DTD SVG 1.1 Basic//EN" "http://www.w3.org/Graphics/SVG/1.1/DTD/svg11-basic.dtd">
<svg version="1.1" baseProfile="basic" id="Слой_1"
	 xmlns="http://www.w3.org/2000/svg" xmlns:xlink="http://www.w3.org/1999/xlink" x="0px" y="0px" width="266.917px"
	 height="238.958px" viewBox="0 0 266.917 238.958" xml:space="preserve">
<g>
	<path fill="#D1572B" stroke="#FFFFFF" stroke-width="3" stroke-miterlimit="10" d="M99.15,84.103
		c1.824-0.368,3.566-0.644,5.233-0.849C102.615,83.364,100.856,83.632,99.15,84.103z"/>
	<path fill="#D1572B" stroke="#FFFFFF" stroke-width="3" stroke-miterlimit="10" d="M253.305,126.416
		c0,0-3.873-20.115-24.716-31.084c0,0-17.568-11.664-37.568-10.412c0,0-17.938-7.904-26.314-2.222c0,0-8.587-2.475-16.937-1.731
		c-5.851,9.067-0.304,12.028-0.304,12.028c2.32-4.442,9.17-8.979,11.517-10.443c3.069,0.516,5.116,1.107,5.116,1.107
		c-4.824,3.744-2.134,7.89-2.134,7.89c7.362-5.832,19.791-6.434,27.149-6.201c0.824,0.327,1.296,0.534,1.296,0.534
		c1.086-0.07,2.165-0.095,3.234-0.095c-18.587,0.307-27.223,6.201-27.223,6.201c7.388,1.557,17.305,9.033,17.305,9.033
		c-16.659-9.948-31.004-6.817-36.236-5.093c0.142,0.521,0.22,1.056,0.22,1.602c0,0.512-0.067,1.015-0.192,1.505
		c11.339,13.017,9.583,26.873,9.583,26.873c-1.838-12.447-6.537-19.605-11.343-23.723c-2.657,2.951-7.76,4.949-13.621,4.949
		c-8.601,0-15.573-4.3-15.573-9.605c0-0.194,0.012-0.385,0.03-0.576c-14.862,2.649-30.37,9.912-30.37,9.912
		c10.465-8.276,17.995-8.851,17.995-8.851c-8.436-4.981-27.962-2.681-27.962-2.681c14.482-5.148,31.333,1.11,31.333,1.11
		c-6.266-6.218-13.493-7.994-18.124-8.438c1.904-0.138,3.11-0.192,3.11-0.192c0.404-0.281,0.819-0.54,1.237-0.786
		c10.667,0.975,20.17,8.073,20.17,8.073l3.894-1.433c0.96-1.348,2.407-2.533,4.205-3.472c-5.98-3.584-18.041-5.467-22.934-6.095
		c-2.097,0.58-4.114,1.467-5.967,2.746c0,0-20.407,0.919-25.98,4.831c0,0-34.433,2.317-51.711,34.603
		c0,0-17.832,30.481,1.534,63.955c0,0,10.329,21.333,30.697,27.504c0,0,19.633,13.695,40.519,10.119c0,0,14.283,4.91,25.059,0.852
		c0,0,5.684-2.801,11.07-1.099c0,0,20.298,1.702,29.232-2.175c0,0,3.613-1.1,7.564,1.113c0,0,17.637,4.945,36.24-2.872
		c0,0,23.175-3.058,35.73-19.218c0,0,15.98-7.932,24.772-31.918C257.906,172.545,263.261,151.514,253.305,126.416z"/>
</g>
<g>
	<path fill="#D1572B" d="M144.828,81.374c-0.001,0.002-0.002,0.004-0.003,0.006c0.049-0.012,0.099-0.02,0.148-0.032
		C144.925,81.358,144.876,81.364,144.828,81.374z"/>
	<path fill="#D1572B" d="M99.15,84.103c1.824-0.368,3.566-0.644,5.233-0.849C102.615,83.364,100.856,83.632,99.15,84.103z"/>
	<path fill="#D1572B" d="M253.305,126.416c0,0-3.873-20.115-24.716-31.084c0,0-17.568-11.664-37.568-10.412
		c0,0-17.938-7.904-26.314-2.222c0,0-8.587-2.475-16.937-1.731c-5.851,9.067-0.304,12.028-0.304,12.028
		c2.32-4.442,9.17-8.979,11.517-10.443c3.069,0.516,5.116,1.107,5.116,1.107c-4.824,3.744-2.134,7.89-2.134,7.89
		c7.362-5.832,19.791-6.434,27.149-6.201c0.824,0.327,1.296,0.534,1.296,0.534c1.086-0.07,2.165-0.095,3.234-0.095
		c-18.587,0.307-27.223,6.201-27.223,6.201c7.388,1.557,17.305,9.033,17.305,9.033c-16.659-9.948-31.004-6.817-36.236-5.093
		c0.142,0.521,0.22,1.056,0.22,1.602c0,0.512-0.067,1.015-0.192,1.505c11.339,13.017,9.583,26.873,9.583,26.873
		c-1.838-12.447-6.537-19.605-11.343-23.723c-2.657,2.951-7.76,4.949-13.621,4.949c-8.601,0-15.573-4.3-15.573-9.605
		c0-0.194,0.012-0.385,0.03-0.576c-14.862,2.649-30.369,9.912-30.369,9.912c10.465-8.276,17.995-8.851,17.995-8.851
		c-8.436-4.981-27.962-2.681-27.962-2.681c14.482-5.148,31.333,1.11,31.333,1.11c-6.266-6.218-13.493-7.994-18.124-8.438
		c1.904-0.138,3.11-0.192,3.11-0.192c0.404-0.281,0.819-0.54,1.237-0.786c10.667,0.975,20.17,8.074,20.17,8.074l3.894-1.433
		c0.96-1.348,2.407-2.533,4.205-3.472c-5.98-3.584-18.041-5.467-22.934-6.095c-2.097,0.58-4.114,1.467-5.967,2.746
		c0,0-20.407,0.919-25.98,4.831c0,0-34.433,2.317-51.711,34.603c0,0-17.832,30.481,1.534,63.955c0,0,10.329,21.333,30.697,27.504
		c0,0,19.633,13.695,40.519,10.119c0,0,14.283,4.91,25.059,0.852c0,0,5.684-2.801,11.07-1.099c0,0,20.298,1.702,29.232-2.175
		c0,0,3.613-1.1,7.564,1.113c0,0,17.637,4.945,36.239-2.872c0,0,23.175-3.058,35.73-19.218c0,0,15.98-7.932,24.772-31.918
		C257.906,172.545,263.261,151.514,253.305,126.416z"/>
</g>
<path fill="#D97E2D" d="M213.924,130.487c0,0,25.578,64.212-16.296,87.225c0,0-33.561,10.194-35.325,2.836
	c0,0-5.219-4.271,2.516-26.272c0,0,4.754-27.864-3.279-50.002c0,0,9.411,53.159-13.201,66.713c0,0-24.415,16.129-31.733,7.958
	c0,0-2.039-2.82-4.764-8.088c-0.296-0.314-0.592-0.701-0.885-1.164c0,0-0.587-1.362-1.512-3.774
	c-5.12-11.248-11.147-29.302-11.385-52.291c-0.042-2.001-0.021-3.996,0.069-5.977c0.058-1.628,0.139-3.283,0.257-4.952
	c0,0-6.857,34.238,6.796,68.141c0,0,0.611,9.524-18.306,5.251c0,0-30.678-5.504-24.225-57.5c0,0-9.057,19.046,4.665,53.627
	c0,0-7.733,15.154-25.73-0.513c0,0-1.273-1.33-3.081-3.903c-15.967-19.325-12.285-44.921-12.285-44.921
	c0.415-3.94,1.03-7.636,1.814-11.111c0.403-2.054,0.888-4.159,1.464-6.308c0,0-12.141,19.016,1.887,56.651
	c0,0-8.315-2.497-18.214-19.201c1.041,2.4,2.256,4.831,3.67,7.275c0,0,10.328,21.332,30.697,27.502c0,0,19.631,13.696,40.516,10.123
	c0,0,14.281,4.908,25.062,0.85c0,0,5.684-2.802,11.071-1.104c0,0,20.295,1.704,29.226-2.168c0,0,3.617-1.107,7.567,1.109
	c0,0,17.641,4.946,36.237-2.872c0,0,5.112-0.673,11.826-3.058l0.141-0.249C209.185,220.321,239.064,183.446,213.924,130.487z"/>
</svg>
