<?xml version="1.0" encoding="utf-8"?>
<!-- Generator: Adobe Illustrator 17.0.0, SVG Export Plug-In . SVG Version: 6.00 Build 0)  -->
<!DOCTYPE svg PUBLIC "-//W3C//DTD SVG 1.1 Basic//EN" "http://www.w3.org/Graphics/SVG/1.1/DTD/svg11-basic.dtd">
<svg version="1.1" baseProfile="basic" id="Слой_1"
	 xmlns="http://www.w3.org/2000/svg" xmlns:xlink="http://www.w3.org/1999/xlink" x="0px" y="0px" width="117.386px"
	 height="117.909px" viewBox="0 0 117.386 117.909" xml:space="preserve">
<path fill="#87BB50" d="M117.386,77.787c-1.068,0-2.148,0.026-3.234,0.095c0,0-0.472-0.208-1.296-0.534
	c-7.358-0.232-19.787,0.369-27.149,6.201c0,0-2.69-4.145,2.134-7.89c0,0-2.047-0.59-5.116-1.107c-2.347,1.464-9.197,6-11.517,10.443
	c0,0-5.55-2.961,0.307-12.033c-0.999,0.043-1.985,0.199-2.953,0.427c0.684-1.604,1.268-2.638,1.268-2.638
	c2.844-6.493,4.439-14.372,5.316-20.437l0.043-0.298c0.084-0.593,0.161-1.167,0.232-1.721l0.034-0.275
	c0.115-0.91,0.212-1.761,0.294-2.536l0.024-0.23l0.012-0.118l0.01-0.108l0.023-0.221l0.021-0.216l0.021-0.211l0.003-0.035
	l0.017-0.171l0.086-0.956l0.015-0.175l0.007-0.08l0.008-0.09l0.013-0.165l0.004-0.047l0.009-0.111l0.024-0.3l0.01-0.132v-0.009
	l0.01-0.134l0.007-0.099l0.003-0.03l0.009-0.122l0.005-0.07l0.003-0.047l0.008-0.109l0.004-0.044l0.003-0.06l0.007-0.097
	l0.002-0.021l0.005-0.069l0.005-0.084v-0.005l0.005-0.072l0.004-0.062v-0.008l0.004-0.063l0.003-0.04l0.001-0.015l0.002-0.049
	l0.002-0.023l0.001-0.019l0.002-0.033v-0.01l0.001-0.017l0.001-0.019l0.001-0.002v-0.01v-0.004c-0.093-0.468-0.176-0.931-0.249-1.39
	l-0.002-0.017c-0.03-0.192-0.059-0.383-0.086-0.573l-0.007-0.048l-0.013-0.095l-0.006-0.048l-0.007-0.048l-0.036-0.284l-0.006-0.048
	l-0.006-0.047l-0.006-0.048l-0.038-0.33l-0.005-0.047l-0.006-0.047c-1.443-13.279,5.42-22.025,5.42-22.025
	c2.326-2.843,5.795-9.152,5.795-9.152l-0.085-0.169L86.78,6.197L86.701,6.05l-0.006-0.01l-0.103-0.183L86.59,5.854l-0.097-0.163
	l-0.027-0.043l-0.085-0.133L86.36,5.482l-0.107-0.16l-0.004-0.006l-0.113-0.16l-0.012-0.017l-0.102-0.138l-0.025-0.032L85.881,4.82
	l-0.005-0.008l-0.098-0.12L85.75,4.66l-0.03-0.036l-0.095-0.111L85.614,4.5L85.48,4.35l-0.008-0.008l-0.106-0.113L85.34,4.2
	l-0.08-0.082l-0.019-0.019l-0.07-0.069L85.15,4.01l-0.099-0.097l-0.01-0.01l-0.112-0.105l-0.026-0.025l-0.088-0.078l-0.012-0.011
	l-0.081-0.071l-0.021-0.019l-0.103-0.088l-0.013-0.011l-0.118-0.097L84.37,3.32L84.348,3.3l-0.065-0.05l-0.001-0.001l0.001-0.001
	c-0.178-0.139-0.361-0.271-0.547-0.399h-0.001l-0.098-0.067l-0.01-0.007l-0.123-0.081L83.483,2.68l-0.01-0.007L83.46,2.665
	l-0.021-0.013L83.405,2.63l-0.033-0.021l-0.016-0.01l-0.017-0.01l-0.006-0.004l-0.028-0.017L83.27,2.546l-0.033-0.021l-0.008-0.004
	l-0.004-0.003l-0.056-0.034l-0.034-0.021l-0.017-0.01l-0.017-0.01L83.096,2.44l-0.064-0.038l-0.034-0.02l-0.032-0.019l-0.002-0.001
	l-0.034-0.02l-0.069-0.039l-0.013-0.007l-0.02-0.012l-0.126-0.07l-0.109-0.059l-0.01-0.005l-0.015-0.008l-0.152-0.081l-0.008-0.004
	l-0.283-0.143l-0.001,0.002L82.03,1.869l-0.136-0.065l-0.016-0.008l-0.12-0.054L81.484,1.62l-0.138-0.058L81.072,1.45L81.07,1.451
	L80.965,1.41l-0.033-0.013l-0.139-0.052L80.782,1.34l-0.127-0.047l-0.057-0.021l-0.082-0.03l-0.004-0.001l-0.135-0.048l-0.139-0.048
	l-0.01-0.004L80.098,1.1l-0.055-0.018l-0.084-0.027l-0.1-0.032l-0.038-0.011l-0.139-0.043l-0.007-0.003l-0.131-0.038l-0.052-0.016
	l-0.086-0.025l-0.097-0.028l-0.041-0.011v0.001c-0.96-0.269-1.896-0.453-2.746-0.579l0.001-0.001l-0.356-0.05l-0.013-0.002
	l-0.03-0.004l-0.091-0.011l-0.029-0.004l-0.03-0.004l-0.03-0.004l-0.025-0.004h-0.004l-0.031-0.004l-0.029-0.004l-0.029-0.003
	L75.71,0.161l-0.03-0.003l-0.005-0.001l-0.024-0.003l-0.029-0.003l-0.029-0.004l-0.056-0.006L75.509,0.14l-0.028-0.003l-0.029-0.004
	l-0.014-0.001L75.425,0.13l-0.028-0.002L75.37,0.125L75.315,0.12l-0.027-0.003L75.26,0.114l-0.028-0.003l-0.517-0.046l-0.001,0.002
	c-1.142-0.087-1.876-0.065-1.876-0.065c-6.938,5.165-9.897,31.551-9.897,31.551c-0.138,12.174-3.244,22.194-3.825,23.965
	l-0.006,0.02l-0.01,0.027l-0.009,0.027l-0.004,0.01l-0.023,0.07l-0.003,0.01L59.057,55.7l-0.006,0.016l-0.004,0.01l-0.002,0.005
	l-0.005,0.014l-0.004,0.012l-0.003,0.008l-0.001,0.002l-0.003,0.01l-0.003,0.007l-0.002,0.006l-0.002,0.005v0.001l-0.001,0.002
	l-0.026,0.093l-0.026,0.093l-0.026,0.093l-0.027,0.092l-0.027,0.093l-0.026,0.093l-0.026,0.092l-0.025,0.086l-0.001,0.008
	l-0.027,0.092l-0.027,0.092l-0.026,0.093l-0.027,0.092l-0.026,0.092l-0.026,0.093l-0.027,0.092l-0.023,0.081l-0.003,0.011
	l-0.027,0.092l-0.026,0.092l-0.027,0.092L58.5,57.652l-0.026,0.092l-0.027,0.092l-0.026,0.091l-0.023,0.08l-0.004,0.012
	l-0.052,0.184l-0.027,0.092c-0.324,1.134-0.651,2.254-0.974,3.362l0.008-0.014c-1.761,6.023-3.547,11.776-4.992,16.319
	c-2.404-1.148-12.605-5.265-29.468-1.86c4.893,0.628,16.955,2.511,22.935,6.095c-1.798,0.939-3.244,2.124-4.205,3.471l-3.894,1.433
	c0,0-9.503-7.098-20.17-8.073c-0.418,0.246-0.833,0.505-1.237,0.786c0,0-1.207,0.054-3.11,0.192
	c4.631,0.445,11.858,2.221,18.124,8.438c0,0-16.852-6.258-31.333-1.11c0,0,19.526-2.301,27.962,2.681c0,0-7.53,0.574-17.995,8.851
	c0,0,15.507-7.264,30.369-9.912c-0.018,0.191-0.03,0.383-0.03,0.576c0,5.305,6.972,9.605,15.573,9.605
	c5.861,0,10.964-1.998,13.621-4.949c4.806,4.118,9.505,11.276,11.343,23.723c0,0,1.756-13.857-9.583-26.873
	c0.125-0.49,0.192-0.993,0.192-1.505c0-0.546-0.078-1.081-0.22-1.602c5.231-1.724,19.577-4.855,36.236,5.093
	c0,0-9.917-7.476-17.305-9.033C90.163,83.988,98.799,78.093,117.386,77.787z"/>
</svg>
