<?xml version="1.0" encoding="utf-8"?>
<!-- Generator: Adobe Illustrator 17.0.0, SVG Export Plug-In . SVG Version: 6.00 Build 0)  -->
<!DOCTYPE svg PUBLIC "-//W3C//DTD SVG 1.1 Basic//EN" "http://www.w3.org/Graphics/SVG/1.1/DTD/svg11-basic.dtd">
<svg version="1.1" baseProfile="basic" id="Слой_1"
	 xmlns="http://www.w3.org/2000/svg" xmlns:xlink="http://www.w3.org/1999/xlink" x="0px" y="0px" width="73.829px"
	 height="163.704px" viewBox="0 0 73.829 163.704" xml:space="preserve">
<path fill="#BAAE52" d="M73.829,106.501c-0.016-0.002-0.032-0.006-0.047-0.008c-0.019-0.087-0.094-0.208-0.249-0.375
	c-5.683-6.121-7.746-22.772-8.12-25.463c-0.192-1.375-2.226-2.896-4.461-4.066c-0.348-0.206-0.738-0.418-1.17-0.623
	c0.715-16.791-0.107-33.599-4.608-45.949C50.843,18.131,57.744,13.064,62.998,0c0,0-11.369,3.578-17.882,17.831
	c-0.068-0.162-0.149-0.303-0.23-0.437c-0.135-0.226-0.313-0.373-0.459-0.44c-0.049-0.023-0.096,0-0.142,0.024
	c-0.002-0.004-0.004-0.008-0.006-0.012c0.014-0.014,0.026-0.031,0.035-0.055c0.047-0.135,0.065-0.355,0.019-0.572
	c-0.033-0.16-0.081-0.36-0.164-0.535c-0.089-0.185-0.206-0.309-0.316-0.438c-0.143-0.17-0.312-0.268-0.445-0.303
	c-0.059-0.016-0.106,0.033-0.153,0.067c-0.009-0.116-0.048-0.266-0.133-0.406c-0.07-0.116-0.162-0.258-0.276-0.371
	c-0.12-0.119-0.244-0.182-0.366-0.252c-0.118-0.068-0.231-0.092-0.331-0.1c0.001-0.006,0.005-0.009,0.005-0.015
	c0-0.119-0.046-0.296-0.141-0.453c-0.07-0.116-0.163-0.259-0.276-0.371c-0.119-0.119-0.244-0.182-0.365-0.252
	c-0.159-0.091-0.317-0.119-0.431-0.108c-0.06,0.006-0.081,0.078-0.117,0.117c-0.04,0.042-0.088,0.05-0.088,0.12
	c0,0.005,0.001,0.011,0.001,0.016c-0.048-0.051-0.097-0.1-0.144-0.142c-0.083-0.074-0.168-0.083-0.28-0.129
	c-0.102-0.041-0.219-0.118-0.32-0.125c-0.19-0.013-0.406,0.015-0.547,0.109c-0.029,0.02-0.059,0.039-0.089,0.059
	c-0.006-0.005-0.012-0.009-0.018-0.013c0.076-0.056,0.147-0.119,0.177-0.193c0.063-0.152,0.029-0.328-0.011-0.487
	c-0.044-0.176-0.224-0.37-0.369-0.507c-0.094-0.09-0.193-0.103-0.321-0.159c-0.117-0.051-0.251-0.144-0.368-0.155
	c-0.22-0.022-0.473,0.003-0.639,0.107c-0.001,0.001-0.003,0.002-0.005,0.003c-0.049-0.156-0.145-0.3-0.243-0.43
	c-0.151-0.202-0.489-0.353-0.752-0.448c-0.17-0.062-0.305-0.023-0.503-0.023c-0.179,0-0.403-0.045-0.561,0.007
	c-0.298,0.097-0.611,0.272-0.77,0.502c-0.086,0.123-0.181,0.247-0.233,0.384c-0.151-0.071-0.35-0.107-0.512-0.125
	c-0.137-0.016-0.232,0.037-0.378,0.072c-0.133,0.032-0.308,0.038-0.416,0.105c-0.205,0.125-0.41,0.31-0.49,0.509
	c-0.062,0.153-0.143,0.309-0.107,0.471c0.035,0.153,0.163,0.29,0.272,0.396c0.037,0.036,0.081,0.068,0.13,0.097
	c-0.003,0.004-0.006,0.007-0.009,0.01c-0.039,0.014-0.078,0.028-0.118,0.042c-0.09-0.106-0.216-0.188-0.321-0.244
	c-0.089-0.048-0.159-0.019-0.262-0.019c-0.094,0-0.211-0.035-0.293,0.005c-0.155,0.076-0.319,0.213-0.402,0.393
	c-0.063,0.138-0.142,0.274-0.142,0.445c0,0.037,0.012,0.073,0.018,0.109c-0.014,0.009-0.028,0.018-0.042,0.026
	c-0.07-0.021-0.134-0.003-0.22-0.003c-0.093,0-0.211-0.035-0.293,0.005c-0.155,0.076-0.319,0.213-0.402,0.393
	c-0.019,0.041-0.039,0.082-0.058,0.123c-0.017-0.005-0.036-0.01-0.055-0.019c-0.046-0.022-0.088-0.082-0.146-0.065
	c-0.107,0.033-0.244,0.117-0.359,0.26c-0.088,0.11-0.183,0.215-0.254,0.369c-0.067,0.146-0.104,0.313-0.131,0.446
	c-0.006,0.033-0.009,0.065-0.013,0.098c-0.07,0.075-0.14,0.153-0.209,0.231c-0.042-0.028-0.086-0.062-0.137-0.044
	c-0.127,0.046-0.286,0.157-0.416,0.337c-0.1,0.137-0.207,0.269-0.283,0.46c-0.058,0.145-0.088,0.302-0.112,0.443
	c-0.16,0.226-0.318,0.462-0.475,0.71c-0.08,0.062-0.161,0.139-0.234,0.235c-0.122,0.159-0.253,0.312-0.349,0.535
	c-0.09,0.208-0.139,0.442-0.173,0.631c-0.097,0.26-0.198,0.583-0.3,0.964c-0.16,0.09-0.335,0.238-0.483,0.448
	c-0.147,0.208-0.306,0.409-0.416,0.697c-0.104,0.272-0.152,0.578-0.185,0.822c-0.045,0.331,0.005,0.657,0.089,0.851
	c0.05,0.116,0.142,0.124,0.237,0.162c0.021,0.008,0.041,0.017,0.062,0.026c-0.027-0.004-0.054-0.008-0.083-0.018
	c-0.093-0.031-0.19-0.134-0.296-0.087c-0.199,0.089-0.441,0.287-0.629,0.592c-0.143,0.233-0.299,0.459-0.398,0.775
	c-0.093,0.298-0.124,0.628-0.143,0.891c-0.026,0.358,0.05,0.702,0.151,0.903c0.061,0.121,0.16,0.122,0.265,0.156
	c0.042,0.014,0.084,0.029,0.126,0.04c-0.016-0.001-0.031-0.001-0.048-0.004c-0.115-0.022-0.245-0.129-0.362-0.058
	c-0.223,0.135-0.48,0.405-0.658,0.792c-0.136,0.296-0.289,0.586-0.36,0.974c-0.067,0.365-0.057,0.759-0.042,1.072
	c0.016,0.334,0.105,0.646,0.214,0.873c-0.211,0.173-0.429,0.429-0.597,0.765c-0.174,0.347-0.366,0.686-0.466,1.144
	c-0.095,0.432-0.098,0.901-0.093,1.274c0.005,0.332,0.073,0.643,0.164,0.899c-0.042,0.106-0.078,0.216-0.106,0.33
	c-0.034,0.006-0.069,0.011-0.107,0.011c-0.147,0-0.331-0.101-0.46,0.015c-0.244,0.22-0.5,0.616-0.631,1.136
	c-0.1,0.398-0.223,0.793-0.223,1.289c0,0.467,0.103,0.951,0.193,1.334c0.122,0.52,0.383,0.975,0.617,1.214
	c0.136,0.137,0.272,0.102,0.427,0.099c-0.009,0.032-0.021,0.062-0.028,0.094c-0.037,0.006-0.076,0.012-0.119,0.012
	c-0.155,0-0.348-0.107-0.484,0.016c-0.12,0.108-0.242,0.261-0.353,0.444c-3.312-9.479-9.892-12.128-13.09-11.532
	c-4.119,0.77-6.488,3.41-8.735,8.407c5.614-3.018,8.037-2.575,10.17,0.365c1.381,2.441,4.34,7.974,6.861,14.738
	c0.143,0.564,0.279,1.15,0.41,1.753c-0.696-0.721-1.594-1.132-2.983-1.702c-2.994-1.229-7.305,1.06-8.916,2.029
	c-0.226,0.094-0.438,0.208-0.628,0.352c-0.593,0.448-1.045,0.976-1.368,1.583c-0.183,0.28-0.328,0.567-0.383,0.833
	c0,0,0.025-0.031,0.07-0.084c-0.836,2.538,0.194,6.225,2.808,11.124c0,0-0.321-8.566,4.372-11.445
	c0.891,0.791,1.769,1.84,2.398,3.204c0.303,0.797,0.564,1.671,0.788,2.612c0.661,3.707,0.959,10.566,1.091,15.391
	c-0.343,14.354-3.043,32.117-3.863,43.507c-1.558,21.621,7.172,28.75,12.702,31.938c-1.09,1.416-0.326,4.037,0.783,4.363
	c4.126,1.214,1.875,4.663,4.404,5.496c7.121,2.346,14.348-0.281,14.348-0.281s0.652-3.609,3.468-5.215
	c1.71-0.974,1.488-2.477,1.049-3.508c3.344-1.882,3.795-4.41,6.004-6.667c4.102-4.189,5.43-10.975,5.45-18.653
	c0.096-3.676-0.182-6.771-0.436-8.743c-0.173-1.873-0.387-3.759-0.624-5.639c0.175,0.935,0.278,1.478,0.278,1.478
	c-0.112-0.611-0.221-1.24-0.329-1.876c-0.273-2.132-0.574-4.254-0.877-6.335c0.554-4.561,1.093-9.391,1.556-14.368
	c0.575,0.857,1.199,1.784,1.887,2.8c7.108,10.502,11.491,11.044,12.868,10.886c0.284,0.064,0.438,0.037,0.427-0.091
	C73.813,106.508,73.829,106.501,73.829,106.501z M35.296,12.521c-0.104,0.007-0.207,0.016-0.312,0.027
	c0.028-0.042,0.052-0.085,0.069-0.13c0.007-0.02,0.017-0.044,0.026-0.066C35.142,12.414,35.217,12.47,35.296,12.521z M24.123,36.884
	c0.104,0.078,0.209,0.149,0.311,0.205c0.003,0.002,0.007,0.002,0.01,0.004c-0.002,0.017-0.004,0.034-0.006,0.051
	c-0.013,0.005-0.028,0.005-0.041,0.011c-0.115,0.056-0.231,0.124-0.345,0.201C24.085,37.2,24.108,37.041,24.123,36.884z
	 M41.049,13.759c-0.038,0.004-0.075,0.008-0.109,0.008c0.002-0.004,0.005-0.007,0.007-0.011c0.012-0.031,0.018-0.063,0.022-0.095
	C40.992,13.695,41.021,13.727,41.049,13.759z M41.85,14.217c-0.001,0.005-0.005,0.006-0.005,0.012
	c-0.001,0.049,0.004,0.109,0.015,0.171c-0.045-0.028-0.09-0.055-0.137-0.083c-0.022-0.049-0.045-0.097-0.068-0.145
	C41.724,14.197,41.789,14.212,41.85,14.217z M37.506,12.274c0.036,0.095,0.092,0.191,0.159,0.281
	c-0.078-0.06-0.172-0.112-0.268-0.159C37.438,12.359,37.473,12.317,37.506,12.274z M25.578,26.053
	c0.046-0.027,0.094-0.058,0.141-0.093c-0.034,0.078-0.063,0.158-0.089,0.241c-0.005-0.008-0.011-0.018-0.016-0.026
	c-0.04-0.059-0.083-0.079-0.129-0.088C25.515,26.082,25.546,26.071,25.578,26.053z"/>
</svg>
