<?xml version="1.0" encoding="utf-8"?>
<!-- Generator: Adobe Illustrator 17.0.0, SVG Export Plug-In . SVG Version: 6.00 Build 0)  -->
<!DOCTYPE svg PUBLIC "-//W3C//DTD SVG 1.1 Basic//EN" "http://www.w3.org/Graphics/SVG/1.1/DTD/svg11-basic.dtd">
<svg version="1.1" baseProfile="basic" id="Слой_1"
	 xmlns="http://www.w3.org/2000/svg" xmlns:xlink="http://www.w3.org/1999/xlink" x="0px" y="0px" width="355px" height="355px"
	 viewBox="0 0 355 355" xml:space="preserve">
<path fill="#A8A8A8" stroke="#272525" stroke-width="3" stroke-miterlimit="10" d="M125.218,190.544
	c-18.708,8.975-67.897,6.821-75.008,5.994c-7.117-0.869-9.133-5.204-9.133-5.204c-9.231-12.919-11.058,1.939-11.058,1.939
	l4.051,8.811c-74.083,14.899,3.387,12.081,3.387,12.081c-34.354,28.214,7.646,7.53,7.646,7.53
	c-0.248-8.83,33.441-11.911,33.441-11.911c52.649-7.033,47.397,42.719,47.397,42.719c-25.534,64.04-78.346,44.8-78.346,44.8
	c-35.175,1.728-1.81,14.892-1.81,14.892c-44.643,23.678,7.309,12.673,7.309,12.673c-19.682,25,11.106,5.666,11.106,5.666
	c7.116-10.142,22.138-18.478,22.138-18.478c50.92-24.802,86.565-48.714,111.543-70.019c-15.28-21.987-30.631-44.06-46.149-66.037
	C142.229,182.129,132.309,187.135,125.218,190.544z"/>
<path fill="#A8A8A8" stroke="#272525" stroke-width="3" stroke-miterlimit="10" d="M341.12,98.077
	c20.47-24.345-12.103-7.57-12.103-7.57c9.903-30.241-10.848-11.414-10.848-11.414c0.337,16.422-6.609,20.177-6.609,20.177
	c-30.276,37.019-61.732,38.104-61.732,38.104s-0.59-5.811-1.791-14.493c19.411-12.446,26.881-37.456,26.881-37.456
	c7.193-24.062,19.79-24.38,19.79-24.38c50.535-19.019,1.832-14.905,1.832-14.905c26.506-43.938-11.786-9.333-11.786-9.333
	c-12.983-41.432-14.847-5.002-14.847-5.002c8.834,41.381-14.62,68.211-23.974,77.059c-1.643-9.636-3.786-20.515-6.461-30.509
	c-7.235-26.618-30.185-13.095-50.241-4.517c-20.041,8.59-28.011,24.559-20.182,29.549c7.87,4.958,10.604,13.325,12.007,35.891
	c0.895,13.998-13.522,27.026-29.056,37.046c15.518,21.978,30.869,44.05,46.149,66.037c57.79-49.294,58.396-84.621,58.396-84.621
	c47.044-17.149,49.649-27.714,57.578-36.71c7.895-8.993,23.022-5.956,23.022-5.956C370.268,112.412,341.12,98.077,341.12,98.077z"/>
</svg>
