<?xml version="1.0" encoding="utf-8"?>
<!-- Generator: Adobe Illustrator 17.0.0, SVG Export Plug-In . SVG Version: 6.00 Build 0)  -->
<!DOCTYPE svg PUBLIC "-//W3C//DTD SVG 1.1 Basic//EN" "http://www.w3.org/Graphics/SVG/1.1/DTD/svg11-basic.dtd">
<svg version="1.1" baseProfile="basic" id="Слой_1"
	 xmlns="http://www.w3.org/2000/svg" xmlns:xlink="http://www.w3.org/1999/xlink" x="0px" y="0px" width="195.881px"
	 height="161.666px" viewBox="0 0 195.881 161.666" xml:space="preserve">
<path fill="#3FA556" d="M123.218,14.544c-18.708,8.975-67.897,6.821-75.008,5.994c-7.117-0.869-9.133-5.204-9.133-5.204
	c-9.231-12.919-11.058,1.939-11.058,1.939l4.051,8.811c-74.083,14.899,3.387,12.081,3.387,12.081
	c-34.354,28.214,7.646,7.53,7.646,7.53c-0.248-8.83,33.441-11.911,33.441-11.911c52.649-7.033,47.397,42.719,47.397,42.719
	c-25.534,64.04-78.346,44.8-78.346,44.8c-35.175,1.728-1.81,14.892-1.81,14.892c-44.643,23.678,7.309,12.673,7.309,12.673
	c-19.682,25,11.106,5.666,11.106,5.666c7.116-10.142,22.138-18.478,22.138-18.478c50.92-24.802,86.565-48.714,111.543-70.019
	C180.601,44.05,165.25,21.977,149.732,0C140.229,6.129,130.309,11.135,123.218,14.544z"/>
</svg>
