<?xml version="1.0" encoding="utf-8"?>
<!-- Generator: Adobe Illustrator 17.0.0, SVG Export Plug-In . SVG Version: 6.00 Build 0)  -->
<!DOCTYPE svg PUBLIC "-//W3C//DTD SVG 1.1 Basic//EN" "http://www.w3.org/Graphics/SVG/1.1/DTD/svg11-basic.dtd">
<svg version="1.1" baseProfile="basic" id="Слой_1"
	 xmlns="http://www.w3.org/2000/svg" xmlns:xlink="http://www.w3.org/1999/xlink" x="0px" y="0px" width="170.935px"
	 height="84.912px" viewBox="0 0 170.935 84.912" xml:space="preserve">
<path fill="#B76153" d="M121.196,46.897c-4.975-0.751-9.751-1.352-14.379-1.844c1.296-12.806,3.177-40.696-4.582-43.966
	C82.369-7.288,52.076,35.106,43.991,47.128C23.855,51.628,9.912,59.89,0,69.339c0.915,0.472,1.819,0.971,2.709,1.496
	c11.432,6.859,21.95,16.006,35.669,13.719c10.975-1.829,20.121-6.402,30.639-9.146c9.146-1.829,17.835,1.372,26.523,4.573
	c10.061,3.201,21.036-2.744,31.096-5.488c13.864-4.621,32.424,0.426,44.299-7.407C157.285,57.111,140.913,49.873,121.196,46.897z"/>
</svg>
