<?xml version="1.0" encoding="utf-8"?>
<!-- Generator: Adobe Illustrator 17.0.0, SVG Export Plug-In . SVG Version: 6.00 Build 0)  -->
<!DOCTYPE svg PUBLIC "-//W3C//DTD SVG 1.1 Basic//EN" "http://www.w3.org/Graphics/SVG/1.1/DTD/svg11-basic.dtd">
<svg version="1.1" baseProfile="basic" id="Слой_1"
	 xmlns="http://www.w3.org/2000/svg" xmlns:xlink="http://www.w3.org/1999/xlink" x="0px" y="0px" width="193.985px"
	 height="46.318px" viewBox="0 0 193.985 46.318" xml:space="preserve">
<path fill="#87BB50" d="M173.359,10.726l20.626-4.736V5.014c-7.664-5.153-18.255-3.9-27.735-5.014
	c-34.565,0-61.741,18.112-96.306,18.112c-19.266,1.585-45.644-2.86-64.016,0.83c-1.147,0.23-1.312,0.683-1.343,1.191
	c0-0.005,0-0.01,0-0.015c-10.788-0.83,1.107,16.925-0.884,22.917C3.702,43.036,3.701,43.038,3.7,43.04
	c-0.015,0.045-0.023,0.096-0.04,0.139c0.004-0.002,0.009-0.004,0.013-0.005c-0.119,0.455-0.118,0.999,0.073,1.69
	c2.788,0.417,3.761-3.344,6.271-3.344c2.368,1.254,4.042,4.181,7.108,3.9c3.205,0,4.042-2.924,5.018-5.292
	c1.18,0.187,2.35,0.511,3.514,0.911c1.517,0.72,3.066,1.386,4.704,1.923c5.875,2.621,11.737,5.397,18.12,1.205
	c0.837-2.229-1.254-4.181-2.924-5.434c0.018,0.089,0.021,0.171,0.031,0.256c-1.603-1.555-3.153-3-1.427-3.6l9.758,4.459
	c10.962,5.422,27.323,7.904,40.376,5.257c9.116-0.187,18.183-0.814,26.521-3.027c-5.573-4.875-12.543-6.549-19.373-8.358
	c0.005,0.006,0.011,0.011,0.016,0.016c-10.447-3.095-24.892-1.623-33.463-3.638c-0.281-0.559,0.278-0.976,0.556-1.396
	c25.918,1.677,60.092,4.843,85.59-1.204c-1.645,0.207-3.283,0.413-4.893,0.648c10.452-1.535,22.019-1.813,29.686-8.778
	c-8.223-4.875-19.234-3.205-28.992-4.042l0.578,0.189h-0.004c-27.037,2.65-56.182,12.909-84.892,11.517
	c-0.556-0.556-1.392-0.976-0.976-1.952c25.505,2.229,47.667-5.712,70.8-10.032c9.946-1.759,25.748-2.055,38.069-4.548
	c0.016-0.017,0.038-0.034,0.055-0.051C173.479,10.54,173.399,10.633,173.359,10.726z M157.191,17.692
	c1.151,0.419,2.693,0.995,3.392,2.08c-0.699-1.085-2.241-1.66-3.392-2.076l-5.249-1.719L157.191,17.692z M176.479,8.493
	c0.047-0.044,0.093-0.088,0.137-0.133C176.572,8.405,176.526,8.449,176.479,8.493z M177.247,7.194
	c0.006-0.04,0.018-0.077,0.021-0.118C177.265,7.117,177.253,7.154,177.247,7.194z M176.749,8.211
	c0.038-0.045,0.077-0.09,0.112-0.136C176.825,8.121,176.787,8.166,176.749,8.211z M176.974,7.906
	c0.029-0.046,0.059-0.091,0.084-0.139C177.033,7.815,177.002,7.86,176.974,7.906z M177.144,7.57
	c0.018-0.045,0.039-0.089,0.053-0.136C177.182,7.481,177.162,7.525,177.144,7.57z M4.173,21.544
	c0.049-0.045,0.095-0.091,0.132-0.138C4.268,21.453,4.221,21.499,4.173,21.544z M4.571,20.594c0.004-0.076,0.005-0.153,0.007-0.228
	C4.577,20.441,4.575,20.517,4.571,20.594z M4.368,21.316c0.03-0.047,0.056-0.093,0.078-0.141
	C4.425,21.222,4.398,21.269,4.368,21.316z M4.486,21.079c0.017-0.048,0.03-0.097,0.041-0.146
	C4.516,20.982,4.503,21.031,4.486,21.079z M4.547,20.838c0.008-0.052,0.013-0.104,0.017-0.156
	C4.56,20.734,4.555,20.786,4.547,20.838z M3.765,21.828c-0.126,0.065-0.267,0.127-0.436,0.184
	C3.497,21.954,3.639,21.892,3.765,21.828z M4.084,21.625c-0.062,0.049-0.138,0.095-0.216,0.141
	C3.946,21.72,4.022,21.673,4.084,21.625z M9.6,39.416c0.557,0.553,1.149,1.048,1.767,1.489C10.721,40.499,10.126,40.005,9.6,39.416z
	 M20.469,39.152c-0.062,0.25-0.157,0.473-0.265,0.683c-0.13-0.402-0.123-0.852,0.265-1.381V39.152z M173.77,10.281
	c-0.026,0.02-0.054,0.039-0.078,0.059C173.716,10.32,173.745,10.3,173.77,10.281z M176.333,8.624
	c-0.052,0.044-0.104,0.088-0.159,0.13C176.228,8.712,176.281,8.668,176.333,8.624z M176.022,8.869
	c-0.059,0.043-0.117,0.086-0.178,0.128C175.904,8.955,175.963,8.912,176.022,8.869z M175.695,9.097
	c-0.066,0.043-0.131,0.087-0.198,0.128C175.563,9.183,175.629,9.14,175.695,9.097z M175.366,9.305
	c-0.075,0.046-0.15,0.091-0.225,0.135C175.216,9.396,175.291,9.35,175.366,9.305z M175.081,9.476
	c-0.163,0.095-0.322,0.187-0.476,0.276C174.759,9.663,174.918,9.571,175.081,9.476z M174.497,9.813
	c-0.035,0.02-0.067,0.04-0.101,0.06C174.43,9.853,174.462,9.834,174.497,9.813z M173.987,10.127c-0.02,0.013-0.041,0.026-0.06,0.039
	C173.945,10.153,173.967,10.14,173.987,10.127z"/>
</svg>
