<?xml version="1.0" encoding="utf-8"?>
<!-- Generator: Adobe Illustrator 17.0.0, SVG Export Plug-In . SVG Version: 6.00 Build 0)  -->
<!DOCTYPE svg PUBLIC "-//W3C//DTD SVG 1.1 Basic//EN" "http://www.w3.org/Graphics/SVG/1.1/DTD/svg11-basic.dtd">
<svg version="1.1" baseProfile="basic" id="Слой_1"
	 xmlns="http://www.w3.org/2000/svg" xmlns:xlink="http://www.w3.org/1999/xlink" x="0px" y="0px" width="295px" height="290px"
	 viewBox="0 0 295 290" xml:space="preserve">
<path stroke="#FFFFFF" stroke-width="6" stroke-miterlimit="10" d="M258.097,206.215c3.571-0.138,6.212-6.759,5.908-14.789
	c-0.308-7.858-3.323-14.133-6.795-14.278c22.074-19.14,31.603-54.758,21.565-90.571c-5.955-21.248-17.755-38.861-32.383-50.697
	c-6.947-8.954-17.301-15.543-29.346-18.196c-1.382-0.52-3.456-1.127-6.393-1.836c-23.439-5.662-38.809-8.894-38.809-8.894
	c2.208,7.347,8.752,10.848,15.237,12.489c-5.412,1.895-10.373,4.615-14.704,7.993c-63.121,7.089-132.012,53.019-154.363,93.189
	c-0.205,0.366-0.41,0.732-0.607,1.097c-0.061,0.113-0.12,0.226-0.18,0.339c-8.863,16.587-9.873,32.327,1.631,43.971
	c0,0,73.664-46.239,121.61-58.524c0.637,5.584,1.728,11.236,3.313,16.893c6.334,22.597,19.279,41.085,35.207,52.883
	c-0.089-0.011-0.176-0.035-0.266-0.038c-3.57-0.098-6.644,6.334-6.871,14.368c-0.214,8.032,2.489,14.627,6.06,14.729
	c0.239,0.006,0.475-0.021,0.708-0.071c-9.67,25.077-19.452,54.663-15.613,63.296c7.028,15.806,79.031,21.074,105.37,5.267
	c16.964-10.173,1.901-45.091-10.985-68.681C257.624,206.2,257.859,206.224,258.097,206.215z M251.961,183.425
	c-0.219-0.607-0.456-1.183-0.711-1.712c0.627-0.42,1.242-0.858,1.854-1.302C252.658,181.279,252.274,182.294,251.961,183.425z
	 M185.407,181.576c-0.477,0.977-0.895,2.1-1.236,3.34c-0.493-2.278-1.26-4.184-2.21-5.531
	C183.097,180.15,184.246,180.879,185.407,181.576z"/>
<path fill="#EB7272" d="M1602.97,686.224c0.358-0.247,0.715-0.495,1.073-0.742c0.084,0.127,0.169,0.254,0.253,0.381
	c-0.434,0.129-0.868,0.259-1.302,0.388C1602.994,686.25,1602.97,686.224,1602.97,686.224z"/>
<path fill="#EB7272" d="M1570.006,1049.175c0.243,0.36,0.489,0.718,0.714,1.089c0.004,0.007-0.235,0.163-0.361,0.249
	c-0.133-0.432-0.267-0.865-0.401-1.297C1569.957,1049.216,1570.006,1049.175,1570.006,1049.175z"/>
<g>
	<path d="M243.699,183.511c0,0,50.931,75.52,24.58,91.323c-26.339,15.807-98.342,10.539-105.37-5.267
		c-7.028-15.807,31.607-101.862,31.607-101.862l47.721,10.48"/>
	<g>
		<path d="M234.676,189.325c-37.284,10.443-78.014-18.624-90.992-64.925s6.73-92.305,44.002-102.748
			c37.284-10.446,78.014,18.62,90.991,64.925C291.655,132.878,271.947,178.879,234.676,189.325z"/>
		
			<radialGradient id="SVGID_1_" cx="1109.0818" cy="-17.7634" r="55.4839" gradientTransform="matrix(-1 0 0 -1 1343.7344 74.84)" gradientUnits="userSpaceOnUse">
			<stop  offset="0" style="stop-color:#FFFFFF"/>
			<stop  offset="1" style="stop-color:#CFD0D2"/>
		</radialGradient>
		<ellipse fill="url(#SVGID_1_)" cx="215.81" cy="120.139" rx="41.634" ry="61.445"/>
		<ellipse cx="205.064" cy="62.469" rx="50.497" ry="46.081"/>
		<path fill="#DA7F30" stroke="#272525" stroke-miterlimit="10" d="M185.827,47.851c0.744,0.918-2.69,8.624,12.011,26.461
			c-0.136,1.686-18.481,18.815-8.243,31.213c0.657-0.691,19.746-14.403,23.179-15.094c19.944-4.31,19.919-8.537,27.727-15.531
			C236.225,59.608,207.382,40.303,185.827,47.851z"/>
		<g>
			<path d="M65.98,71.498l25.521,52.257c-25.93,10.613-50.981,24.533-72.337,42.164C-4.077,142.394,22.089,102.61,65.98,71.498z"/>
			<path fill="#DA7F30" d="M185.827,77.857c-10.003,3.046-15.89,11.608-18.94,23.953c-58.69,10.179-111.431,35.362-147.723,64.11
				C38.934,133.894,67.256,104.279,185.827,77.857z"/>
			<path fill="#D56933" d="M185.827,77.857c-0.013-0.831-0.013-1.661-0.025-2.495c-11.069-19.262-3.322-36.764-6.073-46.55
				C99.025,41.673,35.066,93.995,12.012,134.573c16.138-33.962,45.391-22.714,35.301-1.98C84.375,104,125.5,94.5,185.827,77.857z"/>
			
				<radialGradient id="SVGID_2_" cx="1112.7311" cy="-263.6432" r="94.4092" gradientTransform="matrix(-0.9622 -0.2722 0.2722 -0.9622 1238.5411 130.062)" gradientUnits="userSpaceOnUse">
				<stop  offset="0" style="stop-color:#CB1D50"/>
				<stop  offset="1" style="stop-color:#CB252C"/>
			</radialGradient>
			<path fill="url(#SVGID_2_)" d="M179.729,28.813c-0.211-0.663-0.422-1.326-0.633-1.992
				c-72.312,4.877-154.85,63.673-167.084,107.753C44.784,81.696,109.188,41.475,179.729,28.813z"/>
		</g>
		<path fill="#DE9CC0" d="M227.697,74.262c0,5.453,4.413,9.875,9.879,9.875c5.441,0,9.879-4.422,9.879-9.875
			c0-5.457-4.437-9.879-9.879-9.879C232.11,64.383,227.697,68.805,227.697,74.262z"/>
		<g>
			<path fill="#272525" d="M202.04,74.637c0,5.318,4.314,9.625,9.618,9.625c5.33,0,9.631-4.307,9.631-9.625
				c0-5.311-4.301-9.622-9.631-9.622C206.353,65.015,202.04,69.326,202.04,74.637z"/>
			<path fill="#FFFFFF" d="M211.162,72.105c0,2.519,2.033,4.558,4.549,4.558c2.528,0,4.561-2.039,4.561-4.558
				c0-2.516-2.033-4.558-4.561-4.558C213.195,67.547,211.162,69.589,211.162,72.105z"/>
		</g>
		<g>
			<path fill="#DA7F30" stroke="#272525" stroke-miterlimit="10" d="M193.575,192.218c-0.225,8.037,2.489,14.628,6.06,14.729
				c3.582,0.094,6.656-6.338,6.87-14.371c0.226-8.033-2.489-14.628-6.059-14.726C196.877,177.752,193.802,184.184,193.575,192.218z"
				/>
			<path fill="#DA7F30" stroke="#272525" stroke-miterlimit="10" d="M183.078,191.923c-0.226,8.037,2.489,14.628,6.06,14.729
				c3.57,0.098,6.644-6.334,6.87-14.371c0.215-8.03-2.501-14.623-6.071-14.721C186.367,177.461,183.293,183.893,183.078,191.923z"/>
			<path fill="#DA7F30" stroke="#272525" stroke-miterlimit="10" d="M171.754,191.613c-0.214,8.032,2.489,14.627,6.06,14.729
				c3.582,0.094,6.656-6.338,6.87-14.371c0.226-8.034-2.489-14.628-6.059-14.726C175.055,177.147,171.981,183.579,171.754,191.613z"
				/>
		</g>
		<g>
			<path fill="#DA7F30" stroke="#272525" stroke-miterlimit="10" d="M250.985,191.924c0.303,8.029,3.444,14.43,7.015,14.291
				c3.571-0.138,6.212-6.759,5.908-14.789c-0.315-8.033-3.457-14.43-7.027-14.295C253.31,177.27,250.67,183.891,250.985,191.924z"/>
			<path fill="#DA7F30" stroke="#272525" stroke-miterlimit="10" d="M240.481,192.329c0.303,8.029,3.445,14.427,7.015,14.291
				c3.571-0.138,6.211-6.759,5.908-14.789c-0.315-8.033-3.456-14.433-7.027-14.295C242.806,177.675,240.166,184.296,240.481,192.329
				z"/>
			<path fill="#DA7F30" stroke="#272525" stroke-miterlimit="10" d="M229.166,192.765c0.315,8.033,3.457,14.43,7.028,14.293
				c3.57-0.135,6.211-6.759,5.896-14.793c-0.303-8.029-3.457-14.43-7.016-14.288C231.504,178.111,228.851,184.732,229.166,192.765z"
				/>
		</g>
		<path d="M202.473,20.697c0,0-25.868,2.427-30.727-13.743c0,0,15.37,3.232,38.809,8.894
			C234.006,21.506,202.473,20.697,202.473,20.697z"/>
	</g>
</g>
</svg>
