<?xml version="1.0" encoding="utf-8"?>
<!-- Generator: Adobe Illustrator 17.0.0, SVG Export Plug-In . SVG Version: 6.00 Build 0)  -->
<!DOCTYPE svg PUBLIC "-//W3C//DTD SVG 1.1 Basic//EN" "http://www.w3.org/Graphics/SVG/1.1/DTD/svg11-basic.dtd">
<svg version="1.1" baseProfile="basic" id="Слой_1"
	 xmlns="http://www.w3.org/2000/svg" xmlns:xlink="http://www.w3.org/1999/xlink" x="0px" y="0px" width="399px" height="166.5px"
	 viewBox="0 0 399 166.5" xml:space="preserve">
<path fill="#305061" stroke="#FFFFFF" stroke-width="6" stroke-miterlimit="10" d="M265.799,26.41
	c-7.222-15.452-23.401-19.786-39.871-18.052c-5.292,0.677-9.875,1.916-14.405,4.416c0.002,0.003,0.004,0.005,0.006,0.007
	c-1.218,0.481-2.41,1.017-3.549,1.641l0.096-0.053c-7.496,3.739-15.007,7.575-21.203,14.152h-1.392
	c-0.42-0.694,0.112-1.526,0.026-1.456c0.08-1.361-6.604-5.524-7.607-5.524c-0.959,0-2.825-0.591-2.363,1.089
	c-0.256,0.077-0.511,0.191-0.757,0.322l-1.008-0.42l-1.67-0.278c-4.042-1.115-7.108,2.646-8.643,5.712
	c-1.392,9.056,2.927,15.883,6.969,22.71l2.235,3.009c0.294,1.045,0.677,2.051,1.109,2.985c1.867,1.375,3.874,2.57,5.993,3.5
	l-0.384,3.255c-0.082,0.673-0.363,1.193-0.581,1.813l-4.081,0.16l-0.392,0.125c-13.618,4.377-25.947,12.073-37.781,19.953
	c-12.425,8.276-25.16,17.535-38.974,23.326l-7.904,1.576c-13.201-5.625-25.223-14.117-41.529-11.213
	c1.254,4.736,4.32,8.64,8.084,12.4c1.987,1.109,4.035,2.105,6.129,3.009c-6.851-1.635-8.062-0.721-4.811,2.212
	c-0.282,0.056-0.551,0.127-0.814,0.203c-10.61-4.051-20.989-10.15-32.697-9.743c1.115,4.181,2.785,8.08,6.41,11.285
	c0.826,0.515,1.667,0.998,2.516,1.459c-8.539-3.051-7.703-1.107-5.737,1.129c-6.188-1.716-12.506-3.116-19.217-3.563
	c16.862,24.943,52.959,22.991,79.301,16.72c20.21-7.105,39.722-15.744,58.258-27.03c1.365-0.805,2.683-1.673,3.976-2.575
	l-6.415,19.797v0.474c0,3.362-0.798,7.026-1.115,10.413c-0.303,3.226-0.313,6.524,0.584,9.665c0.214,0.744,0.477,1.474,0.794,2.183
	l1.464,3.276l2.959-2.026c8.319-5.691,5.224-17.261,11.154-21.292c-0.018,0.527-0.096,1.036-0.239,1.506l0.004,6.93l2.778-0.606
	l-1.4,0.306l2.536,7.6c1.143,5.043,2.283,10.082,3.426,15.124c2.699,5.901,2.222,3.152,1.948,0.545l-2.496-9.494
	c0.625,1.3,1.25,2.6,1.875,3.9c-0.323,1.333-0.11,1.487,0.437,0.908c0.697,1.449,1.393,2.898,2.09,4.348
	c2.279,3.041,3.059,3.109,1.542-1.439l-0.474-0.914c0.166-0.189,0.369-0.499,0.608-0.927c0.233,0.344,0.466,0.689,0.699,1.033
	c3.291,3.604,2.689,1.659,1.36-1.314l-1.112-1.618c0.073-0.159,0.144-0.309,0.222-0.48c0.78-3.298,1.556-6.592,2.333-9.886
	l-0.399,9.808c-0.046,5.516,0.684,4.003,1.788-0.951c0.032-5.171,0.064-10.338,0.096-15.509l1.26-5.402l0.435-0.029l2.279-9.48
	l8.714-5.972l0.178-0.171c6.691-6.434,9.974-14.331,11.304-22.77c-0.222,0.023-0.728-1.875-0.702-1.942
	c1.814-6.096-9.88-23.638,0.843-22.813c0-0.001,0-0.001,0.001-0.002c0.015-0.219,0.058-0.427,0.195-0.611
	c0.115-0.368,0.204-0.674,0.235-0.84l0.57-3.031l-1.553-0.245c6.489-0.608,12.861-3.779,17.61-6.055
	c4.733-2.673,32.081-18.426,26.117-16.204c-0.45-2.363-34.369,15.396-35.134,14.367c-0.003-0.004-0.006-0.007-0.009-0.011
	c1.613-0.514,3.188-1.102,4.706-1.777c-0.093-0.086-0.174-0.178-0.246-0.267h-0.004l-0.078,0.032l-0.025,0.011l-0.061,0.021
	l-0.046,0.018l-0.036,0.014l-0.061,0.021c0.56-0.211,1.115-0.439,1.667-0.673c0.011,0.008,0.021,0.017,0.032,0.025
	c1.491-0.579,2.944-1.21,4.371-1.88c-0.151,0.071-0.302,0.143-0.454,0.214c0.388-0.142,0.776-0.278,1.172-0.399l-0.068-0.121
	c-0.131,0.062-0.264,0.124-0.395,0.186c10.22-4.844,19.03-11.742,29.351-16.902c5.78-2.311,12.714,1.731,17.628-2.023
	C266.668,29.444,265.945,27.998,265.799,26.41z M223.096,18.361c-0.051-1.049-0.599-1.89-1.319-2.56
	C222.496,16.471,223.044,17.312,223.096,18.361z M191.863,62.032c0.192-0.025,0.382-0.043,0.575-0.074
	C192.565,61.999,192.183,62.042,191.863,62.032z M206.327,15.409l0.021-0.011l0.121-0.082l0.103-0.064l0.039-0.025l0.146-0.093
	l0.107-0.068l0.036-0.021l0.128-0.075l0.018-0.011l0.142-0.089l0.068-0.039l0.078-0.046l0.296-0.167v-0.004l0.089-0.05l0.057-0.032
	l0.15-0.082l0.015-0.008c-0.618,0.34-1.222,0.704-1.808,1.094l0.051-0.036L206.327,15.409z M202.997,18.07l0.018-0.018l0.121-0.117
	l0.053-0.053l0.071-0.064l0.125-0.118l0.004-0.004l0.121-0.114l0.075-0.068l0.053-0.046l0.125-0.114l0.025-0.018l0.103-0.093
	l0.1-0.086l0.029-0.025l0.132-0.11l0.043-0.039l0.085-0.071l0.121-0.1l0.011-0.007l0.132-0.107l0.068-0.053l0.068-0.053l0.132-0.103
	l0.011-0.007l0.125-0.096l0.089-0.068l0.046-0.036l0.135-0.1l0.093-0.068l0.043-0.032l0.114-0.082l0.025-0.018l0.139-0.1
	l0.135-0.096l0.139-0.093l0.004-0.004l0.139-0.093l0.059-0.041c-1.177,0.786-2.283,1.678-3.292,2.697l0.081-0.081L202.997,18.07z
	 M200.17,21.602l0.053-0.089l0.043-0.064l0.096-0.153l0.014-0.021l0.157-0.235v-0.004l0.029-0.039l0.132-0.192v-0.004l0.142-0.199
	l0.018-0.029l0.011-0.014l0.107-0.142l0.05-0.068v-0.004l0.16-0.214l0.007-0.007l0.1-0.132l0.068-0.089l0.039-0.05l0.11-0.135
	l0.025-0.032l0.174-0.21l0.021-0.029l0.114-0.135l0.043-0.05l0.071-0.082l0.107-0.125l0.007-0.004l0.114-0.132l0.061-0.068
	l0.057-0.057l0.114-0.128l0.014-0.014l0.107-0.11l0.082-0.089l0.036-0.036l0.121-0.125l0.027-0.027
	c-1.015,1.027-1.932,2.182-2.727,3.489L200.17,21.602z M170.704,27.549c0.045-0.403,0.159-0.771,0.302-1.122
	c-0.423,1.806-0.236,4.045,0.222,5.755c0.442,0.941,0.95,1.959,1.539,2.962C171.224,32.984,170.365,30.527,170.704,27.549z
	 M113.876,121.913c0.064-0.058,0.122-0.117,0.183-0.176v0.138C113.999,121.89,113.937,121.899,113.876,121.913z M166.958,148.1
	c0.444,0.657,0.889,1.313,1.333,1.969c-0.045,0.129-0.083,0.242-0.124,0.364L166.958,148.1z M169.087,152.21
	c0.105-0.155,1.127,0.7,1.528,1.293C170.537,154.035,169.087,152.21,169.087,152.21z M171.099,150.951l-0.736-1.07
	c1.039-2.611,2.077-5.224,3.116-7.838L171.099,150.951z M173.977,136.034l-4.876,12.01l-3.92-5.703l-3.109-7.474l1.179-0.257
	l-1.421-4.986c2.244-1.816,6.001-1.62,8.248-3.447c0.591,0.616,1.221,1.111,2.172,1.389c0.712,0.21,1.417,0.214,2.09,0.061
	l0.182,3.226l0.319-0.022L173.977,136.034z M208.241,54.046c0.144-0.01,0.29-0.015,0.432-0.03l-0.003,0.003l-0.089,0.007
	l-0.021,0.004l-0.075,0.007l-0.043,0.004l-0.05,0.004l-0.068,0.004l-0.025,0.004l-0.049,0.004
	C208.247,54.053,208.244,54.05,208.241,54.046z M213.051,52.905l-0.085,0.032h-0.004l-0.078,0.032l-0.029,0.007l-0.057,0.021
	l-0.05,0.018l-0.036,0.014l-0.068,0.025l-0.018,0.007l-0.082,0.029l-0.007,0.004l-0.078,0.025l-0.028,0.011l-0.057,0.021
	l-0.05,0.014l-0.036,0.014l-0.071,0.025l-0.014,0.004l-0.085,0.028l-0.007,0.004l-0.078,0.025l-0.029,0.011l-0.057,0.018
	l-0.05,0.018l-0.036,0.011l-0.075,0.021l-0.011,0.004l-0.086,0.029l-0.011,0.004l-0.075,0.021l-0.032,0.011l-0.057,0.018
	l-0.053,0.014l-0.032,0.011l-0.075,0.021l-0.011,0.004l-0.086,0.025l-0.011,0.004l-0.078,0.021l-0.032,0.007l-0.053,0.018
	l-0.057,0.014l-0.032,0.007l-0.075,0.021L210.91,53.6l-0.089,0.021l-0.011,0.004l-0.075,0.018l-0.036,0.011l-0.053,0.014
	l-0.057,0.014l-0.032,0.007l-0.078,0.018l-0.007,0.004l-0.089,0.018l-0.014,0.004l-0.075,0.018l-0.036,0.007l-0.053,0.014
	l-0.057,0.011l-0.032,0.007l-0.078,0.018h-0.011l-0.089,0.018l-0.014,0.004l-0.075,0.014l-0.036,0.007l-0.053,0.011l-0.061,0.011
	l-0.029,0.004l-0.085,0.018h-0.004l-0.089,0.014l-0.018,0.004L209.4,53.92l-0.039,0.007l-0.05,0.007l-0.064,0.011l-0.029,0.004
	l-0.086,0.014h-0.004l-0.093,0.011l-0.018,0.004l-0.071,0.011l-0.043,0.004l-0.05,0.007l-0.068,0.007l-0.025,0.004l-0.08,0.006
	c1.534-0.162,2.975-0.587,4.379-1.116L213.051,52.905z M213.357,45.473c-0.188,0.695-0.327,1.827-0.256,2.989
	C213.029,47.3,213.167,46.168,213.357,45.473z M213.215,49.442c-0.006-0.033-0.009-0.067-0.015-0.101
	C213.206,49.375,213.209,49.409,213.215,49.442z M213.144,48.954c-0.011-0.099-0.018-0.197-0.026-0.296
	C213.126,48.756,213.133,48.855,213.144,48.954z"/>
<path fill="#EB7272" d="M1602.97,686.224c0.358-0.247,0.715-0.495,1.073-0.742c0.084,0.127,0.169,0.254,0.253,0.381
	c-0.434,0.129-0.868,0.259-1.302,0.388C1602.994,686.25,1602.97,686.224,1602.97,686.224z"/>
<path fill="#EB7272" d="M1570.006,1049.175c0.243,0.36,0.489,0.718,0.714,1.089c0.004,0.007-0.235,0.163-0.361,0.249
	c-0.133-0.432-0.267-0.865-0.401-1.297C1569.957,1049.216,1570.006,1049.175,1570.006,1049.175z"/>
<g>
	<path fill="#5D869C" d="M200.052,92.2c-0.189-0.686-0.199-1.233-0.082-1.686c-0.001,0-0.002,0.001-0.003,0.001
		c0.005-0.014,0.009-0.029,0.014-0.043c0.02-0.071,0.043-0.14,0.069-0.207c1.814-6.096-9.88-23.638,0.843-22.813
		c0-0.001,0-0.001,0.001-0.002c0.015-0.219,0.058-0.427,0.195-0.611c0.115-0.368,0.204-0.674,0.235-0.84l0.57-3.031l-3.048-0.481
		c-4.854-0.766-11.058-0.014-15.52-1.546l-3.511-1.204l-0.434,3.686c-0.082,0.673-0.363,1.193-0.58,1.813l-4.081,0.16l-0.392,0.125
		c-13.618,4.377-25.947,12.072-37.781,19.953c-12.425,8.276-25.16,17.535-38.974,23.326l-32.478,6.478
		c-9.252-2.543-11.2-1.784-7.553,1.506c-7.208,1.439-7.678,9.779-21.631,4.313c-13.956-5.463-10.067-1.36-7.343,1.464
		c2.728,2.828-6.738,1.346-10.107,2.016l48.151,8.679c5.694,1.229,55.957-6.075,48.361-17.033
		c16.439-0.734,30.231-8.743,42.485-19.141c-2.041,2.044-4.224,3.946-6.635,5.609l-0.833,0.577l-6.87,21.2v0.474
		c0,3.362-0.798,7.026-1.115,10.413c-0.303,3.226-0.313,6.524,0.584,9.665c0.214,0.744,0.477,1.474,0.794,2.183l1.464,3.276
		l2.959-2.026c8.319-5.691,5.224-17.261,11.154-21.292c-0.018,0.527-0.096,1.036-0.239,1.506l0.004,6.93l4.526-0.986l-1.421-4.986
		c2.244-1.816,6.001-1.62,8.248-3.447c0.591,0.616,1.222,1.111,2.172,1.389c0.712,0.21,1.417,0.214,2.09,0.061l0.182,3.226
		l3.754-0.253l2.279-9.48l8.714-5.972l0.178-0.171c6.691-6.434,9.973-14.33,11.304-22.77C200.53,92.231,200.3,92.237,200.052,92.2z"
		/>
	<path fill="#EFC331" d="M173.653,154.667l-8.472-12.325l-3.109-7.475l-1.969,0.431l2.536,7.6
		c1.143,5.043,2.283,10.082,3.426,15.124c2.699,5.901,2.222,3.152,1.948,0.545l-2.496-9.494c1.467,3.052,2.934,6.104,4.402,9.156
		c2.279,3.041,3.059,3.109,1.542-1.439l-4.501-8.689c1.777,2.628,3.558,5.256,5.335,7.881
		C175.583,159.585,174.981,157.64,173.653,154.667z"/>
	<path fill="#EFC331" d="M168.35,149.895l5.627-13.86l0.869-5.231l2.995-0.174l-1.261,5.402c-0.032,5.171-0.064,10.338-0.096,15.509
		c-1.104,4.954-1.834,6.467-1.788,0.951l0.399-9.808c-0.776,3.294-1.553,6.588-2.333,9.886c-2.215,4.904-2.917,4.861-1.809-1.075
		l2.525-9.451c-1.172,2.949-2.343,5.897-3.515,8.842C167.645,154.471,166.053,156.462,168.35,149.895z"/>
	<path fill="#305061" d="M177.894,74.782c-9.48,11.983-19.095,24.661-32.336,32.464c-18.536,11.285-38.048,19.925-58.258,27.03
		c-26.342,6.271-62.439,8.223-79.301-16.72c22.995,1.535,41.392,14.213,65.644,12.681c2.507,0.139,5.296,0.139,6.969-1.257
		l-0.976-0.694c-17.703-0.278-35.121-0.976-49.198-9.754c-3.625-3.205-5.296-7.105-6.41-11.285
		c11.983-0.417,22.574,5.99,33.447,10.032c17.838,4.042,37.77,9.056,56.584,4.598v-0.278c-20.349,1.115-41.114-0.698-57.838-10.032
		c-3.764-3.761-6.83-7.664-8.084-12.4c24.252-4.32,39.024,16.581,62.3,15.744c21.88,0.976,38.603-11.147,54.073-25.776
		c5.855-6.41,11.15-14.07,18.119-18.671C181.655,71.858,179.426,72.973,177.894,74.782z"/>
	<path fill="#FFFFFF" d="M181.438,28.942l-4.601-5.018l0.559-0.694C177.257,25.459,180.462,26.852,181.438,28.942z"/>
	<path fill="#FFFFFF" d="M177.396,23.23c3.526,1.959,8.978,7.76,5.003,13.657c-0.787,1.371-1.766,2.938-3.137,4.113
		c-4.117-1.175-6.467-5.484-8.034-8.818c-0.787-2.938-0.787-7.443,1.763-8.618C172.403,25.327,175.829,20.879,177.396,23.23z"/>
	<path d="M174.226,24.918c1.677,0,8.771,4.957,8.771,8.693c0,3.739,0.221,4.167-1.453,4.167c-1.677,0-9.045-6.378-9.045-10.114
		S172.553,24.918,174.226,24.918z"/>
	<path d="M177.898,21.542c1.04,0,8.201,4.48,7.592,5.669c-0.609,1.193-2.521,4.576-3.034,3.807s-5.808-5.659-6.759-7.92
		C174.746,20.84,176.858,21.542,177.898,21.542z"/>
	<path fill="#305061" d="M219.795,50.06l0.068,0.121c-0.395,0.121-0.783,0.256-1.172,0.399
		C219.062,50.409,219.429,50.234,219.795,50.06z M214.742,52.222c-2.219,0.94-4.476,1.781-7.001,1.859
		c0-2.785,5.014-4.32,2.646-7.243c-2.507-3.205-8.501,0.694-10.035-3.344c-0.417-6.827,14.077-13.515,3.066-18.39
		c-1.67-0.42-4.459-1.115-3.344-3.348c3.184-5.235,8.337-8.052,13.839-9.836c-0.345,0.377-0.63,0.823-0.844,1.35
		c1.877,1.442,4.334,1.442,6.934,1.296c1.592,0.869,3.469,2.311,3.034,4.622l-9.968,7.511c-5.634,8.522,7.507,2.731,10.395,7.062
		c1.588,6.788-7.073,6.948-10.107,11.713C212.926,47.054,212.755,50.9,214.742,52.222z"/>
	<path fill="#5D869C" d="M265.799,26.41c0.146,1.588,0.869,3.034,0.58,4.911c-4.914,3.754-11.848-0.288-17.628,2.023
		c-11.845,5.922-21.698,14.134-33.977,18.903c-2.023-1.3-1.848-5.182-1.417-6.773c3.034-4.765,11.695-4.925,10.107-11.713
		c-2.888-4.33-16.029,1.46-10.395-7.062l9.968-7.511c0.434-2.311-1.442-3.754-3.031-4.619c-2.603,0.142-6.745,0.588-8.483-1.795
		c4.53-2.5,9.113-3.739,14.405-4.416C242.398,6.624,258.577,10.958,265.799,26.41z"/>
	<path fill="#305061" d="M172.1,22.254l1.67,0.278l1.674,0.698c-2.09,0.278-4.462,1.809-4.74,4.32
		c-0.556,4.875,2.09,8.358,5.716,11.424c14.067,5.847,29.102,11.275,32.514,15.858c0.766,1.029,34.693-16.734,35.135-14.366
		c0.239,1.293-35.915,20.039-44.69,20.188c-4.355,0.075-22.98-3.483-23.472-2.6l-5.481-7.379c-4.042-6.827-8.362-13.654-6.969-22.71
		C164.992,24.9,168.058,21.139,172.1,22.254z"/>
	<path fill="#F1C731" d="M213.385,52.777c0.071,0.089,0.153,0.182,0.246,0.267c-5.018,2.229-10.591,3.625-16.446,3.903
		c-6.132-2.229-13.379-1.813-18.397-6.966c0.698-0.976,1.254-2.229,2.368-3.066l-0.972-0.976c-3.625,1.674-4.323,5.573-3.348,9.056
		c0.281,0.559,0.559,1.254,1.254,1.392c1.535-1.254,0-2.785,0-4.038c6.456,9.067,23.675,10.417,38.19,1.948
		c59.889-31.118,8.337-1.392,1.67,2.372c-6.688,3.205-16.592,8.212-25.512,5.288c-6.966,1.115-13.372-1.389-18.668-5.288
		c-1.809-3.903-2.788-9.056,0.281-13.098c1.67-1.535,3.205-3.483,5.434-3.622c5.296-3.066,2.09-10.171,6.271-13.098
		c0.556,0.139-0.698,0.976-0.278,1.67h1.392c6.196-6.578,13.707-10.413,21.203-14.152l-0.121,0.068l-0.028,0.014l-0.15,0.082
		l-0.057,0.032l-0.089,0.05v0.004l-0.296,0.167l-0.078,0.046l-0.068,0.039l-0.142,0.089l-0.018,0.011l-0.128,0.075l-0.036,0.021
		l-0.107,0.068l-0.146,0.093l-0.039,0.025l-0.103,0.064l-0.121,0.082l-0.021,0.011l-0.142,0.093l-0.139,0.096l-0.139,0.093
		l-0.004,0.004l-0.139,0.093l0,0l-0.135,0.096l-0.139,0.1l-0.025,0.018l-0.114,0.082l-0.043,0.032l-0.093,0.068l-0.135,0.1
		l-0.046,0.036l-0.089,0.068l-0.125,0.096l-0.011,0.007l-0.132,0.103l-0.068,0.053l-0.068,0.053l-0.132,0.107l-0.011,0.007
		l-0.121,0.1l-0.085,0.071l-0.043,0.039l-0.132,0.11l-0.028,0.025l-0.1,0.085l-0.103,0.093l-0.025,0.018l-0.125,0.114l-0.053,0.046
		l-0.075,0.068l-0.121,0.114l-0.004,0.004l-0.125,0.118l-0.071,0.064l-0.053,0.053l-0.121,0.118l-0.018,0.018l-0.103,0.103
		l-0.089,0.089l-0.032,0.032l-0.121,0.125l-0.036,0.036l-0.082,0.089l-0.107,0.11l-0.014,0.014l-0.114,0.128l-0.057,0.057
		l-0.061,0.068l-0.114,0.132l-0.007,0.004l-0.107,0.125l-0.071,0.082l-0.043,0.05l-0.114,0.135l-0.021,0.028l-0.174,0.21l0,0
		l-0.025,0.032l-0.11,0.135l-0.039,0.05l-0.068,0.089l-0.1,0.132l-0.007,0.007l-0.16,0.214v0.004l-0.05,0.068l-0.107,0.142
		l-0.011,0.014l-0.018,0.028l-0.142,0.199v0.004l-0.132,0.192l-0.028,0.039v0.004l-0.157,0.235l-0.014,0.021l-0.096,0.153
		l-0.043,0.064l-0.053,0.089l-0.096,0.153c-1.115,2.233,1.674,2.927,3.344,3.348c11.011,4.875-3.483,11.563-3.066,18.39
		c1.535,4.038,7.528,0.139,10.035,3.344c2.368,2.924-2.646,4.459-2.646,7.243h0.093l0.025-0.004l0.068-0.004h0.05l0.046-0.004
		l0.071-0.004l0.021-0.004l0.093-0.004h0.004l0.089-0.007l0.025-0.004l0.068-0.004l0.05-0.004l0.043-0.004l0.075-0.007l0.021-0.004
		l0.089-0.007l0.004-0.004l0.089-0.007l0.025-0.004l0.068-0.007l0.05-0.007l0.043-0.004l0.071-0.011l0.018-0.004l0.093-0.011h0.004
		l0.085-0.014l0.028-0.004l0.064-0.011l0.05-0.007l0.039-0.007l0.075-0.011l0.018-0.004l0.089-0.014h0.004l0.085-0.018l0.028-0.004
		l0.061-0.011l0.053-0.011l0.036-0.007l0.075-0.014l0.014-0.004l0.089-0.018h0.011l0.078-0.018l0.032-0.007l0.057-0.011l0.053-0.014
		l0.036-0.007l0.075-0.018l0.014-0.004l0.089-0.018l0.007-0.004l0.078-0.018l0.032-0.007l0.057-0.014l0.053-0.014l0.036-0.011
		l0.075-0.018l0.011-0.004l0.089-0.021l0.011-0.004l0.075-0.021l0.032-0.007l0.057-0.014l0.053-0.018l0.032-0.007l0.078-0.021
		l0.011-0.004l0.085-0.025l0.011-0.004l0.075-0.021l0.032-0.011l0.053-0.014l0.057-0.018l0.032-0.011l0.075-0.021l0.011-0.004
		l0.085-0.028l0.011-0.004l0.075-0.021l0.036-0.011l0.05-0.018l0.057-0.018l0.028-0.011l0.078-0.025l0.007-0.004l0.085-0.028
		l0.014-0.004l0.071-0.025l0.036-0.014l0.05-0.014l0.057-0.021l0.028-0.011l0.078-0.025l0.007-0.004l0.082-0.028l0.018-0.007
		l0.068-0.025l0.036-0.014l0.05-0.018l0.057-0.021l0.028-0.007l0.078-0.032h0.004l0.085-0.032l0.014-0.007l0.071-0.025l0.036-0.014
		l0.046-0.018l0.061-0.021l0.025-0.011l0.078-0.032H213.385z"/>
	<path fill="#305061" d="M195.903,84.632c-5.37-4.605-15.238,3.739-19.523,13.882c-4.284,10.142-11.09,9.982-8.241,18.654
		c2.845,8.675,15.185,1.713,22.379-6.677C197.712,102.103,201.274,89.24,195.903,84.632z"/>
</g>
</svg>
