<?xml version="1.0" encoding="utf-8"?>
<!-- Generator: Adobe Illustrator 17.0.0, SVG Export Plug-In . SVG Version: 6.00 Build 0)  -->
<!DOCTYPE svg PUBLIC "-//W3C//DTD SVG 1.1 Basic//EN" "http://www.w3.org/Graphics/SVG/1.1/DTD/svg11-basic.dtd">
<svg version="1.1" baseProfile="basic" id="Слой_1"
	 xmlns="http://www.w3.org/2000/svg" xmlns:xlink="http://www.w3.org/1999/xlink" x="0px" y="0px" width="133.284px"
	 height="87.567px" viewBox="0 0 133.284 87.567" xml:space="preserve">
<g>
	<g>
		<path fill="#42BCAA" d="M110.692,48.09c0.358,2.59-0.648,4.1-3.14,5.056c-1.437,0.551-2.8,1.295-4.429,2.062
			c1.449,1.351,2.739,2.559,4.034,3.762c1.66,1.543,3.303,3.105,4.992,4.615c1.774,1.585,3.561,3.16,5.402,4.666
			c4.698,3.842,9.445,7.625,14.142,11.468c2.181,1.785,1.801,4.303,1.59,6.659c-0.09,0.996-1.135,1.266-2.088,1.174
			c-10.654-1.029-21.269-2.193-31.604-5.257c-19.629-5.82-39.317-11.44-58.956-17.224c-3.478-1.024-6.858-2.395-10.245-3.704
			c-0.903-0.349-1.789-0.937-2.473-1.624c-3.126-3.143-6.848-5.32-10.843-7.154c-3.077-1.413-6.201-2.824-9.032-4.656
			c-5.028-3.254-7.588-8.115-7.867-14.083c-0.171-3.658-0.471-7.337,0.557-10.956c1.633-5.745,5.085-10.262,9.462-14.149
			c4.896-4.348,10.685-6.936,17.013-8.395C27.98,0.171,28.792,0.15,29.588,0.1c10.302-0.656,19.96,1.989,29.332,5.889
			c6.373,2.652,12.657,5.488,19.378,7.234c4.554,1.182,9.018,2.712,13.521,4.087c0.305,0.093,0.608,0.196,0.909,0.304
			c2.592,0.931,2.571,0.933,2.739,3.715c0.021,0.35,0.312,0.816,0.615,0.996c3.994,2.36,7.297,5.565,10.701,8.649
			c1.23,1.114,1.955,2.455,2.326,4.078c0.172,0.753,0.671,1.489,1.184,2.095c1.75,2.07,3.579,4.073,5.359,6.117
			c0.285,0.327,0.515,0.717,0.702,1.11c0.776,1.629,0.309,2.868-1.405,3.38c-0.898,0.268-1.884,0.25-2.834,0.33
			C111.646,48.122,111.171,48.09,110.692,48.09z"/>
	</g>
</g>
</svg>
