<?xml version="1.0" encoding="utf-8"?>
<!-- Generator: Adobe Illustrator 17.0.0, SVG Export Plug-In . SVG Version: 6.00 Build 0)  -->
<!DOCTYPE svg PUBLIC "-//W3C//DTD SVG 1.1 Basic//EN" "http://www.w3.org/Graphics/SVG/1.1/DTD/svg11-basic.dtd">
<svg version="1.1" baseProfile="basic" id="Слой_1"
	 xmlns="http://www.w3.org/2000/svg" xmlns:xlink="http://www.w3.org/1999/xlink" x="0px" y="0px" width="140.56px"
	 height="62.382px" viewBox="0 0 140.56 62.382" xml:space="preserve">
<path fill="#B76153" d="M33.187,0.251c0,0,82.599,22.448,105.048,0c2.408-2.409,2.541,13.098-21.371,21.069
	c-7.224,2.409-3.612,5.418,0.903,5.418c4.516,0,17.158,3.612,21.974,3.612c4.816,0-12.341,8.727-31.906,6.32
	c0,0,0.3,11.137,8.127,13.845c7.826,2.711-15.952,3.01-22.875-0.301c-6.924-3.311-14.75,0.604-6.924,8.428
	c7.827,7.825-19.113,1.655-23.778-3.009c-4.666-4.666-32.207-15.651-49.363-1.204C-4.136,68.879-10.458,6.574,33.187,0.251"/>
</svg>
