<?xml version="1.0" encoding="utf-8"?>
<!-- Generator: Adobe Illustrator 17.0.0, SVG Export Plug-In . SVG Version: 6.00 Build 0)  -->
<!DOCTYPE svg PUBLIC "-//W3C//DTD SVG 1.1 Basic//EN" "http://www.w3.org/Graphics/SVG/1.1/DTD/svg11-basic.dtd">
<svg version="1.1" baseProfile="basic" id="Слой_1"
	 xmlns="http://www.w3.org/2000/svg" xmlns:xlink="http://www.w3.org/1999/xlink" x="0px" y="0px" width="399px" height="166.5px"
	 viewBox="0 0 399 166.5" xml:space="preserve">
<path fill="#305061" stroke="#FFFFFF" stroke-width="6" stroke-miterlimit="10" d="M369.666,58.062l20.626-4.736V52.35
	c-7.664-5.153-18.255-3.9-27.733-5.014c-34.565,0-61.741,18.112-96.306,18.112c-19.266,1.585-45.644-2.859-64.016,0.83
	c-0.644,0.129-0.976,0.329-1.151,0.569c0.116-0.37,0.206-0.679,0.237-0.847l0.57-3.033l-1.546-0.244
	c6.487-0.61,12.855-3.779,17.603-6.054c4.734-2.672,32.081-18.425,26.118-16.204c-0.46-2.356-34.368,15.396-35.134,14.367
	c-0.003-0.004-0.007-0.008-0.009-0.011c1.613-0.514,3.188-1.102,4.706-1.776c-0.093-0.085-0.175-0.178-0.246-0.267v-0.004
	c0.455-0.177,0.907-0.361,1.357-0.551c0.011,0.008,0.021,0.018,0.032,0.025c1.485-0.577,2.932-1.206,4.354-1.873
	c-0.146,0.069-0.29,0.138-0.437,0.206c0.389-0.143,0.777-0.278,1.172-0.399l-0.068-0.121c-0.125,0.06-0.252,0.118-0.378,0.178
	c10.212-4.844,19.018-11.737,29.334-16.894c5.78-2.311,12.714,1.731,17.628-2.023c0.289-1.877-0.434-3.323-0.58-4.911
	c-7.222-15.452-23.401-19.786-39.871-18.052c-5.292,0.677-9.875,1.916-14.405,4.416c0.002,0.003,0.005,0.005,0.007,0.008
	c-4.58,1.806-8.738,4.505-11.456,8.974c-1.115,2.233,1.674,2.928,3.344,3.348c11.011,4.875-3.483,11.563-3.066,18.39
	c1.534,4.038,7.528,0.139,10.035,3.344c2.235,2.759-2.101,4.282-2.596,6.786c-0.001-0.001-0.003-0.003-0.004-0.004
	c0.5-2.5,4.828-4.023,2.595-6.78c-2.507-3.205-8.5,0.694-10.035-3.344c-0.417-6.827,14.077-13.515,3.066-18.39
	c-1.67-0.421-4.459-1.115-3.344-3.348l0.096-0.153l0.053-0.089l0.043-0.064l0.096-0.153l0.014-0.021l0.157-0.235v-0.004L200.557,21
	l0.132-0.192v-0.004l0.142-0.199l0.018-0.028l0.011-0.014l0.107-0.142l0.05-0.068v-0.004l0.16-0.214l0.007-0.007l0.1-0.132
	l0.068-0.089l0.039-0.05l0.11-0.135l0.025-0.032l0.174-0.21l0.021-0.028l0.114-0.135l0.043-0.05l0.071-0.082l0.107-0.125
	l0.007-0.004l0.114-0.132l0.061-0.068l0.057-0.057l0.114-0.128l0.014-0.014l0.107-0.11l0.082-0.089l0.036-0.036l0.121-0.125
	l0.032-0.032l0.089-0.089l0.103-0.103l0.018-0.018l0.121-0.118l0.053-0.053l0.071-0.064l0.125-0.118l0.004-0.004l0.121-0.114
	l0.075-0.068l0.053-0.046l0.125-0.114l0.025-0.018l0.103-0.093l0.1-0.085l0.028-0.025l0.132-0.11l0.043-0.039l0.085-0.071l0.121-0.1
	l0.011-0.007l0.132-0.107l0.068-0.053l0.068-0.053l0.132-0.103l0.011-0.007l0.125-0.096l0.089-0.068l0.046-0.036l0.135-0.1
	l0.093-0.068l0.043-0.032l0.114-0.082l0.025-0.018l0.139-0.1l0.135-0.096l0.139-0.093l0.004-0.004l0.139-0.093l0.139-0.096
	l0.142-0.093l0.021-0.011l0.121-0.082l0.103-0.064l0.039-0.025l0.146-0.093l0.107-0.068l0.036-0.021l0.128-0.075l0.018-0.011
	l0.142-0.089l0.068-0.039l0.078-0.046l0.296-0.167v-0.004l0.089-0.05l0.057-0.032l0.15-0.082l0.028-0.014l0.121-0.068
	c-7.496,3.739-15.007,7.574-21.203,14.152h-1.392c-0.42-0.694,0.834-1.531,0.278-1.67c-0.094,0.065-0.165,0.144-0.251,0.213
	c0.074-1.362-6.604-5.522-7.607-5.522c-0.959,0-2.825-0.592-2.363,1.088c-0.256,0.077-0.511,0.191-0.757,0.322l-1.008-0.42
	l-1.67-0.278c-4.042-1.115-7.108,2.646-8.643,5.711c-1.393,9.056,2.927,15.883,6.969,22.71l2.235,3.008
	c0.294,1.045,0.677,2.052,1.109,2.986c1.867,1.374,3.874,2.57,5.993,3.5l-0.383,3.253c-0.081,0.673-0.363,1.193-0.58,1.813
	l-4.081,0.16l-0.392,0.125c-13.618,4.376-25.947,12.072-37.781,19.953c-12.425,8.276-25.16,17.535-38.974,23.326l-7.912,1.578
	c-13.198-5.625-25.219-14.114-41.523-11.21c1.254,4.736,4.32,8.639,8.084,12.4c1.98,1.105,4.02,2.097,6.106,2.998
	c-6.829-1.628-8.033-0.713-4.786,2.218c-0.285,0.057-0.556,0.128-0.821,0.205c-10.609-4.051-20.986-10.149-32.691-9.741
	c1.114,4.18,2.785,8.08,6.41,11.285c0.82,0.511,1.654,0.99,2.496,1.448c-8.522-3.043-7.679-1.095-5.711,1.142
	c-6.19-1.717-12.51-3.117-19.224-3.565c16.862,24.943,52.959,22.991,79.301,16.72c20.21-7.105,39.722-15.745,58.258-27.03
	c1.366-0.805,2.684-1.673,3.976-2.575l-6.415,19.796v0.474c0,3.362-0.798,7.026-1.115,10.413c-0.303,3.226-0.313,6.524,0.584,9.665
	c0.214,0.744,0.477,1.474,0.794,2.183l1.464,3.276l2.959-2.026c8.319-5.69,5.225-17.261,11.154-21.292
	c-0.018,0.527-0.097,1.036-0.239,1.506l0.004,6.93l4.526-0.986l-1.421-4.986c2.244-1.816,6.001-1.62,8.248-3.447
	c0.592,0.616,1.222,1.111,2.172,1.389c0.712,0.211,1.417,0.214,2.09,0.061l0.182,3.226l0.32-0.022l-0.865,5.204l-4.876,12.01
	l-3.92-5.703l-3.109-7.475l-1.969,0.431l2.536,7.6c1.143,5.043,2.283,10.082,3.426,15.124c2.699,5.901,2.222,3.152,1.948,0.545
	l-2.496-9.494c0.624,1.299,1.249,2.598,1.874,3.897c-0.324,1.337-0.11,1.49,0.437,0.909c0.697,1.45,1.394,2.9,2.091,4.349
	c2.279,3.041,3.059,3.109,1.542-1.439l-0.474-0.916c0.166-0.19,0.369-0.5,0.608-0.927c0.234,0.345,0.467,0.69,0.701,1.035
	c3.288,3.603,2.686,1.658,1.358-1.315l-1.112-1.618c0.073-0.159,0.144-0.309,0.221-0.479c0.78-3.298,1.557-6.592,2.333-9.886
	l-0.399,9.808c-0.046,5.516,0.684,4.003,1.788-0.951c0.032-5.171,0.064-10.338,0.096-15.509l1.261-5.402l-0.084,0.005l0.518-0.035
	l2.279-9.48l8.714-5.972l0.178-0.171c6.692-6.434,9.974-14.331,11.305-22.77c2.27-0.24,3.285-3.352,5.572-3.352
	c2.368,1.254,4.042,4.181,7.108,3.9c3.205,0,4.042-2.924,5.018-5.292c1.177,0.187,2.343,0.508,3.504,0.907
	c1.525,0.724,3.082,1.394,4.73,1.933c5.87,2.619,11.728,5.386,18.105,1.198c0.837-2.229-1.254-4.18-2.924-5.434
	c0.018,0.089,0.021,0.172,0.031,0.259c-1.603-1.555-3.154-3.001-1.428-3.602l9.758,4.459c10.965,5.423,27.331,7.904,40.385,5.255
	c9.114-0.187,18.177-0.814,26.513-3.027c-5.573-4.875-12.542-6.549-19.374-8.358c0.006,0.006,0.012,0.012,0.018,0.018
	c-10.447-3.096-24.892-1.623-33.464-3.638c-0.281-0.559,0.278-0.976,0.556-1.396c25.918,1.677,60.092,4.843,85.59-1.204
	c-1.645,0.206-3.283,0.413-4.893,0.648c0.014-0.003,0.029-0.005,0.044-0.008c10.441-1.529,21.986-1.816,29.642-8.772
	c-8.223-4.875-19.234-3.205-28.991-4.043l7.247,2.368c1.535,0.56,3.764,1.396,3.764,3.348c0,0,0,0,0,0.001
	c-0.001-1.951-2.229-2.787-3.764-3.343l-6.667-2.183h-0.007c-27.037,2.65-56.182,12.909-84.892,11.517
	c-0.556-0.556-1.393-0.976-0.976-1.952c25.505,2.229,47.666-5.712,70.8-10.032c9.946-1.76,25.747-2.055,38.069-4.548
	c0.022-0.023,0.051-0.046,0.076-0.069C369.795,57.863,369.709,57.962,369.666,58.062z M166.96,148.101
	c0.443,0.656,0.887,1.311,1.331,1.967c-0.045,0.129-0.082,0.242-0.124,0.364L166.96,148.101z M169.088,152.209
	c0.105-0.154,0.214-0.318,0.325-0.484c0.401,0.592,0.801,1.184,1.202,1.775C170.537,154.032,169.088,152.209,169.088,152.209z
	 M171.098,150.951l-0.736-1.07c1.039-2.611,2.077-5.223,3.115-7.836L171.098,150.951z M372.77,55.844
	c0.057-0.052,0.111-0.105,0.164-0.16C372.881,55.738,372.826,55.791,372.77,55.844z M373.535,54.619
	c0.015-0.073,0.034-0.144,0.04-0.221C373.569,54.475,373.551,54.546,373.535,54.619z M373.038,55.567
	c0.048-0.055,0.094-0.11,0.137-0.167C373.133,55.457,373.086,55.512,373.038,55.567z M373.263,55.269
	c0.038-0.058,0.075-0.116,0.107-0.177C373.338,55.153,373.3,55.211,373.263,55.269z M373.431,54.952
	c0.027-0.064,0.056-0.127,0.076-0.193C373.487,54.825,373.458,54.888,373.431,54.952z M220.421,68.11
	c-2.765,0.013-5.661-0.071-8.534-0.019C214.759,68.038,217.656,68.123,220.421,68.11z M183.483,30.463 M192.438,61.957
	c0.124,0.041,0.25,0.064,0.374,0.102c-0.312-0.009-0.624-0.02-0.936-0.029C192.063,62.004,192.25,61.987,192.438,61.957z
	 M200.456,68.902c0.064-0.057,0.12-0.114,0.166-0.173C200.577,68.788,200.52,68.846,200.456,68.902z M200.848,68.204
	c0.044-0.25,0.027-0.505,0.043-0.747c0.002-0.006,0.004-0.012,0.006-0.019C200.879,67.687,200.893,67.948,200.848,68.204z
	 M200.661,68.673c0.041-0.061,0.076-0.123,0.103-0.186C200.737,68.551,200.702,68.612,200.661,68.673z M200.784,68.439
	c0.026-0.071,0.047-0.142,0.06-0.214C200.83,68.297,200.81,68.368,200.784,68.439z M208.242,54.047
	c0.142-0.01,0.285-0.014,0.425-0.029l0,0l-0.089,0.007l-0.021,0.004l-0.075,0.007l-0.043,0.004l-0.05,0.004l-0.068,0.004
	l-0.025,0.004l-0.046,0.004C208.247,54.053,208.245,54.05,208.242,54.047z M209.309,53.93l-0.064,0.011l-0.028,0.004l-0.085,0.014
	h-0.004l-0.093,0.011l-0.018,0.004l-0.071,0.011l-0.043,0.004l-0.05,0.007l-0.068,0.007l-0.025,0.004l-0.024,0.002
	c0.219-0.024,0.436-0.057,0.651-0.091l-0.028,0.005L209.309,53.93z M209.882,53.829c0.016-0.003,0.033-0.007,0.049-0.01
	l-0.009,0.003L209.882,53.829z M210.036,53.8h-0.01c0.035-0.007,0.07-0.014,0.104-0.021l-0.016,0.003L210.036,53.8z M210.203,53.764
	l-0.042,0.008c0.017-0.004,0.034-0.007,0.051-0.01L210.203,53.764z M213.357,45.474c-0.162,0.596-0.287,1.515-0.274,2.498
	C213.069,46.989,213.194,46.07,213.357,45.474z M213.13,48.802c0.005,0.049,0.008,0.098,0.013,0.147
	C213.138,48.9,213.135,48.851,213.13,48.802z M213.084,48.017c0.003,0.146,0.007,0.294,0.016,0.442
	C213.091,48.31,213.087,48.163,213.084,48.017z M211.692,29.742c0.003-0.028,0.012-0.062,0.016-0.091
	C211.705,29.681,211.695,29.714,211.692,29.742z M211.898,28.914c0.041-0.116,0.088-0.237,0.141-0.362
	C211.985,28.678,211.938,28.799,211.898,28.914z M222.128,16.174c-0.276-0.31-0.584-0.595-0.918-0.844
	C221.544,15.579,221.852,15.864,222.128,16.174z M170.704,27.55c0.045-0.404,0.159-0.772,0.302-1.124
	c-0.423,1.807-0.237,4.045,0.222,5.756c0.444,0.944,0.953,1.966,1.545,2.973C171.226,32.992,170.364,30.532,170.704,27.55z
	 M113.873,121.915c0.065-0.059,0.124-0.119,0.186-0.178v0.14C113.997,121.892,113.935,121.901,113.873,121.915z M205.916,86.762
	c0.548,0.544,1.131,1.031,1.739,1.466C207.019,87.827,206.434,87.34,205.916,86.762z M216.776,86.487
	c-0.063,0.251-0.157,0.475-0.266,0.686c-0.131-0.402-0.124-0.853,0.264-1.383c0.001,0,0.001,0.001,0.002,0.001V86.487z
	 M221.793,68.094c0.001,0,0.002,0,0.002,0c8.571,0.471,17.092,0.677,25.548,0.618C238.887,68.771,230.364,68.565,221.793,68.094z
	 M367.284,52.113c2.265,0.4,4.411,1.04,6.285,1.911c0.013,0.104,0.009,0.203,0.005,0.301c0.004-0.098,0.005-0.197-0.008-0.301
	C371.693,53.153,369.549,52.513,367.284,52.113z M370.131,57.576c-0.048,0.035-0.097,0.07-0.139,0.105
	C370.034,57.646,370.083,57.611,370.131,57.576z M372.654,55.947c-0.062,0.053-0.125,0.105-0.191,0.156
	C372.529,56.052,372.592,56,372.654,55.947z M372.353,56.187c-0.073,0.054-0.147,0.108-0.222,0.159
	C372.206,56.295,372.28,56.241,372.353,56.187z M372.044,56.404c-0.088,0.059-0.176,0.116-0.266,0.172
	C371.868,56.52,371.957,56.462,372.044,56.404z M371.761,56.587c-0.556,0.344-1.127,0.641-1.539,0.922
	C370.634,57.227,371.205,56.931,371.761,56.587z"/>
<path fill="#EB7272" d="M1602.97,686.224c0.358-0.247,0.715-0.495,1.073-0.742c0.084,0.127,0.169,0.254,0.253,0.381
	c-0.434,0.129-0.868,0.259-1.302,0.388C1602.994,686.25,1602.97,686.224,1602.97,686.224z"/>
<path fill="#EB7272" d="M1570.006,1049.175c0.243,0.36,0.489,0.718,0.714,1.089c0.004,0.007-0.235,0.163-0.361,0.249
	c-0.133-0.432-0.267-0.865-0.401-1.297C1569.957,1049.216,1570.006,1049.175,1570.006,1049.175z"/>
<g>
	<g id="cccc_1_">
		<path fill="#EFC331" d="M173.653,154.667l-8.472-12.325l-3.109-7.475l-1.969,0.431l2.536,7.6
			c1.143,5.043,2.283,10.082,3.426,15.124c2.699,5.901,2.222,3.152,1.948,0.545l-2.496-9.494c1.467,3.052,2.934,6.104,4.402,9.156
			c2.279,3.041,3.059,3.109,1.542-1.439l-4.501-8.689c1.777,2.628,3.558,5.256,5.335,7.881
			C175.583,159.585,174.981,157.64,173.653,154.667z"/>
		<path fill="#EFC331" d="M168.35,149.895l5.627-13.86l0.869-5.231l2.995-0.174l-1.261,5.402
			c-0.032,5.171-0.064,10.338-0.096,15.509c-1.104,4.954-1.834,6.467-1.788,0.951l0.399-9.808c-0.776,3.294-1.553,6.588-2.333,9.886
			c-2.215,4.904-2.917,4.861-1.809-1.075l2.525-9.451c-1.172,2.949-2.343,5.897-3.515,8.842
			C167.645,154.471,166.053,156.462,168.35,149.895z"/>
	</g>
	<g id="__x0023_Layer_x0020_3_1_">
		<path fill="#5D869C" d="M369.825,57.834c-12.322,2.493-28.123,2.788-38.069,4.548c-23.134,4.32-45.295,12.261-70.8,10.032
			c-0.417,0.976,0.42,1.396,0.976,1.952c28.71,1.392,57.855-8.867,84.892-11.517h0.007l6.667,2.183
			c1.535,0.556,3.764,1.392,3.764,3.344c-1.254,5.434-7.247,6.268-11.706,7.105c1.61-0.235,3.248-0.442,4.893-0.648
			c-25.498,6.047-59.672,2.881-85.59,1.204c-0.278,0.42-0.837,0.837-0.556,1.396c11.845,2.785,34.91-1.097,43.133,9.629
			c-0.278,2.229-8.12,2.728-10.071,3.426c-13.657,5.434-34.18,3.105-47.14-3.305l-9.758-4.459c-3.205,1.115,4.89,5.146,3.636,7.375
			c-13.013,3.903-19.75-0.57-27.329-4.309c-1.531,2.09,2.845,2.945-1.617,4.48c-3.622,0.417-6.781-1.043-9.288-3.551
			c-0.976,1.531-4.095,3.098-5.904,3.796c2.229-5.851-9.946-23.899,0.926-23.062l0,0c-0.043,0.655,0.157,1.41-1.257,1.895v0.698
			c6.549-2.646,14.911-1.813,22.158-1.952c45.715,2.511,90.034-2.507,130.45-15.046c6.549-2.229,15.331-1.813,21.324,0.976
			C373.825,56.075,370.655,56.947,369.825,57.834z"/>
		<path fill="#305061" d="M375.242,66.701c-7.667,6.966-19.234,7.243-29.686,8.778c4.459-0.837,10.452-1.674,11.706-7.105
			c0-1.952-2.229-2.788-3.764-3.348l-7.247-2.368C356.008,63.496,367.019,61.826,375.242,66.701z"/>
		<path fill="#5D869C" d="M170.077,126.177c-2.247,1.827-6.004,1.631-8.248,3.447l1.421,4.986l-4.526,0.986l-0.004-6.93
			c0.142-0.47,0.221-0.979,0.239-1.506c-5.929,4.031-2.835,15.602-11.154,21.292l-2.959,2.026l-1.464-3.276
			c-0.317-0.709-0.58-1.439-0.794-2.183c-0.897-3.141-0.887-6.439-0.584-9.665c0.317-3.387,1.115-7.051,1.115-10.413v-0.474
			l6.87-21.2l0.833-0.577c2.411-1.663,4.594-3.565,6.635-5.609c-12.254,10.399-26.047,18.408-42.485,19.141
			c7.596,10.958-42.667,18.262-48.361,17.033l-48.151-8.679c3.369-0.67,12.835,0.812,10.107-2.016
			c-2.724-2.824-6.613-6.927,7.343-1.464c13.953,5.466,14.423-2.874,21.631-4.313c-3.647-3.291-1.699-4.049,7.553-1.506
			l32.478-6.478c13.814-5.791,26.549-15.05,38.974-23.326c11.834-7.881,24.163-15.577,37.781-19.953l0.392-0.125l4.081-0.16
			c0.217-0.62,0.499-1.14,0.58-1.813l0.434-3.686l3.511,1.204c4.462,1.531,10.666,0.78,15.52,1.546l3.048,0.481L201.323,66
			c-0.121,0.652-1.132,3.426-1.097,3.743c0.014,0.036,0.05,0.075,0.075,0.103l0.552,0.694l0.089,0.883
			c1.556,15.684,0.538,31.983-11.496,43.554l-0.178,0.171l-8.714,5.972l-2.279,9.48l-3.754,0.253l-0.182-3.226
			c-0.673,0.153-1.378,0.15-2.09-0.061C171.299,127.288,170.669,126.793,170.077,126.177z"/>
		<path fill="#305061" d="M177.894,74.782c-9.48,11.983-19.095,24.661-32.336,32.464c-18.536,11.285-38.048,19.925-58.258,27.03
			c-26.342,6.271-62.439,8.223-79.301-16.72c22.995,1.535,41.392,14.213,65.644,12.681c2.507,0.139,5.296,0.139,6.969-1.257
			l-0.976-0.694c-17.703-0.278-35.121-0.976-49.198-9.754c-3.625-3.205-5.296-7.105-6.41-11.285
			c11.983-0.417,22.574,5.99,33.447,10.032c17.838,4.042,37.77,9.056,56.584,4.598v-0.278c-20.349,1.115-41.114-0.698-57.838-10.032
			c-3.764-3.761-6.83-7.664-8.084-12.4c24.252-4.32,39.024,16.581,62.3,15.744c21.88,0.976,38.603-11.147,54.073-25.776
			c5.855-6.41,11.15-14.07,18.119-18.671C181.655,71.858,179.426,72.973,177.894,74.782z"/>
		<path fill="#305061" d="M317.123,89.411c-8.921,2.368-18.675,2.927-28.433,3.066c4.462-1.813,10.452-0.559,13.379-5.712
			c0.139-2.785-2.646-3.903-4.32-5.712C304.581,82.862,311.55,84.536,317.123,89.411z"/>
		<path fill="#305061" d="M241.166,89.411c0.278-0.976,0.976-1.948,0.698-3.344c1.67,1.254,3.761,3.205,2.924,5.434
			c-9.337,6.132-17.56-2.646-26.339-4.038c-0.976,2.368-1.813,5.292-5.018,5.292c-3.066,0.281-4.74-2.646-7.108-3.9
			c-2.511,0-3.483,3.761-6.271,3.344c-1.115-4.042,3.903-3.344,5.296-6.132c1.535,2.09,3.764,3.344,6.41,3.344
			c1.952-0.139,4.462-0.694,5.018-2.924v-1.392C223.745,89.272,232.666,93.731,241.166,89.411z"/>
		<path fill="#305061" d="M390.292,52.35v0.976l-20.626,4.736c0.42-0.972,4.181-1.809,3.903-4.038
			c-5.994-2.788-14.775-3.205-21.324-0.976c-40.416,12.539-84.735,17.557-130.45,15.046c-7.247,0.139-15.609-0.694-22.158,1.952
			v-0.698c2.489-0.851-0.025-2.543,2.6-3.07c18.372-3.689,44.75,0.755,64.016-0.83c34.565,0,61.741-18.112,96.306-18.112
			C372.037,48.45,382.628,47.197,390.292,52.35z"/>
		<path fill="#FFFFFF" d="M181.438,28.942l-4.601-5.018l0.559-0.694C177.257,25.459,180.462,26.852,181.438,28.942z"/>
		<path fill="#FFFFFF" d="M177.396,23.23c3.526,1.959,8.978,7.76,5.003,13.657c-0.787,1.371-1.766,2.938-3.137,4.113
			c-4.117-1.175-6.467-5.484-8.034-8.818c-0.787-2.938-0.787-7.443,1.763-8.618C172.403,25.327,175.829,20.879,177.396,23.23z"/>
		<path d="M174.226,24.918c1.677,0,8.771,4.957,8.771,8.693c0,3.739,0.221,4.167-1.453,4.167c-1.677,0-9.045-6.378-9.045-10.114
			S172.553,24.918,174.226,24.918z"/>
		<path d="M177.898,21.542c1.04,0,8.201,4.48,7.592,5.669c-0.609,1.193-2.521,4.576-3.034,3.807s-5.808-5.659-6.759-7.92
			C174.746,20.84,176.858,21.542,177.898,21.542z"/>
		<path fill="#305061" d="M219.795,50.06l0.068,0.121c-0.395,0.121-0.783,0.256-1.172,0.399
			C219.062,50.409,219.429,50.234,219.795,50.06z M214.742,52.222c-2.219,0.94-4.476,1.781-7.001,1.859
			c0-2.785,5.014-4.32,2.646-7.243c-2.507-3.205-8.501,0.694-10.035-3.344c-0.417-6.827,14.077-13.515,3.066-18.39
			c-1.67-0.42-4.459-1.115-3.344-3.348c3.184-5.235,8.337-8.052,13.839-9.836c-0.345,0.377-0.63,0.823-0.844,1.35
			c1.877,1.442,4.334,1.442,6.934,1.296c1.592,0.869,3.469,2.311,3.034,4.622l-9.968,7.511c-5.634,8.522,7.507,2.731,10.395,7.062
			c1.588,6.788-7.073,6.948-10.107,11.713C212.926,47.054,212.755,50.9,214.742,52.222z"/>
		<path fill="#5D869C" d="M265.799,26.41c0.146,1.588,0.869,3.034,0.58,4.911c-4.914,3.754-11.848-0.288-17.628,2.023
			c-11.845,5.922-21.698,14.134-33.977,18.903c-2.023-1.3-1.848-5.182-1.417-6.773c3.034-4.765,11.695-4.925,10.107-11.713
			c-2.888-4.33-16.029,1.46-10.395-7.062l9.968-7.511c0.434-2.311-1.442-3.754-3.031-4.619c-2.603,0.142-6.745,0.588-8.483-1.795
			c4.53-2.5,9.113-3.739,14.405-4.416C242.398,6.624,258.577,10.958,265.799,26.41z"/>
		<path fill="#305061" d="M172.1,22.254l1.67,0.278l1.674,0.698c-2.09,0.278-4.462,1.809-4.74,4.32
			c-0.556,4.875,2.09,8.358,5.716,11.424c14.067,5.847,29.102,11.275,32.514,15.858c0.766,1.029,34.693-16.734,35.135-14.366
			c0.239,1.293-35.915,20.039-44.69,20.188c-4.355,0.075-22.98-3.483-23.472-2.6l-5.481-7.379
			c-4.042-6.827-8.362-13.654-6.969-22.71C164.992,24.9,168.058,21.139,172.1,22.254z"/>
		<path fill="#F1C731" d="M213.385,52.777c0.071,0.089,0.153,0.182,0.246,0.267c-5.018,2.229-10.591,3.625-16.446,3.903
			c-6.132-2.229-13.379-1.813-18.397-6.966c0.698-0.976,1.254-2.229,2.368-3.066l-0.972-0.976c-3.625,1.674-4.323,5.573-3.348,9.056
			c0.281,0.559,0.559,1.254,1.254,1.392c1.535-1.254,0-2.785,0-4.038c6.456,9.067,23.675,10.417,38.19,1.948
			c59.889-31.118,8.337-1.392,1.67,2.372c-6.688,3.205-16.592,8.212-25.512,5.288c-6.966,1.115-13.372-1.389-18.668-5.288
			c-1.809-3.903-2.788-9.056,0.281-13.098c1.67-1.535,3.205-3.483,5.434-3.622c5.296-3.066,2.09-10.171,6.271-13.098
			c0.556,0.139-0.698,0.976-0.278,1.67h1.392c6.196-6.578,13.707-10.413,21.203-14.152l-0.121,0.068l-0.028,0.014l-0.15,0.082
			l-0.057,0.032l-0.089,0.05v0.004l-0.296,0.167l-0.078,0.046l-0.068,0.039l-0.142,0.089l-0.018,0.011l-0.128,0.075l-0.036,0.021
			l-0.107,0.068l-0.146,0.093l-0.039,0.025l-0.103,0.064l-0.121,0.082l-0.021,0.011l-0.142,0.093l-0.139,0.096l-0.139,0.093
			l-0.004,0.004l-0.139,0.093l0,0l-0.135,0.096l-0.139,0.1l-0.025,0.018l-0.114,0.082l-0.043,0.032l-0.093,0.068l-0.135,0.1
			l-0.046,0.036l-0.089,0.068l-0.125,0.096l-0.011,0.007l-0.132,0.103l-0.068,0.053l-0.068,0.053l-0.132,0.107l-0.011,0.007
			l-0.121,0.1l-0.085,0.071l-0.043,0.039l-0.132,0.11l-0.028,0.025l-0.1,0.085l-0.103,0.093l-0.025,0.018l-0.125,0.114l-0.053,0.046
			l-0.075,0.068l-0.121,0.114l-0.004,0.004l-0.125,0.118l-0.071,0.064l-0.053,0.053l-0.121,0.118l-0.018,0.018l-0.103,0.103
			l-0.089,0.089l-0.032,0.032l-0.121,0.125l-0.036,0.036l-0.082,0.089l-0.107,0.11l-0.014,0.014l-0.114,0.128l-0.057,0.057
			l-0.061,0.068l-0.114,0.132l-0.007,0.004l-0.107,0.125l-0.071,0.082l-0.043,0.05l-0.114,0.135L201.7,19.48l-0.174,0.21l0,0
			l-0.025,0.032l-0.11,0.135l-0.039,0.05l-0.068,0.089l-0.1,0.132l-0.007,0.007l-0.16,0.214v0.004l-0.05,0.068l-0.107,0.142
			l-0.011,0.014l-0.018,0.028l-0.142,0.199v0.004L200.557,21l-0.029,0.039v0.004l-0.157,0.235l-0.014,0.021l-0.096,0.153
			l-0.043,0.064l-0.053,0.089l-0.096,0.153c-1.115,2.233,1.674,2.927,3.344,3.348c11.011,4.875-3.483,11.563-3.066,18.39
			c1.535,4.038,7.528,0.139,10.035,3.344c2.368,2.924-2.646,4.459-2.646,7.243h0.093l0.025-0.004l0.068-0.004h0.05l0.046-0.004
			l0.071-0.004l0.021-0.004l0.093-0.004h0.004l0.089-0.007l0.025-0.004l0.068-0.004l0.05-0.004l0.043-0.004l0.075-0.007l0.021-0.004
			l0.089-0.007l0.004-0.004l0.089-0.007l0.025-0.004l0.068-0.007l0.05-0.007l0.043-0.004l0.071-0.011l0.018-0.004l0.093-0.011h0.004
			l0.085-0.014l0.028-0.004l0.064-0.011l0.05-0.007l0.039-0.007l0.075-0.011l0.018-0.004l0.089-0.014h0.004l0.085-0.018l0.028-0.004
			l0.061-0.011l0.053-0.011l0.036-0.007l0.075-0.014l0.014-0.004l0.089-0.018h0.011l0.078-0.018l0.032-0.007l0.057-0.011
			l0.053-0.014l0.036-0.007l0.075-0.018l0.014-0.004l0.089-0.018l0.007-0.004l0.078-0.018l0.032-0.007l0.057-0.014l0.053-0.014
			l0.036-0.011l0.075-0.018l0.011-0.004l0.089-0.021l0.011-0.004l0.075-0.021l0.032-0.007l0.057-0.014l0.053-0.018l0.032-0.007
			l0.078-0.021l0.011-0.004l0.085-0.025l0.011-0.004l0.075-0.021l0.032-0.011l0.053-0.014l0.057-0.018l0.032-0.011l0.075-0.021
			l0.011-0.004l0.085-0.028l0.011-0.004l0.075-0.021l0.036-0.011l0.05-0.018l0.057-0.018l0.028-0.011l0.078-0.025l0.007-0.004
			l0.085-0.028l0.014-0.004l0.071-0.025l0.036-0.014l0.05-0.014l0.057-0.021l0.029-0.011l0.078-0.025l0.007-0.004l0.082-0.028
			l0.018-0.007l0.068-0.025l0.036-0.014l0.05-0.018l0.057-0.021l0.028-0.007l0.078-0.032h0.004l0.085-0.032l0.014-0.007l0.071-0.025
			l0.036-0.014l0.046-0.018l0.061-0.021l0.025-0.011l0.078-0.032h0.006V52.777z"/>
		<path fill="#305061" d="M195.903,84.632c-5.37-4.605-15.238,3.739-19.523,13.882c-4.284,10.142-11.09,9.982-8.241,18.654
			c2.845,8.675,15.185,1.713,22.379-6.677C197.712,102.103,201.274,89.24,195.903,84.632z"/>
	</g>
</g>
</svg>
