<?xml version="1.0" encoding="utf-8"?>
<!-- Generator: Adobe Illustrator 17.0.0, SVG Export Plug-In . SVG Version: 6.00 Build 0)  -->
<!DOCTYPE svg PUBLIC "-//W3C//DTD SVG 1.1 Basic//EN" "http://www.w3.org/Graphics/SVG/1.1/DTD/svg11-basic.dtd">
<svg version="1.1" baseProfile="basic" id="Слой_1"
	 xmlns="http://www.w3.org/2000/svg" xmlns:xlink="http://www.w3.org/1999/xlink" x="0px" y="0px" width="295px" height="290px"
	 viewBox="-0.917 0.667 295 290" xml:space="preserve">
<g>
	<path fill="none" stroke="#F9F9F9" stroke-width="3" stroke-miterlimit="10" d="M278.668,86.577
		c-5.948-21.223-17.728-38.821-32.333-50.657c-6.949-8.977-17.319-15.583-29.385-18.239c-1.382-0.519-3.455-1.126-6.387-1.833
		c-23.439-5.661-38.809-8.894-38.809-8.894c2.208,7.346,8.751,10.847,15.235,12.488c-5.415,1.896-10.377,4.62-14.708,7.999
		c2.282-0.256,4.558-0.467,6.823-0.62c0.211,0.666,0.421,1.329,0.633,1.992c2.751,9.786-4.996,27.287,6.073,46.55
		c0.011,0.727,0.013,1.452,0.022,2.177c-0.089,0.136-0.177,0.273-0.265,0.411c-9.836,3.118-15.65,11.628-18.671,23.86
		c-9,1.561-17.857,3.478-26.539,5.703c0.637,5.582,1.732,11.232,3.318,16.886c7.492,26.729,24.232,47.713,44.219,58.67
		c-10.712,25.497-30.132,74.901-24.976,86.498c7.028,15.807,79.03,21.075,105.37,5.267c23.91-14.339-15.804-77.84-23.368-89.483
		C275.425,170.023,290.398,128.424,278.668,86.577z"/>
	<g>
		<path d="M143.675,124.399c-1.585-5.655-2.68-11.305-3.318-16.886c8.682-2.225,17.54-4.142,26.539-5.703
			c3.049-12.345,8.937-20.908,18.94-23.953c-0.013-0.831-0.013-1.661-0.025-2.495c-11.069-19.262-3.322-36.764-6.073-46.55
			c-0.211-0.663-0.422-1.326-0.633-1.992c-2.265,0.153-4.541,0.364-6.823,0.62c4.331-3.379,9.293-6.102,14.708-7.999
			c-6.484-1.641-13.027-5.142-15.235-12.488c0,0,15.37,3.232,38.809,8.894c2.932,0.707,5.005,1.314,6.387,1.833
			c12.066,2.656,22.436,9.262,29.385,18.239c14.604,11.836,26.385,29.433,32.333,50.657c11.73,41.848-3.243,83.446-33.749,98.775
			c7.564,11.643,47.278,75.144,23.368,89.483c-26.339,15.807-98.342,10.539-105.37-5.267c-5.156-11.597,14.264-61.001,24.976-86.498
			C167.907,172.112,151.167,151.128,143.675,124.399z"/>
		
			<radialGradient id="SVGID_1_" cx="1374.0325" cy="92.6034" r="55.4839" gradientTransform="matrix(-1 0 0 1 1608.6943 0)" gradientUnits="userSpaceOnUse">
			<stop  offset="0" style="stop-color:#FFFFFF"/>
			<stop  offset="1" style="stop-color:#CFD0D2"/>
		</radialGradient>
		<ellipse fill-rule="evenodd" clip-rule="evenodd" fill="url(#SVGID_1_)" cx="215.82" cy="120.139" rx="41.634" ry="61.445"/>
		<path fill-rule="evenodd" clip-rule="evenodd" fill="#DA7F30" stroke="#272525" stroke-miterlimit="10" d="M185.836,47.851
			c0.744,0.918-2.69,8.624,12.011,26.461c-0.136,1.686-18.481,18.815-8.243,31.213c0.657-0.691,19.746-14.403,23.179-15.094
			c19.944-4.31,19.919-8.537,27.727-15.531C236.234,59.608,207.391,40.303,185.836,47.851z"/>
		<path fill="#DE9CC0" d="M227.706,74.262c0,5.453,4.413,9.875,9.879,9.875c5.441,0,9.879-4.422,9.879-9.875
			c0-5.457-4.437-9.879-9.879-9.879C232.119,64.383,227.706,68.805,227.706,74.262z"/>
		<g>
			<path fill="#272525" d="M202.049,74.637c0,5.318,4.314,9.625,9.618,9.625c5.33,0,9.631-4.307,9.631-9.625
				c0-5.311-4.301-9.622-9.631-9.622C206.362,65.015,202.049,69.326,202.049,74.637z"/>
			<path fill="#FFFFFF" d="M211.172,72.105c0,2.519,2.033,4.559,4.549,4.559c2.528,0,4.561-2.039,4.561-4.559
				c0-2.516-2.033-4.558-4.561-4.558C213.204,67.547,211.172,69.589,211.172,72.105z"/>
		</g>
		<g>
			<path fill-rule="evenodd" clip-rule="evenodd" fill="#DA7F30" stroke="#272525" stroke-miterlimit="10" d="M193.585,192.218
				c-0.225,8.037,2.489,14.628,6.06,14.729c3.582,0.094,6.656-6.338,6.87-14.371c0.226-8.033-2.489-14.628-6.059-14.726
				C196.886,177.752,193.811,184.184,193.585,192.218z"/>
			<path fill-rule="evenodd" clip-rule="evenodd" fill="#DA7F30" stroke="#272525" stroke-miterlimit="10" d="M183.087,191.923
				c-0.226,8.037,2.489,14.628,6.06,14.729c3.57,0.098,6.644-6.334,6.87-14.371c0.215-8.03-2.501-14.623-6.071-14.721
				C186.376,177.461,183.302,183.893,183.087,191.923z"/>
			<path fill-rule="evenodd" clip-rule="evenodd" fill="#DA7F30" stroke="#272525" stroke-miterlimit="10" d="M171.764,191.613
				c-0.214,8.032,2.489,14.627,6.06,14.729c3.582,0.094,6.656-6.338,6.87-14.37c0.226-8.034-2.489-14.628-6.059-14.726
				C175.065,177.147,171.99,183.579,171.764,191.613z"/>
		</g>
		<g>
			<path fill-rule="evenodd" clip-rule="evenodd" fill="#DA7F30" stroke="#272525" stroke-miterlimit="10" d="M250.994,191.924
				c0.303,8.029,3.444,14.429,7.015,14.291c3.571-0.138,6.212-6.759,5.908-14.789c-0.315-8.033-3.457-14.43-7.027-14.295
				C253.319,177.27,250.679,183.891,250.994,191.924z"/>
			<path fill-rule="evenodd" clip-rule="evenodd" fill="#DA7F30" stroke="#272525" stroke-miterlimit="10" d="M240.49,192.329
				c0.303,8.029,3.445,14.427,7.015,14.291c3.571-0.138,6.211-6.759,5.908-14.789c-0.315-8.033-3.456-14.433-7.027-14.295
				C242.815,177.675,240.175,184.296,240.49,192.329z"/>
			<path fill-rule="evenodd" clip-rule="evenodd" fill="#DA7F30" stroke="#272525" stroke-miterlimit="10" d="M229.175,192.765
				c0.315,8.033,3.457,14.43,7.028,14.293c3.57-0.135,6.211-6.759,5.896-14.793c-0.303-8.029-3.457-14.43-7.016-14.288
				C231.514,178.111,228.86,184.732,229.175,192.765z"/>
		</g>
	</g>
</g>
</svg>
