<?xml version="1.0" encoding="utf-8"?>
<!-- Generator: Adobe Illustrator 17.0.0, SVG Export Plug-In . SVG Version: 6.00 Build 0)  -->
<!DOCTYPE svg PUBLIC "-//W3C//DTD SVG 1.1 Basic//EN" "http://www.w3.org/Graphics/SVG/1.1/DTD/svg11-basic.dtd">
<svg version="1.1" baseProfile="basic" id="Слой_1"
	 xmlns="http://www.w3.org/2000/svg" xmlns:xlink="http://www.w3.org/1999/xlink" x="0px" y="0px" width="175.326px"
	 height="139.099px" viewBox="0 0 175.326 139.099" xml:space="preserve">
<path fill-rule="evenodd" clip-rule="evenodd" fill="#87BB50" d="M175.302,48.542c-11.069-19.262-3.322-36.764-6.073-46.55
	c-0.211-0.663-0.422-1.326-0.633-1.992C103.616,4.383,30.39,52.303,7.329,93.96c-0.169,0.303-0.34,0.606-0.504,0.909
	c-0.075,0.14-0.148,0.28-0.222,0.42c-8.837,16.569-9.431,32.177,2.061,43.81c36.292-28.747,89.033-53.93,147.723-64.11
	c3.049-12.345,8.937-20.908,18.94-23.953C175.314,50.206,175.314,49.375,175.302,48.542z"/>
</svg>
