<?xml version="1.0" encoding="utf-8"?>
<!-- Generator: Adobe Illustrator 17.0.0, SVG Export Plug-In . SVG Version: 6.00 Build 0)  -->
<!DOCTYPE svg PUBLIC "-//W3C//DTD SVG 1.1 Basic//EN" "http://www.w3.org/Graphics/SVG/1.1/DTD/svg11-basic.dtd">
<svg version="1.1" baseProfile="basic" id="Слой_1"
	 xmlns="http://www.w3.org/2000/svg" xmlns:xlink="http://www.w3.org/1999/xlink" x="0px" y="0px" width="119.604px"
	 height="103.823px" viewBox="0 0 119.604 103.823" xml:space="preserve">
<path fill="#7566A9" d="M103.826,8.271H57.677c-4.396,0-7.962-3.562-7.962-7.958L49.687,0c-5.089,0.482-9.976,1.004-14.994,1.734
	l6.182,37.941H6.343C6.093,33.052,4.912,27.478,0,23.961v39.362c4.542-3.253,5.893-8.531,6.268-14.62h36.077l1.671,10.257H16.849
	c-3.514,0-6.359,2.848-6.359,6.357c0,1.813,0.761,3.445,1.977,4.603c-0.042,0.4-0.064,0.806-0.064,1.217v21.053
	c0,6.424,5.209,11.631,11.632,11.631h4.952c-0.107-1.173-0.169-2.358-0.169-3.559c0-11.31,4.836-21.488,12.551-28.585h0
	c6.918-6.366,16.149-10.257,26.292-10.257s19.375,3.891,26.293,10.257h25.65C115.236,50.282,109.756,29.121,103.826,8.271z"/>
</svg>
