<?xml version="1.0" encoding="utf-8"?>
<!-- Generator: Adobe Illustrator 17.0.0, SVG Export Plug-In . SVG Version: 6.00 Build 0)  -->
<!DOCTYPE svg PUBLIC "-//W3C//DTD SVG 1.1 Basic//EN" "http://www.w3.org/Graphics/SVG/1.1/DTD/svg11-basic.dtd">
<svg version="1.1" baseProfile="basic" id="Слой_1"
	 xmlns="http://www.w3.org/2000/svg" xmlns:xlink="http://www.w3.org/1999/xlink" x="0px" y="0px" width="141.145px"
	 height="67.118px" viewBox="0 0 141.145 67.118" xml:space="preserve">
<path fill="#DB9252" d="M0,11.098L5.744,26.69c0,0,2.027-0.773,5.822-1.88l6.893,42.308c5.018-0.73,9.905-1.253,14.994-1.734
	l-2.779-31.198c0-0.248,0.015-0.492,0.037-0.734c0.007-0.08,0.018-0.158,0.028-0.237c0.02-0.162,0.044-0.322,0.073-0.48
	c0.017-0.091,0.034-0.181,0.054-0.271c0.033-0.149,0.072-0.295,0.113-0.441c0.024-0.086,0.045-0.173,0.072-0.258
	c0.064-0.2,0.136-0.396,0.215-0.589c0.049-0.119,0.104-0.234,0.158-0.35c0.04-0.086,0.08-0.172,0.123-0.256
	c0.063-0.123,0.129-0.243,0.198-0.363c0.04-0.069,0.081-0.135,0.123-0.203c1.403-2.266,3.903-3.781,6.766-3.781h67.709
	c2.703,0,5.087,1.351,6.526,3.41l0,0c0,0,0,0,0,0c0.084,0.12,0.162,0.245,0.239,0.37c0.042,0.067,0.084,0.134,0.123,0.203
	c0.069,0.119,0.135,0.24,0.198,0.362c0.043,0.084,0.083,0.17,0.123,0.256c0.054,0.116,0.11,0.231,0.158,0.35
	c0.079,0.192,0.151,0.388,0.215,0.588c0.027,0.086,0.048,0.174,0.073,0.261c0.041,0.144,0.08,0.29,0.112,0.437
	c0.02,0.091,0.037,0.182,0.054,0.273c0.029,0.158,0.053,0.317,0.073,0.478c0.01,0.08,0.021,0.158,0.028,0.239
	c0.022,0.24,0.037,0.483,0.037,0.729c0,0.001,0,0.003,0,0.004l-2.75,30.872c4.432,0,8.864,0,13.295,0l5.09-41.354
	c2.817,0.589,2.817,0.589,8.747,2.166l2.459-13.952C141.145,11.918,77.956-14.342,0,11.098z"/>
</svg>
