<?xml version="1.0" encoding="utf-8"?>
<!-- Generator: Adobe Illustrator 17.0.0, SVG Export Plug-In . SVG Version: 6.00 Build 0)  -->
<!DOCTYPE svg PUBLIC "-//W3C//DTD SVG 1.1 Basic//EN" "http://www.w3.org/Graphics/SVG/1.1/DTD/svg11-basic.dtd">
<svg version="1.1" baseProfile="basic" id="Слой_1"
	 xmlns="http://www.w3.org/2000/svg" xmlns:xlink="http://www.w3.org/1999/xlink" x="0px" y="0px" width="310.771px"
	 height="247.708px" viewBox="0 0 310.771 247.708" xml:space="preserve">
<path fill="#A8A8A8" stroke="#272525" stroke-width="3" stroke-miterlimit="10" d="M296.956,231.894l-30.046-45.863
	c10.473-6.392,17.737-20.314,17.737-36.472c0-18.445-9.464-33.976-22.363-38.715c0.159-0.137,0.318-0.274,0.48-0.401
	c-1.141-0.892-2.33-1.529-3.556-1.878v-2.419c1.309-0.046,2.575-0.252,3.778-0.606c4.073-0.021,8.531-8.264,8.531-14.794
	c0-6.698-4.084-14.286-8.613-14.417c-1.343-0.391-2.759-0.604-4.229-0.604c-8.404,0-15.218,6.813-15.218,15.218
	c0,3.168,0.968,6.108,2.623,8.544V110l-25.305-0.381h13.771l3.28-45.407h1.302l19.219-33.235l0.196-0.339l-0.395-0.481L239.947,8
	h-41.442l-18.204,22.157l-0.396,0.481l0.196,0.339l19.222,33.235h1.299l3.266,45.152l-16.349-0.246V95.461h1.157
	c2.756,0,4.989-2.233,4.989-4.988c0-2.756-2.233-4.989-4.989-4.989H173.51c-2.756,0-4.991,2.233-4.991,4.989
	c0,2.755,2.235,4.988,4.991,4.988h1.308v13.466l-26.669-0.401l6.024-48.94c2.885,0.666,5.798,1.382,8.747,2.166l2.459-13.952
	c0,0-63.189-26.26-141.145-0.82l5.744,15.592c0,0,2.023-0.772,5.822-1.881l13.074,80.25H14.343
	c-0.249-6.623-1.43-12.197-6.343-15.714v39.362c4.542-3.253,5.893-8.531,6.268-14.62h36.077l1.671,10.257H24.849
	c-3.514,0-6.359,2.848-6.359,6.357c0,1.813,0.761,3.445,1.977,4.603c-0.042,0.4-0.064,0.806-0.064,1.217v21.053
	c0,6.424,5.209,11.631,11.632,11.631h4.952c1.798,19.786,18.42,35.284,38.673,35.284c17.592,0,32.445-11.695,37.225-27.735
	l47.597-3.85c0.512,17.529,14.872,31.585,32.527,31.585c17.978,0,32.553-14.574,32.553-32.55c0-0.922-0.048-1.832-0.123-2.735
	h23.506c0.087,0,0.172-0.011,0.258-0.013l0.743,24.767c16.992,18.601,47.01,3.284,47.01,3.284l-0.623-0.922
	C296.737,232.009,296.956,231.894,296.956,231.894z M259.207,103.348c0.354,0.279,0.714,0.572,1.08,0.877
	c-0.37-0.207-0.73-0.428-1.08-0.664V103.348z"/>
</svg>
