<?xml version="1.0" encoding="utf-8"?>
<!-- Generator: Adobe Illustrator 17.0.0, SVG Export Plug-In . SVG Version: 6.00 Build 0)  -->
<!DOCTYPE svg PUBLIC "-//W3C//DTD SVG 1.1 Basic//EN" "http://www.w3.org/Graphics/SVG/1.1/DTD/svg11-basic.dtd">
<svg version="1.1" baseProfile="basic" id="Слой_1"
	 xmlns="http://www.w3.org/2000/svg" xmlns:xlink="http://www.w3.org/1999/xlink" x="0px" y="0px" width="147.25px"
	 height="104.137px" viewBox="0 0 147.25 104.137" xml:space="preserve">
<path fill="#337F85" d="M136.501,72.005h0.005c-1.42-6.176-2.231-13.256-2.231-20.789c0-19.746,5.548-36.406,13.146-41.714h-3.296
	V9.06l-97.93-1.474L47.129,0c-4.432,0-8.864,0-13.295,0l-0.057,0.639c0,4.396-3.564,7.958-7.963,7.958H9.872
	c5.93,20.85,11.409,42.011,15.778,63.408H0c7.715,7.099,12.552,17.276,12.552,28.585c0,0.073-0.005,0.146-0.006,0.219l47.906-3.876
	c4.205-13.112,16.49-22.604,30.997-22.604c17.056,0,31.04,13.121,32.43,29.82h23.112c0.087,0,0.172-0.01,0.258-0.012l-0.347-11.576
	C142.432,89.091,138.718,81.657,136.501,72.005z"/>
</svg>
