<?xml version="1.0" encoding="utf-8"?>
<!-- Generator: Adobe Illustrator 17.0.0, SVG Export Plug-In . SVG Version: 6.00 Build 0)  -->
<!DOCTYPE svg PUBLIC "-//W3C//DTD SVG 1.1 Basic//EN" "http://www.w3.org/Graphics/SVG/1.1/DTD/svg11-basic.dtd">
<svg version="1.1" baseProfile="basic" id="Слой_1"
	 xmlns="http://www.w3.org/2000/svg" xmlns:xlink="http://www.w3.org/1999/xlink" x="0px" y="0px" width="28.061px"
	 height="34.717px" viewBox="0 0 28.061 34.717" xml:space="preserve">
<path fill="#8C69A8" d="M2.623,34.717h3.296c1.634-1.141,3.361-1.768,5.15-1.776c0.817-0.264,1.649-0.412,2.496-0.412
	c0.74,0,1.47,0.107,2.186,0.312v-2.419c1.308-0.047,2.575-0.253,3.778-0.607c4.073-0.021,8.531-8.264,8.531-14.794
	c0-6.698-4.084-14.286-8.613-14.417C18.105,0.214,16.688,0,15.218,0C6.815,0,0,6.813,0,15.218c0,3.168,0.968,6.109,2.623,8.544
	V34.717z"/>
</svg>
