<?xml version="1.0" encoding="utf-8"?>
<!-- Generator: Adobe Illustrator 17.0.0, SVG Export Plug-In . SVG Version: 6.00 Build 0)  -->
<!DOCTYPE svg PUBLIC "-//W3C//DTD SVG 1.1 Basic//EN" "http://www.w3.org/Graphics/SVG/1.1/DTD/svg11-basic.dtd">
<svg version="1.1" baseProfile="basic" id="Слой_1"
	 xmlns="http://www.w3.org/2000/svg" xmlns:xlink="http://www.w3.org/1999/xlink" x="0px" y="0px" width="310.771px"
	 height="247.708px" viewBox="0 0 310.771 247.708" xml:space="preserve">
<polygon fill="#A8A8A8" stroke="#272525" stroke-width="3" stroke-miterlimit="10" points="233.922,109.406 203.284,109.406 200,64 
	237.202,64 "/>
<path fill="#A8A8A8" stroke="#272525" stroke-width="3" stroke-miterlimit="10" d="M130.669,62H62.96C58.561,62,55,65.566,55,69.962
	l2.807,31.511c0,4.396,3.566,7.958,7.962,7.958h62.091c4.399,0,7.963-3.562,7.963-7.958l2.807-31.511
	C138.63,65.566,135.065,62,130.669,62z"/>
<path fill="#A8A8A8" stroke="#272525" stroke-width="3" stroke-miterlimit="10" d="M188.177,86h-15.186
	c-2.756,0-4.991,2.233-4.991,4.989c0,2.755,2.235,4.988,4.991,4.988h1.308v13.887h12.721V95.978h1.157
	c2.756,0,4.989-2.233,4.989-4.988C193.166,88.233,190.932,86,188.177,86z"/>
<path fill="#A8A8A8" stroke="#272525" stroke-width="3" stroke-miterlimit="10" d="M193.024,201.435
	c0.133,2.604-3.114,4.987-7.257,5.32l-101.958,8.248c-4.14,0.334-7.603-1.505-7.739-4.107l-0.066-1.288
	c-0.133-2.604,3.115-4.984,7.255-5.32l101.96-8.249c4.14-0.334,7.604,1.505,7.739,4.106L193.024,201.435z"/>
<path fill="#A8A8A8" stroke="#272525" stroke-width="3" stroke-miterlimit="10" d="M84.366,215.273
	c-4.14,0.334-7.603-1.505-7.739-4.107l-0.066-1.288c-0.133-2.604,3.115-4.984,7.255-5.32l30.865-2.497
	c0-0.073,0.006-0.145,0.006-0.219c0-21.451-17.392-38.842-38.845-38.842S37,180.392,37,201.842
	c0,21.456,17.389,38.843,38.842,38.843c17.592,0,32.445-11.695,37.225-27.735L84.366,215.273z"/>
<path fill="#A8A8A8" stroke="#272525" stroke-width="3" stroke-miterlimit="10" d="M192.527,175
	c-14.52,0-26.814,9.508-31.009,22.637l23.594-1.909c4.14-0.334,7.604,1.505,7.739,4.106l0.066,1.289
	c0.133,2.604-3.114,4.987-7.257,5.32L160,208.519c0.512,17.529,14.872,31.585,32.527,31.585c17.978,0,32.553-14.574,32.553-32.55
	C225.079,189.574,210.504,175,192.527,175z"/>
<polygon fill="#A8A8A8" stroke="#272525" stroke-width="3" stroke-miterlimit="10" points="239.922,8 198.48,8 180.277,30.157 
	180,30.493 199.299,64.212 239.102,64.212 258.321,30.977 "/>
<path fill="#A8A8A8" stroke="#272525" stroke-width="3" stroke-miterlimit="10" d="M297.141,231.597L265.959,184l-15.318,6.566
	l0.016,0.544L249,191.796l1.132,37.749c16.992,18.601,47.01,3.284,47.01,3.284l-0.623-0.922
	C296.922,231.712,297.141,231.597,297.141,231.597z"/>
<path fill="#A8A8A8" stroke="#272525" stroke-width="3" stroke-miterlimit="10" d="M111.826,109.271H65.677
	c-4.396,0-7.962-3.562-7.962-7.958L57.687,101c-5.089,0.482-9.976,1.004-14.994,1.734l6.182,37.941H14.343
	c-0.249-6.623-1.43-12.197-6.343-15.714v39.362c4.542-3.253,5.893-8.531,6.268-14.62h36.077l1.671,10.257H24.849
	c-3.514,0-6.359,2.848-6.359,6.357c0,1.813,0.761,3.445,1.977,4.603c-0.042,0.4-0.064,0.806-0.064,1.217v21.053
	c0,6.424,5.209,11.631,11.632,11.631h4.952c-0.107-1.173-0.169-2.358-0.169-3.559c0-11.31,4.836-21.488,12.551-28.585l0,0
	c6.918-6.366,16.149-10.257,26.292-10.257s19.375,3.891,26.293,10.257h25.65C123.236,151.282,117.756,130.121,111.826,109.271z"/>
<path fill="#A8A8A8" stroke="#272525" stroke-width="3" stroke-miterlimit="10" d="M246.623,109.717h3.296
	c1.634-1.141,3.361-1.768,5.15-1.776c0.817-0.264,1.649-0.412,2.496-0.412c0.741,0,1.47,0.107,2.186,0.312v-2.419
	c1.308-0.047,2.575-0.253,3.778-0.607c4.073-0.021,8.531-8.264,8.531-14.794c0-6.698-4.084-14.286-8.613-14.417
	c-1.343-0.391-2.759-0.604-4.229-0.604C250.814,75,244,81.813,244,90.218c0,3.168,0.968,6.109,2.623,8.544L246.623,109.717
	L246.623,109.717z"/>
<path fill="#A8A8A8" stroke="#272525" stroke-width="3" stroke-miterlimit="10" d="M248.587,191.84l1.657-0.686l-0.016-0.544
	l15.318-6.566l1.135,1.733c10.474-6.388,17.737-20.313,17.737-36.471c0-18.445-9.464-33.976-22.363-38.715
	c0.159-0.137,0.318-0.274,0.48-0.401c-1.808-1.413-3.735-2.19-5.743-2.19c-0.847,0-1.68,0.148-2.496,0.412
	C244.188,108.457,236,127.911,236,151.902c0,19.297,5.297,35.646,12.628,41.337L248.587,191.84z"/>
<path fill="#A8A8A8" stroke="#272525" stroke-width="3" stroke-miterlimit="10" d="M238.501,173.004h0.005
	c-1.42-6.176-2.231-13.256-2.231-20.789c0-19.746,5.548-36.406,13.146-41.714h-3.296v-0.441l-97.93-1.474l0.934-7.586
	c-4.432,0-8.864,0-13.295,0l-0.057,0.639c0,4.396-3.564,7.958-7.963,7.958h-15.942c5.93,20.85,11.409,42.011,15.778,63.408H102
	c7.715,7.099,12.552,17.276,12.552,28.585c0,0.073-0.005,0.146-0.006,0.219l47.906-3.876c4.205-13.112,16.49-22.604,30.997-22.604
	c17.056,0,31.04,13.12,32.43,29.82h23.112c0.087,0,0.172-0.01,0.258-0.012l-0.347-11.576
	C244.432,190.09,240.718,182.656,238.501,173.004z"/>
<path fill="#A8A8A8" stroke="#272525" stroke-width="3" stroke-miterlimit="10" d="M24,47.099l5.744,15.592
	c0,0,2.027-0.773,5.822-1.88l6.893,42.308c5.018-0.73,9.905-1.253,14.994-1.734l-2.779-31.198c0-0.248,0.015-0.492,0.037-0.734
	c0.007-0.08,0.018-0.158,0.028-0.237c0.02-0.162,0.044-0.322,0.073-0.48c0.017-0.091,0.034-0.181,0.054-0.271
	c0.033-0.149,0.072-0.295,0.113-0.441c0.024-0.086,0.045-0.173,0.072-0.258c0.064-0.2,0.136-0.396,0.215-0.589
	c0.049-0.119,0.104-0.234,0.158-0.35c0.04-0.086,0.08-0.172,0.123-0.256c0.063-0.123,0.129-0.243,0.198-0.363
	c0.04-0.069,0.081-0.135,0.123-0.203c1.403-2.266,3.903-3.781,6.766-3.781h67.709c2.703,0,5.087,1.351,6.526,3.41l0,0l0,0
	c0.084,0.12,0.162,0.245,0.239,0.37c0.042,0.067,0.083,0.134,0.123,0.203c0.069,0.119,0.135,0.24,0.198,0.362
	c0.043,0.084,0.083,0.17,0.123,0.256c0.054,0.116,0.11,0.231,0.158,0.35c0.079,0.192,0.151,0.388,0.215,0.588
	c0.027,0.086,0.048,0.174,0.073,0.261c0.041,0.144,0.08,0.29,0.112,0.437c0.02,0.091,0.037,0.182,0.054,0.273
	c0.029,0.158,0.053,0.317,0.073,0.478c0.01,0.08,0.021,0.158,0.028,0.239c0.022,0.24,0.037,0.483,0.037,0.729
	c0,0.001,0,0.003,0,0.004l-2.75,30.872c4.432,0,8.864,0,13.295,0l5.09-41.354c2.817,0.589,2.817,0.589,8.747,2.166l2.459-13.952
	C165.145,47.918,101.956,21.658,24,47.099z"/>
</svg>
