<?xml version="1.0" encoding="utf-8"?>
<!-- Generator: Adobe Illustrator 17.0.0, SVG Export Plug-In . SVG Version: 6.00 Build 0)  -->
<!DOCTYPE svg PUBLIC "-//W3C//DTD SVG 1.1 Basic//EN" "http://www.w3.org/Graphics/SVG/1.1/DTD/svg11-basic.dtd">
<svg version="1.1" baseProfile="basic" id="Слой_1"
	 xmlns="http://www.w3.org/2000/svg" xmlns:xlink="http://www.w3.org/1999/xlink" x="0px" y="0px" width="310.771px"
	 height="247.708px" viewBox="0 0 310.771 247.708" xml:space="preserve">
<path fill="#5D869C" stroke="#FFFFFF" stroke-width="6" stroke-miterlimit="10" d="M296.956,231.893l-30.046-45.863
	c10.473-6.391,17.737-20.314,17.737-36.472c0-18.445-9.464-33.976-22.363-38.715c0.159-0.137,0.318-0.274,0.48-0.401
	c-1.141-0.892-2.33-1.529-3.556-1.878v-2.419c1.309-0.046,2.575-0.252,3.778-0.606c4.073-0.022,8.531-8.264,8.531-14.794
	c0-6.698-4.084-14.286-8.614-14.417c-1.343-0.391-2.759-0.604-4.229-0.604c-8.404,0-15.218,6.813-15.218,15.218
	c0,3.168,0.968,6.109,2.623,8.544v10.513l-25.306-0.381h13.772l3.28-45.406h1.302l19.219-33.235l0.196-0.339l-0.395-0.481L239.947,8
	h-41.441l-18.204,22.157l-0.395,0.481l0.196,0.339l19.222,33.235h1.299l3.266,45.152l-16.349-0.246V95.461h1.157
	c2.756,0,4.989-2.233,4.989-4.988c0-2.756-2.234-4.989-4.989-4.989h-15.186c-2.756,0-4.991,2.233-4.991,4.989
	c0,2.755,2.235,4.988,4.991,4.988h1.307v13.466l-26.669-0.401l6.024-48.94c2.885,0.666,5.798,1.382,8.747,2.166l2.459-13.952
	c0,0-63.189-26.26-141.145-0.82l5.744,15.592c0,0,2.023-0.773,5.822-1.881l13.074,80.25H14.343
	c-0.25-6.623-1.43-12.197-6.343-15.714v39.362c4.543-3.253,5.893-8.531,6.268-14.62h36.077l1.671,10.257H24.849
	c-3.514,0-6.359,2.848-6.359,6.357c0,1.813,0.761,3.445,1.977,4.603c-0.042,0.4-0.064,0.806-0.064,1.217v21.053
	c0,6.424,5.209,11.631,11.632,11.631h4.952c1.798,19.786,18.42,35.285,38.673,35.285c17.592,0,32.445-11.695,37.225-27.735
	l47.597-3.85c0.512,17.529,14.872,31.585,32.527,31.585c17.978,0,32.553-14.574,32.553-32.55c0-0.922-0.048-1.832-0.123-2.735
	h23.506c0.087,0,0.172-0.011,0.258-0.013l0.743,24.767c16.992,18.601,47.01,3.284,47.01,3.284l-0.623-0.922
	C296.73,232.012,296.956,231.893,296.956,231.893z M259.207,103.348c0.354,0.279,0.714,0.572,1.08,0.878
	c-0.37-0.207-0.73-0.428-1.08-0.664V103.348z"/>
<g id="__x0023_Layer_x0020_3">
	<g id="_414570208">
		<polygon fill="#1A3646" points="52.956,149.968 12.335,149.968 12.335,140.941 52.956,140.941 		"/>
		<path fill="#305061" d="M254.832,200.437l2.459-90.269l-109.142-1.643l6.566-53.341c0,0-63.19-23.797-119.812,0l23.798,146.072
			H254.56L254.832,200.437z"/>
		<polygon fill="#1A3646" points="146.234,133.419 146.234,160.226 151.981,160.226 151.981,133.419 		"/>
		<polygon fill="#1A3646" points="172.222,133.419 172.222,160.226 177.965,160.226 177.965,133.419 		"/>
		<polygon fill="#1A3646" points="198.207,133.419 198.207,160.226 203.954,160.226 203.954,133.419 		"/>
		<path fill="#1A3646" d="M125.446,162v-20.508c0-2.266,1.843-4.107,4.104-4.107h92.725c2.266,0,4.109,1.84,4.109,4.107V162h5.743
			v-20.508c0-5.432-4.42-9.852-9.852-9.852H129.55c-5.431,0-9.849,4.42-9.849,9.852V162H125.446z"/>
		<path fill="#1A3646" d="M260.577,193.457c0,6.424-5.208,11.631-11.631,11.631H32.036c-6.423,0-11.632-5.207-11.632-11.631v-21.053
			c0-6.422,5.209-11.632,11.632-11.632h216.91c6.423,0,11.631,5.211,11.631,11.632V193.457z"/>
		<path fill="#5D869C" d="M257.292,166.583c0,3.514-2.846,6.361-6.36,6.361H24.849c-3.514,0-6.359-2.848-6.359-6.361
			c0-3.509,2.845-6.357,6.359-6.357h226.083C254.445,160.226,257.292,163.074,257.292,166.583z"/>
		<path fill="#1A3646" d="M24.235,46.98l5.744,15.592c0,0,55.805-21.338,132.942-0.821l2.459-13.952
			C165.38,47.799,102.191,21.539,24.235,46.98z"/>
		<polygon fill="#305061" points="259.207,110.441 246.079,110.441 246.079,84.452 259.207,81.995 		"/>
		<path fill="#1A3646" d="M265.774,184.297l31.182,47.597c0,0-28.993,15.315-45.406-3.282l-1.095-37.749L265.774,184.297z"/>
		<path fill="#5D869C" d="M252.238,223.689l2.126-33.894l-5.55,2.298l1.132,37.749c16.992,18.601,47.01,3.284,47.01,3.284
			l-0.807-1.195C288.321,234.44,264.791,240.192,252.238,223.689z"/>
		<path fill="#5D869C" d="M281.054,230.204c0.71,1.931-0.203,4.047-2.045,4.729c-1.845,0.681-3.913-0.333-4.628-2.264
			l-13.108-35.477c-0.714-1.931,0.202-4.047,2.041-4.727c1.843-0.681,3.915,0.333,4.629,2.262L281.054,230.204z"/>
		<path fill="#5D869C" d="M266.107,230.699c0.34,1.856-0.436,3.548-1.732,3.784c-1.297,0.238-2.618-1.075-2.962-2.928l-6.228-34.107
			c-0.342-1.855,0.434-3.552,1.731-3.788c1.297-0.236,2.62,1.076,2.962,2.929L266.107,230.699z"/>
		<path fill="#1A3646" d="M135.731,101.578c0,4.396-3.564,7.958-7.963,7.958H65.677c-4.396,0-7.962-3.562-7.962-7.958l-2.807-31.511
			c0-4.396,3.561-7.962,7.96-7.962h67.709c4.396,0,7.961,3.566,7.961,7.962L135.731,101.578z"/>
		<path fill="#5D869C" d="M130.914,99.632c0,3.853-3.122,6.979-6.978,6.979H69.51c-3.853,0-6.982-3.127-6.982-6.979L60.069,72.01
			c0-3.853,3.123-6.978,6.976-6.978h59.355c3.855,0,6.98,3.125,6.98,6.978L130.914,99.632z"/>
		<path fill="#305061" d="M114.506,201.529c0,21.456-17.392,38.843-38.845,38.843s-38.842-17.387-38.842-38.843
			c0-21.451,17.389-38.842,38.842-38.842S114.506,180.079,114.506,201.529z"/>
		<path fill="#1A3646" d="M92.072,201.529c0,9.066-7.348,16.417-16.411,16.417c-9.065,0-16.412-7.351-16.412-16.417
			c0-9.062,7.347-16.412,16.412-16.412C84.724,185.118,92.072,192.467,92.072,201.529z"/>
		<path fill="#305061" d="M225.562,207.823c0,17.976-14.575,32.55-32.553,32.55c-17.979,0-32.552-14.574-32.552-32.55
			c0-17.98,14.573-32.554,32.552-32.554C210.987,175.268,225.562,189.842,225.562,207.823z"/>
		<path fill="#1A3646" d="M205.868,207.823c0,7.1-5.758,12.856-12.858,12.856c-7.098,0-12.856-5.756-12.856-12.856
			c0-7.102,5.758-12.857,12.856-12.857C200.11,194.966,205.868,200.72,205.868,207.823z"/>
		<polygon fill="#305061" points="234.545,109.618 203.907,109.618 200.623,64.212 237.825,64.212 		"/>
		<polygon fill="#5D869C" points="239.127,64.212 199.324,64.212 179.628,30.157 258.82,30.157 		"/>
		<polygon fill="#95B2B3" points="239.947,8 198.505,8 179.628,30.977 258.82,30.977 		"/>
		<polygon fill="#1A3646" points="187.54,109.348 174.818,109.348 174.818,90.061 187.54,90.061 		"/>
		<path fill="#5D869C" d="M254.01,189.769c16.921,0,30.637-18.002,30.637-40.21c0-22.209-13.716-40.211-30.637-40.211
			c0,0-6.563,13.128-5.471,40.484C249.635,177.184,254.01,189.769,254.01,189.769z"/>
		<path fill="#305061" d="M250.18,151.747c0-19.26,5.275-35.583,12.583-41.304c-1.808-1.413-3.735-2.19-5.743-2.19
			c-10.124,0-18.33,19.47-18.33,43.494c0,24.02,8.206,43.493,18.33,43.493c2.008,0,3.935-0.777,5.743-2.194
			C255.455,187.33,250.18,171.003,250.18,151.747z"/>
		<path fill="#5D869C" d="M239.921,151.747c0-21.829,6.78-39.899,15.611-43.015c-0.322-0.041-0.646-0.069-0.973-0.069
			c-10.124,0-18.331,19.473-18.331,43.493c0,24.024,8.207,43.494,18.331,43.494c0.913,0,1.81-0.167,2.687-0.477
			C247.59,193.933,239.921,174.968,239.921,151.747z"/>
		<path fill="#F4ED69" d="M271.517,90.745c0,7.706-6.208,17.802-10.666,13.951c-6.018-5.197-10.67-6.245-10.67-13.951
			c0-7.702,4.652-10.941,10.67-13.949C266.118,74.16,271.517,83.043,271.517,90.745z"/>
		<path fill="#1A3646" d="M14.407,144.69c0,8.257-0.591,15.735-6.407,19.899v-39.362C13.815,129.39,14.407,136.43,14.407,144.69z"/>
		<path fill="#B4C9C7" d="M132.392,83.086l0.988-11.075c0-3.853-3.125-6.978-6.98-6.978H67.045c-3.853,0-6.976,3.125-6.976,6.978
			c0.328,3.692,0.658,7.384,0.986,11.075C84.834,95.684,108.613,94.679,132.392,83.086z"/>
		<path fill="#5D869C" d="M252.485,90.942c0-6.832,4.504-12.616,10.706-14.536c-1.426-0.446-2.943-0.683-4.517-0.683
			c-8.404,0-15.218,6.813-15.218,15.218c0,8.411,6.815,15.223,15.218,15.223c1.574,0,3.09-0.241,4.517-0.682
			C256.989,103.562,252.485,97.781,252.485,90.942z"/>
		<path fill="#1A3646" d="M193.686,90.472c0,2.755-2.234,4.988-4.989,4.988h-15.186c-2.756,0-4.991-2.233-4.991-4.988
			c0-2.756,2.235-4.989,4.991-4.989h15.186C191.452,85.483,193.686,87.716,193.686,90.472z"/>
		<path fill="#5D869C" d="M193.4,201.391c0.133,2.604-3.114,4.987-7.257,5.32l-101.958,8.248c-4.14,0.334-7.603-1.505-7.739-4.107
			l-0.066-1.288c-0.133-2.604,3.115-4.984,7.255-5.32l101.96-8.249c4.14-0.334,7.604,1.505,7.739,4.106L193.4,201.391z"/>
	</g>
</g>
</svg>
