<?xml version="1.0" encoding="utf-8"?>
<!-- Generator: Adobe Illustrator 17.0.0, SVG Export Plug-In . SVG Version: 6.00 Build 0)  -->
<!DOCTYPE svg PUBLIC "-//W3C//DTD SVG 1.1 Basic//EN" "http://www.w3.org/Graphics/SVG/1.1/DTD/svg11-basic.dtd">
<svg version="1.1" baseProfile="basic" id="Слой_1"
	 xmlns="http://www.w3.org/2000/svg" xmlns:xlink="http://www.w3.org/1999/xlink" x="0px" y="0px" width="99.035px"
	 height="135.647px" viewBox="0 0 99.035 135.647" xml:space="preserve">
<path fill="#87BB50" d="M91.675,100.8C88.233,88.251,70.851,82.25,70.851,82.25s-0.058-0.085-0.148-0.23
	C58.682,77.219,53.14,69.874,50.633,63.518c18.805-3.085,32.916-15.97,32.916-31.406C83.549,14.376,64.925,0,41.95,0
	C18.976,0,0.35,14.376,0.35,32.112c0,0.427,0.02,0.85,0.042,1.274c-2.635,33.695,7.273,82.709,52.45,99.841
	c0.151-0.407,0.288-0.646,0.288-0.646c22.691,5.746,37.578,2.332,45.971-1.426C92.971,119.42,93.413,107.139,91.675,100.8z"/>
</svg>
