<?xml version="1.0" encoding="utf-8"?>
<!-- Generator: Adobe Illustrator 17.0.0, SVG Export Plug-In . SVG Version: 6.00 Build 0)  -->
<!DOCTYPE svg PUBLIC "-//W3C//DTD SVG 1.1 Basic//EN" "http://www.w3.org/Graphics/SVG/1.1/DTD/svg11-basic.dtd">
<svg version="1.1" baseProfile="basic" id="Слой_1"
	 xmlns="http://www.w3.org/2000/svg" xmlns:xlink="http://www.w3.org/1999/xlink" x="0px" y="0px" width="126.29px"
	 height="114.306px" viewBox="0 0 126.29 114.306" xml:space="preserve">
<path fill="#42BCAA" d="M121.052,80.208c8.183-1.518,5.831-12.982-0.564-26.29c-0.002-0.004-0.004-0.008-0.006-0.012
	c-0.153-0.318-0.308-0.636-0.465-0.956c-0.023-0.046-0.045-0.091-0.067-0.137c-0.147-0.298-0.296-0.597-0.447-0.897
	c-0.033-0.065-0.066-0.131-0.099-0.197c-0.146-0.287-0.293-0.576-0.441-0.865c-0.041-0.079-0.081-0.157-0.122-0.236
	c-0.144-0.279-0.29-0.559-0.438-0.839c-0.047-0.09-0.094-0.179-0.142-0.269c-0.144-0.272-0.289-0.545-0.436-0.818
	c-0.052-0.098-0.105-0.195-0.158-0.293c-0.145-0.269-0.291-0.537-0.438-0.806c-0.055-0.1-0.111-0.201-0.166-0.301
	c-0.147-0.267-0.295-0.534-0.443-0.801c-0.057-0.102-0.115-0.204-0.172-0.306c-0.151-0.27-0.303-0.539-0.456-0.809
	c-0.05-0.088-0.101-0.177-0.151-0.265c-0.161-0.282-0.323-0.564-0.486-0.847c-0.034-0.058-0.068-0.116-0.102-0.174
	c-0.582-1.003-1.177-2.004-1.783-3.002c-0.019-0.03-0.037-0.061-0.055-0.091c-0.148-0.243-0.297-0.485-0.446-0.728
	c-0.081-0.132-0.162-0.265-0.243-0.397c-0.133-0.215-0.267-0.429-0.4-0.644c-0.098-0.159-0.197-0.317-0.296-0.475
	c-0.126-0.201-0.254-0.403-0.381-0.603c-0.107-0.17-0.215-0.34-0.324-0.511c-0.123-0.194-0.247-0.386-0.371-0.579
	c-0.113-0.176-0.226-0.352-0.34-0.528c-0.122-0.189-0.245-0.378-0.368-0.566c-0.115-0.177-0.23-0.353-0.346-0.53
	c-0.121-0.185-0.243-0.37-0.364-0.554c-0.12-0.183-0.241-0.364-0.362-0.546c-0.117-0.176-0.234-0.352-0.352-0.528
	c-0.125-0.186-0.25-0.372-0.375-0.557c-0.117-0.172-0.232-0.344-0.349-0.516c-0.128-0.188-0.256-0.375-0.383-0.562
	c-0.113-0.166-0.227-0.331-0.34-0.496c-0.135-0.196-0.271-0.392-0.406-0.586c-0.107-0.155-0.214-0.309-0.322-0.463
	c-0.14-0.201-0.282-0.401-0.422-0.601c-0.103-0.146-0.206-0.293-0.309-0.439c-0.156-0.219-0.311-0.438-0.467-0.655
	c-0.087-0.122-0.175-0.246-0.263-0.368c-0.243-0.339-0.486-0.674-0.729-1.008C88.32,5.418,58.049,0,58.049,0
	s-0.208,1.546-0.347,4.189C57.702,4.2,57.701,4.21,57.7,4.221l0,0c-0.406,7.787-0.204,25.043,7.625,40.589
	c-0.035-0.016-0.069-0.03-0.104-0.047c-0.439-0.197-0.878-0.391-1.314-0.583c-0.605-0.266-1.213-0.518-1.822-0.762
	c-0.158-0.063-0.317-0.126-0.475-0.188c-0.55-0.216-1.101-0.426-1.654-0.626c-0.063-0.023-0.126-0.047-0.188-0.07
	c-0.608-0.218-1.218-0.425-1.829-0.623c-0.155-0.05-0.311-0.1-0.466-0.149c-0.524-0.167-1.049-0.328-1.574-0.48
	c-0.101-0.03-0.203-0.061-0.304-0.09c-0.61-0.175-1.22-0.34-1.83-0.496c-0.147-0.038-0.294-0.074-0.44-0.111
	c-0.512-0.128-1.023-0.251-1.535-0.367c-0.126-0.028-0.252-0.059-0.379-0.087c-0.609-0.135-1.218-0.262-1.825-0.381
	c-0.131-0.026-0.263-0.05-0.394-0.074c-0.511-0.097-1.021-0.189-1.53-0.275c-0.14-0.023-0.279-0.049-0.419-0.071
	c-0.606-0.099-1.212-0.192-1.816-0.276c-0.109-0.016-0.217-0.028-0.326-0.043c-0.518-0.071-1.034-0.135-1.55-0.195
	c-0.148-0.017-0.295-0.035-0.441-0.051c-0.603-0.067-1.203-0.128-1.802-0.181c-0.071-0.006-0.142-0.011-0.214-0.017
	c-0.538-0.047-1.074-0.087-1.608-0.124c-0.15-0.01-0.3-0.02-0.45-0.03c-0.596-0.038-1.19-0.071-1.78-0.096
	c-0.012-0.001-0.025-0.001-0.037-0.001c-0.581-0.025-1.159-0.041-1.733-0.055c-0.146-0.003-0.291-0.006-0.436-0.009
	c-0.546-0.01-1.09-0.017-1.63-0.017c-0.039,0-0.079-0.001-0.118-0.001c-0.577,0-1.15,0.006-1.719,0.017
	c-0.139,0.003-0.276,0.006-0.415,0.008c-0.5,0.011-0.996,0.025-1.489,0.043c-0.074,0.003-0.15,0.005-0.223,0.008
	c-0.559,0.022-1.111,0.049-1.66,0.079c-0.126,0.007-0.25,0.015-0.374,0.022c-0.468,0.028-0.933,0.058-1.394,0.092
	c-0.094,0.007-0.189,0.013-0.282,0.02c-0.537,0.041-1.069,0.085-1.596,0.132c-0.106,0.01-0.21,0.02-0.316,0.03
	c-0.449,0.042-0.895,0.086-1.335,0.133c-0.102,0.009-0.203,0.019-0.304,0.03c-0.515,0.056-1.024,0.115-1.526,0.177
	c-0.08,0.01-0.158,0.02-0.237,0.03c-0.438,0.055-0.871,0.111-1.299,0.17c-0.102,0.014-0.205,0.028-0.307,0.042
	c-0.489,0.069-0.973,0.139-1.449,0.212c-0.044,0.006-0.087,0.014-0.131,0.021c-0.437,0.067-0.867,0.137-1.292,0.207
	c-0.096,0.016-0.193,0.032-0.289,0.048c-0.924,0.156-1.818,0.318-2.677,0.484c-0.083,0.016-0.167,0.032-0.25,0.049
	c-0.86,0.168-1.684,0.339-2.472,0.511c-0.069,0.015-0.136,0.03-0.204,0.045c-0.381,0.084-0.755,0.168-1.118,0.252
	c-0.006,0.001-0.013,0.003-0.019,0.005c-0.383,0.089-0.753,0.177-1.115,0.265c-0.05,0.012-0.098,0.024-0.148,0.036
	c-0.333,0.082-0.658,0.162-0.973,0.242c-0.014,0.003-0.028,0.007-0.042,0.01c0.001,0,0.001,0,0.001,0
	C2.467,42.716,0,43.615,0,43.615s9.039,21.803,28.058,37.113C14.672,85.979,5.523,94.296,5.523,94.296s19.215,19.369,43.511,19.988
	c21.1,0.537,34.472-8.808,41.635-15.128c9.675,0.534,17.416-1.511,21.983-2.86c8.016-2.368,7.33-7.746,2.231-14.022
	c-0.049-0.625-0.183-1.266-0.385-1.92c-0.014-0.046-0.027-0.091-0.041-0.137c-0.042-0.129-0.088-0.26-0.136-0.39
	c0.769,0.131,1.493,0.245,2.155,0.346c1.486,0.225,2.777,0.26,3.898,0.135v0.001c0.005-0.001,0.009-0.001,0.014-0.002
	c0.223-0.025,0.439-0.057,0.648-0.095C121.042,80.21,121.047,80.209,121.052,80.208z"/>
</svg>
