<?xml version="1.0" encoding="utf-8"?>
<!-- Generator: Adobe Illustrator 17.0.0, SVG Export Plug-In . SVG Version: 6.00 Build 0)  -->
<!DOCTYPE svg PUBLIC "-//W3C//DTD SVG 1.1 Basic//EN" "http://www.w3.org/Graphics/SVG/1.1/DTD/svg11-basic.dtd">
<svg version="1.1" baseProfile="basic" id="Слой_1"
	 xmlns="http://www.w3.org/2000/svg" xmlns:xlink="http://www.w3.org/1999/xlink" x="0px" y="0px" width="315px" height="250px"
	 viewBox="0 0 315 250" xml:space="preserve">
<path fill="#EB7272" d="M1602.97,686.224c0.358-0.247,0.715-0.495,1.073-0.742c0.084,0.127,0.169,0.254,0.253,0.381
	c-0.434,0.129-0.868,0.259-1.302,0.388C1602.994,686.25,1602.97,686.224,1602.97,686.224z"/>
<path fill="#EB7272" d="M1570.006,1049.175c0.243,0.36,0.489,0.718,0.714,1.089c0.004,0.007-0.235,0.163-0.361,0.249
	c-0.133-0.432-0.267-0.865-0.401-1.297C1569.957,1049.216,1570.006,1049.175,1570.006,1049.175z"/>
<g>
	<path fill="#573B1C" stroke="#FFFFFF" stroke-width="6" stroke-miterlimit="10" d="M258.408,62.487
		c0.151,0.23,0.304,0.456,0.454,0.689C258.712,62.944,258.559,62.717,258.408,62.487z"/>
	<path fill="#573B1C" stroke="#FFFFFF" stroke-width="6" stroke-miterlimit="10" d="M262.008,68.488
		c0.137,0.25,0.276,0.495,0.411,0.748C262.284,68.984,262.144,68.738,262.008,68.488z"/>
	<path fill="#573B1C" stroke="#FFFFFF" stroke-width="6" stroke-miterlimit="10" d="M280.653,139.392
		c-0.005,0.042-0.011,0.085-0.017,0.127C280.642,139.477,280.648,139.435,280.653,139.392z"/>
	<path fill="#573B1C" stroke="#FFFFFF" stroke-width="6" stroke-miterlimit="10" d="M280.732,138.604c0,0.001,0,0.001,0,0.002
		C280.732,138.606,280.732,138.605,280.732,138.604z"/>
	<path fill="#573B1C" stroke="#FFFFFF" stroke-width="6" stroke-miterlimit="10" d="M250.332,52.164
		c-0.641-0.692-1.288-1.373-1.944-2.032C249.045,50.791,249.691,51.473,250.332,52.164z"/>
	<path fill="#573B1C" stroke="#FFFFFF" stroke-width="6" stroke-miterlimit="10" d="M265.279,75.123
		c0.178,0.402,0.355,0.807,0.529,1.215C265.633,75.93,265.457,75.525,265.279,75.123z"/>
	<path fill="#573B1C" stroke="#FFFFFF" stroke-width="6" stroke-miterlimit="10" d="M266.759,78.65
		c0.164,0.414,0.328,0.831,0.488,1.252C267.087,79.481,266.924,79.064,266.759,78.65z"/>
	<path fill="#573B1C" stroke="#FFFFFF" stroke-width="6" stroke-miterlimit="10" d="M272.59,98.968
		c0.109,0.567,0.211,1.142,0.314,1.718C272.801,100.111,272.699,99.535,272.59,98.968z"/>
	<path fill="#573B1C" stroke="#FFFFFF" stroke-width="6" stroke-miterlimit="10" d="M304.884,112.786
		c0.331-1.599-1.786-1.037-1.786-1.037c-10.714,2.701-22.019-2.63-29.601-7.557c-0.063-0.416-0.141-0.812-0.207-1.223
		c0.154,0.959,0.3,1.93,0.437,2.912c-0.166-1.189-0.348-2.357-0.539-3.512c0.033,0.201,0.069,0.398,0.101,0.6
		c-0.124-0.768-0.252-1.529-0.386-2.283c0.018,0.103,0.035,0.209,0.053,0.313c-0.192-1.091-0.397-2.165-0.612-3.226
		c0.081,0.4,0.167,0.792,0.245,1.196c-0.097-0.508-0.202-1.006-0.304-1.507c-0.057-0.278-0.113-0.556-0.171-0.832
		c-0.062-0.295-0.122-0.594-0.186-0.886c0.051,0.233,0.095,0.475,0.145,0.709c-0.223-1.047-0.459-2.075-0.703-3.092
		c0.065,0.273,0.134,0.542,0.198,0.816c-0.11-0.474-0.22-0.949-0.335-1.417c-0.05-0.204-0.104-0.404-0.155-0.607
		c-0.012-0.046-0.023-0.092-0.035-0.138c0.006,0.023,0.011,0.047,0.017,0.071c-0.252-1.002-0.518-1.985-0.791-2.959
		c0.132,0.47,0.27,0.931,0.397,1.408c-0.163-0.611-0.334-1.211-0.504-1.811c-0.054-0.191-0.106-0.386-0.161-0.576
		c-0.062-0.214-0.124-0.426-0.187-0.638c0.037,0.126,0.071,0.258,0.108,0.384c-0.28-0.958-0.574-1.896-0.873-2.826
		c0.11,0.34,0.222,0.676,0.329,1.02c-0.157-0.504-0.316-1.005-0.478-1.501c-0.078-0.238-0.157-0.474-0.236-0.711
		c-0.144-0.43-0.286-0.862-0.435-1.286c0.145,0.415,0.284,0.839,0.425,1.26c-0.304-0.906-0.621-1.792-0.942-2.672
		c0.172,0.47,0.35,0.933,0.517,1.411c-0.318-0.911-0.648-1.805-0.984-2.688c0.016,0.042,0.031,0.086,0.047,0.127
		c-0.332-0.874-0.678-1.728-1.027-2.575c0.164,0.398,0.332,0.792,0.492,1.196c-0.217-0.547-0.439-1.087-0.663-1.624
		c-0.094-0.226-0.188-0.452-0.284-0.676c-0.002-0.004-0.003-0.008-0.005-0.012c0.001,0.003,0.003,0.006,0.004,0.01
		c-0.355-0.833-0.724-1.644-1.096-2.451c0.188,0.408,0.379,0.811,0.563,1.226c-0.281-0.634-0.566-1.263-0.857-1.882
		c-0.065-0.139-0.132-0.275-0.198-0.413c-0.159-0.334-0.32-0.666-0.482-0.996c0.148,0.301,0.293,0.606,0.439,0.911
		c-0.364-0.762-0.74-1.505-1.119-2.244c0.227,0.443,0.458,0.882,0.68,1.334c-0.304-0.618-0.613-1.226-0.927-1.828
		c-0.08-0.153-0.157-0.309-0.237-0.461c-0.054-0.102-0.106-0.205-0.159-0.306c0.04,0.076,0.078,0.156,0.118,0.232
		c-0.399-0.754-0.811-1.486-1.225-2.215c0.233,0.41,0.467,0.817,0.695,1.235c-0.328-0.601-0.659-1.195-0.997-1.78
		c-0.085-0.147-0.169-0.296-0.255-0.442c-0.13-0.223-0.261-0.445-0.393-0.666c0.102,0.171,0.201,0.345,0.302,0.517
		c-0.391-0.667-0.793-1.315-1.197-1.961c0.299,0.479,0.602,0.954,0.895,1.444c-0.453-0.759-0.911-1.508-1.38-2.24
		c-0.003-0.005-0.006-0.009-0.009-0.014c-0.037-0.058-0.075-0.113-0.112-0.171c0.008,0.013,0.016,0.026,0.024,0.039
		c-0.443-0.688-0.898-1.353-1.354-2.018c0.293,0.427,0.588,0.852,0.876,1.29c-0.391-0.595-0.788-1.181-1.19-1.757
		c-0.096-0.138-0.19-0.279-0.286-0.416c-0.092-0.131-0.185-0.261-0.278-0.391c0.064,0.09,0.126,0.182,0.19,0.272
		c-0.441-0.623-0.893-1.227-1.346-1.83c0.387,0.515,0.777,1.027,1.156,1.557c-0.525-0.735-1.059-1.455-1.6-2.161
		c-0.052-0.067-0.103-0.136-0.155-0.203c-0.13-0.169-0.263-0.332-0.394-0.498c0.081,0.103,0.162,0.206,0.243,0.31
		c-0.458-0.589-0.924-1.162-1.392-1.731c0.386,0.469,0.771,0.938,1.149,1.42c-0.485-0.618-0.975-1.226-1.472-1.821
		c-0.081-0.097-0.16-0.199-0.241-0.295c-0.047-0.056-0.095-0.112-0.142-0.168c0.03,0.035,0.059,0.072,0.089,0.108
		c-0.567-0.672-1.145-1.323-1.726-1.967c0.551,0.61,1.099,1.224,1.637,1.859c-0.603-0.712-1.216-1.405-1.835-2.085
		c-0.066-0.073-0.13-0.15-0.196-0.222c-0.095-0.104-0.193-0.201-0.288-0.304c0.022,0.024,0.044,0.048,0.066,0.072
		c-2.196-2.376-4.485-4.56-6.849-6.559c-0.716-0.605-1.438-1.194-2.166-1.766c-0.265-0.209-0.534-0.407-0.801-0.612
		c-0.508-0.389-1.017-0.776-1.531-1.15c-0.314-0.228-0.63-0.449-0.945-0.672c-0.473-0.334-0.947-0.664-1.423-0.986
		c-0.336-0.227-0.674-0.449-1.012-0.67c-0.223-0.146-0.444-0.299-0.669-0.443c0.223,0.142,0.443,0.295,0.665,0.44
		c-32.87-21.451-74.255-14.496-74.255-14.496s-46.708,4.197-69.149,54.189c0,0-12.955-0.183-13.502,4.379
		c-0.474,3.958,1.446,7.335,1.964,8.161c-0.008-0.013-0.012-0.018-0.021-0.032c-12.022-4.802-17.563-12.147-20.071-18.502
		c18.805-3.085,32.916-15.97,32.916-31.406C93.549,24.376,74.925,10,51.95,10s-41.6,14.376-41.6,32.112
		c0,0.427,0.02,0.85,0.042,1.274c-2.635,33.694,7.273,82.708,52.449,99.84c0.014-0.037,0.026-0.066,0.04-0.1
		c-0.655,1.671-1.813,6.765,7.062,9.185c10.679,2.913,10.707,19.385,47.435,16.077c-0.204,0.018-0.402,0.033-0.603,0.05
		c0.207-0.018,0.405-0.03,0.615-0.049c0.986,12.912,4.454,30.918,12.468,55.989c0,0,4.158,26.435,43.91,6.107
		c3.206-1.458,2.733-4.842,2.733-4.842c-0.396-2.755-1.927-8.214-7.623-15.492c-10.014-12.79-23.038-28.7-20.523-43.299
		c-0.096-0.021-0.187-0.044-0.282-0.065c9.429,2.061,20.903,3.218,34.886,3.125c-0.248,0.002-0.501,0.006-0.748,0.007
		c-2.367,11.497-5.238,27.152,10.745,27.613c21.367,0.615,25.299-0.974,25.299-0.974s2.336,0.004,1.703-29.24
		c0.037-0.005,0.071-0.01,0.107-0.015c-0.292,0.037-0.597,0.071-0.891,0.108c8.504-1.052,15.854-2.315,22.197-3.727
		c-0.183,0.041-0.359,0.082-0.543,0.123c8.735,5.32,16.827,11.319,18.675,16.145c4.38,11.433-5.109,28.706-1.945,30.651
		c3.161,1.947,26.759,11.191,43.058-1.945c0,0,2.19-23.598-1.702-31.14c-2.391-4.631-9.647-18.708-20.351-32.489
		c0.05-0.08,0.087-0.157,0.135-0.237c0.048-0.081,0.098-0.162,0.145-0.242c0.051-0.089,0.098-0.177,0.147-0.265
		c0.021-0.039,0.043-0.077,0.064-0.116c0.098-0.181,0.191-0.359,0.278-0.537c-0.006,0.011-0.011,0.023-0.017,0.034
		c0.008-0.016,0.015-0.031,0.023-0.046c-0.002,0.004-0.004,0.008-0.006,0.012c0.039-0.079,0.08-0.159,0.117-0.237
		c0.047-0.099,0.09-0.197,0.134-0.294c0.063-0.141,0.127-0.283,0.184-0.422c0.026-0.062,0.047-0.123,0.072-0.185
		c0.035-0.09,0.069-0.179,0.102-0.268c0.029-0.079,0.06-0.158,0.088-0.236c0.053-0.151,0.101-0.3,0.147-0.448
		c0.018-0.057,0.037-0.115,0.054-0.172c0.022-0.074,0.041-0.146,0.061-0.219c-0.001,0.004-0.003,0.009-0.004,0.013
		c0.011-0.038,0.021-0.076,0.032-0.114c-0.009,0.034-0.018,0.067-0.028,0.101c0.063-0.227,0.12-0.449,0.169-0.668
		c-0.009,0.042-0.02,0.084-0.03,0.126c0.013-0.057,0.027-0.114,0.039-0.171c-0.003,0.015-0.006,0.029-0.009,0.044
		c0.01-0.047,0.022-0.094,0.031-0.14c0.012-0.058,0.024-0.116,0.035-0.174c0.044-0.222,0.08-0.438,0.11-0.65
		c-0.003,0.019-0.006,0.039-0.009,0.058c0.012-0.084,0.024-0.167,0.034-0.25c-0.003,0.022-0.005,0.043-0.008,0.065
		c0.032-0.245,0.057-0.482,0.074-0.713c0.001-0.007,0.001-0.015,0.001-0.022c0.001-0.017,0.002-0.034,0.003-0.051
		c0,0.007-0.001,0.014-0.002,0.021c0.008-0.122,0.014-0.241,0.018-0.359c-0.004,0.111-0.009,0.222-0.016,0.336
		c0.168-2.619-0.594-4.294-0.594-4.294c-0.487-2.92-4.866-6.812-4.866-6.812c0-0.079-0.002-0.157-0.004-0.237
		C301.536,127.602,304.581,114.247,304.884,112.786z M63.129,142.58c-0.001,0.001-0.015,0.027-0.04,0.076
		C63.112,142.611,63.129,142.58,63.129,142.58L63.129,142.58z M62.978,142.891c-0.016,0.036-0.033,0.077-0.051,0.119
		C62.945,142.967,62.961,142.928,62.978,142.891z M63.089,142.657c-0.022,0.043-0.053,0.106-0.087,0.182
		C63.037,142.761,63.067,142.699,63.089,142.657z M109.1,141.154c-6.129-11.734-5.687-24.015-7.425-30.354
		c-3.442-12.55-20.823-18.55-20.823-18.55s-0.015-0.022-0.026-0.04c0.015,0.023,0.026,0.039,0.026,0.039s17.381,6.001,20.823,18.549
		c1.738,6.34,1.297,18.62,7.426,30.355C109.101,141.153,109.1,141.153,109.1,141.154z M80.802,92.173
		c0.005,0.007,0.013,0.02,0.017,0.026C80.813,92.19,80.809,92.184,80.802,92.173z M117.545,152.28
		c0.357,0.335,0.727,0.667,1.103,0.997C118.272,152.947,117.902,152.616,117.545,152.28
		C117.545,152.281,117.545,152.28,117.545,152.28z M129.856,160.648c0.212,0.104,0.433,0.205,0.648,0.308
		C130.289,160.854,130.068,160.753,129.856,160.648z M118.79,153.405c0.239,0.208,0.49,0.411,0.737,0.616
		C119.28,153.816,119.029,153.612,118.79,153.405z M120.124,154.52c0.21,0.169,0.432,0.334,0.647,0.501
		C120.556,154.854,120.334,154.689,120.124,154.52z M121.538,155.613c0.199,0.148,0.409,0.292,0.613,0.439
		C121.947,155.905,121.737,155.761,121.538,155.613z M123.031,156.679c0.199,0.137,0.409,0.27,0.612,0.405
		C123.44,156.949,123.231,156.816,123.031,156.679z M124.606,157.717c0.202,0.128,0.413,0.252,0.619,0.378
		C125.019,157.968,124.808,157.844,124.606,157.717z M126.269,158.726c0.202,0.118,0.414,0.233,0.621,0.349
		C126.683,158.959,126.471,158.844,126.269,158.726z M128.017,159.704c0.207,0.111,0.422,0.218,0.633,0.328
		C128.44,159.922,128.224,159.815,128.017,159.704z M133.813,162.43c0.227,0.093,0.462,0.183,0.692,0.275
		C134.275,162.614,134.04,162.524,133.813,162.43z M131.788,161.558c0.218,0.098,0.444,0.193,0.665,0.29
		C132.232,161.751,132.006,161.656,131.788,161.558z M142.904,165.514c0.27,0.074,0.546,0.146,0.82,0.219
		C143.45,165.66,143.173,165.589,142.904,165.514z M138.155,164.057c0.247,0.084,0.502,0.165,0.752,0.247
		C138.657,164.221,138.402,164.141,138.155,164.057z M140.477,164.807c0.259,0.08,0.525,0.156,0.787,0.234
		C141.002,164.963,140.736,164.887,140.477,164.807z M135.935,163.264c0.236,0.089,0.481,0.174,0.721,0.261
		C136.415,163.438,136.171,163.352,135.935,163.264z M145.435,166.175c0.285,0.07,0.576,0.137,0.865,0.206
		C146.011,166.312,145.72,166.245,145.435,166.175z M264.786,156.025c0.204-0.099,0.401-0.199,0.6-0.299
		C265.187,155.826,264.99,155.925,264.786,156.025z M261.898,157.346c0.232-0.1,0.463-0.2,0.69-0.301
		C262.362,157.146,262.131,157.246,261.898,157.346z M263.381,156.688c0.218-0.1,0.432-0.2,0.644-0.3
		C263.813,156.488,263.599,156.588,263.381,156.688z M276.244,148.033c0.057-0.062,0.109-0.123,0.165-0.184
		C276.353,147.91,276.301,147.971,276.244,148.033z M277.079,147.07c0.077-0.093,0.155-0.187,0.229-0.28
		C277.235,146.883,277.156,146.977,277.079,147.07z M277.583,146.434c0.072-0.095,0.144-0.19,0.213-0.285
		C277.727,146.243,277.655,146.339,277.583,146.434z M278.047,145.797c0.066-0.094,0.129-0.188,0.192-0.282
		C278.176,145.609,278.112,145.703,278.047,145.797z M275.611,148.691c0.095-0.096,0.186-0.191,0.277-0.286
		C275.796,148.5,275.706,148.595,275.611,148.691z M274.923,149.355c0.105-0.098,0.207-0.196,0.309-0.294
		C275.13,149.159,275.028,149.257,274.923,149.355z M274.182,150.022c0.113-0.099,0.226-0.197,0.336-0.295
		C274.408,149.825,274.295,149.923,274.182,150.022z M243.548,45.675c-0.714-0.604-1.435-1.191-2.161-1.762
		C242.113,44.485,242.834,45.072,243.548,45.675z M240.564,43.286c-0.5-0.383-1.001-0.764-1.507-1.132
		C239.563,42.522,240.064,42.903,240.564,43.286z M238.09,41.466c-0.465-0.328-0.931-0.654-1.401-0.97
		C237.159,40.813,237.625,41.138,238.09,41.466z M196.486,169.47c1.17-0.067,2.358-0.143,3.558-0.225
		C198.844,169.327,197.656,169.403,196.486,169.47z M188.218,169.822c0.99-0.027,1.993-0.061,3.008-0.101
		C190.211,169.76,189.208,169.794,188.218,169.822z M205.926,168.789c1.089-0.094,2.172-0.188,3.231-0.288
		C208.099,168.601,207.016,168.696,205.926,168.789z M187.314,169.846c-1.04,0.025-2.064,0.042-3.078,0.054
		C185.25,169.889,186.274,169.872,187.314,169.846z M205.167,168.857c-1.358,0.114-2.69,0.215-4.011,0.31
		C202.476,169.072,203.809,168.971,205.167,168.857z M195.955,169.5c-1.195,0.066-2.37,0.122-3.535,0.172
		C193.585,169.622,194.76,169.567,195.955,169.5z M211.24,168.294c0.573-0.057,1.157-0.113,1.721-0.172
		C212.397,168.182,211.813,168.237,211.24,168.294z M215.481,167.846c0.377-0.042,0.764-0.083,1.137-0.126
		C216.245,167.763,215.858,167.803,215.481,167.846z M243.8,163.124c-0.398,0.095-0.798,0.19-1.205,0.283
		C243.001,163.314,243.401,163.219,243.8,163.124z M249.24,161.725c-0.52,0.145-1.054,0.288-1.591,0.431
		C248.185,162.014,248.719,161.87,249.24,161.725z M246.163,162.542c-0.398,0.101-0.794,0.203-1.2,0.303
		C245.37,162.745,245.765,162.643,246.163,162.542z M250.291,161.424c0.343-0.099,0.687-0.197,1.023-0.297
		C250.978,161.227,250.634,161.325,250.291,161.424z M252.361,160.809c0.314-0.097,0.627-0.194,0.935-0.291
		C252.988,160.615,252.675,160.712,252.361,160.809z M254.31,160.192c0.299-0.098,0.592-0.196,0.885-0.295
		C254.902,159.995,254.609,160.094,254.31,160.192z M256.162,159.567c0.293-0.102,0.576-0.205,0.862-0.307
		C256.739,159.363,256.455,159.465,256.162,159.567z M258.305,158.791c0.393-0.148,0.785-0.295,1.164-0.444
		C259.09,158.496,258.697,158.644,258.305,158.791z M260.33,158c0.247-0.1,0.495-0.2,0.736-0.3
		C260.825,157.801,260.577,157.9,260.33,158z M273.852,106.786c0.191,1.43,0.365,2.882,0.518,4.362
		C274.217,109.669,274.043,108.217,273.852,106.786z M274.439,111.863c0.135,1.369,0.255,2.759,0.358,4.171
		C274.694,114.622,274.575,113.232,274.439,111.863z M274.854,116.782c0.105,1.536,0.188,3.101,0.254,4.688
		C275.042,119.884,274.959,118.319,274.854,116.782z M275.146,122.509c0.058,1.636,0.103,3.29,0.118,4.98
		C275.248,125.799,275.204,124.146,275.146,122.509z M273.745,150.397c-0.114,0.096-0.234,0.192-0.352,0.288
		C273.51,150.589,273.63,150.493,273.745,150.397z M272.171,151.634c-0.021,0.016-0.041,0.031-0.062,0.047
		C272.13,151.665,272.15,151.649,272.171,151.634z M271.579,152.059c-0.139,0.099-0.277,0.198-0.421,0.296
		C271.302,152.256,271.439,152.158,271.579,152.059z M270.6,152.73c-0.15,0.1-0.302,0.2-0.456,0.299
		C270.299,152.93,270.45,152.83,270.6,152.73z M269.554,153.404c-0.161,0.1-0.325,0.2-0.49,0.3
		C269.229,153.604,269.393,153.504,269.554,153.404z M268.436,154.079c-0.169,0.099-0.344,0.197-0.517,0.295
		C268.093,154.276,268.268,154.178,268.436,154.079z M267.254,154.751c-0.121,0.066-0.249,0.132-0.372,0.199
		C267.004,154.883,267.133,154.817,267.254,154.751z M278.465,145.17c0.06-0.094,0.116-0.187,0.172-0.28
		C278.581,144.983,278.525,145.076,278.465,145.17z M279.595,143.074c0.04-0.09,0.08-0.181,0.118-0.27
		C279.675,142.893,279.635,142.983,279.595,143.074z M280.051,141.924c0.031-0.089,0.059-0.177,0.087-0.265
		C280.109,141.747,280.081,141.835,280.051,141.924z M280.542,140.08c0.016-0.084,0.032-0.169,0.046-0.252
		C280.574,139.912,280.558,139.996,280.542,140.08z M280.689,139.093c0.009-0.087,0.016-0.173,0.024-0.258
		C280.706,138.921,280.698,139.006,280.689,139.093z M280.753,138.043c0.001-0.092,0.003-0.183,0.002-0.272
		C280.756,137.859,280.754,137.951,280.753,138.043z M280.128,134.309c0,0,0.049,0.108,0.12,0.308
		C280.177,134.416,280.128,134.31,280.128,134.309c-0.485-2.918-4.864-6.812-4.864-6.812v-0.001
		C275.264,127.496,279.643,131.39,280.128,134.309z M280.751,137.588c-0.002-0.077-0.004-0.154-0.007-0.229
		C280.748,137.434,280.75,137.511,280.751,137.588z M280.735,137.182c-0.004-0.074-0.01-0.147-0.015-0.218
		C280.725,137.035,280.73,137.108,280.735,137.182z M280.706,136.804c-0.007-0.076-0.015-0.15-0.024-0.223
		C280.691,136.654,280.699,136.728,280.706,136.804z M280.667,136.451c-0.014-0.111-0.03-0.219-0.046-0.323
		C280.638,136.231,280.653,136.339,280.667,136.451z M280.611,136.07c-0.014-0.087-0.029-0.171-0.045-0.252
		C280.582,135.899,280.597,135.983,280.611,136.07z M280.546,135.72c-0.013-0.064-0.026-0.127-0.04-0.187
		C280.52,135.593,280.533,135.655,280.546,135.72z M280.485,135.441c-0.014-0.061-0.029-0.12-0.043-0.176
		C280.457,135.322,280.471,135.38,280.485,135.441z M280.425,135.196c-0.017-0.066-0.035-0.128-0.052-0.187
		C280.39,135.068,280.407,135.13,280.425,135.196z M280.365,134.981c-0.042-0.143-0.082-0.265-0.117-0.364
		C280.283,134.716,280.323,134.838,280.365,134.981z"/>
	<path fill="#573B1C" stroke="#FFFFFF" stroke-width="6" stroke-miterlimit="10" d="M269.381,86.087
		c0.147,0.472,0.293,0.943,0.435,1.422C269.674,87.03,269.528,86.559,269.381,86.087z"/>
	<path fill="#573B1C" stroke="#FFFFFF" stroke-width="6" stroke-miterlimit="10" d="M271.569,94.177
		c0.121,0.52,0.244,1.038,0.36,1.566C271.814,95.215,271.69,94.697,271.569,94.177z"/>
	<path fill="#573B1C" stroke="#FFFFFF" stroke-width="6" stroke-miterlimit="10" d="M270.668,90.534
		c0.13,0.487,0.252,0.985,0.377,1.48C270.92,91.52,270.798,91.022,270.668,90.534z"/>
</g>
<g>
	<g>
		<g>
			<g>
				<path fill="#8B9242" d="M224.742,33.791c0.354,0.163,0.707,0.327,1.06,0.495C225.448,34.118,225.095,33.953,224.742,33.791z"/>
				<path fill="#8B9242" d="M215.488,30.122c0.244,0.082,0.489,0.167,0.733,0.251C215.977,30.288,215.732,30.204,215.488,30.122z"/>
				<path fill="#8B9242" d="M216.762,30.561c0.264,0.093,0.529,0.189,0.794,0.285C217.291,30.75,217.026,30.654,216.762,30.561z"/>
				<path fill="#8B9242" d="M219.319,31.503c0.367,0.141,0.733,0.286,1.1,0.432C220.052,31.789,219.685,31.644,219.319,31.503z"/>
				<path fill="#8B9242" d="M223.29,33.137c0.408,0.179,0.816,0.362,1.223,0.548C224.105,33.498,223.698,33.316,223.29,33.137z"/>
				<path fill="#8B9242" d="M220.599,32.006c0.876,0.352,1.752,0.719,2.626,1.102C222.352,32.725,221.476,32.358,220.599,32.006z"/>
				<path fill="#8B9242" d="M218.04,31.022c0.295,0.109,0.591,0.221,0.886,0.333C218.631,31.242,218.336,31.131,218.04,31.022z"/>
				<path fill="#8B9242" d="M214.215,29.702c0.231,0.074,0.461,0.15,0.692,0.226C214.677,29.852,214.446,29.776,214.215,29.702z"/>
				<path fill="#8B9242" d="M210.434,28.563c0.198,0.055,0.395,0.111,0.593,0.168C210.829,28.674,210.631,28.619,210.434,28.563z"/>
				<path fill="#8B9242" d="M209.197,28.225c0.183,0.049,0.365,0.097,0.548,0.147C209.562,28.322,209.38,28.274,209.197,28.225z"/>
				<path fill="#8B9242" d="M212.95,29.303c0.218,0.067,0.436,0.135,0.655,0.204C213.386,29.439,213.168,29.37,212.95,29.303z"/>
				<path fill="#8B9242" d="M211.686,28.923c0.209,0.061,0.417,0.123,0.626,0.186C212.103,29.046,211.895,28.984,211.686,28.923z"/>
				<path fill="#8B9242" d="M243.674,45.779c0.392,0.333,0.782,0.671,1.17,1.014C244.456,46.45,244.066,46.112,243.674,45.779z"/>
				<path fill="#8B9242" d="M244.898,46.841c0.375,0.332,0.747,0.669,1.118,1.01C245.645,47.51,245.272,47.173,244.898,46.841z"/>
				<path fill="#8B9242" d="M207.98,27.907c0.163,0.042,0.327,0.083,0.49,0.125C208.307,27.99,208.143,27.949,207.98,27.907z"/>
				<path fill="#8B9242" d="M235.002,39.379c2.965,1.894,5.865,4.016,8.661,6.391C240.867,43.395,237.968,41.273,235.002,39.379z"/>
				<path fill="#8B9242" d="M233.759,38.6c0.374,0.229,0.747,0.463,1.118,0.699C234.505,39.063,234.133,38.83,233.759,38.6z"/>
				<path fill="#8B9242" d="M246.088,47.919c0.368,0.34,0.733,0.684,1.096,1.033C246.821,48.602,246.456,48.258,246.088,47.919z"/>
				<path fill="#8B9242" d="M247.248,49.013c0.37,0.356,0.737,0.717,1.103,1.083C247.986,49.729,247.618,49.369,247.248,49.013z"/>
				<path fill="#8B9242" d="M231.247,37.119c0.332,0.188,0.663,0.379,0.994,0.573C231.911,37.498,231.579,37.307,231.247,37.119z"/>
				<path fill="#8B9242" d="M227.405,35.071c0.323,0.162,0.646,0.326,0.968,0.492C228.051,35.396,227.728,35.233,227.405,35.071z"/>
				<path fill="#8B9242" d="M228.695,35.731c0.322,0.168,0.644,0.338,0.965,0.511C229.339,36.069,229.017,35.899,228.695,35.731z"/>
				<path fill="#8B9242" d="M304.884,112.786c0.331-1.599-1.786-1.037-1.786-1.037c-10.714,2.701-22.019-2.63-29.601-7.557
					c-3.776-24.873-13.219-42.131-25.109-54.06c15.294,15.347,26.534,39.518,26.876,77.364c0,0,4.379,3.894,4.864,6.813
					c0,0,8.779,18.959-39.3,29.498c8.735,5.32,16.827,11.319,18.675,16.145c4.38,11.433-5.109,28.706-1.945,30.651
					c3.161,1.947,26.759,11.191,43.058-1.945c0,0,2.19-23.598-1.702-31.14c-2.391-4.631-9.647-18.708-20.351-32.489
					c3.746-6.018,1.575-10.719,1.575-10.719c-0.487-2.92-4.866-6.812-4.866-6.812c0-0.079-0.002-0.157-0.004-0.237
					C301.536,127.602,304.581,114.247,304.884,112.786z"/>
				<path fill="#8B9242" d="M226.088,34.424c0.333,0.16,0.666,0.322,0.998,0.486C226.753,34.746,226.421,34.584,226.088,34.424z"/>
				<path fill="#8B9242" d="M232.507,37.848c0.348,0.205,0.695,0.413,1.041,0.625C233.202,38.261,232.855,38.053,232.507,37.848z"/>
				<path fill="#8B9242" d="M229.976,36.414c0.324,0.177,0.648,0.355,0.971,0.537C230.625,36.769,230.301,36.59,229.976,36.414z"/>
				<path fill="#8B9242" d="M102.93,168.636c-0.067-0.005-0.136-0.009-0.203-0.014C102.794,168.627,102.863,168.631,102.93,168.636z
					"/>
				<path fill="#8B9242" d="M101.18,168.481c-0.111-0.011-0.22-0.024-0.33-0.036C100.96,168.458,101.069,168.47,101.18,168.481z"/>
				<path fill="#8B9242" d="M104.835,168.748c-0.172-0.008-0.343-0.016-0.513-0.025C104.491,168.732,104.663,168.74,104.835,168.748
					z"/>
				<path fill="#8B9242" d="M99.558,168.29c-0.069-0.009-0.139-0.018-0.208-0.027C99.419,168.272,99.489,168.281,99.558,168.29z"/>
				<path fill="#8B9242" d="M97.877,168.039c-0.02-0.003-0.04-0.007-0.061-0.011C97.836,168.032,97.856,168.036,97.877,168.039z"/>
				<path fill="#8B9242" d="M106.547,168.807c-0.128-0.003-0.252-0.008-0.379-0.011
					C106.296,168.799,106.419,168.804,106.547,168.807z"/>
				<path fill="#8B9242" d="M108.208,168.824c0.216,0,0.437-0.002,0.657-0.003C108.645,168.822,108.424,168.824,108.208,168.824z"/>
				<path fill="#8B9242" d="M220.065,167.303c-4.603,0.583-9.547,1.104-14.864,1.551c-8.341,0.701-15.982,1.041-22.99,1.065
					c-2.367,11.497-5.238,27.152,10.745,27.613c21.367,0.615,25.299-0.974,25.299-0.974s2.336,0.004,1.703-29.24
					C219.995,167.313,220.029,167.308,220.065,167.303z"/>
				<path fill="#8B9242" d="M96.454,167.778c-0.041-0.008-0.083-0.016-0.123-0.024C96.372,167.762,96.413,167.77,96.454,167.778z"/>
				<path fill="#8B9242" d="M222.787,166.946c0.075-0.01,0.149-0.02,0.224-0.031C222.936,166.925,222.862,166.935,222.787,166.946z"
					/>
				<path fill="#8B9242" d="M115.404,168.548c-0.303,0.022-0.602,0.042-0.9,0.062C114.802,168.591,115.101,168.571,115.404,168.548z
					"/>
				<path fill="#8B9242" d="M168.878,210.151c-10.014-12.79-23.038-28.7-20.523-43.299c-14.535-3.135-24.246-8.408-30.811-14.572
					c-0.522,4.205-0.67,9.485-0.164,16.108c-0.205,0.018-0.403,0.033-0.605,0.05c0.207-0.018,0.405-0.03,0.615-0.049
					c0.986,12.912,4.454,30.918,12.468,55.989c0,0,4.158,26.435,43.91,6.107c3.206-1.458,2.733-4.842,2.733-4.842
					C176.105,222.888,174.574,217.429,168.878,210.151z"/>
				<path fill="#8B9242" d="M198.74,25.965c0.06,0.01,0.121,0.021,0.181,0.031C198.861,25.986,198.8,25.975,198.74,25.965z"/>
				<path fill="#8B9242" d="M196.409,25.598c0.049,0.007,0.098,0.014,0.146,0.022C196.507,25.613,196.458,25.606,196.409,25.598z"/>
				<path fill="#8B9242" d="M199.93,26.17c0.054,0.01,0.108,0.02,0.162,0.029C200.037,26.19,199.983,26.18,199.93,26.17z"/>
				<path fill="#8B9242" d="M197.567,25.775c0.056,0.009,0.112,0.018,0.168,0.027C197.679,25.792,197.623,25.783,197.567,25.775z"/>
				<path fill="#8B9242" d="M201.136,26.391c0.023,0.004,0.047,0.009,0.071,0.014C201.183,26.401,201.16,26.396,201.136,26.391z"/>
				<path fill="#8B9242" d="M205.91,27.4c0.009,0.002,0.018,0.004,0.027,0.006C205.928,27.404,205.919,27.402,205.91,27.4z"/>
				<path fill="#8B9242" d="M194.171,25.29c0.013,0.002,0.026,0.003,0.038,0.005C194.196,25.293,194.184,25.292,194.171,25.29z"/>
				<path fill="#8B9242" d="M110.074,168.804c0.23-0.005,0.457-0.008,0.69-0.015C110.531,168.795,110.304,168.799,110.074,168.804z"
					/>
				<path fill="#8B9242" d="M195.272,25.436c0.036,0.005,0.073,0.01,0.109,0.015C195.345,25.446,195.308,25.441,195.272,25.436z"/>
				<path fill="#8B9242" d="M112.522,168.723c0.248-0.012,0.504-0.027,0.756-0.04C113.026,168.696,112.77,168.712,112.522,168.723z"
					/>
				<path fill="#8B9242" d="M206.825,27.619c0.126,0.031,0.252,0.06,0.378,0.091C207.077,27.68,206.951,27.65,206.825,27.619z"/>
			</g>
			<path fill="#573B1C" d="M280.128,134.31c-0.485-2.919-4.864-6.813-4.864-6.813C274.168,6.348,161.412,25.323,161.412,25.323
				s-46.708,4.197-69.149,54.189c0,0-12.955-0.183-13.502,4.379c-0.546,4.562,2.091,8.358,2.091,8.358s17.381,6.001,20.823,18.549
				c1.738,6.34,1.297,18.62,7.426,30.355c-8.393,3.758-23.28,7.172-45.971,1.426c0,0-3.891,6.813,6.813,9.732
				c10.679,2.913,10.707,19.386,47.438,16.077c-0.506-6.623-0.358-11.903,0.164-16.108c12.879,12.094,37.859,20.762,87.657,16.574
				C292.718,161.494,280.128,134.31,280.128,134.31z"/>
		</g>
		<g>
			<path fill="#573B1C" d="M147.664,235.057c0,0-1.396-9.875,4.051-10.008c5.455-0.131,5.311,9.854,5.311,9.854
				S152.538,237.138,147.664,235.057z"/>
			<path fill="#573B1C" d="M159.283,232.515c0,0-2.119-8.362,2.042-9.116c0,0,5.627-0.494,5.566,8.032
				C166.891,231.432,164.61,234.16,159.283,232.515z"/>
			<path fill="#573B1C" d="M144.939,234.009c0,0,1.075-9.353-3.284-9.482c0,0-5.633,0.107-4.696,8.135
				C136.959,232.662,139.04,235.047,144.939,234.009z"/>
			<path fill="#573B1C" d="M194.787,195.757c0,0-0.889-9.277,3.896-9.224c4.791,0.051,4.323,9.38,4.323,9.38
				S198.994,197.858,194.787,195.757z"/>
			<path fill="#573B1C" d="M212.299,195.944c0,0-0.581-9.267-4.501-8.844c0,0-5.022,0.812-2.861,8.536
				C204.937,195.636,207.192,197.704,212.299,195.944z"/>
			<path fill="#573B1C" d="M192.757,195.523c0,0,1.381-9.182-2.542-9.593c0,0-5.082-0.261-4.591,7.745
				C185.624,193.675,187.393,196.17,192.757,195.523z"/>
			<path fill="#573B1C" d="M272.087,213.144c0,0-0.974-9.269,3.812-9.26c4.79,0.008,4.408,9.342,4.408,9.342
				S276.311,215.207,272.087,213.144z"/>
			<path fill="#573B1C" d="M283.567,212.201c0,0-1.915-9.104,2.104-9.709c0,0,5.22-0.514,5.145,7.506
				C290.816,209.997,289.125,212.579,283.567,212.201z"/>
			<path fill="#573B1C" d="M268.162,211.342c0,0,0.977-9.235-2.96-9.472c0,0-5.088-0.038-4.247,7.939
				C260.954,209.809,262.833,212.223,268.162,211.342z"/>
		</g>
	</g>
	<g>
		<g>
			<path fill="#8B9242" d="M62.841,143.226c0.151-0.407,0.288-0.646,0.288-0.646c22.691,5.746,37.578,2.332,45.971-1.426
				c-6.129-11.734-5.687-24.015-7.425-30.355C98.233,98.25,80.852,92.25,80.852,92.25s-0.057-0.085-0.148-0.23
				c-12.022-4.802-17.563-12.147-20.071-18.502c18.805-3.085,32.916-15.97,32.916-31.406C93.549,24.376,74.925,10,51.95,10
				s-41.6,14.376-41.6,32.112c0,0.427,0.02,0.85,0.042,1.274C7.757,77.08,17.665,126.094,62.841,143.226z"/>
		</g>
		<g>
			<path fill="#573B1C" d="M59.59,21.437c0.917,3.475,3.671,5.858,6.146,5.311c2.467-0.548,3.729-3.808,2.812-7.286
				c-0.922-3.476-3.669-5.855-6.145-5.31C59.931,14.695,58.673,17.961,59.59,21.437z"/>
			<path fill="#573B1C" d="M45.168,25.222c1.148,3.84,4.245,6.307,6.912,5.508c2.669-0.807,3.898-4.58,2.747-8.421
				c-1.151-3.855-4.247-6.316-6.911-5.513C45.249,17.603,44.016,21.372,45.168,25.222z"/>
			<path fill="#573B1C" d="M86.205,56.902c0,0-17.943,15.054-31.019-3.379c0,0-0.633-0.546-0.285-1.08
				c0.434-0.667,0.864-0.416,0.864-0.416c12.208,18.163,29.898,4.094,29.898,4.094s0.483-0.434,0.758-0.137
				C86.693,56.28,86.768,56.607,86.205,56.902z"/>
			<path fill="#573B1C" d="M85.982,31.521c0.309,1.298,1.297,2.16,2.203,1.923c0.907-0.239,1.392-1.483,1.084-2.781
				c-0.309-1.299-1.297-2.158-2.204-1.923C86.158,28.979,85.674,30.224,85.982,31.521z"/>
			<path fill="#573B1C" d="M81.322,34.322c1.045,1.184,2.499,1.607,3.243,0.944c0.743-0.66,0.499-2.155-0.548-3.338
				c-1.045-1.183-2.496-1.607-3.24-0.946C80.033,31.645,80.274,33.14,81.322,34.322z"/>
		</g>
	</g>
</g>
</svg>
