<?xml version="1.0" encoding="utf-8"?>
<!-- Generator: Adobe Illustrator 17.0.0, SVG Export Plug-In . SVG Version: 6.00 Build 0)  -->
<!DOCTYPE svg PUBLIC "-//W3C//DTD SVG 1.1 Basic//EN" "http://www.w3.org/Graphics/SVG/1.1/DTD/svg11-basic.dtd">
<svg version="1.1" baseProfile="basic" id="Слой_1"
	 xmlns="http://www.w3.org/2000/svg" xmlns:xlink="http://www.w3.org/1999/xlink" x="0px" y="0px" width="315px" height="250px"
	 viewBox="0 0 315 250" xml:space="preserve">
<path fill="none" stroke="#FFFFFF" stroke-width="6" stroke-miterlimit="10" d="M304.883,112.788
	c0.331-1.599-1.786-1.037-1.786-1.037c-10.714,2.701-22.019-2.63-29.601-7.557c-0.095-0.624-0.208-1.223-0.309-1.837
	c-0.072-0.435-0.144-0.871-0.219-1.301c-0.195-1.11-0.404-2.201-0.622-3.28c-0.081-0.401-0.159-0.804-0.243-1.2
	c-0.233-1.101-0.482-2.18-0.739-3.248c-0.084-0.349-0.164-0.703-0.25-1.049c-0.281-1.125-0.579-2.226-0.885-3.314
	c-0.075-0.267-0.146-0.541-0.222-0.806c-0.355-1.226-0.728-2.427-1.114-3.607c-0.036-0.112-0.07-0.228-0.107-0.339
	c-1.304-3.938-2.781-7.624-4.408-11.071c-0.068-0.145-0.141-0.283-0.21-0.427c-0.465-0.973-0.94-1.931-1.429-2.866
	c-0.138-0.264-0.282-0.518-0.422-0.779c-0.429-0.801-0.863-1.594-1.309-2.368c-0.178-0.309-0.361-0.608-0.542-0.912
	c-0.42-0.707-0.843-1.408-1.277-2.092c-0.205-0.324-0.414-0.64-0.623-0.958c-0.421-0.645-0.847-1.283-1.28-1.907
	c-0.225-0.325-0.454-0.644-0.682-0.963c-0.428-0.598-0.86-1.187-1.299-1.766c-0.241-0.318-0.484-0.633-0.728-0.945
	c-0.439-0.561-0.882-1.112-1.33-1.654c-0.252-0.305-0.505-0.61-0.76-0.909c-0.452-0.531-0.91-1.05-1.371-1.563
	c-0.26-0.289-0.518-0.578-0.781-0.861c-0.471-0.508-0.948-1.003-1.428-1.494c-0.26-0.266-0.518-0.535-0.781-0.796
	c-0.499-0.496-1.004-0.976-1.511-1.453c-0.251-0.236-0.499-0.477-0.751-0.709c-0.543-0.498-1.093-0.979-1.645-1.457
	c-0.223-0.193-0.443-0.393-0.667-0.582c-0.644-0.545-1.296-1.072-1.95-1.59c-0.136-0.108-0.27-0.222-0.407-0.329
	c-1.599-1.25-3.228-2.422-4.879-3.522c-0.227-0.151-0.456-0.292-0.684-0.44c-0.591-0.385-1.183-0.769-1.78-1.136
	c-0.307-0.189-0.617-0.368-0.926-0.553c-0.521-0.311-1.041-0.622-1.565-0.92c-0.344-0.196-0.69-0.382-1.035-0.572
	c-0.493-0.271-0.985-0.542-1.48-0.802c-0.367-0.192-0.734-0.377-1.102-0.564c-0.476-0.241-0.952-0.481-1.429-0.712
	c-0.383-0.186-0.767-0.365-1.152-0.545c-0.465-0.217-0.929-0.431-1.395-0.638c-0.394-0.176-0.788-0.347-1.182-0.516
	c-0.458-0.196-0.916-0.389-1.374-0.577c-0.402-0.165-0.804-0.327-1.207-0.486c-0.45-0.177-0.901-0.349-1.351-0.519
	c-0.409-0.154-0.818-0.307-1.228-0.455c-0.443-0.16-0.886-0.314-1.329-0.466c-0.414-0.143-0.829-0.286-1.243-0.423
	c-0.436-0.144-0.872-0.281-1.307-0.418c-0.42-0.132-0.839-0.266-1.258-0.392c-0.424-0.127-0.846-0.247-1.268-0.368
	c-0.429-0.123-0.857-0.249-1.285-0.365c-0.401-0.11-0.8-0.21-1.2-0.314c-0.446-0.116-0.893-0.236-1.337-0.346
	c-0.327-0.081-0.652-0.153-0.978-0.231c-1.277-0.303-2.547-0.586-3.805-0.838c-0.028-0.006-0.056-0.012-0.084-0.018
	c-0.545-0.109-1.084-0.207-1.624-0.307c-0.273-0.051-0.549-0.105-0.821-0.154c-0.516-0.092-1.027-0.174-1.539-0.258
	c-0.289-0.047-0.58-0.098-0.867-0.143c-0.504-0.079-1.002-0.15-1.501-0.222c-0.289-0.042-0.58-0.085-0.867-0.124
	c-0.497-0.068-0.988-0.129-1.48-0.19c-0.279-0.035-0.559-0.07-0.836-0.103c-0.494-0.058-0.983-0.111-1.47-0.162
	c-0.266-0.028-0.531-0.056-0.794-0.082c-0.492-0.049-0.978-0.093-1.462-0.136c-0.249-0.022-0.496-0.043-0.743-0.063
	c-0.494-0.04-0.983-0.077-1.468-0.111c-0.221-0.015-0.439-0.03-0.658-0.044c-0.502-0.033-1-0.063-1.492-0.089
	c-0.187-0.01-0.372-0.019-0.558-0.028c-0.514-0.025-1.024-0.049-1.526-0.068c-0.142-0.005-0.28-0.009-0.421-0.014
	c-0.539-0.019-1.073-0.035-1.598-0.047c-0.068-0.002-0.133-0.002-0.2-0.004c-11.336-0.237-18.996,1.047-18.996,1.047
	s-46.708,4.197-69.149,54.189c0,0-12.955-0.183-13.502,4.379c-0.468,3.913,1.401,7.255,1.944,8.129
	C68.682,87.219,63.14,79.873,60.633,73.518c18.805-3.085,32.916-15.97,32.916-31.406C93.549,24.376,74.925,10,51.95,10
	c-22.974,0-41.6,14.376-41.602,32.112c0,0.427,0.02,0.85,0.042,1.274c-2.634,33.696,7.274,82.711,52.452,99.842
	c-0.254,0.683-0.549,1.839-0.316,3.137c-9.078,8.309-23.782,22.209-26.649,27.606c-4.207,7.92-1.237,39.104-1.237,39.104
	s27.72,13.364,43.311-0.742c0,0,4.208-0.991-4.949-29.699c0,0,8.556-9.45,17.046-16.701c0.081,0.032,0.168,0.061,0.25,0.093
	c0.195,0.074,0.392,0.148,0.592,0.22c0.331,0.12,0.671,0.235,1.016,0.348c0.149,0.049,0.292,0.099,0.443,0.147
	c0.488,0.152,0.994,0.296,1.513,0.435c0.166,0.044,0.336,0.086,0.505,0.128c0.422,0.107,0.855,0.209,1.298,0.306
	c0.158,0.035,0.313,0.07,0.474,0.104c0.597,0.124,1.211,0.24,1.847,0.345c0.088,0.015,0.181,0.027,0.27,0.041
	c0.572,0.091,1.162,0.174,1.767,0.249c0.162,0.02,0.324,0.04,0.488,0.059c1.423,0.164,2.938,0.283,4.554,0.351
	c0.142,0.006,0.287,0.01,0.431,0.015c0.738,0.027,1.496,0.043,2.276,0.048c0.101,0.001,0.2,0.003,0.302,0.003
	c0.901,0.002,1.829-0.01,2.788-0.038c0.062-0.002,0.128-0.005,0.19-0.007c0.886-0.028,1.802-0.071,2.74-0.126
	c0.151-0.009,0.3-0.017,0.452-0.027c1.021-0.064,2.061-0.138,3.144-0.236c0.987,12.913,4.453,30.917,12.469,55.989
	c0,0,4.159,26.434,43.911,6.107c3.206-1.458,2.732-4.843,2.731-4.841c-0.395-2.755-1.926-8.215-7.622-15.492
	c-10.016-12.792-23.042-28.705-20.523-43.305c0.044,0.009,0.091,0.017,0.134,0.027c1.05,0.225,2.127,0.439,3.229,0.641
	c0.105,0.019,0.21,0.039,0.316,0.058c3.56,0.645,7.388,1.167,11.504,1.555c0.093,0.009,0.186,0.017,0.279,0.026
	c4.154,0.384,8.601,0.629,13.362,0.72c0.07,0.001,0.142,0.002,0.212,0.003c1.505,0.027,3.042,0.039,4.611,0.035
	c0.072,0,0.139,0.002,0.211,0.002c-2.367,11.497-5.242,27.156,10.744,27.617c21.367,0.615,25.299-0.974,25.299-0.974
	s2.336,0.004,1.703-29.24c0.1-0.013,0.195-0.026,0.294-0.039c0.329-0.042,0.648-0.085,0.973-0.128
	c0.752-0.098,1.499-0.198,2.233-0.299c0.415-0.057,0.824-0.116,1.233-0.175c0.632-0.09,1.258-0.182,1.877-0.275
	c0.428-0.064,0.854-0.129,1.276-0.194c0.592-0.092,1.174-0.185,1.753-0.28c0.41-0.067,0.824-0.133,1.228-0.201
	c0.615-0.103,1.216-0.209,1.817-0.315c0.441-0.078,0.884-0.155,1.317-0.234c0.769-0.14,1.529-0.282,2.274-0.426
	c0.447-0.087,0.881-0.175,1.319-0.263c0.425-0.085,0.851-0.17,1.268-0.257c0.469-0.097,0.928-0.196,1.386-0.295
	c0.205-0.044,0.417-0.087,0.62-0.132c8.736,5.321,16.83,11.32,18.678,16.147c4.38,11.433-5.109,28.706-1.945,30.651
	c3.162,1.947,26.759,11.191,43.058-1.945c0,0,2.19-23.599-1.702-31.14c-2.391-4.63-9.647-18.708-20.351-32.489
	c0.056-0.091,0.099-0.178,0.153-0.268c0.104-0.174,0.202-0.347,0.296-0.518c0.125-0.227,0.242-0.452,0.351-0.674
	c0.072-0.147,0.142-0.293,0.207-0.438c0.071-0.157,0.142-0.314,0.205-0.469c0.091-0.221,0.173-0.439,0.249-0.655
	c0.058-0.165,0.11-0.326,0.16-0.487c0.032-0.103,0.061-0.205,0.09-0.307c0.078-0.276,0.147-0.546,0.204-0.81
	c0.016-0.072,0.032-0.145,0.046-0.216c0.695-3.513-0.385-5.877-0.385-5.877c-0.487-2.92-4.866-6.812-4.866-6.812
	c0-0.079-0.002-0.157-0.004-0.237C301.535,127.604,304.581,114.249,304.883,112.788z"/>
<path fill="#EB7272" d="M1602.97,686.224c0.358-0.247,0.715-0.495,1.073-0.742c0.084,0.127,0.169,0.254,0.253,0.381
	c-0.434,0.129-0.868,0.259-1.302,0.388C1602.994,686.25,1602.97,686.224,1602.97,686.224z"/>
<path fill="#EB7272" d="M1570.006,1049.175c0.243,0.36,0.489,0.718,0.714,1.089c0.004,0.007-0.235,0.163-0.361,0.249
	c-0.133-0.432-0.267-0.865-0.401-1.297C1569.957,1049.216,1570.006,1049.175,1570.006,1049.175z"/>
<g>
	<path fill="#8B9242" d="M173.768,230.487c-39.752,20.327-43.911-6.107-43.911-6.107c-8.021-25.09-11.487-43.103-12.471-56.018
		c0.002,0.009,0.002,0.02,0.003,0.029c-13.028,1.174-21.436-0.141-27.342-2.458c-8.49,7.251-17.046,16.701-17.046,16.701
		c9.157,28.708,4.949,29.699,4.949,29.699c-15.591,14.106-43.311,0.742-43.311,0.742s-2.97-31.184,1.237-39.104
		c2.868-5.398,17.579-19.304,26.656-27.612c-0.229-1.295,0.065-2.446,0.318-3.128C17.665,126.103,7.756,77.084,10.39,43.386
		c-0.022-0.424-0.042-0.847-0.042-1.274C10.35,24.376,28.976,10,51.95,10c22.975,0,41.599,14.376,41.599,32.112
		c0,15.436-14.111,28.321-32.916,31.406c2.508,6.357,8.052,13.705,20.082,18.507c-0.54-0.871-2.414-4.216-1.944-8.132
		c0.547-4.56,13.5-4.378,13.5-4.378c22.442-49.993,69.15-54.189,69.15-54.189s97.608-16.423,112.075,78.868
		c7.582,4.927,18.887,10.258,29.601,7.557c0,0,2.117-0.562,1.786,1.037c-0.302,1.461-3.348,14.816-29.615,14.476
		c0.002,0.08,0.004,0.158,0.004,0.237c0,0,4.379,3.892,4.866,6.812c0,0,2.171,4.701-1.575,10.719
		c10.704,13.781,17.96,27.859,20.351,32.489c3.892,7.541,1.702,31.14,1.702,31.14c-16.299,13.136-39.896,3.892-43.058,1.945
		c-3.164-1.945,6.325-19.218,1.945-30.651c-1.848-4.827-9.942-10.826-18.678-16.147c-6.023,1.321-12.931,2.508-20.868,3.511
		c0.633,29.244-1.703,29.24-1.703,29.24s-3.932,1.589-25.299,0.974c-15.986-0.461-13.111-16.12-10.744-27.617
		c-13.506,0.045-24.653-1.081-33.857-3.067c-2.519,14.6,10.507,30.513,20.523,43.305c5.696,7.277,7.227,12.737,7.622,15.492
		C176.5,225.644,176.974,229.029,173.768,230.487z"/>
	<g>
		<path fill="#573B1C" d="M280.128,134.311c-0.485-2.919-4.864-6.813-4.864-6.813C274.168,6.349,161.412,25.324,161.412,25.324
			s-46.708,4.197-69.149,54.189c0,0-12.955-0.183-13.502,4.379c-0.546,4.562,2.091,8.358,2.091,8.358s17.381,6.001,20.823,18.549
			c1.738,6.34,1.297,18.62,7.426,30.355c-8.393,3.758-23.28,7.172-45.971,1.426c0,0-3.891,6.813,6.813,9.732
			c10.679,2.913,10.707,19.386,47.438,16.077c-0.506-6.623-0.358-11.903,0.164-16.108c12.879,12.094,37.86,20.762,87.657,16.574
			C292.718,161.495,280.128,134.311,280.128,134.311z"/>
		<path fill="#573B1C" d="M59.59,21.438c0.917,3.475,3.671,5.858,6.146,5.311c2.467-0.548,3.729-3.808,2.812-7.286
			c-0.922-3.476-3.669-5.855-6.145-5.31C59.931,14.696,58.673,17.962,59.59,21.438z"/>
		<path fill="#573B1C" d="M45.168,25.223c1.148,3.84,4.245,6.307,6.912,5.508c2.669-0.807,3.898-4.58,2.747-8.421
			c-1.151-3.855-4.247-6.316-6.911-5.513C45.249,17.604,44.016,21.373,45.168,25.223z"/>
		<path fill="#573B1C" d="M147.664,235.058c0,0-1.396-9.875,4.051-10.008c5.455-0.131,5.311,9.854,5.311,9.854
			S152.538,237.139,147.664,235.058z"/>
		<path fill="#573B1C" d="M159.283,232.516c0,0-2.119-8.362,2.042-9.116c0,0,5.627-0.494,5.566,8.032
			C166.891,231.433,164.61,234.161,159.283,232.516z"/>
		<path fill="#573B1C" d="M144.939,234.01c0,0,1.075-9.353-3.284-9.482c0,0-5.633,0.107-4.696,8.135
			C136.959,232.663,139.04,235.048,144.939,234.01z"/>
		<path fill="#573B1C" d="M42.48,213.704c0,0,0.11-9.318,4.862-8.754c4.758,0.564,3.294,9.79,3.294,9.79
			S46.438,216.244,42.48,213.704z"/>
		<path fill="#573B1C" d="M52.65,215.914c0,0-1.244-9.227,2.88-9.512c0,0,5.336-0.098,4.643,7.895
			C60.173,214.297,58.258,216.734,52.65,215.914z"/>
		<path fill="#573B1C" d="M86.205,56.903c0,0-17.943,15.054-31.019-3.379c0,0-0.632-0.546-0.285-1.08
			c0.434-0.667,0.864-0.416,0.864-0.416c12.208,18.163,29.898,4.094,29.898,4.094s0.483-0.434,0.758-0.137
			C86.693,56.281,86.768,56.608,86.205,56.903z"/>
		<path fill="#573B1C" d="M85.982,31.522c0.309,1.298,1.297,2.16,2.203,1.923c0.907-0.239,1.392-1.483,1.084-2.781
			c-0.309-1.299-1.297-2.158-2.204-1.923C86.158,28.98,85.674,30.225,85.982,31.522z"/>
		<path fill="#573B1C" d="M81.322,34.323c1.045,1.184,2.499,1.607,3.243,0.944c0.743-0.66,0.499-2.155-0.548-3.338
			c-1.045-1.183-2.496-1.607-3.24-0.946C80.033,31.646,80.274,33.141,81.322,34.323z"/>
		<path fill="#573B1C" d="M194.787,195.758c0,0-0.889-9.277,3.896-9.224c4.791,0.051,4.323,9.38,4.323,9.38
			S198.994,197.859,194.787,195.758z"/>
		<path fill="#573B1C" d="M212.299,195.945c0,0-0.581-9.267-4.501-8.844c0,0-5.022,0.812-2.861,8.536
			C204.937,195.637,207.192,197.705,212.299,195.945z"/>
		<path fill="#573B1C" d="M192.757,195.524c0,0,1.381-9.182-2.542-9.593c0,0-5.082-0.261-4.591,7.745
			C185.624,193.676,187.393,196.171,192.757,195.524z"/>
		<path fill="#573B1C" d="M272.087,213.145c0,0-0.974-9.269,3.812-9.26c4.79,0.008,4.408,9.342,4.408,9.342
			S276.311,215.208,272.087,213.145z"/>
		<path fill="#573B1C" d="M283.567,212.202c0,0-1.915-9.104,2.104-9.709c0,0,5.22-0.514,5.145,7.506
			C290.816,209.998,289.125,212.58,283.567,212.202z"/>
		<path fill="#573B1C" d="M268.162,211.343c0,0,0.977-9.235-2.96-9.472c0,0-5.088-0.038-4.247,7.939
			C260.955,209.81,262.833,212.224,268.162,211.343z"/>
		<path fill="#573B1C" d="M40.085,212.234c0,0,0.851-9.246-3.088-9.43c0,0-1.636,0.013-2.88,1.474
			c0.198,3.477,0.42,6.253,0.542,7.663C35.806,212.385,37.558,212.687,40.085,212.234z"/>
	</g>
</g>
</svg>
