<?xml version="1.0" encoding="utf-8"?>
<!-- Generator: Adobe Illustrator 17.0.0, SVG Export Plug-In . SVG Version: 6.00 Build 0)  -->
<!DOCTYPE svg PUBLIC "-//W3C//DTD SVG 1.1 Basic//EN" "http://www.w3.org/Graphics/SVG/1.1/DTD/svg11-basic.dtd">
<svg version="1.1" baseProfile="basic" id="Слой_1"
	 xmlns="http://www.w3.org/2000/svg" xmlns:xlink="http://www.w3.org/1999/xlink" x="0px" y="0px" width="312.833px"
	 height="265.917px" viewBox="0 0 312.833 265.917" xml:space="preserve">
<path fill="#783323" stroke="#FFFFFF" stroke-width="6" stroke-miterlimit="10" d="M302.908,48.336
	c-0.085-0.055-0.551-0.396-0.551-0.396c-0.048-0.017-0.096-0.032-0.145-0.049C232.001,2.583,169.081,11.684,169.177,11.722
	l-0.144,0.034c-9.451,1.103-9.305,4.789-37.32,14.388l-7.661-16.989c0,0-0.646-1.927-3.536-0.802
	c-2.894,1.123-1.771,2.733-1.771,2.733l5.795,17.441c-10.082,3.254-23.118,7.094-40.231,11.621L81.56,42.24
	c-10.189,8.292-19.235,17.489-27.197,26.895c-24.834,29.368-38.254,56.52-43.273,67.88c-0.248,0.516-0.48,1.047-0.714,1.577
	c-0.212,0.453-0.407,0.902-0.591,1.348c-0.017,0.042-0.036,0.082-0.053,0.125c-0.181,0.445-0.345,0.887-0.497,1.326
	c-0.322,0.801-0.488,1.245-0.488,1.245c0.012,0.003,0.015,0.011,0.026,0.015c-0.024,0.071-0.053,0.138-0.078,0.209
	c0.026-0.07,0.058-0.135,0.085-0.205c0.017,0.008,0.035,0.015,0.046,0.027c-1.064,3.699-1.105,7.183-0.041,10.385
	c0.167,0.499,0.386,0.98,0.616,1.456c-0.018,0.037,0.131,0.277,0.131,0.277c0,0.001,0.001,0.001,0.001,0.002
	c0,0,0-0.001,0.001-0.001c15.927-2.507,44.561,5.287,57.66,14.737c0,0.001,0,0.005,0,0.006l0.395,0.353l0.509-0.257
	c0.001-0.016,0.008-0.082,0.017-0.177c19.197-11.118,48.046-16.593,75.575-13.258l0.672,0.085c0,0,0.23,0.06,0.33-0.035l0.354-0.329
	c5.766-5.423,12.623-10.283,20.298-14.516l25.627,71.009c-0.556,0.51-0.767,1.179-0.4,2.195l10.491,29.277
	c0.224,0.564,4.534,11.264,13.17,14.695c4.016,1.598,8.39,1.383,12.655-0.616c4.447-2.084,7.474-5.337,8.998-9.667
	c3.28-9.313-1.973-20.235-2.198-20.693c-0.917-1.88-3.185-2.655-5.061-1.738c-1.879,0.921-2.655,3.188-1.738,5.065
	c0-0.004,3.708,9.644,1.851,14.876c-0.837,2.363-2.492,4.101-5.064,5.304c-2.383,1.12-4.555,1.263-6.632,0.445
	c-4.632-1.828-7.997-8.093-8.899-10.347c0.046,0.119-10.448-29.155-10.448-29.155c-0.391-1.088-1.106-1.429-1.999-1.4
	l-25.847-71.622c18.241-9.122,40.458-14.893,63.31-16.533l0.001,0.001l1.462,0.441l-0.211-1.485
	c14.514-20.657,40.148-39.435,59.557-41.88l0.686,0.149l-0.299-0.947c-0.029-0.021-0.185-0.146-0.447-0.354
	c-1.285-8.416,2.302-24.174,9.082-29.94c0.002-0.002,0-0.004,0.002-0.006C303.024,48.496,302.908,48.336,302.908,48.336z
	 M178.081,16.22c-2.528-1.417-5.012-2.695-7.398-3.77c0.379,0.135,0.771,0.283,1.176,0.447
	C173.793,13.816,175.888,14.944,178.081,16.22z M14.152,147.1c0.735-1.181,1.518-2.419,2.353-3.714
	c0.007-0.01,0.013-0.02,0.019-0.03C15.682,144.663,14.893,145.911,14.152,147.1z M225.939,45.821L225.939,45.821
	c6.813,1.846,14.93,4.343,23.436,7.601c0.003,0.001,0.007,0.003,0.01,0.004C240.875,50.166,232.754,47.667,225.939,45.821z"/>
<path fill="#EB7272" d="M1602.97,686.224c0.358-0.247,0.715-0.495,1.073-0.742c0.084,0.127,0.169,0.254,0.253,0.381
	c-0.434,0.129-0.868,0.259-1.302,0.388C1602.994,686.25,1602.97,686.224,1602.97,686.224z"/>
<path fill="#EB7272" d="M1570.006,1049.175c0.243,0.36,0.489,0.718,0.714,1.089c0.004,0.007-0.235,0.163-0.361,0.249
	c-0.133-0.432-0.267-0.865-0.401-1.297C1569.957,1049.216,1570.006,1049.175,1570.006,1049.175z"/>
<g id="__x0023_Layer_x0020_1">
	<g id="_439189144">
		<path fill="#D89132" d="M134.498,62.298c-6.071,2.104-11.99,4.286-17.772,6.535c-3.963,1.544-7.87,3.111-11.68,4.711
			c-24.221,29.686-34.557,79.26-37.501,96.245c19.354-11.433,48.834-17.05,76.843-13.502L134.498,62.298z"/>
		<path fill="#B96A31" d="M50.679,101.36c-31.044,19.244-46.443,38.015-41.894,51.708c0.199,0.596,0.469,1.17,0.747,1.735
			C15.43,144.548,30.602,120.068,50.679,101.36z"/>
		<path fill="#D89132" d="M76.115,86.946c-9.25,4.73-17.786,9.564-25.436,14.414c-20.076,18.708-35.249,43.189-41.147,53.442
			c16.067-2.53,45.078,5.424,58.013,14.987c2.944-16.985,13.28-66.558,37.501-96.245C94.787,77.848,85.115,82.346,76.115,86.946z"/>
		<path fill="#B96A31" d="M302.99,48.492c0.994-0.845-42.658-14.043-91.37-6.11c13.997,2.893,57.382,13.454,82.495,37.18
			C292.292,71.509,295.894,54.526,302.99,48.492z"/>
		<path fill="#D89132" d="M161.549,53.409c-3.782,1.115-11.898,4.136-15.734,5.366c-1.649,0.53-3.298,1.054-4.955,1.606
			c-2.141,0.71-4.256,1.438-6.363,2.169l9.89,93.989c20.122-19.353,54.096-31.686,89.502-34.089
			C220.004,108.18,185.065,67.025,161.549,53.409z"/>
		<path fill="#D89132" d="M211.619,42.382c-11.38,1.85-23.426,4.371-35.916,7.543c-6.063,1.536-8.91,1.138-15.155,2.988
			c23.519,13.615,59.455,55.015,73.342,69.286c14.452-20.997,40.567-40.24,60.224-42.637
			C269.001,55.836,225.616,45.275,211.619,42.382z"/>
		<path fill="#783323" d="M67.587,169.898l0.509-0.257c0.048-0.619,6.083-61.022,39.88-97.523l-1.009-0.934
			c-34.126,36.857-39.726,97.731-39.775,98.361L67.587,169.898z"/>
		<polygon fill="#783323" points="145.075,156.216 134.957,60.584 133.587,60.73 143.705,156.36 		"/>
		<path fill="#783323" d="M234.621,122.948l-0.218-1.537c-2.502-2.529-54.681-62.364-78.601-71.249l-0.476,1.289
			c23.636,8.778,77.223,70.438,77.833,71.056L234.621,122.948z"/>
		<path fill="#783323" d="M294.654,79.733l-0.299-0.947c-0.551-0.393-42.792-35.326-90.016-37.37l0.052,1.373
			c43.651,0.305,88.973,36.391,89.519,36.782L294.654,79.733z"/>
		<path fill="#783323" d="M9.532,154.802c0.197-0.449,22.026-39.55,45.987-53.66l-0.545-1.258
			c-25.938,15.473-45.418,54.279-45.62,54.735L9.532,154.802z"/>
		<path fill="#783323" d="M136.873,62.527l55.137,152.777c0.471,1.311,1.918,1.992,3.227,1.517c1.314-0.474,1.991-1.917,1.517-3.226
			L141.619,60.814c-0.474-1.312-1.919-1.989-3.231-1.517C137.079,59.77,136.401,61.215,136.873,62.527z"/>
		<path fill="#F2D084" d="M190.569,214.615l10.491,29.277c0.224,0.564,4.534,11.264,13.17,14.695
			c4.016,1.598,8.39,1.383,12.655-0.616c4.447-2.084,7.474-5.337,8.998-9.667c3.28-9.313-1.973-20.235-2.198-20.693
			c-0.917-1.88-3.185-2.655-5.061-1.738c-1.879,0.921-2.655,3.188-1.738,5.065c0-0.004,0-0.004,0-0.01
			c1.142,2.367,3.708,9.654,1.851,14.886c-0.837,2.363-2.492,4.101-5.064,5.304c-2.383,1.12-4.555,1.263-6.632,0.445
			c-4.632-1.828-7.997-8.093-8.899-10.347c0.046,0.119-10.448-29.155-10.448-29.155c-0.707-1.969-2.477-1.5-4.439-0.795
			C191.284,211.972,189.86,212.652,190.569,214.615z"/>
		<path fill="#783323" d="M128.785,41.305l-10.04-30.219c0,0-1.123-1.61,1.771-2.733c2.89-1.125,3.536,0.802,3.536,0.802
			l13.409,29.738L128.785,41.305z"/>
		<path fill="#F2D084" d="M81.56,42.24c-10.189,8.292-19.235,17.489-27.197,26.895c-32.688,38.656-45.616,73.501-45.616,73.501
			c0.37,0.078-0.288,0.777,0.106,0.841c3.371-14.164,22.43-32.112,45.791-39.27c2.59-8.455,7.478-39.365,28.912-62.017
			C82.301,42.24,81.56,42.24,81.56,42.24z"/>
		<path fill="#F2D084" d="M168.884,11.601c16.011,6.224,48.156,32.471,49.566,34.797c48.983-12.923,84.458,1.938,84.458,1.938
			C232.358,2.524,177.894,10.432,168.884,11.601z"/>
		<path fill="#F2D084" d="M169.083,11.75c-13.176,1.519-7.691,8.009-84.774,28.398c-21.435,22.655-26.873,55.751-29.461,64.208
			c24.451-30.642,133.434-60.79,163.602-57.958C217.04,44.072,189.02,20.115,169.083,11.75z"/>
		<path fill="#783323" d="M220.17,46.269c-0.163-0.258-14.452-13.204-24.241-20.293c-9.807-7.084-19.878-12.913-26.127-14.402
			l-1.123,0.266c6.146,1.426,17.917,8.819,28.126,16.35c5.116,3.766,21.96,18.406,21.973,18.438L220.17,46.269z"/>
		<path fill="#783323" d="M54.848,104.356c1.311-4.294,3.106-13.92,7.486-25.526c4.374-11.595,11.341-27.449,21.975-38.682
			L81.56,42.24c-9.591,11.432-15.528,24.341-19.943,36.043c-4.417,11.692-5.955,21.675-7.23,25.838L54.848,104.356z"/>
		<path fill="#783323" d="M302.357,47.94c-43.712-15.71-82.688-1.819-83.098-1.676l0.163-0.035
			c-60.333,5.098-102.028,20.438-126.385,32.408c-26.43,12.991-38.751,24.961-38.874,25.08l0.286-0.169
			c-0.362,0.106-35.338,8.528-45.754,39.312c10.722-28.343,45.788-37.888,46.146-37.994l0.044-0.013l0.042-0.017l0.108-0.054
			l0.091-0.088c0.483-0.471,49.45-47.385,164.415-57.098l0.083-0.006l0.084-0.028c0.408-0.143,38.972-13.316,83.38,0.953
			L302.357,47.94z"/>
	</g>
</g>
</svg>
