<?xml version="1.0" encoding="utf-8"?>
<!-- Generator: Adobe Illustrator 17.0.0, SVG Export Plug-In . SVG Version: 6.00 Build 0)  -->
<!DOCTYPE svg PUBLIC "-//W3C//DTD SVG 1.1 Basic//EN" "http://www.w3.org/Graphics/SVG/1.1/DTD/svg11-basic.dtd">
<svg version="1.1" baseProfile="basic" id="Слой_1"
	 xmlns="http://www.w3.org/2000/svg" xmlns:xlink="http://www.w3.org/1999/xlink" x="0px" y="0px" width="312.833px"
	 height="265.917px" viewBox="0 0 312.833 265.917" xml:space="preserve">
<path fill="#783323" stroke="#FCFCFC" stroke-width="6" stroke-miterlimit="10" d="M303.002,48.449
	c-0.006-0.033-0.051-0.076-0.125-0.127c0.007,0.003,0.033,0.013,0.033,0.013c-0.092-0.06-0.182-0.116-0.274-0.175l-0.278-0.219
	c-0.046-0.017-0.092-0.03-0.138-0.047c-70.215-45.311-133.138-36.21-133.043-36.172l-0.146,0.035
	c-9.448,1.103-9.304,4.789-37.317,14.388l-7.661-16.989c0,0-0.646-1.927-3.536-0.802c-2.894,1.123-1.771,2.733-1.771,2.733
	l5.794,17.441c-10.082,3.254-23.118,7.094-40.231,11.621L81.56,42.24c-10.189,8.292-19.235,17.489-27.197,26.895
	c-24.842,29.378-38.263,56.537-43.278,67.89c-0.24,0.499-0.465,1.014-0.692,1.527c-0.456,0.969-0.844,1.924-1.17,2.866
	c-0.314,0.783-0.476,1.217-0.476,1.217c0.013,0.003,0.016,0.011,0.026,0.015c-0.024,0.071-0.054,0.138-0.078,0.21
	c0.026-0.07,0.058-0.136,0.085-0.206c0.017,0.008,0.034,0.015,0.045,0.026c-1.064,3.699-1.105,7.183-0.041,10.386
	c0.167,0.5,0.387,0.981,0.616,1.457c-0.018,0.037-0.043,0.087-0.047,0.095l0.178,0.182c15.927-2.508,44.564,5.287,57.661,14.738
	c0,0.001,0,0.005-0.001,0.006l0.394,0.352l0.509-0.257c0.001-0.016,0.008-0.082,0.017-0.178
	c19.197-11.118,48.045-16.593,75.575-13.259l0.674,0.086c0,0,0.233,0.061,0.333-0.035l0.349-0.323
	c5.766-5.424,12.622-10.286,20.298-14.52l-28.3-78.415c1.591-0.487,3.203-0.968,4.844-1.443l27.963,77.486
	c18.242-9.123,40.461-14.892,63.315-16.532l1.458,0.44l-0.21-1.486c14.514-20.656,40.146-39.434,59.556-41.879l0.688,0.15
	l-0.299-0.947c-0.029-0.021-0.185-0.146-0.448-0.355c-1.284-8.415,2.302-24.173,9.082-29.94c0.001-0.001,0-0.003,0.001-0.004
	C303.023,48.498,303.002,48.449,303.002,48.449z M178.092,16.226c-2.531-1.419-5.018-2.699-7.408-3.775
	c0.381,0.135,0.774,0.285,1.182,0.449C173.801,13.819,175.898,14.949,178.092,16.226z"/>
<path fill="#EB7272" d="M1602.97,686.224c0.358-0.247,0.715-0.495,1.073-0.742c0.084,0.127,0.169,0.254,0.253,0.381
	c-0.434,0.129-0.868,0.259-1.302,0.388C1602.994,686.25,1602.97,686.224,1602.97,686.224z"/>
<path fill="#EB7272" d="M1570.006,1049.175c0.243,0.36,0.489,0.718,0.714,1.089c0.004,0.007-0.235,0.163-0.361,0.249
	c-0.133-0.432-0.267-0.865-0.401-1.297C1569.957,1049.216,1570.006,1049.175,1570.006,1049.175z"/>
<g>
	<g>
		<path fill="#D89132" d="M141.619,60.814l28.23,78.226c18.436-9.22,40.932-15.021,64.042-16.59
			c-13.887-14.271-48.825-55.426-72.341-69.042c-3.782,1.115-11.898,4.136-15.734,5.366c-1.5,0.482-3.001,0.961-4.507,1.459
			C141.432,60.412,141.542,60.601,141.619,60.814z"/>
		<path fill="#D89132" d="M136.873,62.527c-0.089-0.247-0.125-0.498-0.135-0.748c-0.747,0.257-1.495,0.514-2.239,0.772l9.89,93.989
			c5.897-5.672,12.99-10.735,20.954-15.127L136.873,62.527z"/>
	</g>
	<path fill="#D89132" d="M134.498,62.298c-6.071,2.104-11.99,4.286-17.772,6.535c-3.963,1.544-7.87,3.111-11.68,4.711
		c-24.221,29.686-34.557,79.26-37.501,96.245c19.354-11.433,48.834-17.05,76.843-13.502L134.498,62.298z"/>
	<path fill="#B96A31" d="M50.679,101.36c-31.044,19.244-46.443,38.015-41.894,51.708c0.199,0.596,0.469,1.17,0.747,1.735
		C15.43,144.548,30.602,120.068,50.679,101.36z"/>
	<path fill="#D89132" d="M76.115,86.946c-9.25,4.73-17.786,9.564-25.436,14.414c-20.076,18.708-35.249,43.189-41.147,53.442
		c16.067-2.53,45.078,5.424,58.013,14.987c2.944-16.985,13.28-66.558,37.501-96.245C94.787,77.848,85.115,82.346,76.115,86.946z"/>
	<path fill="#B96A31" d="M302.99,48.492c0.994-0.845-42.658-14.043-91.37-6.11c13.997,2.893,57.382,13.454,82.495,37.18
		C292.292,71.509,295.894,54.526,302.99,48.492z"/>
	<path fill="#D89132" d="M211.619,42.382c-11.38,1.85-23.426,4.371-35.916,7.543c-6.063,1.536-8.91,1.138-15.155,2.988
		c23.519,13.615,59.455,55.015,73.342,69.286c14.452-20.997,40.567-40.24,60.224-42.637
		C269.001,55.836,225.616,45.275,211.619,42.382z"/>
	<path fill="#783323" d="M67.587,169.898l0.509-0.257c0.048-0.619,6.083-61.022,39.88-97.523l-1.009-0.934
		c-34.126,36.857-39.726,97.731-39.775,98.361L67.587,169.898z"/>
	<polygon fill="#783323" points="145.075,156.216 134.957,60.584 133.587,60.73 143.705,156.36 	"/>
	<path fill="#783323" d="M234.621,122.948l-0.218-1.537c-2.502-2.529-54.681-62.364-78.601-71.249l-0.476,1.289
		c23.636,8.778,77.223,70.438,77.833,71.056L234.621,122.948z"/>
	<path fill="#783323" d="M294.654,79.733l-0.299-0.947c-0.551-0.393-42.792-35.326-90.016-37.37l0.052,1.373
		c43.651,0.305,88.973,36.391,89.519,36.782L294.654,79.733z"/>
	<path fill="#783323" d="M9.532,154.802c0.197-0.449,22.026-39.55,45.987-53.66l-0.545-1.258
		c-25.938,15.473-45.418,54.279-45.62,54.735L9.532,154.802z"/>
	<path fill="#783323" d="M128.785,41.305l-10.04-30.219c0,0-1.123-1.61,1.771-2.733c2.89-1.125,3.536,0.802,3.536,0.802
		l13.409,29.738L128.785,41.305z"/>
	<path fill="#F2D084" d="M81.56,42.24c-10.189,8.292-19.235,17.489-27.197,26.895c-32.688,38.656-45.616,73.501-45.616,73.501
		c0.37,0.078-0.288,0.777,0.106,0.841c3.371-14.164,22.43-32.112,45.791-39.27c2.59-8.455,7.478-39.365,28.912-62.017
		C82.301,42.24,81.56,42.24,81.56,42.24z"/>
	<path fill="#F2D084" d="M168.884,11.601c16.011,6.224,48.156,32.471,49.566,34.797c48.983-12.923,84.458,1.938,84.458,1.938
		C232.358,2.524,177.894,10.432,168.884,11.601z"/>
	<path fill="#F2D084" d="M169.083,11.75c-13.176,1.519-7.691,8.009-84.774,28.398c-21.435,22.655-26.873,55.751-29.461,64.208
		c24.451-30.642,133.434-60.79,163.602-57.958C217.04,44.072,189.02,20.115,169.083,11.75z"/>
	<path fill="#783323" d="M220.17,46.269c-0.163-0.258-14.452-13.204-24.241-20.293c-9.807-7.084-19.878-12.913-26.127-14.402
		l-1.123,0.266c6.146,1.426,17.917,8.819,28.126,16.35c5.116,3.766,21.96,18.406,21.973,18.438L220.17,46.269z"/>
	<path fill="#783323" d="M54.848,104.356c1.311-4.294,3.106-13.92,7.486-25.526c4.374-11.595,11.341-27.449,21.975-38.682
		L81.56,42.24c-9.591,11.432-15.528,24.341-19.943,36.043c-4.417,11.692-5.955,21.675-7.23,25.838L54.848,104.356z"/>
	<path fill="#783323" d="M302.357,47.94c-43.712-15.71-82.688-1.819-83.098-1.676l0.163-0.035
		c-60.333,5.098-102.028,20.438-126.385,32.408c-26.43,12.991-38.751,24.961-38.874,25.08l0.286-0.169
		c-0.362,0.106-35.338,8.528-45.754,39.312c10.722-28.343,45.788-37.888,46.146-37.994l0.044-0.013l0.042-0.017l0.108-0.054
		l0.091-0.088c0.483-0.471,49.45-47.385,164.415-57.098l0.083-0.006l0.084-0.028c0.408-0.143,38.972-13.316,83.38,0.953
		L302.357,47.94z"/>
</g>
</svg>
