<?xml version="1.0" encoding="utf-8"?>
<!-- Generator: Adobe Illustrator 17.0.0, SVG Export Plug-In . SVG Version: 6.00 Build 0)  -->
<!DOCTYPE svg PUBLIC "-//W3C//DTD SVG 1.1 Basic//EN" "http://www.w3.org/Graphics/SVG/1.1/DTD/svg11-basic.dtd">
<svg version="1.1" baseProfile="basic" id="Слой_1"
	 xmlns="http://www.w3.org/2000/svg" xmlns:xlink="http://www.w3.org/1999/xlink" x="0px" y="0px" width="100.235px"
	 height="200.499px" viewBox="0 0 100.235 200.499" xml:space="preserve">
<path fill="#BAAE52" d="M96.962,168.464c-0.917-1.88-3.185-2.655-5.061-1.738c-1.879,0.921-2.655,3.188-1.738,5.065
	c0-0.004,0-0.004,0-0.01c1.142,2.367,3.708,9.654,1.851,14.886c-0.837,2.363-2.492,4.101-5.064,5.304
	c-2.383,1.12-4.555,1.263-6.632,0.445c-4.632-1.828-7.997-8.093-8.899-10.347c0.046,0.12-10.448-29.155-10.448-29.155
	c-0.39-1.088-1.106-1.43-1.999-1.401L4.896,1.667C4.422,0.355,2.977-0.322,1.665,0.15C0.356,0.624-0.322,2.068,0.15,3.38
	l54.096,149.894c-0.555,0.51-0.767,1.179-0.4,2.195l10.491,29.277c0.224,0.564,4.534,11.264,13.17,14.695
	c4.016,1.598,8.39,1.383,12.655-0.616c4.446-2.084,7.474-5.337,8.998-9.667C102.44,179.844,97.187,168.923,96.962,168.464z"/>
</svg>
