<?xml version="1.0" encoding="utf-8"?>
<!-- Generator: Adobe Illustrator 17.0.0, SVG Export Plug-In . SVG Version: 6.00 Build 0)  -->
<!DOCTYPE svg PUBLIC "-//W3C//DTD SVG 1.1 Basic//EN" "http://www.w3.org/Graphics/SVG/1.1/DTD/svg11-basic.dtd">
<svg version="1.1" baseProfile="basic" id="Слой_1"
	 xmlns="http://www.w3.org/2000/svg" xmlns:xlink="http://www.w3.org/1999/xlink" x="0px" y="0px" width="314.438px"
	 height="183.875px" viewBox="0 0 314.438 183.875" xml:space="preserve">
<polygon fill="#A8A8A8" stroke="#272525" stroke-width="3" stroke-miterlimit="10" points="557.307,189.762 557.307,189.762 
	557.306,189.761 "/>
<path fill="#A8A8A8" stroke="#272525" stroke-width="3" stroke-miterlimit="10" d="M246.906,128
	c-14.297,0-25.897,11.584-25.897,25.896c0,14.297,11.6,25.896,25.897,25.896c14.313,0,25.896-11.6,25.896-25.896
	C272.802,139.583,261.216,128,246.906,128z"/>
<path fill="#A8A8A8" stroke="#272525" stroke-width="3" stroke-miterlimit="10" d="M307.946,20.597
	C307.944,20.599,173.657-7.156,8,19.724l10.332,13.959c-0.09,0.016-0.151,0.027-0.151,0.027l4.334,6.549
	c0,0,115.516-21.968,275.217-0.843l1.594-4.505c1.128,0.146,2.249,0.285,3.381,0.435L307.946,20.597z"/>
<path fill="#A8A8A8" stroke="#272525" stroke-width="3" stroke-miterlimit="10" d="M104.77,149.274
	C101.621,134.821,88.774,124,73.384,124S45.149,134.821,42,149.258c0.016,0,0.046,0.016,0.062,0.016h5.02
	c-0.292,1.556-0.451,3.159-0.451,4.801c0,14.297,11.6,25.896,25.896,25.896c14.297,0,25.896-11.6,25.896-25.896
	c0-1.641-0.159-3.245-0.451-4.801H104.77z"/>
<path fill="#A8A8A8" stroke="#272525" stroke-width="3" stroke-miterlimit="10" d="M258.233,48H59.953
	C49.982,48,42,49.668,42,51.726l6.344,41.238c0,2.058,7.983,3.726,17.869,3.726H251.89c9.971,0,17.953-1.668,17.953-3.726
	l6.344-41.238C276.187,49.668,268.193,48,258.233,48z"/>
<path fill="none" d="M157.973,48.149H60.061c-9.971,0-17.953,1.668-17.953,3.726l6.278,40.808h109.588L157.973,48.149
	L157.973,48.149z"/>
<path fill="none" d="M48.385,92.682l0.066,0.43c0,2.058,7.983,3.726,17.869,3.726h91.653v-4.156H48.385z"/>
<path fill="#A8A8A8" stroke="#272525" stroke-width="3" stroke-miterlimit="10" d="M66.552,96.156
	c-9.886,0-17.869-1.668-17.869-3.726L48.617,92H27l3.636,44.818c0,6.657,4.709,12.052,10.525,12.052c0,0,1.045-0.202,1.029-0.202
	c3.149-14.437,15.994-25.258,31.384-25.258s28.237,10.821,31.386,25.274l53.244,0.085V96.156H66.552z"/>
<path fill="#A8A8A8" stroke="#272525" stroke-width="3" stroke-miterlimit="10" d="M42.592,51.632c0-2.058,7.983-3.726,17.953-3.726
	h97.913V30C75.424,30.049,23,40.016,23,40.016l4.254,52.424H48.87L42.592,51.632z"/>
<path fill="#A8A8A8" stroke="#272525" stroke-width="3" stroke-miterlimit="10" d="M246.932,127.588
	c12.735,0,23.304,9.176,25.479,21.282h4.86c5.816,0,10.525-5.395,10.525-12.052L292.286,92h-22.243l-0.066,0.43
	c0,2.058-7.983,3.726-17.953,3.726H158v52.613l63.454,0.101C223.631,136.763,234.21,127.588,246.932,127.588z"/>
<path fill="#A8A8A8" stroke="#272525" stroke-width="3" stroke-miterlimit="10" d="M258.369,47.906
	c9.96,0,17.953,1.668,17.953,3.726l-6.278,40.808h22.243l5.338-53.284C245.557,32.275,198.194,29.976,158,30v17.906H258.369z"/>
</svg>
