<?xml version="1.0" encoding="utf-8"?>
<!-- Generator: Adobe Illustrator 17.0.0, SVG Export Plug-In . SVG Version: 6.00 Build 0)  -->
<!DOCTYPE svg PUBLIC "-//W3C//DTD SVG 1.1 Basic//EN" "http://www.w3.org/Graphics/SVG/1.1/DTD/svg11-basic.dtd">
<svg version="1.1" baseProfile="basic" id="Слой_1"
	 xmlns="http://www.w3.org/2000/svg" xmlns:xlink="http://www.w3.org/1999/xlink" x="0px" y="0px" width="314.438px"
	 height="183.875px" viewBox="0 0 314.438 183.875" xml:space="preserve">
<path fill="#B4C9C7" stroke="#FFFFFF" stroke-width="6" stroke-miterlimit="10" d="M307.946,20.597
	C307.944,20.599,173.657-7.156,8,19.724l10.332,13.959c-0.09,0.016-0.151,0.027-0.151,0.027l2.152,3.251L30.405,137.5
	c0,6.657,4.709,12.052,10.525,12.052h6.078c-0.269,1.498-0.418,3.039-0.418,4.615c0,14.297,11.6,25.896,25.896,25.896
	c14.297,0,25.896-11.6,25.896-25.896c0-1.576-0.148-3.117-0.418-4.615h123.463c-0.269,1.498-0.418,3.039-0.418,4.615
	c0,14.297,11.6,25.896,25.896,25.896c14.313,0,25.896-11.6,25.896-25.896c0-1.576-0.148-3.117-0.417-4.615h4.86
	c5.816,0,10.525-5.395,10.525-12.052l9.828-98.101c0.045,0.006,0.089,0.011,0.134,0.017l1.594-4.505
	c1.128,0.146,2.249,0.285,3.381,0.435L307.946,20.597z"/>
<polygon fill="#A8A8A8" stroke="#272525" stroke-width="3" stroke-miterlimit="10" points="557.307,189.762 557.307,189.762 
	557.306,189.761 "/>
<g id="__x0023_Layer_x0020_3_1_">
	<path fill="#F5D669" d="M287.77,137.5c0,6.657-4.709,12.052-10.525,12.052H40.93c-5.816,0-10.525-5.396-10.525-12.052
		L19.802,31.668c0-6.643,4.709-12.036,10.525-12.036h257.521c5.816,0,10.525,5.396,10.525,12.036L287.77,137.5z"/>
	<path fill="#D8782D" d="M41.959,149.35c0.016,0,0.046,0.016,0.062,0.016h62.708c-3.149-14.453-15.996-25.274-31.386-25.274
		S45.108,134.913,41.959,149.35z"/>
	<path fill="#D8782D" d="M214.178,148.804h62.754c-3.149-14.453-15.996-25.274-31.386-25.274
		C230.175,123.532,217.312,134.351,214.178,148.804z"/>
	<path fill="#DA8036" d="M84.35,93.113c0,2.058-1.512,3.726-3.399,3.726H45.793c-1.872,0-3.399-1.668-3.399-3.726l-1.201-41.238
		c0-2.058,1.528-3.726,3.399-3.726H82.15c1.886,0,3.399,1.668,3.399,3.726L84.35,93.113z"/>
	<path fill="#DA8036" d="M131.67,93.113c0,2.058-1.528,3.726-3.399,3.726H93.113c-1.886,0-3.399-1.668-3.399-3.726l-1.201-41.238
		c0-2.058,1.528-3.726,3.399-3.726h37.558c1.872,0,3.399,1.668,3.399,3.726L131.67,93.113z"/>
	<path fill="#DA8036" d="M179.473,93.113c0,2.058-1.512,3.726-3.383,3.726h-35.174c-1.872,0-3.399-1.668-3.399-3.726l-1.185-41.238
		c0-2.058,1.512-3.726,3.383-3.726h37.558c1.886,0,3.399,1.668,3.399,3.726L179.473,93.113z"/>
	<path fill="#DA8036" d="M227.29,93.113c0,2.058-1.528,3.726-3.399,3.726h-35.156c-1.872,0-3.399-1.668-3.399-3.726l-1.201-41.238
		c0-2.058,1.528-3.726,3.399-3.726h37.558c1.872,0,3.399,1.668,3.399,3.726L227.29,93.113z"/>
	<path fill="#DA8036" d="M275.093,93.113c0,2.058-1.512,3.726-3.399,3.726h-35.158c-1.872,0-3.383-1.668-3.383-3.726l-1.201-41.238
		c0-2.058,1.512-3.726,3.399-3.726h37.544c1.886,0,3.399,1.668,3.399,3.726L275.093,93.113z"/>
	<path fill="#DA8036" d="M22.515,40.259c0,0,115.516-21.968,275.217-0.843l2.416-6.829C136.393,11.93,18.18,33.71,18.18,33.71
		L22.515,40.259z"/>
	<path fill="#4A2D5C" d="M272.802,154.167c0,14.297-11.584,25.896-25.896,25.896c-14.297,0-25.896-11.6-25.896-25.896
		c0-14.313,11.6-25.896,25.896-25.896C261.216,128.271,272.802,139.854,272.802,154.167z"/>
	<path fill="#342141" d="M248.323,142.849c-5.223,0-9.666,3.383-11.271,8.076c1.652-3.259,5.005-5.488,8.903-5.488
		c5.504,0,9.962,4.459,9.962,9.962s-4.459,9.962-9.962,9.962c-1.98,0-3.82-0.577-5.379-1.576c2.09,1.794,4.787,2.869,7.748,2.869
		c6.579,0,11.896-5.331,11.896-11.896C260.219,148.181,254.902,142.849,248.323,142.849z"/>
	<path fill="#CE652D" d="M8,19.724l12.208,16.495c0,0,118.587-22.561,282.498-0.873l5.239-14.749
		C307.944,20.599,173.657-7.156,8,19.724z"/>
	<path fill="#95B2B3" d="M129.72,90.866c0,1.84-1.357,3.337-3.041,3.337H95.341c-1.684,0-3.041-1.498-3.041-3.337l-1.061-36.764
		c0-1.84,1.357-3.321,3.025-3.321h33.49c1.668,0,3.025,1.482,3.025,3.321L129.72,90.866z"/>
	<path fill="#B4C9C7" d="M127.756,50.781h-33.49c-1.668,0-3.025,1.482-3.025,3.321c0.094,3.321,0.186,6.657,0.28,9.978
		c12.987,5.69,25.991,4.973,38.978,0l0.28-9.978C130.781,52.263,129.424,50.781,127.756,50.781z"/>
	<path fill="#4A2D5C" d="M98.382,154.167c0,14.297-11.6,25.896-25.896,25.896s-25.896-11.6-25.896-25.896
		c0-14.313,11.6-25.896,25.896-25.896S98.382,139.854,98.382,154.167z"/>
	<path fill="#342141" d="M73.903,142.849c-5.239,0-9.666,3.383-11.272,8.076c1.638-3.259,5.005-5.488,8.887-5.488
		c5.504,0,9.962,4.459,9.962,9.962s-4.459,9.962-9.962,9.962c-1.964,0-3.82-0.577-5.363-1.576c2.074,1.794,4.787,2.869,7.748,2.869
		c6.565,0,11.896-5.331,11.896-11.896C85.799,148.181,80.468,142.849,73.903,142.849z"/>
	<g id="_418460952">
		<path fill="#95B2B3" d="M82.074,90.866c0,1.84-1.341,3.337-3.025,3.337H47.695c-1.668,0-3.025-1.498-3.025-3.337l-1.061-36.764
			c0-1.84,1.341-3.321,3.025-3.321h33.49c1.668,0,3.025,1.482,3.025,3.321L82.074,90.866z"/>
		<path fill="#B4C9C7" d="M80.126,50.781h-33.49c-1.684,0-3.025,1.482-3.025,3.321c0.094,3.321,0.186,6.657,0.28,9.978
			c12.987,5.69,25.975,4.973,38.962,0l0.296-9.978C83.151,52.263,81.793,50.781,80.126,50.781z"/>
	</g>
	<path fill="#95B2B3" d="M177.211,90.866c0,1.84-1.357,3.337-3.041,3.337h-31.352c-1.668,0-3.025-1.498-3.025-3.337l-1.059-36.764
		c0-1.84,1.341-3.321,3.025-3.321h33.49c1.668,0,3.025,1.482,3.025,3.321L177.211,90.866z"/>
	<path fill="#B4C9C7" d="M175.247,50.781h-33.49c-1.684,0-3.025,1.482-3.025,3.321c0.094,3.321,0.186,6.657,0.28,9.978
		c12.987,5.69,25.975,4.973,38.978,0l0.28-9.978C178.272,52.263,176.914,50.781,175.247,50.781z"/>
	<path fill="#95B2B3" d="M272.832,90.866c0,1.84-1.357,3.337-3.041,3.337h-31.338c-1.684,0-3.041-1.498-3.041-3.337l-1.061-36.764
		c0-1.84,1.341-3.321,3.025-3.321h33.492c1.668,0,3.025,1.482,3.025,3.321L272.832,90.866z"/>
	<path fill="#B4C9C7" d="M270.868,50.781h-33.49c-1.684,0-3.025,1.482-3.025,3.321c0.094,3.321,0.186,6.657,0.28,9.978
		c12.987,5.69,25.991,4.973,38.978,0l0.28-9.978C273.893,52.263,272.536,50.781,270.868,50.781z"/>
	<path fill="#95B2B3" d="M225.013,90.866c0,1.84-1.357,3.337-3.025,3.337h-31.352c-1.668,0-3.025-1.498-3.025-3.337l-1.075-36.764
		c0-1.84,1.357-3.321,3.025-3.321h33.49c1.684,0,3.041,1.482,3.041,3.321L225.013,90.866z"/>
	<path fill="#B4C9C7" d="M223.049,50.781h-33.49c-1.668,0-3.025,1.482-3.025,3.321c0.094,3.321,0.202,6.657,0.296,9.978
		c12.987,5.69,25.975,4.973,38.962,0l0.296-9.978C226.091,52.263,224.733,50.781,223.049,50.781z"/>
</g>
</svg>
