<?xml version="1.0" encoding="utf-8"?>
<!-- Generator: Adobe Illustrator 17.0.0, SVG Export Plug-In . SVG Version: 6.00 Build 0)  -->
<!DOCTYPE svg PUBLIC "-//W3C//DTD SVG 1.1 Basic//EN" "http://www.w3.org/Graphics/SVG/1.1/DTD/svg11-basic.dtd">
<svg version="1.1" baseProfile="basic" id="Слой_1"
	 xmlns="http://www.w3.org/2000/svg" xmlns:xlink="http://www.w3.org/1999/xlink" x="0px" y="0px" width="314.438px"
	 height="183.875px" viewBox="0 0 314.438 183.875" xml:space="preserve">
<polygon fill="#A8A8A8" stroke="#272525" stroke-width="3" stroke-miterlimit="10" points="557.307,189.762 557.307,189.762 
	557.306,189.761 "/>
<path fill="#A8A8A8" stroke="#272525" stroke-width="3" stroke-miterlimit="10" d="M307.946,20.597
	C307.944,20.599,173.657-7.156,8,19.724l10.332,13.959c-0.09,0.016-0.151,0.027-0.151,0.027l2.152,3.251L30.405,137.5
	c0,6.657,4.709,12.052,10.525,12.052h6.078c-0.269,1.498-0.418,3.039-0.418,4.615c0,14.297,11.6,25.896,25.896,25.896
	s25.896-11.6,25.896-25.896c0-1.576-0.148-3.117-0.418-4.615h123.463c-0.269,1.498-0.418,3.039-0.418,4.615
	c0,14.297,11.6,25.896,25.896,25.896c14.313,0,25.896-11.6,25.896-25.896c0-1.576-0.148-3.117-0.417-4.615h4.86
	c5.816,0,10.525-5.395,10.525-12.052l9.828-98.101c0.045,0.006,0.089,0.011,0.134,0.017l1.594-4.505
	c1.128,0.146,2.249,0.285,3.381,0.435L307.946,20.597z"/>
</svg>
