<?xml version="1.0" encoding="utf-8"?>
<!-- Generator: Adobe Illustrator 17.0.0, SVG Export Plug-In . SVG Version: 6.00 Build 0)  -->
<!DOCTYPE svg PUBLIC "-//W3C//DTD SVG 1.1 Basic//EN" "http://www.w3.org/Graphics/SVG/1.1/DTD/svg11-basic.dtd">
<svg version="1.1" baseProfile="basic" id="Слой_1"
	 xmlns="http://www.w3.org/2000/svg" xmlns:xlink="http://www.w3.org/1999/xlink" x="0px" y="0px" width="119.85px"
	 height="77.342px" viewBox="0 0 119.85 77.342" xml:space="preserve">
<path fill="#42BCAA" d="M119.85,37.735c-8.736-8.428-18.64-16.074-30.306-20.15c-7.081-2.474-15.301-3.435-23.828-3.266
	c-1.798-3.325-4.324-6.877-7.738-9.43c-3.884-2.904-9.791-4.24-13.131-2.387c-2.671-1.703-6.264-3.314-9.048-2.049
	c-3.928,1.786-4.113,5.029-4.114,5.04c-3.287,0.68-5.763,3.593-5.763,7.084c0,0.498,0.051,0.985,0.147,1.455
	c-0.005,0.001-3.3,0.788-4.365,3.877c-1.118,3.246-0.264,6.145-0.264,6.145l0.001,0C10.731,28.715,2.856,34.443,0.88,39.845
	C0.492,40.907,0.208,42.094,0,43.366c2.075,4.097,8.577,15.818,18.416,23.2c6.262,4.697,20.874,9.335,37.276,10.499
	c0.007,0,0.013,0.001,0.02,0.001c0.935,0.066,1.875,0.121,2.82,0.164c0.026,0.001,0.053,0.002,0.079,0.003
	c0.926,0.041,1.856,0.072,2.79,0.09c0.049,0.001,0.097,0,0.146,0.001c0.912,0.016,1.826,0.022,2.743,0.015
	c0.076-0.001,0.152-0.003,0.227-0.004c0.89-0.009,1.78-0.027,2.673-0.06c0.114-0.004,0.229-0.012,0.343-0.016
	c0.854-0.034,1.709-0.075,2.564-0.132c0.159-0.01,0.317-0.026,0.476-0.037c0.81-0.058,1.62-0.12,2.429-0.199
	c0.211-0.02,0.422-0.048,0.633-0.07c0.757-0.079,1.514-0.161,2.269-0.259c0.254-0.033,0.506-0.075,0.76-0.11
	c0.71-0.099,1.42-0.198,2.127-0.315c0.299-0.049,0.595-0.11,0.893-0.163c0.659-0.117,1.319-0.232,1.974-0.364
	c0.344-0.07,0.683-0.153,1.026-0.227c0.604-0.131,1.21-0.259,1.809-0.405c0.391-0.095,0.777-0.206,1.166-0.307
	c0.546-0.143,1.095-0.279,1.636-0.435c0.432-0.124,0.857-0.265,1.285-0.398c0.491-0.151,0.985-0.295,1.47-0.457
	c0.484-0.162,0.958-0.343,1.436-0.516c0.423-0.153,0.85-0.296,1.268-0.457c0.563-0.218,1.114-0.457,1.668-0.691
	c0.324-0.137,0.654-0.262,0.975-0.404c0.871-0.386,1.73-0.793,2.575-1.222C113.337,62.301,118.655,47.3,119.85,37.735z"/>
</svg>
