<?xml version="1.0" encoding="utf-8"?>
<!-- Generator: Adobe Illustrator 17.0.0, SVG Export Plug-In . SVG Version: 6.00 Build 0)  -->
<!DOCTYPE svg PUBLIC "-//W3C//DTD SVG 1.1 Basic//EN" "http://www.w3.org/Graphics/SVG/1.1/DTD/svg11-basic.dtd">
<svg version="1.1" baseProfile="basic" id="Слой_1"
	 xmlns="http://www.w3.org/2000/svg" xmlns:xlink="http://www.w3.org/1999/xlink" x="0px" y="0px" width="262.958px"
	 height="236.646px" viewBox="0 0 262.958 236.646" xml:space="preserve">
<path fill="#9E9DC6" stroke="#FFFFFF" stroke-width="6" stroke-miterlimit="10" d="M256.162,187.596
	c0.336-23.358-16.691-35.58-66.049-38.868c-2.461-2.073-3.81-2.413-3.81-2.413c0.018,0.652,0.006,1.384-0.038,2.173c0,0,0,0,0,0
	c-0.014,0.26-0.033,0.528-0.054,0.801c-0.001,0.012-0.002,0.024-0.003,0.037c-0.021,0.258-0.046,0.523-0.074,0.792
	c-0.004,0.037-0.008,0.074-0.012,0.111c-0.027,0.255-0.058,0.515-0.092,0.78c-0.007,0.053-0.014,0.106-0.021,0.159
	c-0.034,0.257-0.071,0.518-0.112,0.783c-0.009,0.062-0.02,0.124-0.03,0.186c-0.041,0.262-0.085,0.526-0.133,0.795
	c-0.012,0.068-0.026,0.137-0.038,0.206c-0.049,0.269-0.1,0.539-0.157,0.814c-0.013,0.063-0.027,0.127-0.041,0.19
	c-0.06,0.285-0.121,0.572-0.188,0.863c-0.002,0.01-0.005,0.021-0.008,0.032c-0.21,0.908-0.461,1.844-0.75,2.797
	c-0.043,0.142-0.084,0.282-0.128,0.425c-0.065,0.207-0.136,0.417-0.205,0.626c-0.059,0.179-0.117,0.357-0.179,0.536
	c-0.068,0.197-0.141,0.396-0.213,0.595c-0.07,0.193-0.14,0.387-0.214,0.581c-0.072,0.191-0.148,0.382-0.224,0.573
	c-0.081,0.205-0.163,0.411-0.249,0.617c-0.077,0.186-0.156,0.372-0.236,0.558c-0.091,0.212-0.185,0.424-0.28,0.637
	c-0.082,0.182-0.166,0.364-0.251,0.547c-0.103,0.22-0.209,0.439-0.316,0.659c-0.086,0.176-0.173,0.352-0.262,0.528
	c-0.116,0.228-0.237,0.457-0.358,0.685c-0.089,0.167-0.177,0.335-0.269,0.502c-0.133,0.242-0.272,0.483-0.412,0.724
	c-0.089,0.153-0.175,0.306-0.266,0.459c-0.161,0.27-0.329,0.538-0.499,0.807c-0.077,0.123-0.152,0.247-0.231,0.369
	c-0.245,0.379-0.497,0.755-0.759,1.13c-0.008,0.012-0.016,0.024-0.024,0.036c-0.273,0.39-0.556,0.777-0.847,1.161
	c-0.076,0.1-0.157,0.199-0.235,0.299c-0.217,0.279-0.435,0.558-0.662,0.834c-0.109,0.133-0.224,0.263-0.336,0.395
	c-0.203,0.24-0.408,0.48-0.619,0.717c-0.128,0.143-0.261,0.285-0.392,0.427c-0.205,0.222-0.411,0.443-0.623,0.662
	c-0.142,0.147-0.288,0.291-0.434,0.436c-0.211,0.21-0.424,0.419-0.642,0.625c-0.155,0.146-0.312,0.292-0.471,0.436
	c-0.219,0.2-0.442,0.398-0.668,0.595c-0.166,0.144-0.334,0.288-0.504,0.43c-0.23,0.192-0.465,0.382-0.703,0.57
	c-0.175,0.139-0.35,0.278-0.53,0.414c-0.246,0.187-0.498,0.371-0.752,0.554c-0.181,0.13-0.36,0.262-0.545,0.39
	c-0.268,0.186-0.544,0.366-0.82,0.546c-0.181,0.118-0.359,0.239-0.543,0.354c-0.309,0.194-0.628,0.381-0.948,0.569
	c-0.162,0.095-0.318,0.193-0.483,0.286c-0.484,0.274-0.979,0.541-1.487,0.798c-0.004,0.002-0.008,0.005-0.013,0.007
	c-9.485,4.808-20.726,6.693-31.644,6.742c-0.91,0.004-1.817-0.004-2.721-0.025c-1.808-0.041-3.603-0.131-5.374-0.265
	c-1.771-0.133-3.519-0.31-5.233-0.525c-1.715-0.215-3.396-0.469-5.035-0.756c-10.653-1.865-19.503-5.141-23.908-8.445
	c-11.225-8.422-17.776-22.924-17.776-22.924h0l0,0c0,0-0.167,0.06-0.459,0.191c0.255-0.881,0.539-1.846,0.847-2.903
	c-8.642,1.01-16.455,2.229-23.448,3.684c0.084-0.021,0.14-0.036,0.14-0.036s-0.338,0.064-0.963,0.209
	c-9.494,2.02-17.421,4.494-23.736,7.514c-0.54,0.236-1.043,0.469-1.499,0.697c-6.954,3.477-18.523,11.867-16.715,22.757
	c-0.002,0.13-0.014,0.255-0.014,0.386c0,20.916,132.909,42.237,136.549,42.241c13.487,0.022,26.163-0.898,37.792-2.548
	c6.476-0.386,12.985-1.384,19.38-3.279c4.026-1.193,7.355-2.2,10.12-3.052c1.15-0.344,2.282-0.696,3.395-1.056
	c7.795-2.452,9.425-3.174,9.425-3.174s-0.579,0.143-1.568,0.383C243.831,208.744,256.013,197.996,256.162,187.596z"/>
<g>
	<path fill="#4C498F" d="M186.266,148.487c-0.471,8.563-4.911,24.521-20.543,32.444c-25.294,12.82-63.072,4.858-73.915-3.273
		c-11.225-8.422-17.776-22.924-17.776-22.924s-0.167,0.06-0.459,0.191c0.255-0.881,0.539-1.846,0.847-2.903
		c-43.402,5.072-66.235,15.306-66.235,35.21c0,20.916,132.909,42.237,136.549,42.241c64.906,0.107,111.135-21.553,111.428-41.878
		C256.507,163.638,238.603,151.391,186.266,148.487z"/>
	<path fill="#35325E" d="M186.304,146.314c0,0,2.807,0.703,7.719,6.315c1.229,1.404,4.18,1.717,4.911,3.041
		c2.188,3.97,1.873,7.954,0.47,14.506c-1.564,7.307-7.02,20.581-27.133,29.937c-24.955,11.604-48.887,10.524-76.251,0
		C69.074,189.747,60,176.487,62.807,166.664c1.008-3.53,3.337-5.922,5.145-7.719c3.22-3.203,6.08-4.211,6.08-4.211
		s6.551,14.502,17.776,22.924c10.842,8.132,48.621,16.094,73.915,3.273C182.796,172.278,186.522,154.033,186.304,146.314z"/>
	
		<radialGradient id="SVGID_1_" cx="-2.7645" cy="196.0478" r="0.8488" gradientTransform="matrix(127.7382 0 0 -42.092 484.7295 8410.5752)" gradientUnits="userSpaceOnUse">
		<stop  offset="0" style="stop-color:#FFFFFF"/>
		<stop  offset="0.102" style="stop-color:#E8EAF5"/>
		<stop  offset="0.2118" style="stop-color:#D5D7EB"/>
		<stop  offset="0.3686" style="stop-color:#BAB7D9"/>
		<stop  offset="0.502" style="stop-color:#A099C7"/>
		<stop  offset="0.8118" style="stop-color:#675C95"/>
		<stop  offset="1" style="stop-color:#38346F"/>
	</radialGradient>
	<path fill="url(#SVGID_1_)" d="M188.797,224.01c-5.488,0.5-29.132,1.09-44.062-2.549c-14.93-3.641-57.166-27.671-67.365-31.679
		c-10.195-4.004-30.588-2.914-39.325-0.364c-8.74,2.55-19.961,3.067-23.424,1.338c-3.739-1.869-5.615-2.807-3.739-10.289
		c0.868-3.478,6.406-10.711,18.787-16.903c12.381-6.188,21.443-7.892,21.443-7.892s-18.916,4.777-26.197,8.419
		c-7.285,3.643-19.647,12.675-16.374,24.327c3.281,11.654,23.315,4.64,30.597,2.824c7.281-1.823,25.269-2.673,39.108,2.79
		c12.533,4.947,48.285,26.34,65.761,29.617c17.48,3.276,38.237,5.827,57.901,0c19.66-5.827,22.94-7.282,22.94-7.282
		S196.808,223.284,188.797,224.01z"/>
	<path fill="#9E9DC6" d="M188.797,224.01c-5.488,0.5-29.132,1.09-44.062-2.549c-14.93-3.641-57.166-27.671-67.365-31.679
		c-10.195-4.004-30.588-2.914-39.325-0.364c-8.74,2.55-19.961,3.067-23.424,1.338c-3.739-1.869-5.615-2.807-3.739-10.289
		c0.868-3.478,6.406-10.711,18.787-16.903c12.381-6.188,21.443-7.892,21.443-7.892s-18.916,4.777-26.197,8.419
		c-7.285,3.643-19.647,12.675-16.374,24.327c3.281,11.654,23.315,4.64,30.597,2.824c7.281-1.823,25.269-2.673,39.108,2.79
		c12.533,4.947,48.285,26.34,65.761,29.617c17.48,3.276,38.237,5.827,57.901,0c19.66-5.827,22.94-7.282,22.94-7.282
		S196.808,223.284,188.797,224.01z"/>
</g>
</svg>
