<?xml version="1.0" encoding="utf-8"?>
<!-- Generator: Adobe Illustrator 17.0.0, SVG Export Plug-In . SVG Version: 6.00 Build 0)  -->
<!DOCTYPE svg PUBLIC "-//W3C//DTD SVG 1.1 Basic//EN" "http://www.w3.org/Graphics/SVG/1.1/DTD/svg11-basic.dtd">
<svg version="1.1" baseProfile="basic" id="Слой_1"
	 xmlns="http://www.w3.org/2000/svg" xmlns:xlink="http://www.w3.org/1999/xlink" x="0px" y="0px" width="127.029px"
	 height="91.943px" viewBox="0 0 127.029 91.943" xml:space="preserve">
<path fill="#BAAE52" d="M105.873,16.474c0,0-8.177-10.654-33.03-12.35c-0.24-0.151-0.38-0.235-0.395-0.243l-0.124,0.209
	c-0.542-0.034-1.093-0.063-1.65-0.088c0.041-0.161,0.07-0.323,0.07-0.49c0-1.936-2.88-3.511-6.42-3.511
	c-3.548,0-6.419,1.575-6.419,3.511c0,0.255,0.052,0.504,0.147,0.744c-1.305,0.226-4.083,0.746-7.691,1.628l-0.188-0.347
	c-0.119,0.065-0.586,0.318-1.308,0.722c-9.608,2.467-23.937,7.298-32.85,15.632c-0.626,0.195-1.129,0.695-1.355,1.338
	c-3.249,3.4-5.593,7.343-6.421,11.899c0,0-1.938,15.705-5.33,26.388c0,0-2.909,12.133-2.909,13.589c0,0,1.055,4.426,14.956,7.38
	c-0.006,0.024-0.012,0.048-0.017,0.072l0.518,0.12c0.006-0.028,0.013-0.056,0.02-0.083c0.851,0.175,1.746,0.344,2.692,0.506
	c0,0,29.075,12.112,83.339,7.991c0,0,22.778-2.903,24.468-14.774C125.977,76.314,133.973,33.675,105.873,16.474z"/>
</svg>
