<?xml version="1.0" encoding="utf-8"?>
<!-- Generator: Adobe Illustrator 17.0.0, SVG Export Plug-In . SVG Version: 6.00 Build 0)  -->
<!DOCTYPE svg PUBLIC "-//W3C//DTD SVG 1.1 Basic//EN" "http://www.w3.org/Graphics/SVG/1.1/DTD/svg11-basic.dtd">
<svg version="1.1" baseProfile="basic" id="Слой_1"
	 xmlns="http://www.w3.org/2000/svg" xmlns:xlink="http://www.w3.org/1999/xlink" x="0px" y="0px" width="262.958px"
	 height="236.646px" viewBox="0 0 262.958 236.646" xml:space="preserve">
<path fill="#F1C95A" stroke="#FFFFFF" stroke-width="6" stroke-miterlimit="10" d="M256.163,187.707
	c0.336-23.362-16.68-35.589-66.057-38.875c-2.456-2.067-3.802-2.407-3.802-2.407c0,0.006,0,0.013,0,0.02
	c-5.286-7.319-6.208-8.549-8.225-14.602c-5.425-16.283-4.162-9.986-6.555-22.944c-0.603-3.267-0.768-6.13-0.781-8.805
	c-0.014-2.675,0.123-5.162,0.125-7.681c0.003-5.038-0.539-10.198-3.919-17.224c-2.295-4.769-3.698-9.616-3.77-13.867
	c-0.103-6.212,2.638-11.151,9.597-12.713c17.844-4.004,38.784,10.737,42.24,7.284c0.015-0.015,0.03-0.035,0.046-0.051
	c0.077-0.081,0.139-0.158,0.184-0.232c1.275-1.871,1.203-8.154-16.252-23.02c-19.663-16.752-27.31-19.303-42.968-23.307
	c-19.406-4.966-42.604,4.73-48.43,25.123c-5.827,20.389-3.277,14.201-6.191,20.03c-2.913,5.827-10.35,22.97-12.899,36.442
	c-2.546,13.472-2.96,16.48-7.857,37.476c-2.68,11.482-4.755,18.736-6.227,23.779c-21.111,2.467-37.36,6.155-48.476,11.584
	c-0.362,0.164-0.711,0.326-1.03,0.486c-6.948,3.475-18.505,11.854-16.719,22.731c-0.002,0.137-0.01,0.272-0.01,0.41
	c0,20.916,132.909,42.237,136.549,42.241c13.474,0.022,26.14-0.896,37.76-2.543c6.487-0.385,13.007-1.382,19.413-3.281
	c4.166-1.235,7.59-2.271,10.41-3.141c0.963-0.29,1.914-0.586,2.85-0.887c8.016-2.517,9.68-3.254,9.68-3.254
	s-0.586,0.145-1.589,0.388C243.824,208.862,256.013,198.11,256.163,187.707z"/>
<g>
	<path fill="#4C498F" d="M8.186,187.344c0,20.916,132.909,42.237,136.549,42.241c64.906,0.107,111.135-21.553,111.428-41.878
		c0.445-30.948-29.543-42.36-124.9-39.325C51.15,150.928,8.186,160.036,8.186,187.344z"/>
	<path fill="#4C498F" d="M107.595,34.406c-5.827,20.389-3.277,14.201-6.191,20.03c-2.913,5.827-10.35,22.97-12.899,36.442
		c-2.546,13.472-2.96,16.48-7.857,37.476c-5.1,21.85-8.013,28.404-8.737,33.502c-0.731,5.099-6.194,8.74,2.546,18.57
		c8.384,9.432,23.671,19.665,65.908,21.486c34.208,1.474,51.345-30.223,51.345-30.223s2.549-14.201-4.008-23.304
		c-6.55-9.104-7.439-9.986-9.623-16.54c-5.425-16.283-4.162-9.986-6.555-22.944c-2.411-13.07,2.185-19.658-4.576-33.71
		c-5.65-11.74-5.894-23.951,5.827-26.582c17.844-4.004,38.784,10.737,42.24,7.284c1.456-1.455,2.438-7.581-16.022-23.303
		c-19.663-16.752-27.31-19.303-42.968-23.307C136.619,4.317,113.421,14.013,107.595,34.406z"/>
	<path fill="#3F3C84" d="M140.517,201.914c34.106,1.373,51.193-30.227,51.193-30.227s2.549-14.201-4.008-23.304
		c-6.55-9.104-7.439-9.986-9.623-16.54c-5.425-16.283-4.162-9.986-6.555-22.944c-2.411-13.07,2.185-19.658-4.576-33.71
		c-5.65-11.74-5.894-23.951,5.827-26.582c17.844-4.004,38.784,10.737,42.24,7.284c1.456-1.455-1.617-1.19-20.078-16.913
		c-0.778-0.663-1.535-1.301-2.277-1.92c-59.167-27.041-84.191,29.209-79.065,96.066S123.73,183.378,140.517,201.914z"/>
	<path fill="#35325E" d="M186.304,146.425c0,0,2.807,0.703,7.719,6.315c1.229,1.404,4.18,1.717,4.911,3.041
		c2.188,3.97,1.873,7.954,0.47,14.506c-1.564,7.307-7.02,20.581-27.133,29.937c-24.955,11.604-48.887,10.524-76.251,0
		C69.074,189.859,60,176.599,62.807,166.776c1.008-3.53,3.337-5.922,5.145-7.719c3.22-3.203,6.08-4.211,6.08-4.211
		s6.551,14.502,17.776,22.924c10.842,8.132,48.621,16.094,73.915,3.273C182.796,172.389,186.522,154.145,186.304,146.425z"/>
	
		<radialGradient id="SVGID_1_" cx="-8.5232" cy="9.0384" r="0.8488" gradientTransform="matrix(127.7382 0 0 42.092 1220.3361 -221.8033)" gradientUnits="userSpaceOnUse">
		<stop  offset="0" style="stop-color:#FFFFFF"/>
		<stop  offset="0.102" style="stop-color:#E8EAF5"/>
		<stop  offset="0.2118" style="stop-color:#D5D7EB"/>
		<stop  offset="0.3686" style="stop-color:#BAB7D9"/>
		<stop  offset="0.502" style="stop-color:#A099C7"/>
		<stop  offset="0.8118" style="stop-color:#675C95"/>
		<stop  offset="1" style="stop-color:#38346F"/>
	</radialGradient>
	<path fill="url(#SVGID_1_)" d="M188.797,224.122c-5.488,0.5-29.132,1.09-44.062-2.549c-14.93-3.641-57.166-27.671-67.365-31.679
		c-10.195-4.004-30.588-2.914-39.325-0.364c-8.74,2.55-19.961,3.067-23.424,1.338c-3.739-1.869-5.615-2.807-3.739-10.289
		c0.868-3.478,6.406-10.711,18.787-16.903c12.381-6.188,21.443-7.892,21.443-7.892s-18.916,4.777-26.197,8.419
		c-7.285,3.643-19.647,12.675-16.374,24.327c3.281,11.654,23.315,4.64,30.597,2.824c7.281-1.823,25.269-2.673,39.108,2.79
		c12.533,4.947,48.285,26.34,65.761,29.617c17.48,3.276,38.237,5.827,57.901,0c19.66-5.827,22.94-7.282,22.94-7.282
		S196.808,223.396,188.797,224.122z"/>
	<path fill="#9E9DC6" d="M188.797,224.122c-5.488,0.5-29.132,1.09-44.062-2.549c-14.93-3.641-57.166-27.671-67.365-31.679
		c-10.195-4.004-30.588-2.914-39.325-0.364c-8.74,2.55-19.961,3.067-23.424,1.338c-3.739-1.869-5.615-2.807-3.739-10.289
		c0.868-3.478,6.406-10.711,18.787-16.903c12.381-6.188,21.443-7.892,21.443-7.892s-18.916,4.777-26.197,8.419
		c-7.285,3.643-19.647,12.675-16.374,24.327c3.281,11.654,23.315,4.64,30.597,2.824c7.281-1.823,25.269-2.673,39.108,2.79
		c12.533,4.947,48.285,26.34,65.761,29.617c17.48,3.276,38.237,5.827,57.901,0c19.66-5.827,22.94-7.282,22.94-7.282
		S196.808,223.396,188.797,224.122z"/>
	<path fill="#F1C95A" d="M125.682,129.235c-0.027-0.22-0.164-0.305-0.419-0.144c-0.38,0.238-4.99,4.045-4.99,4.045
		s-5.276-2.372-5.711-2.584c-0.439-0.212-0.469,0.153-0.371,0.491c0.099,0.331,2.183,5.791,2.183,5.791s-3.782,4.086-4.05,4.498
		c-0.267,0.405-0.166,0.598,0.141,0.634c0.309,0.036,6.223-0.278,6.223-0.278s2.88,4.988,3.146,5.357
		c0.27,0.367,0.434,0.258,0.567,0c0.131-0.261,1.621-6.057,1.621-6.057s5.665-1.205,6.098-1.334
		c0.433-0.133,0.532-0.326,0.248-0.507c-0.288-0.183-5.37-3.443-5.37-3.443S125.713,129.461,125.682,129.235z"/>
	<path fill="#F1C95A" d="M99.135,156.727c-0.026-0.267-0.167-0.352-0.43-0.127c-0.373,0.322-4.598,5.046-4.598,5.046
		s-4.798-2.128-5.196-2.318c-0.407-0.195-0.405,0.206-0.256,0.555c0.107,0.347,2.277,5.783,2.277,5.783s-2.668,3.938-2.838,4.309
		c-0.159,0.358-0.061,0.527,0.167,0.551c0.254,0.026,4.891-0.371,4.891-0.371s2.557,4.349,2.763,4.664
		c0.237,0.311,0.366,0.219,0.464,0.006c0.121-0.224,1.269-5.447,1.269-5.447s5.153-1.348,5.561-1.496
		c0.413-0.149,0.536-0.354,0.266-0.523c-0.273-0.174-4.974-3.304-4.974-3.304S99.151,156.989,99.135,156.727z"/>
	<path fill="#F1C95A" d="M165.755,162.437c0.014-0.017,0.028-0.041,0.049-0.087c0.09-0.208,0.864-3.288,1.402-5.434l0.032-0.131
		l0.123-0.045c1.737-0.645,5.145-1.91,5.448-2.052c0.099-0.041,0.157-0.083,0.195-0.107c-0.004-0.004-0.008-0.008-0.017-0.012
		c-0.234-0.139-4.664-2.727-4.71-2.751l-0.107-0.064l0.015-0.148c0.328-2.663,0.856-7.024,0.864-7.383
		c0.002-0.004-0.004-0.012,0-0.02c-0.017,0.008-0.044,0.027-0.074,0.057c-0.311,0.274-3.723,4.009-4.96,5.368l-0.105,0.113
		l-0.127-0.047c-0.218-0.079-5.442-2-5.908-2.195c-0.047-0.014-0.075-0.023-0.097-0.023c0.002,0.058,0.017,0.155,0.066,0.292
		c0.109,0.307,1.976,4.542,2.644,6.039l0.053,0.129l-0.081,0.115c-1.302,1.831-3.201,4.552-3.344,4.843
		c-0.081,0.159-0.081,0.234-0.083,0.254c0.018,0.006,0.04,0.012,0.087,0.014c0.226-0.017,3.443-0.659,5.54-1.082l0.12-0.026
		l0.063,0.101c0.751,1.142,2.638,3.976,2.814,4.192C165.704,162.404,165.737,162.426,165.755,162.437z"/>
	<path fill="#F1C95A" d="M119.417,73.764c-0.03-0.261-0.159-0.348-0.423-0.13c-0.374,0.32-4.836,5.074-4.836,5.074
		s-5.154-2.123-5.588-2.319c-0.435-0.2-0.431,0.214-0.32,0.581c0.133,0.358,2.472,5.92,2.472,5.92s-3.04,4.209-3.243,4.607
		c-0.184,0.388-0.079,0.556,0.18,0.568c0.264,0.012,5.376-0.678,5.376-0.678s2.607,4.249,2.842,4.546
		c0.235,0.296,0.371,0.193,0.481-0.031c0.11-0.232,1.381-5.541,1.381-5.541s5.173-1.576,5.586-1.734
		c0.411-0.163,0.509-0.364,0.25-0.522c-0.25-0.157-4.914-3.078-4.914-3.078S119.451,74.025,119.417,73.764z"/>
	<path fill="#F1C95A" d="M140.977,36.675c0-0.238-0.151-0.325-0.445-0.134c-0.413,0.284-5.532,4.485-5.532,4.485
		s-4.814-2.227-5.23-2.426c-0.387-0.197-0.43,0.176-0.351,0.507c0.062,0.33,1.603,5.607,1.603,5.607s-3.546,3.721-3.794,4.08
		c-0.229,0.35-0.161,0.52,0.112,0.558c0.258,0.038,5.45-0.099,5.45-0.099s2.188,4.573,2.41,4.912
		c0.208,0.335,0.371,0.248,0.519,0.028c0.137-0.222,2.127-5.466,2.127-5.466s5.876-1.065,6.366-1.19
		c0.462-0.121,0.614-0.318,0.317-0.5c-0.246-0.189-5.107-3.489-5.107-3.489S140.994,36.926,140.977,36.675z"/>
	<path fill="#F1C95A" d="M174.793,20.34c0.013-0.235-0.117-0.322-0.44-0.137c-0.464,0.273-5.924,4.283-5.924,4.283
		s-5.547-2.038-6.026-2.233c-0.496-0.197-0.512,0.18-0.398,0.515c0.119,0.325,2.305,5.126,2.305,5.126s-3.536,3.307-3.758,3.614
		c-0.231,0.296-0.125,0.424,0.151,0.436c0.292,0.008,5.654-0.5,5.654-0.5s2.215,3.092,2.409,3.298
		c0.192,0.207,0.344,0.135,0.467-0.024c0.136-0.163,2.008-4.027,2.008-4.027s5.348-1.152,5.762-1.267
		c0.428-0.119,0.563-0.272,0.337-0.393c-0.222-0.124-4.453-2.497-4.453-2.497S174.772,20.578,174.793,20.34z"/>
	<path fill="#F1C95A" d="M99.263,111.401c-0.235-2.321-0.929-4.852-2.337-6.42c3.239,0.705,5.931,4.035,6.38,8.532
		c0.589,5.709-2.712,10.468-6.962,10.657c-3.035,0.145-5.683-2.019-7.033-5.148c1.452,1.06,3.41,1.262,4.896,1.131
		C97.186,119.886,99.72,115.624,99.263,111.401z"/>
	<path fill="#F1C95A" d="M190.459,37.823c0.755-1.25,1.364-2.803,1.298-4.205c1.241,1.794,1.248,4.521-0.169,6.859
		c-1.815,2.997-5.281,4.216-7.743,2.726c-1.857-1.125-2.609-3.474-2.087-5.846c0.473,1.281,1.575,2.256,2.523,2.83
		C186.077,41.278,189.072,40.111,190.459,37.823z"/>
	<path fill="#F1C95A" d="M123.398,25.495c-0.26,1.776-0.168,3.915,0.832,5.584c-2.879-1.451-4.407-4.516-3.777-7.672
		c0.732-3.694,4.23-6.437,8.034-6.437c3.021,0,5.646,1.659,6.832,4.18c-1.659-0.975-3.786-1.302-5.403-1.328
		C126.936,19.775,123.874,22.433,123.398,25.495z"/>
	<path fill="#F1C95A" d="M157.586,101.854c0.875-1.819,1.45-4.021,1.005-5.868c2.368,2.135,3.101,5.885,1.447,9.397
		c-2.175,4.501-7.253,6.558-11.165,4.676c-2.81-1.355-4.224-4.373-3.879-7.479c0.841,1.568,2.515,2.701,3.934,3.339
		C151.736,107.183,155.987,105.205,157.586,101.854z"/>
</g>
</svg>
