<?xml version="1.0" encoding="utf-8"?>
<!-- Generator: Adobe Illustrator 17.0.0, SVG Export Plug-In . SVG Version: 6.00 Build 0)  -->
<!DOCTYPE svg PUBLIC "-//W3C//DTD SVG 1.1 Basic//EN" "http://www.w3.org/Graphics/SVG/1.1/DTD/svg11-basic.dtd">
<svg version="1.1" baseProfile="basic" id="Слой_1"
	 xmlns="http://www.w3.org/2000/svg" xmlns:xlink="http://www.w3.org/1999/xlink" x="0px" y="0px" width="142.149px"
	 height="179.782px" viewBox="0 0 142.149 179.782" xml:space="preserve">
<path fill="#87BB50" d="M125.42,24.587C105.757,7.835,98.11,5.284,82.452,1.28c-19.406-4.963-42.604,4.732-48.43,25.125
	c-5.827,20.389-3.277,14.201-6.191,20.03c-2.913,5.827-10.35,22.97-12.899,36.442c-2.547,13.472-2.96,16.48-7.857,37.476
	c-3.243,13.896-5.6,21.601-7.074,26.683c0.292-0.131,0.459-0.191,0.459-0.191s6.551,14.502,17.776,22.924
	c5.818,4.363,19.394,8.673,34.632,9.754c0.006,0,0.013,0.001,0.019,0.001c0.869,0.061,1.742,0.113,2.62,0.152
	c0.025,0.001,0.049,0.002,0.074,0.003c0.86,0.038,1.724,0.067,2.592,0.084c0.045,0.001,0.09,0,0.135,0.001
	c0.847,0.015,1.697,0.021,2.549,0.014c0.07-0.001,0.141-0.003,0.211-0.004c0.827-0.009,1.654-0.025,2.483-0.056
	c0.106-0.004,0.213-0.011,0.319-0.015c0.794-0.032,1.588-0.07,2.382-0.122c0.147-0.01,0.295-0.024,0.442-0.035
	c0.753-0.053,1.505-0.112,2.256-0.185c0.196-0.019,0.392-0.045,0.588-0.065c0.704-0.073,1.407-0.149,2.108-0.241
	c0.236-0.031,0.471-0.07,0.706-0.103c0.66-0.092,1.32-0.184,1.976-0.293c0.278-0.046,0.553-0.102,0.83-0.151
	c0.613-0.108,1.225-0.215,1.834-0.339c0.32-0.065,0.635-0.142,0.953-0.211c0.562-0.122,1.124-0.24,1.681-0.376
	c0.364-0.088,0.722-0.191,1.083-0.285c0.508-0.133,1.017-0.26,1.52-0.404c0.401-0.115,0.796-0.246,1.194-0.369
	c0.456-0.141,0.915-0.274,1.366-0.425c0.449-0.15,0.89-0.319,1.334-0.479c0.393-0.142,0.79-0.275,1.178-0.425
	c0.523-0.202,1.035-0.425,1.55-0.642c0.301-0.127,0.607-0.243,0.905-0.376c0.809-0.359,1.607-0.737,2.393-1.135
	c17.06-8.647,20.793-26.87,20.581-34.599c-5.291-7.327-6.207-8.547-8.225-14.601c-5.425-16.283-4.162-9.987-6.555-22.944
	c-2.411-13.07,2.185-19.658-4.576-33.71c-5.65-11.74-5.894-23.951,5.827-26.582c17.844-4.004,38.784,10.737,42.24,7.284
	c0.103-0.103,0.18-0.197,0.234-0.288C142.947,45.724,142.857,39.438,125.42,24.587z"/>
</svg>
