<?xml version="1.0" encoding="utf-8"?>
<!-- Generator: Adobe Illustrator 17.0.0, SVG Export Plug-In . SVG Version: 6.00 Build 0)  -->
<!DOCTYPE svg PUBLIC "-//W3C//DTD SVG 1.1 Basic//EN" "http://www.w3.org/Graphics/SVG/1.1/DTD/svg11-basic.dtd">
<svg version="1.1" baseProfile="basic" id="Слой_1"
	 xmlns="http://www.w3.org/2000/svg" xmlns:xlink="http://www.w3.org/1999/xlink" x="0px" y="0px" width="150.866px"
	 height="144.502px" viewBox="0 0 150.866 144.502" xml:space="preserve">
<path fill="#B76153" d="M147.781,14.078c-4.876-2.852-13.302-0.021-21.694,4.432c1.124-1.11,2.101-2.199,2.846-3.228
	c0.827-1.145,1.378-2.66,1.631-4.267c0.009,0.006,0.017,0.012,0.023,0.019c0.993-5.226-0.543-11.859-5.615-10.948
	c-3.082,0.556-6.278,3.508-9.276,7.451c-0.893-0.624-1.977-0.994-3.149-0.994c-2.963,0-5.372,2.344-5.493,5.276
	c-9.68-6.158-18.44-3.436-18.44-3.436V21.9c-0.809,0.12-1.656,0.32-2.532,0.589c-0.228-2.176-0.694-5.784-1.456-8.109
	c-0.846-2.579-1.989-4.467-2.673-5.46c0.074-0.102,0.147-0.206,0.213-0.316c1.279-2.147,0.424-5.009-1.906-6.397
	c-2.33-1.384-5.254-0.769-6.533,1.375c-1.275,2.145-0.421,5.009,1.908,6.395c1.515,0.901,3.279,0.952,4.68,0.29
	c0.561,0.729,1.285,2.103,1.691,4.59c0.441,2.69,0.383,7.162,0.333,9.089c-1.475,0.684-3.001,1.507-4.553,2.421
	c-4.62,0.003-8.57,2.857-10.201,6.896c-0.116,0.086-0.231,0.173-0.347,0.259c-1.061-2.708-3.691-4.629-6.777-4.629
	c-4.021,0-7.282,3.26-7.282,7.283c0,2.421,1.188,4.561,3.007,5.885c-2.291,1.766-4.215,3.185-5.583,3.971
	c-7.104,4.085-13.319,4.706-15.807,6.75c-2.486,2.044-3.019,9.502-4.884,10.123c-1.866,0.623-3.223-10.301-12.698-9.352
	C7.049,54.571,3.716,75.073,3.271,75.784c-0.443,0.711-2.624-0.208-3.226,2.456c-0.488,2.168,3.077,6.066,4.417,7.439
	c-0.012,0.012-0.028,0.017-0.039,0.03c-0.141,0.163-0.187,0.37-0.157,0.569c-1.404,0.339-4.413,1.783-3.866,7.95
	c0.714,7.994,9.487,13.486,16.637,10.595c8.348-3.374,13.321-16.279,21.669-21.49c3.113-1.943,8.323-3.323,13.769-3.608
	c5.07-0.265,10.345,0.418,14.327,2.49c-0.003,0.003-0.006,0.006-0.009,0.009c1.232,0.642,2.345,1.412,3.29,2.327
	c0.123,0.12,0.244,0.241,0.361,0.366c0.07,0.075,0.14,0.15,0.208,0.227c0.193,0.219,0.381,0.441,0.556,0.675
	c0.179,0.239,0.347,0.494,0.509,0.756c0.046,0.074,0.09,0.151,0.134,0.227c0.121,0.207,0.237,0.421,0.348,0.642
	c0.038,0.075,0.077,0.148,0.113,0.224c0.137,0.286,0.267,0.583,0.388,0.891c0.03,0.075,0.056,0.155,0.085,0.232
	c0.09,0.241,0.176,0.488,0.257,0.742c0.039,0.122,0.077,0.246,0.114,0.371c0.07,0.238,0.135,0.483,0.198,0.732
	c0.029,0.116,0.061,0.229,0.088,0.347c0.078,0.334,0.148,0.679,0.213,1.032c0.031,0.171,0.059,0.348,0.088,0.524
	c0.034,0.211,0.067,0.425,0.097,0.643c0.028,0.202,0.055,0.404,0.079,0.611c0.024,0.208,0.044,0.422,0.065,0.636
	c0.038,0.395,0.07,0.799,0.096,1.213c0.011,0.176,0.023,0.351,0.032,0.53c0.013,0.275,0.023,0.556,0.032,0.84
	c0.005,0.159,0.008,0.321,0.011,0.482c0.019,1.01,0.007,2.067-0.035,3.174c-0.168,4.4-0.809,9.561-1.862,15.474
	c-0.325,1.822-0.688,3.717-1.088,5.681c-0.017,0.082-0.035,0.167-0.051,0.249c-0.18,0.879-0.366,1.771-0.56,2.678
	c-0.032,0.151-0.066,0.304-0.098,0.456c-0.185,0.858-0.375,1.727-0.572,2.609c-0.037,0.163-0.073,0.327-0.11,0.491
	c-0.158,0.702-0.323,1.418-0.488,2.135c9.635,8.736,22.421,14.059,36.451,14.059c9.378,0,18.201-2.378,25.898-6.565
	c3.116-30.392,4.579-65.042-6.269-98.343c-0.023-0.071-0.044-0.143-0.067-0.214c5.875-0.289,11.724-1.053,15.666-2.735
	c1.641-0.7,3.27-2.112,4.667-3.902c0.002,0.015,0.005,0.032,0.007,0.047C150.347,27.117,153.516,17.43,147.781,14.078z"/>
</svg>
