<?xml version="1.0" encoding="utf-8"?>
<!-- Generator: Adobe Illustrator 17.0.0, SVG Export Plug-In . SVG Version: 6.00 Build 0)  -->
<!DOCTYPE svg PUBLIC "-//W3C//DTD SVG 1.1 Basic//EN" "http://www.w3.org/Graphics/SVG/1.1/DTD/svg11-basic.dtd">
<svg version="1.1" baseProfile="basic" id="Слой_1"
	 xmlns="http://www.w3.org/2000/svg" xmlns:xlink="http://www.w3.org/1999/xlink" x="0px" y="0px" width="383.875px"
	 height="142.25px" viewBox="0 0 383.875 142.25" xml:space="preserve">
<polygon fill="#A8A8A8" stroke="#272525" stroke-width="3" stroke-miterlimit="10" points="557.307,189.762 557.307,189.762 
	557.306,189.761 "/>
<path fill="#A8A8A8" stroke="#272525" stroke-width="3" stroke-miterlimit="10" d="M30.402,59.29
	c-5.975-0.319-13.117-0.91-18.657,1.728c-3.644,1.737-4.734,4.971-2.805,8.527c2.881,5.311,8.734,8.758,13.762,11.934l65.831,41.61
	c9.881,6.245,22.511,9.564,34.287,10.133c1.704,0.082,3.398,0.091,5.099,0.091h67.952C154.83,109.928,114.836,84.69,73.124,61.59
	L30.402,59.29z"/>
<path fill="#A8A8A8" stroke="#272525" stroke-width="3" stroke-miterlimit="10" d="M282.087,18.939l-59.969-0.937
	c-0.001,0-0.002,0-0.003,0h-0.004c-4.759-0.076-8.715,2.391-8.781,5.479l-0.004,0.175l-0.325,14.522
	c-0.066,3.088,3.778,5.677,8.538,5.753l59.969,0.937c4.766,0.073,8.716-2.394,8.788-5.482l0.323-14.693
	C290.691,21.6,286.846,19.015,282.087,18.939z"/>
<path fill="#A8A8A8" stroke="#272525" stroke-width="3" stroke-miterlimit="10" d="M205.916,23.788
	c0.015-1.428-0.364-2.847-0.988-3.925c-0.642-1.108-1.542-1.856-2.552-1.863c-0.133-0.001-0.269,0.011-0.405,0.036l-3.538,0.192
	c-0.974,0.182-1.912,0.387-2.83,0.605c-0.137,0.032-0.276,0.063-0.411,0.096c-0.865,0.212-1.703,0.44-2.519,0.681
	c-0.156,0.046-0.31,0.092-0.464,0.139c-0.807,0.246-1.593,0.503-2.352,0.774c-0.115,0.041-0.226,0.084-0.34,0.125
	c-0.776,0.283-1.532,0.576-2.257,0.882c-0.015,0.006-0.032,0.013-0.047,0.019c-0.735,0.311-1.438,0.636-2.121,0.967
	c-0.103,0.05-0.208,0.099-0.309,0.149c-0.648,0.32-1.271,0.648-1.873,0.982c-0.109,0.06-0.216,0.121-0.324,0.182
	c-0.598,0.339-1.176,0.683-1.727,1.033c-0.071,0.045-0.139,0.091-0.21,0.136c-0.565,0.363-1.11,0.73-1.627,1.101
	c-0.01,0.007-0.02,0.014-0.03,0.021c-0.523,0.376-1.016,0.756-1.49,1.136c-0.062,0.05-0.126,0.1-0.188,0.15
	c-0.452,0.368-0.88,0.736-1.288,1.104c-0.061,0.055-0.12,0.109-0.18,0.164c-0.407,0.373-0.795,0.746-1.158,1.115
	c-0.028,0.029-0.055,0.058-0.083,0.086c-0.754,0.775-1.408,1.535-1.969,2.267c-0.025,0.032-0.05,0.065-0.075,0.097
	c-0.27,0.356-0.516,0.703-0.741,1.042c-0.021,0.031-0.041,0.062-0.061,0.093c-0.227,0.346-0.433,0.683-0.614,1.008
	c-0.001,0.002-0.002,0.003-0.003,0.005c-0.634,1.137-0.994,2.131-1.094,2.888c-0.398,3.033,1.746,5.677,3.946,5.753l27.713,0.937
	c2.199,0.076,4.028-2.391,4.058-5.482l0.054-5.243c0.016-0.011,0.036-0.02,0.052-0.032l0.046-9.415v-0.001L205.916,23.788
	L205.916,23.788z"/>
<path fill="#A8A8A8" stroke="#272525" stroke-width="3" stroke-miterlimit="10" d="M174.653,42.726
	c-2.199-0.076-4.344-2.72-3.946-5.753c0.1-0.757,0.46-1.751,1.094-2.888c0.001-0.002,0.002-0.003,0.003-0.005
	c0.181-0.324,0.388-0.662,0.614-1.008c0.02-0.031,0.04-0.062,0.061-0.093c0.225-0.339,0.472-0.687,0.741-1.042
	c0.024-0.032,0.05-0.065,0.075-0.097c0.561-0.732,1.215-1.492,1.969-2.267c0.028-0.029,0.054-0.057,0.083-0.086
	c0.362-0.369,0.75-0.742,1.158-1.115c0.06-0.055,0.119-0.109,0.18-0.164c0.408-0.368,0.836-0.736,1.288-1.104
	c0.062-0.05,0.126-0.1,0.188-0.15c0.474-0.38,0.967-0.76,1.49-1.136c0.01-0.007,0.02-0.014,0.03-0.021
	c0.517-0.371,1.062-0.738,1.627-1.101c0.071-0.045,0.138-0.091,0.21-0.136c0.552-0.35,1.13-0.694,1.727-1.033
	c0.107-0.061,0.215-0.122,0.324-0.182c0.602-0.334,1.225-0.662,1.873-0.982c0.102-0.05,0.206-0.099,0.309-0.149
	c0.684-0.331,1.386-0.655,2.121-0.967c0.015-0.007,0.032-0.013,0.047-0.019c0.725-0.306,1.481-0.598,2.257-0.882
	c0.114-0.042,0.225-0.084,0.34-0.125c0.759-0.271,1.545-0.528,2.352-0.774c0.077-0.023,0.155-0.046,0.233-0.07
	c0.905-3.25,1.842-6.503,2.852-9.765c0.095-0.473,0.13-0.958,0.136-1.45c-5.394-0.197-10.812-0.473-16.095,0.911
	c-5.5,1.442-11.079,4.645-15.645,7.961l-31.358,22.791L73,61.585l109.727,5.909c1.328-8.129,2.818-16.235,4.548-24.344
	L174.653,42.726z"/>
<path fill="#A8A8A8" stroke="#272525" stroke-width="3" stroke-miterlimit="10" d="M304.972,38.558
	c-0.669-1.783-1.357-3.526-1.387-5.479c-0.076-4.852,4.487-6.081,8.573-6.145c5.765-0.088,10.352-5.086,7.487-10.532
	c-1.375-2.61-4.414-4.724-9.105-4.849L253.794,10c-0.074,2.82-0.138,5.64-0.192,8.461l28.125,0.439
	c4.759,0.076,8.604,2.662,8.531,5.753l-0.323,14.693c-0.072,3.088-4.022,5.555-8.788,5.482l-27.872-0.435
	c-0.076,9.053-0.143,18.106-0.275,27.159l65.704,3.538L304.972,38.558z"/>
<path fill="#A8A8A8" stroke="#272525" stroke-width="3" stroke-miterlimit="10" d="M221.412,43.509
	c-4.759-0.076-8.604-2.665-8.538-5.753l0.325-14.522l0.004-0.175c0.066-3.088,4.022-5.555,8.781-5.479h0.004
	c0.001,0,0.002,0,0.003,0l31.844,0.498c0.054-2.82,0.118-5.64,0.192-8.461l-56.599-1.548c-0.687-0.019-1.375-0.043-2.064-0.069
	c-0.005,0.492-0.041,0.977-0.136,1.45c-1.01,3.262-1.947,6.515-2.852,9.765c0.077-0.023,0.154-0.047,0.232-0.069
	c0.816-0.241,1.654-0.469,2.519-0.681c0.135-0.033,0.274-0.064,0.411-0.096c0.918-0.218,1.857-0.423,2.83-0.605l3.538-0.192
	c0.137-0.025,0.272-0.037,0.405-0.036c1.01,0.007,1.91,0.755,2.552,1.863c0.625,1.078,1.004,2.498,0.988,3.925v0.002v0.001
	l-0.046,9.415c-0.016,0.011-0.036,0.02-0.052,0.032l-0.054,5.243c-0.03,3.091-1.859,5.558-4.058,5.482l-15.093-0.51
	c-1.73,8.109-3.22,16.215-4.548,24.344l71.232,3.836c0.132-9.053,0.199-18.106,0.275-27.159L221.412,43.509z"/>
<path fill="#A8A8A8" stroke="#272525" stroke-width="3" stroke-miterlimit="10" d="M373.763,113.913
	c0.475-3.55-1.488-6.483-4.46-8.277l-9.941-6.002l-9.166-13.784c-2.933-4.417-6.419-6.915-10.343-8.375
	c-3.863-1.439-8.104-1.847-12.649-2.087L320,75l21.922,56.923l3.978-0.594l21.553-9.242
	C370.672,120.706,373.294,117.412,373.763,113.913z"/>
<path fill="#A8A8A8" stroke="#272525" stroke-width="3" stroke-miterlimit="10" d="M195.222,133.028h136.799l9.86-1.472
	l-10.833-28.128C265.383,101.902,199.898,99.464,134,97C154.376,109.14,174.668,121.316,195.222,133.028z"/>
<path fill="#A8A8A8" stroke="#272525" stroke-width="3" stroke-miterlimit="10" d="M73,62
	c20.822,11.531,41.215,23.595,61.525,35.695c65.898,2.464,131.384,4.902,197.048,6.428l-11.09-28.795L73,62z"/>
</svg>
