<?xml version="1.0" encoding="utf-8"?>
<!-- Generator: Adobe Illustrator 17.0.0, SVG Export Plug-In . SVG Version: 6.00 Build 0)  -->
<!DOCTYPE svg PUBLIC "-//W3C//DTD SVG 1.1 Basic//EN" "http://www.w3.org/Graphics/SVG/1.1/DTD/svg11-basic.dtd">
<svg version="1.1" baseProfile="basic" id="Слой_1"
	 xmlns="http://www.w3.org/2000/svg" xmlns:xlink="http://www.w3.org/1999/xlink" x="0px" y="0px" width="383.875px"
	 height="142.25px" viewBox="0 0 383.875 142.25" xml:space="preserve">
<polygon fill="#A8A8A8" stroke="#272525" stroke-width="3" stroke-miterlimit="10" points="557.307,189.762 557.307,189.762 
	557.306,189.761 "/>
<path fill="#A8A8A8" stroke="#272525" stroke-width="3" stroke-miterlimit="10" d="M369.911,105.575l-9.942-6.002l-9.166-13.784
	c-2.933-4.417-6.419-6.915-10.343-8.375c-3.863-1.439-8.104-1.847-12.649-2.087l-7.289-0.393l-13.757-36.596
	c-0.669-1.783-1.357-3.526-1.387-5.479c-0.076-4.852,4.487-6.081,8.573-6.145c5.765-0.088,10.352-5.086,7.487-10.532
	c-1.375-2.61-4.414-4.724-9.105-4.849L198.988,8.232c-6.072-0.167-12.202-0.718-18.158,0.843c-5.5,1.442-11.079,4.645-15.645,7.961
	l-31.358,22.791L95.181,53.845l0,0l-2.93,1.063l-18.566,6.734l-43.281-2.331c-5.975-0.319-13.117-0.91-18.657,1.728
	c-3.644,1.737-4.733,4.971-2.805,8.527c2.881,5.311,8.734,8.758,13.762,11.934l65.831,41.61c9.881,6.245,22.511,9.564,34.287,10.133
	c1.704,0.082,3.398,0.091,5.099,0.091H332.67l13.838-2.066l21.553-9.242c3.219-1.381,5.841-4.676,6.309-8.174
	C374.845,110.303,372.883,107.37,369.911,105.575z"/>
</svg>
