<?xml version="1.0" encoding="utf-8"?>
<!-- Generator: Adobe Illustrator 17.0.0, SVG Export Plug-In . SVG Version: 6.00 Build 0)  -->
<!DOCTYPE svg PUBLIC "-//W3C//DTD SVG 1.1 Basic//EN" "http://www.w3.org/Graphics/SVG/1.1/DTD/svg11-basic.dtd">
<svg version="1.1" baseProfile="basic" id="Слой_1"
	 xmlns="http://www.w3.org/2000/svg" xmlns:xlink="http://www.w3.org/1999/xlink" x="0px" y="0px" width="123.089px"
	 height="59.496px" viewBox="0 0 123.089 59.496" xml:space="preserve">
<path fill="#337F84" d="M101.654,34.726c-2.199-0.076-4.344-2.72-3.946-5.753c0.1-0.757,0.46-1.751,1.094-2.888
	c0.001-0.002,0.002-0.003,0.003-0.005c0.181-0.324,0.388-0.662,0.614-1.008c0.02-0.031,0.04-0.062,0.061-0.093
	c0.225-0.339,0.472-0.687,0.741-1.042c0.024-0.032,0.05-0.065,0.075-0.097c0.561-0.732,1.215-1.492,1.969-2.267
	c0.028-0.029,0.054-0.057,0.083-0.086c0.362-0.369,0.75-0.742,1.158-1.115c0.06-0.055,0.119-0.109,0.18-0.164
	c0.408-0.368,0.836-0.736,1.288-1.104c0.062-0.05,0.126-0.1,0.188-0.15c0.474-0.38,0.967-0.76,1.49-1.136
	c0.01-0.007,0.02-0.014,0.03-0.021c0.517-0.371,1.062-0.738,1.627-1.101c0.071-0.045,0.138-0.091,0.21-0.136
	c0.552-0.35,1.13-0.694,1.727-1.033c0.107-0.061,0.215-0.122,0.324-0.182c0.602-0.334,1.225-0.662,1.873-0.982
	c0.102-0.05,0.206-0.099,0.309-0.149c0.684-0.331,1.386-0.655,2.121-0.967c0.015-0.007,0.032-0.013,0.047-0.019
	c0.725-0.306,1.481-0.598,2.257-0.882c0.114-0.042,0.225-0.084,0.34-0.125c0.759-0.271,1.545-0.528,2.352-0.774
	c0.077-0.023,0.155-0.046,0.233-0.07c0.905-3.25,1.842-6.503,2.852-9.765c0.095-0.473,0.13-0.958,0.136-1.45
	c-5.394-0.197-10.812-0.473-16.095,0.911c-5.5,1.442-11.079,4.645-15.645,7.961L59.991,31.827L0,53.587l109.727,5.909
	c1.328-8.129,2.818-16.235,4.548-24.344L101.654,34.726z"/>
</svg>
