<?xml version="1.0" encoding="utf-8"?>
<!-- Generator: Adobe Illustrator 17.0.0, SVG Export Plug-In . SVG Version: 6.00 Build 0)  -->
<!DOCTYPE svg PUBLIC "-//W3C//DTD SVG 1.1 Basic//EN" "http://www.w3.org/Graphics/SVG/1.1/DTD/svg11-basic.dtd">
<svg version="1.1" baseProfile="basic" id="Слой_1"
	 xmlns="http://www.w3.org/2000/svg" xmlns:xlink="http://www.w3.org/1999/xlink" x="0px" y="0px" width="383.875px"
	 height="142.25px" viewBox="0 0 383.875 142.25" xml:space="preserve">
<path fill="#354B5E" stroke="#FFFFFF" stroke-width="6" stroke-miterlimit="10" d="M369.911,105.575l-9.942-6.002l-9.166-13.784
	c-2.933-4.417-6.419-6.915-10.343-8.375c-3.863-1.439-8.104-1.847-12.649-2.087l-7.289-0.393l-13.757-36.596
	c-0.669-1.783-1.357-3.526-1.387-5.479c-0.076-4.852,4.487-6.081,8.573-6.145c5.765-0.088,10.352-5.086,7.487-10.532
	c-1.375-2.61-4.414-4.724-9.105-4.849L198.988,8.232c-6.072-0.167-12.202-0.718-18.158,0.843c-5.5,1.442-11.079,4.645-15.645,7.961
	l-31.358,22.791L95.181,53.845l0,0l-2.838,1.029l-18.659,6.768l-43.281-2.331c-5.975-0.319-13.117-0.91-18.657,1.728
	c-3.644,1.737-4.734,4.971-2.805,8.527c2.881,5.311,8.734,8.758,13.762,11.934l65.831,41.61c9.881,6.245,22.511,9.564,34.287,10.133
	c1.704,0.082,3.398,0.091,5.099,0.091h204.75l13.838-2.066l21.553-9.242c3.219-1.381,5.841-4.676,6.309-8.174
	C374.845,110.303,372.883,107.37,369.911,105.575z"/>
<polygon fill="#A8A8A8" stroke="#272525" stroke-width="3" stroke-miterlimit="10" points="557.307,189.762 557.307,189.762 
	557.306,189.761 "/>
<g id="cccc">
	<g id="_581979344">
		<path fill="#B4C9C7" d="M198.988,8.232l113.345,3.103c4.691,0.125,7.73,2.239,9.105,4.849c2.866,5.445-1.722,10.443-7.487,10.532
			c-4.086,0.064-8.649,1.293-8.573,6.145c0.03,1.953,0.718,3.696,1.387,5.479l14.112,37.542
			c-84.378,0.322-167.19-2.446-251.018-12.853l63.966-23.202l31.358-22.791c4.566-3.316,10.145-6.519,15.645-7.961
			C186.787,7.514,192.916,8.064,198.988,8.232L198.988,8.232z"/>
		<polygon fill="#354B5E" points="318.436,69.393 83.365,58.131 95.18,53.845 315.583,61.8 		"/>
		<path fill="#7D9EA2" d="M30.402,59.311l297.41,16.017c4.545,0.24,8.786,0.648,12.649,2.087c3.924,1.46,7.411,3.958,10.343,8.375
			l9.166,13.784l9.942,6.002c2.972,1.795,4.934,4.727,4.46,8.278c-0.468,3.498-3.091,6.793-6.309,8.174l-21.553,9.242l-13.838,2.066
			H127.919c-1.701,0-3.395-0.009-5.099-0.091c-11.776-0.569-24.407-3.888-34.287-10.133L22.703,81.5
			c-5.029-3.176-10.882-6.623-13.762-11.934c-1.929-3.556-0.84-6.79,2.805-8.527C17.285,58.402,24.427,58.992,30.402,59.311
			L30.402,59.311z"/>
		<circle fill="#354B5E" cx="86.193" cy="83.285" r="7.173"/>
		<circle fill="#354B5E" cx="214.27" cy="90.537" r="7.173"/>
		<circle fill="#354B5E" cx="246.936" cy="92.161" r="7.173"/>
		<circle fill="#354B5E" cx="118.859" cy="84.91" r="7.173"/>
		<circle fill="#354B5E" cx="149.807" cy="86.448" r="7.173"/>
		<circle fill="#354B5E" cx="180.755" cy="87.987" r="7.173"/>
		<path fill="#2C3E50" d="M217.469,17.744l27.713,0.937c2.199,0.076,3.976,2.662,3.943,5.753l-0.149,14.693
			c-0.033,3.088-1.859,5.555-4.061,5.482l-27.713-0.937c-2.199-0.076-3.976-2.665-3.946-5.753l0.152-14.693
			C213.441,20.135,215.267,17.668,217.469,17.744z"/>
		<path fill="#354B5E" d="M217.466,17.744l27.716,0.937c2.199,0.076,3.976,2.662,3.943,5.753l-0.076,7.398
			c-4.466,1.104-9.437,1.722-14.675,1.722c-7.885,0-15.165-1.396-21.033-3.754l0.067-6.577
			C213.438,20.135,215.267,17.668,217.466,17.744z"/>
		<path fill="#2C3E50" d="M259.228,19.348l27.71,0.937c2.202,0.076,3.976,2.665,3.946,5.753l-0.152,14.693
			c-0.03,3.091-1.859,5.558-4.058,5.482l-27.713-0.937c-2.202-0.076-3.976-2.662-3.946-5.753l0.152-14.693
			C255.197,21.739,257.025,19.274,259.228,19.348z"/>
		<path fill="#354B5E" d="M259.228,19.348l27.71,0.94c2.202,0.073,3.976,2.662,3.946,5.75l-0.073,7.246
			c-5.022,1.485-10.787,2.327-16.917,2.327c-6.918,0-13.367-1.074-18.809-2.926l0.082-7.855
			C255.197,21.742,257.025,19.274,259.228,19.348z"/>
		<path fill="#2C3E50" d="M202.289,17.735c2.181-0.405,3.979,2.665,3.946,5.753l-0.152,14.693c-0.03,3.091-1.859,5.558-4.058,5.482
			l-27.713-0.937c-2.199-0.076-4.344-2.72-3.946-5.753c0.548-4.165,8.862-15.402,28.386-19.047L202.289,17.735z"/>
		<path fill="#354B5E" d="M202.292,17.735c2.178-0.405,3.976,2.665,3.943,5.756l-0.046,9.415c-6.428,4.584-21.164,2.54-28.127,2.54
			c-6.96,0-4.806-0.131-7.097-0.383c2.254-4.998,10.754-13.957,27.786-17.136L202.292,17.735z"/>
	</g>
</g>
</svg>
