<?xml version="1.0" encoding="utf-8"?>
<!-- Generator: Adobe Illustrator 17.0.0, SVG Export Plug-In . SVG Version: 6.00 Build 0)  -->
<!DOCTYPE svg PUBLIC "-//W3C//DTD SVG 1.1 Basic//EN" "http://www.w3.org/Graphics/SVG/1.1/DTD/svg11-basic.dtd">
<svg version="1.1" baseProfile="basic" id="Слой_1"
	 xmlns="http://www.w3.org/2000/svg" xmlns:xlink="http://www.w3.org/1999/xlink" x="0px" y="0px" width="35.918px"
	 height="25.965px" viewBox="0 0 35.918 25.965" xml:space="preserve">
<path fill="#3FA457" d="M35.917,5.789c0.015-1.428-0.364-2.847-0.988-3.925C34.287,0.755,33.387,0.007,32.377,0
	c-0.133-0.001-0.269,0.011-0.405,0.036l-3.538,0.192c-0.974,0.182-1.912,0.387-2.83,0.605c-0.137,0.032-0.276,0.063-0.411,0.096
	c-0.865,0.212-1.703,0.44-2.519,0.681c-0.156,0.046-0.31,0.092-0.464,0.139c-0.807,0.246-1.593,0.503-2.352,0.774
	c-0.115,0.041-0.226,0.084-0.34,0.125c-0.776,0.283-1.532,0.576-2.257,0.882c-0.015,0.006-0.032,0.013-0.047,0.019
	c-0.735,0.311-1.437,0.636-2.121,0.967c-0.103,0.05-0.208,0.099-0.309,0.149c-0.648,0.32-1.271,0.648-1.873,0.982
	c-0.109,0.06-0.216,0.121-0.324,0.182c-0.598,0.339-1.176,0.683-1.727,1.033c-0.071,0.045-0.139,0.091-0.21,0.136
	c-0.565,0.363-1.11,0.73-1.627,1.101c-0.01,0.007-0.02,0.014-0.03,0.021C8.47,8.496,7.977,8.876,7.503,9.256
	c-0.062,0.05-0.126,0.1-0.188,0.15c-0.452,0.368-0.88,0.736-1.288,1.104c-0.061,0.055-0.12,0.109-0.18,0.164
	c-0.407,0.373-0.795,0.746-1.158,1.115c-0.028,0.029-0.055,0.058-0.083,0.086c-0.754,0.775-1.408,1.535-1.969,2.267
	c-0.025,0.032-0.05,0.065-0.075,0.097c-0.27,0.356-0.516,0.703-0.741,1.042C1.8,15.312,1.78,15.343,1.76,15.374
	c-0.227,0.346-0.433,0.683-0.614,1.008c-0.001,0.002-0.002,0.003-0.003,0.005c-0.634,1.137-0.994,2.131-1.094,2.888
	c-0.399,3.033,1.746,5.677,3.946,5.753l27.713,0.937c2.199,0.076,4.028-2.391,4.058-5.482l0.054-5.243
	c0.016-0.011,0.036-0.02,0.052-0.032l0.046-9.415V5.792L35.917,5.789L35.917,5.789z"/>
</svg>
