<?xml version="1.0" encoding="utf-8"?>
<!-- Generator: Adobe Illustrator 17.0.0, SVG Export Plug-In . SVG Version: 6.00 Build 0)  -->
<!DOCTYPE svg PUBLIC "-//W3C//DTD SVG 1.1 Basic//EN" "http://www.w3.org/Graphics/SVG/1.1/DTD/svg11-basic.dtd">
<svg version="1.1" baseProfile="basic" id="Слой_1"
	 xmlns="http://www.w3.org/2000/svg" xmlns:xlink="http://www.w3.org/1999/xlink" x="0px" y="0px" width="72.025px"
	 height="63.169px" viewBox="0 0 72.025 63.169" xml:space="preserve">
<path fill="#CE9536" d="M39.41,35.509c-4.759-0.076-8.604-2.665-8.538-5.753l0.325-14.522l0.004-0.175
	c0.066-3.088,4.022-5.555,8.781-5.479h0.004c0.001,0,0.002,0,0.003,0l31.843,0.498c0.054-2.82,0.118-5.64,0.192-8.461L15.426,0.069
	C14.739,0.05,14.051,0.025,13.362,0c-0.005,0.492-0.041,0.977-0.136,1.45c-1.01,3.262-1.947,6.515-2.852,9.765
	c0.077-0.023,0.154-0.047,0.232-0.069c0.816-0.241,1.654-0.469,2.519-0.681c0.135-0.033,0.274-0.064,0.411-0.096
	c0.918-0.218,1.857-0.423,2.83-0.605l3.538-0.192c0.137-0.025,0.272-0.037,0.405-0.036c1.01,0.007,1.91,0.755,2.552,1.863
	c0.625,1.078,1.004,2.498,0.988,3.925v0.002v0.001l-0.046,9.415c-0.016,0.011-0.036,0.02-0.052,0.032l-0.054,5.243
	c-0.03,3.091-1.859,5.558-4.058,5.482L4.548,34.99C2.818,43.098,1.328,51.204,0,59.333l71.232,3.836
	c0.132-9.053,0.199-18.106,0.275-27.159L39.41,35.509z"/>
</svg>
