<?xml version="1.0" encoding="utf-8"?>
<!-- Generator: Adobe Illustrator 17.0.0, SVG Export Plug-In . SVG Version: 6.00 Build 0)  -->
<!DOCTYPE svg PUBLIC "-//W3C//DTD SVG 1.1 Basic//EN" "http://www.w3.org/Graphics/SVG/1.1/DTD/svg11-basic.dtd">
<svg version="1.1" baseProfile="basic" id="Слой_1"
	 xmlns="http://www.w3.org/2000/svg" xmlns:xlink="http://www.w3.org/1999/xlink" x="0px" y="0px" width="67.521px"
	 height="65.089px" viewBox="0 0 67.521 65.089" xml:space="preserve">
<path fill="#ECBE33" d="M51.972,28.558c-0.669-1.783-1.357-3.526-1.387-5.479c-0.076-4.852,4.487-6.081,8.573-6.145
	c5.765-0.088,10.352-5.086,7.487-10.532c-1.375-2.61-4.414-4.724-9.105-4.849L0.793,0C0.719,2.82,0.655,5.64,0.601,8.461L28.726,8.9
	c4.759,0.076,8.604,2.662,8.531,5.753l-0.323,14.693c-0.072,3.088-4.022,5.555-8.788,5.482L0.275,34.392
	C0.199,43.445,0.132,52.498,0,61.551l65.704,3.538L51.972,28.558z"/>
</svg>
