<?xml version="1.0" encoding="utf-8"?>
<!-- Generator: Adobe Illustrator 17.0.0, SVG Export Plug-In . SVG Version: 6.00 Build 0)  -->
<!DOCTYPE svg PUBLIC "-//W3C//DTD SVG 1.1 Basic//EN" "http://www.w3.org/Graphics/SVG/1.1/DTD/svg11-basic.dtd">
<svg version="1.1" baseProfile="basic" id="Слой_1"
	 xmlns="http://www.w3.org/2000/svg" xmlns:xlink="http://www.w3.org/1999/xlink" x="0px" y="0px" width="165.365px"
	 height="85.494px" viewBox="0 0 165.365 85.494" xml:space="preserve">
<path fill="#EEBF31" d="M165.092,8.974c-0.957,2.597-3.285,8.7-5.906,10.178c4.851-6.547-1.013-18.993-1.005-19.152
	c0.452,4.977-0.643,10.256-5.866,16.295c-4.104,4.745-4.648,10.546-2.411,15.444c-0.024,0.71-0.047,1.421-0.099,2.111
	c-0.038,0.492-0.1,0.967-0.152,1.449c-0.274,2.57-0.733,5.009-1.383,7.295c-0.067,0.234-0.133,0.468-0.204,0.7
	c-0.515,1.692-1.124,3.307-1.83,4.835c0,0,0,0,0,0c-0.16,0.346-0.339,0.674-0.508,1.011c-0.207,0.412-0.41,0.828-0.63,1.228
	c-0.221,0.401-0.459,0.786-0.694,1.174c-1.087,1.799-2.309,3.461-3.661,4.974c-0.29,0.326-0.59,0.642-0.893,0.955
	c-2.026,2.09-4.298,3.876-6.77,5.345c-0.34,0.202-0.681,0.403-1.028,0.593c-0.348,0.19-0.702,0.368-1.057,0.546
	c-0.4,0.201-0.801,0.4-1.21,0.585c-2.039,0.925-4.182,1.658-6.406,2.19c-0.641,0.153-1.293,0.282-1.947,0.402
	c-0.201,0.037-0.399,0.081-0.601,0.115c-0.669,0.112-1.348,0.196-2.029,0.274c-1.639,0.185-3.309,0.268-5.003,0.249
	c-0.619-0.007-1.239-0.019-1.864-0.054c-0.33-0.018-0.662-0.049-0.993-0.075c-0.616-0.049-1.234-0.103-1.855-0.179
	c-1.505-0.183-3.02-0.442-4.543-0.785c-0.257-0.058-0.515-0.117-0.773-0.179c-0.742-0.18-1.485-0.377-2.229-0.596
	c-0.193-0.057-0.386-0.118-0.58-0.177c-2.589-0.797-5.182-1.828-7.755-3.101c-0.276-0.137-0.551-0.28-0.826-0.422
	c-0.571-0.294-1.14-0.603-1.708-0.921c-0.266-0.149-0.533-0.292-0.798-0.447c-0.851-0.495-1.698-1.01-2.54-1.56
	c-3.588-2.344-7.094-5.19-10.433-8.552c-0.235-0.241-0.454-0.428-0.647-0.569c-0.107-0.122-0.219-0.237-0.327-0.357
	c0.001-0.002,0.002-0.003,0.003-0.005c-0.056-0.062-0.116-0.119-0.173-0.18c-0.297-0.324-0.599-0.639-0.907-0.946
	c-0.093-0.093-0.186-0.187-0.28-0.278c-2.111-2.049-4.463-3.698-7.103-4.825c-4.319-1.84-8.424-2.851-12.283-3.254
	c0.003-0.003,0.005-0.006,0.008-0.009c-0.152-0.016-0.299-0.021-0.45-0.035c-0.418-0.039-0.833-0.071-1.245-0.096
	c-0.236-0.014-0.471-0.026-0.705-0.036c-0.418-0.017-0.831-0.026-1.243-0.028c-0.221-0.002-0.443-0.005-0.663-0.002
	c-0.432,0.005-0.859,0.02-1.283,0.04c-0.189,0.009-0.38,0.013-0.567,0.024c-0.559,0.034-1.11,0.081-1.656,0.139
	c-0.039,0.004-0.08,0.006-0.119,0.01c0,0,0,0,0,0.001c-2.747,0.304-5.322,0.903-7.703,1.702c-1.787-0.548-3.632-1.073-5.508-1.583
	c0.001-0.002,0.002-0.003,0.004-0.005c-0.148-0.04-0.3-0.078-0.448-0.118c-0.54-0.146-1.087-0.288-1.633-0.431
	c-0.49-0.128-0.977-0.257-1.471-0.383c-5.627-1.437-11.49-2.736-17.222-3.945c-1.957-0.413-3.914-0.809-5.869-1.19
	C3.997,46.387,1.612,58.608,0,70.953c29.766,5.83,60.06,9.959,89.926,14.541c-0.063-0.362-0.125-0.724-0.19-1.086
	c-0.057-0.32-0.115-0.64-0.174-0.961c-0.108-0.582-0.221-1.163-0.336-1.744c-0.055-0.276-0.109-0.551-0.165-0.826
	c-0.135-0.663-0.276-1.323-0.42-1.984c-0.037-0.167-0.073-0.335-0.111-0.502c-0.08-0.358-0.154-0.717-0.237-1.074
	c-0.004,0.003-0.007,0.006-0.011,0.009c-0.682-2.927-1.462-5.818-2.365-8.61c0.002-0.002,0.003-0.003,0.005-0.005
	c-0.023-0.071-0.049-0.14-0.072-0.211c-0.058-0.179-0.121-0.354-0.181-0.532c-0.216-0.647-0.434-1.291-0.663-1.926
	c-0.043-0.12-0.09-0.236-0.133-0.355c-0.252-0.689-0.509-1.372-0.778-2.044c-0.022-0.055-0.046-0.109-0.068-0.164
	c-0.294-0.729-0.596-1.45-0.91-2.157c0-0.001,0-0.001-0.001-0.002c1.09,0.878,2.308,1.75,3.646,2.597
	c0,0.001-0.001,0.003-0.001,0.005c0.057,0.036,0.119,0.071,0.177,0.107c0.387,0.242,0.784,0.482,1.192,0.719
	c0.068,0.039,0.133,0.079,0.202,0.119c1,0.574,2.066,1.13,3.194,1.662c0.081,0.038,0.164,0.076,0.245,0.113
	c0.516,0.24,1.044,0.474,1.587,0.702c0.032,0.013,0.062,0.028,0.094,0.042c0,0,0.001-0.001,0.001-0.001
	c0.942,0.394,1.925,0.77,2.949,1.125c-0.001,0.002-0.002,0.004-0.003,0.006c0.074,0.026,0.156,0.048,0.231,0.073
	c0.767,0.262,1.552,0.513,2.366,0.75c0.042,0.012,0.086,0.023,0.129,0.036c0.853,0.245,1.734,0.474,2.639,0.687
	c0.027,0.006,0.051,0.014,0.077,0.02c0,0,0.001-0.001,0.001-0.001c1.391,0.327,2.837,0.618,4.353,0.86
	c0.5,0.08,0.972,0.128,1.462,0.196c-0.001,0.006-0.003,0.013-0.004,0.019c0.342,0.047,0.665,0.073,1.002,0.115
	c0.574,0.071,1.147,0.141,1.707,0.195c0.534,0.052,1.055,0.09,1.576,0.128c0.561,0.041,1.123,0.082,1.67,0.106
	c0.128,0.006,0.264,0.02,0.391,0.025c0.001-0.005,0.001-0.01,0.002-0.015c1.937,0.072,3.791,0.054,5.546-0.07
	c0,0.001,0.001,0.002,0.001,0.003c0.775-0.052,1.525-0.131,2.263-0.221c0.192-0.023,0.384-0.046,0.573-0.071
	c0.12-0.016,0.244-0.028,0.363-0.045c0.001-0.005,0.001-0.009,0.002-0.014c2.772-0.4,5.298-1.048,7.598-1.9
	c0.002,0.005,0.003,0.011,0.005,0.017c0.517-0.192,1.019-0.396,1.513-0.608c0.047-0.02,0.096-0.037,0.142-0.057
	c0.633-0.275,1.242-0.57,1.838-0.875c0.203-0.104,0.4-0.213,0.599-0.32c0.418-0.226,0.827-0.458,1.227-0.699
	c0.184-0.111,0.371-0.22,0.551-0.334c0.085-0.053,0.175-0.103,0.258-0.156c-0.002-0.004-0.005-0.008-0.008-0.012
	c2.138-1.378,4.007-2.96,5.633-4.686c0.003,0.004,0.006,0.008,0.01,0.011c0.061-0.064,0.112-0.134,0.172-0.198
	c0.535-0.578,1.052-1.166,1.535-1.772c0.221-0.275,0.434-0.555,0.647-0.836c-0.002-0.002-0.005-0.004-0.008-0.006
	c1.677-2.248,3.026-4.649,4.086-7.088c0.084-0.193,0.161-0.386,0.241-0.579c0.137-0.33,0.271-0.659,0.398-0.989
	c0.025-0.064,0.053-0.128,0.077-0.192c-0.002-0.001-0.003-0.002-0.005-0.003c0.674-1.782,1.207-3.566,1.614-5.309
	c0.001,0,0.002,0.001,0.003,0.001c0.014-0.06,0.023-0.118,0.037-0.178c0.127-0.556,0.243-1.107,0.346-1.652
	c0.01-0.052,0.023-0.105,0.033-0.157c-0.001,0-0.001,0-0.002-0.001c0.406-2.194,0.621-4.287,0.684-6.185c0.001,0,0.002,0,0.003,0
	c0.001-0.04,0.001-0.078,0.002-0.118c0.005-0.158,0.005-0.309,0.008-0.464c0.004-0.221,0.009-0.444,0.009-0.659
	c0-0.065-0.002-0.127-0.003-0.192c-0.002-0.296-0.004-0.591-0.013-0.875c-0.001,0-0.002,0-0.003-0.001
	c-0.011-0.319-0.026-0.629-0.046-0.93C167.673,33,165.366,8.219,165.092,8.974z"/>
</svg>
