<?xml version="1.0" encoding="utf-8"?>
<!-- Generator: Adobe Illustrator 17.0.0, SVG Export Plug-In . SVG Version: 6.00 Build 0)  -->
<!DOCTYPE svg PUBLIC "-//W3C//DTD SVG 1.1 Basic//EN" "http://www.w3.org/Graphics/SVG/1.1/DTD/svg11-basic.dtd">
<svg version="1.1" baseProfile="basic" id="Слой_1"
	 xmlns="http://www.w3.org/2000/svg" xmlns:xlink="http://www.w3.org/1999/xlink" x="0px" y="0px" width="360px" height="275.5px"
	 viewBox="0 0 360 275.5" xml:space="preserve">
<path fill="#A8A8A8" stroke="#272525" stroke-width="3" stroke-miterlimit="10" d="M348.089,96.974
	c-0.957,2.597-3.285,8.7-5.906,10.178c4.851-6.547-1.013-18.993-1.005-19.152c0.452,4.977-0.643,10.256-5.866,16.295
	c-4.104,4.745-4.648,10.546-2.411,15.444c-0.024,0.71-0.047,1.421-0.099,2.111c-0.038,0.492-0.1,0.967-0.152,1.449
	c-0.274,2.57-0.733,5.009-1.383,7.295c-0.067,0.234-0.133,0.468-0.204,0.7c-0.515,1.692-1.124,3.307-1.83,4.835l0,0
	c-0.16,0.346-0.339,0.674-0.508,1.011c-0.207,0.412-0.41,0.828-0.63,1.228c-0.221,0.401-0.459,0.786-0.694,1.174
	c-1.087,1.799-2.309,3.461-3.661,4.974c-0.29,0.326-0.59,0.642-0.893,0.955c-2.026,2.09-4.298,3.876-6.77,5.345
	c-0.34,0.202-0.681,0.403-1.028,0.593c-0.348,0.19-0.702,0.368-1.057,0.546c-0.4,0.201-0.801,0.4-1.21,0.585
	c-2.039,0.925-4.182,1.658-6.406,2.19c-0.641,0.153-1.293,0.282-1.947,0.402c-0.201,0.037-0.399,0.081-0.601,0.115
	c-0.669,0.112-1.348,0.196-2.029,0.274c-1.639,0.185-3.309,0.268-5.003,0.249c-0.619-0.007-1.239-0.019-1.864-0.054
	c-0.33-0.018-0.662-0.049-0.993-0.075c-0.616-0.049-1.234-0.103-1.855-0.179c-1.505-0.183-3.02-0.442-4.543-0.785
	c-0.257-0.058-0.515-0.117-0.773-0.179c-0.742-0.18-1.485-0.377-2.229-0.596c-0.193-0.057-0.386-0.118-0.58-0.177
	c-2.589-0.797-5.182-1.828-7.755-3.101c-0.276-0.137-0.551-0.28-0.826-0.422c-0.571-0.294-1.14-0.603-1.708-0.921
	c-0.266-0.149-0.533-0.292-0.798-0.447c-0.851-0.495-1.698-1.01-2.54-1.56c-3.588-2.344-7.094-5.19-10.433-8.552
	c-0.235-0.241-0.454-0.428-0.647-0.569c-0.107-0.122-0.219-0.237-0.327-0.357c0.001-0.002,0.002-0.003,0.003-0.005
	c-0.056-0.062-0.116-0.119-0.173-0.18c-0.297-0.324-0.599-0.639-0.907-0.946c-0.093-0.093-0.186-0.187-0.28-0.278
	c-2.111-2.049-4.463-3.698-7.103-4.825c-4.319-1.84-8.424-2.851-12.283-3.254c0.003-0.003,0.005-0.006,0.008-0.009
	c-0.152-0.016-0.299-0.021-0.45-0.035c-0.418-0.039-0.833-0.071-1.245-0.096c-0.236-0.014-0.471-0.026-0.705-0.036
	c-0.418-0.017-0.831-0.026-1.243-0.028c-0.221-0.002-0.443-0.005-0.663-0.002c-0.432,0.005-0.859,0.02-1.283,0.04
	c-0.189,0.009-0.38,0.013-0.567,0.024c-0.559,0.034-1.11,0.081-1.656,0.139c-0.039,0.004-0.08,0.006-0.119,0.01c0,0,0,0,0,0.001
	c-2.747,0.304-5.322,0.903-7.703,1.702c-1.787-0.548-3.632-1.073-5.508-1.583c0.001-0.002,0.002-0.003,0.004-0.005
	c-0.148-0.04-0.3-0.078-0.448-0.118c-0.54-0.146-1.087-0.288-1.633-0.431c-0.49-0.128-0.977-0.257-1.471-0.383
	c-5.627-1.437-11.49-2.736-17.222-3.945c-1.957-0.413-3.914-0.809-5.869-1.19c-3.412,12.026-5.797,24.247-7.409,36.592
	c29.766,5.83,60.06,9.959,89.926,14.541c-0.063-0.362-0.125-0.724-0.19-1.086c-0.057-0.32-0.115-0.64-0.174-0.961
	c-0.108-0.582-0.221-1.163-0.336-1.744c-0.055-0.276-0.109-0.551-0.165-0.826c-0.135-0.663-0.276-1.323-0.42-1.984
	c-0.037-0.167-0.073-0.335-0.111-0.502c-0.08-0.358-0.154-0.717-0.237-1.074c-0.004,0.003-0.007,0.006-0.011,0.009
	c-0.682-2.927-1.462-5.818-2.365-8.61c0.002-0.002,0.003-0.003,0.005-0.005c-0.023-0.071-0.049-0.14-0.072-0.211
	c-0.058-0.179-0.121-0.354-0.181-0.532c-0.216-0.647-0.434-1.291-0.663-1.926c-0.043-0.12-0.09-0.236-0.133-0.355
	c-0.252-0.689-0.509-1.372-0.778-2.044c-0.022-0.055-0.046-0.109-0.068-0.164c-0.294-0.729-0.596-1.45-0.91-2.157
	c0-0.001,0-0.001-0.001-0.002c1.09,0.878,2.308,1.75,3.646,2.597c0,0.001-0.001,0.003-0.001,0.005
	c0.057,0.036,0.119,0.071,0.177,0.107c0.387,0.242,0.784,0.482,1.192,0.719c0.068,0.039,0.133,0.079,0.202,0.119
	c1,0.574,2.066,1.13,3.194,1.662c0.081,0.038,0.164,0.076,0.245,0.113c0.516,0.24,1.044,0.474,1.587,0.702
	c0.032,0.013,0.062,0.028,0.094,0.042l0.001-0.001c0.942,0.394,1.925,0.77,2.949,1.125c-0.001,0.002-0.002,0.004-0.003,0.006
	c0.074,0.026,0.156,0.048,0.231,0.073c0.767,0.262,1.552,0.513,2.366,0.75c0.042,0.012,0.086,0.023,0.129,0.036
	c0.853,0.245,1.734,0.474,2.639,0.687c0.027,0.006,0.051,0.014,0.077,0.02l0.001-0.001c1.391,0.327,2.837,0.618,4.353,0.86
	c0.5,0.08,0.972,0.128,1.462,0.196c-0.001,0.006-0.003,0.013-0.004,0.019c0.342,0.047,0.665,0.073,1.002,0.115
	c0.574,0.071,1.147,0.141,1.707,0.195c0.534,0.052,1.055,0.09,1.576,0.128c0.561,0.041,1.123,0.082,1.67,0.106
	c0.128,0.006,0.264,0.02,0.391,0.025c0.001-0.005,0.001-0.01,0.002-0.015c1.937,0.072,3.791,0.054,5.546-0.07
	c0,0.001,0.001,0.002,0.001,0.003c0.775-0.052,1.525-0.131,2.263-0.221c0.192-0.023,0.384-0.046,0.573-0.071
	c0.12-0.016,0.244-0.028,0.363-0.045c0.001-0.005,0.001-0.009,0.002-0.014c2.772-0.4,5.298-1.048,7.598-1.9
	c0.002,0.005,0.003,0.011,0.005,0.017c0.517-0.192,1.019-0.396,1.513-0.608c0.047-0.02,0.096-0.037,0.142-0.057
	c0.633-0.275,1.242-0.57,1.838-0.875c0.203-0.104,0.4-0.213,0.599-0.32c0.418-0.226,0.827-0.458,1.227-0.699
	c0.184-0.111,0.371-0.22,0.551-0.334c0.085-0.053,0.175-0.103,0.258-0.156c-0.002-0.004-0.005-0.008-0.008-0.012
	c2.138-1.378,4.007-2.96,5.633-4.686c0.003,0.004,0.006,0.008,0.01,0.011c0.061-0.064,0.112-0.134,0.172-0.198
	c0.535-0.578,1.052-1.166,1.535-1.772c0.221-0.275,0.434-0.555,0.647-0.836c-0.002-0.002-0.005-0.004-0.008-0.006
	c1.677-2.248,3.026-4.649,4.086-7.088c0.084-0.193,0.161-0.386,0.241-0.579c0.137-0.33,0.271-0.659,0.398-0.989
	c0.025-0.064,0.053-0.128,0.077-0.192c-0.002-0.001-0.003-0.002-0.005-0.003c0.674-1.782,1.207-3.566,1.614-5.309
	c0.001,0,0.002,0.001,0.003,0.001c0.014-0.06,0.023-0.118,0.037-0.178c0.127-0.556,0.243-1.107,0.346-1.652
	c0.01-0.052,0.023-0.105,0.033-0.157c-0.001,0-0.001,0-0.002-0.001c0.406-2.194,0.621-4.287,0.684-6.185c0.001,0,0.002,0,0.003,0
	c0.001-0.04,0.001-0.078,0.002-0.118c0.005-0.158,0.005-0.309,0.008-0.464c0.004-0.221,0.009-0.444,0.009-0.659
	c0-0.065-0.002-0.127-0.003-0.192c-0.002-0.296-0.004-0.591-0.013-0.875c-0.001,0-0.002,0-0.003-0.001
	c-0.011-0.319-0.026-0.629-0.046-0.93C350.671,121,348.364,96.219,348.089,96.974z"/>
<path fill="#A8A8A8" stroke="#272525" stroke-width="3" stroke-miterlimit="10" d="M99.752,135c-0.452,5.738-1,10.718-1.376,14.673
	c-0.08,0.837-0.154,1.643-0.214,2.387v0.001c-0.001-0.008-0.002-0.013-0.006,0.044c0.001,0.001,0.001,0.003,0.002,0.004l0,0
	c1.274,2.883,2.917,5.664,4.835,8.323c-2.041-0.265-4.235-0.845-6.523-1.617l0,0c-0.738-0.249-1.485-0.518-2.24-0.802
	c-0.007-0.003-0.014-0.005-0.021-0.008c-0.755-0.284-1.517-0.583-2.285-0.893c0,0.001,0,0.001,0,0.002
	c-1.843-0.744-3.718-1.55-5.596-2.36l0,0c-0.023-0.01-0.045-0.019-0.068-0.029c-0.697-0.3-1.395-0.601-2.091-0.898
	c-0.118-0.051-0.236-0.101-0.355-0.151c-0.689-0.294-1.378-0.584-2.063-0.869c-0.077-0.032-0.154-0.064-0.23-0.096
	c-0.731-0.302-1.458-0.595-2.182-0.878c-0.065-0.026-0.131-0.051-0.196-0.076c-4.665-1.817-9.122-3.156-12.919-3.053
	c0-0.001,0-0.001,0-0.002c-0.015,0-0.03,0.003-0.045,0.003c-1.224,0.037-2.379,0.226-3.45,0.598
	c-0.003,0.001-0.007,0.002-0.01,0.004c-0.72,0.251-1.402,0.586-2.04,1.014c-0.002,0.002-0.005,0.003-0.007,0.005
	c-0.318,0.214-0.626,0.45-0.922,0.712c-0.004,0.003-0.008,0.007-0.012,0.011c-0.577,0.511-1.111,1.117-1.598,1.823
	c-0.014,0.021-0.031,0.037-0.045,0.058c0.001,0.001,0.002,0.002,0.003,0.004c-0.373,0.548-0.721,1.15-1.036,1.824
	c-1.914,4.097-3.892,7.836-5.894,11.258c-0.001-0.001-0.002-0.002-0.002-0.003c-1.594,2.724-3.198,5.243-4.805,7.577
	c0.001,0.001,0.003,0.002,0.004,0.002c-1.5,2.185-2.995,4.204-4.469,6.078c0,0-0.001,0-0.001-0.001
	c-1.472,1.87-2.921,3.596-4.334,5.18c0.001,0,0.001,0,0.002,0.001c-2.137,2.4-4.186,4.491-6.094,6.325
	c-0.001,0-0.002-0.001-0.003-0.001c-1.246,1.196-2.424,2.282-3.534,3.271c0.001,0,0.001,0.001,0.002,0.001
	c-4.902,4.377-8.307,6.864-8.858,8.615c-0.001,0.003-0.001,0.006-0.002,0.009c-0.035,0.114-0.058,0.224-0.068,0.332
	c-0.001,0.008-0.001,0.015-0.001,0.022c-0.009,0.103-0.005,0.204,0.009,0.302c0.001,0.009,0.003,0.018,0.005,0.028
	c0.017,0.097,0.045,0.192,0.086,0.285c0.004,0.008,0.007,0.016,0.011,0.025c0.043,0.094,0.099,0.187,0.167,0.277
	c0.004,0.006,0.008,0.011,0.012,0.017c0.073,0.094,0.16,0.187,0.261,0.279c0.001,0.001,0.002,0.002,0.003,0.003
	c0.942,0.845,3.12,1.567,6.835,2.422c0.01,0.002,0.02,0.005,0.029,0.007c0.4,0.092,0.818,0.186,1.254,0.281
	c0.02,0.004,0.04,0.009,0.06,0.013c0.431,0.094,0.88,0.191,1.347,0.289c0.023,0.005,0.046,0.01,0.07,0.015
	c0.475,0.1,0.968,0.202,1.48,0.307c0.013,0.003,0.025,0.005,0.038,0.008c2.127,0.434,4.568,0.912,7.373,1.458
	c0.072,0.014,0.155-0.01,0.245-0.053c0.012-0.006,0.024-0.01,0.036-0.016c0.09-0.05,0.189-0.129,0.296-0.231
	c0.013-0.012,0.026-0.026,0.039-0.039c0.35-0.349,0.782-0.959,1.285-1.784c0.012-0.019,0.023-0.038,0.035-0.057
	c0.163-0.27,0.334-0.56,0.512-0.873c0.016-0.028,0.033-0.058,0.049-0.087c0.181-0.319,0.367-0.655,0.561-1.014
	c0,0,0-0.001,0.001-0.001c0.191-0.352,0.389-0.726,0.592-1.114c0.015-0.029,0.029-0.055,0.045-0.084l0,0
	c1.904-3.643,4.329-8.75,6.967-14.067c0.693-1.393,1.397-2.797,2.11-4.195c1.147-2.245,2.317-4.467,3.488-6.575
	c0.107-0.193,0.215-0.385,0.322-0.576c0.152-0.271,0.304-0.541,0.457-0.808c0.181-0.316,0.361-0.63,0.541-0.94
	c0.08-0.137,0.159-0.273,0.239-0.409c0.233-0.397,0.466-0.79,0.698-1.174c0.005-0.008,0.01-0.016,0.014-0.024
	c0.268-0.442,0.535-0.874,0.801-1.297c2.313-3.675,4.547-6.559,6.515-7.892c0.02-0.013,0.039-0.024,0.059-0.037
	c0.135-0.089,0.268-0.174,0.4-0.248c0.06-0.034,0.119-0.06,0.179-0.09c0.091-0.047,0.183-0.097,0.273-0.137
	c0.086-0.038,0.17-0.065,0.255-0.095c0.062-0.023,0.126-0.051,0.188-0.069c0.104-0.032,0.206-0.051,0.308-0.072
	c0.041-0.008,0.083-0.022,0.124-0.028c0.112-0.017,0.221-0.022,0.33-0.025c0.03-0.001,0.061-0.007,0.091-0.007
	c0.116,0.001,0.23,0.015,0.343,0.033c0.022,0.003,0.044,0.002,0.065,0.006c0.134,0.025,0.265,0.062,0.394,0.112
	c4.485,1.734,9.565,3.771,14.868,5.799c0.073,0.028,0.143,0.055,0.215,0.083c0,0,0,0,0-0.001c4.67,1.783,9.505,3.551,14.271,5.099
	c0.018,0.006,0.036,0.012,0.054,0.018l0,0c4.995,1.621,9.907,2.998,14.45,3.878c4.214,0.815,8.159,0.761,11.705,0.103
	c0.898,2.481,2.275,5.335,4.203,8.565c-0.001,0.003-0.002,0.006-0.003,0.008c0,0,0,0,0.001,0c0,0.001,0,0.001-0.001,0.002
	c0.003-0.001,0.006,0,0.008-0.001c0.341,0.57,0.701,1.154,1.078,1.748c-0.002,0-0.004,0-0.006,0l0,0c-0.001,0-0.003,0-0.004,0
	c0.221,0.346,0.438,0.69,0.667,1.045c0.349,0.532,0.63,1.087,0.865,1.659c0.018,0.045,0.042,0.088,0.059,0.133
	c0.099,0.251,0.181,0.508,0.26,0.766c0.019,0.062,0.043,0.122,0.061,0.184c0.077,0.267,0.14,0.54,0.198,0.814
	c0.011,0.054,0.027,0.107,0.037,0.161c0.059,0.299,0.106,0.601,0.145,0.907c0.004,0.029,0.009,0.057,0.013,0.085
	c0.123,1.008,0.144,2.054,0.095,3.128c0.001,0,0.002,0,0.002,0.001c-0.108,2.402-0.559,4.939-0.999,7.502c-0.001,0-0.003,0-0.004,0
	c-0.148,0.856-0.286,1.714-0.415,2.571c-0.05,0.333-0.099,0.666-0.144,0.999c-0.015,0.115-0.035,0.231-0.05,0.346
	c0.001,0,0.002,0,0.002,0c0,0.001,0,0.001,0,0.002c0.001,0,0.002,0,0.004,0.001c-0.181,1.409-0.304,2.808-0.302,4.176
	c0,0.114,0.008,0.227,0.01,0.34c-0.002,0-0.003,0-0.005,0c0,0.001,0,0.001,0,0.002l0,0c0.001,0.082,0.01,0.163,0.012,0.245
	c0.008,0.287,0.021,0.573,0.042,0.857c0.01,0.141,0.023,0.281,0.037,0.42c0.025,0.267,0.057,0.533,0.095,0.797
	c0.011,0.073,0.015,0.148,0.026,0.221c0.001,0.007,0.001,0.014,0.002,0.02c0.01,0.062,0.027,0.123,0.038,0.185
	c0.045,0.263,0.1,0.524,0.16,0.784c0.021,0.091,0.033,0.185,0.056,0.275c0.011,0.043,0.027,0.084,0.038,0.127
	c0.072,0.278,0.158,0.553,0.249,0.826c0.029,0.086,0.048,0.175,0.079,0.26c0.008,0.023,0.02,0.044,0.028,0.067
	c0.129,0.356,0.275,0.708,0.439,1.054c0.009,0.019,0.015,0.039,0.024,0.057c0.001,0.003,0.003,0.005,0.004,0.008
	c0.182,0.379,0.387,0.752,0.614,1.119c0.027,0.043,0.06,0.085,0.088,0.128c0.198,0.31,0.411,0.616,0.645,0.917
	c0.076,0.098,0.163,0.193,0.243,0.289c0.2,0.241,0.407,0.481,0.633,0.715c0.04,0.042,0.071,0.086,0.112,0.127
	c0.005-0.001,0.01-0.002,0.014-0.002c0.499,0.505,1.044,0.997,1.672,1.466c0.111,0.082,0.202,0.196,0.288,0.32
	c0.051,0.076,0.093,0.167,0.136,0.257c0.031,0.066,0.064,0.131,0.091,0.205c0.039,0.109,0.072,0.23,0.101,0.356
	c0.017,0.072,0.033,0.145,0.046,0.222c0.026,0.145,0.047,0.298,0.061,0.461c0.006,0.068,0.01,0.139,0.014,0.209
	c0.011,0.187,0.019,0.378,0.017,0.584c0,0.044-0.003,0.09-0.004,0.135c-0.02,1.004-0.177,2.219-0.438,3.576
	c-0.429,2.215-1.132,4.8-1.977,7.47l0,0l0,0h-0.002c-0.742,2.332-1.578,4.726-2.432,6.976c0.002,0.001,0.004,0.001,0.005,0.002
	c-2.03,5.389-5.111,11.144-5.112,11.144c0.002,0.006,0.022,4.607,1.809,5.843c0.204,0.141,0.415,0.266,0.629,0.382
	c0.004,0.002,0.008,0.005,0.012,0.008c0,0,0.001,0,0.001-0.001c2.504,1.359,5.676,1.131,8.336,0.001
	c3.277-1.391,5.774-4.146,5.274-6.972c-0.398-2.262,0.241-27.577,0.665-34.38c0.613-9.933,2.658-25.42,1.785-36.267
	c0.422,0.131,0.858,0.239,1.283,0.365c0.002,0.009,0.004,0.018,0.006,0.027c0.682,0.202,1.384,0.374,2.074,0.565
	c0.059,0.016,0.117,0.034,0.176,0.05c0.008,0.006,0.016,0.012,0.023,0.018c0.009,0.007,0.018,0.013,0.026,0.021l0,0
	c0.003,0.002,0.005,0.004,0.008,0.006c0.12,0.033,0.244,0.059,0.364,0.092c0.244,0.067,0.492,0.128,0.738,0.194
	c0.285,0.075,0.569,0.151,0.855,0.224c0.268,0.069,0.532,0.143,0.801,0.21c-0.002-0.007-0.003-0.014-0.005-0.022
	c0.128,0.032,0.258,0.06,0.386,0.091c0.737,0.181,1.467,0.373,2.21,0.541c0,0.003,0,0.006,0,0.008c0.001,0,0.001,0,0.002,0
	c0,0,0,0.001,0,0.002c0.366,0.082,0.737,0.154,1.104,0.234c0.294,0.064,0.589,0.125,0.884,0.187
	c0.443,0.092,0.882,0.192,1.326,0.281c0-0.007,0-0.014,0-0.021c0.839,0.167,1.679,0.331,2.525,0.483
	c0.841,0.151,1.686,0.29,2.533,0.427c0.918,0.148,1.837,0.29,2.761,0.42c0.867,0.122,1.736,0.235,2.607,0.342
	c0.915,0.112,1.831,0.218,2.749,0.314c0.085,0.009,0.17,0.02,0.255,0.029c0.001,0.005,0.002,0.01,0.002,0.015
	c0.222,0.022,0.446,0.04,0.669,0.061c0.335,0.033,0.671,0.061,1.006,0.092c0.539,0.049,1.076,0.103,1.618,0.148l0,0
	c0.001,0,0.001,0,0.002,0c0-0.002,0-0.004-0.001-0.006c0.615,0.05,1.232,0.086,1.848,0.129c0.89,0.062,1.779,0.119,2.669,0.167
	c0.921,0.049,1.841,0.088,2.763,0.122c0.65,0.024,1.298,0.041,1.947,0.059c0.368-11.504,1.198-22.956,2.68-34.304
	C154.99,153.018,126.687,145.786,99.752,135z"/>
<path fill="#A8A8A8" stroke="#272525" stroke-width="3" stroke-miterlimit="10" d="M282.322,255.202
	c1.288-3.513,2.175-11.556,2.193-19.818c0-0.012,0-0.024,0-0.036c0.015-8.119-0.809-16.436-2.917-20.859h0.001
	c-0.012-0.025-0.025-0.047-0.037-0.072c-0.1-0.206-0.203-0.402-0.308-0.59c-0.031-0.055-0.061-0.109-0.092-0.162
	c-0.249-0.425-0.514-0.799-0.795-1.12c-0.029-0.033-0.059-0.065-0.089-0.097c-0.13-0.141-0.264-0.272-0.401-0.39
	c-0.014-0.012-0.027-0.025-0.041-0.037c-0.159-0.132-0.322-0.247-0.49-0.346c-0.012-0.007-0.024-0.012-0.036-0.019
	c-0.159-0.091-0.323-0.166-0.491-0.227c-0.016-0.006-0.031-0.012-0.047-0.017c-0.358-0.122-0.735-0.17-1.133-0.142
	c-0.01,0.001-0.02-0.002-0.031-0.001c-0.002,0.001-0.005,0.003-0.007,0.004c-0.073,0.006-0.145,0.007-0.22,0.018
	c-0.288,0.043-0.429-2.149-0.627-5.815c0,0,0.001,0,0.001-0.001c-0.057-1.048-0.12-2.226-0.191-3.498
	c-0.008-0.142-0.016-0.291-0.025-0.436c-0.025-0.439-0.05-0.881-0.077-1.343c-0.006-0.107-0.013-0.215-0.019-0.323
	c-0.026-0.433-0.051-0.862-0.078-1.313c-0.001,0-0.001,0.001-0.002,0.001c-0.101-1.619-0.221-3.352-0.363-5.175
	c0.001,0,0.001,0,0.002-0.001c-0.036-0.463-0.075-0.938-0.115-1.412c-0.007-0.087-0.014-0.172-0.021-0.26
	c-0.183-2.19-0.401-4.486-0.667-6.864c-0.001,0.001-0.002,0.001-0.003,0.002c-0.314-2.806-0.695-5.716-1.156-8.666
	c0.002-0.001,0.004-0.003,0.007-0.004c-0.064-0.407-0.135-0.817-0.202-1.226c-0.043-0.263-0.086-0.526-0.13-0.79
	c-0.035-0.209-0.073-0.418-0.109-0.626c-29.866-4.582-60.161-8.711-89.926-14.541c-1.481,11.347-2.312,22.799-2.68,34.304
	c0.236,0.006,0.471,0.016,0.707,0.021c0.93,0.019,1.858,0.027,2.787,0.031c0.874,0.004,1.746,0.007,2.618-0.003
	c0.941-0.01,1.878-0.034,2.816-0.059c0.855-0.023,1.709-0.045,2.56-0.081c0.953-0.04,1.9-0.095,2.848-0.15
	c0.828-0.048,1.656-0.093,2.48-0.152c0.968-0.07,1.928-0.157,2.889-0.242c0.793-0.071,1.588-0.136,2.376-0.217
	c0.886-0.091,1.761-0.198,2.639-0.302c0.812,0.306,1.611,0.613,2.392,0.922c0.23,0.091,0.46,0.182,0.687,0.273
	c0.389,0.156,0.774,0.312,1.156,0.468c0.231,0.095,0.461,0.189,0.688,0.284c0.37,0.153,0.735,0.307,1.097,0.461
	c0.23,0.098,0.459,0.195,0.685,0.292c0.35,0.151,0.697,0.301,1.04,0.452c0.231,0.101,0.46,0.202,0.688,0.303
	c0.328,0.146,0.652,0.291,0.973,0.436c0.237,0.107,0.473,0.215,0.706,0.322c0.301,0.138,0.599,0.276,0.894,0.414
	c0.245,0.114,0.488,0.229,0.729,0.343c0.271,0.129,0.54,0.257,0.807,0.385c0.261,0.125,0.519,0.25,0.774,0.375
	c0.236,0.115,0.47,0.23,0.702,0.345c0.278,0.138,0.553,0.275,0.825,0.411c2.419,1.215,4.604,2.396,6.569,3.51c0,0,0,0-0.001,0
	c1.202,0.68,2.315,1.333,3.353,1.956c0.105,0.063,0.209,0.126,0.312,0.188c0.466,0.281,0.919,0.556,1.352,0.822
	c0.075,0.046,0.146,0.09,0.22,0.136c0.339,0.209,0.665,0.411,0.984,0.609c2.452,1.527,4.319,2.748,5.651,3.492
	c0.571,0.319,1.111,0.735,1.628,1.218c0.072,0.067,0.144,0.132,0.215,0.201c0.211,0.209,0.417,0.434,0.619,0.668
	c0.079,0.091,0.157,0.184,0.235,0.279c0.197,0.241,0.39,0.491,0.578,0.754c0.074,0.104,0.146,0.213,0.219,0.32
	c0.147,0.216,0.291,0.439,0.433,0.668c0.085,0.138,0.17,0.276,0.253,0.418c0.169,0.288,0.334,0.583,0.495,0.889
	c0.089,0.168,0.174,0.343,0.26,0.516c1.156,2.315,2.115,5.066,2.91,8.008h-0.001c0.344,1.267,0.658,2.568,0.945,3.884
	c0.6,2.772,1.075,5.605,1.455,8.313c0.069,0.492,0.134,0.977,0.197,1.459c0.016,0.126,0.034,0.255,0.05,0.38
	c0.07,0.551,0.136,1.094,0.199,1.629c0.018,0.157,0.035,0.31,0.053,0.465c0.049,0.428,0.096,0.853,0.14,1.267
	c0.029,0.272,0.055,0.533,0.082,0.798c0.026,0.253,0.052,0.508,0.076,0.754c0.368,3.793,0.539,6.811,0.618,8.232
	c-0.677,0.909-3.059,4.316-3.124,7.353c-0.078,3.538,10.106,1.616,12.391-0.935c2.282-2.555-0.205-7.516-0.205-7.516l-0.405,0.039
	c2.765-10.154,2.243-45.577-6.422-44.766c-0.51,0.048-0.991,0.061-1.454,0.049c-0.194-0.005-0.372-0.031-0.559-0.047
	c-2.947-0.237-4.906-1.73-6.256-4.178c-0.106-0.192-0.212-0.383-0.31-0.586c-0.103-0.211-0.198-0.434-0.294-0.658
	c-0.09-0.212-0.181-0.423-0.265-0.646c-0.091-0.242-0.176-0.494-0.261-0.747c-0.068-0.204-0.135-0.408-0.199-0.62
	c0.345,0.214,0.699,0.431,1.037,0.641l0.001-0.001c1.726,1.077,3.361,2.114,4.902,3.111l0,0l0,0l0,0
	c0.005,0.003,0.01,0.006,0.015,0.01c0.925,0.598,1.815,1.18,2.671,1.747l0,0l0,0c3.499,2.319,6.421,4.379,8.737,6.149
	c0.137,0.105,0.264,0.205,0.396,0.308c0.219,0.169,0.446,0.343,0.653,0.507c0.105,0.083,0.203,0.163,0.306,0.245
	c0.355,0.284,0.698,0.563,1.016,0.829c1.7,1.421,2.877,2.587,3.494,3.467c0.391,0.557,0.768,1.192,1.133,1.887
	c0.121,0.23,0.238,0.474,0.356,0.717c0.074,0.152,0.149,0.298,0.222,0.455c0.187,0.406,0.371,0.827,0.55,1.267
	c0.001,0,0.001,0,0.002-0.001c0,0,0,0,0,0.001h0.001c0.857,2.077,1.63,4.498,2.322,7.096c0,0-0.001,0-0.001,0.001
	c0.312,1.17,0.609,2.374,0.887,3.604H272c0.649,2.869,1.204,5.856,1.666,8.773c0,0,0,0-0.001,0c0.204,1.276,0.386,2.534,0.55,3.767
	c0.873,6.501,1.242,12.191,1.081,14.76l-0.037,0.007v0.004c-2.851,0.448-5.492,5.542-5.733,7.866c0,0,16.502-0.967,16.157-2.262
	C285.359,260.932,282.593,255.712,282.322,255.202z"/>
<path fill="#A8A8A8" stroke="#272525" stroke-width="3" stroke-miterlimit="10" d="M174.492,119.492
	c-0.002-0.004-0.004-0.008-0.007-0.012c-0.258-0.039-0.511-0.069-0.769-0.108c-3.938-0.591-7.831-1.108-11.666-1.551
	c-0.001-0.002-0.002-0.005-0.003-0.007c-0.172-0.02-0.34-0.034-0.512-0.054c-1.626-0.185-3.235-0.353-4.837-0.51
	c-0.298-0.029-0.603-0.067-0.899-0.095v-0.006h-0.002l-0.113-0.01l-0.046-0.004l-0.41-0.038l-0.042-0.004l-0.191-0.018l-0.032-0.002
	l-0.139-0.014l-0.09-0.008c-0.053-0.005-0.104-0.008-0.156-0.013c-2.04-0.186-4.059-0.352-6.049-0.49
	c-0.003-0.372-0.008-0.742-0.014-1.112c8.518,1.059,15.588,0.675,15.844-2.921c0.008-0.074,0.008-0.149,0.016-0.223l-8.075-1.831
	l8.204-0.495c0.099-1.904,0.179-3.789,0.205-5.625l-9.897-2.955l7.468,0.854l2.445-0.935c-0.012-2.217-0.06-4.396-0.179-6.517
	l-9.47-5.492l9.143,0.937c-0.069-0.756-0.163-1.489-0.245-2.233H98c0.112,0.661,0.218,1.319,0.322,1.977
	c0.135,0.858,0.262,1.712,0.381,2.563c0.066,0.47,0.135,0.941,0.196,1.409c0.174,1.326,0.335,2.646,0.473,3.952
	c0.89,8.39,1.072,16.357,0.904,23.631c-0.018,0.768-0.038,1.533-0.063,2.285c-0.011,0.34-0.024,0.678-0.037,1.015
	c-0.032,0.827-0.067,1.645-0.106,2.451c-0.137,2.815-0.319,5.479-0.518,8.011c26.936,10.787,55.239,18.018,84.037,23.659
	c1.612-12.346,3.997-24.566,7.409-36.592C185.459,121.279,179.94,120.321,174.492,119.492z"/>
<path fill="#A8A8A8" stroke="#272525" stroke-width="3" stroke-miterlimit="10" d="M163.023,81.679l-10.086-1.862l9.466-1.474
	c-0.444-2.201-0.955-4.334-1.518-6.413l-9.895-4.831l8.636,0.535c-0.746-2.32-1.558-4.561-2.443-6.716l-8.087-2.722l6.962,0.101
	c-1.562-3.496-3.291-6.783-5.17-9.848l-6.962-1.313l5.48-1.013c-1.701-2.577-3.506-4.998-5.39-7.271l-8.423,0.937l5.371-4.403
	c-2.034-2.193-4.137-4.228-6.29-6.111l-8.811,2.097l4.262-5.81c-1.683-1.281-3.383-2.489-5.098-3.61l-10.936,2.346l4.443-6.212
	c-3.789-2.05-7.565-3.747-11.209-5.124l-6.517,5.14l4.362-5.92c-3.16-1.102-6.204-1.96-9.06-2.607l-4.242,3.096l1.588-3.649
	c-3.389-0.639-6.441-0.965-9.02-1.021l2.479,5.828l-5.337-5.771c-4.449,0.3-6.666,1.624-5.375,3.546
	c0.724,1.087,6.543,5.961,8.559,9.669c-7.078,0.133-14.271,1.102-21.437,2.437l0,0c-0.009,0.002-0.017,0.004-0.026,0.005
	c-1.838,0.343-3.674,0.712-5.506,1.094c-0.131,0.027-0.263,0.051-0.394,0.078c0,0.001,0.001,0.002,0.001,0.003
	c-2.721,0.571-5.432,1.171-8.126,1.782c0-0.001-0.001-0.001-0.001-0.002c-1.163,0.264-2.313,0.527-3.467,0.792
	c-2.02,0.462-4.027,0.919-6.019,1.364v-0.001c-1.311,0.294-2.615,0.581-3.91,0.858c-0.799,0.17-1.564,0.303-2.309,0.418
	c-0.199,0.031-0.392,0.056-0.587,0.083c-0.557,0.078-1.101,0.144-1.628,0.197c-7.759,0.776-12.453-0.86-16.605,3.073
	c-5.56,5.269-9.41,18.299-4.479,19.542c0.989,0.247,10.703,4.503,4.599,5.154l-1.715,3.637c1.158,1.717,2.69,4.006,3.844,5.721
	c1.576,2.35,7.631,3.93,13.274,0.698c10.005-5.729,17.584-11.655,21.904-15.831c8.611,2.887,17.972,8.758,21.5,8.921
	c4.405,0.207,8.299-0.208,11.692-1.274c-0.005,0.008-0.01,0.017-0.015,0.026c0.112-0.035,0.214-0.082,0.324-0.119
	c0.412-0.135,0.811-0.287,1.207-0.443c0.228-0.09,0.461-0.172,0.684-0.268c0.548-0.236,1.079-0.494,1.596-0.772
	c0.062-0.033,0.13-0.059,0.192-0.093c0.299,0.704,0.569,1.412,0.851,2.118c0.267,0.666,0.54,1.331,0.793,1.997
	c0.108,0.284,0.208,0.568,0.314,0.852c0.249,0.667,0.489,1.335,0.725,2.002c0.277,0.781,0.542,1.562,0.801,2.343
	c0.226,0.68,0.458,1.361,0.672,2.04c0.072,0.23,0.138,0.46,0.209,0.69c0.256,0.829,0.503,1.657,0.74,2.484
	c0.15,0.521,0.292,1.041,0.435,1.562c0.172,0.628,0.342,1.255,0.505,1.881c0.138,0.533,0.271,1.065,0.402,1.597
	c0.209,0.849,0.419,1.698,0.61,2.544c0.033,0.147,0.063,0.294,0.096,0.441c0.232,1.037,0.454,2.072,0.66,3.102
	c0.024,0.118,0.044,0.234,0.067,0.352c0.209,1.057,0.408,2.112,0.592,3.161c0.016,0.093,0.03,0.185,0.046,0.278
	c0.013,0.075,0.024,0.149,0.036,0.224h65.974C163.645,85.859,163.37,83.732,163.023,81.679z"/>
</svg>
