<?xml version="1.0" encoding="utf-8"?>
<!-- Generator: Adobe Illustrator 17.0.0, SVG Export Plug-In . SVG Version: 6.00 Build 0)  -->
<!DOCTYPE svg PUBLIC "-//W3C//DTD SVG 1.1 Basic//EN" "http://www.w3.org/Graphics/SVG/1.1/DTD/svg11-basic.dtd">
<svg version="1.1" baseProfile="basic" id="Слой_1"
	 xmlns="http://www.w3.org/2000/svg" xmlns:xlink="http://www.w3.org/1999/xlink" x="0px" y="0px" width="155.883px"
	 height="80.019px" viewBox="0 0 155.883 80.019" xml:space="preserve">
<path fill="#CE9538" d="M155.023,73.678l-10.086-1.862l9.466-1.474c-0.444-2.201-0.955-4.334-1.518-6.413l-9.895-4.831l8.636,0.535
	c-0.746-2.32-1.558-4.561-2.443-6.716l-8.087-2.722l6.962,0.101c-1.562-3.496-3.291-6.783-5.17-9.848l-6.962-1.313l5.48-1.013
	c-1.701-2.577-3.506-4.998-5.39-7.271l-8.423,0.937l5.371-4.403c-2.034-2.193-4.137-4.228-6.29-6.111l-8.811,2.097l4.262-5.81
	c-1.683-1.281-3.383-2.489-5.098-3.61l-10.936,2.346l4.443-6.212c-3.789-2.05-7.565-3.747-11.209-5.124l-6.517,5.14l4.362-5.92
	c-3.16-1.102-6.204-1.96-9.06-2.607L83.869,4.67l1.588-3.649C82.068,0.382,79.016,0.056,76.437,0l2.479,5.828l-5.337-5.771
	c-4.449,0.3-6.666,1.624-5.375,3.546c0.724,1.087,6.543,5.961,8.559,9.669c-7.078,0.133-14.271,1.102-21.437,2.437c0,0,0,0,0,0
	c-0.009,0.002-0.017,0.004-0.026,0.005c-1.838,0.343-3.674,0.712-5.506,1.094c-0.131,0.027-0.263,0.051-0.394,0.078
	c0,0.001,0.001,0.002,0.001,0.003c-2.721,0.571-5.432,1.171-8.126,1.782c0-0.001-0.001-0.001-0.001-0.002
	c-1.163,0.264-2.313,0.527-3.467,0.792c-2.02,0.462-4.027,0.919-6.019,1.364c0,0,0-0.001,0-0.001
	c-1.311,0.294-2.615,0.581-3.91,0.858c-0.799,0.17-1.564,0.303-2.309,0.418c-0.199,0.031-0.392,0.056-0.587,0.083
	c-0.557,0.078-1.101,0.144-1.628,0.197c-7.759,0.776-12.453-0.86-16.605,3.073c-5.56,5.269-9.41,18.299-4.479,19.542
	c0.989,0.247,10.703,4.503,4.599,5.154l-1.715,3.637c1.158,1.717,2.69,4.006,3.844,5.721c1.576,2.35,7.631,3.93,13.274,0.698
	c10.005-5.729,17.584-11.655,21.904-15.831c8.611,2.887,17.972,8.758,21.5,8.921c4.405,0.207,8.299-0.208,11.692-1.274
	c-0.005,0.008-0.01,0.017-0.015,0.026c0.112-0.035,0.214-0.082,0.324-0.119c0.412-0.135,0.811-0.287,1.207-0.443
	c0.228-0.09,0.461-0.172,0.684-0.268c0.548-0.236,1.079-0.494,1.596-0.772c0.062-0.033,0.13-0.059,0.192-0.093
	c0.299,0.704,0.569,1.412,0.851,2.118c0.267,0.666,0.54,1.331,0.793,1.997c0.108,0.284,0.208,0.568,0.314,0.852
	c0.249,0.667,0.489,1.335,0.725,2.002c0.277,0.781,0.542,1.562,0.801,2.343c0.226,0.68,0.458,1.361,0.672,2.04
	c0.072,0.23,0.138,0.46,0.209,0.69c0.256,0.829,0.503,1.657,0.74,2.484c0.15,0.521,0.292,1.041,0.435,1.562
	c0.172,0.628,0.342,1.255,0.505,1.881c0.138,0.533,0.271,1.065,0.402,1.597c0.209,0.849,0.419,1.698,0.61,2.544
	c0.033,0.147,0.063,0.294,0.096,0.441c0.232,1.037,0.454,2.072,0.66,3.102c0.024,0.118,0.044,0.234,0.067,0.352
	c0.209,1.057,0.408,2.112,0.592,3.161c0.016,0.093,0.03,0.185,0.046,0.278c0.013,0.075,0.024,0.149,0.036,0.224h65.974
	C155.644,77.858,155.369,75.731,155.023,73.678z"/>
</svg>
