<?xml version="1.0" encoding="utf-8"?>
<!-- Generator: Adobe Illustrator 17.0.0, SVG Export Plug-In . SVG Version: 6.00 Build 0)  -->
<!DOCTYPE svg PUBLIC "-//W3C//DTD SVG 1.1 Basic//EN" "http://www.w3.org/Graphics/SVG/1.1/DTD/svg11-basic.dtd">
<svg version="1.1" baseProfile="basic" id="Слой_1"
	 xmlns="http://www.w3.org/2000/svg" xmlns:xlink="http://www.w3.org/1999/xlink" x="0px" y="0px" width="94.732px"
	 height="135.209px" viewBox="0 0 94.732 135.209" xml:space="preserve">
<path fill="#EEBF31" d="M62.095,74.821c1.249-0.497,2.436-1.088,3.578-1.745c3.968,1.044,21.188,3.087,29.059,3.872
	c-1.546-1.69-3.226-3.124-4.777-4.287C68.26,56.675,54.558,40.689,40.856,17.852C34.096,5.833,15.97-1.735,0.132,0.343
	C0.048,1.564,0,2.792,0,4.029C0,4.919,0.048,5.8,0.09,6.683C0.031,6.603,0,6.561,0,6.561c0.041,0.055,0.068,0.151,0.095,0.246
	C0.122,7.344,0.149,7.88,0.192,8.414c-0.032,1.047-0.145,2.225-0.13,2.759c0.052,1.855,0.141,3.715,0.268,5.568
	c0.073,1.023,0.151,2.048,0.247,3.068c0.237,2.559,0.549,5.108,0.947,7.644c1.112,7.077,2.68,14.08,3.901,21.141
	c0.724,4.196,1.386,8.402,1.942,12.623c0.824,6.288,1.363,12.619,1.637,18.958c-0.149,0.041-0.078,6.505-0.078,6.505
	c0.083-0.034,0.38,25.071,0.197,28.425c-0.039,0.704-0.087,1.407-0.132,2.11c-0.23,0.057-0.382,0.131-0.398,0.234
	c-0.424,2.741-1.047,5.455-1.338,8.214c-0.19,1.791-0.41,4.127,0.81,5.64c0.604,0.752,1.721,1.019,2.588,1.358
	c3.745,1.468,7.678,1.904,11.676,2.227c2.467,0.2,4.942,0.296,7.416,0.316c1.969,0.018,3.937-0.007,5.906-0.061
	c1.625-0.045,3.245-0.114,4.867-0.203c5.439-0.294,11.054-0.185,16.343-1.622c0.379-0.103,3.265-0.303,4.103-1.224
	c-0.007-0.017-1.07-2.804-2.439-6.388c0.001,0,0.002,0,0.003,0c5.439-0.296,11.054-0.186,16.343-1.624
	c0.379-0.103,3.969-0.463,4.104-1.224c0.135-0.762-14.021-34.868-14.021-34.868c-0.417-1.115-3.456-9.654-3.456-9.654
	c-0.036,0.038-0.074,0.075-0.109,0.113c-0.269-0.719-0.537-1.437-0.806-2.156C60.876,76.051,61.971,74.87,62.095,74.821z"/>
</svg>
