<?xml version="1.0" encoding="utf-8"?>
<!-- Generator: Adobe Illustrator 17.0.0, SVG Export Plug-In . SVG Version: 6.00 Build 0)  -->
<!DOCTYPE svg PUBLIC "-//W3C//DTD SVG 1.1 Basic//EN" "http://www.w3.org/Graphics/SVG/1.1/DTD/svg11-basic.dtd">
<svg version="1.1" baseProfile="basic" id="Слой_1"
	 xmlns="http://www.w3.org/2000/svg" xmlns:xlink="http://www.w3.org/1999/xlink" x="0px" y="0px" width="300px" height="330px"
	 viewBox="0 0 300 330" xml:space="preserve">
<path fill="#A8A8A8" stroke="#272525" stroke-width="3" stroke-miterlimit="10" d="M222.26,205.966
	c4.816-0.948,9.45-2.575,13.855-4.775c8.482-3.415,15.396-8.777,19.729-15.306c14.091-14.984,23.048-37.356,23.048-62.365
	c0-28.054-11.26-52.798-28.405-67.506c0.908-3.028,3.564-8.834,3.866-9.679c2.057-5.757,5.289-11.558,6.395-17.586
	c0.788-4.285-0.635-7.212-2.142-11.088c-0.935-2.409-1.87-4.814-2.805-7.222c-2.444,3.177-4.887,6.354-7.328,9.531
	c-2.273,2.951-5.63,5.506-7.138,8.982c-1.556,3.59-0.376,7.617,0.638,11.168c0.386,1.353,0.569,3.301,0.84,5.247l-11.031-0.666
	l0.029,0.305c-2.858-1.029-5.794-1.823-8.799-2.354c0.668-2.133,2.175-4.251,3.219-5.966c2.914-4.796,6.302-9.356,10.275-13.329
	l6.102-4.008l-14.525-5.181l-5.412,7.685l-4.707,8.856c0,0,2.17-13.735,2.172-13.745c0.043-0.278-7.778,0.927-8.526,1.125
	c-4.122,1.105-7.678,3.297-11.107,5.767l0.969,11.027c0,0-3.052-10.862-3.554-10.358c-0.502,0.504,0,11.027,0,11.027l-4.175-8.186
	l-5.829,4.676l0.882,8.519l-3.943-3.428c-0.496-3.307-1.233-6.826-3.779-9.161c-2.794-2.559-6.901-3.527-10.179-5.293
	c-3.524-1.908-7.049-3.811-10.575-5.716c0.127,2.58,0.254,5.156,0.381,7.736c0.204,4.155,0.098,7.408,2.562,10.999
	c2.392,3.488,5.663,6.464,8.85,9.426l-2.091,1.617l3.795,6.347l-5.567-4.175l-4.074,4.175l5.345,4.705c0,0-7.442-3.727-8.186-3.367
	c-0.744,0.36,2.338,5.846,2.338,5.846l-4.176-2.48l-5.179,5.987l2.338,5.513l-4.51-3.509L147.47,76.98l3.388,3.843
	c0,0-4.531-2.314-4.892-1.507s4.177,2.841,4.177,2.841h-5.68l-1.504,6.516l3.843,1.996l-5.68,1.678l-1.168,4.889l-3.508-4.388
	l-5.848,1.338l-0.835,4.508l-3.003-5.012l-5.68,0.837v5.513c0,0-1.176-4.549-1.67-4.343c-0.494,0.206,0,4.343,0,4.343l-3.843-4.343
	l-2.338,0.666v3.204c-0.278-0.173-0.558-0.343-0.832-0.521l-1.506-1.801l-2.841,0.958v3.342l-3.674-1.338l-3.508,1.338l-1.336,3.174
	l-2.172-1.997l-3.34,1.997v3.754c-1.341,0.421-26.132,12.227-28.734,13.852c-2.602,1.625-5.04,3.541-7.808,6.052
	c-2.767,2.511-10.209,10.073-13.925,15.796c-0.544-0.239-1.101-0.498-1.664-0.797c-2.731-1.452-5.41-2.985-7.908-4.817
	c-11.147-8.169-12.931-19.314-11.047-30.805c0.015-0.094,0.036-0.188,0.052-0.281c0.533-0.072,1.061-0.191,1.571-0.391
	c3.026-1.193,4.402-4.325,5.225-7.253c1.222-4.337,1.002-9.486,5.235-12.235c1.757-1.138,3.88-1.835,5.884-2.412
	c1.139-0.326,2.299-0.575,3.465-0.809c-4.529-1.427-9.445,0.357-12.694,3.664c-0.8,0.817-1.811,2.44-2.82,2.896
	c-0.34-0.943,0.243-2.083,0.459-2.985c0.261-1.084,0.553-2.161,0.916-3.218c0.717-2.075,1.739-4.096,3.331-5.64
	c2.028-1.969,5.181-2.141,7.846-2.001c1.451,0.079,2.92,0.234,4.371,0.234c-0.666-0.306-1.211-0.786-1.859-1.112
	c-0.731-0.371-1.561-0.481-2.367-0.56c-3.541-0.339-7.75,0.56-10.492,2.934c-1.821,1.575-2.789,3.801-3.884,5.894
	c-0.511,0.981-0.998,1.976-1.598,2.909c-0.384,0.596-1.166,1.75-1.853,1.931c-0.395,0.106,0-1.692,0.079-1.845
	c0.353-0.704,0.971-1.232,1.406-1.877c0.433-0.642,0.831-1.308,1.139-2.017c0.539-1.239,0.807-2.628,0.508-3.966
	c-0.49-2.207-2.566-3.76-4.638-2.313c-1.283,0.895-2.141,2.361-2.975,3.651c1.215-0.71,2.91-1.873,4.406-1.465
	c1.369,0.374,1.41,1.852,0.923,2.954c-0.765,1.733-2.453,2.951-3.849,4.145c-1.564,1.338-2.964,2.769-3.915,4.618
	c-1.17,2.261-1.763,4.796-2.412,7.246c-1.884-1.3-1.876-4.096-2.027-6.137c-0.268,2.881-0.957,6.083-0.34,8.951
	c0.274,1.287,0.94,2.453,1.866,3.383c0.738,0.733,1.567,1.119,2.466,1.474c-0.062,0.446-0.117,0.892-0.167,1.336
	c-0.868,7.73-0.247,15.549,1.544,23.102c1.671,7.041,5.984,12.8,10.015,18.65c2.68,3.892,5.064,7.603,8.428,10.817
	c-1.532,5.13-2.365,10.455-2.365,15.927c0,0.89,0.048,1.771,0.09,2.654c-0.059-0.08-0.09-0.122-0.09-0.122
	c0.041,0.055,0.068,0.151,0.095,0.246c0.027,0.537,0.054,1.073,0.097,1.607c-0.032,1.047-0.145,2.225-0.13,2.759
	c0.052,1.855,0.141,3.715,0.268,5.568c0.073,1.023,0.151,2.048,0.247,3.068c0.237,2.559,0.549,5.108,0.947,7.644
	c1.112,7.077,2.68,14.08,3.901,21.141c0.724,4.196,1.386,8.402,1.942,12.623c0.824,6.288,1.363,12.619,1.637,18.958
	c-0.149,0.041-0.078,6.505-0.078,6.505c0.083-0.034,0.38,25.071,0.197,28.425c-0.039,0.704-0.087,1.407-0.132,2.11
	c-0.23,0.057-0.382,0.131-0.398,0.234c-0.424,2.741-1.047,5.455-1.338,8.214c-0.19,1.791-0.41,4.127,0.81,5.64
	c0.604,0.752,1.721,1.019,2.588,1.358c3.745,1.468,7.678,1.904,11.676,2.227c2.467,0.2,4.942,0.296,7.416,0.316
	c1.969,0.018,3.937-0.007,5.906-0.061c1.625-0.045,3.245-0.114,4.867-0.203c5.439-0.294,11.054-0.185,16.343-1.622
	c0.379-0.103,3.265-0.303,4.103-1.224c-0.007-0.017-1.07-2.804-2.439-6.388c0.001,0,0.002,0,0.003,0
	c5.439-0.296,11.054-0.186,16.343-1.624c0.379-0.103,3.969-0.463,4.104-1.224S98.763,259.9,98.763,259.9
	c-0.417-1.115-3.456-9.654-3.456-9.654c-0.036,0.038-0.074,0.075-0.109,0.113c-0.269-0.719-0.537-1.437-0.806-2.156
	c0.295-0.238,1.39-1.419,1.514-1.468c1.249-0.497,2.436-1.088,3.578-1.745c4.976,1.309,30.809,4.192,32.885,4.192
	c2.616,0,14.422,0.418,15.881-0.959c0.245-0.03,0.487-0.066,0.732-0.097c0.322,3.54,0.559,7.087,0.702,10.639
	c-0.244,0.064-0.019,6.446,0.151,6.378c0.007,0.751,0.036,1.502,0.034,2.254c-0.001,0.43,0.078,22.566-0.096,25.745
	c-0.035,0.644-0.08,1.287-0.12,1.93c-0.411,2.65-0.988,5.277-1.263,7.944c-0.186,1.792-0.4,4.128,0.791,5.641
	c0.59,0.752,1.681,1.019,2.528,1.358c3.659,1.468,7.502,1.905,11.406,2.227c2.41,0.198,4.829,0.296,7.246,0.316
	c1.923,0.017,3.846-0.007,5.769-0.061c1.587-0.045,3.172-0.114,4.755-0.203c5.315-0.296,10.799-0.185,15.966-1.622
	c0.37-0.104,3.672-0.417,4.009-1.225c0.336-0.809-1.586-4.25-3.358-9.002c-0.21-0.678-0.465-1.377-0.747-2.1
	c-0.063-0.161-0.13-0.32-0.193-0.481c0.249,0.004,0.497,0.016,0.746,0.018c1.969,0.017,3.937-0.008,5.906-0.062
	c1.625-0.045,3.246-0.113,4.867-0.202c5.44-0.296,11.054-0.186,16.343-1.624c0.379-0.103,3.672-0.32,4.103-1.224
	s-8.434-22.095-8.434-22.095c-0.272-0.711-0.648-1.085-1.08-1.24c-0.77-1.876-1.542-3.751-2.301-5.631
	c-0.827-2.214-1.654-4.428-2.482-6.642c0.169-0.141-2.264-6.06-2.264-6.06c-0.436-1.165-3.609-9.654-3.609-9.654
	c-0.273-0.731-3.334-8.919-3.43-9.177c-0.865-2.314-1.566-4.678-2.187-7.065C210.823,221.074,217.457,213.895,222.26,205.966z"/>
</svg>
