<?xml version="1.0" encoding="utf-8"?>
<!-- Generator: Adobe Illustrator 17.0.0, SVG Export Plug-In . SVG Version: 6.00 Build 0)  -->
<!DOCTYPE svg PUBLIC "-//W3C//DTD SVG 1.1 Basic//EN" "http://www.w3.org/Graphics/SVG/1.1/DTD/svg11-basic.dtd">
<svg version="1.1" baseProfile="basic" id="Слой_1"
	 xmlns="http://www.w3.org/2000/svg" xmlns:xlink="http://www.w3.org/1999/xlink" x="0px" y="0px" width="104.69px"
	 height="105.43px" viewBox="0 0 104.69 105.43" xml:space="preserve">
<path fill="#369371" d="M101.32,96.203c1.288-3.513,2.175-11.556,2.193-19.818c0-0.012,0-0.024,0-0.036
	c0.015-8.119-0.809-16.436-2.917-20.859c0,0,0.001,0,0.001,0c-0.012-0.025-0.025-0.047-0.037-0.072
	c-0.1-0.206-0.203-0.402-0.308-0.59c-0.031-0.055-0.061-0.109-0.092-0.162c-0.249-0.425-0.514-0.799-0.795-1.12
	c-0.029-0.033-0.059-0.065-0.089-0.097c-0.13-0.141-0.264-0.272-0.401-0.39c-0.014-0.012-0.027-0.025-0.041-0.037
	c-0.159-0.132-0.322-0.247-0.49-0.346c-0.012-0.007-0.024-0.012-0.036-0.019c-0.159-0.091-0.323-0.166-0.491-0.227
	c-0.016-0.006-0.031-0.012-0.047-0.017c-0.358-0.122-0.735-0.17-1.133-0.142c-0.01,0.001-0.02-0.002-0.031-0.001
	c-0.002,0.001-0.005,0.003-0.007,0.004c-0.073,0.006-0.145,0.007-0.22,0.018c-0.288,0.043-0.429-2.149-0.627-5.815
	c0,0,0.001,0,0.001-0.001c-0.057-1.048-0.12-2.226-0.191-3.498c-0.008-0.142-0.016-0.291-0.025-0.436
	c-0.025-0.439-0.05-0.881-0.077-1.343c-0.006-0.107-0.013-0.215-0.019-0.323c-0.026-0.433-0.051-0.862-0.078-1.313
	c-0.001,0-0.001,0.001-0.002,0.001c-0.101-1.619-0.221-3.352-0.363-5.175c0.001,0,0.001,0,0.002-0.001
	c-0.036-0.463-0.075-0.938-0.115-1.412c-0.007-0.087-0.014-0.172-0.021-0.26c-0.183-2.19-0.401-4.486-0.667-6.864
	c-0.001,0.001-0.002,0.001-0.003,0.002c-0.314-2.806-0.695-5.716-1.156-8.666c0.002-0.001,0.004-0.003,0.007-0.004
	c-0.064-0.407-0.135-0.817-0.202-1.226c-0.043-0.263-0.086-0.526-0.13-0.79c-0.035-0.209-0.073-0.418-0.109-0.626
	C62.74,9.959,32.445,5.83,2.68,0C1.198,11.347,0.368,22.799,0,34.304c0.236,0.006,0.471,0.016,0.707,0.021
	c0.93,0.019,1.858,0.027,2.787,0.031c0.874,0.004,1.746,0.007,2.618-0.003c0.941-0.01,1.878-0.034,2.816-0.059
	c0.855-0.023,1.709-0.045,2.56-0.081c0.953-0.04,1.9-0.095,2.848-0.15c0.828-0.048,1.656-0.093,2.48-0.152
	c0.968-0.07,1.928-0.157,2.889-0.242c0.793-0.071,1.588-0.136,2.376-0.217c0.886-0.091,1.761-0.198,2.639-0.302
	c0.812,0.306,1.611,0.613,2.392,0.922c0.23,0.091,0.46,0.182,0.687,0.273c0.389,0.156,0.774,0.312,1.156,0.468
	c0.231,0.095,0.461,0.189,0.688,0.284c0.37,0.153,0.735,0.307,1.097,0.461c0.23,0.098,0.459,0.195,0.685,0.292
	c0.35,0.151,0.697,0.301,1.04,0.452c0.231,0.101,0.46,0.202,0.688,0.303c0.328,0.146,0.652,0.291,0.973,0.436
	c0.237,0.107,0.473,0.215,0.706,0.322c0.301,0.138,0.599,0.276,0.894,0.414c0.245,0.114,0.488,0.229,0.729,0.343
	c0.271,0.129,0.54,0.257,0.807,0.385c0.261,0.125,0.519,0.25,0.774,0.375c0.236,0.115,0.47,0.23,0.702,0.345
	c0.278,0.138,0.553,0.275,0.825,0.411c2.419,1.215,4.604,2.396,6.569,3.51c0,0,0,0-0.001,0c1.202,0.68,2.315,1.333,3.353,1.956
	c0.105,0.063,0.209,0.126,0.312,0.188c0.466,0.281,0.919,0.556,1.352,0.822c0.075,0.046,0.146,0.09,0.22,0.136
	c0.339,0.209,0.665,0.411,0.984,0.609c2.452,1.527,4.319,2.748,5.651,3.492c0.571,0.319,1.111,0.735,1.628,1.218
	c0.072,0.067,0.144,0.132,0.215,0.201c0.211,0.209,0.417,0.434,0.619,0.668c0.079,0.091,0.157,0.184,0.235,0.279
	c0.197,0.241,0.39,0.491,0.578,0.754c0.074,0.104,0.146,0.213,0.219,0.32c0.147,0.216,0.291,0.439,0.433,0.668
	c0.085,0.138,0.17,0.276,0.253,0.418c0.169,0.288,0.334,0.583,0.495,0.889c0.089,0.168,0.174,0.343,0.26,0.516
	c1.156,2.315,2.115,5.066,2.91,8.008c0,0-0.001,0-0.001,0c0.344,1.267,0.658,2.568,0.945,3.884c0.6,2.772,1.075,5.605,1.455,8.313
	c0.069,0.492,0.134,0.977,0.197,1.459c0.016,0.126,0.034,0.255,0.05,0.38c0.07,0.551,0.136,1.094,0.199,1.629
	c0.018,0.157,0.035,0.31,0.053,0.465c0.049,0.428,0.096,0.853,0.14,1.267c0.029,0.272,0.055,0.533,0.082,0.798
	c0.026,0.253,0.052,0.508,0.076,0.754c0.368,3.793,0.539,6.811,0.618,8.232c-0.677,0.909-3.059,4.316-3.124,7.353
	c-0.078,3.538,10.106,1.616,12.391-0.935c2.282-2.555-0.205-7.516-0.205-7.516l-0.405,0.039c2.765-10.154,2.243-45.577-6.422-44.766
	c-0.51,0.048-0.991,0.061-1.454,0.049c-0.194-0.005-0.372-0.031-0.559-0.047c-2.947-0.237-4.906-1.73-6.256-4.178
	c-0.106-0.192-0.212-0.383-0.31-0.586c-0.103-0.211-0.198-0.434-0.294-0.658c-0.09-0.212-0.181-0.423-0.265-0.646
	c-0.091-0.242-0.176-0.494-0.261-0.747c-0.068-0.204-0.135-0.408-0.199-0.62c0.345,0.214,0.699,0.431,1.037,0.641
	c0,0,0.001-0.001,0.001-0.001c1.726,1.077,3.361,2.114,4.902,3.111c0,0,0,0,0,0l0,0h0c0.005,0.003,0.01,0.006,0.015,0.01
	c0.925,0.598,1.815,1.18,2.671,1.747h0c0,0,0,0,0,0c3.499,2.319,6.421,4.379,8.737,6.149c0.137,0.105,0.264,0.205,0.396,0.308
	c0.219,0.169,0.446,0.343,0.653,0.507c0.105,0.083,0.203,0.163,0.306,0.245c0.355,0.284,0.698,0.563,1.016,0.829
	c1.7,1.421,2.877,2.587,3.494,3.467c0.391,0.557,0.768,1.192,1.133,1.887c0.121,0.23,0.238,0.474,0.356,0.717
	c0.074,0.152,0.149,0.298,0.222,0.455c0.187,0.406,0.371,0.827,0.55,1.267c0.001,0,0.001,0,0.002-0.001c0,0,0,0,0,0.001
	c0,0,0.001,0,0.001,0c0.857,2.077,1.63,4.498,2.322,7.096c0,0-0.001,0-0.001,0.001c0.312,1.17,0.609,2.374,0.887,3.604
	c0,0,0.001,0,0.001,0c0.649,2.869,1.204,5.856,1.666,8.773c0,0,0,0-0.001,0c0.204,1.276,0.386,2.534,0.55,3.767
	c0.873,6.501,1.242,12.191,1.081,14.76l-0.037,0.007v0.004c-2.851,0.448-5.492,5.542-5.733,7.866c0,0,16.502-0.967,16.157-2.262
	C104.358,101.933,101.592,96.713,101.32,96.203z"/>
</svg>
