<?xml version="1.0" encoding="utf-8"?>
<!-- Generator: Adobe Illustrator 17.0.0, SVG Export Plug-In . SVG Version: 6.00 Build 0)  -->
<!DOCTYPE svg PUBLIC "-//W3C//DTD SVG 1.1 Basic//EN" "http://www.w3.org/Graphics/SVG/1.1/DTD/svg11-basic.dtd">
<svg version="1.1" baseProfile="basic" id="Слой_1"
	 xmlns="http://www.w3.org/2000/svg" xmlns:xlink="http://www.w3.org/1999/xlink" x="0px" y="0px" width="300px" height="330px"
	 viewBox="0 0 300 330" xml:space="preserve">
<g id="Zebra">
	<path id="Mane" fill="#000100" d="M222.671,44.741c-0.034-2.79,2.174-5.778,3.56-8.057c2.914-4.796,6.302-9.356,10.275-13.329
		l6.102-4.008l-14.525-5.181l-5.412,7.685l-4.707,8.856c0,0,2.17-13.734,2.172-13.745c0.043-0.278-7.778,0.927-8.526,1.125
		c-4.122,1.105-7.678,3.297-11.107,5.767l0.969,11.027l-3.554-10.358V35.55l-4.175-8.186l-5.829,4.676l0.882,8.519l-5.076-4.412
		l-13.698,10.595l3.795,6.347l-5.567-4.175l-4.074,4.175l5.345,4.705l-8.186-3.367l2.338,5.846l-4.176-2.48l-5.179,5.987
		l2.338,5.513l-4.51-3.509L147.47,76.98l3.388,3.843l-4.892-1.507l4.177,2.841h-5.68l-1.504,6.515l3.843,1.996l-5.68,1.678
		l-1.168,4.889l-3.508-4.388l-5.848,1.338l-0.835,4.508l-3.003-5.012l-5.68,0.837v5.513l-1.67-4.343v4.343l-3.843-4.343
		l-2.338,0.666v3.678l-2.338-2.797l-2.841,0.958v3.342l-3.674-1.338l-3.508,1.338l-1.336,3.174l-2.172-1.997l-3.34,1.997v6.014
		l57.63-3.18l33.237-26.054l37.923-27.896C222.806,53.592,222.671,44.747,222.671,44.741z"/>
	<g id="Body_2_">
		<g id="Front_Rigt_Leg">
			<g id="Front_Right_Leg">
				<path id="Leg_3_" fill="#D5D5D4" d="M168.141,182.485c0.236,2.56,0.549,5.109,0.947,7.644c1.112,7.079,2.679,14.08,3.901,21.141
					c0.724,4.196,1.386,8.402,1.942,12.623c1.221,9.325,1.873,18.739,1.852,28.144c-0.02,8.536,0.367,17.229-0.096,25.745
					c-0.137,2.498-0.309,4.988-0.535,7.482c-0.271,2.985-0.672,5.637,2.1,7.576c5.421,3.787,14.063,3.636,20.349,3.636
					c0.003,0,14.976,0,14.982,0c2.117,0,6.238-2.309,8.101-3.4c4.432-2.594,3.585-5.983,1.986-10.094
					c-2.24-5.757-4.645-11.452-6.958-17.181c-1.551-4.151-3.101-8.3-4.652-12.451c-2.377-6.36-4.755-12.722-7.133-19.082
					c-2.642-7.067-3.843-14.574-5.455-21.937c0,0-31.907-43.088-31.907-43.091c0.432,0.587,0.034,3.651,0.062,4.611
					c0.051,1.857,0.14,3.715,0.268,5.569C167.966,180.441,168.044,181.466,168.141,182.485z"/>
				<path id="Hoof_3_" fill="#000100" d="M220.093,272.672c0,0,8.416,22.048,8.434,22.095c-0.098-0.165-3.724,1.122-4.103,1.224
					c-5.289,1.437-10.903,1.328-16.343,1.624c-1.621,0.089-3.242,0.157-4.867,0.202c-1.969,0.055-3.937,0.079-5.906,0.062
					c-2.474-0.021-4.949-0.117-7.416-0.317c-3.997-0.322-7.93-0.758-11.675-2.226c-0.868-0.34-1.985-0.608-2.589-1.359
					c-1.22-1.513-1-3.849-0.81-5.64c0.292-2.759,0.914-5.472,1.338-8.214c0.101-0.638,5.069-0.281,5.588-0.274
					c5.623,0.055,11.342,0.155,16.919-0.638c2.846-0.405,5.694-1.054,8.31-2.247c2.051-0.933,4.015-2.042,6.005-3.095
					c0.947-0.501,1.894-1.001,2.837-1.513C217.267,271.575,219.22,270.387,220.093,272.672z"/>
			</g>
			<g>
				<path fill="none" d="M223.669,282.982c-2.24-5.757-4.645-11.452-6.958-17.181c-0.827-2.214-1.654-4.428-2.482-6.642
					c-1.973,1.645-4.168,3.038-6.442,4.223c-1.161,0.607-2.352,1.155-3.57,1.639c-0.705,0.278-1.418,0.535-2.13,0.789
					c-0.331,0.12-1.848,0.425-1.992,0.714c2.707-5.38,7.593-9.099,11.619-13.426h0.251c-0.436-1.165-0.871-2.331-1.307-3.496
					c-1.942,1.602-4.091,2.961-6.317,4.124c-1.161,0.604-2.352,1.153-3.57,1.637c-0.705,0.281-1.418,0.535-2.13,0.793
					c-0.331,0.117-1.848,0.421-1.992,0.71c2.707-5.38,7.592-9.096,11.619-13.422h0.088c-0.273-0.73-0.546-1.461-0.819-2.191
					c-1.926,1.578-4.053,2.924-6.256,4.073c-1.161,0.607-2.352,1.155-3.57,1.639c-0.705,0.278-1.418,0.535-2.13,0.789
					c-0.331,0.12-1.848,0.425-1.992,0.714c2.707-5.38,7.592-9.099,11.619-13.426h0.008c-0.097-0.258-0.193-0.517-0.29-0.775
					c-2.642-7.068-3.843-14.574-5.455-21.937c0,0-31.907-43.088-31.907-43.091c0.432,0.587,0.034,3.651,0.062,4.611
					c0.051,1.857,0.14,3.715,0.268,5.569c0.072,1.023,0.15,2.047,0.247,3.067c0.236,2.56,0.549,5.109,0.947,7.644
					c1.112,7.079,2.679,14.08,3.901,21.141c0.724,4.196,1.386,8.402,1.942,12.623c1.173,8.962,1.814,18.005,1.845,27.043
					c2.317-0.569,4.706-0.871,7.082-0.983c1.309-0.058,2.619-0.055,3.929,0.017c0.756,0.045,1.511,0.114,2.266,0.182
					c0.35,0.031,1.853,0.391,2.105,0.193c-4.478,3.547-10.105,4.914-15.344,6.946c0.013,1.202,0.027,2.405,0.043,3.61
					c1.994-0.416,4.034-0.642,6.062-0.737c1.309-0.062,2.619-0.059,3.928,0.017c0.757,0.045,1.511,0.113,2.264,0.178
					c0.35,0.034,1.854,0.395,2.106,0.195c-4.184,3.315-9.37,4.725-14.306,6.552c0.003,0.852,0,1.703-0.005,2.554
					c1.735-0.316,3.495-0.508,5.25-0.591c1.309-0.058,2.619-0.055,3.927,0.017c0.758,0.045,1.513,0.114,2.266,0.182
					c0.35,0.031,1.854,0.395,2.107,0.193c-4.008,3.175-8.936,4.603-13.683,6.326c-0.026,0.665-0.049,1.331-0.085,1.993
					c-0.137,2.498-0.309,4.988-0.535,7.482c-0.271,2.985-0.672,5.637,2.1,7.576c5.421,3.787,14.063,3.636,20.349,3.636
					c0.003,0,14.976,0,14.982,0c2.117,0,6.238-2.309,8.101-3.4C226.115,290.482,225.268,287.092,223.669,282.982z"/>
				<path fill="#373736" d="M193.589,248.468c0.144-0.289,1.66-0.593,1.992-0.714c0.712-0.254,1.426-0.512,2.13-0.789
					c1.218-0.484,2.409-1.033,3.57-1.639c2.203-1.149,4.33-2.495,6.256-4.073c-0.774-2.07-1.548-4.141-2.321-6.211h-0.008
					C201.181,239.369,196.296,243.088,193.589,248.468z"/>
				<path fill="#373736" d="M196.65,256.867c0.144-0.289,1.66-0.593,1.992-0.71c0.712-0.258,1.426-0.512,2.13-0.793
					c1.218-0.484,2.409-1.033,3.57-1.637c2.226-1.163,4.375-2.522,6.317-4.124c-0.767-2.053-1.535-4.106-2.302-6.159h-0.088
					C204.242,247.771,199.357,251.487,196.65,256.867z"/>
				<path fill="#373736" d="M200.096,266.525c0.144-0.289,1.66-0.593,1.992-0.714c0.712-0.254,1.426-0.512,2.13-0.789
					c1.218-0.484,2.409-1.033,3.57-1.639c2.274-1.185,4.469-2.578,6.442-4.223c-0.724-1.936-1.447-3.872-2.171-5.809
					c-0.031-0.084-0.063-0.167-0.094-0.251h-0.251C207.688,257.425,202.803,261.144,200.096,266.525z"/>
				<path fill="#373736" d="M188.348,269.269c-0.753-0.068-1.508-0.137-2.266-0.182c-1.308-0.071-2.618-0.075-3.927-0.017
					c-1.755,0.082-3.516,0.275-5.25,0.591c-0.012,2.048-0.053,4.092-0.134,6.127c4.747-1.724,9.675-3.152,13.683-6.326
					C190.203,269.664,188.699,269.3,188.348,269.269z"/>
				<path fill="#373736" d="M189.11,260.359c-0.753-0.066-1.508-0.134-2.264-0.178c-1.309-0.076-2.619-0.079-3.928-0.017
					c-2.028,0.094-4.067,0.321-6.062,0.737c0.027,2.068,0.049,4.138,0.055,6.206c4.935-1.828,10.122-3.238,14.306-6.552
					C190.964,260.754,189.46,260.394,189.11,260.359z"/>
				<path fill="#373736" d="M190.052,250.152c-0.754-0.068-1.509-0.137-2.266-0.182c-1.309-0.071-2.619-0.075-3.929-0.017
					c-2.376,0.111-4.765,0.414-7.082,0.983c0.001,0.367,0.008,0.734,0.007,1.1c-0.004,1.746,0.011,3.499,0.03,5.255
					c5.24-2.032,10.867-3.399,15.344-6.946C191.904,250.543,190.402,250.183,190.052,250.152z"/>
			</g>
		</g>
		<g id="Front_Left_Leg_1_">
			<g id="Front_Left_Leg">
				<path id="Leg_2_" fill="#F7F7F7" d="M148.017,239.253c1.225,9.324,1.877,18.736,1.853,28.143
					c-0.021,8.536,0.371,17.227-0.096,25.745c-0.134,2.498-0.309,4.989-0.535,7.48c-0.271,2.988-0.672,5.64,2.103,7.578
					c5.417,3.788,14.063,3.634,20.345,3.634c0.004,0,14.98,0,14.983,0c2.12,0,6.241-2.309,8.104-3.397
					c4.429-2.594,3.582-5.984,1.983-10.094c-2.24-5.757-4.642-11.452-6.954-17.182c-1.551-4.15-3.102-8.298-4.656-12.45
					c-2.378-6.361-4.755-12.722-7.133-19.082c-2.642-7.067-3.843-14.574-5.456-21.937
					C172.558,227.691,147.464,235.032,148.017,239.253z"/>
				<path id="Hoof_2_" fill="#373736" d="M192.62,287.35c0,0.003,8.222,22.046,8.241,22.094c-0.096-0.164-3.639,1.122-4.009,1.225
					c-5.167,1.437-10.651,1.327-15.966,1.622c-1.583,0.089-3.169,0.158-4.755,0.203c-1.923,0.055-3.846,0.078-5.769,0.061
					c-2.417-0.02-4.836-0.117-7.246-0.316c-3.905-0.322-7.747-0.758-11.406-2.227c-0.847-0.339-1.938-0.607-2.528-1.358
					c-1.19-1.513-0.976-3.849-0.791-5.641c0.284-2.758,0.894-5.472,1.307-8.213c0.1-0.639,4.953-0.282,5.459-0.274
					c5.492,0.055,11.079,0.154,16.528-0.639c2.781-0.405,5.563-1.053,8.119-2.247c2.003-0.933,3.923-2.042,5.866-3.094
					c0.925-0.501,1.851-1.002,2.772-1.513C189.86,286.251,191.767,285.065,192.62,287.35z"/>
			</g>
			<g>
				<path fill="#373736" d="M169.165,261.892c0.711-0.253,1.425-0.511,2.13-0.788c1.218-0.484,2.409-1.034,3.57-1.64
					c1.925-1.004,3.796-2.153,5.524-3.479c-0.76-2.033-1.52-4.066-2.279-6.098c-3.885,4.031-8.379,7.637-10.937,12.719
					C167.317,262.318,168.834,262.013,169.165,261.892z"/>
				<path fill="#373736" d="M174.356,269.503c1.218-0.484,2.409-1.034,3.57-1.637c1.948-1.018,3.84-2.183,5.585-3.53
					c-0.761-2.036-1.522-4.071-2.283-6.107c-3.898,4.055-8.424,7.668-10.995,12.776c0.144-0.288,1.661-0.593,1.991-0.71
					C172.937,270.038,173.65,269.784,174.356,269.503z"/>
				<path fill="#373736" d="M185.146,268.71c-0.118-0.316-0.236-0.631-0.354-0.947c-3.924,4.105-8.516,7.741-11.112,12.9
					c0.144-0.288,1.66-0.593,1.992-0.714c0.712-0.253,1.426-0.511,2.13-0.788c1.218-0.484,2.409-1.033,3.57-1.64
					c1.996-1.041,3.931-2.242,5.711-3.63C186.437,272.164,185.792,270.438,185.146,268.71z"/>
				<path fill="#373736" d="M150.003,283.546c4.785-1.741,9.763-3.166,13.806-6.369c-0.252,0.2-1.757-0.161-2.106-0.195
					c-0.753-0.066-1.508-0.134-2.266-0.178c-1.307-0.076-2.618-0.079-3.927-0.017c-1.857,0.084-3.721,0.292-5.552,0.644
					C149.983,279.469,150.004,281.509,150.003,283.546z"/>
				<path fill="#373736" d="M164.571,268.267c-0.252,0.202-1.757-0.162-2.106-0.192c-0.753-0.069-1.508-0.138-2.265-0.178
					c-1.309-0.076-2.619-0.079-3.929-0.021c-2.142,0.1-4.297,0.347-6.398,0.811c0.004,2.081,0.026,4.169,0.053,6.262
					C154.962,273.056,160.291,271.658,164.571,268.267z"/>
				<path fill="#373736" d="M149.855,265.129c5.328-2.103,11.089-3.453,15.656-7.072c-0.252,0.203-1.755-0.157-2.105-0.192
					c-0.755-0.068-1.51-0.137-2.266-0.178c-1.309-0.076-2.619-0.079-3.928-0.017c-2.525,0.115-5.064,0.448-7.515,1.091
					C149.783,260.882,149.836,263.005,149.855,265.129z"/>
			</g>
		</g>
		<g id="Back_Right_Leg_1_">
			<g id="Back_Right_Leg">
				<g id="Leg_1_">
					<path fill="#D5D5D4" d="M52.396,182.485c0.237,2.56,0.549,5.109,0.947,7.644c1.112,7.079,2.68,14.08,3.901,21.141
						c0.724,4.196,1.386,8.402,1.942,12.623c1.222,9.325,1.873,18.739,1.853,28.144c-0.021,8.536,0.367,17.229-0.096,25.745
						c-0.137,2.498-0.309,4.988-0.535,7.482c-0.271,2.985-0.672,5.637,2.1,7.576c5.421,3.787,14.063,3.636,20.349,3.636
						c0.003,0,14.976,0,14.982,0c2.117,0,6.237-2.309,8.101-3.4c4.432-2.594,3.585-5.983,1.986-10.094
						c-2.241-5.757-4.646-11.452-6.958-17.181c-1.551-4.151-3.102-8.3-4.652-12.451c-2.377-6.36-4.755-12.722-7.133-19.082
						c-2.642-7.067-3.843-14.574-5.455-21.937c0,0-31.907-43.088-31.907-43.091c0.432,0.587,0.034,3.651,0.061,4.611
						c0.052,1.857,0.141,3.715,0.268,5.569C52.222,180.441,52.301,181.466,52.396,182.485z"/>
				</g>
				<path id="Hoof_1_" fill="#000100" d="M104.349,272.672c0,0,8.416,22.048,8.434,22.095c-0.098-0.165-3.724,1.122-4.104,1.224
					c-5.288,1.437-10.903,1.328-16.343,1.624c-1.621,0.089-3.242,0.157-4.867,0.202c-1.969,0.055-3.937,0.079-5.906,0.062
					c-2.474-0.021-4.949-0.117-7.416-0.317c-3.997-0.322-7.93-0.758-11.676-2.226c-0.867-0.34-1.984-0.608-2.588-1.359
					c-1.22-1.513-1-3.849-0.81-5.64c0.292-2.759,0.914-5.472,1.338-8.214c0.102-0.638,5.069-0.281,5.587-0.274
					c5.623,0.055,11.343,0.155,16.92-0.638c2.846-0.405,5.693-1.054,8.309-2.247c2.052-0.933,4.016-2.042,6.006-3.095
					c0.947-0.501,1.894-1.001,2.837-1.513C101.523,271.575,103.476,270.387,104.349,272.672z"/>
			</g>
			<g>
				<path fill="#373736" d="M80.628,255.268c0.144-0.288,1.66-0.593,1.991-0.714c0.712-0.254,1.426-0.511,2.13-0.789
					c1.218-0.484,2.409-1.033,3.57-1.639c2.133-1.112,4.194-2.41,6.072-3.923c-0.771-2.062-1.542-4.124-2.312-6.186
					C88.085,246.268,83.298,249.961,80.628,255.268z"/>
				<path fill="#373736" d="M87.81,262.163c1.218-0.484,2.409-1.033,3.57-1.636c2.156-1.127,4.239-2.439,6.132-3.974
					c-0.399-1.068-0.798-2.135-1.197-3.204c-0.373-0.997-0.745-1.994-1.118-2.991c-4.005,4.277-8.826,7.976-11.509,13.308
					c0.144-0.288,1.66-0.593,1.992-0.71C86.392,262.699,87.105,262.446,87.81,262.163z"/>
				<path fill="#373736" d="M100.967,265.801c-0.735-1.968-1.47-3.934-2.205-5.901h-0.01c-4.026,4.325-8.912,8.045-11.619,13.425
					c0.144-0.288,1.661-0.593,1.991-0.714c0.712-0.254,1.426-0.511,2.131-0.789c1.218-0.483,2.408-1.033,3.569-1.639
					c2.206-1.15,4.336-2.498,6.264-4.079C101.05,266.003,101.008,265.902,100.967,265.801z"/>
			</g>
		</g>
		<g id="Main_Body">
			<g id="Tail">
				<path fill="#F2F2F2" d="M22.931,107.744c-1.884,11.491-0.1,22.636,11.047,30.805c2.498,1.832,5.177,3.365,7.908,4.817
					c4.203,2.23,8.093,2.309,8.488,7.599c0.103,1.424,2.154,10.725,1.187,11.5c-0.003,0-6.488,5.187-6.488,5.187
					c-2.512-2.133-5.02-4.274-7.534-6.405c-4.117-3.479-6.762-7.651-9.792-12.05c-4.031-5.85-8.344-11.609-10.015-18.65
					c-1.791-7.554-2.412-15.373-1.544-23.102c0.405-3.6,1.136-7.338,3.253-10.361c0.991-1.414,2.25-2.584,3.64-3.603
					c0.824-0.603,4.388-1.993,4.69-2.813C25.716,96.231,23.871,102.029,22.931,107.744z"/>
				<path fill="#373736" d="M20.889,107.476c1.235,0.148,2.491,0.056,3.664-0.405c3.026-1.193,4.402-4.325,5.225-7.253
					c1.222-4.337,1.002-9.486,5.235-12.235c1.757-1.138,3.88-1.835,5.884-2.412c1.139-0.326,2.299-0.575,3.465-0.809
					c-4.529-1.427-9.445,0.357-12.694,3.664c-0.8,0.817-1.811,2.44-2.82,2.896c-0.34-0.943,0.243-2.083,0.459-2.985
					c0.261-1.084,0.553-2.161,0.916-3.218c0.717-2.075,1.739-4.096,3.331-5.64c2.028-1.969,5.181-2.141,7.846-2.001
					c1.451,0.079,2.92,0.234,4.371,0.234c-0.666-0.306-1.211-0.786-1.859-1.112c-0.731-0.371-1.561-0.481-2.367-0.56
					c-3.541-0.339-7.75,0.56-10.492,2.934c-1.821,1.575-2.789,3.801-3.884,5.894c-0.511,0.981-0.998,1.976-1.598,2.909
					c-0.384,0.596-1.166,1.75-1.853,1.931c-0.395,0.106,0-1.692,0.079-1.845c0.353-0.704,0.971-1.232,1.406-1.877
					c0.433-0.642,0.831-1.308,1.139-2.017c0.539-1.239,0.807-2.628,0.508-3.966c-0.491-2.207-2.566-3.76-4.638-2.313
					c-1.283,0.895-2.141,2.361-2.975,3.651c1.215-0.71,2.91-1.873,4.406-1.465c1.369,0.374,1.41,1.852,0.923,2.954
					c-0.765,1.733-2.453,2.951-3.849,4.145c-1.564,1.338-2.964,2.769-3.915,4.618c-1.17,2.261-1.763,4.796-2.412,7.246
					c-1.883-1.3-1.876-4.096-2.027-6.137c-0.268,2.881-0.957,6.083-0.34,8.951c0.274,1.287,0.94,2.453,1.866,3.383
					c1.002,0.995,2.168,1.351,3.452,1.859c0.851,0.34,1.722,0.639,2.618,0.827C20.265,107.387,20.577,107.443,20.889,107.476z"/>
			</g>
			<path id="Body" fill="#F7F7F7" d="M33.81,175.943c0,40.45,44.124,73.239,98.559,73.239c54.434,0,98.559-32.789,98.559-73.239
				c0-40.443-44.125-73.231-98.559-73.231C77.934,102.712,33.81,135.5,33.81,175.943z"/>
			<g>
				<path fill="#373736" d="M136.933,107.339c0.187-0.327,1.909-2.834,3.007-4.415c-2.499-0.141-5.024-0.213-7.572-0.213
					c-0.337,0-0.671,0.007-1.007,0.009c-2.546,3.482-4.255,7.455-5.405,11.624c-0.635,2.293-1.086,4.659-1.331,7.026
					c-0.875,8.432,0.806,16.563,4.91,23.968c3.496,6.313,8.91,11.637,15.288,15.01c1.118,0.593,2.266,1.128,3.426,1.637
					c0.817,0.357,3.017,0.798,3.554,1.471c-4.091-5.105-8.956-9.812-12.339-15.442c-1.137-1.895-2.05-3.908-2.837-5.97
					c-0.839-2.199-1.56-4.449-2.113-6.739c-1.435-5.928-1.784-12.292-0.786-18.323C134.286,113.608,135.235,110.324,136.933,107.339
					z"/>
				<path fill="#373736" d="M87.529,113.501c0.161-0.282,1.46-2.178,2.519-3.71c-3.93,1.391-7.716,2.969-11.338,4.719
					c-0.875,1.93-1.59,3.938-2.159,6c-0.635,2.292-1.086,4.659-1.331,7.023c-0.875,8.432,0.806,16.563,4.91,23.971
					c3.496,6.309,8.91,11.637,15.288,15.01c1.118,0.59,2.266,1.128,3.426,1.633c0.817,0.357,3.017,0.803,3.554,1.472
					c-4.091-5.102-8.956-9.808-12.339-15.438c-1.137-1.898-2.05-3.908-2.837-5.97c-0.839-2.202-1.56-4.453-2.113-6.742
					c-1.435-5.928-1.784-12.293-0.786-18.323C84.882,119.774,85.831,116.486,87.529,113.501z"/>
				<path fill="#373736" d="M68.64,162.414c0.667,0.426,1.35,0.81,2.04,1.173c0.485,0.258,1.788,0.591,2.112,1.06
					c-2.476-3.572-5.4-6.882-7.466-10.807c-0.693-1.32-1.257-2.721-1.746-4.155c-0.523-1.527-0.976-3.091-1.331-4.676
					c-0.921-4.107-1.208-8.503-0.696-12.649c0.287-2.319,0.803-4.573,1.765-6.611c0.122-0.258,1.42-2.504,1.979-3.458
					c-2.759,1.905-5.371,3.925-7.821,6.051c-0.199,0.69-0.378,1.389-0.534,2.1c-0.345,1.574-0.58,3.2-0.695,4.831
					c-0.409,5.805,0.686,11.435,3.198,16.595C61.583,156.267,64.84,160.009,68.64,162.414z"/>
				<path fill="#373736" d="M113.309,108.438c0.191-0.355,1.911-3,3.068-4.761c-3.52,0.427-6.977,0.991-10.361,1.687
					c-1.952,3.335-3.345,6.999-4.326,10.821c-0.661,2.557-1.124,5.195-1.368,7.833c-0.873,9.409,0.97,18.498,5.38,26.793
					c3.758,7.068,9.55,13.051,16.35,16.86c1.194,0.669,2.417,1.276,3.652,1.849c0.87,0.401,3.213,0.913,3.788,1.667
					c-4.383-5.726-9.586-11.013-13.219-17.322c-1.221-2.124-2.204-4.378-3.055-6.684c-0.908-2.463-1.688-4.981-2.292-7.537
					c-1.564-6.629-1.98-13.737-0.961-20.465C110.538,115.419,111.523,111.758,113.309,108.438z"/>
				<path fill="#373736" d="M86.558,230.044c1.429-1.448,2.735-3.033,3.867-4.701c4.042-5.942,5.855-12.708,5.378-19.933
					c-0.408-6.154-2.791-12.364-6.738-17.511c-0.691-0.906-1.427-1.78-2.189-2.635c-0.535-0.603-2.182-1.842-2.361-2.563
					c1.375,5.496,3.544,11.02,4.126,16.619c0.197,1.887,0.158,3.767-0.002,5.63c-0.175,1.989-0.463,3.97-0.904,5.908
					c-1.149,5.023-3.366,9.922-6.565,14.016c-1.791,2.292-3.867,4.353-6.448,5.888c-0.291,0.171-2.822,1.393-4.344,2.116
					c2.197,1.322,4.468,2.579,6.814,3.759C80.806,235.08,83.887,232.768,86.558,230.044z"/>
				<path fill="#373736" d="M139.086,221.155c-0.408-6.155-2.787-12.369-6.738-17.515c-0.69-0.903-1.429-1.777-2.189-2.635
					c-0.534-0.601-2.179-1.839-2.359-2.564c1.374,5.5,3.544,11.024,4.126,16.623c0.197,1.888,0.158,3.765-0.002,5.63
					c-0.173,1.99-0.462,3.97-0.904,5.909c-1.149,5.019-3.364,9.918-6.563,14.014c-1.791,2.292-3.872,4.358-6.45,5.884
					c-0.221,0.132-1.734,0.867-3.116,1.531c3.695,0.491,7.463,0.824,11.289,1c1.302-0.989,2.522-2.077,3.666-3.242
					c1.423-1.455,2.732-3.036,3.865-4.7C137.755,235.146,139.565,228.376,139.086,221.155z"/>
				<path fill="#373736" d="M151.657,216.019c-0.302-0.395-1.242-1.181-1.33-1.665c0.643,3.689,1.758,7.366,1.923,11.154
					c0.053,1.269-0.032,2.546-0.194,3.822c-0.167,1.355-0.408,2.71-0.739,4.041c-0.852,3.448-2.345,6.848-4.402,9.737
					c-1.151,1.616-2.465,3.088-4.064,4.216c-0.184,0.131-1.841,1.101-2.763,1.634c2.755-0.159,5.477-0.405,8.164-0.729
					c0.598-0.565,1.173-1.16,1.721-1.787c0.904-1.033,1.741-2.154,2.475-3.321c2.622-4.172,3.932-8.827,3.887-13.72
					c-0.036-4.165-1.256-8.306-3.453-11.672C152.499,217.141,152.086,216.571,151.657,216.019z"/>
				<path fill="#373736" d="M107.352,238.665c1.553-1.636,2.973-3.417,4.213-5.29c4.426-6.669,6.481-14.221,6.098-22.236
					c-0.326-6.83-2.762-13.685-6.885-19.332c-0.725-0.991-1.498-1.949-2.293-2.889c-0.559-0.658-2.299-2.004-2.477-2.803
					c1.37,6.084,3.592,12.177,4.112,18.387c0.177,2.093,0.103,4.178-0.102,6.255c-0.221,2.212-0.564,4.416-1.07,6.577
					c-1.316,5.599-3.774,11.078-7.264,15.686c-1.952,2.577-4.209,4.906-6.992,6.653c-0.314,0.197-3.028,1.592-4.667,2.423
					c3.064,1.085,6.216,2.053,9.444,2.903C102.417,243.305,105.025,241.13,107.352,238.665z"/>
			</g>
		</g>
	</g>
	<g id="Back_Left_Leg_1_">
		<g id="Back_Left_Leg">
			<g id="Leg">
				<path fill="#F7F7F7" d="M34.386,191.721c0.237,2.559,0.549,5.108,0.947,7.644c1.112,7.077,2.68,14.08,3.901,21.141
					c0.724,4.196,1.386,8.402,1.942,12.623c1.222,9.324,1.873,18.739,1.853,28.143c-0.021,8.536,0.367,17.23-0.096,25.745
					c-0.137,2.498-0.309,4.989-0.535,7.483c-0.271,2.985-0.672,5.637,2.1,7.575c5.421,3.788,14.063,3.637,20.349,3.637
					c0.003,0,14.976,0,14.982,0c2.117,0,6.237-2.309,8.101-3.4c4.432-2.594,3.585-5.984,1.986-10.094
					c-2.241-5.757-4.645-11.452-6.958-17.182c-1.551-4.152-3.102-8.298-4.652-12.45c-2.377-6.362-4.755-12.722-7.133-19.083
					c-2.642-7.067-3.843-14.574-5.455-21.937c0,0-31.907-43.088-31.907-43.092c0.432,0.588,0.034,3.651,0.061,4.612
					c0.052,1.855,0.141,3.715,0.268,5.568C34.212,189.676,34.29,190.702,34.386,191.721z"/>
			</g>
			<path id="Hoof" fill="#373736" d="M86.339,281.908c0,0,8.416,22.046,8.434,22.095c-0.098-0.165-3.724,1.122-4.103,1.224
				c-5.288,1.437-10.903,1.328-16.343,1.622c-1.621,0.089-3.242,0.158-4.867,0.203c-1.969,0.055-3.937,0.079-5.906,0.061
				c-2.474-0.02-4.949-0.116-7.416-0.315c-3.997-0.322-7.93-0.758-11.676-2.227c-0.868-0.339-1.984-0.607-2.588-1.358
				c-1.22-1.513-1-3.849-0.81-5.64c0.292-2.759,0.914-5.473,1.338-8.214c0.102-0.638,5.069-0.281,5.587-0.274
				c5.623,0.055,11.343,0.154,16.919-0.638c2.846-0.406,5.694-1.054,8.31-2.248c2.052-0.933,4.016-2.041,6.006-3.094
				c0.947-0.501,1.894-1.003,2.837-1.513C83.513,280.811,85.465,279.624,86.339,281.908z"/>
		</g>
		<g>
			<path fill="#373736" d="M55.117,270.233c-0.753-0.066-1.508-0.134-2.266-0.178c-1.307-0.076-2.618-0.079-3.927-0.017
				c-1.946,0.088-3.9,0.307-5.816,0.692c0.026,2.053,0.047,4.108,0.05,6.161c4.863-1.785,9.949-3.202,14.065-6.462
				C56.972,270.628,55.467,270.268,55.117,270.233z"/>
			<path fill="#373736" d="M55.879,261.327c-0.753-0.069-1.508-0.138-2.264-0.178c-1.309-0.076-2.619-0.079-3.928-0.021
				c-2.23,0.105-4.473,0.374-6.656,0.877c0,2.092,0.021,4.191,0.047,6.296c5.113-1.945,10.553-3.331,14.908-6.781
				C57.733,261.721,56.229,261.357,55.879,261.327z"/>
			<path fill="#373736" d="M56.821,251.116c-0.754-0.068-1.509-0.137-2.266-0.178c-1.309-0.076-2.619-0.079-3.929-0.017
				c-2.621,0.12-5.258,0.469-7.795,1.161c0.092,2.133,0.154,4.267,0.179,6.401c5.4-2.163,11.275-3.497,15.916-7.175
				C58.673,251.511,57.171,251.151,56.821,251.116z"/>
			<path fill="#373736" d="M69.093,257.148c2.028-1.06,3.992-2.283,5.796-3.701c-0.765-2.047-1.53-4.094-2.295-6.141
				c-3.941,4.139-8.579,7.787-11.193,12.981c0.144-0.288,1.661-0.593,1.992-0.71c0.711-0.256,1.425-0.511,2.13-0.792
				C66.741,258.301,67.932,257.752,69.093,257.148z"/>
			<path fill="#373736" d="M68.584,267.187c1.218-0.484,2.409-1.033,3.57-1.64c2.051-1.069,4.037-2.31,5.857-3.748
				c-0.767-2.051-1.533-4.101-2.299-6.152c-3.953,4.164-8.623,7.824-11.25,13.043c0.144-0.288,1.661-0.593,1.992-0.714
				C67.165,267.722,67.878,267.465,68.584,267.187z"/>
			<path fill="#373736" d="M79.275,265.182c-3.978,4.215-8.715,7.891-11.367,13.161c0.144-0.288,1.66-0.593,1.992-0.709
				c0.712-0.258,1.426-0.512,2.13-0.793c1.218-0.484,2.409-1.033,3.57-1.637c2.099-1.097,4.127-2.369,5.981-3.852
				C80.812,269.296,80.044,267.239,79.275,265.182z"/>
		</g>
	</g>
	<g id="Head_Group">
		<path id="Head_shadow" fill="#A1A1A1" d="M147.116,125.277c0,45.112,29.105,81.685,65.006,81.685
			c35.902,0,65.013-36.573,65.013-81.685c0-45.116-29.111-81.689-65.013-81.689C176.222,43.588,147.116,80.16,147.116,125.277z"/>
		<g id="ears">
			<g id="Left_Ear">
				<path id="Ear_BG_1_" fill="#373736" d="M244.709,51.362c-2.029-2.354-1.882-8.252-2.736-11.243
					c-1.014-3.55-2.194-7.578-0.638-11.168c1.508-3.476,4.865-6.031,7.138-8.982c2.441-3.177,4.884-6.354,7.328-9.531
					c0.935,2.409,1.87,4.814,2.805,7.222c1.508,3.876,2.93,6.803,2.142,11.088c-1.106,6.028-4.338,11.829-6.395,17.586
					c-0.394,1.102-4.8,10.65-4.1,11.46L244.709,51.362z"/>
				
					<linearGradient id="Inner_Ear_2_" gradientUnits="userSpaceOnUse" x1="-480.1399" y1="97.8767" x2="-480.1399" y2="59.505" gradientTransform="matrix(-1 0 0 -1 -228.2784 114.84)">
					<stop  offset="0.1075" style="stop-color:#373736"/>
					<stop  offset="0.5269" style="stop-color:#949494"/>
					<stop  offset="1" style="stop-color:#000000"/>
				</linearGradient>
				<path id="Inner_Ear_1_" fill="url(#Inner_Ear_2_)" d="M249.095,55.335c-0.127-0.251,0.652-1.65,0.779-1.969
					c0.281-0.7,0.566-1.397,0.849-2.096c0.525-1.29,1.038-2.587,1.532-3.887c1.625-4.282,3.088-8.622,4.599-12.942
					c0.871-2.488,1.464-4.799,1.376-7.466c-0.089-2.67-0.638-5.293-1.18-7.898c-0.163-0.782-0.776-2.007-1.663-2.106
					c-1.111-0.127-1.966,1.348-2.695,1.969c-1.474,1.239-2.726,2.608-3.898,4.138c-1.208,1.581-3.354,3.482-3.309,5.637
					c0.054,2.607,1.645,4.824,2.458,7.222c0.829,2.449,1.108,4.994,1.333,7.555c0.252,2.906,0.595,6.024-0.345,8.848
					c-0.156,0.466-0.602,1.18-0.535,1.68C248.463,54.498,248.879,54.912,249.095,55.335z"/>
			</g>
			<g id="Right_Ear">
				<path id="Ear_BG" fill="#373736" d="M187.122,49.814c0.895-2.974-1.643-8.3-2.082-11.384c-0.52-3.653-1.084-7.815-3.966-10.457
					c-2.794-2.559-6.901-3.527-10.179-5.293c-3.524-1.908-7.049-3.811-10.575-5.716c0.127,2.58,0.254,5.156,0.381,7.736
					c0.204,4.155,0.098,7.408,2.562,10.999c3.465,5.054,8.781,9.033,13.005,13.452c0.81,0.847,8.723,7.771,8.414,8.797
					L187.122,49.814z"/>
				
					<linearGradient id="Inner_Ear_3_" gradientUnits="userSpaceOnUse" x1="1094.8696" y1="-227.2321" x2="1094.8696" y2="-265.6033" gradientTransform="matrix(0.9132 -0.4075 -0.4075 -0.9132 -925.8595 259.9662)">
					<stop  offset="0.1075" style="stop-color:#373736"/>
					<stop  offset="0.5269" style="stop-color:#949494"/>
					<stop  offset="1" style="stop-color:#000000"/>
				</linearGradient>
				<path id="Inner_Ear" fill="url(#Inner_Ear_3_)" d="M184.736,55.228c0.014-0.278-1.267-1.238-1.513-1.479
					c-0.542-0.525-1.088-1.046-1.63-1.568c-1.005-0.963-2.002-1.938-2.985-2.926c-3.227-3.249-6.332-6.615-9.473-9.947
					c-1.808-1.915-3.29-3.785-4.297-6.254c-1.007-2.473-1.575-5.095-2.141-7.695c-0.17-0.779-0.11-2.148,0.659-2.6
					c0.964-0.57,2.347,0.432,3.264,0.699c1.85,0.532,3.551,1.27,5.245,2.192c1.747,0.951,4.481,1.815,5.318,3.798
					c1.016,2.405,0.463,5.075,0.699,7.599c0.242,2.574,1.024,5.013,1.861,7.442c0.954,2.755,1.911,5.744,3.92,7.939
					c0.333,0.36,1.031,0.833,1.175,1.317C184.972,54.209,184.76,54.755,184.736,55.228z"/>
			</g>
		</g>
		<path id="Head" fill="#F7F7F7" d="M148.873,123.52c0,45.111,29.106,81.685,65.007,81.685c35.902,0,65.013-36.574,65.013-81.685
			c0-45.116-29.11-81.689-65.013-81.689C177.979,41.831,148.873,78.404,148.873,123.52z"/>
		<g>
			<path fill="#373736" d="M242.983,50.478c-3.551-2.238-7.287-4.075-11.173-5.474l2.838,30.157L242.983,50.478z"/>
			<path fill="#373736" d="M213.879,41.831c-2.167,0-4.307,0.14-6.419,0.4l5.8,28.525l6.36-28.59
				C217.727,41.958,215.815,41.831,213.879,41.831z"/>
			<path fill="#373736" d="M197.872,74.575l0.518-30.391c-3.938,1.21-7.732,2.875-11.352,4.941L197.872,74.575z"/>
		</g>
		<path id="Muzzle" fill="#373736" d="M168.248,170.004c0,19.471,20.724,35.259,46.279,35.259c25.563,0,46.281-15.788,46.281-35.259
			c0-19.474-20.717-35.259-46.281-35.259C188.973,134.745,168.248,150.53,168.248,170.004z"/>
		<g id="Eyes">
			<g id="Left_Eye">
				<path fill="#FFFFFF" stroke="#535353" stroke-width="0.25" stroke-miterlimit="10" d="M226.016,119.698
					c0,8.278,5.466,14.989,12.21,14.989c6.745,0,12.211-6.711,12.211-14.989c0-8.275-5.466-14.989-12.211-14.989
					C231.482,104.709,226.016,111.423,226.016,119.698z"/>
				<g id="Pupil_1_">
					<path id="Pupil_BG_1_" fill="#87BE80" d="M232.531,119.099c0,4.138,2.737,7.494,6.11,7.494c3.369,0,6.104-3.356,6.104-7.494
						c0-4.141-2.734-7.493-6.104-7.493C235.269,111.606,232.531,114.958,232.531,119.099z"/>
					<ellipse id="Small_Reflection_1_" fill="#F4FAFD" cx="238.669" cy="118.156" rx="1.043" ry="0.943"/>
					<path id="Big_Reflection_1_" fill="#F4FAFD" d="M239.108,115.939c0,0.878,0.782,1.582,1.746,1.582
						c0.971,0,1.754-0.705,1.754-1.582c0-0.874-0.783-1.578-1.754-1.578C239.89,114.361,239.108,115.065,239.108,115.939z"/>
				</g>
			</g>
			<g id="Right_Eye">
				<path id="Eye" fill="#FFFFFF" stroke="#535353" stroke-width="0.25" stroke-miterlimit="10" d="M175.699,119.698
					c0,8.278,5.469,14.989,12.217,14.989c6.738,0,12.21-6.711,12.21-14.989c0-8.275-5.472-14.989-12.21-14.989
					C181.168,104.709,175.699,111.423,175.699,119.698z"/>
				<g id="Pupil">
					<path id="Pupil_BG" fill="#87BE80" d="M182.221,119.099c0,4.138,2.731,7.494,6.107,7.494c3.373,0,6.103-3.356,6.103-7.494
						c0-4.141-2.731-7.493-6.103-7.493C184.952,111.606,182.221,114.958,182.221,119.099z"/>
					<path id="Small_Reflection" fill="#F4FAFD" d="M187.312,118.156c0,0.523,0.47,0.943,1.046,0.943
						c0.576,0,1.039-0.42,1.039-0.943s-0.463-0.943-1.039-0.943C187.782,117.212,187.312,117.633,187.312,118.156z"/>
					<path id="Big_Reflection" fill="#F4FAFD" d="M188.794,115.939c0,0.878,0.782,1.582,1.746,1.582
						c0.971,0,1.754-0.705,1.754-1.582c0-0.874-0.782-1.578-1.754-1.578C189.577,114.361,188.794,115.065,188.794,115.939z"/>
				</g>
			</g>
		</g>
		<g id="Nostrels">
			<g id="Right_Nostrel">
				<path fill="#FFFFFF" d="M205.64,163.657c-1.362-1.705-5.097-2.409-7.107-3.733c-2.4-1.578-3.194-3.883-2.923-6.089
					c0.234-1.88,1.939-4.683,4.683-5.219c3.534-0.699,4.52,1.191,5.149,3.205c0.647,2.072,0.897,3.98,0.578,6.048
					c-0.254,1.606-0.889,4.708,0.363,6.059"/>
				<path fill="#717171" d="M206.139,163.862c-1.362-1.728-5.097-2.439-7.107-3.784c-2.4-1.599-3.194-3.935-2.923-6.172
					c0.234-1.905,1.939-4.749,4.683-5.291c3.534-0.706,4.52,1.211,5.149,3.249c0.647,2.103,0.898,4.034,0.578,6.131
					c-0.254,1.627-0.888,4.773,0.364,6.142"/>
			</g>
			<g id="Left_Nostrel">
				<path fill="#FFFFFF" d="M223.416,163.657c1.362-1.705,5.096-2.409,7.107-3.733c2.4-1.578,3.194-3.883,2.923-6.089
					c-0.233-1.88-1.938-4.683-4.683-5.219c-3.534-0.699-4.52,1.191-5.15,3.205c-0.647,2.072-0.897,3.98-0.578,6.048
					c0.254,1.606,0.888,4.708-0.364,6.059"/>
				<path fill="#717171" d="M222.916,163.862c1.362-1.728,5.096-2.439,7.107-3.784c2.4-1.599,3.194-3.935,2.923-6.172
					c-0.233-1.905-1.939-4.749-4.683-5.291c-3.534-0.706-4.521,1.211-5.15,3.249c-0.647,2.103-0.897,4.034-0.578,6.131
					c0.254,1.627,0.889,4.773-0.364,6.142"/>
			</g>
		</g>
		<path id="Smile" fill="none" stroke="#FFFFFF" stroke-linecap="round" stroke-miterlimit="10" d="M181.967,174.732
			c1.551,5.359,3.558,11.445,7.725,15.374c3.474,3.28,8.162,4.422,12.767,5.05c5.312,0.724,10.52,1.183,15.828,0.092"/>
		<g id="Eyebrows">
			<path id="Left_Eyebrow" fill="none" stroke="#373736" stroke-width="0.75" stroke-linecap="round" stroke-miterlimit="10" d="
				M256.089,97.235c0.154-2.909-1.271-6.34-4.534-8.639c-0.834-0.59-1.925-1.239-3.054-1.644c-1.341-0.481-3.355-1.001-4.956-1.059
				c-1.925-0.073-4.048,0.164-5.734,0.709c-3.146,1.019-5.515,2.701-6.884,4.594"/>
			<path id="Right_Eyebrow" fill="none" stroke="#373736" stroke-width="0.75" stroke-linecap="round" stroke-miterlimit="10" d="
				M171.915,97.235c-0.154-2.909,1.271-6.34,4.534-8.639c0.834-0.59,1.925-1.239,3.053-1.644c1.341-0.481,3.356-1.001,4.956-1.059
				c1.925-0.073,4.048,0.164,5.735,0.709c3.146,1.019,5.515,2.701,6.884,4.594"/>
		</g>
	</g>
</g>
<path fill="none" stroke="#373736" stroke-width="0.75" stroke-linecap="round" stroke-miterlimit="10" d="M222.295,205.959
	c4.805-0.949,9.429-2.574,13.824-4.769c8.478-3.414,15.39-8.775,19.722-15.302c14.093-14.984,23.051-37.357,23.051-62.368
	c0-28.055-11.26-52.799-28.407-67.507c0.908-3.028,3.564-8.833,3.867-9.679c2.057-5.757,5.289-11.558,6.395-17.586
	c0.788-4.285-0.634-7.212-2.142-11.088c-0.935-2.408-1.87-4.813-2.805-7.222c-2.444,3.177-4.887,6.354-7.328,9.531
	c-2.273,2.951-5.63,5.506-7.138,8.982c-1.556,3.59-0.376,7.618,0.638,11.168c0.854,2.991,0.707,8.889,2.736,11.243l0.488,0.566
	c-1.59-1.101-3.225-2.108-4.893-3.042c-0.01-0.005-0.02-0.011-0.029-0.017c-0.903-0.505-1.817-0.983-2.741-1.437
	c-0.007-0.003-0.013-0.007-0.02-0.01c-4.603-2.259-9.457-3.881-14.501-4.773c0.668-2.132,2.176-4.25,3.219-5.966
	c2.914-4.796,6.302-9.356,10.275-13.329l6.102-4.008l-14.525-5.181l-5.412,7.685l-4.707,8.856c0,0,2.17-13.734,2.172-13.745
	c0.043-0.278-7.778,0.927-8.526,1.125c-4.122,1.105-7.678,3.297-11.107,5.767l0.969,11.027l-3.554-10.358V35.55l-4.175-8.186
	l-5.829,4.676l0.882,8.519l-3.944-3.428c-0.496-3.307-1.232-6.824-3.778-9.158c-2.794-2.559-6.901-3.527-10.179-5.293
	c-3.524-1.908-7.049-3.811-10.575-5.716c0.127,2.58,0.254,5.156,0.381,7.736c0.204,4.155,0.098,7.408,2.562,10.999
	c2.391,3.488,5.662,6.464,8.85,9.426l-2.091,1.617l3.795,6.347l-5.567-4.175l-4.074,4.175l5.345,4.705l-8.186-3.367l2.338,5.846
	l-4.176-2.48l-5.179,5.987l2.338,5.513l-4.51-3.509L147.47,76.98l3.388,3.843l-4.892-1.507l4.177,2.841h-5.68l-1.504,6.515
	l3.843,1.996l-5.68,1.678l-1.168,4.889l-3.508-4.388l-5.848,1.338l-0.835,4.508l-3.003-5.012l-5.68,0.837v5.513l-1.67-4.343v4.343
	l-3.843-4.343l-2.338,0.666v3.678l-2.338-2.797l-2.841,0.958v3.342l-3.674-1.338l-3.508,1.338l-1.336,3.174l-2.172-1.997
	l-3.34,1.997v3.753c-1.34,0.421-2.663,0.866-3.972,1.329c0,0,0,0,0-0.001c-0.008,0.003-0.016,0.006-0.024,0.009
	c-0.974,0.345-1.939,0.701-2.896,1.069c-0.001,0-0.002,0.001-0.003,0.001c-0.909,0.35-1.808,0.711-2.7,1.081
	c-0.101,0.042-0.203,0.084-0.304,0.126c-1.824,0.762-3.612,1.565-5.361,2.409c-0.017,0.008-0.034,0.016-0.051,0.024
	c0,0,0,0.001-0.001,0.001c-4.773,2.306-9.259,4.912-13.413,7.78c0,0,0,0,0-0.001c-0.008,0.006-0.016,0.012-0.024,0.017
	c-0.681,0.47-1.353,0.948-2.016,1.432c-0.001,0.001-0.001,0.001-0.002,0.002c-8.047,5.883-14.744,12.781-19.705,20.421
	c-0.544-0.239-1.101-0.498-1.664-0.797c-2.731-1.452-5.41-2.985-7.908-4.817c-11.147-8.169-12.931-19.314-11.047-30.805
	c0.015-0.094,0.036-0.188,0.052-0.282c0.533-0.072,1.06-0.191,1.57-0.391c3.026-1.193,4.402-4.325,5.225-7.253
	c1.222-4.337,1.002-9.486,5.235-12.235c1.757-1.138,3.88-1.835,5.884-2.412c1.139-0.326,2.299-0.575,3.465-0.809
	c-4.529-1.427-9.445,0.357-12.694,3.664c-0.8,0.817-1.811,2.44-2.82,2.896c-0.34-0.943,0.243-2.083,0.459-2.985
	c0.261-1.084,0.553-2.161,0.916-3.218c0.717-2.075,1.739-4.096,3.331-5.64c2.028-1.969,5.181-2.141,7.846-2.001
	c1.451,0.079,2.92,0.234,4.371,0.234c-0.666-0.306-1.211-0.786-1.859-1.112c-0.731-0.371-1.561-0.481-2.367-0.56
	c-3.541-0.339-7.75,0.56-10.492,2.934c-1.821,1.575-2.789,3.801-3.884,5.894c-0.511,0.981-0.998,1.976-1.598,2.909
	c-0.384,0.596-1.166,1.75-1.853,1.931c-0.395,0.106,0-1.692,0.079-1.845c0.353-0.704,0.971-1.232,1.406-1.877
	c0.433-0.642,0.831-1.308,1.139-2.017c0.539-1.239,0.807-2.628,0.508-3.966c-0.491-2.207-2.566-3.76-4.638-2.313
	c-1.283,0.895-2.141,2.361-2.975,3.651c1.215-0.71,2.91-1.873,4.406-1.465c1.369,0.374,1.41,1.852,0.923,2.954
	c-0.765,1.733-2.453,2.951-3.849,4.145c-1.564,1.338-2.964,2.769-3.915,4.618c-1.17,2.261-1.763,4.796-2.412,7.246
	c-1.883-1.3-1.876-4.096-2.027-6.137c-0.268,2.881-0.957,6.083-0.34,8.951c0.274,1.287,0.94,2.453,1.866,3.383
	c0.739,0.734,1.567,1.119,2.466,1.475c-0.062,0.446-0.117,0.891-0.167,1.334c-0.868,7.729-0.247,15.548,1.544,23.102
	c1.671,7.041,5.984,12.8,10.015,18.65c2.677,3.886,5.057,7.593,8.412,10.803c-1.534,5.133-2.349,10.467-2.349,15.943
	c0,0.879,0.028,1.753,0.07,2.624c-0.042-0.057-0.069-0.093-0.069-0.093c0.027,0.036,0.05,0.082,0.071,0.137
	c0.03,0.613,0.069,1.224,0.119,1.833c-0.037,1.016-0.143,2.129-0.129,2.642c0.052,1.855,0.141,3.715,0.268,5.568
	c0.072,1.022,0.15,2.048,0.246,3.067c0.237,2.559,0.549,5.108,0.947,7.644c1.112,7.077,2.68,14.08,3.901,21.141
	c0.724,4.196,1.386,8.402,1.942,12.623c0.824,6.287,1.381,12.615,1.655,18.953c0,0,0,0,0,0c0.092,2.133,0.154,4.267,0.179,6.401
	c0,0,0,0,0,0c0.011,0.93,0.021,1.859,0.019,2.789c-0.001,0.244,0.002,0.489,0.002,0.733l0,0c0,0.001,0,0.001,0,0.002
	c0,2.895,0.041,5.807,0.078,8.723c0,0-0.001,0-0.001,0c0.026,2.053,0.047,4.108,0.05,6.161c0,0,0.001,0,0.001,0
	c0.005,3.389-0.044,6.772-0.226,10.126c-0.039,0.703-0.087,1.405-0.132,2.108c-0.23,0.057-0.383,0.132-0.399,0.234
	c-0.424,2.741-1.046,5.455-1.338,8.214c-0.19,1.791-0.41,4.127,0.81,5.64c0.604,0.751,1.72,1.019,2.588,1.358
	c3.746,1.469,7.679,1.905,11.676,2.227c2.467,0.199,4.942,0.295,7.416,0.315c1.969,0.018,3.937-0.006,5.906-0.061
	c1.625-0.045,3.246-0.114,4.867-0.203c5.44-0.294,11.055-0.185,16.343-1.622c0.379-0.102,4.005-1.389,4.103-1.224
	c-0.006-0.017-1.07-2.804-2.438-6.388c0,0,0.001,0,0.001,0c5.44-0.296,11.055-0.187,16.343-1.624
	c0.38-0.102,4.006-1.389,4.104-1.224c-0.018-0.047-8.434-22.095-8.434-22.095c-0.273-0.714-0.651-1.088-1.086-1.243
	c-0.769-1.875-1.537-3.75-2.295-5.628c-1.551-4.151-3.102-8.3-4.652-12.451c-1.301-3.48-2.602-6.96-3.903-10.44
	c0.726,0.24,1.457,0.473,2.192,0.7c0.065,0.02,0.131,0.04,0.196,0.06c1.506,0.462,3.031,0.896,4.573,1.303
	c0.032,0.008,0.063,0.019,0.095,0.027c0.001,0,0.002-0.001,0.003-0.002c10.289,2.707,21.36,4.185,32.898,4.185
	c4.001,0,7.945-0.182,11.822-0.526c0.003,0,0.005,0,0.008-0.001c1.612-0.143,3.213-0.316,4.8-0.516
	c0.321,3.534,0.556,7.076,0.699,10.622c0,0,0,0-0.001,0c0.086,2.121,0.139,4.244,0.158,6.368c0,0,0,0,0.001,0
	c0.007,0.756,0.016,1.512,0.014,2.267c-0.001,0.429,0.003,0.861,0.004,1.291c0,0,0,0-0.001,0c0,0.036,0.001,0.073,0.001,0.109
	c0.005,2.018,0.025,4.042,0.051,6.07c0,0.027,0,0.055,0.001,0.082c0,0,0,0,0,0c0.011,0.846,0.021,1.692,0.032,2.539
	c0.025,2.019,0.046,4.04,0.045,6.058c0,0,0.001,0,0.001,0c-0.001,3.211-0.055,6.415-0.23,9.595c-0.034,0.642-0.08,1.283-0.12,1.925
	c-0.411,2.651-0.988,5.279-1.263,7.947c-0.185,1.792-0.399,4.128,0.791,5.641c0.59,0.751,1.681,1.019,2.528,1.358
	c3.659,1.469,7.501,1.905,11.406,2.227c2.41,0.199,4.829,0.296,7.246,0.316c1.923,0.017,3.846-0.006,5.769-0.061
	c1.586-0.045,3.172-0.114,4.755-0.203c5.315-0.295,10.799-0.185,15.966-1.622c0.37-0.103,3.913-1.389,4.009-1.225
	c-0.008-0.021-1.581-4.236-3.35-8.978c-0.211-0.685-0.47-1.393-0.754-2.124c-0.063-0.161-0.128-0.321-0.191-0.481
	c0.247,0.004,0.494,0.016,0.742,0.018c1.969,0.017,3.937-0.007,5.906-0.062c1.625-0.045,3.246-0.113,4.867-0.202
	c5.44-0.296,11.054-0.187,16.343-1.624c0.379-0.102,4.005-1.389,4.103-1.224c-0.018-0.047-8.434-22.095-8.434-22.095
	c-0.272-0.713-0.65-1.088-1.085-1.242c-0.769-1.875-1.538-3.75-2.296-5.629c-1.551-4.151-3.101-8.3-4.652-12.451
	c-2.377-6.36-4.755-12.722-7.133-19.082c-0.864-2.311-1.564-4.671-2.185-7.055C210.835,221.08,217.49,213.897,222.295,205.959z
	 M176.518,241.436c0.069,1.39,0.122,2.78,0.163,4.171c-0.382-1.271-0.74-2.55-1.064-3.839
	C175.918,241.659,176.218,241.548,176.518,241.436z"/>
</svg>
