<?xml version="1.0" encoding="utf-8"?>
<!-- Generator: Adobe Illustrator 17.0.0, SVG Export Plug-In . SVG Version: 6.00 Build 0)  -->
<!DOCTYPE svg PUBLIC "-//W3C//DTD SVG 1.1 Basic//EN" "http://www.w3.org/Graphics/SVG/1.1/DTD/svg11-basic.dtd">
<svg version="1.1" baseProfile="basic" id="Слой_1"
	 xmlns="http://www.w3.org/2000/svg" xmlns:xlink="http://www.w3.org/1999/xlink" x="0px" y="0px" width="138.091px"
	 height="171.499px" viewBox="0 0 138.091 171.499" xml:space="preserve">
<path fill="#D36234" d="M118.468,171.499c12.093-14.832,19.623-35.509,19.623-58.418c0-28.054-11.26-52.798-28.405-67.506
	c0.908-3.028,3.564-8.834,3.866-9.679c2.057-5.757,5.289-11.558,6.395-17.586c0.788-4.285-0.635-7.212-2.142-11.088
	C116.87,4.813,115.935,2.408,115,0c-2.444,3.177-4.887,6.354-7.328,9.531c-2.273,2.951-5.63,5.506-7.138,8.982
	c-1.556,3.59-0.376,7.617,0.638,11.168c0.386,1.353,0.569,3.301,0.84,5.247l-11.031-0.666l0.029,0.305
	c-2.858-1.029-5.794-1.823-8.799-2.354c0.668-2.133,2.175-4.251,3.219-5.966c2.914-4.796,6.302-9.356,10.275-13.329l6.102-4.008
	L87.282,3.729l-5.412,7.685l-4.707,8.856c0,0,2.17-13.735,2.172-13.745c0.043-0.278-7.778,0.927-8.526,1.125
	c-4.122,1.105-7.678,3.297-11.107,5.767l0.969,11.027c0,0-3.052-10.862-3.554-10.358s0,11.027,0,11.027l-4.175-8.186l-5.829,4.676
	l0.882,8.519l-3.943-3.428c-0.496-3.307-1.233-6.826-3.779-9.161c-2.794-2.559-6.901-3.527-10.179-5.293
	c-3.524-1.908-7.049-3.811-10.575-5.716c0.127,2.58,0.254,5.156,0.381,7.736c0.204,4.155,0.098,7.408,2.562,10.999
	c2.392,3.488,5.663,6.464,8.85,9.426l-2.091,1.617l3.795,6.347l-5.567-4.175l-4.074,4.175l5.345,4.705c0,0-7.442-3.727-8.186-3.367
	c-0.743,0.36,2.338,5.846,2.338,5.846l-4.176-2.48l-5.179,5.987l2.338,5.513l-4.51-3.509L6.669,66.541l3.388,3.843
	c0,0-4.531-2.314-4.892-1.507c-0.362,0.807,4.177,2.841,4.177,2.841h-5.68l-1.504,6.516l3.843,1.996l-5.68,1.678L0,83.25
	c7.85,2.351,15.856,7.932,20.647,12.723C49.955,127.658,82.565,152.195,118.468,171.499z"/>
</svg>
