<?xml version="1.0" encoding="utf-8"?>
<!-- Generator: Adobe Illustrator 17.0.0, SVG Export Plug-In . SVG Version: 6.00 Build 0)  -->
<!DOCTYPE svg PUBLIC "-//W3C//DTD SVG 1.1 Basic//EN" "http://www.w3.org/Graphics/SVG/1.1/DTD/svg11-basic.dtd">
<svg version="1.1" baseProfile="basic" id="Слой_1"
	 xmlns="http://www.w3.org/2000/svg" xmlns:xlink="http://www.w3.org/1999/xlink" x="0px" y="0px" width="247.495px"
	 height="236.991px" viewBox="0 0 247.495 236.991" xml:space="preserve">
<path fill="#3FA556" d="M149.671,30.838c-4.791-4.791-12.797-10.372-20.647-12.723l-0.848,3.547l-3.508-4.388l-5.848,1.338
	l-0.835,4.508l-3.003-5.012l-5.68,0.837v5.513c0,0-1.176-4.549-1.67-4.343c-0.494,0.206,0,4.343,0,4.343l-3.843-4.343l-2.338,0.666
	v3.204c-0.278-0.173-0.558-0.343-0.832-0.521l-1.506-1.801l-2.841,0.958v3.342l-3.674-1.338l-3.508,1.338l-1.336,3.174l-2.172-1.997
	l-3.34,1.997v3.754c-1.341,0.421-26.132,12.227-28.734,13.852c-2.602,1.625-5.04,3.541-7.808,6.052
	c-2.767,2.511-10.209,10.073-13.925,15.796c-0.544-0.239-1.101-0.498-1.664-0.797c-2.731-1.452-5.41-2.985-7.908-4.817
	C11.056,54.808,9.272,43.663,11.156,32.172c0.015-0.094,0.036-0.188,0.052-0.281c0.533-0.072,1.061-0.191,1.571-0.391
	c3.026-1.193,4.402-4.325,5.225-7.253c1.222-4.337,1.002-9.486,5.235-12.235c1.757-1.138,3.88-1.835,5.884-2.412
	c1.139-0.326,2.299-0.575,3.465-0.809c-4.529-1.427-9.445,0.357-12.694,3.664c-0.8,0.817-1.811,2.44-2.82,2.896
	c-0.34-0.943,0.243-2.083,0.459-2.985c0.261-1.084,0.553-2.161,0.916-3.218c0.717-2.075,1.739-4.096,3.331-5.64
	c2.028-1.969,5.181-2.141,7.846-2.001c1.451,0.079,2.92,0.234,4.371,0.234c-0.666-0.306-1.211-0.786-1.859-1.112
	c-0.731-0.371-1.561-0.481-2.367-0.56c-3.541-0.339-7.75,0.56-10.492,2.934c-1.821,1.575-2.789,3.801-3.884,5.894
	c-0.511,0.981-0.998,1.976-1.598,2.909c-0.384,0.596-1.166,1.75-1.853,1.931c-0.395,0.106,0-1.692,0.079-1.845
	c0.353-0.704,0.971-1.232,1.406-1.877c0.433-0.642,0.831-1.308,1.139-2.017c0.539-1.239,0.807-2.628,0.508-3.966
	c-0.49-2.207-2.566-3.76-4.638-2.313C9.155,2.614,8.297,4.08,7.463,5.37c1.215-0.71,2.91-1.873,4.406-1.465
	c1.369,0.374,1.41,1.852,0.923,2.954c-0.765,1.733-2.453,2.951-3.849,4.145c-1.564,1.338-2.964,2.769-3.915,4.618
	c-1.17,2.261-1.763,4.796-2.412,7.246c-1.884-1.3-1.876-4.096-2.027-6.137c-0.268,2.881-0.957,6.083-0.34,8.951
	c0.274,1.287,0.94,2.453,1.866,3.383c0.738,0.733,1.567,1.119,2.466,1.474c-0.062,0.446-0.117,0.892-0.167,1.336
	c-0.868,7.73-0.247,15.549,1.544,23.102c1.671,7.041,5.984,12.8,10.015,18.65c2.68,3.892,5.064,7.603,8.428,10.817
	c-1.186,3.971-1.947,8.059-2.233,12.242c15.838-2.077,33.963,5.491,40.724,17.509c13.702,22.837,27.404,38.823,49.099,54.809
	c1.551,1.163,3.231,2.597,4.777,4.287c1.999,0.2,3.406,0.319,3.826,0.319c2.616,0,14.422,0.418,15.881-0.959
	c0.245-0.03,0.487-0.066,0.732-0.097c0.322,3.54,0.559,7.087,0.702,10.639c-0.244,0.064-0.019,6.446,0.151,6.378
	c0.007,0.751,0.036,1.502,0.034,2.254c-0.001,0.43,0.078,22.566-0.096,25.745c-0.035,0.644-0.08,1.287-0.12,1.93
	c-0.411,2.65-0.988,5.277-1.263,7.944c-0.186,1.792-0.4,4.128,0.791,5.641c0.59,0.752,1.681,1.019,2.528,1.358
	c3.659,1.468,7.502,1.905,11.406,2.227c2.41,0.198,4.829,0.296,7.246,0.316c1.923,0.017,3.846-0.007,5.769-0.061
	c1.587-0.045,3.172-0.114,4.755-0.203c5.315-0.296,10.799-0.185,15.966-1.622c0.37-0.104,3.672-0.417,4.009-1.225
	c0.336-0.809-1.586-4.25-3.358-9.002c-0.21-0.678-0.465-1.377-0.747-2.1c-0.063-0.161-0.13-0.32-0.193-0.481
	c0.249,0.004,0.497,0.016,0.746,0.018c1.969,0.017,3.937-0.008,5.906-0.062c1.625-0.045,3.246-0.113,4.867-0.202
	c5.44-0.296,11.054-0.186,16.343-1.624c0.379-0.103,3.672-0.32,4.103-1.224s-8.434-22.095-8.434-22.095
	c-0.272-0.711-0.648-1.085-1.08-1.24c-0.77-1.876-1.542-3.751-2.301-5.631c-0.827-2.214-1.654-4.428-2.482-6.642
	c0.169-0.141-2.264-6.06-2.264-6.06c-0.436-1.165-3.609-9.654-3.609-9.654c-0.273-0.731-3.334-8.919-3.43-9.177
	c-0.865-2.314-1.566-4.678-2.187-7.065c8.084-6.128,14.718-13.307,19.521-21.235c4.816-0.948,9.45-2.575,13.855-4.775
	c8.482-3.415,15.396-8.777,19.729-15.306c1.184-1.259,2.316-2.588,3.425-3.947C211.59,87.06,178.98,62.523,149.671,30.838z"/>
</svg>
