<?xml version="1.0" encoding="utf-8"?>
<!-- Generator: Adobe Illustrator 17.0.0, SVG Export Plug-In . SVG Version: 6.00 Build 0)  -->
<!DOCTYPE svg PUBLIC "-//W3C//DTD SVG 1.1 Basic//EN" "http://www.w3.org/Graphics/SVG/1.1/DTD/svg11-basic.dtd">
<svg version="1.1" baseProfile="basic" id="Слой_1"
	 xmlns="http://www.w3.org/2000/svg" xmlns:xlink="http://www.w3.org/1999/xlink" x="0px" y="0px" width="164.792px"
	 height="130.64px" viewBox="0 0 164.792 130.64" xml:space="preserve">
<path fill="#3FA556" d="M80.755,0c-0.452,5.738-1,10.718-1.376,14.673c-0.08,0.837-0.154,1.643-0.214,2.387c0,0,0,0.001,0,0.001
	c-0.001-0.008-0.002-0.013-0.006,0.044c0.001,0.001,0.001,0.003,0.002,0.004v0c1.274,2.883,2.917,5.664,4.835,8.323
	c-2.041-0.265-4.235-0.845-6.523-1.617c0,0,0,0,0,0c-0.738-0.249-1.485-0.518-2.24-0.802c-0.007-0.003-0.014-0.005-0.021-0.008
	c-0.755-0.284-1.517-0.583-2.285-0.893c0,0.001,0,0.001,0,0.002c-1.843-0.744-3.718-1.55-5.596-2.36v0
	c-0.023-0.01-0.045-0.019-0.068-0.029c-0.697-0.3-1.395-0.601-2.091-0.898c-0.118-0.051-0.236-0.101-0.355-0.151
	c-0.689-0.294-1.378-0.584-2.063-0.869c-0.077-0.032-0.154-0.064-0.23-0.096c-0.731-0.302-1.458-0.595-2.182-0.878
	c-0.065-0.026-0.131-0.051-0.196-0.076c-4.665-1.817-9.122-3.156-12.919-3.053c0-0.001,0-0.001,0-0.002
	c-0.015,0-0.03,0.003-0.045,0.003c-1.224,0.037-2.379,0.226-3.45,0.598c-0.003,0.001-0.007,0.002-0.01,0.004
	c-0.72,0.251-1.402,0.586-2.04,1.014c-0.002,0.002-0.005,0.003-0.007,0.005c-0.318,0.214-0.626,0.45-0.922,0.712
	c-0.004,0.003-0.008,0.007-0.012,0.011c-0.577,0.511-1.111,1.117-1.598,1.823c-0.014,0.021-0.031,0.037-0.045,0.058
	c0.001,0.001,0.002,0.002,0.003,0.004c-0.373,0.548-0.721,1.15-1.036,1.824c-1.914,4.097-3.892,7.836-5.894,11.258
	c-0.001-0.001-0.002-0.002-0.002-0.003c-1.594,2.724-3.198,5.243-4.805,7.577c0.001,0.001,0.003,0.002,0.004,0.002
	c-1.5,2.185-2.995,4.204-4.469,6.078c0,0-0.001,0-0.001-0.001c-1.472,1.87-2.921,3.596-4.334,5.18c0.001,0,0.001,0,0.002,0.001
	c-2.137,2.4-4.186,4.491-6.094,6.325c-0.001,0-0.002-0.001-0.003-0.001c-1.246,1.196-2.424,2.282-3.534,3.271
	c0.001,0,0.001,0.001,0.002,0.001c-4.902,4.377-8.307,6.864-8.858,8.615c-0.001,0.003-0.001,0.006-0.002,0.009
	c-0.035,0.114-0.058,0.224-0.068,0.332c-0.001,0.008-0.001,0.015-0.001,0.022c-0.009,0.103-0.005,0.204,0.009,0.302
	c0.001,0.009,0.003,0.018,0.005,0.028c0.017,0.097,0.045,0.192,0.086,0.285c0.004,0.008,0.007,0.016,0.011,0.025
	c0.043,0.094,0.099,0.187,0.167,0.277c0.004,0.006,0.008,0.011,0.012,0.017c0.073,0.094,0.16,0.187,0.261,0.279
	c0.001,0.001,0.002,0.002,0.003,0.003c0.942,0.845,3.12,1.567,6.835,2.422c0.01,0.002,0.02,0.005,0.029,0.007
	c0.4,0.092,0.818,0.186,1.254,0.281c0.02,0.004,0.04,0.009,0.06,0.013c0.431,0.094,0.88,0.191,1.347,0.289
	c0.023,0.005,0.046,0.01,0.07,0.015c0.475,0.1,0.968,0.202,1.48,0.307c0.013,0.003,0.025,0.005,0.038,0.008
	c2.127,0.434,4.568,0.912,7.373,1.458c0.072,0.014,0.155-0.01,0.245-0.053c0.012-0.006,0.024-0.01,0.036-0.016
	c0.09-0.05,0.189-0.129,0.296-0.231c0.013-0.012,0.026-0.026,0.039-0.039c0.35-0.349,0.782-0.959,1.285-1.784
	c0.012-0.019,0.023-0.038,0.035-0.057c0.163-0.27,0.334-0.56,0.512-0.873c0.016-0.028,0.033-0.058,0.049-0.087
	c0.181-0.319,0.367-0.655,0.561-1.014c0,0,0-0.001,0.001-0.001c0.191-0.352,0.389-0.726,0.592-1.114
	c0.015-0.029,0.029-0.055,0.045-0.084c0,0,0,0,0,0c1.904-3.643,4.329-8.75,6.967-14.067c0.693-1.393,1.397-2.797,2.11-4.195
	c1.147-2.245,2.317-4.467,3.488-6.575c0.107-0.193,0.215-0.385,0.322-0.576c0.152-0.271,0.304-0.541,0.457-0.808
	c0.181-0.316,0.361-0.63,0.541-0.94c0.08-0.137,0.159-0.273,0.239-0.409c0.233-0.397,0.466-0.79,0.698-1.174
	c0.005-0.008,0.01-0.016,0.014-0.024c0.268-0.442,0.535-0.874,0.801-1.297c2.313-3.675,4.547-6.559,6.515-7.892
	c0.02-0.013,0.039-0.024,0.059-0.037c0.135-0.089,0.268-0.174,0.4-0.248c0.06-0.034,0.119-0.06,0.179-0.09
	c0.091-0.047,0.183-0.097,0.273-0.137c0.086-0.038,0.17-0.065,0.255-0.095c0.062-0.023,0.126-0.051,0.188-0.069
	c0.104-0.032,0.206-0.051,0.308-0.072c0.041-0.008,0.083-0.022,0.124-0.028c0.112-0.017,0.221-0.022,0.33-0.025
	c0.03-0.001,0.061-0.007,0.091-0.007c0.116,0.001,0.23,0.015,0.343,0.033c0.022,0.003,0.044,0.002,0.065,0.006
	c0.134,0.025,0.265,0.062,0.394,0.112c4.485,1.734,9.565,3.771,14.868,5.799c0.073,0.028,0.143,0.055,0.215,0.083c0,0,0,0,0-0.001
	c4.67,1.783,9.505,3.551,14.271,5.099c0.018,0.006,0.036,0.012,0.054,0.018c0,0,0,0,0,0c4.995,1.621,9.907,2.998,14.45,3.878
	c4.214,0.815,8.159,0.761,11.705,0.103c0.898,2.481,2.275,5.335,4.203,8.565c-0.001,0.003-0.002,0.006-0.003,0.008c0,0,0,0,0.001,0
	c0,0.001,0,0.001-0.001,0.002c0.003-0.001,0.006,0,0.008-0.001c0.341,0.57,0.701,1.154,1.078,1.748c-0.002,0-0.004,0-0.006,0
	c0,0,0,0,0,0c-0.001,0-0.003,0-0.004,0c0.221,0.346,0.438,0.69,0.667,1.045c0.349,0.532,0.63,1.087,0.865,1.659
	c0.018,0.045,0.042,0.088,0.059,0.133c0.099,0.251,0.181,0.508,0.26,0.766c0.019,0.062,0.043,0.122,0.061,0.184
	c0.077,0.267,0.14,0.54,0.198,0.814c0.011,0.054,0.027,0.107,0.037,0.161c0.059,0.299,0.106,0.601,0.145,0.907
	c0.004,0.029,0.009,0.057,0.013,0.085c0.123,1.008,0.144,2.054,0.095,3.128c0.001,0,0.002,0,0.002,0.001
	c-0.108,2.402-0.559,4.939-0.999,7.502c-0.001,0-0.003,0-0.004,0c-0.148,0.856-0.286,1.714-0.415,2.571
	c-0.05,0.333-0.099,0.666-0.144,0.999c-0.015,0.115-0.035,0.231-0.05,0.346c0.001,0,0.002,0,0.002,0c0,0.001,0,0.001,0,0.002
	c0.001,0,0.002,0,0.004,0.001c-0.181,1.409-0.304,2.808-0.302,4.176c0,0.114,0.008,0.227,0.01,0.34c-0.002,0-0.003,0-0.005,0
	c0,0.001,0,0.001,0,0.002c0,0,0,0,0,0c0.001,0.082,0.01,0.163,0.012,0.245c0.008,0.287,0.021,0.573,0.042,0.857
	c0.01,0.141,0.023,0.281,0.037,0.42c0.025,0.267,0.057,0.533,0.095,0.797c0.011,0.073,0.015,0.148,0.026,0.221
	c0.001,0.007,0.001,0.014,0.002,0.02c0.01,0.062,0.027,0.123,0.038,0.185c0.045,0.263,0.1,0.524,0.16,0.784
	c0.021,0.091,0.033,0.185,0.056,0.275c0.011,0.043,0.027,0.084,0.038,0.127c0.072,0.278,0.158,0.553,0.249,0.826
	c0.029,0.086,0.048,0.175,0.079,0.26c0.008,0.023,0.02,0.044,0.028,0.067c0.129,0.356,0.275,0.708,0.439,1.054
	c0.009,0.019,0.015,0.039,0.024,0.057c0.001,0.003,0.003,0.005,0.004,0.008c0.182,0.379,0.387,0.752,0.614,1.119
	c0.027,0.043,0.06,0.085,0.088,0.128c0.198,0.31,0.411,0.616,0.645,0.917c0.076,0.098,0.163,0.193,0.243,0.289
	c0.2,0.241,0.407,0.481,0.633,0.715c0.04,0.042,0.071,0.086,0.112,0.127c0.005-0.001,0.01-0.002,0.014-0.002
	c0.499,0.505,1.044,0.997,1.672,1.466c0.111,0.082,0.202,0.196,0.288,0.32c0.051,0.076,0.093,0.167,0.136,0.257
	c0.031,0.066,0.064,0.131,0.091,0.205c0.039,0.109,0.072,0.23,0.101,0.356c0.017,0.072,0.033,0.145,0.046,0.222
	c0.026,0.145,0.047,0.298,0.061,0.461c0.006,0.068,0.01,0.139,0.014,0.209c0.011,0.187,0.019,0.378,0.017,0.584
	c0,0.044-0.003,0.09-0.004,0.135c-0.02,1.004-0.177,2.219-0.438,3.576c-0.429,2.215-1.132,4.8-1.977,7.47c0,0,0,0,0,0c0,0,0,0,0,0
	l-0.002,0c-0.742,2.332-1.578,4.726-2.432,6.976c0.002,0.001,0.004,0.001,0.005,0.002c-2.03,5.389-5.111,11.144-5.112,11.144
	c0.002,0.006,0.022,4.607,1.809,5.843c0.204,0.141,0.415,0.266,0.629,0.382c0.004,0.002,0.008,0.005,0.012,0.008
	c0,0,0.001,0,0.001-0.001c2.504,1.359,5.676,1.131,8.336,0.001c3.277-1.391,5.774-4.146,5.274-6.972
	c-0.398-2.262,0.241-27.577,0.665-34.38c0.613-9.933,2.658-25.42,1.785-36.267c0.422,0.131,0.858,0.239,1.283,0.365
	c0.002,0.009,0.004,0.018,0.006,0.027c0.682,0.202,1.384,0.374,2.074,0.565c0.059,0.016,0.117,0.034,0.176,0.05
	c0.008,0.006,0.016,0.012,0.023,0.018c0.009,0.007,0.018,0.013,0.026,0.021c0,0,0,0,0,0c0.003,0.002,0.005,0.004,0.008,0.006
	c0.12,0.033,0.244,0.059,0.364,0.092c0.244,0.067,0.492,0.128,0.738,0.194c0.285,0.075,0.569,0.151,0.855,0.224
	c0.268,0.069,0.532,0.143,0.801,0.21c-0.002-0.007-0.003-0.014-0.005-0.022c0.128,0.032,0.258,0.06,0.386,0.091
	c0.737,0.181,1.467,0.373,2.21,0.541c0,0.003,0,0.006,0,0.008c0.001,0,0.001,0,0.002,0c0,0,0,0.001,0,0.002
	c0.366,0.082,0.737,0.154,1.104,0.234c0.294,0.064,0.589,0.125,0.884,0.187c0.443,0.092,0.882,0.192,1.326,0.281
	c0-0.007,0-0.014,0-0.021c0.839,0.167,1.679,0.331,2.525,0.483c0.841,0.151,1.686,0.29,2.533,0.427
	c0.918,0.148,1.837,0.29,2.761,0.42c0.867,0.122,1.736,0.235,2.607,0.342c0.915,0.112,1.831,0.218,2.749,0.314
	c0.085,0.009,0.17,0.02,0.255,0.029c0.001,0.005,0.002,0.01,0.002,0.015c0.222,0.022,0.446,0.04,0.669,0.061
	c0.335,0.033,0.671,0.061,1.006,0.092c0.539,0.049,1.076,0.103,1.618,0.148c0,0,0,0,0,0c0.001,0,0.001,0,0.002,0
	c0-0.002,0-0.004-0.001-0.006c0.615,0.05,1.232,0.086,1.848,0.129c0.89,0.062,1.779,0.119,2.669,0.167
	c0.921,0.049,1.841,0.088,2.763,0.122c0.65,0.024,1.298,0.041,1.947,0.059c0.368-11.504,1.198-22.956,2.68-34.304
	C135.994,18.018,107.691,10.787,80.755,0z"/>
</svg>
