<?xml version="1.0" encoding="utf-8"?>
<!-- Generator: Adobe Illustrator 17.0.0, SVG Export Plug-In . SVG Version: 6.00 Build 0)  -->
<!DOCTYPE svg PUBLIC "-//W3C//DTD SVG 1.1 Basic//EN" "http://www.w3.org/Graphics/SVG/1.1/DTD/svg11-basic.dtd">
<svg version="1.1" baseProfile="basic" id="Слой_1"
	 xmlns="http://www.w3.org/2000/svg" xmlns:xlink="http://www.w3.org/1999/xlink" x="0px" y="0px" width="360px" height="275.5px"
	 viewBox="0 0 360 275.5" xml:space="preserve">
<g>
	<path fill="#A8A8A8" stroke="#FFFFFF" stroke-width="6" stroke-miterlimit="10" d="M348.589,96.994
		c-0.957,2.597-3.285,8.7-5.906,10.178c4.851-6.547-1.013-18.993-1.005-19.152c0.452,4.977-0.643,10.256-5.866,16.295
		c-4.104,4.745-4.648,10.546-2.411,15.444c-0.024,0.71-0.047,1.421-0.099,2.111c-0.038,0.492-0.1,0.967-0.152,1.449
		c-0.274,2.57-0.733,5.009-1.383,7.295c-0.067,0.234-0.133,0.468-0.204,0.7c-0.515,1.692-1.124,3.307-1.83,4.835c0,0,0,0,0,0
		c-0.16,0.346-0.339,0.674-0.508,1.011c-0.207,0.412-0.41,0.828-0.63,1.228c-0.221,0.401-0.459,0.786-0.694,1.174
		c-1.087,1.799-2.309,3.461-3.661,4.974c-0.29,0.326-0.59,0.642-0.893,0.955c-2.026,2.09-4.298,3.876-6.77,5.345
		c-0.34,0.202-0.681,0.403-1.028,0.593c-0.348,0.19-0.702,0.368-1.057,0.546c-0.4,0.201-0.801,0.4-1.21,0.585
		c-2.039,0.925-4.182,1.658-6.406,2.19c-0.641,0.153-1.293,0.282-1.947,0.402c-0.201,0.037-0.399,0.081-0.601,0.115
		c-0.669,0.112-1.348,0.196-2.029,0.274c-1.639,0.185-3.309,0.268-5.003,0.249c-0.619-0.007-1.239-0.019-1.864-0.054
		c-0.33-0.018-0.662-0.049-0.993-0.075c-0.616-0.049-1.234-0.103-1.855-0.179c-1.505-0.183-3.02-0.442-4.543-0.785
		c-0.257-0.058-0.515-0.117-0.773-0.179c-0.742-0.18-1.485-0.377-2.229-0.596c-0.193-0.057-0.386-0.118-0.58-0.177
		c-2.589-0.797-5.182-1.828-7.755-3.101c-0.276-0.137-0.551-0.28-0.826-0.422c-0.571-0.294-1.14-0.603-1.708-0.921
		c-0.266-0.149-0.533-0.292-0.798-0.447c-0.851-0.495-1.698-1.01-2.54-1.56c-3.588-2.344-7.094-5.19-10.433-8.552
		c-0.235-0.241-0.454-0.428-0.647-0.569c-0.107-0.122-0.219-0.237-0.327-0.357c0.001-0.002,0.002-0.003,0.003-0.005
		c-0.056-0.062-0.116-0.119-0.173-0.18c-0.297-0.324-0.599-0.639-0.907-0.946c-0.093-0.093-0.186-0.187-0.28-0.278
		c-2.111-2.049-4.463-3.698-7.103-4.825c-4.319-1.84-8.424-2.851-12.283-3.254c0.003-0.003,0.005-0.006,0.008-0.009
		c-0.152-0.016-0.299-0.021-0.45-0.035c-0.418-0.039-0.833-0.071-1.245-0.096c-0.236-0.014-0.471-0.026-0.705-0.036
		c-0.418-0.017-0.831-0.026-1.243-0.028c-0.221-0.002-0.443-0.005-0.663-0.002c-0.432,0.005-0.859,0.02-1.283,0.04
		c-0.189,0.009-0.38,0.013-0.567,0.024c-0.559,0.034-1.11,0.081-1.656,0.139c-0.039,0.004-0.08,0.006-0.119,0.01c0,0,0,0,0,0.001
		c-2.747,0.304-5.322,0.903-7.703,1.702c-1.787-0.548-3.632-1.073-5.508-1.583c0.001-0.002,0.002-0.003,0.004-0.005
		c-0.148-0.04-0.3-0.078-0.448-0.118c-0.54-0.146-1.087-0.288-1.633-0.431c-0.49-0.128-0.977-0.257-1.471-0.383
		c-5.627-1.437-11.49-2.736-17.222-3.945c-7.501-1.582-15.002-2.938-22.373-4.059c-0.002-0.004-0.004-0.008-0.007-0.012
		c-0.258-0.039-0.511-0.069-0.769-0.108c-3.938-0.591-7.831-1.108-11.666-1.551c-0.001-0.002-0.002-0.005-0.003-0.007
		c-0.172-0.02-0.34-0.034-0.512-0.054c-1.626-0.185-3.235-0.353-4.837-0.51c-0.298-0.029-0.603-0.067-0.899-0.095v-0.006h-0.002
		l-0.113-0.01l-0.046-0.004l-0.41-0.038l-0.042-0.004l-0.191-0.018l-0.032-0.002l-0.139-0.014l-0.09-0.008
		c-0.053-0.005-0.104-0.008-0.156-0.013c-2.04-0.186-4.059-0.352-6.049-0.49c-0.003-0.372-0.008-0.742-0.014-1.112
		c8.518,1.059,15.588,0.675,15.844-2.921c0.008-0.074,0.008-0.149,0.016-0.223l-8.075-1.831l8.204-0.495
		c0.099-1.904,0.179-3.789,0.205-5.625l-9.897-2.955l7.468,0.854l2.445-0.935c-0.012-2.217-0.06-4.396-0.179-6.517l-9.47-5.492
		l9.143,0.937c-0.269-2.953-0.639-5.814-1.106-8.574l-10.086-1.862l9.466-1.474c-0.444-2.201-0.955-4.334-1.518-6.413l-9.895-4.831
		l8.636,0.535c-0.746-2.32-1.558-4.561-2.443-6.716l-8.087-2.722l6.962,0.101c-1.562-3.496-3.291-6.783-5.17-9.848l-6.962-1.313
		l5.48-1.013c-1.701-2.577-3.506-4.998-5.39-7.271l-8.423,0.937l5.371-4.403c-2.034-2.193-4.137-4.228-6.29-6.111l-8.811,2.097
		l4.262-5.81c-1.683-1.281-3.383-2.489-5.098-3.61l-10.936,2.346l4.443-6.212c-3.789-2.05-7.565-3.747-11.209-5.124l-6.517,5.14
		l4.362-5.92c-3.16-1.102-6.204-1.96-9.06-2.607l-4.242,3.096l1.588-3.649c-3.389-0.639-6.441-0.965-9.02-1.021l2.479,5.828
		l-5.337-5.771c-4.449,0.3-6.666,1.624-5.375,3.546c0.724,1.087,6.543,5.961,8.559,9.669c-7.078,0.133-14.271,1.102-21.437,2.437
		c0,0,0,0,0,0c-0.009,0.002-0.017,0.004-0.026,0.005c-1.838,0.343-3.674,0.712-5.506,1.094c-0.131,0.027-0.263,0.051-0.394,0.078
		c0,0.001,0.001,0.002,0.001,0.003c-2.721,0.571-5.432,1.171-8.126,1.782c0-0.001-0.001-0.001-0.001-0.002
		c-1.163,0.264-2.313,0.527-3.467,0.792c-2.02,0.462-4.027,0.919-6.019,1.364c0,0,0-0.001,0-0.001
		c-1.311,0.294-2.615,0.581-3.91,0.858c-0.799,0.17-1.564,0.303-2.309,0.418c-0.199,0.031-0.392,0.056-0.587,0.083
		c-0.557,0.078-1.101,0.144-1.628,0.197c-7.759,0.776-12.453-0.86-16.605,3.073c-5.56,5.269-9.41,18.299-4.479,19.542
		c0.989,0.247,44.001-2.565,37.898-1.914c0,0-38.442,5.242-35.013,10.705s2.69,4.006,3.844,5.721
		c1.576,2.35,7.631,3.93,13.274,0.698c10.005-5.729,17.584-11.655,21.904-15.831c8.611,2.887,17.972,8.758,21.5,8.921
		c4.405,0.207,8.299-0.208,11.692-1.274c-0.005,0.008-0.01,0.017-0.015,0.026c0.112-0.035,0.214-0.082,0.324-0.119
		c0.412-0.135,0.811-0.287,1.207-0.443c0.228-0.09,0.461-0.172,0.684-0.268c0.548-0.236,1.079-0.494,1.596-0.772
		c0.062-0.033,0.13-0.059,0.192-0.093c0.299,0.704,0.569,1.412,0.851,2.118c0.267,0.666,0.54,1.331,0.793,1.997
		c0.108,0.284,0.208,0.568,0.314,0.852c0.249,0.667,0.489,1.335,0.725,2.002c0.277,0.781,0.542,1.562,0.801,2.343
		c0.226,0.68,0.458,1.361,0.672,2.04c0.072,0.23,0.138,0.46,0.209,0.69c0.256,0.829,0.503,1.657,0.74,2.484
		c0.15,0.521,0.292,1.041,0.435,1.562c0.172,0.628,0.342,1.255,0.505,1.881c0.138,0.533,0.271,1.065,0.402,1.597
		c0.209,0.849,0.419,1.698,0.61,2.544c0.033,0.147,0.063,0.294,0.096,0.441c0.232,1.037,0.454,2.072,0.66,3.102
		c0.024,0.118,0.044,0.234,0.067,0.352c0.209,1.057,0.408,2.112,0.592,3.161c0.016,0.093,0.03,0.185,0.046,0.278
		c0.128,0.737,0.243,1.469,0.358,2.201c0.135,0.858,0.262,1.712,0.381,2.563c0.066,0.47,0.135,0.941,0.196,1.409
		c0.174,1.326,0.335,2.646,0.473,3.952c0.89,8.39,1.072,16.357,0.904,23.631c-0.018,0.768-0.038,1.533-0.063,2.285
		c-0.011,0.34-0.024,0.678-0.037,1.015c-0.032,0.827-0.067,1.645-0.106,2.451c-0.447,9.194-1.353,16.984-1.894,22.684
		c-0.08,0.837-0.154,1.643-0.214,2.387c0,0,0,0.001,0,0.001c-0.001-0.008-0.002-0.013-0.006,0.044
		c0.001,0.001,0.001,0.003,0.002,0.004v0c1.274,2.883,2.917,5.664,4.835,8.323c-2.041-0.265-4.235-0.845-6.523-1.617c0,0,0,0,0,0
		c-0.738-0.249-1.485-0.518-2.24-0.802c-0.007-0.003-0.014-0.005-0.021-0.008c-0.755-0.284-1.517-0.583-2.285-0.893
		c0,0.001,0,0.001,0,0.002c-1.843-0.744-3.718-1.55-5.596-2.36v0c-0.023-0.01-0.045-0.019-0.068-0.029
		c-0.697-0.3-1.395-0.601-2.091-0.898c-0.118-0.051-0.236-0.101-0.355-0.151c-0.689-0.294-1.378-0.584-2.063-0.869
		c-0.077-0.032-0.154-0.064-0.23-0.096c-0.731-0.302-1.458-0.595-2.182-0.878c-0.065-0.026-0.131-0.051-0.196-0.076
		c-4.665-1.817-9.122-3.156-12.919-3.053c0-0.001,0-0.001,0-0.002c-0.015,0-0.03,0.003-0.045,0.003
		c-1.224,0.037-2.379,0.226-3.45,0.598c-0.003,0.001-0.007,0.002-0.01,0.004c-0.72,0.251-1.402,0.586-2.04,1.014
		c-0.002,0.002-0.005,0.003-0.007,0.005c-0.318,0.214-0.626,0.45-0.922,0.712c-0.004,0.003-0.008,0.007-0.012,0.011
		c-0.577,0.511-1.111,1.117-1.598,1.823c-0.014,0.021-0.031,0.037-0.045,0.058c0.001,0.001,0.002,0.002,0.003,0.004
		c-0.373,0.548-0.721,1.15-1.036,1.824c-1.914,4.097-3.892,7.836-5.894,11.258c-0.001-0.001-0.002-0.002-0.002-0.003
		c-1.594,2.724-3.198,5.243-4.805,7.577c0.001,0.001,0.003,0.002,0.004,0.002c-1.5,2.185-2.995,4.204-4.469,6.078
		c0,0-0.001,0-0.001-0.001c-1.472,1.87-2.921,3.596-4.334,5.18c0.001,0,0.001,0,0.002,0.001c-2.137,2.4-4.186,4.491-6.094,6.325
		c-0.001,0-0.002-0.001-0.003-0.001c-1.246,1.196-2.424,2.282-3.534,3.271c0.001,0,0.001,0.001,0.002,0.001
		c-4.902,4.377-8.307,6.864-8.858,8.615c-0.001,0.003-0.001,0.006-0.002,0.009c-0.035,0.114-0.058,0.224-0.068,0.332
		c-0.001,0.008-0.001,0.015-0.001,0.022c-0.009,0.103-0.005,0.204,0.009,0.302c0.001,0.009,0.003,0.018,0.005,0.028
		c0.017,0.097,0.045,0.192,0.086,0.285c0.004,0.008,0.007,0.016,0.011,0.025c0.043,0.094,0.099,0.187,0.167,0.277
		c0.004,0.006,0.008,0.011,0.012,0.017c0.073,0.094,0.16,0.187,0.261,0.279c0.001,0.001,0.002,0.002,0.003,0.003
		c0.942,0.845,3.12,1.567,6.835,2.422c0.01,0.002,0.02,0.005,0.029,0.007c0.4,0.092,0.818,0.186,1.254,0.281
		c0.02,0.004,0.04,0.009,0.06,0.013c0.431,0.094,0.88,0.191,1.347,0.289c0.023,0.005,0.046,0.01,0.07,0.015
		c0.475,0.1,0.968,0.202,1.48,0.307c0.013,0.003,0.025,0.005,0.038,0.008c2.127,0.434,4.568,0.912,7.373,1.458
		c0.072,0.014,0.155-0.01,0.245-0.053c0.012-0.006,0.024-0.01,0.036-0.016c0.09-0.05,0.189-0.129,0.296-0.231
		c0.013-0.012,0.026-0.026,0.039-0.039c0.35-0.349,0.782-0.959,1.285-1.784c0.012-0.019,0.023-0.038,0.035-0.057
		c0.163-0.27,0.334-0.56,0.512-0.873c0.016-0.028,0.033-0.058,0.049-0.087c0.181-0.319,0.367-0.655,0.561-1.014
		c0,0,0-0.001,0.001-0.001c0.191-0.352,0.389-0.726,0.592-1.114c0.015-0.029,0.029-0.055,0.045-0.084c0,0,0,0,0,0
		c1.904-3.643,4.329-8.75,6.967-14.067c0.693-1.393,1.397-2.797,2.11-4.195c1.147-2.245,2.317-4.467,3.488-6.575
		c0.107-0.193,0.215-0.385,0.322-0.576c0.152-0.271,0.304-0.541,0.457-0.808c0.181-0.316,0.361-0.63,0.541-0.94
		c0.08-0.137,0.159-0.273,0.239-0.409c0.233-0.397,0.466-0.79,0.698-1.174c0.005-0.008,0.01-0.016,0.014-0.024
		c0.268-0.442,0.535-0.874,0.801-1.297c2.313-3.675,4.547-6.559,6.515-7.892c0.02-0.013,0.039-0.024,0.059-0.037
		c0.135-0.089,0.268-0.174,0.4-0.248c0.06-0.034,0.119-0.06,0.179-0.09c0.091-0.047,0.183-0.097,0.273-0.137
		c0.086-0.038,0.17-0.065,0.255-0.095c0.062-0.023,0.126-0.051,0.188-0.069c0.104-0.032,0.206-0.051,0.308-0.072
		c0.041-0.008,0.083-0.022,0.124-0.028c0.112-0.017,0.221-0.022,0.33-0.025c0.03-0.001,0.061-0.007,0.091-0.007
		c0.116,0.001,0.23,0.015,0.343,0.033c0.022,0.003,0.044,0.002,0.065,0.006c0.134,0.025,0.265,0.062,0.394,0.112
		c4.485,1.734,9.565,3.771,14.868,5.799c0.073,0.028,0.143,0.055,0.215,0.083c0,0,0,0,0-0.001c4.67,1.783,9.505,3.551,14.271,5.099
		c0.018,0.006,0.036,0.012,0.054,0.018c0,0,0,0,0,0c4.995,1.621,9.907,2.998,14.45,3.878c4.214,0.815,8.159,0.761,11.705,0.103
		c0.898,2.481,2.275,5.335,4.203,8.565c-0.001,0.003-0.002,0.006-0.003,0.008c0,0,0,0,0.001,0c0,0.001,0,0.001-0.001,0.002
		c0.003-0.001,0.006,0,0.008-0.001c0.341,0.57,0.701,1.154,1.078,1.748c-0.002,0-0.004,0-0.006,0c0,0,0,0,0,0
		c-0.001,0-0.003,0-0.004,0c0.221,0.346,0.438,0.69,0.667,1.045c0.349,0.532,0.63,1.087,0.865,1.659
		c0.018,0.045,0.042,0.088,0.059,0.133c0.099,0.251,0.181,0.508,0.26,0.766c0.019,0.062,0.043,0.122,0.061,0.184
		c0.077,0.267,0.14,0.54,0.198,0.814c0.011,0.054,0.027,0.107,0.037,0.161c0.059,0.299,0.106,0.601,0.145,0.907
		c0.004,0.029,0.009,0.057,0.013,0.085c0.123,1.008,0.144,2.054,0.095,3.128c0.001,0,0.002,0,0.002,0.001
		c-0.108,2.402-0.559,4.939-0.999,7.502c-0.001,0-0.003,0-0.004,0c-0.148,0.856-0.286,1.714-0.415,2.571
		c-0.05,0.333-0.099,0.666-0.144,0.999c-0.015,0.115-0.035,0.231-0.05,0.346c0.001,0,0.002,0,0.002,0c0,0.001,0,0.001,0,0.002
		c0.001,0,0.002,0,0.004,0.001c-0.181,1.409-0.304,2.808-0.302,4.176c0,0.114,0.008,0.227,0.01,0.34c-0.002,0-0.003,0-0.005,0
		c0,0.001,0,0.001,0,0.002c0,0,0,0,0,0c0.001,0.082,0.01,0.163,0.012,0.245c0.008,0.287,0.021,0.573,0.042,0.857
		c0.01,0.141,0.023,0.281,0.037,0.42c0.025,0.267,0.057,0.533,0.095,0.797c0.011,0.073,0.015,0.148,0.026,0.221
		c0.001,0.007,0.001,0.014,0.002,0.02c0.01,0.062,0.027,0.123,0.038,0.185c0.045,0.263,0.1,0.524,0.16,0.784
		c0.021,0.091,0.033,0.185,0.056,0.275c0.011,0.043,0.027,0.084,0.038,0.127c0.072,0.278,0.158,0.553,0.249,0.826
		c0.029,0.086,0.048,0.175,0.079,0.26c0.008,0.023,0.02,0.044,0.028,0.067c0.129,0.356,0.275,0.708,0.439,1.054
		c0.009,0.019,0.015,0.039,0.024,0.057c0.001,0.003,0.003,0.005,0.004,0.008c0.182,0.379,0.387,0.752,0.614,1.119
		c0.027,0.043,0.06,0.085,0.088,0.128c0.198,0.31,0.411,0.616,0.645,0.917c0.076,0.098,0.163,0.193,0.243,0.289
		c0.2,0.241,0.407,0.481,0.633,0.715c0.04,0.042,0.071,0.086,0.112,0.127c0.005-0.001,0.01-0.002,0.014-0.002
		c0.499,0.505,1.044,0.997,1.672,1.466c0.111,0.082,0.202,0.196,0.288,0.32c0.051,0.076,0.093,0.167,0.136,0.257
		c0.031,0.066,0.064,0.131,0.091,0.205c0.039,0.109,0.072,0.23,0.101,0.356c0.017,0.072,0.033,0.145,0.046,0.222
		c0.026,0.145,0.047,0.298,0.061,0.461c0.006,0.068,0.01,0.139,0.014,0.209c0.011,0.187,0.019,0.378,0.017,0.584
		c0,0.044-0.003,0.09-0.004,0.135c-0.02,1.004-0.177,2.219-0.438,3.576c-0.429,2.215-1.132,4.8-1.977,7.47c0,0,0,0,0,0c0,0,0,0,0,0
		l-0.002,0c-0.742,2.332-1.578,4.726-2.432,6.976c0.002,0.001,0.004,0.001,0.005,0.002c-2.03,5.389-5.111,11.144-5.112,11.144
		c0.002,0.006,0.022,4.607,1.809,5.843c0.204,0.141,0.415,0.266,0.629,0.382c0.004,0.002,0.008,0.005,0.012,0.008
		c0,0,0.001,0,0.001-0.001c2.504,1.359,5.676,1.131,8.336,0.001c3.277-1.391,5.774-4.146,5.274-6.972
		c-0.398-2.262,0.241-27.577,0.665-34.38c0.613-9.933,2.658-25.42,1.785-36.267c0.422,0.131,0.858,0.239,1.283,0.365
		c0.002,0.009,0.004,0.018,0.006,0.027c0.682,0.202,1.384,0.374,2.074,0.565c0.059,0.016,0.117,0.034,0.176,0.05
		c0.008,0.006,0.016,0.012,0.023,0.018c0.009,0.007,0.018,0.013,0.026,0.021c0,0,0,0,0,0c0.003,0.002,0.005,0.004,0.008,0.006
		c0.12,0.033,0.244,0.059,0.364,0.092c0.244,0.067,0.492,0.128,0.738,0.194c0.285,0.075,0.569,0.151,0.855,0.224
		c0.268,0.069,0.532,0.143,0.801,0.21c-0.002-0.007-0.003-0.014-0.005-0.022c0.128,0.032,0.258,0.06,0.386,0.091
		c0.737,0.181,1.467,0.373,2.21,0.541c0,0.003,0,0.006,0,0.008c0.001,0,0.001,0,0.002,0c0,0,0,0.001,0,0.002
		c0.366,0.082,0.737,0.154,1.104,0.234c0.294,0.064,0.589,0.125,0.884,0.187c0.443,0.092,0.882,0.192,1.326,0.281
		c0-0.007,0-0.014,0-0.021c0.839,0.167,1.679,0.331,2.525,0.483c0.841,0.151,1.686,0.29,2.533,0.427
		c0.918,0.148,1.837,0.29,2.761,0.42c0.867,0.122,1.736,0.235,2.607,0.342c0.915,0.112,1.831,0.218,2.749,0.314
		c0.085,0.009,0.17,0.02,0.255,0.029c0.001,0.005,0.002,0.01,0.002,0.015c0.222,0.022,0.446,0.04,0.669,0.061
		c0.335,0.033,0.671,0.061,1.006,0.092c0.539,0.049,1.076,0.103,1.618,0.148c0,0,0,0,0,0c0.001,0,0.001,0,0.002,0
		c0-0.002,0-0.004-0.001-0.006c0.615,0.05,1.232,0.086,1.848,0.129c0.89,0.062,1.779,0.119,2.669,0.167
		c0.921,0.049,1.841,0.088,2.763,0.122c0.885,0.032,1.769,0.062,2.654,0.08c0.93,0.019,1.858,0.027,2.787,0.031
		c0.874,0.004,1.746,0.007,2.618-0.003c0.941-0.01,1.878-0.034,2.816-0.059c0.855-0.023,1.709-0.045,2.56-0.081
		c0.953-0.04,1.9-0.095,2.848-0.15c0.828-0.048,1.656-0.093,2.48-0.152c0.968-0.07,1.928-0.157,2.889-0.242
		c0.793-0.071,1.588-0.136,2.376-0.217c0.886-0.091,1.761-0.198,2.639-0.302c0.812,0.306,1.611,0.613,2.392,0.922
		c0.23,0.091,0.46,0.182,0.687,0.273c0.389,0.156,0.774,0.312,1.156,0.468c0.231,0.095,0.461,0.189,0.688,0.284
		c0.37,0.153,0.735,0.307,1.097,0.461c0.23,0.098,0.459,0.195,0.685,0.292c0.35,0.151,0.697,0.301,1.04,0.452
		c0.231,0.101,0.46,0.202,0.688,0.303c0.328,0.146,0.652,0.291,0.973,0.436c0.237,0.107,0.473,0.215,0.706,0.322
		c0.301,0.138,0.599,0.276,0.894,0.414c0.245,0.114,0.488,0.229,0.729,0.343c0.271,0.129,0.54,0.257,0.807,0.385
		c0.261,0.125,0.519,0.25,0.774,0.375c0.236,0.115,0.47,0.23,0.702,0.345c0.278,0.138,0.553,0.275,0.825,0.411
		c2.419,1.215,4.604,2.396,6.569,3.51c0,0,0,0-0.001,0c1.202,0.68,2.315,1.333,3.353,1.956c0.105,0.063,0.209,0.126,0.312,0.188
		c0.466,0.281,0.919,0.556,1.352,0.822c0.075,0.046,0.146,0.09,0.22,0.136c0.339,0.209,0.665,0.411,0.984,0.609
		c2.452,1.527,4.319,2.748,5.651,3.492c0.571,0.319,1.111,0.735,1.628,1.218c0.072,0.067,0.144,0.132,0.215,0.201
		c0.211,0.209,0.417,0.434,0.619,0.668c0.079,0.091,0.157,0.184,0.235,0.279c0.197,0.241,0.39,0.491,0.578,0.754
		c0.074,0.104,0.146,0.213,0.219,0.32c0.147,0.216,0.291,0.439,0.433,0.668c0.085,0.138,0.17,0.276,0.253,0.418
		c0.169,0.288,0.334,0.583,0.495,0.889c0.089,0.168,0.174,0.343,0.26,0.516c1.156,2.315,2.115,5.066,2.91,8.008c0,0-0.001,0-0.001,0
		c0.344,1.267,0.658,2.568,0.945,3.884c0.6,2.772,1.075,5.605,1.455,8.313c0.069,0.492,0.134,0.977,0.197,1.459
		c0.016,0.126,0.034,0.255,0.05,0.38c0.07,0.551,0.136,1.094,0.199,1.629c0.018,0.157,0.035,0.31,0.053,0.465
		c0.049,0.428,0.096,0.853,0.14,1.267c0.029,0.272,0.055,0.533,0.082,0.798c0.026,0.253,0.052,0.508,0.076,0.754
		c0.368,3.793,0.539,6.811,0.618,8.232c-0.677,0.909-3.059,4.316-3.124,7.353c-0.078,3.538,10.106,1.616,12.391-0.935
		c2.282-2.555-0.205-7.516-0.205-7.516l-0.405,0.039c2.765-10.154,2.243-45.577-6.422-44.766c-0.51,0.048-0.991,0.061-1.454,0.049
		c-0.194-0.005-0.372-0.031-0.559-0.047c-2.947-0.237-4.906-1.73-6.256-4.178c-0.106-0.192-0.212-0.383-0.31-0.586
		c-0.103-0.211-0.198-0.434-0.294-0.658c-0.09-0.212-0.181-0.423-0.265-0.646c-0.091-0.242-0.176-0.494-0.261-0.747
		c-0.068-0.204-0.135-0.408-0.199-0.62c0.345,0.214,0.699,0.431,1.037,0.641c0,0,0.001-0.001,0.001-0.001
		c1.726,1.077,3.361,2.114,4.902,3.111c0,0,0,0,0,0l0,0h0c0.005,0.003,0.01,0.006,0.015,0.01c0.925,0.598,1.815,1.18,2.671,1.747h0
		l0,0c0,0,0,0,0,0c3.499,2.319,6.421,4.379,8.737,6.149c0.137,0.105,0.264,0.205,0.396,0.308c0.219,0.169,0.446,0.343,0.653,0.507
		c0.105,0.083,0.203,0.163,0.306,0.245c0.355,0.284,0.698,0.563,1.016,0.829c1.7,1.421,2.877,2.587,3.494,3.467
		c0.391,0.557,0.768,1.192,1.133,1.887c0.121,0.23,0.238,0.474,0.356,0.717c0.074,0.152,0.149,0.298,0.222,0.455
		c0.187,0.406,0.371,0.827,0.55,1.267c0.001,0,0.001,0,0.002-0.001c0,0,0,0,0,0.001c0,0,0.001,0,0.001,0
		c0.857,2.077,1.63,4.498,2.322,7.096c0,0-0.001,0-0.001,0.001c0.312,1.17,0.609,2.374,0.887,3.604c0,0,0.001,0,0.001,0
		c0.649,2.869,1.204,5.856,1.666,8.773c0,0,0,0-0.001,0c0.204,1.276,0.386,2.534,0.55,3.767c0.873,6.501,1.242,12.191,1.081,14.76
		l-0.037,0.007v0.004c-2.851,0.448-5.492,5.542-5.733,7.866c0,0,16.502-0.967,16.157-2.262c-0.327-1.235-3.093-6.455-3.364-6.965
		c1.288-3.513,2.175-11.556,2.193-19.818c0-0.012,0-0.024,0-0.036c0.015-8.119-0.809-16.436-2.917-20.859c0,0,0.001,0,0.001,0
		c-0.012-0.025-0.025-0.047-0.037-0.072c-0.1-0.206-0.203-0.402-0.308-0.59c-0.031-0.055-0.061-0.109-0.092-0.162
		c-0.249-0.425-0.514-0.799-0.795-1.12c-0.029-0.033-0.059-0.065-0.089-0.097c-0.13-0.141-0.264-0.272-0.401-0.39
		c-0.014-0.012-0.027-0.025-0.041-0.037c-0.159-0.132-0.322-0.247-0.49-0.346c-0.012-0.007-0.024-0.012-0.036-0.019
		c-0.159-0.091-0.323-0.166-0.491-0.227c-0.016-0.006-0.031-0.012-0.047-0.017c-0.358-0.122-0.735-0.17-1.133-0.142
		c-0.01,0.001-0.02-0.002-0.031-0.001c-0.002,0.001-0.005,0.003-0.007,0.004c-0.073,0.006-0.145,0.007-0.22,0.018
		c-0.288,0.043-0.429-2.149-0.627-5.815c0,0,0.001,0,0.001-0.001c-0.057-1.048-0.12-2.226-0.191-3.498
		c-0.008-0.142-0.016-0.291-0.025-0.436c-0.025-0.439-0.05-0.881-0.077-1.343c-0.006-0.107-0.013-0.215-0.019-0.323
		c-0.026-0.433-0.051-0.862-0.078-1.313c-0.001,0-0.001,0.001-0.002,0.001c-0.101-1.619-0.221-3.352-0.363-5.175
		c0.001,0,0.001,0,0.002-0.001c-0.036-0.463-0.075-0.938-0.115-1.412c-0.007-0.087-0.014-0.172-0.021-0.26
		c-0.183-2.19-0.401-4.486-0.667-6.864c-0.001,0.001-0.002,0.001-0.003,0.002c-0.314-2.806-0.695-5.716-1.156-8.666
		c0.002-0.001,0.004-0.003,0.007-0.004c-0.064-0.407-0.135-0.817-0.202-1.226c-0.043-0.263-0.086-0.526-0.13-0.79
		c-0.096-0.57-0.197-1.141-0.299-1.712c-0.057-0.32-0.115-0.64-0.174-0.961c-0.108-0.582-0.221-1.163-0.336-1.744
		c-0.055-0.276-0.109-0.551-0.165-0.826c-0.135-0.663-0.276-1.323-0.42-1.984c-0.037-0.167-0.073-0.335-0.111-0.502
		c-0.08-0.358-0.154-0.717-0.237-1.074c-0.004,0.003-0.007,0.006-0.011,0.009c-0.682-2.927-1.462-5.818-2.365-8.61
		c0.002-0.002,0.003-0.003,0.005-0.005c-0.023-0.071-0.049-0.14-0.072-0.211c-0.058-0.179-0.121-0.354-0.181-0.532
		c-0.216-0.647-0.434-1.291-0.663-1.926c-0.043-0.12-0.09-0.236-0.133-0.355c-0.252-0.689-0.509-1.372-0.778-2.044
		c-0.022-0.055-0.046-0.109-0.068-0.164c-0.294-0.729-0.596-1.45-0.91-2.157c0-0.001,0-0.001-0.001-0.002
		c1.09,0.878,2.308,1.75,3.646,2.597c0,0.001-0.001,0.003-0.001,0.005c0.057,0.036,0.119,0.071,0.177,0.107
		c0.387,0.242,0.784,0.482,1.192,0.719c0.068,0.039,0.133,0.079,0.202,0.119c1,0.574,2.066,1.13,3.194,1.662
		c0.081,0.038,0.164,0.076,0.245,0.113c0.516,0.24,1.044,0.474,1.587,0.702c0.032,0.013,0.062,0.028,0.094,0.042
		c0,0,0.001-0.001,0.001-0.001c0.942,0.394,1.925,0.77,2.949,1.125c-0.001,0.002-0.002,0.004-0.003,0.006
		c0.074,0.026,0.156,0.048,0.231,0.073c0.767,0.262,1.552,0.513,2.366,0.75c0.042,0.012,0.086,0.023,0.129,0.036
		c0.853,0.245,1.734,0.474,2.639,0.687c0.027,0.006,0.051,0.014,0.077,0.02c0,0,0.001-0.001,0.001-0.001
		c1.391,0.327,2.837,0.618,4.353,0.86c0.5,0.08,0.972,0.128,1.462,0.196c-0.001,0.006-0.003,0.013-0.004,0.019
		c0.342,0.047,0.665,0.073,1.002,0.115c0.574,0.071,1.147,0.141,1.707,0.195c0.534,0.052,1.055,0.09,1.576,0.128
		c0.561,0.041,1.123,0.082,1.67,0.106c0.128,0.006,0.264,0.02,0.391,0.025c0.001-0.005,0.001-0.01,0.002-0.015
		c1.937,0.072,3.791,0.054,5.546-0.07c0,0.001,0.001,0.002,0.001,0.003c0.775-0.052,1.525-0.131,2.263-0.221
		c0.192-0.023,0.384-0.046,0.573-0.071c0.12-0.016,0.244-0.028,0.363-0.045c0.001-0.005,0.001-0.009,0.002-0.014
		c2.772-0.4,5.298-1.048,7.598-1.9c0.002,0.005,0.003,0.011,0.005,0.017c0.517-0.192,1.019-0.396,1.513-0.608
		c0.047-0.02,0.096-0.037,0.142-0.057c0.633-0.275,1.242-0.57,1.838-0.875c0.203-0.104,0.4-0.213,0.599-0.32
		c0.418-0.226,0.827-0.458,1.227-0.699c0.184-0.111,0.371-0.22,0.551-0.334c0.085-0.053,0.175-0.103,0.258-0.156
		c-0.002-0.004-0.005-0.008-0.008-0.012c2.138-1.378,4.007-2.96,5.633-4.686c0.003,0.004,0.006,0.008,0.01,0.011
		c0.061-0.064,0.112-0.134,0.172-0.198c0.535-0.578,1.052-1.166,1.535-1.772c0.221-0.275,0.434-0.555,0.647-0.836
		c-0.002-0.002-0.005-0.004-0.008-0.006c1.677-2.248,3.026-4.649,4.086-7.088c0.084-0.193,0.161-0.386,0.241-0.579
		c0.137-0.33,0.271-0.659,0.398-0.989c0.025-0.064,0.053-0.128,0.077-0.192c-0.002-0.001-0.003-0.002-0.005-0.003
		c0.674-1.782,1.207-3.566,1.614-5.309c0.001,0,0.002,0.001,0.003,0.001c0.014-0.06,0.023-0.118,0.037-0.178
		c0.127-0.556,0.243-1.107,0.346-1.652c0.01-0.052,0.023-0.105,0.033-0.157c-0.001,0-0.001,0-0.002-0.001
		c0.406-2.194,0.621-4.287,0.684-6.185c0.001,0,0.002,0,0.003,0c0.001-0.04,0.001-0.078,0.002-0.118
		c0.005-0.158,0.005-0.309,0.008-0.464c0.004-0.221,0.009-0.444,0.009-0.659c0-0.065-0.002-0.127-0.003-0.192
		c-0.002-0.296-0.004-0.591-0.013-0.875c-0.001,0-0.002,0-0.003-0.001c-0.011-0.319-0.026-0.629-0.046-0.93
		C351.171,121.02,348.864,96.239,348.589,96.994z"/>
</g>
<g id="Слой_x0020_1">
	<g id="_539170944">
		<path fill="#B1CEDB" d="M14.868,58.15l-1.715,3.637c1.158,1.717,2.69,4.006,3.844,5.721c1.576,2.35,7.631,3.93,13.274,0.698
			c24.636-14.106,34.561-29.41,17.343-16.818C44.7,53.512,20.971,57.499,14.868,58.15L14.868,58.15z M198.218,189.553
			c23.156,7.522,35.604,16.973,40.603,19.767c9.947,5.56,11.451,37.512,11.684,41.582c0.169,2.979,6.845,2.583,7.613,0.828
			c3.801-4.314,4.21-48.015-5.404-47.115c-17.158,1.606-6.686-30.848-19.506-56.754c-5.826-11.776-22.425-6.941-36.086-11.979
			C170.27,125.991,178.425,183.125,198.218,189.553L198.218,189.553z M108.124,160.509c-14.1,3.934-43.092-23.138-51.356-5.44
			c-24.895,53.28-60.533,46.594-19.019,54.679c2.909,0.567,20.639-47.141,28.857-43.965c12.643,4.887,29.971,12.186,43.858,14.876
			C141.121,186.592,157.685,146.686,108.124,160.509L108.124,160.509z"/>
		<path fill="#397A98" d="M96.177,159.128c-0.458,3.18-1.279,10.632-0.163,17.654c-1.476-0.48-2.961-0.979-4.445-1.496
			c-0.486-5.247-0.748-11.863,0.062-17.861C93.176,158.048,94.696,158.627,96.177,159.128L96.177,159.128z M205.204,188.172
			c-0.012,0.167,0.893,2.149,2.059,4.606c5.124,1.998,9.589,4.043,13.449,5.995c6.095-2.782,14.176-6.099,19.853-7.026
			c0.482-0.078,0.935-0.147,1.367-0.203c-0.69-4.69-1.029-10.323-1.701-16.366c-13.209,0.048-16.824,0.364-21.021,3.231
			C214.863,181.376,205.226,187.712,205.204,188.172L205.204,188.172z M242.603,195.244c-4.597,1.375-10.878,3.649-15.654,6.873
			c2.521,1.425,4.674,2.744,6.495,3.88c3.347-1.654,7.406-3.568,11.221-5.142C243.757,199.353,243.104,197.458,242.603,195.244
			L242.603,195.244z M250.065,204.566c-3.283,1.275-6.98,3.104-9.997,5.627c1.486,1.244,2.752,3.108,3.846,5.369
			c4.059-1.984,9.255-4.075,14.174-4.742c-1.25-3.934-3.009-6.423-5.375-6.202C251.746,204.709,250.867,204.687,250.065,204.566
			L250.065,204.566z M259.94,220.222c-3.95,0.673-9.006,1.685-13.274,3.038c0.346,1.273,0.661,2.579,0.949,3.902
			c3.824-0.756,8.69-1.379,12.819-1.118C260.324,224.066,260.159,222.104,259.94,220.222L259.94,220.222z M260.623,233.719
			c-3.472,0.201-7.874,0.647-11.573,1.624c0.358,2.529,0.629,4.951,0.836,7.11c3.114-0.627,7.036-1.266,10.453-1.393
			C260.507,238.793,260.605,236.302,260.623,233.719L260.623,233.719z M86.035,155.067c-1.502,4.423-3.351,10.59-4.346,16.599
			c-2.871-1.1-5.685-2.201-8.371-3.257c0.686-4.64,2.607-11.75,3.309-17.172C79.685,152.327,82.861,153.7,86.035,155.067
			L86.035,155.067z M65.931,149.014c0.141,4.28,0.456,11.135,1.144,16.951l-0.468-0.181c-1.035-0.4-2.225,0.008-3.52,1.029
			c-1.019-4.71-2.682-10.178-5.285-13.571C59.805,150.301,62.618,149.107,65.931,149.014L65.931,149.014z M50.872,166.325
			c1.994,2.362,4.268,5.193,6.228,7.979c-1.092,1.729-2.199,3.637-3.307,5.641c-2.199-2.151-4.905-4.449-7.725-6.043
			C47.673,171.568,49.278,169.049,50.872,166.325L50.872,166.325z M41.6,179.98c2.993,1.433,6.252,3.379,9.024,5.946
			c-0.842,1.648-1.679,3.313-2.491,4.951c-3.106-2.211-6.98-4.539-10.868-5.717C38.679,183.577,40.129,181.85,41.6,179.98
			L41.6,179.98z M31.171,191.485c4.531,1.616,9.812,3.673,13.853,5.741c-0.667,1.369-1.309,2.672-1.916,3.89
			c-4.485-1.849-10.445-4.302-15.471-6.36C28.747,193.767,29.925,192.681,31.171,191.485L31.171,191.485z"/>
		<path fill="#305061" d="M85.4,23.887c0.8-3.468-8.28-10.91-9.197-12.285c-1.291-1.922,0.927-3.247,5.375-3.546l5.337,5.771
			L84.437,8c2.579,0.056,5.631,0.382,9.02,1.021l-1.588,3.649l4.242-3.096c2.857,0.647,5.9,1.506,9.06,2.607l-4.362,5.92l6.517-5.14
			c3.645,1.377,7.42,3.074,11.209,5.124l-4.443,6.212l10.936-2.346c1.715,1.122,3.415,2.33,5.098,3.61l-4.262,5.81l8.811-2.097
			c2.153,1.884,4.256,3.918,6.29,6.111l-5.371,4.402l8.423-0.937c1.884,2.274,3.689,4.694,5.39,7.271l-5.48,1.013l6.962,1.313
			c1.88,3.066,3.608,6.352,5.17,9.848l-6.962-0.101l8.087,2.722c0.885,2.155,1.697,4.396,2.442,6.716l-8.636-0.535l9.895,4.831
			c0.563,2.079,1.073,4.212,1.518,6.413l-9.466,1.474l10.086,1.862c0.466,2.76,0.836,5.621,1.106,8.574l-9.143-0.937l9.47,5.492
			c0.119,2.121,0.167,4.3,0.179,6.517l-2.445,0.935l-7.468-0.854l9.897,2.955c-0.026,1.835-0.107,3.721-0.205,5.625l-8.204,0.495
			l8.075,1.831c-0.008,0.074-0.008,0.149-0.016,0.223c-0.667,9.366-47.539-3.044-45.9-6.047
			C148.647,50.931,110.301,62.87,85.4,23.887L85.4,23.887z"/>
		<path fill="#F3F3F3" d="M134.24,108.56c2.251,2.845,4.509,5.412,5.999,7.167c2.756-2.41,5.456-4.752,8.051-7
			c-0.205-2.818-0.679-6.214-1.399-10.007c-0.06,0.04-0.125,0.084-0.191,0.131c-0.203,0.141-0.408,0.281-0.611,0.422
			c-0.161,0.115-0.324,0.227-0.482,0.342c-0.173,0.123-0.344,0.243-0.515,0.366c-0.173,0.121-0.344,0.247-0.517,0.368
			c-0.195,0.141-0.39,0.283-0.585,0.426c-0.133,0.094-0.261,0.193-0.396,0.289c-0.187,0.137-0.374,0.273-0.561,0.414
			c-0.163,0.119-0.326,0.241-0.486,0.364c-0.161,0.119-0.326,0.241-0.482,0.364c-0.183,0.137-0.364,0.273-0.545,0.41
			c-0.141,0.111-0.287,0.219-0.432,0.332c-0.177,0.139-0.354,0.275-0.531,0.414c-0.171,0.131-0.342,0.265-0.509,0.396
			c-0.187,0.145-0.37,0.291-0.553,0.436c-0.119,0.094-0.241,0.191-0.362,0.289c-0.209,0.165-0.422,0.338-0.631,0.507
			c-0.092,0.07-0.179,0.145-0.269,0.215c-0.221,0.179-0.442,0.36-0.661,0.541c-0.066,0.054-0.133,0.109-0.201,0.163
			c-0.34,0.279-0.679,0.565-1.017,0.846l-0.074,0.06c-0.249,0.209-0.499,0.422-0.75,0.631l-0.107,0.096
			C135.024,107.882,134.63,108.222,134.24,108.56L134.24,108.56z"/>
		<path fill="#CBDFE6" d="M227.623,187.949c22.256,12.813,35.98,22.334,38.724,26.248c6.541,9.33,9.567,39.375,8.644,43.347
			c-0.647,2.786,2.05,0.058,6.367-0.874c3.803-4.316,5.39-46.869-4.159-45.408c-1.194,0.179,0.151-37.785-10.586-61.922
			c4.981,4.012,12.482,7.933,23.078,9.619c19.325,3.082,30.934-2.849,37.624-11.239c10.445-13.087,8.92-32.156,6.077-32.333
			c1.717,36.983-33.314,51.003-62.562,31.905c-3.588-2.344-7.094-5.191-10.433-8.552c-0.235-0.241-0.454-0.428-0.647-0.569
			c-2.521-2.883-5.424-5.156-8.787-6.592c-10.835-4.616-20.346-4.083-27.909-1.544c-8.148-2.499-17.377-4.587-26.278-6.465
			c-16.599-3.502-33.236-5.956-48.339-7.004c-0.028-1.622-0.036-3.259-0.028-4.744c0.099-20.41-20.973-91.226-49.977-87.593
			c-1.683-1.59-4.049-2.646-7.118-2.83c-18.237-1.132-37.568,4.463-55.435,8.284c-10.582,2.264-16.225-0.874-21.13,3.771
			c-5.56,5.269-9.41,18.299-4.479,19.542c0.989,0.247,18.092,2.065,30.831-1.779c9.45-2.845,27.368,9.838,32.574,10.079
			c6.242,0.293,11.481-0.633,15.68-2.945c16.313,38.674,9.838,77.781,8.511,94.067c4.461,10.098,13.33,18.999,23.426,25.474
			c0.899,3.695,3.017,8.407,6.825,14.235c6.2,9.474-6.941,25.703,5.176,34.739c4.069,3.031-9.509,35.345-9.279,31.646
			c1.198,4.047,0.054,4.847,1.888,6.115c5.512,3.807,15.19-1.26,14.249-6.58c-0.398-2.262,0.241-27.577,0.665-34.38
			c0.613-9.933,2.658-25.42,1.785-36.267C169.761,195.817,202.703,194.655,227.623,187.949L227.623,187.949z"/>
		<path fill="#D1E2EA" d="M182.928,130.785c0,0-33.63-13.571-47.418-2.931c-13.792,10.636-12.799,41.062,26.749,45.151
			c39.55,4.087,56.308-1.439,71.811-6.634c24.509-8.214,23.747-24.236,12.628-29.985c-9.808-5.074-28.26-1.598-35.284-1.783
			C199.945,134.299,182.928,130.785,182.928,130.785L182.928,130.785z"/>
		<path fill="#BDD6E0" d="M227.623,187.949c22.256,12.813,35.98,22.334,38.724,26.248c6.541,9.33,9.567,39.375,8.644,43.347
			c-0.647,2.786,2.05,0.058,6.367-0.874c0.221-0.255,0.434-0.643,0.639-1.138c-4.855-6.813-5.297-26.714-10.116-43.739
			c-6.73-23.808-27.945-39.07-42.433-37.093c-14.482,1.974-29.73,9.647-45.106,12.801c-15.381,3.154-44.531-3.168-60.348-12.761
			c-15.823-9.597-17.578-34.323-15.095-67.818c2.483-33.497-19.188-47.967-19.188-47.967l-0.086,0.052
			c15.968,38.464,9.559,77.22,8.242,93.415c4.461,10.098,13.33,18.999,23.426,25.474c0.899,3.695,3.017,8.407,6.825,14.235
			c6.2,9.474-6.941,25.703,5.176,34.739c4.069,3.031-9.509,35.345-9.279,31.646c1.198,4.047,0.054,4.847,1.888,6.115
			c0.209,0.143,0.422,0.269,0.637,0.388c1.184-0.718,2.356-1.556,3.516-2.501c11.231-9.151,7.589-36.46,5.918-49.284
			c-1.665-12.824-1.699-25.546,3.693-26.443c2.857-0.48,4.724,0.139,6.531,1.66C172.63,195.701,203.795,194.364,227.623,187.949
			L227.623,187.949z"/>
		<path fill="#2B2A29" d="M124.377,258.54c-0.259,0.35-0.392,0.37-0.368-0.026c1.198,4.047,0.054,4.847,1.888,6.115
			c5.512,3.807,15.19-1.26,14.249-6.582c-0.066-0.376-0.103-1.389-0.117-2.847c-3.038,3.245-7.953,7.1-13.8,4.734
			C125.684,259.708,125.024,259.177,124.377,258.54L124.377,258.54z"/>
		<path fill="#5D869C" d="M232.479,190.774c0.796,0.466,1.576,0.929,2.346,1.385c6.475-18.553,15.433-40.865,23.993-53.471
			c0.203-0.298,0.406-0.591,0.607-0.878c-1.62-1.799-3.405-3.341-5.361-4.581C233.121,149.577,240.5,164.208,232.479,190.774
			L232.479,190.774z M155.707,117.168l-0.113-0.01l-0.046-0.004l-0.41-0.038l-0.042-0.004l-0.191-0.018l-0.032-0.002l-0.139-0.014
			l-0.09-0.008c-2.091-0.193-4.163-0.36-6.206-0.501c-0.004-0.607-0.016-1.21-0.022-1.813c-1.755,2.079-3.727,4.316-5.852,6.672
			c-11.467,12.699-27.41,28.807-37.938,41.878c0.758,0.951,1.548,1.878,2.362,2.78c15.439-22.879,32.936-23.747,43.862-39.61
			c1.634-2.374,3.126-5.086,4.435-8.254c1.467,2.804,2.328,6.053,2.143,9.394c-0.163,2.83-0.41,5.95-0.718,9.271
			c-1.478,15.927-4.304,36.579-5.162,52.906c1.098,0.247,2.205,0.48,3.315,0.702c-0.107-25.082,12.22-36.106,11.507-54.529
			c-0.203-5.273-1.478-11.149-4.413-18.133c-2.103-0.245-4.187-0.462-6.248-0.659v-0.006H155.707z M148.289,108.727
			c-0.205-2.818-0.679-6.214-1.399-10.013c-22.199,15.296-38.573,36.896-49.012,53.618c-0.01,0.127-0.004-0.032-0.012,0.088
			c0.388,0.822,0.79,1.626,1.208,2.418C112.04,140.39,132.123,122.712,148.289,108.727z M145.483,92.116
			c-1.027-4.342-2.314-9.004-3.826-13.776c-2.503,12.914-20.595,22.097-41.798,26.385c0.287,4.386,0.679,4.109,0.667,8.162
			C120.536,103.395,138.077,100.585,145.483,92.116L145.483,92.116z M100.21,120.647c-0.048,2.471-0.137,4.861-0.253,7.161
			c21.168-14.15,35.202-26.96,28.823-23.375c-2.258,1.27-4.636,3.566-7.908,5.52c-3.269,1.954-7.118,4.017-11.364,6.159
			C106.582,117.588,103.462,119.106,100.21,120.647L100.21,120.647z M140.68,75.356c-0.7-2.097-1.447-4.203-2.233-6.304
			c-4.103,2.65-9.147,5.454-15.073,7.742c-8.264,3.192-16.872,7.478-25.287,12.237c0.495,3.011,0.889,5.987,1.196,8.91
			C115.777,90.19,131.54,82.354,140.68,75.356L140.68,75.356z M134.825,60.122c-1.176-2.674-2.416-5.295-3.719-7.83
			c-8.59,13.203-22.043,19.168-36.776,20.115c0.627,2.145,1.19,4.284,1.699,6.413C111.544,74.612,125.812,68.477,134.825,60.122
			L134.825,60.122z M127.519,45.811c-1.576-2.633-3.218-5.116-4.937-7.394c-11.065,8.256-21.753,17.676-30.785,26.2
			c0.48,1.331,0.935,2.658,1.363,3.984C103.828,61.373,116.135,53.508,127.519,45.811L127.519,45.811z M115.345,30.479
			c-2.438-2.123-4.973-3.789-7.593-4.887c-8.218,10.614-15.875,22.889-22.4,34.456c1.423-0.448,2.758-1.011,4.002-1.695
			c0.553,1.305,1.078,2.613,1.576,3.922C99.15,51.756,107.951,40.671,115.345,30.479L115.345,30.479z M92.838,21.569
			c-0.486-0.084-0.997-0.141-1.526-0.171c-1.787-0.113-3.584-0.159-5.39-0.149c-5.562,25.577-6.773,45.38-4.66,38.233
			c0.732-2.485,0.838-5.788,1.815-9.468c0.987-3.681,2.304-7.842,3.856-12.339C88.663,32.658,90.683,27.224,92.838,21.569
			L92.838,21.569z M63.325,23.708c-1.98,0.366-3.956,0.764-5.926,1.178c8.033,22.993,16.269,38.706,14.494,31.823
			c-0.647-2.509-2.254-5.396-3.305-9.058c-1.053-3.665-2.059-7.91-3.04-12.564C64.797,31.508,64.057,27.689,63.325,23.708
			L63.325,23.708z M49.274,26.669c-2.01,0.456-4.008,0.919-5.995,1.369c13.467,20.175,25.293,33.254,21.866,27.046
			c-1.254-2.268-3.53-4.662-5.46-7.947c-1.932-3.285-3.964-7.149-6.073-11.41C52.196,32.869,50.747,29.834,49.274,26.669
			L49.274,26.669z M39.787,28.824c-1.311,0.294-2.615,0.581-3.91,0.858c-1.737,0.37-3.343,0.597-4.835,0.736
			c4.272,7.329,8.729,14.255,12.934,20.386c1.96-0.032,4.129,0.36,6.385,1.001C46.978,44.81,43.42,36.92,39.787,28.824
			L39.787,28.824z M238.687,128.317c-2.776-0.289-5.428-0.261-7.93,0.016c-16.468,23.649-5.209,36.866-6.976,60.585
			c1.194-0.283,2.368-0.579,3.522-0.887c2.37-17.333,4.103-36.991,6.322-50.064C234.268,134.213,236.208,130.882,238.687,128.317
			L238.687,128.317z M217.549,128.447c-2.121-0.577-4.294-1.132-6.491-1.665c-17.841,25.329-3.9,38.678-7.693,65.474
			c1.104-0.109,2.195-0.229,3.285-0.358c2.221-14.872,3.854-32.253,5.683-45.963c0.442-3.311,0.895-6.407,1.369-9.201
			C214.234,133.616,215.661,130.785,217.549,128.447L217.549,128.447z M206.533,125.711c-2.541-0.583-5.098-1.146-7.643-1.689
			c-22.997,24.107-9.543,39.196-17.268,66.468c-8.399-31.63,8.805-45.175-7.227-70.991c-2.798-0.424-5.57-0.814-8.325-1.168
			c1.725,2.258,3.023,4.939,3.518,7.878c0.468,2.794,0.913,5.892,1.357,9.201c2.304,17.481,4.278,40.931,7.579,57.528
			c0.776,0.034,1.556,0.06,2.328,0.08l0.002,0.004l0.048,0.002h0.004h0.01h0.008l0.086,0.002h0.026l0.028,0.004h0.028h0.02h0.068
			l0.09,0.006v-0.004l0.054,0.004h0.004l0.048,0.002h0.076l0.054,0.002h0.026l0.209,0.008h0.008l0.096,0.002h0.024h0.004
			l0.054,0.002h0.024l0.39,0.01c0.615,0.014,1.234,0.024,1.849,0.03c4.392-15.163,8.453-33.917,12.222-48.389
			c0.84-3.231,1.667-6.246,2.477-8.962C200.172,131.475,203.15,127.993,206.533,125.711L206.533,125.711z M168.298,192.504
			c1.094,0.113,2.191,0.209,3.293,0.302c-0.561-7.796-4.682-13.961-2.935-21.421c4.531-10.558,2.625-21.628-3.19-1.55v-0.002
			C163.254,177.47,167.359,184.172,168.298,192.504L168.298,192.504z M108.964,168.184c1.449,1.459,2.967,2.845,4.561,4.165
			c40-30.391,23.203-30.914,27.177-1.654c0.233,1.711,1.791,10.383,3.186,17.097c1.667,0.493,3.355,0.953,5.066,1.379
			c-0.215-1.021-0.434-2.038-0.649-3.048c-1.948-9.058,7.014-62.226,3.616-54.697C150.846,133.811,127.127,153.256,108.964,168.184z
			 M118.648,176.175c0.864,0.589,1.745,1.164,2.644,1.719c19.423-17.998,8.873-0.659,5.078,11.442c0.117-0.032,0.233-0.04,0.35-0.04
			c7.102,0.002,4.499-6.722,9.107-14.669c0.296-0.507,0.609-11.018,0.609-11.018C136.151,162.557,125.487,169.063,118.648,176.175
			L118.648,176.175z M127.449,191.085c5.349,0.296,10.544,0.583,15.348,0.778c0.05,3.11-0.062,6.447-0.257,9.83
			c-4.469,0.036-8.59-0.679-12.691-1.725c0.131-2.877-0.235-5.554-1.733-7.838C127.887,191.773,127.668,191.429,127.449,191.085
			L127.449,191.085z M128.846,207.473c-0.223,1.305-0.444,2.615-0.609,3.916c4.835,0.86,9.165,2.117,13.288,3.365
			c0.187-2.135,0.384-4.36,0.563-6.616C137.675,207.891,133.216,207.66,128.846,207.473L128.846,207.473z M127.943,215.906
			c0.058,3.474,0.943,6.742,3.663,9.499c3.508-0.462,6.087-2.061,6.216-4.119c0.165-2.641-3.775-5.034-8.793-5.345
			C128.663,215.918,128.299,215.906,127.943,215.906L127.943,215.906z M133.562,227.153c0.698,0.975,0.591,3.263,0.016,6.19
			c2.316,0.686,4.561,1.387,6.777,2.038c0.084-2.891,0.175-5.613,0.267-7.836C138.29,227.415,135.926,227.284,133.562,227.153
			L133.562,227.153z M131.628,240.664c-0.74,2.332-1.58,4.728-2.432,6.976c3.671,1.118,7.211,2.175,10.843,2.883
			c0.028-2.782,0.086-6.061,0.165-9.388C137.404,240.986,134.535,240.823,131.628,240.664L131.628,240.664z M335.473,122.238
			c0.022,0.73,0.022,1.502-0.004,2.308c-0.814,0.036-1.638,0.076-2.461,0.115c0.129-0.961,0.233-1.94,0.308-2.939
			C334.032,121.896,334.754,122.069,335.473,122.238L335.473,122.238z M334.784,130.731c-0.119,0.653-0.259,1.317-0.416,1.986
			c-0.963-0.402-1.934-0.754-2.921-1.009c0.185-0.595,0.364-1.194,0.527-1.807C332.862,130.14,333.805,130.425,334.784,130.731
			L334.784,130.731z M332.756,138.028c-0.408,1.086-0.87,2.169-1.395,3.239c-1.272-0.34-2.585-0.698-3.86-1.033
			c0.824-1.291,1.568-2.652,2.231-4.087C330.703,136.766,331.734,137.403,332.756,138.028L332.756,138.028z M327.961,146.883
			c-0.213,0.281-0.426,0.561-0.647,0.836c-0.535,0.673-1.106,1.331-1.707,1.97c-1.152-1.236-2.03-2.515-2.724-3.707
			c0.579-0.571,1.13-1.164,1.665-1.781c0.734,0.595,1.357,1.086,1.727,1.361C326.857,145.999,327.422,146.439,327.961,146.883
			L327.961,146.883z M319.972,154.376c-1.837,1.182-3.876,2.213-6.129,3.05c-0.135-0.4-0.241-0.828-0.302-1.299
			c-0.171-1.311-0.366-2.442-0.575-3.417c1.498-0.659,2.937-1.421,4.316-2.284C318.159,151.682,319.104,152.954,319.972,154.376
			L319.972,154.376z M306.238,159.323c-1.029,0.147-2.095,0.263-3.198,0.338c-0.418-1.373-0.852-2.772-1.268-4.051
			c1.805-0.183,3.572-0.482,5.289-0.901C306.755,156.07,306.475,157.616,306.238,159.323L306.238,159.323z M297.491,159.743
			c-2.012-0.074-4.127-0.261-6.344-0.569c0.235-1.176,0.627-2.445,1.098-3.727c1.93,0.251,3.842,0.37,5.721,0.36
			C297.811,157.108,297.69,158.481,297.491,159.743L297.491,159.743z M285.335,158.101c-1.93-0.452-3.747-0.977-5.442-1.566
			c0.283-0.854,1.156-2.153,2.161-3.588c2.163,0.784,4.324,1.403,6.471,1.862C287.474,155.942,286.393,157.063,285.335,158.101
			L285.335,158.101z M276.947,155.405c-2.515-1.049-4.736-2.229-6.69-3.464c0.283-1.337,0.706-2.788,1.182-4.264
			c2.471,1.57,4.971,2.905,7.492,4.012C278.309,153.023,277.652,154.313,276.947,155.405L276.947,155.405z M239.258,194.814
			c8.988-12.92,20.129-27.689,30.16-38.085c-1.067-3.299-2.298-6.455-3.727-9.376c-16.408,10.248-15.411,25.283-28.713,46.091
			C237.752,193.904,238.512,194.364,239.258,194.814L239.258,194.814z M244.157,197.824c9.074-7.205,19.646-15.113,29.708-21.669
			c-0.563-3.586-1.242-7.229-2.075-10.819c-9.585,7.297-15.161,18.832-29.985,31.037
			C242.603,196.861,243.389,197.347,244.157,197.824L244.157,197.824z M273.487,237.997c0.203,1.281,0.386,2.547,0.551,3.785
			c3.365-1.065,6.795-2.107,10.238-3.1c0.068-2.207,0.074-4.475,0.012-6.712C281.005,233.91,277.483,235.975,273.487,237.997
			L273.487,237.997z M270.932,225.62c0.312,1.17,0.609,2.374,0.887,3.604c3.966-1.256,8.023-2.481,12.082-3.635
			c-0.233-2.404-0.571-4.656-1.021-6.64C279.274,221.08,275.403,223.38,270.932,225.62L270.932,225.62z M267.424,215.972
			c0.412,0.774,0.808,1.626,1.184,2.551c4.131-1.375,8.443-2.75,12.807-4.063c-1.015-2.133-2.328-3.353-3.99-3.22
			C274.404,212.852,271.109,214.457,267.424,215.972L267.424,215.972z M260.215,208.635c1.011,0.768,1.91,1.484,2.696,2.143
			c4.439-1.813,9.04-3.623,13.662-5.331c-0.105-1.93-0.227-4.266-0.39-6.913C271.591,201.73,266.543,205.26,260.215,208.635
			L260.215,208.635z M249.058,200.936c0.931,0.601,1.827,1.188,2.686,1.757c7.613-3.198,15.921-6.471,24.075-9.334
			c-0.207-2.678-0.468-5.546-0.802-8.536C267.876,189.471,260.442,195.556,249.058,200.936L249.058,200.936z"/>
		<path fill="#79A1B9" d="M247.856,159.1c2.038-4.489,4.129-8.743,6.224-12.566c-0.3-3.436-2.175-6.541-5.168-8.767
			c-8.526,8.58-10.204,17.035-11.597,27.41C241.785,163.386,245.259,161.311,247.856,159.1L247.856,159.1z M179.241,129.432
			c-2.374-0.82-5.735-1.894-9.597-2.887c0.454,2.71,0.878,5.689,1.303,8.867c1.518,11.519,2.893,25.631,4.597,38.663
			c1.248,0.068,2.471,0.131,3.663,0.177C178.664,156.806,184.691,144.97,179.241,129.432L179.241,129.432z M164.629,125.38
			c-2.386-0.493-4.869-0.911-7.364-1.196c0.167,1.122,0.229,2.27,0.163,3.43c-0.163,2.83-0.41,5.95-0.718,9.271
			c-0.961,10.345-2.489,22.686-3.677,34.536c1.311,0.326,2.676,0.615,4.101,0.868c3.498-13.62,9.75-23.054,9.235-36.326
			C166.243,132.707,165.71,129.219,164.629,125.38L164.629,125.38z M152.539,123.818c-5.257-0.193-10.309,0.396-14.321,2.364
			c-2.772,3.001-5.709,6.135-8.698,9.328c-1.427,3.112-2.159,6.632-2.034,10.244c8.853-6.105,17.166-10.279,23.365-19.278
			C151.433,125.635,151.994,124.75,152.539,123.818L152.539,123.818z M128.583,152.018c0.629,1.942,1.536,3.854,2.736,5.691
			c15.214-13.764,7.456-10.92,8.914,8.503c2.442,1.522,5.269,2.861,8.515,3.96c1.697-18.374,5.607-44.141,3.172-38.748
			C151.216,132.99,140.797,141.876,128.583,152.018z M164.862,173.258c1.17,0.113,2.312,0.215,3.44,0.31
			c0.068-0.716,0.177-1.443,0.354-2.183c4.531-10.558,2.625-21.628-3.19-1.55v-0.002
			C165.129,170.995,164.942,172.136,164.862,173.258L164.862,173.258z M184.239,174.396c1.685,0.026,3.313,0.036,4.889,0.018
			c2.543-10.301,4.971-20.818,7.289-29.712c0.84-3.23,1.667-6.246,2.477-8.962c0.223-0.744,0.499-1.465,0.818-2.161
			c-2.702-0.352-5.337-0.75-7.689-1.138C182.072,147.199,185.091,159.118,184.239,174.396L184.239,174.396z M203.596,173.606
			c1.93-0.209,3.769-0.448,5.532-0.722c1.108-9.414,2.121-18.828,3.204-26.95c0.442-3.311,0.895-6.407,1.369-9.201
			c0.129-0.75,0.306-1.482,0.531-2.193c-1.067,0.054-2.02,0.08-2.818,0.06c-1.562-0.04-3.226-0.143-4.939-0.283
			C198.992,149.008,202.269,159.932,203.596,173.606L203.596,173.606z M222.959,169.871c2.38-0.667,4.636-1.369,6.831-2.081
			c1.273-11.058,2.463-21.709,3.838-29.822c0.255-1.492,0.716-2.913,1.331-4.248c-2.491-0.145-5.056-0.133-7.561-0.036
			C219.678,147.472,221.477,157.849,222.959,169.871L222.959,169.871z"/>
		<path fill="#436E83" d="M232.479,190.774c0.796,0.466,1.576,0.929,2.346,1.385c1.795-5.152,3.785-10.588,5.898-16.026
			c-1.594-0.565-3.18-0.981-4.732-1.248C235.26,179.701,234.238,184.952,232.479,190.774L232.479,190.774z M89.712,58.952
			c0,0,0.913,0.611,2.352,1.878l-1.134,1.445c-0.416-1.092-0.848-2.181-1.303-3.269L89.712,58.952z M93.948,62.603
			c0.943,0.943,1.988,2.073,3.076,3.397c-1.311,0.876-2.599,1.743-3.864,2.601c-0.428-1.327-0.885-2.656-1.363-3.984
			C92.504,63.95,93.22,63.278,93.948,62.603L93.948,62.603z M101.016,71.605c0.923,1.504,1.829,3.15,2.678,4.941
			c-2.507,0.812-5.07,1.568-7.665,2.272c-0.509-2.129-1.071-4.268-1.699-6.413C96.591,72.258,98.825,71.997,101.016,71.605
			L101.016,71.605z M106.689,84.38c0.822,2.792,1.484,5.834,1.904,9.127c-3.052,1.478-6.165,2.955-9.31,4.433
			c-0.308-2.923-0.704-5.898-1.196-8.91C100.937,87.42,103.81,85.862,106.689,84.38L106.689,84.38z M109.091,102.485
			c-0.016,1.439-0.08,2.917-0.191,4.435c-0.058,0.786-0.113,1.572-0.165,2.352c-2.674,1.098-5.42,2.29-8.208,3.612
			c0.012-4.055-0.38-3.775-0.667-8.162C103.02,104.085,106.114,103.337,109.091,102.485L109.091,102.485z M108.293,116.723
			c-0.09,1.859-0.163,3.689-0.213,5.486c-2.555,1.817-5.275,3.697-8.123,5.601c0.119-2.302,0.203-4.69,0.253-7.161
			C103.012,119.317,105.724,118.008,108.293,116.723L108.293,116.723z M108.192,137.182c0.137,2.587,0.34,5.074,0.623,7.456
			c-3.52,3.512-6.815,6.935-9.744,10.198c-0.42-0.792-0.822-1.596-1.208-2.418c0.008-0.123,0.004,0.038,0.012-0.088
			C100.837,147.589,104.281,142.453,108.192,137.182L108.192,137.182z M110.963,155.781c0.352,1.224,0.732,2.406,1.152,3.544
			c-1.725,2.022-3.438,4.26-5.126,6.761c-0.814-0.903-1.606-1.827-2.362-2.78C106.57,160.889,108.705,158.366,110.963,155.781
			L110.963,155.781z M114.139,163.935c1.007,1.926,2.157,3.683,3.464,5.267c-1.289,1.011-2.646,2.057-4.075,3.148
			c-1.594-1.319-3.114-2.706-4.561-4.165L114.139,163.935z M121.748,173.202c0.716,0.551,1.459,1.061,2.245,1.536l0.482,0.287
			c-0.963,0.834-2.018,1.787-3.186,2.867c-0.899-0.555-1.779-1.128-2.643-1.719C119.615,175.166,120.668,174.171,121.748,173.202
			L121.748,173.202z M130.585,178.213c1.001,0.462,2.032,0.915,3.09,1.353c-1.783,5.607-1.393,9.734-6.956,9.732
			c-0.117-0.002-0.233,0.008-0.35,0.04C127.495,185.734,129.224,181.671,130.585,178.213L130.585,178.213z M142.914,182.909
			c1.699,0.535,3.434,1.033,5.176,1.498c0.048,0.673,0.115,1.258,0.215,1.717c0.215,1.009,0.432,2.026,0.649,3.048
			c-0.931-0.231-1.851-0.472-2.766-0.726c-0.786-0.659-1.58-1.148-2.467-1.453C143.453,185.67,143.177,184.288,142.914,182.909
			L142.914,182.909z M151.823,185.338c1.053,0.247,2.103,0.476,3.156,0.696c-0.082,1.435-0.127,2.921-0.119,4.459
			c-1.108-0.221-2.215-0.454-3.315-0.702C151.626,188.339,151.717,186.852,151.823,185.338L151.823,185.338z M167.489,187.941
			c1.15,0.109,2.28,0.195,3.387,0.255c0.336,1.486,0.595,3.011,0.712,4.61c-1.102-0.092-2.199-0.191-3.293-0.302
			C168.119,190.93,167.827,189.417,167.489,187.941L167.489,187.941z M177.661,188.263c1.16-0.05,2.278-0.131,3.349-0.249
			c0.189,0.814,0.388,1.638,0.613,2.479c0.253-0.895,0.482-1.775,0.694-2.644c0.694-0.101,1.371-0.213,2.024-0.348
			c0.505-0.103,1.009-0.209,1.51-0.324c-0.547,2.018-1.102,3.996-1.654,5.914c-0.615-0.006-1.234-0.016-1.849-0.03l0,0l-0.39-0.01
			h-0.024l-0.054-0.002h-0.004h-0.024l-0.096-0.002h-0.008l-0.209-0.008h-0.026l-0.054-0.002h-0.076l-0.048-0.002h-0.004
			l-0.054-0.004v0.004l-0.09-0.006h-0.068h-0.02h-0.028l-0.028-0.004h-0.026l-0.086-0.002h-0.008h-0.01h-0.004l-0.048-0.002v-0.004
			c-0.774-0.022-1.552-0.046-2.33-0.08C178.226,191.435,177.939,189.873,177.661,188.263L177.661,188.263z M204.052,181.743
			c1.395-0.476,2.786-0.951,4.173-1.421c-0.493,3.952-1.019,7.844-1.576,11.575c-1.088,0.127-2.183,0.249-3.285,0.358
			C203.893,188.51,204.076,185.032,204.052,181.743L204.052,181.743z M223.606,175.773c1.801-0.41,3.592-0.75,5.371-1.005
			c-0.531,4.473-1.086,8.94-1.675,13.262c-1.152,0.308-2.33,0.603-3.522,0.887C224.135,184.17,223.968,179.848,223.606,175.773
			L223.606,175.773z M245.162,178.029c1.463,0.744,2.927,1.596,4.37,2.555c-3.6,4.79-7.074,9.627-10.276,14.231
			c-0.744-0.452-1.504-0.911-2.278-1.373C240.522,187.903,243.049,182.771,245.162,178.029L245.162,178.029z M254.323,184.204
			c1.162,0.999,2.306,2.069,3.419,3.2c-4.722,3.486-9.322,7.032-13.587,10.421c-0.766-0.476-1.552-0.963-2.35-1.453
			C246.887,192.187,250.877,188.086,254.323,184.204L254.323,184.204z M262.712,193.21c0.945,1.273,1.851,2.599,2.708,3.974
			c-4.682,1.797-9.293,3.667-13.676,5.508c-0.86-0.571-1.755-1.156-2.686-1.757C254.339,198.441,258.766,195.795,262.712,193.21
			L262.712,193.21z M268.835,203.527c0.623,1.363,1.202,2.76,1.729,4.197c-2.587,1.007-5.148,2.03-7.651,3.054
			c-0.784-0.659-1.687-1.373-2.696-2.141C263.371,206.952,266.208,205.229,268.835,203.527L268.835,203.527z M272.419,213.761
			c0.277,1.076,0.545,2.161,0.794,3.251c-1.556,0.499-3.09,1.007-4.604,1.512c-0.378-0.925-0.774-1.777-1.184-2.549
			C269.171,215.253,270.829,214.515,272.419,213.761L272.419,213.761z M274.6,223.702c0.275,1.478,0.537,2.951,0.782,4.409
			c-1.192,0.364-2.382,0.738-3.562,1.114c-0.279-1.228-0.575-2.434-0.887-3.604C272.2,224.984,273.418,224.345,274.6,223.702
			L274.6,223.702z M276.729,236.296c0.245,1.516,0.491,2.993,0.744,4.413c-1.15,0.354-2.296,0.714-3.436,1.073
			c-0.165-1.238-0.348-2.503-0.553-3.785C274.6,237.432,275.68,236.865,276.729,236.296L276.729,236.296z M135.844,191.536
			c-0.669,2.499-0.917,5.81-0.854,9.535c-1.733-0.291-3.444-0.667-5.144-1.102c0.131-2.877-0.235-5.554-1.733-7.838
			c-0.229-0.356-0.446-0.7-0.667-1.045C130.301,191.244,133.112,191.395,135.844,191.536L135.844,191.536z M135.369,207.776
			c0.159,1.765,0.358,3.562,0.591,5.365c-2.449-0.663-5.008-1.268-7.725-1.755c0.165-1.301,0.384-2.611,0.609-3.916
			C131.003,207.565,133.182,207.666,135.369,207.776L135.369,207.776z M136.668,218.728c0.159,1.339,0.316,2.752,0.46,4.218
			c-1.009,1.228-3.031,2.133-5.522,2.461c-2.718-2.756-3.604-6.025-3.663-9.499c0.356,0,0.72,0.01,1.086,0.034
			C132.326,216.143,135.158,217.247,136.668,218.728L136.668,218.728z M137.52,227.371c0.179,2.364,0.308,4.811,0.352,7.269
			c-1.409-0.428-2.84-0.866-4.294-1.297c0.577-2.929,0.679-5.215-0.016-6.188L137.52,227.371z M137.776,241.002
			c-0.153,3.042-0.488,6.011-1.073,8.775c-2.491-0.621-4.967-1.363-7.508-2.137c0.854-2.249,1.691-4.644,2.432-6.976
			L137.776,241.002z"/>
		<path fill="#FFFFFF" d="M79.446,35.48c-2.155,3.166-6.342,4.075-9.348,2.028c-3.005-2.044-3.693-6.272-1.538-9.438
			c2.155-3.166,6.34-4.073,9.346-2.026C80.909,28.089,81.599,32.318,79.446,35.48L79.446,35.48z"/>
		<path fill="#2B2A29" d="M78.101,33.824c-1.417,2.085-4.171,2.684-6.149,1.337c-1.98-1.347-2.432-4.127-1.015-6.214
			c1.419-2.083,4.171-2.678,6.149-1.335C79.066,28.957,79.518,31.741,78.101,33.824L78.101,33.824z"/>
		<path fill="#FFFFFF" d="M74.06,32.664c-0.515,0.762-1.522,0.983-2.245,0.488c-0.722-0.493-0.889-1.506-0.37-2.272
			c0.517-0.76,1.522-0.977,2.245-0.484C74.414,30.889,74.579,31.904,74.06,32.664L74.06,32.664z"/>
		<path fill="#305061" d="M334.199,121.293c-3.124-5.18-2.929-11.728,1.612-16.979c5.223-6.039,6.318-11.318,5.866-16.295
			c-0.008,0.159,5.856,12.604,1.005,19.152c2.621-1.478,4.949-7.581,5.906-10.178C348.87,96.219,351.298,122.308,334.199,121.293
			L334.199,121.293z"/>
		<path fill="#2B2A29" d="M24.201,197.759c-8.781,7.559-8.905,7.615,13.547,11.989c0.623,0.121,1.94-1.994,3.695-5.353
			c-4.101-2.497-9.563-4.772-12.85-5.568L24.201,197.759z"/>
		<path fill="#2B2A29" d="M250.662,250.201c0,0-3.23,4.053-3.307,7.593c-0.078,3.538,10.106,1.616,12.391-0.935
			c2.282-2.555-0.205-7.516-0.205-7.516L250.662,250.201z"/>
		<path fill="#2B2A29" d="M275.079,256.531l7.032-1.407c0,0,3.048,5.717,3.391,7.016c0.346,1.295-16.157,2.262-16.157,2.262
			c0.241-2.324,2.883-7.418,5.733-7.866V256.531z"/>
	</g>
</g>
</svg>
